<!-- Generated by IcoMoon.io -->
<svg version="1.1" xmlns="http://www.w3.org/2000/svg" width="32" height="32" viewBox="0 0 32 32">
<title>a_hand_finger</title>
<path d="M27.175 26.693c-0.651-1.669-0.896-4.478-0.611-6.99 0.268-2.365 0.133-4.753-0.401-7.096-0.223-0.992-1.208-1.644-2.289-1.468-0.419 0.066-0.794 0.257-1.085 0.547l-0.221-0.757c-0.28-0.974-1.288-1.564-2.37-1.336-0.363 0.078-0.689 0.251-0.948 0.499l-0.035-0.127c-0.28-0.975-1.306-1.566-2.395-1.33-0.366 0.079-0.693 0.25-0.954 0.495l-2.079-7.549c-0.281-0.976-1.298-1.57-2.369-1.336-0.521 0.112-0.963 0.417-1.243 0.86-0.272 0.428-0.359 0.935-0.245 1.423l2.114 9.32c0.334 1.531 0.51 3.611 0.077 5.035l-3.848-3.357c-1.63-1.183-2.505-0.946-3.387-0.176-0.087 0.076-0.154 0.175-0.191 0.285-0.261 0.758 0.485 2.21 2.2 4.291 0.575 0.763 0.947 1.475 1.307 2.164 0.745 1.423 1.449 2.768 3.643 3.999 3.344 1.875 5.449 7.177 5.47 7.231 0.103 0.263 0.354 0.425 0.621 0.425 0.081 0 0.163-0.014 0.242-0.046 0.344-0.134 0.513-0.521 0.379-0.863-0.092-0.236-2.297-5.799-6.060-7.91-1.849-1.035-2.407-2.103-3.114-3.453-0.367-0.702-0.783-1.496-1.441-2.371-0.954-1.158-1.806-2.468-1.962-2.925 0.311-0.228 0.6-0.229 1.463 0.393l4.483 3.915c0.148 0.129 0.346 0.185 0.539 0.156 0.194-0.030 0.365-0.143 0.468-0.311 1.291-2.111 0.642-5.71 0.411-6.768l-2.116-9.329c-0.033-0.14-0.007-0.286 0.072-0.41 0.088-0.138 0.229-0.234 0.459-0.284 0.333-0.072 0.659 0.11 0.744 0.407l3.596 13.057c0.069 0.249 0.276 0.437 0.531 0.481l0.138 0.023c0.224 0.033 0.443-0.038 0.596-0.199s0.215-0.389 0.165-0.605l-0.923-4.075c-0.040-0.174 0.017-0.314 0.072-0.4 0.091-0.145 0.241-0.246 0.484-0.298 0.34-0.075 0.685 0.11 0.768 0.402l1.445 5.229c0.069 0.251 0.404 0.458 0.66 0.501 0.21 0.031 0.437-0.039 0.59-0.198s0.216-0.384 0.171-0.6l-0.788-3.683c-0.033-0.14-0.008-0.285 0.070-0.409 0.089-0.139 0.229-0.235 0.46-0.285 0.324-0.070 0.659 0.11 0.747 0.417l1.388 4.755c0.096 0.337 0.434 0.539 0.783 0.465 0.344-0.075 0.569-0.405 0.516-0.751l-0.403-2.656c-0.025-0.141 0.009-0.285 0.095-0.405 0.096-0.135 0.245-0.224 0.478-0.261 0.329-0.049 0.65 0.145 0.719 0.455 0.501 2.199 0.628 4.436 0.376 6.651-0.313 2.751-0.040 5.743 0.694 7.625 1.029 2.637 1.056 3.374 1.064 3.374 0 0 0 0 0-0.001-0.065 0.362 0.176 0.708 0.538 0.775 0.355 0.056 0.708-0.173 0.775-0.538 0.055-0.304-0.020-1.239-1.134-4.094z"></path>
</svg>
