<svg version="1.1" xmlns="http://www.w3.org/2000/svg" width="32" height="32" viewBox="0 0 32 32">
<title>a_menu_hambuger</title>
<path d="M29.967 7.995h-27.943c-0.369 0-0.667-0.298-0.667-0.667s0.298-0.667 0.667-0.667h27.943c0.369 0 0.667 0.298 0.667 0.667s-0.298 0.667-0.667 0.667z"></path>
<path d="M29.967 17.331h-27.943c-0.369 0-0.667-0.298-0.667-0.667s0.298-0.667 0.667-0.667h27.943c0.369 0 0.667 0.298 0.667 0.667s-0.298 0.667-0.667 0.667z"></path>
<path d="M29.967 26.667h-27.943c-0.369 0-0.667-0.298-0.667-0.667s0.298-0.667 0.667-0.667h27.943c0.369 0 0.667 0.298 0.667 0.667s-0.298 0.667-0.667 0.667z"></path>
</svg>
