<svg version="1.1" xmlns="http://www.w3.org/2000/svg" width="32" height="32" viewBox="0 0 32 32">
<title>abacus</title>
<path d="M30.519 3.531c-0.369 0-0.666 0.297-0.666 0.666v2.112h-10.947c-0.309-1.556-1.688-2.731-3.331-2.731s-3.022 1.175-3.331 2.731h-1.188c-0.309-1.556-1.688-2.731-3.331-2.731s-3.022 1.175-3.331 2.731h-2.247v-2.112c0-0.369-0.297-0.666-0.666-0.666s-0.666 0.297-0.666 0.666v23.603c0 0.369 0.297 0.666 0.666 0.666s0.666-0.297 0.666-0.666v-2.103h2.247c0.309 1.556 1.688 2.731 3.331 2.731s3.022-1.175 3.331-2.731h1.188c0.309 1.556 1.688 2.731 3.331 2.731s3.022-1.175 3.331-2.731h10.947v2.103c0 0.369 0.297 0.666 0.666 0.666s0.666-0.297 0.666-0.666v-23.603c0.003-0.369-0.297-0.666-0.666-0.666zM15.575 4.95c1.119 0 2.025 0.909 2.025 2.025 0 1.119-0.909 2.025-2.025 2.025s-2.025-0.909-2.025-2.025c0-1.116 0.909-2.025 2.025-2.025zM7.725 4.95c1.119 0 2.025 0.909 2.025 2.025 0 1.119-0.909 2.025-2.025 2.025s-2.025-0.909-2.025-2.025c-0.003-1.116 0.906-2.025 2.025-2.025zM4.394 7.644c0.309 1.556 1.688 2.731 3.331 2.731s3.022-1.175 3.331-2.731h1.188c0.309 1.556 1.688 2.731 3.331 2.731s3.022-1.175 3.331-2.731h10.947v7.7h-2.3c-0.309-1.556-1.688-2.731-3.331-2.731s-3.022 1.175-3.331 2.731h-1.188c-0.309-1.556-1.688-2.731-3.331-2.731s-3.022 1.175-3.331 2.731h-10.894v-7.7h2.247zM26.247 16.009c0 1.119-0.909 2.025-2.025 2.025s-2.025-0.909-2.025-2.025c0-1.119 0.909-2.025 2.025-2.025s2.025 0.906 2.025 2.025zM18.397 16.009c0 1.119-0.909 2.025-2.025 2.025s-2.028-0.909-2.028-2.025c0-1.119 0.909-2.025 2.025-2.025s2.028 0.906 2.028 2.025zM7.725 27.056c-1.119 0-2.025-0.909-2.025-2.025 0-1.119 0.909-2.025 2.025-2.025s2.025 0.906 2.025 2.025c0 1.116-0.909 2.025-2.025 2.025zM15.575 27.056c-1.119 0-2.025-0.909-2.025-2.025 0-1.119 0.909-2.025 2.025-2.025s2.025 0.909 2.025 2.025c0.003 1.116-0.906 2.025-2.025 2.025zM18.906 24.366c-0.309-1.556-1.688-2.731-3.331-2.731s-3.022 1.175-3.331 2.731h-1.188c-0.309-1.556-1.688-2.731-3.331-2.731s-3.022 1.175-3.331 2.731h-2.247v-7.691h10.891c0.309 1.556 1.688 2.731 3.331 2.731s3.022-1.175 3.331-2.731h1.188c0.309 1.556 1.688 2.731 3.331 2.731s3.022-1.175 3.331-2.731h2.3v7.691h-10.944z"></path>
</svg>
