<svg version="1.1" xmlns="http://www.w3.org/2000/svg" width="32" height="32" viewBox="0 0 32 32">
<title>abacus_math_calculator_school</title>
<path d="M30.686 6.714h-14.228c-0.369 0-0.667-0.298-0.667-0.667s0.298-0.667 0.667-0.667h14.228c0.369 0 0.667 0.298 0.667 0.667s-0.298 0.667-0.667 0.667z"></path>
<path d="M12.836 6.714h-1.574c-0.369 0-0.667-0.298-0.667-0.667s0.298-0.667 0.667-0.667h1.574c0.369 0 0.667 0.298 0.667 0.667s-0.298 0.667-0.667 0.667z"></path>
<path d="M7.64 6.714h-1.573c-0.369 0-0.667-0.298-0.667-0.667s0.298-0.667 0.667-0.667h1.573c0.369 0 0.667 0.298 0.667 0.667s-0.298 0.667-0.667 0.667z"></path>
<path d="M2.445 6.714h-1.092c-0.369 0-0.667-0.298-0.667-0.667s0.298-0.667 0.667-0.667h1.092c0.369 0 0.667 0.298 0.667 0.667s-0.298 0.667-0.667 0.667z"></path>
<path d="M4.256 8.503c-1.367 0-2.478-1.111-2.478-2.478s1.111-2.478 2.478-2.478 2.478 1.111 2.478 2.478-1.111 2.478-2.478 2.478zM4.256 4.88c-0.631 0-1.145 0.514-1.145 1.145s0.514 1.145 1.145 1.145 1.145-0.514 1.145-1.145-0.514-1.145-1.145-1.145z"></path>
<path d="M9.451 8.503c-1.367 0-2.478-1.111-2.478-2.478s1.111-2.478 2.478-2.478 2.478 1.111 2.478 2.478-1.111 2.478-2.478 2.478zM9.451 4.88c-0.631 0-1.145 0.514-1.145 1.145s0.514 1.145 1.145 1.145 1.145-0.514 1.145-1.145-0.514-1.145-1.145-1.145z"></path>
<path d="M14.647 8.503c-1.366 0-2.477-1.111-2.477-2.478s1.111-2.478 2.477-2.478c1.367 0 2.479 1.111 2.479 2.478s-1.112 2.478-2.479 2.478zM14.647 4.88c-0.631 0-1.144 0.514-1.144 1.145s0.513 1.145 1.144 1.145c0.631 0 1.145-0.514 1.145-1.145s-0.514-1.145-1.145-1.145z"></path>
<path d="M15.577 25.38h-14.225c-0.369 0-0.667-0.298-0.667-0.667s0.298-0.667 0.667-0.667h14.225c0.369 0 0.667 0.298 0.667 0.667s-0.298 0.667-0.667 0.667z"></path>
<path d="M20.772 25.38h-1.573c-0.369 0-0.667-0.298-0.667-0.667s0.298-0.667 0.667-0.667h1.573c0.369 0 0.667 0.298 0.667 0.667s-0.298 0.667-0.667 0.667z"></path>
<path d="M25.969 25.38h-1.574c-0.369 0-0.667-0.298-0.667-0.667s0.298-0.667 0.667-0.667h1.574c0.369 0 0.667 0.298 0.667 0.667s-0.298 0.667-0.667 0.667z"></path>
<path d="M30.685 25.38h-1.095c-0.369 0-0.667-0.298-0.667-0.667s0.298-0.667 0.667-0.667h1.095c0.369 0 0.667 0.298 0.667 0.667s-0.298 0.667-0.667 0.667z"></path>
<path d="M27.779 27.151c-1.366 0-2.478-1.112-2.478-2.478s1.112-2.478 2.478-2.478 2.478 1.112 2.478 2.478-1.112 2.478-2.478 2.478zM27.779 23.529c-0.631 0-1.145 0.513-1.145 1.145s0.513 1.145 1.145 1.145 1.145-0.513 1.145-1.145-0.513-1.145-1.145-1.145z"></path>
<path d="M22.583 27.151c-1.366 0-2.478-1.112-2.478-2.478s1.112-2.478 2.478-2.478 2.478 1.112 2.478 2.478-1.112 2.478-2.478 2.478zM22.583 23.529c-0.631 0-1.145 0.513-1.145 1.145s0.513 1.145 1.145 1.145 1.145-0.513 1.145-1.145-0.513-1.145-1.145-1.145z"></path>
<path d="M17.388 27.151c-1.366 0-2.478-1.112-2.478-2.478s1.112-2.478 2.478-2.478 2.478 1.112 2.478 2.478-1.112 2.478-2.478 2.478zM17.388 23.529c-0.631 0-1.145 0.513-1.145 1.145s0.513 1.145 1.145 1.145 1.145-0.513 1.145-1.145-0.513-1.145-1.145-1.145z"></path>
<path d="M30.686 16.047h-6.435c-0.369 0-0.667-0.298-0.667-0.667s0.298-0.667 0.667-0.667h6.435c0.369 0 0.667 0.298 0.667 0.667s-0.298 0.667-0.667 0.667z"></path>
<path d="M20.629 16.047h-1.573c-0.369 0-0.667-0.298-0.667-0.667s0.298-0.667 0.667-0.667h1.573c0.369 0 0.667 0.298 0.667 0.667s-0.298 0.667-0.667 0.667z"></path>
<path d="M15.434 16.047h-9.367c-0.369 0-0.667-0.298-0.667-0.667s0.298-0.667 0.667-0.667h9.367c0.369 0 0.667 0.298 0.667 0.667s-0.298 0.667-0.667 0.667z"></path>
<path d="M2.445 16.047h-1.092c-0.369 0-0.667-0.298-0.667-0.667s0.298-0.667 0.667-0.667h1.092c0.369 0 0.667 0.298 0.667 0.667s-0.298 0.667-0.667 0.667z"></path>
<path d="M4.256 17.841c-1.367 0-2.478-1.112-2.478-2.478s1.111-2.478 2.478-2.478 2.478 1.111 2.478 2.478c0 1.366-1.111 2.478-2.478 2.478zM4.256 14.219c-0.631 0-1.145 0.514-1.145 1.145s0.514 1.145 1.145 1.145 1.145-0.514 1.145-1.145-0.514-1.145-1.145-1.145z"></path>
<path d="M17.245 17.841c-1.367 0-2.478-1.112-2.478-2.478s1.111-2.477 2.478-2.477c1.366 0 2.478 1.111 2.478 2.477s-1.112 2.478-2.478 2.478zM17.245 14.219c-0.631 0-1.145 0.513-1.145 1.144s0.513 1.145 1.145 1.145 1.145-0.514 1.145-1.145-0.513-1.144-1.145-1.144z"></path>
<path d="M22.44 17.841c-1.366 0-2.478-1.112-2.478-2.478s1.112-2.478 2.478-2.478 2.478 1.111 2.478 2.478c0 1.366-1.112 2.478-2.478 2.478zM22.44 14.219c-0.631 0-1.145 0.514-1.145 1.145s0.513 1.145 1.145 1.145 1.145-0.514 1.145-1.145-0.513-1.145-1.145-1.145z"></path>
</svg>
