<!-- Generated by IcoMoon.io -->
<svg version="1.1" xmlns="http://www.w3.org/2000/svg" width="32" height="32" viewBox="0 0 32 32">
<title>about_question_faq_help_filled</title>
<path d="M16 0c-8.822 0-16 7.177-16 16s7.177 16 16 16v0c8.821 0 15.999-7.178 15.999-16s-7.177-16-15.999-16zM16.588 26.038c0 0.672-0.545 1.217-1.217 1.217s-1.217-0.545-1.217-1.217v0-0.491c0-0.672 0.545-1.217 1.217-1.217s1.217 0.545 1.217 1.217v0zM20.764 14.907c-0.942 0.967-2.309 1.763-4.176 2.433v2.879c0 0.672-0.545 1.217-1.217 1.217s-1.217-0.545-1.217-1.217v0-2.975c0.005-0.998 0.641-1.847 1.53-2.167l0.016-0.005c2.769-0.982 4.114-2.201 4.114-3.728 0-2.017-1.943-3.658-4.332-3.658-1.578 0-3.034 0.73-3.799 1.904-0.217 0.351-0.601 0.581-1.037 0.581-0.672 0-1.216-0.545-1.216-1.216 0-0.258 0.081-0.498 0.218-0.695l-0.003 0.004c1.208-1.857 3.445-3.011 5.838-3.011 3.73 0 6.765 2.733 6.765 6.092-0.001 1.352-0.5 2.551-1.485 3.561z"></path>
</svg>
