<!-- Generated by IcoMoon.io -->
<svg version="1.1" xmlns="http://www.w3.org/2000/svg" width="32" height="32" viewBox="0 0 32 32">
<title>about_question_faq_help_alone</title>
<path d="M15.084 31c-0.588 0-1.059-0.475-1.059-1.059v-0.769c0-0.587 0.475-1.059 1.059-1.059s1.059 0.475 1.059 1.059v0.766c0 0.587-0.472 1.063-1.059 1.063v0z"></path>
<path d="M15.084 24.719c-0.588 0-1.059-0.475-1.059-1.059v-4.659c0-1.163 0.747-2.209 1.859-2.606 4.716-1.672 7.006-3.844 7.006-6.637 0-3.625-3.422-6.575-7.631-6.575-2.756 0-5.306 1.291-6.659 3.366-0.319 0.491-0.978 0.631-1.466 0.309-0.491-0.319-0.631-0.975-0.309-1.466 1.738-2.669 4.969-4.328 8.434-4.328 5.378 0 9.75 3.9 9.75 8.697 0 3.8-2.753 6.625-8.416 8.634-0.266 0.094-0.45 0.341-0.45 0.606v4.659c0 0.584-0.472 1.059-1.059 1.059v0z"></path>
</svg>
