<svg version="1.1" xmlns="http://www.w3.org/2000/svg" width="36" height="32" viewBox="0 0 36 32">
<title>about_question_faq_help_alone_thicker</title>
<path d="M17.063 27.216c-1.063 0-1.925 0.863-1.925 1.925v0.747c0 1.063 0.863 1.925 1.925 1.925s1.925-0.866 1.925-1.931v-0.744c0-1.063-0.863-1.922-1.925-1.922z"></path>
<path d="M24.55 2.913c-1.959-1.759-4.559-2.725-7.322-2.725-3.669 0-7.103 1.766-8.959 4.616-0.284 0.431-0.381 0.95-0.272 1.45 0.106 0.497 0.4 0.928 0.831 1.219 0.434 0.281 0.947 0.381 1.447 0.272 0.506-0.106 0.938-0.403 1.222-0.834 1.156-1.772 3.35-2.872 5.728-2.872 3.6 0 6.528 2.466 6.528 5.5 0 2.294-2.034 4.134-6.225 5.616-1.438 0.516-2.4 1.872-2.4 3.381v4.534c0 1.063 0.863 1.925 1.925 1.925s1.925-0.863 1.925-1.925v-4.328c2.834-1.019 4.912-2.238 6.35-3.709 1.516-1.553 2.281-3.4 2.281-5.484 0.006-2.506-1.084-4.862-3.059-6.634z"></path>
</svg>
