<svg version="1.1" xmlns="http://www.w3.org/2000/svg" width="32" height="32" viewBox="0 0 32 32">
<title>about_question_faq_help</title>
<path d="M16 4c-6.6 0-12 5.4-12 12s5.4 12 12 12c6.6 0 12-5.4 12-12s-5.4-12-12-12zM16 26c-5.5 0-10-4.5-10-10s4.5-10 10-10c5.5 0 10 4.5 10 10s-4.5 10-10 10zM20.4 12.7c0 2.1-1.4 3.1-2.7 3.9-1 0.7-1.2 1.3-1.2 1.9 0 0.5-0.4 0.9-0.9 0.9s-0.9-0.4-0.9-0.9c0-1.4 0.6-2.5 1.9-3.3 1.2-0.8 1.9-1.3 1.9-2.4 0-0.3 0-1.1-1.3-1.8-0.2-0.1-0.7-0.2-1.3-0.2-0.7 0-1.3 0.2-1.7 0.5-0.8 0.7-0.9 1.4-0.9 1.4 0 0.5-0.4 0.8-0.9 0.8s-0.8-0.4-0.8-0.9c0-0.2 0.1-1.5 1.5-2.7 0.8-0.6 1.8-0.9 2.9-0.9 0.8 0 1.5 0.1 2 0.4 1.5 0.7 2.4 1.9 2.4 3.3zM16.9 21.8c0 0.7-0.6 1.2-1.2 1.2s-1.2-0.6-1.2-1.2 0.6-1.2 1.2-1.2 1.2 0.5 1.2 1.2z"></path>
</svg>
