<!-- Generated by IcoMoon.io -->
<svg version="1.1" xmlns="http://www.w3.org/2000/svg" width="32" height="32" viewBox="0 0 32 32">
<title>accessibility</title>
<path d="M16 7c1.9 0 3.5-1.6 3.5-3.5s-1.6-3.5-3.5-3.5-3.5 1.6-3.5 3.5 1.6 3.5 3.5 3.5zM16 2c0.8 0 1.5 0.7 1.5 1.5s-0.7 1.5-1.5 1.5-1.5-0.7-1.5-1.5 0.7-1.5 1.5-1.5z"></path>
<path d="M28 7.5c-0.6-0.5-1.4-0.6-2.2-0.4-0.1 0-5.3 1.9-9.8 1.9s-9.8-1.9-9.9-1.9c-0.8-0.2-1.6 0-2.2 0.5-0.6 0.4-0.9 1.2-0.9 2s0.5 1.8 2.2 2.4l5.7 1.9c0.6 0.2 0.8 0.5 0.9 0.7 0.3 0.7 0.1 2 0 2.4l-0.4 1.8-2.3 10.2c-0.1 0.6 0 1.3 0.3 1.8 0.4 0.6 1 1 1.7 1.1 1.3 0.2 2.4-0.6 2.8-1.9l2-6.3 2.1 6.3c0.4 1.2 1.3 1.9 2.4 1.9 0.1 0 0.3 0 0.4 0 0.7-0.1 1.3-0.5 1.7-1.1 0.4-0.5 0.5-1.2 0.4-1.9l-2.3-10.2-0.4-1.7c-0.3-1.7-0.1-2.2 0-2.3s0.4-0.4 1.1-0.7l5.5-2c0.7-0.3 2.2-0.8 2.2-2.4 0-0.9-0.4-1.7-1-2.1zM26.2 10.1l-5.5 2c-1.1 0.4-1.8 0.9-2.1 1.6-0.4 0.8-0.5 1.9-0.2 3.7l0.4 1.9 2.2 10.2c0 0.1 0 0.3-0.1 0.3-0.1 0.1-0.2 0.2-0.3 0.2-0.4 0-0.6-0.5-0.6-0.5l-2.3-7.2c-0.1-0.3-0.2-0.7-0.3-1l-0.4-1.5c-0.1-0.4-0.5-0.8-1-0.8s-0.9 0.3-1 0.8l-0.3 1.4c-0.1 0.4-0.2 0.8-0.3 1.2l-2.4 7.1c0 0.1-0.2 0.6-0.6 0.5-0.1 0-0.3-0.1-0.3-0.2-0.1-0.1-0.1-0.2-0.1-0.3l2.3-10.3 0.4-1.9c0.2-1.1 0.3-2.5-0.1-3.5-0.3-0.8-1-1.4-2.1-1.9l-5.8-1.9c-0.7-0.2-0.7-0.4-0.7-0.5 0-0.2 0-0.3 0.2-0.4 0.1-0.1 0.2-0.1 0.3-0.1 0.2 0.1 5.7 2 10.5 2s10.2-1.9 10.4-2c0.2-0.1 0.3 0 0.4 0 0.1 0.2 0.2 0.3 0.2 0.5s0 0.3-0.8 0.6z"></path>
</svg>
