<svg version="1.1" xmlns="http://www.w3.org/2000/svg" width="32" height="32" viewBox="0 0 32 32">
<title>account_conf</title>
<path d="M7.569 12.827h-6.625c-0.433 0-0.785-0.368-0.785-0.823v-1.015c0-0.333 0.191-0.632 0.484-0.759 1.609-0.701 2.076-1.045 2.208-1.171v-0.068c-0.205-0.281-0.369-0.625-0.48-1.011-0.329-0.369-0.399-0.925-0.171-1.379v-0.763c0-1.303 0.788-2.112 2.056-2.112 1.287 0 2.056 0.789 2.056 2.112v0.761c0.229 0.452 0.161 1.009-0.168 1.38-0.112 0.385-0.276 0.729-0.48 1.011v0.092c0.088 0.069 0.519 0.411 2.209 1.147 0.293 0.127 0.483 0.424 0.483 0.759v1.015c-0.001 0.453-0.353 0.823-0.787 0.823zM1.225 11.76h6.063v-0.621c-2.061-0.908-2.555-1.359-2.672-1.784-0.012-0.047-0.019-0.093-0.019-0.141v-0.407c0-0.129 0.047-0.252 0.131-0.349 0.183-0.211 0.333-0.525 0.421-0.884 0.028-0.115 0.093-0.217 0.187-0.289 0.039-0.032 0.069-0.144 0.011-0.224-0.065-0.091-0.101-0.2-0.101-0.312v-0.908c0-0.927-0.528-1.045-0.989-1.045-0.425 0-0.991 0.109-0.991 1.045v0.909c0 0.112-0.035 0.221-0.1 0.312-0.057 0.080-0.028 0.192 0.011 0.223 0.093 0.073 0.159 0.175 0.187 0.289 0.089 0.36 0.239 0.673 0.421 0.884 0.084 0.097 0.131 0.221 0.131 0.349v0.407c0 0.048-0.007 0.096-0.019 0.141-0.116 0.424-0.609 0.875-2.671 1.785v0.62z"></path>
<path d="M19.624 29.571h-6.624c-0.433 0-0.785-0.368-0.785-0.821v-1.016c0-0.332 0.189-0.629 0.481-0.757 1.611-0.701 2.079-1.045 2.211-1.172v-0.068c-0.205-0.281-0.369-0.625-0.481-1.011-0.328-0.369-0.397-0.925-0.169-1.379v-0.761c0-1.304 0.788-2.113 2.056-2.113 1.287 0 2.056 0.791 2.056 2.113v0.761c0.228 0.453 0.159 1.009-0.171 1.379-0.111 0.385-0.275 0.729-0.479 1.011v0.092c0.088 0.068 0.519 0.411 2.208 1.147 0.295 0.129 0.483 0.425 0.483 0.757v1.016c0.001 0.453-0.352 0.823-0.785 0.823zM13.28 28.503h6.063v-0.62c-2.060-0.909-2.553-1.36-2.672-1.784-0.012-0.045-0.019-0.093-0.019-0.141v-0.407c0-0.129 0.047-0.252 0.131-0.349 0.183-0.212 0.332-0.527 0.42-0.884 0.028-0.116 0.095-0.217 0.188-0.291 0.039-0.031 0.069-0.143 0.012-0.224-0.067-0.089-0.101-0.199-0.101-0.311v-0.908c0-0.927-0.528-1.045-0.989-1.045-0.425 0-0.991 0.108-0.991 1.045v0.908c0 0.112-0.035 0.22-0.1 0.311-0.057 0.081-0.028 0.195 0.011 0.224 0.092 0.073 0.157 0.175 0.187 0.289 0.089 0.36 0.24 0.673 0.423 0.885 0.084 0.096 0.131 0.22 0.131 0.349v0.407c0 0.048-0.007 0.096-0.020 0.143-0.119 0.424-0.612 0.875-2.672 1.783v0.62z"></path>
<path d="M31.056 12.827h-6.625c-0.433 0-0.787-0.368-0.787-0.823v-1.015c0-0.333 0.191-0.632 0.484-0.759 1.609-0.701 2.076-1.045 2.207-1.171v-0.068c-0.204-0.281-0.368-0.625-0.48-1.011-0.329-0.369-0.397-0.927-0.169-1.38v-0.761c0-1.303 0.789-2.112 2.057-2.112 1.287 0 2.056 0.789 2.056 2.112v0.763c0.228 0.452 0.16 1.009-0.169 1.379-0.111 0.385-0.275 0.728-0.48 1.011v0.091c0.088 0.069 0.52 0.412 2.209 1.148 0.293 0.127 0.483 0.425 0.483 0.759v1.015c0.001 0.453-0.352 0.823-0.785 0.823zM24.712 11.76h6.063v-0.62c-2.060-0.908-2.553-1.359-2.672-1.784-0.015-0.047-0.021-0.095-0.021-0.143v-0.407c0-0.129 0.047-0.252 0.132-0.349 0.184-0.212 0.335-0.527 0.421-0.884 0.028-0.115 0.095-0.217 0.188-0.291 0.037-0.031 0.068-0.143 0.011-0.223-0.067-0.091-0.101-0.2-0.101-0.312v-0.908c0-0.927-0.528-1.045-0.988-1.045-0.424 0-0.989 0.109-0.989 1.045v0.909c0 0.112-0.036 0.221-0.101 0.312-0.057 0.080-0.028 0.192 0.011 0.223 0.092 0.073 0.159 0.175 0.187 0.289 0.089 0.36 0.241 0.675 0.423 0.885 0.084 0.097 0.132 0.221 0.132 0.349v0.405c0 0.048-0.007 0.096-0.020 0.141-0.117 0.424-0.611 0.875-2.672 1.785v0.62z"></path>
<path d="M11.2 4.928c-0.229 0-0.452-0.119-0.576-0.331-0.185-0.319-0.079-0.727 0.239-0.912 3.112-1.817 7.161-1.817 10.273 0 0.317 0.185 0.425 0.593 0.24 0.912s-0.595 0.424-0.912 0.24c-2.707-1.58-6.225-1.58-8.928 0-0.105 0.061-0.221 0.091-0.336 0.091z"></path>
<path d="M21.271 22.096c-0.215 0-0.427-0.104-0.555-0.299-0.076-0.113-0.112-0.243-0.112-0.368 0-0.216 0.104-0.427 0.299-0.555 2.201-1.465 3.635-3.804 3.931-6.417 0.041-0.367 0.38-0.632 0.739-0.587 0.34 0.039 0.591 0.327 0.591 0.661 0 0.025-0.001 0.051-0.004 0.076-0.341 3.007-1.988 5.695-4.52 7.377-0.112 0.075-0.24 0.111-0.368 0.111z"></path>
<path d="M10.728 22.096c-0.127 0-0.255-0.036-0.368-0.112-2.529-1.681-4.177-4.371-4.519-7.377-0.003-0.027-0.004-0.052-0.004-0.077 0-0.333 0.251-0.623 0.591-0.661 0.372-0.052 0.696 0.223 0.737 0.587 0.297 2.615 1.731 4.953 3.933 6.419 0.193 0.128 0.297 0.339 0.297 0.555 0 0.127-0.036 0.255-0.111 0.368-0.129 0.196-0.341 0.3-0.557 0.3z"></path>
<path d="M15.999 15.513c-0.348 0-0.688-0.068-1.012-0.2-1.363-0.56-2.019-2.128-1.46-3.495 0.544-1.333 2.152-2.015 3.487-1.465 1.364 0.56 2.020 2.128 1.461 3.495-0.413 1.012-1.385 1.665-2.476 1.665zM16.001 11.22c-0.656 0-1.24 0.393-1.488 1.001-0.336 0.824 0.057 1.768 0.877 2.105 0.811 0.332 1.768-0.080 2.096-0.881 0.336-0.824-0.059-1.768-0.879-2.104-0.193-0.081-0.399-0.121-0.607-0.121z"></path>
<path d="M14.415 19.605c-0.044 0-0.088-0.007-0.133-0.017-0.643-0.165-1.207-0.397-1.777-0.729-0.208-0.121-0.308-0.364-0.248-0.596l0.359-1.36c-0.232-0.195-0.447-0.409-0.643-0.64l-1.352 0.371c-0.225 0.065-0.477-0.035-0.6-0.243-0.324-0.548-0.58-1.161-0.743-1.775-0.061-0.232 0.040-0.476 0.247-0.597l1.212-0.707c-0.027-0.304-0.028-0.608-0.004-0.912l-1.217-0.697c-0.208-0.119-0.311-0.363-0.252-0.595 0.16-0.624 0.404-1.223 0.727-1.78 0.12-0.209 0.364-0.309 0.599-0.249l1.353 0.359c0.195-0.233 0.408-0.449 0.639-0.645l-0.368-1.356c-0.063-0.232 0.036-0.476 0.243-0.599 0.544-0.324 1.156-0.581 1.769-0.744 0.231-0.065 0.477 0.039 0.599 0.248l0.705 1.216c0.299-0.028 0.601-0.029 0.904-0.004l0.695-1.22c0.119-0.209 0.363-0.315 0.596-0.252 0.633 0.163 1.215 0.401 1.777 0.729 0.207 0.121 0.308 0.365 0.248 0.597l-0.36 1.361c0.232 0.193 0.445 0.407 0.641 0.639l1.352-0.371c0.233-0.065 0.477 0.036 0.6 0.244 0.327 0.555 0.576 1.152 0.741 1.776 0.061 0.232-0.040 0.476-0.248 0.597l-1.212 0.707c0.028 0.301 0.028 0.604 0.004 0.907l1.217 0.697c0.209 0.119 0.312 0.363 0.252 0.596-0.164 0.636-0.403 1.219-0.729 1.781-0.12 0.208-0.363 0.308-0.597 0.248l-1.353-0.359c-0.195 0.232-0.407 0.447-0.637 0.641l0.369 1.359c0.064 0.232-0.035 0.476-0.243 0.599-0.553 0.329-1.149 0.58-1.771 0.745-0.233 0.061-0.477-0.040-0.597-0.249l-0.704-1.213c-0.299 0.028-0.6 0.028-0.903 0.004l-0.695 1.221c-0.095 0.167-0.273 0.267-0.461 0.267zM13.395 18.129c0.248 0.124 0.5 0.227 0.764 0.312l0.661-1.161c0.109-0.193 0.323-0.299 0.545-0.263 0.44 0.067 0.88 0.063 1.307-0.007 0.223-0.041 0.436 0.067 0.548 0.259l0.671 1.155c0.26-0.088 0.515-0.195 0.76-0.319l-0.352-1.293c-0.059-0.213 0.021-0.44 0.197-0.571 0.356-0.261 0.665-0.575 0.92-0.931 0.129-0.18 0.355-0.26 0.571-0.204l1.289 0.341c0.124-0.249 0.227-0.503 0.313-0.769l-1.159-0.664c-0.192-0.109-0.296-0.325-0.263-0.543 0.067-0.437 0.065-0.879-0.005-1.312-0.035-0.219 0.067-0.435 0.257-0.547l1.153-0.673c-0.088-0.263-0.195-0.519-0.319-0.767l-1.287 0.352c-0.211 0.060-0.44-0.021-0.571-0.199-0.261-0.357-0.576-0.668-0.929-0.925-0.179-0.129-0.259-0.356-0.203-0.568l0.343-1.295c-0.249-0.124-0.5-0.227-0.764-0.313l-0.66 1.161c-0.108 0.193-0.332 0.296-0.545 0.264-0.44-0.068-0.883-0.065-1.311 0.005-0.22 0.035-0.436-0.068-0.547-0.259l-0.671-1.156c-0.26 0.088-0.516 0.196-0.76 0.32l0.352 1.292c0.059 0.213-0.021 0.44-0.199 0.571-0.355 0.26-0.667 0.575-0.924 0.933-0.129 0.177-0.357 0.256-0.569 0.203l-1.288-0.341c-0.121 0.248-0.227 0.504-0.313 0.768l1.159 0.664c0.192 0.109 0.296 0.325 0.263 0.544-0.067 0.436-0.065 0.879 0.005 1.316 0.035 0.217-0.067 0.435-0.257 0.547l-1.153 0.672c0.088 0.261 0.196 0.519 0.32 0.765l1.285-0.352c0.213-0.059 0.441 0.021 0.571 0.199 0.261 0.356 0.575 0.668 0.931 0.927 0.179 0.129 0.259 0.356 0.203 0.568l-0.34 1.293z"></path>
</svg>
