<svg version="1.1" xmlns="http://www.w3.org/2000/svg" width="32" height="32" viewBox="0 0 32 32">
<title>activity</title>
<path d="M14.588 31.025c-0.003 0-0.006 0-0.012 0-0.537-0.003-0.997-0.394-1.091-0.922l-2.662-14.978-1.463 3.194c-0.184 0.397-0.581 0.653-1.019 0.653h-7.197c-0.619 0-1.119-0.5-1.119-1.119s0.5-1.119 1.119-1.119h6.478l2.653-5.8c0.203-0.444 0.659-0.697 1.162-0.644 0.484 0.063 0.875 0.431 0.959 0.916l2.25 12.65 4.356-21.978c0.103-0.519 0.556-0.894 1.084-0.903 0.003 0 0.006 0 0.012 0 0.525 0 0.981 0.366 1.091 0.878l3.706 16.919h5.959c0.619 0 1.119 0.5 1.119 1.119s-0.5 1.119-1.119 1.119h-6.859c-0.525 0-0.981-0.366-1.091-0.878l-2.75-12.563-4.472 22.556c-0.103 0.522-0.566 0.9-1.097 0.9v0z"></path>
</svg>
