<!-- Generated by IcoMoon.io -->
<svg version="1.1" xmlns="http://www.w3.org/2000/svg" width="32" height="32" viewBox="0 0 32 32">
<title>activity</title>
<path d="M27 17c-1.3 0-2.4 0.8-2.8 2h-2.5l-1.8-5.3c-0.1-0.4-0.6-0.7-1-0.7s-0.8 0.3-0.9 0.7l-2.8 9.7-3.2-19.6c-0.1-0.4-0.5-0.8-1-0.8s-0.9 0.3-1 0.8l-3.8 15.2h-3.2c-0.6 0-1 0.4-1 1s0.4 1 1 1h4c0.5 0 0.9-0.3 1-0.8l2.8-11.3 3.2 19.3c0.1 0.5 0.5 0.8 0.9 0.8 0 0 0 0 0.1 0 0.4 0 0.8-0.3 1-0.7l3.1-10.9 1 2.9c0.1 0.4 0.5 0.7 0.9 0.7h3.2c0.4 1.2 1.5 2 2.8 2 1.7 0 3-1.3 3-3s-1.3-3-3-3zM27 21c-0.6 0-1-0.4-1-1s0.4-1 1-1 1 0.4 1 1-0.4 1-1 1z"></path>
</svg>
