<svg version="1.1" xmlns="http://www.w3.org/2000/svg" width="32" height="32" viewBox="0 0 32 32">
<title>add_more_layers_slides</title>
<path d="M27.333 29.335h-1.333c-0.369 0-0.667-0.298-0.667-0.667s0.298-0.667 0.667-0.667h0.667v-22.667h-17.333v0.667c0 0.369-0.298 0.667-0.667 0.667s-0.667-0.298-0.667-0.667v-1.334c0-0.369 0.298-0.667 0.667-0.667h18.667c0.369 0 0.667 0.298 0.667 0.667v24c0 0.368-0.298 0.667-0.667 0.667z"></path>
<path d="M31.333 25.335h-1.333c-0.369 0-0.667-0.298-0.667-0.667s0.298-0.667 0.667-0.667h0.667v-22.667h-17.333v0.667c0 0.369-0.298 0.667-0.667 0.667s-0.667-0.298-0.667-0.667v-1.333c0-0.369 0.298-0.667 0.667-0.667h18.667c0.369 0 0.667 0.298 0.667 0.667v24c0 0.368-0.298 0.667-0.667 0.667z"></path>
<path d="M23.333 32.001h-18.667c-0.369 0-0.667-0.298-0.667-0.667v-22.667c0-0.369 0.298-0.667 0.667-0.667h18.667c0.369 0 0.667 0.298 0.667 0.667v22.667c0 0.368-0.298 0.667-0.667 0.667zM5.333 30.668h17.333v-21.333h-17.333v21.333z"></path>
<path d="M14 23.335c-0.369 0-0.667-0.298-0.667-0.667v-6.667c0-0.369 0.298-0.667 0.667-0.667s0.667 0.298 0.667 0.667v6.667c0 0.368-0.298 0.667-0.667 0.667z"></path>
<path d="M17.333 20.001h-6.667c-0.369 0-0.667-0.298-0.667-0.667s0.298-0.667 0.667-0.667h6.667c0.369 0 0.667 0.298 0.667 0.667s-0.298 0.667-0.667 0.667z"></path>
</svg>
