<!-- Generated by IcoMoon.io -->
<svg version="1.1" xmlns="http://www.w3.org/2000/svg" width="32" height="32" viewBox="0 0 32 32">
<title>add_custom_tables</title>
<path d="M24.136 16.691c-3.945 0-7.153 3.211-7.153 7.153 0 3.947 3.211 7.157 7.153 7.157 3.947 0 7.157-3.211 7.157-7.157 0-3.944-3.212-7.153-7.157-7.153zM24.136 29.885c-3.331 0-6.039-2.709-6.039-6.040s2.708-6.039 6.039-6.039c3.332 0 6.040 2.708 6.040 6.039 0 3.332-2.708 6.040-6.040 6.040z"></path>
<path d="M27.736 23.244h-2.987v-2.987c0-0.333-0.271-0.604-0.604-0.604s-0.604 0.271-0.604 0.604v2.987h-2.987c-0.333 0-0.604 0.271-0.604 0.604s0.271 0.604 0.604 0.604h2.987v2.987c0 0.333 0.271 0.604 0.604 0.604s0.604-0.271 0.604-0.604v-2.987h2.987c0.333 0 0.604-0.271 0.604-0.604s-0.271-0.604-0.604-0.604z"></path>
<path d="M13.892 25.652v-3.681h1.615c0.075-0.265 0.16-0.524 0.257-0.779h-1.872v-3.797h3.893v0.633c0.532-0.543 1.135-1.013 1.788-1.409h-1.009v-3.801l3.893 0.001v2.651c0.255-0.053 0.516-0.089 0.779-0.121v-2.531l3.757 0.001v2.857c0.265 0.081 0.524 0.176 0.779 0.279v-10.123c0-1.48-1.169-2.596-2.72-2.596h-1.187c-0.175-1.296-1.264-2.239-2.685-2.239h-17.904c-1.489 0-2.569 1.092-2.569 2.596v17.961c0 1.528 1.080 2.636 2.569 2.636h1.301l0.004-0.36c0.017 1.508 1.091 2.599 2.565 2.599h8.235c-0.056-0.255-0.099-0.516-0.133-0.779h-1.356zM17.785 12.819v3.797l-3.893-0.001v-3.797l3.893 0.001zM17.785 8.243v3.797l-3.893-0.001v-3.797l3.893 0.001zM22.456 8.243v3.797l-3.893-0.001v-3.797l3.893 0.001zM26.992 8.243v3.797l-3.757-0.001v-3.797l3.757 0.001zM25.051 4.015c1.107 0 1.941 0.781 1.941 1.817v1.631h-21.635v-1.631c0-1.087 0.72-1.817 1.791-1.817h17.903zM1.461 6.025h3.065v3.723h-3.065v-3.723zM1.461 10.648h3.065v3.723h-3.065v-3.723zM1.461 15.223h3.065v3.723h-3.065v-3.723zM4.568 23.413h-1.292c-1.055 0-1.791-0.764-1.791-1.857v-1.824h3.084v3.681h-0.001zM4.647 5.225l-3.161-0.001v-1.631c0-1.087 0.72-1.817 1.791-1.817h17.904c0.975 0 1.736 0.607 1.904 1.459v0 0.001c0 0 0-0.001 0-0.001h-0.001c0 0 0 0.001 0 0.001h-15.935c-1.279 0-2.251 0.809-2.501 1.989zM8.44 25.652h-1.292c-1.055 0-1.791-0.764-1.791-1.857v-1.824h3.083v3.681zM8.44 21.192h-3.083v-3.797h3.083v3.797zM8.44 12.819v3.797l-3.083-0.001v-3.797l3.083 0.001zM8.44 8.243v3.797l-3.083-0.001v-3.797l3.083 0.001zM13.112 25.652h-3.893v-3.681h3.893v3.681zM13.112 21.192h-3.893v-3.797h3.893v3.797zM13.112 12.819v3.797l-3.893-0.001v-3.797l3.893 0.001zM13.112 8.243v3.797l-3.893-0.001v-3.797l3.893 0.001z"></path>
<path d="M23.084 3.235v0c-0.168-0.853-0.929-1.459-1.904-1.459h-0.001c0.975 0 1.736 0.607 1.905 1.459z"></path>
<path d="M23.085 3.235v0 0.001z"></path>
<path d="M19.067 16.112h0.001v1.009h-0.001v-1.009z"></path>
<path d="M18.563 12.039v0z"></path>
<path d="M5.357 16.616v0z"></path>
<path d="M23.235 12.039v0z"></path>
<path d="M13.892 12.039v0z"></path>
<path d="M5.357 12.039v0z"></path>
<path d="M13.892 16.616v0z"></path>
<path d="M9.219 12.039v0z"></path>
<path d="M9.219 16.616v0z"></path>
</svg>
