<svg version="1.1" xmlns="http://www.w3.org/2000/svg" width="32" height="32" viewBox="0 0 32 32">
<title>address_book_contacts</title>
<path d="M26.197 31.997h-20.416c-0.965 0-1.781-0.809-1.781-1.764v-5.569c0-0.369 0.298-0.667 0.667-0.667h1.589c0.352 0 0.649-0.305 0.649-0.667s-0.297-0.667-0.649-0.667h-1.589c-0.369 0-0.667-0.298-0.667-0.667v-4c0-0.369 0.298-0.667 0.667-0.667h1.589c0.352 0 0.649-0.306 0.649-0.668 0-0.361-0.297-0.665-0.649-0.665h-1.589c-0.369 0-0.667-0.298-0.667-0.667v-4c0-0.369 0.298-0.667 0.667-0.667h1.589c0.352 0 0.649-0.305 0.649-0.667s-0.297-0.666-0.649-0.666h-1.589c-0.369 0-0.667-0.298-0.667-0.667v-6.914c0-0.95 0.815-1.753 1.781-1.753h20.416c0.978 0 1.803 0.803 1.803 1.753v28.483c0 0.94-0.842 1.764-1.803 1.764zM5.333 25.331v4.902c0 0.217 0.221 0.431 0.447 0.431h20.416c0.233 0 0.47-0.217 0.47-0.431v-28.483c0-0.208-0.237-0.419-0.47-0.419h-20.416c-0.23 0-0.447 0.204-0.447 0.419v6.247h0.922c1.093 0 1.982 0.897 1.982 1.999s-0.889 2.001-1.982 2.001h-0.922v2.667h0.922c1.093 0 1.982 0.897 1.982 1.999s-0.889 2.001-1.982 2.001h-0.922v2.667h0.922c1.093 0 1.982 0.897 1.982 2s-0.889 2-1.982 2h-0.922zM19.741 23.001c-1.781 0-3.471-0.87-4.521-2.327l-3.803-4.796c-1.416-2.109-1.337-3.774-1.030-4.811 0.39-1.316 1.361-2.366 2.735-2.955 0.4-0.18 0.975-0.033 1.24 0.371l2.318 3.556c0.258 0.394 0.208 0.907-0.12 1.247-0.599 0.615-0.613 1.008-0.569 1.108l0.107 0.13c1.408 1.849 1.974 2.483 2.201 2.699 0.193-0.070 0.521-0.288 0.721-0.487 0.411-0.406 1.121-0.366 1.481 0.068l3.030 3.595c0.184 0.215 0.268 0.505 0.225 0.793-0.043 0.289-0.21 0.544-0.457 0.701-1.168 0.735-2.365 1.108-3.556 1.108zM13.402 9.453c-0.877 0.447-1.486 1.145-1.737 1.993-0.324 1.095-0.044 2.349 0.811 3.626l3.807 4.799c1.32 1.828 3.758 2.323 5.975 1.090l-2.565-3.044c-0.329 0.267-0.921 0.665-1.503 0.665-0.026 0-0.121-0.005-0.147-0.008-0.339-0.038-0.587-0.065-3.007-3.241l-0.143-0.187c-0.105-0.154-0.717-1.173 0.529-2.593l-2.019-3.1z"></path>
</svg>
