<svg version="1.1" xmlns="http://www.w3.org/2000/svg" width="32" height="32" viewBox="0 0 32 32">
<title>address_book_contacts4</title>
<path d="M24.182 24.029h-13.629c-0.654 0-1.186-0.535-1.186-1.194v-1.853c0-0.49 0.305-0.937 0.76-1.113 3.731-1.443 4.585-2.103 4.778-2.31v-0.303c-0.44-0.514-0.788-1.16-1.019-1.893-0.309-0.289-0.513-0.68-0.572-1.106-0.061-0.433 0.030-0.86 0.255-1.228v-1.449c0-2.19 1.456-3.55 3.801-3.55 2.379 0 3.799 1.327 3.799 3.55v1.449c0.225 0.368 0.315 0.796 0.255 1.229-0.059 0.426-0.264 0.818-0.573 1.107-0.232 0.734-0.579 1.38-1.019 1.892v0.32c0.169 0.185 1 0.832 4.779 2.292 0.456 0.176 0.762 0.625 0.759 1.119v1.849c-0 0.659-0.533 1.194-1.186 1.194zM10.7 22.695h13.335v-1.62c-4.75-1.842-5.335-2.586-5.508-3.139-0.019-0.065-0.030-0.131-0.030-0.199v-0.741c0-0.175 0.069-0.342 0.191-0.467 0.415-0.423 0.741-1.021 0.939-1.73 0.042-0.148 0.133-0.277 0.259-0.366 0.117-0.082 0.195-0.214 0.216-0.36 0.014-0.105 0.005-0.262-0.119-0.415-0.098-0.119-0.15-0.268-0.15-0.421v-1.658c0-1.492-0.807-2.217-2.466-2.217-1.637 0-2.467 0.746-2.467 2.217v1.659c0 0.153-0.053 0.301-0.149 0.421s-0.139 0.266-0.119 0.414c0.020 0.147 0.099 0.277 0.215 0.36 0.126 0.088 0.217 0.217 0.258 0.365 0.198 0.707 0.523 1.306 0.939 1.732 0.122 0.124 0.191 0.292 0.191 0.466v0.741c0 0.068-0.010 0.134-0.031 0.198-0.172 0.553-0.755 1.297-5.507 3.141v1.62z"></path>
<path d="M27.59 31.997h-21.847c-0.961 0-1.743-0.783-1.743-1.743v-28.512c0-0.962 0.782-1.744 1.743-1.744h21.848c0.961 0 1.742 0.783 1.742 1.744v28.512c0 0.961-0.783 1.743-1.743 1.743zM5.743 1.331c-0.226 0-0.409 0.184-0.409 0.411v28.512c0 0.227 0.184 0.41 0.409 0.41h21.847c0.227 0 0.41-0.184 0.41-0.41v-28.512c0-0.227-0.184-0.411-0.409-0.411h-21.848z"></path>
<path d="M6.112 27.997h-4.132c-0.369 0-0.667-0.298-0.667-0.667s0.298-0.667 0.667-0.667h4.132c0.369 0 0.667 0.298 0.667 0.667s-0.298 0.667-0.667 0.667z"></path>
<path d="M6.112 23.996h-4.132c-0.369 0-0.667-0.298-0.667-0.667s0.298-0.667 0.667-0.667h4.132c0.369 0 0.667 0.298 0.667 0.667s-0.298 0.667-0.667 0.667z"></path>
<path d="M6.112 19.996h-4.132c-0.369 0-0.667-0.298-0.667-0.667s0.298-0.667 0.667-0.667h4.132c0.369 0 0.667 0.298 0.667 0.667s-0.298 0.667-0.667 0.667z"></path>
<path d="M6.112 15.995h-4.132c-0.369 0-0.667-0.298-0.667-0.667s0.298-0.667 0.667-0.667h4.132c0.369 0 0.667 0.298 0.667 0.667s-0.298 0.667-0.667 0.667z"></path>
<path d="M6.112 11.995h-4.132c-0.369 0-0.667-0.298-0.667-0.667s0.298-0.667 0.667-0.667h4.132c0.369 0 0.667 0.298 0.667 0.667s-0.298 0.667-0.667 0.667z"></path>
<path d="M6.112 7.995h-4.132c-0.369 0-0.667-0.298-0.667-0.667s0.298-0.667 0.667-0.667h4.132c0.369 0 0.667 0.298 0.667 0.667s-0.298 0.667-0.667 0.667z"></path>
<path d="M6.112 3.995h-4.132c-0.369 0-0.667-0.298-0.667-0.667s0.298-0.667 0.667-0.667h4.132c0.369 0 0.667 0.298 0.667 0.667s-0.298 0.667-0.667 0.667z"></path>
</svg>
