<svg version="1.1" xmlns="http://www.w3.org/2000/svg" width="32" height="32" viewBox="0 0 32 32">
<title>address_book_contacts3</title>
<path d="M24.651 31.997h-22.582c-0.369 0-0.667-0.298-0.667-0.667v-30.621c0-0.369 0.298-0.667 0.667-0.667h26.62c0.369 0 0.667 0.298 0.667 0.667v7.956c0 0.369-0.298 0.667-0.667 0.667h-3.371v21.999c0 0.369-0.298 0.667-0.667 0.667zM2.736 30.664h21.249v-21.999c0-0.369 0.298-0.667 0.667-0.667h3.371v-6.622h-25.286v29.288z"></path>
<path d="M19.342 26.664h-12.033c-0.369 0-0.667-0.298-0.667-0.667s0.298-0.667 0.667-0.667h12.033c0.369 0 0.667 0.298 0.667 0.667s-0.298 0.667-0.667 0.667z"></path>
<path d="M19.342 22.664h-12.033c-0.369 0-0.667-0.298-0.667-0.667s0.298-0.667 0.667-0.667h12.033c0.369 0 0.667 0.298 0.667 0.667s-0.298 0.667-0.667 0.667z"></path>
<path d="M28.667 31.997h-1.349c-0.369 0-0.667-0.298-0.667-0.667s0.298-0.667 0.667-0.667h0.682v-6.667h-0.682c-0.369 0-0.667-0.298-0.667-0.667s0.298-0.667 0.667-0.667h1.349c0.369 0 0.667 0.298 0.667 0.667v8c0 0.369-0.298 0.667-0.667 0.667z"></path>
<path d="M28.667 21.331h-1.349c-0.369 0-0.667-0.298-0.667-0.667s0.298-0.667 0.667-0.667h0.682v-6.667h-0.682c-0.369 0-0.667-0.298-0.667-0.667s0.298-0.667 0.667-0.667h1.349c0.369 0 0.667 0.298 0.667 0.667v8c0 0.369-0.298 0.667-0.667 0.667z"></path>
<path d="M19.003 18.664h-11.264c-0.604 0-1.096-0.492-1.096-1.098v-1.514c0-0.452 0.283-0.863 0.704-1.025 2.904-1.111 3.673-1.643 3.872-1.827v-0.148c-0.354-0.419-0.637-0.939-0.827-1.524-0.263-0.253-0.437-0.591-0.488-0.958-0.051-0.37 0.023-0.737 0.21-1.054v-1.15c0-1.865 1.248-3.024 3.257-3.024 2.038 0 3.255 1.13 3.255 3.024v1.148c0.187 0.318 0.262 0.685 0.211 1.056-0.052 0.367-0.225 0.704-0.488 0.958-0.191 0.585-0.473 1.104-0.827 1.523v0.174c0.145 0.12 0.859 0.65 3.871 1.801 0.421 0.159 0.704 0.572 0.704 1.026v1.514c0 0.605-0.491 1.098-1.095 1.098zM7.977 17.331h10.788v-1.117c-3.905-1.504-4.388-2.117-4.545-2.615-0.020-0.064-0.031-0.132-0.031-0.2v-0.605c0-0.176 0.069-0.344 0.193-0.469 0.33-0.334 0.588-0.805 0.745-1.362 0.042-0.149 0.135-0.279 0.262-0.367 0.070-0.048 0.117-0.125 0.128-0.21 0.008-0.061 0.003-0.152-0.072-0.242-0.098-0.119-0.152-0.269-0.152-0.423v-1.355c0-1.154-0.611-1.691-1.922-1.691-1.276 0-1.923 0.569-1.923 1.691v1.356c0 0.154-0.053 0.304-0.152 0.423-0.073 0.090-0.079 0.181-0.071 0.242 0.012 0.085 0.059 0.161 0.128 0.21 0.126 0.088 0.219 0.217 0.261 0.365 0.158 0.557 0.416 1.028 0.747 1.363 0.124 0.125 0.193 0.293 0.193 0.469v0.605c0 0.068-0.010 0.135-0.031 0.201-0.157 0.497-0.639 1.109-4.546 2.614v1.117z"></path>
</svg>
