<svg version="1.1" xmlns="http://www.w3.org/2000/svg" width="32" height="32" viewBox="0 0 32 32">
<title>address_book_contacts5</title>
<path d="M19.212 25.272v0c-2.504 0-4.393-2.349-6.126-7.615-1.335-4.059-1.547-6.747-0.665-8.46 0.747-1.45 2.093-1.869 3.175-2.205l0.388-0.122c0.178-0.059 0.368-0.121 0.584-0.121 0.436 0 0.781 0.26 0.925 0.695l1.569 4.764c0.176 0.532-0.115 1.108-0.647 1.285l-1.266 0.417c-0.21 0.848 0.777 3.867 1.426 4.353 0.348-0.107 1.105-0.359 1.15-0.375 0.665-0.215 1.211 0.055 1.395 0.611l1.59 4.75c0.171 0.521-0.095 1.079-0.604 1.273l-0.257 0.099c-0.79 0.305-1.686 0.651-2.635 0.651zM16.324 8.16l-0.332 0.105c-0.975 0.303-1.895 0.589-2.385 1.542-0.688 1.337-0.437 3.837 0.746 7.433 1.975 6.003 3.72 6.698 4.859 6.698v0c0.694 0 1.426-0.28 2.135-0.553l-1.395-4.169c-1.224 0.408-1.269 0.408-1.389 0.408-1.519 0-2.447-3.276-2.652-4.424-0.094-0.524-0.38-2.12 0.634-2.495l1.151-0.379-1.372-4.165z"></path>
<path d="M27.596 31.997h-21.847c-0.961 0-1.743-0.783-1.743-1.743v-28.512c0-0.962 0.782-1.744 1.743-1.744h21.847c0.961 0 1.743 0.783 1.743 1.744v28.512c0 0.961-0.783 1.743-1.743 1.743zM5.749 1.331c-0.226 0-0.409 0.184-0.409 0.411v28.512c0 0.227 0.184 0.41 0.409 0.41h21.847c0.227 0 0.41-0.184 0.41-0.41v-28.512c0-0.227-0.184-0.411-0.41-0.411h-21.847z"></path>
<path d="M6.119 27.997h-4.132c-0.369 0-0.667-0.298-0.667-0.667s0.298-0.667 0.667-0.667h4.132c0.369 0 0.667 0.298 0.667 0.667s-0.298 0.667-0.667 0.667z"></path>
<path d="M6.119 23.996h-4.132c-0.369 0-0.667-0.298-0.667-0.667s0.298-0.667 0.667-0.667h4.132c0.369 0 0.667 0.298 0.667 0.667s-0.298 0.667-0.667 0.667z"></path>
<path d="M6.119 19.996h-4.132c-0.369 0-0.667-0.298-0.667-0.667s0.298-0.667 0.667-0.667h4.132c0.369 0 0.667 0.298 0.667 0.667s-0.298 0.667-0.667 0.667z"></path>
<path d="M6.119 15.995h-4.132c-0.369 0-0.667-0.298-0.667-0.667s0.298-0.667 0.667-0.667h4.132c0.369 0 0.667 0.298 0.667 0.667s-0.298 0.667-0.667 0.667z"></path>
<path d="M6.119 11.995h-4.132c-0.369 0-0.667-0.298-0.667-0.667s0.298-0.667 0.667-0.667h4.132c0.369 0 0.667 0.298 0.667 0.667s-0.298 0.667-0.667 0.667z"></path>
<path d="M6.119 7.995h-4.132c-0.369 0-0.667-0.298-0.667-0.667s0.298-0.667 0.667-0.667h4.132c0.369 0 0.667 0.298 0.667 0.667s-0.298 0.667-0.667 0.667z"></path>
<path d="M6.119 3.995h-4.132c-0.369 0-0.667-0.298-0.667-0.667s0.298-0.667 0.667-0.667h4.132c0.369 0 0.667 0.298 0.667 0.667s-0.298 0.667-0.667 0.667z"></path>
</svg>
