<svg version="1.1" xmlns="http://www.w3.org/2000/svg" width="32" height="32" viewBox="0 0 32 32">
<title>address_book_contacts2</title>
<path d="M24.645 31.997h-22.582c-0.369 0-0.667-0.298-0.667-0.667v-30.621c0-0.369 0.298-0.667 0.667-0.667h26.62c0.369 0 0.667 0.298 0.667 0.667v7.956c0 0.369-0.298 0.667-0.667 0.667h-3.371v21.999c0 0.369-0.298 0.667-0.667 0.667zM2.729 30.664h21.249v-21.999c0-0.369 0.298-0.667 0.667-0.667h3.371v-6.622h-25.286v29.288z"></path>
<path d="M19.336 26.664h-12.033c-0.369 0-0.667-0.298-0.667-0.667s0.298-0.667 0.667-0.667h12.033c0.369 0 0.667 0.298 0.667 0.667s-0.298 0.667-0.667 0.667z"></path>
<path d="M19.336 22.664h-12.033c-0.369 0-0.667-0.298-0.667-0.667s0.298-0.667 0.667-0.667h12.033c0.369 0 0.667 0.298 0.667 0.667s-0.298 0.667-0.667 0.667z"></path>
<path d="M19.336 18.664h-12.033c-0.369 0-0.667-0.298-0.667-0.667s0.298-0.667 0.667-0.667h12.033c0.369 0 0.667 0.298 0.667 0.667s-0.298 0.667-0.667 0.667z"></path>
<path d="M28.66 31.997h-1.349c-0.369 0-0.667-0.298-0.667-0.667s0.298-0.667 0.667-0.667h0.682v-6.667h-0.682c-0.369 0-0.667-0.298-0.667-0.667s0.298-0.667 0.667-0.667h1.349c0.369 0 0.667 0.298 0.667 0.667v8c0 0.369-0.298 0.667-0.667 0.667z"></path>
<path d="M28.66 21.331h-1.349c-0.369 0-0.667-0.298-0.667-0.667s0.298-0.667 0.667-0.667h0.682v-6.667h-0.682c-0.369 0-0.667-0.298-0.667-0.667s0.298-0.667 0.667-0.667h1.349c0.369 0 0.667 0.298 0.667 0.667v8c0 0.369-0.298 0.667-0.667 0.667z"></path>
<path d="M7.303 13.357c-0.083 0-0.166-0.015-0.247-0.047-0.342-0.137-0.509-0.525-0.372-0.867l2.658-6.652c0.203-0.507 1.035-0.507 1.238 0l2.659 6.652c0.137 0.342-0.030 0.73-0.372 0.867-0.341 0.135-0.731-0.029-0.867-0.372l-2.040-5.103-2.039 5.103c-0.104 0.261-0.355 0.419-0.619 0.419z"></path>
<path d="M11.781 11.256h-3.637c-0.369 0-0.667-0.298-0.667-0.667s0.298-0.667 0.667-0.667h3.637c0.369 0 0.667 0.298 0.667 0.667s-0.298 0.667-0.667 0.667z"></path>
</svg>
