<svg version="1.1" xmlns="http://www.w3.org/2000/svg" width="32" height="32" viewBox="0 0 32 32">
<title>affinity</title>
<path d="M15.99 31.851c-4.204 0-8.157-1.64-11.13-4.619s-4.61-6.938-4.61-11.15 1.637-8.172 4.61-11.15 6.926-4.619 11.13-4.619 8.157 1.64 11.13 4.619 4.61 6.938 4.61 11.15-1.637 8.172-4.61 11.15-6.926 4.619-11.13 4.619zM15.99 2.058c-3.739 0-7.254 1.459-9.898 4.107s-4.1 6.17-4.1 9.916 1.456 7.267 4.1 9.916c2.644 2.649 6.159 4.107 9.898 4.107s7.254-1.459 9.898-4.107c2.644-2.649 4.1-6.17 4.1-9.916s-1.456-7.267-4.1-9.916c-2.644-2.649-6.159-4.107-9.898-4.107z"></path>
<path d="M2.068 12.83c0 0 15.963-0.674 23.77 13.783 0 0 5.194-3.457 5.194-10.469 0 0.069-13.563 2.012-23.125-12.863 0 0-5.199 4.436-5.838 9.549z"></path>
<path d="M24.025 27.967c0-0-0-0-0-0v0c-0.013-0.025-0.862-1.574-2.395-3.201-1.402-1.487-3.683-3.349-6.591-3.772-3.477-0.506-7.112 1.109-10.804 4.802l-0.568-0.568c3.883-3.883 7.75-5.575 11.493-5.028 1.392 0.203 2.764 0.721 4.077 1.54 1.042 0.649 2.050 1.488 2.995 2.493 1.604 1.706 2.465 3.286 2.501 3.353l-0.707 0.382z"></path>
</svg>
