<svg version="1.1" xmlns="http://www.w3.org/2000/svg" width="32" height="32" viewBox="0 0 32 32">
<title>aggregation</title>
<path d="M22.078 8.547l2.925-4.063h3.178l-4.75 6.241 2.766 6.172h-2.847l-1.731-4.234-3.053 4.234h-3.166l4.9-6.425-2.675-5.987h2.847l1.606 4.062z"></path>
<path d="M30.253 3.831l0.719-0.756c0.297-0.328 0.519-0.609 0.663-0.841 0.153-0.25 0.231-0.516 0.231-0.791 0-0.413-0.137-0.753-0.409-1.012-0.269-0.256-0.637-0.388-1.091-0.388-0.494 0-0.894 0.147-1.184 0.438-0.291 0.294-0.434 0.656-0.422 1.081v0.025l0.050 0.15h0.972v-0.163c0-0.206 0.050-0.369 0.144-0.478 0.091-0.106 0.234-0.156 0.438-0.156 0.144 0 0.25 0.044 0.331 0.137 0.087 0.1 0.128 0.225 0.128 0.378 0 0.125-0.038 0.259-0.109 0.394-0.081 0.147-0.231 0.344-0.45 0.584l-1.444 1.572v0.719h3.181v-0.897h-1.747z"></path>
<path d="M24.303 31.953c-0.797 0-1.566-0.181-2.288-0.538-0.675-0.334-1.278-0.806-1.791-1.403-1.012-1.178-1.569-2.731-1.569-4.372s0.556-3.194 1.569-4.372c0.512-0.597 1.116-1.069 1.791-1.403 0.722-0.356 1.491-0.538 2.288-0.538h7.697v2.581h-3.134c0.703 1.075 1.087 2.378 1.087 3.728 0 1.641-0.556 3.194-1.569 4.372-0.512 0.597-1.116 1.069-1.791 1.403-0.725 0.359-1.494 0.541-2.291 0.541zM24.303 21.913c-0.744 0-1.456 0.356-2.009 1-0.616 0.719-0.953 1.688-0.953 2.728s0.337 2.009 0.953 2.728c0.553 0.647 1.269 1 2.009 1 0.744 0 1.456-0.356 2.012-1 0.616-0.719 0.953-1.688 0.953-2.728s-0.337-2.009-0.953-2.728c-0.556-0.644-1.269-1-2.012-1z"></path>
<path d="M17.859 0.047h-17.837l0.328 0.406c0.016 0.022 0.034 0.041 0.050 0.063 0.041 0.053 0.081 0.106 0.131 0.159 2.144 2.306 4.287 4.612 6.431 6.919l2.247 2.416c0.238 0.256 0.475 0.512 0.713 0.769l0.184 0.2-2.775 2.984c-2.213 2.384-4.431 4.766-6.647 7.15-0.081 0.087-0.156 0.178-0.231 0.266-0.034 0.041-0.066 0.078-0.1 0.119l-0.353 0.413h17.859v-2.641h-11.866l7.775-8.291-7.787-8.309h11.878v-2.622z"></path>
</svg>
