<!-- Generated by IcoMoon.io -->
<svg version="1.1" xmlns="http://www.w3.org/2000/svg" width="32" height="32" viewBox="0 0 32 32">
<title>aggregation_task_edit</title>
<path d="M19.672 25.872c-0.166-0.159-0.269-0.384-0.269-0.634 0-0.244 0.1-0.462 0.256-0.622l6.637-6.647c0.459-0.434 1.078-0.7 1.762-0.7 0.65 0 1.247 0.244 1.697 0.641l-0.003-0.003 1.531 1.538c0.95 1.012 0.953 2.55 0 3.5l-6.587 6.581c-0.159 0.159-0.381 0.259-0.622 0.259-0.238 0-0.453-0.094-0.613-0.247v0l-3.791-3.666z"></path>
<path d="M17.269 31.141l0.259-4.122c0.022-0.341 0.303-0.609 0.647-0.609 0.178 0 0.341 0.072 0.459 0.191v0l4.031 4.031c0.119 0.119 0.191 0.281 0.191 0.459 0 0.344-0.269 0.625-0.606 0.647h-0.003l-4.122 0.263c-0.016 0-0.031 0-0.047 0-0.45 0-0.813-0.363-0.813-0.813 0-0.016 0-0.034 0.003-0.047v0 0z"></path>
<path d="M16.438 11.706c0.094-0.297 0.191-0.594 0.309-0.925-4.481-1.556-8.428 1.953-8.691 5.144 0.297 0.047 0.606 0.1 0.916 0.153 0.841-3.541 4.178-5.328 7.466-4.372z"></path>
<path d="M27.747 13.159c-0.5-1.403-1.228-2.713-2.166-3.887l-0.113-0.147c0 0 0.353-0.356 0.419-0.419l2.244-2.216c0.375-0.372 0.381-0.978 0.009-1.356l-0.225-0.228c-0.181-0.184-0.422-0.284-0.681-0.284-0.253 0-0.494 0.097-0.672 0.275l-2.675 2.591-0.128-0.109c-1.122-0.959-2.378-1.725-3.734-2.278-1.4-0.569-2.878-0.897-4.391-0.972l-0.253-0.013v-1.878h1.119c0.528 0 0.959-0.431 0.959-0.959v-0.319c0-0.528-0.431-0.959-0.959-0.959h-4.469c-0.528 0-0.959 0.431-0.959 0.959v0.319c0 0.528 0.431 0.959 0.959 0.959h1.116v1.878h-1.356l-1.769 3.131-1.278 0.478-3.531-0.95-2.55 2.55 0.95 3.531-0.478 1.278-3.134 1.772v3.562l3.131 1.769 0.478 1.278-0.95 3.531 2.55 2.55 3.541-0.95 1.131 0.484 1.903 3.128h3.731v-1.959h-2.653l-1.553-2.825-2.459-1.034-2.95 0.844-1.078-0.897 0.994-2.984-1.031-2.453-2.825-1.553v-1.422l2.825-1.553 1.034-2.459-0.847-2.963 0.912-0.912 2.966 0.847 2.459-1.034 1.394-2.531 0.178-0.016h2.091c1.522 0.003 3.003 0.303 4.397 0.9 1.347 0.575 2.559 1.394 3.6 2.434 1.041 1.044 1.859 2.256 2.431 3.603 0.444 1.044 0.722 2.134 0.834 3.256l1.938-1.941c-0.113-0.491-0.256-0.972-0.425-1.447z"></path>
<path d="M20.488 10.434c0.253 0.147 0.575 0.066 0.716-0.178s0.050-0.563-0.203-0.709l-1.203-0.694c-0.253-0.147-0.575-0.066-0.716 0.178s-0.050 0.563 0.203 0.709l1.203 0.694z"></path>
<path d="M24.762 16.944c0.275-0.056 0.453-0.334 0.397-0.622l-0.275-1.363c-0.056-0.287-0.331-0.475-0.606-0.419s-0.453 0.334-0.397 0.622l0.275 1.363c0.059 0.284 0.331 0.472 0.606 0.419z"></path>
<path d="M21.538 11.091c-0.797 0.453-1.572 0.947-2.319 1.422-1.262 0.803-2.566 1.634-3.988 2.272-0.2 0.091-0.419 0.156-0.631 0.222-0.106 0.031-0.213 0.066-0.319 0.1-0.053 0.009-0.109 0.019-0.178 0.034-1.559 0.209-2.734 1.556-2.737 3.131v0.009c0.003 1.744 1.422 3.159 3.166 3.159 0.009 0 0.022 0 0.031 0 0.006 0 0.012 0 0.019 0 0.688-0.012 1.338-0.238 1.881-0.659 0.525-0.406 0.919-0.981 1.103-1.616 0.016-0.053 0.031-0.109 0.044-0.166 0.222-0.522 0.566-0.906 0.897-1.281l0.006-0.009c0.075-0.109 0.728-0.709 1.484-1.406 1.113-1.025 2.497-2.297 3.225-3.078 0.259-0.197 0.431-0.522 0.481-0.894 0.047-0.375-0.044-0.734-0.247-0.991-0.416-0.528-1.225-0.634-1.919-0.25zM14.584 19.716c-0.797 0-1.444-0.647-1.444-1.444s0.647-1.444 1.444-1.444c0.797 0 1.444 0.647 1.444 1.444s-0.647 1.444-1.444 1.444zM19.784 14.578c-0.884 0.834-1.8 1.694-2.416 2.291-0.222-0.444-0.544-0.831-0.944-1.128 1.337-0.791 4.166-2.387 5.381-3.072-0.578 0.553-1.309 1.241-2.022 1.909z"></path>
</svg>
