<!-- Generated by IcoMoon.io -->
<svg version="1.1" xmlns="http://www.w3.org/2000/svg" width="32" height="32" viewBox="0 0 32 32">
<title>aggregation_task</title>
<path d="M18.172 12.075c0.094-0.297 0.191-0.594 0.309-0.925-4.481-1.553-8.428 1.956-8.691 5.147 0.297 0.047 0.606 0.1 0.916 0.153 0.844-3.541 4.178-5.331 7.466-4.375z"></path>
<path d="M29.481 13.528c-0.5-1.403-1.228-2.713-2.166-3.887l-0.113-0.144c0 0 0.353-0.356 0.419-0.419l2.244-2.216c0.375-0.372 0.381-0.978 0.009-1.356l-0.225-0.228c-0.181-0.184-0.422-0.284-0.681-0.284-0.253 0-0.494 0.097-0.672 0.275l-2.672 2.591-0.128-0.109c-1.122-0.959-2.378-1.725-3.734-2.278-1.4-0.569-2.878-0.897-4.391-0.972l-0.253-0.013v-1.881h1.116c0.528 0 0.959-0.431 0.959-0.959v-0.319c0-0.528-0.431-0.959-0.959-0.959h-4.469c-0.528 0-0.959 0.431-0.959 0.959v0.319c0 0.528 0.431 0.959 0.959 0.959h1.116v1.878h-1.356l-1.769 3.131-1.278 0.478-3.531-0.95-2.55 2.55 0.95 3.531-0.478 1.278-3.134 1.772v3.566l3.131 1.769 0.478 1.278-0.95 3.531 2.55 2.55 3.538-0.953 1.131 0.484 1.903 3.128h1.522v-1.959h-0.444l-1.553-2.825-2.453-1.031-2.95 0.844-1.078-0.897 0.994-2.984-1.031-2.453-2.825-1.553v-1.422l2.825-1.553 1.034-2.459-0.847-2.966 0.912-0.912 2.966 0.847 2.459-1.034 1.394-2.531 0.178-0.016h2.091c1.522 0.003 3.003 0.303 4.397 0.9 1.347 0.575 2.559 1.394 3.6 2.434 1.041 1.044 1.859 2.256 2.431 3.603 0.594 1.397 0.894 2.878 0.894 4.4 0 1.525-0.3 3.006-0.894 4.403-0.572 1.35-1.394 2.563-2.434 3.603-1.047 1.041-2.259 1.859-3.609 2.434-1.316 0.559-2.706 0.859-4.137 0.891v2.238c1.731-0.034 3.413-0.394 5.003-1.069 1.616-0.688 3.066-1.669 4.316-2.916s2.231-2.7 2.916-4.316c0.709-1.672 1.072-3.444 1.072-5.269 0.003-1.553-0.262-3.078-0.781-4.531z"></path>
<path d="M22.941 10.628c-0.141 0.244-0.462 0.322-0.716 0.178l-1.203-0.694c-0.253-0.147-0.344-0.466-0.203-0.709s0.462-0.322 0.716-0.178l1.203 0.694c0.25 0.147 0.344 0.466 0.203 0.709z"></path>
<path d="M26.5 17.313c-0.275 0.056-0.547-0.134-0.606-0.419l-0.275-1.363c-0.056-0.287 0.122-0.566 0.397-0.622s0.547 0.134 0.606 0.419l0.275 1.363c0.056 0.284-0.122 0.566-0.397 0.622z"></path>
<path d="M25.984 21.391c-0.272-0.066-0.441-0.353-0.372-0.637l0.325-1.35c0.069-0.284 0.347-0.462 0.622-0.397 0.272 0.066 0.441 0.353 0.372 0.637l-0.325 1.35c-0.069 0.284-0.35 0.462-0.622 0.397z"></path>
<path d="M23.803 24.781c-0.228-0.163-0.278-0.491-0.109-0.728l0.803-1.134c0.169-0.238 0.494-0.3 0.725-0.137s0.278 0.491 0.109 0.728l-0.803 1.134c-0.169 0.238-0.494 0.3-0.725 0.137z"></path>
<path d="M20.781 26.909c-0.153-0.238-0.075-0.559 0.169-0.719l1.169-0.753c0.247-0.159 0.572-0.094 0.725 0.141 0.153 0.238 0.075 0.559-0.169 0.719l-1.169 0.753c-0.247 0.159-0.572 0.097-0.725-0.141z"></path>
<path d="M25.197 11.713c-0.422-0.528-1.228-0.634-1.922-0.25-0.797 0.453-1.572 0.947-2.319 1.422-1.262 0.803-2.566 1.634-3.988 2.272-0.2 0.091-0.419 0.156-0.631 0.222-0.106 0.031-0.212 0.066-0.319 0.1-0.053 0.009-0.109 0.019-0.178 0.034-1.559 0.209-2.734 1.556-2.737 3.131v0.009c0.003 1.744 1.422 3.159 3.166 3.159 0.009 0 0.022 0 0.031 0 0.006 0 0.012 0 0.019 0 0.688-0.012 1.337-0.238 1.881-0.659 0.525-0.406 0.919-0.981 1.103-1.616 0.016-0.053 0.031-0.109 0.044-0.166 0.222-0.522 0.566-0.906 0.897-1.281l0.006-0.009c0.075-0.109 0.728-0.709 1.484-1.406 1.113-1.025 2.497-2.297 3.225-3.078 0.259-0.197 0.431-0.522 0.481-0.894s-0.041-0.734-0.244-0.991zM16.319 20.084c-0.797 0-1.444-0.647-1.444-1.444s0.647-1.444 1.444-1.444c0.797 0 1.444 0.647 1.444 1.444s-0.647 1.444-1.444 1.444zM21.519 14.947c-0.884 0.834-1.8 1.694-2.416 2.291-0.222-0.444-0.544-0.831-0.944-1.128 1.337-0.791 4.166-2.387 5.381-3.072-0.578 0.553-1.309 1.241-2.022 1.909z"></path>
</svg>
