<svg version="1.1" xmlns="http://www.w3.org/2000/svg" width="32" height="32" viewBox="0 0 32 32">
<title>airplay_screen_sharing</title>
<path d="M24.66 32.001h-17.332c-0.752 0-1.399-0.389-1.731-1.042-0.342-0.672-0.286-1.487 0.143-2.075l8.687-10.724c0.708-0.975 2.408-1.001 3.155 0.027l8.646 10.669c0.456 0.624 0.518 1.405 0.182 2.066-0.337 0.665-1.008 1.078-1.75 1.078zM15.994 18.712c-0.204 0-0.389 0.095-0.51 0.259l-8.687 10.724c-0.111 0.155-0.125 0.437-0.012 0.659 0.105 0.208 0.288 0.314 0.543 0.314h17.332c0.241 0 0.451-0.13 0.561-0.349 0.053-0.103 0.152-0.372-0.051-0.65l-8.646-10.671c-0.141-0.193-0.327-0.287-0.531-0.287z"></path>
<path d="M31.333 22.668h-7.333c-0.369 0-0.667-0.298-0.667-0.667s0.298-0.667 0.667-0.667h6.667v-20h-29.333v20h6.667c0.369 0 0.667 0.298 0.667 0.667s-0.298 0.667-0.667 0.667h-7.333c-0.369 0-0.667-0.298-0.667-0.667v-21.333c0-0.369 0.298-0.667 0.667-0.667h30.667c0.369 0 0.667 0.298 0.667 0.667v21.333c0 0.368-0.298 0.667-0.667 0.667z"></path>
</svg>
