<!-- Generated by IcoMoon.io -->
<svg version="1.1" xmlns="http://www.w3.org/2000/svg" width="32" height="32" viewBox="0 0 32 32">
<title>alarm_clock_ringer_time_morning</title>
<path d="M9.6 6.9c0.2-0.3 0.4-0.6 0.4-1s-0.2-0.7-0.5-1v0c-0.7-0.6-1.6-0.9-2.5-0.9h-0.2c-2.1 0.1-3.8 2-3.8 4.2 0 1.2 0.5 1.8 0.9 2.3 0.2 0.3 0.5 0.5 0.9 0.5h0.1c0.3 0 0.7-0.2 0.9-0.4l3.8-3.7zM8.2 6.5v0c0 0 0-0.1 0 0 0-0.1 0 0 0 0zM5 8.2c0-1.2 0.8-2.1 1.9-2.2h0.1c0.2 0 0.4 0 0.6 0.1l-2.6 2.5c0-0.1 0-0.3 0-0.4zM16 6c-6.1 0-11 4.9-11 11 0 2.7 1 5.1 2.6 7l-2.3 2.3c-0.4 0.4-0.4 1 0 1.4 0.2 0.2 0.4 0.3 0.7 0.3s0.5-0.1 0.7-0.3l2.3-2.3c1.9 1.6 4.4 2.6 7 2.6s5.1-1 7-2.6l2.3 2.3c0.2 0.2 0.5 0.3 0.7 0.3s0.5-0.1 0.7-0.3c0.4-0.4 0.4-1 0-1.4l-2.2-2.3c1.6-1.9 2.6-4.4 2.6-7-0.1-6.1-5-11-11.1-11zM16 26c-5 0-9-4-9-9s4-9 9-9c5 0 9 4 9 9s-4 9-9 9zM17 10v7c0 0.6-0.4 1-1 1h-5c-0.6 0-1-0.4-1-1s0.4-1 1-1h4v-6c0-0.6 0.4-1 1-1s1 0.4 1 1zM25.2 4h-0.2c-0.9 0-1.8 0.3-2.5 0.9v0c-0.3 0.3-0.5 0.6-0.5 1.1 0 0.4 0.1 0.7 0.4 0.9l3.8 3.7c0.2 0.2 0.5 0.4 0.9 0.4h0.1c0.4 0 0.7-0.2 0.9-0.5 0.4-0.5 0.9-1.1 0.9-2.3 0-2.2-1.7-4.1-3.8-4.2zM27 8.6l-2.5-2.5c0.1-0.1 0.3-0.1 0.5-0.1h0.1c1.1 0.1 1.9 1 1.9 2.2 0 0.1 0 0.3 0 0.4z"></path>
</svg>
