<!-- Generated by IcoMoon.io -->
<svg version="1.1" xmlns="http://www.w3.org/2000/svg" width="32" height="32" viewBox="0 0 32 32">
<title>album_picture_image_photo</title>
<path d="M28.1 7h-0.1v-1c0-2.2-1.8-4-4-4h-20c-2.2 0-4 1.8-4 4v16c0 2.2 1.8 4 4 4h1v0.1c0 2.2 1.7 3.9 3.9 3.9h7.7c0 0 0 0 0 0s0 0 0 0h11.5c2.1 0 3.9-1.7 3.9-3.9v-15.2c0-2.2-1.7-3.9-3.9-3.9zM28.1 9c1 0 1.9 0.8 1.9 1.9v12.2l-2.8-2.3c0 0 0 0 0 0-1.1-0.9-2.9-0.8-3.9 0.2l-1.4 1.4-5.2-5.2c-1.1-1-2.9-1.1-4-0.1 0 0 0 0 0 0l-5.7 4.9v-11.1c0-1.1 0.8-1.9 1.9-1.9h19.2zM5 24h-1c-1.1 0-2-0.9-2-2v-16c0-1.1 0.9-2 2-2h20c1.1 0 2 0.9 2 2v1h-17.1c-2.2 0-3.9 1.7-3.9 3.9v13.1zM7 26.1v-1.4l6.9-6.1c0 0 0 0 0 0 0.4-0.3 0.9-0.3 1.3 0l5.2 5.2-4.2 4.2h-7.3c-1.1 0-1.9-0.8-1.9-1.9zM28.1 28h-9.1l5.7-5.6c0.2-0.2 0.4-0.3 0.7-0.3s0.5 0.1 0.6 0.2c0 0 0 0 0 0l4 3.3v0.5c0 1.1-0.8 1.9-1.9 1.9z"></path>
<path d="M23.3 16.6c1.6 0 2.9-1.3 2.9-2.9s-1.3-2.9-2.9-2.9c-1.6 0-2.9 1.3-2.9 2.9s1.3 2.9 2.9 2.9zM23.3 12.8c0.5 0 0.9 0.4 0.9 0.9s-0.4 0.9-0.9 0.9c-0.5 0-0.9-0.4-0.9-0.9s0.4-0.9 0.9-0.9z"></path>
</svg>
