<svg version="1.1" xmlns="http://www.w3.org/2000/svg" width="32" height="32" viewBox="0 0 32 32">
<title>album_picture_image_photo2</title>
<path d="M6.176 27.332c-0.233 0-0.464-0.057-0.676-0.168-0.346-0.181-0.601-0.486-0.717-0.858l-4.55-14.54c-0.117-0.372-0.081-0.768 0.1-1.115s0.486-0.601 0.859-0.717l6.549-2.010c0.352-0.112 0.725 0.090 0.833 0.442s-0.090 0.725-0.442 0.833l-6.545 2.008-0.081 0.16 4.55 14.54 0.361 0.72-0.2-0.635 9.721-3.055c0.356-0.116 0.727 0.085 0.835 0.436 0.111 0.35-0.085 0.725-0.436 0.835l-9.72 3.055c-0.145 0.046-0.293 0.069-0.44 0.069z"></path>
<path d="M23.745 8.544c-0.28 0-0.542-0.178-0.634-0.459l-1.031-3.146c-0.019-0.065-0.104-0.113-0.16-0.093l-6.689 2.044c-0.352 0.109-0.726-0.091-0.832-0.443-0.108-0.352 0.091-0.725 0.443-0.832l6.683-2.042c0.367-0.117 0.763-0.081 1.109 0.101 0.345 0.181 0.6 0.486 0.717 0.859l1.029 3.137c0.115 0.35-0.077 0.727-0.427 0.841-0.068 0.023-0.138 0.033-0.207 0.033z"></path>
<path d="M27.374 26.322v0c-0.090 0-0.18-0.008-0.269-0.025l-20.939-3.905c-0.792-0.147-1.316-0.913-1.169-1.704l2.794-14.977c0.146-0.779 0.895-1.318 1.705-1.17l20.939 3.906c0.792 0.148 1.316 0.913 1.168 1.706l-2.793 14.977c-0.129 0.691-0.733 1.193-1.435 1.193zM9.244 5.851c-0.074 0-0.131 0.036-0.143 0.104l-2.794 14.976c-0.013 0.069 0.033 0.138 0.103 0.151l20.964 3.906c0.051 0 0.112-0.036 0.125-0.104l2.793-14.977c0.013-0.071-0.033-0.137-0.103-0.15l-20.938-3.906c-0.002 0-0.004-0.001-0.007-0.001z"></path>
<path d="M13.1 15.071c-1.545 0-2.801-1.257-2.801-2.801s1.257-2.802 2.801-2.802 2.802 1.257 2.802 2.802-1.257 2.801-2.802 2.801zM13.1 10.801c-0.809 0-1.468 0.659-1.468 1.469s0.659 1.468 1.468 1.468c0.81 0 1.469-0.659 1.469-1.468s-0.659-1.469-1.469-1.469z"></path>
<path d="M10.221 23.049c-0.177 0-0.354-0.070-0.486-0.21-0.252-0.268-0.239-0.69 0.029-0.943l8.706-8.187c0.155-0.146 0.375-0.208 0.577-0.17 0.208 0.038 0.387 0.173 0.479 0.363l1.68 3.447 4.014-4.303c0.151-0.164 0.376-0.238 0.596-0.203 0.22 0.036 0.408 0.18 0.499 0.384l3.234 7.184c0.151 0.336 0.001 0.731-0.335 0.881-0.332 0.152-0.731 0.003-0.881-0.335l-2.823-6.27-3.992 4.279c-0.148 0.16-0.371 0.238-0.586 0.204-0.217-0.033-0.404-0.169-0.5-0.367l-1.708-3.504-8.047 7.566c-0.128 0.121-0.292 0.181-0.456 0.181z"></path>
</svg>
