<svg version="1.1" xmlns="http://www.w3.org/2000/svg" width="32" height="32" viewBox="0 0 32 32">
<title>album_picture_image_photo</title>
<path d="M1.587 23.909c-0.885 0-1.605-0.736-1.605-1.639v-18.1c0-0.871 0.673-1.503 1.6-1.503h24.787c0.904 0 1.611 0.684 1.611 1.557 0 0.369-0.298 0.667-0.667 0.667s-0.667-0.298-0.667-0.667c0-0.217-0.249-0.224-0.277-0.224h-24.787c-0.266 0-0.266 0.128-0.266 0.17v18.1c0 0.163 0.127 0.306 0.272 0.306 0.369 0 0.667 0.298 0.667 0.667s-0.298 0.667-0.667 0.667z"></path>
<path d="M30.396 28h-24.827c-0.875 0-1.587-0.712-1.587-1.587v-18.158c-0-0.876 0.711-1.588 1.587-1.588h24.827c0.875 0 1.586 0.712 1.586 1.588v18.158c-0 0.875-0.711 1.587-1.586 1.587zM5.568 8c-0.139 0-0.253 0.114-0.253 0.255v18.158c0 0.141 0.114 0.254 0.253 0.254h24.827c0.139 0 0.253-0.113 0.253-0.254v-18.158c-0-0.141-0.113-0.255-0.253-0.255h-24.827z"></path>
<path d="M11.555 17.68c-1.702 0-3.087-1.384-3.087-3.087s1.385-3.087 3.087-3.087 3.086 1.385 3.086 3.087c0 1.702-1.384 3.087-3.086 3.087zM11.555 12.84c-0.967 0-1.753 0.786-1.753 1.753s0.786 1.753 1.753 1.753c0.966 0 1.753-0.786 1.753-1.753s-0.787-1.753-1.753-1.753z"></path>
<path d="M10.421 28c-0.133 0-0.268-0.040-0.385-0.122-0.3-0.214-0.37-0.63-0.158-0.93l8.015-11.292c0.124-0.174 0.324-0.279 0.538-0.281 0.228-0.025 0.415 0.098 0.542 0.269l2.738 3.694 3.741-5.885c0.12-0.189 0.327-0.305 0.551-0.309 0.234-0.006 0.434 0.105 0.561 0.289l5.307 7.718c0.208 0.303 0.131 0.719-0.172 0.927-0.302 0.208-0.719 0.131-0.927-0.172l-4.736-6.887-3.721 5.853c-0.117 0.185-0.319 0.301-0.539 0.309-0.22-0.008-0.428-0.094-0.559-0.269l-2.768-3.734-7.484 10.542c-0.13 0.184-0.335 0.281-0.544 0.281z"></path>
</svg>
