<!-- Generated by IcoMoon.io -->
<svg version="1.1" xmlns="http://www.w3.org/2000/svg" width="32" height="32" viewBox="0 0 32 32">
<title>alerts_management2</title>
<path d="M5.397 30.705c-0.055 0-0.109-0.007-0.163-0.020-0.296-0.076-0.504-0.341-0.504-0.647v-6.572h-3.916c-0.217 0-0.421-0.105-0.545-0.284-0.125-0.179-0.155-0.405-0.081-0.609l3.421-9.456h-2.795c-0.22 0-0.425-0.108-0.549-0.289-0.125-0.181-0.152-0.412-0.072-0.617l4.049-10.488c0.099-0.257 0.347-0.427 0.621-0.427h8.56c0.231 0 0.445 0.12 0.568 0.317 0.121 0.196 0.132 0.443 0.028 0.649l-2.423 4.816h2.817c0.244 0 0.468 0.133 0.585 0.347 0.116 0.213 0.108 0.475-0.024 0.68l-6.063 9.455h2.828c0.235 0 0.452 0.124 0.572 0.324 0.12 0.201 0.127 0.452 0.015 0.657l-6.343 11.812c-0.119 0.22-0.347 0.352-0.588 0.352zM1.764 22.133h3.633c0.368 0 0.667 0.299 0.667 0.667v4.587l4.561-8.495h-2.932c-0.244 0-0.468-0.133-0.585-0.347-0.116-0.215-0.108-0.475 0.024-0.68l6.063-9.455h-2.679c-0.231 0-0.445-0.12-0.568-0.317-0.12-0.196-0.131-0.441-0.028-0.648l2.423-4.816h-7.021l-3.535 9.155h2.772c0.217 0 0.421 0.107 0.545 0.284 0.125 0.177 0.155 0.405 0.081 0.609l-3.421 9.456z"></path>
<path d="M24.548 11.551c-0.383 0-0.759-0.073-1.117-0.22-1.505-0.617-2.229-2.343-1.613-3.848 0.601-1.468 2.376-2.215 3.849-1.612 0.729 0.299 1.3 0.863 1.604 1.591 0.305 0.727 0.307 1.528 0.009 2.257-0.456 1.112-1.529 1.832-2.732 1.832zM24.549 6.983c-0.66 0-1.248 0.393-1.497 1.004-0.339 0.825 0.059 1.771 0.884 2.109 0.815 0.333 1.78-0.079 2.109-0.884 0.164-0.4 0.161-0.839-0.005-1.237s-0.48-0.708-0.879-0.871c-0.197-0.081-0.403-0.121-0.612-0.121z"></path>
<path d="M22.856 15.904c-0.055 0-0.111-0.007-0.165-0.021-0.684-0.175-1.311-0.432-1.92-0.785-0.259-0.151-0.387-0.457-0.309-0.747l0.365-1.385c-0.219-0.185-0.421-0.388-0.611-0.605l-1.383 0.379c-0.288 0.077-0.596-0.045-0.749-0.304-0.349-0.589-0.627-1.251-0.803-1.913-0.077-0.291 0.049-0.596 0.308-0.748l1.24-0.721c-0.024-0.287-0.025-0.573-0.004-0.86l-1.245-0.711c-0.26-0.149-0.389-0.453-0.315-0.745 0.175-0.676 0.439-1.323 0.788-1.92 0.149-0.259 0.452-0.387 0.747-0.309l1.385 0.365c0.187-0.219 0.388-0.421 0.605-0.611l-0.377-1.383c-0.080-0.289 0.045-0.596 0.304-0.749 0.588-0.349 1.251-0.627 1.915-0.803 0.295-0.079 0.595 0.051 0.748 0.309l0.72 1.24c0.285-0.021 0.571-0.024 0.86-0.003l0.709-1.244c0.148-0.261 0.448-0.395 0.747-0.316 0.684 0.176 1.311 0.433 1.919 0.787 0.26 0.151 0.387 0.456 0.309 0.747l-0.365 1.388c0.217 0.185 0.419 0.387 0.607 0.603l1.381-0.375c0.289-0.076 0.596 0.045 0.749 0.304 0.355 0.6 0.624 1.244 0.801 1.916 0.077 0.289-0.049 0.595-0.308 0.747l-1.241 0.723c0.024 0.285 0.025 0.571 0.004 0.856l1.245 0.711c0.26 0.148 0.389 0.453 0.315 0.744-0.176 0.685-0.432 1.313-0.785 1.921-0.149 0.259-0.452 0.387-0.748 0.309l-1.385-0.367c-0.187 0.217-0.387 0.42-0.603 0.608l0.377 1.384c0.080 0.289-0.045 0.596-0.304 0.749-0.596 0.353-1.241 0.624-1.913 0.804-0.289 0.079-0.596-0.049-0.749-0.309l-0.72-1.24c-0.285 0.023-0.569 0.024-0.857 0.004l-0.711 1.245c-0.119 0.208-0.341 0.332-0.577 0.332zM21.885 14.181c0.213 0.103 0.429 0.191 0.655 0.268l0.665-1.167c0.137-0.24 0.411-0.368 0.681-0.328 0.459 0.071 0.919 0.067 1.365-0.007 0.283-0.041 0.545 0.085 0.684 0.323l0.675 1.161c0.223-0.080 0.44-0.171 0.652-0.275l-0.355-1.296c-0.073-0.267 0.027-0.551 0.251-0.713 0.369-0.272 0.693-0.597 0.96-0.968 0.163-0.225 0.445-0.327 0.712-0.255l1.299 0.343c0.103-0.213 0.192-0.429 0.268-0.655l-1.167-0.667c-0.24-0.137-0.369-0.408-0.328-0.681 0.071-0.451 0.068-0.909-0.005-1.364-0.044-0.273 0.083-0.544 0.321-0.683l1.163-0.676c-0.080-0.223-0.171-0.441-0.273-0.653l-1.297 0.355c-0.267 0.072-0.549-0.027-0.713-0.249-0.271-0.369-0.596-0.693-0.969-0.963-0.223-0.161-0.324-0.444-0.253-0.711l0.343-1.3c-0.213-0.103-0.429-0.192-0.655-0.268l-0.664 1.165c-0.137 0.24-0.413 0.371-0.681 0.329-0.463-0.072-0.921-0.067-1.368 0.005-0.265 0.048-0.544-0.084-0.684-0.323l-0.675-1.161c-0.221 0.079-0.44 0.171-0.652 0.273l0.355 1.295c0.073 0.267-0.027 0.551-0.251 0.713-0.372 0.273-0.696 0.599-0.965 0.972-0.16 0.223-0.437 0.324-0.711 0.255l-1.297-0.344c-0.101 0.212-0.192 0.431-0.268 0.655l1.165 0.665c0.24 0.137 0.369 0.408 0.328 0.68-0.071 0.453-0.068 0.915 0.007 1.368 0.045 0.273-0.083 0.545-0.321 0.684l-1.16 0.675c0.079 0.223 0.171 0.441 0.273 0.653l1.295-0.355c0.269-0.069 0.551 0.027 0.713 0.249 0.272 0.372 0.599 0.695 0.972 0.963 0.224 0.161 0.325 0.444 0.255 0.712l-0.343 1.299z"></path>
</svg>
