<svg version="1.1" xmlns="http://www.w3.org/2000/svg" width="32" height="32" viewBox="0 0 32 32">
<title>alerts_management</title>
<path d="M28.805 1.637h-25.616c-1.512 0-2.741 1.267-2.741 2.825v16.395c0 1.521 1.153 2.624 2.741 2.624h12.125v1.419h-1.843c-2.679 0-3.601 1.889-4.341 3.408l-0.269 0.543c-0.048 0.095-0.073 0.199-0.073 0.305 0 0.655 0.581 1.208 1.271 1.208h11.843c0.7 0 1.271-0.521 1.271-1.161 0-0.103-0.024-0.203-0.069-0.296l-0.264-0.555c-0.719-1.537-1.612-3.452-4.352-3.452h-1.839v-1.42h12.157c1.565 0 2.747-1.128 2.747-2.624v-16.395c0-1.557-1.232-2.824-2.747-2.824zM21.631 28.916c0.019 0.039 0.036 0.077 0.053 0.115h-11.423l0.068-0.139c0.696-1.427 1.297-2.659 3.143-2.659h5.015c1.892 0 2.472 1.243 3.144 2.683zM30.219 20.857c0 0.772-0.568 1.291-1.413 1.291h-25.616c-0.843 0-1.408-0.519-1.408-1.291v-16.396c0-0.823 0.632-1.492 1.408-1.492h25.616c0.779 0 1.413 0.669 1.413 1.492v16.396z"></path>
<path d="M11.353 7.9h-0.807l0.923-1.833c0.104-0.207 0.093-0.452-0.028-0.649s-0.337-0.317-0.568-0.317h-4.145c-0.276 0-0.523 0.169-0.621 0.427l-1.961 5.077c-0.079 0.205-0.052 0.436 0.072 0.617s0.329 0.289 0.549 0.289h0.863l-1.491 4.119c-0.073 0.204-0.044 0.432 0.081 0.609 0.124 0.177 0.328 0.284 0.545 0.284h1.555v2.837c0 0.305 0.208 0.572 0.504 0.647 0.055 0.013 0.109 0.020 0.163 0.020 0.241 0 0.469-0.132 0.587-0.352l3.072-5.719c0.111-0.207 0.105-0.456-0.015-0.659-0.12-0.201-0.337-0.324-0.572-0.324h-0.741l2.597-4.048c0.132-0.205 0.14-0.467 0.024-0.68-0.117-0.213-0.341-0.345-0.585-0.345zM7.537 13.281c-0.132 0.205-0.14 0.467-0.024 0.68 0.117 0.215 0.341 0.347 0.585 0.347h0.845l-1.291 2.403v-0.855c0-0.368-0.299-0.667-0.667-0.667h-1.269l1.491-4.119c0.073-0.204 0.043-0.432-0.083-0.609-0.124-0.177-0.328-0.284-0.545-0.284h-0.841l1.445-3.745h2.607l-0.921 1.835c-0.104 0.207-0.093 0.453 0.028 0.649 0.121 0.197 0.336 0.317 0.568 0.317h0.668l-2.596 4.048z"></path>
<path d="M20.283 10.416h-5.213c-0.368 0-0.667 0.299-0.667 0.667v8.081c0 0.368 0.299 0.667 0.667 0.667h5.213c0.368 0 0.667-0.299 0.667-0.667v-8.081c0-0.368-0.299-0.667-0.667-0.667zM19.616 18.497h-3.88v-6.748h3.88v6.748z"></path>
<path d="M27.233 10.416h-5.212c-0.368 0-0.667 0.299-0.667 0.667v8.081c0 0.368 0.299 0.667 0.667 0.667h5.212c0.368 0 0.667-0.299 0.667-0.667v-8.081c0-0.368-0.299-0.667-0.667-0.667zM26.567 18.497h-3.879v-6.748h3.879v6.748z"></path>
<path d="M27.233 5.124h-12.164c-0.368 0-0.667 0.299-0.667 0.667v2.424c0 0.368 0.299 0.667 0.667 0.667h12.164c0.368 0 0.667-0.299 0.667-0.667v-2.424c0-0.369-0.299-0.667-0.667-0.667zM26.567 7.548h-10.831v-1.091h10.831v1.091z"></path>
</svg>
