<svg version="1.1" xmlns="http://www.w3.org/2000/svg" width="32" height="32" viewBox="0 0 32 32">
<title>alerts</title>
<path d="M26.9 12.6c-0.2-0.4-0.5-0.6-0.9-0.6h-6.8l1.8-9.7c0-0.1 0-0.1 0-0.2 0-0.6-0.5-1.1-1.2-1.1-0.3 0-0.7 0.2-0.9 0.4 0 0 0 0 0 0l-13.7 17c-0.2 0.3-0.3 0.7-0.1 1.1s0.5 0.5 0.9 0.5h6.8l-1.8 9.7c0 0 0 0.1 0 0.1 0 0.6 0.5 1.1 1.1 1.1 0.4 0 0.7-0.2 0.9-0.4l13.7-16.9c0.3-0.3 0.4-0.7 0.2-1zM20.5 2.7c0 0 0 0 0 0s0 0 0 0v0zM13.6 26.7l1.4-7.5c0.1-0.3 0-0.6-0.2-0.8-0.2-0.3-0.5-0.4-0.8-0.4h-5.9l10.3-12.7-1.4 7.5c-0.1 0.3 0 0.6 0.2 0.8s0.5 0.4 0.8 0.4h5.9l-10.3 12.7z"></path>
</svg>
