<!-- Generated by IcoMoon.io -->
<svg version="1.1" xmlns="http://www.w3.org/2000/svg" width="32" height="32" viewBox="0 0 32 32">
<title>alerts_strong</title>
<path d="M13.632 32c-0.085 0-0.167-0.011-0.246-0.030l0.007 0.002c-0.434-0.112-0.75-0.499-0.752-0.96v-6.752h-3.913c-0.547 0-0.99-0.443-0.99-0.99 0-0.121 0.022-0.237 0.061-0.344l-0.002 0.007 3.52-9.738h-2.589c-0.546-0.002-0.987-0.444-0.987-0.99 0-0.129 0.025-0.252 0.069-0.364l-0.002 0.007 4.328-11.212c0.148-0.372 0.503-0.631 0.92-0.634h9.152c0.001 0 0.003 0 0.004 0 0.547 0 0.991 0.444 0.991 0.991 0 0.162-0.039 0.315-0.108 0.45l0.003-0.006-2.387 4.746h2.56c0.547 0.001 0.989 0.444 0.989 0.991 0 0.199-0.059 0.384-0.16 0.54l0.002-0.004-6.208 9.681h2.515c0 0 0 0 0.001 0 0.547 0 0.99 0.443 0.99 0.99 0 0.172-0.044 0.333-0.12 0.474l0.003-0.005-6.78 12.63c-0.171 0.313-0.497 0.522-0.872 0.523v0zM13.632 22.279c0.547 0.001 0.99 0.444 0.991 0.99v3.803l4.129-7.704h-2.669c-0.547-0.001-0.989-0.444-0.989-0.991 0-0.199 0.059-0.384 0.16-0.54l-0.002 0.004 6.208-9.681h-2.356c0 0-0.001 0-0.001 0-0.547 0-0.99-0.443-0.99-0.99 0-0.162 0.039-0.316 0.108-0.451l-0.003 0.006 2.387-4.746h-6.867l-3.561 9.235h2.56c0.546 0.001 0.988 0.444 0.988 0.99 0 0.122-0.022 0.239-0.062 0.347l0.002-0.007-3.523 9.735z"></path>
</svg>
