<!-- Generated by IcoMoon.io -->
<svg version="1.1" xmlns="http://www.w3.org/2000/svg" width="85" height="32" viewBox="0 0 85 32">
<title>amazon</title>
<path d="M39.748 13.547c0.317-0.781 0.809-1.311 1.573-1.555 1.1-0.352 2.297 0.052 2.865 0.963 0.271 0.433 0.371 0.92 0.373 1.419 0.011 1.916 0.008 3.833 0.009 5.749 0 0.409 0.001 0.819 0 1.228-0.001 0.327-0.112 0.435-0.444 0.435-0.488 0.001-0.976 0.001-1.464 0-0.355 0-0.465-0.109-0.465-0.46 0.001-1.809 0.004-3.617 0.001-5.427 0-0.301-0.001-0.604-0.043-0.901-0.105-0.761-0.851-1.105-1.52-0.716-0.417 0.243-0.589 0.633-0.635 1.089-0.029 0.307-0.045 0.616-0.047 0.924-0.004 1.665-0.001 3.331-0.001 4.996 0 0.396-0.1 0.495-0.497 0.495-0.473 0-0.948 0.001-1.421 0-0.352 0-0.457-0.107-0.457-0.465 0.001-1.801 0.009-3.604 0-5.405-0.003-0.355-0.041-0.719-0.123-1.064-0.109-0.463-0.408-0.683-0.855-0.717-0.467-0.036-0.868 0.16-1.025 0.587-0.124 0.337-0.215 0.707-0.22 1.064-0.025 1.823-0.017 3.647-0.021 5.469 0 0.079 0.003 0.159-0.011 0.236-0.033 0.188-0.155 0.292-0.344 0.293-0.56 0.004-1.12 0.007-1.68 0-0.204-0.003-0.327-0.133-0.347-0.34-0.007-0.064-0.003-0.129-0.003-0.193 0-2.885 0-5.772 0-8.657 0-0.463 0.079-0.543 0.536-0.543 0.445 0 0.891-0.003 1.335 0.001 0.273 0.001 0.393 0.121 0.396 0.393 0.003 0.343 0.001 0.687 0.020 1.047 0.424-1.007 1.121-1.607 2.253-1.619 1.159-0.013 1.819 0.643 2.26 1.675z"></path>
<path d="M28.896 20.639c-0.232 0.205-0.436 0.408-0.663 0.581-0.976 0.747-2.072 0.853-3.204 0.492-0.863-0.276-1.327-0.949-1.491-1.823-0.2-1.060-0.041-2.047 0.695-2.883 0.504-0.572 1.163-0.888 1.896-1.028 0.689-0.132 1.389-0.207 2.084-0.307 0.105-0.015 0.211-0.028 0.375-0.049-0.045-0.424-0.061-0.839-0.141-1.241-0.069-0.349-0.331-0.56-0.672-0.66-0.643-0.188-1.597 0.049-1.799 0.979-0.067 0.307-0.164 0.363-0.469 0.328-0.456-0.051-0.912-0.105-1.368-0.164-0.367-0.048-0.435-0.155-0.352-0.521 0.249-1.104 0.916-1.852 1.967-2.243 1.045-0.388 2.117-0.435 3.193-0.133 1.307 0.365 1.972 1.211 1.997 2.567 0.023 1.263 0.019 2.527 0.005 3.791-0.007 0.593 0.151 1.117 0.515 1.581 0.061 0.079 0.123 0.16 0.171 0.248 0.095 0.169 0.083 0.323-0.075 0.461-0.399 0.351-0.789 0.712-1.188 1.063-0.233 0.207-0.392 0.205-0.619-0.007-0.163-0.151-0.32-0.309-0.461-0.48s-0.259-0.36-0.396-0.552zM28.532 17.011c-0.449 0.064-0.879 0.088-1.288 0.191-0.968 0.245-1.427 1.012-1.235 1.996 0.173 0.884 1.039 1.212 1.753 0.661 0.312-0.24 0.505-0.564 0.624-0.932 0.196-0.605 0.145-1.229 0.145-1.916z"></path>
<path d="M51.169 15.623c-0.021-0.377-0.019-0.744-0.069-1.103-0.061-0.432-0.333-0.711-0.759-0.812-0.692-0.165-1.56 0.115-1.752 1-0.064 0.297-0.164 0.355-0.453 0.321-0.471-0.053-0.94-0.109-1.409-0.169-0.323-0.041-0.404-0.161-0.333-0.483 0.244-1.111 0.903-1.876 1.961-2.273 1.051-0.395 2.131-0.443 3.212-0.135 1.295 0.368 1.953 1.223 1.989 2.627 0.031 1.233 0.023 2.468 0.009 3.703-0.007 0.608 0.151 1.145 0.525 1.621 0.067 0.084 0.128 0.173 0.176 0.269 0.075 0.149 0.061 0.288-0.073 0.408-0.407 0.363-0.808 0.732-1.219 1.092-0.223 0.195-0.392 0.199-0.601-0.017-0.307-0.319-0.591-0.66-0.9-1.009-0.027 0.025-0.085 0.075-0.137 0.129-0.892 0.951-1.997 1.259-3.253 1.043-1.005-0.172-1.647-0.785-1.887-1.772-0.271-1.111-0.128-2.156 0.649-3.049 0.5-0.575 1.16-0.891 1.892-1.033 0.688-0.133 1.388-0.208 2.083-0.309 0.105-0.015 0.211-0.028 0.349-0.048zM51.204 17.057c-0.208 0-0.337-0.012-0.463 0.003-0.277 0.033-0.557 0.059-0.828 0.124-0.997 0.24-1.475 0.987-1.293 1.997 0.161 0.895 1.044 1.233 1.761 0.673 0.335-0.261 0.569-0.608 0.637-1.017 0.096-0.575 0.124-1.161 0.185-1.78z"></path>
<path d="M74.379 13.632c0.12-0.227 0.227-0.461 0.36-0.68 0.56-0.916 1.365-1.195 2.401-1.048 1.008 0.143 1.648 0.755 1.872 1.74 0.116 0.513 0.167 1.051 0.172 1.579 0.020 2.045 0.011 4.091 0.011 6.136 0 0.299-0.121 0.423-0.413 0.424-0.517 0.003-1.033 0.003-1.551 0-0.299-0.001-0.412-0.117-0.412-0.42 0-1.701 0.008-3.403-0.004-5.103-0.003-0.443-0.031-0.891-0.112-1.324-0.095-0.507-0.387-0.765-0.797-0.815-0.468-0.057-0.879 0.167-1.107 0.616-0.267 0.525-0.337 1.093-0.339 1.672-0.003 1.615-0.001 3.229-0.001 4.844 0 0.443-0.088 0.531-0.525 0.531-0.467 0-0.933 0.001-1.4 0-0.309-0.001-0.433-0.121-0.433-0.429-0.001-2.957-0.001-5.915 0-8.871 0-0.289 0.115-0.413 0.4-0.417 0.481-0.007 0.961-0.005 1.443-0.001 0.295 0.003 0.399 0.115 0.4 0.405 0.001 0.385 0 0.771 0 1.156 0.012 0.003 0.024 0.004 0.036 0.005z"></path>
<path d="M70.824 17.012c-0.012 1.109-0.229 2.224-0.877 3.219-0.78 1.197-1.883 1.808-3.321 1.721-1.397-0.084-2.364-0.835-2.983-2.056-0.588-1.161-0.715-2.408-0.619-3.687 0.063-0.831 0.251-1.631 0.651-2.367 0.7-1.289 1.768-1.985 3.257-1.965 1.487 0.020 2.539 0.745 3.219 2.039 0.5 0.948 0.659 1.977 0.673 3.096zM65.471 16.728c0.024 0.003 0.049 0.005 0.073 0.008 0 0.272-0.012 0.545 0.003 0.817 0.033 0.645 0.092 1.289 0.379 1.884 0.191 0.396 0.485 0.661 0.948 0.663 0.48 0.001 0.819-0.243 1.019-0.667 0.103-0.219 0.184-0.453 0.232-0.689 0.195-0.936 0.164-1.885 0.1-2.829-0.032-0.468-0.121-0.939-0.244-1.392-0.127-0.469-0.464-0.749-0.967-0.787-0.545-0.040-0.908 0.168-1.145 0.657-0.065 0.135-0.136 0.276-0.156 0.421-0.088 0.637-0.161 1.276-0.241 1.913z"></path>
<path d="M58.945 13.995c-0.115 0-0.191 0-0.267 0-0.861 0-1.723 0-2.584 0-0.309 0-0.413-0.103-0.416-0.411-0.003-0.388-0.003-0.775 0-1.163 0.003-0.28 0.113-0.401 0.389-0.401 1.844-0.003 3.689-0.003 5.533 0 0.267 0 0.373 0.116 0.377 0.388 0.005 0.337 0.037 0.68-0.011 1.011-0.035 0.236-0.149 0.476-0.284 0.677-0.835 1.245-1.685 2.48-2.531 3.719-0.168 0.247-0.336 0.495-0.519 0.764 0.368 0.023 0.708 0.035 1.047 0.068 0.743 0.073 1.447 0.276 2.105 0.635 0.255 0.139 0.38 0.336 0.379 0.623-0.003 0.401 0.004 0.804-0.001 1.205-0.005 0.367-0.205 0.487-0.533 0.329-1.937-0.929-3.871-0.921-5.799 0.031-0.263 0.129-0.479 0.028-0.485-0.256-0.012-0.516-0.029-1.036 0.020-1.548 0.027-0.272 0.144-0.56 0.296-0.791 1.036-1.559 2.092-3.105 3.143-4.655 0.043-0.061 0.080-0.128 0.14-0.225z"></path>
<path d="M6.156 20.348c0.089 0.029 0.151 0.045 0.209 0.068 1.445 0.576 2.891 1.155 4.337 1.727 0.157 0.063 0.217 0.143 0.216 0.316-0.005 2.080-0.004 4.161-0.004 6.241 0 0.063-0.008 0.125-0.015 0.215-0.079-0.027-0.139-0.041-0.195-0.065-1.497-0.659-2.992-1.32-4.491-1.976-0.132-0.057-0.205-0.12-0.201-0.281 0.044-2.029 0.081-4.059 0.12-6.088 0.003-0.043 0.013-0.084 0.023-0.156z"></path>
<path d="M0.645 11.135c0.085 0.028 0.159 0.048 0.229 0.076 1.439 0.573 2.877 1.151 4.319 1.719 0.159 0.063 0.217 0.141 0.217 0.313-0.005 2.080-0.004 4.161-0.004 6.241 0 0.063-0.008 0.125-0.015 0.215-0.085-0.029-0.152-0.048-0.215-0.076-1.491-0.656-2.979-1.315-4.471-1.967-0.136-0.056-0.204-0.123-0.201-0.281 0.043-2.029 0.080-4.059 0.12-6.089 0.001-0.041 0.011-0.083 0.020-0.151z"></path>
<path d="M11.412 10.897c0.087 0.028 0.153 0.045 0.219 0.071 1.447 0.577 2.892 1.156 4.34 1.729 0.148 0.059 0.208 0.135 0.207 0.299-0.005 2.081-0.003 4.164-0.004 6.245 0 0.063-0.008 0.125-0.016 0.22-0.085-0.029-0.151-0.048-0.212-0.075-1.485-0.653-2.968-1.309-4.455-1.956-0.165-0.072-0.22-0.161-0.216-0.339 0.044-1.995 0.080-3.989 0.119-5.984 0.001-0.063 0.011-0.124 0.019-0.211z"></path>
<path d="M26.959 2.040c0.088 0.027 0.149 0.041 0.208 0.064 1.453 0.579 2.905 1.16 4.359 1.736 0.133 0.053 0.207 0.115 0.205 0.277-0.005 2.109-0.004 4.22-0.004 6.329 0 0.043-0.005 0.084-0.012 0.159-0.079-0.027-0.144-0.044-0.205-0.071-1.504-0.661-3.007-1.324-4.512-1.984-0.111-0.048-0.167-0.103-0.164-0.237 0.028-1.284 0.047-2.568 0.069-3.852 0.013-0.747 0.028-1.492 0.041-2.239 0.004-0.049 0.009-0.097 0.015-0.183z"></path>
<path d="M36.992 2.040c0 0.112 0 0.189 0 0.267 0 1.888-0.004 3.775 0.005 5.663 0.001 0.211-0.076 0.299-0.26 0.373-1.305 0.521-2.607 1.055-3.911 1.584-0.065 0.027-0.132 0.047-0.229 0.081-0.005-0.099-0.013-0.173-0.013-0.248 0-1.937 0.001-3.875-0.003-5.813 0-0.157 0.024-0.263 0.196-0.327 1.337-0.501 2.671-1.012 4.004-1.519 0.055-0.023 0.109-0.033 0.211-0.061z"></path>
<path d="M11.783 28.313c-0.005-0.112-0.012-0.189-0.012-0.265 0-1.924 0.003-3.847-0.004-5.769-0.001-0.204 0.061-0.303 0.256-0.376 1.304-0.487 2.603-0.988 3.904-1.483 0.072-0.027 0.147-0.045 0.253-0.077 0 0.108 0 0.184 0 0.261 0 1.895-0.003 3.789 0.004 5.684 0.001 0.187-0.056 0.277-0.231 0.348-1.312 0.524-2.621 1.059-3.931 1.589-0.065 0.027-0.133 0.049-0.24 0.088z"></path>
<path d="M10.657 11.132c0.005 0.103 0.012 0.179 0.012 0.255 0 1.895-0.001 3.788 0.004 5.683 0 0.183-0.047 0.281-0.225 0.352-1.325 0.529-2.647 1.071-3.969 1.607-0.057 0.024-0.119 0.037-0.204 0.064-0.005-0.1-0.012-0.176-0.012-0.253 0-1.931 0.001-3.86-0.004-5.791 0-0.184 0.049-0.28 0.229-0.348 1.311-0.491 2.616-0.992 3.924-1.489 0.072-0.027 0.145-0.047 0.245-0.079z"></path>
<path d="M17.045 18.855c-0.005-0.103-0.015-0.18-0.015-0.256-0.001-1.929 0.003-3.859-0.005-5.788-0.001-0.203 0.072-0.288 0.252-0.356 1.309-0.491 2.615-0.991 3.923-1.488 0.065-0.024 0.133-0.041 0.224-0.069 0.005 0.101 0.013 0.179 0.013 0.255 0 1.901-0.001 3.801 0.004 5.703 0 0.181-0.063 0.264-0.227 0.329-1.317 0.528-2.632 1.065-3.948 1.599-0.063 0.025-0.131 0.043-0.221 0.072z"></path>
<path d="M20.94 9.792c-0.419-0.121-0.817-0.236-1.215-0.352-0.909-0.264-1.817-0.531-2.728-0.787-0.159-0.045-0.215-0.116-0.215-0.283 0.005-1.995 0.003-3.989 0.004-5.984 0-0.069 0.007-0.139 0.012-0.239 0.1 0.035 0.173 0.056 0.243 0.084 1.279 0.532 2.556 1.065 3.835 1.595 0.137 0.056 0.223 0.116 0.219 0.291-0.049 1.849-0.089 3.7-0.133 5.551-0.001 0.029-0.011 0.057-0.021 0.124z"></path>
<path d="M22.169 10.508c0-0.127 0-0.204 0-0.283 0-1.931 0.003-3.863-0.004-5.793-0.001-0.195 0.057-0.291 0.24-0.367 1.165-0.487 2.325-0.987 3.488-1.481 0.063-0.027 0.129-0.047 0.232-0.083 0 0.111 0 0.187 0 0.263 0 1.903-0.003 3.804 0.004 5.707 0 0.184-0.056 0.28-0.227 0.356-1.16 0.517-2.315 1.047-3.472 1.572-0.071 0.035-0.143 0.061-0.261 0.109z"></path>
<path d="M27.217 26.583c-0.164 0.828-0.328 1.657-0.495 2.485-0.165 0.828-0.333 1.656-0.504 2.497-0.279 0-0.544 0.009-0.807-0.008-0.052-0.003-0.128-0.096-0.144-0.159-0.292-1.22-0.577-2.44-0.863-3.661-0.208-0.885-0.415-1.772-0.621-2.659-0.016-0.068-0.025-0.136-0.040-0.217 0.303 0 0.581 0 0.881 0 0.364 1.733 0.729 3.467 1.093 5.201 0.015-0.001 0.029-0.004 0.044-0.005 0.353-1.728 0.705-3.457 1.060-5.195 0.297 0 0.583 0 0.899 0 0.333 1.679 0.668 3.365 1.003 5.051 0.020 0 0.039-0.001 0.059-0.001 0.379-1.679 0.757-3.359 1.139-5.048 0.271 0 0.533 0 0.824 0-0.064 0.277-0.123 0.547-0.187 0.816-0.447 1.883-0.896 3.764-1.336 5.648-0.044 0.188-0.115 0.263-0.313 0.241-0.205-0.023-0.473 0.064-0.605-0.039-0.128-0.099-0.124-0.376-0.164-0.577-0.284-1.419-0.563-2.84-0.844-4.259-0.008-0.039-0.017-0.076-0.027-0.113-0.016 0.001-0.033 0.001-0.052 0.001z"></path>
<path d="M37.772 30.84c0 0.233 0 0.468 0 0.713-0.267 0-0.515 0-0.781 0 0-3.075 0-6.148 0-9.236 0.276 0 0.552 0 0.848 0 0 1.075 0 2.147 0 3.284 0.095-0.125 0.151-0.203 0.208-0.277 0.481-0.632 1.224-0.797 1.936-0.44 0.583 0.293 0.929 0.788 1.128 1.38 0.428 1.271 0.408 2.552-0.003 3.825-0.136 0.421-0.385 0.78-0.697 1.099-0.725 0.741-1.939 0.772-2.532-0.279-0.017-0.029-0.039-0.056-0.059-0.085-0.016 0.005-0.032 0.011-0.048 0.016zM37.744 28.249c0.020 0.285 0.031 0.573 0.061 0.857 0.047 0.44 0.16 0.861 0.44 1.216 0.467 0.592 1.207 0.625 1.673 0.039 0.207-0.261 0.367-0.587 0.455-0.909 0.199-0.735 0.176-1.491 0.072-2.241-0.060-0.433-0.191-0.837-0.489-1.172-0.469-0.527-1.132-0.535-1.58 0.007-0.165 0.2-0.299 0.439-0.399 0.68-0.201 0.487-0.228 1.004-0.233 1.524z"></path>
<path d="M35.924 28.515c-1.313 0-2.567 0-3.845 0 0.051 0.72 0.152 1.4 0.692 1.921 0.532 0.513 1.356 0.463 1.795-0.131 0.192-0.26 0.315-0.572 0.481-0.885 0.245 0.039 0.525 0.083 0.824 0.129-0.211 0.923-0.587 1.707-1.527 2.049-1.019 0.371-2.089-0.053-2.656-1.025-0.329-0.565-0.448-1.188-0.488-1.831-0.049-0.793 0-1.576 0.264-2.335 0.151-0.433 0.388-0.813 0.717-1.135 0.8-0.784 2.036-0.768 2.817 0.036 0.552 0.568 0.777 1.277 0.863 2.040 0.040 0.376 0.041 0.755 0.063 1.165zM34.993 27.556c-0.015-0.135-0.021-0.243-0.037-0.348-0.075-0.476-0.22-0.917-0.591-1.256-0.424-0.388-1.075-0.416-1.515-0.051-0.512 0.425-0.668 1.005-0.699 1.655 0.953 0 1.888 0 2.841 0z"></path>
<path d="M52.097 29.176c0.249 0.044 0.535 0.093 0.82 0.144-0.161 1.101-0.844 1.86-1.608 2.071-0.972 0.267-1.904-0.052-2.473-0.855-0.364-0.512-0.519-1.099-0.579-1.712-0.085-0.863-0.080-1.723 0.188-2.557 0.087-0.269 0.211-0.536 0.361-0.776 0.784-1.248 2.596-1.449 3.54-0.043 0.349 0.52 0.512 1.101 0.573 1.715 0.035 0.355 0.040 0.713 0.061 1.099-1.303 0-2.575 0-3.871 0 0.044 0.728 0.148 1.401 0.681 1.92 0.533 0.52 1.371 0.473 1.817-0.121 0.193-0.259 0.317-0.569 0.488-0.884zM49.183 27.308c0.947 0 1.895 0 2.856 0-0.044-0.571-0.141-1.099-0.544-1.52-0.388-0.407-0.955-0.508-1.415-0.256-0.551 0.304-0.971 1.131-0.897 1.776z"></path>
<path d="M73.981 28.265c-1.269 0-2.537 0-3.832 0 0.051 0.709 0.141 1.379 0.664 1.893 0.597 0.588 1.492 0.485 1.939-0.224 0.144-0.228 0.239-0.487 0.369-0.761 0.264 0.047 0.556 0.097 0.86 0.149-0.121 0.579-0.328 1.091-0.723 1.509-0.879 0.931-2.448 0.853-3.273-0.159-0.408-0.5-0.588-1.092-0.669-1.72-0.115-0.884-0.097-1.763 0.152-2.621 0.081-0.279 0.204-0.553 0.356-0.801 0.797-1.308 2.657-1.5 3.599-0.033 0.355 0.553 0.505 1.168 0.555 1.811 0.024 0.304 0.004 0.613 0.004 0.957zM73.085 27.313c-0.049-0.611-0.157-1.179-0.629-1.605-0.388-0.351-0.952-0.421-1.372-0.148-0.627 0.408-0.837 1.035-0.887 1.753 0.969 0 1.919 0 2.888 0z"></path>
<path d="M78.852 26.361c-0.289 0.045-0.556 0.088-0.831 0.132-0.013-0.039-0.025-0.064-0.029-0.089-0.173-0.901-0.968-1.289-1.791-0.869-0.283 0.144-0.444 0.376-0.459 0.701-0.015 0.339 0.125 0.589 0.441 0.716 0.492 0.197 0.991 0.377 1.487 0.564 0.027 0.011 0.053 0.023 0.080 0.031 1.417 0.453 1.483 1.683 1.156 2.636-0.343 0.999-1.24 1.391-2.279 1.276-1.020-0.113-1.591-0.7-1.819-1.8-0.021-0.104-0.035-0.209-0.055-0.332 0.292-0.061 0.569-0.119 0.849-0.177 0.052 0.197 0.087 0.38 0.148 0.553 0.279 0.777 1.268 1.104 1.959 0.645 0.333-0.221 0.471-0.552 0.445-0.945-0.024-0.369-0.257-0.573-0.583-0.697-0.541-0.205-1.095-0.389-1.623-0.627-0.748-0.336-1.085-0.94-1.043-1.76 0.063-1.185 0.872-1.92 2.059-1.829 0.328 0.025 0.671 0.104 0.967 0.241 0.547 0.253 0.775 0.757 0.872 1.328 0.017 0.089 0.029 0.181 0.047 0.303z"></path>
<path d="M47.243 26.361c-0.263 0.043-0.529 0.087-0.807 0.132-0.015-0.041-0.031-0.073-0.035-0.105-0.143-0.963-0.905-1.132-1.665-0.904-0.379 0.113-0.565 0.403-0.563 0.796 0.001 0.323 0.151 0.555 0.445 0.672 0.485 0.196 0.976 0.375 1.465 0.56 0.080 0.031 0.16 0.064 0.24 0.093 0.999 0.364 1.216 1.136 1.119 2.076-0.096 0.924-0.759 1.64-1.632 1.748-0.329 0.041-0.677 0.040-1.004-0.013-0.697-0.116-1.148-0.56-1.395-1.207-0.104-0.272-0.164-0.561-0.253-0.877 0.309-0.067 0.591-0.127 0.881-0.188 0.048 0.199 0.080 0.381 0.137 0.556 0.261 0.793 1.339 1.116 2.005 0.604 0.595-0.457 0.501-1.308-0.187-1.599-0.553-0.233-1.129-0.416-1.677-0.663-0.78-0.351-1.125-1.143-0.959-2.096 0.139-0.791 0.761-1.38 1.575-1.441 0.339-0.025 0.695-0.017 1.023 0.059 0.781 0.184 1.253 0.865 1.285 1.797z"></path>
<path d="M67.88 26.759c-0.063-0.204-0.109-0.391-0.179-0.569-0.348-0.897-1.26-1.068-1.921-0.365-0.319 0.339-0.457 0.76-0.52 1.205-0.108 0.759-0.104 1.517 0.073 2.267 0.084 0.355 0.239 0.676 0.515 0.927 0.521 0.472 1.301 0.419 1.695-0.163 0.179-0.264 0.252-0.6 0.367-0.905 0.029-0.079 0.032-0.167 0.052-0.273 0.277 0.043 0.544 0.083 0.839 0.128-0.111 0.847-0.34 1.617-1.072 2.123-0.631 0.435-1.317 0.471-2 0.132-0.613-0.304-0.975-0.843-1.171-1.479-0.369-1.204-0.372-2.42 0-3.623 0.236-0.763 0.707-1.348 1.499-1.597 1.093-0.344 2.124 0.201 2.491 1.308 0.073 0.221 0.115 0.455 0.177 0.708-0.3 0.063-0.568 0.119-0.844 0.177z"></path>
<path d="M61.58 24.608c-0.296 1.016-0.579 1.992-0.863 2.968-0.344 1.183-0.691 2.365-1.031 3.551-0.039 0.136-0.088 0.204-0.245 0.192-0.207-0.016-0.415-0.004-0.645-0.004-0.647-2.223-1.292-4.441-1.949-6.7 0.303 0 0.585-0.008 0.867 0.008 0.040 0.003 0.087 0.117 0.107 0.187 0.293 1.041 0.587 2.083 0.872 3.127 0.177 0.648 0.34 1.299 0.512 1.959 0.015-0.031 0.035-0.060 0.043-0.091 0.461-1.664 0.924-3.327 1.376-4.993 0.045-0.168 0.117-0.215 0.28-0.205 0.213 0.012 0.428 0.003 0.677 0.003z"></path>
<path d="M24.744 1.66c-0.084 0.039-0.14 0.068-0.197 0.089-1.049 0.388-2.099 0.779-3.151 1.159-0.099 0.036-0.233 0.047-0.325 0.008-0.948-0.392-1.891-0.797-2.835-1.199-0.025-0.011-0.047-0.028-0.099-0.060 0.072-0.039 0.123-0.071 0.176-0.095 0.976-0.417 1.951-0.837 2.932-1.247 0.107-0.044 0.26-0.064 0.361-0.021 0.993 0.413 1.98 0.841 2.969 1.268 0.048 0.021 0.093 0.055 0.168 0.097z"></path>
<path d="M7.836 19.955c0.876-0.376 1.723-0.697 2.528-1.101 0.556-0.28 1.028-0.287 1.585 0.001 0.724 0.375 1.496 0.657 2.247 0.98 0.077 0.033 0.152 0.071 0.276 0.129-0.185 0.073-0.323 0.131-0.461 0.181-0.961 0.355-1.923 0.712-2.888 1.059-0.111 0.040-0.261 0.055-0.365 0.012-0.928-0.384-1.848-0.784-2.771-1.18-0.037-0.016-0.072-0.039-0.151-0.081z"></path>
<path d="M2.352 10.751c0.083-0.044 0.131-0.073 0.183-0.096 0.976-0.42 1.949-0.841 2.928-1.253 0.095-0.040 0.233-0.056 0.324-0.017 1.013 0.424 2.020 0.86 3.028 1.293 0.032 0.013 0.060 0.036 0.127 0.076-0.091 0.040-0.149 0.071-0.212 0.095-1.049 0.387-2.099 0.777-3.151 1.157-0.092 0.033-0.219 0.043-0.305 0.007-0.933-0.389-1.863-0.789-2.793-1.188-0.032-0.013-0.060-0.035-0.128-0.073z"></path>
<path d="M13.116 10.497c0.485-0.209 0.932-0.401 1.379-0.593 0.587-0.252 1.172-0.507 1.761-0.752 0.083-0.035 0.203-0.049 0.281-0.017 1.017 0.428 2.032 0.867 3.047 1.304 0.032 0.013 0.060 0.035 0.123 0.072-0.077 0.039-0.128 0.069-0.181 0.089-1.069 0.396-2.139 0.792-3.209 1.183-0.073 0.027-0.175 0.036-0.244 0.008-0.952-0.4-1.9-0.808-2.849-1.216-0.027-0.012-0.047-0.033-0.107-0.077z"></path>
<path d="M35.269 1.657c-0.067 0.031-0.115 0.057-0.167 0.077-1.056 0.391-2.111 0.785-3.171 1.164-0.12 0.043-0.287 0.037-0.404-0.011-0.895-0.369-1.784-0.755-2.675-1.136-0.051-0.021-0.097-0.052-0.18-0.096 0.088-0.047 0.147-0.081 0.208-0.108 0.968-0.416 1.936-0.835 2.909-1.243 0.095-0.040 0.232-0.055 0.323-0.016 1.025 0.429 2.047 0.871 3.068 1.309 0.024 0.011 0.045 0.031 0.088 0.059z"></path>
<path d="M54.056 24.621c0.249 0 0.497 0 0.763 0 0 0.308 0 0.607 0 0.905 0.015 0.004 0.028 0.009 0.043 0.013 0.081-0.152 0.159-0.305 0.244-0.455 0.171-0.303 0.379-0.564 0.759-0.601 0.349-0.035 0.645 0.1 0.916 0.305 0.029 0.023 0.052 0.088 0.043 0.124-0.083 0.316-0.173 0.631-0.265 0.964-0.049-0.028-0.080-0.043-0.108-0.060-0.573-0.341-1.151-0.155-1.32 0.496-0.133 0.515-0.189 1.059-0.205 1.592-0.031 1.040-0.009 2.081-0.009 3.123 0 0.085 0 0.171 0 0.271-0.291 0-0.567 0-0.857 0-0.001-2.221-0.001-4.443-0.001-6.677z"></path>
<path d="M62.361 24.619c0.291 0 0.561 0 0.844 0 0 2.229 0 4.449 0 6.681-0.279 0-0.555 0-0.844 0 0-2.224 0-4.443 0-6.681z"></path>
<path d="M84.020 25.469c-0.209 0.601-0.42 1.201-0.628 1.803-0.040 0.117-0.064 0.215-0.236 0.213-0.177-0.001-0.187-0.112-0.225-0.224-0.208-0.609-0.417-1.219-0.664-1.825 0 0.672 0 1.344 0 2.029-0.115 0-0.203 0-0.304 0 0-0.843 0-1.679 0-2.537 0.136 0 0.267-0.019 0.388 0.008 0.060 0.013 0.125 0.1 0.149 0.168 0.207 0.596 0.404 1.195 0.605 1.792 0.020 0.059 0.045 0.116 0.081 0.209 0.212-0.625 0.412-1.215 0.612-1.805 0.136-0.403 0.136-0.403 0.583-0.357 0 0.833 0 1.668 0 2.519-0.097 0-0.195 0-0.309 0 0-0.66 0-1.324 0-1.989-0.016 0-0.035-0.001-0.052-0.003z"></path>
<path d="M81.605 24.941c0 0.1 0 0.184 0 0.289-0.276 0-0.545 0-0.847 0 0 0.391 0 0.76 0 1.131 0 0.364 0 0.728 0 1.104-0.117 0-0.212 0-0.335 0 0-0.747 0-1.481 0-2.231-0.291 0-0.553 0-0.832 0 0-0.103 0-0.192 0-0.293 0.665 0 1.328 0 2.013 0z"></path>
<path d="M63.205 23.368c-0.293 0-0.563 0-0.845 0 0-0.428 0-0.845 0-1.276 0.284 0 0.559 0 0.845 0 0 0.427 0 0.844 0 1.276z"></path>
</svg>
