<!-- Generated by IcoMoon.io -->
<svg version="1.1" xmlns="http://www.w3.org/2000/svg" width="32" height="32" viewBox="0 0 32 32">
<title>analytics_graph_line_statistics_presentation_keynote</title>
<path d="M27.315 31.901v0c-0.369 0-0.667-0.298-0.667-0.667l0.001-11.060c0-0.369 0.298-0.667 0.667-0.667v0c0.369 0 0.667 0.298 0.667 0.667l-0.001 11.060c0 0.368-0.298 0.667-0.667 0.667z"></path>
<path d="M27.316 7.060c-1.486 0-2.471-1.866-2.471-3.1 0-1.381 1.108-2.505 2.471-2.505 1.362 0 2.47 1.124 2.47 2.505 0 1.234-0.986 3.1-2.47 3.1zM27.316 2.788c-0.628 0-1.138 0.525-1.138 1.172 0 0.776 0.638 1.767 1.138 1.767s1.137-0.991 1.137-1.767c0-0.646-0.51-1.172-1.137-1.172z"></path>
<path d="M29.65 31.901c-0.012 0-0.023 0-0.036-0.001-0.367-0.019-0.65-0.335-0.629-0.702l0.714-13.078c0.009-0.18 0.122-0.415 0.259-0.534 0.187-0.163 0.408-0.202 0.612-0.202 0.204-6.227-0.117-8.131-0.275-8.677-0.122-0.005-0.272-0.010-0.408-0.016l-0.384-0.017c-0.044-0.007-0.099 0.050-0.138 0.125-0.363 0.72-1.148 1.169-2.049 1.169-0.9 0-1.685-0.449-2.049-1.17-0.038-0.074-0.082-0.113-0.137-0.124-0.316 0.035-5.809 0.937-7.656 1.25l6.858 0.618c0.342 0.033 0.604 0.32 0.604 0.664v6.951l0.712 13.042c0.021 0.367-0.262 0.682-0.629 0.702-0.391 0.055-0.681-0.262-0.702-0.629l-0.714-13.078-0.001-6.38-6.254-0.583c-0.663-0.063-1.163-0.597-1.187-1.271-0.025-0.683 0.425-1.238 1.091-1.35 1.172-0.198 7.509-1.247 7.792-1.266 0.581-0.038 1.126 0.29 1.411 0.852 0.329 0.651 1.397 0.647 1.721 0.001 0.286-0.564 0.833-0.889 1.41-0.853l0.357 0.016c0.687 0.029 0.831 0.040 0.953 0.074 0.094 0.027 0.181 0.074 0.254 0.137 0.296 0.253 1.079 0.925 0.732 10.44-0.008 0.184-0.117 0.417-0.257 0.538-0.193 0.167-0.417 0.202-0.626 0.201l-0.684 12.522c-0.019 0.355-0.314 0.63-0.665 0.63z"></path>
<path d="M12.648 2.667c-0.369 0-0.667-0.298-0.667-0.667v-1.309c0-0.369 0.298-0.667 0.667-0.667s0.667 0.298 0.667 0.667v1.309c0 0.369-0.298 0.667-0.667 0.667z"></path>
<path d="M20.648 2.667c-0.369 0-0.667-0.298-0.667-0.667v-1.309c0-0.369 0.298-0.667 0.667-0.667s0.667 0.298 0.667 0.667v1.309c0 0.369-0.298 0.667-0.667 0.667z"></path>
<path d="M21.315 25.333h-20.667c-0.369 0-0.667-0.298-0.667-0.667v-22.667c0-0.369 0.298-0.667 0.667-0.667h22c0.369 0 0.667 0.298 0.667 0.667s-0.298 0.667-0.667 0.667h-21.333v21.333h20c0.369 0 0.667 0.298 0.667 0.667s-0.298 0.667-0.667 0.667z"></path>
<path d="M5.254 15.238c-1.087 0-1.971-0.883-1.971-1.97s0.884-1.971 1.971-1.971 1.971 0.884 1.971 1.971-0.884 1.97-1.971 1.97zM5.254 12.631c-0.352 0-0.637 0.286-0.637 0.637s0.286 0.637 0.637 0.637 0.637-0.286 0.637-0.637c0-0.351-0.286-0.637-0.637-0.637z"></path>
<path d="M11.939 10.628c-1.087 0-1.971-0.884-1.971-1.971s0.884-1.971 1.971-1.971 1.97 0.884 1.97 1.971-0.883 1.971-1.97 1.971zM11.939 8.019c-0.352 0-0.637 0.286-0.637 0.637s0.286 0.637 0.637 0.637c0.351 0 0.637-0.286 0.637-0.637s-0.286-0.637-0.637-0.637z"></path>
<path d="M17.462 21.049c-1.087 0-1.971-0.884-1.971-1.97 0-1.087 0.884-1.971 1.971-1.971 1.086 0 1.97 0.884 1.97 1.971 0 1.086-0.884 1.97-1.97 1.97zM17.462 18.441c-0.352 0-0.638 0.286-0.638 0.638s0.286 0.637 0.638 0.637 0.637-0.285 0.637-0.637-0.285-0.638-0.637-0.638z"></path>
<path d="M6.352 13.236c-0.204 0-0.405-0.093-0.536-0.269-0.219-0.296-0.158-0.714 0.137-0.933l4.283-3.181c0.295-0.221 0.712-0.158 0.933 0.137 0.219 0.296 0.158 0.714-0.137 0.933l-4.283 3.181c-0.12 0.089-0.259 0.131-0.397 0.131z"></path>
<path d="M16.754 18.652c-0.245 0-0.481-0.135-0.596-0.369l-4.108-8.236c-0.165-0.329-0.031-0.73 0.299-0.894 0.333-0.164 0.73-0.030 0.894 0.299l4.108 8.235c0.164 0.329 0.031 0.731-0.298 0.895-0.096 0.048-0.198 0.070-0.298 0.070z"></path>
<path d="M16.648 32c-0.369 0-0.667-0.298-0.667-0.667v-3.832c0-0.369 0.298-0.667 0.667-0.667s0.667 0.298 0.667 0.667v3.832c0 0.369-0.298 0.667-0.667 0.667z"></path>
<path d="M19.982 32h-8c-0.369 0-0.667-0.298-0.667-0.667s0.298-0.667 0.667-0.667h8c0.369 0 0.667 0.298 0.667 0.667s-0.298 0.667-0.667 0.667z"></path>
</svg>
