<!-- Generated by IcoMoon.io -->
<svg version="1.1" xmlns="http://www.w3.org/2000/svg" width="32" height="32" viewBox="0 0 32 32">
<title>analytics_graph_line_statistics_stock</title>
<path d="M25.642 28h-22.038c-2.031 0-3.622-1.549-3.622-3.529v-15.484c0-2.014 1.625-3.654 3.622-3.654h15.669c0.369 0 0.667 0.298 0.667 0.667s-0.298 0.667-0.667 0.667h-15.669c-1.262 0-2.289 1.041-2.289 2.32v15.484c0 1.231 1.005 2.195 2.289 2.195h22.038c1.313 0 2.34-0.965 2.34-2.195v-7.805c0-0.369 0.298-0.667 0.667-0.667s0.667 0.298 0.667 0.667v7.805c0 1.945-1.648 3.529-3.673 3.529z"></path>
<path d="M4.648 24c-0.369 0-0.667-0.298-0.667-0.667v-4c0-0.369 0.298-0.667 0.667-0.667s0.667 0.298 0.667 0.667v4c0 0.369-0.298 0.667-0.667 0.667z"></path>
<path d="M23.315 24c-0.369 0-0.667-0.298-0.667-0.667v-4c0-0.369 0.298-0.667 0.667-0.667s0.667 0.298 0.667 0.667v4c0 0.369-0.298 0.667-0.667 0.667z"></path>
<path d="M15.315 24c-0.369 0-0.667-0.298-0.667-0.667v-12c0-0.369 0.298-0.667 0.667-0.667s0.667 0.298 0.667 0.667v12c0 0.369-0.298 0.667-0.667 0.667z"></path>
<path d="M7.315 24c-0.369 0-0.667-0.298-0.667-0.667v-6.667c0-0.369 0.298-0.667 0.667-0.667s0.667 0.298 0.667 0.667v6.667c0 0.369-0.298 0.667-0.667 0.667z"></path>
<path d="M12.648 24c-0.369 0-0.667-0.298-0.667-0.667v-6.667c0-0.369 0.298-0.667 0.667-0.667s0.667 0.298 0.667 0.667v6.667c0 0.369-0.298 0.667-0.667 0.667z"></path>
<path d="M20.648 24c-0.369 0-0.667-0.298-0.667-0.667v-6.667c0-0.369 0.298-0.667 0.667-0.667s0.667 0.298 0.667 0.667v6.667c0 0.369-0.298 0.667-0.667 0.667z"></path>
<path d="M17.982 24c-0.369 0-0.667-0.298-0.667-0.667v-5.333c0-0.369 0.298-0.667 0.667-0.667s0.667 0.298 0.667 0.667v5.333c0 0.369-0.298 0.667-0.667 0.667z"></path>
<path d="M9.982 24c-0.369 0-0.667-0.298-0.667-0.667v-9.333c0-0.369 0.298-0.667 0.667-0.667s0.667 0.298 0.667 0.667v9.333c0 0.369-0.298 0.667-0.667 0.667z"></path>
<path d="M26.066 14.363c-3.133 0-5.682-2.549-5.682-5.682s2.549-5.682 5.682-5.682 5.682 2.549 5.682 5.682-2.549 5.682-5.682 5.682zM26.066 4.331c-2.398 0-4.349 1.951-4.349 4.349s1.951 4.349 4.349 4.349 4.349-1.951 4.349-4.349-1.951-4.349-4.349-4.349z"></path>
<path d="M28.086 9.438c-0.171 0-0.341-0.065-0.471-0.195l-1.633-1.633-1.633 1.633c-0.26 0.26-0.682 0.26-0.943 0s-0.26-0.682 0-0.943l2.104-2.105c0.25-0.25 0.693-0.25 0.943 0l2.104 2.105c0.26 0.26 0.26 0.682 0 0.943-0.13 0.13-0.301 0.195-0.471 0.195z"></path>
<path d="M25.982 11.333c-0.369 0-0.667-0.298-0.667-0.667v-4c0-0.369 0.298-0.667 0.667-0.667s0.667 0.298 0.667 0.667v4c0 0.369-0.298 0.667-0.667 0.667z"></path>
</svg>
