<!-- Generated by IcoMoon.io -->
<svg version="1.1" xmlns="http://www.w3.org/2000/svg" width="32" height="32" viewBox="0 0 32 32">
<title>analytics_graph_line_statistics</title>
<path d="M28.166 0.003h-24.359c-2.106 0-3.822 1.716-3.822 3.822v19.678c0 0.003 0 0.003 0 0.006v4.675c0 2.106 1.712 3.819 3.819 3.819h24.359c2.106 0 3.822-1.712 3.819-3.819v-24.359c0.003-2.106-1.709-3.822-3.816-3.822zM3.806 1.337v0h24.359c1.372 0 2.488 1.116 2.488 2.487v11.909l-4.887-4.141c0.131-0.297 0.206-0.625 0.206-0.969 0-1.319-1.072-2.391-2.391-2.391s-2.391 1.072-2.391 2.391c0 0.628 0.244 1.203 0.644 1.628l-5.2 8.716c-0.194-0.050-0.394-0.078-0.603-0.078-0.494 0-0.95 0.15-1.331 0.406l-4.025-3.375c0.131-0.294 0.203-0.622 0.203-0.966 0-1.319-1.072-2.391-2.391-2.391s-2.391 1.072-2.391 2.391c0 0.341 0.072 0.669 0.203 0.962l-4.981 4.156v-18.25c0-1.372 1.116-2.487 2.487-2.487zM23.087 11.559c-0.016-0.012-0.031-0.022-0.050-0.031s-0.034-0.019-0.053-0.028c-0.281-0.191-0.466-0.512-0.466-0.875 0-0.584 0.475-1.059 1.056-1.059s1.059 0.475 1.059 1.059c0 0.241-0.081 0.463-0.219 0.641-0.009 0.012-0.022 0.022-0.031 0.034-0.012 0.012-0.022 0.028-0.031 0.044-0.194 0.209-0.469 0.341-0.775 0.341-0.178-0.003-0.344-0.047-0.491-0.125zM15.188 22.647c0.012-0.012 0.025-0.028 0.037-0.041s0.022-0.028 0.031-0.041c0.194-0.209 0.469-0.341 0.775-0.341 0.181 0 0.353 0.047 0.503 0.128 0.012 0.009 0.025 0.019 0.038 0.025 0.012 0.009 0.028 0.016 0.044 0.022 0.288 0.191 0.475 0.516 0.475 0.881 0 0.584-0.475 1.056-1.059 1.056-0.581 0-1.056-0.475-1.056-1.056 0-0.234 0.078-0.456 0.213-0.634zM7.681 17.644c0 0 0-0.003-0.003-0.003-0.003-0.003-0.003-0.003-0.006-0.006-0.15-0.184-0.244-0.419-0.244-0.675 0-0.584 0.475-1.056 1.059-1.056s1.059 0.475 1.059 1.056c0 0.247-0.084 0.475-0.228 0.656-0.006 0.006-0.016 0.016-0.022 0.022-0.006 0.009-0.012 0.016-0.019 0.025-0.194 0.219-0.475 0.356-0.791 0.356-0.322 0-0.612-0.147-0.806-0.375zM28.166 30.672h-24.359c-1.372 0-2.487-1.116-2.487-2.488v-4.372l5.834-4.869c0.381 0.256 0.841 0.406 1.334 0.406s0.95-0.15 1.331-0.406l4.028 3.375c-0.131 0.294-0.203 0.622-0.203 0.966 0 1.319 1.072 2.391 2.391 2.391s2.391-1.072 2.391-2.391c0-0.631-0.244-1.203-0.644-1.631l5.194-8.716c0.194 0.050 0.394 0.078 0.603 0.078 0.491 0 0.947-0.15 1.328-0.403l5.747 4.872v10.7c0 1.369-1.116 2.488-2.488 2.488z"></path>
</svg>
