<!-- Generated by IcoMoon.io -->
<svg version="1.1" xmlns="http://www.w3.org/2000/svg" width="32" height="32" viewBox="0 0 32 32">
<title>analytics_graph_line_statistics_stock2</title>
<path d="M23.417 4.808c-0.369 0-0.667-0.298-0.667-0.667v-2c0-0.369 0.298-0.667 0.667-0.667s0.667 0.298 0.667 0.667v2c0 0.368-0.298 0.667-0.667 0.667z"></path>
<path d="M23.417 11.61c-0.369 0-0.667-0.298-0.667-0.667v-2c0-0.369 0.298-0.667 0.667-0.667s0.667 0.298 0.667 0.667v2c0 0.369-0.298 0.667-0.667 0.667z"></path>
<path d="M23.418 17.245c-0.369 0-0.667-0.298-0.667-0.667v-2c0-0.369 0.298-0.667 0.667-0.667s0.667 0.298 0.667 0.667v2c0 0.369-0.298 0.667-0.667 0.667z"></path>
<path d="M23.418 24.186c-0.369 0-0.667-0.298-0.667-0.667v-2.603c0-0.369 0.298-0.667 0.667-0.667s0.667 0.298 0.667 0.667v2.603c0 0.369-0.298 0.667-0.667 0.667z"></path>
<path d="M23.418 30.526c-0.369 0-0.667-0.298-0.667-0.667v-2c0-0.369 0.298-0.667 0.667-0.667s0.667 0.298 0.667 0.667v2c0 0.369-0.298 0.667-0.667 0.667z"></path>
<path d="M31.296 15.544c-0.215 0-0.426-0.103-0.555-0.296l-3.482-5.206-1.641 2.347c-0.212 0.303-0.628 0.374-0.93 0.164-0.301-0.211-0.375-0.627-0.164-0.928l2.201-3.145c0.125-0.178 0.329-0.285 0.547-0.285 0.003 0 0.005 0 0.007 0 0.22 0.003 0.426 0.113 0.548 0.296l4.023 6.016c0.204 0.306 0.122 0.72-0.184 0.925-0.115 0.076-0.244 0.113-0.371 0.113z"></path>
<path d="M0.799 27.185c-0.13 0-0.262-0.038-0.377-0.117-0.303-0.208-0.38-0.624-0.172-0.927l3.943-5.737c0.111-0.16 0.286-0.264 0.479-0.285 0.192-0.025 0.387 0.044 0.529 0.178l3.32 3.141 3.874-6.99c0.17-0.306 0.549-0.431 0.865-0.281l3.367 1.572 1.978-6.378c0.060-0.195 0.207-0.352 0.397-0.425 0.187-0.074 0.401-0.055 0.578 0.047l2.358 1.393c0.318 0.187 0.423 0.596 0.236 0.913-0.189 0.317-0.599 0.42-0.913 0.235l-1.633-0.964-1.954 6.303c-0.057 0.184-0.191 0.333-0.367 0.411s-0.375 0.077-0.552-0.005l-3.495-1.631-3.99 7.198c-0.1 0.181-0.278 0.305-0.481 0.336-0.206 0.033-0.41-0.033-0.561-0.175l-3.378-3.197-3.502 5.095c-0.129 0.187-0.338 0.289-0.55 0.289z"></path>
<path d="M23.418 15.245c-1.37 0-2.484-1.114-2.484-2.484s1.115-2.484 2.484-2.484 2.484 1.115 2.484 2.484-1.115 2.484-2.484 2.484zM23.418 11.61c-0.634 0-1.151 0.516-1.151 1.151s0.517 1.15 1.151 1.15 1.151-0.516 1.151-1.15c0-0.635-0.517-1.151-1.151-1.151z"></path>
</svg>
