<!-- Generated by IcoMoon.io -->
<svg version="1.1" xmlns="http://www.w3.org/2000/svg" width="32" height="32" viewBox="0 0 32 32">
<title>analytics_presentation_statistics_graph</title>
<path d="M31.277 29.316h-9.964c-0.369 0-0.667-0.298-0.667-0.667s0.298-0.667 0.667-0.667h9.3l0.075-18.573-3.365-0.005c-0.369-0.001-0.665-0.299-0.665-0.668s0.299-0.665 0.667-0.665h0.001l4.033 0.007c0.177 0 0.346 0.071 0.471 0.197s0.195 0.296 0.194 0.473l-0.081 19.905c-0.001 0.367-0.299 0.664-0.667 0.664z"></path>
<path d="M23.306 5.34c-0.030 0-0.059-0.002-0.089-0.006-0.365-0.047-0.621-0.383-0.574-0.747l0.184-1.396-17.592-1.409-0.168 2.929c-0.021 0.368-0.35 0.643-0.703 0.628-0.368-0.021-0.649-0.336-0.628-0.703l0.206-3.61c0.010-0.18 0.092-0.347 0.227-0.465s0.304-0.175 0.491-0.162l18.972 1.519c0.182 0.015 0.35 0.103 0.465 0.245s0.167 0.325 0.143 0.506l-0.275 2.091c-0.044 0.336-0.331 0.58-0.66 0.58z"></path>
<path d="M21.237 30.263c-0.018 0-0.036-0.001-0.055-0.003l-18.97-1.534c-0.181-0.014-0.348-0.103-0.463-0.243s-0.167-0.323-0.145-0.503l0.425-3.4c0.046-0.366 0.373-0.629 0.744-0.579 0.365 0.046 0.624 0.379 0.579 0.743l-0.338 2.71 17.612 1.423 0.35-4.269c0.030-0.366 0.359-0.631 0.719-0.609 0.367 0.030 0.639 0.352 0.609 0.719l-0.405 4.934c-0.029 0.348-0.32 0.612-0.663 0.612z"></path>
<path d="M27.325 25.329h-26.667c-0.369 0-0.667-0.298-0.667-0.667v-20c0-0.369 0.298-0.667 0.667-0.667h26.667c0.369 0 0.667 0.298 0.667 0.667v20c0 0.368-0.298 0.667-0.667 0.667zM1.325 23.996h25.333v-18.667h-25.333v18.667z"></path>
<path d="M9.416 19.805c-1.501 0-2.932-0.645-3.926-1.767-0.996-1.125-1.464-2.622-1.282-4.109 0.32-2.627 2.554-4.608 5.197-4.608 0.402 0 0.953 0 1.298 0.39 0.184 0.208 0.266 0.487 0.229 0.785l-0.311 2.551c2.433-1.070 2.481-1.070 2.708-1.070 0.285 0 0.552 0.126 0.754 0.353 0.635 0.717 0.577 2.471 0.529 2.867-0.32 2.628-2.554 4.608-5.197 4.608zM9.406 10.654c-1.97 0-3.635 1.477-3.874 3.436-0.135 1.108 0.214 2.225 0.957 3.064 0.742 0.837 1.809 1.318 2.928 1.318 1.969 0 3.635-1.477 3.874-3.436 0.058-0.477-0.012-1.273-0.129-1.65-0.454 0.201-1.732 0.761-3.074 1.353-0.218 0.096-0.474 0.069-0.666-0.075-0.193-0.143-0.294-0.378-0.264-0.616l0.413-3.392c-0.060-0.001-0.119-0.001-0.164-0.001z"></path>
<path d="M23.305 18.663h-5.294c-0.369 0-0.667-0.298-0.667-0.667s0.298-0.667 0.667-0.667h5.294c0.369 0 0.667 0.298 0.667 0.667s-0.298 0.667-0.667 0.667z"></path>
<path d="M23.305 14.662h-5.294c-0.369 0-0.667-0.298-0.667-0.667s0.298-0.667 0.667-0.667h5.294c0.369 0 0.667 0.298 0.667 0.667s-0.298 0.667-0.667 0.667z"></path>
<path d="M23.305 10.662h-5.294c-0.369 0-0.667-0.298-0.667-0.667s0.298-0.667 0.667-0.667h5.294c0.369 0 0.667 0.298 0.667 0.667s-0.298 0.667-0.667 0.667z"></path>
</svg>
