<!-- Generated by IcoMoon.io -->
<svg version="1.1" xmlns="http://www.w3.org/2000/svg" width="1024" height="1024" viewBox="0 0 1024 1024">
<title>angle_right</title>
<g id="icomoon-ignore">
</g>
<path fill="#000" d="M717.2 512.050c0 0.073 0.001 0.16 0.001 0.246 0 12.535-5.040 23.894-13.205 32.158l0.004-0.005-318.9 318.7c-8.312 8.249-19.76 13.347-32.4 13.347s-24.088-5.098-32.403-13.35l0.003 0.003c-8.28-8.297-13.4-19.751-13.4-32.4s5.12-24.103 13.401-32.401l286.399-286.299-286.5-286.4c-8.276-8.183-13.401-19.538-13.401-32.089 0-0.109 0-0.218 0.001-0.327v0.017c0-0.009 0-0.019 0-0.029 0-25.295 20.505-45.8 45.8-45.8 12.655 0 24.11 5.132 32.4 13.429v0l318.9 318.8c8.218 8.221 13.301 19.576 13.301 32.119 0 0.099 0 0.198-0.001 0.297v-0.015z"></path>
</svg>
