<!-- Generated by IcoMoon.io -->
<svg version="1.1" xmlns="http://www.w3.org/2000/svg" width="32" height="32" viewBox="0 0 32 32">
<title>angle_double_right</title>
<path d="M4.931 6.531c0.459-0.399 0.891-0.775 1.344-1.169 3.671 3.488 7.407 7.039 11.163 10.609q-5.602 5.352-11.167 10.668c-0.406-0.44-0.809-0.871-1.219-1.313 3.208-3.063 6.488-6.196 9.796-9.356-3.292-3.132-6.573-6.257-9.917-9.44z"></path>
<path d="M14.563 6.531c0.459-0.399 0.891-0.775 1.344-1.169 3.671 3.488 7.406 7.039 11.163 10.609q-5.602 5.352-11.167 10.668c-0.408-0.44-0.809-0.871-1.219-1.313 3.208-3.063 6.488-6.196 9.796-9.356-3.292-3.132-6.573-6.257-9.917-9.44z"></path>
</svg>
