<svg version="1.1" xmlns="http://www.w3.org/2000/svg" width="32" height="32" viewBox="0 0 32 32">
<title>anomalies_detection</title>
<path d="M21.1 16.2c-1.7 0-3 1.3-3 3s1.3 3 3 3c1.7 0 3-1.3 3-3s-1.3-3-3-3zM21 21c-1 0-1.8-0.8-1.8-1.8s0.8-1.8 1.8-1.8 1.8 0.8 1.8 1.8-0.8 1.8-1.8 1.8z"></path>
<path d="M28.1 20.2c1.7 0 3-1.3 3-3s-1.3-3-3-3c-1.7 0-3 1.3-3 3s1.3 3 3 3zM28 15.4c1 0 1.8 0.8 1.8 1.8s-0.8 1.8-1.8 1.8-1.8-0.8-1.8-1.8 0.8-1.8 1.8-1.8z"></path>
<path d="M5.1 8.2c0 1.7 1.3 3 3 3s3-1.3 3-3-1.3-3-3-3c-1.7 0-3 1.3-3 3zM8 6.4c1 0 1.8 0.8 1.8 1.8s-0.7 1.8-1.7 1.8-1.8-0.8-1.8-1.8 0.7-1.8 1.7-1.8z"></path>
<path d="M14.1 11.2c-1.7 0-3 1.3-3 3s1.3 3 3 3c1.7 0 3-1.3 3-3s-1.3-3-3-3zM14 16c-1 0-1.8-0.8-1.8-1.8s0.8-1.8 1.8-1.8 1.8 0.8 1.8 1.8-0.8 1.8-1.8 1.8z"></path>
<path d="M22.1 14.2c1.7 0 3-1.3 3-3s-1.3-3-3-3c-1.7 0-3 1.3-3 3s1.3 3 3 3zM22 9.4c1 0 1.8 0.8 1.8 1.8s-0.8 1.8-1.8 1.8-1.8-0.8-1.8-1.8 0.8-1.8 1.8-1.8z"></path>
<path d="M11.1 24.2c0 1.657-1.343 3-3 3s-3-1.343-3-3c0-1.657 1.343-3 3-3s3 1.343 3 3z"></path>
<path d="M15.1 3.2c-1.7 0-3 1.3-3 3s1.3 3 3 3c1.7 0 3-1.3 3-3s-1.3-3-3-3zM15 8c-1 0-1.8-0.8-1.8-1.8s0.8-1.8 1.8-1.8 1.8 0.8 1.8 1.8-0.8 1.8-1.8 1.8z"></path>
<path d="M30.1 0.4h-5.1c-0.4 0-0.7 0.3-0.7 0.7s0.3 0.7 0.7 0.7h5.1c0.2 0 0.3 0.2 0.3 0.3v5.2c0 0.4 0.3 0.7 0.7 0.7s0.7-0.3 0.7-0.7v-5.2c0-1-0.8-1.7-1.7-1.7z"></path>
<path d="M30.7 24.1c-0.4 0-0.7 0.3-0.7 0.7v5.2c0 0.2-0.2 0.3-0.3 0.3h-5.1c-0.4 0-0.7 0.3-0.7 0.7s0.3 0.7 0.7 0.7h5.1c0.9 0 1.7-0.8 1.7-1.7v-5.2c0-0.4-0.3-0.7-0.7-0.7z"></path>
<path d="M0.9 8c0.4 0 0.7-0.3 0.7-0.7v-5.2c0-0.2 0.2-0.3 0.3-0.3h5.1c0.4 0 0.7-0.3 0.7-0.7s-0.3-0.7-0.6-0.7h-5.2c-0.9 0-1.7 0.7-1.7 1.7v5.2c0 0.4 0.3 0.7 0.7 0.7z"></path>
<path d="M7.1 30.3h-5.2c-0.2 0-0.3-0.2-0.3-0.3v-5.2c0-0.4-0.3-0.7-0.7-0.7s-0.7 0.3-0.7 0.7v5.2c0 0.9 0.8 1.7 1.7 1.7h5.1c0.4 0 0.7-0.3 0.7-0.7s-0.3-0.7-0.6-0.7z"></path>
</svg>
