<svg version="1.1" xmlns="http://www.w3.org/2000/svg" width="32" height="32" viewBox="0 0 32 32">
<title>antiflooding</title>
<path d="M30.96 3.365h-29.92c-0.368 0-0.667 0.299-0.667 0.667v23.935c0 0.368 0.299 0.667 0.667 0.667h29.92c0.368 0 0.667-0.299 0.667-0.667v-23.935c0-0.368-0.299-0.667-0.667-0.667zM30.293 19.321h-6.644v-6.644h6.644v6.644zM15.669 4.699h14.624v6.645h-14.624v-6.645zM22.315 12.677v6.644h-12.629v-6.644h12.629zM1.707 4.699h12.629v6.645h-12.629v-6.645zM1.707 12.677h6.645v6.644h-6.645v-6.644zM14.336 27.301h-12.629v-6.645h12.629v6.645zM15.669 20.655h14.624v6.645h-14.624v-6.645z"></path>
</svg>
