<svg version="1.1" xmlns="http://www.w3.org/2000/svg" width="32" height="32" viewBox="0 0 32 32">
<title>anti_virus_protection_shield</title>
<path d="M15.98 31.742c-0.139 0-0.277-0.018-0.411-0.053-0.536-0.154-12.85-3.81-12.85-16.113v-8.568c-0.001-1.022 1.040-1.803 2.026-1.512 0.333 0.113 0.865 0.238 1.641 0.238 1.154 0 5.163-0.351 8.301-4.867 0.568-0.82 2.020-0.818 2.589-0.001 2.763 3.977 6.013 4.812 8.254 4.812 1.022 0 1.691-0.183 1.698-0.185 1.010-0.283 2.017 0.5 2.016 1.514v8.568c0 12.356-12.319 15.963-12.842 16.11-0.143 0.038-0.281 0.056-0.42 0.056zM4.333 6.767c-0.159 0-0.282 0.092-0.282 0.241v8.568c0 11.308 11.387 14.688 11.871 14.827l0.057 0.005c0.023 0 0.046-0.003 0.067-0.009 0.477-0.134 11.862-3.466 11.862-14.824v-8.568c0-0.145-0.128-0.243-0.246-0.243-0.049 0.004-0.858 0.247-2.134 0.247-2.559 0-6.257-0.934-9.348-5.384-0.069-0.096-0.331-0.098-0.4 0-3.507 5.047-8.078 5.439-9.396 5.439-0.758 0-1.465-0.103-2.045-0.3-0.002 0-0.005 0-0.007 0z"></path>
</svg>
