<!-- Generated by IcoMoon.io -->
<svg version="1.1" xmlns="http://www.w3.org/2000/svg" width="32" height="32" viewBox="0 0 32 32">
<title>anti_virus_protection_shield</title>
<path d="M29.9 7c0-0.5-0.4-0.8-0.8-0.9-5.4-1-7.7-1.7-12.7-4-0.3-0.1-0.6-0.1-0.8 0-5 2.3-7.3 3-12.7 4-0.5 0-0.8 0.4-0.8 0.9-1.1 16.8 12.9 22.7 13.5 22.9 0.1 0 0.2 0.1 0.4 0.1s0.3 0 0.4-0.1c0.6-0.2 14.6-6.1 13.5-22.9zM16 27.9c-2.2-1-12.4-6.4-12-20 4.9-0.9 7.3-1.7 12-3.8 4.7 2.1 7.1 2.9 12 3.8 0.4 13.6-9.8 19-12 20z"></path>
</svg>
