<svg version="1.1" xmlns="http://www.w3.org/2000/svg" width="32" height="32" viewBox="0 0 32 32">
<title>api_preferences</title>
<path d="M24.178 20.409c-1.781 0-3.228 1.447-3.228 3.228 0 1.778 1.447 3.228 3.228 3.228 1.778 0 3.228-1.447 3.228-3.228s-1.447-3.228-3.228-3.228zM24.178 25.716c-1.147 0-2.078-0.931-2.078-2.078s0.931-2.078 2.078-2.078c1.147 0 2.078 0.931 2.078 2.078s-0.931 2.078-2.078 2.078z"></path>
<path d="M31.841 22.569c-0.038-0.256-0.241-0.456-0.494-0.491l-1.563-0.203c-0.103-0.325-0.234-0.644-0.394-0.95l0.962-1.25c0.156-0.203 0.159-0.491 0.003-0.697-0.431-0.569-0.938-1.078-1.509-1.509-0.1-0.075-0.222-0.116-0.347-0.116s-0.25 0.044-0.35 0.119l-1.25 0.962c-0.303-0.159-0.622-0.291-0.95-0.394l-0.203-1.563c-0.034-0.256-0.234-0.459-0.491-0.494-0.369-0.050-0.719-0.075-1.072-0.075-0.35 0-0.697 0.025-1.066 0.075-0.256 0.034-0.456 0.237-0.491 0.494l-0.206 1.563c-0.328 0.103-0.647 0.234-0.953 0.394l-1.25-0.962c-0.1-0.075-0.225-0.119-0.35-0.119s-0.247 0.041-0.347 0.116c-0.563 0.425-1.084 0.947-1.509 1.509-0.156 0.206-0.156 0.494 0.003 0.697l0.959 1.25c-0.159 0.306-0.294 0.625-0.397 0.956l-1.563 0.203c-0.256 0.034-0.459 0.234-0.494 0.491-0.097 0.709-0.097 1.428 0 2.134 0.034 0.256 0.238 0.459 0.494 0.491l1.563 0.203c0.103 0.328 0.238 0.65 0.397 0.953l-0.962 1.25c-0.156 0.206-0.159 0.491-0.003 0.697 0.428 0.566 0.95 1.087 1.509 1.509 0.1 0.075 0.219 0.116 0.347 0.116 0.125 0 0.25-0.044 0.35-0.119l1.25-0.962c0.306 0.159 0.625 0.294 0.953 0.394l0.203 1.563c0.034 0.256 0.238 0.459 0.491 0.494 0.359 0.050 0.709 0.075 1.063 0.075v0c0.356 0 0.709-0.025 1.072-0.075 0.256-0.034 0.456-0.238 0.491-0.494l0.206-1.563c0.328-0.103 0.647-0.234 0.95-0.394l1.25 0.959c0.1 0.078 0.225 0.119 0.35 0.119s0.247-0.041 0.347-0.116c0.572-0.431 1.078-0.941 1.509-1.512 0.156-0.206 0.153-0.491-0.003-0.697l-0.962-1.25c0.159-0.306 0.291-0.622 0.394-0.95l1.563-0.203c0.256-0.034 0.459-0.238 0.494-0.491 0.109-0.731 0.109-1.409 0.006-2.137zM28.772 24.747c-0.116 0.475-0.303 0.931-0.559 1.353-0.122 0.203-0.109 0.462 0.034 0.65l0.916 1.194c-0.209 0.241-0.434 0.469-0.675 0.678l-1.194-0.919c-0.1-0.075-0.225-0.119-0.35-0.119-0.106 0-0.209 0.028-0.3 0.084-0.419 0.259-0.875 0.447-1.353 0.563-0.231 0.056-0.403 0.247-0.434 0.484l-0.197 1.494c-0.159 0.012-0.319 0.019-0.478 0.019s-0.316-0.006-0.478-0.019l-0.194-1.491c-0.031-0.234-0.206-0.431-0.438-0.484-0.478-0.116-0.934-0.303-1.356-0.563-0.091-0.053-0.194-0.084-0.297-0.084-0.125 0-0.25 0.041-0.35 0.119l-1.194 0.916c-0.241-0.209-0.466-0.434-0.675-0.675l0.916-1.194c0.144-0.188 0.156-0.45 0.034-0.65-0.259-0.422-0.45-0.878-0.563-1.356-0.056-0.228-0.25-0.403-0.484-0.434l-1.491-0.194c-0.022-0.319-0.022-0.637 0-0.956l1.491-0.194c0.234-0.031 0.428-0.206 0.484-0.434 0.116-0.478 0.303-0.934 0.563-1.356 0.125-0.203 0.109-0.462-0.034-0.65l-0.916-1.194c0.209-0.241 0.434-0.469 0.675-0.675l1.194 0.916c0.1 0.078 0.225 0.119 0.35 0.119 0.106 0 0.209-0.028 0.3-0.084 0.422-0.259 0.878-0.447 1.356-0.563 0.231-0.056 0.406-0.25 0.434-0.484l0.194-1.491c0.159-0.012 0.316-0.019 0.475-0.019s0.319 0.006 0.481 0.019l0.197 1.494c0.031 0.234 0.206 0.428 0.434 0.484 0.478 0.116 0.934 0.303 1.353 0.563 0.091 0.056 0.194 0.084 0.3 0.084 0.125 0 0.25-0.041 0.35-0.119l1.194-0.916c0.241 0.209 0.469 0.434 0.675 0.675l-0.919 1.194c-0.144 0.188-0.156 0.447-0.034 0.65 0.256 0.422 0.447 0.875 0.563 1.353 0.056 0.234 0.247 0.403 0.484 0.434l1.491 0.194c0.025 0.319 0.025 0.637 0 0.956l-1.494 0.197c-0.234 0.028-0.425 0.197-0.481 0.431z"></path>
<path d="M25.447 1.291c0-0.369-0.297-0.666-0.666-0.666h-24.031c-0.369 0-0.666 0.3-0.666 0.666v22.959c0 0.369 0.3 0.666 0.666 0.666h13.709v-1.334h-13.044v-15.406h22.697v5.516h1.334v-12.4zM24.113 6.844h-22.697v-4.884h22.697v4.884z"></path>
<path d="M3.544 5.441v0c0.25 0 0.5-0.106 0.681-0.278 0.172-0.181 0.278-0.431 0.278-0.681s-0.106-0.5-0.278-0.681c-0.366-0.356-1-0.356-1.366 0-0.181 0.181-0.278 0.431-0.278 0.681s0.097 0.5 0.278 0.681c0.184 0.172 0.434 0.278 0.684 0.278z"></path>
<path d="M7.119 5.441v0c0.259 0 0.5-0.106 0.681-0.278 0.181-0.181 0.278-0.431 0.278-0.681s-0.097-0.5-0.278-0.681c-0.356-0.356-1.009-0.356-1.356 0-0.181 0.181-0.287 0.431-0.287 0.681s0.106 0.5 0.278 0.681c0.184 0.172 0.434 0.278 0.684 0.278z"></path>
<path d="M10.703 5.441c0.25 0 0.5-0.106 0.672-0.278 0.181-0.181 0.287-0.431 0.287-0.681s-0.106-0.5-0.287-0.681c-0.356-0.356-1-0.356-1.356 0-0.181 0.181-0.278 0.431-0.278 0.681s0.097 0.5 0.278 0.681c0.184 0.172 0.425 0.278 0.684 0.278z"></path>
<path d="M7.259 9.825h1.156l2.391 6.203h-1.166l-0.581-1.641h-2.475l-0.584 1.641h-1.122l2.381-6.203zM6.878 13.563h1.894l-0.928-2.669h-0.025l-0.941 2.669z"></path>
<path d="M11.916 9.825h2.737c0.441 0 0.8 0.063 1.078 0.191s0.494 0.287 0.644 0.478c0.15 0.191 0.253 0.4 0.309 0.625s0.081 0.434 0.081 0.625c0 0.191-0.028 0.397-0.081 0.622-0.056 0.222-0.159 0.431-0.309 0.622s-0.366 0.35-0.644 0.475c-0.278 0.125-0.637 0.188-1.078 0.188h-1.65v2.381h-1.088v-6.206zM13.003 12.762h1.591c0.122 0 0.247-0.019 0.375-0.053s0.244-0.091 0.353-0.169c0.106-0.078 0.194-0.181 0.259-0.313s0.1-0.294 0.1-0.491c0-0.203-0.028-0.372-0.088-0.503-0.059-0.134-0.137-0.238-0.234-0.316-0.1-0.078-0.213-0.131-0.338-0.159-0.128-0.028-0.262-0.044-0.409-0.044h-1.606v2.047z"></path>
<path d="M18.231 9.825h1.087v6.203h-1.087v-6.203z"></path>
</svg>
