<svg version="1.1" xmlns="http://www.w3.org/2000/svg" width="32" height="32" viewBox="0 0 32 32">
<title>apply_theme</title>
<path d="M26.266 3.2c-0.4 0-0.8 0.266-1.066 0.534s-0.4 0.666-0.4 1.2c0 0.4 0.266 0.8 0.534 1.066s0.666 0.4 1.066 0.4 0.934-0.134 1.2-0.534c0.534-0.666 0.534-1.6-0.134-2.266-0.266-0.4-0.8-0.534-1.2-0.4zM26.666 4.934c-0.134 0.134-0.4 0.134-0.534 0-0.134 0-0.134-0.134-0.134-0.266s0-0.134 0.134-0.266v0c0-0.134 0.134-0.134 0.266-0.134v0c0.134 0 0.134 0 0.266 0.134s0.137 0.397 0.003 0.531v0z"></path>
<path d="M29.466 1.334c-1.066-0.934-2.4-1.334-3.731-1.069s-2.534 1.066-3.2 2.4l-1.2 2.266c-0.134 0.4-0.4 0.666-0.534 1.066-0.534 0.934-0.934 1.866-1.6 2.666-0.666 0.934-1.466 1.734-2.266 2.534l-0.266 0.266c-0.4 0.4-0.666 0.8-1.2 1.2l-0.134 0.134c-0.934-0.8-2.8-2.4-4.4-0.8v0c-9.734 8.138-9.869 8.269-9.869 8.537-0.134 0.4 0 0.934 0.4 1.2l1.2 1.066c0.266 0.266 0.8 0.4 1.2 0.266 0 0.4 0.134 0.8 0.4 1.066l0.934 0.934c0.4 0.266 0.934 0.4 1.334 0.134-0.134 0.4 0 0.934 0.4 1.334l0.534 0.4c0.4 0.266 0.8 0.4 1.2 0.266-0.134 0.4 0 0.934 0.4 1.2l0.534 0.4c0.534 0.4 1.2 0.4 1.6 0v0l-0.134 0.266c-0.134 0.534 0 1.066 0.266 1.334l1.334 1.066c0.266 0.134 0.534 0.266 0.8 0.266 0.134 0 0.266 0 0.4-0.134 0.266-0.134 0.4-0.134 7.2-10.934v0c1.2-1.734-0.4-3.2-1.334-4 0-0.134 0.134-0.134 0.134-0.266l0.134-0.134c0.4-0.534 0.8-1.066 1.2-1.466l0.4-0.534c0.4-0.534 0.934-1.066 1.334-1.6 0.534-0.534 1.066-0.934 1.734-1.466l4.266-3.066c1.2-0.8 1.866-2.134 2-3.466 0.128-1.2-0.538-2.4-1.472-3.331v0zM18 23.466l-9.2-8.131c0.666-0.534 1.2-1.066 1.866-1.6l8.666 7.6c-0.397 0.666-0.931 1.331-1.331 2.131v0zM13.334 30.534l-1.2-1.066 1.2-2.8c0.134-0.266 0-0.534-0.266-0.666s-0.534-0.134-0.8 0l-2 1.866-0.534-0.4 0.934-1.866c0.134-0.266 0-0.534-0.134-0.666-0.266-0.134-0.534-0.134-0.8 0l-1.6 1.334-0.534-0.534 0.666-1.734c0.134-0.266 0-0.534-0.134-0.666s-0.534-0.134-0.666-0.134l-1.466 0.797-0.934-0.934 1.066-1.6c0.134-0.266 0.134-0.534 0-0.8s-0.534 0-0.8 0.134l-1.866 1.066-1.2-1.066c0.666-0.666 3.066-2.666 5.6-4.8l9.466 8.266c-1.731 2.934-3.466 5.6-3.997 6.269v0zM28.266 7.334l-4.266 3.066c-0.666 0.534-1.334 0.934-1.866 1.6-0.534 0.534-0.934 1.066-1.466 1.734l-0.4 0.534c-0.4 0.534-0.8 1.066-1.334 1.734-0.266 0.266-0.534 0.8-0.4 1.334 0 0.134 0.134 0.266 0.134 0.266l0.266 0.266c1.2 1.066 1.734 1.734 1.2 2.4v0 0l-0.134 0.134-8.4-7.469 0.134-0.134c0.666-0.666 1.334-0.266 2.666 0.8l0.266 0.266c0.134 0.134 0.134 0.134 0.266 0.134 0.534 0.134 0.934-0.266 1.2-0.534 0.4-0.4 0.8-0.8 1.2-1.2l0.266-0.266c0.8-0.8 1.734-1.734 2.4-2.666s1.2-1.866 1.734-2.934c0.134-0.4 0.4-0.666 0.534-1.066l1.2-2.266c0.534-0.934 1.334-1.6 2.4-1.734 0.934-0.134 2 0.134 2.666 0.8 0.8 0.666 1.2 1.6 1.066 2.534 0.137 1.197-0.397 1.997-1.331 2.666v0z"></path>
<path d="M26.506 32c-0.238 0-0.472 0-0.709 0-0.034-0.006-0.066-0.016-0.1-0.019-0.272-0.041-0.544-0.066-0.813-0.122-2.275-0.484-4.125-2.422-4.512-4.722-0.034-0.209-0.059-0.422-0.091-0.631 0-0.244 0-0.488 0-0.731 0.006-0.025 0.019-0.050 0.019-0.075 0.075-1.012 0.387-1.947 0.953-2.788 0.928-1.378 2.206-2.234 3.844-2.541 0.216-0.041 0.438-0.063 0.653-0.091 0.244 0 0.488 0 0.731 0 0.038 0.006 0.075 0.016 0.113 0.022 0.291 0.044 0.584 0.069 0.869 0.131 1.228 0.272 2.222 0.934 3.059 1.85 0.744 0.816 1.203 1.772 1.391 2.859 0.034 0.209 0.059 0.422 0.087 0.631 0 0.244 0 0.488 0 0.731-0.006 0.028-0.016 0.059-0.019 0.087-0.041 0.569-0.156 1.125-0.375 1.653-0.837 2.012-2.325 3.241-4.469 3.663-0.206 0.044-0.419 0.063-0.631 0.091zM29.137 23.097c-1.391 1.375-2.778 2.747-4.181 4.134-0.613-0.616-1.216-1.219-1.806-1.813-0.322 0.322-0.647 0.647-0.962 0.962 0.922 0.925 1.856 1.856 2.794 2.797 1.709-1.697 3.428-3.397 5.141-5.094-0.334-0.334-0.653-0.656-0.984-0.988z"></path>
</svg>
