<svg version="1.1" xmlns="http://www.w3.org/2000/svg" width="32" height="32" viewBox="0 0 32 32">
<title>apple_lightning_connect</title>
<path d="M18 28h-4c-0.369 0-0.667-0.298-0.667-0.667v-6.667c0-0.369 0.298-0.667 0.667-0.667h4c0.369 0 0.667 0.298 0.667 0.667v6.667c0 0.369-0.298 0.667-0.667 0.667zM14.667 26.667h2.667v-5.333h-2.667v5.333z"></path>
<path d="M16.967 29.988h-1.934c-0.369 0-0.667-0.298-0.667-0.667v-1.988c0-0.369 0.298-0.667 0.667-0.667h1.934c0.369 0 0.667 0.298 0.667 0.667v1.988c0 0.369-0.298 0.667-0.667 0.667zM15.7 28.655h0.601v-0.655h-0.601v0.655z"></path>
<path d="M17.401 21.299h-2.801c-0.369 0-0.667-0.298-0.667-0.667v-2.958c0-0.867 0.705-1.572 1.572-1.572h0.99c0.867 0 1.573 0.704 1.573 1.572v2.958c0 0.369-0.298 0.667-0.667 0.667zM15.266 19.966h1.468v-2.292c0-0.131-0.108-0.238-0.24-0.238h-0.99c-0.131 0-0.239 0.107-0.239 0.238v2.292z"></path>
<path d="M16.026 11.134c-1.302 0-2.362-1.060-2.362-2.362s1.060-2.363 2.362-2.363c1.303 0 2.363 1.060 2.363 2.363s-1.060 2.362-2.363 2.362zM16.026 7.743c-0.567 0-1.029 0.462-1.029 1.029s0.462 1.029 1.029 1.029c0.568 0 1.030-0.462 1.030-1.029s-0.462-1.029-1.030-1.029z"></path>
<path d="M22.904 13.333h-13.754c-2.104 0-3.816-1.685-3.816-3.757v-8.805c0-0.369 0.298-0.667 0.667-0.667s0.667 0.298 0.667 0.667v8.805c0 1.336 1.114 2.423 2.483 2.423h13.754c1.362 0 2.43-1.064 2.43-2.423v-8.805c0-0.369 0.298-0.667 0.667-0.667s0.667 0.298 0.667 0.667v8.805c0 2.072-1.687 3.757-3.763 3.757z"></path>
<path d="M26 5.333h-20c-0.369 0-0.667-0.298-0.667-0.667s0.298-0.667 0.667-0.667h20c0.369 0 0.667 0.298 0.667 0.667s-0.298 0.667-0.667 0.667z"></path>
<path d="M16 31.865c-0.369 0-0.667-0.298-0.667-0.667v-1.876c0-0.369 0.298-0.667 0.667-0.667s0.667 0.298 0.667 0.667v1.876c0 0.369-0.298 0.667-0.667 0.667z"></path>
</svg>
