<svg version="1.1" xmlns="http://www.w3.org/2000/svg" width="32" height="32" viewBox="0 0 32 32">
<title>apple_connect</title>
<path d="M17.324 18.667h-2.776c-0.693 0-1.215-0.525-1.215-1.221v-2.085c0-0.369 0.298-0.667 0.667-0.667s0.667 0.298 0.667 0.667v1.973h2.658c0.005 0 0.007 0 0.009 0v-1.973c0-0.369 0.298-0.667 0.667-0.667s0.667 0.298 0.667 0.667v2.085c0 0.661-0.615 1.221-1.342 1.221z"></path>
<path d="M23.333 8h-14.667c-0.369 0-0.667-0.298-0.667-0.667v-2.878l-0.355-0.255c-0.18-0.128-0.284-0.338-0.279-0.559s0.12-0.425 0.307-0.544l0.327-0.21v-0.888c0-0.369 0.298-0.667 0.667-0.667h14.667c0.369 0 0.667 0.298 0.667 0.667v0.889l0.327 0.209c0.185 0.12 0.299 0.323 0.306 0.544 0.005 0.221-0.099 0.43-0.279 0.559l-0.354 0.255v2.878c0 0.369-0.298 0.667-0.667 0.667zM9.333 6.667h13.333v-2.554c0-0.159 0.057-0.311 0.158-0.43-0.1-0.119-0.158-0.271-0.158-0.43v-0.586h-13.333v0.586c0 0.159-0.057 0.311-0.157 0.43 0.1 0.119 0.157 0.271 0.157 0.43v2.554z"></path>
<path d="M25.546 16h-19.078c-0.394 0-0.642-0.165-0.781-0.304-0.355-0.355-0.354-0.852-0.354-1.291v-6.046c-0.001-0.506-0.001-1.023 0.363-1.388 0.139-0.139 0.385-0.304 0.771-0.304h19.078c0.385 0 0.63 0.164 0.767 0.302 0.358 0.359 0.355 0.861 0.354 1.305v6.081c0.001 0.511 0.004 0.994-0.345 1.344-0.137 0.137-0.384 0.302-0.776 0.302zM25.546 14.667v0.667l0.003-0.667c-0.001 0-0.001 0-0.003 0zM6.67 14.667h18.662c0.003-0.074 0.001-0.157 0.001-0.223v-6.085c0-0.132 0.001-0.259-0.003-0.359h-18.659c-0.005 0.098-0.005 0.215-0.005 0.306v6.048c0 0.107 0 0.221 0.003 0.313z"></path>
<path d="M20.667 6c-0.369 0-0.667-0.298-0.667-0.667v-1.333c0-0.369 0.298-0.667 0.667-0.667s0.667 0.298 0.667 0.667v1.333c0 0.369-0.298 0.667-0.667 0.667z"></path>
<path d="M11.333 6c-0.369 0-0.667-0.298-0.667-0.667v-1.333c0-0.369 0.298-0.667 0.667-0.667s0.667 0.298 0.667 0.667v1.333c0 0.369-0.298 0.667-0.667 0.667z"></path>
<path d="M16.007 31.954c-0.369 0-0.667-0.298-0.667-0.667v-13.293c0-0.369 0.298-0.667 0.667-0.667s0.667 0.298 0.667 0.667v13.293c0 0.369-0.298 0.667-0.667 0.667z"></path>
</svg>
