<svg version="1.1" xmlns="http://www.w3.org/2000/svg" width="32" height="32" viewBox="0 0 32 32">
<title>archive_open_slide</title>
<path d="M31.333 32.005h-30.667c-0.369 0-0.667-0.298-0.667-0.667v-22.667c0-0.369 0.298-0.667 0.667-0.667h30.667c0.369 0 0.667 0.298 0.667 0.667v22.667c0 0.369-0.298 0.667-0.667 0.667zM1.333 30.672h29.333v-21.333h-29.333v21.333z"></path>
<path d="M29.895 5.339h-26.449c-0.369 0-0.667-0.298-0.667-0.667s0.298-0.667 0.667-0.667h26.449c0.369 0 0.667 0.298 0.667 0.667s-0.298 0.667-0.667 0.667z"></path>
<path d="M25.981 1.339h-20.015c-0.369 0-0.667-0.298-0.667-0.667s0.298-0.667 0.667-0.667h20.015c0.369 0 0.667 0.298 0.667 0.667s-0.298 0.667-0.667 0.667z"></path>
</svg>
