<!-- Generated by IcoMoon.io -->
<svg version="1.1" xmlns="http://www.w3.org/2000/svg" width="32" height="32" viewBox="0 0 32 32">
<title>archive_open_slide</title>
<path d="M26.2 10h-20.4c-1.5 0-2.8 1.3-2.8 2.8v12.4c0 1.5 1.3 2.8 2.8 2.8h20.4c1.5 0 2.8-1.3 2.8-2.8v-12.4c0-1.5-1.3-2.8-2.8-2.8zM27 25.2c0 0.4-0.4 0.8-0.8 0.8h-20.4c-0.4 0-0.8-0.4-0.8-0.8v-12.4c0-0.4 0.4-0.8 0.8-0.8h20.4c0.4 0 0.8 0.4 0.8 0.8v12.4z"></path>
<path d="M9 6h14c0.6 0 1-0.4 1-1s-0.4-1-1-1h-14c-0.6 0-1 0.4-1 1s0.4 1 1 1z"></path>
<path d="M7 9h18c0.6 0 1-0.4 1-1s-0.4-1-1-1h-18c-0.6 0-1 0.4-1 1s0.4 1 1 1z"></path>
</svg>
