<!-- Generated by IcoMoon.io -->
<svg version="1.1" xmlns="http://www.w3.org/2000/svg" width="32" height="32" viewBox="0 0 32 32">
<title>archive_shipping_box_delivery</title>
<path d="M27.2 3h-22.4c-1.6 0-2.8 1.2-2.8 2.8v1.5c0 1.3 0.8 2.3 2 2.6v15.6c0 1.9 1.6 3.5 3.5 3.5h17c1.9 0 3.5-1.6 3.5-3.5v-15.6c1.2-0.3 2-1.4 2-2.6v-1.5c0-1.6-1.2-2.8-2.8-2.8zM24.5 27h-17c-0.8 0-1.5-0.7-1.5-1.5v-15.5h20v15.5c0 0.8-0.7 1.5-1.5 1.5zM28 7.2c0 0.5-0.3 0.8-0.8 0.8h-22.4c-0.5 0-0.8-0.3-0.8-0.8v-1.4c0-0.5 0.3-0.8 0.8-0.8h22.5c0.4 0 0.7 0.3 0.7 0.8v1.4z"></path>
<path d="M19.3 18.3l-2.3 2.3v-6.6c0-0.6-0.4-1-1-1s-1 0.4-1 1v6.6l-2.3-2.3c-0.4-0.4-1-0.4-1.4 0s-0.4 1 0 1.4l4 4c0.2 0.2 0.5 0.3 0.7 0.3s0.5-0.1 0.7-0.3l4-4c0.4-0.4 0.4-1 0-1.4s-1-0.4-1.4 0z"></path>
</svg>
