<svg version="1.1" xmlns="http://www.w3.org/2000/svg" width="32" height="32" viewBox="0 0 32 32">
<title>archive_shipping_box_delivery</title>
<path d="M23.181 30.131c-0.017 0-0.035-0.001-0.052-0.003l-22.52-1.768c-0.347-0.026-0.615-0.316-0.615-0.664v-18.661c0-0.184 0.075-0.359 0.209-0.485s0.311-0.188 0.496-0.18l22.521 1.307c0.352 0.020 0.628 0.313 0.628 0.665v19.123c0 0.186-0.078 0.363-0.214 0.49-0.124 0.115-0.286 0.177-0.453 0.177zM1.327 27.081l21.187 1.663v-17.773l-21.187-1.229v17.339z"></path>
<path d="M22.893 8.434c-0.013 0-0.026-0.001-0.039-0.001l-15.569-0.904c-0.368-0.021-0.649-0.337-0.627-0.704s0.33-0.654 0.704-0.627l15.57 0.904c0.367 0.021 0.648 0.337 0.626 0.704-0.021 0.355-0.314 0.628-0.665 0.628z"></path>
<path d="M25.954 6.249c-0.013 0-0.026-0.001-0.039-0.001l-15.57-0.904c-0.368-0.021-0.649-0.337-0.627-0.704 0.021-0.369 0.339-0.649 0.704-0.627l15.571 0.904c0.367 0.021 0.648 0.337 0.626 0.704-0.021 0.355-0.314 0.628-0.665 0.628z"></path>
<path d="M23.181 30.131c-0.083 0-0.168-0.016-0.249-0.048-0.253-0.102-0.418-0.346-0.418-0.619v-19.123c0-0.195 0.085-0.38 0.233-0.507l8.12-6.951c0.198-0.171 0.477-0.208 0.712-0.099 0.237 0.109 0.388 0.345 0.388 0.605v17.606c0 0.172-0.066 0.337-0.185 0.461l-8.12 8.467c-0.129 0.134-0.303 0.206-0.482 0.206zM23.848 10.648v17.158l6.786-7.077v-15.89l-6.786 5.809z"></path>
<path d="M0.661 9.702c-0.217 0-0.43-0.106-0.558-0.301-0.202-0.308-0.117-0.721 0.191-0.923l9.892-6.488c0.117-0.076 0.258-0.113 0.393-0.109l20.748 0.844c0.367 0.015 0.654 0.325 0.639 0.693-0.016 0.368-0.329 0.674-0.694 0.639l-20.534-0.835-9.713 6.37c-0.113 0.074-0.24 0.109-0.365 0.109z"></path>
<path d="M15.085 16.974c-0.014 0-0.102-0.003-0.117-0.004l-6.898-0.434c-1.006-0.064-1.772-0.934-1.709-1.938 0.060-0.96 0.86-1.712 1.82-1.712l7.017 0.437c0.487 0.030 0.933 0.249 1.256 0.615s0.484 0.836 0.453 1.323c-0.061 0.96-0.861 1.712-1.822 1.712zM8.212 14.221c-0.291 0-0.505 0.203-0.521 0.462-0.017 0.271 0.19 0.506 0.463 0.523l6.898 0.433 0.033 0.668v-0.667c0.259 0 0.475-0.203 0.491-0.463 0.008-0.131-0.035-0.258-0.122-0.357s-0.208-0.158-0.339-0.166l-6.9-0.434c-0.001 0-0.002 0-0.003 0z"></path>
</svg>
