<svg version="1.1" xmlns="http://www.w3.org/2000/svg" width="32" height="32" viewBox="0 0 32 32">
<title>array</title>
<path d="M26.2 26.8c0 3.8-1.6 5-4.2 5h-1.2v-1.4h1c1.6 0 2.8-0.7 2.8-3.7v-21.3c0-3-1.2-3.7-2.8-3.7h-1v-1.4h1.2c2.6 0 4.2 1.3 4.2 5.1v21.4z"></path>
<path d="M5.8 5.3c0-3.8 1.6-5 4.2-5h1.1v1.4h-1c-1.6 0-2.8 0.7-2.8 3.7v21.3c0 3 1.2 3.7 2.8 3.7h1v1.4h-1.1c-2.6 0-4.2-1.3-4.2-5.1v-21.4z"></path>
<path d="M10.9 15.1c1 0 1.7 0.7 1.7 1.7s-0.7 1.7-1.7 1.7-1.7-0.7-1.7-1.7c0-1 0.8-1.7 1.7-1.7z"></path>
<path d="M16 15.1c1 0 1.7 0.7 1.7 1.7s-0.7 1.7-1.7 1.7-1.7-0.7-1.7-1.7c0-1 0.7-1.7 1.7-1.7z"></path>
<path d="M21.1 15.1c1 0 1.7 0.7 1.7 1.7s-0.7 1.7-1.7 1.7c-1 0-1.7-0.7-1.7-1.7-0.1-1 0.7-1.7 1.7-1.7z"></path>
</svg>
