<svg version="1.1" xmlns="http://www.w3.org/2000/svg" width="32" height="32" viewBox="0 0 32 32">
<title>arrows_directions_left_right</title>
<path d="M25.018 26.318c-0.171 0-0.341-0.065-0.471-0.195-0.26-0.26-0.26-0.682 0-0.943l3.178-3.178-3.178-3.177c-0.26-0.26-0.26-0.682 0-0.943s0.682-0.26 0.943 0l3.65 3.648c0.125 0.125 0.195 0.294 0.195 0.471s-0.070 0.346-0.195 0.471l-3.65 3.65c-0.13 0.13-0.301 0.195-0.471 0.195z"></path>
<path d="M28.668 22.668h-25.333c-0.369 0-0.667-0.298-0.667-0.667s0.298-0.667 0.667-0.667h25.333c0.369 0 0.667 0.298 0.667 0.667s-0.298 0.667-0.667 0.667z"></path>
<path d="M6.984 14.316c-0.171 0-0.341-0.065-0.471-0.195l-3.649-3.649c-0.26-0.26-0.26-0.682 0-0.943l3.649-3.649c0.26-0.26 0.682-0.26 0.943 0s0.26 0.682 0 0.943l-3.178 3.178 3.178 3.178c0.26 0.26 0.26 0.682 0 0.943-0.13 0.13-0.301 0.195-0.471 0.195z"></path>
<path d="M28.668 10.667h-25.333c-0.369 0-0.667-0.298-0.667-0.667s0.298-0.667 0.667-0.667h25.333c0.369 0 0.667 0.298 0.667 0.667s-0.298 0.667-0.667 0.667z"></path>
</svg>
