<svg version="1.1" xmlns="http://www.w3.org/2000/svg" width="32" height="32" viewBox="0 0 32 32">
<title>arrow_back_left3</title>
<path d="M13.99 27.43c-0.001 0-0.001 0-0.001 0-0.442 0-0.859-0.133-1.204-0.384l-11.74-9.363c-0.514-0.369-0.825-0.975-0.827-1.645-0.002-0.671 0.308-1.283 0.85-1.678l11.693-9.323c0.38-0.279 0.797-0.418 1.229-0.418 1.141 0 2.070 0.929 2.070 2.070l0.002 4.151 11.839 1.266c2.717 0.477 3.891 2.339 3.87 3.977-0.022 1.645-1.219 3.479-3.842 3.87l-11.868 1.269 0.002 4.151c0 0.603-0.235 1.145-0.663 1.526-0.381 0.341-0.883 0.53-1.41 0.53zM13.99 5.953c-0.148 0-0.289 0.049-0.419 0.144l-11.694 9.324c-0.215 0.158-0.325 0.375-0.325 0.613 0.001 0.236 0.109 0.451 0.299 0.586l11.742 9.366c0.122 0.087 0.285 0.111 0.396 0.111h0.001c0.197 0 0.387-0.070 0.522-0.191 0.145-0.129 0.217-0.307 0.217-0.531l-0.002-4.75c0-0.341 0.257-0.626 0.596-0.663l12.437-1.329c1.82-0.272 2.663-1.486 2.677-2.565 0.013-0.995-0.693-2.283-2.723-2.641l-12.39-1.324c-0.339-0.036-0.596-0.322-0.596-0.663l-0.002-4.75c0-0.441-0.381-0.737-0.737-0.737z"></path>
</svg>
