<svg version="1.1" xmlns="http://www.w3.org/2000/svg" width="32" height="32" viewBox="0 0 32 32">
<title>arrows_play_repeat</title>
<path d="M22.186 11.835c-0.171 0-0.341-0.065-0.471-0.195-0.26-0.26-0.26-0.682 0-0.943l3.352-3.352-3.352-3.352c-0.26-0.26-0.26-0.682 0-0.943s0.682-0.26 0.943 0l3.823 3.823c0.26 0.26 0.26 0.682 0 0.943l-3.823 3.823c-0.13 0.13-0.301 0.195-0.471 0.195z"></path>
<path d="M0.667 18.001c-0.369 0-0.667-0.298-0.667-0.667v-4.391c0-3.461 2.793-6.276 6.226-6.276h19.783c0.369 0 0.667 0.298 0.667 0.667s-0.298 0.667-0.667 0.667h-19.783c-2.698 0-4.893 2.217-4.893 4.943v4.391c0 0.368-0.298 0.667-0.667 0.667z"></path>
<path d="M9.791 29.154c-0.171 0-0.341-0.065-0.471-0.195l-3.823-3.823c-0.26-0.26-0.26-0.682 0-0.943l3.823-3.823c0.26-0.26 0.682-0.26 0.943 0s0.26 0.682 0 0.943l-3.352 3.352 3.352 3.352c0.26 0.26 0.26 0.682 0 0.943-0.13 0.13-0.301 0.195-0.471 0.195z"></path>
<path d="M25.751 25.335h-19.783c-0.369 0-0.667-0.298-0.667-0.667s0.298-0.667 0.667-0.667h19.783c2.711 0 4.915-2.215 4.915-4.936v-4.397c0-0.369 0.298-0.667 0.667-0.667s0.667 0.298 0.667 0.667v4.397c0 3.457-2.803 6.269-6.249 6.269z"></path>
</svg>
