<svg version="1.0" xmlns="http://www.w3.org/2000/svg" width="32" height="32" viewBox="0 0 32 32">
    <title>arrow_top_square</title>
    <path d="M27,9.17c0-2.3-1.87-4.17-4.17-4.17h-13.66c-2.3,0-4.17,1.87-4.17,4.17v13.66c0,2.3,1.87,4.17,4.17,4.17h13.66c2.3,0,4.17-1.87,4.17-4.17v-13.66ZM24.72,22.83c0,1.05-.85,1.9-1.9,1.9h-5.69v-10.15l2.61,2.61c.42.41,1.13.43,1.57.04.22-.2.34-.48.35-.79,0-.35-.13-.68-.36-.92l-3.2-3.2c-.56-.56-1.3-.87-2.1-.87s-1.54.31-2.1.87l-3.2,3.2c-.46.46-.5,1.18-.1,1.62.21.24.5.37.82.38.31,0,.61-.11.83-.33l2.61-2.61v10.15h-5.69c-1.05,0-1.9-.85-1.9-1.9v-13.66c0-1.05.85-1.9,1.9-1.9h13.66c1.05,0,1.9.85,1.9,1.9v13.66Z"/>
</svg>