<svg version="1.1" xmlns="http://www.w3.org/2000/svg" width="32" height="32" viewBox="0 0 32 32">
<title>arrow_left1</title>
<path d="M28.284 14.938h-21.881l8.287-8.287c0.416-0.416 0.416-1.091 0-1.506s-1.091-0.416-1.506 0l-10.091 10.091c-0.203 0.194-0.328 0.466-0.328 0.769s0.128 0.575 0.328 0.769l10.088 10.087c0.209 0.209 0.481 0.313 0.753 0.313v0c0.272 0 0.544-0.103 0.753-0.313 0.416-0.416 0.416-1.091 0-1.506l-8.284-8.284h21.881c0.587 0 1.066-0.475 1.066-1.066 0-0.588-0.478-1.066-1.066-1.066z"></path>
</svg>
