<!-- Generated by IcoMoon.io -->
<svg version="1.1" xmlns="http://www.w3.org/2000/svg" width="32" height="32" viewBox="0 0 32 32">
<title>arrow_rounded_thick</title>
<path d="M19.6 23.791c-0.272 0-0.531-0.103-0.731-0.288l-7.2-6.722c-0.216-0.203-0.341-0.488-0.341-0.784s0.125-0.581 0.341-0.784l7.2-6.719c0.2-0.184 0.459-0.287 0.731-0.287 0.3 0 0.578 0.122 0.784 0.341 0.184 0.2 0.288 0.459 0.288 0.731 0 0.3-0.122 0.578-0.341 0.784l-6.363 5.938 6.363 5.937c0.431 0.403 0.456 1.084 0.053 1.516-0.206 0.219-0.484 0.337-0.784 0.337z"></path>
</svg>
