<!-- Generated by IcoMoon.io -->
<svg version="1.1" xmlns="http://www.w3.org/2000/svg" width="32" height="32" viewBox="0 0 32 32">
<title>arrow_back_left</title>
<path d="M21.4 15h-8.4l3.3-3.3c0.4-0.4 0.4-1 0-1.4s-1-0.4-1.4 0l-5 5c-0.4 0.4-0.4 1 0 1.4l5 5c0.2 0.2 0.5 0.3 0.7 0.3 0.3 0 0.5-0.1 0.7-0.3 0.4-0.4 0.4-1 0-1.4l-3.3-3.3h8.3c0.6 0 1-0.4 1-1s-0.4-1-0.9-1z"></path>
<path d="M16 3c-7.2 0-13 5.8-13 13s5.8 13 13 13 13-5.8 13-13-5.8-13-13-13zM16 27c-6.1 0-11-4.9-11-11s4.9-11 11-11 11 4.9 11 11-4.9 11-11 11z"></path>
</svg>
