<svg version="1.0" xmlns="http://www.w3.org/2000/svg" width="32" height="32" viewBox="0 0 32 32">
  <title>arrow_right_square</title>
  <desc>arrow,collapse,control,direction,expand,navigation,next,right,square</desc>
  <path d="M8.55,4c-2.51,0-4.55,2.04-4.55,4.55v14.9c0,2.51,2.04,4.55,4.55,4.55h14.9c2.51,0,4.55-2.04,4.55-4.55v-14.9c0-2.51-2.04-4.55-4.55-4.55h-14.9ZM8.55,6.48h14.9c1.15,0,2.07.93,2.07,2.07v14.9c0,1.15-.93,2.07-2.07,2.07h-14.9c-1.15,0-2.07-.93-2.07-2.07v-6.21h11.07s-2.85,2.85-2.85,2.85c-.24.24-.36.57-.36.91.01.35.15.67.41.89.48.44,1.27.39,1.77-.11l3.49-3.49c.61-.61.95-1.42.95-2.29s-.34-1.68-.95-2.29l-3.49-3.49c-.26-.25-.62-.39-1-.39-.34.01-.64.14-.86.38-.43.48-.4,1.25.04,1.71l2.85,2.85H6.48v-6.21c0-1.15.93-2.07,2.07-2.07h0Z"/>
</svg>