<!-- Generated by IcoMoon.io -->
<svg version="1.1" xmlns="http://www.w3.org/2000/svg" width="32" height="32" viewBox="0 0 32 32">
<title>arrows_directions_left_right</title>
<path d="M7.293 14.082c0.391 0.39 1.024 0.39 1.414 0s0.39-1.024 0-1.414l-1.293-1.293h19.586c0.552 0 1-0.448 1-1s-0.448-1-1-1h-19.586l1.293-1.293c0.39-0.391 0.39-1.024 0-1.414s-1.024-0.391-1.414 0l-3 3c-0.391 0.391-0.391 1.024 0 1.414l3 3zM24.707 17.918c-0.391-0.39-1.024-0.39-1.414 0s-0.39 1.024 0 1.414l1.293 1.293h-19.586c-0.552 0-1 0.448-1 1s0.448 1 1 1h19.586l-1.293 1.293c-0.39 0.391-0.39 1.024 0 1.414s1.024 0.39 1.414 0l3-3c0.39-0.391 0.39-1.024 0-1.414l-3-3z"></path>
</svg>
