<!-- Generated by IcoMoon.io -->
<svg version="1.1" xmlns="http://www.w3.org/2000/svg" width="32" height="32" viewBox="0 0 32 32">
<title>arrow_down_fat</title>
<path d="M16 22.413c-0.384 0-0.744-0.147-1.012-0.413l-9.959-9.966c-0.556-0.559-0.556-1.466 0-2.025 0.272-0.272 0.631-0.419 1.013-0.419s0.741 0.15 1.013 0.419l8.947 8.95 8.95-8.953c0.269-0.272 0.628-0.419 1.012-0.419s0.741 0.15 1.012 0.419c0.556 0.559 0.556 1.469 0 2.025l-9.963 9.966c-0.269 0.269-0.628 0.416-1.012 0.416 0 0 0 0 0 0z"></path>
</svg>
