<svg version="1.0" xmlns="http://www.w3.org/2000/svg" width="32" height="32" viewBox="0 0 32 32">
  <title>arrow_left_square</title>
  <desc>arrow,collapse,control,direction,expand,left,navigation,previous,square</desc>
  <path d="M23.45,28c2.51,0,4.55-2.04,4.55-4.55v-14.9c0-2.51-2.04-4.55-4.55-4.55h-14.9c-2.51,0-4.55,2.04-4.55,4.55v14.9c0,2.51,2.04,4.55,4.55,4.55h14.9ZM23.45,25.52h-14.9c-1.15,0-2.07-.93-2.07-2.07v-14.9c0-1.15.93-2.07,2.07-2.07h14.9c1.15,0,2.07.93,2.07,2.07v6.21s-11.07,0-11.07,0l2.85-2.85c.24-.24.36-.57.36-.91-.01-.35-.15-.67-.41-.89-.48-.44-1.27-.39-1.77.11l-3.49,3.49c-.61.61-.95,1.42-.95,2.29s.34,1.68.95,2.29l3.49,3.49c.26.25.62.39,1,.39.34-.01.64-.14.86-.38.43-.48.4-1.25-.04-1.71l-2.85-2.85h11.07s0,6.21,0,6.21c0,1.15-.93,2.07-2.07,2.07h0Z"/>
</svg>