<svg version="1.1" xmlns="http://www.w3.org/2000/svg" width="32" height="32" viewBox="0 0 32 32">
<title>arrow_next_right</title>
<path d="M16.040 31.846c-8.736 0-15.842-7.107-15.842-15.842s7.107-15.844 15.842-15.844 15.844 7.107 15.844 15.844c0 8.736-7.108 15.842-15.844 15.842zM16.040 1.493c-8.001 0-14.509 6.509-14.509 14.51 0 8 6.508 14.509 14.509 14.509s14.51-6.509 14.51-14.509c0-8.001-6.509-14.51-14.51-14.51z"></path>
<path d="M13.736 23.35v0c-0.954 0-1.731-0.775-1.731-1.728l-0.001-11.254c0-0.953 0.777-1.729 1.731-1.729 0.384 0 0.75 0.127 1.058 0.368l7.208 5.626c0.422 0.329 0.664 0.825 0.664 1.361s-0.242 1.031-0.664 1.36l-7.208 5.628c-0.307 0.24-0.673 0.367-1.058 0.367zM13.736 9.973c-0.165 0-0.398 0.122-0.398 0.395l0.001 11.254c0 0.272 0.232 0.395 0.397 0.395v0c0.085 0 0.165-0.029 0.237-0.085l7.209-5.629c0.132-0.101 0.151-0.237 0.151-0.309s-0.019-0.207-0.151-0.31l-7.209-5.626c-0.073-0.057-0.152-0.085-0.237-0.085z"></path>
</svg>
