<!-- Generated by IcoMoon.io -->
<svg version="1.1" xmlns="http://www.w3.org/2000/svg" width="32" height="32" viewBox="0 0 32 32">
<title>arrows_play_shuffle</title>
<path d="M25.7 18.3c-0.4-0.4-1-0.4-1.4 0s-0.4 1 0 1.4l1.3 1.3h-2.9c-1.3 0-2.6-0.7-3.3-1.8l-2.5-3.8c0 0 0 0 0 0l-2.5-3.8c-1.1-1.7-3-2.6-5-2.6h-5.4c-0.6 0-1 0.4-1 1s0.4 1 1 1h5.3c1.3 0 2.6 0.7 3.3 1.8l2.1 3.2-2.2 3.2c-0.7 1.1-2 1.8-3.3 1.8h-5.2c-0.6 0-1 0.4-1 1s0.4 1 1 1h5.3c2 0 3.9-1 5-2.7l1.7-2.5 1.7 2.5c1.1 1.7 3 2.7 5 2.7h2.9l-1.3 1.3c-0.4 0.4-0.4 1 0 1.4 0.2 0.2 0.5 0.3 0.7 0.3s0.5-0.1 0.7-0.3l3-3c0.4-0.4 0.4-1 0-1.4l-3-3z"></path>
<path d="M18 14c0.3 0 0.6-0.2 0.8-0.4l0.5-0.8c0.7-1.1 2-1.8 3.3-1.8h2.9l-1.3 1.3c-0.4 0.4-0.4 1 0 1.4 0.2 0.2 0.5 0.3 0.7 0.3s0.5-0.1 0.7-0.3l3-3c0.4-0.4 0.4-1 0-1.4l-3-3c-0.4-0.4-1-0.4-1.4 0s-0.4 1 0 1.4l1.4 1.3h-2.9c-2 0-3.9 1-5 2.7l-0.5 0.8c-0.3 0.5-0.2 1.1 0.3 1.4 0.1 0 0.3 0.1 0.5 0.1z"></path>
</svg>
