<!-- Generated by IcoMoon.io -->
<svg version="1.1" xmlns="http://www.w3.org/2000/svg" width="32" height="32" viewBox="0 0 32 32">
<title>arrows_fast_forward</title>
<path d="M23.293 6.668c0.391-0.391 1.024-0.391 1.414 0l3 3c0.39 0.391 0.39 1.024 0 1.414l-3 3c-0.391 0.39-1.024 0.39-1.414 0s-0.39-1.024 0-1.414l1.293-1.293h-19.586c-0.552 0-1-0.448-1-1s0.448-1 1-1h19.586l-1.293-1.293c-0.39-0.391-0.39-1.024 0-1.414zM23.293 17.918c0.391-0.39 1.024-0.39 1.414 0l3 3c0.39 0.391 0.39 1.024 0 1.414l-3 3c-0.391 0.39-1.024 0.39-1.414 0s-0.39-1.024 0-1.414l1.293-1.293h-19.586c-0.552 0-1-0.448-1-1s0.448-1 1-1h19.586l-1.293-1.293c-0.39-0.391-0.39-1.024 0-1.414z"></path>
</svg>
