<svg version="1.1" xmlns="http://www.w3.org/2000/svg" width="32" height="32" viewBox="0 0 32 32">
<title>arrow_next_right2</title>
<path d="M15.995 31.745c-8.68 0-15.743-7.063-15.743-15.742s7.063-15.743 15.743-15.743c8.68 0 15.742 7.063 15.742 15.743s-7.062 15.742-15.742 15.742zM15.995 1.593c-7.945 0-14.409 6.464-14.409 14.41s6.464 14.409 14.409 14.409 14.409-6.464 14.409-14.409-6.463-14.41-14.409-14.41z"></path>
<path d="M17.251 22.996c-0.171 0-0.341-0.065-0.471-0.195-0.26-0.26-0.26-0.682 0-0.943l5.855-5.855-5.855-5.855c-0.26-0.26-0.26-0.682 0-0.943s0.682-0.26 0.943 0l6.327 6.327c0.26 0.26 0.26 0.682 0 0.943l-6.327 6.327c-0.13 0.13-0.301 0.195-0.471 0.195z"></path>
<path d="M23.578 16.669h-15.31c-0.369 0-0.667-0.298-0.667-0.667s0.298-0.667 0.667-0.667h15.31c0.369 0 0.667 0.298 0.667 0.667s-0.298 0.667-0.667 0.667z"></path>
</svg>
