<svg version="1.1" xmlns="http://www.w3.org/2000/svg" width="32" height="32" viewBox="0 0 32 32">
<title>arrow_right_next</title>
<path d="M17.977 27.436v0c-1.133 0-2.055-0.931-2.055-2.074l-0.002-4.151-11.839-1.267c-2.716-0.477-3.891-2.339-3.869-3.977 0.022-1.645 1.218-3.48 3.842-3.87l11.868-1.269-0.001-4.152c0.001-1.833 2.129-2.505 3.277-1.671l11.738 9.362c0.514 0.37 0.825 0.976 0.828 1.644 0.003 0.671-0.307 1.283-0.85 1.678l-11.693 9.323c-0.385 0.283-0.808 0.423-1.245 0.423zM18.004 5.958c-0.302 0-0.75 0.191-0.75 0.719l0.001 4.751c0 0.341-0.257 0.627-0.596 0.663l-12.436 1.329c-1.822 0.272-2.663 1.486-2.678 2.566-0.013 0.994 0.692 2.282 2.722 2.64l12.389 1.324c0.34 0.036 0.596 0.322 0.596 0.663l0.003 4.75c0 0.464 0.366 0.741 0.721 0.741v0c0.154 0 0.301-0.049 0.436-0.148l11.693-9.323c0.216-0.159 0.325-0.376 0.325-0.615-0.001-0.236-0.111-0.45-0.299-0.587l-11.741-9.364c-0.12-0.087-0.279-0.109-0.387-0.109z"></path>
</svg>
