<svg version="1.1" xmlns="http://www.w3.org/2000/svg" width="32" height="32" viewBox="0 0 32 32">
<title>arrow_back_left2</title>
<path d="M15.986 31.745c-8.68 0-15.743-7.063-15.743-15.742s7.063-15.743 15.743-15.743 15.743 7.062 15.743 15.743c0 8.68-7.063 15.742-15.743 15.742zM15.986 1.593c-7.945 0-14.409 6.464-14.409 14.409s6.464 14.409 14.409 14.409c7.946 0 14.409-6.464 14.409-14.409s-6.463-14.409-14.409-14.409z"></path>
<path d="M14.73 22.995c-0.171 0-0.341-0.065-0.471-0.195l-6.326-6.325c-0.125-0.125-0.195-0.294-0.195-0.471s0.070-0.346 0.195-0.471l6.326-6.327c0.26-0.26 0.682-0.26 0.943 0s0.26 0.682 0 0.943l-5.855 5.855 5.855 5.854c0.26 0.26 0.26 0.682 0 0.943-0.13 0.13-0.301 0.195-0.471 0.195z"></path>
<path d="M23.712 16.669h-15.309c-0.369 0-0.667-0.298-0.667-0.667s0.298-0.667 0.667-0.667h15.309c0.369 0 0.667 0.298 0.667 0.667s-0.298 0.667-0.667 0.667z"></path>
</svg>
