<svg version="1.1" xmlns="http://www.w3.org/2000/svg" width="32" height="32" viewBox="0 0 32 32">
<title>arrows_curves</title>
<path d="M9.316 8.106c-0.178 0-0.356-0.071-0.488-0.212l-2.825-3.027-2.825 3.027c-0.253 0.27-0.673 0.284-0.943 0.033s-0.283-0.673-0.033-0.943l3.313-3.549c0.126-0.135 0.303-0.212 0.488-0.212v0c0.185 0 0.361 0.077 0.488 0.212l3.312 3.549c0.251 0.269 0.236 0.691-0.033 0.943-0.129 0.12-0.292 0.179-0.455 0.179z"></path>
<path d="M24.645 28.842c-0.185 0-0.361-0.077-0.487-0.212l-3.313-3.549c-0.251-0.268-0.237-0.69 0.033-0.941 0.267-0.251 0.689-0.237 0.941 0.033l2.825 3.027 2.825-3.027c0.253-0.268 0.675-0.283 0.941-0.033 0.269 0.251 0.284 0.673 0.033 0.941l-3.313 3.549c-0.126 0.135-0.302 0.212-0.487 0.212z"></path>
<path d="M10.664 27.582c-2.937 0-5.327-2.539-5.327-5.66v-18.032c0-0.369 0.298-0.667 0.667-0.667s0.667 0.298 0.667 0.667v18.032c0 2.385 1.792 4.327 3.993 4.327s3.993-1.941 3.993-4.327v-11.779c0-0.369 0.298-0.667 0.667-0.667s0.667 0.298 0.667 0.667v11.779c0 3.121-2.389 5.66-5.327 5.66z"></path>
<path d="M24.645 28.842c-0.369 0-0.667-0.298-0.667-0.667v-18.033c0-2.386-1.792-4.327-3.993-4.327s-3.993 1.941-3.993 4.327v11.779c0 0.369-0.298 0.667-0.667 0.667s-0.667-0.298-0.667-0.667v-11.779c0-3.121 2.389-5.66 5.327-5.66s5.327 2.539 5.327 5.66v18.033c0 0.369-0.298 0.667-0.667 0.667z"></path>
</svg>
