<svg version="1.1" xmlns="http://www.w3.org/2000/svg" width="32" height="32" viewBox="0 0 32 32">
<title>arrow_up_left1</title>
<path d="M25.456 23.894l-15.472-15.472h11.719c0.587 0 1.066-0.478 1.066-1.066s-0.478-1.066-1.066-1.066h-14.269c-0.281-0.006-0.563 0.097-0.775 0.313-0.216 0.216-0.316 0.497-0.313 0.775l0.003 14.269c0 0.297 0.119 0.563 0.313 0.753v0c0.194 0.194 0.456 0.313 0.753 0.313 0.588 0 1.066-0.478 1.066-1.066v-11.719l15.472 15.472c0.416 0.416 1.091 0.419 1.506 0 0.416-0.416 0.413-1.091-0.003-1.506v0z"></path>
</svg>
