<svg version="1.1" xmlns="http://www.w3.org/2000/svg" width="32" height="32" viewBox="0 0 32 32">
<title>arrow_sort</title>
<path d="M6.529 14.461c-0.399-0.459-0.775-0.891-1.169-1.344 3.489-3.671 7.040-7.407 10.611-11.163 3.568 3.735 7.116 7.449 10.668 11.167-0.44 0.408-0.871 0.809-1.312 1.219-3.064-3.208-6.196-6.488-9.356-9.796-3.132 3.292-6.257 6.573-9.441 9.917z"></path>
<path d="M25.471 17.539c0.399 0.459 0.775 0.891 1.169 1.344-3.489 3.671-7.040 7.407-10.611 11.163-3.568-3.735-7.116-7.449-10.668-11.167 0.44-0.408 0.871-0.809 1.312-1.219 3.064 3.208 6.196 6.488 9.356 9.796 3.132-3.292 6.257-6.573 9.441-9.917z"></path>
</svg>
