<svg version="1.0" xmlns="http://www.w3.org/2000/svg" width="32" height="32" viewBox="0 0 32 32">
    <title>arrow_right_square</title>
    <path d="M22.83,27c2.3,0,4.17-1.87,4.17-4.17v-13.66c0-2.3-1.87-4.17-4.17-4.17h-13.66c-2.3,0-4.17,1.87-4.17,4.17v13.66c0,2.3,1.87,4.17,4.17,4.17h13.66ZM9.17,24.72c-1.05,0-1.9-.85-1.9-1.9v-5.69h10.15l-2.61,2.61c-.41.42-.43,1.13-.04,1.57.2.22.48.34.79.35.35,0,.68-.13.92-.36l3.2-3.2c.56-.56.87-1.3.87-2.1s-.31-1.54-.87-2.1l-3.2-3.2c-.46-.46-1.18-.5-1.62-.1-.24.21-.37.5-.38.82,0,.31.11.61.33.83l2.61,2.61H7.28v-5.69c0-1.05.85-1.9,1.9-1.9h13.66c1.05,0,1.9.85,1.9,1.9v13.66c0,1.05-.85,1.9-1.9,1.9h-13.66Z"/>
</svg>