<svg version="1.1" xmlns="http://www.w3.org/2000/svg" width="32" height="32" viewBox="0 0 32 32">
<title>arrow_up_right1</title>
<path d="M8.166 25.4l15.472-15.472v11.719c0 0.587 0.478 1.066 1.066 1.066s1.066-0.478 1.066-1.066v-14.269c0.006-0.281-0.097-0.563-0.313-0.775-0.216-0.216-0.497-0.316-0.775-0.313l-14.269 0.003c-0.297 0-0.563 0.119-0.753 0.313v0c-0.194 0.194-0.313 0.456-0.313 0.753 0 0.588 0.478 1.066 1.066 1.066h11.719l-15.472 15.469c-0.416 0.416-0.419 1.091 0 1.506 0.416 0.416 1.091 0.416 1.506 0v0z"></path>
</svg>
