<svg version="1.1" xmlns="http://www.w3.org/2000/svg" width="32" height="32" viewBox="0 0 32 32">
<title>arrows_play_shuffle</title>
<path d="M26.353 11.533c-0.171 0-0.341-0.065-0.471-0.195-0.26-0.26-0.26-0.682 0-0.943l3.119-3.118-3.119-3.118c-0.26-0.26-0.26-0.682 0-0.943s0.682-0.26 0.943 0l3.59 3.589c0.125 0.125 0.195 0.294 0.195 0.471s-0.070 0.346-0.195 0.471l-3.59 3.589c-0.13 0.13-0.301 0.195-0.471 0.195z"></path>
<path d="M8.164 24.001h-6.13c-0.369 0-0.667-0.298-0.667-0.667s0.298-0.667 0.667-0.667h6.13c3.794 0 6.881-3.087 6.881-6.881v-0.467c0-4.639 3.838-8.709 8.214-8.709h6.684c0.369 0 0.667 0.298 0.667 0.667s-0.298 0.667-0.667 0.667h-6.684c-3.665 0-6.881 3.447-6.881 7.376v0.467c0 4.529-3.684 8.214-8.213 8.214z"></path>
<path d="M26.353 27.59c-0.171 0-0.341-0.065-0.471-0.195-0.26-0.26-0.26-0.682 0-0.943l3.119-3.117-3.119-3.119c-0.26-0.26-0.26-0.682 0-0.943s0.682-0.26 0.943 0l3.59 3.59c0.125 0.125 0.195 0.294 0.195 0.471s-0.070 0.346-0.195 0.471l-3.59 3.589c-0.13 0.13-0.301 0.195-0.471 0.195z"></path>
<path d="M29.943 24.001h-6.684c-1.986 0-3.906-0.725-5.406-2.040-0.276-0.243-0.303-0.664-0.061-0.941 0.242-0.276 0.663-0.303 0.941-0.061 1.257 1.103 2.863 1.71 4.526 1.71h6.684c0.369 0 0.667 0.298 0.667 0.667s-0.298 0.667-0.667 0.667z"></path>
<path d="M13.131 9.818c-0.156 0-0.313-0.055-0.439-0.165-1.257-1.102-2.865-1.709-4.527-1.709h-6.13c-0.369 0-0.667-0.298-0.667-0.667s0.298-0.667 0.667-0.667h6.13c1.986 0 3.906 0.725 5.406 2.040 0.277 0.243 0.305 0.664 0.062 0.941-0.131 0.15-0.316 0.227-0.501 0.227z"></path>
</svg>
