<svg version="1.0" xmlns="http://www.w3.org/2000/svg" width="32" height="32" viewBox="0 0 32 32">
  <title>arrow_top_square</title>
    <desc>arrow,collapse,control,direction,expand,navigation,square,top,up</desc>
    <path d="M28,8.55c0-2.51-2.04-4.55-4.55-4.55h-14.9c-2.51,0-4.55,2.04-4.55,4.55v14.9c0,2.51,2.04,4.55,4.55,4.55h14.9c2.51,0,4.55-2.04,4.55-4.55v-14.9ZM25.51,23.45c0,1.15-.93,2.07-2.07,2.07h-6.21v-11.07l2.85,2.85c.46.45,1.23.47,1.71.04.24-.22.37-.52.38-.86,0-.38-.14-.74-.39-1l-3.49-3.49c-.61-.61-1.42-.95-2.29-.95s-1.68.34-2.29.95l-3.49,3.49c-.5.5-.55,1.29-.11,1.77.23.26.55.4.89.41.34,0,.67-.12.91-.36l2.85-2.85v11.07h-6.21c-1.15,0-2.07-.93-2.07-2.07v-14.9c0-1.15.93-2.07,2.07-2.07h14.9c1.15,0,2.07.93,2.07,2.07v14.9h-.01Z"/>
</svg>