<svg version="1.1" xmlns="http://www.w3.org/2000/svg" width="32" height="32" viewBox="0 0 32 32">
<title>arrow_back_left</title>
<path d="M16.035 31.846c-8.736 0-15.844-7.107-15.844-15.842s7.107-15.844 15.844-15.844c8.736 0 15.842 7.107 15.842 15.844s-7.107 15.842-15.842 15.842zM16.035 1.493c-8.001 0-14.51 6.509-14.51 14.51 0 8 6.509 14.509 14.51 14.509 8 0 14.509-6.509 14.509-14.509 0-8.001-6.509-14.51-14.509-14.51z"></path>
<path d="M18.267 23.367v0c-0.384 0-0.75-0.128-1.057-0.367l-7.208-5.626c-0.423-0.331-0.665-0.827-0.664-1.362s0.242-1.031 0.664-1.361l7.208-5.627c0.307-0.241 0.673-0.368 1.057-0.368 0.954 0 1.731 0.775 1.731 1.728l0.001 11.254c0 0.481-0.19 0.926-0.535 1.251-0.322 0.303-0.758 0.478-1.197 0.478zM18.267 9.99c-0.085 0-0.164 0.029-0.237 0.085l-7.208 5.628c-0.131 0.103-0.151 0.238-0.151 0.309s0.019 0.207 0.151 0.31l7.208 5.626c0.073 0.057 0.152 0.086 0.237 0.086v0c0.102 0 0.204-0.042 0.28-0.113 0.078-0.074 0.119-0.169 0.119-0.283l-0.001-11.254c-0-0.272-0.232-0.395-0.397-0.395z"></path>
</svg>
