<svg version="1.1" xmlns="http://www.w3.org/2000/svg" width="32" height="32" viewBox="0 0 32 32">
<title>arrow_rotate_right_clockwise</title>
<path d="M28.103 16.797c-0.147 0-0.294-0.048-0.417-0.147l-3.283-2.634c-0.288-0.231-0.333-0.65-0.103-0.937s0.652-0.331 0.936-0.103l2.763 2.218 2.219-2.763c0.232-0.286 0.65-0.331 0.937-0.103 0.286 0.231 0.332 0.65 0.102 0.937l-2.635 3.283c-0.131 0.164-0.324 0.249-0.52 0.249z"></path>
<path d="M16.051 28.764c-7.024 0-12.739-5.715-12.739-12.738 0-7.025 5.715-12.74 12.739-12.74 7.013 0 12.719 5.762 12.719 12.844 0 0.369-0.298 0.667-0.667 0.667s-0.667-0.298-0.667-0.667c0-6.347-5.108-11.51-11.385-11.51-6.289 0-11.406 5.117-11.406 11.406s5.117 11.405 11.406 11.405c0.369 0 0.667 0.298 0.667 0.667s-0.298 0.667-0.667 0.667z"></path>
<path d="M18.229 18.87c-0.171 0-0.341-0.065-0.471-0.195l-4.357-4.356c-0.26-0.26-0.26-0.682 0-0.943s0.682-0.26 0.943 0l4.357 4.356c0.26 0.26 0.26 0.682 0 0.943-0.13 0.13-0.301 0.195-0.471 0.195z"></path>
<path d="M13.872 18.87c-0.171 0-0.341-0.065-0.471-0.195-0.26-0.26-0.26-0.682 0-0.943l4.357-4.356c0.26-0.26 0.682-0.26 0.943 0s0.26 0.682 0 0.943l-4.357 4.356c-0.13 0.13-0.301 0.195-0.471 0.195z"></path>
</svg>
