<svg version="1.1" xmlns="http://www.w3.org/2000/svg" width="32" height="32" viewBox="0 0 32 32">
<title>arrows_divide_split</title>
<path d="M24.499 12.060c-0.171 0-0.341-0.065-0.471-0.195-0.26-0.26-0.26-0.682 0-0.943l3.616-3.616-3.616-3.616c-0.26-0.26-0.26-0.682 0-0.943s0.682-0.26 0.943 0l4.087 4.087c0.26 0.26 0.26 0.682 0 0.943l-4.087 4.087c-0.13 0.13-0.301 0.195-0.471 0.195z"></path>
<path d="M24.499 28.103c-0.171 0-0.341-0.065-0.471-0.195-0.26-0.26-0.26-0.682 0-0.943l3.616-3.616-3.616-3.616c-0.26-0.26-0.26-0.682 0-0.943s0.682-0.26 0.943 0l4.087 4.087c0.26 0.26 0.26 0.682 0 0.943l-4.087 4.087c-0.13 0.13-0.301 0.195-0.471 0.195z"></path>
<path d="M28.586 24.016h-8.171c-0.119 0-2.928-0.019-4.603-1.714-0.814-0.824-1.22-1.888-1.206-3.161 0.008-0.647-0.206-1.181-0.652-1.631-1.228-1.243-3.93-1.515-4.868-1.515h-7.005c-0.369 0-0.667-0.298-0.667-0.667s0.298-0.667 0.667-0.667h7.005c0.16 0 3.949 0.021 5.816 1.911 0.699 0.707 1.048 1.577 1.036 2.585-0.010 0.917 0.258 1.639 0.82 2.208 1.288 1.302 3.631 1.318 3.655 1.318h8.171c0.369 0 0.667 0.298 0.667 0.667s-0.298 0.667-0.666 0.667z"></path>
<path d="M9.087 15.994h-7.005c-0.369 0-0.667-0.298-0.667-0.667s0.298-0.667 0.667-0.667h7.005c0.033 0 3.397-0.023 4.87-1.517 0.445-0.451 0.658-0.983 0.65-1.629-0.014-1.274 0.391-2.338 1.206-3.162 1.674-1.694 4.484-1.714 4.602-1.714h8.171c0.369 0 0.667 0.298 0.667 0.667s-0.298 0.667-0.667 0.667h-8.171c-0.022 0-2.38 0.023-3.658 1.322-0.561 0.569-0.828 1.29-0.818 2.205 0.012 1.007-0.337 1.876-1.036 2.583-1.867 1.889-5.657 1.912-5.817 1.912z"></path>
</svg>
