<!-- Generated by IcoMoon.io -->
<svg version="1.1" xmlns="http://www.w3.org/2000/svg" width="32" height="32" viewBox="0 0 32 32">
<title>arrows_play_shuffle</title>
<path fill="none" stroke-linejoin="round" stroke-linecap="round" stroke-miterlimit="4" stroke-width="2" stroke="#000" d="M25 19l3 3-3 3M25 7l3 3-3 3M4 22h5.324c1.728-0 3.251-0.876 4.149-2.208l0.011-0.018 2.516-3.774"></path>
<path fill="none" stroke-linejoin="round" stroke-linecap="round" stroke-miterlimit="4" stroke-width="2" stroke="#000" d="M4 10h5.324c1.728 0 3.251 0.876 4.149 2.208l0.011 0.018 5.031 7.547c0.909 1.35 2.432 2.226 4.16 2.226h3.324M26 10h-3.324c-1.728 0-3.251 0.876-4.149 2.208l-0.011 0.018-0.516 0.774"></path>
</svg>
