<svg version="1.1" xmlns="http://www.w3.org/2000/svg" width="32" height="32" viewBox="0 0 32 32">
<title>arrow_rotate_left_counter_clockwise</title>
<path d="M3.94 16.797c-0.195 0-0.389-0.085-0.521-0.25l-2.635-3.282c-0.231-0.287-0.184-0.707 0.103-0.937s0.706-0.184 0.937 0.103l2.217 2.763 2.763-2.218c0.289-0.229 0.707-0.183 0.937 0.103 0.231 0.287 0.184 0.707-0.103 0.938l-3.283 2.634c-0.123 0.099-0.271 0.147-0.417 0.147z"></path>
<path d="M15.992 28.764c-0.369 0-0.667-0.298-0.667-0.667s0.298-0.667 0.667-0.667c6.289 0 11.405-5.116 11.405-11.405s-5.116-11.406-11.405-11.406c-6.278 0-11.386 5.163-11.386 11.51 0 0.369-0.298 0.667-0.667 0.667s-0.667-0.298-0.667-0.667c0-7.082 5.706-12.844 12.719-12.844 7.023 0 12.738 5.715 12.738 12.74 0 7.023-5.715 12.738-12.738 12.738z"></path>
<path d="M13.814 18.87c-0.171 0-0.341-0.065-0.471-0.195-0.26-0.26-0.26-0.682 0-0.943l4.357-4.356c0.26-0.26 0.682-0.26 0.943 0s0.26 0.682 0 0.943l-4.357 4.356c-0.13 0.13-0.301 0.195-0.471 0.195z"></path>
<path d="M18.171 18.87c-0.171 0-0.341-0.065-0.471-0.195l-4.357-4.356c-0.26-0.26-0.26-0.682 0-0.943s0.682-0.26 0.943 0l4.357 4.356c0.26 0.26 0.26 0.682 0 0.943-0.13 0.13-0.301 0.195-0.471 0.195z"></path>
</svg>
