<!-- Generated by IcoMoon.io -->
<svg version="1.1" xmlns="http://www.w3.org/2000/svg" width="32" height="32" viewBox="0 0 32 32">
<title>arrow_back_undo</title>
<path d="M16 10.5v-5c0-0.4-0.2-0.8-0.6-0.9-0.4-0.2-0.8-0.1-1.1 0.2l-11 10.5c-0.2 0.2-0.3 0.4-0.3 0.7s0.1 0.5 0.3 0.7l11 10.5c0.3 0.3 0.7 0.4 1.1 0.2s0.6-0.5 0.6-0.9v-5c6 0.2 8.3 1.9 11.2 5.6 0.2 0.2 0.5 0.4 0.8 0.4 0.1 0 0.2 0 0.3-0.1 0.4-0.1 0.7-0.5 0.7-0.9 0-10.1-4.5-15.6-13-16zM15 19.5c-0.6 0-1 0.4-1 1v3.7l-8.6-8.2 8.6-8.2v3.7c0 0.6 0.4 1 1 1 7.2 0 11.1 3.7 11.9 11.2-2.8-2.8-5.9-4.2-11.9-4.2z"></path>
</svg>
