<svg version="1.0" xmlns="http://www.w3.org/2000/svg" width="32" height="32" viewBox="0 0 32 32">
    <title>arrow_left_square</title>
    <path d="M22.83,27c2.3,0,4.17-1.87,4.17-4.17v-13.66c0-2.3-1.87-4.17-4.17-4.17h-13.66c-2.3,0-4.17,1.87-4.17,4.17v13.66c0,2.3,1.87,4.17,4.17,4.17h13.66ZM9.17,24.72c-1.05,0-1.9-.85-1.9-1.9v-13.66c0-1.05.85-1.9,1.9-1.9h13.66c1.05,0,1.9.85,1.9,1.9v5.69h-10.15s2.61-2.61,2.61-2.61c.22-.22.33-.52.33-.83-.01-.31-.14-.6-.38-.82-.44-.4-1.17-.35-1.62.1l-3.2,3.2c-.56.56-.87,1.3-.87,2.1s.31,1.54.87,2.1l3.2,3.2c.24.24.57.37.92.36.31,0,.59-.13.79-.35.39-.43.38-1.15-.04-1.57l-2.61-2.61h10.15v5.69c0,1.05-.85,1.9-1.9,1.9h-13.66Z"/>
</svg>