<svg version="1.1" xmlns="http://www.w3.org/2000/svg" width="32" height="32" viewBox="0 0 32 32">
    <title>arrow_bottom_square</title>
    <path d="M27,9.17c0-2.3-1.87-4.17-4.17-4.17h-13.66c-2.3,0-4.17,1.87-4.17,4.17v13.66c0,2.3,1.87,4.17,4.17,4.17h13.66c2.3,0,4.17-1.87,4.17-4.17v-13.66ZM24.72,22.83c0,1.05-.85,1.9-1.9,1.9h-13.66c-1.05,0-1.9-.85-1.9-1.9v-13.66c0-1.05.85-1.9,1.9-1.9h5.69v10.15l-2.61-2.61c-.22-.22-.52-.33-.83-.33-.31.01-.6.14-.82.38-.4.44-.35,1.17.1,1.62l3.2,3.2c.56.56,1.3.87,2.1.87s1.54-.31,2.1-.87l3.2-3.2c.24-.24.37-.57.36-.92,0-.31-.13-.59-.35-.79-.43-.39-1.15-.38-1.57.04l-2.61,2.61V7.28h5.69c1.05,0,1.9.85,1.9,1.9v13.66Z"/>
</svg>