<svg version="1.1" xmlns="http://www.w3.org/2000/svg" width="32" height="32" viewBox="0 0 32 32">
<title>arrow_down_left1</title>
<path d="M23.95 6.603l-15.472 15.472v-11.719c0-0.588-0.478-1.066-1.066-1.066s-1.066 0.478-1.066 1.066v14.269c-0.006 0.281 0.097 0.563 0.313 0.775 0.216 0.216 0.497 0.316 0.775 0.313l14.269-0.003c0.297 0 0.563-0.119 0.753-0.313v0c0.194-0.194 0.313-0.456 0.313-0.753 0-0.587-0.478-1.066-1.066-1.066h-11.719l15.472-15.472c0.416-0.416 0.419-1.091 0-1.506-0.416-0.416-1.091-0.412-1.506 0.003v0z"></path>
</svg>
