<svg version="1.1" xmlns="http://www.w3.org/2000/svg" width="32" height="32" viewBox="0 0 32 32">
<title>arrow_back_undo</title>
<path d="M15.988 31.572c-8.572 0-15.546-6.974-15.546-15.546s6.974-15.546 15.546-15.546 15.546 6.974 15.546 15.546c0 8.572-6.974 15.546-15.546 15.546zM15.988 1.813c-7.837 0-14.212 6.376-14.212 14.213s6.376 14.212 14.212 14.212c7.837 0 14.212-6.375 14.212-14.212s-6.375-14.213-14.212-14.213zM18.846 26.578c-0.522 0-0.969-0.366-1.086-0.891-0.117-0.521 0.13-1.026 0.616-1.257 1.913-0.901 3.009-2.141 3.009-3.401 0-2.065-3.030-3.849-7.157-4.284l0.001 1.723c0.001 1.307-1.512 1.777-2.324 1.185l-6.124-5.368c-0.331-0.238-0.556-0.682-0.555-1.148 0-0.473 0.22-0.904 0.602-1.182l6.029-5.292c1.103-0.813 2.372 0.032 2.371 1.147l0.001 1.773c7.298 0.909 12.452 4.652 12.452 9.042 0 3.267-2.783 6.214-7.443 7.883-0.133 0.047-0.263 0.069-0.392 0.069zM13.562 15.353c0.014 0 0.029 0.001 0.044 0.001 5.366 0.353 9.113 2.687 9.113 5.676 0 1.156-0.568 2.262-1.611 3.206 2.682-1.467 4.24-3.474 4.24-5.609 0-3.813-4.935-7.082-11.744-7.785-0.015 0.001-0.029 0.001-0.041 0.001-0.368 0-0.667-0.298-0.667-0.667l-0.001-2.365c0-0.082-0.079-0.135-0.133-0.135l-6.203 5.464c0.016 0.011 0.086 0.131 0.101 0.144l6.077 5.33c0.159-0.021 0.159-0.113 0.159-0.145l-0.001-2.449c0-0.184 0.076-0.361 0.211-0.486 0.124-0.117 0.287-0.181 0.456-0.181z"></path>
</svg>
