<!-- Generated by IcoMoon.io -->
<svg version="1.1" xmlns="http://www.w3.org/2000/svg" width="32" height="32" viewBox="0 0 32 32">
<title>arrows_divide_split</title>
<path d="M24.293 6.293c0.391-0.391 1.024-0.391 1.414 0l3 3c0.39 0.391 0.39 1.024 0 1.414l-3 3c-0.391 0.39-1.024 0.39-1.414 0s-0.39-1.024 0-1.414l1.293-1.293h-2.91c-0.658 0-1.307 0.163-1.887 0.473s-1.075 0.76-1.441 1.308v0l-2.146 3.219 2.146 3.219c0.365 0.548 0.86 0.997 1.441 1.308s1.229 0.473 1.887 0.473v0h2.91l-1.293-1.293c-0.39-0.391-0.39-1.024 0-1.414s1.024-0.39 1.414 0l3 3c0.39 0.391 0.39 1.024 0 1.414l-3 3c-0.391 0.39-1.024 0.39-1.414 0s-0.39-1.024 0-1.414l1.293-1.293h-2.91c-0.988 0-1.96-0.244-2.831-0.71s-1.613-1.14-2.161-1.962v0l-2.219-3.328h-11.465c-0.552 0-1-0.448-1-1s0.448-1 1-1h11.465l2.219-3.329c0.548-0.822 1.29-1.496 2.161-1.962s1.843-0.71 2.831-0.71v0h2.91l-1.293-1.293c-0.39-0.391-0.39-1.024 0-1.414z"></path>
</svg>
