<!-- Generated by IcoMoon.io -->
<svg version="1.1" xmlns="http://www.w3.org/2000/svg" width="32" height="32" viewBox="0 0 32 32">
<title>arrows_play_repeat</title>
<path d="M20.6 11.5l-1.3 1.3c-0.4 0.4-0.4 1 0 1.4 0.2 0.2 0.5 0.3 0.7 0.3s0.5-0.1 0.7-0.3l3-3c0.4-0.4 0.4-1 0-1.4l-3-3c-0.4-0.4-1-0.4-1.4 0s-0.4 1 0 1.4l1.3 1.3h-11.6c-3.3 0-6 2.7-6 6v1c0 0.6 0.4 1 1 1s1-0.4 1-1v-1c0-2.2 1.8-4 4-4h11.6z"></path>
<path d="M28 14.5c-0.6 0-1 0.4-1 1v1c0 2.2-1.8 4-4 4h-11.6l1.3-1.3c0.4-0.4 0.4-1 0-1.4s-1-0.4-1.4 0l-3 3c-0.4 0.4-0.4 1 0 1.4l3 3c0.2 0.2 0.5 0.3 0.7 0.3s0.5-0.1 0.7-0.3c0.4-0.4 0.4-1 0-1.4l-1.3-1.3h11.6c3.3 0 6-2.7 6-6v-1c0-0.6-0.4-1-1-1z"></path>
</svg>
