<!-- Generated by IcoMoon.io -->
<svg version="1.1" xmlns="http://www.w3.org/2000/svg" width="32" height="32" viewBox="0 0 32 32">
<title>arrow_left_fat</title>
<path d="M9.588 16c0-0.002-0-0.005-0-0.008 0-0.392 0.158-0.747 0.413-1.005l-0 0 9.966-9.959c0.26-0.258 0.617-0.417 1.012-0.417s0.753 0.159 1.013 0.417l-0-0c0.259 0.259 0.419 0.617 0.419 1.013s-0.16 0.753-0.419 1.013l-8.95 8.947 8.953 8.95c0.259 0.256 0.419 0.611 0.419 1.003 0 0.003 0 0.007-0 0.010v-0.001c0 0 0 0.001 0 0.001 0 0.79-0.641 1.431-1.431 1.431-0.395 0-0.753-0.16-1.012-0.42v0l-9.966-9.964c-0.257-0.257-0.416-0.612-0.416-1.004 0-0.003 0-0.005 0-0.008v0z"></path>
</svg>
