<svg version="1.1" xmlns="http://www.w3.org/2000/svg" width="32" height="32" viewBox="0 0 32 32">
  <title>arrow_bottom_square</title>
  <desc>arrow,bottom,collapse,control,direction,down,expand,navigation,square</desc>
  <path d="M28,8.55c0-2.51-2.04-4.55-4.55-4.55h-14.9c-2.51,0-4.55,2.04-4.55,4.55v14.9c0,2.51,2.04,4.55,4.55,4.55h14.9c2.51,0,4.55-2.04,4.55-4.55v-14.9ZM25.52,8.55v14.9c0,1.15-.93,2.07-2.07,2.07h-14.9c-1.15,0-2.07-.93-2.07-2.07v-14.9c0-1.15.93-2.07,2.07-2.07h6.21v11.07l-2.85-2.85c-.24-.24-.57-.36-.91-.36-.35.01-.67.15-.89.41-.44.48-.39,1.27.11,1.77l3.49,3.49c.61.61,1.42.95,2.29.95s1.68-.34,2.29-.95l3.49-3.49c.25-.26.39-.62.39-1-.01-.34-.14-.64-.38-.86-.48-.43-1.25-.4-1.71.04l-2.85,2.85V6.48h6.21c1.15,0,2.07.93,2.07,2.07h.01Z"/>
</svg>