<svg version="1.1" xmlns="http://www.w3.org/2000/svg" width="32" height="32" viewBox="0 0 32 32">
<title>arrow_up1</title>
<path d="M17.122 28.228v-21.881l8.287 8.287c0.416 0.416 1.091 0.416 1.506 0s0.416-1.091 0-1.506l-10.091-10.091c-0.194-0.203-0.466-0.328-0.769-0.328s-0.575 0.128-0.769 0.328l-10.088 10.091c-0.209 0.209-0.313 0.481-0.313 0.753v0c0 0.272 0.103 0.544 0.313 0.753 0.416 0.416 1.091 0.416 1.506 0l8.287-8.287v21.881c0 0.587 0.475 1.066 1.066 1.066 0.587 0 1.063-0.478 1.063-1.066v0z"></path>
</svg>
