<!-- Generated by IcoMoon.io -->
<svg version="1.1" xmlns="http://www.w3.org/2000/svg" width="32" height="32" viewBox="0 0 32 32">
<title>atm_passcode_keypad_password_access</title>
<path d="M16.639 22.997c-0.369 0-0.667-0.298-0.667-0.667v-3.096c0-0.369 0.298-0.667 0.667-0.667s0.667 0.298 0.667 0.667v3.096c0 0.369-0.298 0.667-0.667 0.667z"></path>
<path d="M19.322 23.41c-0.369 0-0.667-0.298-0.667-0.667v-2.661c0-0.369 0.298-0.667 0.667-0.667s0.667 0.298 0.667 0.667v2.661c0 0.369-0.298 0.667-0.667 0.667z"></path>
<path d="M14.637 31.766c-0.211 0-0.418-0.099-0.547-0.285l-0.433-0.608c-2.547-3.551-4.851-7.087-4.462-8.896 0.094-0.44 0.339-0.785 0.705-0.997 0.502-0.289 1.044-0.331 1.57-0.125 0.717 0.283 1.331 1.023 1.822 1.852v-8.635c-0.001-1.916 2.285-2.365 3.358-1.461 0.423 0.356 0.656 0.874 0.656 1.461v3.335c0.699-0.223 1.499-0.074 2.026 0.369 0.186 0.158 0.336 0.346 0.445 0.559 0.74-0.323 1.656-0.199 2.236 0.289 0.423 0.355 0.656 0.875 0.656 1.461v1.754c0 0.369-0.298 0.667-0.667 0.667s-0.667-0.298-0.667-0.667v-1.754c0-0.194-0.059-0.337-0.181-0.44-0.121-0.102-0.299-0.16-0.491-0.16-0.113 0-0.676 0.029-0.676 0.6 0 0.369-0.298 0.667-0.667 0.667s-0.667-0.298-0.667-0.667v-0.848c0-0.194-0.059-0.337-0.181-0.44-0.121-0.102-0.301-0.16-0.492-0.16-0.113 0-0.676 0.029-0.676 0.6 0 0.369-0.298 0.667-0.667 0.667s-0.667-0.298-0.667-0.667v-5.164c0-0.194-0.059-0.338-0.181-0.44-0.12-0.102-0.3-0.16-0.492-0.16-0.113 0-0.675 0.029-0.675 0.6v11.872c0 0.331-0.242 0.611-0.568 0.659-0.325 0.052-0.64-0.148-0.736-0.465-0.448-1.473-1.47-3.699-2.34-4.042-0.146-0.059-0.264-0.046-0.411 0.038-0.021 0.012-0.050 0.029-0.071 0.124-0.211 0.983 1.216 3.62 4.243 7.839l0.443 0.622c0.21 0.302 0.137 0.717-0.165 0.928-0.117 0.081-0.25 0.12-0.381 0.12z"></path>
<path d="M23.262 31.766c-0.075 0-0.152-0.013-0.227-0.039-0.346-0.126-0.526-0.508-0.401-0.854 1.565-4.329 1.387-8.961 1.384-9.008 0-0.6-0.563-0.629-0.675-0.629s-0.673 0.029-0.673 0.6v1.367c0 0.369-0.298 0.667-0.667 0.667s-0.667-0.298-0.667-0.667v-1.367c0-2.539 4.014-2.539 4.014 0 0.008 0.171 0.19 4.915-1.462 9.49-0.099 0.271-0.354 0.44-0.627 0.44z"></path>
<path d="M8.814 4.398c-1.16 0-2.104-0.944-2.104-2.105s0.944-2.104 2.104-2.104c1.161 0 2.105 0.944 2.105 2.104s-0.944 2.105-2.105 2.105zM8.814 1.522c-0.425 0-0.771 0.346-0.771 0.771s0.346 0.771 0.771 0.771 0.771-0.346 0.771-0.771-0.346-0.771-0.771-0.771z"></path>
<path d="M15.208 4.398c-1.16 0-2.104-0.944-2.104-2.105s0.944-2.104 2.104-2.104c1.161 0 2.105 0.944 2.105 2.104s-0.944 2.105-2.105 2.105zM15.208 1.522c-0.425 0-0.771 0.346-0.771 0.771s0.346 0.771 0.771 0.771 0.771-0.346 0.771-0.771-0.346-0.771-0.771-0.771z"></path>
<path d="M21.6 4.398c-1.16 0-2.104-0.944-2.104-2.105s0.944-2.104 2.104-2.104c1.161 0 2.105 0.944 2.105 2.104s-0.944 2.105-2.105 2.105zM21.6 1.522c-0.425 0-0.771 0.346-0.771 0.771s0.346 0.771 0.771 0.771c0.426 0 0.772-0.346 0.772-0.771s-0.346-0.771-0.772-0.771z"></path>
<path d="M8.814 10.163c-1.16 0-2.104-0.944-2.104-2.104s0.944-2.105 2.104-2.105c1.161 0 2.105 0.944 2.105 2.105s-0.944 2.104-2.105 2.104zM8.814 7.287c-0.425 0-0.771 0.346-0.771 0.771s0.346 0.771 0.771 0.771 0.771-0.346 0.771-0.771-0.346-0.772-0.771-0.772z"></path>
<path d="M15.208 10.163c-1.16 0-2.104-0.944-2.104-2.104s0.944-2.105 2.104-2.105c1.161 0 2.105 0.944 2.105 2.105s-0.944 2.104-2.105 2.104zM15.208 7.287c-0.425 0-0.771 0.346-0.771 0.771s0.346 0.771 0.771 0.771 0.771-0.346 0.771-0.771-0.346-0.771-0.771-0.771z"></path>
<path d="M21.6 10.163c-1.16 0-2.104-0.944-2.104-2.104s0.944-2.105 2.104-2.105c1.161 0 2.105 0.944 2.105 2.105s-0.944 2.104-2.105 2.104zM21.6 7.287c-0.425 0-0.771 0.346-0.771 0.771s0.346 0.771 0.771 0.771c0.426 0 0.772-0.346 0.772-0.771s-0.346-0.771-0.772-0.771z"></path>
<path d="M8.814 15.928c-1.16 0-2.104-0.944-2.104-2.105s0.944-2.104 2.104-2.104c1.161 0 2.105 0.944 2.105 2.104s-0.944 2.105-2.105 2.105zM8.814 13.053c-0.425 0-0.771 0.346-0.771 0.771s0.346 0.771 0.771 0.771 0.771-0.346 0.771-0.771-0.346-0.771-0.771-0.771z"></path>
<path d="M21.6 15.928c-1.16 0-2.104-0.944-2.104-2.105s0.944-2.104 2.104-2.104c1.161 0 2.105 0.944 2.105 2.104s-0.944 2.105-2.105 2.105zM21.6 13.053c-0.425 0-0.771 0.346-0.771 0.771s0.346 0.771 0.771 0.771c0.426 0 0.772-0.346 0.772-0.771s-0.346-0.771-0.772-0.771z"></path>
</svg>
