<svg version="1.1" xmlns="http://www.w3.org/2000/svg" width="32" height="32" viewBox="0 0 32 32">
<title>atm_machine_withdrawal_credit_card</title>
<path d="M28.721 7.333c-0.369 0-0.667-0.298-0.667-0.667v-2.667h-24v2.667c0 0.369-0.298 0.667-0.667 0.667s-0.667-0.298-0.667-0.667v-3.333c0-0.369 0.298-0.667 0.667-0.667h25.333c0.369 0 0.667 0.298 0.667 0.667v3.333c0 0.369-0.298 0.667-0.667 0.667z"></path>
<path d="M28.217 10.817c-0.34 0-0.63-0.259-0.663-0.605-0.034-0.367 0.236-0.691 0.603-0.726 1.486-0.137 2.564-1.374 2.564-2.941v-2.389c0-1.635-1.181-2.822-2.809-2.822h-23.729c-1.62 0-2.796 1.187-2.796 2.822v2.389c0 1.535 1.068 2.77 2.54 2.936 0.366 0.042 0.629 0.372 0.588 0.738s-0.369 0.624-0.738 0.588c-2.122-0.24-3.723-2.072-3.723-4.261v-2.389c0-2.369 1.775-4.156 4.129-4.156h23.729c2.361 0 4.142 1.786 4.142 4.156v2.389c0 2.234-1.622 4.070-3.775 4.269-0.021 0.002-0.042 0.003-0.062 0.003z"></path>
<path d="M9.799 29.332c-1.225 0-2.404-0.509-3.235-1.397-0.826-0.883-1.236-2.029-1.155-3.228l0.951-21.403c0.016-0.369 0.346-0.654 0.695-0.637 0.368 0.016 0.653 0.327 0.637 0.695l-0.952 21.42c-0.057 0.841 0.227 1.631 0.797 2.241 0.588 0.629 1.391 0.975 2.261 0.975 0.001 0 0.003 0 0.004 0l12.383-0.017c0.874-0.001 1.677-0.349 2.264-0.981 0.569-0.612 0.849-1.404 0.79-2.229l-1.029-21.407c-0.018-0.368 0.266-0.68 0.633-0.698 0.405-0.021 0.681 0.267 0.698 0.634l1.029 21.391c0.085 1.184-0.322 2.331-1.145 3.216-0.829 0.892-2.010 1.405-3.238 1.406l-12.385 0.017c-0.001 0-0.003 0-0.005 0z"></path>
<path d="M17.237 29.319c-0.369 0-0.667-0.298-0.667-0.667v-25.319c0-0.369 0.298-0.667 0.667-0.667s0.667 0.298 0.667 0.667v25.319c0 0.368-0.298 0.667-0.667 0.667z"></path>
<path d="M21.685 29.319c-0.361 0-0.658-0.288-0.667-0.65l-0.659-25.318c-0.009-0.369 0.281-0.675 0.65-0.684 0.408-0.002 0.675 0.283 0.684 0.649l0.659 25.32c0.009 0.367-0.281 0.673-0.65 0.684-0.005 0-0.012 0-0.017 0z"></path>
</svg>
