<svg version="1.1" xmlns="http://www.w3.org/2000/svg" width="32" height="32" viewBox="0 0 32 32">
<title>atom_nuclear_learning_physics</title>
<path d="M15.967 18.332c-1.276 0-2.314-1.039-2.314-2.315s1.038-2.314 2.314-2.314c1.277 0 2.314 1.038 2.314 2.314s-1.038 2.315-2.314 2.315zM15.967 15.036c-0.541 0-0.981 0.44-0.981 0.981s0.44 0.982 0.981 0.982 0.981-0.44 0.981-0.982c0-0.541-0.44-0.981-0.981-0.981z"></path>
<path d="M16.017 31.892c-4.198 0-7.486-6.973-7.486-15.875s3.288-15.876 7.486-15.876 7.487 6.973 7.487 15.876-3.289 15.875-7.487 15.875zM16.017 1.475c-3.335 0-6.153 6.659-6.153 14.542s2.818 14.542 6.153 14.542c3.336 0 6.154-6.659 6.154-14.542s-2.818-14.542-6.154-14.542z"></path>
<path d="M7.699 26.313c-2.662 0-4.54-0.815-5.43-2.358-1.050-1.819-0.523-4.35 1.484-7.128 1.897-2.626 4.923-5.216 8.521-7.294 4.197-2.423 8.593-3.812 12.061-3.812 2.663 0 4.54 0.815 5.43 2.358 1.051 1.818 0.525 4.35-1.483 7.128-1.897 2.626-4.923 5.216-8.521 7.293-4.196 2.423-8.593 3.813-12.061 3.813zM24.335 7.055c-3.241 0-7.395 1.324-11.395 3.633-3.438 1.985-6.317 4.443-8.107 6.92-1.656 2.293-2.17 4.363-1.409 5.68 0.63 1.091 2.148 1.691 4.275 1.691 3.242 0 7.395-1.324 11.395-3.633 3.439-1.986 6.318-4.443 8.107-6.921 1.656-2.292 2.171-4.363 1.41-5.68-0.63-1.091-2.148-1.691-4.276-1.691z"></path>
<path d="M24.335 26.313c-3.469 0-7.865-1.391-12.061-3.814-3.598-2.077-6.624-4.667-8.521-7.293-2.007-2.777-2.534-5.309-1.484-7.127 0.891-1.543 2.769-2.358 5.43-2.358 3.469 0 7.865 1.389 12.062 3.812 7.708 4.451 12.103 10.785 10.004 14.421-0.891 1.543-2.768 2.359-5.431 2.359zM7.7 7.054c-2.128 0-3.646 0.6-4.275 1.691-0.761 1.317-0.247 3.387 1.409 5.68 1.79 2.477 4.669 4.934 8.107 6.92 3.999 2.309 8.153 3.634 11.394 3.634 2.128 0 3.647-0.602 4.277-1.693 1.667-2.888-2.691-8.658-9.517-12.599-4-2.309-8.153-3.633-11.395-3.633z"></path>
</svg>
