<!-- Generated by IcoMoon.io -->
<svg version="1.1" xmlns="http://www.w3.org/2000/svg" width="32" height="32" viewBox="0 0 32 32">
<title>attachment</title>
<path d="M23 10c0-0.6-0.4-1-1-1s-1 0.4-1 1v11.1h1.9l-1.9 0.1c0 2.7-2.2 5-5 5s-5-2.2-5-5.1v-11.9c0-1.8 1.5-3.2 3.2-3.2s3.2 1.5 3.2 3.3v11.8c0 0.8-0.7 1.5-1.5 1.5s-1.5-0.7-1.5-1.5v-9c0-0.6-0.4-1-1-1s-1 0.4-1 1v9c0 1.9 1.6 3.4 3.5 3.4s3.5-1.5 3.5-3.5v-11.8c0-2.9-2.4-5.2-5.2-5.2-2.8-0.1-5.2 2.3-5.2 5.2v12c0 3.8 3.1 7 7 7s7-3.1 7-7v-11.2z"></path>
</svg>
