<svg version="1.1" xmlns="http://www.w3.org/2000/svg" width="32" height="32" viewBox="0 0 32 32">
<title>attachment</title>
<path d="M7.376 30.686c-1.829 0-3.547-0.725-4.838-2.043-2.658-2.711-2.658-7.122-0.001-9.833l13.886-14.17c0.259-0.26 0.681-0.268 0.943-0.009 0.263 0.258 0.268 0.68 0.010 0.943l-13.887 14.169c-2.153 2.198-2.153 5.772 0.001 7.969 1.038 1.059 2.419 1.642 3.885 1.642s2.846-0.583 3.885-1.642l17.702-18.065c1.552-1.583 1.552-4.158 0-5.742-1.492-1.524-4.095-1.525-5.59 0l-14.159 14.446c-0.95 0.971-0.95 2.549 0 3.519 0.456 0.465 1.061 0.721 1.704 0.721h0.001c0.643 0 1.248-0.257 1.704-0.721l10.342-10.555c0.259-0.26 0.681-0.268 0.943-0.009 0.263 0.258 0.268 0.68 0.010 0.943l-10.344 10.553c-0.709 0.724-1.652 1.122-2.656 1.122-0.001 0-0.001 0-0.001 0-1.005 0-1.947-0.398-2.656-1.122-1.454-1.483-1.454-3.898 0-5.384l14.158-14.447c1-1.020 2.331-1.582 3.747-1.583s2.747 0.562 3.749 1.583c2.056 2.098 2.055 5.511 0 7.609l-17.704 18.064c-1.29 1.318-3.008 2.043-4.836 2.043z"></path>
</svg>
