<svg version="1.1" xmlns="http://www.w3.org/2000/svg" width="32" height="32" viewBox="0 0 32 32">
<title>attention_error_alert_caution</title>
<path d="M28.010 30.617h-24.001c-1.423 0-2.701-0.736-3.419-1.967s-0.726-2.706-0.023-3.944l12-21.143c0.712-1.254 1.998-2.002 3.442-2.002s2.731 0.748 3.441 2.002l12.001 21.143c0.702 1.238 0.693 2.712-0.025 3.944s-1.995 1.967-3.418 1.967zM16.010 2.895c-0.958 0-1.811 0.495-2.282 1.326l-12.001 21.144c-0.466 0.82-0.46 1.797 0.016 2.615 0.476 0.816 1.323 1.305 2.266 1.305h24.001c0.943 0 1.79-0.488 2.266-1.305 0.477-0.818 0.483-1.796 0.018-2.615l-12.001-21.144c-0.471-0.831-1.325-1.326-2.283-1.326z"></path>
<path d="M16.010 20.65c-0.369 0-0.667-0.298-0.667-0.667v-9.575c0-0.369 0.298-0.667 0.667-0.667s0.667 0.298 0.667 0.667v9.575c0 0.369-0.298 0.667-0.667 0.667z"></path>
<path d="M16.010 25.161c-0.369 0-0.667-0.298-0.667-0.667v-0.332c0-0.369 0.298-0.667 0.667-0.667s0.667 0.298 0.667 0.667v0.332c0 0.369-0.298 0.667-0.667 0.667z"></path>
</svg>
