<!-- Generated by IcoMoon.io -->
<svg version="1.1" xmlns="http://www.w3.org/2000/svg" width="32" height="32" viewBox="0 0 32 32">
<title>attention_error_alert_caution</title>
<path d="M29.3 24.5c0-0.1 0-0.1 0 0l-10.7-19.8c-0.5-1-1.5-1.6-2.6-1.6 0 0 0 0 0 0-1.1 0-2.1 0.6-2.6 1.6l-10.7 19.8c-0.2 0.4-0.4 0.9-0.4 1.4 0 1.7 1.3 3 3 3 0 0 0 0 0 0h21.3c1.7 0 3-1.3 3-3 0.1-0.5-0.1-1-0.3-1.4zM26.7 26.9h-21.4c-0.6 0-1-0.4-1-1 0-0.2 0-0.3 0.1-0.5l10.7-19.8c0.3-0.5 0.7-0.5 0.9-0.5s0.6 0.1 0.9 0.5l10.7 19.8c0 0 0 0 0 0 0.1 0.1 0.1 0.3 0.1 0.5 0 0.5-0.5 1-1 1z"></path>
<path d="M16 10.8c-0.7 0-1.3 0.6-1.3 1.4 0 0 0 0 0 0.1l0.4 7.6c0 0.5 0.5 1 1 1s1-0.4 1-1l0.4-7.7c-0.1-0.8-0.8-1.4-1.5-1.4z"></path>
<path d="M17.2 23.6c0 0.663-0.537 1.2-1.2 1.2s-1.2-0.537-1.2-1.2c0-0.663 0.537-1.2 1.2-1.2s1.2 0.537 1.2 1.2z"></path>
</svg>
