<!-- Generated by IcoMoon.io -->
<svg version="1.1" xmlns="http://www.w3.org/2000/svg" width="33" height="32" viewBox="0 0 33 32">
<title>attention_error_alert_caution_filled</title>
<path d="M31.963 24.769l-12.214-21.517c-0.723-1.276-2.033-2.037-3.502-2.037s-2.779 0.762-3.503 2.037l-12.213 21.517c-0.333 0.57-0.53 1.256-0.53 1.987 0 0.748 0.206 1.447 0.564 2.045l-0.010-0.018c0.73 1.254 2.031 2.002 3.479 2.002h24.426c1.448 0 2.748-0.749 3.478-2.002 0.348-0.58 0.554-1.28 0.554-2.029 0-0.731-0.197-1.416-0.54-2.004l0.010 0.019zM17.466 25.073c0 0.006 0 0.013 0 0.020 0 0.673-0.546 1.219-1.219 1.219s-1.219-0.546-1.219-1.219c0-0.007 0-0.014 0-0.021v0.001-0.338c0.011-0.665 0.553-1.2 1.219-1.2s1.208 0.535 1.219 1.199v0.001zM17.466 19.401c0 0.006 0 0.013 0 0.020 0 0.673-0.546 1.219-1.219 1.219s-1.219-0.546-1.219-1.219c0-0.007 0-0.014 0-0.021v0.001-9.745c0.011-0.665 0.553-1.2 1.219-1.2s1.208 0.535 1.219 1.199v0.001z"></path>
</svg>
