<svg version="1.1" xmlns="http://www.w3.org/2000/svg" width="1024" height="1024" viewBox="0 0 1024 1024">
<title>automations</title>
<desc>automations, arrow, auto, check, ok, circle, circular, reload, refresh, update</desc>
<path d="M211.6 710.4c16-9.6 35.2-6.4 44.8 6.4 64 76.8 156.8 121.6 256 121.6 179.2 0 326.4-147.2 326.4-326.4v-12.8l-35.2 35.2c-6.4 6.4-16 9.6-22.4 9.6-9.6 0-19.2-3.2-22.4-9.6-12.8-12.8-12.8-32 0-44.8l92.8-89.6c12.8-12.8 32-12.8 44.8 0l86.4 89.6c12.8 12.8 12.8 32 0 44.8s-32 12.8-44.8 0l-35.2-35.2v12.8c0 214.4-176 390.4-390.4 390.4-118.4 0-230.4-54.4-307.2-147.2-9.6-16-6.4-35.2 6.4-44.8v0zM42 489.6c-12.8 12.8-12.8 32-3.2 41.6l89.6 89.6c6.4 6.4 12.8 9.6 22.4 9.6s16-3.2 22.4-9.6l92.8-89.6c12.8-12.8 12.8-32 0-44.8s-32-12.8-44.8 0l-35.2 35.2v-9.6c0-179.2 147.2-326.4 326.4-326.4 102.4 0 195.2 44.8 256 121.6 9.6 16 32 16 41.6 6.4 16-12.8 16-32 6.4-44.8-73.6-92.8-185.6-147.2-304-147.2-214.4 0-390.4 176-390.4 390.4v12.8l-35.2-35.2c-12.8-12.8-32-12.8-44.8 0v0z"></path>
<path d="M692.2 351.1l-0.9-0.9-1.1-0.7c-13-7.8-26.9-10.1-38.2-6.3-8 2.7-14.2 8.2-17.8 16.1l-183.3 216.9-59.4-65.1c-17.9-17.9-43.6-19.3-59.6-3.2-17.8 17.8-19.3 43.4-3.4 59.5l91.8 101.3c6.1 10.2 19.9 13.9 31 13.9 13.3 0 27.2-13.2 29.8-15.9l0.3-0.3 214.4-256c15.7-16.2 14.2-41.6-3.6-59.3z"></path>
</svg>
