<!-- Generated by IcoMoon.io -->
<svg version="1.1" xmlns="http://www.w3.org/2000/svg" width="32" height="32" viewBox="0 0 32 32">
<title>auto_layers</title>
<path d="M14.267 17.2c-0.133 0-0.267 0-0.267-0.133l-13.6-7.867c-0.267-0.133-0.4-0.4-0.4-0.533 0-0.267 0.133-0.4 0.4-0.533l13.733-7.333c0.133-0.133 0.4-0.133 0.667 0l13.733 7.333c0.267 0.133 0.4 0.267 0.4 0.533s-0.133 0.4-0.267 0.533l-13.733 8c-0.4 0-0.533 0-0.667 0zM2 8.667l12.4 7.2 12.267-7.2-12.4-6.667-12.267 6.667z"></path>
<path d="M14.267 23.467c-0.133 0-0.267 0-0.267-0.133l-13.6-7.867c-0.267-0.133-0.4-0.267-0.4-0.4 0-0.267 0.133-0.4 0.267-0.533l3.467-2c0.267-0.133 0.667-0.133 0.933 0.267 0.133 0.267 0.133 0.667-0.267 0.933l-2.4 1.467 12.533 7.2 12.533-7.2-2.4-1.467c-0.267-0.133-0.4-0.533-0.267-0.933 0.133-0.267 0.533-0.4 0.933-0.267l3.467 2c0.133 0.133 0.267 0.267 0.267 0.533s-0.267 0.4-0.533 0.533l-13.733 8c-0.267-0.133-0.4-0.133-0.533-0.133z"></path>
<path d="M14.267 30.133c-0.133 0-0.267 0-0.267-0.133l-13.6-7.867c-0.267-0.133-0.4-0.4-0.4-0.533 0-0.267 0.133-0.4 0.267-0.533l3.467-2c0.267-0.133 0.667-0.133 0.933 0.267 0.133 0.267 0.133 0.667-0.267 0.933l-2.4 1.467 12.533 7.2 12.533-7.2-2.4-1.467c-0.267-0.133-0.4-0.533-0.267-0.933 0.133-0.267 0.533-0.4 0.933-0.267l3.467 2c0.133 0.133 0.267 0.267 0.267 0.533s-0.133 0.4-0.267 0.533l-13.733 8c-0.533 0-0.667 0-0.8 0z"></path>
<path d="M27.467 23.6h1.467l2.933 7.6h-1.467l-0.533-1.867h-2.933l-0.667 2h-1.333l2.533-7.733zM27.067 28.267h2.267l-1.2-3.333-1.067 3.333z"></path>
</svg>
