<svg version="1.1" xmlns="http://www.w3.org/2000/svg" width="32" height="32" viewBox="0 0 32 32">
<title>auto_parser_ok</title>
<path d="M31.099 0.013h-30.198c-0.498 0-0.888 0.391-0.888 0.888v7.106c0 0.498 0.391 0.888 0.888 0.888h30.202c0.498 0 0.888-0.391 0.888-0.888v-7.106c-0.003-0.498-0.394-0.888-0.891-0.888zM30.211 7.118h-28.422v-5.329h28.425v5.329h-0.003z"></path>
<path d="M19.65 23.105h-18.75c-0.498 0-0.888 0.391-0.888 0.888v7.105c0 0.498 0.391 0.888 0.888 0.888h18.753c0.498 0 0.888-0.391 0.888-0.888v-7.105c-0.003-0.498-0.394-0.888-0.891-0.888zM18.762 30.211h-16.976v-5.329h16.976v5.329z"></path>
<path d="M31.099 23.105h-7.105c-0.498 0-0.888 0.391-0.888 0.888v7.105c0 0.498 0.391 0.888 0.888 0.888h7.105c0.498 0 0.888-0.391 0.888-0.888v-7.105c0-0.498-0.391-0.888-0.888-0.888zM30.211 30.211h-5.329v-5.329h5.329v5.329z"></path>
<path d="M4.844 10.636c-0.479 0-0.857 0.378-0.857 0.857v6.939l-1.096-1.096c-0.343-0.343-0.891-0.343-1.2 0-0.343 0.343-0.343 0.891 0 1.2l2.57 2.57c0.343 0.343 0.891 0.343 1.2 0l2.57-2.57c0.343-0.343 0.343-0.891 0-1.2-0.343-0.343-0.891-0.343-1.2 0l-1.131 1.099v-6.942c0-0.479-0.375-0.857-0.857-0.857z"></path>
<path d="M15.984 10.636c-0.479 0-0.857 0.378-0.857 0.857v6.939l-1.096-1.096c-0.343-0.343-0.891-0.343-1.2 0-0.343 0.343-0.343 0.891 0 1.2l2.57 2.57c0.343 0.343 0.891 0.343 1.2 0l2.57-2.57c0.343-0.343 0.343-0.891 0-1.2-0.343-0.343-0.891-0.343-1.2 0l-1.131 1.096v-6.939c0-0.479-0.378-0.857-0.857-0.857z"></path>
<path d="M27.121 10.636c-0.479 0-0.857 0.378-0.857 0.857v6.939l-1.096-1.096c-0.343-0.343-0.891-0.343-1.2 0-0.343 0.343-0.343 0.891 0 1.2l2.57 2.57c0.343 0.343 0.891 0.343 1.2 0l2.57-2.57c0.343-0.343 0.343-0.891 0-1.2-0.343-0.343-0.891-0.343-1.2 0l-1.131 1.096v-6.939c0-0.479-0.378-0.857-0.857-0.857z"></path>
</svg>
