<svg version="1.1" xmlns="http://www.w3.org/2000/svg" width="32" height="32" viewBox="0 0 32 32">
<title>award_achievement_prize_medal</title>
<path d="M11.857 31.727c-0.198 0-0.388-0.089-0.516-0.245l-2.207-2.694-3.424 0.646c-0.234 0.046-0.477-0.042-0.631-0.224s-0.201-0.434-0.119-0.659l2.523-6.932c0.126-0.346 0.509-0.522 0.854-0.398 0.346 0.126 0.525 0.508 0.398 0.854l-2.122 5.832 2.662-0.503c0.24-0.043 0.486 0.044 0.639 0.233l1.716 2.095 1.998-5.49c0.126-0.346 0.51-0.523 0.854-0.398 0.346 0.126 0.525 0.508 0.398 0.854l-2.398 6.59c-0.082 0.225-0.278 0.389-0.514 0.43-0.038 0.007-0.075 0.009-0.112 0.009z"></path>
<path d="M20.178 31.727c-0.036 0-0.074-0.003-0.112-0.009-0.236-0.040-0.432-0.204-0.514-0.43l-2.398-6.59c-0.126-0.346 0.052-0.728 0.398-0.854 0.348-0.126 0.728 0.052 0.854 0.398l1.999 5.49 1.716-2.095c0.155-0.189 0.401-0.279 0.639-0.233l2.661 0.503-2.122-5.832c-0.126-0.346 0.052-0.728 0.398-0.854 0.349-0.125 0.728 0.052 0.854 0.398l2.523 6.932c0.082 0.225 0.036 0.477-0.119 0.659s-0.397 0.267-0.631 0.224l-3.423-0.647-2.208 2.695c-0.128 0.156-0.318 0.245-0.516 0.245z"></path>
<path d="M18.9 23.253c-0.116 0-0.232-0.030-0.333-0.090l-2.566-1.482-2.566 1.482c-0.153 0.089-0.337 0.109-0.506 0.068-0.171-0.047-0.316-0.158-0.405-0.311l-1.482-2.566h-2.964c-0.369 0-0.667-0.298-0.667-0.667v-2.963l-2.566-1.482c-0.153-0.089-0.265-0.234-0.311-0.405s-0.022-0.353 0.066-0.506l1.482-2.566-1.482-2.567c-0.089-0.153-0.112-0.335-0.066-0.506s0.158-0.316 0.311-0.405l2.566-1.481v-2.964c0-0.369 0.298-0.667 0.667-0.667h2.964l1.482-2.566c0.089-0.153 0.234-0.265 0.405-0.311 0.169-0.045 0.353-0.021 0.506 0.066l2.567 1.482 2.566-1.482c0.152-0.088 0.336-0.112 0.505-0.066 0.172 0.046 0.316 0.158 0.405 0.311l1.483 2.566h2.964c0.369 0 0.667 0.298 0.667 0.667v2.964l2.566 1.481c0.154 0.089 0.264 0.234 0.311 0.405 0.046 0.171 0.021 0.353-0.068 0.506l-1.482 2.567 1.482 2.566c0.089 0.153 0.113 0.335 0.068 0.506-0.047 0.171-0.158 0.316-0.311 0.405l-2.566 1.482v2.964c0 0.369-0.298 0.667-0.667 0.667h-2.964l-1.483 2.566c-0.089 0.154-0.233 0.264-0.405 0.311-0.056 0.014-0.115 0.022-0.172 0.022zM16 20.245c0.115 0 0.231 0.030 0.333 0.090l2.323 1.341 1.341-2.323c0.119-0.206 0.339-0.333 0.577-0.333h2.682v-2.682c0-0.238 0.128-0.458 0.333-0.577l2.323-1.341-1.341-2.322c-0.12-0.206-0.12-0.46 0-0.667l1.341-2.323-2.323-1.341c-0.206-0.119-0.333-0.339-0.333-0.577v-2.682h-2.682c-0.238 0-0.458-0.127-0.577-0.333l-1.341-2.322-2.323 1.341c-0.207 0.118-0.462 0.117-0.667 0l-2.322-1.341-1.341 2.322c-0.119 0.206-0.339 0.333-0.577 0.333h-2.682v2.682c0 0.238-0.127 0.458-0.333 0.577l-2.322 1.341 1.341 2.323c0.119 0.206 0.119 0.46 0 0.667l-1.341 2.322 2.322 1.341c0.206 0.119 0.333 0.339 0.333 0.577v2.682h2.682c0.238 0 0.458 0.128 0.577 0.333l1.341 2.323 2.322-1.341c0.103-0.060 0.218-0.090 0.333-0.090z"></path>
<path d="M16 18.544c-3.739 0-6.781-3.042-6.781-6.781s3.042-6.781 6.781-6.781c3.74 0 6.781 3.042 6.781 6.781s-3.042 6.781-6.781 6.781zM16 6.315c-3.004 0-5.448 2.444-5.448 5.448s2.444 5.448 5.448 5.448 5.448-2.444 5.448-5.448-2.444-5.448-5.448-5.448z"></path>
</svg>
