<!-- Generated by IcoMoon.io -->
<svg version="1.1" xmlns="http://www.w3.org/2000/svg" width="32" height="32" viewBox="0 0 32 32">
<title>award_achievement_prize_medal</title>
<path d="M29.9 24.5l-5.8-10.5c0.6-1.2 0.9-2.6 0.9-4 0-5-4-9-9-9s-9 4-9 9c0 1.4 0.4 2.8 1 4l-5.9 10.5c-0.2 0.3-0.2 0.7 0 1s0.6 0.5 0.9 0.5h5.4l2.7 4.5c0.2 0.3 0.5 0.5 0.9 0.5 0 0 0 0 0.1 0 0.4 0 0.7-0.2 0.9-0.6l3.1-6.8 3.1 6.8c0.2 0.3 0.5 0.6 0.9 0.6 0 0 0 0 0.1 0 0.4 0 0.7-0.2 0.9-0.5l2.7-4.5c0 0 0 0 0 0h5.4c0.4 0 0.7-0.2 0.9-0.5-0.1-0.3-0.1-0.7-0.2-1zM16 3c3.9 0 7 3.1 7 7 0 1.2-0.3 2.4-0.9 3.4 0 0 0 0 0 0-1.2 2.1-3.5 3.6-6.1 3.6-3.9 0-7-3.1-7-7s3.1-7 7-7zM11.9 27.8l-1.7-2.9c-0.4-0.6-1-1-1.7-1h-3.7l4.5-8.1c1.6 1.9 4 3.1 6.7 3.1l-4.1 8.9zM23.6 24c-0.7 0-1.4 0.4-1.7 0.9 0 0 0 0.1-0.1 0.1l-1.7 2.9-3-6.6 1.1-2.5c1.8-0.5 3.4-1.5 4.6-2.8l4.5 8.1-3.7-0.1z"></path>
<path d="M16 15c2.8 0 5-2.2 5-5s-2.2-5-5-5-5 2.2-5 5 2.2 5 5 5zM16 7c1.7 0 3 1.3 3 3s-1.3 3-3 3-3-1.3-3-3 1.3-3 3-3z"></path>
</svg>
