<!-- Generated by IcoMoon.io -->
<svg version="1.1" xmlns="http://www.w3.org/2000/svg" width="32" height="32" viewBox="0 0 32 32">
<title>b_hand_two_fingers</title>
<path d="M27.445 26.345c-0.723-1.641-1.090-4.437-0.911-6.958 0.167-2.372-0.070-4.753-0.704-7.073-0.264-0.979-1.273-1.583-2.348-1.368-0.417 0.084-0.785 0.292-1.063 0.594l-0.253-0.747c-0.323-0.962-1.363-1.51-2.425-1.233-0.427 0.111-0.793 0.352-1.055 0.689l-3.047-8.473c-0.322-0.962-1.376-1.51-2.449-1.227-0.527 0.137-0.964 0.467-1.229 0.928-0.111 0.192-0.185 0.397-0.221 0.611-0.264-0.036-0.542-0.019-0.824 0.055-0.516 0.134-0.944 0.458-1.206 0.912-0.253 0.439-0.318 0.95-0.183 1.438l2.162 7.67c0.4 1.514 0.666 3.584 0.294 5.027l-3.99-3.19c-1.682-1.112-2.545-0.837-3.391-0.031-0.085 0.081-0.147 0.182-0.18 0.294-0.228 0.768 0.58 2.187 2.382 4.192 0.607 0.74 1.010 1.435 1.4 2.108 0.806 1.389 1.566 2.703 3.81 3.837 3.423 1.729 5.753 6.936 5.776 6.99 0.109 0.249 0.354 0.397 0.609 0.397 0.090 0 0.181-0.018 0.269-0.057 0.336-0.148 0.49-0.542 0.341-0.878-0.103-0.232-2.543-5.695-6.395-7.642-1.89-0.956-2.493-1.997-3.257-3.316-0.398-0.685-0.848-1.462-1.543-2.307-1.003-1.117-1.909-2.39-2.085-2.84 0.302-0.24 0.591-0.253 1.478 0.331l4.647 3.719c0.152 0.122 0.35 0.175 0.546 0.133 0.193-0.038 0.359-0.159 0.454-0.331 1.201-2.165 0.397-5.732 0.119-6.785l-2.164-7.679c-0.039-0.139-0.019-0.285 0.053-0.413 0.082-0.142 0.219-0.243 0.446-0.303 0.331-0.085 0.664 0.083 0.764 0.383l3.806 11.344c0.081 0.242 0.295 0.417 0.547 0.449l0.138 0.018c0.234 0.025 0.458-0.063 0.602-0.241 0.146-0.179 0.189-0.421 0.113-0.639l-4.219-12.185c-0.048-0.173 0.003-0.315 0.054-0.404 0.086-0.149 0.231-0.257 0.471-0.319 0.336-0.091 0.689 0.081 0.792 0.389l4.803 13.359c0.085 0.236 0.421 0.42 0.669 0.452 0.211 0.033 0.439-0.053 0.585-0.22s0.201-0.394 0.146-0.608l-0.945-3.644c-0.038-0.14-0.018-0.286 0.055-0.415 0.082-0.141 0.219-0.243 0.445-0.303 0.324-0.085 0.663 0.081 0.764 0.384l1.59 4.691c0.112 0.33 0.462 0.518 0.803 0.43 0.339-0.091 0.549-0.428 0.482-0.773l-0.516-2.637c-0.031-0.14-0.003-0.285 0.078-0.409 0.090-0.139 0.234-0.234 0.465-0.281 0.323-0.064 0.656 0.117 0.738 0.423 0.595 2.176 0.818 4.407 0.66 6.63-0.194 2.76 0.207 5.74 1.021 7.589 0.15 0.339 0.544 0.49 0.879 0.342 0.337-0.149 0.491-0.543 0.343-0.879z"></path>
</svg>
