<svg version="1.1" xmlns="http://www.w3.org/2000/svg" width="32" height="32" viewBox="0 0 32 32">
<title>back_main_menu</title>
<path d="M12.897 16.198c-2.539 2.525-5.085 5.057-7.614 7.576 2.563 2.563 5.11 5.11 7.659 7.659 0.557-0.567 1.12-1.141 1.694-1.725-1.489-1.475-2.991-2.96-4.497-4.449 0.014-0.101 0.083-0.122 0.191-0.122 5.402 0.003 10.8 0.003 16.202 0.003 0.059 0 0.122 0 0.188 0 0-8.198 0-16.383 0-24.57-0.852 0-1.697 0-2.553 0 0 7.318 0 14.63 0 21.941-4.612 0-9.21 0-13.837 0 1.45-1.541 2.929-3.012 4.442-4.442-0.63-0.626-1.242-1.238-1.875-1.871z"></path>
</svg>
