<svg version="1.1" xmlns="http://www.w3.org/2000/svg" width="32" height="32" viewBox="0 0 32 32">
<title>back_delete_backspace</title>
<path d="M31.348 25.507h-21.736c-0.177 0-0.346-0.070-0.471-0.195l-8.844-8.844c-0.125-0.125-0.195-0.294-0.195-0.471s0.070-0.346 0.195-0.471l8.844-8.843c0.125-0.125 0.294-0.195 0.471-0.195h21.736c0.369 0 0.667 0.298 0.667 0.667v17.687c-0 0.369-0.298 0.667-0.667 0.667zM9.888 24.173h20.793v-16.354h-20.793l-8.177 8.176 8.177 8.177z"></path>
<path d="M23.167 21.125c-0.171 0-0.341-0.065-0.471-0.195l-8.923-8.923c-0.26-0.26-0.26-0.682 0-0.943s0.682-0.26 0.943 0l8.923 8.923c0.26 0.26 0.26 0.682 0 0.943-0.13 0.13-0.301 0.195-0.471 0.195z"></path>
<path d="M14.244 21.125c-0.171 0-0.341-0.065-0.471-0.195-0.26-0.26-0.26-0.682 0-0.943l8.923-8.923c0.26-0.26 0.682-0.26 0.943 0s0.26 0.682 0 0.943l-8.923 8.923c-0.13 0.13-0.301 0.195-0.471 0.195z"></path>
</svg>
