<!-- Generated by IcoMoon.io -->
<svg version="1.1" xmlns="http://www.w3.org/2000/svg" width="32" height="32" viewBox="0 0 32 32">
<title>back_delete_backspace</title>
<path d="M25.2 6h-15.4c-0.8 0-1.6 0.3-2.1 1 0 0-0.1 0.1-0.1 0.1l-5.6 8.4c-0.2 0.3-0.2 0.8 0 1.1l5.5 8.4c0 0 0.1 0.1 0.1 0.1 0.5 0.6 1.3 1 2.1 1h15.4c1.5 0 2.8-1.3 2.8-2.8v-14.5c0.1-1.5-1.2-2.8-2.7-2.8zM26 23.2c0 0.4-0.4 0.8-0.8 0.8h-15.4c-0.2 0-0.4-0.1-0.6-0.2l-5.1-7.8 5.1-7.8c0.2-0.1 0.4-0.2 0.6-0.2h15.4c0.4 0 0.8 0.4 0.8 0.8v14.4z"></path>
<path d="M22 12c0-0.3-0.1-0.5-0.3-0.7-0.4-0.4-1-0.4-1.4 0l-3.3 3.4-3.4-3.4c-0.4-0.4-1-0.4-1.4 0-0.2 0.2-0.3 0.5-0.3 0.7s0.1 0.5 0.3 0.7l3.4 3.4-3.4 3.4c-0.2 0.2-0.3 0.5-0.3 0.7s0.1 0.5 0.3 0.7 0.5 0.3 0.7 0.3 0.5-0.1 0.7-0.3l3.4-3.4 3.4 3.4c0.4 0.4 1 0.4 1.4 0 0.2-0.2 0.3-0.5 0.3-0.7s-0.1-0.5-0.3-0.7l-3.4-3.4 3.4-3.4c0.1-0.2 0.2-0.4 0.2-0.7z"></path>
</svg>
