<svg version="1.1" xmlns="http://www.w3.org/2000/svg" width="32" height="32" viewBox="0 0 32 32">
<title>balloon_speech</title>
<path d="M8.533 30c-0.267 0-0.4 0-0.667-0.133-0.667-0.267-1.067-0.933-1.067-1.733v-4.667h-1.067c-3.2 0-5.6-2.4-5.6-5.6v-10c0-3.333 2.533-6 5.6-6h20.267c3.2 0 5.867 2.667 5.867 6v10c0 3.2-2.533 5.6-5.867 5.6h-10.267l-6 6c-0.267 0.4-0.8 0.533-1.2 0.533zM5.733 3.333c-2.4 0-4.267 2-4.267 4.533v10c0 2.533 1.867 4.267 4.267 4.267h1.733c0.4 0 0.667 0.267 0.667 0.667v5.333c0 0.267 0.133 0.533 0.267 0.533s0.267 0 0.4-0.133l6.133-6.133c0.133-0.133 0.267-0.133 0.533-0.133h10.533c2.533 0 4.533-1.867 4.533-4.267v-10.133c0-2.533-2-4.667-4.533-4.667h-20.267z"></path>
</svg>
