<!-- Generated by IcoMoon.io -->
<svg version="1.1" xmlns="http://www.w3.org/2000/svg" width="32" height="32" viewBox="0 0 32 32">
<title>battery_charge_full</title>
<path fill="none" stroke-linejoin="miter" stroke-linecap="square" stroke-miterlimit="10" stroke-width="2" stroke="#000" d="M4.856 9h19.288c1.577 0 2.856 1.279 2.856 2.856v8.287c0 1.577-1.279 2.856-2.856 2.856h-19.288c-1.577 0-2.856-1.279-2.856-2.856v-8.287c0-1.577 1.279-2.856 2.856-2.856z"></path>
<path stroke-linejoin="miter" stroke-linecap="square" stroke-miterlimit="10" stroke-width="2" stroke="#000" fill="#000" d="M5.606 12.433h17.789c0.138 0 0.25 0.112 0.25 0.25v6.634c0 0.138-0.112 0.25-0.25 0.25h-17.789c-0.138 0-0.25-0.112-0.25-0.25v-6.634c0-0.138 0.112-0.25 0.25-0.25z"></path>
<path fill="none" stroke-linejoin="miter" stroke-linecap="round" stroke-miterlimit="10" stroke-width="2" stroke="#000" d="M30 13.667v4.666"></path>
</svg>
