<svg version="1.1" xmlns="http://www.w3.org/2000/svg" width="32" height="32" viewBox="0 0 32 32">
<title>battery_charge_half_empty</title>
<path d="M7.319 20h-2.667c-0.369 0-0.667-0.298-0.667-0.667v-6.667c0-0.369 0.298-0.667 0.667-0.667h2.667c0.369 0 0.667 0.298 0.667 0.667v6.667c0 0.369-0.298 0.667-0.667 0.667zM5.319 18.667h1.333v-5.333h-1.333v5.333z"></path>
<path d="M12.653 20h-2.667c-0.369 0-0.667-0.298-0.667-0.667v-6.667c0-0.369 0.298-0.667 0.667-0.667h2.667c0.369 0 0.667 0.298 0.667 0.667v6.667c0 0.369-0.298 0.667-0.667 0.667zM10.653 18.667h1.333v-5.333h-1.333v5.333z"></path>
<path d="M28.013 25.333h-26.667c-0.735 0-1.333-0.598-1.333-1.333v-16c0-0.735 0.598-1.333 1.333-1.333h26.667c0.736 0 1.333 0.598 1.333 1.333v4h1.333c0.736 0 1.333 0.598 1.333 1.333v5.333c0 0.736-0.598 1.333-1.333 1.333h-1.333v4c0 0.736-0.598 1.333-1.333 1.333zM28.013 24v0.667l0.001-0.667h-0.001zM1.346 8v16h26.667v-4.667c0-0.369 0.298-0.667 0.667-0.667h2v-5.333h-2c-0.369 0-0.667-0.298-0.667-0.667v-4.667h-26.667z"></path>
</svg>
