<svg version="1.1" xmlns="http://www.w3.org/2000/svg" width="32" height="32" viewBox="0 0 32 32">
<title>battery_charging_energy</title>
<path d="M28.033 25.333h-11.402c-0.369 0-0.667-0.298-0.667-0.667s0.298-0.667 0.667-0.667h11.402v-4.667c0-0.369 0.298-0.667 0.667-0.667h2v-5.333h-2c-0.369 0-0.667-0.298-0.667-0.667v-4.667h-4.656c-0.369 0-0.667-0.298-0.667-0.667s0.298-0.667 0.667-0.667h4.656c0.736 0 1.333 0.598 1.333 1.333v4h1.333c0.736 0 1.333 0.598 1.333 1.333v5.333c0 0.736-0.598 1.333-1.333 1.333h-1.333v4c0 0.736-0.598 1.333-1.333 1.333z"></path>
<path d="M9.956 25.333h-8.591c-0.735 0-1.333-0.598-1.333-1.333v-16c0-0.735 0.598-1.333 1.333-1.333h5.916c0.369 0 0.667 0.298 0.667 0.667s-0.298 0.667-0.667 0.667h-5.916v16h8.591c0.369 0 0.667 0.298 0.667 0.667s-0.298 0.667-0.667 0.667z"></path>
<path d="M12.714 28.019c-0.055 0-0.11-0.007-0.165-0.021-0.296-0.075-0.502-0.341-0.502-0.646v-6.109h-3.551c-0.218 0-0.423-0.107-0.547-0.286-0.124-0.178-0.154-0.408-0.077-0.612l3.112-8.387h-2.487c-0.221 0-0.428-0.11-0.553-0.294s-0.148-0.417-0.066-0.622l3.727-9.255c0.102-0.252 0.346-0.417 0.619-0.417h7.876c0.229 0 0.441 0.117 0.564 0.311s0.137 0.436 0.038 0.643l-2.075 4.342h2.53c0.247 0 0.474 0.136 0.589 0.354 0.116 0.218 0.102 0.482-0.036 0.687l-5.624 8.295h2.466c0.236 0 0.453 0.124 0.573 0.327 0.121 0.202 0.125 0.453 0.012 0.659l-5.835 10.684c-0.119 0.219-0.346 0.348-0.585 0.348zM9.454 19.91h3.259c0.369 0 0.667 0.298 0.667 0.667v4.165l4.046-7.406h-2.6c-0.247 0-0.473-0.137-0.589-0.354-0.115-0.219-0.101-0.482 0.037-0.686l5.624-8.296h-2.329c-0.229 0-0.441-0.117-0.564-0.311s-0.137-0.436-0.038-0.643l2.075-4.342h-6.368l-3.19 7.921h2.458c0.218 0 0.423 0.107 0.547 0.286s0.154 0.408 0.077 0.613l-3.112 8.387z"></path>
</svg>
