<!-- Generated by IcoMoon.io -->
<svg version="1.1" xmlns="http://www.w3.org/2000/svg" width="32" height="32" viewBox="0 0 32 32">
<title>battery_charge_full</title>
<path d="M24.1 8h-19.2c-2.2 0-3.9 1.7-3.9 3.9v8.3c0 2.1 1.7 3.8 3.9 3.8h19.3c2.1 0 3.9-1.7 3.9-3.9v-8.3c-0.1-2.1-1.8-3.8-4-3.8zM26 20.1c0 1-0.8 1.9-1.9 1.9h-19.2c-1 0-1.9-0.8-1.9-1.9v-8.3c0-1 0.8-1.9 1.9-1.9h19.3c1 0 1.9 0.8 1.9 1.9v8.3z"></path>
<path d="M23.4 11.4h-17.8c-0.7 0-1.2 0.6-1.2 1.2v6.6c0 0.7 0.6 1.2 1.2 1.2h17.8c0.7 0 1.2-0.6 1.2-1.2v-6.6c0-0.6-0.5-1.2-1.2-1.2z"></path>
<path d="M30 12.7c-0.6 0-1 0.4-1 1v4.7c0 0.6 0.4 1 1 1s1-0.4 1-1v-4.7c0-0.6-0.4-1-1-1z"></path>
</svg>
