<!-- Generated by IcoMoon.io -->
<svg version="1.1" xmlns="http://www.w3.org/2000/svg" width="32" height="32" viewBox="0 0 32 32">
<title>bell_ringer_alarm_sound_silent_mute</title>
<path d="M20 23h-13.6c-0.3 0-0.4-0.1-0.4-0.2-0.1-0.1 0-0.2 0-0.2l0.3-0.4c1.5-1.8 2.7-3.2 2.7-8.6 0-0.3 0-0.5 0-0.7 0-0.6-0.4-1-0.9-1.1-0.5 0-1 0.4-1.1 0.9 0 0.3 0 0.6 0 0.9 0 4.7-0.8 5.7-2.2 7.4l-0.3 0.4c-0.5 0.7-0.7 1.6-0.3 2.4 0.4 0.7 1.2 1.2 2.2 1.2h4.6c0 2.8 2.2 5 5 5s5-2.2 5-5v-1c0 0 0 0 0 0 0-0.6-0.4-1-1-1zM16 28c-1.7 0-3-1.3-3-3h6c0 1.7-1.3 3-3 3z"></path>
<path d="M12 7.4c0 0 0 0 0 0s0 0 0 0 0 0 0 0c0.4-0.2 0.7-0.4 1-0.5 0.6-0.2 1-0.7 1.2-1.3 0.2-0.8 0.9-1.6 1.8-1.6s1.6 0.8 1.8 1.6c0.2 0.6 0.6 1.1 1.2 1.3 1.9 0.8 4 2.2 4 6.7 0 4.4 0.7 6.2 2.1 8 0.2 0.2 0.5 0.4 0.8 0.4 0.2 0 0.4-0.1 0.6-0.2 0.4-0.3 0.5-1 0.2-1.4-1-1.3-1.7-2.5-1.7-6.8s-1.7-7.1-5.3-8.5c-0.5-1.9-2-3.1-3.7-3.1s-3.2 1.2-3.8 3.1c-0.5 0.2-0.9 0.4-1.3 0.6-0.5 0.3-0.6 0.9-0.3 1.3 0.3 0.5 0.9 0.7 1.4 0.4z"></path>
<path d="M28.7 27.3l-24-24c-0.4-0.4-1-0.4-1.4 0s-0.4 1 0 1.4l24 24c0.2 0.2 0.5 0.3 0.7 0.3s0.5-0.1 0.7-0.3c0.4-0.4 0.4-1 0-1.4z"></path>
</svg>
