<!-- Generated by IcoMoon.io -->
<svg version="1.1" xmlns="http://www.w3.org/2000/svg" width="36" height="32" viewBox="0 0 36 32">
<title>bell_solid</title>
<path d="M4.2 23.7c0 0 0 0 0 0s0 0 0 0v0zM20.2 27h-8.4c-0.1 0-0.2 0.1-0.2 0.2 0 0 0 0.1 0 0.1v0c0.9 1.6 2.5 2.6 4.4 2.6s3.5-1.1 4.4-2.6v0c0 0 0-0.1 0-0.1 0-0.1-0.1-0.2-0.2-0.2zM27.5 21.3v0 0c-0.1-0.1-0.2-0.2-0.3-0.4-1.4-1.7-2.2-2.7-2.2-7.4 0-2.4-0.6-4.4-1.7-5.9-0.8-1.1-2-1.9-3.5-2.6 0 0 0 0-0.1 0-0.5-1.8-2-3-3.7-3s-3.2 1.2-3.7 3c0 0 0 0 0 0v0c-3.6 1.5-5.3 4.3-5.3 8.6 0 4.7-0.8 5.7-2.2 7.4-0.1 0.1-0.2 0.2-0.3 0.4-0.3 0.3-0.5 0.8-0.5 1.3 0 0.3 0.1 0.7 0.2 1 0.4 0.8 1.2 1.3 2.1 1.3h19.3c0.9 0 1.8-0.5 2.1-1.3 0.1-0.3 0.2-0.6 0.2-1 0.1-0.5-0.1-1-0.4-1.4z"></path>
</svg>
