<!-- Generated by IcoMoon.io -->
<svg version="1.1" xmlns="http://www.w3.org/2000/svg" width="32" height="32" viewBox="0 0 32 32">
<title>bichord</title>
<path d="M14.489 17.046c-5.884-12.618-9.815-7.751-9.815-7.751s4.573-2.157 9.098 9.246c0 0 1.957 5.896-5.533 5.764l-1.14-0.368-0.451 0.603c11.489 2.498 7.841-7.493 7.841-7.493zM15.868 12.649c0 0 3.871-0.181 3.175-7.217l-0.875-1.253c1.067 1.487 0.872 6.052-1.019 7.626-2.018 1.68-7.455-1.852-3.552-4.823s2.587-4.436 2.587-4.436 0.74 1.981-3.962 4.846c-4.702 2.865 2.212 5.812 3.647 5.257zM6.466 19.866c6.045 2.562 5.175-1.965 5.175-1.965-1.348-7.26-7.418-4.548-6.967-4.569 5.297-0.256 6.14 3.63 6.14 3.63 1 4.485-4.349 2.905-4.349 2.905zM16.947 23.966c0 0 1.259-0.939 4.935 2.52 0 0-6.314-8.926-7.016-0.641 0 0-0.313 4.143 7.016 2.776 0 0-9.154-1.153-4.935-4.655zM22.122 5.602c0.074-0.105-9.698 7.559 0.391 21.14 0 0-6.872-12.001-0.391-21.14zM31.969 15.94c-1.5-16.307-15.94-15.94-15.94-15.94-16.196 1.377-16.029 16.028-16.029 16.028 1.166 16.028 15.94 15.94 15.94 15.94 16.451-1.133 16.029-16.029 16.029-16.029zM16.169 29.615c0 0-12.393 0.074-13.371-13.371 0 0-0.14-12.291 13.446-13.446 0 0 12.114-0.308 13.372 13.371 0-0 0.354 12.495-13.446 13.446zM24.209 24.153c0 0-6.001-8.259 4.827-3.732-0 0-14.482-7.911-4.827 3.732z"></path>
</svg>
