<!-- Generated by IcoMoon.io -->
<svg version="1.1" xmlns="http://www.w3.org/2000/svg" width="32" height="32" viewBox="0 0 32 32">
<title>bin_trash_recycle_delete_garbage</title>
<path d="M27 6h-6v-1.5c0-0.3-0.1-0.7-0.2-1s-0.3-0.6-0.5-0.8c-0.2-0.2-0.5-0.4-0.8-0.5s-0.6-0.2-1-0.2h-5c-0.3 0-0.7 0.1-1 0.2s-0.6 0.3-0.8 0.5c-0.2 0.2-0.4 0.5-0.5 0.8s-0.2 0.6-0.2 1v1.5h-6c-0.6 0-1 0.4-1 1s0.4 1 1 1h1.1l1.2 19.1c0.1 1.7 1.4 2.9 3 2.9h11.5c1.6 0 2.9-1.2 3-2.9l1.1-19.1h1.1c0.6 0 1-0.4 1-1s-0.4-1-1-1zM13 4.5c0-0.1 0-0.1 0-0.2s0.1-0.1 0.1-0.2c0 0 0.1-0.1 0.2-0.1s0.2 0 0.2 0h5c0 0 0 0 0 0 0.1 0 0.1 0 0.2 0s0.1 0.1 0.2 0.1c0 0 0.1 0.1 0.1 0.2s0 0.1 0 0.2v1.5h-6v-1.5zM22.8 26.9c0 0.6-0.4 1.1-1 1.1h-11.6c-0.6 0-1-0.4-1-1.1l-1.1-18.9h15.9l-1.2 18.9z"></path>
<path d="M19.5 14.4c-0.3 0.2-0.4 0.6-0.1 0.9 0.4 0.5 0.6 1.1 0.7 1.7s0.1 1.3-0.1 1.9v0c-0.6 2.1-2.6 3.4-4.7 3h0.1c0.3-0.2 0.4-0.6 0.2-0.9s-0.6-0.4-0.9-0.2l-1.5 0.9c-0.3 0.2-0.4 0.6-0.2 0.9l0.8 1.5c0.2 0.3 0.6 0.4 0.9 0.2s0.4-0.6 0.2-0.9l-0.1-0.1c2.8 0.6 5.6-1.2 6.4-4v0c0.2-0.8 0.2-1.6 0.1-2.5-0.2-0.8-0.5-1.6-1-2.2-0.1-0.4-0.5-0.4-0.8-0.2z"></path>
<path d="M11.9 18.6c-0.1-0.6-0.1-1.2 0.1-1.9 0.6-2.1 2.6-3.4 4.7-3l-0.1 0.1c-0.3 0.2-0.4 0.6-0.2 0.9s0.6 0.4 0.9 0.2l1.5-0.9c0.3-0.2 0.4-0.6 0.2-0.9l-0.8-1.5c-0.2-0.3-0.6-0.4-0.9-0.2s-0.4 0.6-0.2 0.9l0.1 0.1c-2.8-0.6-5.6 1.2-6.4 4v0c-0.2 0.8-0.2 1.6-0.1 2.4 0.2 0.8 0.5 1.6 1 2.2 0.2 0.3 0.6 0.4 0.9 0.1s0.4-0.6 0.1-0.9c-0.5-0.4-0.7-1-0.8-1.6z"></path>
</svg>
