<svg version="1.1" xmlns="http://www.w3.org/2000/svg" width="32" height="32" viewBox="0 0 32 32">
<title>bin_trash_recycle_delete_garbage_all</title>
<path d="M24.769 10.328h-21.969c-0.316 0-0.569-0.253-0.569-0.569s0.253-0.569 0.569-0.569h21.969c0.316 0 0.569 0.253 0.569 0.569s-0.256 0.569-0.569 0.569z"></path>
<path d="M22.209 31.944h-16.8c-0.3 0-0.547-0.228-0.569-0.528l-1.566-21.613c-0.009-0.156 0.044-0.313 0.15-0.428 0.106-0.119 0.259-0.181 0.416-0.181h19.931c0.156 0 0.309 0.066 0.416 0.181s0.163 0.269 0.153 0.428l-1.566 21.613c-0.022 0.297-0.269 0.528-0.566 0.528v0zM5.941 30.806h15.741l1.484-20.478h-18.709l1.484 20.478z"></path>
<path d="M17.478 10.328h-7.338c-0.181 0-0.353-0.088-0.463-0.234-0.106-0.147-0.134-0.338-0.081-0.509l1.128-3.456c0.078-0.234 0.294-0.391 0.541-0.391h5.084c0.244 0 0.462 0.156 0.541 0.391l1.128 3.453c0.056 0.172 0.028 0.363-0.081 0.509-0.106 0.153-0.278 0.238-0.459 0.238v0zM10.922 9.194h5.772l-0.756-2.319h-4.256l-0.759 2.319z"></path>
<path d="M13.819 28.384c-0.316 0-0.569-0.253-0.569-0.569v-14.584c0-0.316 0.253-0.569 0.569-0.569s0.569 0.253 0.569 0.569v14.584c0 0.316-0.253 0.569-0.569 0.569z"></path>
<path d="M18.028 28.384c-0.012 0-0.028 0-0.041 0-0.316-0.022-0.553-0.294-0.531-0.606l0.972-14.588c0.022-0.316 0.3-0.541 0.606-0.531 0.316 0.022 0.553 0.294 0.531 0.606l-0.969 14.584c-0.022 0.306-0.272 0.534-0.569 0.534v0z"></path>
<path d="M9.613 28.384c-0.297 0-0.547-0.228-0.569-0.531l-0.969-14.584c-0.022-0.316 0.216-0.584 0.531-0.606 0.316-0.012 0.584 0.216 0.606 0.531l0.969 14.584c0.022 0.316-0.216 0.584-0.531 0.606-0.012 0-0.025 0-0.037 0z"></path>
<path d="M28.641 3.672c-0.106-0.119-0.259-0.181-0.416-0.181h-19.931c-0.156 0-0.309 0.066-0.416 0.181s-0.162 0.269-0.15 0.428l0.281 3.891c0.378-0.006 0.759-0.009 1.137-0.013l-0.241-3.353h18.709l-1.481 20.478h-1.784c0.009 0.378 0.056 0.759 0.028 1.137h2.288c0.3 0 0.547-0.228 0.569-0.528l1.566-21.613c0.003-0.159-0.050-0.316-0.159-0.428z"></path>
<path d="M21.928 4.625h-7.338c-0.181 0-0.353-0.088-0.463-0.234-0.106-0.147-0.134-0.338-0.081-0.509l1.128-3.456c0.078-0.234 0.294-0.391 0.541-0.391h5.084c0.244 0 0.462 0.156 0.541 0.391l1.128 3.453c0.056 0.172 0.028 0.363-0.081 0.509-0.106 0.15-0.278 0.237-0.459 0.237v0zM15.372 3.491h5.772l-0.756-2.319h-4.256l-0.759 2.319z"></path>
<path d="M29.2 4.625h-21.969c-0.316 0-0.569-0.253-0.569-0.569s0.253-0.569 0.569-0.569h21.969c0.316 0 0.569 0.253 0.569 0.569s-0.256 0.569-0.569 0.569z"></path>
</svg>
