<svg version="1.1" xmlns="http://www.w3.org/2000/svg" width="32" height="32" viewBox="0 0 32 32">
<title>bin_trash_recycle_delete_garbage_full</title>
<path d="M1.003 8.798c-0.307 0-0.582-0.212-0.65-0.524-0.079-0.359 0.148-0.715 0.508-0.793l27.293-5.986c0.366-0.077 0.716 0.149 0.794 0.508 0.079 0.359-0.148 0.715-0.508 0.794l-27.294 5.986c-0.048 0.010-0.096 0.016-0.143 0.016z"></path>
<path d="M10.576 6.699c-0.165 0-0.326-0.061-0.451-0.175-0.159-0.147-0.238-0.361-0.211-0.577l0.485-3.772c0.036-0.279 0.243-0.506 0.519-0.566l5.644-1.238c0.28-0.060 0.559 0.059 0.708 0.297l2.019 3.223c0.115 0.184 0.134 0.412 0.049 0.612-0.083 0.201-0.26 0.347-0.471 0.393l-8.15 1.787c-0.047 0.010-0.095 0.016-0.143 0.016zM11.663 2.811l-0.305 2.367 6.299-1.381-1.267-2.023-4.728 1.037z"></path>
<path d="M25.754 32.052h-19.699c-0.347 0-0.637-0.267-0.665-0.613l-1.837-22.641c-0.015-0.185 0.048-0.369 0.175-0.506s0.304-0.215 0.49-0.215h23.372c0.186 0 0.363 0.078 0.49 0.215s0.19 0.32 0.175 0.506l-1.837 22.641c-0.027 0.346-0.317 0.613-0.664 0.613zM6.67 30.719h18.469l1.729-21.309h-21.927l1.728 21.309z"></path>
<path d="M15.917 27.881c-0.369 0-0.667-0.298-0.667-0.667v-14.259c0-0.369 0.298-0.667 0.667-0.667s0.666 0.298 0.666 0.667v14.259c0 0.369-0.298 0.667-0.666 0.667z"></path>
<path d="M20.852 27.881c-0.018 0-0.036-0.001-0.055-0.003-0.367-0.029-0.641-0.35-0.611-0.717l1.139-14.259c0.029-0.367 0.352-0.637 0.717-0.611 0.367 0.029 0.641 0.351 0.611 0.718l-1.139 14.259c-0.027 0.349-0.319 0.613-0.663 0.613z"></path>
<path d="M10.982 27.881c-0.344 0-0.636-0.264-0.664-0.613l-1.139-14.259c-0.029-0.367 0.245-0.689 0.611-0.718 0.378-0.031 0.689 0.245 0.718 0.611l1.139 14.259c0.029 0.367-0.245 0.689-0.611 0.717-0.018 0.001-0.036 0.003-0.054 0.003z"></path>
<path d="M25.62 9.391c-0.234 0-0.461-0.124-0.583-0.343l-1.236-2.227-1.182 0.96c-0.212 0.17-0.501 0.198-0.74 0.068l-2.333-1.273-4.264 2.712c-0.311 0.198-0.723 0.105-0.92-0.205s-0.106-0.723 0.205-0.92l4.595-2.923c0.204-0.13 0.464-0.14 0.677-0.023l2.286 1.247 1.452-1.179c0.152-0.124 0.355-0.175 0.547-0.137 0.194 0.037 0.361 0.158 0.457 0.331l1.622 2.923c0.178 0.322 0.063 0.728-0.259 0.906-0.103 0.057-0.214 0.084-0.324 0.084z"></path>
</svg>
