<svg version="1.1" xmlns="http://www.w3.org/2000/svg" width="32" height="32" viewBox="0 0 32 32">
<title>bin_trash_recycle_delete_garbage_empty</title>
<desc>delete,remove,trash,trash-can,edition,bin,garbage,empty,recycle</desc>
<path d="M27 6h-6v-1.5c0-1.4-1.1-2.5-2.5-2.5h-5c-1.4 0-2.5 1.1-2.5 2.5v1.5h-6c-0.6 0-1 0.4-1 1s0.4 1 1 1h1.1l1.2 19.1c0.1 1.7 1.4 2.9 3 2.9h11.5c1.6 0 2.9-1.2 3-2.9l1.1-19.1h1.1c0.6 0 1-0.4 1-1s-0.4-1-1-1zM13 4.5c0-0.3 0.2-0.5 0.5-0.5h5c0.3 0 0.5 0.2 0.5 0.5v1.5h-6v-1.5zM22.8 26.9c0 0.6-0.4 1.1-1 1.1h-11.6c-0.6 0-1-0.4-1-1.1l-1.1-18.9h11.9c0 0 0 0 0 0s0 0 0 0h3.9l-1.1 18.9zM12.5 11l0.5 14c0 0.6-0.4 1-1 1 0 0 0 0 0 0-0.5 0-1-0.4-1-1l-0.5-14c0-0.6 0.4-1 1-1 0.5 0 1 0.4 1 1zM17 11v14c0 0.6-0.4 1-1 1s-1-0.4-1-1v-14c0-0.6 0.4-1 1-1s1 0.4 1 1zM20.5 10c0.6 0 1 0.5 1 1l-0.5 14c0 0.5-0.5 1-1 1 0 0 0 0 0 0-0.6 0-1-0.5-1-1l0.5-14c0-0.6 0.5-1 1-1z"></path>
</svg>
