<!-- Generated by IcoMoon.io -->
<svg version="1.1" xmlns="http://www.w3.org/2000/svg" width="32" height="32" viewBox="0 0 32 32">
<title>bin_trash_recycle_delete_garbage</title>
<path fill="none" stroke="#000" stroke-linejoin="round" stroke-linecap="round" stroke-miterlimit="4" stroke-width="2" d="M7 7l1.25 20c0.059 1.156 0.9 2 2 2h11.5c1.104 0 1.929-0.844 2-2l1.25-20"></path>
<path d="M5 7h22z"></path>
<path fill="none" stroke="#000" stroke-linejoin="miter" stroke-linecap="round" stroke-miterlimit="10" stroke-width="2" d="M5 7h22"></path>
<path fill="none" stroke="#000" stroke-linejoin="round" stroke-linecap="round" stroke-miterlimit="4" stroke-width="2" d="M12 7v-2.5c-0.001-0.197 0.038-0.392 0.113-0.575s0.186-0.348 0.325-0.487c0.139-0.139 0.305-0.25 0.487-0.325s0.378-0.114 0.575-0.113h5c0.197-0.001 0.392 0.038 0.575 0.113s0.348 0.186 0.487 0.325c0.139 0.139 0.25 0.305 0.325 0.487s0.114 0.378 0.113 0.575v2.5"></path>
<path d="M21.287 19.223c0.215-0.799 0.247-1.637 0.094-2.45s-0.488-1.582-0.979-2.248c-0.218-0.296-0.635-0.359-0.931-0.14s-0.359 0.635-0.141 0.931c0.372 0.505 0.626 1.087 0.742 1.704s0.092 1.252-0.072 1.858l-0 0.001c-0.561 2.094-2.611 3.388-4.696 3.046l0.072-0.044c0.314-0.191 0.414-0.601 0.223-0.915s-0.6-0.414-0.914-0.223l-1.47 0.893c-0.309 0.188-0.412 0.589-0.231 0.902l0.841 1.457c0.184 0.318 0.591 0.427 0.909 0.244s0.428-0.591 0.244-0.91l-0.071-0.123c2.817 0.56 5.624-1.163 6.38-3.982zM17.021 12.403l-0.062-0.107c-0.184-0.318-0.075-0.726 0.244-0.91s0.725-0.075 0.909 0.244l0.84 1.457c0.181 0.313 0.078 0.714-0.231 0.902l-1.47 0.893c-0.314 0.191-0.724 0.091-0.914-0.223s-0.091-0.724 0.223-0.915l0.090-0.055c-2.093-0.35-4.148 0.944-4.711 3.043-0.161 0.605-0.185 1.239-0.071 1.855s0.365 1.199 0.733 1.705c0.216 0.297 0.15 0.714-0.147 0.93s-0.714 0.15-0.93-0.147c-0.485-0.667-0.814-1.434-0.965-2.245s-0.119-1.645 0.093-2.442l0-0.001c0.755-2.816 3.552-4.538 6.367-3.985z"></path>
</svg>
