<!-- Generated by IcoMoon.io -->
<svg version="1.1" xmlns="http://www.w3.org/2000/svg" width="32" height="32" viewBox="0 0 32 32">
<title>bluetooth</title>
<path d="M17.5 16l6.1-5.2c0.2-0.2 0.3-0.4 0.3-0.7s-0.1-0.5-0.3-0.7l-7-7c-0.2-0.4-0.6-0.5-1-0.3-0.4 0.1-0.6 0.5-0.6 0.9v10.8l-5.3-4.6c-0.5-0.3-1.1-0.3-1.5 0.1s-0.3 1.1 0.1 1.4l6.1 5.2-6.1 5.2c-0.4 0.4-0.5 1-0.1 1.4s1 0.5 1.4 0.1l5.3-4.6v11c0 0.4 0.2 0.8 0.6 0.9 0.2 0.1 0.4 0.1 0.5 0.1 0.3 0 0.5-0.1 0.7-0.3l7-7c0.2-0.2 0.3-0.5 0.3-0.7s-0.1-0.5-0.3-0.7l-6.2-5.3zM17 5.4l4.5 4.5-4.5 3.9v-8.4zM17 26.6v-8.4l4.5 3.9-4.5 4.5z"></path>
</svg>
