<svg version="1.1" xmlns="http://www.w3.org/2000/svg" width="32" height="32" viewBox="0 0 32 32">
<title>bluetooth</title>
<path d="M9.146 21.908c-0.19 0-0.378-0.081-0.51-0.237-0.238-0.281-0.203-0.702 0.079-0.939l6.236-5.265c0.284-0.238 0.703-0.202 0.939 0.079 0.238 0.282 0.203 0.702-0.079 0.94l-6.236 5.264c-0.126 0.105-0.278 0.157-0.43 0.157z"></path>
<path d="M15.381 16.643c-0.203 0-0.403-0.092-0.534-0.267-0.221-0.296-0.161-0.713 0.133-0.934 0.293-0.223 0.713-0.163 0.934 0.132s0.163 0.712-0.132 0.933l-0.003 0.001c-0.12 0.090-0.26 0.134-0.399 0.134z"></path>
<path d="M15.38 16.643c-0.152 0-0.304-0.052-0.43-0.158l-6.236-5.266c-0.281-0.237-0.316-0.658-0.079-0.939 0.236-0.281 0.655-0.318 0.939-0.079l6.236 5.266c0.281 0.237 0.316 0.658 0.079 0.939-0.132 0.156-0.32 0.237-0.51 0.237z"></path>
<path d="M15.383 16.645c-0.139 0-0.279-0.043-0.399-0.133-0.295-0.221-0.356-0.64-0.135-0.935s0.639-0.355 0.932-0.134l0.003 0.002c0.295 0.221 0.355 0.639 0.133 0.933-0.131 0.175-0.331 0.267-0.534 0.267z"></path>
<path d="M15.384 16.641c-0.19 0-0.378-0.081-0.51-0.237-0.238-0.281-0.203-0.702 0.079-0.939l6.001-5.068-4.904-4.141v4.952c0 0.369-0.299 0.667-0.667 0.667s-0.667-0.298-0.667-0.667v-6.387c0-0.26 0.15-0.495 0.386-0.605 0.234-0.11 0.512-0.074 0.711 0.096l6.604 5.576c0.151 0.126 0.237 0.313 0.237 0.509s-0.086 0.383-0.237 0.509l-6.604 5.577c-0.126 0.106-0.278 0.158-0.43 0.158z"></path>
<path d="M15.383 27.798c-0.095 0-0.191-0.021-0.281-0.063-0.236-0.109-0.386-0.345-0.386-0.604v-6.388c0-0.369 0.298-0.667 0.667-0.667s0.667 0.298 0.667 0.667v4.953l4.904-4.142-6.004-5.069c-0.281-0.238-0.316-0.658-0.079-0.94 0.236-0.281 0.655-0.318 0.939-0.079l6.607 5.579c0.151 0.126 0.237 0.313 0.237 0.509s-0.086 0.383-0.237 0.509l-6.604 5.577c-0.123 0.104-0.276 0.158-0.43 0.158z"></path>
<path d="M16.315 31.711h-0.583c-6.489 0-11.768-5.279-11.768-11.768v-7.885c0-6.489 5.279-11.768 11.768-11.768h0.583c6.488 0 11.767 5.279 11.767 11.768v7.885c0 6.489-5.279 11.768-11.767 11.768zM15.732 1.623c-5.754 0-10.435 4.681-10.435 10.434v7.885c0 5.754 4.681 10.435 10.435 10.435h0.583c5.753 0 10.434-4.681 10.434-10.435v-7.885c0-5.753-4.681-10.434-10.434-10.434h-0.583z"></path>
</svg>
