<svg version="1.1" xmlns="http://www.w3.org/2000/svg" width="32" height="32" viewBox="0 0 32 32">
<title>bookmark_tag</title>
<path d="M8.225 31.628c-0.428 0-0.84-0.189-1.13-0.521-0.276-0.315-0.428-0.742-0.428-1.202v-29.238c0-0.369 0.298-0.667 0.667-0.667h17.333c0.369 0 0.667 0.298 0.667 0.667v29.237c0 0.966-0.694 1.723-1.581 1.723-0.369 0-0.729-0.133-1.042-0.384l-6.779-6.569-6.619 6.526c-0.365 0.296-0.723 0.429-1.088 0.429zM8 1.333v28.572c0 0.184 0.062 0.283 0.099 0.325 0.087 0.099 0.198 0.078 0.329-0.027l7.032-6.937c0.257-0.253 0.673-0.255 0.932-0.004l7.199 6.982c0.079 0.052 0.408 0.044 0.409-0.34v-28.57h-16z"></path>
</svg>
