<svg version="1.1" xmlns="http://www.w3.org/2000/svg" width="32" height="32" viewBox="0 0 32 32">
<title>book_reading_read_manual2</title>
<path d="M11.294 31.846c-0.145 0-0.287-0.047-0.405-0.137-0.165-0.126-0.262-0.322-0.262-0.53v-21.505c0-0.301 0.201-0.564 0.492-0.643l16.035-4.37c0.204-0.053 0.417-0.012 0.581 0.113 0.165 0.126 0.262 0.322 0.262 0.53v21.505c0 0.301-0.202 0.564-0.491 0.643l-16.036 4.37c-0.057 0.016-0.117 0.023-0.175 0.023zM11.961 10.184v20.123l14.702-4.007v-20.124l-14.702 4.007z"></path>
<path d="M7.3 8.852c-0.288 0-0.555-0.189-0.64-0.479-0.103-0.353 0.099-0.724 0.453-0.827l15.432-4.52c0.355-0.105 0.724 0.1 0.827 0.453 0.104 0.353-0.099 0.724-0.452 0.827l-15.432 4.52c-0.063 0.018-0.126 0.027-0.187 0.027z"></path>
<path d="M5.97 6.272c-0.288 0-0.553-0.187-0.639-0.477-0.105-0.353 0.097-0.724 0.45-0.829l16.124-4.785c0.236-0.069 0.497-0.003 0.671 0.177s0.231 0.44 0.151 0.676c-0.010 0.032-0.284 0.923 0.292 1.792 0.648 0.979 2.164 1.607 4.383 1.814 0.366 0.035 0.635 0.359 0.602 0.726-0.035 0.367-0.346 0.637-0.727 0.602-2.691-0.252-4.504-1.071-5.388-2.434-0.41-0.633-0.543-1.271-0.563-1.79l-15.166 4.501c-0.063 0.019-0.127 0.027-0.189 0.027z"></path>
<path d="M11.39 31.846c-0.018 0-0.036-0.001-0.055-0.003-5.93-0.487-6.007-5.129-6.007-5.176l-0.024-21.062c-0.001-0.368 0.297-0.667 0.666-0.667h0.001c0.368 0 0.666 0.298 0.667 0.666l0.024 21.061c0.002 0.138 0.104 3.465 4.783 3.85 0.367 0.030 0.64 0.352 0.61 0.719-0.029 0.348-0.32 0.612-0.664 0.612z"></path>
<path d="M11.39 10.342c-0.018 0-0.036-0.001-0.055-0.002-5.926-0.487-6.031-4.686-6.031-4.728-0.003-0.369 0.293-0.669 0.661-0.673 0.389-0.049 0.666 0.29 0.673 0.655 0.003 0.126 0.138 3.033 4.807 3.417 0.367 0.031 0.64 0.352 0.61 0.719-0.029 0.348-0.32 0.612-0.664 0.612z"></path>
</svg>
