<svg version="1.1" xmlns="http://www.w3.org/2000/svg" width="32" height="32" viewBox="0 0 32 32">
<title>book_writing_reading_read_manual</title>
<path d="M15.301 31.893c-0.137 0-0.273-0.042-0.388-0.125-0.055-0.039-5.605-3.947-12.295-3.947l-0.283 0.003c-0.004 0-0.008 0-0.011 0-0.344 0-0.633-0.263-0.664-0.608l-1.608-18.045c-0.027-0.298 0.149-0.578 0.43-0.684 0.072-0.027 0.751-0.267 2.156-0.267 2.32 0 6.449 0.644 12.949 3.709 0.233 0.11 0.382 0.345 0.382 0.603v18.695c0 0.25-0.14 0.478-0.362 0.592-0.096 0.050-0.201 0.074-0.305 0.074zM2.934 26.491c5.286 0.087 9.744 2.35 11.701 3.517v-17.051c-6.053-2.807-9.859-3.403-11.997-3.403-0.529 0-0.928 0.038-1.205 0.081l1.502 16.857z"></path>
<path d="M15.301 31.893c-0.105 0-0.21-0.025-0.307-0.074-0.221-0.115-0.36-0.344-0.36-0.592v-18.695c0-0.258 0.149-0.493 0.382-0.603 6.499-3.065 10.68-3.709 13.042-3.709 1.426 0 2.121 0.238 2.195 0.265 0.285 0.103 0.464 0.386 0.436 0.688l-1.678 18.046c-0.033 0.344-0.32 0.605-0.664 0.605-0.004 0-0.008 0-0.010 0l-0.284-0.003c-6.71 0-12.312 3.91-12.368 3.949-0.115 0.081-0.249 0.122-0.385 0.122zM15.967 12.956v17.058c1.969-1.164 6.473-3.436 11.772-3.523l1.568-16.855c-0.285-0.043-0.699-0.083-1.249-0.083-2.181-0-6.035 0.596-12.091 3.403z"></path>
<path d="M15.308 13.198c-0.072 0-0.146-0.012-0.217-0.036-0.295-0.102-0.481-0.395-0.445-0.705 0.039-0.344 1.1-8.462 12.876-11.19 0.365-0.081 0.717 0.141 0.801 0.499s-0.141 0.717-0.499 0.8c-6.096 1.412-9.079 4.374-10.526 6.717 2.237-1.982 6.018-4.301 11.655-4.612 0.378-0.024 0.682 0.262 0.702 0.629 0.021 0.367-0.26 0.682-0.629 0.702-9.131 0.504-13.11 6.814-13.15 6.878-0.124 0.202-0.342 0.318-0.568 0.318z"></path>
<path d="M15.399 13.198c-0.227 0-0.445-0.116-0.568-0.318-0.040-0.063-4.019-6.374-13.15-6.878-0.368-0.020-0.65-0.335-0.629-0.702 0.020-0.369 0.331-0.661 0.702-0.629 5.697 0.314 9.498 2.679 11.727 4.675-1.415-2.348-4.389-5.342-10.596-6.78-0.359-0.083-0.582-0.441-0.499-0.8 0.084-0.358 0.445-0.58 0.8-0.499 11.777 2.729 12.838 10.846 12.877 11.19 0.035 0.31-0.15 0.603-0.445 0.705-0.071 0.025-0.145 0.037-0.217 0.037z"></path>
</svg>
