<!-- Generated by IcoMoon.io -->
<svg version="1.1" xmlns="http://www.w3.org/2000/svg" width="32" height="32" viewBox="0 0 32 32">
<title>book_reading_read_manual</title>
<path fill="none" stroke-linejoin="round" stroke-linecap="round" stroke-miterlimit="4" stroke-width="2" stroke="#000" d="M16 10c1-3.947 4.777-5.963 13-6 0.001 0 0.002 0 0.004 0 0.55 0 0.996 0.446 0.996 0.996 0 0.001 0 0.003 0 0.004v-0 18c0 0.552-0.448 1-1 1v0c-8 0-11.091 1.613-13 4-1.898-2.375-5-4-13-4-0.618 0-1-0.503-1-1.121v-17.879c0-0.001 0-0.002 0-0.004 0-0.55 0.446-0.996 0.996-0.996 0.001 0 0.003 0 0.004 0h-0c8.223 0.037 12 2.053 13 6zM16 10v18"></path>
</svg>
