<!-- Generated by IcoMoon.io -->
<svg version="1.1" xmlns="http://www.w3.org/2000/svg" width="32" height="32" viewBox="0 0 32 32">
<title>book_reading_read_manual</title>
<path d="M29 3c-6.9 0-11.1 1.4-13 4.5-1.9-3.1-6.1-4.5-13-4.5-1.1 0-2 0.9-2 2v17.9c0 1.2 0.9 2.1 2 2.1 8.2 0 10.7 1.7 12.2 3.6 0 0 0 0 0 0.1 0 0 0 0.1 0.1 0.1 0 0 0 0 0 0 0.2 0.2 0.4 0.2 0.7 0.2v0c0 0 0 0 0 0s0 0 0 0 0 0 0 0v0c0 0 0 0 0 0s0 0 0 0 0 0 0 0 0 0 0 0 0 0 0 0c0.3 0 0.5-0.1 0.7-0.2 0 0 0.1-0.1 0.1-0.1s0 0 0 0 0 0 0-0.1c1.5-1.9 4-3.6 12.2-3.6 1.1 0 2-0.9 2-2v-18c0-1.1-0.9-2-2-2zM15 25.7c-2.5-1.9-6.1-2.7-11.8-2.7-0.1 0-0.1 0-0.2 0 0 0 0-0.1 0-0.1v-17.9c9.3 0 11.4 2.7 12 5.1v15.6zM29 23c-5.8 0-9.5 0.8-12 2.7v-15.6c0.6-2.4 2.7-5.1 12-5.1v18z"></path>
</svg>
