<svg version="1.1" xmlns="http://www.w3.org/2000/svg" width="32" height="32" viewBox="0 0 32 32">
<title>bookmarks_reading_book</title>
<path d="M15.956 31.802c-0.329 0-0.612-0.242-0.659-0.572-0.403-2.81-9.169-3.087-14.604-2.598-0.184 0.017-0.371-0.047-0.509-0.172-0.138-0.126-0.217-0.305-0.217-0.492v-25.807c0-0.185 0.077-0.361 0.212-0.488s0.316-0.186 0.501-0.178c0 0 1.057 0.074 2.751 0.279 0.366 0.045 0.626 0.377 0.582 0.742s-0.371 0.624-0.742 0.582c-0.832-0.101-1.506-0.169-1.971-0.212v24.36c2.669-0.19 10.758-0.544 13.99 1.784v-1.945c0-0.369 0.298-0.667 0.667-0.667s0.666 0.298 0.666 0.667v4.049c0 0.35-0.269 0.641-0.619 0.665-0.016 0.001-0.032 0.001-0.048 0.001z"></path>
<path d="M15.957 31.802c-0.031 0-0.063-0.003-0.096-0.007-0.365-0.053-0.617-0.391-0.565-0.755 0.649-4.503 12.045-4.023 15.317-3.793v-24.364c-0.471 0.042-1.152 0.107-1.971 0.206-0.366 0.040-0.698-0.216-0.741-0.583-0.044-0.366 0.216-0.698 0.582-0.742 1.65-0.197 2.754-0.268 2.754-0.268 0.186-0.008 0.365 0.054 0.499 0.179 0.134 0.126 0.211 0.302 0.211 0.486v25.807c0 0.187-0.078 0.366-0.216 0.492-0.139 0.125-0.311 0.185-0.51 0.172-5.435-0.486-14.199-0.208-14.604 2.598-0.047 0.332-0.332 0.572-0.659 0.572z"></path>
<path d="M15.956 27.753c-0.327 0-0.61-0.24-0.659-0.569-0.195-1.32-3.257-2.108-8.191-2.108-2.050 0-3.682 0.139-3.698 0.141-0.185 0.013-0.37-0.047-0.508-0.173s-0.216-0.305-0.216-0.491v-23.568c0-0.184 0.076-0.359 0.21-0.486s0.317-0.189 0.497-0.18c2.107 0.128 12.646 0.967 13.225 4.888l0.007 21.88c0 0.349-0.268 0.639-0.617 0.665-0.016 0.001-0.033 0.001-0.049 0.001zM7.106 23.742c3.949 0 6.686 0.474 8.184 1.415v-19.853c-0.289-1.909-6.54-3.23-11.273-3.605v22.137c0.685-0.042 1.798-0.094 3.089-0.094z"></path>
<path d="M15.957 27.753c-0.016 0-0.033 0-0.049-0.001-0.348-0.026-0.618-0.316-0.618-0.665v-21.782c0.588-4.019 11.126-4.857 13.232-4.986 0.189-0.009 0.365 0.054 0.497 0.18 0.134 0.126 0.21 0.302 0.21 0.486v23.568c0 0.186-0.078 0.365-0.216 0.491s-0.332 0.187-0.508 0.173c-0.017-0.001-1.648-0.141-3.699-0.141-4.932 0-7.995 0.788-8.19 2.108-0.048 0.329-0.331 0.569-0.659 0.569zM27.896 1.699c-4.732 0.376-10.984 1.702-11.28 3.703l0.007 19.756c1.497-0.941 4.234-1.415 8.184-1.415 1.292 0 2.405 0.052 3.090 0.094v-22.137z"></path>
</svg>
