<svg version="1.1" xmlns="http://www.w3.org/2000/svg" width="32" height="32" viewBox="0 0 32 32">
<title>book_reading_read_manual</title>
<path d="M11.275 13.333h-6.618c-0.369 0-0.667-0.298-0.667-0.667s0.298-0.667 0.667-0.667h6.618c0.369 0 0.667 0.298 0.667 0.667s-0.298 0.667-0.667 0.667z"></path>
<path d="M11.275 17.333h-6.618c-0.369 0-0.667-0.298-0.667-0.667s0.298-0.667 0.667-0.667h6.618c0.369 0 0.667 0.298 0.667 0.667s-0.298 0.667-0.667 0.667z"></path>
<path d="M11.275 21.333h-6.618c-0.369 0-0.667-0.298-0.667-0.667s0.298-0.667 0.667-0.667h6.618c0.369 0 0.667 0.298 0.667 0.667s-0.298 0.667-0.667 0.667z"></path>
<path d="M27.262 13.333h-6.581c-0.369 0-0.667-0.298-0.667-0.667s0.298-0.667 0.667-0.667h6.581c0.369 0 0.667 0.298 0.667 0.667s-0.298 0.667-0.667 0.667z"></path>
<path d="M27.262 17.333h-6.581c-0.369 0-0.667-0.298-0.667-0.667s0.298-0.667 0.667-0.667h6.581c0.369 0 0.667 0.298 0.667 0.667s-0.298 0.667-0.667 0.667z"></path>
<path d="M27.262 21.333h-6.581c-0.369 0-0.667-0.298-0.667-0.667s0.298-0.667 0.667-0.667h6.581c0.369 0 0.667 0.298 0.667 0.667s-0.298 0.667-0.667 0.667z"></path>
<path d="M15.953 28.111c-0.030 0-0.061-0.003-0.091-0.007-2.874-0.393-4.831-0.592-7.553-0.592-3.058 0-6.268 0.247-7.467 0.575-0.2 0.056-0.415 0.013-0.58-0.113s-0.262-0.321-0.262-0.53v-19.544c0-1.977 4.174-2.863 8.31-2.863s8.31 0.885 8.31 2.863v19.544c0 0.193-0.083 0.376-0.228 0.503-0.122 0.107-0.279 0.164-0.439 0.164zM8.31 26.178c2.551 0 4.44 0.169 6.977 0.504v-18.782c-0.047-0.457-2.479-1.529-6.977-1.529s-6.929 1.072-6.977 1.53v18.721c1.79-0.303 4.712-0.444 6.977-0.444z"></path>
<path d="M31.24 28.111c-0.059 0-0.119-0.008-0.176-0.023-1.199-0.328-4.409-0.575-7.466-0.575-2.721 0-4.68 0.199-7.555 0.592-0.192 0.025-0.383-0.031-0.528-0.158s-0.229-0.31-0.229-0.503v-19.543c0-1.977 4.175-2.863 8.311-2.863 4.135 0 8.309 0.885 8.309 2.863v19.544c0 0.208-0.096 0.404-0.262 0.53-0.119 0.090-0.26 0.137-0.405 0.137zM23.598 6.371c-4.497 0-6.93 1.072-6.978 1.53v18.781c2.538-0.335 4.427-0.504 6.978-0.504 2.264 0 5.186 0.141 6.975 0.444v-18.722c-0.047-0.457-2.478-1.529-6.975-1.529z"></path>
</svg>
