<svg version="1.1" xmlns="http://www.w3.org/2000/svg" width="32" height="32"  viewBox="0 0 32 32">
<path d="M77.5,23.8l-4.3-4.4c-0.1-0.2-0.3-0.3-0.5-0.3c-0.2,0-0.4,0-0.6,0.1c-0.2,0.1-0.4,0.2-0.5,0.4c-0.1,0.2-0.2,0.4-0.2,0.6v3.3
	c-5.6-0.6-10.7,3.7-10.7,9.7v4.8c0,1.8-0.7,3.6-1.8,5c-1.2,1.4-2.8,2.2-4.6,2.5c-1.4-5-8.4-4.1-8.5,1.2c0.1,5.3,7.3,6.1,8.5,1.1
	c2.3-0.2,4.5-1.3,6.1-3.1c1.6-1.8,2.5-4.1,2.5-6.5v-4.8c0-2,0.8-3.9,2.1-5.3c1.4-1.4,3.2-2.2,5.1-2.2h1.3V29c0,0.2,0.1,0.4,0.2,0.6
	c0.1,0.2,0.3,0.3,0.5,0.4c0.2,0.1,0.4,0.1,0.6,0.1c0.2,0,0.4-0.1,0.5-0.3l4.3-4.4c0.1-0.1,0.2-0.2,0.2-0.4s0.1-0.3,0.1-0.4
	c0-0.1,0-0.3-0.1-0.4C77.7,24.1,77.6,24,77.5,23.8z"/>
<path d="M22,2H10C7.8,2,6,3.8,6,6v23c0,0.4,0.2,0.8,0.6,0.9C7,30.1,7.4,30,7.7,29.7l8.3-7.4l8.3,7.4c0.2,0.2,0.4,0.3,0.7,0.3
	c0.1,0,0.3,0,0.4-0.1c0.4-0.2,0.6-0.5,0.6-0.9V6C26,3.8,24.2,2,22,2z"/>
</svg>
