<svg version="1.1" xmlns="http://www.w3.org/2000/svg" width="32" height="32" viewBox="0 0 32 32">
<title>book_reading_read_bookmark</title>
<path d="M11.346 13.333h-6.659c-0.369 0-0.667-0.298-0.667-0.667s0.298-0.667 0.667-0.667h6.659c0.369 0 0.667 0.298 0.667 0.667s-0.298 0.667-0.667 0.667z"></path>
<path d="M11.346 17.333h-6.659c-0.369 0-0.667-0.298-0.667-0.667s0.298-0.667 0.667-0.667h6.659c0.369 0 0.667 0.298 0.667 0.667s-0.298 0.667-0.667 0.667z"></path>
<path d="M11.346 21.333h-6.659c-0.369 0-0.667-0.298-0.667-0.667s0.298-0.667 0.667-0.667h6.659c0.369 0 0.667 0.298 0.667 0.667s-0.298 0.667-0.667 0.667z"></path>
<path d="M15.333 28.309c-0.062 0-0.124-0.009-0.185-0.026-1.164-0.336-4.171-0.581-7.149-0.581-2.624 0-4.425 0.194-7.238 0.6-0.186 0.023-0.385-0.030-0.531-0.156s-0.231-0.31-0.231-0.504v-19.829c0-1.999 4.018-2.894 7.999-2.894s8.001 0.895 8.001 2.894v19.829c0 0.21-0.098 0.408-0.266 0.533-0.117 0.089-0.258 0.134-0.4 0.134zM7.999 6.253c-4.398 0-6.666 1.094-6.666 1.561v19.061c2.458-0.341 4.206-0.505 6.666-0.505 2.159 0 4.943 0.141 6.667 0.444v-18.999c0-0.467-2.268-1.561-6.667-1.561z"></path>
<path d="M15.333 28.309c-0.165 0-0.325-0.061-0.448-0.173-0.139-0.126-0.219-0.306-0.219-0.493v-19.829c0-1.589 2.483-2.297 4.566-2.613 0.365-0.049 0.704 0.195 0.759 0.559 0.056 0.364-0.195 0.704-0.559 0.758-2.62 0.397-3.434 1.088-3.434 1.295v19.093c0.664-0.065 1.246-0.126 1.772-0.181 2.215-0.231 3.434-0.357 5.561-0.357 2.393 0 4.743 0.161 7.333 0.508v-19.063c-0.035-0.202-0.917-0.89-3.439-1.296-0.363-0.059-0.611-0.4-0.552-0.764 0.057-0.363 0.402-0.61 0.763-0.552 1.703 0.274 4.561 0.978 4.561 2.612v19.829c0 0.194-0.085 0.378-0.231 0.504s-0.337 0.181-0.531 0.156c-2.832-0.41-5.344-0.6-7.905-0.6-2.059 0-3.254 0.124-5.423 0.35-0.712 0.074-1.529 0.159-2.513 0.254-0.021 0.001-0.042 0.003-0.064 0.003z"></path>
<path d="M20.035 19.249c-0.306 0-0.609-0.094-0.855-0.263-0.326-0.225-0.513-0.564-0.513-0.928v-14.724c0-0.369 0.298-0.667 0.667-0.667h8c0.369 0 0.667 0.298 0.667 0.667v14.71c0 0.656-0.592 1.191-1.322 1.191-0.309 0-0.599-0.104-0.816-0.294l-2.46-2.079-2.568 2.119c-0.194 0.167-0.486 0.269-0.799 0.269zM20 17.905c0.019 0.005 0.035 0.010 0.035 0.010l0.013-0.001 2.645-2.091c0.391-0.335 1.147-0.352 1.578 0.026l2.396 2.024v-13.874h-6.667v13.905z"></path>
</svg>
