<svg version="1.1" xmlns="http://www.w3.org/2000/svg" width="32" height="32" viewBox="0 0 32 32">
<title>box_clipboard</title>
<path d="M31.335 18.737c-0.187 0-0.374-0.078-0.505-0.232l-5.583-6.49h-18.492l-5.583 6.49c-0.241 0.28-0.661 0.309-0.94 0.070-0.279-0.24-0.311-0.661-0.070-0.94l5.783-6.722c0.126-0.147 0.311-0.232 0.505-0.232h19.103c0.194 0 0.379 0.085 0.505 0.232l5.783 6.722c0.241 0.279 0.208 0.701-0.070 0.94-0.126 0.108-0.281 0.161-0.435 0.161z"></path>
<path d="M28.857 32.017h-25.713c-1.734 0-3.145-1.41-3.145-3.145v-10.802c0-0.369 0.298-0.667 0.667-0.667h9.421c0.369 0 0.667 0.298 0.667 0.667v3.055c0 0.869 0.706 1.574 1.574 1.574h7.413c0.869 0 1.574-0.706 1.574-1.574v-3.055c0-0.369 0.298-0.667 0.667-0.667h9.353c0.369 0 0.667 0.298 0.667 0.667v10.802c0 1.734-1.41 3.145-3.145 3.145zM1.333 18.737v10.135c0 0.999 0.813 1.811 1.811 1.811h25.713c0.999 0 1.811-0.813 1.811-1.811v-10.135h-8.019v2.388c0 1.603-1.305 2.908-2.908 2.908h-7.413c-1.603 0-2.907-1.305-2.907-2.908v-2.388h-8.088z"></path>
</svg>
