<svg version="1.1" xmlns="http://www.w3.org/2000/svg" width="32" height="32" viewBox="0 0 32 32">
<title>box_load_package_module</title>
<path d="M15.333 31.669c-0.135 0-0.268-0.040-0.382-0.12-0.178-0.125-0.285-0.33-0.285-0.547v-14.182c0-0.28 0.175-0.53 0.438-0.626l11.999-4.383c0.206-0.075 0.434-0.044 0.611 0.080 0.178 0.124 0.285 0.329 0.285 0.546v14.182c0 0.28-0.175 0.53-0.437 0.626l-12.001 4.384c-0.074 0.027-0.152 0.041-0.229 0.041zM16 17.286v12.763l10.667-3.897v-12.762l-10.667 3.897z"></path>
<path d="M15.333 31.669c-0.077 0-0.154-0.013-0.229-0.040l-12-4.384c-0.263-0.096-0.438-0.346-0.438-0.626v-14.182c0-0.217 0.106-0.422 0.285-0.546s0.406-0.155 0.611-0.080l12 4.383c0.263 0.096 0.438 0.346 0.438 0.626v14.182c0 0.217-0.106 0.422-0.285 0.547-0.114 0.079-0.247 0.12-0.382 0.12zM4 26.152l10.667 3.897v-12.763l-10.667-3.897v12.762z"></path>
<path d="M15.333 12.943c-0.369 0-0.667-0.298-0.667-0.667v-10.951c0-0.369 0.298-0.667 0.667-0.667s0.667 0.298 0.667 0.667v10.951c0 0.369-0.298 0.667-0.667 0.667z"></path>
<path d="M18.909 5.565c-0.171 0-0.341-0.065-0.471-0.195l-3.098-3.097-3.021 3.092c-0.256 0.264-0.677 0.27-0.943 0.010-0.263-0.257-0.268-0.679-0.010-0.943l3.492-3.574c0.125-0.128 0.296-0.262 0.477-0.201 0.176 0 0.346 0.070 0.471 0.195l3.575 3.574c0.26 0.26 0.26 0.682 0 0.943-0.13 0.13-0.301 0.195-0.471 0.195z"></path>
<path d="M15.339 17.487c-0.077 0-0.155-0.013-0.229-0.040l-12.006-4.383c-0.263-0.096-0.438-0.346-0.438-0.626s0.175-0.531 0.439-0.626l9.373-3.415c0.348-0.125 0.729 0.053 0.855 0.398 0.126 0.346-0.052 0.729-0.398 0.855l-7.656 2.789 10.060 3.673 10.050-3.673-7.595-2.771c-0.346-0.126-0.525-0.509-0.398-0.855 0.128-0.344 0.514-0.523 0.854-0.398l9.311 3.397c0.263 0.096 0.439 0.346 0.439 0.626s-0.175 0.53-0.437 0.626l-11.994 4.383c-0.074 0.027-0.152 0.040-0.229 0.040z"></path>
</svg>
