<!-- Generated by IcoMoon.io -->
<svg version="1.1" xmlns="http://www.w3.org/2000/svg" width="32" height="32" viewBox="0 0 32 32">
<title>box_shipping_modules</title>
<path d="M28.8 17.5c-0.2-0.3-0.4-0.5-0.6-0.6l-4.9-2.9c-0.1-0.1-0.3-0.1-0.4-0.2 0-0.1 0-0.1 0-0.2 0 0 0 0 0 0v-5.4c0-0.3-0.1-0.6-0.2-0.9-0.2-0.3-0.4-0.5-0.7-0.7l-4.9-2.8c-0.7-0.4-1.6-0.4-2.3 0l-4.8 2.8c-0.3 0.2-0.5 0.4-0.6 0.7-0.2 0.3-0.3 0.6-0.3 0.9v5.5c0 0.1 0 0.1 0 0.2-0.1 0-0.3 0.1-0.4 0.2l-4.9 2.8c-0.3 0.2-0.5 0.4-0.6 0.6s-0.2 0.6-0.2 0.9v5.5c0 0.3 0.1 0.6 0.2 0.9 0.2 0.3 0.4 0.5 0.6 0.7l4.9 2.8c0.3 0.2 0.7 0.3 1.1 0.3 0 0 0 0 0 0s0 0 0 0c0.4 0 0.8-0.1 1.1-0.3l4.9-2.8c0 0 0.1-0.1 0.1-0.1s0.1 0.1 0.1 0.1l4.9 2.8c0.3 0.2 0.7 0.3 1.1 0.3 0 0 0 0 0 0s0 0 0 0c0.4 0 0.8-0.1 1.1-0.3l4.9-2.8c0.3-0.2 0.5-0.4 0.6-0.7 0.2-0.3 0.2-0.6 0.2-0.9 0 0 0 0 0 0v-5.5c0.3-0.3 0.2-0.6 0-0.9zM26.8 17.8l-4.6 2.7-4.6-2.7 4.2-2.5c0.1-0.1 0.2-0.1 0.4-0.1 0.1 0 0.3 0 0.4 0.1l4.2 2.5zM10.8 13.9c-0.1-0.1-0.1-0.1 0 0-0.1-0.1-0.1-0.2-0.1-0.2v-4.8l4.6 2.7v4.9l-4.3-2.5c0 0 0 0 0 0l-0.2-0.1zM21.4 8.9v4.8c0 0 0 0.1 0 0.1s-0.1 0.1-0.1 0.1l-0.2 0.1c0 0 0 0 0 0l-4.2 2.5v-4.9l4.5-2.7zM15.6 5.1c0.2-0.1 0.3-0.1 0.4-0.1s0.3 0 0.4 0.1l4.2 2.5-4.6 2.7-4.6-2.7 4.2-2.5zM9.5 15.3c0.1-0.1 0.3-0.1 0.4-0.1s0.3 0 0.4 0.1l4.2 2.5-4.6 2.7-4.6-2.7 4.2-2.5zM4.6 24.1c0-0.1 0-0.1 0 0-0.1-0.1-0.1-0.2-0.1-0.2v-4.8l4.6 2.7v4.9l-4.5-2.6zM15.3 23.8c0 0 0 0.1 0 0.1s-0.1 0.1-0.1 0.1l-4.5 2.6v-4.9l4.6-2.7v4.8zM16.9 24.1c0-0.1-0.1-0.1 0 0-0.1-0.1-0.1-0.2-0.1-0.2v-4.8l4.6 2.7v4.9l-4.5-2.6zM27.6 23.8c0 0 0 0.1 0 0.1s-0.1 0.1-0.1 0.1l-4.5 2.6v-4.9l4.6-2.7v4.8z"></path>
</svg>
