<svg version="1.1" xmlns="http://www.w3.org/2000/svg" width="32" height="32" viewBox="0 0 32 32">
<title>box_shipping_modules</title>
<path d="M8.694 31.711c-0.126 0-0.252-0.036-0.361-0.107-0.19-0.122-0.305-0.333-0.305-0.56v-10.447c0-0.262 0.153-0.499 0.391-0.607l7.286-3.302c0.205-0.095 0.444-0.075 0.637 0.047 0.19 0.122 0.305 0.333 0.305 0.56v10.448c0 0.262-0.152 0.499-0.391 0.607l-7.286 3.301c-0.088 0.041-0.182 0.060-0.275 0.060zM9.361 21.027v8.983l5.953-2.697v-8.984l-5.953 2.698z"></path>
<path d="M8.694 31.711c-0.086 0-0.172-0.017-0.254-0.051l-8.023-3.301c-0.249-0.102-0.413-0.345-0.413-0.616v-10.448c0-0.223 0.111-0.43 0.296-0.553 0.184-0.126 0.418-0.148 0.625-0.063l8.023 3.302c0.25 0.103 0.413 0.345 0.413 0.616v10.447c0 0.223-0.111 0.43-0.296 0.553-0.111 0.075-0.241 0.113-0.371 0.113zM1.338 27.297l6.689 2.753v-9.005l-6.689-2.754v9.006z"></path>
<path d="M8.694 21.264c-0.086 0-0.173-0.017-0.254-0.051l-8.023-3.302c-0.25-0.103-0.413-0.346-0.413-0.617s0.165-0.514 0.415-0.616l8.023-3.264c0.169-0.067 0.359-0.064 0.524 0.009l7.286 3.264c0.24 0.107 0.393 0.344 0.393 0.607 0.001 0.262-0.152 0.5-0.391 0.608l-7.286 3.302c-0.087 0.040-0.182 0.060-0.275 0.060zM2.432 17.299l6.249 2.572 5.676-2.572-5.675-2.543-6.25 2.543z"></path>
<path d="M15.98 17.962c-0.127 0-0.253-0.036-0.363-0.108-0.189-0.122-0.303-0.333-0.303-0.559v-9.982c0-0.266 0.159-0.508 0.404-0.613l7.353-3.155c0.207-0.090 0.443-0.068 0.63 0.056 0.186 0.123 0.299 0.333 0.299 0.557v9.874c0 0.264-0.155 0.503-0.396 0.609l-7.354 3.264c-0.086 0.038-0.178 0.057-0.27 0.057zM16.647 7.753v8.518l6.019-2.673v-8.428l-6.019 2.583z"></path>
<path d="M15.98 17.962c-0.092 0-0.186-0.019-0.273-0.059l-7.286-3.263c-0.24-0.107-0.394-0.346-0.394-0.609v-9.874c0-0.225 0.113-0.434 0.301-0.557s0.426-0.143 0.631-0.055l7.286 3.155c0.243 0.106 0.401 0.346 0.401 0.612v9.982c0 0.227-0.113 0.436-0.303 0.56-0.109 0.070-0.236 0.107-0.363 0.107zM9.361 13.6l5.953 2.667v-8.516l-5.953-2.577v8.427z"></path>
<path d="M15.98 7.98c-0.091 0-0.18-0.018-0.265-0.055l-7.286-3.155c-0.244-0.106-0.402-0.347-0.402-0.613s0.159-0.507 0.404-0.611l7.286-3.119c0.168-0.072 0.358-0.072 0.522-0.001l7.354 3.119c0.246 0.105 0.406 0.346 0.406 0.613s-0.159 0.508-0.404 0.614l-7.354 3.155c-0.083 0.036-0.173 0.054-0.262 0.054zM10.38 4.161l5.602 2.426 5.653-2.426-5.653-2.398-5.602 2.398z"></path>
<path d="M23.333 31.711c-0.13 0-0.259-0.038-0.37-0.112-0.186-0.124-0.297-0.332-0.297-0.555v-10.447c0-0.269 0.163-0.513 0.411-0.616l7.954-3.302c0.206-0.085 0.441-0.063 0.625 0.061 0.186 0.124 0.297 0.332 0.297 0.555v10.448c0 0.269-0.163 0.513-0.411 0.616l-7.954 3.301c-0.082 0.034-0.169 0.051-0.255 0.051zM24 21.043v9.003l6.621-2.747v-9.004l-6.621 2.749z"></path>
<path d="M23.333 31.711c-0.092 0-0.186-0.019-0.273-0.059l-7.353-3.301c-0.24-0.107-0.394-0.345-0.394-0.608v-10.448c0-0.227 0.115-0.436 0.305-0.56 0.19-0.121 0.43-0.139 0.635-0.048l7.354 3.302c0.24 0.108 0.393 0.345 0.393 0.608v10.447c0 0.227-0.115 0.436-0.305 0.56-0.109 0.070-0.236 0.107-0.362 0.107zM16.647 27.313l6.019 2.702v-8.986l-6.019-2.703v8.987z"></path>
<path d="M23.333 21.264c-0.094 0-0.186-0.019-0.273-0.059l-7.353-3.302c-0.24-0.108-0.395-0.346-0.394-0.609s0.156-0.501 0.397-0.608l7.353-3.264c0.165-0.074 0.354-0.077 0.523-0.007l7.954 3.263c0.25 0.103 0.414 0.346 0.414 0.616s-0.161 0.513-0.411 0.617l-7.954 3.302c-0.082 0.034-0.168 0.051-0.255 0.051zM17.615 17.299l5.729 2.572 6.197-2.572-6.197-2.543-5.729 2.543z"></path>
</svg>
