<!-- Generated by IcoMoon.io -->
<svg version="1.1" xmlns="http://www.w3.org/2000/svg" width="32" height="32" viewBox="0 0 32 32">
<title>box_clipboard</title>
<path d="M30 16.8l-2-9.5c-0.4-2.1-1.9-3.3-4-3.3h-16c-2.1 0-3.6 1.2-4 3.3l-2 9.5c0 0.1 0 0.1 0 0.2v7c0 2.2 1.8 4 4 4h20c2.2 0 4-1.8 4-4v-7c0-0.1 0-0.1 0-0.2zM6 7.7c0.2-1.2 0.8-1.7 2-1.7h16c1.2 0 1.8 0.5 2 1.7l1.7 8.3h-7.7c-0.6 0-1 0.4-1 1 0 1.7-1.3 3-3 3s-3-1.3-3-3c0-0.6-0.4-1-1-1h-7.8l1.8-8.3zM26 26h-20c-1.1 0-2-0.9-2-2v-6h7.1c0.5 2.3 2.5 4 4.9 4s4.4-1.7 4.9-4h7.1v6c0 1.1-0.9 2-2 2z"></path>
</svg>
