<!-- Generated by IcoMoon.io -->
<svg version="1.1" xmlns="http://www.w3.org/2000/svg" width="32" height="32" viewBox="0 0 32 32">
<title>box_shipping_modules</title>
<path fill="none" stroke-linejoin="round" stroke-linecap="round" stroke-miterlimit="4" stroke-width="1.5" stroke="#000" d="M16.026 23.827v-5.459c-0-0.179-0.047-0.354-0.136-0.509s-0.217-0.284-0.372-0.374l-4.859-2.828c-0.234-0.136-0.5-0.208-0.771-0.208s-0.537 0.072-0.771 0.208l-4.859 2.828c-0.154 0.090-0.282 0.219-0.372 0.374s-0.136 0.33-0.136 0.509v5.459c0 0.179 0.047 0.354 0.136 0.509s0.217 0.284 0.372 0.374l4.859 2.828c0.234 0.136 0.5 0.208 0.771 0.208s0.537-0.072 0.771-0.208l4.859-2.828c0.154-0.090 0.282-0.219 0.371-0.374s0.136-0.331 0.136-0.509z"></path>
<path fill="none" stroke-linejoin="round" stroke-linecap="round" stroke-miterlimit="4" stroke-width="1.5" stroke="#000" d="M3.91 17.837l5.978 3.517 5.978-3.517M9.888 27.747v-6.394"></path>
<path fill="none" stroke-linejoin="round" stroke-linecap="round" stroke-miterlimit="4" stroke-width="1.5" stroke="#000" d="M28.303 23.826v-5.459c-0-0.179-0.047-0.354-0.136-0.509s-0.217-0.284-0.372-0.374l-4.859-2.828c-0.234-0.136-0.5-0.208-0.771-0.208s-0.537 0.072-0.771 0.208l-4.859 2.828c-0.154 0.090-0.282 0.219-0.372 0.374s-0.136 0.33-0.136 0.509v5.459c0 0.179 0.047 0.354 0.136 0.509s0.217 0.284 0.372 0.374l4.859 2.828c0.234 0.136 0.5 0.208 0.771 0.208s0.537-0.072 0.771-0.208l4.859-2.828c0.154-0.090 0.282-0.219 0.371-0.374s0.136-0.331 0.136-0.509z"></path>
<path fill="none" stroke-linejoin="round" stroke-linecap="round" stroke-miterlimit="4" stroke-width="1.5" stroke="#000" d="M16.186 17.836l5.978 3.517 5.978-3.517M22.164 27.746v-6.394"></path>
<path fill="none" stroke-linejoin="round" stroke-linecap="round" stroke-miterlimit="4" stroke-width="1.5" stroke="#000" d="M22.164 13.628v-5.459c-0-0.179-0.047-0.354-0.136-0.509s-0.217-0.284-0.372-0.374l-4.859-2.828c-0.234-0.136-0.5-0.208-0.771-0.208s-0.537 0.072-0.771 0.208l-4.859 2.828c-0.154 0.090-0.283 0.219-0.372 0.374s-0.136 0.33-0.136 0.509v5.459c0 0.179 0.047 0.354 0.136 0.509s0.217 0.284 0.372 0.374l4.859 2.828c0.234 0.136 0.5 0.208 0.771 0.208s0.537-0.072 0.771-0.208l4.859-2.828c0.154-0.090 0.282-0.219 0.371-0.374s0.136-0.331 0.136-0.509z"></path>
<path fill="none" stroke-linejoin="round" stroke-linecap="round" stroke-miterlimit="4" stroke-width="1.5" stroke="#000" d="M10.048 7.637l5.978 3.517 5.978-3.517M16.026 17.548v-6.394"></path>
</svg>
