<svg version="1.1" xmlns="http://www.w3.org/2000/svg" width="32" height="32" viewBox="0 0 32 32">
<title>brain_thinking_mind_knowledge2</title>
<path d="M13.338 31.749c-0.269 0-0.521-0.164-0.622-0.428-0.311-0.81-0.313-1.531-0.315-2.168-0.003-0.893-0.005-1.598-0.819-2.49-0.147-0.159-0.268-0.303-0.374-0.43-0.361-0.428-0.383-0.454-0.745-0.454-0.239 0-0.583 0.036-1.080 0.117-2.232 0.333-3.894-0.974-3.894-2.862 0-0.753-0.039-0.937-0.056-0.982-0.568-0.563-0.564-1.1-0.409-1.544-0.341-0.272-0.527-0.659-0.527-1.122 0-0.060 0.051-0.372 0.124-0.747 0.024-0.125 0.050-0.258 0.075-0.389-0.62 0-1.566-0.007-1.957-0.965-0.406-0.993 0.405-1.807 0.751-2.154 1.055-1.055 1.711-3.863 1.876-5.386 0.562-6.955 6.702-9.43 11.788-9.43 5.341 0 11.137 2.697 11.881 7.85 0.767 5.314 0.423 5.906-1.486 9.192l-0.202 0.344c-1.016 1.719-3.129 5.294-2.516 10.091 0.042 0.324-0.159 0.631-0.473 0.724l-10.833 3.207c-0.063 0.018-0.127 0.027-0.189 0.027zM10.462 24.445c0.982 0 1.345 0.431 1.764 0.93 0.096 0.113 0.205 0.243 0.338 0.388 1.163 1.272 1.167 2.395 1.169 3.385 0.001 0.374 0.003 0.734 0.065 1.102l9.65-2.857c-0.447-4.961 1.701-8.594 2.751-10.372l0.197-0.335c1.829-3.148 2.021-3.477 1.319-8.332-0.637-4.403-5.794-6.707-10.561-6.707-4.519 0-9.97 2.154-10.46 8.222-0.007 0.063-0.501 4.443-2.26 6.203-0.353 0.354-0.508 0.592-0.46 0.71 0.039 0.095 0.112 0.134 0.684 0.134 0.31 0 0.634 0 0.958 0.070 0.333 0.072 0.559 0.383 0.522 0.723-0.027 0.25-0.126 0.763-0.209 1.186-0.049 0.25-0.092 0.464-0.102 0.543v0c0.003 0 0.004 0.064 0.263 0.13 0.205 0.053 0.373 0.201 0.452 0.397 0.079 0.198 0.060 0.421-0.052 0.6-0.081 0.131-0.216 0.348-0.23 0.428 0.005 0.001 0.028 0.040 0.095 0.108 0.388 0.389 0.466 0.714 0.466 1.932 0 1.167 1.014 1.581 1.881 1.581 0.154 0 0.313-0.012 0.474-0.036 0.571-0.091 0.969-0.133 1.285-0.133z"></path>
<path d="M18.578 13.479c-1.573 0-2.852-1.279-2.852-2.852s1.279-2.852 2.852-2.852 2.853 1.279 2.853 2.852c0 1.572-1.28 2.852-2.853 2.852zM18.578 9.108c-0.837 0-1.518 0.682-1.518 1.519s0.681 1.518 1.518 1.518 1.519-0.681 1.519-1.518-0.682-1.519-1.519-1.519z"></path>
<path d="M18.579 17.194c-0.301 0-0.599-0.021-0.906-0.064-0.297-0.042-0.53-0.276-0.569-0.574l-0.151-1.165c-0.202-0.068-0.398-0.15-0.59-0.244l-0.934 0.718c-0.238 0.182-0.569 0.184-0.808 0.003-0.478-0.361-0.921-0.804-1.283-1.281-0.181-0.24-0.18-0.57 0.003-0.809l0.717-0.934c-0.094-0.191-0.176-0.388-0.245-0.589l-1.167-0.153c-0.297-0.038-0.532-0.272-0.573-0.569-0.083-0.6-0.083-1.209 0-1.813 0.041-0.297 0.276-0.531 0.574-0.57l1.167-0.153c0.069-0.201 0.15-0.398 0.245-0.589l-0.717-0.934c-0.183-0.238-0.184-0.569-0.003-0.809 0.36-0.476 0.803-0.919 1.281-1.281 0.24-0.182 0.57-0.18 0.809 0.003l0.934 0.718c0.191-0.094 0.388-0.175 0.589-0.243l0.152-1.167c0.039-0.297 0.272-0.533 0.57-0.574 0.613-0.085 1.194-0.085 1.813 0.001 0.298 0.041 0.531 0.276 0.57 0.574l0.152 1.167c0.199 0.068 0.396 0.15 0.586 0.243l0.934-0.717c0.238-0.182 0.57-0.185 0.809-0.003 0.484 0.367 0.915 0.798 1.281 1.282 0.181 0.239 0.18 0.571-0.003 0.809l-0.717 0.934c0.092 0.19 0.175 0.385 0.242 0.585l1.167 0.153c0.298 0.038 0.533 0.272 0.574 0.569 0.085 0.612 0.085 1.206 0 1.814-0.042 0.297-0.276 0.531-0.574 0.569l-1.165 0.153c-0.069 0.2-0.15 0.396-0.243 0.585l0.717 0.934c0.182 0.238 0.184 0.568 0.004 0.808-0.367 0.485-0.798 0.917-1.283 1.283-0.241 0.18-0.57 0.18-0.809-0.003l-0.934-0.717c-0.19 0.093-0.385 0.175-0.586 0.243l-0.152 1.169c-0.039 0.297-0.272 0.533-0.57 0.573-0.309 0.043-0.609 0.064-0.908 0.064zM18.358 15.856c0.146 0.007 0.297 0.007 0.445 0l0.141-1.071c0.036-0.273 0.237-0.496 0.504-0.561 0.376-0.091 0.733-0.24 1.060-0.441 0.237-0.143 0.535-0.128 0.755 0.040l0.857 0.658c0.109-0.1 0.215-0.206 0.315-0.316l-0.659-0.857c-0.168-0.219-0.184-0.519-0.039-0.755 0.201-0.329 0.349-0.686 0.439-1.059 0.065-0.268 0.288-0.469 0.563-0.505l1.070-0.14c0.007-0.149 0.007-0.297-0.001-0.447l-1.069-0.14c-0.275-0.036-0.497-0.236-0.563-0.505-0.090-0.373-0.238-0.73-0.44-1.059-0.143-0.236-0.128-0.536 0.040-0.755l0.659-0.856c-0.102-0.109-0.207-0.215-0.316-0.316l-0.855 0.658c-0.22 0.167-0.521 0.184-0.754 0.040-0.331-0.202-0.687-0.35-1.061-0.439-0.268-0.065-0.469-0.288-0.505-0.563l-0.139-1.070c-0.148-0.007-0.297-0.008-0.447 0l-0.139 1.070c-0.036 0.274-0.237 0.497-0.505 0.562-0.374 0.090-0.731 0.238-1.063 0.44-0.234 0.142-0.535 0.128-0.754-0.040l-0.855-0.658c-0.109 0.1-0.215 0.206-0.315 0.315l0.657 0.855c0.168 0.219 0.184 0.519 0.040 0.754-0.202 0.331-0.35 0.689-0.44 1.063-0.064 0.269-0.288 0.469-0.562 0.505l-1.070 0.14c-0.007 0.149-0.007 0.297 0 0.446l1.070 0.14c0.273 0.036 0.497 0.236 0.562 0.505 0.090 0.376 0.238 0.733 0.44 1.063 0.145 0.236 0.128 0.535-0.040 0.755l-0.657 0.855c0.1 0.109 0.206 0.214 0.315 0.315l0.855-0.658c0.219-0.17 0.519-0.185 0.754-0.040 0.332 0.203 0.689 0.35 1.063 0.439 0.268 0.064 0.47 0.288 0.507 0.563l0.139 1.070z"></path>
</svg>
