<!-- Generated by IcoMoon.io -->
<svg version="1.1" xmlns="http://www.w3.org/2000/svg" width="32" height="32" viewBox="0 0 32 32">
<title>bubble_chart</title>
<path d="M14.085 9.048c0 2.211-1.793 4.004-4.004 4.004s-4.004-1.793-4.004-4.004c0-2.211 1.793-4.004 4.004-4.004s4.004 1.793 4.004 4.004z"></path>
<path d="M25.701 9.931c0 1.973-1.599 3.572-3.572 3.572s-3.572-1.599-3.572-3.572c0-1.973 1.599-3.572 3.572-3.572s3.572 1.599 3.572 3.572z"></path>
<path d="M27.364 21.165c0 1.973-1.599 3.572-3.572 3.572s-3.572-1.599-3.572-3.572c0-1.973 1.599-3.572 3.572-3.572s3.572 1.599 3.572 3.572z"></path>
<path d="M8.023 24.736c0 1.973-1.599 3.572-3.572 3.572s-3.572-1.599-3.572-3.572c0-1.973 1.599-3.572 3.572-3.572s3.572 1.599 3.572 3.572z"></path>
<path d="M13.332 19.292c0 1.038-0.841 1.879-1.879 1.879s-1.879-0.841-1.879-1.879c0-1.038 0.841-1.879 1.879-1.879s1.879 0.841 1.879 1.879z"></path>
<path d="M15.213 25.255c0 1.038-0.841 1.879-1.879 1.879s-1.879-0.841-1.879-1.879c0-1.038 0.841-1.879 1.879-1.879s1.879 0.841 1.879 1.879z"></path>
<path d="M19.443 18.296c0 1.038-0.841 1.879-1.879 1.879s-1.879-0.841-1.879-1.879c0-1.038 0.841-1.879 1.879-1.879s1.879 0.841 1.879 1.879z"></path>
<path d="M16.485 14.3c0 1.038-0.841 1.879-1.879 1.879s-1.879-0.841-1.879-1.879c0-1.038 0.841-1.879 1.879-1.879s1.879 0.841 1.879 1.879z"></path>
<path d="M31.123 6.36c0 1.038-0.841 1.879-1.879 1.879s-1.879-0.841-1.879-1.879c0-1.038 0.841-1.879 1.879-1.879s1.879 0.841 1.879 1.879z"></path>
<path d="M8.208 16.796c0 1.038-0.841 1.879-1.879 1.879s-1.879-0.841-1.879-1.879c0-1.038 0.841-1.879 1.879-1.879s1.879 0.841 1.879 1.879z"></path>
<path d="M17.843 5.571c0 1.038-0.841 1.879-1.879 1.879s-1.879-0.841-1.879-1.879c0-1.038 0.841-1.879 1.879-1.879s1.879 0.841 1.879 1.879z"></path>
</svg>
