<svg version="1.1" xmlns="http://www.w3.org/2000/svg" width="32" height="32" viewBox="0 0 32 32">
<title>bullets_list_radiobuttons</title>
<path d="M4.62 9.262c-0.212 0-0.476-0.13-0.602-0.301-0.276-0.376-0.16-0.745 0.183-1.838l0.067-0.217-0.272-0.201c-0.895-0.655-1.303-0.954-1.12-1.53 0.186-0.582 0.704-0.589 1.955-0.607l0.204-0.003 0.109-0.32c0.354-1.047 0.516-1.524 1.12-1.524 0.605 0 0.769 0.477 1.166 1.631l0.074 0.212 0.344 0.005c1.115 0.010 1.624 0.014 1.812 0.59 0.188 0.58-0.224 0.885-1.221 1.623l-0.167 0.124 0.067 0.215c0.344 1.096 0.46 1.465 0.184 1.842-0.126 0.171-0.389 0.301-0.601 0.301 0 0 0 0-0.001 0-0.348 0-0.628-0.197-1.376-0.724l-0.275-0.193-0.276 0.193c-0.747 0.527-1.026 0.724-1.375 0.724zM6.271 6.866c0.132 0 0.264 0.039 0.378 0.118l0.322 0.225-0.113-0.361c-0.082-0.269 0.012-0.56 0.237-0.728l0.3-0.223-0.382-0.005c-0.278-0.006-0.523-0.184-0.615-0.445l-0.128-0.371-0.128 0.37c-0.092 0.262-0.337 0.44-0.615 0.446l-0.382 0.006 0.3 0.222c0.225 0.169 0.319 0.46 0.237 0.728l-0.112 0.362 0.322-0.225c0.114-0.079 0.246-0.118 0.378-0.118z"></path>
<path d="M4.622 18.598c-0.212 0-0.476-0.13-0.602-0.301-0.277-0.378-0.16-0.75 0.187-1.859l0.061-0.197-0.272-0.202c-0.895-0.655-1.303-0.954-1.119-1.53 0.186-0.582 0.704-0.589 1.955-0.607l0.204-0.003 0.109-0.32c0.354-1.047 0.516-1.524 1.12-1.524 0.605 0 0.769 0.477 1.166 1.631l0.074 0.212 0.342 0.004c1.117 0.010 1.627 0.014 1.814 0.59 0.188 0.581-0.225 0.886-1.222 1.624l-0.165 0.122 0.067 0.216c0.344 1.096 0.46 1.465 0.184 1.841-0.126 0.172-0.389 0.301-0.601 0.301 0 0 0 0-0.001 0-0.348 0-0.628-0.197-1.374-0.723l-0.277-0.193-0.286 0.199c-0.739 0.522-1.016 0.717-1.363 0.717zM5.147 15.231l0.3 0.222c0.225 0.169 0.319 0.46 0.237 0.729l-0.113 0.362 0.322-0.225c0.228-0.156 0.529-0.156 0.756 0l0.323 0.225-0.113-0.362c-0.082-0.269 0.012-0.56 0.238-0.729l0.299-0.223-0.381-0.005c-0.278-0.006-0.523-0.184-0.615-0.445l-0.128-0.371-0.128 0.37c-0.092 0.262-0.337 0.44-0.615 0.446l-0.382 0.006z"></path>
<path d="M4.622 27.931c-0.212 0-0.475-0.129-0.601-0.299-0.277-0.378-0.16-0.751 0.187-1.859l0.061-0.197-0.271-0.202c-0.895-0.655-1.303-0.953-1.12-1.53 0.186-0.582 0.704-0.59 1.956-0.607l0.203-0.004 0.107-0.313c0.357-1.052 0.519-1.533 1.123-1.533 0.605 0 0.768 0.473 1.159 1.615l0.080 0.229 0.335 0.005c1.122 0.010 1.633 0.016 1.82 0.591 0.188 0.579-0.221 0.883-1.212 1.615l-0.176 0.13 0.067 0.215c0.344 1.096 0.46 1.466 0.184 1.842-0.126 0.171-0.389 0.301-0.601 0.301 0 0 0 0-0.001 0-0.349 0-0.629-0.198-1.376-0.725l-0.275-0.191-0.286 0.201c-0.739 0.521-1.016 0.716-1.364 0.716zM5.146 24.565l0.301 0.221c0.225 0.169 0.319 0.46 0.237 0.729l-0.112 0.361 0.322-0.225c0.228-0.156 0.529-0.156 0.757 0l0.322 0.225-0.112-0.361c-0.082-0.268 0.012-0.56 0.238-0.729l0.3-0.223-0.382-0.005c-0.278-0.007-0.523-0.184-0.615-0.445l-0.128-0.371-0.128 0.371c-0.092 0.262-0.337 0.44-0.615 0.445l-0.383 0.006z"></path>
<path d="M28.582 25.333h-15.909c-0.369 0-0.667-0.298-0.667-0.667s0.298-0.667 0.667-0.667h15.909c0.369 0 0.667 0.298 0.667 0.667s-0.298 0.667-0.667 0.667z"></path>
<path d="M28.582 16h-15.909c-0.369 0-0.667-0.298-0.667-0.667s0.298-0.667 0.667-0.667h15.909c0.369 0 0.667 0.298 0.667 0.667s-0.298 0.667-0.667 0.667z"></path>
<path d="M28.582 6.667h-15.909c-0.369 0-0.667-0.298-0.667-0.667s0.298-0.667 0.667-0.667h15.909c0.369 0 0.667 0.298 0.667 0.667s-0.298 0.667-0.667 0.667z"></path>
</svg>
