<svg version="1.1" xmlns="http://www.w3.org/2000/svg" width="32" height="32" viewBox="0 0 32 32">
<title>bullet_list_view</title>
<path d="M28.18 32h-24.359c-2.107 0-3.82-1.714-3.82-3.82v-24.359c0-2.107 1.714-3.82 3.82-3.82h24.359c2.107 0 3.82 1.714 3.82 3.82v24.359c0 2.107-1.714 3.82-3.82 3.82zM3.82 1.333c-1.371 0-2.487 1.116-2.487 2.487v24.359c0 1.371 1.116 2.487 2.487 2.487h24.359c1.371 0 2.487-1.116 2.487-2.487v-24.359c0-1.371-1.116-2.487-2.487-2.487h-24.359z"></path>
<path d="M24.693 9.333h-9.352c-0.369 0-0.667-0.298-0.667-0.667s0.298-0.667 0.667-0.667h9.352c0.369 0 0.667 0.298 0.667 0.667s-0.298 0.667-0.667 0.667z"></path>
<path d="M24.693 17.333h-9.352c-0.369 0-0.667-0.298-0.667-0.667s0.298-0.667 0.667-0.667h9.352c0.369 0 0.667 0.298 0.667 0.667s-0.298 0.667-0.667 0.667z"></path>
<path d="M24.693 25.333h-9.352c-0.369 0-0.667-0.298-0.667-0.667s0.298-0.667 0.667-0.667h9.352c0.369 0 0.667 0.298 0.667 0.667s-0.298 0.667-0.667 0.667z"></path>
<path d="M7.999 10.658c-1.462 0-2.652-1.19-2.652-2.653s1.19-2.652 2.652-2.652c1.463 0 2.653 1.19 2.653 2.652s-1.19 2.653-2.653 2.653zM7.999 6.686c-0.727 0-1.319 0.592-1.319 1.319s0.592 1.32 1.319 1.32c0.728 0 1.32-0.592 1.32-1.32s-0.592-1.319-1.32-1.319z"></path>
<path d="M7.999 18.659c-1.462 0-2.652-1.19-2.652-2.652 0-1.464 1.19-2.654 2.652-2.654s2.653 1.19 2.653 2.654c0 1.462-1.19 2.652-2.653 2.652zM7.999 14.686c-0.727 0-1.319 0.592-1.319 1.32s0.592 1.319 1.319 1.319c0.728 0 1.32-0.591 1.32-1.319s-0.592-1.32-1.32-1.32z"></path>
<path d="M7.999 26.659c-1.462 0-2.652-1.19-2.652-2.652s1.19-2.652 2.652-2.652c1.463 0 2.653 1.19 2.653 2.652s-1.19 2.652-2.653 2.652zM7.999 22.687c-0.727 0-1.319 0.591-1.319 1.319s0.592 1.319 1.319 1.319c0.728 0 1.32-0.591 1.32-1.319s-0.592-1.319-1.32-1.319z"></path>
</svg>
