<!-- Generated by IcoMoon.io -->
<svg version="1.1" xmlns="http://www.w3.org/2000/svg" width="32" height="32" viewBox="0 0 32 32">
<title>bullets_list_radiobuttons</title>
<path d="M2.188 7.25c0-2.071 1.679-3.75 3.75-3.75s3.75 1.679 3.75 3.75c0 2.071-1.679 3.75-3.75 3.75s-3.75-1.679-3.75-3.75zM5.938 5c-1.243 0-2.25 1.007-2.25 2.25s1.007 2.25 2.25 2.25c1.243 0 2.25-1.007 2.25-2.25s-1.007-2.25-2.25-2.25zM12.438 7.25c0-0.552 0.448-1 1-1h15.063c0.552 0 1 0.448 1 1s-0.448 1-1 1h-15.063c-0.552 0-1-0.448-1-1zM5.938 6.125c-0.621 0-1.125 0.504-1.125 1.125s0.504 1.125 1.125 1.125c0.621 0 1.125-0.504 1.125-1.125s-0.504-1.125-1.125-1.125zM12.438 16c0-0.552 0.448-1 1-1h15.063c0.552 0 1 0.448 1 1s-0.448 1-1 1h-15.063c-0.552 0-1-0.448-1-1zM5.938 12.25c-2.071 0-3.75 1.679-3.75 3.75s1.679 3.75 3.75 3.75c2.071 0 3.75-1.679 3.75-3.75s-1.679-3.75-3.75-3.75zM3.688 16c0-1.243 1.007-2.25 2.25-2.25s2.25 1.007 2.25 2.25c0 1.243-1.007 2.25-2.25 2.25s-2.25-1.007-2.25-2.25zM12.438 24.75c0-0.552 0.448-1 1-1h15.063c0.552 0 1 0.448 1 1s-0.448 1-1 1h-15.063c-0.552 0-1-0.448-1-1zM5.938 21c-2.071 0-3.75 1.679-3.75 3.75s1.679 3.75 3.75 3.75c2.071 0 3.75-1.679 3.75-3.75s-1.679-3.75-3.75-3.75zM3.688 24.75c0-1.243 1.007-2.25 2.25-2.25s2.25 1.007 2.25 2.25c0 1.243-1.007 2.25-2.25 2.25s-2.25-1.007-2.25-2.25z"></path>
</svg>
