<svg version="1.1" xmlns="http://www.w3.org/2000/svg" width="32" height="32" viewBox="0 0 32 32">
<title>bullets_list</title>
<path d="M7.333 8h-2.667c-0.369 0-0.667-0.298-0.667-0.667v-2.667c0-0.369 0.298-0.667 0.667-0.667h2.667c0.369 0 0.667 0.298 0.667 0.667v2.667c0 0.369-0.298 0.667-0.667 0.667zM5.333 6.667h1.333v-1.333h-1.333v1.333z"></path>
<path d="M7.333 17.335h-2.667c-0.369 0-0.667-0.298-0.667-0.667v-2.667c0-0.369 0.298-0.667 0.667-0.667h2.667c0.369 0 0.667 0.298 0.667 0.667v2.667c0 0.368-0.298 0.667-0.667 0.667zM5.333 16.001h1.333v-1.334h-1.333v1.334z"></path>
<path d="M7.333 26.668h-2.667c-0.369 0-0.667-0.298-0.667-0.667v-2.667c0-0.369 0.298-0.667 0.667-0.667h2.667c0.369 0 0.667 0.298 0.667 0.667v2.667c0 0.368-0.298 0.667-0.667 0.667zM5.333 25.335h1.333v-1.333h-1.333v1.333z"></path>
<path d="M27.254 25.333h-15.908c-0.369 0-0.667-0.298-0.667-0.667s0.298-0.667 0.667-0.667h15.908c0.369 0 0.667 0.298 0.667 0.667s-0.298 0.667-0.667 0.667z"></path>
<path d="M27.254 16h-15.908c-0.369 0-0.667-0.298-0.667-0.667s0.298-0.667 0.667-0.667h15.908c0.369 0 0.667 0.298 0.667 0.667s-0.298 0.667-0.667 0.667z"></path>
<path d="M27.254 6.667h-15.908c-0.369 0-0.667-0.298-0.667-0.667s0.298-0.667 0.667-0.667h15.908c0.369 0 0.667 0.298 0.667 0.667s-0.298 0.667-0.667 0.667z"></path>
</svg>
