<!-- Generated by IcoMoon.io -->
<svg version="1.1" xmlns="http://www.w3.org/2000/svg" width="32" height="32" viewBox="0 0 32 32">
<title>bullets_list</title>
<path d="M4.938 4.5c-1.519 0-2.75 1.231-2.75 2.75s1.231 2.75 2.75 2.75c1.519 0 2.75-1.231 2.75-2.75s-1.231-2.75-2.75-2.75zM10.688 7.25c0-0.552 0.448-1 1-1h16.813c0.552 0 1 0.448 1 1s-0.448 1-1 1h-16.813c-0.552 0-1-0.448-1-1zM10.688 16c0-0.552 0.448-1 1-1h16.813c0.552 0 1 0.448 1 1s-0.448 1-1 1h-16.813c-0.552 0-1-0.448-1-1zM2.188 16c0-1.519 1.231-2.75 2.75-2.75s2.75 1.231 2.75 2.75-1.231 2.75-2.75 2.75c-1.519 0-2.75-1.231-2.75-2.75zM11.688 23.75c-0.552 0-1 0.448-1 1s0.448 1 1 1h16.813c0.552 0 1-0.448 1-1s-0.448-1-1-1h-16.813zM4.938 22c-1.519 0-2.75 1.231-2.75 2.75s1.231 2.75 2.75 2.75c1.519 0 2.75-1.231 2.75-2.75s-1.231-2.75-2.75-2.75z"></path>
</svg>
