<svg version="1.1" xmlns="http://www.w3.org/2000/svg" width="32" height="32" viewBox="0 0 32 32">
<title>bullet_list_view2</title>
<path d="M28.184 32h-24.359c-2.107 0-3.82-1.714-3.82-3.82v-24.359c-0-2.107 1.713-3.82 3.82-3.82h24.359c2.107 0 3.82 1.714 3.82 3.82v24.359c0 2.107-1.713 3.82-3.82 3.82zM3.824 1.333c-1.371 0-2.487 1.116-2.487 2.487v24.359c0 1.371 1.116 2.487 2.487 2.487h24.359c1.371 0 2.487-1.116 2.487-2.487v-24.359c0-1.371-1.116-2.487-2.487-2.487h-24.359z"></path>
<path d="M25.988 8h-19.96c-0.369 0-0.667-0.298-0.667-0.667s0.298-0.667 0.667-0.667h19.96c0.369 0 0.667 0.298 0.667 0.667s-0.298 0.667-0.667 0.667z"></path>
<path d="M25.988 13.333h-14.633c-0.369 0-0.667-0.298-0.667-0.667s0.298-0.667 0.667-0.667h14.633c0.369 0 0.667 0.298 0.667 0.667s-0.298 0.667-0.667 0.667z"></path>
<path d="M25.988 18.667h-14.633c-0.369 0-0.667-0.298-0.667-0.667s0.298-0.667 0.667-0.667h14.633c0.369 0 0.667 0.298 0.667 0.667s-0.298 0.667-0.667 0.667z"></path>
<path d="M25.988 24h-14.633c-0.369 0-0.667-0.298-0.667-0.667s0.298-0.667 0.667-0.667h14.633c0.369 0 0.667 0.298 0.667 0.667s-0.298 0.667-0.667 0.667z"></path>
<path d="M6.106 13.333c-0.173 0-0.346-0.067-0.466-0.187-0.133-0.133-0.201-0.307-0.201-0.48 0-0.187 0.067-0.36 0.201-0.481 0.24-0.239 0.693-0.239 0.933 0.014 0.12 0.107 0.2 0.28 0.2 0.467 0 0.173-0.066 0.346-0.2 0.466-0.133 0.133-0.307 0.201-0.467 0.201z"></path>
<path d="M6.106 18.667c-0.173 0-0.346-0.066-0.466-0.187-0.133-0.133-0.201-0.306-0.201-0.479 0-0.187 0.067-0.361 0.201-0.481 0.227-0.239 0.693-0.239 0.933 0.013 0.12 0.107 0.2 0.294 0.2 0.467s-0.066 0.346-0.2 0.466c-0.133 0.134-0.307 0.201-0.467 0.201z"></path>
<path d="M6.106 24c-0.173 0-0.333-0.066-0.466-0.187-0.133-0.133-0.201-0.306-0.201-0.479 0-0.187 0.067-0.361 0.201-0.481 0.24-0.239 0.68-0.239 0.933 0.013 0.12 0.121 0.2 0.294 0.2 0.467s-0.066 0.346-0.2 0.466c-0.133 0.134-0.307 0.201-0.467 0.201z"></path>
</svg>
