<svg version="1.1" xmlns="http://www.w3.org/2000/svg" width="32" height="32" viewBox="0 0 32 32">
<title>business_tie_user_profile_avatar_man_male</title>
<path d="M30.697 32.033h-11.231c-0.369 0-0.667-0.298-0.667-0.667s0.298-0.667 0.667-0.667h11.231l-0.022-2.279c-2.608-2.523-9.857-5.316-10.362-5.51-0.271-0.086-0.474-0.337-0.474-0.633 0-0.449 0.503-0.784 0.915-0.625 0.324 0.122 7.964 3.018 10.855 5.827 0.253 0.245 0.398 0.589 0.398 0.941v2.302c0 0.723-0.588 1.31-1.311 1.31z"></path>
<path d="M12.459 32.033h-11.152c-0.723 0-1.311-0.589-1.311-1.311v-2.302c0-0.354 0.146-0.698 0.4-0.943 2.953-2.867 10.534-5.706 10.855-5.825 0.418-0.154 0.917 0.178 0.917 0.626 0 0.335-0.232 0.613-0.551 0.661-0.902 0.342-7.712 2.988-10.294 5.496l0.007 2.286 11.13-0.022c0.369 0 0.667 0.298 0.667 0.667s-0.298 0.667-0.667 0.667z"></path>
<path d="M12.285 20.879c-0.242 0-0.475-0.131-0.594-0.362-0.089-0.173-0.139-0.269-0.122-2.275-1.173-1.254-1.976-2.939-2.218-4.635-0.604-0.204-1.060-0.71-1.212-1.386-0.161-0.714 0.054-1.405 0.544-1.86-0.176-0.685-0.266-1.389-0.266-2.098 0-4.413 3.402-8.003 7.584-8.003s7.585 3.591 7.585 8.003c0 0.712-0.089 1.415-0.264 2.097 0.49 0.456 0.703 1.147 0.542 1.861-0.152 0.679-0.612 1.187-1.212 1.389-0.245 1.725-1.068 3.43-2.267 4.689 0.012 1.941-0.035 2.036-0.116 2.203-0.161 0.331-0.56 0.465-0.893 0.305-0.293-0.145-0.434-0.475-0.348-0.779 0.012-0.108 0.034-0.493 0.022-1.862 0-0.003-0.001-0.138-0.001-0.139 0-0.18 0.073-0.353 0.202-0.478 1.208-1.177 2.004-2.881 2.128-4.56 0.026-0.348 0.316-0.618 0.665-0.618 0.392 0 0.496-0.339 0.519-0.442 0.052-0.23 0.004-0.549-0.299-0.693-0.302-0.143-0.452-0.488-0.349-0.807 0.224-0.697 0.339-1.426 0.339-2.166 0-3.678-2.805-6.67-6.251-6.67s-6.251 2.992-6.251 6.67c0 0.736 0.115 1.465 0.34 2.167 0.102 0.318-0.047 0.663-0.35 0.807-0.393 0.185-0.319 0.609-0.301 0.691 0.023 0.104 0.128 0.443 0.499 0.443 0.349 0 0.66 0.269 0.686 0.618 0.122 1.65 0.901 3.337 2.083 4.512 0.126 0.125 0.197 0.296 0.197 0.473l-0.001 0.143c-0.012 1.404 0.010 1.799 0.022 1.911 0.087 0.299-0.047 0.629-0.336 0.776-0.098 0.051-0.202 0.074-0.304 0.074z"></path>
<path d="M14.428 26.967c-0.24 0-0.464-0.129-0.583-0.342-1.165-2.096-1.338-3.421-0.527-4.047 0.095-0.064 1.098-0.682 2.621-0.682 0.882 0 1.764 0.203 2.622 0.607 0.286 0.134 0.492 0.371 0.594 0.685 0.083 0.255 0.335 1.030-0.979 3.406-0.135 0.243-0.406 0.369-0.681 0.337-0.969-0.143-1.986-0.134-2.957 0.027-0.036 0.006-0.074 0.009-0.109 0.009zM15.939 23.229c-1.12 0-1.855 0.439-1.863 0.443 0.031 0.044 0.065 0.63 0.719 1.902 0.803-0.096 1.624-0.104 2.425-0.021 0.566-1.099 0.681-1.68 0.676-1.889-0.647-0.289-1.305-0.435-1.956-0.435z"></path>
<path d="M17.594 32.061c-0.333 0-0.622-0.25-0.661-0.59l-0.366-3.229c-0.034-0.367 0.236-0.691 0.602-0.727 0.365-0.019 0.693 0.236 0.727 0.602l0.363 3.201c0.042 0.366-0.22 0.697-0.586 0.74-0.026 0.003-0.052 0.004-0.078 0.004z"></path>
<path d="M14.408 32.061c-0.025 0-0.050-0.001-0.076-0.004-0.366-0.042-0.628-0.372-0.587-0.738l0.363-3.187c0.041-0.365 0.356-0.625 0.738-0.587 0.366 0.042 0.628 0.372 0.587 0.738l-0.363 3.187c-0.039 0.34-0.327 0.591-0.661 0.591z"></path>
</svg>
