<!-- Generated by IcoMoon.io -->
<svg version="1.1" xmlns="http://www.w3.org/2000/svg" width="32" height="32" viewBox="0 0 32 32">
<title>business_handshake_deal_contract_sign</title>
<path d="M21.731 20.698c-0.151 0-0.303-0.051-0.428-0.156l-2.855-2.398c-0.283-0.237-0.319-0.658-0.082-0.939 0.237-0.283 0.658-0.32 0.939-0.082l2.855 2.398c0.283 0.237 0.319 0.658 0.082 0.939-0.132 0.158-0.32 0.238-0.51 0.238z"></path>
<path d="M19.107 22.151c-0.148 0-0.298-0.049-0.422-0.151l-2.328-1.905c-0.285-0.233-0.327-0.652-0.094-0.937s0.652-0.327 0.937-0.094l2.328 1.905c0.285 0.233 0.327 0.652 0.094 0.937-0.131 0.161-0.323 0.245-0.516 0.245z"></path>
<path d="M14.955 25.104c-0.465 0-0.979-0.176-1.49-0.608-0.676-0.522-6.831-5.329-7.699-7.827-0.121-0.348 0.063-0.727 0.411-0.848 0.344-0.12 0.727 0.063 0.848 0.411 0.626 1.799 5.465 5.828 7.277 7.228 0.429 0.361 0.809 0.4 1.040 0.125 0.192-0.227 0.231-0.613-0.137-0.925l-1.047-1.016c-0.264-0.257-0.271-0.678-0.014-0.943 0.257-0.263 0.678-0.271 0.943-0.013l1.015 0.984c0.939 0.792 0.879 2.042 0.259 2.773-0.328 0.388-0.829 0.657-1.406 0.657z"></path>
<path d="M18.408 24.651c-0.499 0-1.007-0.199-1.457-0.579l-2.765-2.401c-0.278-0.242-0.308-0.663-0.066-0.941 0.241-0.277 0.664-0.307 0.94-0.066l2.76 2.396c0.187 0.159 0.474 0.335 0.764 0.228 0.216-0.078 0.391-0.297 0.436-0.544 0.030-0.167 0.012-0.41-0.245-0.629v0c-0.001 0-0.001 0-0.001 0-0.281-0.238-0.316-0.659-0.078-0.94 0.238-0.28 0.66-0.314 0.939-0.078l0.697 0.589c0.207 0.176 0.417 0.227 0.643 0.143 0.279-0.1 0.518-0.384 0.572-0.676 0.042-0.232-0.036-0.43-0.238-0.604l-0.009-0.009c-0.28-0.238-0.314-0.658-0.075-0.939 0.238-0.279 0.659-0.313 0.939-0.077 0.005 0.005 0.010 0.009 0.016 0.014l0.092 0.079c0.507 0.423 0.931-0.030 1.013-0.126 0.081-0.095 0.458-0.594-0.046-1.021l-6.529-5.323c-0.387 0.129-0.909 0.272-1.365 0.293-0.463 0.629-1.539 1.919-2.719 2.135-0.512 0.091-0.998-0.017-1.41-0.317-0.736-0.536-0.996-1.602-0.695-2.85 0.462-1.916 2.195-4.049 5.024-4.495 0.131-0.045 2.052-0.492 6.441 1.719l1.395-0.423c0.35-0.107 0.724 0.093 0.831 0.445s-0.092 0.725-0.445 0.831l-1.651 0.5c-0.163 0.050-0.342 0.035-0.499-0.046-4.064-2.093-5.783-1.727-5.8-1.724-2.285 0.364-3.641 2.019-4 3.504-0.163 0.675-0.089 1.262 0.184 1.461 0.118 0.085 0.232 0.108 0.383 0.082 0.696-0.127 1.639-1.218 2.070-1.876 0.158-0.244 0.46-0.359 0.742-0.276 0.176 0.031 0.852-0.13 1.405-0.341 0.219-0.086 0.474-0.046 0.66 0.105l6.829 5.568c1.025 0.867 0.879 2.119 0.21 2.909-0.354 0.419-0.862 0.715-1.411 0.771-0.004 0.089-0.014 0.177-0.030 0.266-0.139 0.767-0.702 1.431-1.434 1.694-0.372 0.134-0.76 0.147-1.129 0.056-0.171 0.643-0.651 1.184-1.262 1.404-0.204 0.073-0.414 0.109-0.626 0.109z"></path>
<path d="M5.624 19.844c-0.061 0-0.122-0.008-0.182-0.025l-4.841-1.371c-0.354-0.1-0.56-0.469-0.46-0.824l2.839-10.022c0.1-0.355 0.471-0.565 0.823-0.46l4.841 1.37c0.17 0.048 0.314 0.161 0.4 0.316s0.107 0.337 0.059 0.507l-2.839 10.024c-0.048 0.169-0.162 0.314-0.316 0.4-0.1 0.056-0.212 0.085-0.325 0.085zM1.607 17.346l3.558 1.008 2.475-8.741-3.558-1.007-2.475 8.74z"></path>
<path d="M26.392 20.112c-0.113 0-0.225-0.029-0.325-0.085-0.154-0.086-0.268-0.231-0.316-0.4l-2.839-10.024c-0.1-0.354 0.105-0.723 0.46-0.823l4.84-1.371c0.172-0.048 0.354-0.027 0.508 0.059s0.268 0.231 0.316 0.4l2.839 10.023c0.1 0.355-0.105 0.724-0.46 0.824l-4.84 1.371c-0.060 0.017-0.121 0.025-0.182 0.025zM24.376 9.881l2.475 8.741 3.557-1.008-2.475-8.741-3.557 1.008z"></path>
<path d="M8.271 10.496c-0.109 0-0.219-0.027-0.321-0.083-0.322-0.178-0.44-0.583-0.262-0.906 0.167-0.303 0.42-0.762 5.938-0.882 0.4 0.007 0.674 0.285 0.681 0.652s-0.284 0.673-0.652 0.681c-3.877 0.084-4.815 0.345-4.991 0.41-0.114 0.083-0.251 0.127-0.392 0.127z"></path>
<path d="M24.733 19.406c-0.435 0-0.762-0.081-0.792-0.089-0.357-0.092-0.572-0.457-0.479-0.813 0.092-0.354 0.453-0.574 0.81-0.479v0c0.008-0.001 0.893 0.204 1.275-0.227 0.242-0.279 0.665-0.305 0.94-0.063 0.277 0.242 0.305 0.663 0.063 0.94-0.521 0.595-1.258 0.729-1.816 0.729z"></path>
</svg>
