<!-- Generated by IcoMoon.io -->
<svg version="1.1" xmlns="http://www.w3.org/2000/svg" width="32" height="32" viewBox="0 0 32 32">
<title>business_building_skyscraper_office</title>
<path d="M27 11h-7v-7c0-1.7-1.3-3-3-3h-12c-1.7 0-3 1.3-3 3v26c0 0.6 0.4 1 1 1h15.8c0 0 0.1 0 0.1 0s0.1 0 0.1 0h10c0.6 0 1-0.4 1-1v-16c0-1.7-1.3-3-3-3zM18 29h-6v-3c0-0.6-0.4-1-1-1s-1 0.4-1 1v3h-6v-25c0-0.6 0.4-1 1-1h12c0.6 0 1 0.4 1 1v25zM28 29h-8v-3c0 0.6 0.4 1 1 1s1-0.4 1-1-0.4-1-1-1c-0.6 0-1 0.4-1 1v-5c0 0.6 0.4 1 1 1s1-0.4 1-1-0.4-1-1-1c-0.6 0-1 0.4-1 1v-5c0 0.6 0.4 1 1 1s1-0.4 1-1-0.4-1-1-1c-0.6 0-1 0.4-1 1v-3h7c0.6 0 1 0.4 1 1v15z"></path>
<path d="M6 10c-0.6 0-1 0.4-1 1s0.4 1 1 1c0 0 0.1 0 0.1 0v0c0.4-0.1 0.8-0.4 0.9-0.9 0 0 0-0.1 0-0.1 0-0.6-0.4-1-1-1z"></path>
<path d="M6 5c-0.6 0-1 0.4-1 1s0.4 1 1 1c0 0 0.1 0 0.1 0v0c0.5-0.1 0.8-0.4 0.9-0.9 0 0 0-0.1 0-0.1 0-0.6-0.4-1-1-1z"></path>
<path d="M12 21.1v0 0z"></path>
<path d="M12 11.1v0 0z"></path>
<path d="M11 15c-0.6 0-1 0.4-1 1s0.4 1 1 1c0 0 0.1 0 0.1 0v0c0.4-0.1 0.8-0.4 0.9-0.9 0 0 0-0.1 0-0.1 0-0.6-0.4-1-1-1z"></path>
<path d="M12 16.1v0 0z"></path>
<path d="M11 20c-0.6 0-1 0.4-1 1s0.4 1 1 1c0 0 0.1 0 0.1 0v0c0.4-0.1 0.8-0.4 0.9-0.9 0 0 0-0.1 0-0.1 0-0.6-0.4-1-1-1z"></path>
<path d="M7 6.1v0 0z"></path>
<path d="M6 25c-0.6 0-1 0.4-1 1s0.4 1 1 1c0 0 0.1 0 0.1 0v0c0.4-0.1 0.8-0.4 0.9-0.9 0 0 0-0.1 0-0.1 0-0.6-0.4-1-1-1z"></path>
<path d="M7 21.1v0 0z"></path>
<path d="M7 26.1v0 0z"></path>
<path d="M7 11.1v0 0z"></path>
<path d="M7 16.1v0 0z"></path>
<path d="M6 15c-0.6 0-1 0.4-1 1s0.4 1 1 1c0 0 0.1 0 0.1 0v0c0.4-0.1 0.8-0.4 0.9-0.9 0 0 0-0.1 0-0.1 0-0.6-0.4-1-1-1z"></path>
<path d="M6 20c-0.6 0-1 0.4-1 1s0.4 1 1 1c0 0 0.1 0 0.1 0v0c0.4-0.1 0.8-0.4 0.9-0.9 0 0 0-0.1 0-0.1 0-0.6-0.4-1-1-1z"></path>
<path d="M17 21.1v0 0z"></path>
<path d="M17 16.1v0 0z"></path>
<path d="M16 20c-0.6 0-1 0.4-1 1s0.4 1 1 1c0 0 0.1 0 0.1 0v0c0.4-0.1 0.8-0.4 0.9-0.9 0 0 0-0.1 0-0.1 0-0.6-0.4-1-1-1z"></path>
<path d="M16 15c-0.6 0-1 0.4-1 1s0.4 1 1 1c0 0 0.1 0 0.1 0v0c0.4-0.1 0.8-0.4 0.9-0.9 0 0 0-0.1 0-0.1 0-0.6-0.4-1-1-1z"></path>
<path d="M11 5c-0.6 0-1 0.4-1 1s0.4 1 1 1c0 0 0.1 0 0.1 0v0c0.4-0.1 0.8-0.4 0.9-0.9 0 0 0-0.1 0-0.1 0-0.6-0.4-1-1-1z"></path>
<path d="M11 10c-0.6 0-1 0.4-1 1s0.4 1 1 1c0 0 0.1 0 0.1 0v0c0.4-0.1 0.8-0.4 0.9-0.9 0 0 0-0.1 0-0.1 0-0.6-0.4-1-1-1z"></path>
<path d="M16 25c-0.6 0-1 0.4-1 1s0.4 1 1 1c0 0 0.1 0 0.1 0v0c0.4-0.1 0.8-0.4 0.9-0.9 0 0 0-0.1 0-0.1 0-0.6-0.4-1-1-1z"></path>
<path d="M12 6.1v0 0z"></path>
<path d="M17 26.1v0 0z"></path>
<path d="M16.7 11.7c0.4-0.4 0.4-1 0-1.4s-1-0.4-1.4 0c-0.4 0.4-0.4 1 0 1.4s1 0.4 1.4 0z"></path>
<path d="M26 16c0 0.552-0.448 1-1 1s-1-0.448-1-1c0-0.552 0.448-1 1-1s1 0.448 1 1z"></path>
<path d="M26 21c0 0.552-0.448 1-1 1s-1-0.448-1-1c0-0.552 0.448-1 1-1s1 0.448 1 1z"></path>
<path d="M16 5c-0.6 0-1 0.4-1 1s0.4 1 1 1c0 0 0.1 0 0.1 0v0c0.4-0.1 0.8-0.4 0.9-0.9 0 0 0-0.1 0-0.1 0-0.6-0.4-1-1-1z"></path>
<path d="M26 26c0 0.552-0.448 1-1 1s-1-0.448-1-1c0-0.552 0.448-1 1-1s1 0.448 1 1z"></path>
<path d="M17 6.1v0 0z"></path>
</svg>
