<!-- Generated by IcoMoon.io -->
<svg version="1.1" xmlns="http://www.w3.org/2000/svg" width="32" height="32" viewBox="0 0 32 32">
<title>business_building_skyscraper_office</title>
<path fill="none" stroke="#444" stroke-linejoin="round" stroke-linecap="round" stroke-miterlimit="4" stroke-width="2" d="M11 26v4M5 2h12c1.105 0 2 0.895 2 2v0 25.75c0 0.138-0.112 0.25-0.25 0.25v0h-15.75v-26c0-1.105 0.895-2 2-2v0zM20 12h7c1.105 0 2 0.895 2 2v0 16h-10v-17c0-0.552 0.448-1 1-1v0z"></path>
<path d="M6.13 26.992c-0.039 0.005-0.084 0.008-0.13 0.008-0.552 0-1-0.448-1-1s0.448-1 1-1c0.552 0 1 0.448 1 1 0 0.046-0.003 0.091-0.009 0.135l0.001-0.005c-0.060 0.45-0.412 0.801-0.857 0.861l-0.005 0.001zM6.13 21.992c-0.039 0.005-0.084 0.008-0.13 0.008-0.552 0-1-0.448-1-1s0.448-1 1-1c0.552 0 1 0.448 1 1 0 0.046-0.003 0.091-0.009 0.135l0.001-0.005c-0.060 0.45-0.412 0.801-0.857 0.861l-0.005 0.001zM6.13 16.992c-0.039 0.005-0.084 0.008-0.13 0.008-0.552 0-1-0.448-1-1s0.448-1 1-1c0.552 0 1 0.448 1 1 0 0.046-0.003 0.091-0.009 0.135l0.001-0.005c-0.060 0.45-0.412 0.801-0.857 0.861l-0.005 0.001zM6.13 11.992c-0.039 0.005-0.084 0.008-0.13 0.008-0.552 0-1-0.448-1-1s0.448-1 1-1c0.552 0 1 0.448 1 1 0 0.046-0.003 0.091-0.009 0.135l0.001-0.005c-0.060 0.45-0.412 0.801-0.857 0.861l-0.005 0.001zM6.13 6.992c-0.039 0.005-0.084 0.008-0.13 0.008-0.552 0-1-0.448-1-1s0.448-1 1-1c0.552 0 1 0.448 1 1 0 0.046-0.003 0.091-0.009 0.135l0.001-0.005c-0.060 0.45-0.412 0.801-0.857 0.861l-0.005 0.001zM11.13 21.992c-0.039 0.005-0.084 0.008-0.13 0.008-0.552 0-1-0.448-1-1s0.448-1 1-1c0.552 0 1 0.448 1 1 0 0.046-0.003 0.091-0.009 0.135l0.001-0.005c-0.060 0.45-0.412 0.801-0.857 0.861l-0.005 0.001zM11.13 16.992c-0.039 0.005-0.084 0.008-0.13 0.008-0.552 0-1-0.448-1-1s0.448-1 1-1c0.552 0 1 0.448 1 1 0 0.046-0.003 0.091-0.009 0.135l0.001-0.005c-0.060 0.45-0.412 0.801-0.857 0.861l-0.005 0.001zM11.13 11.992c-0.039 0.005-0.084 0.008-0.13 0.008-0.552 0-1-0.448-1-1s0.448-1 1-1c0.552 0 1 0.448 1 1 0 0.046-0.003 0.091-0.009 0.135l0.001-0.005c-0.060 0.45-0.412 0.801-0.857 0.861l-0.005 0.001zM11.13 6.992c-0.039 0.005-0.084 0.008-0.13 0.008-0.552 0-1-0.448-1-1s0.448-1 1-1c0.552 0 1 0.448 1 1 0 0.046-0.003 0.091-0.009 0.135l0.001-0.005c-0.060 0.45-0.412 0.801-0.857 0.861l-0.005 0.001zM16.13 26.992c-0.039 0.005-0.084 0.008-0.13 0.008-0.552 0-1-0.448-1-1s0.448-1 1-1c0.552 0 1 0.448 1 1 0 0.046-0.003 0.091-0.009 0.135l0.001-0.005c-0.060 0.45-0.412 0.801-0.857 0.861l-0.005 0.001zM16.13 21.992c-0.039 0.005-0.084 0.008-0.13 0.008-0.552 0-1-0.448-1-1s0.448-1 1-1c0.552 0 1 0.448 1 1 0 0.046-0.003 0.091-0.009 0.135l0.001-0.005c-0.060 0.45-0.412 0.801-0.857 0.861l-0.005 0.001zM16.13 16.992c-0.039 0.005-0.084 0.008-0.13 0.008-0.552 0-1-0.448-1-1s0.448-1 1-1c0.552 0 1 0.448 1 1 0 0.046-0.003 0.091-0.009 0.135l0.001-0.005c-0.060 0.45-0.412 0.801-0.857 0.861l-0.005 0.001z"></path>
<path d="M16.705 10.295c0.391 0.391 0.393 1.024 0.004 1.413s-1.022 0.388-1.413-0.004c-0.391-0.391-0.393-1.024-0.004-1.413s1.022-0.388 1.413 0.004z"></path>
<path d="M16.13 6.992c-0.039 0.005-0.084 0.008-0.13 0.008-0.552 0-1-0.448-1-1s0.448-1 1-1c0.552 0 1 0.448 1 1 0 0.046-0.003 0.091-0.009 0.135l0.001-0.005c-0.060 0.45-0.412 0.801-0.857 0.861l-0.005 0.001zM25 25c-0.552 0-1 0.448-1 1s0.448 1 1 1c0.552 0 1-0.448 1-1v0c0-0.552-0.448-1-1-1v0zM25 20c-0.552 0-1 0.448-1 1s0.448 1 1 1c0.552 0 1-0.448 1-1v0c0-0.552-0.448-1-1-1v0zM25 15c-0.552 0-1 0.448-1 1s0.448 1 1 1c0.552 0 1-0.448 1-1v0c0-0.552-0.448-1-1-1v0zM21 25c-0.552 0-1 0.448-1 1s0.448 1 1 1c0.552 0 1-0.448 1-1v0c0-0.552-0.448-1-1-1v0zM21 20c-0.552 0-1 0.448-1 1s0.448 1 1 1c0.552 0 1-0.448 1-1v0c0-0.552-0.448-1-1-1v0zM21 15c-0.552 0-1 0.448-1 1s0.448 1 1 1c0.552 0 1-0.448 1-1v0c0-0.552-0.448-1-1-1v0z"></path>
</svg>
