<svg version="1.1" xmlns="http://www.w3.org/2000/svg" width="32" height="32" viewBox="0 0 32 32">
<title>business_suitcase</title>
<path d="M28.529 31.993h-25.1c-1.932 0-3.503-1.572-3.503-3.503v-16.997c0-1.932 1.572-3.503 3.503-3.503h25.1c1.932 0 3.504 1.572 3.504 3.503v16.997c0 1.931-1.572 3.503-3.504 3.503zM3.429 9.324c-1.197 0-2.17 0.973-2.17 2.17v16.997c0 1.197 0.973 2.169 2.17 2.169h25.1c1.197 0 2.171-0.973 2.171-2.169v-16.997c0-1.197-0.974-2.17-2.171-2.17h-25.1z"></path>
<path d="M21.953 6.657c-0.369 0-0.667-0.298-0.667-0.667v-0.72c0-1.434-1.251-2.601-2.79-2.601h-5.050c-1.538 0-2.79 1.167-2.79 2.601v0.72c0 0.369-0.298 0.667-0.667 0.667s-0.667-0.298-0.667-0.667v-0.72c0-2.169 1.85-3.934 4.124-3.934h5.050c2.273 0 4.124 1.765 4.124 3.934v0.72c0 0.368-0.298 0.667-0.667 0.667z"></path>
<path d="M31.366 17.362h-13.409c-0.369 0-0.667-0.298-0.667-0.667s0.298-0.667 0.667-0.667h13.409c0.369 0 0.667 0.298 0.667 0.667s-0.298 0.667-0.667 0.667z"></path>
<path d="M13.936 17.362h-13.343c-0.369 0-0.667-0.298-0.667-0.667s0.298-0.667 0.667-0.667h13.342c0.369 0 0.667 0.298 0.667 0.667s-0.298 0.667-0.667 0.667z"></path>
<path d="M17.315 19.982h-2.738c-0.721 0-1.308-0.587-1.308-1.309v-2.738c0-0.721 0.587-1.308 1.308-1.308h2.738c0.721 0 1.309 0.587 1.309 1.308v2.738c0 0.721-0.587 1.309-1.309 1.309zM17.29 15.936l-2.713 0.025 0.025 2.712 2.687-0.025v-2.713z"></path>
</svg>
