<!-- Generated by IcoMoon.io -->
<svg version="1.1" xmlns="http://www.w3.org/2000/svg" width="32" height="32" viewBox="0 0 32 32">
<title>business_idea</title>
<path d="M6.033 31.863v0c-0.369 0-0.667-0.298-0.667-0.667l0.001-10.676c0-0.369 0.299-0.667 0.667-0.667v0c0.369 0 0.667 0.298 0.667 0.667l-0.001 10.676c0 0.368-0.299 0.667-0.667 0.667z"></path>
<path d="M6.034 7.884c-1.467 0-2.441-1.814-2.441-3.015 0-1.346 1.095-2.441 2.441-2.441s2.441 1.095 2.441 2.441c-0 1.2-0.974 3.015-2.441 3.015zM6.034 3.761c-0.611 0-1.108 0.497-1.108 1.108 0 0.739 0.621 1.682 1.108 1.682s1.108-0.943 1.108-1.682c-0-0.611-0.497-1.108-1.108-1.108z"></path>
<path d="M8.331 31.863c-0.012 0-0.025 0-0.038-0.001-0.368-0.019-0.649-0.335-0.628-0.702l0.702-12.624c0.010-0.181 0.121-0.411 0.257-0.53 0.185-0.16 0.4-0.201 0.601-0.202 0.2-5.952-0.111-7.795-0.266-8.33-0.119-0.005-0.264-0.010-0.396-0.016l-0.377-0.017c-0.081 0.003-0.098 0.056-0.126 0.111-0.363 0.703-1.138 1.139-2.025 1.139s-1.663-0.436-2.025-1.138c-0.029-0.056-0.083-0.113-0.126-0.111l-0.378 0.017c-0.139 0.006-0.293 0.012-0.424 0.018-0.11 0.432-0.443 2.207-0.238 8.327 0.201 0.001 0.416 0.042 0.601 0.202 0.139 0.12 0.251 0.355 0.258 0.539l0.701 12.615c0.021 0.367-0.261 0.682-0.628 0.702-0.378 0.043-0.682-0.262-0.703-0.629l-0.671-12.065c-0.225-0.025-0.426-0.036-0.615-0.201-0.139-0.121-0.248-0.35-0.255-0.535-0.344-9.206 0.437-9.857 0.73-10.102 0.072-0.061 0.159-0.106 0.25-0.132 0.12-0.033 0.26-0.044 0.939-0.072l0.349-0.016c0.574-0.034 1.112 0.282 1.395 0.832 0.158 0.305 0.551 0.415 0.839 0.415s0.682-0.109 0.84-0.415c0.283-0.549 0.82-0.863 1.395-0.831l0.348 0.016c0.679 0.028 0.82 0.038 0.939 0.072 0.091 0.025 0.178 0.071 0.25 0.131 0.294 0.245 1.075 0.897 0.731 10.102-0.007 0.184-0.116 0.414-0.255 0.535-0.188 0.164-0.415 0.181-0.615 0.201l-0.671 12.065c-0.020 0.355-0.314 0.63-0.665 0.63z"></path>
<path d="M21.867 17.224h-1.008c-0.177 0-0.346-0.070-0.471-0.194l-0.458-0.457h-0.538c-0.369 0-0.667-0.299-0.667-0.667v-3.284c0-0.369 0.298-0.667 0.667-0.667h3.943c0.369 0 0.667 0.298 0.667 0.667v3.284c0 0.368-0.298 0.667-0.667 0.667h-0.538l-0.458 0.457c-0.125 0.124-0.294 0.194-0.471 0.194zM21.135 15.891h0.456l0.458-0.457c0.125-0.125 0.294-0.195 0.471-0.195h0.147v-1.951h-2.609v1.951h0.147c0.177 0 0.346 0.070 0.471 0.195l0.458 0.457z"></path>
<path d="M23.068 13.288c-0.004 0-0.005 0.001-0.016 0h-3.376c-0.369 0-0.667-0.298-0.667-0.667 0-0.804-0.863-2.099-1.167-2.49-0.009-0.011-0.017-0.023-0.025-0.035-0.999-1.187-1.594-2.736-1.594-4.16 0-2.795 2.306-5.068 5.139-5.068 2.835 0 5.141 2.273 5.141 5.068 0 1.444-0.613 3.019-1.639 4.213-0.422 0.557-1.13 1.756-1.13 2.472 0 0.269-0.163 0.513-0.411 0.616-0.082 0.035-0.169 0.051-0.255 0.051zM20.258 11.955h2.227c0.286-1.228 1.221-2.482 1.345-2.645 0.837-0.975 1.341-2.256 1.341-3.374 0-2.059-1.708-3.735-3.807-3.735s-3.806 1.676-3.806 3.735c0 1.12 0.505 2.404 1.32 3.349 0.025 0.029 0.047 0.060 0.066 0.092 0.232 0.307 1.048 1.451 1.314 2.577z"></path>
<path d="M21.363 13.288c-0.369 0-0.667-0.298-0.667-0.667v-4.245c0-0.369 0.298-0.667 0.667-0.667s0.667 0.298 0.667 0.667v4.245c0 0.369-0.298 0.667-0.667 0.667z"></path>
<path d="M14.266 6.643h-1.852c-0.369 0-0.667-0.298-0.667-0.667s0.298-0.667 0.667-0.667h1.852c0.369 0 0.667 0.298 0.667 0.667s-0.298 0.667-0.667 0.667z"></path>
<path d="M15.014 3.876c-0.166 0-0.333-0.062-0.462-0.186l-1.497-1.437c-0.266-0.255-0.274-0.677-0.019-0.943s0.677-0.274 0.943-0.019l1.497 1.437c0.266 0.255 0.274 0.677 0.019 0.943-0.131 0.137-0.306 0.205-0.481 0.205z"></path>
<path d="M13.518 10.847c-0.175 0-0.35-0.068-0.481-0.205-0.255-0.266-0.246-0.688 0.019-0.943l1.497-1.437c0.264-0.255 0.687-0.247 0.943 0.019s0.246 0.687-0.019 0.943l-1.497 1.437c-0.129 0.124-0.296 0.186-0.462 0.186z"></path>
<path d="M30.355 6.643h-1.852c-0.369 0-0.667-0.298-0.667-0.667s0.298-0.667 0.667-0.667h1.852c0.369 0 0.667 0.298 0.667 0.667s-0.298 0.667-0.667 0.667z"></path>
<path d="M27.755 3.876c-0.175 0-0.35-0.068-0.481-0.205-0.255-0.266-0.247-0.687 0.018-0.943l1.496-1.437c0.267-0.253 0.689-0.247 0.943 0.019 0.255 0.266 0.247 0.687-0.018 0.943l-1.496 1.437c-0.13 0.124-0.295 0.186-0.462 0.186z"></path>
<path d="M29.251 10.847c-0.167 0-0.332-0.062-0.462-0.186l-1.496-1.437c-0.266-0.255-0.273-0.677-0.018-0.943 0.255-0.267 0.677-0.271 0.943-0.019l1.496 1.437c0.266 0.255 0.273 0.677 0.018 0.943-0.13 0.137-0.306 0.205-0.48 0.205z"></path>
<path d="M20.848 6.883c-0.078 0-0.156-0.014-0.231-0.041l-0.977-0.361c-0.346-0.128-0.522-0.511-0.395-0.857s0.514-0.521 0.855-0.395l0.678 0.251 0.333-0.198c0.212-0.126 0.473-0.124 0.682 0l0.313 0.186 0.712-0.244c0.349-0.119 0.728 0.066 0.846 0.415 0.12 0.348-0.066 0.728-0.414 0.847l-1.004 0.344c-0.186 0.062-0.389 0.041-0.557-0.058l-0.237-0.141-0.266 0.158c-0.104 0.062-0.223 0.094-0.341 0.094z"></path>
</svg>
