<svg version="1.1" xmlns="http://www.w3.org/2000/svg" width="32" height="32" viewBox="0 0 32 32">
<title>button</title>
<path d="M28.492 24.001h-3.445c-0.369 0-0.667-0.298-0.667-0.667s0.298-0.667 0.667-0.667h3.445c1.159 0 2.175-1.031 2.175-2.207v-9.050c0-1.145-0.975-2.076-2.175-2.076h-25.075c-1.168 0-2.083 0.912-2.083 2.076v9.050c0 1.217 0.935 2.207 2.083 2.207h16.517c0.369 0 0.667 0.298 0.667 0.667s-0.298 0.667-0.667 0.667h-16.517c-1.884 0-3.417-1.589-3.417-3.54v-9.050c0-1.912 1.501-3.409 3.417-3.409h25.075c1.934 0 3.508 1.529 3.508 3.409v9.050c0 1.919-1.607 3.54-3.508 3.54z"></path>
<path d="M24.74 30.736v0c-0.357 0-0.687-0.193-0.865-0.503l-1.311-2.302-0.779 0.78c-0.534 0.534-1.559 0.202-1.684-0.536l-1.611-9.237c-0.052-0.288 0.026-0.583 0.214-0.807 0.349-0.417 1.029-0.469 1.431-0.103l7.057 6.34c0.284 0.257 0.396 0.641 0.294 1.007-0.1 0.365-0.395 0.637-0.766 0.71l-0.698 0.138 1.298 1.714c0.165 0.217 0.234 0.497 0.189 0.767-0.046 0.268-0.201 0.509-0.427 0.66l-1.788 1.204c-0.163 0.111-0.356 0.169-0.556 0.169zM22.71 26.175c0.030 0 0.059 0.001 0.089 0.007 0.206 0.027 0.388 0.15 0.491 0.331l1.564 2.745 1.19-0.801-1.727-2.279c-0.139-0.182-0.173-0.425-0.092-0.639 0.082-0.215 0.269-0.372 0.495-0.417l1.079-0.214-5.825-5.234 1.331 7.633 0.935-0.936c0.125-0.126 0.295-0.195 0.471-0.195z"></path>
</svg>
