<svg version="1.1" xmlns="http://www.w3.org/2000/svg" width="32" height="32" viewBox="0 0 32 32">
<title>calculator</title>
<path d="M24.072 32.013h-17.448c-1.416 0-2.568-1.161-2.568-2.59v-26.859c0-1.429 1.152-2.591 2.568-2.591h17.448c1.415 0 2.568 1.162 2.568 2.591v26.859c0 1.428-1.152 2.59-2.568 2.59zM6.624 1.306c-0.68 0-1.234 0.564-1.234 1.258v26.859c0 0.693 0.554 1.257 1.234 1.257h17.448c0.681 0 1.234-0.564 1.234-1.257v-26.859c0-0.693-0.553-1.258-1.234-1.258h-17.448z"></path>
<path d="M9.997 17.293c-1.088 0-1.973-0.885-1.973-1.973s0.885-1.973 1.973-1.973 1.973 0.885 1.973 1.973-0.885 1.973-1.973 1.973zM9.997 14.68c-0.353 0-0.64 0.287-0.64 0.64s0.287 0.64 0.64 0.64 0.64-0.287 0.64-0.64-0.287-0.64-0.64-0.64z"></path>
<path d="M15.331 17.293c-1.088 0-1.973-0.885-1.973-1.973s0.885-1.973 1.973-1.973c1.087 0 1.973 0.885 1.973 1.973s-0.885 1.973-1.973 1.973zM15.331 14.68c-0.353 0-0.64 0.287-0.64 0.64s0.287 0.64 0.64 0.64c0.352 0 0.639-0.287 0.639-0.64s-0.287-0.64-0.639-0.64z"></path>
<path d="M20.664 17.293c-1.087 0-1.973-0.885-1.973-1.973s0.885-1.973 1.973-1.973c1.089 0 1.974 0.885 1.974 1.973s-0.885 1.973-1.974 1.973zM20.664 14.68c-0.353 0-0.639 0.287-0.639 0.64s0.286 0.64 0.639 0.64 0.641-0.287 0.641-0.64-0.288-0.64-0.641-0.64z"></path>
<path d="M9.997 22.626c-1.088 0-1.973-0.885-1.973-1.973 0-1.089 0.885-1.974 1.973-1.974s1.973 0.885 1.973 1.974c-0 1.087-0.885 1.973-1.973 1.973zM9.997 20.013c-0.353 0-0.64 0.288-0.64 0.641s0.287 0.639 0.64 0.639 0.64-0.286 0.64-0.639-0.287-0.641-0.64-0.641z"></path>
<path d="M15.331 22.626c-1.088 0-1.973-0.885-1.973-1.973 0-1.089 0.885-1.974 1.973-1.974s1.973 0.885 1.973 1.974c0 1.087-0.885 1.973-1.973 1.973zM15.331 20.013c-0.353 0-0.64 0.288-0.64 0.641s0.287 0.639 0.64 0.639c0.352 0 0.639-0.286 0.639-0.639s-0.287-0.641-0.639-0.641z"></path>
<path d="M20.664 22.626c-1.087 0-1.973-0.885-1.973-1.973 0-1.089 0.885-1.974 1.973-1.974 1.089 0 1.974 0.885 1.974 1.974 0 1.087-0.885 1.973-1.974 1.973zM20.664 20.013c-0.353 0-0.639 0.288-0.639 0.641s0.286 0.639 0.639 0.639 0.641-0.286 0.641-0.639-0.288-0.641-0.641-0.641z"></path>
<path d="M9.997 27.961c-1.088 0-1.973-0.885-1.973-1.974 0-1.087 0.885-1.973 1.973-1.973s1.973 0.885 1.973 1.973c-0 1.089-0.885 1.974-1.973 1.974zM9.997 25.348c-0.353 0-0.64 0.286-0.64 0.639s0.287 0.641 0.64 0.641 0.64-0.288 0.64-0.641-0.287-0.639-0.64-0.639z"></path>
<path d="M15.331 27.961c-1.088 0-1.973-0.885-1.973-1.974 0-1.087 0.885-1.973 1.973-1.973s1.973 0.885 1.973 1.973c0 1.089-0.885 1.974-1.973 1.974zM15.331 25.348c-0.353 0-0.64 0.286-0.64 0.639s0.287 0.641 0.64 0.641c0.352 0 0.639-0.288 0.639-0.641s-0.287-0.639-0.639-0.639z"></path>
<path d="M20.664 27.961c-1.087 0-1.973-0.885-1.973-1.974 0-1.087 0.885-1.973 1.973-1.973 1.089 0 1.974 0.885 1.974 1.973 0 1.089-0.885 1.974-1.974 1.974zM20.664 25.348c-0.353 0-0.639 0.286-0.639 0.639s0.286 0.641 0.639 0.641 0.641-0.288 0.641-0.641-0.288-0.639-0.641-0.639z"></path>
<path d="M21.982 10.667h-13.333c-0.369 0-0.667-0.298-0.667-0.667v-5.333c0-0.369 0.298-0.667 0.667-0.667h13.333c0.369 0 0.667 0.298 0.667 0.667v5.333c0 0.369-0.298 0.667-0.667 0.667zM9.315 9.333h12v-4h-12v4z"></path>
</svg>
