<svg version="1.1" xmlns="http://www.w3.org/2000/svg" width="32" height="32" viewBox="0 0 32 32">
<title>calculator_new</title>
<path d="M27.215 32.013h-22.431c-1.416 0-2.568-1.161-2.568-2.589v-26.86c0-1.429 1.152-2.591 2.568-2.591h22.431c1.416 0 2.569 1.163 2.569 2.591v26.86c0 1.428-1.152 2.589-2.569 2.589zM4.784 1.305c-0.68 0-1.235 0.564-1.235 1.257v26.86c0 0.693 0.555 1.256 1.235 1.256h22.431c0.681 0 1.236-0.564 1.236-1.256v-26.859c0-0.693-0.555-1.257-1.236-1.257h-22.431z"></path>
<path d="M16 19.484c-1.193 0-2.163-0.971-2.163-2.163s0.971-2.163 2.163-2.163 2.163 0.971 2.163 2.163-0.969 2.163-2.163 2.163zM16 16.492c-0.457 0-0.829 0.372-0.829 0.829s0.372 0.829 0.829 0.829 0.829-0.372 0.829-0.829-0.372-0.829-0.829-0.829z"></path>
<path d="M16 25.592c-1.193 0-2.163-0.971-2.163-2.163s0.969-2.163 2.163-2.163 2.163 0.971 2.163 2.163-0.969 2.163-2.163 2.163zM16 22.6c-0.457 0-0.829 0.372-0.829 0.829s0.372 0.829 0.829 0.829 0.829-0.372 0.829-0.829-0.372-0.829-0.829-0.829z"></path>
<path d="M8.691 19.484c-1.193 0-2.163-0.971-2.163-2.163s0.971-2.163 2.163-2.163 2.163 0.971 2.163 2.163-0.969 2.163-2.163 2.163zM8.691 16.492c-0.457 0-0.829 0.372-0.829 0.829s0.372 0.829 0.829 0.829 0.829-0.372 0.829-0.829-0.372-0.829-0.829-0.829z"></path>
<path d="M8.691 25.592c-1.193 0-2.163-0.971-2.163-2.163s0.971-2.163 2.163-2.163 2.163 0.971 2.163 2.163-0.969 2.163-2.163 2.163zM8.691 22.6c-0.457 0-0.829 0.372-0.829 0.829s0.372 0.829 0.829 0.829 0.829-0.372 0.829-0.829-0.372-0.829-0.829-0.829z"></path>
<path d="M23.309 19.484c-1.193 0-2.164-0.971-2.164-2.163s0.972-2.163 2.164-2.163 2.163 0.971 2.163 2.163-0.969 2.163-2.163 2.163zM23.309 16.492c-0.459 0-0.831 0.372-0.831 0.829s0.372 0.829 0.831 0.829c0.457 0 0.829-0.372 0.829-0.829s-0.372-0.829-0.829-0.829z"></path>
<path d="M23.309 25.592c-1.193 0-2.164-0.971-2.164-2.163s0.972-2.163 2.164-2.163 2.163 0.971 2.163 2.163-0.969 2.163-2.163 2.163zM23.309 22.6c-0.459 0-0.831 0.372-0.831 0.829s0.372 0.829 0.831 0.829c0.457 0 0.829-0.372 0.829-0.829s-0.372-0.829-0.829-0.829z"></path>
<path d="M24.805 13h-17.611c-0.368 0-0.667-0.299-0.667-0.667v-7.944c0-0.368 0.299-0.667 0.667-0.667h17.611c0.368 0 0.667 0.299 0.667 0.667v7.944c0 0.368-0.297 0.667-0.667 0.667zM7.861 11.667h16.277v-6.611h-16.277v6.611z"></path>
</svg>
