<svg version="1.1" xmlns="http://www.w3.org/2000/svg" width="32" height="32" viewBox="0 0 32 32">
<title>calculator2</title>
<path d="M24.078 32.013h-17.448c-1.416 0-2.568-1.161-2.568-2.59v-26.859c0-1.429 1.152-2.591 2.568-2.591h17.448c1.415 0 2.568 1.162 2.568 2.591v26.859c0 1.428-1.152 2.59-2.568 2.59zM6.63 1.306c-0.68 0-1.234 0.564-1.234 1.258v26.859c0 0.693 0.554 1.257 1.234 1.257h17.448c0.681 0 1.234-0.564 1.234-1.257v-26.859c0-0.693-0.553-1.258-1.234-1.258h-17.448z"></path>
<path d="M13.861 17.34h-5.163c-0.369 0-0.667-0.298-0.667-0.667s0.298-0.667 0.667-0.667h5.163c0.369 0 0.667 0.298 0.667 0.667s-0.298 0.667-0.667 0.667z"></path>
<path d="M21.862 17.34h-5.163c-0.369 0-0.667-0.298-0.667-0.667s0.298-0.667 0.667-0.667h5.163c0.369 0 0.667 0.298 0.667 0.667s-0.298 0.667-0.667 0.667z"></path>
<path d="M21.862 25.341h-5.163c-0.369 0-0.667-0.298-0.667-0.667s0.298-0.667 0.667-0.667h5.163c0.369 0 0.667 0.298 0.667 0.667s-0.298 0.667-0.667 0.667z"></path>
<path d="M11.28 19.922c-0.369 0-0.667-0.298-0.667-0.667v-5.163c0-0.369 0.298-0.667 0.667-0.667s0.667 0.298 0.667 0.667v5.163c0 0.369-0.298 0.667-0.667 0.667z"></path>
<path d="M13.556 27.617c-0.171 0-0.341-0.065-0.471-0.195l-4.583-4.583c-0.26-0.26-0.26-0.682 0-0.943s0.682-0.26 0.943 0l4.583 4.583c0.26 0.26 0.26 0.682 0 0.943-0.13 0.13-0.301 0.195-0.471 0.195z"></path>
<path d="M8.988 27.633c-0.171 0-0.341-0.065-0.471-0.195-0.26-0.26-0.26-0.682 0-0.943l4.583-4.583c0.26-0.26 0.682-0.26 0.943 0s0.26 0.682 0 0.943l-4.583 4.583c-0.13 0.13-0.301 0.195-0.471 0.195z"></path>
<path d="M19.374 22.693c-0.175 0-0.348-0.079-0.481-0.199-0.12-0.134-0.201-0.307-0.201-0.467 0-0.173 0.066-0.346 0.187-0.466 0.266-0.267 0.706-0.267 0.96-0.013 0.12 0.133 0.186 0.306 0.186 0.479s-0.066 0.333-0.186 0.467c-0.133 0.12-0.307 0.199-0.466 0.199z"></path>
<path d="M19.359 28.026c-0.16 0-0.333-0.079-0.453-0.199-0.133-0.134-0.199-0.294-0.199-0.467 0-0.186 0.066-0.346 0.186-0.479 0.267-0.254 0.693-0.241 0.947 0 0.12 0.133 0.201 0.306 0.201 0.479s-0.081 0.333-0.201 0.467c-0.133 0.12-0.307 0.199-0.481 0.199z"></path>
<path d="M21.988 10.667h-13.333c-0.369 0-0.667-0.298-0.667-0.667v-5.333c0-0.369 0.298-0.667 0.667-0.667h13.333c0.369 0 0.667 0.298 0.667 0.667v5.333c0 0.369-0.298 0.667-0.667 0.667zM9.322 9.333h12v-4h-12v4z"></path>
</svg>
