<svg version="1.1" xmlns="http://www.w3.org/2000/svg" width="32" height="32" viewBox="0 0 32 32">
<title>calendar_month_day_planner_events</title>
<path d="M31.333 32h-30.667c-0.369 0-0.667-0.298-0.667-0.667v-22.667c0-0.369 0.298-0.667 0.667-0.667h30.667c0.369 0 0.667 0.298 0.667 0.667v22.667c0 0.369-0.298 0.667-0.667 0.667zM1.333 30.667h29.333v-21.333h-29.333v21.333z"></path>
<path d="M14.368 3.233l0.887 0.996-5.39 4.798-0.887-0.996 5.39-4.798z"></path>
<path d="M17.782 3.127l5.253 4.913-0.911 0.974-5.253-4.913 0.911-0.974z"></path>
<path d="M16 4.895c-1.303 0-2.363-1.060-2.363-2.363s1.060-2.363 2.363-2.363 2.363 1.060 2.363 2.363-1.060 2.363-2.363 2.363zM16 1.502c-0.568 0-1.030 0.462-1.030 1.030s0.462 1.030 1.030 1.030 1.030-0.462 1.030-1.030-0.462-1.030-1.030-1.030z"></path>
<path d="M31.333 13.333h-30.667c-0.369 0-0.667-0.298-0.667-0.667s0.298-0.667 0.667-0.667h30.667c0.369 0 0.667 0.298 0.667 0.667s-0.298 0.667-0.667 0.667z"></path>
<path d="M7.322 27.934h-1.246c-0.369 0-0.667-0.298-0.667-0.667s0.298-0.667 0.667-0.667h1.246c0.369 0 0.667 0.298 0.667 0.667s-0.298 0.667-0.667 0.667z"></path>
<path d="M11.378 27.934h-1.247c-0.369 0-0.667-0.298-0.667-0.667s0.298-0.667 0.667-0.667h1.247c0.369 0 0.667 0.298 0.667 0.667s-0.298 0.667-0.667 0.667z"></path>
<path d="M15.292 27.934h-1.246c-0.369 0-0.667-0.298-0.667-0.667s0.298-0.667 0.667-0.667h1.246c0.369 0 0.667 0.298 0.667 0.667s-0.298 0.667-0.667 0.667z"></path>
<path d="M19.293 27.934h-1.246c-0.369 0-0.667-0.298-0.667-0.667s0.298-0.667 0.667-0.667h1.246c0.369 0 0.667 0.298 0.667 0.667s-0.298 0.667-0.667 0.667z"></path>
<path d="M7.322 25.267h-1.246c-0.369 0-0.667-0.298-0.667-0.667s0.298-0.667 0.667-0.667h1.246c0.369 0 0.667 0.298 0.667 0.667s-0.298 0.667-0.667 0.667z"></path>
<path d="M11.378 25.267h-1.247c-0.369 0-0.667-0.298-0.667-0.667s0.298-0.667 0.667-0.667h1.247c0.369 0 0.667 0.298 0.667 0.667s-0.298 0.667-0.667 0.667z"></path>
<path d="M15.292 25.267h-1.246c-0.369 0-0.667-0.298-0.667-0.667s0.298-0.667 0.667-0.667h1.246c0.369 0 0.667 0.298 0.667 0.667s-0.298 0.667-0.667 0.667z"></path>
<path d="M19.293 25.267h-1.246c-0.369 0-0.667-0.298-0.667-0.667s0.298-0.667 0.667-0.667h1.246c0.369 0 0.667 0.298 0.667 0.667s-0.298 0.667-0.667 0.667z"></path>
<path d="M23.293 25.267h-1.246c-0.369 0-0.667-0.298-0.667-0.667s0.298-0.667 0.667-0.667h1.246c0.369 0 0.667 0.298 0.667 0.667s-0.298 0.667-0.667 0.667z"></path>
<path d="M27.294 25.267h-1.247c-0.369 0-0.667-0.298-0.667-0.667s0.298-0.667 0.667-0.667h1.247c0.369 0 0.667 0.298 0.667 0.667s-0.298 0.667-0.667 0.667z"></path>
<path d="M7.322 22.599h-1.246c-0.369 0-0.667-0.298-0.667-0.667s0.298-0.667 0.667-0.667h1.246c0.369 0 0.667 0.298 0.667 0.667s-0.298 0.667-0.667 0.667z"></path>
<path d="M11.378 22.599h-1.247c-0.369 0-0.667-0.298-0.667-0.667s0.298-0.667 0.667-0.667h1.247c0.369 0 0.667 0.298 0.667 0.667s-0.298 0.667-0.667 0.667z"></path>
<path d="M15.292 22.599h-1.246c-0.369 0-0.667-0.298-0.667-0.667s0.298-0.667 0.667-0.667h1.246c0.369 0 0.667 0.298 0.667 0.667s-0.298 0.667-0.667 0.667z"></path>
<path d="M19.293 22.599h-1.246c-0.369 0-0.667-0.298-0.667-0.667s0.298-0.667 0.667-0.667h1.246c0.369 0 0.667 0.298 0.667 0.667s-0.298 0.667-0.667 0.667z"></path>
<path d="M23.293 22.599h-1.246c-0.369 0-0.667-0.298-0.667-0.667s0.298-0.667 0.667-0.667h1.246c0.369 0 0.667 0.298 0.667 0.667s-0.298 0.667-0.667 0.667z"></path>
<path d="M27.294 22.599h-1.247c-0.369 0-0.667-0.298-0.667-0.667s0.298-0.667 0.667-0.667h1.247c0.369 0 0.667 0.298 0.667 0.667s-0.298 0.667-0.667 0.667z"></path>
<path d="M7.322 19.932h-1.246c-0.369 0-0.667-0.298-0.667-0.667s0.298-0.667 0.667-0.667h1.246c0.369 0 0.667 0.298 0.667 0.667s-0.298 0.667-0.667 0.667z"></path>
<path d="M11.378 19.932h-1.247c-0.369 0-0.667-0.298-0.667-0.667s0.298-0.667 0.667-0.667h1.247c0.369 0 0.667 0.298 0.667 0.667s-0.298 0.667-0.667 0.667z"></path>
<path d="M15.292 19.932h-1.246c-0.369 0-0.667-0.298-0.667-0.667s0.298-0.667 0.667-0.667h1.246c0.369 0 0.667 0.298 0.667 0.667s-0.298 0.667-0.667 0.667z"></path>
<path d="M19.293 19.932h-1.246c-0.369 0-0.667-0.298-0.667-0.667s0.298-0.667 0.667-0.667h1.246c0.369 0 0.667 0.298 0.667 0.667s-0.298 0.667-0.667 0.667z"></path>
<path d="M23.293 19.932h-1.246c-0.369 0-0.667-0.298-0.667-0.667s0.298-0.667 0.667-0.667h1.246c0.369 0 0.667 0.298 0.667 0.667s-0.298 0.667-0.667 0.667z"></path>
<path d="M27.294 19.932h-1.247c-0.369 0-0.667-0.298-0.667-0.667s0.298-0.667 0.667-0.667h1.247c0.369 0 0.667 0.298 0.667 0.667s-0.298 0.667-0.667 0.667z"></path>
<path d="M19.293 17.266h-1.246c-0.369 0-0.667-0.298-0.667-0.667s0.298-0.667 0.667-0.667h1.246c0.369 0 0.667 0.298 0.667 0.667s-0.298 0.667-0.667 0.667z"></path>
<path d="M23.293 17.266h-1.246c-0.369 0-0.667-0.298-0.667-0.667s0.298-0.667 0.667-0.667h1.246c0.369 0 0.667 0.298 0.667 0.667s-0.298 0.667-0.667 0.667z"></path>
<path d="M27.294 17.266h-1.247c-0.369 0-0.667-0.298-0.667-0.667s0.298-0.667 0.667-0.667h1.247c0.369 0 0.667 0.298 0.667 0.667s-0.298 0.667-0.667 0.667z"></path>
</svg>
