<svg version="1.1" xmlns="http://www.w3.org/2000/svg" width="32" height="32" viewBox="0 0 32 32">
<title>calendar_month_day_planner</title>
<path d="M28.161 32h-24.323c-2.117 0-3.839-1.721-3.839-3.839v-24.324c0-2.117 1.722-3.838 3.839-3.838h24.323c2.117 0 3.839 1.721 3.839 3.838v24.324c0 2.117-1.721 3.839-3.839 3.839zM3.839 1.333c-1.381 0-2.505 1.124-2.505 2.505v24.324c0 1.381 1.124 2.505 2.505 2.505h24.323c1.381 0 2.505-1.124 2.505-2.505v-24.324c0-1.381-1.124-2.505-2.505-2.505h-24.323z"></path>
<path d="M31.333 9.333h-30.667c-0.369 0-0.667-0.298-0.667-0.667s0.298-0.667 0.667-0.667h30.667c0.369 0 0.667 0.298 0.667 0.667s-0.298 0.667-0.667 0.667z"></path>
<path d="M10.013 5.453c-0.187 0-0.36-0.080-0.48-0.2s-0.187-0.294-0.187-0.467 0.067-0.347 0.187-0.48c0.24-0.24 0.693-0.253 0.947 0 0.12 0.133 0.2 0.307 0.2 0.48s-0.080 0.346-0.2 0.467c-0.133 0.133-0.294 0.2-0.467 0.2z"></path>
<path d="M22.013 5.453c-0.186 0-0.359-0.080-0.481-0.2-0.12-0.12-0.186-0.294-0.186-0.467s0.066-0.347 0.186-0.48c0.254-0.24 0.694-0.24 0.947 0 0.134 0.133 0.201 0.307 0.201 0.48s-0.066 0.333-0.201 0.467c-0.12 0.133-0.293 0.2-0.466 0.2z"></path>
<path d="M22.010 26.564c-0.369 0-0.667-0.298-0.667-0.667v-10.93l-1.861 0.687c-0.342 0.128-0.729-0.049-0.855-0.395-0.128-0.346 0.048-0.729 0.395-0.857l2.758-1.018c0.201-0.075 0.432-0.047 0.612 0.079 0.178 0.124 0.285 0.329 0.285 0.547v11.887c-0 0.369-0.298 0.667-0.667 0.667z"></path>
<path d="M12.604 26.714c-1.948 0-3.962-0.965-4.723-2.371-0.176-0.324-0.055-0.729 0.268-0.904s0.729-0.056 0.904 0.268c0.611 1.126 2.706 1.905 4.314 1.604 0.81-0.152 1.813-0.633 1.991-2.059 0.104-0.836-0.061-1.47-0.506-1.936-0.894-0.936-2.762-1.004-3.411-0.961-0.277 0.017-0.519-0.119-0.643-0.354-0.124-0.237-0.095-0.525 0.074-0.731l3.743-4.594h-5.722c-0.369 0-0.667-0.298-0.667-0.667s0.298-0.667 0.667-0.667h7.126c0.258 0 0.492 0.148 0.602 0.381 0.111 0.232 0.078 0.508-0.085 0.707l-3.783 4.641c0.968 0.116 2.223 0.443 3.063 1.323 0.729 0.764 1.019 1.78 0.865 3.022-0.214 1.71-1.331 2.878-3.067 3.203-0.329 0.062-0.669 0.092-1.010 0.092z"></path>
</svg>
