<svg version="1.1" xmlns="http://www.w3.org/2000/svg" width="32" height="32" viewBox="0 0 32 32">
<title>calendar_month_day_planner_events2</title>
<path d="M28.143 32h-24.493c-2.115 0-3.65-1.573-3.65-3.74v-24.574c0-2.136 1.535-3.686 3.65-3.686h24.493c2.199 0 3.857 1.585 3.857 3.686v24.573c0 2.098-1.694 3.741-3.857 3.741zM3.65 1.333c-1.385 0-2.316 0.945-2.316 2.353v24.574c0 1.417 0.953 2.406 2.316 2.406h24.493c1.439 0 2.523-1.035 2.523-2.408v-24.573c0-1.341-1.085-2.353-2.523-2.353h-24.493z"></path>
<path d="M0.667 9.333h30.667v1.333h-30.667v-1.333z"></path>
<path d="M5.333 9.936h1.333v21.397h-1.333v-21.397z"></path>
<path d="M12 9.936h1.333v21.397h-1.333v-21.397z"></path>
<path d="M18.667 9.936h1.333v21.397h-1.333v-21.397z"></path>
<path d="M25.333 9.936h1.333v21.397h-1.333v-21.397z"></path>
<path d="M0.667 25.333h30.667v1.333h-30.667v-1.333z"></path>
<path d="M0.667 20h30.667v1.333h-30.667v-1.333z"></path>
<path d="M0.667 14.667h30.667v1.333h-30.667v-1.333z"></path>
<path d="M10.189 6.529c-0.979 0-1.776-0.797-1.776-1.776s0.797-1.777 1.776-1.777c0.98 0 1.777 0.797 1.777 1.777s-0.797 1.776-1.777 1.776zM10.189 4.309c-0.244 0-0.443 0.199-0.443 0.443s0.199 0.443 0.443 0.443c0.245 0 0.443-0.199 0.443-0.443s-0.199-0.443-0.443-0.443z"></path>
<path d="M21.811 6.529c-0.979 0-1.776-0.797-1.776-1.776s0.797-1.777 1.776-1.777 1.776 0.797 1.776 1.777c0 0.979-0.797 1.776-1.776 1.776zM21.811 4.309c-0.243 0-0.443 0.199-0.443 0.443s0.199 0.443 0.443 0.443 0.443-0.199 0.443-0.443c0-0.245-0.199-0.443-0.443-0.443z"></path>
</svg>
