<!-- Generated by IcoMoon.io -->
<svg version="1.1" xmlns="http://www.w3.org/2000/svg" width="32" height="32" viewBox="0 0 32 32">
<title>calendar_month_day_planner</title>
<path d="M26 4h-1v-1c0-0.6-0.4-1-1-1s-1 0.4-1 1v1h-14v-1c0-0.6-0.4-1-1-1s-1 0.4-1 1v1h-1c-2.2 0-4 1.8-4 4v18c0 2.2 1.8 4 4 4h20c2.2 0 4-1.8 4-4v-18c0-2.2-1.8-4-4-4zM6 6h20c1.1 0 2 0.9 2 2v1h-24v-1c0-1.1 0.9-2 2-2zM26 28h-20c-1.1 0-2-0.9-2-2v-15h24v15c0 1.1-0.9 2-2 2z"></path>
<path d="M22 13.2h-0.3c-0.2 0-0.4 0.1-0.6 0.2l-2.7 2c-0.4 0.3-0.5 1-0.2 1.4s1 0.5 1.4 0.2l1.4-1v8.7c0 0.6 0.4 1 1 1s1-0.4 1-1v-10.5c0-0.5-0.4-1-1-1z"></path>
<path d="M14.8 19.1c0.1-0.1 0.1-0.1 0.2-0.2 0.6-0.6 1-1.5 1-2.4 0-2-1.7-3.5-4-3.5-1.6 0-2.7 0.9-3.2 1.7-0.3 0.5-0.1 1.1 0.4 1.4s1.1 0.1 1.4-0.4c0-0.1 0.4-0.7 1.5-0.7 0.2 0 2 0 2 1.5 0 0.4-0.1 0.7-0.4 1-0.5 0.5-1.3 0.7-1.6 0.7-0.6 0-1 0.4-1 1s0.4 1 1 1c0.5 0 1.3 0.2 1.9 0.8 0.4 0.4 0.4 0.9 0.4 1.3 0 1.3-1.2 1.7-2.3 1.7-1.2 0-1.8-1-1.9-1.1-0.3-0.5-0.9-0.6-1.4-0.4-0.5 0.3-0.6 0.9-0.4 1.4 0.6 1 1.9 2.1 3.6 2.1 2.5 0 4.3-1.5 4.3-3.7 0-1.1-0.3-2-1-2.7-0.2-0.2-0.3-0.4-0.5-0.5z"></path>
</svg>
