<!-- Generated by IcoMoon.io -->
<svg version="1.1" xmlns="http://www.w3.org/2000/svg" width="32" height="32" viewBox="0 0 32 32">
<title>calendar_month</title>
<path d="M9 3v1h14v-1c0-0.552 0.448-1 1-1s1 0.448 1 1v1h1c2.209 0 4 1.791 4 4v18c0 2.209-1.791 4-4 4h-20c-2.209 0-4-1.791-4-4v-18c0-2.209 1.791-4 4-4h1v-1c0-0.552 0.448-1 1-1s1 0.448 1 1zM24 6h-18c-1.105 0-2 0.895-2 2v1h24v-1c0-1.105-0.895-2-2-2h-2zM28 11h-24v15c0 1.105 0.895 2 2 2h20c1.105 0 2-0.895 2-2v-15z"></path>
<path d="M8.608 23.063c-0.060 0-0.156-0.003-0.288-0.010s-0.272-0.027-0.418-0.060c-0.146-0.027-0.272-0.070-0.378-0.13-0.099-0.067-0.149-0.154-0.149-0.261 0-0.060 0.013-0.164 0.040-0.311s0.070-0.284 0.129-0.411c0.060-0.134 0.139-0.204 0.239-0.21 0.053 0 0.119 0.013 0.199 0.040s0.199 0.040 0.358 0.040c0.298 0 0.51-0.080 0.636-0.241 0.133-0.167 0.199-0.434 0.199-0.802v-4.439c0-0.22 0.199-0.331 0.597-0.331h0.348c0.398 0 0.597 0.11 0.597 0.331v4.69c0 0.421-0.073 0.792-0.219 1.112-0.146 0.314-0.375 0.558-0.686 0.732-0.305 0.174-0.706 0.261-1.203 0.261z"></path>
<path d="M11.982 23.002c-0.404 0-0.607-0.073-0.607-0.22 0-0.027 0.003-0.053 0.010-0.080 0.013-0.033 0.023-0.067 0.030-0.1l2.188-6.444c0.053-0.14 0.242-0.21 0.567-0.21h0.517c0.331 0 0.52 0.070 0.567 0.21l2.188 6.444c0.020 0.067 0.030 0.127 0.030 0.18 0 0.147-0.166 0.22-0.497 0.22h-0.438c-0.146 0-0.268-0.013-0.368-0.040-0.099-0.033-0.162-0.090-0.189-0.17l-0.398-1.223h-2.347l-0.398 1.223c-0.027 0.073-0.080 0.127-0.159 0.16s-0.179 0.050-0.298 0.050h-0.398zM13.663 20.247h1.492l-0.567-1.784c-0.033-0.107-0.063-0.214-0.089-0.321-0.020-0.107-0.040-0.214-0.060-0.321h-0.040c-0.020 0.107-0.040 0.214-0.060 0.321s-0.050 0.214-0.089 0.321l-0.587 1.784z"></path>
<path d="M18.757 23.002c-0.398 0-0.597-0.107-0.597-0.321v-6.413c0-0.214 0.199-0.321 0.597-0.321h0.428c0.146 0 0.272 0.017 0.378 0.050 0.113 0.033 0.206 0.107 0.278 0.22l2.237 3.477c0.073 0.1 0.136 0.197 0.189 0.291 0.060 0.094 0.116 0.194 0.169 0.301l0.040-0.010c-0.007-0.114-0.013-0.217-0.020-0.311 0-0.1 0-0.224 0-0.371v-3.327c0-0.214 0.199-0.321 0.597-0.321h0.288c0.398 0 0.597 0.107 0.597 0.321v6.413c0 0.214-0.199 0.321-0.597 0.321h-0.378c-0.146 0-0.275-0.017-0.388-0.050-0.106-0.033-0.196-0.107-0.268-0.22l-2.287-3.527c-0.066-0.1-0.129-0.197-0.189-0.291s-0.116-0.194-0.169-0.301l-0.040 0.010c0.013 0.114 0.020 0.221 0.020 0.321 0 0.094 0 0.214 0 0.361v3.377c0 0.214-0.199 0.321-0.597 0.321h-0.288z"></path>
</svg>
