<!-- Generated by IcoMoon.io -->
<svg version="1.1" xmlns="http://www.w3.org/2000/svg" width="32" height="32" viewBox="0 0 32 32">
<title>calendar_month_day_planner</title>
<path fill="none" stroke-linejoin="round" stroke-linecap="butt" stroke-miterlimit="4" stroke-width="2" stroke="#000" d="M6 5h20c1.657 0 3 1.343 3 3v18c0 1.657-1.343 3-3 3h-20c-1.657 0-3-1.343-3-3v-18c0-1.657 1.343-3 3-3z"></path>
<path fill="none" stroke-linejoin="round" stroke-linecap="round" stroke-miterlimit="4" stroke-width="2" stroke="#000" d="M8 3v2M24 3v2M29 10h-26M19 16.25l2.714-2h0.286v10.5M11.992 19.164c0.569 0 1.612-0.267 2.295-0.967 0.43-0.429 0.696-1.022 0.696-1.677 0-0.009-0-0.019-0-0.028v0.001c0-1.633-1.412-2.494-2.993-2.494-1.338 0-2.095 0.726-2.366 1.183M9.313 23.385c0.305 0.517 1.232 1.615 2.742 1.615 1.787 0 3.258-0.996 3.258-2.739 0-0.789-0.229-1.5-0.724-2.004-0.772-0.79-1.953-1.093-2.597-1.093"></path>
</svg>
