<svg version="1.1" xmlns="http://www.w3.org/2000/svg" width="32" height="32" viewBox="0 0 32 32">
<title>calendar_month_day_planner2</title>
<path d="M28.161 32h-24.323c-2.117 0-3.839-1.721-3.839-3.839v-24.324c0-2.117 1.722-3.838 3.839-3.838h24.323c2.117 0 3.839 1.721 3.839 3.838v24.324c0 2.117-1.721 3.839-3.839 3.839zM3.839 1.333c-1.381 0-2.505 1.124-2.505 2.505v24.324c0 1.381 1.124 2.505 2.505 2.505h24.323c1.381 0 2.505-1.124 2.505-2.505v-24.324c0-1.381-1.124-2.505-2.505-2.505h-24.323z"></path>
<path d="M0.667 8h30.667v1.333h-30.667v-1.333z"></path>
<path d="M10.013 5.453c-0.187 0-0.36-0.080-0.48-0.2s-0.187-0.294-0.187-0.467 0.067-0.347 0.187-0.48c0.24-0.24 0.693-0.253 0.947 0 0.12 0.133 0.2 0.307 0.2 0.48s-0.080 0.346-0.2 0.467c-0.133 0.133-0.294 0.2-0.467 0.2z"></path>
<path d="M22.013 5.453c-0.186 0-0.359-0.080-0.481-0.2-0.12-0.12-0.186-0.294-0.186-0.467s0.066-0.347 0.186-0.48c0.254-0.24 0.694-0.24 0.947 0 0.134 0.133 0.201 0.307 0.201 0.48s-0.066 0.333-0.201 0.467c-0.12 0.133-0.293 0.2-0.466 0.2z"></path>
<path d="M7.418 25.169c-2.153 0-3.14-1.797-3.182-1.878-0.174-0.324-0.051-0.728 0.273-0.902 0.326-0.173 0.729-0.051 0.902 0.275 0.027 0.048 0.734 1.268 2.193 1.165 1.583-0.111 1.611-2.251 1.611-2.342v-6.458c0-0.369 0.298-0.667 0.667-0.667s0.667 0.298 0.667 0.667v6.46c0.002 1.201-0.592 3.513-2.852 3.672-0.095 0.007-0.188 0.009-0.279 0.009z"></path>
<path d="M17.82 25.169c-0.369 0-0.667-0.298-0.667-0.667v-4.087c0.001-0.042 0.035-1.117-0.687-1.648-0.653-0.478-1.811-0.443-3.351 0.105-0.348 0.127-0.729-0.057-0.852-0.404-0.123-0.348 0.058-0.728 0.404-0.852 2.013-0.719 3.561-0.689 4.602 0.086 1.293 0.964 1.22 2.675 1.216 2.746l0.001 4.053c-0 0.368-0.298 0.667-0.667 0.667z"></path>
<path d="M14.452 25.309c-1.58 0-2.624-0.931-2.794-2.493-0.124-1.138 0.343-1.794 0.756-2.143 1.614-1.365 5.185-0.409 5.587-0.297 0.354 0.1 0.56 0.467 0.461 0.823-0.1 0.353-0.465 0.56-0.823 0.461-1.257-0.353-3.553-0.656-4.365 0.031-0.156 0.133-0.357 0.379-0.291 0.982 0.035 0.324 0.18 1.301 1.486 1.303 1.283-0.009 2.622-0.911 2.686-1.579 0.036-0.367 0.374-0.622 0.728-0.6 0.366 0.035 0.635 0.361 0.6 0.728-0.148 1.555-2.275 2.773-4.006 2.785-0.008 0-0.017 0-0.027 0z"></path>
<path d="M20.544 25.169c-0.369 0-0.667-0.298-0.667-0.667v-6.737c0-0.369 0.298-0.667 0.667-0.667s0.667 0.298 0.667 0.667v6.737c0 0.368-0.298 0.667-0.667 0.667z"></path>
<path d="M25.992 25.169c-0.369 0-0.667-0.298-0.667-0.667v-4.323c0-0.017-0.001-0.78-0.495-1.276-0.31-0.313-0.775-0.471-1.381-0.471-1.984 0-2.234 1.783-2.243 1.859-0.047 0.365-0.389 0.624-0.746 0.577-0.365-0.047-0.624-0.38-0.577-0.746 0.133-1.046 1.051-3.023 3.566-3.023 0.983 0 1.771 0.296 2.341 0.879 0.871 0.888 0.871 2.082 0.869 2.216v4.309c-0 0.369-0.298 0.667-0.667 0.667z"></path>
</svg>
