<svg version="1.1" xmlns="http://www.w3.org/2000/svg" width="32" height="32" viewBox="0 0 32 32">
<title>camera_video_surveillacance_security</title>
<path d="M24.561 32h-17.161c-1.173 0-2.653-0.408-3.316-1.319-0.33-0.453-0.419-0.99-0.251-1.509l1.771-5.266c0.118-0.348 0.495-0.534 0.845-0.419 0.349 0.117 0.536 0.495 0.419 0.844l-1.769 5.258c-0.029 0.089-0.031 0.18 0.063 0.309 0.275 0.378 1.187 0.77 2.238 0.77h17.161c1.042 0 2.021-0.418 2.283-0.809 0.073-0.109 0.059-0.168 0.033-0.228l-1.784-5.279c-0.119-0.349 0.069-0.728 0.418-0.845 0.349-0.116 0.728 0.072 0.845 0.418l1.769 5.238c0.189 0.456 0.133 0.981-0.173 1.437-0.644 0.962-2.21 1.4-3.391 1.4z"></path>
<path d="M15.981 25.327c-6.85 0-12.423-5.573-12.423-12.424s5.573-12.423 12.423-12.423 12.423 5.573 12.423 12.423c-0 6.851-5.573 12.424-12.423 12.424zM15.981 1.813c-6.115 0-11.090 4.975-11.090 11.090s4.975 11.091 11.090 11.091c6.115 0 11.090-4.975 11.090-11.091s-4.975-11.090-11.090-11.090z"></path>
<path d="M15.98 20.574c-2.641 0-4.79-2.148-4.79-4.79s2.148-4.79 4.79-4.79 4.79 2.149 4.79 4.79-2.149 4.79-4.79 4.79zM15.98 12.327c-1.906 0-3.456 1.551-3.456 3.457s1.551 3.456 3.456 3.456 3.456-1.551 3.456-3.456c-0-1.906-1.551-3.457-3.456-3.457z"></path>
<path d="M15.98 18.087c-1.27 0-2.303-1.033-2.303-2.303s1.033-2.303 2.303-2.303 2.303 1.033 2.303 2.303-1.033 2.303-2.303 2.303zM15.98 14.814c-0.535 0-0.97 0.435-0.97 0.97s0.435 0.969 0.97 0.969c0.535 0 0.969-0.435 0.969-0.969s-0.435-0.97-0.969-0.97z"></path>
</svg>
