<svg version="1.1" xmlns="http://www.w3.org/2000/svg" width="32" height="32" viewBox="0 0 32 32">
<title>camera_video_surveillacance_security2</title>
<path d="M10.001 26.626h-7.841c-0.369 0-0.667-0.298-0.667-0.667s0.298-0.667 0.667-0.667h7.841c1.061 0 1.925-0.863 1.925-1.925v-1.931c0-0.369 0.298-0.667 0.667-0.667s0.667 0.298 0.667 0.667v1.931c-0 1.797-1.462 3.258-3.258 3.258z"></path>
<path d="M29.538 21.733c-0.055 0-0.112-0.007-0.168-0.021l-4.654-1.208c-0.22-0.057-0.397-0.224-0.466-0.441-0.070-0.217-0.025-0.456 0.121-0.63l4.197-5.047c0.165-0.199 0.43-0.282 0.681-0.219l1.951 0.507c0.171 0.044 0.318 0.155 0.406 0.307 0.090 0.152 0.116 0.335 0.072 0.506l-1.493 5.748c-0.078 0.3-0.349 0.499-0.646 0.499zM26.068 19.477l2.992 0.777 1.159-4.458-0.896-0.232-3.255 3.913z"></path>
<path d="M23.064 22.005c-0.161 0-0.323-0.019-0.479-0.060l-20.871-5.336c-0.499-0.128-0.919-0.443-1.182-0.886s-0.337-0.962-0.209-1.462l2.12-8.293c0.258-1.011 1.327-1.655 2.348-1.391l24.787 6.337c0.643 0.165 1.15 0.641 1.355 1.273s0.075 1.316-0.348 1.827l-6.036 7.291c-0.366 0.444-0.909 0.699-1.486 0.699zM4.313 5.85c-0.273 0-0.51 0.185-0.578 0.449l-2.12 8.293c-0.040 0.154-0.017 0.314 0.064 0.451s0.21 0.234 0.365 0.273l20.873 5.337c0.223 0.060 0.461-0.022 0.605-0.198l6.038-7.292c0.187-0.227 0.137-0.47 0.105-0.564-0.030-0.094-0.133-0.321-0.418-0.394l-24.788-6.337c-0.049-0.012-0.098-0.019-0.146-0.019z"></path>
<path d="M23.293 14.6c-0.173 0-0.346-0.066-0.466-0.186s-0.201-0.294-0.201-0.467c0-0.187 0.081-0.36 0.201-0.481 0.253-0.253 0.68-0.253 0.932 0 0.134 0.133 0.201 0.307 0.201 0.481 0 0.159-0.066 0.333-0.186 0.453-0.134 0.133-0.307 0.2-0.481 0.2z"></path>
</svg>
