<!-- Generated by IcoMoon.io -->
<svg version="1.1" xmlns="http://www.w3.org/2000/svg" width="32" height="32" viewBox="0 0 32 32">
<title>caret_next_circle_right</title>
<path d="M14.889 21.402l5.568-4.633c0.221-0.185 0.36-0.46 0.36-0.769s-0.14-0.584-0.359-0.767l-0.002-0.001-5.568-4.633c-0.172-0.144-0.395-0.231-0.639-0.231-0.552 0-1 0.447-1 0.999v9.268c0 0.552 0.448 0.999 1 0.999 0.244 0 0.467-0.087 0.641-0.232l-0.002 0.001z"></path>
<path fill="none" stroke="#444" stroke-linejoin="miter" stroke-linecap="butt" stroke-miterlimit="10" stroke-width="2" d="M28 16c0-6.625-5.375-12-12-12s-12 5.375-12 12 5.375 12 12 12 12-5.375 12-12z"></path>
</svg>
