<!-- Generated by IcoMoon.io -->
<svg version="1.1" xmlns="http://www.w3.org/2000/svg" width="32" height="32" viewBox="0 0 32 32">
<title>caret_next_circle_right</title>
<path d="M20.5 15.2l-5.6-4.6c-0.2-0.1-0.4-0.2-0.6-0.2-0.6 0-1 0.4-1 1v9.3c0 0.6 0.4 1 1 1 0.2 0 0.5-0.1 0.6-0.2v0 0l5.6-4.6c0.2-0.2 0.4-0.5 0.4-0.8s-0.2-0.7-0.4-0.9v0z"></path>
<path d="M16 3c-7.2 0-13 5.8-13 13s5.8 13 13 13c7.2 0 13-5.8 13-13s-5.8-13-13-13zM16 27c-6.1 0-11-4.9-11-11s4.9-11 11-11 11 4.9 11 11-4.9 11-11 11z"></path>
</svg>
