<!-- Generated by IcoMoon.io -->
<svg version="1.1" xmlns="http://www.w3.org/2000/svg" width="32" height="32" viewBox="0 0 32 32">
<title>cd_dvd_disc_software</title>
<path d="M16 2c-7.7 0-14 6.3-14 14s6.3 14 14 14 14-6.3 14-14-6.3-14-14-14zM16 28c-6.6 0-12-5.4-12-12s5.4-12 12-12c6.6 0 12 5.4 12 12s-5.4 12-12 12z"></path>
<path d="M16 9c-3.9 0-7 3.1-7 7s3.1 7 7 7c3.9 0 7-3.1 7-7s-3.1-7-7-7zM16 21c-2.8 0-5-2.2-5-5s2.2-5 5-5 5 2.2 5 5-2.2 5-5 5z"></path>
<path d="M18 16c0 1.105-0.895 2-2 2s-2-0.895-2-2c0-1.105 0.895-2 2-2s2 0.895 2 2z"></path>
</svg>
