<svg version="1.1" xmlns="http://www.w3.org/2000/svg" width="32" height="32" viewBox="0 0 32 32">
<title>cd_dvd_disc_software</title>
<path d="M15.999 31.815c-8.71 0-15.797-7.086-15.797-15.796s7.087-15.797 15.797-15.797c8.711 0 15.797 7.087 15.797 15.797s-7.086 15.796-15.797 15.796zM15.999 1.556c-7.975 0-14.464 6.488-14.464 14.464 0 7.974 6.488 14.462 14.464 14.462s14.464-6.488 14.464-14.462c0-7.975-6.488-14.464-14.464-14.464z"></path>
<path d="M15.999 21.706c-3.136 0-5.687-2.551-5.687-5.686s2.551-5.687 5.687-5.687c3.135 0 5.686 2.551 5.686 5.687s-2.551 5.686-5.686 5.686zM15.999 11.666c-2.4 0-4.353 1.953-4.353 4.353s1.953 4.353 4.353 4.353c2.4 0 4.353-1.953 4.353-4.353s-1.953-4.353-4.353-4.353z"></path>
<path d="M15.999 18.292c-1.253 0-2.272-1.019-2.272-2.272s1.019-2.273 2.272-2.273 2.272 1.019 2.272 2.273c0 1.253-1.019 2.272-2.272 2.272zM15.999 15.080c-0.518 0-0.939 0.421-0.939 0.939s0.421 0.939 0.939 0.939c0.518 0 0.939-0.421 0.939-0.939s-0.421-0.939-0.939-0.939z"></path>
</svg>
