<svg version="1.1" xmlns="http://www.w3.org/2000/svg" width="32" height="32" viewBox="0 0 32 32">
<title>centered_graphic</title>
<path d="M27.906 15.488l-0.066-0.684c-0.578-5.797-5.131-10.363-10.828-10.853l-0.694-0.059v-3.663h-0.75v3.559l-0.631 0.106c-6.313 1.084-9.897 4.669-10.959 10.966l-0.106 0.631h-3.638v0.75h3.634l0.106 0.631c1.072 6.297 4.653 9.881 10.956 10.956l0.631 0.106 0.009 3.831h0.741c0.003-0.859 0-3.941 0-3.941l0.675-0.072c2.95-0.319 5.363-1.45 7.375-3.459 1.988-1.988 3.153-4.469 3.466-7.378l0.072-0.678 3.856-0.006v-0.747h-3.85zM15.853 26.825c-6.016-0.028-10.891-4.981-10.869-11.044 0.019-6.037 4.941-10.947 10.963-10.947h0.037c6.034 0.019 10.934 4.934 10.919 10.956-0.016 6.084-4.95 11.034-11.050 11.034z"></path>
<path d="M18.253 15.863c0 1.277-1.035 2.313-2.313 2.313s-2.313-1.035-2.313-2.313c0-1.277 1.035-2.313 2.313-2.313s2.313 1.035 2.313 2.313z"></path>
</svg>
