<svg version="1.1" xmlns="http://www.w3.org/2000/svg" width="32" height="32" viewBox="0 0 32 32">
<title>central_collector</title>
<path d="M16.066 21.656c-3.119 0-5.656-2.538-5.656-5.656s2.537-5.656 5.656-5.656 5.656 2.537 5.656 5.656-2.538 5.656-5.656 5.656zM16.066 11.688c-2.378 0-4.313 1.934-4.313 4.313s1.934 4.313 4.313 4.313 4.313-1.934 4.313-4.313-1.934-4.313-4.313-4.313z"></path>
<path d="M4.841 12.206c-0.516 0-1.025-0.137-1.481-0.409-0.669-0.397-1.141-1.031-1.334-1.784s-0.078-1.534 0.319-2.2c0.397-0.669 1.031-1.141 1.784-1.334 0.753-0.191 1.534-0.078 2.203 0.319s1.141 1.031 1.334 1.784 0.078 1.534-0.319 2.203-1.031 1.141-1.784 1.334c-0.237 0.059-0.481 0.088-0.722 0.088zM4.847 7.731c-0.128 0-0.259 0.016-0.391 0.050-0.406 0.103-0.747 0.359-0.959 0.719s-0.275 0.781-0.172 1.184c0.103 0.406 0.359 0.747 0.719 0.959s0.781 0.275 1.184 0.172c0.406-0.103 0.747-0.359 0.959-0.719s0.275-0.781 0.172-1.184c-0.103-0.406-0.359-0.747-0.719-0.959-0.241-0.147-0.516-0.222-0.794-0.222z"></path>
<path d="M4.972 25.566c-0.222 0-0.444-0.025-0.662-0.075-0.756-0.175-1.4-0.634-1.813-1.294s-0.541-1.441-0.366-2.197 0.634-1.4 1.294-1.813 1.441-0.541 2.197-0.366 1.4 0.634 1.813 1.294c0.412 0.659 0.541 1.441 0.366 2.197s-0.634 1.4-1.294 1.813c-0.469 0.291-0.997 0.441-1.534 0.441zM4.963 21.091c-0.291 0-0.575 0.081-0.825 0.238-0.356 0.222-0.603 0.569-0.697 0.975s-0.025 0.828 0.197 1.181 0.569 0.603 0.975 0.697c0.841 0.194 1.684-0.331 1.878-1.172 0.094-0.406 0.025-0.828-0.197-1.181-0.222-0.356-0.569-0.603-0.975-0.697-0.119-0.028-0.237-0.041-0.356-0.041z"></path>
<path d="M16.066 31.984c-1.603 0-2.909-1.306-2.909-2.909s1.306-2.909 2.909-2.909 2.909 1.306 2.909 2.909-1.306 2.909-2.909 2.909zM16.066 27.509c-0.863 0-1.566 0.703-1.566 1.566s0.703 1.566 1.566 1.566c0.863 0 1.566-0.703 1.566-1.566s-0.703-1.566-1.566-1.566z"></path>
<path d="M27.212 25.566c-0.516 0-1.025-0.137-1.481-0.409-0.669-0.397-1.141-1.031-1.334-1.784-0.191-0.753-0.078-1.534 0.319-2.203s1.031-1.141 1.784-1.334c0.753-0.191 1.534-0.078 2.203 0.319s1.141 1.031 1.334 1.784c0.191 0.753 0.078 1.534-0.319 2.203s-1.031 1.141-1.784 1.334c-0.238 0.063-0.481 0.091-0.722 0.091zM27.222 21.091c-0.128 0-0.259 0.016-0.391 0.050-0.406 0.103-0.747 0.359-0.959 0.719s-0.275 0.781-0.172 1.184v0c0.103 0.406 0.359 0.747 0.719 0.959s0.781 0.275 1.184 0.172c0.406-0.103 0.747-0.359 0.959-0.719s0.275-0.781 0.172-1.184c-0.103-0.406-0.359-0.747-0.719-0.959-0.244-0.147-0.516-0.222-0.794-0.222z"></path>
<path d="M27.1 12.206c-0.216 0-0.438-0.025-0.656-0.075-0.756-0.175-1.4-0.634-1.813-1.294s-0.541-1.441-0.366-2.197c0.363-1.563 1.928-2.541 3.491-2.178 0.756 0.175 1.4 0.634 1.813 1.294s0.541 1.441 0.366 2.197c-0.313 1.344-1.512 2.253-2.834 2.253zM27.097 7.731c-0.291 0-0.575 0.081-0.825 0.237-0.356 0.222-0.603 0.569-0.697 0.975s-0.025 0.828 0.197 1.181 0.569 0.603 0.975 0.697 0.828 0.025 1.181-0.197c0.356-0.222 0.603-0.569 0.697-0.975s0.025-0.828-0.197-1.181-0.569-0.603-0.975-0.697c-0.119-0.028-0.238-0.041-0.356-0.041z"></path>
<path d="M16.047 5.831c-1.603 0-2.909-1.306-2.909-2.909s1.306-2.909 2.909-2.909 2.909 1.306 2.909 2.909-1.306 2.909-2.909 2.909zM16.047 1.356c-0.863 0-1.566 0.703-1.566 1.566s0.703 1.566 1.566 1.566c0.863 0 1.566-0.703 1.566-1.566s-0.703-1.566-1.566-1.566z"></path>
<path d="M16.069 22.466l-2.031 2.016 0.534 0.538 1.109-1.1-0.012 1.947 0.766 0.003 0.009-1.947 1.1 1.109 0.541-0.534z"></path>
<path d="M24.619 11.497l-0.384-0.659-1.681 0.978 0.397-1.512-0.734-0.191-0.728 2.766 2.766 0.728 0.194-0.734-1.509-0.397z"></path>
<path d="M9.784 10.113l-0.734 0.191 0.4 1.512-1.684-0.978-0.384 0.659 1.684 0.978-1.513 0.397 0.194 0.734 2.766-0.728z"></path>
<path d="M24.528 20.628l-1.684-0.978 1.512-0.4-0.194-0.734-2.766 0.731 0.728 2.766 0.734-0.194-0.4-1.512 1.684 0.981z"></path>
<path d="M7.844 18.516l-0.194 0.734 1.512 0.4-1.684 0.978 0.384 0.659 1.684-0.981-0.4 1.512 0.734 0.194 0.728-2.766z"></path>
<path d="M17.55 7.044l-1.109 1.1 0.012-1.947-0.762-0.003-0.012 1.947-1.1-1.109-0.537 0.534 2.012 2.031 2.031-2.016z"></path>
<path d="M18.044 18.997c-0.438 0.209-0.941 0.331-1.475 0.331-1.891 0-3.325-1.447-3.325-3.338s1.434-3.338 3.325-3.338c0.534 0 1.038 0.125 1.475 0.331v1.55c-0.359-0.313-0.875-0.534-1.475-0.534-1.103 0-1.941 0.894-1.941 1.988 0 1.103 0.828 1.988 1.941 1.988 0.6 0 1.134-0.222 1.475-0.522v1.544z"></path>
</svg>
