<svg version="1.1" xmlns="http://www.w3.org/2000/svg" width="32" height="32" viewBox="0 0 32 32">
<title>changing_diapers_baby</title>
<path d="M27.742 19.607c-1.125 0-2.827-0.917-2.827-2.298s1.702-2.299 2.827-2.299c1.267 0 2.298 1.032 2.298 2.299s-1.031 2.298-2.298 2.298zM27.742 16.344c-0.642 0-1.493 0.549-1.493 0.965s0.852 0.965 1.493 0.965c0.533 0 0.965-0.432 0.965-0.965s-0.432-0.965-0.965-0.965z"></path>
<path d="M17.003 6.338c-0.678 0-1.249-0.213-1.652-0.615-0.531-0.531-0.729-1.346-0.555-2.296 0.144-0.787 0.529-1.555 1.030-2.057 1.034-1.036 2.841-1.036 3.877-0.001 1.069 1.070 1.069 2.81 0 3.878-0.652 0.652-1.737 1.090-2.7 1.090zM17.763 1.901c-0.375 0-0.729 0.146-0.995 0.412-0.307 0.307-0.566 0.839-0.66 1.353-0.090 0.492-0.021 0.908 0.186 1.114 0.185 0.186 0.488 0.225 0.708 0.225 0.613 0 1.353-0.294 1.758-0.699 0.549-0.549 0.549-1.443 0-1.992-0.267-0.266-0.62-0.412-0.997-0.412z"></path>
<path d="M30.648 22.667h-14.667c-0.369 0-0.667-0.298-0.667-0.667s0.298-0.667 0.667-0.667h14.667c0.369 0 0.667 0.298 0.667 0.667s-0.298 0.667-0.667 0.667z"></path>
<path d="M12.538 22.667h-10.486c-0.215 0-0.416-0.103-0.542-0.277s-0.159-0.398-0.090-0.603l3.167-9.387c0.417-1.039 1.079-1.923 1.93-2.591l4.933-3.875c1.009-0.701 2.318-0.523 3.015 0.376 0.519 0.671 0.807 2.816 0.921 3.883l3.727 1.71c0.335 0.154 0.481 0.549 0.327 0.884s-0.547 0.479-0.884 0.328l-4.074-1.87c-0.217-0.1-0.364-0.307-0.386-0.544-0.135-1.465-0.444-3.251-0.686-3.575-0.258-0.332-0.781-0.387-1.169-0.119l-4.9 3.851c-0.667 0.524-1.187 1.217-1.504 2.004l-2.857 8.473h8.638l-2.292-7.005c-0.115-0.35 0.076-0.726 0.426-0.841s0.727 0.077 0.841 0.426l2.578 7.879c0.066 0.203 0.032 0.426-0.094 0.599-0.126 0.172-0.326 0.275-0.54 0.275z"></path>
<path d="M9.96 14.788c-0.167 0-0.335-0.063-0.464-0.188-0.264-0.257-0.271-0.678-0.014-0.943l2.292-2.363c0.257-0.264 0.678-0.27 0.943-0.014s0.271 0.678 0.014 0.943l-2.292 2.363c-0.131 0.135-0.305 0.202-0.479 0.202z"></path>
<path d="M21.536 20h-2.243c-0.849 0-1.605-0.437-2.022-1.171-0.415-0.731-0.408-1.598 0.023-2.323 0.009-0.016 0.019-0.031 0.030-0.047 0.125-0.241 0.145-0.499 0.053-0.734-0.108-0.279-0.358-0.496-0.685-0.596l-1.409-0.393c-0.355-0.098-0.562-0.466-0.463-0.821s0.466-0.564 0.821-0.463l1.424 0.397c0.737 0.224 1.298 0.731 1.556 1.394 0.245 0.633 0.18 1.344-0.181 1.951-0.009 0.016-0.019 0.031-0.030 0.047-0.155 0.298-0.148 0.634 0.018 0.928 0.178 0.311 0.501 0.497 0.865 0.497h2.243c0.592 0 1.112-0.448 1.112-0.96v-1.707c0-0.369 0.298-0.667 0.667-0.667s0.667 0.298 0.667 0.667v1.707c0 1.243-1.12 2.293-2.445 2.293z"></path>
<path d="M5.982 31.869c-0.369 0-0.667-0.298-0.667-0.667v-9.202c0-0.369 0.298-0.667 0.667-0.667s0.667 0.298 0.667 0.667v9.202c0 0.368-0.298 0.667-0.667 0.667z"></path>
<path d="M8.648 31.869c-0.369 0-0.667-0.298-0.667-0.667v-9.202c0-0.369 0.298-0.667 0.667-0.667s0.667 0.298 0.667 0.667v9.202c0 0.368-0.298 0.667-0.667 0.667z"></path>
</svg>
