<svg version="1.1" xmlns="http://www.w3.org/2000/svg" width="32" height="32" viewBox="0 0 32 32">
<title>change_domain_alt2</title>
<path d="M2.848 21.955c0 1.253 0 2.44 0 3.655-0.891 0-1.754 0-2.639 0 0-2.824 0-5.649 0-8.493 2.832 0 5.649 0 8.491 0 0 0.869 0 1.731 0 2.623-1.4 0-2.79 0-4.236 0 0.069 0.105 0.098 0.172 0.146 0.22 1.541 1.55 3.053 3.131 4.636 4.637 1.806 1.718 3.943 2.855 6.446 3.117 4.818 0.504 8.765-1.154 11.432-5.217 2.76-4.203 2.73-8.615 0.076-12.88-1.906-3.063-4.775-4.83-8.358-5.302-4.777-0.63-9.39 1.596-11.789 5.795-0.725 1.27-1.189 2.635-1.409 4.082-0.008 0.054-0.022 0.106-0.038 0.179-0.862 0-1.715 0-2.645 0 0.084-0.488 0.127-0.973 0.252-1.436 1.552-5.754 5.179-9.501 10.959-10.977 3.54-0.904 6.983-0.339 10.172 1.458 3.339 1.882 5.602 4.679 6.753 8.341 0.609 1.936 0.8 3.923 0.533 5.943-0.649 4.918-3.17 8.579-7.468 11.013-1.787 1.012-3.734 1.538-5.786 1.69-2.484 0.184-4.859-0.21-7.118-1.271-1.27-0.596-2.453-1.343-3.467-2.306-1.585-1.504-3.112-3.069-4.664-4.608-0.075-0.075-0.155-0.145-0.282-0.263z"></path>
<path d="M17.417 8.328c4.198-0.002 7.61 3.408 7.61 7.605s-3.413 7.608-7.61 7.606-7.605-3.415-7.602-7.613c0.003-4.191 3.41-7.596 7.602-7.598zM14.581 17.475c1.899-0.471 3.788-0.476 5.674-0.021 0.216-0.907 0.175-2.47-0.013-3.040-0.925 0.223-1.865 0.337-2.819 0.335-0.958-0.002-1.9-0.128-2.842-0.357-0.188 1.035-0.19 2.050 0.001 3.083zM14.872 18.597c0.015 0.056 0.021 0.089 0.032 0.121 0.458 1.315 1.189 2.452 2.214 3.397 0.224 0.207 0.381 0.206 0.606-0.001 0.869-0.8 1.532-1.745 1.994-2.831 0.096-0.225 0.178-0.456 0.273-0.7-1.72-0.418-3.411-0.412-5.119 0.014zM14.863 13.267c1.716 0.43 3.41 0.434 5.113 0.020-0.011-0.044-0.016-0.074-0.025-0.101-0.461-1.341-1.205-2.499-2.254-3.458-0.196-0.179-0.361-0.175-0.561 0.008-0.936 0.857-1.632 1.879-2.099 3.058-0.060 0.15-0.112 0.303-0.174 0.473zM11.588 13.191c-0.492 1.048-0.692 2.159-0.589 3.322 0.068 0.762 0.263 1.491 0.592 2.162 0.632-0.298 1.246-0.588 1.871-0.883-0.242-1.239-0.237-2.491-0.001-3.717-0.632-0.298-1.243-0.587-1.872-0.884zM21.427 17.785c0.595 0.276 1.215 0.564 1.843 0.855 0.483-1.048 0.677-2.15 0.571-3.302-0.068-0.742-0.257-1.452-0.575-2.11-0.635 0.295-1.252 0.581-1.84 0.854 0.044 0.616 0.122 1.231 0.121 1.846-0 0.62-0.078 1.24-0.121 1.856zM22.688 12.219c-0.864-1.177-1.942-1.974-3.271-2.416 0.323 0.501 0.673 0.983 0.957 1.501s0.502 1.071 0.765 1.644c0.492-0.231 1.008-0.474 1.549-0.729zM21.099 18.899c-0.387 1.177-0.954 2.213-1.702 3.154 1.353-0.437 2.434-1.232 3.289-2.405-0.535-0.253-1.048-0.495-1.587-0.749zM12.177 19.68c0.857 1.159 1.93 1.945 3.269 2.373-0.745-0.934-1.308-1.963-1.695-3.126-0.53 0.253-1.040 0.497-1.574 0.753zM15.447 9.814c-1.338 0.428-2.412 1.213-3.268 2.374 0.536 0.256 1.048 0.5 1.575 0.751 0.388-1.169 0.952-2.194 1.694-3.125z"></path>
</svg>
