<!-- Generated by IcoMoon.io -->
<svg version="1.1" xmlns="http://www.w3.org/2000/svg" width="32" height="32" viewBox="0 0 32 32">
<title>chart_pie</title>
<path d="M14.502 32c-1.232-0.001-2.428-0.156-3.569-0.446l0.1 0.022c-6.352-1.606-10.978-7.271-10.978-14.016 0-7.969 6.457-14.43 14.425-14.436h0.001c1.232 0.001 2.428 0.155 3.57 0.445l-0.1-0.022c0.456 0.116 0.787 0.522 0.787 1.006 0 0.088-0.011 0.173-0.032 0.255l0.002-0.007-2.88 11.665c11.155-3.384 11.425-3.384 11.604-3.384 0.472 0.001 0.871 0.314 1 0.744l0.002 0.007v0.007c0.31 1.117 0.488 2.399 0.488 3.722 0 7.968-6.454 14.428-14.419 14.438h-0.001zM14.481 5.196c-6.83 0.002-12.365 5.539-12.365 12.369 0 6.831 5.538 12.369 12.369 12.369s12.369-5.538 12.369-12.369c0-0.77-0.070-1.523-0.205-2.254l0.012 0.076c-2.112 0.611-7.578 2.258-11.972 3.594-0.090 0.028-0.194 0.045-0.302 0.045-0.276 0-0.527-0.108-0.713-0.283h0.001c-0.199-0.191-0.323-0.459-0.323-0.755 0-0.087 0.011-0.172 0.031-0.253l-0.002 0.007 3.057-12.389c-0.536-0.091-1.159-0.147-1.793-0.155h-0.008z"></path>
<path d="M19.84 13.221c0 0-0.001 0-0.001 0-0.573 0-1.037-0.464-1.037-1.037 0-0.088 0.011-0.174 0.032-0.256l-0.002 0.007 2.776-11.149c0.115-0.455 0.521-0.786 1.004-0.786 0 0 0.001 0 0.001 0v0c0.089 0 0.175 0.011 0.257 0.032l-0.007-0.002c4.343 1.117 7.726 4.389 8.981 8.579l0.023 0.089c0.051 0.111 0.081 0.24 0.081 0.377 0 0.152-0.037 0.295-0.102 0.421l0.002-0.005c-0.147 0.335-0.46 0.458-0.684 0.522l-11.040 3.171c-0.083 0.024-0.178 0.037-0.277 0.037-0.003 0-0.006 0-0.009 0v0zM21.279 10.694l8.269-2.374c-0.597-1.435-1.438-2.658-2.483-3.671l-0.003-0.003c-1.028-0.991-2.262-1.775-3.631-2.281l-0.073-0.023z"></path>
</svg>
