<!-- Generated by IcoMoon.io -->
<svg version="1.1" xmlns="http://www.w3.org/2000/svg" width="32" height="32" viewBox="0 0 32 32">
<title>chart_donut</title>
<path d="M28.132 24.786c0 0-0.001 0-0.001 0-0.209 0-0.402-0.067-0.56-0.18l0.003 0.002-5.588-3.959c-0.247-0.178-0.406-0.465-0.406-0.789 0-0.136 0.028-0.266 0.079-0.383l-0.002 0.006c0.312-0.713 0.493-1.543 0.493-2.416 0-0.971-0.225-1.89-0.625-2.707l0.016 0.036c-0.060-0.123-0.096-0.267-0.096-0.419 0-0.312 0.148-0.589 0.377-0.766l0.002-0.002 5.445-4.145c0.16-0.123 0.364-0.197 0.585-0.197 0.347 0 0.651 0.183 0.821 0.457l0.002 0.004c1.365 2.203 2.174 4.875 2.174 7.736 0 2.654-0.696 5.145-1.916 7.301l0.038-0.074c-0.134 0.236-0.357 0.408-0.623 0.47l-0.007 0.001c-0.063 0.015-0.136 0.024-0.211 0.024-0.001 0-0.001 0-0.002 0v0zM27.776 22.387c0.724-1.564 1.147-3.394 1.147-5.323 0-2.111-0.506-4.104-1.403-5.864l0.034 0.073-3.964 3.017c0.31 0.826 0.489 1.78 0.489 2.776 0 0.87-0.137 1.708-0.39 2.493l0.016-0.058z"></path>
<path d="M16 31.917c-8.189 0-14.848-6.662-14.848-14.848 0-0.012 0-0.027 0-0.041 0-7.642 5.789-13.932 13.221-14.724l0.065-0.006c0.029-0.003 0.062-0.005 0.096-0.005 0.002 0 0.004 0 0.005 0v0c0.532 0 0.964 0.432 0.964 0.964 0 0 0 0 0 0.001v0 6.848c-0.002 0.462-0.327 0.848-0.762 0.943l-0.006 0.001c-2.811 0.605-4.886 3.069-4.886 6.018 0 3.396 2.753 6.149 6.149 6.149 1.629 0 3.109-0.633 4.209-1.667l-0.003 0.003c0.172-0.162 0.404-0.262 0.659-0.262 0.209 0 0.402 0.067 0.56 0.18l-0.003-0.002 5.583 3.955c0.247 0.177 0.407 0.463 0.407 0.787 0 0.244-0.091 0.467-0.24 0.637l0.001-0.001c-2.735 3.113-6.724 5.068-11.169 5.070v0zM13.574 4.372c-6.015 1.164-10.496 6.388-10.496 12.659 0 0.012 0 0.025 0 0.037v-0.002c0 7.124 5.796 12.922 12.922 12.922 3.491-0.002 6.658-1.387 8.983-3.639l-0.003 0.003-4.062-2.88c-1.347 1.044-3.062 1.673-4.923 1.673-4.462 0-8.079-3.617-8.079-8.079 0-3.598 2.352-6.646 5.602-7.692l0.057-0.016z"></path>
<path d="M20.623 12.627c0 0 0 0 0 0-0.24 0-0.459-0.088-0.628-0.233l0.001 0.001c-0.752-0.647-1.675-1.118-2.691-1.337l-0.040-0.007c-0.441-0.096-0.766-0.482-0.768-0.944v-9.082c0-0.002 0-0.004 0-0.006 0-0.53 0.43-0.96 0.96-0.96 0.038 0 0.075 0.002 0.111 0.006h-0.004c3.501 0.366 8.366 2.944 10.803 5.512 0.164 0.173 0.265 0.407 0.265 0.664 0 0.312-0.148 0.589-0.378 0.766l-0.002 0.002-7.044 5.421c-0.159 0.123-0.362 0.197-0.581 0.197-0.001 0-0.002 0-0.003 0v0zM18.426 9.363c0.839 0.269 1.569 0.639 2.226 1.105l-0.025-0.017 5.563-4.293c-1.752-1.569-5.468-3.579-7.764-4.017z"></path>
</svg>
