<!-- Generated by IcoMoon.io -->
<svg version="1.1" xmlns="http://www.w3.org/2000/svg" width="32" height="32" viewBox="0 0 32 32">
<title>chart_custom</title>
<path d="M30.828 29.767h-28.595v-2.529l6.112-10.511 14.389 11.085c0.303 0.233 0.728 0.221 1.015-0.031l7.685-6.708c0.333-0.291 0.367-0.796 0.077-1.129-0.295-0.333-0.8-0.367-1.129-0.077l-7.191 6.277-14.592-11.241c-0.183-0.14-0.416-0.195-0.643-0.152-0.225 0.044-0.421 0.184-0.537 0.383l-5.187 8.92v-10.988l9.94-3.831 7.497 11.083c0.152 0.225 0.404 0.352 0.663 0.352 0.1 0 0.2-0.019 0.297-0.057l10.575-4.229c0.411-0.164 0.609-0.629 0.445-1.040-0.163-0.411-0.627-0.609-1.039-0.445l-9.975 3.991-7.493-11.077c-0.211-0.309-0.608-0.432-0.952-0.299l-9.959 3.839v-10.179c0-0.616-0.501-1.117-1.116-1.117-0.616 0-1.117 0.501-1.117 1.117v29.712c0 0.616 0.501 1.116 1.117 1.116h29.711c0.616 0 1.117-0.5 1.117-1.116s-0.501-1.117-1.117-1.117z"></path>
<path d="M24.257 0c-4.113 0-7.46 3.345-7.46 7.457s3.347 7.46 7.46 7.46 7.46-3.347 7.46-7.46-3.347-7.457-7.46-7.457zM24.257 13.515c-3.339 0-6.056-2.717-6.056-6.056s2.717-6.055 6.056-6.055 6.056 2.716 6.056 6.055-2.716 6.056-6.056 6.056z"></path>
<path d="M27.831 7.428h-2.871v-4.381c0-0.387-0.315-0.701-0.701-0.701s-0.701 0.315-0.701 0.701v5.083c0 0.388 0.315 0.703 0.701 0.703h3.573c0.387 0 0.701-0.315 0.701-0.703-0.001-0.387-0.316-0.701-0.703-0.701z"></path>
</svg>
