<svg version="1.1" xmlns="http://www.w3.org/2000/svg" width="32" height="32" viewBox="0 0 32 32">
<title>chart_area_stacked</title>
<path d="M31.981 15.641v-11.819c0.003-2.106-1.709-3.822-3.816-3.822h-24.359c-2.106 0-3.822 1.716-3.822 3.822v19.678c0 0.003 0 0.003 0 0.006v4.675c0 0.884 0.303 1.7 0.809 2.35 0.391 0.5 0.903 0.9 1.494 1.156 0.466 0.2 0.978 0.312 1.516 0.312h24.359c0.538 0 1.050-0.113 1.516-0.313 0.631-0.275 1.175-0.712 1.575-1.262 0.459-0.631 0.731-1.406 0.728-2.244v-1.153h0.038v-11.391l-0.038 0.003zM1.319 3.822c0-1.372 1.116-2.487 2.487-2.487v0h24.359c1.372 0 2.488 1.116 2.488 2.487v11.162l-7.509-6.387-7.863 13.188-0.581-0.494-6.334-5.369-7.047 5.9v-18zM30.653 23.019l-6.478-5.478-7.625 12.781-7.869-6.669-7.366 6.191v-2.797l7.375-6.172 7.319 6.206 0.95-1.591 6.675-11.191 7.019 5.934v2.784z"></path>
</svg>
