<!-- Generated by IcoMoon.io -->
<svg version="1.1" xmlns="http://www.w3.org/2000/svg" width="32" height="32" viewBox="0 0 32 32">
<title>chart_agg</title>
<path d="M30.828 29.767h-28.595v-2.867l10.116-9.589 5.441 7.283c0.204 0.273 0.56 0.384 0.881 0.284l11.289-3.567c0.421-0.133 0.655-0.584 0.523-1.004-0.135-0.421-0.587-0.655-1.004-0.523l-10.748 3.396-5.64-7.548c-0.137-0.184-0.345-0.299-0.572-0.319-0.225-0.016-0.452 0.059-0.619 0.216l-9.668 9.165v-12.165l9.999-3.853 4.624 5.579c0.157 0.191 0.385 0.289 0.616 0.289 0.169 0 0.339-0.053 0.481-0.163l13.339-10.080c0.353-0.267 0.423-0.768 0.156-1.12-0.268-0.353-0.772-0.423-1.12-0.156l-12.729 9.617-4.503-5.431c-0.219-0.264-0.583-0.359-0.904-0.236l-9.959 3.837v-9.641c0-0.616-0.501-1.117-1.116-1.117s-1.117 0.501-1.117 1.117v29.712c0 0.616 0.501 1.116 1.117 1.116h29.711c0.616 0 1.117-0.5 1.117-1.116s-0.501-1.117-1.117-1.117z"></path>
</svg>
