<!-- Generator: Adobe Illustrator 28.1.0, SVG Export Plug-In . SVG Version: 6.00 Build 0)  -->
<svg version="1.1" id="Capa_1" xmlns="http://www.w3.org/2000/svg" xmlns:xlink="http://www.w3.org/1999/xlink" x="0px" y="0px" viewBox="0 0 32 32" style="enable-background:new 0 0 32 32;" xml:space="preserve">
<title>chart_funnel</title>
<path d="M2.8,58.8h-28c-0.6,0-1-0.4-1-1v-5.3h30v5.3C3.8,58.3,3.4,58.8,2.8,58.8z"/>
<path d="M-1,65h-20.3c-0.6,0-1-0.4-1-1v-4.3c0-0.6,0.4-1,1-1H-1c0.6,0,1,0.4,1,1V64C0,64.6-0.5,65-1,65z"/>
<path d="M-4,71.3h-14.3c-0.6,0-1-0.4-1-1V66c0-0.6,0.4-1,1-1H-4c0.6,0,1,0.4,1,1v4.3C-3,70.9-3.5,71.3-4,71.3z"/>
<path d="M-7.8,77.6h-6.7c-0.6,0-1-0.4-1-1v-4.3c0-0.6,0.4-1,1-1h6.7c0.6,0,1,0.4,1,1v4.3C-6.8,77.1-7.3,77.6-7.8,77.6z" />
<path d="M0,2.5v6.2c0,1,0.8,1.9,1.9,1.9h2c0,0,0,0.1,0,0.1V15c0,1,0.8,1.9,1.9,1.9h1.2c0,0,0,0.1,0,0.1v4.3c0,1,0.8,1.9,1.9,1.9h2
	c0,0,0,0.1,0,0.1v4.3c0,1,0.8,1.9,1.9,1.9h6.7c1,0,1.9-0.8,1.9-1.9v-4.3c0,0,0-0.1,0-0.1h1.9c1,0,1.9-0.8,1.9-1.9V17
	c0,0,0-0.1,0-0.1h1.2c1,0,1.9-0.8,1.9-1.9v-4.3c0,0,0-0.1,0-0.1h2c1,0,1.9-0.8,1.9-1.9V2.5H0z M19.5,23.3v4.3c0,0.1-0.1,0.1-0.1,0.1
	h-6.7c-0.1,0-0.1-0.1-0.1-0.1v-4.3c0-0.1,0.1-0.1,0.1-0.1h6.7C19.4,23.2,19.5,23.3,19.5,23.3z M23.3,17v4.3c0,0.1-0.1,0.1-0.1,0.1
	h-3.8h-6.7H8.8c-0.1,0-0.1-0.1-0.1-0.1V17c0-0.1,0.1-0.1,0.1-0.1h14.4C23.3,16.9,23.3,16.9,23.3,17z M26.4,10.7V15
	c0,0.1-0.1,0.1-0.1,0.1h-3H8.8h-3c-0.1,0-0.1-0.1-0.1-0.1v-4.3c0-0.1,0.1-0.1,0.1-0.1h20.5C26.3,10.6,26.4,10.6,26.4,10.7z
	 M30.2,8.7c0,0.1-0.1,0.1-0.1,0.1h-3.9H5.8H1.9c-0.1,0-0.1-0.1-0.1-0.1V4.2h28.5V8.7z"/>
<path d="M18.4,71c-0.5,0-0.9-0.4-0.9-0.9c0-0.5,0.4-0.8,0.8-0.9h30.3c0.5,0,0.9,0.4,0.9,0.9c0,0,0,0,0,0v0
	c0,0.5-0.4,0.9-0.9,0.9L18.4,71L18.4,71z M40,71c-0.5,0-0.9-0.4-0.9-0.9V55.7c0,0,0,0,0,0c0-0.4,0.3-0.8,0.8-0.9h0c0,0,0,0,0,0h6.5
	c0.5,0,0.9,0.4,0.9,0.9v14.4c0,0.5-0.4,0.9-0.9,0.9l0,0L40,71z M45.6,69.2V56.6h-4.7v12.7H45.6z M30.3,71C30.3,71,30.3,71,30.3,71
	c-0.5,0-0.9-0.4-0.9-0.9V47.4c0,0,0,0,0,0c0-0.5,0.3-0.8,0.8-0.9h0c0,0,0,0,0,0h6.5c0.5,0,0.9,0.4,0.9,0.9v22.7
	c0,0.5-0.4,0.9-0.9,0.9l0,0H30.3z M35.9,69.2V48.3h-4.7v20.9H35.9z M20.6,71c-0.5,0-0.9-0.4-0.9-0.9v-9.4c0,0,0,0,0,0
	c0-0.5,0.3-0.8,0.8-0.9h0c0,0,0,0,0,0h6.5c0.5,0,0.9,0.4,0.9,0.9v9.4c0,0.5-0.4,0.9-0.9,0.9l0,0H20.6z M26.2,69.2v-7.6h-4.7v7.6
	H26.2z"/>
</svg>
