<!-- Generated by IcoMoon.io -->
<svg version="1.1" xmlns="http://www.w3.org/2000/svg" width="32" height="32" viewBox="0 0 32 32">
<title>chart_sankey</title>
<path d="M14.757 31.372c-0 0-0 0-0.001 0-0.141 0-0.275-0.031-0.396-0.086l0.006 0.002-5.896-2.642c-0.335-0.153-0.564-0.486-0.564-0.872 0-0.405 0.252-0.752 0.609-0.891l0.007-0.002 0.509-0.192c-1.901-1.832-4.747-2.835-8.075-2.835-0.528-0-0.956-0.428-0.956-0.956 0-0 0-0.001 0-0.001v0-17.551c0.003-0.527 0.429-0.953 0.955-0.956h20.357v-2.805c0-0 0-0 0-0.001 0-0.528 0.428-0.956 0.956-0.956 0.238 0 0.455 0.087 0.623 0.231l-0.001-0.001 8.778 7.526c0.205 0.176 0.334 0.436 0.334 0.726s-0.129 0.549-0.332 0.725l-0.001 0.001-8.776 7.519c-0.096 0.083-0.21 0.147-0.336 0.186l-0.007 0.002c1.274 0.904 2.39 1.811 3.443 2.785l-0.023-0.021 0.86-0.81c0.171-0.161 0.401-0.26 0.655-0.26 0.527 0 0.955 0.427 0.955 0.955 0 0.012-0 0.023-0.001 0.035l0-0.002-0.192 6.458c-0.014 0.515-0.434 0.927-0.951 0.927-0.002 0-0.003 0-0.005 0h-0.025l-6.458-0.192c-0.515-0.016-0.927-0.437-0.927-0.955 0-0.274 0.115-0.52 0.299-0.694l0-0 0.735-0.692c-2.822-2.496-5.725-4.105-9.183-5.056 1.636 1.098 3.006 2.452 4.087 4.021l0.033 0.051 1.212-0.461c0.101-0.040 0.218-0.064 0.34-0.064h0c0.527 0 0.955 0.428 0.955 0.955 0 0.141-0.031 0.275-0.085 0.395l0.002-0.006-2.644 5.896c-0.153 0.336-0.486 0.566-0.873 0.568h-0zM14.276 29.153l1.322-2.948c-0.041 0.006-0.089 0.010-0.137 0.010-0 0-0 0-0 0v0c-0.348-0.001-0.652-0.187-0.82-0.464l-0.002-0.004c-1.546-2.605-4.010-4.594-7.128-5.75-0.132-0.043-1.382-0.477-1.382-1.536 0-0.712 0.552-1.173 1.408-1.173 0.064 0 0.101 0.003 0.101 0.003h0.014c2.397 0.292 4.495 0.768 6.413 1.452 3.237 1.152 6.068 2.944 8.908 5.624 0.185 0.174 0.3 0.421 0.3 0.694 0 0.189-0.055 0.365-0.149 0.513l0.002-0.004 3.239 0.095 0.096-3.228c-0.14 0.086-0.31 0.137-0.492 0.137-0.256 0-0.489-0.101-0.66-0.265l0 0c-3.174-3.044-6.32-5.075-9.901-6.392-0.818-0.301-2.053-0.57-3.143-0.807-0.351-0.077-0.684-0.149-0.984-0.218-0.151-0.028-1.739-0.349-1.739-1.464 0-1.169 1.175-1.502 1.796-1.515h10.935c0.527 0.001 0.955 0.428 0.955 0.956v1.684l6.353-5.444-6.356-5.445v1.684c-0 0.526-0.426 0.953-0.951 0.956h-20.362v15.667c4.057 0.221 7.512 1.87 9.512 4.55 0.118 0.157 0.189 0.356 0.189 0.571 0 0.288-0.127 0.546-0.329 0.722l-0.001 0.001zM15.193 13.824c2.339 0.786 4.364 1.768 6.237 2.966l-0.112-0.067c-0.003-0.027-0.005-0.059-0.005-0.091 0-0.001 0-0.002 0-0.003v0-2.805z"></path>
</svg>
