<!-- Generated by IcoMoon.io -->
<svg version="1.1" xmlns="http://www.w3.org/2000/svg" width="32" height="32" viewBox="0 0 32 32">
<title>chart_pie_full</title>
<path d="M14.464 32v0c-1.228-0.002-2.419-0.156-3.556-0.445l0.1 0.022c-7.711-1.901-12.435-9.72-10.532-17.426 1.595-6.336 7.242-10.952 13.968-10.952 1.229 0 2.421 0.154 3.56 0.444l-0.099-0.021c0.298 0.076 0.514 0.342 0.514 0.659 0 0.057-0.007 0.113-0.020 0.166l0.001-0.005-3.11 12.602c12.004-3.644 12.292-3.644 12.416-3.644 0 0 0.001 0 0.001 0 0.309 0 0.571 0.204 0.657 0.485l0.001 0.005c0.309 1.113 0.487 2.392 0.487 3.712 0 7.948-6.44 14.392-14.386 14.4h-0.001z"></path>
<path d="M19.931 12.77c-0.001 0-0.001 0-0.002 0-0.374 0-0.676-0.303-0.676-0.676 0-0.058 0.007-0.115 0.021-0.169l-0.001 0.005 2.842-11.417c0.076-0.297 0.341-0.513 0.656-0.513 0.059 0 0.116 0.007 0.17 0.022l-0.005-0.001c4.323 1.113 7.688 4.375 8.927 8.552l0.023 0.088c0.088 0.18 0.073 0.335-0.010 0.519s-0.26 0.267-0.454 0.32l-11.306 3.245c-0.056 0.017-0.119 0.026-0.186 0.026h-0z"></path>
</svg>
