<svg version="1.1" xmlns="http://www.w3.org/2000/svg" width="32" height="32" viewBox="0 0 32 32">
<title>chart_flame</title>
<path d="M15.709 32c-6.668 0-12.096-5.425-12.096-12.093 0-0.241 0-0.459 0.014-0.681 0.199-6.876 3.672-8.634 3.82-8.704 0.129-0.065 0.28-0.104 0.441-0.104 0.002 0 0.005 0 0.007 0h-0c0.176 0.001 0.342 0.045 0.488 0.122l-0.006-0.003c0.284 0.154 0.486 0.43 0.536 0.756l0.001 0.006c0.005 0.034 0.512 3.285 2.522 4.128 0.025-1.728 0.142-4.076 0.676-6.187 0.858-3.391 3.313-6.941 6.257-9.049 0.164-0.12 0.37-0.192 0.592-0.192 0.001 0 0.003 0 0.004 0h-0c0.567 0.001 1.027 0.46 1.028 1.027v0c0 2.916 1.496 4.928 3.228 7.262 1.946 2.618 4.149 5.585 4.515 10.353l0.022 0.307c0.022 0.303 0.046 0.617 0.046 0.956-0.001 6.669-5.427 12.094-12.094 12.094zM12.317 24.73c-0.079 0.355-0.127 0.764-0.134 1.184l-0 0.005v0.012c-0.004 0.077-0.004 0.142-0.004 0.211v0.020c0 2.088 1.583 3.786 3.531 3.786s3.531-1.699 3.531-3.786c0-0.107-0.008-0.209-0.015-0.317-0.128-1.785-0.845-2.801-1.6-3.877-0.417-0.592-0.844-1.2-1.152-1.908-0.366 0.518-0.654 1.123-0.827 1.774l-0.009 0.039c-0.221 0.924-0.239 1.968-0.239 2.874 0 0.566-0.458 1.024-1.024 1.024v0c-0.821 0.001-1.528-0.364-2.054-1.042zM7.331 13.372c-1.328 1.8-1.607 4.442-1.65 5.939v0.012c-0.012 0.196-0.012 0.372-0.012 0.559v0.024c0.001 3.675 1.977 6.887 4.923 8.636l0.046 0.025c-0.323-0.706-0.512-1.532-0.512-2.401 0-0.002 0-0.003 0-0.005v0c0-0.102 0-0.211 0.006-0.324 0.037-1.344 0.332-2.445 0.874-3.274 0.434-0.662 0.938-1.493 1.483-1.486s1.032 1.508 1.032 1.508 0.003-0.73 0.117-1.191c0.384-1.596 1.478-3.267 2.792-4.26 0.17-0.131 0.386-0.209 0.62-0.209 0.566 0 1.024 0.458 1.024 1.024 0 0.001 0 0.003 0 0.004v-0c0 1.088 0.541 1.86 1.226 2.832 0.844 1.199 1.799 2.557 1.962 4.787 0.019 0.264 0.029 0.421 0.029 0.589 0 0.001 0 0.002 0 0.003 0 0.87-0.189 1.697-0.527 2.44l0.015-0.037c2.993-1.774 4.968-4.987 4.97-8.661v-0c0-0.268-0.019-0.516-0.038-0.778l-0.024-0.338c-0.32-4.168-2.25-6.765-4.115-9.276-1.498-2.015-2.92-3.928-3.434-6.461-1.927 1.856-3.45 4.366-4.038 6.689-0.572 2.264-0.62 4.753-0.62 6.912-0.002 0.565-0.459 1.022-1.024 1.024h-0c-1.423 0-2.65-0.576-3.648-1.712-0.605-0.687-1.117-1.592-1.476-2.595z"></path>
</svg>
