<!-- Generated by IcoMoon.io -->
<svg version="1.1" xmlns="http://www.w3.org/2000/svg" width="32" height="32" viewBox="0 0 32 32">
<title>chart_column_bar_stacked</title>
<path d="M8.391 8h-6.119c-0.872 0-1.606 0.744-1.606 1.628v19.472c0 0.863 0.722 1.566 1.606 1.566h6.119c0.887 0 1.609-0.703 1.609-1.566v-19.472c0-0.884-0.738-1.628-1.609-1.628zM2.272 9.334h6.119c0.137 0 0.275 0.144 0.275 0.294v9.356h-6.666v-9.356c0-0.153 0.131-0.294 0.272-0.294z"></path>
<path d="M19.056 14.669h-6.116c-0.872 0-1.606 0.744-1.606 1.625v12.806c0 0.863 0.722 1.566 1.606 1.566h6.116c0.887 0 1.609-0.703 1.609-1.566v-12.806c0-0.881-0.734-1.625-1.609-1.625zM12.941 16.003h6.116c0.141 0 0.275 0.144 0.275 0.294v9.416h-6.666v-9.419c0-0.15 0.134-0.291 0.275-0.291z"></path>
<path d="M29.725 1.334h-6.116c-0.872 0-1.606 0.744-1.606 1.628v26.141c0 0.878 0.706 1.566 1.606 1.566h6.116c0.887 0 1.609-0.703 1.609-1.566v-26.144c0-0.881-0.738-1.625-1.609-1.625zM23.609 2.666h6.119c0.141 0 0.275 0.144 0.275 0.294v9.363h-6.669v-9.363c0-0.15 0.134-0.294 0.275-0.294z"></path>
</svg>
