<svg version="1.1" xmlns="http://www.w3.org/2000/svg" width="32" height="32" viewBox="0 0 32 32">
<title>chart</title>
<path d="M0.869 28.202c-0.476-0.005-0.861-0.393-0.861-0.87 0-0.464 0.363-0.843 0.821-0.868l0.002-0h30.311c0.475 0.006 0.857 0.393 0.857 0.868 0 0.004-0 0.009-0 0.013v-0.001c-0.009 0.474-0.394 0.855-0.868 0.857h-30.263zM22.487 28.202c-0.479-0.001-0.868-0.389-0.868-0.868v-14.391c-0-0.002-0-0.005-0-0.007 0-0.45 0.344-0.82 0.784-0.861l0.003-0c0.020 0 0.035 0 0.048 0h6.509c0.48 0.001 0.868 0.39 0.869 0.869v14.389c-0.001 0.479-0.39 0.868-0.869 0.868h-0zM28.096 26.462v-12.652h-4.736v12.652zM12.774 28.2c-0 0-0 0-0.001 0-0.48 0-0.869-0.389-0.87-0.868v-22.663c-0-0.002-0-0.005-0-0.008 0-0.45 0.344-0.82 0.784-0.86l0.003-0c0.020 0 0.034 0 0.048 0h6.509c0.48 0.001 0.868 0.39 0.868 0.869v22.662c-0.001 0.479-0.389 0.868-0.868 0.868h-0zM18.381 26.462v-20.928h-4.736v20.928zM3.062 28.2c-0.479-0.001-0.868-0.389-0.869-0.868v-9.353c-0-0.002-0-0.005-0-0.007 0-0.451 0.345-0.821 0.784-0.861l0.003-0c0.020 0 0.034 0 0.047 0h6.508c0.48 0.001 0.868 0.39 0.868 0.869v9.352c-0.001 0.479-0.389 0.868-0.868 0.868h-0zM8.668 26.462v-7.616h-4.736v7.616z"></path>
</svg>
