<!-- Generated by IcoMoon.io -->
<svg version="1.1" xmlns="http://www.w3.org/2000/svg" width="32" height="32" viewBox="0 0 32 32">
<title>chat_message_comment_bubble</title>
<path d="M29.7 12.9c-1.3-6.3-7.1-10.9-13.7-10.9-3.8 0-7.4 1.5-10 4.1s-4 6-4 9.6c0 2.6 0.8 5.2 2.3 7.5 0 0.1 0.1 0.1 0.1 0.1 0.1 0.1 0.1 0.2 0.1 0.3l-1.2 4.3c0 0.1-0.1 0.3-0.1 0.5s0 0.4 0.1 0.6c0.1 0.2 0.2 0.4 0.4 0.5 0.1 0.1 0.3 0.3 0.5 0.3 0.2 0.2 0.4 0.2 0.7 0.2 0 0 0 0 0 0 0.2 0 0.4-0.1 0.5-0.1l4.3-1.5c0.1 0 0.2-0.1 0.4-0.1 0.1 0 0.2 0 0.3 0.1 0 0 1 0.4 2 0.7 0.8 0.2 2.5 0.6 3.8 0.6 7.6 0 13.8-6.2 13.8-13.8 0-1.1-0.1-2.1-0.3-3zM16.2 27.5c-1 0-2.4-0.3-3.3-0.5-0.9-0.3-1.8-0.6-1.8-0.6-0.3-0.1-0.7-0.2-1-0.2 0 0 0 0 0 0-0.4 0-0.8 0.1-1.1 0.2l-3.6 1.3 0.7-2.6 0.3-1.1c0.1-0.5 0-1.1-0.4-1.7 0-0.1-0.1-0.2-0.1-0.3-1.2-1.9-1.9-4-1.9-6.3 0-3.1 1.2-6 3.4-8.2 2.3-2.2 5.3-3.5 8.6-3.5 5.7 0 10.6 3.9 11.8 9.3 0.2 0.8 0.3 1.6 0.3 2.4-0.1 6.5-5.4 11.8-11.9 11.8z"></path>
</svg>
