<svg version="1.1" xmlns="http://www.w3.org/2000/svg" width="32" height="32" viewBox="0 0 32 32">
<title>chat_message_comment_bubble</title>
<path d="M8.813 31.704c-0.096 0-0.191-0.021-0.281-0.063-0.235-0.109-0.385-0.345-0.385-0.604v-7.176c-3.969-1.224-7.901-5.831-7.901-11.831 0-6.523 4.964-12.034 10.839-12.034h10.027c5.733 0 10.575 5.495 10.575 12s-4.842 12-10.575 12h-2.915l-8.953 7.549c-0.123 0.104-0.275 0.157-0.43 0.157zM11.083 1.331c-5.064 0-9.505 5-9.505 10.701 0 5.598 3.756 9.822 7.386 10.672 0.302 0.072 0.515 0.34 0.515 0.65v6.251l8.043-6.783c0.12-0.102 0.272-0.158 0.43-0.158h3.159c5.010 0 9.242-4.884 9.242-10.667s-4.232-10.667-9.242-10.667h-10.027z"></path>
</svg>
