<!-- Generated by IcoMoon.io -->
<svg version="1.1" xmlns="http://www.w3.org/2000/svg" width="32" height="32" viewBox="0 0 32 32">
<title>chat_message_quote_reply</title>
<path d="M13.283 27.997h-11.937c-0.73 0-1.346-0.656-1.346-1.432 0-1.273-0.009-2.482-0.018-3.626-0.057-7.648-0.095-12.701 2.859-15.797 1.947-2.037 4.596-3.070 7.872-3.070 0.734 0 1.287 0.581 1.287 1.352v3.663c0 0.758-0.594 1.352-1.352 1.352-1.191 0-1.894 0.449-2.277 1.455-0.305 0.801-0.359 1.809-0.369 2.77h5.281c0.763 0 1.383 0.604 1.383 1.346v10.555c0 0.763-0.646 1.432-1.383 1.432zM10.577 5.423c-2.85 0-5.080 0.87-6.772 2.64-2.581 2.705-2.546 7.283-2.49 14.867 0.009 1.147 0.018 2.358 0.018 3.635l11.93 0.099 0.070-10.654-6-0.013c-0.369 0-0.667-0.298-0.667-0.667 0-1.24 0-2.71 0.458-3.911 0.585-1.535 1.771-2.314 3.523-2.314l0.019-3.682c-0.030 0-0.059 0-0.089 0z"></path>
<path d="M30.617 27.997h-11.937c-0.729 0-1.346-0.656-1.346-1.432 0-1.273-0.009-2.482-0.018-3.626-0.056-7.648-0.094-12.701 2.858-15.797 1.949-2.038 4.598-3.070 7.874-3.070 0.733 0 1.286 0.581 1.286 1.352v3.663c0 0.745-0.607 1.352-1.353 1.352-1.191 0-1.893 0.449-2.277 1.455-0.305 0.801-0.358 1.809-0.367 2.77h5.281c0.763 0 1.383 0.604 1.383 1.346v10.555c0 0.763-0.646 1.432-1.383 1.432zM27.911 5.423c-2.849 0-5.081 0.87-6.773 2.64-2.579 2.705-2.546 7.282-2.49 14.865 0.009 1.148 0.018 2.359 0.018 3.637l11.931 0.099 0.069-10.654-6-0.013c-0.369 0-0.667-0.298-0.667-0.667 0-1.24 0-2.71 0.457-3.911 0.586-1.535 1.771-2.314 3.523-2.314l0.019-3.682c-0.030 0-0.060 0-0.089 0z"></path>
</svg>
