<svg version="1.1" xmlns="http://www.w3.org/2000/svg" width="32" height="32" viewBox="0 0 32 32">
<title>chat_message_comment_bubble_filled</title>
<path d="M21.144 0.147h-10.028c-5.875 0-10.838 5.509-10.838 12.034 0 6 3.931 10.606 7.9 11.831v7.175c0 0.259 0.15 0.494 0.384 0.603 0.091 0.041 0.184 0.063 0.281 0.063v0c0.153 0 0.306-0.053 0.431-0.156l8.953-7.55h2.916c5.731 0 10.575-5.494 10.575-12s-4.844-12-10.575-12zM16.603 17.478h-6.647c-0.369 0-0.666-0.297-0.666-0.666s0.297-0.666 0.666-0.666h6.647c0.369 0 0.666 0.297 0.666 0.666s-0.297 0.666-0.666 0.666zM22.141 13.481v0 0h-12.184c-0.369 0-0.666-0.297-0.666-0.666s0.297-0.666 0.666-0.666h12.184c0.369 0 0.666 0.297 0.666 0.666 0.003 0.366-0.297 0.666-0.666 0.666zM22.141 9.481v0 0h-12.184c-0.369 0-0.666-0.297-0.666-0.666s0.297-0.666 0.666-0.666h12.184c0.369 0 0.666 0.297 0.666 0.666 0.003 0.366-0.297 0.666-0.666 0.666z"></path>
</svg>
