<svg version="1.1" xmlns="http://www.w3.org/2000/svg" width="32" height="32" viewBox="0 0 32 32">
<title>chat_message_comment_bubble_tweet_twitter</title>
<path d="M8.839 31.704c-0.096 0-0.191-0.021-0.281-0.063-0.235-0.109-0.385-0.345-0.385-0.604v-7.176c-3.969-1.224-7.902-5.831-7.902-11.831 0-6.523 4.964-12.034 10.839-12.034h10.028c5.732 0 10.574 5.495 10.574 12s-4.842 12-10.574 12h-2.915l-8.953 7.549c-0.122 0.104-0.275 0.157-0.43 0.157zM11.109 1.331c-5.064 0-9.505 5-9.505 10.701 0 5.598 3.756 9.823 7.387 10.672 0.302 0.072 0.515 0.34 0.515 0.65v6.25l8.043-6.781c0.12-0.102 0.272-0.158 0.43-0.158h3.159c5.009 0 9.241-4.884 9.241-10.667s-4.232-10.667-9.241-10.667h-10.028z"></path>
<path d="M16.349 18.258c-1.579 0-2.826-0.552-3.714-1.642-0.801 0.193-1.894 0.358-2.885 0.358-0.224 0-2.211-0.029-2.949-1.003-0.252-0.333-0.328-0.739-0.214-1.144 0.119-0.419 0.453-0.766 0.953-1.006-0.109-0.352-0.080-0.716 0.094-1.057 0.415-0.811 1.304-1.006 2.461-0.878 0.442 0.048 0.9 0.072 1.352 0.016-1.468-1.403-1.818-3.498-1.86-3.786-0.028-0.192 0.054-0.46 0.181-0.607 0.447-0.515 2.118-0.57 2.815-0.57 1.625 0 2.764 0.402 3.477 0.781 1.068-1.331 2.572-2.135 4.047-2.135 1.682 0 2.948 1.060 3.305 2.729 0.363 0.202 0.676 0.367 0.936 0.503 0.914 0.482 1.372 0.724 1.345 1.303-0.029 0.574-0.512 0.772-1.389 1.131-0.186 0.077-0.4 0.164-0.641 0.266-0.12 1.551-0.953 6.165-6.602 6.705-0.241 0.022-0.478 0.035-0.711 0.035zM12.902 15.189c0.223 0 0.437 0.113 0.563 0.309 0.745 1.105 1.93 1.548 3.468 1.397 5.138-0.491 5.413-4.939 5.415-5.825 0.001-0.264 0.156-0.502 0.398-0.608 0.404-0.178 0.747-0.319 1.033-0.436-0.018-0.010-0.036-0.019-0.055-0.029-0.332-0.175-0.747-0.394-1.245-0.676-0.182-0.103-0.305-0.285-0.332-0.492-0.163-1.215-0.908-1.911-2.042-1.911-1.197 0-2.497 0.807-3.311 2.057-0.1 0.153-0.258 0.258-0.437 0.292s-0.365-0.008-0.512-0.116c-0.453-0.328-1.479-0.878-3.262-0.878-0.369 0-1.118 0.049-1.579 0.123 0.209 0.831 0.809 2.528 2.307 3.171 0.249 0.107 0.409 0.355 0.404 0.627s-0.176 0.512-0.43 0.609c-1.131 0.429-2.245 0.528-3.335 0.409-0.221-0.024-0.435-0.049-0.633-0.049-0.388 0-0.44 0.102-0.495 0.209-0.049 0.097 0.155 0.285 0.196 0.322 0.191 0.169 0.269 0.433 0.2 0.679s-0.272 0.43-0.523 0.476c-0.587 0.105-0.801 0.305-0.827 0.352 0.105 0.154 0.947 0.44 1.884 0.44 1.062 0 2.253-0.213 2.962-0.424 0.063-0.019 0.127-0.028 0.19-0.028zM20.227 10.598c-0.831 0-1.507-0.684-1.507-1.523s0.676-1.523 1.507-1.523c0.829 0 1.505 0.684 1.505 1.523s-0.676 1.523-1.505 1.523zM20.227 8.884c-0.094 0-0.173 0.087-0.173 0.19 0 0.206 0.345 0.206 0.345 0 0-0.103-0.078-0.19-0.172-0.19z"></path>
</svg>
