<svg version="1.1" xmlns="http://www.w3.org/2000/svg" width="32" height="32" viewBox="0 0 32 32">
<title>chat_message_comment_bubble_reply_quote</title>
<path d="M11.172 18.603c-0.475 0-0.861-0.392-0.861-0.875v-1.765c0-0.483 0.386-0.876 0.861-0.876 0.324 0 0.459-0.098 0.533-0.172 0.282-0.283 0.345-0.955 0.359-1.589h-1.817c-0.475 0-0.861-0.393-0.861-0.876v-4.911c0-0.483 0.386-0.876 0.861-0.876h5.033c0.475 0 0.861 0.393 0.861 0.876v4.465c0 4.378-1.671 6.598-4.967 6.598zM11.645 16.378v0.874c1.561-0.126 3.161-1.010 3.161-5.247v-4.007h-4.088v3.995h2.015c0.369 0 0.667 0.298 0.667 0.667 0.001 1.159 0.003 2.442-0.752 3.198-0.271 0.272-0.607 0.446-1.003 0.52z"></path>
<path d="M19.013 18.603c-0.474 0-0.861-0.392-0.861-0.875v-1.765c0-0.483 0.387-0.876 0.861-0.876 0.323 0 0.458-0.098 0.533-0.172 0.281-0.283 0.345-0.955 0.358-1.589h-1.816c-0.475 0-0.862-0.393-0.862-0.876v-4.911c0-0.483 0.387-0.876 0.862-0.876h5.033c0.474 0 0.861 0.393 0.861 0.876v4.465c0 4.378-1.672 6.598-4.967 6.598zM19.486 16.378v0.874c1.561-0.126 3.161-1.010 3.161-5.247v-4.007h-4.089v3.995h2.016c0.369 0 0.667 0.298 0.667 0.667 0.001 1.159 0.003 2.442-0.753 3.198-0.271 0.272-0.607 0.446-1.003 0.52z"></path>
<path d="M8.851 31.704c-0.096 0-0.191-0.021-0.281-0.063-0.235-0.109-0.385-0.345-0.385-0.604v-7.176c-3.969-1.224-7.901-5.831-7.901-11.831 0-6.523 4.964-12.034 10.839-12.034h10.028c5.732 0 10.574 5.495 10.574 12s-4.842 12-10.574 12h-2.915l-8.954 7.549c-0.122 0.104-0.275 0.157-0.43 0.157zM11.122 1.331c-5.064 0-9.505 5-9.505 10.701 0 5.598 3.756 9.822 7.386 10.672 0.302 0.072 0.515 0.34 0.515 0.65v6.251l8.044-6.783c0.12-0.102 0.272-0.158 0.43-0.158h3.159c5.009 0 9.241-4.884 9.241-10.667s-4.232-10.667-9.241-10.667h-10.028z"></path>
</svg>
