<svg version="1.1" xmlns="http://www.w3.org/2000/svg" width="32" height="32" viewBox="0 0 32 32">
<title>chat_message_comment_bubble_like_favorite</title>
<path d="M8.832 31.704c-0.096 0-0.191-0.021-0.281-0.063-0.235-0.109-0.385-0.345-0.385-0.604v-7.176c-3.969-1.224-7.902-5.831-7.902-11.831 0-6.523 4.964-12.034 10.839-12.034h10.028c5.732 0 10.574 5.495 10.574 12s-4.842 12-10.574 12h-2.915l-8.953 7.549c-0.122 0.104-0.275 0.157-0.43 0.157zM11.102 1.331c-5.064 0-9.505 5-9.505 10.701 0 5.598 3.756 9.822 7.387 10.672 0.302 0.072 0.515 0.34 0.515 0.65v6.25l8.043-6.781c0.12-0.102 0.272-0.158 0.43-0.158h3.159c5.009 0 9.241-4.884 9.241-10.667s-4.232-10.667-9.241-10.667h-10.028z"></path>
<path d="M16.184 19.512c-0.18 0-0.351-0.072-0.476-0.201l-5.879-5.998c-1.643-1.675-1.643-4.4 0-6.075 1.597-1.631 4.392-1.632 5.991 0l0.364 0.371 0.363-0.372c1.598-1.631 4.392-1.633 5.992 0 1.641 1.675 1.641 4.4 0 6.075l-5.879 5.999c-0.126 0.129-0.297 0.201-0.477 0.201zM12.824 7.307c-0.771 0-1.497 0.307-2.044 0.865-1.137 1.159-1.137 3.047 0 4.208l5.403 5.514 5.402-5.514c1.137-1.16 1.137-3.048 0-4.209-1.095-1.116-2.996-1.113-4.086 0l-0.84 0.858c-0.251 0.254-0.702 0.255-0.953 0l-0.84-0.857c-0.547-0.558-1.273-0.865-2.043-0.865z"></path>
</svg>
