<svg version="1.1" xmlns="http://www.w3.org/2000/svg" width="32" height="32" viewBox="0 0 32 32">
<title>chat_message_comment_bubble_close</title>
<path d="M8.812 31.704c-0.096 0-0.192-0.021-0.281-0.063-0.235-0.109-0.385-0.345-0.385-0.604v-7.176c-3.969-1.224-7.901-5.831-7.901-11.831 0-6.523 4.964-12.033 10.839-12.033h10.028c5.733 0 10.576 5.496 10.576 12 0 6.505-4.843 12-10.576 12h-2.916l-8.952 7.549c-0.123 0.104-0.276 0.157-0.431 0.157zM11.083 1.331c-5.064 0-9.505 5-9.505 10.7 0 5.597 3.756 9.821 7.387 10.672 0.303 0.072 0.515 0.34 0.515 0.649v6.251l8.043-6.783c0.12-0.101 0.272-0.157 0.429-0.157h3.159c5.011 0 9.243-4.884 9.243-10.667 0-5.781-4.232-10.667-9.243-10.667h-10.027z"></path>
<path d="M21.601 18.34c-0.171 0-0.341-0.065-0.472-0.195l-11.449-11.452c-0.26-0.26-0.26-0.683 0-0.943s0.683-0.26 0.943 0l11.451 11.451c0.26 0.26 0.26 0.683 0 0.943-0.131 0.131-0.301 0.196-0.472 0.196z"></path>
<path d="M10.151 18.34c-0.171 0-0.341-0.065-0.472-0.195-0.26-0.26-0.26-0.683 0-0.943l11.451-11.451c0.26-0.26 0.683-0.26 0.943 0s0.26 0.683 0 0.943l-11.451 11.451c-0.129 0.129-0.3 0.195-0.471 0.195z"></path>
</svg>
