<svg version="1.1" xmlns="http://www.w3.org/2000/svg" width="32" height="32" viewBox="0 0 32 32">
<title>chat_message_comment_bubble_cloud2</title>
<path d="M7.969 27.669c-2.114 0-3.833-1.43-3.833-3.187s1.719-3.189 3.833-3.189 3.833 1.431 3.833 3.189-1.719 3.187-3.833 3.187zM7.969 22.626c-1.378 0-2.5 0.832-2.5 1.855 0 1.022 1.122 1.854 2.5 1.854s2.5-0.832 2.5-1.854c0-1.023-1.122-1.855-2.5-1.855z"></path>
<path d="M3.208 31.531c-1.175 0-2.13-0.822-2.13-1.831 0-1.010 0.956-1.832 2.13-1.832s2.13 0.822 2.13 1.832c0 1.009-0.955 1.831-2.13 1.831zM3.208 29.202c-0.456 0-0.797 0.263-0.797 0.499 0 0.234 0.341 0.497 0.797 0.497s0.796-0.263 0.796-0.497c0-0.236-0.341-0.499-0.796-0.499z"></path>
<path d="M17.729 21.167c-1.332 0-2.581-0.378-3.568-1.070-1.652 0.818-3.868 0.605-5.156-0.499-4.162-0.298-7.459-3.262-7.882-7.128-0.426-3.895 2.255-7.589 6.288-8.762 0.48-2.055 2.488-3.159 4.265-3.159 1.079 0 2.060 0.365 2.822 1.039 1.038-0.763 2.308-1.178 3.636-1.178 1.875 0 3.581 0.824 4.638 2.221 1.749 0.036 3.398 0.749 4.544 1.967 0.962 1.025 1.49 2.327 1.508 3.705 1.467 0.902 2.395 2.27 2.563 3.809 0.154 1.406-0.335 2.818-1.376 3.979-1.381 1.542-3.553 2.461-5.807 2.461v0c-0.369 0-0.737-0.025-1.103-0.073-1.055 1.646-3.106 2.686-5.371 2.686zM14.22 18.634c0.154 0 0.307 0.053 0.43 0.158 0.794 0.672 1.887 1.042 3.079 1.042 1.928 0 3.707-0.958 4.427-2.385 0.134-0.264 0.422-0.409 0.721-0.354 2.285 0.445 4.741-0.329 6.141-1.891 0.555-0.619 1.186-1.632 1.043-2.945-0.133-1.215-0.944-2.302-2.225-2.983-0.232-0.122-0.369-0.369-0.353-0.63 0.072-1.162-0.332-2.275-1.138-3.132-0.926-0.984-2.279-1.549-3.714-1.549l-0.182 0.003c-0.231 0.014-0.453-0.106-0.581-0.302-0.784-1.203-2.18-1.921-3.734-1.921-1.216 0-2.367 0.441-3.237 1.24-0.135 0.124-0.318 0.186-0.498 0.174-0.183-0.012-0.352-0.1-0.469-0.242-0.546-0.666-1.347-1.033-2.254-1.033-1.329 0-2.839 0.853-3.019 2.436-0.031 0.279-0.234 0.507-0.506 0.573-3.619 0.872-6.071 4.067-5.703 7.434 0.359 3.284 3.246 5.788 6.864 5.956 0.165 0.007 0.322 0.075 0.439 0.193 0.926 0.921 2.852 1.051 4.115 0.262 0.109-0.068 0.231-0.101 0.353-0.101z"></path>
</svg>
