<svg version="1.1" xmlns="http://www.w3.org/2000/svg" width="32" height="32" viewBox="0 0 32 32">
<title>chat_message_comment_bubble_add_new</title>
<path d="M15.359 18.626c-0.369 0-0.667-0.298-0.667-0.667v-10.637c0-0.369 0.298-0.667 0.667-0.667s0.667 0.298 0.667 0.667v10.637c0 0.369-0.298 0.667-0.667 0.667z"></path>
<path d="M20.572 13.308h-10.425c-0.369 0-0.667-0.298-0.667-0.667s0.298-0.667 0.667-0.667h10.425c0.369 0 0.667 0.298 0.667 0.667s-0.298 0.667-0.667 0.667z"></path>
<path d="M8.825 31.704c-0.096 0-0.191-0.021-0.281-0.063-0.235-0.109-0.385-0.345-0.385-0.604v-7.176c-3.969-1.224-7.902-5.831-7.902-11.831 0-6.523 4.964-12.034 10.839-12.034h10.027c5.732 0 10.574 5.495 10.574 12s-4.842 12-10.574 12h-2.915l-8.953 7.549c-0.122 0.104-0.275 0.157-0.43 0.157zM11.096 1.331c-5.064 0-9.506 5-9.506 10.701 0 5.598 3.756 9.822 7.387 10.672 0.302 0.072 0.515 0.34 0.515 0.65v6.25l8.043-6.781c0.12-0.102 0.272-0.158 0.43-0.158h3.159c5.009 0 9.241-4.884 9.241-10.667s-4.232-10.667-9.241-10.667h-10.027z"></path>
</svg>
