<!-- Generated by IcoMoon.io -->
<svg version="1.1" xmlns="http://www.w3.org/2000/svg" width="32" height="32" viewBox="0 0 32 32">
<title>chat_message_comment_bubble_text</title>
<path d="M4 15.706c-0.020-6.439 5.325-11.706 11.989-11.706 5.807 0 10.632 4.021 11.756 9.323v0.002c0.169 0.787 0.254 1.589 0.254 2.393v0c0 6.484-5.156 11.808-11.787 11.808-1.025 0-2.475-0.266-3.26-0.486-0.798-0.224-1.606-0.523-1.809-0.602h-0.002c-0.336-0.129-0.692-0.195-1.052-0.196-0.384-0.001-0.765 0.073-1.12 0.22l-3.572 1.289 1.033-3.738c0.111-0.409 0.026-0.791-0.048-1.026-0.081-0.256-0.197-0.489-0.296-0.661l-0.010-0.016c-0.061-0.102-0.127-0.201-0.197-0.297-1.229-1.872-1.883-4.063-1.883-6.303v-0.003zM10.091 26.242h-0.001l-0.001 1 0.004-1h-0.002zM15.989 2c-7.723 0-14.012 6.119-13.989 13.71 0 2.639 0.775 5.221 2.228 7.424l0.016 0.024 0.017 0.023c0.035 0.047 0.067 0.095 0.097 0.145 0.055 0.098 0.097 0.189 0.119 0.257l-1.197 4.329c-0.038 0.132-0.062 0.267-0.073 0.404l-0.002 0.030v0.030c-0.003 0.212 0.036 0.422 0.115 0.618s0.196 0.375 0.344 0.526 0.325 0.271 0.52 0.353c0.195 0.082 0.404 0.125 0.616 0.125h0.054l0.053-0.006c0.189-0.020 0.375-0.067 0.551-0.139l4.266-1.541c0.114-0.049 0.238-0.073 0.362-0.073h0.003c0.115 0 0.229 0.021 0.337 0.063 0.232 0.090 1.105 0.414 1.989 0.662 0.899 0.252 2.537 0.56 3.799 0.56 7.757 0 13.787-6.241 13.787-13.808v0c0-0.945-0.1-1.887-0.298-2.811-1.323-6.236-6.972-10.907-13.712-10.907zM23.188 12.563c0.518 0 0.938-0.42 0.938-0.938s-0.42-0.938-0.938-0.938h-14.375c-0.518 0-0.938 0.42-0.938 0.938s0.42 0.938 0.938 0.938h14.375zM23.188 16.938c0.518 0 0.938-0.42 0.938-0.938s-0.42-0.938-0.938-0.938h-14.375c-0.518 0-0.938 0.42-0.938 0.938s0.42 0.938 0.938 0.938h14.375zM16 20.39c0 0.526-0.426 0.952-0.952 0.952h-6.221c-0.526 0-0.952-0.426-0.952-0.952s0.426-0.952 0.952-0.952h6.221c0.526 0 0.952 0.426 0.952 0.952z"></path>
</svg>
