<svg version="1.1" xmlns="http://www.w3.org/2000/svg" width="32" height="32" viewBox="0 0 32 32">
<title>chat_message_comment_bubble_cloud</title>
<path d="M8.834 28.773c-0.085 0-0.17-0.016-0.251-0.049-0.253-0.103-0.418-0.349-0.416-0.621l0.042-6.676h-1.949c-3.198 0-5.799-2.589-5.799-5.771 0-1.889 1.238-3.836 3.112-4.943 0.608-4.379 4.021-7.52 8.236-7.52 1.996 0 3.693 0.675 5.311 2.118 3.367-0.63 6.548 1.496 7.297 4.656 3.704-0.581 7.173 2.24 7.173 5.69 0 3.075-2.855 5.771-6.109 5.771h-9.302l-6.864 7.142c-0.128 0.133-0.303 0.205-0.481 0.205zM11.809 4.525c-3.629 0-6.552 2.806-6.951 6.673-0.023 0.223-0.156 0.419-0.355 0.523-1.595 0.831-2.708 2.45-2.708 3.935 0 2.135 1.708 4.438 4.466 4.438h2.62c0.178 0 0.348 0.070 0.473 0.197s0.195 0.297 0.194 0.474l-0.036 5.676 5.902-6.142c0.126-0.13 0.299-0.204 0.481-0.204h9.587c2.544 0 4.776-2.074 4.776-4.438 0-2.1-1.975-4.439-4.809-4.439-0.46 0-0.928 0.064-1.392 0.189-0.185 0.053-0.385 0.018-0.548-0.091-0.16-0.109-0.266-0.282-0.289-0.475-0.341-2.922-3.145-4.883-6.141-4.158-0.221 0.054-0.452-0.008-0.615-0.164-1.434-1.359-2.914-1.992-4.655-1.992z"></path>
</svg>
