<!-- Generated by IcoMoon.io -->
<svg version="1.1" xmlns="http://www.w3.org/2000/svg" width="32" height="32" viewBox="0 0 32 32">
<title>chat_message_comment_bubble_close</title>
<path fill="none" stroke-linejoin="miter" stroke-linecap="round" stroke-miterlimit="10" stroke-width="2" stroke="#000" d="M5.468 23.75c0.074-0.274-0.090-0.654-0.247-0.929-0.049-0.082-0.102-0.161-0.159-0.238-1.345-2.040-2.063-4.431-2.063-6.875-0.022-7.016 5.796-12.709 12.989-12.709 6.274 0 11.511 4.346 12.734 10.116 0.183 0.855 0.276 1.728 0.276 2.602 0 7.026-5.593 12.808-12.787 12.808-1.144 0-2.688-0.288-3.529-0.523s-1.682-0.548-1.899-0.632c-0.222-0.085-0.457-0.129-0.695-0.129-0.26-0.001-0.517 0.051-0.756 0.152l-4.239 1.53c-0.093 0.040-0.191 0.066-0.292 0.076-0.079-0-0.158-0.016-0.231-0.047s-0.139-0.076-0.195-0.132c-0.056-0.057-0.099-0.124-0.129-0.197s-0.044-0.152-0.043-0.232c0.005-0.070 0.018-0.139 0.037-0.206l1.226-4.436z"></path>
<path fill="none" stroke-linejoin="round" stroke-linecap="round" stroke-miterlimit="4" stroke-width="2" stroke="#000" d="M11.802 11.802l8.397 8.397M20.198 11.802l-8.397 8.397"></path>
</svg>
