<!-- Generated by IcoMoon.io -->
<svg version="1.1" xmlns="http://www.w3.org/2000/svg" width="32" height="32" viewBox="0 0 32 32">
<title>checkbox_ok_successful</title>
<path d="M21.2 10.4l-7.7 9.1-2.8-3.1c-0.4-0.4-1-0.4-1.4-0.1-0.4 0.4-0.4 1-0.1 1.4l3.6 4c0.2 0.2 0.5 0.3 0.7 0.3 0 0 0 0 0 0 0.3 0 0.6-0.1 0.7-0.4l8.4-10c0.4-0.4 0.3-1.1-0.1-1.4-0.3-0.3-0.9-0.3-1.3 0.2z"></path>
<path d="M25 3h-18c-2.2 0-4 1.8-4 4v18c0 2.2 1.8 4 4 4h18c2.2 0 4-1.8 4-4v-18c0-2.2-1.8-4-4-4zM27 25c0 1.1-0.9 2-2 2h-18c-1.1 0-2-0.9-2-2v-18c0-1.1 0.9-2 2-2h18c1.1 0 2 0.9 2 2v18z"></path>
</svg>
