<svg version="1.1" xmlns="http://www.w3.org/2000/svg" width="32" height="32" viewBox="0 0 32 32">
<title>checkboxes_lines_check</title>
<path d="M8.699 30.669h-6.667c-0.369 0-0.667-0.298-0.667-0.667v-6.668c0-0.369 0.298-0.667 0.667-0.667h6.667c0.369 0 0.667 0.298 0.667 0.667v6.668c0 0.368-0.298 0.667-0.667 0.667zM2.699 29.336h5.334v-5.335h-5.334v5.335z"></path>
<path d="M8.699 20.001h-6.667c-0.369 0-0.667-0.298-0.667-0.667v-6.667c0-0.369 0.298-0.667 0.667-0.667h6.667c0.369 0 0.667 0.298 0.667 0.667v6.667c0 0.368-0.298 0.667-0.667 0.667zM2.699 18.668h5.334v-5.334h-5.334v5.334z"></path>
<path d="M8.699 9.333h-6.667c-0.369 0-0.667-0.298-0.667-0.667v-6.667c0-0.369 0.298-0.667 0.667-0.667h6.667c0.369 0 0.667 0.298 0.667 0.667v6.667c0 0.369-0.298 0.667-0.667 0.667zM2.699 8h5.334v-5.333h-5.334v5.333z"></path>
<path d="M28.62 26.667h-15.909c-0.369 0-0.667-0.298-0.667-0.667s0.298-0.667 0.667-0.667h15.909c0.369 0 0.667 0.298 0.667 0.667s-0.298 0.667-0.667 0.667z"></path>
<path d="M28.62 15.999h-15.909c-0.369 0-0.667-0.298-0.667-0.667s0.298-0.667 0.667-0.667h15.909c0.369 0 0.667 0.298 0.667 0.667s-0.298 0.667-0.667 0.667z"></path>
<path d="M28.62 5.331h-15.909c-0.369 0-0.667-0.298-0.667-0.667s0.298-0.667 0.667-0.667h15.909c0.369 0 0.667 0.298 0.667 0.667s-0.298 0.667-0.667 0.667z"></path>
<path d="M2.032 9.020c-0.176 0-0.352-0.069-0.482-0.207-0.254-0.266-0.244-0.688 0.023-0.942l6.667-6.353c0.266-0.254 0.689-0.245 0.942 0.023 0.254 0.266 0.244 0.688-0.023 0.942l-6.667 6.354c-0.129 0.123-0.294 0.184-0.46 0.184z"></path>
<path d="M8.699 9.333c-0.171 0-0.341-0.065-0.471-0.195l-6.667-6.667c-0.26-0.26-0.26-0.682 0-0.943s0.682-0.26 0.943 0l6.667 6.667c0.26 0.26 0.26 0.682 0 0.943-0.13 0.13-0.301 0.195-0.471 0.195z"></path>
</svg>
