<!-- Generated by IcoMoon.io -->
<svg version="1.1" xmlns="http://www.w3.org/2000/svg" width="32" height="32" viewBox="0 0 32 32">
<title>check_ok_rounded</title>
<path d="M16 3c-7.2 0-13 5.8-13 13s5.8 13 13 13c7.2 0 13-5.8 13-13s-5.8-13-13-13zM16 27c-6.1 0-11-4.9-11-11s4.9-11 11-11 11 4.9 11 11-4.9 11-11 11z"></path>
<path d="M21.2 10.4l-7.7 9.1-2.8-3.1c-0.4-0.4-1-0.4-1.4-0.1-0.4 0.4-0.4 1-0.1 1.4l3.6 4c0.2 0.2 0.5 0.3 0.7 0.3 0 0 0 0 0 0 0.3 0 0.6-0.1 0.7-0.4l8.4-10c0.4-0.4 0.3-1.1-0.1-1.4-0.3-0.3-0.9-0.3-1.3 0.2z"></path>
</svg>
