<svg version="1.1" xmlns="http://www.w3.org/2000/svg" width="32" height="32" viewBox="0 0 32 32">
<title>check_ok_yes_no</title>
<path d="M23.441 18.236c-0.548 0-1.099-0.055-1.638-0.163-0.361-0.073-0.595-0.423-0.522-0.785s0.432-0.595 0.785-0.522c0.452 0.091 0.915 0.137 1.375 0.137 3.832 0 6.951-3.119 6.951-6.951s-3.119-6.951-6.951-6.951c-3.624 0-6.669 2.827-6.932 6.437-0.027 0.367-0.34 0.636-0.714 0.617-0.367-0.027-0.643-0.346-0.616-0.713 0.314-4.303 3.943-7.674 8.262-7.674 4.568 0 8.284 3.716 8.284 8.284s-3.716 8.285-8.284 8.285z"></path>
<path d="M11.499 30.336c-6.198 0-11.24-5.043-11.24-11.241s5.042-11.241 11.24-11.241c6.199 0 11.242 5.043 11.242 11.241s-5.043 11.241-11.242 11.241zM11.499 9.187c-5.463 0-9.907 4.445-9.907 9.908s4.444 9.908 9.907 9.908 9.908-4.444 9.908-9.908c0-5.463-4.445-9.908-9.908-9.908z"></path>
<path d="M9.678 24.163c-0.163 0-0.327-0.060-0.456-0.18-0.269-0.251-0.283-0.673-0.031-0.943l7.625-8.15c0.251-0.266 0.673-0.283 0.943-0.031 0.268 0.252 0.283 0.674 0.031 0.943l-7.625 8.15c-0.131 0.141-0.309 0.211-0.487 0.211z"></path>
<path d="M9.678 24.163c-0.178 0-0.355-0.070-0.487-0.211l-3.541-3.785c-0.251-0.269-0.238-0.691 0.031-0.943 0.269-0.25 0.69-0.238 0.943 0.031l3.541 3.785c0.251 0.269 0.238 0.691-0.031 0.943-0.129 0.12-0.292 0.18-0.456 0.18z"></path>
<path d="M25.612 12.789c-0.171 0-0.341-0.065-0.471-0.195l-4.342-4.342c-0.26-0.26-0.26-0.682 0-0.943s0.682-0.26 0.943 0l4.342 4.342c0.26 0.26 0.26 0.682 0 0.943-0.13 0.13-0.301 0.195-0.471 0.195z"></path>
<path d="M21.96 12.099c-0.171 0-0.341-0.065-0.471-0.195-0.26-0.26-0.26-0.682 0-0.943l3.652-3.652c0.26-0.26 0.682-0.26 0.943 0s0.26 0.682 0 0.943l-3.652 3.652c-0.13 0.13-0.301 0.195-0.471 0.195z"></path>
</svg>
