<svg version="1.1" xmlns="http://www.w3.org/2000/svg" width="32" height="32" viewBox="0 0 32 32">
<title>check_thick</title>
<path d="M0.606 18.184c-0.375-0.384-0.606-0.909-0.606-1.491 0-1.178 0.956-2.131 2.131-2.131 0 0 0 0 0.003 0v0c0.003 0 0.003 0 0.006 0 0.597 0 1.134 0.247 1.519 0.641v0l7.269 7.475 17.406-17.9c0.387-0.397 0.931-0.647 1.531-0.647 0.578 0 1.103 0.228 1.488 0.603v0c0.4 0.388 0.647 0.928 0.647 1.528 0 0.581-0.231 1.106-0.606 1.491v0h0.003l-18.934 19.469c-0.387 0.4-0.931 0.647-1.531 0.647s-1.144-0.247-1.531-0.647v0l-8.794-9.037z"></path>
</svg>
