<svg version="1.1" xmlns="http://www.w3.org/2000/svg" width="32" height="32" viewBox="0 0 32 32">
<title>checkbox_ok_successful</title>
<path d="M31.34 32.001h-30.667c-0.369 0-0.667-0.298-0.667-0.667v-30.667c0-0.369 0.298-0.667 0.667-0.667h30.667c0.369 0 0.667 0.298 0.667 0.667v30.667c0 0.368-0.298 0.667-0.667 0.667zM1.34 30.668h29.333v-29.333h-29.333v29.333z"></path>
<path d="M12.855 22.703c-0.18 0-0.352-0.073-0.478-0.202l-5.529-5.685c-0.257-0.264-0.251-0.686 0.013-0.943s0.686-0.249 0.943 0.013l5.051 5.194 11.426-11.75c0.258-0.264 0.68-0.269 0.943-0.013 0.264 0.257 0.269 0.678 0.013 0.943l-11.904 12.241c-0.126 0.129-0.297 0.202-0.478 0.202z"></path>
</svg>
