<!-- Generated by IcoMoon.io -->
<svg version="1.1" xmlns="http://www.w3.org/2000/svg" width="32" height="32" viewBox="0 0 32 32">
<title>check_ok_rounded_filled</title>
<path d="M16 0c-8.822 0-16 7.178-16 16s7.178 16 16 16 16-7.178 16-16-7.178-16-16-16zM24.328 10.637l-10.341 12.306c-0.222 0.266-0.553 0.434-0.922 0.441h-0.022c-0.363 0-0.688-0.156-0.912-0.406v0l-4.431-4.925c-0.209-0.219-0.334-0.516-0.334-0.844 0-0.678 0.55-1.231 1.231-1.231 0.372 0 0.706 0.166 0.934 0.428v0l3.484 3.872 9.431-11.222c0.225-0.259 0.559-0.425 0.931-0.425 0.678 0 1.231 0.55 1.231 1.231-0.003 0.294-0.109 0.566-0.281 0.775v0 0z"></path>
</svg>
