<svg version="1.1" xmlns="http://www.w3.org/2000/svg" width="32" height="32" viewBox="0 0 32 32">
<title>chip_cpu_64_bit_processor</title>
<path d="M27.333 28h-22.667c-0.369 0-0.667-0.298-0.667-0.667v-22.667c0-0.369 0.298-0.667 0.667-0.667h22.667c0.369 0 0.667 0.298 0.667 0.667v22.667c0 0.369-0.298 0.667-0.667 0.667zM5.333 26.667h21.333v-21.333h-21.333v21.333z"></path>
<path d="M15.333 5.333c-0.369 0-0.667-0.298-0.667-0.667v-3.881c0-0.369 0.298-0.667 0.667-0.667s0.667 0.298 0.667 0.667v3.881c0 0.369-0.298 0.667-0.667 0.667z"></path>
<path d="M11.333 5.333c-0.369 0-0.667-0.298-0.667-0.667v-3.881c0-0.369 0.298-0.667 0.667-0.667s0.667 0.298 0.667 0.667v3.881c0 0.369-0.298 0.667-0.667 0.667z"></path>
<path d="M7.333 5.333c-0.369 0-0.667-0.298-0.667-0.667v-3.881c0-0.369 0.298-0.667 0.667-0.667s0.667 0.298 0.667 0.667v3.881c0 0.369-0.298 0.667-0.667 0.667z"></path>
<path d="M20.667 5.333c-0.369 0-0.667-0.298-0.667-0.667v-3.881c0-0.369 0.298-0.667 0.667-0.667s0.667 0.298 0.667 0.667v3.881c0 0.369-0.298 0.667-0.667 0.667z"></path>
<path d="M24.667 5.333c-0.369 0-0.667-0.298-0.667-0.667v-3.881c0-0.369 0.298-0.667 0.667-0.667s0.667 0.298 0.667 0.667v3.881c0 0.369-0.298 0.667-0.667 0.667z"></path>
<path d="M15.333 31.881c-0.369 0-0.667-0.298-0.667-0.667v-3.881c0-0.369 0.298-0.667 0.667-0.667s0.667 0.298 0.667 0.667v3.881c0 0.369-0.298 0.667-0.667 0.667z"></path>
<path d="M11.333 31.881c-0.369 0-0.667-0.298-0.667-0.667v-3.881c0-0.369 0.298-0.667 0.667-0.667s0.667 0.298 0.667 0.667v3.881c0 0.369-0.298 0.667-0.667 0.667z"></path>
<path d="M7.333 31.881c-0.369 0-0.667-0.298-0.667-0.667v-3.881c0-0.369 0.298-0.667 0.667-0.667s0.667 0.298 0.667 0.667v3.881c0 0.369-0.298 0.667-0.667 0.667z"></path>
<path d="M20.667 31.881c-0.369 0-0.667-0.298-0.667-0.667v-3.881c0-0.369 0.298-0.667 0.667-0.667s0.667 0.298 0.667 0.667v3.881c0 0.369-0.298 0.667-0.667 0.667z"></path>
<path d="M24.667 31.881c-0.369 0-0.667-0.298-0.667-0.667v-3.881c0-0.369 0.298-0.667 0.667-0.667s0.667 0.298 0.667 0.667v3.881c0 0.369-0.298 0.667-0.667 0.667z"></path>
<path d="M31.215 16h-3.881c-0.369 0-0.667-0.298-0.667-0.667s0.298-0.667 0.667-0.667h3.881c0.369 0 0.667 0.298 0.667 0.667s-0.298 0.667-0.667 0.667z"></path>
<path d="M31.215 12h-3.881c-0.369 0-0.667-0.298-0.667-0.667s0.298-0.667 0.667-0.667h3.881c0.369 0 0.667 0.298 0.667 0.667s-0.298 0.667-0.667 0.667z"></path>
<path d="M31.215 8h-3.881c-0.369 0-0.667-0.298-0.667-0.667s0.298-0.667 0.667-0.667h3.881c0.369 0 0.667 0.298 0.667 0.667s-0.298 0.667-0.667 0.667z"></path>
<path d="M31.215 21.333h-3.881c-0.369 0-0.667-0.298-0.667-0.667s0.298-0.667 0.667-0.667h3.881c0.369 0 0.667 0.298 0.667 0.667s-0.298 0.667-0.667 0.667z"></path>
<path d="M31.215 25.333h-3.881c-0.369 0-0.667-0.298-0.667-0.667s0.298-0.667 0.667-0.667h3.881c0.369 0 0.667 0.298 0.667 0.667s-0.298 0.667-0.667 0.667z"></path>
<path d="M4.667 16h-3.881c-0.369 0-0.667-0.298-0.667-0.667s0.298-0.667 0.667-0.667h3.881c0.369 0 0.667 0.298 0.667 0.667s-0.298 0.667-0.667 0.667z"></path>
<path d="M4.667 12h-3.881c-0.369 0-0.667-0.298-0.667-0.667s0.298-0.667 0.667-0.667h3.881c0.369 0 0.667 0.298 0.667 0.667s-0.298 0.667-0.667 0.667z"></path>
<path d="M4.667 8h-3.881c-0.369 0-0.667-0.298-0.667-0.667s0.298-0.667 0.667-0.667h3.881c0.369 0 0.667 0.298 0.667 0.667s-0.298 0.667-0.667 0.667z"></path>
<path d="M4.667 21.333h-3.881c-0.369 0-0.667-0.298-0.667-0.667s0.298-0.667 0.667-0.667h3.881c0.369 0 0.667 0.298 0.667 0.667s-0.298 0.667-0.667 0.667z"></path>
<path d="M4.667 25.333h-3.881c-0.369 0-0.667-0.298-0.667-0.667s0.298-0.667 0.667-0.667h3.881c0.369 0 0.667 0.298 0.667 0.667s-0.298 0.667-0.667 0.667z"></path>
<path d="M9.62 19.219c-0.26 0-0.507-0.154-0.615-0.409-0.278-0.66-0.425-1.405-0.425-2.154 0-2.551 1.669-4.626 3.721-4.626 0.962 0 1.872 0.45 2.564 1.266 0.238 0.281 0.203 0.702-0.077 0.939-0.282 0.239-0.703 0.203-0.939-0.077-0.434-0.512-0.984-0.795-1.547-0.795-1.316 0-2.387 1.477-2.387 3.293 0 0.573 0.111 1.139 0.32 1.638 0.143 0.339-0.017 0.729-0.356 0.872-0.085 0.035-0.172 0.052-0.258 0.052z"></path>
<path d="M12.302 21.281c-1.391 0-2.654-0.947-3.296-2.47-0.023-0.056-0.039-0.115-0.047-0.176-0.015-0.12-0.025-0.241-0.025-0.366 0-1.673 1.468-3.035 3.272-3.035s3.272 1.362 3.272 3.035c0 0.552-0.164 1.095-0.475 1.572-0.737 0.945-1.684 1.44-2.701 1.44zM10.272 18.379c0.437 0.97 1.209 1.569 2.030 1.569 0.598 0 1.173-0.314 1.618-0.883 0.138-0.215 0.225-0.499 0.225-0.796 0-0.939-0.87-1.702-1.939-1.702s-1.939 0.763-1.939 1.702c-0 0.036 0.002 0.073 0.005 0.109z"></path>
<path d="M21.732 21.257c-0.369 0-0.667-0.298-0.667-0.667v-1.355h-4.049c-0.257 0-0.491-0.147-0.602-0.379s-0.078-0.507 0.083-0.706l4.716-5.846c0.178-0.22 0.479-0.303 0.74-0.21 0.267 0.094 0.445 0.346 0.445 0.629v5.179h0.746c0.369 0 0.667 0.298 0.667 0.667s-0.298 0.667-0.667 0.667h-0.746v1.355c0 0.369-0.298 0.667-0.667 0.667zM18.41 17.901h2.655v-3.291l-2.655 3.291z"></path>
</svg>
