<!-- Generated by IcoMoon.io -->
<svg version="1.1" xmlns="http://www.w3.org/2000/svg" width="32" height="32" viewBox="0 0 32 32">
<title>chip_cpu_processor</title>
<path d="M22 8h-12c-1.1 0-2 0.9-2 2v12c0 1.1 0.9 2 2 2h12c1.1 0 2-0.9 2-2v-12c0-1.1-0.9-2-2-2zM10 10v0c0 0 0 0 0 0zM22 22h-12v-12h12v12z"></path>
<path d="M29 17c0.6 0 1-0.4 1-1s-0.4-1-1-1h-1v-3h1c0.6 0 1-0.4 1-1s-0.4-1-1-1h-1v-2c0-2.2-1.8-4-4-4h-2v-1c0-0.6-0.4-1-1-1s-1 0.4-1 1v1h-3v-1c0-0.6-0.4-1-1-1s-1 0.4-1 1v1h-3v-1c0-0.6-0.4-1-1-1s-1 0.4-1 1v1h-2c-2.2 0-4 1.8-4 4v2h-1c-0.6 0-1 0.4-1 1s0.4 1 1 1h1v3h-1c-0.6 0-1 0.4-1 1s0.4 1 1 1h1v3h-1c-0.6 0-1 0.4-1 1s0.4 1 1 1h1v2c0 2.2 1.8 4 4 4h2v1c0 0.6 0.4 1 1 1s1-0.4 1-1v-1h3v1c0 0.6 0.4 1 1 1s1-0.4 1-1v-1h3v1c0 0.6 0.4 1 1 1s1-0.4 1-1v-1h2c2.2 0 4-1.8 4-4v-2h1c0.6 0 1-0.4 1-1s-0.4-1-1-1h-1v-3h1zM26 24c0 1.1-0.9 2-2 2h-16c-1.1 0-2-0.9-2-2v-16c0-1.1 0.9-2 2-2h16c1.1 0 2 0.9 2 2v16z"></path>
</svg>
