<!-- Generated by IcoMoon.io -->
<svg version="1.1" xmlns="http://www.w3.org/2000/svg" width="32" height="32" viewBox="0 0 32 32">
<title>chip_cpu_processor</title>
<path fill="none" stroke-linejoin="round" stroke-linecap="butt" stroke-miterlimit="4" stroke-width="2" stroke="#000" d="M8 5h16c1.657 0 3 1.343 3 3v16c0 1.657-1.343 3-3 3h-16c-1.657 0-3-1.343-3-3v-16c0-1.657 1.343-3 3-3z"></path>
<path fill="none" stroke-linejoin="round" stroke-linecap="butt" stroke-miterlimit="4" stroke-width="2" stroke="#000" d="M10 9h12c0.552 0 1 0.448 1 1v12c0 0.552-0.448 1-1 1h-12c-0.552 0-1-0.448-1-1v-12c0-0.552 0.448-1 1-1z"></path>
<path fill="none" stroke-linejoin="round" stroke-linecap="round" stroke-miterlimit="4" stroke-width="2" stroke="#000" d="M16 5v-2M21 5v-2M11 5v-2M16 29v-2M21 29v-2M11 29v-2M27 16h2M27 21h2M27 11h2M3 16h2M3 21h2M3 11h2"></path>
</svg>
