<!-- Generated by IcoMoon.io -->
<svg version="1.1" xmlns="http://www.w3.org/2000/svg" width="32" height="32" viewBox="0 0 32 32">
<title>circleworldmap</title>
<path d="M12.215 4.726c-0.697-0.695-1.045-1.564-1.045-1.564s-0.172-1.045-0.695-1.393c-0.343-0.23-0.913-1.14-1.261-1.733h-6.59c-0.179 0.201-0.32 0.341-0.32 0.341s-1.041 0.173-1.564 1.043c-0.167 0.276-0.403 0.5-0.637 0.704v5.499c0.117 0.075 0.268 0.154 0.464 0.233 0.869 0.345 2.783-1.046 2.783-1.046s1.043-2.779 1.217-3.302c0.174-0.519 0.174-0.871 0.695-1.045s1.217-0.175 1.217-0.175 0.695 0 0.695 0.524c0 0.521-0.524 1.565-0.524 1.565l-0.691 0.869 0.174 1.044-0.174 0.866-0.524 1.741-0.348 1.043c0 0 1.39-0.175 1.912-0.175s2.259-0.344 2.259-0.344l1.393-0.349c0 0 0.519-0.347 1.041-0.695 0.524-0.348 1.045-2.087 1.045-2.087s0.172-0.867-0.521-1.563zM23.195 32c-0.188-0.283-0.361-0.542-0.467-0.702-0.35-0.52-0.695-1.736-0.695-1.736l-0.697-0.175c0 0-5.39 0.52-5.912 0.52-0.524 0-3.476 0.695-3.476 0.695s-1.082 0.885-2.061 1.398h13.309zM5.675 32.137c-0.6-0.183-1.203-0.183-1.203-0.183s-0.031 0.067-0.089 0.183h1.292zM31.192 2.399c-0.7-0.694-1.397-0.519-1.397-0.519s-1.386 1.219-2.433 1.564c-1.041 0.349-1.912-0.175-1.912-0.175s-1.74-0.696-2.083-1.913c-0.121-0.42-0.179-0.903-0.211-1.384h-3.536l0.44 1.211 0.178 1.040-0.35 0.701c0 0-0.697 0.691-1.219 0.691-0.519 0-2.259 0.352-2.259 0.352l-0.521 2.082-1.395 1.392-1.56 0.871c0 0-0.521 0.52-0.869 1.044-0.348 0.519-0.174 1.214-1.045 1.56-0.869 0.349-2.086 0-2.086 0l-1.041 0.698-2.259 1.218c0 0 0.869 1.738 1.388 2.087 0.521 0.345 0.521 0.173 1.217 0.694 0.695 0.523 0.867 0.87 1.043 1.916 0.176 1.040 0.35 2.78-0.519 3.128-0.869 0.346-2.781 0.346-2.781 0.346s-3.131-0.521-3.828-0.173c-0.697 0.344-1.214 1.214-1.214 1.214s0.517 1.565 0.517 2.086c0 0.526 0.35 1.044-0.167 1.913-0.528 0.87-0.874 3.131-0.874 3.131s1.912 0.696 2.781 0.696c0.871 0 0.871 0.693 0.871 0.693l1.043 0.872 0.871-0.696c0 0 1.912-0.348 2.257-0.348 0.35 0 2.262-2.085 2.262-2.085l0.346-1.567c0 0 1.916-2.26 2.611-2.782 0.691-0.519 1.388-1.561 1.388-1.561l0.348-2.087 1.738 1.219 2.783-1.219 1.562-0.177c0 0 2.26 2.611 3.305 3.478 1.045 0.869 2.086 1.22 2.086 1.22s1.39 0.344 1.568 1.735c0.174 1.391-1.397 2.087-1.397 2.087l-2.079 0.175 1.040 1.391 1.562 0.344 0.521-1.563 1.395-1.215c0 0 0.348-0.87 0.348-1.392s0.867-0.172 0.867-0.172h0.7v-1.046l-1.567-0.868c0 0-1.391-1.043-1.912-1.392-0.521-0.348-0.521-0.519-1.221-1.387-0.693-0.87-1.733-1.219-1.733-1.219v-0.87l0.867-0.522c0 0 2.257 2.257 2.953 2.61 0.7 0.346 2.090 0.868 2.090 0.868l0.869 0.172 0.462 1.625v-21.435c-0.211 0.025-0.491-0.039-0.808-0.358zM22.329 17.645c-3.495 0-6.329-2.834-6.329-6.329s2.834-6.329 6.329-6.329 6.329 2.834 6.329 6.329c0 3.495-2.834 6.329-6.329 6.329z"></path>
</svg>
