<!-- Generated by IcoMoon.io -->
<svg version="1.1" xmlns="http://www.w3.org/2000/svg" width="32" height="32" viewBox="0 0 32 32">
<title>clear_brush</title>
<path d="M26.267 3.2c-0.4 0-0.8 0.267-1.067 0.533s-0.4 0.667-0.4 1.2c0 0.4 0.267 0.8 0.533 1.067s0.667 0.4 1.067 0.4c0.4 0 0.933-0.133 1.2-0.533 0.533-0.667 0.533-1.6-0.133-2.267-0.267-0.4-0.8-0.533-1.2-0.4zM26.667 4.933c-0.133 0.133-0.4 0.133-0.533 0-0.133 0-0.133-0.133-0.133-0.267s0-0.133 0.133-0.267c0 0 0 0 0 0 0-0.133 0.133-0.133 0.267-0.133 0 0 0 0 0 0 0.133 0 0.133 0 0.267 0.133s0.133 0.4 0 0.533z"></path>
<path d="M29.467 1.333c-1.067-0.933-2.4-1.333-3.733-1.067s-2.533 1.067-3.2 2.4l-1.2 2.267c-0.133 0.4-0.4 0.667-0.533 1.067-0.533 0.933-0.933 1.867-1.6 2.667-0.667 0.933-1.467 1.733-2.267 2.533l-0.267 0.267c-0.4 0.4-0.667 0.8-1.2 1.2 0 0-0.133 0.133-0.133 0.133-0.933-0.8-2.8-2.4-4.4-0.8 0 0 0 0 0 0-9.733 8.133-9.867 8.267-9.867 8.533-0.133 0.4 0 0.933 0.4 1.2l1.2 1.067c0.267 0.267 0.8 0.4 1.2 0.267 0 0.4 0.133 0.8 0.4 1.067l0.933 0.933c0.4 0.267 0.933 0.4 1.333 0.133-0.133 0.4 0 0.933 0.4 1.333l0.533 0.4c0.4 0.267 0.8 0.4 1.2 0.267-0.133 0.4 0 0.933 0.4 1.2l0.533 0.4c0.533 0.4 1.2 0.4 1.6 0v0l-0.133 0.267c-0.133 0.533 0 1.067 0.267 1.333l1.333 1.067c0.267 0.133 0.533 0.267 0.8 0.267 0.133 0 0.267 0 0.4-0.133 0.267-0.133 0.4-0.133 7.2-10.933 0 0 0 0 0 0 1.2-1.733-0.4-3.2-1.333-4 0-0.133 0.133-0.133 0.133-0.267 0 0 0.133-0.133 0.133-0.133 0.4-0.533 0.8-1.067 1.2-1.467l0.4-0.533c0.4-0.533 0.933-1.067 1.333-1.6 0.533-0.533 1.067-0.933 1.733-1.467l4.267-3.067c1.2-0.8 1.867-2.133 2-3.467 0.133-1.2-0.533-2.4-1.467-3.333zM18 23.467l-9.2-8.133c0.667-0.533 1.2-1.067 1.867-1.6l8.667 7.6c-0.4 0.667-0.933 1.333-1.333 2.133zM13.333 30.533l-1.2-1.067 1.2-2.8c0.133-0.267 0-0.533-0.267-0.667s-0.533-0.133-0.8 0l-2 1.867-0.533-0.4 0.933-1.867c0.133-0.267 0-0.533-0.133-0.667-0.267-0.133-0.533-0.133-0.8 0l-1.6 1.333-0.533-0.533 0.667-1.733c0.133-0.267 0-0.533-0.133-0.667s-0.533-0.133-0.667-0.133l-1.467 0.8-0.933-0.933 1.067-1.6c0.133-0.267 0.133-0.533 0-0.8s-0.533 0-0.8 0.133l-1.867 1.067-1.2-1.067c0.667-0.667 3.067-2.667 5.6-4.8l9.467 8.267c-1.733 2.933-3.467 5.6-4 6.267zM28.267 7.333l-4.267 3.067c-0.667 0.533-1.333 0.933-1.867 1.6-0.533 0.533-0.933 1.067-1.467 1.733l-0.4 0.533c-0.4 0.533-0.8 1.067-1.333 1.733-0.267 0.267-0.533 0.8-0.4 1.333 0 0.133 0.133 0.267 0.133 0.267l0.267 0.267c1.2 1.067 1.733 1.733 1.2 2.4 0 0 0 0 0 0s0 0 0 0-0.133 0.133-0.133 0.133l-8.4-7.467c0 0 0.133-0.133 0.133-0.133s0 0 0 0 0 0 0 0c0.667-0.667 1.333-0.267 2.667 0.8l0.267 0.267c0.133 0.133 0.133 0.133 0.267 0.133 0.533 0.133 0.933-0.267 1.2-0.533 0.4-0.4 0.8-0.8 1.2-1.2l0.267-0.267c0.8-0.8 1.733-1.733 2.4-2.667s1.2-1.867 1.733-2.933c0.133-0.4 0.4-0.667 0.533-1.067l1.2-2.267c0.533-0.933 1.333-1.6 2.4-1.733 0.933-0.133 2 0.133 2.667 0.8 0.8 0.667 1.2 1.6 1.067 2.533 0.133 1.2-0.4 2-1.333 2.667z"></path>
</svg>
