<!-- Generated by IcoMoon.io -->
<svg version="1.1" xmlns="http://www.w3.org/2000/svg" width="32" height="32" viewBox="0 0 32 32">
<title>clipboard_box_archive_documents</title>
<path fill="none" stroke-linejoin="round" stroke-linecap="butt" stroke-miterlimit="4" stroke-width="2" stroke="#000" d="M3 21v6c0.005 1.655 1.345 2.995 3 3h20c1.655-0.005 2.995-1.345 3-3v-6"></path>
<path fill="none" stroke-linejoin="round" stroke-linecap="round" stroke-miterlimit="4" stroke-width="2" stroke="#000" d="M3 21h9M20 21h9M12 21c0 2.209 1.791 4 4 4s4-1.791 4-4v0"></path>
<path fill="none" stroke-linejoin="round" stroke-linecap="butt" stroke-miterlimit="4" stroke-width="2" stroke="#000" d="M24 2h-16c-1.625 0-2.688 0.875-3 2.5l-2 7.5v6c0.005 1.655 1.345 2.995 3 3h20c1.655-0.005 2.995-1.345 3-3v-6l-2-7.5c-0.313-1.688-1.438-2.5-3-2.5z"></path>
<path fill="none" stroke-linejoin="round" stroke-linecap="round" stroke-miterlimit="4" stroke-width="2" stroke="#000" d="M3 12h9M20 12h9M12 12c0 2.209 1.791 4 4 4s4-1.791 4-4v0"></path>
</svg>
