<svg version="1.0" xmlns="http://www.w3.org/2000/svg" width="32" height="32" viewBox="0 0 32 32">
    <title>clipboard_box_archive_documents_filled</title>
    <path d="M29,22h-9c-.6,0-1,.4-1,1,0,1.7-1.3,3-3,3s-3-1.3-3-3-.4-1-1-1H3c-.6,0-1,.4-1,1v4c0,2.2,1.8,4,4,4h20c2.2,0,4-1.8,4-4v-4c0-.6-.4-1-1-1ZM30,11.7l-2-7.5c-.4-2.1-1.9-3.3-4-3.3H8c-1.1,0-1.9.3-2.6.9s-1.1,1.4-1.3,2.4l-2,7.5c0,0,0,.2,0,.3v3c0,2.2,1.8,5,4,5h20c2.2,0,4-2.8,4-5v-3c0,0,0-.2,0-.3ZM27.5,11h-7.5c-.5,0-1,.4-1,1,0,1.7-1.3,3-3,3s-3-1.3-3-3c0-.6-.4-1-1-1h-7.5c0,0-.1,0-.1-.1s0,0,0,0l1.6-6.2c.2-1.2.9-1.7,2-1.7h16c1.2,0,1.8.5,2,1.7l1.6,6.2c0,0,0,.1,0,.2,0,0,0,0,0,0h0Z"/>
</svg>