<svg version="1.1" xmlns="http://www.w3.org/2000/svg" width="32" height="32" viewBox="0 0 32 32">
<title>clock_interval_ext_b</title>
<path d="M31.703 13.966c-0.269-0.269-0.703-0.269-0.972 0l-2.297 2.297c-0.003 0.009-0.006 0.016-0.012 0.025-0.094 0.094-0.188 0.188-0.313 0.25-0.122 0.066-0.266 0.091-0.403 0.103-0.141 0.012-0.284 0.009-0.428 0-0.050-0.003-0.1-0.006-0.147-0.012-0.031-0.003-0.059 0-0.091-0.003-0.034-0.003-0.059-0.022-0.081-0.047-0.016-0.019-0.034-0.034-0.050-0.053-0.041-0.041-0.078-0.081-0.119-0.119-0.053-0.053-0.103-0.106-0.156-0.159-0.063-0.063-0.125-0.128-0.188-0.191-0.072-0.072-0.141-0.144-0.212-0.216-0.075-0.078-0.153-0.156-0.228-0.234-0.078-0.081-0.159-0.162-0.238-0.244-0.081-0.081-0.159-0.162-0.241-0.247-0.078-0.081-0.156-0.159-0.234-0.241-0.075-0.075-0.147-0.15-0.222-0.228-0.066-0.069-0.134-0.137-0.2-0.206-0.059-0.059-0.116-0.119-0.175-0.178-0.047-0.047-0.094-0.094-0.137-0.141-0.031-0.034-0.066-0.066-0.097-0.1-0.016-0.016-0.031-0.031-0.047-0.047 0 0-0.003-0.003-0.003-0.003-0.266-0.272-0.7-0.275-0.972-0.012-0.272 0.266-0.278 0.703-0.012 0.975l3.603 3.691c0.128 0.131 0.306 0.206 0.491 0.206h0.003c0.181 0 0.356-0.072 0.488-0.2l3.691-3.694c0.269-0.269 0.269-0.703 0-0.972z"></path>
</svg>
