<!-- Generated by IcoMoon.io -->
<svg version="1.1" xmlns="http://www.w3.org/2000/svg" width="32" height="32" viewBox="0 0 32 32">
<title>clock_interval</title>
<path d="M17.148 5.265c-0.38 0-0.688 0.308-0.688 0.688v10.633c0 0.38 0.308 0.689 0.688 0.689h7.055c0.38 0 0.688-0.309 0.688-0.689s-0.308-0.688-0.688-0.688h-6.367v-9.944c0.001-0.381-0.307-0.689-0.688-0.689z"></path>
<path d="M17.736 1.941c-7.752 0-14.057 6.308-14.057 14.059 0 0.159 0.028 0.317 0.033 0.477l-2.332-2.331c-0.269-0.269-0.704-0.269-0.973 0s-0.269 0.704 0 0.973l3.692 3.691c0.129 0.129 0.304 0.201 0.487 0.201 0.001 0 0.003 0 0.004 0 0.184-0.001 0.36-0.075 0.489-0.207l3.605-3.691c0.265-0.272 0.26-0.708-0.012-0.975-0.273-0.264-0.708-0.26-0.973 0.012l-2.587 2.648c-0.016-0.267-0.056-0.533-0.056-0.8 0-6.992 5.688-12.681 12.681-12.681s12.683 5.689 12.683 12.681c0 6.992-5.689 12.681-12.683 12.681-2.629 0-5.152-0.797-7.293-2.305-0.312-0.219-0.741-0.143-0.96 0.167s-0.144 0.741 0.167 0.96c2.375 1.673 5.171 2.556 8.087 2.556 7.752 0 14.059-6.307 14.059-14.057s-6.308-14.060-14.060-14.060z"></path>
</svg>
