<!-- Generated by IcoMoon.io -->
<svg version="1.1" xmlns="http://www.w3.org/2000/svg" width="32" height="32" viewBox="0 0 32 32">
<title>clock_interval_ext_a</title>
<path d="M29.734 16.719c0.125-0.063 0.209-0.159 0.303-0.253 0.006-0.006 0.019-0.012 0.022-0.022 0 0 0-0.284 0-0.444-0.003-7.747-6.309-14.056-14.059-14.056-7.753 0-14.063 6.309-14.063 14.056s6.306 14.056 14.059 14.056c2.916 0 5.712-0.881 8.087-2.556 0.309-0.219 0.384-0.65 0.166-0.959s-0.647-0.384-0.959-0.166c-2.141 1.509-4.663 2.306-7.294 2.306-6.994 0-12.681-5.691-12.681-12.681s5.691-12.681 12.681-12.681 12.684 5.694 12.684 12.681c0 0.253-0.038 0.509-0.053 0.763 0.231 0.331 0.778 0.097 1.106-0.044z"></path>
</svg>
