<svg version="1.1" xmlns="http://www.w3.org/2000/svg" width="32" height="32" viewBox="0 0 32 32">
<title>clock_interval_ext</title>
<path d="M14.266 1.941c-7.753 0-14.063 6.309-14.063 14.059s6.306 14.056 14.059 14.056c2.916 0 5.713-0.881 8.088-2.556 0.309-0.219 0.384-0.65 0.166-0.959s-0.647-0.384-0.959-0.166c-2.141 1.509-4.663 2.306-7.294 2.306-6.994 0-12.681-5.691-12.681-12.681s5.691-12.681 12.681-12.681 12.681 5.691 12.681 12.681c0 0.266-0.041 0.534-0.056 0.8l-2.587-2.647c-0.266-0.272-0.7-0.275-0.972-0.012-0.272 0.266-0.278 0.703-0.012 0.975l3.606 3.691c0.128 0.131 0.306 0.206 0.491 0.206 0 0 0.003 0 0.003 0 0.181 0 0.356-0.072 0.488-0.2l3.691-3.694c0.269-0.269 0.269-0.703 0-0.972s-0.703-0.269-0.972 0l-2.331 2.331c0.006-0.159 0.034-0.319 0.034-0.478-0.003-7.75-6.309-14.059-14.059-14.059v0z"></path>
</svg>
