<!-- Generated by IcoMoon.io -->
<svg version="1.1" xmlns="http://www.w3.org/2000/svg" width="32" height="32" viewBox="0 0 32 32">
<title>clock_interval</title>
<path d="M14.3 24.3c0 0.9 0.8 1.7 1.7 1.7s1.7-0.8 1.7-1.7c0-0.9-0.7-1.7-1.7-1.7-0.9 0.1-1.7 0.8-1.7 1.7zM14.3 1v6.7h3.3v-3.2c5.6 0.8 10 5.6 10 11.5 0 6.4-5.2 11.7-11.7 11.7s-11.6-5.3-11.6-11.7c0-2.8 1-5.4 2.6-7.4l9 9 2.4-2.4-11.3-11.2c-3.6 2.7-6 7.1-6 12 0 8.3 6.7 15 15 15s15-6.7 15-15-6.7-15-15-15h-1.7zM26 16c0-0.9-0.8-1.7-1.7-1.7s-1.7 0.8-1.7 1.7c0 0.9 0.8 1.7 1.7 1.7 1 0 1.7-0.8 1.7-1.7zM6 16c0 0.9 0.8 1.7 1.7 1.7s1.7-0.7 1.7-1.7c0-0.9-0.8-1.7-1.7-1.7s-1.7 0.8-1.7 1.7z"></path>
</svg>
