<!-- Generated by IcoMoon.io -->
<svg version="1.1" xmlns="http://www.w3.org/2000/svg" width="32" height="32" viewBox="0 0 32 32">
<title>cloud_sync</title>
<path d="M7.257 11.088c1.189-3.102 4.2-6.088 8.743-6.088 4.896 0 9.003 3.506 9.89 9.086 1.274 0.19 2.616 0.672 3.725 1.52 1.388 1.062 2.385 2.685 2.385 4.894 0 2.167-0.82 3.842-2.213 4.952-1.361 1.084-3.167 1.548-5.037 1.548h-16.25c-4.584 0-8.5-3.234-8.5-8 0-2.416 0.929-4.341 2.42-5.702 1.316-1.201 3.029-1.925 4.837-2.211zM16 7c-3.779 0-6.232 2.628-7.043 5.291-0.118 0.386-0.456 0.664-0.857 0.704-1.708 0.171-3.241 0.786-4.332 1.781-1.071 0.977-1.768 2.365-1.768 4.224 0 3.484 2.834 6 6.5 6h16.25c1.568 0 2.887-0.393 3.791-1.113 0.872-0.694 1.459-1.769 1.459-3.387 0-1.53-0.66-2.586-1.6-3.305-0.972-0.743-2.267-1.134-3.452-1.196-0.494-0.026-0.894-0.408-0.943-0.9-0.51-5.14-4.010-8.099-8.005-8.099z"></path>
<path d="M15.953 11c-0.912-0.001-1.813 0.204-2.635 0.598s-1.545 0.97-2.114 1.683c-0.253 0.317-0.201 0.778 0.116 1.031s0.778 0.201 1.031-0.116c0.431-0.54 0.979-0.976 1.602-1.276s1.306-0.454 1.998-0.454h0.001c2.388 0 4.35 1.813 4.581 4.13l-0.067-0.064c-0.293-0.28-0.757-0.27-1.037 0.023s-0.27 0.757 0.023 1.037l1.37 1.31c0.288 0.276 0.744 0.27 1.026-0.011l1.311-1.31c0.287-0.286 0.287-0.751 0-1.037s-0.751-0.286-1.038 0l-0.111 0.111c-0.207-3.158-2.842-5.654-6.058-5.655zM9.911 17.485l-0.096 0.096c-0.287 0.286-0.751 0.286-1.038 0s-0.287-0.751 0-1.037l1.311-1.31c0.282-0.282 0.738-0.287 1.026-0.011l1.37 1.31c0.293 0.28 0.303 0.744 0.023 1.037s-0.745 0.303-1.037 0.023l-0.084-0.081c0.224 2.327 2.188 4.146 4.582 4.146 0.69-0.001 1.372-0.156 1.994-0.454s1.172-0.73 1.606-1.267c0.255-0.315 0.717-0.363 1.032-0.109s0.364 0.717 0.109 1.031c-0.572 0.706-1.294 1.276-2.114 1.667s-1.717 0.596-2.626 0.597h-0.001c-3.212 0-5.843-2.486-6.058-5.64z"></path>
</svg>
