<svg version="1.1" xmlns="http://www.w3.org/2000/svg" width="32" height="32" viewBox="0 0 32 32">
<title>cloud_upload_backup_</title>
<path d="M15.378 24.010c-0.369 0-0.667-0.298-0.667-0.667v-9.318c0-0.369 0.298-0.667 0.667-0.667s0.666 0.298 0.666 0.667v9.318c0 0.369-0.297 0.667-0.666 0.667z"></path>
<path d="M19.731 19.044c-0.171 0-0.341-0.065-0.471-0.195l-3.881-3.881-3.881 3.881c-0.26 0.26-0.682 0.26-0.943 0s-0.26-0.682 0-0.943l4.352-4.352c0.26-0.26 0.682-0.26 0.943 0l4.352 4.352c0.26 0.26 0.26 0.682 0 0.943-0.13 0.13-0.301 0.195-0.471 0.195z"></path>
<path d="M24.789 27.997h-17.879c-2.769 0-5.159-1.879-6.090-4.786-0.985-3.078 0.037-6.288 2.605-8.257 0.806-4.861 4.38-8.359 8.588-8.359 1.947 0 3.793 0.752 5.357 2.178 3.35-0.338 6.122 1.611 7.21 4.848 3.736-0.13 6.962 3.228 6.962 7.186 0 3.899-3.092 7.191-6.754 7.191zM12.014 7.928c-3.618 0-6.692 3.151-7.311 7.493-0.026 0.181-0.124 0.343-0.273 0.449-2.737 1.951-3.003 4.862-2.34 6.935 0.751 2.345 2.643 3.859 4.82 3.859h17.879c2.939 0 5.421-2.682 5.421-5.858 0-3.38-2.799-6.187-6.040-5.822-0.329 0.034-0.634-0.172-0.719-0.492-0.569-2.139-2.266-4.426-5.318-4.426-0.29 0-0.589 0.021-0.896 0.066-0.214 0.027-0.413-0.038-0.56-0.182-1.359-1.323-2.972-2.022-4.663-2.022z"></path>
</svg>
