<svg version="1.1" xmlns="http://www.w3.org/2000/svg" width="32" height="32" viewBox="0 0 32 32">
<title>cloud_sync_error</title>
<path d="M24.796 27.997h-17.879c-2.769 0-5.16-1.879-6.090-4.786-0.985-3.079 0.037-6.288 2.605-8.257 0.807-4.861 4.381-8.36 8.588-8.36 1.948 0 3.794 0.752 5.358 2.178 3.352-0.338 6.124 1.611 7.21 4.848 3.742-0.111 6.961 3.228 6.961 7.186 0 3.899-3.092 7.191-6.753 7.191zM12.019 7.927c-3.617 0-6.691 3.152-7.311 7.494-0.026 0.18-0.124 0.342-0.273 0.449-2.736 1.951-3.003 4.861-2.339 6.935 0.75 2.344 2.643 3.859 4.82 3.859h17.879c2.937 0 5.419-2.682 5.419-5.858 0-3.379-2.805-6.183-6.039-5.822-0.327 0.034-0.634-0.172-0.719-0.492-0.569-2.139-2.266-4.426-5.318-4.426-0.29 0-0.589 0.021-0.896 0.066-0.212 0.027-0.413-0.038-0.56-0.182-1.359-1.323-2.972-2.023-4.664-2.023z"></path>
<path d="M19.361 23.733c-0.171 0-0.341-0.065-0.471-0.195l-7.884-7.884c-0.26-0.26-0.26-0.682 0-0.943s0.682-0.26 0.943 0l7.884 7.884c0.26 0.26 0.26 0.682 0 0.943-0.13 0.13-0.301 0.195-0.471 0.195z"></path>
<path d="M11.477 23.733c-0.171 0-0.341-0.065-0.471-0.195-0.26-0.26-0.26-0.682 0-0.943l7.884-7.884c0.26-0.26 0.682-0.26 0.943 0s0.26 0.682 0 0.943l-7.884 7.884c-0.13 0.13-0.301 0.195-0.471 0.195z"></path>
</svg>
