<svg version="1.1" xmlns="http://www.w3.org/2000/svg" width="32" height="32" viewBox="0 0 32 32">
<title>cloud_sync</title>
<path d="M24.783 27.997h-17.878c-2.769 0-5.161-1.879-6.091-4.788-0.985-3.078 0.038-6.286 2.605-8.256 0.806-4.861 4.38-8.36 8.588-8.36 1.947 0 3.793 0.752 5.357 2.178 3.348-0.338 6.122 1.611 7.21 4.848 3.742-0.13 6.962 3.228 6.962 7.186 0 3.899-3.092 7.191-6.754 7.191zM12.007 7.927c-3.618 0-6.692 3.152-7.311 7.493-0.026 0.181-0.124 0.343-0.273 0.449-2.736 1.951-3.003 4.861-2.34 6.934 0.75 2.345 2.643 3.861 4.821 3.861h17.878c2.939 0 5.421-2.682 5.421-5.858 0-3.38-2.803-6.187-6.040-5.822-0.323 0.034-0.634-0.172-0.719-0.492-0.569-2.139-2.266-4.426-5.318-4.426-0.29 0-0.589 0.021-0.896 0.066-0.212 0.027-0.413-0.038-0.56-0.182-1.359-1.323-2.972-2.023-4.663-2.023z"></path>
<path d="M19.747 18.043c-0.289 0-0.555-0.189-0.641-0.481-0.486-1.667-2.038-2.831-3.775-2.831s-3.289 1.165-3.775 2.831c-0.103 0.354-0.473 0.551-0.827 0.454-0.353-0.104-0.556-0.474-0.453-0.827 0.651-2.233 2.73-3.792 5.055-3.792s4.405 1.559 5.056 3.792c0.103 0.353-0.1 0.723-0.454 0.827-0.063 0.017-0.125 0.026-0.186 0.026z"></path>
<path d="M19.769 18.043c-0.081 0-0.161-0.014-0.241-0.046l-2.257-0.876c-0.344-0.133-0.514-0.519-0.38-0.862 0.131-0.345 0.521-0.512 0.862-0.381l1.635 0.635 0.635-1.635c0.131-0.344 0.519-0.514 0.862-0.38 0.344 0.133 0.514 0.52 0.38 0.863l-0.876 2.256c-0.102 0.264-0.354 0.426-0.621 0.426z"></path>
<path d="M15.368 23.935c-2.325 0-4.404-1.56-5.055-3.793-0.103-0.353 0.1-0.723 0.453-0.827 0.356-0.096 0.725 0.1 0.827 0.454 0.486 1.667 2.038 2.832 3.775 2.832s3.29-1.165 3.777-2.832c0.103-0.354 0.473-0.551 0.825-0.454 0.354 0.104 0.557 0.474 0.453 0.827-0.651 2.233-2.73 3.793-5.055 3.793z"></path>
<path d="M10.054 22.879c-0.081 0-0.162-0.014-0.242-0.046-0.343-0.133-0.513-0.519-0.38-0.862l0.876-2.257c0.134-0.344 0.521-0.517 0.863-0.38l2.257 0.876c0.343 0.133 0.513 0.519 0.38 0.862-0.134 0.344-0.52 0.516-0.863 0.38l-1.635-0.634-0.635 1.634c-0.103 0.264-0.355 0.426-0.622 0.426z"></path>
</svg>
