<!-- Generated by IcoMoon.io -->
<svg version="1.1" xmlns="http://www.w3.org/2000/svg" width="32" height="32" viewBox="0 0 32 32">
<title>cloud_sync_error</title>
<path d="M7.257 11.088c1.189-3.102 4.2-6.088 8.743-6.088 4.896 0 9.003 3.506 9.89 9.086 1.274 0.19 2.616 0.672 3.725 1.52 1.388 1.062 2.385 2.685 2.385 4.894 0 2.167-0.82 3.842-2.213 4.952-1.361 1.084-3.167 1.548-5.037 1.548h-16.25c-4.584 0-8.5-3.234-8.5-8 0-2.416 0.929-4.341 2.42-5.702 1.316-1.201 3.029-1.925 4.837-2.211zM16 7c-3.779 0-6.232 2.628-7.043 5.291-0.118 0.386-0.456 0.664-0.857 0.704-1.708 0.171-3.241 0.786-4.332 1.781-1.071 0.977-1.768 2.365-1.768 4.224 0 3.484 2.834 6 6.5 6h16.25c1.568 0 2.887-0.393 3.791-1.113 0.872-0.694 1.459-1.769 1.459-3.387 0-1.53-0.66-2.586-1.6-3.305-0.972-0.743-2.267-1.134-3.452-1.196-0.494-0.026-0.894-0.408-0.943-0.9-0.51-5.14-4.010-8.099-8.005-8.099z"></path>
<path d="M11.999 13.936c0.332-0.332 0.87-0.332 1.202 0l2.799 2.799 2.799-2.799c0.332-0.332 0.87-0.332 1.202 0s0.332 0.87 0 1.202l-2.799 2.799 2.799 2.799c0.332 0.332 0.332 0.87 0 1.202s-0.87 0.332-1.202 0l-2.799-2.799-2.799 2.799c-0.332 0.332-0.87 0.332-1.202 0s-0.332-0.87 0-1.202l2.799-2.799-2.799-2.799c-0.332-0.332-0.332-0.87 0-1.202z"></path>
</svg>
