<svg version="1.1" xmlns="http://www.w3.org/2000/svg" width="32" height="32" viewBox="0 0 32 32">
<title>cloud_download_2</title>
<path d="M6.253 22.203c-3.063 0-5.556-2.491-5.556-5.553s2.491-5.553 5.553-5.553c0.216 0 0.506 0.031 0.841 0.094l0.356 0.066 0.1-0.347c0.534-1.831 1.622-3.403 3.141-4.547 1.531-1.153 3.369-1.763 5.306-1.763s3.772 0.609 5.306 1.763c1.522 1.144 2.606 2.716 3.141 4.547l0.1 0.347 0.356-0.066c0.341-0.063 0.622-0.094 0.844-0.094 3.063 0 5.553 2.491 5.553 5.553s-2.491 5.553-5.553 5.553h-1.084c-0.181 0-0.353-0.072-0.481-0.2s-0.2-0.3-0.2-0.481c0-0.375 0.306-0.681 0.681-0.681h1.084c2.313 0 4.191-1.881 4.191-4.191 0-2.313-1.881-4.191-4.191-4.191-0.166 0-0.409 0.031-0.725 0.097l-0.322 0.066v1.325c0 0.375-0.306 0.681-0.681 0.681s-0.681-0.306-0.681-0.681v-1.775l-0.006-0.034c-0.297-1.731-1.194-3.306-2.528-4.431s-3.041-1.744-4.803-1.744c-1.762 0-3.466 0.619-4.8 1.744-1.334 1.122-2.231 2.694-2.528 4.425l-0.006 0.034v1.781c0 0.375-0.306 0.681-0.681 0.681s-0.681-0.306-0.681-0.681v-1.325l-0.322-0.066c-0.316-0.063-0.559-0.097-0.725-0.097-2.313 0-4.191 1.881-4.191 4.191 0 2.313 1.881 4.191 4.191 4.191h1.081c0.375 0 0.681 0.306 0.681 0.681s-0.306 0.681-0.681 0.681h-1.078z"></path>
<path d="M16 27.403c-0.037 0-0.078-0.003-0.122-0.012l-0.012-0.003c-0.019-0.006-0.034-0.012-0.053-0.016-0.009-0.003-0.022-0.006-0.034-0.009h-0.003c-0.009-0.003-0.019-0.006-0.025-0.006-0.009-0.003-0.019-0.009-0.028-0.016 0 0-0.028-0.016-0.037-0.022-0.016-0.009-0.031-0.016-0.047-0.025 0 0-0.006-0.003-0.009-0.006-0.034-0.022-0.066-0.050-0.094-0.078l-5.219-5.216c-0.259-0.259-0.259-0.678 0-0.938 0.125-0.125 0.291-0.194 0.469-0.194s0.344 0.069 0.469 0.194l4.084 4.084v-8.831c0-0.366 0.297-0.662 0.662-0.662s0.663 0.297 0.663 0.662v8.834l4.084-4.084c0.125-0.125 0.291-0.194 0.469-0.194s0.344 0.069 0.469 0.194c0.125 0.125 0.194 0.291 0.194 0.469s-0.069 0.344-0.194 0.469l-5.216 5.209c-0.028 0.028-0.059 0.053-0.094 0.078l-0.012 0.006c-0.016 0.006-0.028 0.016-0.041 0.022l-0.006 0.003-0.028 0.016c-0.009 0.006-0.025 0.012-0.031 0.019-0.003 0-0.022 0.006-0.022 0.006-0.016 0.003-0.031 0.009-0.044 0.012-0.016 0.003-0.031 0.009-0.050 0.016 0 0-0.012 0.003-0.016 0.006-0.047 0.009-0.087 0.012-0.125 0.012z"></path>
</svg>
