<!-- Generated by IcoMoon.io -->
<svg version="1.1" xmlns="http://www.w3.org/2000/svg" width="32" height="32" viewBox="0 0 32 32">
<title>clustered</title>
<path d="M23.416 4.953c0.368 0 0.667-0.299 0.667-0.667v-2c0-0.368-0.299-0.667-0.667-0.667s-0.667 0.299-0.667 0.667v2c0 0.369 0.299 0.667 0.667 0.667z"></path>
<path d="M23.417 20.251c-0.368 0-0.667 0.299-0.667 0.667v2.603c0 0.368 0.299 0.667 0.667 0.667s0.667-0.299 0.667-0.667v-2.603c0-0.369-0.297-0.667-0.667-0.667z"></path>
<path d="M23.417 27.192c-0.368 0-0.667 0.299-0.667 0.667v2c0 0.368 0.299 0.667 0.667 0.667s0.667-0.299 0.667-0.667v-2c0-0.368-0.297-0.667-0.667-0.667z"></path>
<path d="M4.615 3.749c-0.46 0-0.833 0.299-0.833 0.667v14.611c0 0.368 0.373 0.667 0.833 0.667s0.833-0.299 0.833-0.667v-14.611c0-0.368-0.373-0.667-0.833-0.667z"></path>
<path d="M31.851 14.507l-4.024-6.015c-0.123-0.183-0.328-0.293-0.548-0.296-0.001 0-0.004 0-0.007 0-0.217 0-0.421 0.107-0.547 0.284l-1.688 2.413c-0.273-0.237-0.596-0.413-0.953-0.513v-1.436c0-0.368-0.299-0.667-0.667-0.667s-0.667 0.299-0.667 0.667v1.436c-0.759 0.213-1.369 0.772-1.648 1.503l-1.521-0.899c-0.177-0.103-0.391-0.121-0.579-0.048-0.191 0.073-0.337 0.229-0.397 0.424l-1.977 6.377-3.367-1.572c-0.316-0.149-0.695-0.025-0.865 0.281l-3.875 6.989-1.392-1.316c0.1-0.269 0.163-0.556 0.163-0.86 0-1.369-1.115-2.484-2.484-2.484s-2.484 1.115-2.484 2.484c0 0.481 0.144 0.928 0.381 1.309l-2.455 3.571c-0.208 0.303-0.132 0.719 0.172 0.927 0.115 0.080 0.247 0.117 0.377 0.117 0.212 0 0.42-0.101 0.551-0.289l2.352-3.423c0.148 0.075 0.303 0.133 0.465 0.177 0.205 0.055 0.417 0.095 0.64 0.095s0.435-0.039 0.64-0.095c0.328-0.088 0.628-0.241 0.888-0.445l1.893 1.792c0.151 0.143 0.355 0.207 0.56 0.175 0.203-0.031 0.381-0.155 0.481-0.336l3.989-7.197 3.496 1.632c0.177 0.083 0.376 0.083 0.552 0.005 0.176-0.079 0.309-0.228 0.367-0.412l1.955-6.303 1.393 0.823c0.223 0.852 0.883 1.521 1.729 1.759v1.436c0 0.368 0.299 0.667 0.667 0.667s0.667-0.299 0.667-0.667v-1.436c1.045-0.293 1.817-1.244 1.817-2.381 0-0.224-0.039-0.436-0.095-0.643l1.452-2.076 3.481 5.205c0.129 0.193 0.34 0.296 0.555 0.296 0.128 0 0.256-0.036 0.371-0.112 0.307-0.204 0.388-0.617 0.184-0.924zM4.807 22.412c-0.117 0-0.224-0.035-0.329-0.067-0.124-0.039-0.235-0.096-0.337-0.172-0.285-0.209-0.484-0.531-0.484-0.912 0-0.037 0.019-0.069 0.021-0.107 0.048-0.487 0.391-0.871 0.853-0.988 0.067-0.017 0.132-0.036 0.203-0.041 0.025-0.001 0.048-0.015 0.073-0.015 0.525 0 0.952 0.361 1.089 0.844 0.028 0.1 0.063 0.199 0.063 0.307 0 0.38-0.199 0.703-0.484 0.912-0.044 0.032-0.087 0.065-0.133 0.091-0.163 0.085-0.339 0.148-0.535 0.148zM23.417 13.912c-0.635 0-1.151-0.516-1.151-1.151s0.517-1.151 1.151-1.151c0.635 0 1.151 0.516 1.151 1.151 0.001 0.633-0.516 1.151-1.151 1.151z"></path>
<path d="M10.004 3.047h-5.855c-0.149 0-0.312-0.024-0.413 0.008l0.044 3.843c0.103 0.032 0.22 0.053 0.369 0.053h5.855c1.079 0 1.952-0.873 1.952-1.952s-0.872-1.952-1.952-1.952z"></path>
</svg>
