<!-- Generated by IcoMoon.io -->
<svg version="1.1" xmlns="http://www.w3.org/2000/svg" width="32" height="32" viewBox="0 0 32 32">
<title>code_html21</title>
<path d="M10.8 8.3c-0.4-0.4-1-0.5-1.4-0.1l-8 7c-0.3 0.2-0.4 0.5-0.4 0.8s0.1 0.6 0.3 0.8l8 7c0.2 0.1 0.5 0.2 0.7 0.2 0.3 0 0.6-0.1 0.8-0.3 0.4-0.4 0.3-1-0.1-1.4l-7.2-6.3 7.1-6.2c0.5-0.4 0.5-1 0.2-1.5z"></path>
<path d="M19.3 5c-0.5-0.2-1.1 0.1-1.2 0.7l-6 20c-0.2 0.5 0.1 1.1 0.7 1.2 0.1 0 0.2 0 0.3 0 0.4 0 0.8-0.3 1-0.7l6-20c0-0.4-0.3-1-0.8-1.2z"></path>
<path d="M30.7 15.2l-8-7c-0.4-0.4-1-0.3-1.4 0.1s-0.3 1 0.1 1.4l7.1 6.2-7.1 6.2c-0.4 0.4-0.5 1-0.1 1.4 0.2 0.2 0.5 0.3 0.8 0.3 0.2 0 0.5-0.1 0.7-0.2l8-7c0.2-0.2 0.3-0.5 0.3-0.8s-0.2-0.4-0.4-0.6z"></path>
</svg>
