<svg version="1.1" xmlns="http://www.w3.org/2000/svg" width="32" height="32" viewBox="0 0 32 32">
<title>code_html2</title>
<path d="M22.469 23.639c-0.155 0-0.311-0.053-0.437-0.164-0.277-0.241-0.307-0.663-0.065-0.94l5.682-6.534-5.682-6.534c-0.242-0.278-0.212-0.699 0.065-0.941 0.279-0.241 0.699-0.212 0.94 0.066l6.064 6.971c0.219 0.251 0.219 0.624 0 0.875l-6.064 6.971c-0.132 0.151-0.317 0.229-0.503 0.229z"></path>
<path d="M9.551 23.639c-0.186 0-0.371-0.078-0.503-0.229l-6.064-6.971c-0.218-0.251-0.218-0.624 0-0.875l6.064-6.971c0.243-0.279 0.663-0.307 0.941-0.066 0.278 0.242 0.307 0.663 0.066 0.941l-5.684 6.534 5.684 6.534c0.242 0.277 0.212 0.699-0.066 0.94-0.126 0.111-0.282 0.164-0.437 0.164z"></path>
<path d="M11.37 29.421c-0.076 0-0.154-0.013-0.229-0.040-0.346-0.126-0.523-0.509-0.397-0.855l9.262-25.325c0.126-0.345 0.508-0.521 0.855-0.397 0.345 0.127 0.523 0.51 0.397 0.855l-9.262 25.325c-0.099 0.27-0.354 0.437-0.626 0.437z"></path>
</svg>
