<!-- Generated by IcoMoon.io -->
<svg version="1.1" xmlns="http://www.w3.org/2000/svg" width="32" height="32" viewBox="0 0 32 32">
<title>code_editor_dropdown</title>
<path d="M6 16c-0.294 0-0.584-0.128-0.781-0.375-0.344-0.431-0.275-1.059 0.156-1.406l4.025-3.219-4.025-3.219c-0.431-0.344-0.5-0.975-0.156-1.406s0.975-0.5 1.406-0.156l5 4c0.238 0.191 0.375 0.478 0.375 0.781s-0.137 0.591-0.375 0.781l-5 4c-0.184 0.147-0.406 0.219-0.625 0.219zM16 16h-4c-0.553 0-1-0.447-1-1s0.447-1 1-1h4c0.553 0 1 0.447 1 1s-0.447 1-1 1z"></path>
<path d="M30.859 27.697l-3.491 4.103c-0.116 0.122-0.275 0.194-0.444 0.2-0.172 0.006-0.334-0.066-0.444-0.2l-3.584-4.103c-0.206-0.269-0.153-0.653 0.116-0.856 0.094-0.072 0.209-0.116 0.328-0.125h7.044c0.337-0.003 0.613 0.272 0.616 0.609 0 0.144-0.050 0.284-0.141 0.394v-0.022z"></path>
<path d="M31 6c0-2.206-1.794-4-4-4h-22c-2.206 0-4 1.794-4 4v20c0 2.206 1.794 4 4 4h15.047v-2h-15.047c-1.103 0-2-0.897-2-2v-20c0-1.103 0.897-2 2-2h22c1.103 0 2 0.897 2 2v18.409h2v-18.409z"></path>
</svg>
