<!-- Generated by IcoMoon.io -->
<svg version="1.1" xmlns="http://www.w3.org/2000/svg" width="32" height="32" viewBox="0 0 32 32">
<title>code_html</title>
<path d="M26.119 11.706l-8.825-8.825c-0.563-0.563-1.325-0.881-2.119-0.881h-6.175c-1.063 0-2.081 0.419-2.831 1.169s-1.169 1.769-1.169 2.831v20c0 1.063 0.419 2.081 1.169 2.831s1.769 1.169 2.831 1.169h14c1.063 0 2.081-0.419 2.831-1.169s1.169-1.769 1.169-2.831v-12.175c0-0.794-0.319-1.556-0.881-2.119zM17 5.412l6.587 6.588h-5.587c-0.262 0-0.519-0.106-0.706-0.294s-0.294-0.444-0.294-0.706v-5.588zM25 26c0 0.531-0.212 1.038-0.587 1.413s-0.881 0.587-1.413 0.587h-14c-0.531 0-1.037-0.212-1.412-0.587s-0.588-0.881-0.588-1.413v-20c0-0.531 0.213-1.037 0.588-1.412s0.881-0.588 1.412-0.588h6v7c0 0.794 0.319 1.556 0.881 2.119s1.325 0.881 2.119 0.881h7v12z"></path>
<path d="M13.988 18.163c-0.206-0.231-0.563-0.256-0.794-0.050l-3.25 2.844c-0.125 0.106-0.194 0.262-0.194 0.425s0.069 0.319 0.194 0.425l3.25 2.844c0.231 0.206 0.588 0.181 0.794-0.050s0.181-0.587-0.050-0.794l-2.769-2.431 2.769-2.419c0.231-0.206 0.25-0.563 0.050-0.794z"></path>
<path d="M17.381 16.775c-0.3-0.087-0.613 0.081-0.7 0.375l-2.438 8.125c-0.088 0.3 0.081 0.613 0.375 0.7 0.3 0.087 0.613-0.081 0.7-0.375l2.438-8.125c0.087-0.3-0.081-0.613-0.375-0.7z"></path>
<path d="M18.069 18.956l2.769 2.419-2.769 2.419c-0.231 0.206-0.256 0.563-0.050 0.794s0.563 0.256 0.794 0.050l3.25-2.844c0.125-0.106 0.194-0.262 0.194-0.425s-0.069-0.319-0.194-0.425l-3.25-2.844c-0.231-0.206-0.587-0.181-0.794 0.050-0.206 0.244-0.188 0.6 0.050 0.806z"></path>
</svg>
