<svg version="1.1" xmlns="http://www.w3.org/2000/svg" width="32" height="32" viewBox="0 0 32 32">
<title>code_editor</title>
<path d="M13.094 3.484c-0.441-0.025-0.863 0.244-1.022 0.688-0.406 1.138-0.8 2.278-1.197 3.419-0.919 2.628-1.838 5.256-2.747 7.888-0.072 0.209-0.106 0.453-0.066 0.666 0.084 0.419 0.497 0.688 0.969 0.7 0.475 0.012 0.806-0.238 0.988-0.756 1.306-3.741 2.609-7.481 3.912-11.222 0.050-0.141 0.078-0.287 0.109-0.4-0.019-0.103-0.025-0.172-0.041-0.241-0.113-0.422-0.472-0.716-0.906-0.741z"></path>
<path d="M5.656 7.1c0.259-0.247 0.397-0.537 0.344-0.888-0.053-0.344-0.237-0.628-0.588-0.753-0.428-0.15-0.822-0.050-1.147 0.263-1.294 1.231-2.584 2.466-3.872 3.697-0.512 0.491-0.512 1.022 0 1.516 1.281 1.228 2.566 2.45 3.847 3.675 0.022 0.022 0.044 0.044 0.066 0.063 0.366 0.322 0.875 0.356 1.294 0.088 0.394-0.256 0.513-0.669 0.294-1.134-0.078-0.169-0.2-0.328-0.334-0.459-0.959-0.928-1.928-1.847-2.894-2.772-0.072-0.069-0.141-0.141-0.219-0.222 0.087-0.091 0.166-0.169 0.244-0.247 0.988-0.941 1.975-1.884 2.966-2.825z"></path>
<path d="M21.762 9.522c-1.334-1.287-2.678-2.566-4.022-3.844-0.241-0.228-0.544-0.334-0.887-0.266-0.363 0.072-0.641 0.266-0.75 0.606-0.131 0.406 0.006 0.775 0.3 1.072 0.419 0.428 0.866 0.834 1.3 1.25 0.634 0.603 1.266 1.206 1.925 1.834-0.631 0.6-1.228 1.169-1.825 1.741-0.494 0.472-0.994 0.938-1.478 1.419-0.4 0.397-0.384 0.934 0.006 1.309 0.397 0.381 0.988 0.425 1.375 0.059 1.363-1.287 2.719-2.581 4.069-3.884 0.375-0.366 0.369-0.928-0.012-1.297z"></path>
<path d="M28.175 6.381h-3.797v1.334h3.797c1.372 0 2.488 1.116 2.488 2.488v14.497c0 1.369-1.116 2.488-2.488 2.488v0h-18.219c-1.372 0-2.487-1.116-2.487-2.488v-4.406h-1.334c0 0 0 3.047 0 3.050v1.356c0 2.106 1.713 3.819 3.819 3.819h18.219c2.106 0 3.822-1.712 3.819-3.819v-14.497c0.003-2.106-1.709-3.822-3.816-3.822z"></path>
</svg>
