<svg version="1.1" xmlns="http://www.w3.org/2000/svg" width="32" height="32" viewBox="0 0 32 32">
<title>code_html</title>
<path d="M19.82 24.008c-0.155 0-0.311-0.053-0.437-0.164-0.277-0.241-0.307-0.663-0.065-0.94l3.111-3.578-3.111-3.577c-0.242-0.278-0.212-0.699 0.065-0.941 0.279-0.242 0.699-0.212 0.94 0.066l3.492 4.014c0.219 0.251 0.219 0.624 0 0.875l-3.492 4.016c-0.131 0.151-0.316 0.229-0.503 0.229z"></path>
<path d="M12.279 24.008c-0.186 0-0.371-0.078-0.503-0.229l-3.492-4.016c-0.218-0.251-0.218-0.624 0-0.875l3.492-4.014c0.243-0.279 0.663-0.307 0.941-0.066 0.278 0.242 0.307 0.663 0.066 0.941l-3.112 3.577 3.112 3.578c0.242 0.277 0.212 0.699-0.066 0.94-0.126 0.11-0.282 0.164-0.438 0.164z"></path>
<path d="M13.665 27.184c-0.070 0-0.14-0.010-0.21-0.034-0.35-0.116-0.539-0.493-0.423-0.842l4.867-14.694c0.115-0.35 0.493-0.539 0.842-0.423s0.539 0.493 0.423 0.842l-4.867 14.694c-0.092 0.28-0.353 0.457-0.633 0.457z"></path>
<path d="M27.324 6.67h-5.333c-0.369 0-0.667-0.298-0.667-0.667v-5.333c0-0.369 0.298-0.667 0.667-0.667s0.667 0.298 0.667 0.667v4.667h4.667c0.369 0 0.667 0.298 0.667 0.667s-0.298 0.667-0.667 0.667z"></path>
<path d="M26.269 32.003h-20.562c-0.946 0-1.716-0.777-1.716-1.733v-28.525c0-0.96 0.77-1.741 1.716-1.741h16.283c0.559 0 0.855 0.292 1.072 0.505l4.417 4.358c0.238 0.236 0.512 0.577 0.512 1.137v24.266c0 0.956-0.772 1.733-1.721 1.733zM21.983 1.327l-16.275 0.009c-0.208 0-0.383 0.187-0.383 0.408v28.525c0 0.216 0.175 0.4 0.383 0.4h20.562c0.211 0 0.388-0.184 0.388-0.4v-24.266c0-0.049 0-0.074-0.116-0.187l-4.417-4.358c-0.037-0.037-0.115-0.113-0.142-0.13z"></path>
</svg>
