<svg version="1.1" xmlns="http://www.w3.org/2000/svg" width="32" height="32" viewBox="0 0 32 32">
<title>coin_payment_chip</title>
<path d="M19.671 26.212c-0.176 0-0.352-0.069-0.482-0.206-2.737-2.867-4.815-6.273-5.263-7.63l-2.505-7.578c-0.296-0.893-0.135-1.775 0.441-2.421 0.585-0.656 1.515-0.967 2.371-0.79 0.819 0.17 1.451 0.756 1.732 1.608l1.752 5.087c0.022 0.063 0.077 0.119 0.148 0.15 0.685 0.295 1.201 0.342 1.41 0.136 0.337-0.332 0.357-1.505-0.269-3.027-0.555-1.352-2.038-2.839-2.866-3.419-0.301-0.212-0.374-0.627-0.163-0.929s0.627-0.373 0.929-0.163c0.917 0.643 2.633 2.297 3.335 4.004 0.306 0.744 1.208 3.267-0.030 4.484-0.441 0.436-1.299 0.816-2.871 0.139-0.418-0.179-0.74-0.523-0.883-0.942l-1.755-5.093c-0.135-0.407-0.389-0.656-0.74-0.729-0.392-0.083-0.837 0.068-1.105 0.37-0.257 0.289-0.316 0.675-0.171 1.116l2.505 7.577c0.35 1.060 2.307 4.348 4.961 7.128 0.255 0.267 0.245 0.689-0.021 0.943-0.13 0.124-0.295 0.185-0.461 0.185z"></path>
<path d="M21.422 31.685c-0.211 0-0.419-0.1-0.548-0.288l-3.122-4.526c-0.102-0.146-0.139-0.325-0.108-0.499 0.033-0.175 0.133-0.328 0.277-0.428l8.473-5.844c0.145-0.103 0.327-0.137 0.499-0.108 0.175 0.033 0.328 0.133 0.428 0.277l3.122 4.527c0.102 0.146 0.139 0.325 0.108 0.5-0.033 0.173-0.133 0.327-0.277 0.428l-8.473 5.841c-0.116 0.081-0.247 0.118-0.379 0.118zM19.227 26.663l2.366 3.428 7.375-5.086-2.366-3.43-7.375 5.087z"></path>
<path d="M10.757 13.285c-3.575 0-6.484-2.909-6.484-6.484s2.909-6.484 6.484-6.484c3.576 0 6.485 2.909 6.485 6.484 0 1.585-0.79 3.028-1.13 3.575-0.194 0.314-0.605 0.408-0.918 0.215-0.313-0.195-0.409-0.605-0.215-0.918 0.582-0.937 0.93-2.010 0.93-2.872 0-2.841-2.311-5.151-5.152-5.151s-5.15 2.311-5.15 5.151 2.311 5.151 5.15 5.151c0.489 0 1.111-0.104 1.663-0.279 0.355-0.114 0.727 0.084 0.837 0.434 0.111 0.352-0.083 0.726-0.434 0.837-0.686 0.217-1.438 0.341-2.066 0.341z"></path>
<path d="M25.286 22.331c-0.112 0-0.224-0.026-0.323-0.078-0.398-0.211-0.81-0.43-0.75-8.2 0.057-7.352-9.358-10.598-9.453-10.63-0.349-0.117-0.537-0.495-0.421-0.844 0.118-0.349 0.495-0.536 0.844-0.421 0.426 0.142 10.427 3.581 10.363 11.905-0.042 5.436 0.171 6.83 0.257 7.169 0.016 0.018 0.029 0.036 0.043 0.055 0.208 0.303 0.131 0.719-0.171 0.928-0.113 0.077-0.251 0.116-0.389 0.116z"></path>
</svg>
