<!-- Generated by IcoMoon.io -->
<svg version="1.1" xmlns="http://www.w3.org/2000/svg" width="32" height="32" viewBox="0 0 32 32">
<title>col_group_2</title>
<path d="M13.783 1.050c-0.001-0.579-0.469-1.047-1.047-1.050h-11.687c-0.58 0-1.050 0.47-1.050 1.050v0 29.901c0 0.58 0.47 1.050 1.050 1.050v0h11.686c0.579-0.001 1.049-0.47 1.050-1.050v-4.687c0 0 0 0 0 0 0-0.367-0.297-0.664-0.664-0.664-0.001 0-0.001 0-0.002 0h-0.772c-0.367 0-0.664 0.297-0.664 0.664v0 3.382c0 0.141-0.115 0.256-0.256 0.256v0h-9.074c-0.141 0-0.256-0.115-0.256-0.256v0-12.608h6.577l-2.481 2.509c-0.189 0.192-0.306 0.455-0.306 0.746 0 0.115 0.018 0.225 0.052 0.328l-0.002-0.008c0.051 0.165 0.14 0.306 0.256 0.418l0 0c0.183 0.185 0.431 0.306 0.706 0.324l0.003 0c0.017 0.001 0.037 0.002 0.057 0.002 0.293 0 0.558-0.12 0.748-0.314l0-0 4.279-4.327c0.188-0.191 0.304-0.454 0.304-0.743 0-0.292-0.118-0.556-0.309-0.748l-4.257-4.257c-0.18-0.183-0.424-0.303-0.695-0.324l-0.004-0c-0.021-0.001-0.044-0.002-0.069-0.002-0.291 0-0.555 0.119-0.745 0.31l-0.010 0.010c-0.191 0.191-0.31 0.456-0.31 0.748s0.118 0.556 0.31 0.748v0l2.45 2.454h-6.556v-12.558c0-0.141 0.115-0.256 0.256-0.256v0h9.076c0.14 0.002 0.253 0.116 0.253 0.256 0 0 0 0 0 0v0 3.382c0 0 0 0 0 0.001 0 0.366 0.297 0.663 0.663 0.664h0.773c0.367 0 0.664-0.297 0.664-0.664v0-4.687z"></path>
<path d="M18.217 1.050c0.001-0.579 0.469-1.047 1.047-1.050h11.687c0.58 0 1.050 0.47 1.050 1.050v0 29.901c0 0.58-0.47 1.050-1.050 1.050v0h-11.686c-0.579-0.001-1.049-0.47-1.050-1.050v-4.687c0 0 0 0 0 0 0-0.367 0.297-0.664 0.664-0.664 0.001 0 0.001 0 0.002 0h0.772c0.367 0 0.664 0.297 0.664 0.664v0 3.382c0 0.141 0.115 0.256 0.256 0.256v0h9.075c0.141 0 0.256-0.115 0.256-0.256v0-12.608h-6.577l2.481 2.509c0.189 0.192 0.306 0.455 0.306 0.746 0 0.115-0.018 0.225-0.052 0.328l0.002-0.008c-0.052 0.165-0.14 0.306-0.256 0.418l-0 0c-0.183 0.185-0.431 0.306-0.706 0.324l-0.003 0c-0.017 0.001-0.037 0.002-0.057 0.002-0.293 0-0.558-0.12-0.748-0.314l-0-0-4.277-4.327c-0.188-0.191-0.304-0.454-0.304-0.743 0-0.292 0.118-0.556 0.309-0.748l4.257-4.257c0.18-0.183 0.424-0.303 0.695-0.324l0.004-0c0.021-0.001 0.044-0.002 0.069-0.002 0.291 0 0.555 0.119 0.745 0.31l0.010 0.010c0.191 0.191 0.31 0.456 0.31 0.748s-0.118 0.556-0.31 0.748l-2.452 2.454h6.556v-12.558c0-0.141-0.115-0.256-0.256-0.256v0h-9.076c-0.14 0.002-0.253 0.116-0.253 0.256 0 0 0 0 0 0v0 3.382c0 0 0 0 0 0.001 0 0.366-0.297 0.663-0.663 0.664h-0.773c-0.367 0-0.664-0.297-0.664-0.664v0-4.687z"></path>
</svg>
