<!-- Generated by IcoMoon.io -->
<svg version="1.1" xmlns="http://www.w3.org/2000/svg" width="32" height="32" viewBox="0 0 32 32">
<title>col_add</title>
<path d="M6.415 32c-0.555 0-1.004-0.45-1.005-1.005v-29.99c0-0.555 0.45-1.004 1.005-1.005h12.175c0.555 0 1.004 0.45 1.005 1.005v4.431c0 0.366-0.297 0.663-0.664 0.664h-0.681c-0.366 0-0.663-0.297-0.664-0.664v-3.427h-10.167v27.982h10.167v-3.432c0-0.366 0.297-0.663 0.664-0.664h0.681c0.366 0 0.663 0.297 0.664 0.664v4.435c0 0.555-0.45 1.004-1.005 1.005v0z"></path>
<path d="M24.247 10.343c-3.119-3.119-8.192-3.119-11.314 0-1.448 1.448-2.343 3.448-2.343 5.657 0 4.418 3.582 8 8 8s8-3.582 8-8c0-2.209-0.895-4.209-2.343-5.657v0zM19.617 20.444c0 0.030 0 0.061-0.005 0.097v0.016c-0.004 0.031-0.008 0.056-0.012 0.081l-0.004 0.020c-0.015 0.068-0.034 0.128-0.058 0.185l-0.003 0.007c-0.012 0.028-0.023 0.050-0.035 0.072l-0.009 0.017c-0.032 0.057-0.065 0.106-0.103 0.152l0.002-0.002-0.012 0.014c-0.018 0.021-0.033 0.038-0.049 0.054l-0.017 0.018c-0.020 0.020-0.040 0.038-0.064 0.056l-0.013 0.011c-0.020 0.016-0.038 0.030-0.058 0.043-0.008 0.006-0.019 0.013-0.029 0.019s-0.030 0.019-0.044 0.026-0.026 0.015-0.040 0.022l-0.021 0.010-0.006 0.003c-0.13 0.065-0.284 0.103-0.446 0.103-0.196 0-0.378-0.055-0.534-0.151l0.004 0.003c-0.066-0.041-0.124-0.085-0.176-0.134v0c-0.018-0.017-0.033-0.032-0.047-0.047l-0.015-0.018c-0.013-0.014-0.026-0.029-0.038-0.044l-0.011-0.015c-0.021-0.026-0.042-0.056-0.062-0.087l-0.002-0.004-0.015-0.024-0.024-0.047c-0.005-0.010-0.010-0.020-0.015-0.031l-0.021-0.048-0.010-0.025v-0.006c-0.011-0.029-0.020-0.060-0.029-0.092v-0.006c0-0.008-0.004-0.017-0.006-0.025-0.004-0.018-0.007-0.036-0.010-0.053s-0.004-0.023-0.005-0.034-0.005-0.037-0.006-0.056c0-0.008 0-0.039 0-0.039 0-0.015 0-0.029 0-0.045v-3.42h-3.425c-0.015 0-0.030 0-0.045 0h-0.039c-0.019 0-0.037-0.004-0.055-0.006l-0.033-0.005-0.053-0.010-0.028-0.007c-0.036-0.010-0.067-0.019-0.097-0.030h-0.006l-0.025-0.009c-0.017-0.006-0.033-0.014-0.049-0.021l-0.030-0.015c-0.015-0.008-0.031-0.016-0.047-0.025l-0.019-0.012c-0.036-0.022-0.066-0.043-0.095-0.066l0.003 0.002-0.018-0.014-0.044-0.036-0.019-0.017c-0.014-0.013-0.029-0.028-0.043-0.043l-0.005-0.005c-0.047-0.050-0.089-0.105-0.125-0.164l-0.003-0.004-0.004-0.006c-0.092-0.15-0.146-0.331-0.146-0.526 0-0.002 0-0.003 0-0.005v0c0-0.001 0-0.002 0-0.003 0-0.162 0.038-0.315 0.106-0.451l-0.003 0.006c0.006-0.013 0.010-0.020 0.013-0.027s0.015-0.028 0.022-0.041 0.015-0.026 0.024-0.038 0.014-0.022 0.022-0.034 0.026-0.036 0.040-0.054l0.014-0.018c0.017-0.020 0.035-0.041 0.055-0.061l0.019-0.018c0.016-0.016 0.033-0.031 0.051-0.045l0.017-0.015c0.044-0.034 0.093-0.066 0.145-0.094l0.006-0.003 0.015-0.008c0.024-0.012 0.046-0.024 0.070-0.034l0.017-0.007c0.051-0.022 0.111-0.041 0.173-0.055l0.007-0.001h0.015c0.030-0.006 0.055-0.010 0.081-0.013h0.022c0.035 0 0.064-0.005 0.097-0.005h3.416v-3.425c0-0.567 0.46-1.027 1.027-1.027s1.027 0.46 1.027 1.027v0 3.42h3.418c0.567 0 1.027 0.46 1.027 1.027s-0.46 1.027-1.027 1.027v0h-3.417z"></path>
</svg>
