<!-- Generated by IcoMoon.io -->
<svg version="1.1" xmlns="http://www.w3.org/2000/svg" width="32" height="32" viewBox="0 0 32 32">
<title>col_wrapping</title>
<path d="M4.729 5.194v3.584h-2.809v-3.584h2.809zM6.118 3.274h-5.587c-0.293 0-0.531 0.276-0.531 0.617v6.189c0 0.34 0.238 0.617 0.531 0.617h5.587c0.293 0 0.531-0.276 0.531-0.617v-6.189c0-0.34-0.238-0.617-0.531-0.617z"></path>
<path d="M19.060 5.194v3.584h-9.124v-3.584h9.124zM20.449 3.274h-11.904c-0.293 0-0.531 0.276-0.531 0.617v6.189c0 0.34 0.238 0.617 0.531 0.617h11.904c0.293 0 0.531-0.276 0.531-0.617v-6.189c0-0.34-0.238-0.617-0.531-0.617z"></path>
<path d="M11.044 14.208v3.584h-9.124v-3.584h9.124zM12.433 12.288h-11.901c-0.293 0-0.531 0.275-0.531 0.616v6.189c0 0.34 0.238 0.619 0.531 0.619h11.904c0.293 0 0.531-0.276 0.531-0.617v-6.191c0-0.34-0.238-0.617-0.531-0.617z"></path>
<path d="M19.061 23.222v3.584h-17.141v-3.584h17.141zM20.45 21.302h-19.919c-0.293 0-0.531 0.276-0.531 0.617v6.189c0 0.34 0.238 0.617 0.531 0.617h19.919c0.293 0 0.531-0.276 0.531-0.617v-6.189c0-0.34-0.238-0.617-0.531-0.617z"></path>
<path d="M26.463 15.040h-10.62c-0.53 0-0.96 0.43-0.96 0.96s0.43 0.96 0.96 0.96v0h10.688c1.96 0.001 3.549 1.59 3.549 3.551 0 0.018-0 0.036-0 0.054l0-0.003c-0.029 1.946-1.654 3.492-3.6 3.492h-0.576l0.612-0.694c0.145-0.165 0.233-0.382 0.233-0.62 0-0.52-0.421-0.941-0.941-0.941-0.282 0-0.535 0.124-0.707 0.32l-0.001 0.001-1.991 2.274-0.096 0.133c-0.189 0.312-0.218 0.748 0.118 1.132l1.969 2.244c0.173 0.197 0.426 0.321 0.708 0.321 0.52 0 0.941-0.421 0.941-0.941 0-0.238-0.088-0.455-0.234-0.621l0.001 0.001-0.605-0.691h0.622q0.272 0 0.536-0.026c0.231-0.021 0.437-0.053 0.639-0.097l-0.034 0.006c2.491-0.548 4.327-2.737 4.327-5.354 0-0.017-0-0.035-0-0.052l0 0.003c-0.029-3.009-2.527-5.412-5.537-5.412z"></path>
</svg>
