<!-- Generated by IcoMoon.io -->
<svg version="1.1" xmlns="http://www.w3.org/2000/svg" width="32" height="32" viewBox="0 0 32 32">
<title>col_show</title>
<path d="M5.538 32c-0.555 0-1.004-0.45-1.005-1.005v-29.99c0-0.555 0.45-1.004 1.005-1.005h12.175c0.555 0.001 1.004 0.45 1.004 1.005v6.099c-0.001 0.366-0.297 0.663-0.664 0.663h-0.681c-0.366 0-0.663-0.297-0.664-0.663v-5.094h-10.166v27.982h10.166v-5.096c0.001-0.366 0.297-0.663 0.664-0.663h0.681c0.366 0 0.663 0.297 0.664 0.663v6.099c0 0.555-0.45 1.004-1.004 1.005v0z"></path>
<path d="M20.384 16.031c0 1.436-1.165 2.601-2.601 2.601s-2.601-1.165-2.601-2.601c0-1.436 1.165-2.601 2.601-2.601s2.601 1.165 2.601 2.601z"></path>
<path d="M17.814 9.67c-5.453 0-9.715 5.077-9.715 6.33s4.325 6.394 9.715 6.394 9.652-5.14 9.652-6.394-4.2-6.33-9.652-6.33zM17.783 20.137c0 0 0 0-0.001 0-2.267 0-4.106-1.838-4.106-4.106s1.838-4.106 4.106-4.106c2.267 0 4.106 1.838 4.106 4.106v0c0 2.267-1.838 4.105-4.105 4.106v0z"></path>
</svg>
