<!-- Generated by IcoMoon.io -->
<svg version="1.1" xmlns="http://www.w3.org/2000/svg" width="32" height="32" viewBox="0 0 32 32">
<title>col_save</title>
<path d="M6.832 32c-0.555-0.001-1.004-0.45-1.005-1.005v-29.99c0.001-0.555 0.45-1.004 1.005-1.005h12.176c0.555 0.001 1.004 0.45 1.005 1.005v5.267c-0.001 0.366-0.297 0.663-0.664 0.664h-0.682c-0.366 0-0.663-0.297-0.664-0.664v-4.262h-10.167v27.982h10.167v-4.26c0-0.366 0.297-0.663 0.664-0.664h0.681c0.366 0.001 0.663 0.297 0.664 0.664v5.264c-0.001 0.554-0.45 1.004-1.004 1.005v0z"></path>
<path d="M25.988 11.507l-2.488-2.488c-0.113-0.112-0.269-0.181-0.44-0.182h-10.594c-0.344 0-0.622 0.278-0.623 0.622v13.084c0 0.343 0.279 0.621 0.622 0.621 0 0 0 0 0.001 0h13.084c0 0 0 0 0.001 0 0.343 0 0.622-0.278 0.622-0.621v-10.595c-0.003-0.172-0.073-0.327-0.184-0.44v0zM16.128 10.65c0-0.177 0.143-0.32 0.32-0.32v0h5.12c0.177 0 0.32 0.143 0.32 0.32v0 2.703c0 0.177-0.143 0.32-0.32 0.32v0h-5.12c-0.177 0-0.32-0.143-0.32-0.32v0zM23.628 21.857h-9.239v-5.814c0-0.318 0.258-0.576 0.576-0.576v0h8.087c0.318 0 0.576 0.258 0.576 0.576v0z"></path>
</svg>
