<!-- Generated by IcoMoon.io -->
<svg version="1.1" xmlns="http://www.w3.org/2000/svg" width="32" height="32" viewBox="0 0 32 32">
<title>col_group</title>
<path d="M0.132 31.772v-1.685c0-0.106 0.086-0.192 0.192-0.192v0h-0.004c5.214 0 10.147-0.467 14.662-1.387 3.608-0.732 6.956-1.756 9.953-3.043 0.384-0.164 0.768-0.337 1.152-0.516-0.423-0.2-0.852-0.393-1.28-0.576-1.374-0.612-3.105-1.247-4.879-1.782l-0.336-0.087c-1.722 0.722-3.809 1.403-5.958 1.923l-0.297 0.061c-4.010 0.949-8.39 1.432-13.017 1.432v0c0 0 0 0 0 0-0.105 0-0.19-0.084-0.192-0.189v-1.687c0.002-0.105 0.087-0.189 0.192-0.189 0 0 0 0 0 0v0c4.49 0 8.736-0.465 12.621-1.38 1.082-0.256 2.15-0.549 3.185-0.877l-0.060-0.015 0.044-0.015c-0.384-0.086-0.761-0.167-1.128-0.242-4.513-0.92-9.445-1.387-14.662-1.387v0c-0.106 0-0.192-0.086-0.192-0.192v0-1.683c0-0.106 0.086-0.192 0.192-0.192v0 0c5.337 0 10.388 0.481 15.015 1.43 1.408 0.289 2.801 0.627 4.148 1.008 0.65-0.275 1.286-0.568 1.891-0.868 2.823-1.4 4.683-2.841 5.484-3.52-0.801-0.678-2.66-2.119-5.484-3.52-0.596-0.295-1.22-0.582-1.856-0.854-1.334 0.374-2.716 0.704-4.108 0.991-4.649 0.953-9.726 1.434-15.091 1.434v0c-0.106 0-0.192-0.086-0.192-0.192v0-1.683c0-0.106 0.086-0.192 0.192-0.192v0 0c5.268 0 10.25-0.471 14.806-1.401 0.332-0.068 0.666-0.139 1.011-0.216l-0.042-0.014 0.060-0.014c-1.044-0.332-2.122-0.629-3.213-0.886-3.884-0.913-8.13-1.377-12.621-1.377v0c-0.106 0-0.192-0.086-0.192-0.192v0-1.684c0-0.106 0.086-0.192 0.192-0.192v0 0c4.625 0 9.005 0.483 13.016 1.435 2.458 0.583 4.557 1.268 6.579 2.101l-0.288-0.105c2.175-0.632 3.967-1.286 5.704-2.041l-0.308 0.119c0.349-0.15 0.697-0.305 1.039-0.463-0.332-0.153-0.666-0.301-0.998-0.443-3.015-1.288-6.381-2.312-10.006-3.046-4.537-0.92-9.496-1.387-14.739-1.387v0c-0.106 0-0.192-0.086-0.192-0.192v0-1.683c0-0.106 0.086-0.192 0.192-0.192v0 0c5.365 0.003 10.442 0.484 15.092 1.436 3.731 0.762 7.199 1.824 10.307 3.159 0.832 0.358 1.647 0.739 2.424 1.133v-1.512c0 0 0 0 0 0 0-0.283 0.229-0.512 0.512-0.512 0.142 0 0.27 0.057 0.362 0.15l2.663 2.664c0.116 0.116 0.187 0.276 0.187 0.452s-0.072 0.337-0.187 0.452l-2.663 2.664c-0.093 0.093-0.221 0.15-0.362 0.15-0.283 0-0.512-0.229-0.512-0.512v0-1.574c-0.813 0.417-1.67 0.82-2.551 1.199-1.044 0.448-2.143 0.871-3.274 1.26 2.938 1.491 4.823 2.963 5.824 3.86v-1.334c0-0.283 0.229-0.512 0.512-0.512 0.142 0 0.27 0.057 0.362 0.15v0l2.664 2.664c0.116 0.116 0.187 0.276 0.187 0.452s-0.072 0.337-0.187 0.452l-2.663 2.664c-0.093 0.093-0.221 0.15-0.362 0.15-0.283 0-0.512-0.229-0.512-0.512v0-1.334c-1.007 0.9-2.904 2.382-5.866 3.88 1.1 0.384 2.171 0.797 3.19 1.236 0.927 0.4 1.827 0.827 2.676 1.27v-1.572c0 0 0 0 0 0 0-0.283 0.229-0.512 0.512-0.512 0.142 0 0.27 0.057 0.362 0.15l2.663 2.664c0.116 0.116 0.187 0.276 0.187 0.452s-0.072 0.337-0.187 0.452l-2.663 2.664c-0.093 0.093-0.221 0.15-0.362 0.15-0.283 0-0.512-0.229-0.512-0.512v0-1.506c-0.813 0.42-1.67 0.824-2.549 1.204-3.093 1.334-6.544 2.397-10.257 3.159-4.627 0.948-9.679 1.43-15.017 1.43v0c-0.103-0.002-0.186-0.086-0.188-0.189v0z"></path>
</svg>
