<!-- Generated by IcoMoon.io -->
<svg version="1.1" xmlns="http://www.w3.org/2000/svg" width="32" height="32" viewBox="0 0 32 32">
<title>col_reset_layout_2</title>
<path d="M0.896 30.252c-0.495 0-0.896-0.401-0.896-0.896v0-26.712c0-0.495 0.401-0.896 0.896-0.896v0h10.845c0.495 0 0.896 0.401 0.896 0.896v0 4.488c-0.001 0.326-0.265 0.59-0.591 0.591h-0.607c-0.326 0-0.591-0.265-0.591-0.591v-3.594h-9.055v24.925h9.055v-3.594c0.001-0.326 0.265-0.59 0.591-0.591h0.607c0.326 0 0.591 0.265 0.591 0.591v4.488c0 0.495-0.401 0.896-0.896 0.896v0z"></path>
<path d="M11.78 22.582c-0.48 0-0.87-0.389-0.87-0.87s0.389-0.87 0.87-0.87v0c0 0 0.001 0 0.001 0 2.674 0 4.842-2.168 4.842-4.842s-2.168-4.842-4.842-4.842c-2.674 0-4.842 2.168-4.842 4.842v0 0.408l0.868-0.778c0.153-0.143 0.36-0.231 0.587-0.231 0.263 0 0.498 0.118 0.656 0.304l0.001 0.001c0.143 0.153 0.231 0.36 0.231 0.587 0 0.263-0.117 0.498-0.303 0.656l-0.001 0.001-2.368 2.095c-0.149 0.141-0.351 0.227-0.573 0.228v0c-0.227 0-0.434-0.084-0.594-0.221l0.001 0.001-0.008-0.006-2.34-2.099v-0.003c-0.351-0.351-0.365-0.906-0.034-1.242 0.159-0.178 0.388-0.289 0.644-0.289v0c0.225 0.002 0.43 0.082 0.591 0.214l-0.002-0.001 0.007 0.006 0.869 0.778v-0.408c0.004-3.632 2.945-6.575 6.576-6.582h0.001c3.645 0 6.611 2.952 6.611 6.582-0.004 3.633-2.947 6.577-6.579 6.582v0z"></path>
<path d="M24.471 1.748c-2.465 0.267-4.516 1.811-5.497 3.947l-0.017 0.043c-0.012 0.021-0.023 0.046-0.030 0.071v0.002c-0.358 0.8-0.566 1.734-0.566 2.716 0 0.002 0 0.004 0 0.006v0c0 0.064 0 0.128 0.003 0.192-0.002 0.014-0.003 0.031-0.003 0.047 0 0.003 0 0.007 0 0.010v-0.001c0 0.034 0.004 0.068 0.010 0.1l-0.001-0.003c0.056 1.077 0.354 2.073 0.841 2.95l-0.018-0.035c0.014 0.033 0.031 0.061 0.051 0.087l-0.001-0.001c1.078 1.882 2.979 3.187 5.2 3.426l0.030 0.003h1.42c2.249-0.245 4.148-1.551 5.207-3.399l0.018-0.033c0.015-0.023 0.030-0.050 0.044-0.078l0.002-0.005c0.468-0.837 0.766-1.827 0.824-2.881l0.001-0.017c0-0.030 0.003-0.057 0.003-0.086s0.003-0.060 0.003-0.090c0.003-0.064 0.003-0.128 0.003-0.192v0c0-0.057 0-0.113-0.003-0.17-0.025-0.928-0.23-1.801-0.581-2.596l0.017 0.044c-0.010-0.024-0.020-0.047-0.030-0.070-0.998-2.174-3.044-3.715-5.473-3.983l-0.031-0.003zM21.703 10.991h-1.648c-0.235-0.477-0.411-1.031-0.5-1.613l-0.004-0.032h1.939c0.040 0.612 0.116 1.176 0.227 1.727l-0.014-0.082zM19.847 6.569h1.771c-0.078 0.484-0.129 1.052-0.143 1.629v0.015h-1.97c0.031-0.599 0.153-1.16 0.353-1.682l-0.013 0.037zM24.474 13.977c-0.384-0.26-0.748-0.73-1.053-1.371-0.074-0.154-0.14-0.314-0.204-0.477h1.258zM24.474 5.434h-1.427c0.117-0.386 0.245-0.712 0.396-1.024l-0.019 0.043c0.306-0.64 0.67-1.111 1.053-1.37v2.351zM24.474 8.212h-1.867c0.018-0.595 0.078-1.162 0.177-1.715l-0.010 0.071h1.699zM24.474 9.347v1.645h-1.6c-0.112-0.472-0.199-1.034-0.241-1.608l-0.002-0.036zM25.895 12.129h1.263c-0.064 0.166-0.128 0.326-0.204 0.477-0.307 0.647-0.674 1.117-1.061 1.378v-1.856zM27.499 10.991h-1.606v-1.647h1.848c-0.043 0.61-0.13 1.173-0.258 1.72l0.014-0.072zM25.895 8.212v-1.645h1.708c0.090 0.484 0.15 1.051 0.166 1.629v0.016zM25.895 5.434v-2.358c0.384 0.26 0.753 0.73 1.060 1.378 0.13 0.27 0.257 0.595 0.359 0.931l0.013 0.050h-1.435zM22.487 3.759c-0.252 0.478-0.471 1.035-0.627 1.618l-0.013 0.057h-1.431c0.564-0.855 1.325-1.536 2.222-1.989l0.033-0.015c-0.064 0.107-0.124 0.216-0.184 0.33zM22 12.129c0.149 0.458 0.314 0.846 0.508 1.217l-0.020-0.043c0.060 0.113 0.12 0.223 0.183 0.327-0.747-0.375-1.375-0.88-1.88-1.491l-0.008-0.010zM27.708 13.617c0.060-0.104 0.12-0.207 0.177-0.32 0.176-0.329 0.34-0.718 0.472-1.121l0.015-0.053h1.201c-0.505 0.618-1.126 1.12-1.833 1.479l-0.032 0.015zM28.668 10.993c0.101-0.474 0.176-1.038 0.209-1.614l0.001-0.031h1.925c-0.091 0.614-0.267 1.168-0.518 1.678l0.015-0.033zM28.901 8.214v-0.006c0-0.064 0-0.128-0.006-0.192 0-0.033-0.003-0.064-0.003-0.103 0-0.024-0.003-0.047-0.003-0.074-0.023-0.434-0.067-0.861-0.128-1.272h1.755c0.183 0.484 0.305 1.045 0.34 1.629l0.001 0.016h-1.954zM28.522 5.436c-0.169-0.639-0.387-1.196-0.661-1.72l0.021 0.045c-0.057-0.11-0.116-0.216-0.177-0.32 0.923 0.468 1.679 1.148 2.225 1.977l0.013 0.022h-1.42z"></path>
</svg>
