<!-- Generated by IcoMoon.io -->
<svg version="1.1" xmlns="http://www.w3.org/2000/svg" width="32" height="32" viewBox="0 0 32 32">
<title>col_reset_layout</title>
<path d="M10.184 32c-0.555-0.001-1.004-0.45-1.005-1.005v-29.99c0.001-0.555 0.45-1.004 1.005-1.005h12.175c0.555 0.001 1.004 0.45 1.004 1.005v1.862c-0 0.366-0.297 0.663-0.663 0.664h-0.684c-0.365-0.002-0.66-0.298-0.66-0.664v-0.858h-10.167v27.982h10.167v-9.295c0-0 0-0 0-0.001 0-0.366 0.295-0.662 0.66-0.664h0.682c0.366 0.001 0.663 0.297 0.663 0.664v10.3c-0 0.554-0.448 1.003-1.001 1.005h-0z"></path>
<path d="M9.468 16.292c-2.494 0.27-4.568 1.832-5.561 3.993l-0.018 0.043c-0.012 0.021-0.023 0.046-0.030 0.072l-0 0.002c-0.364 0.81-0.576 1.756-0.576 2.752v0c0 0.064 0 0.132 0 0.195-0.001 0.009-0.001 0.019-0.001 0.029s0 0.020 0.001 0.030l-0-0.001c0 0.035 0.004 0.069 0.010 0.101l-0.001-0.003c0.057 1.089 0.358 2.097 0.85 2.984l-0.018-0.035c0.014 0.033 0.031 0.062 0.051 0.088l-0.001-0.001c1.091 1.906 3.017 3.227 5.266 3.467l0.030 0.003h1.436c2.275-0.248 4.195-1.569 5.266-3.438l0.018-0.034c0.016-0.024 0.031-0.051 0.045-0.080l0.002-0.005c0.473-0.847 0.774-1.849 0.831-2.915l0.001-0.017c0-0.030 0.003-0.057 0.003-0.088s0.003-0.060 0.003-0.090c0-0.064 0-0.132 0-0.196v0c0-0.057 0-0.115 0-0.172-0.025-0.939-0.232-1.822-0.588-2.626l0.018 0.044c-0.010-0.024-0.020-0.047-0.030-0.071-1.011-2.199-3.080-3.758-5.537-4.029l-0.031-0.003zM6.668 25.642h-1.667c-0.239-0.483-0.418-1.043-0.508-1.632l-0.004-0.032h1.961c0.041 0.619 0.118 1.189 0.232 1.746l-0.014-0.082zM4.788 21.169h1.792c-0.079 0.49-0.131 1.065-0.144 1.649l-0 0.015h-1.992c0.031-0.606 0.155-1.173 0.357-1.702l-0.013 0.038zM9.468 28.662c-0.387-0.263-0.756-0.739-1.066-1.386-0.074-0.156-0.141-0.32-0.206-0.483h1.272zM9.468 20.022h-1.443c0.119-0.391 0.25-0.719 0.403-1.035l-0.019 0.043c0.31-0.648 0.678-1.124 1.066-1.386v2.379zM9.468 22.832h-1.886c0.018-0.602 0.079-1.175 0.179-1.735l-0.011 0.071h1.718zM9.468 23.98v1.664h-1.616c-0.113-0.477-0.201-1.046-0.244-1.626l-0.002-0.038zM10.906 26.796h1.28c-0.064 0.168-0.131 0.33-0.206 0.483-0.31 0.655-0.681 1.131-1.073 1.394v-1.88zM12.529 25.644h-1.623v-1.664h1.869c-0.044 0.616-0.131 1.184-0.26 1.736l0.015-0.073zM10.906 22.831v-1.664h1.728c0.091 0.49 0.151 1.063 0.168 1.648l0 0.016zM10.906 20.021v-2.385c0.388 0.264 0.762 0.739 1.073 1.394 0.135 0.273 0.265 0.602 0.37 0.942l0.014 0.050h-1.457zM7.46 18.327c-0.254 0.484-0.474 1.047-0.631 1.636l-0.013 0.058h-1.451c0.57-0.865 1.34-1.554 2.247-2.012l0.033-0.015c-0.064 0.108-0.128 0.219-0.186 0.333zM6.968 26.793c0.15 0.463 0.317 0.856 0.513 1.231l-0.021-0.044c0.064 0.115 0.122 0.225 0.186 0.33-0.756-0.38-1.392-0.89-1.903-1.508l-0.008-0.010zM12.741 28.298c0.060-0.105 0.122-0.209 0.179-0.32 0.177-0.333 0.344-0.726 0.477-1.134l0.015-0.054h1.216c-0.511 0.624-1.14 1.131-1.855 1.493l-0.033 0.015zM13.713 25.642c0.102-0.48 0.178-1.050 0.212-1.632l0.001-0.032h1.946c-0.092 0.621-0.271 1.181-0.527 1.697l0.015-0.033zM13.949 22.831v-0.006c0-0.064-0.003-0.128-0.006-0.192 0-0.033-0.003-0.068-0.003-0.105 0-0.024-0.004-0.047-0.004-0.074-0.024-0.438-0.068-0.87-0.131-1.286h1.775c0.185 0.49 0.309 1.057 0.344 1.648l0.001 0.016h-1.972zM13.565 20.021c-0.169-0.647-0.389-1.21-0.666-1.739l0.021 0.045c-0.057-0.111-0.118-0.22-0.179-0.32 0.932 0.473 1.695 1.159 2.248 1.996l0.013 0.022h-1.435z"></path>
<path d="M22.355 18.453c-0.488 0-0.884-0.396-0.884-0.884s0.396-0.884 0.884-0.884v0c0.001 0 0.001 0 0.002 0 2.718 0 4.922-2.203 4.922-4.922s-2.203-4.922-4.922-4.922c-2.718 0-4.922 2.203-4.922 4.922v0 0.414l0.883-0.79c0.156-0.146 0.366-0.236 0.597-0.236 0.268 0 0.507 0.12 0.667 0.31l0.001 0.001c0.145 0.156 0.234 0.366 0.234 0.597 0 0.267-0.12 0.506-0.308 0.667l-0.001 0.001-2.405 2.128c-0.152 0.143-0.356 0.231-0.582 0.232h-0c-0.231-0-0.442-0.085-0.603-0.224l0.001 0.001-0.008-0.006-2.384-2.137c-0.356-0.356-0.371-0.921-0.034-1.261 0.161-0.181 0.394-0.294 0.654-0.294v0c0.228 0.002 0.437 0.084 0.601 0.218l-0.002-0.001 0.007 0.006 0.883 0.79v-0.414c0.004-3.692 2.994-6.683 6.685-6.689h0.001c3.704 0 6.72 3.001 6.72 6.689-0.004 3.693-2.997 6.685-6.689 6.689h-0z"></path>
</svg>
