<!-- Generated by IcoMoon.io -->
<svg version="1.1" xmlns="http://www.w3.org/2000/svg" width="32" height="32" viewBox="0 0 32 32">
<title>col_reset</title>
<path d="M6.699 32c-0.554-0.001-1.003-0.451-1.003-1.005v-29.99c0-0.554 0.449-1.003 1.003-1.005h12.175c0.555 0 1.004 0.45 1.005 1.005v5.038c0 0.366-0.297 0.663-0.664 0.664h-0.681c-0.366 0-0.663-0.297-0.664-0.664v-4.032h-10.167v27.981h10.167v-4.032c0-0.366 0.297-0.663 0.664-0.664h0.681c0.366 0 0.663 0.297 0.664 0.664v5.036c0 0.555-0.45 1.004-1.005 1.005v0z"></path>
<path d="M18.918 23.389c-0.539 0-0.977-0.437-0.977-0.977s0.437-0.977 0.977-0.977v0c0.001 0 0.001 0 0.002 0 3.002 0 5.436-2.434 5.436-5.436s-2.434-5.436-5.436-5.436c-3.002 0-5.436 2.434-5.436 5.436v0 0.458l0.975-0.874c0.172-0.161 0.404-0.259 0.659-0.259 0.295 0 0.559 0.132 0.737 0.341l0.001 0.001c0.16 0.172 0.259 0.404 0.259 0.659 0 0.295-0.132 0.559-0.34 0.737l-0.001 0.001-2.657 2.351c-0.167 0.157-0.392 0.254-0.64 0.256v0c-0.255 0-0.488-0.093-0.667-0.248l0.001 0.001-0.008-0.007-2.633-2.361c-0.394-0.393-0.41-1.017-0.038-1.393 0.178-0.2 0.435-0.325 0.723-0.325v0c0.252 0.003 0.483 0.092 0.664 0.24l-0.002-0.002 0.008 0.007 0.976 0.874v-0.458c0.004-4.078 3.307-7.383 7.384-7.389h0.001c4.092 0 7.424 3.315 7.424 7.389-0.004 4.080-3.311 7.385-7.39 7.389v0z"></path>
</svg>
