<svg version="1.1" xmlns="http://www.w3.org/2000/svg" width="32" height="32" viewBox="0 0 32 32">
<title>col_save_layout</title>
<path d="M10.184 32c-0.555-0-1.004-0.45-1.005-1.005v-29.99c0-0.555 0.45-1.004 1.005-1.005h12.175c0.555 0 1.004 0.45 1.005 1.005v1.862c-0 0.366-0.297 0.663-0.664 0.664h-0.684c-0.365-0.002-0.661-0.298-0.661-0.664v-0.858h-10.167v27.982h10.167v-9.295c0 0 0 0 0 0 0-0.366 0.296-0.663 0.661-0.665h0.681c0.366 0.001 0.663 0.297 0.664 0.664v10.3c-0 0.555-0.45 1.004-1.005 1.005h-0z"></path>
<path d="M9.467 16.292c-2.493 0.271-4.568 1.832-5.56 3.993l-0.018 0.043c-0.012 0.021-0.023 0.046-0.030 0.072l-0 0.002c-0.364 0.81-0.576 1.756-0.576 2.752 0 0 0 0 0 0v0c0 0.064 0 0.132 0 0.195-0.001 0.009-0.001 0.019-0.001 0.029s0 0.020 0.001 0.030l-0-0.001c0 0.035 0.004 0.069 0.010 0.101l-0.001-0.003c0.056 1.089 0.358 2.097 0.85 2.984l-0.018-0.035c0.015 0.033 0.032 0.062 0.052 0.088l-0.001-0.001c1.090 1.906 3.017 3.227 5.266 3.467l0.030 0.003h1.436c2.275-0.248 4.195-1.569 5.266-3.438l0.018-0.034c0.016-0.024 0.031-0.051 0.045-0.080l0.002-0.005c0.473-0.847 0.774-1.849 0.831-2.915l0.001-0.017c0-0.030 0.003-0.057 0.003-0.088s0-0.060 0-0.090c0.003-0.064 0.003-0.132 0.003-0.196v0c0-0.057 0-0.115-0.003-0.172-0.025-0.939-0.232-1.822-0.587-2.626l0.017 0.044-0.031-0.071c-1.010-2.199-3.080-3.758-5.537-4.029l-0.031-0.003zM6.668 25.642h-1.667c-0.239-0.483-0.418-1.043-0.508-1.632l-0.004-0.032h1.963c0.040 0.619 0.117 1.189 0.23 1.746l-0.014-0.082zM4.788 21.169h1.792c-0.078 0.489-0.13 1.064-0.144 1.648l-0 0.016h-1.992c0.032-0.606 0.155-1.173 0.358-1.702l-0.013 0.038zM9.468 28.662c-0.388-0.263-0.756-0.739-1.066-1.386-0.075-0.156-0.141-0.32-0.206-0.483h1.272zM9.468 20.022h-1.444c0.12-0.391 0.25-0.72 0.403-1.036l-0.019 0.043c0.31-0.648 0.678-1.124 1.066-1.386v2.379zM9.468 22.832h-1.886c0.018-0.602 0.079-1.175 0.179-1.735l-0.011 0.071h1.718zM9.468 23.98v1.664h-1.617c-0.113-0.477-0.201-1.046-0.244-1.627l-0.002-0.037zM10.905 26.796h1.28c-0.064 0.168-0.132 0.33-0.206 0.483-0.31 0.655-0.682 1.131-1.073 1.394v-1.88zM12.528 25.644h-1.623v-1.664h1.869c-0.044 0.616-0.131 1.184-0.261 1.736l0.015-0.074zM10.905 22.833v-1.664h1.728c0.091 0.49 0.151 1.063 0.168 1.648l0 0.016zM10.905 20.023v-2.387c0.388 0.264 0.763 0.739 1.073 1.394 0.134 0.273 0.264 0.602 0.37 0.942l0.014 0.051h-1.457zM7.46 18.329c-0.254 0.484-0.475 1.047-0.631 1.636l-0.013 0.058h-1.452c0.57-0.865 1.34-1.554 2.247-2.012l0.033-0.015c-0.064 0.108-0.128 0.219-0.186 0.333zM6.968 26.795c0.15 0.463 0.317 0.856 0.513 1.231l-0.021-0.044c0.060 0.115 0.122 0.225 0.186 0.33-0.756-0.379-1.391-0.89-1.902-1.508l-0.008-0.010zM12.74 28.3c0.064-0.105 0.122-0.209 0.18-0.32 0.177-0.333 0.344-0.726 0.477-1.134l0.015-0.054h1.216c-0.512 0.623-1.14 1.13-1.855 1.491l-0.033 0.015zM13.713 25.644c0.102-0.48 0.178-1.051 0.211-1.633l0.001-0.031h1.947c-0.093 0.621-0.272 1.181-0.527 1.697l0.015-0.033zM13.952 22.831v-0.006c0-0.064 0-0.128-0.006-0.192 0-0.033 0-0.068 0-0.105 0-0.024-0.003-0.047-0.003-0.074-0.024-0.438-0.068-0.87-0.132-1.286h1.775c0.185 0.49 0.308 1.057 0.344 1.648l0.001 0.016h-1.978zM13.568 20.021c-0.169-0.647-0.39-1.21-0.666-1.74l0.022 0.045c-0.058-0.111-0.118-0.22-0.18-0.32 0.932 0.473 1.696 1.159 2.248 1.996l0.013 0.022h-1.437z"></path>
<path d="M28.55 7.771l-2.211-2.211c-0.1-0.099-0.239-0.161-0.391-0.161h-9.414c-0.305 0-0.553 0.248-0.553 0.553 0 0 0 0 0 0.001v-0 11.625c0 0.305 0.248 0.553 0.553 0.553h11.626c0.305-0 0.553-0.248 0.553-0.553v-9.415c-0.002-0.152-0.064-0.29-0.163-0.391l0 0zM19.789 7.009c0.001-0.157 0.128-0.283 0.284-0.284h4.549c0.157 0.001 0.283 0.128 0.284 0.284v2.402c-0 0.157-0.127 0.284-0.284 0.285h-4.549c-0.157-0.001-0.284-0.128-0.284-0.285v-0zM26.452 16.968h-8.209v-5.165c0-0.283 0.229-0.512 0.512-0.512v0h7.186c0.283 0 0.512 0.229 0.512 0.512v0z"></path>
</svg>
