<!-- Generated by IcoMoon.io -->
<svg version="1.1" xmlns="http://www.w3.org/2000/svg" width="32" height="32" viewBox="0 0 32 32">
<title>col_hide_selected</title>
<path d="M5.283 32c-0.555-0-1.004-0.45-1.005-1.005v-29.99c0-0.555 0.45-1.004 1.005-1.005h12.175c0.555 0 1.004 0.45 1.005 1.005v6.099c-0.001 0.366-0.297 0.663-0.664 0.663h-0.681c-0.366-0-0.663-0.297-0.664-0.663v-5.094h-10.167v27.982h10.167v-5.096c0.001-0.366 0.297-0.663 0.664-0.663h0.681c0.366 0 0.663 0.297 0.664 0.663v6.099c-0 0.555-0.45 1.004-1.005 1.005h-0z"></path>
<path d="M25.914 8.409l-0.783-0.784c-0.221-0.221-0.63-0.188-0.886 0.12l-2.726 2.709c-1.226-0.528-2.573-0.784-3.987-0.784-4.209 0.017-7.855 2.471-9.61 5.998-0.048 0.1-0.076 0.217-0.076 0.341s0.028 0.241 0.079 0.346l-0.002-0.005c0.838 1.679 2.054 3.058 3.542 4.066l0.037 0.024-2.232 2.266c-0.256 0.256-0.29 0.664-0.12 0.886l0.784 0.784c0.221 0.221 0.63 0.188 0.886-0.12l14.96-14.961c0.324-0.255 0.358-0.664 0.136-0.886zM18.432 13.555c-0.289-0.068-0.596-0.153-0.886-0.153-0.003 0-0.007-0-0.011-0-1.434 0-2.596 1.162-2.596 2.596 0 0.004 0 0.008 0 0.012v-0.001c0.011 0.321 0.066 0.624 0.161 0.91l-0.007-0.023-1.142 1.123c-0.332-0.569-0.528-1.252-0.528-1.981 0-0.011 0-0.021 0-0.032v0.002c0-0.003 0-0.006 0-0.010 0-2.253 1.826-4.079 4.079-4.079 0.004 0 0.007 0 0.011 0h-0.001c0.010-0 0.021-0 0.032-0 0.728 0 1.41 0.196 1.997 0.538l-0.019-0.010z"></path>
<path d="M27.14 15.668c-0.596-1.193-1.38-2.266-2.351-3.136l-3.169 3.136v0.34c0 0.003 0 0.006 0 0.010 0 2.253-1.827 4.080-4.080 4.080-0.003 0-0.007 0-0.010 0h-0.34l-2.011 2.011c0.689 0.154 1.483 0.247 2.297 0.256l0.007 0c4.209 0 7.855-2.454 9.61-5.998 0.076-0.109 0.121-0.244 0.121-0.39 0-0.113-0.027-0.219-0.075-0.313l0.002 0.004z"></path>
</svg>
