<!-- Generated by IcoMoon.io -->
<svg version="1.1" xmlns="http://www.w3.org/2000/svg" width="32" height="32" viewBox="0 0 32 32">
<title>col_save_layout_2</title>
<path d="M0.87 29.863c-0.481-0.001-0.87-0.39-0.87-0.871v-25.984c0.001-0.48 0.39-0.87 0.87-0.87h10.549c0.48 0.002 0.868 0.391 0.868 0.87v4.561c0 0.318-0.258 0.576-0.576 0.576v0h-0.59c-0.318 0-0.576-0.258-0.576-0.576v0-3.691h-8.805v24.244h8.809v-3.692c0-0.318 0.258-0.576 0.576-0.576v0h0.586c0.318 0 0.576 0.258 0.576 0.576v0 4.561c0 0.481-0.39 0.87-0.87 0.871v0z"></path>
<path d="M17.523 12.172c-0.017-0.024-0.035-0.045-0.054-0.064v0l-0.744-0.746-1.412-1.412c-0.099-0.097-0.234-0.157-0.384-0.157 0 0 0 0 0 0h-9.176c-0.298 0-0.54 0.242-0.54 0.54v0 11.335c0 0 0 0 0 0.001 0 0.298 0.242 0.54 0.54 0.54h11.336c0 0 0 0 0.001 0 0.298 0 0.539-0.241 0.539-0.539 0 0 0 0 0 0v0-9.181c-0.002-0.119-0.041-0.228-0.106-0.317l0.001 0.002zM8.925 11.364c0.001-0.153 0.125-0.277 0.278-0.277h4.435c0.153 0 0.277 0.124 0.278 0.277v2.342c-0.001 0.153-0.125 0.277-0.278 0.277h-4.435c-0.153 0-0.277-0.124-0.278-0.277v0zM15.424 21.075h-8.006v-5.037c0.001-0.275 0.223-0.498 0.498-0.499h7.007c0.275 0.001 0.497 0.224 0.499 0.499v0z"></path>
<path d="M24.67 2.137c-2.397 0.26-4.391 1.76-5.345 3.838l-0.017 0.041c-0.012 0.021-0.022 0.045-0.028 0.070v0.002c-0.348 0.777-0.551 1.685-0.551 2.64 0 0.002 0 0.005 0 0.007v0c0 0.064 0 0.128 0 0.188-0.001 0.008-0.001 0.018-0.001 0.028s0 0.019 0.001 0.029v-0.001c0 0.001 0 0.001 0 0.002 0 0.033 0.003 0.064 0.009 0.095l-0.001-0.003c0.054 1.047 0.345 2.016 0.818 2.868l-0.017-0.034c0.014 0.032 0.031 0.060 0.049 0.086l-0.001-0.001c1.048 1.83 2.897 3.099 5.057 3.331l0.029 0.003h1.38c2.187-0.238 4.033-1.508 5.063-3.306l0.017-0.032c0.015-0.023 0.030-0.049 0.044-0.076l0.002-0.004c0.454-0.813 0.744-1.775 0.801-2.799l0.001-0.017c0-0.029 0-0.055 0-0.084s0.003-0.058 0.003-0.088c0-0.061 0-0.128 0-0.188v0c0-0.055 0-0.11 0-0.165-0.023-0.903-0.221-1.754-0.562-2.528l0.017 0.043c-0.010-0.022-0.020-0.045-0.029-0.068-0.972-2.115-2.962-3.613-5.325-3.873l-0.030-0.003zM21.979 11.124h-1.6c-0.229-0.464-0.401-1.003-0.486-1.569l-0.004-0.031h1.885c0.037 0.594 0.11 1.143 0.218 1.679l-0.013-0.079zM20.172 6.824h1.722c-0.076 0.471-0.126 1.024-0.139 1.586v0.014h-1.915c0.031-0.583 0.15-1.128 0.344-1.637l-0.012 0.037zM24.671 14.028c-0.372-0.256-0.726-0.71-1.024-1.333-0.072-0.149-0.136-0.305-0.198-0.464h1.223zM24.671 5.721h-1.388c0.114-0.376 0.238-0.692 0.384-0.995l-0.018 0.042c0.298-0.623 0.652-1.080 1.024-1.332v2.286zM24.671 8.423h-1.813c0.018-0.579 0.076-1.13 0.172-1.669l-0.010 0.069h1.651zM24.671 9.526v1.6h-1.554c-0.109-0.459-0.193-1.006-0.235-1.564l-0.002-0.036zM26.053 12.231h1.229c-0.064 0.162-0.128 0.32-0.198 0.464-0.298 0.629-0.655 1.088-1.032 1.34v-1.804zM27.613 11.124h-1.56v-1.6h1.796c-0.042 0.592-0.126 1.139-0.251 1.67l0.014-0.070zM26.053 8.423v-1.6h1.659c0.087 0.471 0.146 1.022 0.162 1.585v0.015zM26.053 5.721v-2.292c0.372 0.256 0.732 0.71 1.032 1.34 0.128 0.262 0.252 0.578 0.353 0.905l0.013 0.049h-1.398zM22.74 4.096c-0.244 0.465-0.456 1.006-0.607 1.572l-0.013 0.056h-1.395c0.548-0.832 1.288-1.496 2.161-1.937l0.032-0.015c-0.064 0.104-0.12 0.211-0.179 0.32zM22.268 12.234c0.144 0.445 0.305 0.823 0.493 1.184l-0.020-0.042c0.058 0.11 0.118 0.217 0.179 0.32-0.726-0.365-1.338-0.856-1.829-1.45l-0.008-0.009zM27.818 13.681c0.058-0.1 0.117-0.202 0.172-0.308 0.171-0.32 0.331-0.698 0.459-1.091l0.014-0.051h1.169c-0.492 0.599-1.096 1.086-1.783 1.433l-0.031 0.014zM28.751 11.128c0.098-0.461 0.171-1.010 0.203-1.569l0.001-0.031h1.871c-0.088 0.597-0.26 1.136-0.505 1.632l0.014-0.032zM28.979 8.426v-0.006c0-0.061-0.003-0.124-0.006-0.184 0-0.033-0.003-0.064-0.003-0.101 0-0.022 0-0.045 0-0.072-0.023-0.421-0.064-0.836-0.128-1.236h1.706c0.178 0.471 0.297 1.017 0.331 1.585l0.001 0.015h-1.901zM28.608 5.721c-0.163-0.62-0.374-1.161-0.639-1.669l0.021 0.044c-0.055-0.107-0.113-0.211-0.172-0.308 0.897 0.455 1.631 1.114 2.163 1.919l0.013 0.021h-1.386z"></path>
</svg>
