<svg version="1.1" xmlns="http://www.w3.org/2000/svg" width="32" height="32" viewBox="0 0 32 32">
<title>col_operations</title>
<path d="M6.493 32c-0.555-0-1.004-0.45-1.005-1.005v-29.99c0-0.555 0.45-1.004 1.005-1.005h12.175c0.555 0.001 1.004 0.45 1.004 1.005v4.431c-0 0.367-0.298 0.664-0.664 0.664-0 0-0 0-0.001 0h-0.68c-0.367 0-0.664-0.297-0.664-0.664v-3.427h-10.166v27.982h10.166v-3.428c0-0.366 0.297-0.663 0.663-0.664h0.681c0.366 0.001 0.663 0.297 0.663 0.664v4.431c-0 0.554-0.449 1.003-1.002 1.005h-0z"></path>
<path d="M26.438 14.895c-0.034-0.27-0.243-0.483-0.509-0.523l-0.003-0-1.554-0.209c-0.115-0.373-0.245-0.691-0.4-0.995l0.016 0.035 0.956-1.28c0.077-0.103 0.123-0.233 0.123-0.374 0-0.139-0.045-0.267-0.12-0.371l0.001 0.002c-0.442-0.594-0.944-1.108-1.506-1.548l-0.018-0.013c-0.098-0.077-0.223-0.124-0.359-0.124-0.138 0-0.265 0.048-0.365 0.129l0.001-0.001-1.242 0.982c-0.262-0.143-0.571-0.278-0.892-0.385l-0.041-0.012-0.202-1.6c-0.032-0.271-0.24-0.485-0.505-0.527l-0.003-0c-0.323-0.049-0.695-0.077-1.074-0.077s-0.751 0.028-1.115 0.082l0.041-0.005c-0.268 0.043-0.476 0.257-0.509 0.526l-0 0.003-0.202 1.6c-0.363 0.12-0.672 0.255-0.967 0.413l0.032-0.016-1.244-0.983c-0.099-0.079-0.225-0.127-0.363-0.127-0.136 0-0.26 0.046-0.359 0.124l0.001-0.001c-0.577 0.454-1.077 0.968-1.503 1.54l-0.015 0.021c-0.076 0.103-0.121 0.232-0.121 0.371s0.046 0.269 0.123 0.373l-0.001-0.002 0.96 1.28c-0.141 0.27-0.273 0.59-0.377 0.921l-0.012 0.043-1.554 0.209c-0.269 0.040-0.478 0.253-0.512 0.521l-0 0.003c-0.047 0.331-0.074 0.714-0.074 1.103s0.027 0.772 0.079 1.146l-0.005-0.043c0.034 0.271 0.243 0.484 0.509 0.523l0.003 0 1.556 0.21c0.116 0.375 0.248 0.694 0.405 0.998l-0.016-0.034-0.955 1.28c-0.078 0.103-0.124 0.233-0.124 0.374 0 0.139 0.045 0.267 0.122 0.371l-0.001-0.002c0.441 0.593 0.941 1.107 1.5 1.548l0.017 0.013c0.098 0.077 0.223 0.123 0.359 0.123 0.138 0 0.264-0.048 0.364-0.127l-0.001 0.001 1.244-0.983c0.264 0.147 0.573 0.282 0.895 0.389l0.039 0.011 0.203 1.6c0.032 0.273 0.242 0.488 0.509 0.528l0.003 0c0.322 0.048 0.695 0.076 1.073 0.076h0c0.379-0.001 0.75-0.029 1.113-0.081l-0.042 0.005c0.27-0.041 0.48-0.256 0.512-0.526l0-0.003 0.204-1.6c0.363-0.12 0.671-0.255 0.965-0.413l-0.032 0.016 1.242 0.983c0.098 0.078 0.224 0.125 0.361 0.125s0.263-0.047 0.363-0.126l-0.001 0.001c0.58-0.452 1.081-0.966 1.506-1.539l0.015-0.021c0.074-0.102 0.119-0.23 0.119-0.369 0-0.141-0.046-0.271-0.124-0.376l0.001 0.002-0.956-1.28c0.139-0.269 0.269-0.587 0.372-0.917l0.012-0.043 1.554-0.211c0.268-0.041 0.477-0.253 0.512-0.52l0-0.003c0.045-0.327 0.071-0.704 0.071-1.087 0-0.397-0.028-0.787-0.081-1.17l0.005 0.044zM18.74 19.348c-1.792 0-3.255-1.501-3.255-3.35s1.459-3.348 3.255-3.348 3.254 1.502 3.254 3.348-1.461 3.35-3.254 3.35z"></path>
</svg>
