<!-- Generated by IcoMoon.io -->
<svg version="1.1" xmlns="http://www.w3.org/2000/svg" width="32" height="32" viewBox="0 0 32 32">
<title>col_hide_unselected</title>
<path d="M15.783 32c-0.54 0-0.978-0.438-0.978-0.978s0.438-0.978 0.978-0.978h1.862c0.003 0 0.006 0 0.010 0 0.54 0 0.978 0.438 0.978 0.978 0 0.537-0.432 0.973-0.968 0.978h-1.881zM10.824 32c-0.54 0-0.978-0.438-0.978-0.978s0.438-0.978 0.978-0.978h1.86c0.54 0 0.978 0.438 0.978 0.978s-0.438 0.978-0.978 0.978v0zM5.864 32c-0.54 0-0.978-0.438-0.978-0.978s0.438-0.978 0.978-0.978h1.86c0.54 0 0.978 0.438 0.978 0.978s-0.438 0.978-0.978 0.978v0zM5.538 29.199c-0.539 0-0.976-0.437-0.978-0.975v-1.863c0-0.54 0.438-0.978 0.978-0.978s0.978 0.438 0.978 0.978v0 1.862c-0.002 0.539-0.439 0.975-0.978 0.975v0zM17.706 28.934c-0.54-0.001-0.977-0.438-0.978-0.978v-1.86c0-0.54 0.438-0.978 0.978-0.978s0.978 0.438 0.978 0.978v0 1.86c-0.001 0.54-0.438 0.977-0.978 0.978v0zM5.538 24.24c-0.54-0.001-0.978-0.439-0.978-0.979v-1.86c0-0.54 0.438-0.978 0.978-0.978s0.978 0.438 0.978 0.978v0 1.86c-0.001 0.54-0.438 0.977-0.978 0.979v0zM5.538 19.28c-0.539-0.001-0.976-0.437-0.978-0.976v-1.862c0-0.54 0.438-0.978 0.978-0.978s0.978 0.438 0.978 0.978v1.862c-0.002 0.539-0.439 0.975-0.978 0.976v0zM5.538 14.32c-0.54 0-0.978-0.438-0.978-0.978v-1.86c0-0.54 0.438-0.978 0.978-0.978s0.978 0.438 0.978 0.978v0 1.86c-0.001 0.54-0.438 0.977-0.978 0.978v0zM5.538 9.361c-0.539-0.001-0.976-0.437-0.978-0.976v-1.861c0-0.54 0.438-0.978 0.978-0.978s0.978 0.438 0.978 0.978v1.861c-0.001 0.539-0.439 0.976-0.978 0.977v0zM17.706 9.096c-0.54-0.001-0.977-0.438-0.978-0.978v-1.861c0-0.54 0.438-0.978 0.978-0.978s0.978 0.438 0.978 0.978v0 1.86c-0.001 0.54-0.438 0.977-0.978 0.978v0zM5.538 4.401c-0.54 0-0.978-0.438-0.978-0.978v-1.86c0-0.54 0.438-0.978 0.978-0.978s0.978 0.438 0.978 0.978v0 1.86c-0.001 0.54-0.438 0.977-0.978 0.978v0zM17.706 4.136c-0.54-0.001-0.977-0.438-0.978-0.978v-1.86c0-0.54 0.438-0.978 0.978-0.978s0.978 0.438 0.978 0.978v0 1.86c0 0.54-0.438 0.978-0.978 0.978v0zM13.039 1.956c-0.54 0-0.978-0.438-0.978-0.978s0.438-0.978 0.978-0.978v0h1.86c0.54 0 0.978 0.438 0.978 0.978s-0.438 0.978-0.978 0.978v0zM8.079 1.956c-0.54 0-0.978-0.438-0.978-0.978s0.438-0.978 0.978-0.978v0h1.86c0.54 0 0.978 0.438 0.978 0.978s-0.438 0.978-0.978 0.978v0z"></path>
<path d="M26.142 8.409l-0.784-0.784c-0.221-0.221-0.63-0.188-0.886 0.12l-2.726 2.709c-1.227-0.528-2.573-0.784-3.987-0.784-4.209 0.017-7.855 2.471-9.61 5.998-0.049 0.1-0.077 0.217-0.077 0.341s0.028 0.241 0.079 0.346l-0.002-0.005c0.838 1.678 2.053 3.058 3.541 4.066l0.037 0.024-2.232 2.266c-0.256 0.256-0.289 0.664-0.119 0.886l0.784 0.784c0.221 0.221 0.63 0.188 0.886-0.12l14.961-14.961c0.324-0.255 0.358-0.664 0.136-0.886zM18.662 13.555c-0.289-0.068-0.596-0.153-0.886-0.153-0.003 0-0.007 0-0.012 0-1.434 0-2.596 1.162-2.596 2.596 0 0.004 0 0.007 0 0.011v-0.001c0.011 0.32 0.066 0.623 0.16 0.909l-0.007-0.023-1.142 1.124c-0.332-0.569-0.528-1.252-0.528-1.981 0-0.011 0-0.021 0-0.032v0.002c0-0.003 0-0.007 0-0.010 0-2.253 1.826-4.079 4.079-4.079 0.004 0 0.007 0 0.011 0h-0.001c0.009 0 0.021 0 0.032 0 0.728 0 1.411 0.196 1.998 0.538l-0.019-0.010z"></path>
<path d="M27.369 15.668c-0.596-1.193-1.38-2.266-2.351-3.136l-3.169 3.136v0.34c0 0.003 0 0.006 0 0.010 0 2.253-1.827 4.080-4.080 4.080-0.003 0-0.007 0-0.010 0h-0.34l-2.011 2.011c0.688 0.154 1.48 0.247 2.293 0.256h0.007c4.209 0 7.855-2.454 9.61-5.998 0.077-0.11 0.123-0.246 0.123-0.393 0-0.111-0.026-0.217-0.073-0.31l0.002 0.004z"></path>
</svg>
