<!-- Generated by IcoMoon.io -->
<svg version="1.1" xmlns="http://www.w3.org/2000/svg" width="32" height="32" viewBox="0 0 32 32">
<title>collection_add</title>
<path d="M2.768 29.854c-1.528-0.001-2.766-1.239-2.768-2.767v-22.174c0.002-1.528 1.24-2.766 2.768-2.767h7.152c0.876 0 1.536 0.474 1.93 0.871 0.648 0.657 1.201 1.553 1.736 2.423 0.363 0.588 0.737 1.194 1.135 1.716h14.511c1.527 0.001 2.764 1.238 2.768 2.764v17.167c-0.002 1.528-1.24 2.766-2.768 2.767h-0zM2.768 4.105c-0.005-0-0.012-0-0.018-0-0.437 0-0.791 0.354-0.791 0.791 0 0.006 0 0.012 0 0.018l-0-0.001v22.173c-0 0.005-0 0.011-0 0.017 0 0.437 0.354 0.791 0.791 0.791 0.006 0 0.013-0 0.019-0l-0.001 0h26.464c0.005 0 0.012 0 0.018 0 0.437 0 0.791-0.354 0.791-0.791 0-0.006-0-0.012-0-0.018l0 0.001v-17.167c0-0.005 0-0.011 0-0.018 0-0.437-0.354-0.791-0.791-0.791-0.006 0-0.013 0-0.019 0l0.001-0h-15.020c-0.339-0.004-0.636-0.178-0.811-0.44l-0.002-0.004c-0.252-0.378-0.502-0.762-0.744-1.133-0.724-1.112-1.408-2.162-2.193-3.149-0.237-0.235-0.378-0.281-0.54-0.281z"></path>
<path d="M16 11.247c-0 0-0 0-0.001 0-4.006 0-7.254 3.248-7.254 7.254s3.248 7.254 7.254 7.254c4.006 0 7.254-3.248 7.254-7.254v0c-0.005-4.004-3.249-7.249-7.253-7.254h-0zM20.029 19.247h-3.284v3.281c0 0.411-0.334 0.745-0.745 0.745s-0.745-0.334-0.745-0.745v0-3.283h-3.284c-0.007 0-0.014 0-0.022 0-0.411 0-0.745-0.334-0.745-0.745s0.334-0.745 0.745-0.745c0.008 0 0.015 0 0.023 0l-0.001-0h3.284v-3.285c0-0.411 0.334-0.745 0.745-0.745s0.745 0.334 0.745 0.745v0 3.285h3.287c0.006-0 0.014-0 0.022-0 0.411 0 0.745 0.334 0.745 0.745s-0.334 0.745-0.745 0.745c-0.008 0-0.015-0-0.023-0l0.001 0z"></path>
</svg>
