<!-- Generated by IcoMoon.io -->
<svg version="1.1" xmlns="http://www.w3.org/2000/svg" width="32" height="32" viewBox="0 0 32 32">
<title>collapse_close_all</title>
<path d="M3.188 14.8h25.625c0.656 0 1.194 0.531 1.194 1.194 0 0.656-0.531 1.194-1.194 1.194h-25.625c-0.656 0-1.194-0.531-1.194-1.194s0.538-1.194 1.194-1.194z"></path>
<path d="M8.544 4.881l6.594 7.7c0.106 0.125 0.238 0.225 0.387 0.294s0.313 0.106 0.475 0.106c0.162 0 0.325-0.037 0.475-0.106s0.281-0.169 0.387-0.294l6.594-7.7c0.631-0.737 0.106-1.869-0.863-1.869h-13.194c-0.963 0-1.487 1.137-0.856 1.869z"></path>
<path d="M23.456 27.106l-6.6-7.694c-0.106-0.125-0.238-0.225-0.387-0.294s-0.313-0.106-0.475-0.106-0.325 0.038-0.475 0.106c-0.15 0.069-0.281 0.169-0.387 0.294l-6.588 7.694c-0.631 0.738-0.106 1.869 0.863 1.869h13.194c0.962 0.006 1.488-1.131 0.856-1.869z"></path>
</svg>
