<!-- Generated by IcoMoon.io -->
<svg version="1.1" xmlns="http://www.w3.org/2000/svg" width="32" height="32" viewBox="0 0 32 32">
<title>collection_add_2</title>
<path d="M2.792 32c-1.541-0.002-2.79-1.251-2.792-2.791v-9.996c0.002-1.541 1.251-2.79 2.792-2.792h9.996c1.541 0.002 2.79 1.251 2.792 2.791v9.996c-0.002 1.541-1.251 2.79-2.792 2.792v0zM2.792 18.432c-0.008 0-0.017 0-0.026 0-0.416 0-0.753 0.337-0.753 0.753 0 0.010 0 0.020 0.001 0.030v-0.001 9.996c0 0.008 0 0.017 0 0.026 0 0.416 0.337 0.753 0.753 0.753 0.009 0 0.018 0 0.027 0h9.995c0.009 0 0.019 0.001 0.029 0.001 0.416 0 0.753-0.337 0.753-0.753 0-0.009 0-0.018-0.001-0.027v0.001-9.996c0-0.008 0.001-0.018 0.001-0.028 0-0.416-0.337-0.753-0.753-0.753-0.010 0-0.020 0-0.029 0.001h0.001zM24.2 29.88c-0.552-0.006-0.997-0.455-0.997-1.008 0-0.003 0-0.006 0-0.009v0-3.648h-3.634c-0.021 0-0.038 0-0.056 0s-0.035 0-0.052 0c-0.534-0.028-0.957-0.468-0.957-1.007 0-0.557 0.451-1.008 1.008-1.008 0 0 0 0 0 0v0c0.018 0 0.036 0 0.054 0h3.637v-3.631c0-0.005 0-0.010 0-0.015 0-0.551 0.443-1 0.992-1.009h0.016c0.55 0.003 0.996 0.445 1.005 0.994v3.664h3.648c0.002 0 0.005 0 0.007 0 0.556 0 1.007 0.451 1.007 1.007 0 0.554-0.447 1.003-0.999 1.007h-3.662v3.634c0 0.007 0 0.015 0 0.023 0 0.549-0.439 0.995-0.985 1.006h-0.032zM19.213 15.579c-1.541-0.002-2.79-1.251-2.792-2.791v-9.996c0.002-1.541 1.251-2.79 2.791-2.792h9.996c1.541 0.002 2.79 1.251 2.792 2.792v9.996c-0.002 1.541-1.251 2.79-2.791 2.792v0zM19.213 2.011c-0.009 0-0.019-0.001-0.029-0.001-0.416 0-0.753 0.337-0.753 0.753 0 0.010 0 0.020 0.001 0.030v-0.001 9.996c0 0.008-0.001 0.018-0.001 0.028 0 0.416 0.337 0.753 0.753 0.753 0.010 0 0.020 0 0.029-0.001h9.995c0.008 0 0.017 0 0.026 0 0.416 0 0.753-0.337 0.753-0.753 0-0.009 0-0.018 0-0.027v0.001-9.998c0-0.008 0-0.017 0-0.026 0-0.416-0.337-0.753-0.753-0.753-0.009 0-0.018 0-0.027 0.001h0.001zM2.792 15.579c-1.541-0.002-2.79-1.251-2.792-2.791v-9.996c0.002-1.541 1.251-2.79 2.792-2.792h9.996c1.541 0.002 2.79 1.251 2.792 2.792v9.996c-0.002 1.541-1.251 2.79-2.792 2.792v0zM2.792 2.011c-0.008 0-0.017 0-0.026 0-0.416 0-0.753 0.337-0.753 0.753 0 0.010 0 0.020 0.001 0.030v-0.001 9.996c0 0.009-0.001 0.019-0.001 0.029 0 0.416 0.337 0.753 0.753 0.753 0.009 0 0.018 0 0.027-0.001h9.995c0.008 0 0.018 0.001 0.028 0.001 0.416 0 0.753-0.337 0.753-0.753 0-0.010 0-0.020-0.001-0.029v0.001-9.996c0-0.008 0-0.017 0-0.026 0-0.416-0.337-0.753-0.753-0.753-0.010 0-0.020 0-0.030 0.001h0.001z"></path>
</svg>
