<svg version="1.1" xmlns="http://www.w3.org/2000/svg" width="32" height="32" viewBox="0 0 32 32">
<title>collection_add_3</title>
<path d="M24.211 16.42c-0 0-0 0-0.001 0-4.302 0-7.79 3.488-7.79 7.79s3.488 7.79 7.79 7.79c4.302 0 7.79-3.487 7.79-7.789v-0c-0.005-4.3-3.489-7.785-7.789-7.791h-0.001zM28.538 25.011h-3.527v3.526c0 0.442-0.358 0.8-0.8 0.8s-0.8-0.358-0.8-0.8v0-3.526h-3.526c-0.442 0-0.8-0.358-0.8-0.8s0.358-0.8 0.8-0.8v0h3.526v-3.527c0-0.442 0.358-0.8 0.8-0.8s0.8 0.358 0.8 0.8v0 3.528h3.527c0.442 0 0.8 0.358 0.8 0.8s-0.358 0.8-0.8 0.8v0z"></path>
<path d="M2.792 32c-1.541-0.002-2.79-1.251-2.792-2.791v-9.996c0.002-1.541 1.251-2.79 2.792-2.792h9.996c1.541 0.002 2.79 1.251 2.792 2.791v9.996c-0.002 1.541-1.251 2.79-2.792 2.792h-0zM2.792 18.432c-0.008-0-0.017-0-0.026-0-0.416 0-0.753 0.337-0.753 0.753 0 0.010 0 0.020 0.001 0.030l-0-0.001v9.996c-0 0.008-0 0.017-0 0.026 0 0.416 0.337 0.753 0.753 0.753 0.009 0 0.018-0 0.027-0l-0.001 0h9.996c0.009 0 0.019 0.001 0.029 0.001 0.416 0 0.753-0.337 0.753-0.753 0-0.009-0-0.018-0.001-0.027l0 0.001v-9.996c0-0.008 0.001-0.018 0.001-0.028 0-0.416-0.337-0.753-0.753-0.753-0.010 0-0.020 0-0.029 0.001l0.001-0zM19.213 15.579c-1.541-0.002-2.79-1.251-2.792-2.791v-9.996c0.002-1.541 1.251-2.79 2.791-2.792h9.996c1.541 0.002 2.79 1.251 2.792 2.792v9.996c-0.002 1.541-1.251 2.79-2.791 2.792h-0zM19.213 2.011c-0.009-0-0.019-0.001-0.029-0.001-0.416 0-0.753 0.337-0.753 0.753 0 0.010 0 0.020 0.001 0.030l-0-0.001v9.996c-0 0.008-0.001 0.018-0.001 0.028 0 0.416 0.337 0.753 0.753 0.753 0.010 0 0.020-0 0.029-0.001l-0.001 0h9.996c0.008 0 0.017 0 0.026 0 0.416 0 0.753-0.337 0.753-0.753 0-0.009-0-0.018-0-0.027l0 0.001v-9.998c0-0.008 0-0.017 0-0.026 0-0.416-0.337-0.753-0.753-0.753-0.009 0-0.018 0-0.027 0.001l0.001-0zM2.792 15.579c-1.541-0.002-2.79-1.251-2.792-2.791v-9.996c0.002-1.541 1.251-2.79 2.792-2.792h9.996c1.541 0.002 2.79 1.251 2.792 2.792v9.996c-0.002 1.541-1.251 2.79-2.792 2.792h-0zM2.792 2.011c-0.008-0-0.017-0-0.026-0-0.416 0-0.753 0.337-0.753 0.753 0 0.010 0 0.020 0.001 0.030l-0-0.001v9.996c-0 0.009-0.001 0.019-0.001 0.029 0 0.416 0.337 0.753 0.753 0.753 0.009 0 0.018-0 0.027-0.001l-0.001 0h9.996c0.008 0 0.018 0.001 0.028 0.001 0.416 0 0.753-0.337 0.753-0.753 0-0.010-0-0.020-0.001-0.029l0 0.001v-9.996c0-0.008 0-0.017 0-0.026 0-0.416-0.337-0.753-0.753-0.753-0.010 0-0.020 0-0.030 0.001l0.001-0z"></path>
</svg>
