<!-- Generated by IcoMoon.io -->
<svg version="1.1" xmlns="http://www.w3.org/2000/svg" width="32" height="32" viewBox="0 0 32 32">
<title>color_wheel_rgb</title>
<path d="M24.4 12.5c0-0.3 0.1-0.7 0.1-1 0-4.7-3.8-8.5-8.5-8.5s-8.5 3.8-8.5 8.5c0 0.3 0 0.7 0.1 1-3.2 1.2-5.6 4.3-5.6 8 0 4.7 3.8 8.5 8.5 8.5 2.1 0 4-0.8 5.5-2 1.5 1.3 3.4 2 5.5 2 4.7 0 8.5-3.8 8.5-8.5 0-3.7-2.3-6.8-5.6-8zM9.5 11.5c0-3.6 2.9-6.5 6.5-6.5s6.5 2.9 6.5 6.5c0 0.2 0 0.4 0 0.6-0.3 0-0.6-0.1-1-0.1-2.1 0-4 0.8-5.5 2-1.5-1.3-3.4-2-5.5-2-0.3 0-0.7 0-1 0.1 0-0.2 0-0.4 0-0.6zM17 20.5c0 1.3-0.4 2.4-1 3.4-0.6-1-1-2.2-1-3.4 0-0.2 0-0.4 0-0.6 0.3 0 0.6 0.1 1 0.1s0.7 0 1-0.1c0 0.2 0 0.4 0 0.6zM16 18c-0.2 0-0.3 0-0.5 0 0.1-0.3 0.3-0.6 0.5-0.9 0.2 0.3 0.4 0.6 0.5 0.9-0.2 0-0.3 0-0.5 0zM13.6 17.5c-1.6-0.6-2.9-1.9-3.6-3.5 0.2 0 0.3 0 0.5 0 1.6 0 3 0.6 4.1 1.5-0.4 0.6-0.8 1.3-1 2zM17.4 15.5c1.1-0.9 2.6-1.5 4.1-1.5 0.2 0 0.3 0 0.5 0-0.7 1.6-1.9 2.8-3.5 3.5-0.3-0.7-0.7-1.4-1.1-2zM4 20.5c0-2.7 1.7-5 4.1-6 0.9 2.3 2.7 4.1 5 5 0 0.3-0.1 0.7-0.1 1 0 1.9 0.6 3.6 1.6 5-1.1 0.9-2.6 1.5-4.1 1.5-3.6 0-6.5-2.9-6.5-6.5zM21.5 27c-1.6 0-3-0.6-4.1-1.5 1-1.4 1.6-3.1 1.6-5 0-0.3 0-0.7-0.1-1 2.3-0.9 4.2-2.7 5-5 2.4 1 4.1 3.3 4.1 6 0 3.6-2.9 6.5-6.5 6.5z"></path>
</svg>
