<svg version="1.1" xmlns="http://www.w3.org/2000/svg" width="32" height="32" viewBox="0 0 32 32">
<title>color_wheel_rgb</title>
<path d="M9.939 30.909c-5.299 0-9.611-4.313-9.611-9.612s4.311-9.611 9.611-9.611c5.3 0 9.612 4.311 9.612 9.611s-4.312 9.612-9.612 9.612zM9.939 13.019c-4.564 0-8.277 3.714-8.277 8.277 0 4.565 3.713 8.279 8.277 8.279s8.279-3.714 8.279-8.279c0-4.564-3.714-8.277-8.279-8.277z"></path>
<path d="M22.059 30.909c-5.299 0-9.612-4.313-9.612-9.612s4.313-9.611 9.612-9.611 9.611 4.311 9.611 9.611-4.311 9.612-9.611 9.612zM22.059 13.019c-4.565 0-8.279 3.714-8.279 8.277 0 4.565 3.714 8.279 8.279 8.279 4.564 0 8.277-3.714 8.277-8.279 0-4.564-3.713-8.277-8.277-8.277z"></path>
<path d="M16.013 20.285c-5.299 0-9.611-4.312-9.611-9.612s4.312-9.611 9.611-9.611 9.611 4.311 9.611 9.611c0.001 2.563-1 4.976-2.818 6.794-1.816 1.816-4.229 2.818-6.793 2.818zM16.013 2.396c-4.564 0-8.278 3.713-8.278 8.277s3.714 8.279 8.278 8.279c2.207 0 4.285-0.862 5.85-2.428 1.566-1.565 2.427-3.643 2.427-5.85 0-4.565-3.714-8.277-8.277-8.277z"></path>
</svg>
