<!-- Generated by IcoMoon.io -->
<svg version="1.1" xmlns="http://www.w3.org/2000/svg" width="32" height="32" viewBox="0 0 32 32">
<title>color_wheel_rgb</title>
<path fill="none" stroke-linejoin="round" stroke-linecap="butt" stroke-miterlimit="4" stroke-width="2" stroke="#000" d="M23.5 11.5c0 4.142-3.358 7.5-7.5 7.5s-7.5-3.358-7.5-7.5c0-4.142 3.358-7.5 7.5-7.5s7.5 3.358 7.5 7.5z"></path>
<path fill="none" stroke-linejoin="round" stroke-linecap="butt" stroke-miterlimit="4" stroke-width="2" stroke="#000" d="M29 20.5c0 4.142-3.358 7.5-7.5 7.5s-7.5-3.358-7.5-7.5c0-4.142 3.358-7.5 7.5-7.5s7.5 3.358 7.5 7.5z"></path>
<path fill="none" stroke-linejoin="round" stroke-linecap="butt" stroke-miterlimit="4" stroke-width="2" stroke="#000" d="M18 20.5c0 4.142-3.358 7.5-7.5 7.5s-7.5-3.358-7.5-7.5c0-4.142 3.358-7.5 7.5-7.5s7.5 3.358 7.5 7.5z"></path>
</svg>
