<!-- Generated by IcoMoon.io -->
<svg version="1.1" xmlns="http://www.w3.org/2000/svg" width="33" height="32" viewBox="0 0 33 32">
<title>cols_selected</title>
<path d="M11.090 32c-0.555-0.001-1.004-0.45-1.005-1.005v-29.99c0.001-0.555 0.45-1.004 1.005-1.005h12.175c0.555 0.001 1.004 0.45 1.004 1.005v6.099c-0 0.366-0.297 0.663-0.663 0.663h-0.682c-0.366-0-0.663-0.297-0.663-0.663v-5.094h-10.166v27.982h10.166v-5.096c0-0.366 0.297-0.663 0.663-0.663h0.682c0.366 0 0.663 0.297 0.663 0.663v6.099c-0 0.555-0.45 1.004-1.004 1.005h-0z"></path>
<path d="M5.937 29.988c-0.55-0.001-0.996-0.446-0.997-0.996v-25.984c0.002-0.549 0.448-0.994 0.997-0.995h5.071l-0.009 1.994h-4.064v23.987h3.955l0.034 1.994z"></path>
<path d="M0.854 27.995c-0.472-0.001-0.854-0.383-0.854-0.854v-22.268c0.001-0.472 0.383-0.854 0.854-0.854h4.363l-0.025 1.709h-3.483v20.559h4.081v1.708z"></path>
<path d="M25.935 16.006c0 1.436-1.165 2.601-2.601 2.601s-2.601-1.165-2.601-2.601c0-1.436 1.165-2.601 2.601-2.601s2.601 1.165 2.601 2.601z"></path>
<path d="M23.366 9.645c-5.453 0-9.715 5.077-9.715 6.33s4.325 6.393 9.715 6.393 9.652-5.139 9.652-6.393-4.199-6.33-9.652-6.33zM23.334 20.112c-0 0-0 0-0.001 0-2.267 0-4.106-1.838-4.106-4.106s1.838-4.106 4.106-4.106c2.267 0 4.106 1.838 4.106 4.106v0c-0 2.267-1.838 4.105-4.105 4.106h-0z"></path>
</svg>
