<!-- Generated by IcoMoon.io -->
<svg version="1.1" xmlns="http://www.w3.org/2000/svg" width="33" height="32" viewBox="0 0 33 32">
<title>cols_hidden</title>
<path d="M11.090 32c-0.555-0.001-1.004-0.45-1.005-1.005v-29.99c0.001-0.555 0.45-1.004 1.005-1.005h12.175c0.555 0.001 1.004 0.45 1.005 1.005v6.099c-0.001 0.366-0.297 0.663-0.664 0.663h-0.682c-0.366 0-0.663-0.297-0.663-0.663v-5.094h-10.166v27.982h10.166v-5.096c0-0.366 0.297-0.663 0.663-0.663h0.682c0.366 0 0.663 0.297 0.664 0.663v6.099c-0.001 0.555-0.45 1.004-1.005 1.005v0z"></path>
<path d="M5.937 29.988c-0.55-0.001-0.996-0.446-0.997-0.996v-25.984c0.002-0.549 0.448-0.994 0.997-0.995h5.071l-0.009 1.994h-4.064v23.987h3.955l0.035 1.994z"></path>
<path d="M0.854 27.995c-0.472-0.001-0.854-0.383-0.854-0.854v-22.268c0.001-0.472 0.383-0.854 0.854-0.854h4.363l-0.025 1.709h-3.483v20.559h4.082v1.708z"></path>
<path d="M31.721 8.409l-0.784-0.784c-0.221-0.221-0.63-0.188-0.886 0.12l-2.723 2.709c-1.227-0.528-2.573-0.784-3.987-0.784-4.209 0.017-7.855 2.471-9.61 5.998-0.049 0.1-0.077 0.217-0.077 0.341s0.028 0.241 0.079 0.346l-0.002-0.005c0.838 1.678 2.053 3.058 3.541 4.066l0.037 0.024-2.232 2.266c-0.256 0.256-0.289 0.664-0.119 0.886l0.784 0.784c0.221 0.221 0.63 0.188 0.886-0.12l14.957-14.961c0.324-0.255 0.358-0.664 0.136-0.886zM24.241 13.555c-0.29-0.068-0.596-0.153-0.886-0.153-0.003 0-0.007 0-0.011 0-1.434 0-2.596 1.162-2.596 2.596 0 0.004 0 0.007 0 0.011v-0.001c0.011 0.32 0.066 0.623 0.16 0.909l-0.007-0.023-1.142 1.124c-0.332-0.568-0.528-1.251-0.528-1.979 0-0.011 0-0.022 0-0.033v0.002c0-0.003 0-0.007 0-0.010 0-2.253 1.826-4.079 4.079-4.079 0.004 0 0.007 0 0.011 0h-0.001c0.009 0 0.021 0 0.032 0 0.728 0 1.411 0.196 1.998 0.538l-0.019-0.010z"></path>
<path d="M32.948 15.668c-0.596-1.193-1.38-2.266-2.351-3.136l-3.169 3.136v0.34c0 0.003 0 0.006 0 0.010 0 2.253-1.827 4.080-4.080 4.080-0.003 0-0.007 0-0.010 0h-0.341l-2.010 2.011c0.688 0.154 1.48 0.247 2.293 0.256h0.007c4.209 0 7.855-2.454 9.61-5.998 0.077-0.11 0.123-0.246 0.123-0.393 0-0.111-0.026-0.217-0.073-0.31l0.002 0.004z"></path>
</svg>
