<svg version="1.1" xmlns="http://www.w3.org/2000/svg" width="32" height="32" viewBox="0 0 32 32">
<title>comment_query</title>
<path d="M29.465 12.705l-2.892-1.669c-0.431-0.249-1.033-0.075-1.304 0.391l-7.596 13.157c0 0 0 0 0 0s0 0 0 0.001l-0.001 0.001c-0.020 0.036-0.036 0.065-0.055 0.164-0.004 0.019-0.008 0.037-0.011 0.056-0.053 0.325-0.143 1.221-0.419 4.079-0.016 0.261 0.081 0.525 0.267 0.723 0.193 0.204 0.46 0.321 0.733 0.321 0.188 0 0.371-0.055 0.545-0.171 3.395-2.408 3.4-2.42 3.477-2.555l7.597-13.16c0.14-0.244 0.172-0.525 0.088-0.789-0.072-0.232-0.229-0.433-0.431-0.549zM20.775 26.992c-0.163 0.117-0.347 0.249-0.547 0.392l-1.723-0.995c0.024-0.244 0.048-0.471 0.068-0.668l2.201 1.271zM18.271 28.781c0.036-0.376 0.077-0.799 0.12-1.225l0.884 0.511c-0.351 0.249-0.699 0.497-1.004 0.715zM21.553 26.209l-0.579-0.335 6.336-10.975c0.147-0.255 0.060-0.581-0.196-0.729-0.255-0.148-0.581-0.061-0.729 0.195l-6.336 10.975-1.187-0.685 7.293-12.632 2.727 1.489-7.329 12.697z"></path>
<path d="M31.071 8.813l-1.931-1.115c-0.355-0.205-0.763-0.257-1.148-0.152-0.365 0.101-0.683 0.345-0.871 0.669l-0.597 1.037c-0.147 0.255-0.060 0.581 0.196 0.729 0.253 0.147 0.581 0.061 0.729-0.195l0.599-1.036c0.048-0.084 0.132-0.147 0.231-0.175 0.076-0.023 0.195-0.031 0.328 0.047l1.931 1.115c0.233 0.135 0.293 0.407 0.2 0.565l-0.599 1.036c-0.147 0.255-0.060 0.581 0.196 0.729 0.084 0.049 0.176 0.072 0.267 0.072 0.184 0 0.363-0.095 0.463-0.267l0.599-1.036c0.393-0.687 0.123-1.612-0.592-2.025z"></path>
<path d="M20.943 8.523h-16.671c-0.34 0-0.615 0.275-0.615 0.615s0.275 0.615 0.615 0.615h16.671c0.34 0 0.615-0.275 0.615-0.615s-0.275-0.615-0.615-0.615z"></path>
<path d="M20.943 14.676h-16.671c-0.34 0-0.615 0.275-0.615 0.615s0.275 0.615 0.615 0.615h16.671c0.34 0 0.615-0.275 0.615-0.615s-0.275-0.615-0.615-0.615z"></path>
<path d="M27.537 1.107c0-0.34-0.275-0.615-0.615-0.615h-26.019c-0.34 0-0.615 0.275-0.615 0.615v22.769c0 0.34 0.275 0.615 0.615 0.615h3.173l7.887 7.129c0.115 0.104 0.263 0.159 0.413 0.159 0.084 0 0.169-0.017 0.249-0.053 0.223-0.099 0.365-0.32 0.365-0.563v-6.672h3.973v-1.231h-4.588c-0.34 0-0.615 0.275-0.615 0.615v5.903l-7.035-6.359c-0.113-0.103-0.26-0.159-0.413-0.159h-2.796v-21.539h24.788v6.389l1.231-2.023v-4.981z"></path>
</svg>
