<svg version="1.1" xmlns="http://www.w3.org/2000/svg" width="32" height="32" viewBox="0 0 32 32">
<title>compose_write_pencil_new</title>
<path d="M31.381 5.128l-4.372-4.372c-0.578-0.578-1.591-0.575-2.163 0 0 0-16.166 16.166-16.284 16.284-0.022 0.022-0.044 0.044-0.075 0.091-0.019 0.025-0.034 0.053-0.047 0.078-0.216 0.378-0.797 1.716-3.078 7.434l-0.094 0.234c-0.234 0.572-0.1 1.222 0.334 1.656 0.284 0.284 0.678 0.447 1.081 0.447v0c0.197 0 0.391-0.038 0.575-0.113l0.322-0.128c0.313-0.125 0.613-0.247 0.9-0.359 0.037-0.012 0.075-0.025 0.113-0.044 6.25-2.506 6.366-2.622 6.5-2.762 0.119-0.119 16.166-16.166 16.288-16.288 0.288-0.291 0.447-0.672 0.447-1.078s-0.156-0.787-0.447-1.081zM12.081 21.506c0.016 0.019 0.031 0.034 0.047 0.053 0.016 0.016 0.034 0.031 0.053 0.047l1.297 1.297c-0.753 0.322-2.213 0.925-5.028 2.056l-1.272-1.272c1.131-2.825 1.734-4.281 2.053-5.028l2.85 2.847zM6.756 25.634c-0.072 0.028-0.156 0.012-0.213-0.044s-0.075-0.137-0.044-0.212l0.097-0.241c0.016-0.038 0.028-0.072 0.044-0.106l0.463 0.466c-0.006 0.003-0.013 0.006-0.019 0.006l-0.328 0.131zM30.438 6.347c-0.106 0.106-13.134 13.134-15.816 15.816l-1.078-1.078 14.097-14.078c0.259-0.259 0.259-0.684 0-0.944s-0.681-0.259-0.944 0l-14.094 14.078-2.628-2.628c1.075-1.075 4.55-4.55 15.813-15.816 0.087-0.084 0.166-0.109 0.278 0.003l4.369 4.369c0.038 0.037 0.059 0.091 0.059 0.141s-0.022 0.103-0.056 0.138z"></path>
<path d="M24.666 16.666c-0.369 0-0.666 0.297-0.666 0.666v12c0 1.334-0.484 1.334-0.872 1.334h-20.462c-0.809 0-1.334-0.525-1.334-1.334v-20.322c0-0.378 0-1.009 1.472-1.009h11.863c0.369 0 0.666-0.297 0.666-0.666s-0.297-0.666-0.666-0.666h-11.859c-2.531 0-2.806 1.637-2.806 2.344v20.325c0 1.547 1.122 2.666 2.666 2.666h20.462c0.822 0 2.203-0.347 2.203-2.666v-12c0.003-0.372-0.297-0.672-0.666-0.672z"></path>
</svg>
