<!-- Generated by IcoMoon.io -->
<svg version="1.1" xmlns="http://www.w3.org/2000/svg" width="32" height="32" viewBox="0 0 32 32">
<title>computer_screen</title>
<path fill="none" stroke="#444" stroke-linejoin="round" stroke-linecap="butt" stroke-miterlimit="4" stroke-width="2" d="M4 4h24c1.105 0 2 0.895 2 2v16c0 1.105-0.895 2-2 2h-24c-1.105 0-2-0.895-2-2v-16c0-1.105 0.895-2 2-2z"></path>
<path stroke="#444" stroke-linejoin="round" stroke-linecap="round" stroke-miterlimit="4" stroke-width="2" fill="#000" d="M19 28l-0.5-4h-5l-0.5 4h6z"></path>
<path fill="none" stroke="#444" stroke-linejoin="round" stroke-linecap="round" stroke-miterlimit="4" stroke-width="2" d="M23 28h-14"></path>
<path d="M2 19v3c0.003 1.103 0.897 1.997 2 2h24c1.103-0.003 1.997-0.897 2-2v-3zM16 23c-0.552 0-1-0.448-1-1s0.448-1 1-1c0.552 0 1 0.448 1 1v0c0 0.552-0.448 1-1 1v0z"></path>
</svg>
