<!-- Generated by IcoMoon.io -->
<svg version="1.1" xmlns="http://www.w3.org/2000/svg" width="32" height="32" viewBox="0 0 32 32">
<title>computer_desktop</title>
<path d="M12.055 32.049h-5.438c-0.563 0-1.020-0.428-1.020-0.956l0.362-2.292c0.059-0.363 0.394-0.621 0.765-0.551 0.363 0.059 0.61 0.401 0.551 0.764l-0.275 1.701h4.68l-0.283-1.701c-0.059-0.363 0.188-0.706 0.551-0.764 0.365-0.070 0.705 0.187 0.765 0.551l0.355 2.185c0.008 0.634-0.449 1.063-1.013 1.063z"></path>
<path d="M16.737 27.997h-14.803c-1.047 0-1.9-0.853-1.9-1.9v-9.566c0-1.047 0.852-1.9 1.9-1.9h14.803c1.048 0 1.901 0.852 1.901 1.9v9.566c0 1.047-0.853 1.9-1.901 1.9zM1.934 15.965c-0.313 0-0.566 0.254-0.566 0.566v9.566c0 0.313 0.254 0.566 0.566 0.566h14.803c0.313 0 0.568-0.254 0.568-0.566v-9.566c0-0.313-0.255-0.566-0.568-0.566h-14.803z"></path>
<path d="M13.616 32.049h-8.635c-0.369 0-0.667-0.298-0.667-0.667s0.298-0.667 0.667-0.667h8.635c0.369 0 0.667 0.298 0.667 0.667s-0.298 0.667-0.667 0.667z"></path>
<path d="M31.333 32h-10.667c-0.369 0-0.667-0.298-0.667-0.667v-30.667c0-0.369 0.298-0.667 0.667-0.667h10.667c0.369 0 0.667 0.298 0.667 0.667v30.667c0 0.369-0.298 0.667-0.667 0.667zM21.333 30.667h9.333v-29.333h-9.333v29.333z"></path>
<path d="M28.656 13.333h-5.379c-0.369 0-0.667-0.298-0.667-0.667s0.298-0.667 0.667-0.667h5.379c0.369 0 0.667 0.298 0.667 0.667s-0.298 0.667-0.667 0.667z"></path>
<path d="M23.28 18.667c-0.173 0-0.346-0.066-0.481-0.201-0.12-0.12-0.186-0.293-0.186-0.466 0-0.187 0.066-0.346 0.199-0.481 0.241-0.24 0.681-0.24 0.934 0 0.134 0.134 0.201 0.307 0.201 0.481s-0.066 0.346-0.201 0.466c-0.12 0.134-0.293 0.201-0.466 0.201z"></path>
<path d="M25.947 18.667c-0.173 0-0.346-0.066-0.481-0.201-0.12-0.12-0.186-0.293-0.186-0.466s0.066-0.346 0.186-0.467c0.254-0.253 0.68-0.253 0.947-0.013 0.134 0.134 0.201 0.307 0.201 0.481s-0.066 0.346-0.187 0.466c-0.146 0.134-0.306 0.201-0.479 0.201z"></path>
<path d="M28.656 10.667h-5.379c-0.369 0-0.667-0.298-0.667-0.667s0.298-0.667 0.667-0.667h5.379c0.369 0 0.667 0.298 0.667 0.667s-0.298 0.667-0.667 0.667z"></path>
<path d="M28.656 7.999h-5.379c-0.369 0-0.667-0.298-0.667-0.667s0.298-0.667 0.667-0.667h5.379c0.369 0 0.667 0.298 0.667 0.667s-0.298 0.667-0.667 0.667z"></path>
<path d="M28.656 5.333h-5.379c-0.369 0-0.667-0.298-0.667-0.667s0.298-0.667 0.667-0.667h5.379c0.369 0 0.667 0.298 0.667 0.667s-0.298 0.667-0.667 0.667z"></path>
</svg>
