<svg version="1.1" xmlns="http://www.w3.org/2000/svg" width="32" height="32" viewBox="0 0 32 32">
<title>computer_screen_settings_preferences</title>
<path d="M20.935 32.038h-9.835c-0.721 0-1.307-0.534-1.307-1.189l0.648-4.059c0.059-0.362 0.391-0.617 0.765-0.551 0.363 0.059 0.61 0.401 0.551 0.764l-0.598 3.694 9.726 0.007-0.608-3.701c-0.060-0.363 0.187-0.706 0.551-0.764 0.358-0.065 0.706 0.186 0.764 0.551l0.641 3.952c0.009 0.762-0.577 1.295-1.298 1.295z"></path>
<path d="M29.185 24h-26.335c-1.561 0-2.831-1.279-2.831-2.85v-18.309c0-1.593 1.243-2.841 2.831-2.841h26.335c1.59 0 2.835 1.248 2.835 2.841v18.309c-0 1.572-1.272 2.85-2.835 2.85zM2.85 1.333c-0.84 0-1.498 0.662-1.498 1.508v18.309c0 0.85 0.658 1.517 1.498 1.517h26.335c0.842 0 1.501-0.667 1.501-1.517v-18.309c-0-0.846-0.659-1.508-1.501-1.508h-26.335z"></path>
<path d="M31.353 20h-30.665c-0.369 0-0.667-0.298-0.667-0.667s0.298-0.667 0.667-0.667h30.665c0.369 0 0.667 0.298 0.667 0.667s-0.298 0.667-0.667 0.667z"></path>
<path d="M15.999 11.824c-0.973 0-1.764-0.791-1.764-1.764s0.791-1.764 1.764-1.764 1.763 0.791 1.763 1.764-0.79 1.764-1.763 1.764zM15.999 9.63c-0.237 0-0.43 0.193-0.43 0.43s0.193 0.43 0.43 0.43 0.43-0.193 0.43-0.43-0.193-0.43-0.43-0.43z"></path>
<path d="M15.999 15.418c-2.952 0-5.353-2.401-5.353-5.353s2.401-5.353 5.353-5.353 5.353 2.401 5.353 5.353-2.401 5.353-5.353 5.353zM15.999 6.046c-2.216 0-4.019 1.803-4.019 4.019s1.803 4.019 4.019 4.019 4.019-1.803 4.019-4.019-1.803-4.019-4.019-4.019z"></path>
<path d="M15.999 6.046c-0.369 0-0.667-0.298-0.667-0.667v-1.347c0-0.369 0.298-0.667 0.667-0.667s0.667 0.298 0.667 0.667v1.347c0 0.368-0.298 0.667-0.667 0.667z"></path>
<path d="M15.999 16.802c-0.369 0-0.667-0.298-0.667-0.667v-1.348c0-0.369 0.298-0.667 0.667-0.667s0.667 0.298 0.667 0.667v1.348c0 0.368-0.298 0.667-0.667 0.667z"></path>
<path d="M22.051 10.75h-1.348c-0.369 0-0.667-0.298-0.667-0.667s0.298-0.667 0.667-0.667h1.348c0.369 0 0.667 0.298 0.667 0.667s-0.298 0.667-0.667 0.667z"></path>
<path d="M11.294 10.75h-1.348c-0.369 0-0.667-0.298-0.667-0.667s0.298-0.667 0.667-0.667h1.348c0.369 0 0.667 0.298 0.667 0.667s-0.298 0.667-0.667 0.667z"></path>
<path d="M18.35 6.676c-0.113 0-0.228-0.029-0.333-0.089-0.319-0.184-0.428-0.592-0.243-0.911l0.675-1.167c0.185-0.32 0.592-0.427 0.91-0.244 0.319 0.184 0.428 0.592 0.243 0.911l-0.675 1.167c-0.124 0.214-0.348 0.333-0.577 0.333z"></path>
<path d="M12.972 15.991c-0.113 0-0.228-0.029-0.333-0.089-0.319-0.184-0.428-0.592-0.244-0.911l0.674-1.167c0.184-0.319 0.591-0.428 0.911-0.244s0.428 0.592 0.244 0.911l-0.674 1.167c-0.124 0.213-0.348 0.333-0.578 0.333z"></path>
<path d="M13.647 6.676c-0.231 0-0.454-0.12-0.578-0.333l-0.674-1.167c-0.184-0.319-0.075-0.727 0.244-0.911 0.317-0.185 0.726-0.075 0.911 0.244l0.674 1.167c0.184 0.319 0.075 0.727-0.244 0.911-0.105 0.061-0.219 0.089-0.333 0.089z"></path>
<path d="M19.025 15.991c-0.229 0-0.453-0.119-0.577-0.333l-0.675-1.167c-0.185-0.318-0.075-0.727 0.243-0.911 0.318-0.184 0.724-0.077 0.91 0.244l0.675 1.167c0.185 0.318 0.075 0.727-0.243 0.911-0.105 0.061-0.22 0.089-0.333 0.089z"></path>
<path d="M21.24 13.776c-0.113 0-0.228-0.029-0.333-0.089l-1.167-0.674c-0.319-0.184-0.428-0.592-0.243-0.911 0.184-0.32 0.592-0.427 0.91-0.244l1.167 0.674c0.319 0.184 0.428 0.592 0.243 0.911-0.122 0.214-0.348 0.333-0.577 0.333z"></path>
<path d="M11.924 8.398c-0.113 0-0.228-0.029-0.333-0.089l-1.167-0.674c-0.319-0.184-0.428-0.592-0.244-0.911s0.591-0.429 0.911-0.244l1.167 0.674c0.319 0.184 0.428 0.592 0.244 0.911-0.124 0.214-0.348 0.333-0.578 0.333z"></path>
<path d="M20.073 8.398c-0.229 0-0.454-0.119-0.577-0.333-0.185-0.319-0.075-0.727 0.243-0.911l1.167-0.674c0.318-0.184 0.727-0.077 0.91 0.244 0.185 0.319 0.075 0.727-0.243 0.911l-1.167 0.674c-0.105 0.061-0.22 0.089-0.333 0.089z"></path>
<path d="M10.758 13.776c-0.231 0-0.454-0.119-0.578-0.333-0.184-0.319-0.075-0.727 0.244-0.911l1.167-0.674c0.316-0.186 0.726-0.075 0.911 0.244s0.075 0.727-0.244 0.911l-1.167 0.674c-0.105 0.061-0.219 0.089-0.333 0.089z"></path>
</svg>
