<svg version="1.1" xmlns="http://www.w3.org/2000/svg" width="32" height="32" viewBox="0 0 32 32">
<title>computer_screen_users_profile</title>
<path d="M18.939 15.999h-9.872c-0.575 0-1.043-0.471-1.043-1.051v-1.351c0-0.437 0.261-0.821 0.665-0.98 2.451-0.953 3.151-1.422 3.346-1.593v-0.080c-0.306-0.374-0.549-0.832-0.717-1.348-0.233-0.234-0.388-0.543-0.434-0.877-0.047-0.34 0.018-0.676 0.183-0.969v-1.009c0-1.708 1.126-2.769 2.937-2.769 1.838 0 2.936 1.035 2.936 2.769v1.008c0.165 0.294 0.231 0.63 0.184 0.97-0.047 0.334-0.202 0.643-0.435 0.878-0.167 0.515-0.411 0.973-0.717 1.348v0.109c0.135 0.099 0.782 0.565 3.344 1.563 0.398 0.155 0.667 0.549 0.667 0.981v1.351c0 0.579-0.467 1.051-1.043 1.051zM9.357 14.666h9.292v-0.878c-3.089-1.214-3.804-1.787-3.981-2.359-0.020-0.064-0.030-0.13-0.030-0.197v-0.54c0-0.173 0.068-0.34 0.189-0.465 0.281-0.289 0.501-0.699 0.635-1.185 0.041-0.148 0.132-0.277 0.258-0.366 0.044-0.031 0.074-0.082 0.082-0.139 0.006-0.042 0.002-0.105-0.048-0.167-0.096-0.119-0.148-0.266-0.148-0.419v-1.209c0-0.979-0.509-1.436-1.602-1.436-1.079 0-1.603 0.469-1.603 1.436v1.21c0 0.152-0.052 0.3-0.148 0.419-0.050 0.062-0.053 0.125-0.047 0.167 0.008 0.057 0.038 0.108 0.081 0.139 0.125 0.089 0.215 0.217 0.257 0.365 0.135 0.486 0.355 0.897 0.636 1.186 0.121 0.125 0.189 0.292 0.189 0.465v0.54c0 0.066-0.010 0.133-0.030 0.197-0.141 0.459-0.569 1.019-3.981 2.36v0.878z"></path>
<path d="M24.346 15.999h-2.635c-0.369 0-0.667-0.298-0.667-0.667s0.298-0.667 0.667-0.667h2.26v-0.37c-2.374-0.909-2.918-1.35-3.073-1.831-0.021-0.066-0.031-0.134-0.031-0.203v-0.404c0-0.177 0.070-0.348 0.197-0.473 0.194-0.193 0.353-0.482 0.448-0.813 0.014-0.051 0.034-0.099 0.060-0.145 0.042-0.243 0.057-0.962 0.044-1.513 0-0.465-0.129-0.924-1.090-0.924-0.966 0-1.090 0.486-1.090 0.908-0.014 0.631 0.007 1.302 0.044 1.529 0.121 0.215 0.117 0.488-0.031 0.705-0.207 0.305-0.621 0.381-0.927 0.172-0.251-0.173-0.467-0.322-0.419-2.421 0-1.367 0.928-2.226 2.423-2.226s2.423 0.859 2.423 2.242c0.034 1.444-0.060 1.96-0.204 2.197-0.124 0.368-0.298 0.7-0.516 0.979 0.171 0.088 0.76 0.427 2.456 1.066 0.37 0.138 0.62 0.497 0.62 0.893v1.012c0 0.526-0.43 0.954-0.958 0.954z"></path>
<path d="M20.93 32.038h-9.836c-0.721 0-1.307-0.534-1.307-1.189l0.649-4.059c0.059-0.362 0.397-0.617 0.765-0.551 0.363 0.059 0.61 0.401 0.551 0.764l-0.599 3.694 9.726 0.007-0.608-3.701c-0.060-0.363 0.187-0.706 0.551-0.764 0.358-0.065 0.706 0.186 0.764 0.551l0.641 3.952c0.009 0.762-0.577 1.295-1.297 1.295z"></path>
<path d="M29.178 24h-26.335c-1.561 0-2.831-1.279-2.831-2.85v-18.309c0-1.593 1.243-2.841 2.831-2.841h26.335c1.59 0 2.835 1.248 2.835 2.841v18.309c0 1.572-1.272 2.85-2.835 2.85zM2.844 1.333c-0.84 0-1.497 0.662-1.497 1.508v18.309c0 0.85 0.657 1.517 1.497 1.517h26.335c0.842 0 1.501-0.667 1.501-1.517v-18.309c0-0.846-0.659-1.508-1.501-1.508h-26.335z"></path>
<path d="M31.346 20h-30.665c-0.369 0-0.667-0.298-0.667-0.667s0.298-0.667 0.667-0.667h30.665c0.369 0 0.667 0.298 0.667 0.667s-0.298 0.667-0.667 0.667z"></path>
</svg>
