<svg version="1.1" xmlns="http://www.w3.org/2000/svg" width="32" height="32" viewBox="0 0 32 32">
<title>computer_imac</title>
<path d="M20.808 26.24c-0.363 0.059-0.611 0.401-0.551 0.764l0.609 3.7-9.727-0.007 0.599-3.693c0.059-0.363-0.188-0.705-0.552-0.764-0.369-0.067-0.705 0.189-0.765 0.551l-0.648 4.059c0 0.655 0.587 1.189 1.307 1.189h9.836c0.721 0 1.308-0.533 1.299-1.296l-0.641-3.952c-0.059-0.365-0.407-0.616-0.765-0.551z"></path>
<path d="M29.165 0h-26.335c-1.587 0-2.831 1.248-2.831 2.841v18.308c0 1.572 1.271 2.851 2.831 2.851h26.335c1.563 0 2.835-1.279 2.835-2.851v-18.308c0-1.593-1.245-2.841-2.835-2.841zM2.831 1.333h26.335c0.843 0 1.501 0.663 1.501 1.508v13.159h-29.333v-13.159c0-0.845 0.657-1.508 1.497-1.508zM29.165 22.667h-26.335c-0.84 0-1.497-0.667-1.497-1.517v-3.816h29.333v3.816c0 0.851-0.659 1.517-1.501 1.517z"></path>
<path d="M17.112 19.931c0 0.614-0.498 1.112-1.112 1.112s-1.112-0.498-1.112-1.112c0-0.614 0.498-1.112 1.112-1.112s1.112 0.498 1.112 1.112z"></path>
</svg>
