<svg version="1.1" xmlns="http://www.w3.org/2000/svg" width="32" height="32" viewBox="0 0 32 32">
<title>computer_screen_single</title>
<path d="M20.917 32.019h-9.836c-0.72 0-1.307-0.533-1.307-1.189l0.648-4.059c0.059-0.361 0.396-0.617 0.765-0.551 0.364 0.059 0.611 0.401 0.552 0.764l-0.599 3.695 9.727 0.007-0.609-3.7c-0.060-0.363 0.188-0.705 0.551-0.764 0.359-0.065 0.705 0.187 0.764 0.551l0.641 3.952c0.009 0.761-0.576 1.295-1.297 1.295z"></path>
<path d="M29.167-0.019h-26.336c-1.587 0-2.831 1.248-2.831 2.841v18.308c0 1.572 1.271 2.851 2.831 2.851h26.335c1.563 0 2.835-1.279 2.835-2.851v-18.308c0-1.593-1.244-2.841-2.833-2.841zM29.945 20.459c0 0.788-0.633 1.405-1.445 1.405h-24.899c-0.808 0-1.441-0.617-1.441-1.405v-16.963c0-0.784 0.633-1.397 1.441-1.397h24.899c0.811 0 1.445 0.613 1.445 1.397v16.963z"></path>
</svg>
