<svg version="1.1" xmlns="http://www.w3.org/2000/svg" width="32" height="32" viewBox="0 0 32 32">
<title>computer_screen_cloud</title>
<path d="M20.923 32.038h-9.836c-0.721 0-1.307-0.534-1.307-1.189l0.649-4.059c0.059-0.362 0.396-0.617 0.765-0.551 0.363 0.059 0.61 0.401 0.551 0.764l-0.599 3.694 9.726 0.007-0.608-3.701c-0.060-0.363 0.187-0.706 0.551-0.764 0.358-0.065 0.706 0.186 0.764 0.551l0.641 3.952c0.009 0.762-0.577 1.295-1.297 1.295z"></path>
<path d="M29.172 24h-26.335c-1.561 0-2.831-1.279-2.831-2.85v-18.309c0-1.593 1.243-2.841 2.831-2.841h26.335c1.59 0 2.835 1.248 2.835 2.841v18.309c0 1.572-1.272 2.85-2.835 2.85zM2.837 1.333c-0.84 0-1.497 0.662-1.497 1.508v18.309c0 0.85 0.657 1.517 1.497 1.517h26.335c0.842 0 1.501-0.667 1.501-1.517v-18.309c0-0.846-0.659-1.508-1.501-1.508h-26.335z"></path>
<path d="M31.34 20h-30.665c-0.369 0-0.667-0.298-0.667-0.667s0.298-0.667 0.667-0.667h30.665c0.369 0 0.667 0.298 0.667 0.667s-0.298 0.667-0.667 0.667z"></path>
<path d="M21.388 15.981h-9.63c-1.73 0-3.199-1.091-3.656-2.714-0.418-1.485 0.159-2.956 1.51-3.904 0.522-2.331 2.536-3.992 4.895-3.992 1.072 0 2.091 0.344 2.965 1 1.811-0.109 3.313 0.769 3.992 2.247 2.107 0.049 3.869 1.715 3.869 3.68 0 1.996-1.807 3.682-3.945 3.682zM14.507 6.704c-1.545 0-3.29 1.089-3.637 3.171-0.032 0.191-0.145 0.359-0.31 0.46-1.014 0.62-1.454 1.581-1.175 2.571 0.244 0.867 1.072 1.742 2.372 1.742h9.63c1.415 0 2.612-1.075 2.612-2.349 0-1.359-1.354-2.478-2.922-2.334-0.311 0.027-0.607-0.165-0.701-0.465-0.297-0.959-1.301-1.995-3.027-1.778-0.176 0.018-0.367-0.031-0.508-0.15-0.68-0.568-1.488-0.867-2.335-0.867z"></path>
</svg>
