<!-- Generated by IcoMoon.io -->
<svg version="1.1" xmlns="http://www.w3.org/2000/svg" width="32" height="32" viewBox="0 0 32 32">
<title>computer_imac_devo_general</title>
<path d="M20.813 26.241c-0.363 0.059-0.609 0.4-0.55 0.762l0.609 3.7-9.728-0.006 0.6-3.694c0.059-0.363-0.188-0.706-0.553-0.762-0.369-0.066-0.706 0.191-0.766 0.55l-0.647 4.059c0 0.653 0.588 1.191 1.306 1.191h9.838c0.722 0 1.309-0.534 1.3-1.297l-0.641-3.953c-0.059-0.366-0.409-0.616-0.769-0.55v0z"></path>
<path d="M29.166 0h-26.334c-1.587 0-2.831 1.247-2.831 2.841v18.309c0 1.572 1.272 2.85 2.831 2.85h26.334c1.563 0 2.834-1.278 2.834-2.85v-18.309c0-1.594-1.247-2.841-2.834-2.841v0zM1.334 16v-13.159c0-0.847 0.656-1.509 1.497-1.509v0h26.334c0.844 0 1.5 0.663 1.5 1.509v13.159zM29.166 22.666h-26.334c-0.841 0-1.497-0.666-1.497-1.519v-3.813h29.334v3.816c-0.003 0.85-0.659 1.516-1.503 1.516z"></path>
<path d="M16.959 4.3h4.153c0.456 0 0.825 0.362 0.825 0.806s-0.369 0.806-0.825 0.806h-4.153c-0.456 0-0.825-0.362-0.825-0.806s0.369-0.806 0.825-0.806v0z"></path>
<path d="M12.838 11.144h10.431c0.456 0 0.825-0.363 0.825-0.806s-0.369-0.806-0.825-0.806h-10.431c-0.456 0-0.825 0.363-0.825 0.806-0.003 0.444 0.369 0.806 0.825 0.806z"></path>
<path d="M21.050 8.528h2.216c0.456 0 0.825-0.363 0.825-0.806s-0.369-0.806-0.825-0.806h-2.216c-0.456 0-0.825 0.362-0.825 0.806s0.372 0.806 0.825 0.806z"></path>
<path d="M21.050 13.759v0c0.456 0 0.825-0.363 0.825-0.806s-0.369-0.806-0.825-0.806c-0.456 0-0.825 0.363-0.825 0.806s0.372 0.806 0.825 0.806z"></path>
<path d="M8.106 8.528h10.278c0.456 0 0.825-0.363 0.825-0.806s-0.369-0.806-0.825-0.806h-10.278c-0.456 0-0.825 0.362-0.825 0.806s0.372 0.806 0.825 0.806z"></path>
<path d="M16.072 13.759h2.313c0.456 0 0.825-0.363 0.825-0.806s-0.369-0.806-0.825-0.806h-2.313c-0.456 0-0.825 0.363-0.825 0.806 0.003 0.444 0.369 0.806 0.825 0.806z"></path>
<path d="M14.225 4.3v0c0.456 0 0.825 0.362 0.825 0.806s-0.369 0.806-0.825 0.806c-0.456 0-0.825-0.362-0.825-0.806s0.369-0.806 0.825-0.806v0z"></path>
<path d="M10.369 9.531v0c0.456 0 0.825 0.363 0.825 0.806s-0.369 0.806-0.825 0.806c-0.456 0-0.825-0.363-0.825-0.806 0-0.447 0.369-0.806 0.825-0.806z"></path>
</svg>
