<svg version="1.1" xmlns="http://www.w3.org/2000/svg" width="32" height="32" viewBox="0 0 32 32">
<title>computer_screen</title>
<path d="M20.917 32.038h-9.836c-0.721 0-1.307-0.534-1.307-1.189l0.648-4.059c0.059-0.362 0.396-0.617 0.765-0.551 0.363 0.059 0.61 0.401 0.551 0.764l-0.598 3.694 9.727 0.007-0.609-3.701c-0.060-0.363 0.187-0.706 0.551-0.764 0.358-0.065 0.706 0.186 0.764 0.551l0.642 3.952c0.009 0.762-0.577 1.295-1.298 1.295z"></path>
<path d="M29.165 24h-26.335c-1.561 0-2.831-1.279-2.831-2.85v-18.309c0-1.593 1.243-2.841 2.831-2.841h26.335c1.59 0 2.835 1.248 2.835 2.841v18.309c0 1.572-1.272 2.85-2.835 2.85zM2.831 1.333c-0.84 0-1.497 0.662-1.497 1.508v18.309c0 0.85 0.658 1.517 1.497 1.517h26.335c0.843 0 1.501-0.667 1.501-1.517v-18.309c0-0.846-0.659-1.508-1.501-1.508h-26.335z"></path>
<path d="M31.333 20h-30.665c-0.369 0-0.667-0.298-0.667-0.667s0.298-0.667 0.667-0.667h30.665c0.369 0 0.667 0.298 0.667 0.667s-0.298 0.667-0.667 0.667z"></path>
</svg>
