<svg version="1.1" xmlns="http://www.w3.org/2000/svg" width="32" height="32" viewBox="0 0 32 32">
<title>computer_laptop_user_login</title>
<path d="M28.693 22.668c-0.369 0-0.667-0.298-0.667-0.667v-15.063c0-0.162-0.131-0.294-0.293-0.294h-23.468c-0.162 0-0.294 0.132-0.294 0.294v15.063c0 0.369-0.298 0.667-0.667 0.667s-0.667-0.298-0.667-0.667v-15.063c0-0.897 0.73-1.628 1.627-1.628h23.468c0.897 0 1.626 0.731 1.626 1.628v15.063c0 0.368-0.298 0.667-0.667 0.667z"></path>
<path d="M30.26 28.040h-28.524c-0.955 0-1.732-0.777-1.732-1.733v-1.6c0-0.369 0.298-0.667 0.667-0.667h13.676c0.369 0 0.667 0.298 0.667 0.667v0.405l2.057-0.087-0.086-0.318c0-0.369 0.298-0.667 0.667-0.667h13.676c0.369 0 0.667 0.298 0.667 0.667v1.6c0 0.956-0.777 1.733-1.733 1.733zM1.337 25.374v0.934c0 0.22 0.179 0.4 0.399 0.4h28.524c0.22 0 0.4-0.18 0.4-0.4v-0.934h-12.37c-0.121 0.563-0.622 0.984-1.22 0.984h-2.144c-0.598 0-1.098-0.422-1.219-0.984h-12.371z"></path>
<path d="M20.324 20.005h-8.651c-0.549 0-0.997-0.452-0.997-1.007v-1.193c0-0.413 0.257-0.79 0.638-0.937 2.049-0.805 2.685-1.211 2.877-1.369v-0.009c-0.263-0.329-0.473-0.729-0.619-1.176-0.209-0.217-0.347-0.5-0.389-0.804-0.043-0.31 0.014-0.616 0.159-0.885v-0.871c0-1.556 1.018-2.523 2.656-2.523 1.663 0 2.655 0.943 2.655 2.523v0.871c0.147 0.27 0.203 0.578 0.159 0.889-0.042 0.303-0.181 0.585-0.388 0.801-0.146 0.446-0.355 0.845-0.619 1.175v0.046c0.125 0.078 0.714 0.485 2.879 1.333 0.379 0.147 0.635 0.525 0.635 0.937v1.193c0 0.555-0.446 1.007-0.996 1.007zM12.010 18.672h7.977v-0.645c-2.695-1.070-3.324-1.589-3.486-2.114-0.018-0.063-0.029-0.129-0.029-0.195v-0.477c0-0.173 0.066-0.338 0.186-0.462 0.234-0.244 0.426-0.603 0.538-1.013 0.042-0.148 0.131-0.278 0.258-0.367-0.095-0.119-0.134-0.425-0.134-0.576v-1.068c0-0.823-0.408-1.189-1.322-1.189-0.902 0-1.322 0.378-1.322 1.189v1.068c0 0.152-0.051 0.299-0.147 0.417 0.124 0.089 0.229 0.379 0.269 0.526 0.113 0.411 0.305 0.77 0.539 1.013 0.12 0.124 0.187 0.29 0.187 0.463v0.477c0 0.066-0.010 0.132-0.029 0.196-0.161 0.523-0.79 1.042-3.486 2.113v0.644z"></path>
</svg>
