<svg version="1.1" xmlns="http://www.w3.org/2000/svg" width="32" height="32" viewBox="0 0 32 32">
<title>comparativechart</title>
<path d="M4 28h28v4h-32v-32h4v28zM16.949 12.591h1.336v1.336h-1.336v-1.336zM4.951 18.792h1.336v1.336h-1.336v-1.336zM5.667 12.278h1.336v1.336h-1.336v-1.336zM21.606 12.603h1.336v1.336h-1.336v-1.336zM24.354 14.166h1.336v1.336h-1.336v-1.336zM16.946 21.52h1.336v1.336h-1.336v-1.336zM12.448 20.582h1.336v1.336h-1.336v-1.336zM7.853 19.957h1.336v1.336h-1.336v-1.336zM22.854 22.157h1.336v1.336h-1.336v-1.336zM26.133 20.281h1.336v1.336h-1.336v-1.336zM12.45 14.434h1.336v1.336h-1.336v-1.336zM7.856 14.434h1.336v1.336h-1.336v-1.336zM16.949 18.559h1.336v1.336h-1.336v-1.336zM20.667 19.509h1.336v1.336h-1.336v-1.336zM29.492 17.281h1.336v1.336h-1.336v-1.336zM4 14.581l7.159 3.328 8.578-4.219 5.437 3.609 6.826-7.546v3l-6.732 7.453-5.578-3.797-8.343 3.797-7.347-3.345z"></path>
</svg>
