<svg version="1.1" xmlns="http://www.w3.org/2000/svg" width="32" height="32" viewBox="0 0 32 32">
<title>computer_screen_locked_password_protected_security</title>
<path d="M20.941 32.038h-9.835c-0.721 0-1.307-0.534-1.307-1.189l0.648-4.059c0.059-0.362 0.391-0.617 0.765-0.551 0.363 0.059 0.61 0.401 0.551 0.764l-0.598 3.694 9.726 0.007-0.608-3.701c-0.060-0.363 0.187-0.706 0.551-0.764 0.358-0.065 0.706 0.186 0.764 0.551l0.641 3.952c0.009 0.762-0.577 1.295-1.298 1.295z"></path>
<path d="M29.19 24h-26.334c-1.561 0-2.831-1.279-2.831-2.85v-18.309c-0-1.593 1.243-2.841 2.831-2.841h26.334c1.59 0 2.836 1.248 2.836 2.841v18.309c-0 1.572-1.272 2.85-2.836 2.85zM2.856 1.333c-0.84 0-1.497 0.662-1.497 1.508v18.309c0 0.85 0.658 1.517 1.497 1.517h26.334c0.842 0 1.503-0.667 1.503-1.517v-18.309c-0-0.846-0.66-1.508-1.503-1.508h-26.334z"></path>
<path d="M31.359 20h-30.665c-0.369 0-0.667-0.298-0.667-0.667s0.298-0.667 0.667-0.667h30.665c0.369 0 0.667 0.298 0.667 0.667s-0.298 0.667-0.667 0.667z"></path>
<path d="M18.63 16.021h-5.208c-0.928 0-1.682-0.755-1.682-1.683l-0.446-4.624c-0.003-0.992 0.751-1.746 1.678-1.746h6.109c0.927 0 1.682 0.755 1.682 1.682l-0.452 4.752c0.003 0.864-0.753 1.619-1.681 1.619zM12.972 9.301c-0.192 0-0.348 0.156-0.348 0.349l0.446 4.624c0.003 0.257 0.159 0.413 0.352 0.413h5.208c0.193 0 0.35-0.156 0.35-0.349l0.452-4.752c-0.003-0.129-0.159-0.285-0.352-0.285h-6.109z"></path>
<path d="M18.077 9.163c-0.369 0-0.667-0.298-0.667-0.667v-1.91c0-0.697-0.621-1.264-1.384-1.264s-1.383 0.567-1.383 1.264v1.909c0 0.369-0.298 0.667-0.667 0.667s-0.667-0.298-0.667-0.667v-1.909c0-1.432 1.219-2.598 2.717-2.598s2.717 1.165 2.717 2.598v1.909c0 0.369-0.298 0.667-0.667 0.667z"></path>
<path d="M16.026 13.737c-0.369 0-0.667-0.298-0.667-0.667v-1.076c0-0.369 0.298-0.667 0.667-0.667s0.667 0.298 0.667 0.667v1.076c0 0.369-0.298 0.667-0.667 0.667z"></path>
</svg>
