<svg version="1.1" xmlns="http://www.w3.org/2000/svg" width="32" height="32" viewBox="0 0 32 32">
<title>computer_laptop_download</title>
<path d="M3.311 22.668c-0.369 0-0.667-0.298-0.667-0.667v-15.063c0-0.897 0.731-1.628 1.628-1.628h9.063c0.369 0 0.667 0.298 0.667 0.667s-0.298 0.667-0.667 0.667h-9.063c-0.162 0-0.294 0.132-0.294 0.294v15.063c0 0.368-0.298 0.667-0.667 0.667z"></path>
<path d="M28.699 22.668c-0.369 0-0.667-0.298-0.667-0.667v-15.063c0-0.162-0.131-0.294-0.293-0.294h-9.035c-0.369 0-0.667-0.298-0.667-0.667s0.298-0.667 0.667-0.667h9.035c0.897 0 1.626 0.731 1.626 1.628v15.063c0 0.368-0.298 0.667-0.667 0.667z"></path>
<path d="M30.266 28.040h-28.523c-0.956 0-1.733-0.777-1.733-1.733v-1.6c0-0.369 0.298-0.667 0.667-0.667h13.677c0.369 0 0.667 0.298 0.667 0.667v0.405l2.057-0.087-0.086-0.318c0-0.369 0.298-0.667 0.667-0.667h13.676c0.369 0 0.667 0.298 0.667 0.667v1.6c0 0.956-0.779 1.733-1.734 1.733zM1.343 25.374v0.934c0 0.22 0.179 0.4 0.4 0.4h28.523c0.221 0 0.401-0.18 0.401-0.4v-0.934h-12.37c-0.121 0.563-0.622 0.984-1.22 0.984h-2.144c-0.598 0-1.098-0.422-1.219-0.984h-12.371z"></path>
<path d="M16.005 18.581c-0.369 0-0.667-0.298-0.667-0.667v-16.722c0-0.369 0.298-0.667 0.667-0.667s0.667 0.298 0.667 0.667v16.722c0 0.369-0.298 0.667-0.667 0.667z"></path>
<path d="M16.005 18.581c-0.171 0-0.341-0.065-0.471-0.195l-4.025-4.024c-0.26-0.26-0.26-0.682 0-0.943s0.682-0.26 0.943 0l3.553 3.553 3.553-3.553c0.26-0.26 0.682-0.26 0.943 0s0.26 0.682 0 0.943l-4.025 4.024c-0.13 0.13-0.301 0.195-0.471 0.195z"></path>
</svg>
