<svg version="1.1" xmlns="http://www.w3.org/2000/svg" width="32" height="32" viewBox="0 0 32 32">
<title>computer_laptop_website_url_www</title>
<path d="M28.667 22.694c-0.369 0-0.667-0.298-0.667-0.667v-15.089c0-0.064-0.018-0.272-0.247-0.272h-23.469c-0.165 0-0.284 0.115-0.284 0.272v15.089c0 0.369-0.298 0.667-0.667 0.667s-0.667-0.298-0.667-0.667v-15.089c0-0.9 0.71-1.605 1.617-1.605h23.469c0.887 0 1.581 0.705 1.581 1.605v15.089c0 0.369-0.298 0.667-0.667 0.667z"></path>
<path d="M30.279 28.040h-28.523c-0.956 0-1.733-0.777-1.733-1.733v-1.6c0-0.369 0.298-0.667 0.667-0.667h13.677c0.369 0 0.667 0.298 0.667 0.667v0.405l2.057-0.087-0.087-0.318c0-0.369 0.298-0.667 0.667-0.667h13.677c0.369 0 0.667 0.298 0.667 0.667v1.6c0 0.956-0.779 1.733-1.734 1.733zM1.356 25.374v0.934c0 0.22 0.179 0.4 0.4 0.4h28.523c0.221 0 0.401-0.18 0.401-0.4v-0.934h-12.371c-0.121 0.563-0.621 0.984-1.219 0.984h-2.144c-0.598 0-1.098-0.422-1.219-0.984h-12.371z"></path>
<path d="M10.357 17.37c-0.281 0-0.531-0.176-0.626-0.439l-0.385-1.059-0.378 1.055c-0.094 0.266-0.345 0.441-0.626 0.443-0.258-0.005-0.533-0.175-0.628-0.439l-1.016-2.797c-0.126-0.346 0.053-0.728 0.398-0.854 0.348-0.127 0.729 0.053 0.854 0.398l0.385 1.059 0.378-1.056c0.094-0.264 0.345-0.441 0.626-0.442 0.001 0 0.001 0 0.002 0 0.281 0 0.531 0.175 0.626 0.439l0.385 1.059 0.378-1.056c0.124-0.347 0.505-0.529 0.852-0.403 0.346 0.124 0.527 0.505 0.403 0.852l-1.001 2.796c-0.094 0.266-0.345 0.441-0.626 0.443-0.001-0-0.001-0-0.002-0z"></path>
<path d="M15.691 17.37c-0.281 0-0.531-0.176-0.626-0.439l-0.385-1.059-0.378 1.055c-0.094 0.266-0.345 0.441-0.626 0.443-0.249-0.005-0.533-0.175-0.628-0.439l-1.016-2.797c-0.126-0.346 0.053-0.728 0.398-0.854 0.348-0.127 0.729 0.053 0.854 0.398l0.385 1.059 0.378-1.056c0.094-0.264 0.345-0.441 0.626-0.442 0.001 0 0.001 0 0.002 0 0.281 0 0.531 0.175 0.626 0.439l0.385 1.059 0.378-1.056c0.124-0.346 0.504-0.526 0.852-0.403s0.527 0.505 0.404 0.852l-1 2.796c-0.095 0.266-0.346 0.441-0.626 0.443-0.001-0-0.001-0-0.002-0z"></path>
<path d="M21.025 17.37c-0.28 0-0.531-0.176-0.626-0.439l-0.385-1.059-0.378 1.055c-0.095 0.266-0.345 0.441-0.626 0.443h-0.001c-0.28 0-0.531-0.176-0.626-0.439l-1.017-2.797c-0.126-0.346 0.052-0.729 0.398-0.854 0.346-0.127 0.729 0.053 0.854 0.398l0.385 1.059 0.378-1.056c0.095-0.264 0.345-0.441 0.626-0.442h0.001c0.28 0 0.531 0.175 0.626 0.439l0.385 1.059 0.378-1.056c0.125-0.346 0.505-0.526 0.852-0.403 0.348 0.124 0.527 0.505 0.404 0.852l-1 2.796c-0.095 0.266-0.345 0.441-0.626 0.443h-0.001z"></path>
<path d="M23.374 17.374c-0.175 0-0.348-0.081-0.467-0.201s-0.199-0.293-0.199-0.466c0-0.187 0.079-0.348 0.199-0.481 0.267-0.253 0.694-0.24 0.934 0 0.133 0.133 0.201 0.306 0.201 0.481 0 0.173-0.068 0.346-0.187 0.466-0.133 0.12-0.293 0.201-0.479 0.201z"></path>
</svg>
