<svg version="1.1" xmlns="http://www.w3.org/2000/svg" width="32" height="32" viewBox="0 0 32 32">
<title>computer_laptop_analytics_graph</title>
<path d="M28.706 22.668c-0.369 0-0.667-0.298-0.667-0.667v-15.063c0-0.162-0.131-0.294-0.293-0.294h-23.469c-0.162 0-0.294 0.132-0.294 0.294v15.063c0 0.369-0.298 0.667-0.667 0.667s-0.667-0.298-0.667-0.667v-15.063c0-0.897 0.73-1.628 1.627-1.628h23.469c0.897 0 1.626 0.731 1.626 1.628v15.063c0 0.368-0.298 0.667-0.667 0.667z"></path>
<path d="M30.272 28.040h-28.523c-0.956 0-1.733-0.777-1.733-1.733v-1.6c0-0.369 0.298-0.667 0.667-0.667h13.677c0.369 0 0.667 0.298 0.667 0.667v0.405l2.057-0.087-0.086-0.318c0-0.369 0.298-0.667 0.667-0.667h13.676c0.369 0 0.667 0.298 0.667 0.667v1.6c0 0.956-0.779 1.733-1.734 1.733zM1.35 25.374v0.934c0 0.22 0.179 0.4 0.4 0.4h28.523c0.221 0 0.401-0.18 0.401-0.4v-0.934h-12.37c-0.121 0.563-0.622 0.984-1.22 0.984h-2.144c-0.598 0-1.098-0.422-1.219-0.984h-12.371z"></path>
<path d="M8.186 15.784c-0.854 0-1.549-0.69-1.549-1.538s0.695-1.538 1.549-1.538 1.549 0.69 1.549 1.538-0.695 1.538-1.549 1.538zM8.186 14.042c-0.119 0-0.215 0.092-0.215 0.204 0 0.225 0.431 0.225 0.431 0 0-0.113-0.096-0.204-0.215-0.204z"></path>
<path d="M13.375 12.523c-0.854 0-1.549-0.69-1.549-1.538s0.695-1.537 1.549-1.537 1.549 0.689 1.549 1.537-0.695 1.538-1.549 1.538zM13.375 10.782c-0.119 0-0.215 0.091-0.215 0.204 0 0.225 0.431 0.225 0.431 0 0-0.113-0.096-0.204-0.215-0.204z"></path>
<path d="M18.564 20.44c-0.854 0-1.548-0.69-1.548-1.538s0.694-1.536 1.548-1.536 1.549 0.689 1.549 1.536-0.695 1.538-1.549 1.538zM18.564 18.699c-0.119 0-0.215 0.091-0.215 0.203 0 0.229 0.431 0.225 0.431 0 0-0.112-0.096-0.203-0.216-0.203z"></path>
<path d="M23.753 14.852c-0.854 0-1.548-0.69-1.548-1.538s0.694-1.538 1.548-1.538 1.549 0.69 1.549 1.538-0.695 1.538-1.549 1.538zM23.753 13.11c-0.119 0-0.215 0.092-0.215 0.204 0 0.227 0.432 0.224 0.431 0 0-0.113-0.096-0.204-0.216-0.204z"></path>
<path d="M8.93 14.446c-0.222 0-0.439-0.111-0.565-0.312-0.196-0.312-0.102-0.723 0.21-0.919l3.564-2.239c0.31-0.197 0.724-0.101 0.919 0.21s0.102 0.723-0.21 0.919l-3.564 2.239c-0.11 0.069-0.233 0.102-0.354 0.102z"></path>
<path d="M18.086 18.84c-0.216 0-0.43-0.105-0.557-0.301l-4.232-6.458c-0.202-0.308-0.116-0.721 0.192-0.923 0.309-0.203 0.721-0.116 0.923 0.192l4.232 6.456c0.202 0.309 0.116 0.721-0.191 0.923-0.113 0.074-0.239 0.109-0.366 0.109z"></path>
<path d="M19.159 18.93c-0.163 0-0.325-0.059-0.453-0.178-0.271-0.25-0.286-0.672-0.035-0.941l3.986-4.294c0.253-0.269 0.675-0.284 0.941-0.035 0.271 0.25 0.286 0.672 0.035 0.942l-3.986 4.293c-0.132 0.142-0.31 0.214-0.488 0.214z"></path>
</svg>
