<svg version="1.1" xmlns="http://www.w3.org/2000/svg" width="32" height="32" viewBox="0 0 32 32">
<title>connection_world_internet_worldwide</title>
<path d="M18.669 30.579c-2.952 0-5.901-0.668-9.015-2.044-0.722-0.319-2.376 0.134-4.127 0.613-0.53 0.145-1.087 0.297-1.664 0.443-1.209 0.307-2.466-0.415-2.799-1.612l-0.12-0.409c-0.498-1.668-0.747-2.675-0.639-3.208 0.193-0.96 0.942-1.68 1.909-1.833l0.811-0.134c2.751-0.462 8.474-1.422 11.769-0.467l7.327 2.124c0.491 0.143 0.866 0.392 1.134 0.699l5.16-2.324c0.813-0.366 1.661-0.302 2.327 0.176 0.681 0.49 1.066 1.346 0.982 2.184-0.081 0.798-0.572 1.456-1.348 1.806-1.521 0.685-2.754 1.251-3.772 1.717-4.762 2.185-4.948 2.271-7.936 2.271zM9.004 27.098c0.444 0 0.841 0.065 1.189 0.219 2.941 1.298 5.713 1.93 8.476 1.93 2.697 0 2.697 0 7.38-2.148 1.021-0.469 2.257-1.035 3.781-1.723 0.344-0.155 0.535-0.398 0.568-0.724 0.036-0.365-0.138-0.754-0.435-0.967-0.273-0.198-0.619-0.215-1-0.042l-5.193 2.34c0.029 0.305-0.003 0.616-0.089 0.91-0.319 1.102-1.4 1.997-2.857 1.575l-7.697-2.233c-0.353-0.103-0.557-0.473-0.454-0.827s0.471-0.559 0.825-0.454l7.699 2.233c0.686 0.206 1.078-0.234 1.204-0.665 0.051-0.175 0.064-0.372 0.016-0.559-0.016-0.026-0.031-0.053-0.044-0.083-0.019-0.043-0.034-0.087-0.043-0.131-0.105-0.18-0.29-0.331-0.581-0.415l-7.326-2.124c-3.005-0.871-8.525 0.056-11.177 0.501l-0.824 0.137c-0.41 0.065-0.728 0.37-0.81 0.779-0.044 0.374 0.448 2.022 0.609 2.565l0.126 0.43c0.141 0.504 0.675 0.807 1.187 0.68 0.57-0.145 1.118-0.294 1.64-0.437 1.509-0.413 2.795-0.765 3.828-0.765z"></path>
<path d="M20.635 19.797c-5.375 0-9.748-4.372-9.748-9.747s4.373-9.748 9.748-9.748 9.747 4.373 9.747 9.748-4.372 9.747-9.747 9.747zM20.635 1.635c-4.64 0-8.415 3.775-8.415 8.415s3.775 8.414 8.415 8.414c4.639 0 8.414-3.775 8.414-8.414s-3.775-8.415-8.414-8.415z"></path>
<path d="M23.702 15.64c-0.146 0-0.29-0.036-0.425-0.107-0.612-0.325-0.755-1.309-0.767-2.076l0.001-0.396c0.004-0.928 0.004-1.036-0.335-2.355l-0.575-0.643c-0.509-0.201-1.549-0.595-2.026-0.699-0.519-0.113-0.883-0.538-0.949-1.108-0.077-0.658 0.263-1.559 1.047-1.934 0.187-0.091 0.361-0.135 0.513-0.156-0.003-0.038-0.007-0.080-0.010-0.126-0.018-0.216-0.069-0.327-0.107-0.358-0.095-0.078-0.469-0.035-0.669-0.009-0.164 0.019-0.316 0.036-0.444 0.036-0.014 0.059-0.131 0.613-0.257 1.2l-0.059 0.275c-0.152 0.708-0.535 0.91-0.829 0.956-0.682 0.105-1.111-0.594-1.191-0.735-0.016-0.028-0.036-0.064-0.060-0.129-0.232 0.196-0.574 0.4-1.080 0.579-0.702 0.247-1.102-0.028-1.277-0.216-0.581-0.624-0.212-1.885 0.201-2.833 0.147-0.338 0.538-0.493 0.877-0.345 0.337 0.147 0.492 0.54 0.346 0.877-0.172 0.396-0.312 0.852-0.368 1.165 0.416-0.178 0.507-0.314 0.508-0.316l0.641-1.143c0.146-0.256 0.436-0.384 0.731-0.318 0.288 0.066 0.496 0.314 0.514 0.608 0.004 0.057 0.008 0.115 0.012 0.175 0.224-0.723 0.54-1.133 1.292-1.133 0.082 0 0.18-0.014 0.285-0.027 0.452-0.054 1.134-0.136 1.669 0.299 0.345 0.28 0.544 0.71 0.594 1.277 0.057 0.647 0.075 1.060-0.233 1.36-0.273 0.268-0.612 0.227-0.757 0.209-0.116-0.014-0.165-0.020-0.264 0.030-0.241 0.115-0.339 0.502-0.293 0.612 0.634 0.085 2.12 0.68 2.286 0.748 0.094 0.038 0.178 0.097 0.246 0.173l0.789 0.88c0.072 0.080 0.122 0.175 0.15 0.279 0.406 1.575 0.421 1.773 0.417 2.851l-0.001 0.38c0.003 0.177 0.022 0.377 0.049 0.552 0.712-0.859 1.794-2.866 1.598-3.425-0.389-1.107-0.624-1.775 0.615-2.446 0.698-0.378 0.872-0.683 0.866-0.803-0.021-0.368 0.262-0.682 0.629-0.702 0.378-0.038 0.682 0.262 0.702 0.629 0.043 0.775-0.483 1.464-1.561 2.048-0.108 0.059-0.176 0.1-0.219 0.127 0.034 0.158 0.139 0.456 0.227 0.705 0.548 1.557-1.686 4.813-2.479 5.33-0.182 0.118-0.376 0.178-0.567 0.178z"></path>
<path d="M15.38 15.843c-0.071 0-0.144-0.011-0.215-0.036-0.349-0.119-0.535-0.497-0.416-0.846 0.643-1.889 0.97-2.415 1.419-2.842-0.055-0.021-0.107-0.041-0.152-0.058-0.422-0.161-0.821-0.314-1.077-0.57-0.186-0.186-0.304-0.257-0.484-0.364-0.008-0.005-0.016-0.010-0.024-0.014-0.072 0.326-0.141 0.769-0.177 1.178-0.033 0.367-0.345 0.641-0.723 0.605-0.367-0.033-0.638-0.356-0.606-0.723 0.202-2.288 0.721-2.512 0.943-2.607 0.276-0.119 0.587-0.073 0.833 0.12 0.178 0.141 0.313 0.221 0.437 0.296 0.206 0.123 0.44 0.263 0.742 0.565 0.078 0.064 0.412 0.191 0.61 0.267 0.63 0.24 1.224 0.467 1.332 1.049 0.034 0.182 0.036 0.535-0.329 0.863l-0.215 0.187c-0.385 0.328-0.598 0.508-1.268 2.476-0.094 0.277-0.353 0.452-0.631 0.452z"></path>
</svg>
