<!-- Generated by IcoMoon.io -->
<svg version="1.1" xmlns="http://www.w3.org/2000/svg" width="32" height="32" viewBox="0 0 32 32">
<title>connection_plugin_female</title>
<path d="M31.675 0.325c-0.266-0.266-0.694-0.266-0.959 0l-5.647 5.647c-2.372-1.878-5.938-1.737-8.106 0.431l-1.581 1.581c-0.266 0.266-0.266 0.694 0 0.959l1.919 1.919c0 0 0 0 0 0s0 0 0 0l3.837 3.838c0 0 0 0 0 0s0 0 0 0l1.919 1.919c0.266 0.266 0.694 0.266 0.959 0l1.581-1.581c2.169-2.169 2.309-5.734 0.431-8.106l5.65-5.65c0.262-0.262 0.262-0.691-0.003-0.956zM24.637 14.078l-1.1 1.1-0.959-0.959 1.275-1.275c0.266-0.266 0.266-0.694 0-0.959s-0.694-0.266-0.959 0l-1.275 1.275-2.878-2.878 1.275-1.275c0.266-0.266 0.266-0.694 0-0.959s-0.694-0.266-0.959 0l-1.275 1.275-0.959-0.959 1.1-1.1c1.809-1.809 4.875-1.797 6.694 0.022 1.822 1.819 1.831 4.884 0.022 6.694z"></path>
</svg>
