<svg version="1.1" xmlns="http://www.w3.org/2000/svg" width="32" height="32" viewBox="0 0 32 32">
<title>connection_wireless</title>
<path d="M18.665 30.579c-2.953 0-5.902-0.668-9.016-2.044-0.721-0.318-2.374 0.134-4.126 0.613-0.531 0.145-1.087 0.297-1.665 0.443-1.207 0.309-2.465-0.415-2.799-1.612l-0.12-0.409c-0.497-1.668-0.747-2.673-0.639-3.208 0.194-0.96 0.943-1.68 1.909-1.833l0.811-0.134c2.751-0.462 8.476-1.422 11.769-0.467l7.326 2.124c0.492 0.143 0.867 0.392 1.134 0.701l5.161-2.325c0.814-0.366 1.66-0.302 2.327 0.176 0.681 0.49 1.066 1.346 0.982 2.184-0.081 0.798-0.572 1.456-1.348 1.806-1.519 0.685-2.751 1.25-3.768 1.716-4.767 2.186-4.953 2.272-7.94 2.272zM8.999 27.098c0.445 0 0.842 0.065 1.189 0.219 2.941 1.298 5.714 1.93 8.477 1.93 2.697 0 2.697 0 7.384-2.151 1.019-0.467 2.254-1.034 3.777-1.72 0.344-0.155 0.535-0.398 0.568-0.724 0.036-0.365-0.138-0.754-0.435-0.967-0.273-0.198-0.619-0.215-1-0.042l-5.193 2.34c0.029 0.305-0.003 0.616-0.089 0.91-0.319 1.103-1.415 1.996-2.857 1.575l-7.697-2.233c-0.353-0.103-0.557-0.473-0.454-0.827 0.101-0.354 0.471-0.559 0.825-0.454l7.697 2.233c0.695 0.208 1.081-0.236 1.206-0.667 0.051-0.175 0.064-0.372 0.016-0.559-0.017-0.026-0.031-0.053-0.044-0.082-0.019-0.042-0.034-0.086-0.043-0.129-0.105-0.181-0.29-0.333-0.582-0.418l-7.325-2.124c-3.005-0.871-8.525 0.056-11.177 0.501l-0.824 0.137c-0.41 0.065-0.729 0.371-0.811 0.779-0.044 0.372 0.449 2.022 0.61 2.564l0.126 0.431c0.141 0.505 0.676 0.806 1.187 0.68 0.57-0.145 1.118-0.294 1.64-0.437 1.509-0.413 2.795-0.765 3.827-0.765z"></path>
<path d="M26.85 14.612c-0.178 0-0.355-0.071-0.487-0.211-1.673-1.787-3.934-2.771-6.366-2.771-2.434 0-4.695 0.984-6.369 2.771-0.252 0.268-0.674 0.281-0.942 0.031s-0.283-0.673-0.031-0.942c1.928-2.059 4.535-3.193 7.341-3.193v0c2.805 0 5.411 1.134 7.34 3.193 0.251 0.269 0.237 0.691-0.031 0.942-0.129 0.121-0.293 0.18-0.456 0.18z"></path>
<path d="M30.173 11.29c-0.176 0-0.35-0.069-0.482-0.206-2.564-2.678-6.008-4.154-9.697-4.154-3.687 0.001-7.13 1.475-9.693 4.154-0.255 0.266-0.678 0.275-0.943 0.021-0.266-0.255-0.275-0.676-0.021-0.943 2.817-2.943 6.601-4.564 10.656-4.565s7.841 1.621 10.66 4.565c0.254 0.266 0.245 0.688-0.021 0.943-0.129 0.124-0.296 0.185-0.461 0.185z"></path>
<path d="M16.465 17.935c-0.156 0-0.313-0.055-0.439-0.165-0.277-0.242-0.305-0.664-0.063-0.94 1.021-1.166 2.491-1.834 4.033-1.834v0c1.542 0 3.012 0.668 4.033 1.834 0.242 0.276 0.215 0.698-0.063 0.94-0.276 0.242-0.698 0.216-0.94-0.063-0.768-0.876-1.872-1.379-3.030-1.379s-2.262 0.503-3.030 1.379c-0.131 0.151-0.316 0.228-0.501 0.228z"></path>
</svg>
