<svg version="1.1" xmlns="http://www.w3.org/2000/svg" width="32" height="32" viewBox="0 0 32 32">
<title>connection_plugin_male</title>
<path d="M17.344 17.534l-2.441 2.441-2.878-2.878 2.441-2.441c0.266-0.266 0.266-0.694 0-0.959s-0.694-0.266-0.959 0l-2.441 2.441-1.441-1.438-0.478-0.481c-0.266-0.266-0.694-0.266-0.959 0s-0.266 0.694 0 0.959l-1.041 1.041c-2.231 2.231-2.428 5.856-0.556 8.234l-6.266 6.262c-0.266 0.266-0.266 0.694 0 0.959s0.694 0.266 0.959 0l6.263-6.262c2.378 1.872 6 1.675 8.234-0.556l1.041-1.041c0.266 0.266 0.694 0.266 0.959 0s0.266-0.694 0-0.959l-0.481-0.481c0 0 0 0 0 0l-1.441-1.441 2.441-2.441c0.266-0.266 0.266-0.694 0-0.959-0.262-0.266-0.691-0.266-0.956 0zM14.819 23.897c-1.878 1.878-5.003 1.928-6.822 0.106-1.819-1.819-1.772-4.944 0.106-6.822v0l1.041-1.041 5.278 5.278c0 0 0 0 0 0s0 0 0 0l1.441 1.441-1.044 1.038z"></path>
</svg>
