<!-- Generated by IcoMoon.io -->
<svg version="1.1" xmlns="http://www.w3.org/2000/svg" width="32" height="32" viewBox="0 0 32 32">
<title>connect_internet_signal_radio</title>
<path d="M18 16c0 1.105-0.895 2-2 2s-2-0.895-2-2c0-1.105 0.895-2 2-2s2 0.895 2 2z"></path>
<path d="M9 22.5c-1.6-1.8-2.5-4.1-2.5-6.5s0.9-4.7 2.6-6.5c0.4-0.4 0.4-1 0-1.4s-1-0.4-1.4 0c-2 2.1-3.1 4.9-3.1 7.9 0 2.9 1.1 5.7 3.1 7.9 0.2 0.2 0.5 0.3 0.7 0.3s0.5-0.1 0.7-0.3c0.3-0.3 0.3-1-0.1-1.4 0.1 0 0.1 0 0 0z"></path>
<path d="M2 16c0-3.5 1.3-6.8 3.6-9.3 0.4-0.4 0.3-1-0.1-1.4s-1-0.3-1.4 0.1c-2.7 2.9-4.1 6.7-4.1 10.6s1.4 7.7 4.1 10.7c0 0 0 0 0 0 0.2 0.2 0.5 0.3 0.7 0.3s0.5-0.1 0.7-0.3c0.4-0.4 0.4-1 0.1-1.4-2.3-2.5-3.6-5.8-3.6-9.3z"></path>
<path d="M12.2 19.3c-0.8-0.9-1.2-2.1-1.2-3.3s0.4-2.4 1.3-3.3c0.4-0.4 0.3-1-0.1-1.4s-1-0.3-1.4 0.1c-1.2 1.2-1.8 2.9-1.8 4.6s0.6 3.4 1.8 4.7c0.2 0.2 0.5 0.3 0.7 0.3s0.5-0.1 0.7-0.2c0.4-0.4 0.4-1 0-1.5 0.1 0 0.1 0 0 0z"></path>
<path d="M24.4 8.1c-0.4-0.4-1-0.4-1.4-0.1-0.4 0.4-0.4 1-0.1 1.4 0 0 0 0 0.1 0.1 1.6 1.8 2.5 4.1 2.5 6.5s-0.9 4.7-2.6 6.5c-0.4 0.4-0.4 1 0 1.4 0.2 0.2 0.4 0.3 0.7 0.3s0.5-0.1 0.7-0.3c2-2.1 3.1-4.9 3.1-7.9 0.1-2.9-1-5.7-3-7.9z"></path>
<path d="M21.2 11.3c-0.4-0.4-1-0.4-1.4-0.1s-0.5 1-0.2 1.4c0 0 0 0.1 0.1 0.1 0.8 0.9 1.2 2.1 1.2 3.3s-0.4 2.4-1.3 3.3c-0.4 0.4-0.3 1 0.1 1.4 0.2 0.2 0.4 0.3 0.7 0.3s0.5-0.1 0.7-0.3c1.1-1.3 1.8-2.9 1.8-4.7 0.1-1.7-0.5-3.4-1.7-4.7z"></path>
<path d="M27.9 5.3c0 0 0 0 0 0-0.4-0.4-1-0.4-1.4-0.1-0.4 0.4-0.4 1-0.1 1.4 2.3 2.6 3.6 5.9 3.6 9.4s-1.3 6.8-3.6 9.3c-0.4 0.4-0.3 1 0.1 1.4 0.2 0.2 0.4 0.3 0.7 0.3s0.5-0.1 0.7-0.3c2.7-3 4.1-6.8 4.1-10.7s-1.4-7.7-4.1-10.7z"></path>
</svg>
