<svg version="1.1" xmlns="http://www.w3.org/2000/svg" width="32" height="32" viewBox="0 0 32 32">
<title>connection_world_internet_worldwide2</title>
<path d="M18.673 30.579c-2.952 0-5.901-0.668-9.015-2.044-0.721-0.318-2.374 0.133-4.125 0.613-0.531 0.145-1.088 0.297-1.666 0.443-1.213 0.313-2.464-0.415-2.799-1.612l-0.12-0.409c-0.498-1.668-0.747-2.675-0.639-3.208 0.193-0.96 0.942-1.68 1.909-1.833l0.811-0.134c2.751-0.462 8.475-1.422 11.769-0.467l7.327 2.124c0.491 0.143 0.866 0.392 1.134 0.699l5.16-2.324c0.814-0.366 1.661-0.302 2.327 0.176 0.681 0.49 1.066 1.346 0.982 2.184-0.081 0.798-0.572 1.456-1.348 1.806-1.521 0.685-2.754 1.251-3.772 1.717-4.762 2.185-4.948 2.271-7.936 2.271zM9.008 27.098c0.444 0 0.841 0.065 1.189 0.219 2.941 1.298 5.713 1.93 8.476 1.93 2.697 0 2.697 0 7.38-2.148 1.021-0.469 2.257-1.035 3.781-1.723 0.344-0.155 0.535-0.398 0.568-0.724 0.036-0.365-0.138-0.754-0.435-0.967-0.272-0.198-0.619-0.215-1-0.042l-5.193 2.34c0.029 0.305-0.003 0.616-0.089 0.91-0.319 1.102-1.4 1.997-2.857 1.575l-7.697-2.233c-0.353-0.103-0.557-0.473-0.454-0.827 0.102-0.354 0.471-0.559 0.825-0.454l7.699 2.233c0.686 0.206 1.079-0.234 1.204-0.665 0.051-0.175 0.064-0.372 0.016-0.559-0.016-0.026-0.031-0.053-0.044-0.083-0.019-0.043-0.034-0.087-0.043-0.131-0.105-0.18-0.29-0.331-0.581-0.415l-7.326-2.124c-3.005-0.871-8.525 0.056-11.177 0.501l-0.824 0.137c-0.41 0.065-0.728 0.37-0.81 0.779-0.044 0.374 0.448 2.022 0.609 2.565l0.126 0.43c0.142 0.505 0.678 0.807 1.187 0.68 0.57-0.145 1.119-0.294 1.641-0.437 1.508-0.413 2.794-0.765 3.827-0.765z"></path>
<path d="M29.901 16.827h-20.129c-0.369 0-0.667-0.298-0.667-0.667s0.298-0.667 0.667-0.667h20.129c0.369 0 0.667 0.298 0.667 0.667s-0.298 0.667-0.667 0.667z"></path>
<path d="M28.719 12.203h-17.822c-0.369 0-0.667-0.298-0.667-0.667s0.298-0.667 0.667-0.667h17.822c0.369 0 0.667 0.298 0.667 0.667s-0.298 0.667-0.667 0.667z"></path>
<path d="M24.341 21.516c-0.056 0-0.113-0.007-0.171-0.022-0.355-0.094-0.568-0.458-0.474-0.815 0.366-1.388 0.56-2.951 0.56-4.518 0-5.042-1.982-9.344-4.327-9.393-0.367-0.008-0.658-0.311-0.652-0.677 0.007-0.365 0.303-0.656 0.667-0.656 0.003 0 0.005 0 0.007 0 5.854 0.063 10.617 4.874 10.617 10.727 0 1.143-0.186 2.283-0.552 3.385-0.117 0.348-0.49 0.539-0.844 0.422-0.349-0.116-0.538-0.493-0.422-0.844 0.322-0.966 0.484-1.964 0.484-2.964 0-3.974-2.508-7.4-6.025-8.764 1.449 1.932 2.38 5.115 2.38 8.764 0 1.706-0.203 3.34-0.604 4.859-0.079 0.298-0.349 0.496-0.645 0.496z"></path>
<path d="M15.011 19.872c-0.322 0-0.605-0.234-0.658-0.563-0.163-1.023-0.245-2.083-0.245-3.15 0-5.979 2.488-10.692 5.662-10.729l0.096 1.329c-0.010 0.001-0.019 0.001-0.030 0.001v0c-2.422 0.066-4.395 4.354-4.395 9.399 0 0.997 0.077 1.987 0.228 2.941 0.058 0.363-0.19 0.704-0.554 0.763-0.035 0.005-0.070 0.008-0.105 0.008z"></path>
<path d="M24.341 21.517c-0.056 0-0.113-0.007-0.171-0.022-0.355-0.094-0.568-0.458-0.474-0.815 0.366-1.389 0.56-2.952 0.56-4.519 0-4.624-1.667-8.626-3.753-9.296v13.456c0 0.369-0.298 0.667-0.667 0.667s-0.667-0.298-0.667-0.667v-14.225c0-0.369 0.298-0.667 0.667-0.667 3.279 0.072 5.753 4.784 5.753 10.732 0 1.704-0.203 3.34-0.604 4.861-0.078 0.298-0.349 0.496-0.645 0.496z"></path>
<path d="M15.011 19.872c-0.322 0-0.605-0.234-0.658-0.561-0.163-1.019-0.245-2.081-0.245-3.151 0-3.663 0.934-6.852 2.387-8.78-3.536 1.353-6.057 4.785-6.057 8.78 0 0.758 0.102 1.542 0.304 2.331 0.091 0.357-0.124 0.72-0.481 0.811-0.356 0.092-0.72-0.124-0.811-0.481-0.229-0.897-0.346-1.793-0.346-2.661 0-5.881 4.786-10.695 10.669-10.729 0.001 0 0.003 0 0.004 0 0.366 0 0.664 0.295 0.667 0.661 0.003 0.368-0.292 0.668-0.659 0.673-2.355 0.027-4.344 4.329-4.344 9.395 0 1.001 0.077 1.991 0.228 2.94 0.058 0.365-0.189 0.706-0.553 0.764-0.036 0.005-0.071 0.008-0.105 0.008z"></path>
</svg>
