<svg version="1.1" xmlns="http://www.w3.org/2000/svg" width="32" height="32" viewBox="0 0 32 32">
<title>connections_links</title>
<path d="M27.425 12.309c-0.584-0.259-1.288 0.003-1.55 0.597s0.003 1.284 0.597 1.55c1.959 0.875 3.181 2.794 3.181 5.003 0 2.994-2.706 5.522-5.903 5.522h-8.691c-2.969 0-5.419-2.194-5.728-5 0.206 0.347 0.581 0.578 1.009 0.578h6.609c4.475 0.003 8.113-3.563 8.113-7.944 0-4.384-3.637-7.95-8.113-7.95h-8.688c-4.478 0-8.262 3.663-8.262 8 0 3.134 1.747 5.969 4.447 7.225 0.584 0.272 1.287 0.019 1.559-0.569 0.272-0.591 0.019-1.288-0.569-1.559-1.875-0.872-3.087-2.875-3.087-5.097 0-3.009 2.762-5.647 5.912-5.647h8.688c2.997 0 5.466 2.237 5.734 5.081-0.191-0.391-0.591-0.659-1.053-0.659h-6.572c-4.472 0-8.113 3.566-8.113 7.947s3.638 7.947 8.113 7.947h8.691c4.472 0 8.253-3.606 8.253-7.872-0.003-3.153-1.753-5.894-4.578-7.153zM15.059 13.791h6.575c0.462 0 0.863-0.269 1.053-0.659-0.269 2.844-2.738 5.078-5.734 5.078h-6.613c-0.431 0-0.806 0.231-1.009 0.578 0.306-2.803 2.756-4.997 5.728-4.997z"></path>
</svg>
