<!-- Generated by IcoMoon.io -->
<svg version="1.1" xmlns="http://www.w3.org/2000/svg" width="32" height="32" viewBox="0 0 32 32">
<title>connect_internet_signal_radio</title>
<path d="M18 16.001c0 1.105-0.895 2-2 2s-2-0.895-2-2c0-1.105 0.895-2 2-2s2 0.895 2 2z"></path>
<path fill="none" stroke="#444" stroke-linejoin="round" stroke-linecap="round" stroke-miterlimit="4" stroke-width="2" d="M11.516 12.016c-0.94 1.054-1.514 2.453-1.514 3.985s0.574 2.931 1.52 3.991l-0.005-0.006M20.486 19.986c0.94-1.054 1.514-2.453 1.514-3.985s-0.574-2.931-1.52-3.991l0.005 0.006M8.33 8.83c-1.753 1.871-2.829 4.395-2.829 7.17s1.076 5.299 2.835 7.176l-0.005-0.006M23.67 23.17c1.753-1.872 2.829-4.395 2.829-7.17s-1.076-5.299-2.835-7.176l0.005 0.006M27.188 26c2.366-2.643 3.812-6.153 3.812-10s-1.446-7.357-3.825-10.014l0.013 0.014M4.813 6c-2.366 2.643-3.812 6.153-3.812 10s1.446 7.357 3.825 10.014l-0.013-0.014"></path>
</svg>
