<svg version="1.1" xmlns="http://www.w3.org/2000/svg" width="32" height="32" viewBox="0 0 32 32">
<title>contact_archive_identity_card_photo_user_profile</title>
<path d="M16.145 19.931h-11.005c-0.599 0-1.086-0.49-1.086-1.092v-1.495c0-0.451 0.281-0.861 0.698-1.021 2.824-1.092 3.577-1.616 3.773-1.798v-0.143c-0.346-0.415-0.622-0.928-0.808-1.506-0.257-0.251-0.426-0.585-0.476-0.946-0.051-0.367 0.022-0.729 0.205-1.043v-1.135c0-1.847 1.225-2.995 3.197-2.995 2.001 0 3.196 1.12 3.196 2.995v1.134c0.184 0.316 0.257 0.68 0.205 1.047-0.051 0.361-0.221 0.694-0.477 0.944-0.186 0.577-0.461 1.091-0.807 1.505v0.169c0.142 0.118 0.841 0.639 3.776 1.773 0.415 0.161 0.695 0.572 0.695 1.021v1.495c0 0.603-0.487 1.092-1.086 1.092zM5.387 18.598h10.51v-1.091c-3.815-1.486-4.288-2.092-4.441-2.585-0.019-0.064-0.030-0.131-0.030-0.199v-0.598c0-0.175 0.068-0.341 0.19-0.466 0.322-0.329 0.573-0.794 0.727-1.343 0.041-0.148 0.133-0.279 0.26-0.367 0.065-0.046 0.109-0.119 0.12-0.201 0.008-0.059 0.003-0.149-0.068-0.237-0.096-0.119-0.149-0.268-0.149-0.421v-1.339c0-1.133-0.592-1.661-1.863-1.661-1.236 0-1.863 0.559-1.863 1.661v1.34c0 0.153-0.053 0.301-0.149 0.421-0.071 0.087-0.076 0.176-0.068 0.235 0.011 0.083 0.055 0.158 0.121 0.204 0.126 0.089 0.217 0.217 0.258 0.366 0.153 0.549 0.405 1.013 0.727 1.343 0.122 0.125 0.19 0.292 0.19 0.466v0.598c0 0.067-0.010 0.134-0.030 0.199-0.154 0.493-0.627 1.099-4.441 2.585v1.091z"></path>
<path d="M27.309 15.985h-7.949c-0.369 0-0.667-0.298-0.667-0.667s0.298-0.667 0.667-0.667h7.949c0.369 0 0.667 0.298 0.667 0.667s-0.298 0.667-0.667 0.667z"></path>
<path d="M27.309 11.985h-7.949c-0.369 0-0.667-0.298-0.667-0.667s0.298-0.667 0.667-0.667h7.949c0.369 0 0.667 0.298 0.667 0.667s-0.298 0.667-0.667 0.667z"></path>
<path d="M31.316 29.341h-6.664c-0.369 0-0.667-0.298-0.667-0.667v-1.914c0-0.743-0.6-1.349-1.337-1.349-0.738 0-1.339 0.605-1.339 1.349v1.914c0 0.369-0.298 0.667-0.667 0.667h-9.326c-0.369 0-0.667-0.298-0.667-0.667v-1.914c0-0.743-0.6-1.349-1.338-1.349s-1.338 0.605-1.338 1.349v1.914c0 0.369-0.298 0.667-0.667 0.667h-6.631c-0.369 0-0.667-0.298-0.667-0.667v-26.632c0-0.369 0.298-0.667 0.667-0.667h30.639c0.369 0 0.667 0.298 0.667 0.667v26.632c0 0.369-0.298 0.667-0.667 0.667zM25.319 28.008h5.331v-25.299h-29.305v25.299h5.297v-1.247c0-1.479 1.199-2.682 2.671-2.682s2.671 1.203 2.671 2.682v1.247h7.992v-1.247c0-1.479 1.199-2.682 2.672-2.682s2.671 1.203 2.671 2.682v1.247z"></path>
</svg>
