<!-- Generated by IcoMoon.io -->
<svg version="1.1" xmlns="http://www.w3.org/2000/svg" width="32" height="32" viewBox="0 0 32 32">
<title>cook_chef_restaurant_kitchen</title>
<path d="M23.333 20.026h-14.667c-0.369 0-0.667-0.298-0.667-0.667v-4.519c-1.315-0.817-3.167-2.534-3.167-4.709 0-2.647 2.191-4.902 5.067-5.307 0.956-2.713 3.583-4.44 6.825-4.44 3.072 0 5.663 1.62 6.714 4.159 2.552 0.602 4.366 2.684 4.366 5.075 0 2.529-1.378 4.313-3.805 4.966v4.775c-0 0.369-0.298 0.667-0.667 0.667zM9.333 18.693h13.333v-4.639c0-0.32 0.228-0.596 0.543-0.655 2.695-0.511 3.262-2.337 3.262-3.78 0-1.859-1.531-3.473-3.639-3.839-0.24-0.042-0.437-0.21-0.517-0.44-0.921-2.673-3.586-3.622-5.59-3.622-2.123 0-4.884 1.021-5.677 3.901-0.075 0.273-0.314 0.468-0.596 0.488-2.403 0.167-4.285 1.935-4.285 4.024 0 1.522 1.46 3.006 2.817 3.74 0.215 0.117 0.35 0.342 0.35 0.587v4.236z"></path>
<path d="M12.667 17.221c-0.369 0-0.667-0.298-0.667-0.667v-2.42c0-0.369 0.298-0.667 0.667-0.667s0.667 0.298 0.667 0.667v2.42c0 0.369-0.298 0.667-0.667 0.667z"></path>
<path d="M16 17.221c-0.369 0-0.667-0.298-0.667-0.667v-2.42c0-0.369 0.298-0.667 0.667-0.667s0.667 0.298 0.667 0.667v2.42c0 0.369-0.298 0.667-0.667 0.667z"></path>
<path d="M19.333 17.221c-0.369 0-0.667-0.298-0.667-0.667v-2.42c0-0.369 0.298-0.667 0.667-0.667s0.667 0.298 0.667 0.667v2.42c0 0.369-0.298 0.667-0.667 0.667z"></path>
<path d="M16.083 31.741c-3.83 0-6.738-3.535-7.255-7.017-0.678-0.203-1.184-0.746-1.341-1.477-0.202-0.94 0.247-1.836 1.117-2.227 0.333-0.155 0.73-0.001 0.881 0.335s0.001 0.731-0.335 0.881c-0.348 0.156-0.414 0.481-0.361 0.731 0.026 0.12 0.146 0.509 0.619 0.509 0.348 0 0.661 0.268 0.688 0.615 0.232 2.988 2.747 6.316 5.985 6.316s5.753-3.328 5.987-6.316c0.026-0.346 0.316-0.615 0.664-0.615 0.495 0 0.615-0.391 0.641-0.51 0.053-0.25-0.013-0.573-0.361-0.729-0.336-0.151-0.486-0.546-0.335-0.881s0.547-0.488 0.881-0.335c0.87 0.392 1.319 1.285 1.117 2.225-0.158 0.734-0.668 1.28-1.34 1.481-0.518 3.482-3.427 7.014-7.255 7.014z"></path>
<path d="M16.083 27.018c-0.369 0-0.667-0.298-0.667-0.667v-0.945c0-0.369 0.298-0.667 0.667-0.667s0.667 0.298 0.667 0.667v0.945c0 0.368-0.298 0.667-0.667 0.667z"></path>
<path d="M12.817 24.095c-0.369 0-0.667-0.298-0.667-0.667s0.298-0.694 0.667-0.694 0.667 0.271 0.667 0.639v0.055c0 0.369-0.298 0.667-0.667 0.667z"></path>
<path d="M19.333 24.095c-0.369 0-0.667-0.298-0.667-0.667s0.298-0.694 0.667-0.694 0.667 0.271 0.667 0.639v0.055c0 0.369-0.298 0.667-0.667 0.667z"></path>
</svg>
