<!-- Generated by IcoMoon.io -->
<svg version="1.1" xmlns="http://www.w3.org/2000/svg" width="32" height="32" viewBox="0 0 32 32">
<title>copy</title>
<path d="M25.4 7h-0.4v-0.5c0-2.5-2-4.5-4.5-4.5h-13.5c-2.8 0-5 2.2-5 5v13.5c0 2.5 2 4.5 4.5 4.5h0.5v0.4c0 2.6 2 4.6 4.6 4.6h13.9c2.5 0 4.6-2 4.6-4.6v-13.8c-0.1-2.6-2.1-4.6-4.7-4.6zM6.5 23c-1.4 0-2.5-1.1-2.5-2.5v-13.5c0-1.6 1.4-3 3-3h13.5c1.4 0 2.5 1.1 2.5 2.5v0.5h-11.4c-2.6 0-4.6 2-4.6 4.6v11.4h-0.5zM28 25.4c0 1.4-1.1 2.6-2.6 2.6h-13.8c-1.5 0-2.6-1.1-2.6-2.6v-13.8c0-1.5 1.1-2.6 2.6-2.6h13.9c1.4 0 2.6 1.1 2.6 2.6v13.8z"></path>
</svg>
