<svg version="1.1" xmlns="http://www.w3.org/2000/svg" width="32" height="32" viewBox="0 0 32 32">
<title>copy</title>
<path d="M31.333 32.001h-20c-0.369 0-0.667-0.298-0.667-0.667v-21.333c0-0.369 0.298-0.667 0.667-0.667h16.214c0.177 0 0.348 0.071 0.473 0.197l3.786 3.815c0.125 0.124 0.194 0.294 0.194 0.469v17.518c0 0.368-0.298 0.667-0.667 0.667zM12 30.668h18.667v-16.577l-3.397-3.423h-15.269v20z"></path>
<path d="M26.667 25.335h-10.667c-0.369 0-0.667-0.298-0.667-0.667s0.298-0.667 0.667-0.667h10.667c0.369 0 0.667 0.298 0.667 0.667s-0.298 0.667-0.667 0.667z"></path>
<path d="M26.667 21.335h-10.667c-0.369 0-0.667-0.298-0.667-0.667s0.298-0.667 0.667-0.667h10.667c0.369 0 0.667 0.298 0.667 0.667s-0.298 0.667-0.667 0.667z"></path>
<path d="M26.667 17.335h-10.667c-0.369 0-0.667-0.298-0.667-0.667s0.298-0.667 0.667-0.667h10.667c0.369 0 0.667 0.298 0.667 0.667s-0.298 0.667-0.667 0.667z"></path>
<path d="M8.667 21.335h-8.001c-0.369 0-0.667-0.298-0.667-0.667v-20.001c0-0.369 0.298-0.667 0.667-0.667h16.213c0.177 0 0.348 0.071 0.473 0.197l3.786 3.815c0.125 0.124 0.194 0.294 0.194 0.469v2.852c0 0.369-0.298 0.667-0.667 0.667s-0.667-0.298-0.667-0.667v-2.577l-3.397-3.423h-15.269v18.667h7.334c0.369 0 0.667 0.298 0.667 0.667s-0.298 0.667-0.667 0.667z"></path>
<path d="M7.999 14.667h-2.666c-0.369 0-0.667-0.298-0.667-0.667s0.298-0.667 0.667-0.667h2.666c0.369 0 0.667 0.298 0.667 0.667s-0.298 0.667-0.667 0.667z"></path>
<path d="M7.999 10.667h-2.666c-0.369 0-0.667-0.298-0.667-0.667s0.298-0.667 0.667-0.667h2.666c0.369 0 0.667 0.298 0.667 0.667s-0.298 0.667-0.667 0.667z"></path>
<path d="M15.999 6.667h-10.667c-0.369 0-0.667-0.298-0.667-0.667s0.298-0.667 0.667-0.667h10.667c0.368 0 0.667 0.298 0.667 0.667s-0.299 0.667-0.667 0.667z"></path>
</svg>
