<!-- Generated by IcoMoon.io -->
<svg version="1.1" xmlns="http://www.w3.org/2000/svg" width="32" height="32" viewBox="0 0 32 32">
<title>credit_card</title>
<path d="M25.5 5h-19c-2.5 0-4.5 2-4.5 4.5v13c0 2.5 2 4.5 4.5 4.5h19c2.5 0 4.5-2 4.5-4.5v-13c0-2.5-2-4.5-4.5-4.5zM6.5 7h19c1.4 0 2.5 1.1 2.5 2.5v0.6h-24v-0.6c0-1.4 1.1-2.5 2.5-2.5zM25.5 25h-19c-1.4 0-2.5-1.1-2.5-2.5v-8.6h24v8.6c0 1.4-1.1 2.5-2.5 2.5z"></path>
<path d="M11 16.9h-3c-1 0-1.9 0.8-1.9 1.9v1.2c0 1 0.8 1.9 1.9 1.9h3c1 0 1.9-0.8 1.9-1.9v-1.2c0-1.1-0.9-1.9-1.9-1.9z"></path>
</svg>
