<svg version="1.1" xmlns="http://www.w3.org/2000/svg" width="32" height="32" viewBox="0 0 32 32">
<title>credit_card</title>
<path d="M26.013 22.669h-8.072c-0.369 0-0.667-0.298-0.667-0.667s0.298-0.667 0.667-0.667h8.072c0.369 0 0.667 0.298 0.667 0.667s-0.298 0.667-0.667 0.667z"></path>
<path d="M29.62 27.964h-27.279c-1.338 0-2.426-1.089-2.426-2.427v-17.774c0-1.339 1.089-2.427 2.426-2.427h27.279c1.337 0 2.426 1.089 2.426 2.427v17.774c0 1.338-1.089 2.427-2.426 2.427zM2.341 6.669c-0.603 0-1.093 0.491-1.093 1.094v17.774c0 0.603 0.49 1.094 1.093 1.094h27.279c0.603 0 1.092-0.491 1.092-1.094v-17.774c0-0.603-0.49-1.094-1.092-1.094h-27.279z"></path>
<path d="M31.379 15.979h-30.798c-0.369 0-0.667-0.298-0.667-0.667v-5.283c0-0.369 0.298-0.667 0.667-0.667h30.797c0.369 0 0.667 0.298 0.667 0.667v5.283c0 0.369-0.298 0.667-0.667 0.667zM1.248 14.645h29.464v-3.95h-29.464v3.95z"></path>
</svg>
