<svg version="1.1" xmlns="http://www.w3.org/2000/svg" width="32" height="32" viewBox="0 0 32 32">
<title>crop_image</title>
<path d="M31.227 24.036h-22.473c-0.369 0-0.667-0.298-0.667-0.667v-22.514c0-0.369 0.298-0.667 0.667-0.667s0.667 0.298 0.667 0.667v21.848h21.806c0.369 0 0.667 0.298 0.667 0.667s-0.298 0.667-0.667 0.667z"></path>
<path d="M23.333 31.333c-0.369 0-0.667-0.298-0.667-0.667v-7.297c0-0.369 0.298-0.667 0.667-0.667s0.667 0.298 0.667 0.667v7.297c0 0.369-0.298 0.667-0.667 0.667z"></path>
<path d="M23.333 20.667c-0.369 0-0.667-0.298-0.667-0.667v-10.667h-10.667c-0.369 0-0.667-0.298-0.667-0.667s0.298-0.667 0.667-0.667h11.333c0.369 0 0.667 0.298 0.667 0.667v11.334c0 0.369-0.298 0.667-0.667 0.667z"></path>
<path d="M8.754 9.333h-7.421c-0.369 0-0.667-0.298-0.667-0.667s0.298-0.667 0.667-0.667h7.421c0.369 0 0.667 0.298 0.667 0.667s-0.298 0.667-0.667 0.667z"></path>
<path d="M11.472 21.178c-0.171 0-0.341-0.065-0.471-0.195-0.26-0.26-0.26-0.682 0-0.943l17.491-17.491c0.26-0.26 0.682-0.26 0.943 0s0.26 0.682 0 0.943l-17.491 17.491c-0.13 0.13-0.301 0.195-0.471 0.195z"></path>
</svg>
