<!-- Generated by IcoMoon.io -->
<svg version="1.1" xmlns="http://www.w3.org/2000/svg" width="30" height="32" viewBox="0 0 30 32">
<title>cube</title>
<path d="M28.6 9.169c-0.262-0.453-0.637-0.831-1.091-1.097l-9.5-5.528c-0.609-0.356-1.306-0.544-2.009-0.544-0.706 0-1.4 0.187-2.009 0.544l-9.5 5.528c-0.453 0.262-0.828 0.644-1.091 1.097s-0.4 0.969-0.4 1.494v10.672c0 0.525 0.138 1.041 0.4 1.494s0.638 0.834 1.091 1.097l9.5 5.528c0.588 0.341 1.253 0.528 1.934 0.541 0.025 0.003 0.050 0.003 0.075 0.003s0.050 0 0.075-0.003c0.678-0.012 1.347-0.2 1.934-0.541l9.5-5.528c0.453-0.262 0.828-0.644 1.091-1.097 0.259-0.453 0.4-0.969 0.4-1.494 0 0 0 0 0 0v-10.672c0-0.525-0.137-1.041-0.4-1.494zM14.994 4.272c0.303-0.178 0.653-0.272 1.003-0.272s0.7 0.094 1.003 0.272l8.953 5.209-9.953 5.859-9.956-5.859 8.95-5.209zM5.497 22.2c-0.15-0.087-0.275-0.216-0.362-0.366s-0.134-0.325-0.134-0.497v-10.15l10 5.881v10.659c0 0-0.003 0-0.003-0.003l-9.5-5.525zM26.866 21.834c-0.087 0.15-0.212 0.278-0.363 0.366l-9.5 5.528c-0.003 0-0.003 0.003-0.006 0.003v-10.659l10.003-5.884v10.147c0 0.175-0.047 0.347-0.134 0.5z"></path>
</svg>
