<!-- Generated by IcoMoon.io -->
<svg version="1.1" xmlns="http://www.w3.org/2000/svg" width="32" height="32" viewBox="0 0 32 32">
<title>cup_place_winner_award_prize_achievement</title>
<path fill="none" stroke-linejoin="round" stroke-linecap="round" stroke-miterlimit="4" stroke-width="2" stroke="#000" d="M23 22c0 3.866-3.134 7-7 7s-7-3.134-7-7c0-3.866 3.134-7 7-7s7 3.134 7 7z"></path>
<path fill="none" stroke-linejoin="round" stroke-linecap="round" stroke-miterlimit="4" stroke-width="2" stroke="#000" d="M19 22c0 1.657-1.343 3-3 3s-3-1.343-3-3c0-1.657 1.343-3 3-3s3 1.343 3 3z"></path>
<path fill="none" stroke-linejoin="round" stroke-linecap="round" stroke-miterlimit="4" stroke-width="2" stroke="#000" d="M9.188 20.188l-6.572-10.23c-0.199-0.306-0.317-0.68-0.317-1.081 0-0.326 0.078-0.634 0.216-0.906l-0.005 0.011 1.938-3.875c0.335-0.661 1.010-1.107 1.79-1.107 0 0 0 0 0.001 0h19.527c0.779 0 1.453 0.445 1.784 1.094l0.005 0.011 1.938 3.875c0.133 0.261 0.211 0.568 0.211 0.894 0 0.402-0.118 0.776-0.322 1.089l0.005-0.008-6.571 10.231M23.188 9h-20.875M26.796 3.288l-7.734 12.338M8.784 9l4.153 6.625"></path>
</svg>
