<!-- Generated by IcoMoon.io -->
<svg version="1.1" xmlns="http://www.w3.org/2000/svg" width="32" height="32" viewBox="0 0 32 32">
<title>cup_place_winner_award_prize_achievement</title>
<path d="M16 18c-2.2 0-4 1.8-4 4s1.8 4 4 4c2.2 0 4-1.8 4-4s-1.8-4-4-4zM16 24c-1.1 0-2-0.9-2-2s0.9-2 2-2c1.1 0 2 0.9 2 2s-0.9 2-2 2z"></path>
<path d="M30.4 7.5l-1.9-3.9c-0.5-1-1.5-1.6-2.7-1.6h-19.6c-1.1 0-2.1 0.6-2.6 1.7l-2 3.8c-0.2 0.4-0.3 0.9-0.3 1.4 0 0.6 0.2 1.1 0.5 1.6l6.4 9.9c-0.1 0.5-0.2 1.1-0.2 1.6 0 4.4 3.6 8 8 8s8-3.6 8-8c0-0.5-0.1-1.1-0.2-1.6l6.4-9.9c0 0 0 0 0 0 0.3-0.5 0.5-1.1 0.5-1.6s-0.1-1-0.3-1.4zM5.3 4.6c0.2-0.4 0.6-0.6 0.9-0.6h18.9l-2.5 4h-13.8c0 0 0 0 0 0h-5.2l1.7-3.4zM16 14c-0.9 0-1.8 0.2-2.6 0.4l-2.8-4.4h10.8l-2.8 4.4c-0.8-0.2-1.7-0.4-2.6-0.4zM3.8 10h4.4l3.3 5.3c-1 0.7-1.8 1.7-2.5 2.8l-5.2-8.1zM16 28c-3.3 0-6-2.7-6-6s2.7-6 6-6 6 2.7 6 6-2.7 6-6 6zM28.6 9.4c0 0-0.1 0 0 0l-5.6 8.7c-0.6-1.1-1.5-2.1-2.6-2.8l6.5-10.3 1.7 3.4c0.1 0.1 0.1 0.3 0.1 0.4 0 0.3 0 0.4-0.1 0.6z"></path>
</svg>
