<svg version="1.1" xmlns="http://www.w3.org/2000/svg" width="32" height="32" viewBox="0 0 32 32">
<title>cup_place_winner_award_prize_achievement</title>
<path d="M21.216 31.982c-0.007 0.001-0.016 0.001-0.026 0h-10.306c-0.208 0-0.405-0.098-0.531-0.263-0.126-0.167-0.167-0.381-0.112-0.582l0.857-3.082c0.081-0.289 0.343-0.488 0.643-0.488h8.592c0.299 0 0.563 0.199 0.642 0.488l0.81 2.911c0.063 0.102 0.098 0.221 0.098 0.349 0 0.369-0.298 0.667-0.667 0.667zM11.762 30.648h8.551l-0.486-1.749h-7.579l-0.486 1.749z"></path>
<path d="M6.555 16.336c-1.003 0-2.014-0.36-2.929-1.057-1.193-0.908-2.085-2.29-2.512-3.893-0.896-3.367 0.567-6.691 3.261-7.408 0.74-0.198 1.506-0.187 2.277 0.035 0.354 0.101 0.559 0.47 0.457 0.824-0.101 0.353-0.473 0.557-0.824 0.457-0.534-0.152-1.062-0.162-1.566-0.027-1.984 0.528-3.022 3.119-2.315 5.777 0.35 1.317 1.071 2.445 2.030 3.174 0.909 0.691 1.92 0.936 2.851 0.689 0.355-0.095 0.721 0.117 0.816 0.473 0.094 0.355-0.117 0.721-0.473 0.815-0.353 0.094-0.712 0.141-1.072 0.141z"></path>
<path d="M25.503 16.333c-0.353 0-0.704-0.044-1.055-0.138-0.355-0.094-0.566-0.46-0.473-0.815 0.095-0.355 0.458-0.566 0.816-0.473 1.977 0.533 4.173-1.205 4.88-3.863s-0.332-5.249-2.315-5.777c-0.514-0.137-1.046-0.124-1.585 0.033-0.359 0.107-0.724-0.098-0.828-0.451s0.098-0.724 0.451-0.827c0.779-0.231 1.552-0.243 2.306-0.044 2.693 0.717 4.155 4.040 3.26 7.408-0.781 2.932-3.095 4.947-5.458 4.947z"></path>
<path d="M16.038 21.987c-5.627 0-10.205-4.928-10.205-10.987v-9.316c0-0.921 0.75-1.671 1.671-1.671h17.068c0.921 0 1.671 0.75 1.671 1.671v9.316c0 6.059-4.578 10.987-10.204 10.987zM7.504 1.346c-0.186 0-0.338 0.152-0.338 0.338v9.316c0 5.323 3.98 9.654 8.872 9.654s8.871-4.331 8.871-9.654v-9.316c0-0.186-0.151-0.338-0.337-0.338h-17.068z"></path>
<path d="M13.094 14.982c-0.212 0-0.526-0.152-0.652-0.324-0.335-0.458-0.164-1.003 0.403-2.811l0.231-0.743c-0.28-0.208-0.536-0.396-0.768-0.566-1.525-1.117-2.038-1.493-1.823-2.163 0.217-0.678 0.852-0.686 2.957-0.714l0.77-0.012c0.115-0.33 0.217-0.631 0.309-0.904 0.603-1.778 0.805-2.378 1.508-2.378 0.706 0 0.906 0.586 1.572 2.527l0.262 0.757c0.35 0.005 0.671 0.008 0.961 0.010 1.9 0.017 2.539 0.023 2.757 0.692 0.22 0.676-0.289 1.053-1.977 2.301l-0.608 0.453c0.103 0.331 0.199 0.631 0.286 0.904 0.534 1.678 0.695 2.185 0.366 2.637-0.126 0.172-0.441 0.325-0.654 0.325v0c-0.466 0-0.966-0.35-2.302-1.283l-0.656-0.456c-0.289 0.202-0.552 0.387-0.79 0.555-1.234 0.87-1.695 1.195-2.151 1.195zM12.483 9.011c0.189 0.142 0.4 0.296 0.613 0.453 0.337 0.246 0.723 0.529 1.158 0.855 0.225 0.169 0.319 0.46 0.237 0.728l-0.373 1.201c-0.099 0.314-0.195 0.622-0.278 0.896 0.198-0.137 0.415-0.29 0.637-0.446 0.341-0.241 0.733-0.517 1.181-0.825 0.227-0.156 0.529-0.157 0.756 0l1.042 0.723c0.275 0.192 0.544 0.381 0.784 0.544-0.070-0.225-0.148-0.473-0.229-0.725-0.126-0.395-0.271-0.85-0.43-1.367-0.082-0.269 0.013-0.56 0.238-0.729l0.991-0.738c0.275-0.203 0.543-0.4 0.777-0.578-0.241-0.005-0.507-0.007-0.776-0.009-0.418-0.004-0.897-0.008-1.44-0.019-0.279-0.006-0.523-0.184-0.616-0.446l-0.417-1.203c-0.105-0.311-0.21-0.615-0.306-0.882-0.078 0.225-0.163 0.475-0.249 0.729-0.133 0.393-0.286 0.846-0.466 1.357-0.092 0.262-0.337 0.44-0.615 0.446l-1.243 0.019c-0.344 0.005-0.68 0.009-0.977 0.016z"></path>
<path d="M14.741 28.93c-0.369 0-0.667-0.298-0.667-0.667v-4.602c0-0.369 0.298-0.667 0.667-0.667s0.667 0.298 0.667 0.667v4.602c0 0.368-0.298 0.667-0.667 0.667z"></path>
<path d="M17.335 28.93c-0.369 0-0.667-0.298-0.667-0.667v-4.602c0-0.369 0.298-0.667 0.667-0.667s0.667 0.298 0.667 0.667v4.602c0 0.368-0.298 0.667-0.667 0.667z"></path>
</svg>
