<!-- Generated by IcoMoon.io -->
<svg version="1.1" xmlns="http://www.w3.org/2000/svg" width="36" height="32" viewBox="0 0 36 32">
<title>custom_date</title>
<path d="M18.634 24.809c-1.069 0-1.894-0.353-2.472-1.059s-0.869-1.538-0.869-2.497c0-0.938 0.281-1.734 0.844-2.391s1.394-0.984 2.497-0.984c0.506 0 1.028 0.113 1.563 0.337s1 0.516 1.397 0.869l1.341-2.184c-0.563-0.55-1.234-0.969-2.019-1.25s-1.587-0.422-2.416-0.422c-1.809 0-3.294 0.578-4.456 1.738-1.162 1.156-1.744 2.606-1.744 4.35 0 1.788 0.566 3.256 1.694 4.406 1.131 1.156 2.631 1.731 4.506 1.731 1.897 0 3.484-0.663 4.762-1.984l-1.488-2.116c-0.972 0.969-2.019 1.456-3.141 1.456z"></path>
<path d="M34.219 7.594c-0.003-1.772-1.219-3.341-2.947-3.734-0.622-0.141-1.284-0.109-1.928-0.147-0.288-0.016-0.575-0.003-0.903-0.003 0-0.753 0.028-1.447-0.006-2.141-0.044-0.834-0.722-1.462-1.566-1.509-0.8-0.044-1.566 0.528-1.675 1.337-0.075 0.553-0.041 1.122-0.053 1.681-0.003 0.203 0 0.406 0 0.603-4.938 0-9.819 0-14.722 0 0-0.237 0.003-0.444 0-0.65-0.006-0.513 0.012-1.028-0.031-1.538-0.059-0.688-0.603-1.253-1.272-1.387-1.072-0.216-1.984 0.531-2.013 1.659-0.016 0.631-0.003 1.266-0.003 1.947-0.597 0-1.134 0-1.672 0-2.397 0.006-4.081 1.688-4.084 4.088-0.003 2.041 0 4.081 0 6.125 0 4.669-0.003 9.338 0.003 14.009 0.003 2.078 1.391 3.7 3.434 3.95 0.772 0.094 1.563 0.053 2.344 0.053 7.675 0.003 15.353 0.003 23.028 0 2.328 0 4.069-1.681 4.072-3.953 0.003-6.8 0-13.597-0.006-20.391zM30.144 29.666c-8.241 0.003-16.478 0.003-24.719 0-1.272 0-1.831-0.575-1.831-1.853 0-4.988 0-9.975 0-14.963 0-0.131 0-0.262 0-0.416 9.588 0 18.738 0 28.341 0 0 0.141 0 0.272 0 0.4 0 5 0.031 10 0.031 15 0 1.25-0.569 1.831-1.822 1.831z"></path>
</svg>
