<!-- Generated by IcoMoon.io -->
<svg version="1.1" xmlns="http://www.w3.org/2000/svg" width="32" height="32" viewBox="0 0 32 32">
<title>cut_scissors</title>
<path d="M6.5 14c1.1 0 2-0.4 2.8-1l2.6 1.1 0.4-0.8c0.1-0.1 0.2-0.3 0.3-0.4l0.9-0.9-2.6-1.6c0.1-0.3 0.1-0.6 0.1-0.9 0-2.5-2-4.5-4.5-4.5s-4.5 2-4.5 4.5 2 4.5 4.5 4.5zM6.5 7c1.4 0 2.5 1.1 2.5 2.5s-1.1 2.5-2.5 2.5-2.5-1.1-2.5-2.5 1.1-2.5 2.5-2.5z"></path>
<path d="M21.5 16.2l-5.2 3 2 0.9c1.2 0.6 4.3 2.1 7.5 2.3 0.2 0 0.5 0 0.7 0 0.8 0 1.7-0.1 2.4-0.6l1.3-0.9-8.7-4.7zM20.6 19.1l0.9-0.5 3.2 1.8c-1.5-0.3-3-0.9-4.1-1.3z"></path>
<path d="M30 10.6l-0.3-0.8c-0.5-1.5-3.5-1.2-5.2-0.9-1.3 0.3-7.6 1.8-10.3 3.7-1.3 0.9-1.5 2.1-1.7 3.1-0.2 0.9-0.3 1.6-1.1 2.2-1 0.7-1.7 1-2.1 1.2-0.8-0.6-1.7-1-2.8-1-2.5-0.1-4.5 1.9-4.5 4.4s2 4.5 4.5 4.5 4.5-2 4.5-4.5c0-0.4-0.1-0.8-0.2-1.1l19.2-10.8zM16 16c-0.6 0-1-0.4-1-1s0.4-1 1-1 1 0.4 1 1-0.4 1-1 1zM25 10.9c0.2-0.1 0.5-0.1 0.7-0.1l-6.7 3.8c-0.1-0.6-0.4-1.2-0.9-1.6 2.1-1 4.7-1.7 6.9-2.1zM6.5 25c-1.4 0-2.5-1.1-2.5-2.5s1.1-2.5 2.5-2.5 2.5 1.1 2.5 2.5-1.1 2.5-2.5 2.5z"></path>
</svg>
