<!-- Generated by IcoMoon.io -->
<svg version="1.1" xmlns="http://www.w3.org/2000/svg" width="32" height="32" viewBox="0 0 32 32">
<title>cut_knife</title>
<path d="M19.372 25.337h-6.667c-0.369 0-0.667-0.298-0.667-0.667v-21.542c0-1.694 1.53-3.125 3.341-3.125h1.409c1.762 0 3.25 1.427 3.25 3.117v21.55c0 0.369-0.298 0.667-0.667 0.667zM13.372 24.004h5.333v-20.883c0-0.95-0.896-1.783-1.917-1.783h-1.409c-1.051 0-2.008 0.854-2.008 1.792v20.875z"></path>
<path d="M14.039 31.785c-0.112 0-0.224-0.029-0.325-0.085-0.211-0.117-0.342-0.34-0.342-0.582v-4.068c0-0.369 0.298-0.667 0.667-0.667s0.667 0.298 0.667 0.667v2.874l2.667-1.643v-1.231c0-0.369 0.298-0.667 0.667-0.667s0.667 0.298 0.667 0.667v1.603c0 0.232-0.12 0.447-0.316 0.568l-4.001 2.465c-0.107 0.067-0.229 0.099-0.35 0.099z"></path>
<path d="M19.372 14.671h-6.667c-0.369 0-0.667-0.298-0.667-0.667s0.298-0.667 0.667-0.667h6.667c0.369 0 0.667 0.298 0.667 0.667s-0.298 0.667-0.667 0.667z"></path>
<path d="M15.437 19.975c-0.369 0-0.667-0.298-0.667-0.667v-2.531c0-0.369 0.298-0.667 0.667-0.667s0.667 0.298 0.667 0.667v2.531c0 0.369-0.299 0.667-0.667 0.667z"></path>
</svg>
