<svg version="1.1" xmlns="http://www.w3.org/2000/svg" width="32" height="32" viewBox="0 0 32 32">
<title>cut_scissors</title>
<path d="M13.229 15.852c-0.251 0-0.492-0.142-0.605-0.384-0.030-0.064-0.049-0.131-0.057-0.197-0.171-0.264-0.137-0.62 0.098-0.845 7.481-7.152 12.948-10.495 16.259-9.934 1.203 0.203 2.117 0.897 2.714 2.063 0.082 0.161 0.095 0.349 0.036 0.52s-0.184 0.311-0.348 0.388l-17.816 8.327c-0.092 0.042-0.187 0.063-0.282 0.063zM28.161 5.764c-2.543 0-6.777 2.578-12.159 7.389l14.066-6.574c-0.359-0.424-0.81-0.678-1.367-0.772-0.171-0.029-0.35-0.043-0.54-0.043z"></path>
<path d="M28.178 26.921c-3.358 0-8.57-3.355-15.513-9.993-0.235-0.225-0.269-0.582-0.098-0.845 0.008-0.066 0.027-0.133 0.057-0.198 0.156-0.333 0.551-0.477 0.887-0.322l17.816 8.327c0.164 0.077 0.289 0.216 0.348 0.388 0.059 0.171 0.046 0.359-0.036 0.519-0.596 1.165-1.51 1.861-2.714 2.064-0.238 0.040-0.487 0.060-0.746 0.060zM16.001 18.198c5.781 5.171 10.228 7.758 12.701 7.348 0.557-0.094 1.008-0.348 1.367-0.772l-14.068-6.575z"></path>
<path d="M4.818 12.923c-1.070 0-2.135-0.399-3-1.125-1.861-1.562-2.242-4.182-0.85-5.84 1.341-1.598 4.107-1.68 5.899-0.176 1.861 1.562 2.242 4.182 0.85 5.84-0.693 0.827-1.75 1.301-2.899 1.301zM3.867 5.991c-0.765 0-1.432 0.293-1.878 0.824-0.919 1.096-0.611 2.873 0.686 3.962 1.257 1.054 3.133 1.045 4.021-0.012 0.919-1.096 0.611-2.873-0.686-3.962-0.625-0.524-1.386-0.812-2.143-0.812z"></path>
<path d="M3.867 26.678c-1.148 0-2.205-0.474-2.899-1.301-0.686-0.816-0.967-1.883-0.792-3.001 0.171-1.086 0.753-2.094 1.642-2.839 1.792-1.504 4.56-1.423 5.899 0.176 0.686 0.816 0.967 1.883 0.791 3.001-0.17 1.086-0.753 2.094-1.642 2.839-0.863 0.725-1.929 1.125-2.999 1.125zM4.818 19.746c-0.757 0-1.518 0.289-2.143 0.813-0.641 0.539-1.061 1.257-1.181 2.023-0.115 0.733 0.061 1.422 0.495 1.939 0.889 1.057 2.767 1.064 4.020 0.012 0.643-0.539 1.062-1.258 1.182-2.023 0.115-0.733-0.061-1.422-0.495-1.939-0.447-0.531-1.113-0.824-1.878-0.824z"></path>
<path d="M11.434 15.665c-0.159 0-0.318-0.057-0.446-0.171l-4.227-3.804c-0.273-0.246-0.296-0.668-0.049-0.941s0.668-0.294 0.941-0.049l4.227 3.804c0.273 0.246 0.296 0.668 0.049 0.941-0.132 0.147-0.313 0.221-0.495 0.221z"></path>
<path d="M12.267 17.462c-0.971 0-1.761-0.79-1.761-1.761s0.79-1.761 1.761-1.761 1.761 0.79 1.761 1.761c0 0.971-0.79 1.761-1.761 1.761zM12.267 15.273c-0.236 0-0.428 0.192-0.428 0.428s0.192 0.428 0.428 0.428 0.428-0.192 0.428-0.428-0.192-0.428-0.428-0.428z"></path>
<path d="M7.207 20.81c-0.185 0-0.369-0.077-0.501-0.227-0.243-0.277-0.215-0.698 0.061-0.941l4.227-3.711c0.277-0.242 0.697-0.215 0.941 0.061 0.243 0.277 0.215 0.698-0.061 0.941l-4.227 3.711c-0.127 0.111-0.284 0.165-0.44 0.165z"></path>
</svg>
