<svg version="1.1" xmlns="http://www.w3.org/2000/svg" width="32" height="32" viewBox="0 0 32 32">
<title>cv_curriculum_vitae_job_life</title>
<path d="M27.327 6.68h-5.333c-0.369 0-0.667-0.298-0.667-0.667v-5.333c0-0.369 0.298-0.667 0.667-0.667s0.667 0.298 0.667 0.667v4.667h4.667c0.369 0 0.667 0.298 0.667 0.667s-0.298 0.667-0.667 0.667z"></path>
<path d="M26.271 32.013h-20.561c-0.946 0-1.716-0.777-1.716-1.733v-28.526c0-0.96 0.77-1.741 1.716-1.741h16.284c0.556 0 0.853 0.291 1.069 0.504l4.418 4.359c0.238 0.236 0.513 0.579 0.513 1.137v24.267c-0 0.956-0.772 1.733-1.723 1.733zM21.986 1.337l-16.276 0.009c-0.208 0-0.383 0.187-0.383 0.408v28.526c0 0.216 0.175 0.4 0.383 0.4h20.561c0.211 0 0.389-0.184 0.389-0.4v-24.267c0-0.047 0-0.072-0.117-0.187l-4.415-4.358c-0.039-0.039-0.116-0.114-0.142-0.13z"></path>
<path d="M23.187 26.71h-14.347c-0.369 0-0.667-0.298-0.667-0.667s0.298-0.667 0.667-0.667h14.347c0.369 0 0.667 0.298 0.667 0.667s-0.298 0.667-0.667 0.667z"></path>
<path d="M23.187 22.658h-14.347c-0.369 0-0.667-0.298-0.667-0.667s0.298-0.667 0.667-0.667h14.347c0.369 0 0.667 0.298 0.667 0.667s-0.298 0.667-0.667 0.667z"></path>
<path d="M15.083 18.72c-1.736 0-3.148-1.51-3.148-3.367s1.412-3.366 3.148-3.366c0.825 0 1.606 0.339 2.196 0.955 0.255 0.266 0.247 0.687-0.019 0.943-0.266 0.254-0.687 0.246-0.941-0.019-0.338-0.352-0.776-0.545-1.235-0.545-1.001 0-1.814 0.912-1.814 2.033 0 1.122 0.814 2.033 1.814 2.033 0.479 0 0.93-0.208 1.274-0.587 0.249-0.272 0.671-0.292 0.941-0.046 0.272 0.246 0.293 0.668 0.046 0.941-0.598 0.66-1.401 1.025-2.261 1.025z"></path>
<path d="M21.113 18.72c-0.271 0-0.516-0.164-0.617-0.415l-2.121-5.208c-0.139-0.341 0.025-0.73 0.366-0.869 0.34-0.143 0.729 0.024 0.869 0.366l1.499 3.679 1.474-3.676c0.137-0.342 0.527-0.507 0.866-0.371 0.342 0.137 0.508 0.525 0.371 0.867l-2.087 5.207c-0.1 0.253-0.345 0.418-0.617 0.419h-0.001z"></path>
</svg>
