<svg version="1.1" xmlns="http://www.w3.org/2000/svg" width="32" height="32" viewBox="0 0 32 32">
<title>dashboard_favorites</title>
<path d="M23.819 13.394c-0.159 0-0.319-0.063-0.441-0.184l-5.941-5.938c-1.647-1.647-1.647-4.325 0-5.972 0.797-0.797 1.859-1.238 2.988-1.238s2.191 0.441 2.988 1.238l0.406 0.406 0.406-0.406c0.797-0.797 1.859-1.238 2.988-1.238s2.191 0.441 2.988 1.238v0c0.797 0.797 1.238 1.859 1.238 2.987s-0.441 2.191-1.238 2.987l-5.938 5.938c-0.125 0.122-0.284 0.181-0.444 0.181v0zM20.425 1.313c-0.794 0-1.541 0.309-2.103 0.872-1.159 1.159-1.159 3.047 0 4.206l5.497 5.497 5.497-5.497c0.563-0.563 0.872-1.309 0.872-2.103s-0.309-1.541-0.872-2.103-1.309-0.872-2.103-0.872-1.541 0.309-2.103 0.872l-0.85 0.847c-0.244 0.244-0.641 0.244-0.884 0l-0.847-0.847c-0.563-0.563-1.309-0.872-2.103-0.872v0z"></path>
<path d="M21.372 26.047v0c-0.053-0.363-0.387-0.613-0.75-0.563-0.363 0.053-0.613 0.387-0.563 0.75l0.631 4.441h-9.972l0.631-4.444c0.053-0.363-0.2-0.697-0.563-0.75-0.363-0.050-0.697 0.2-0.747 0.563l-0.653 4.591-0.006 0.094c0 0.363 0.162 0.691 0.403 0.916s0.566 0.353 0.912 0.353h10.022c0.347 0 0.672-0.131 0.913-0.353s0.403-0.55 0.403-0.916l-0.006-0.094-0.656-4.588z"></path>
<path d="M25.722 14.641v0 0z"></path>
<path d="M31.369 9.256l-1.325 1.325v8.697h-28.719v-14.006c0.003-0.8 0.625-1.422 1.456-1.428h11.65c0.041-0.453 0.153-0.9 0.341-1.325h-11.991c-0.766 0-1.469 0.303-1.972 0.8-0.5 0.497-0.809 1.194-0.809 1.953v16.222c0 0.759 0.309 1.456 0.809 1.956s1.203 0.806 1.972 0.806h25.8c0.769 0 1.472-0.306 1.972-0.806 0.503-0.497 0.813-1.194 0.813-1.956v-2.047c0-0.003 0-0.003 0-0.006s0-0.006 0-0.006v0-10.178zM28.581 22.928h-25.8c-0.831-0.003-1.453-0.637-1.456-1.438v-0.891h28.719v0.891c-0.003 0.8-0.628 1.434-1.462 1.438z"></path>
<path d="M7.428 16.894c-2.591-0.003-4.7-2.106-4.7-4.691 0-0.184 0.013-0.378 0.034-0.572 0.159-1.319 0.834-2.463 1.9-3.219 0.825-0.581 1.844-0.928 2.728-0.931 0.228 0 0.425 0.025 0.606 0.075 0.166 0.050 0.356 0.125 0.516 0.313 0.103 0.122 0.166 0.294 0.162 0.447l-0.006 0.091-0.009 0.050-0.691 3.003 2.881-1.434 0.219-0.050c0.313 0.006 0.591 0.194 0.709 0.481l0.006 0.012c0.225 0.559 0.338 1.147 0.338 1.738 0 1.225-0.475 2.387-1.338 3.278-0.884 0.916-2.075 1.419-3.35 1.419-0.003-0.009-0.006-0.009-0.006-0.009zM7.375 8.378c-0.559 0-1.456 0.238-2.194 0.769-0.878 0.634-1.394 1.506-1.528 2.594-0.019 0.153-0.028 0.306-0.028 0.463 0 1 0.391 1.947 1.1 2.666 0.719 0.725 1.678 1.125 2.7 1.125 1.031 0 1.994-0.406 2.709-1.144 0.688-0.709 1.081-1.675 1.084-2.653 0-0.353-0.066-0.741-0.197-1.147l-0.031-0.1-3.475 1.731c-0.063 0.031-0.131 0.047-0.2 0.047-0.1 0-0.2-0.034-0.281-0.097-0.134-0.106-0.197-0.284-0.159-0.453l0.866-3.766-0.094-0.016c-0.078-0.012-0.159-0.019-0.244-0.019h-0.028z"></path>
<path d="M9.541 9.966c-0.016-0.003-0.028-0.003-0.044-0.003-0.050-0.003-0.119-0.003-0.256-0.094v0c-0.106-0.091-0.134-0.156-0.153-0.209-0.003-0.006-0.006-0.016-0.009-0.022l-0.028-0.122-0.009-0.181c0.003-0.378 0.078-1.034 0.15-1.622 0.075-0.594 0.15-1.147 0.159-1.203v-0.006c0.016-0.188 0.175-0.381 0.313-0.441l0.003-0.003c0.137-0.069 0.253-0.081 0.387-0.081 0.203 0 0.409 0.044 0.675 0.138 0.25 0.094 0.5 0.222 0.744 0.384 0.409 0.275 0.969 0.766 1.3 1.534l0.041 0.188v0.109l-0.037 0.191c-0.034 0.078-0.063 0.109-0.088 0.134l-0.006 0.009-0.063 0.056-0.091 0.059-0.194 0.103c-0.131 0.066-0.303 0.147-0.547 0.256-0.459 0.203-0.975 0.416-1.381 0.569-0.284 0.109-0.509 0.188-0.691 0.231-0.009 0.003-0.019 0.003-0.028 0.006-0.041 0.009-0.075 0.016-0.147 0.019zM10.194 7c-0.041 0.3-0.078 0.569-0.109 0.825-0.041 0.328-0.078 0.666-0.106 0.947l-0.012 0.144 0.134-0.050c0.184-0.072 0.356-0.137 0.519-0.203 0.387-0.156 0.797-0.331 1.1-0.475l0.094-0.044-0.056-0.084c-0.378-0.594-0.956-0.959-1.334-1.097-0.028-0.009-0.053-0.019-0.078-0.025-0.012-0.003-0.022-0.006-0.034-0.009l-0.1-0.031-0.016 0.103z"></path>
<path d="M24.716 15.281v0 0z"></path>
<path d="M21.884 16.703v0 0z"></path>
<path d="M28.503 14.088c-0.194-0.356-0.559-0.578-0.959-0.578-0.109 0-0.219 0.016-0.322 0.050-0.5 0.156-0.809 0.634-0.753 1.162 0.006 0.063 0.003 0.069-0.047 0.097-0.341 0.191-0.675 0.384-0.988 0.572-0.022 0.012-0.031 0.012-0.031 0.012s-0.012 0-0.044-0.025c-0.206-0.147-0.422-0.222-0.641-0.222-0.188 0-0.375 0.053-0.559 0.159-0.372 0.216-0.553 0.566-0.525 1.009 0 0.022 0 0.031 0 0.031s-0.009 0.009-0.031 0.019c-0.309 0.15-0.641 0.313-0.972 0.484-0.006 0.003-0.012 0.006-0.016 0.006-0.003-0.003-0.009-0.006-0.016-0.012-0.212-0.184-0.45-0.278-0.709-0.278-0.128 0-0.262 0.022-0.4 0.069 0 0-0.003 0-0.003 0-0.012 0-0.025-0.003-0.031-0.006-0.375-0.4-0.756-0.806-1.122-1.203-0.178-0.191-0.356-0.384-0.534-0.575-0.009-0.009-0.012-0.016-0.016-0.019 0-0.003 0.003-0.012 0.009-0.031 0.041-0.097 0.066-0.2 0.087-0.297 0.009-0.037 0.019-0.075 0.028-0.116l0.006-0.022v-0.022c-0.019-0.609-0.503-1.088-1.1-1.088-0.188 0-0.366 0.047-0.534 0.144-0.472 0.266-0.659 0.781-0.488 1.341 0 0.006 0 0.012 0 0.022-0.522 0.488-1.044 0.972-1.553 1.434-0.003 0-0.012 0.003-0.022 0.003 0 0-0.003 0-0.003 0-0.156-0.069-0.316-0.1-0.472-0.1-0.128 0-0.259 0.022-0.391 0.069-0.463 0.163-0.759 0.663-0.691 1.163 0.069 0.497 0.506 0.909 0.997 0.934 0.022 0 0.044 0.003 0.066 0.003 0 0 0 0 0 0 0.366 0 0.694-0.166 0.9-0.45 0.206-0.288 0.253-0.65 0.134-0.997-0.016-0.044-0.016-0.047 0.006-0.066 0.541-0.494 1.081-0.994 1.544-1.422 0.006-0.006 0.009-0.009 0.016-0.012 0.003 0 0.009 0.003 0.016 0.006 0.147 0.075 0.303 0.113 0.462 0.113 0.119 0 0.238-0.022 0.356-0.063 0.031-0.009 0.047-0.012 0.056-0.012 0.006 0 0.019 0 0.053 0.037 0.534 0.581 1.069 1.153 1.616 1.738 0.019 0.022 0.022 0.031 0.022 0.031s0 0.009-0.012 0.044c-0.172 0.394-0.128 0.775 0.128 1.103 0.216 0.278 0.506 0.425 0.834 0.425 0.072 0 0.15-0.006 0.228-0.022 0.528-0.097 0.897-0.559 0.875-1.097-0.003-0.072 0.003-0.084 0.069-0.113 0.269-0.125 0.553-0.269 0.897-0.45 0.034-0.019 0.047-0.019 0.047-0.019 0.003 0 0.016 0.003 0.041 0.028 0.2 0.172 0.441 0.262 0.697 0.262 0.188 0 0.375-0.050 0.544-0.147 0.387-0.222 0.603-0.669 0.528-1.116 0-0.003 0-0.006 0-0.009 0.003-0.003 0.006-0.003 0.009-0.006 0.313-0.178 0.672-0.387 1.031-0.603 0.028-0.016 0.038-0.016 0.038-0.016s0.012 0.003 0.041 0.025c0.188 0.144 0.409 0.219 0.641 0.219 0.259 0 0.512-0.097 0.716-0.272 0.384-0.331 0.488-0.891 0.247-1.331zM27.541 15.063c-0.266-0.003-0.462-0.206-0.459-0.472 0.003-0.262 0.209-0.466 0.472-0.463 0.253 0.003 0.472 0.225 0.466 0.475 0 0.253-0.216 0.459-0.478 0.459zM24.716 16.712c-0.266 0-0.469-0.203-0.469-0.466 0-0.256 0.216-0.472 0.469-0.472 0 0 0 0 0.003 0 0.256 0 0.466 0.213 0.466 0.472-0.003 0.269-0.2 0.466-0.469 0.466zM21.413 17.659c0.003-0.259 0.209-0.462 0.472-0.462 0 0 0 0 0.003 0 0.259 0 0.469 0.212 0.466 0.472s-0.212 0.466-0.472 0.466c-0.262-0.003-0.472-0.216-0.469-0.475zM18.819 13.897c0.262 0 0.475 0.216 0.466 0.472-0.006 0.253-0.219 0.463-0.469 0.463-0.259 0-0.469-0.213-0.469-0.472 0-0.266 0.203-0.466 0.472-0.463zM15.281 17.191c0-0.262 0.213-0.472 0.469-0.469 0.25 0.003 0.466 0.216 0.469 0.466 0.003 0.256-0.209 0.472-0.472 0.472s-0.466-0.203-0.466-0.469z"></path>
</svg>
