<!-- Generated by IcoMoon.io -->
<svg version="1.1" xmlns="http://www.w3.org/2000/svg" width="32" height="32" viewBox="0 0 32 32">
<title>dash_datasource</title>
<path d="M21.004 31.972h-10.008c-0.727 0-1.319-0.571-1.319-1.272l0.659-4.679c0.052-0.364 0.388-0.607 0.753-0.567 0.364 0.052 0.617 0.389 0.567 0.753l-0.629 4.431 9.945 0.001-0.631-4.429c-0.052-0.364 0.201-0.701 0.567-0.753 0.359-0.045 0.703 0.201 0.753 0.567l0.652 4.584c0.008 0.795-0.583 1.364-1.309 1.364z"></path>
<path d="M10.104 10.545l-2.133 2.133v-11.984c0-0.368-0.299-0.667-0.667-0.667s-0.667 0.299-0.667 0.667v11.985l-2.135-2.135c-0.26-0.26-0.683-0.26-0.943 0s-0.26 0.683 0 0.943l3.271 3.271c0.061 0.061 0.135 0.111 0.216 0.144 0.080 0.033 0.168 0.052 0.256 0.052s0.176-0.019 0.256-0.052c0.081-0.033 0.155-0.083 0.216-0.144l3.271-3.271c0.26-0.26 0.26-0.683 0-0.943s-0.681-0.261-0.941 0z"></path>
<path d="M18.801 10.545l-2.135 2.133v-11.984c0-0.368-0.299-0.667-0.667-0.667s-0.667 0.299-0.667 0.667v11.985l-2.135-2.135c-0.26-0.26-0.683-0.26-0.943 0s-0.26 0.683 0 0.943l3.271 3.271c0.061 0.061 0.136 0.111 0.217 0.145s0.168 0.051 0.255 0.051 0.173-0.017 0.255-0.051c0.083-0.033 0.156-0.083 0.217-0.145l3.271-3.271c0.26-0.26 0.26-0.683 0-0.943s-0.68-0.261-0.94 0z"></path>
<path d="M28.44 10.545c-0.26-0.26-0.683-0.26-0.943 0l-2.135 2.135v-11.985c0-0.368-0.299-0.667-0.667-0.667s-0.667 0.299-0.667 0.667v11.985l-2.135-2.135c-0.26-0.26-0.683-0.26-0.943 0s-0.26 0.683 0 0.943l3.271 3.271c0.061 0.061 0.136 0.111 0.217 0.145s0.168 0.051 0.255 0.051 0.173-0.017 0.255-0.051c0.083-0.033 0.156-0.083 0.217-0.145l3.271-3.271c0.263-0.261 0.263-0.683 0.003-0.943z"></path>
<path d="M28.879 2.303h-1.041c-0.368 0-0.667 0.299-0.667 0.667s0.299 0.667 0.667 0.667h1.041c0.815 0 1.455 0.624 1.455 1.42v14.099h-28.667v-14.099c0-0.797 0.637-1.42 1.451-1.42h1.045c0.368 0 0.667-0.299 0.667-0.667s-0.299-0.667-0.667-0.667h-1.045c-1.561 0-2.784 1.209-2.784 2.753v16.817c0 1.549 1.223 2.763 2.784 2.763h25.761c1.537 0 2.788-1.24 2.788-2.763v-16.817c0-1.544-1.224-2.753-2.788-2.753zM28.879 23.304h-25.761c-0.813 0-1.451-0.628-1.451-1.429v-1.385h28.667v1.385c0 0.801-0.639 1.429-1.455 1.429z"></path>
</svg>
