<!-- Generated by IcoMoon.io -->
<svg version="1.1" xmlns="http://www.w3.org/2000/svg" width="32" height="32" viewBox="0 0 32 32">
<title>dashboard_menu</title>
<path d="M21.689 25.756c-0.052-0.363-0.387-0.613-0.749-0.563-0.363 0.052-0.613 0.387-0.563 0.749l0.632 4.441h-9.973l0.631-4.443c0.052-0.363-0.2-0.697-0.563-0.749-0.361-0.051-0.697 0.201-0.748 0.563l-0.652 4.592-0.007 0.093c-0.001 0.363 0.161 0.692 0.403 0.915 0.24 0.224 0.565 0.355 0.912 0.355h10.023c0.348 0 0.672-0.131 0.912-0.355 0.241-0.221 0.403-0.551 0.403-0.915l-0.007-0.093-0.653-4.591z"></path>
<path d="M31.684 18.579v-15.535c0.001-0.761-0.309-1.457-0.813-1.953-0.503-0.497-1.205-0.8-1.972-0.799h-25.801c-0.767-0.001-1.468 0.303-1.971 0.8-0.503 0.495-0.812 1.192-0.811 1.952v17.596c0 0.76 0.308 1.457 0.811 1.956 0.501 0.5 1.203 0.805 1.972 0.805h25.8c0.769 0.001 1.472-0.305 1.973-0.805 0.504-0.497 0.813-1.195 0.812-1.956v-2.048c0-0.003 0.001-0.004 0.001-0.007s-0.001-0.005-0.001-0.007zM30.36 20.639c-0.004 0.799-0.629 1.432-1.461 1.436h-25.801c-0.831-0.004-1.455-0.636-1.457-1.436v-1.392h28.72v1.392zM30.36 17.923h-28.719v-14.879c0.004-0.799 0.624-1.423 1.457-1.428h25.8c0.836 0.005 1.459 0.631 1.461 1.428v14.879z"></path>
<path d="M27.665 8.403c-0.204 0-0.412 0.049-0.601 0.151-0.431 0.228-0.681 0.671-0.681 1.128 0 0.2 0.048 0.404 0.148 0.591 0.067 0.125 0.155 0.229 0.252 0.321l-0.904 3.988c-0.012 0-0.021-0.007-0.035-0.007-0.061 0-0.115 0.027-0.175 0.035l-3.159-4.819c0.123-0.195 0.212-0.411 0.212-0.657-0.001-0.705-0.577-1.267-1.277-1.268-0.7 0.001-1.276 0.563-1.277 1.268 0 0.161 0.039 0.311 0.093 0.452l-1.788 2.36c-0.125-0.041-0.257-0.064-0.392-0.064-0.152 0-0.307 0.027-0.455 0.084-0.509 0.191-0.828 0.672-0.828 1.191 0 0.149 0.027 0.3 0.081 0.445 0.193 0.508 0.677 0.819 1.189 0.817 0.151 0 0.305-0.027 0.455-0.083 0.509-0.193 0.828-0.675 0.828-1.192 0-0.148-0.027-0.3-0.081-0.445-0.004-0.011-0.012-0.019-0.016-0.028l1.781-2.351c0.131 0.044 0.265 0.083 0.411 0.083 0.061 0 0.115-0.027 0.175-0.035l3.159 4.819c-0.123 0.195-0.212 0.411-0.213 0.659 0.001 0.705 0.577 1.268 1.277 1.268s1.276-0.563 1.277-1.268c0-0.287-0.113-0.536-0.273-0.747l0.945-4.171c0.156-0.017 0.313-0.055 0.459-0.132v-0.004c0.431-0.229 0.68-0.671 0.68-1.128 0-0.199-0.048-0.404-0.147-0.591-0.227-0.428-0.668-0.671-1.12-0.671zM18.061 13.687c-0.299 0-0.541-0.243-0.541-0.541s0.243-0.541 0.541-0.541 0.541 0.243 0.541 0.541-0.241 0.541-0.541 0.541zM21.5 9.687c-0.299 0-0.541-0.243-0.541-0.541s0.243-0.541 0.541-0.541 0.541 0.243 0.541 0.541-0.243 0.541-0.541 0.541zM25.916 16.433c-0.299 0-0.541-0.243-0.541-0.541s0.243-0.541 0.541-0.541 0.541 0.243 0.541 0.541-0.243 0.541-0.541 0.541zM27.723 10.264c-0.299 0-0.541-0.243-0.541-0.541s0.243-0.541 0.541-0.541 0.541 0.243 0.541 0.541-0.243 0.541-0.541 0.541z"></path>
<path d="M14.271 8.36c-0.165-0.4-0.553-0.659-0.985-0.66l-0.296 0.068-3.347 1.665 0.797-3.467 0.013-0.071 0.007-0.121c0.005-0.229-0.089-0.465-0.224-0.624-0.205-0.241-0.448-0.347-0.687-0.417-0.241-0.067-0.497-0.095-0.775-0.095-0.98 0.004-2.259 0.351-3.417 1.167-1.151 0.816-2.156 2.153-2.381 4.033-0.028 0.241-0.043 0.48-0.043 0.717 0 3.185 2.583 5.875 5.888 5.877 1.677 0.001 3.157-0.696 4.203-1.776 1.047-1.080 1.675-2.547 1.676-4.105 0-0.723-0.136-1.463-0.425-2.185l-0.004-0.007zM12.075 13.735c-0.816 0.84-1.944 1.373-3.252 1.373-1.284 0-2.419-0.52-3.241-1.352s-1.321-1.969-1.321-3.2c0-0.184 0.011-0.369 0.033-0.556 0.185-1.491 0.929-2.461 1.835-3.113 0.9-0.648 1.987-0.928 2.649-0.923 0.117-0.001 0.22 0.009 0.3 0.023l-1.037 4.513c-0.057 0.251 0.035 0.511 0.235 0.669 0.201 0.157 0.476 0.187 0.705 0.073l4.159-2.069c0.148 0.461 0.237 0.924 0.237 1.377-0.001 1.2-0.487 2.344-1.301 3.184z"></path>
<path d="M15.496 5.396v0c-0.377-0.881-1.011-1.519-1.643-1.943-0.317-0.212-0.636-0.372-0.936-0.483-0.303-0.109-0.58-0.176-0.865-0.176-0.157 0-0.327 0.015-0.524 0.113-0.195 0.085-0.425 0.349-0.449 0.633-0.009 0.063-0.104 0.743-0.196 1.483-0.092 0.752-0.184 1.548-0.187 2.009l0.013 0.235 0.037 0.168c0.031 0.071 0.055 0.185 0.236 0.337l0.005 0.004c0.248 0.163 0.355 0.125 0.425 0.139 0.123-0.003 0.176-0.019 0.244-0.032 0.225-0.055 0.505-0.155 0.863-0.291 0.527-0.2 1.173-0.468 1.704-0.701 0.264-0.119 0.497-0.227 0.68-0.319l0.243-0.131 0.12-0.081 0.088-0.077c0.036-0.040 0.088-0.087 0.147-0.223l0.049-0.256-0.001-0.156-0.053-0.253zM12.701 6.097c-0.224 0.091-0.436 0.173-0.635 0.249 0.033-0.352 0.080-0.768 0.129-1.16 0.048-0.385 0.096-0.741 0.133-1.012 0.044 0.013 0.083 0.020 0.131 0.039 0.503 0.18 1.164 0.644 1.587 1.304-0.356 0.167-0.861 0.385-1.345 0.58z"></path>
<path d="M18.055 4.665h10.135c0.365 0 0.663-0.296 0.663-0.663 0-0.365-0.296-0.663-0.663-0.663h-10.135c-0.365 0-0.663 0.296-0.663 0.663 0 0.365 0.297 0.663 0.663 0.663z"></path>
<path d="M18.055 7h10.135c0.365 0 0.663-0.296 0.663-0.663 0-0.365-0.296-0.663-0.663-0.663h-10.135c-0.365 0-0.663 0.296-0.663 0.663 0 0.368 0.297 0.663 0.663 0.663z"></path>
</svg>
