<svg version="1.1" xmlns="http://www.w3.org/2000/svg" width="32" height="32" viewBox="0 0 32 32">
<title>dashboard_from_domain</title>
<path d="M28.259 10.341v-0.003c0.431-0.228 0.681-0.672 0.681-1.128 0-0.2-0.047-0.403-0.147-0.591-0.234-0.428-0.675-0.672-1.128-0.672-0.203 0-0.413 0.050-0.6 0.15-0.431 0.228-0.681 0.672-0.681 1.128 0 0.2 0.047 0.403 0.147 0.591 0.066 0.125 0.153 0.228 0.253 0.322l-1.106 2.491c-0.012 0-0.022-0.006-0.034-0.006-0.063 0-0.116 0.028-0.175 0.034l-2.959-3.322c0.122-0.194 0.212-0.409 0.212-0.656 0-0.706-0.578-1.266-1.278-1.269-0.7 0-1.275 0.563-1.278 1.269 0 0.162 0.038 0.309 0.094 0.453l-1.788 2.359c-0.125-0.041-0.256-0.063-0.391-0.063-0.153 0-0.306 0.028-0.453 0.084-0.509 0.191-0.828 0.672-0.828 1.191 0 0.15 0.028 0.3 0.081 0.447 0.194 0.509 0.678 0.819 1.191 0.819 0.15 0 0.306-0.028 0.453-0.081 0.509-0.194 0.828-0.675 0.828-1.191 0-0.147-0.028-0.3-0.081-0.447-0.003-0.009-0.012-0.019-0.016-0.028l1.781-2.35c0.131 0.044 0.266 0.081 0.409 0.081 0.063 0 0.116-0.028 0.175-0.034l2.956 3.316c-0.122 0.194-0.212 0.409-0.212 0.659 0 0.706 0.578 1.269 1.278 1.269s1.275-0.563 1.278-1.269c0-0.287-0.113-0.537-0.272-0.747l1.15-2.675c0.156-0.019 0.313-0.053 0.459-0.131v0zM18.063 13.231c-0.3 0-0.541-0.244-0.541-0.541s0.244-0.541 0.541-0.541 0.541 0.244 0.541 0.541-0.241 0.541-0.541 0.541zM21.5 9.231c-0.3 0-0.541-0.244-0.541-0.541s0.244-0.541 0.541-0.541 0.541 0.244 0.541 0.541-0.241 0.541-0.541 0.541zM25.712 14.481c-0.3 0-0.541-0.244-0.541-0.541s0.244-0.541 0.541-0.541 0.541 0.244 0.541 0.541-0.241 0.541-0.541 0.541zM27.181 9.266c0-0.297 0.244-0.541 0.541-0.541s0.541 0.244 0.541 0.541-0.241 0.541-0.541 0.541-0.541-0.244-0.541-0.541z"></path>
<path d="M2.928 10.85c0 3.184 2.581 5.875 5.888 5.878 1.678 0 3.156-0.697 4.203-1.775 1.047-1.081 1.675-2.547 1.675-4.106 0-0.722-0.137-1.463-0.425-2.184l0.003-0.009c-0.166-0.4-0.553-0.659-0.984-0.659l-0.297 0.069-3.347 1.666 0.797-3.466 0.012-0.072 0.006-0.122c0.006-0.228-0.091-0.466-0.225-0.625-0.206-0.241-0.447-0.347-0.688-0.419-0.241-0.066-0.497-0.094-0.775-0.094-0.981 0.003-2.259 0.35-3.419 1.166-1.15 0.816-2.156 2.153-2.381 4.034-0.028 0.241-0.044 0.481-0.044 0.719v0zM4.294 10.291c0.184-1.491 0.928-2.463 1.834-3.112 0.9-0.647 1.988-0.928 2.65-0.922 0.119 0 0.219 0.009 0.3 0.022l-1.037 4.516c-0.056 0.25 0.034 0.509 0.234 0.669 0.2 0.156 0.475 0.188 0.706 0.072l4.159-2.069c0.147 0.463 0.238 0.925 0.238 1.378-0.003 1.2-0.488 2.344-1.303 3.184s-1.944 1.372-3.253 1.372c-1.284 0-2.419-0.519-3.241-1.353s-1.322-1.969-1.322-3.2c0-0.184 0.009-0.369 0.034-0.556z"></path>
<path d="M15.497 5.691c-0.106-0.247-0.231-0.472-0.372-0.681-0.359-0.537-0.816-0.956-1.272-1.263-0.319-0.212-0.637-0.372-0.938-0.481-0.303-0.109-0.581-0.175-0.866-0.175-0.156 0-0.328 0.016-0.525 0.112-0.194 0.084-0.425 0.35-0.45 0.634-0.009 0.063-0.103 0.744-0.197 1.481-0.091 0.753-0.184 1.547-0.188 2.009l0.012 0.234 0.037 0.169c0.031 0.072 0.053 0.184 0.238 0.337l0.006 0.003c0.247 0.162 0.353 0.125 0.425 0.137 0.122-0.003 0.175-0.019 0.244-0.031 0.225-0.053 0.506-0.153 0.863-0.291 0.528-0.2 1.172-0.469 1.703-0.7 0.262-0.119 0.497-0.228 0.681-0.319l0.225-0.122 0.019-0.009 0.119-0.081 0.088-0.078c0.037-0.041 0.088-0.088 0.147-0.222l0.050-0.256v-0.156l-0.050-0.253zM12.7 6.391c-0.225 0.091-0.438 0.172-0.634 0.25 0.034-0.353 0.081-0.769 0.128-1.159 0.047-0.384 0.097-0.741 0.134-1.013 0.044 0.013 0.081 0.019 0.131 0.037 0.503 0.181 1.162 0.644 1.588 1.303-0.356 0.169-0.863 0.388-1.347 0.581z"></path>
<path d="M18.053 4.459h10.134c0.366 0 0.663-0.297 0.663-0.663s-0.297-0.663-0.663-0.663h-10.134c-0.366 0-0.663 0.297-0.663 0.663s0.3 0.663 0.663 0.663z"></path>
<path d="M18.053 6.794h10.134c0.366 0 0.663-0.297 0.663-0.662s-0.297-0.662-0.663-0.662h-10.134c-0.366 0-0.663 0.297-0.663 0.662 0 0.369 0.3 0.662 0.663 0.662z"></path>
<path d="M14.416 30.681h-0.478l-1.359-0.003h-1.634l0.631-4.444c0.053-0.363-0.2-0.697-0.563-0.75-0.363-0.050-0.697 0.2-0.747 0.563l-0.653 4.591-0.006 0.094c0 0.363 0.162 0.691 0.403 0.916s0.566 0.353 0.912 0.353h3.494c0.366 0 0.662-0.294 0.662-0.663 0-0.359-0.297-0.656-0.662-0.656v0z"></path>
<path d="M30.778 1.384c-0.503-0.497-1.206-0.8-1.972-0.8h-25.803c-0.766 0-1.469 0.303-1.972 0.8-0.5 0.497-0.809 1.194-0.809 1.953v17.597c0 0.759 0.309 1.456 0.809 1.956s1.203 0.806 1.972 0.806h10.981c0 0 0-0.003 0.003-0.003h0.434c0.366 0 0.662-0.294 0.662-0.663 0-0.366-0.297-0.663-0.662-0.663h-11.419c-0.831-0.003-1.453-0.637-1.456-1.438v-1.391h13.766c0.003-0.003 0.006-0.003 0.006-0.006h0.269c0.366 0 0.662-0.294 0.662-0.663 0-0.366-0.297-0.663-0.662-0.663h-1.006v0.006h-13.034v-14.878c0.003-0.8 0.625-1.422 1.456-1.428h25.8c0.837 0.006 1.459 0.631 1.462 1.428v13.281h-0.003v0.756c0 0.366 0.294 0.663 0.663 0.663 0.366 0 0.663-0.297 0.663-0.663v-0.313h0.003v-13.725c0-0.763-0.309-1.456-0.813-1.953v0z"></path>
<path d="M26.738 21.091h1.294c-0.5-0.772-1.203-1.4-2.034-1.809 0.059 0.097 0.119 0.2 0.172 0.306 0.234 0.447 0.425 0.953 0.569 1.503z"></path>
<path d="M22.181 27.488c0.309 0.65 0.688 1.103 1.081 1.313v-1.75h-1.269c0.059 0.15 0.122 0.297 0.188 0.438z"></path>
<path d="M21.456 23.572h1.806v-1.484h-1.656c-0.087 0.475-0.137 0.978-0.15 1.484z"></path>
<path d="M22.181 20.2c-0.128 0.272-0.244 0.569-0.341 0.887h1.422v-2.2c-0.394 0.209-0.772 0.663-1.081 1.313z"></path>
<path d="M20.928 27.047h-1.109c0.466 0.572 1.056 1.044 1.725 1.369-0.063-0.1-0.122-0.206-0.178-0.319-0.169-0.319-0.316-0.672-0.438-1.050z"></path>
<path d="M21.366 19.587c0.056-0.109 0.119-0.216 0.178-0.319-0.837 0.409-1.55 1.041-2.053 1.819h1.306c0.144-0.547 0.334-1.053 0.569-1.5z"></path>
<path d="M20.587 22.084h-1.597c-0.172 0.466-0.278 0.966-0.306 1.484h1.775c0.009-0.509 0.053-1.006 0.128-1.484z"></path>
<path d="M20.478 24.566h-1.75c0.075 0.525 0.231 1.025 0.453 1.484h1.488c-0.097-0.472-0.159-0.969-0.191-1.484z"></path>
<path d="M21.697 26.053h1.566v-1.484h-1.784c0.034 0.512 0.109 1.012 0.219 1.484z"></path>
<path d="M26.866 26.053h1.472c0.222-0.459 0.378-0.959 0.453-1.484h-1.734c-0.031 0.512-0.094 1.009-0.191 1.484z"></path>
<path d="M26.169 28.1c-0.056 0.106-0.113 0.209-0.172 0.309 0.663-0.325 1.244-0.794 1.706-1.359h-1.097c-0.122 0.375-0.269 0.728-0.438 1.050z"></path>
<path d="M26.947 22.084c0.075 0.475 0.119 0.975 0.128 1.484h1.759c-0.028-0.519-0.134-1.019-0.306-1.484h-1.581z"></path>
<path d="M23.766 15.659c-4.509 0-8.175 3.666-8.175 8.169v7.831c0 0.188 0.153 0.341 0.341 0.341h7.831c4.506 0 8.169-3.669 8.169-8.175s-3.663-8.166-8.166-8.166zM29.094 26.756c-0.012 0.025-0.025 0.050-0.041 0.072-1.034 1.825-2.984 3.066-5.222 3.094-0.016 0-0.028 0-0.044 0v0c-0.003 0-0.003 0-0.006 0-0.006 0-0.016 0-0.022 0-0.003 0-0.009 0-0.012 0 0 0-0.003 0-0.003 0-0.006 0-0.016 0-0.022 0-2.25-0.012-4.216-1.256-5.256-3.091-0.016-0.025-0.031-0.050-0.044-0.078-0.428-0.778-0.688-1.663-0.734-2.6-0.006-0.028-0.006-0.056-0.006-0.084 0-0.019 0-0.034 0.003-0.050-0.003-0.056-0.003-0.116-0.003-0.172 0-0.863 0.181-1.681 0.506-2.425 0.009-0.022 0.019-0.044 0.028-0.066 0.947-2.106 3.056-3.575 5.506-3.591 0.006 0 0.016 0 0.022 0 0 0 0.003 0 0.003 0 0.003 0 0.009 0 0.012 0 0.006 0 0.016 0 0.022 0 0.003 0 0.003 0 0.006 0 0.016 0 0.028 0 0.044 0 2.434 0.028 4.528 1.497 5.472 3.591 0.009 0.019 0.019 0.041 0.028 0.063 0.325 0.744 0.506 1.566 0.506 2.428 0.003 1.053-0.269 2.044-0.744 2.909z"></path>
<path d="M25.928 22.084h-1.672v1.484h1.822c-0.012-0.503-0.063-1.006-0.15-1.484z"></path>
<path d="M24.259 24.566v1.484h1.578c0.109-0.472 0.181-0.972 0.219-1.484h-1.797z"></path>
<path d="M25.353 20.2c-0.313-0.659-0.697-1.116-1.094-1.319v2.206h1.434c-0.097-0.316-0.212-0.616-0.341-0.887z"></path>
<path d="M24.259 28.806c0.397-0.203 0.781-0.659 1.094-1.319 0.066-0.141 0.128-0.288 0.188-0.441h-1.281v1.759z"></path>
</svg>
