<!-- Generated by IcoMoon.io -->
<svg version="1.1" xmlns="http://www.w3.org/2000/svg" width="32" height="32" viewBox="0 0 32 32">
<title>dashboard_shared</title>
<path d="M28.559 7.652v-0.003c0.415-0.223 0.692-0.654 0.694-1.149v-0c0-0.001 0-0.001 0-0.002 0-0.219-0.055-0.426-0.153-0.606l0.003 0.007c-0.225-0.412-0.655-0.686-1.149-0.686-0.72 0-1.304 0.584-1.305 1.304v0c0 0.001 0 0.001 0 0.002 0 0.219 0.055 0.426 0.153 0.606l-0.003-0.007c0.070 0.127 0.156 0.235 0.257 0.327l0.001 0.001-1.127 2.537c-0.013 0-0.022-0.006-0.035-0.006-0.064 0-0.118 0.029-0.178 0.035l-3.014-3.384c0.124-0.197 0.216-0.417 0.216-0.668 0-0.719-0.589-1.289-1.302-1.292-0.001 0-0.002 0-0.003 0-0.715 0-1.295 0.578-1.299 1.292v0c0.002 0.167 0.037 0.325 0.099 0.47l-0.003-0.008-1.821 2.403c-0.119-0.039-0.256-0.062-0.398-0.062-0.718 0-1.301 0.58-1.305 1.297v0c0.001 0.164 0.031 0.32 0.086 0.464l-0.003-0.009c0.191 0.492 0.661 0.834 1.211 0.834 0.001 0 0.002 0 0.002 0h-0c0.166-0.001 0.324-0.031 0.471-0.086l-0.009 0.003c0.495-0.19 0.841-0.661 0.844-1.212v-0c-0.001-0.164-0.032-0.32-0.086-0.464l0.003 0.009c-0.003-0.010-0.013-0.019-0.016-0.029l1.814-2.394c0.123 0.048 0.266 0.078 0.415 0.083l0.002 0c0.064 0 0.118-0.029 0.178-0.035l3.011 3.377c-0.124 0.197-0.216 0.417-0.216 0.672 0 0.719 0.583 1.302 1.302 1.302s1.302-0.583 1.302-1.302v0c0-0.293-0.115-0.547-0.277-0.761l1.171-2.725c0.173-0.016 0.332-0.064 0.475-0.137l-0.007 0.003zM18.172 10.597c-0.304 0-0.551-0.247-0.551-0.551s0.247-0.551 0.551-0.551c0.304 0 0.551 0.247 0.551 0.551v0c-0 0.304-0.247 0.55-0.551 0.551h-0zM21.674 6.522c-0.304 0-0.551-0.247-0.551-0.551s0.247-0.551 0.551-0.551c0.304 0 0.551 0.247 0.551 0.551v0c-0 0.304-0.247 0.55-0.551 0.551h-0zM25.965 11.87c-0.304 0-0.551-0.247-0.551-0.551s0.247-0.551 0.551-0.551c0.304 0 0.551 0.247 0.551 0.551v0c-0 0.304-0.247 0.55-0.551 0.551h-0zM27.461 6.557c0-0.304 0.247-0.551 0.551-0.551s0.551 0.247 0.551 0.551c0 0.304-0.247 0.551-0.551 0.551v0c-0.304-0.001-0.549-0.247-0.551-0.551v-0z"></path>
<path d="M2.757 10.457c0 3.244 2.629 5.984 5.997 5.987 0.004 0 0.009 0 0.015 0 1.674 0 3.186-0.692 4.265-1.806l0.002-0.002c1.055-1.075 1.706-2.55 1.706-4.177 0-0.804-0.159-1.571-0.447-2.271l0.014 0.040 0.003-0.010c-0.167-0.397-0.553-0.672-1.003-0.672v0l-0.302 0.070-3.409 1.697 0.812-3.53 0.013-0.073 0.006-0.124c0-0.001 0-0.002 0-0.002 0-0.242-0.087-0.464-0.23-0.636l0.001 0.002c-0.21-0.245-0.455-0.353-0.7-0.427-0.225-0.061-0.483-0.096-0.75-0.096-0.014 0-0.028 0-0.042 0l0.002-0c-1 0.003-2.301 0.356-3.482 1.187-1.171 0.831-2.196 2.193-2.426 4.109-0.028 0.219-0.044 0.473-0.045 0.731v0.001zM4.148 9.887c0.188-1.518 0.945-2.508 1.869-3.17 0.917-0.659 2.024-0.945 2.699-0.939 0.002 0 0.005 0 0.007 0 0.105 0 0.209 0.008 0.31 0.024l-0.011-0.001-1.057 4.6c-0.011 0.046-0.017 0.098-0.017 0.152 0 0.372 0.302 0.674 0.674 0.674 0.11 0 0.214-0.026 0.306-0.073l-0.004 0.002 4.237-2.107c0.15 0.471 0.242 0.942 0.242 1.404-0.008 1.262-0.513 2.406-1.328 3.245l0.001-0.001c-0.842 0.863-2.017 1.397-3.317 1.397-1.29 0-2.457-0.527-3.297-1.378l-0-0c-0.83-0.836-1.344-1.988-1.346-3.259v-0.001c-0-0.006-0-0.013-0-0.021 0-0.192 0.013-0.382 0.037-0.568l-0.002 0.022z"></path>
<path d="M15.559 5.201c-0.116-0.267-0.243-0.495-0.388-0.709l0.009 0.015c-0.35-0.512-0.78-0.94-1.279-1.275l-0.017-0.011c-0.275-0.188-0.59-0.353-0.924-0.48l-0.031-0.010c-0.309-0.111-0.592-0.178-0.882-0.178-0.010-0-0.022-0.001-0.035-0.001-0.182 0-0.354 0.042-0.507 0.118l0.007-0.003c-0.197 0.086-0.433 0.357-0.458 0.646-0.010 0.064-0.105 0.758-0.201 1.509-0.092 0.767-0.188 1.576-0.191 2.047l0.013 0.239 0.038 0.172c0.032 0.073 0.054 0.188 0.242 0.344l0.006 0.003c0.251 0.166 0.36 0.127 0.433 0.14 0.089-0.003 0.175-0.014 0.257-0.034l-0.008 0.002c0.229-0.054 0.516-0.156 0.879-0.296 0.538-0.204 1.194-0.477 1.735-0.713 0.267-0.121 0.506-0.232 0.694-0.325l0.229-0.124 0.019-0.010 0.121-0.083 0.089-0.080c0.063-0.063 0.114-0.138 0.148-0.221l0.002-0.005 0.051-0.261v-0.159l-0.051-0.258zM12.71 5.914c-0.229 0.092-0.446 0.175-0.646 0.255 0.035-0.36 0.083-0.783 0.13-1.181 0.048-0.392 0.099-0.754 0.137-1.031 0.045 0.013 0.083 0.019 0.134 0.038 0.512 0.185 1.184 0.656 1.617 1.327-0.363 0.172-0.879 0.395-1.372 0.592z"></path>
<path d="M18.163 3.947h10.323c0.373 0 0.675-0.302 0.675-0.675s-0.302-0.675-0.675-0.675h-10.323c-0.373 0-0.675 0.302-0.675 0.675s0.302 0.675 0.675 0.675v0z"></path>
<path d="M11.671 30.657h-0.549l-0.823-0.003 0.643-4.526c0.004-0.029 0.007-0.062 0.007-0.096 0-0.372-0.302-0.674-0.674-0.674-0.338 0-0.618 0.249-0.666 0.575l-0 0.004-0.665 4.676-0.006 0.096c0.003 0.368 0.16 0.699 0.41 0.932l0.001 0.001c0.241 0.223 0.565 0.36 0.92 0.36 0.004 0 0.008 0 0.011-0h1.394c0.371 0 0.672-0.301 0.672-0.672s-0.301-0.672-0.672-0.672v0z"></path>
<path d="M31.125 0.815c-0.514-0.504-1.22-0.815-1.997-0.815-0.004 0-0.008 0-0.012 0h-26.282c-0.003 0-0.007-0-0.011-0-0.778 0-1.483 0.311-1.998 0.815l0-0c-0.509 0.508-0.824 1.21-0.824 1.986 0 0.001 0 0.002 0 0.003v-0 17.924c0 0.001 0 0.003 0 0.005 0 1.552 1.258 2.809 2.809 2.809 0.008 0 0.017-0 0.025-0h8.391c0-0.002 0.001-0.003 0.003-0.003v0h0.442c0.373 0 0.675-0.302 0.675-0.675s-0.302-0.675-0.675-0.675h-8.838c-0.847-0.003-1.48-0.649-1.483-1.464v-1.416l11.065-0.006c0.373 0 0.675-0.302 0.675-0.675s-0.302-0.675-0.675-0.675h-0.918v0.006h-10.146v-15.155c0.003-0.815 0.637-1.448 1.483-1.455h26.28c0.853 0.006 1.487 0.643 1.49 1.455v10.8h-0.003v1.27c0 0.373 0.302 0.675 0.675 0.675s0.675-0.302 0.675-0.675v-0.818h0.003v-11.252c0-0.002 0-0.004 0-0.007 0-0.776-0.317-1.477-0.827-1.983l-0-0z"></path>
<path d="M23.015 13.283c-5.164 0-9.362 4.198-9.362 9.355v8.969c0.001 0.215 0.175 0.39 0.39 0.39h8.968c5.16 0 9.355-4.202 9.355-9.362s-4.194-9.351-9.351-9.351zM28.991 27.502c0 0 0 0 0 0 0 0.493-0.399 0.892-0.891 0.894h-10.182c-0.493-0.002-0.891-0.401-0.891-0.894 0-0 0-0 0-0v0-1.389c0.002-0.375 0.233-0.697 0.56-0.831l0.006-0.002c2.767-1.070 3.418-1.556 3.572-1.725v-0.229c-0.329-0.386-0.587-0.87-0.766-1.414-0.226-0.212-0.381-0.499-0.425-0.82l-0.001-0.007c-0.009-0.059-0.015-0.128-0.015-0.197 0-0.267 0.077-0.515 0.211-0.724l-0.003 0.005v-1.082c0-1.639 1.088-2.652 2.838-2.652 1.779 0 2.838 0.995 2.838 2.652v1.082c0.129 0.208 0.206 0.46 0.206 0.73 0 0.4-0.168 0.761-0.438 1.016l-0.001 0.001c-0.172 0.547-0.433 1.031-0.766 1.414v0.24c0.125 0.136 0.745 0.619 3.572 1.711 0.334 0.135 0.565 0.457 0.565 0.833 0 0 0 0 0 0v-0 1.389z"></path>
</svg>
