<svg version="1.1" xmlns="http://www.w3.org/2000/svg" width="32" height="32" viewBox="0 0 32 32">
<title>dashboard_actions</title>
<path d="M15.994 31.6c-0.709 0-1.409-0.047-2.144-0.15-0.297-0.041-0.531-0.275-0.569-0.575l-0.472-3.6c-0.878-0.247-1.722-0.597-2.519-1.044l-2.881 2.212c-0.237 0.181-0.569 0.184-0.809 0.003-1.131-0.856-2.188-1.909-3.047-3.047-0.181-0.241-0.181-0.569 0.003-0.809l2.213-2.878c-0.447-0.797-0.8-1.644-1.047-2.522l-3.597-0.466c-0.297-0.038-0.531-0.275-0.575-0.569-0.197-1.428-0.197-2.875 0-4.306 0.041-0.297 0.275-0.531 0.575-0.569l3.6-0.472c0.247-0.878 0.6-1.725 1.047-2.522l-2.216-2.881c-0.184-0.237-0.184-0.569-0.003-0.809 0.859-1.134 1.912-2.188 3.047-3.044 0.237-0.181 0.569-0.178 0.809 0.003l2.881 2.212c0.797-0.447 1.641-0.797 2.519-1.044l0.472-3.597c0.037-0.297 0.272-0.531 0.569-0.575 1.472-0.203 2.831-0.203 4.306 0 0.297 0.041 0.531 0.275 0.569 0.575l0.472 3.6c0.875 0.247 1.719 0.597 2.516 1.044l2.881-2.212c0.238-0.184 0.569-0.184 0.809-0.003 1.15 0.872 2.175 1.897 3.047 3.047 0.181 0.241 0.181 0.572-0.003 0.809l-2.216 2.881c0.447 0.797 0.797 1.641 1.041 2.512l3.6 0.472c0.297 0.037 0.531 0.272 0.575 0.569 0.203 1.469 0.203 2.838 0 4.309-0.041 0.297-0.275 0.531-0.572 0.569l-3.6 0.472c-0.247 0.872-0.594 1.716-1.041 2.512l2.212 2.881c0.181 0.238 0.184 0.569 0.003 0.809-0.872 1.153-1.897 2.178-3.047 3.047-0.238 0.181-0.569 0.181-0.809-0.003l-2.881-2.212c-0.797 0.447-1.641 0.797-2.516 1.044l-0.472 3.6c-0.038 0.297-0.272 0.531-0.569 0.572-0.738 0.103-1.444 0.153-2.162 0.153v0zM14.534 30.191c0.994 0.103 1.947 0.103 2.938-0.003l0.462-3.531c0.038-0.275 0.238-0.497 0.506-0.563 1.050-0.253 2.050-0.669 2.975-1.234 0.234-0.144 0.534-0.128 0.756 0.041l2.825 2.172c0.759-0.619 1.456-1.316 2.078-2.078l-2.172-2.828c-0.169-0.219-0.184-0.519-0.041-0.753 0.566-0.928 0.981-1.928 1.231-2.972 0.066-0.269 0.288-0.469 0.563-0.506l3.531-0.462c0.103-0.994 0.103-1.947 0-2.938l-3.531-0.463c-0.275-0.034-0.497-0.238-0.563-0.506-0.25-1.047-0.666-2.047-1.234-2.975-0.144-0.234-0.128-0.534 0.041-0.753l2.172-2.825c-0.619-0.763-1.316-1.456-2.078-2.078l-2.825 2.172c-0.219 0.169-0.519 0.184-0.756 0.041-0.925-0.566-1.925-0.981-2.975-1.234-0.269-0.066-0.469-0.287-0.506-0.563l-0.459-3.538c-0.991-0.103-1.944-0.106-2.938 0l-0.463 3.531c-0.034 0.275-0.238 0.497-0.506 0.563-1.053 0.253-2.056 0.669-2.981 1.234-0.234 0.144-0.534 0.128-0.753-0.041l-2.825-2.172c-0.753 0.616-1.462 1.322-2.078 2.075l2.172 2.825c0.169 0.219 0.184 0.519 0.041 0.756-0.569 0.925-0.984 1.928-1.237 2.981-0.066 0.269-0.287 0.469-0.563 0.506l-3.531 0.463c-0.1 0.975-0.1 1.959 0 2.934l3.531 0.462c0.275 0.038 0.497 0.238 0.563 0.506 0.253 1.053 0.669 2.056 1.237 2.984 0.144 0.234 0.128 0.538-0.041 0.756l-2.169 2.822c0.616 0.756 1.322 1.462 2.075 2.075l2.825-2.172c0.219-0.166 0.519-0.181 0.753-0.041 0.928 0.569 1.931 0.984 2.981 1.234 0.269 0.063 0.469 0.288 0.506 0.563l0.463 3.531z"></path>
<path d="M16 25.375c-2.503 0-4.859-0.975-6.628-2.747-1.772-1.769-2.747-4.125-2.747-6.628s0.975-4.859 2.747-6.628 4.125-2.747 6.628-2.747 4.859 0.975 6.628 2.747c1.772 1.772 2.747 4.125 2.747 6.628s-0.975 4.859-2.747 6.628c-1.769 1.772-4.125 2.747-6.628 2.747zM16 7.813c-2.188 0-4.244 0.853-5.791 2.397s-2.397 3.603-2.397 5.791c0 2.188 0.853 4.244 2.397 5.791 1.547 1.544 3.603 2.397 5.791 2.397s4.244-0.853 5.791-2.397c1.544-1.547 2.397-3.603 2.397-5.791s-0.853-4.244-2.397-5.791c-1.547-1.544-3.603-2.397-5.791-2.397z"></path>
<path d="M14.137 20.403c-0.222 0-0.441-0.091-0.594-0.253l-3.228-3.316c-0.319-0.328-0.309-0.853 0.016-1.172 0.156-0.153 0.363-0.234 0.578-0.234 0.225 0 0.434 0.088 0.594 0.25l2.638 2.712 6.359-6.537c0.156-0.162 0.369-0.25 0.594-0.25 0.216 0 0.422 0.084 0.578 0.234 0.159 0.153 0.247 0.363 0.25 0.581 0.003 0.222-0.081 0.431-0.234 0.591l-6.956 7.144c-0.156 0.159-0.372 0.25-0.594 0.25z"></path>
</svg>
