<!-- Generated by IcoMoon.io -->
<svg version="1.1" xmlns="http://www.w3.org/2000/svg" width="32" height="32" viewBox="0 0 32 32">
<title>dash_datasource_edit</title>
<path d="M29.115 23.639c-2.724 2.724-5.48 5.48-8.333 8.333-1.013 0-2.205 0-3.431 0 0-1.132 0-2.276 0-3.425 2.787-2.787 5.592-5.592 8.336-8.336 1.148 1.148 2.308 2.308 3.428 3.428zM20.22 30.997c0.596-0.596 1.091-1.091 1.549-1.548-0.608-0.608-1.252-1.252-1.884-1.884-0.425 0.425-0.92 0.92-1.409 1.409 0 0.237 0 0.491 0 0.764 0.372 0 0.719 0 1.113 0 0 0.433 0 0.845 0 1.26 0.283-0.001 0.516-0.001 0.631-0.001zM26.069 22.148c-0.14-0.164-0.257-0.301-0.379-0.444-0.277 0.172-4.476 4.26-4.692 4.575 0 0.148 0 0.288 0 0.423 0.124 0.064 0.24 0.125 0.341 0.177 1.568-1.569 3.148-3.149 4.729-4.731z"></path>
<path d="M26.572 19.279c0.411-0.411 0.793-0.783 1.169-1.159 0.453-0.453 1.001-0.487 1.344-0.144 0.727 0.727 1.331 1.364 2.080 2.072 0.571 0.539 0.58 1.127 0.008 1.7-0.348 0.348-0.7 0.693-1.069 1.063-0.589-0.589-1.18-1.18-1.769-1.769-0.576-0.576-1.152-1.152-1.763-1.763z"></path>
<path d="M3.56 10.545c-0.26 0.26-0.26 0.683 0 0.943l3.271 3.271c0.061 0.061 0.135 0.111 0.216 0.144 0.080 0.033 0.168 0.052 0.256 0.052s0.176-0.019 0.256-0.052c0.081-0.033 0.155-0.083 0.216-0.144l3.271-3.271c0.26-0.26 0.26-0.683 0-0.943s-0.683-0.26-0.943 0l-2.133 2.133v-11.984c0-0.368-0.299-0.667-0.667-0.667s-0.667 0.299-0.667 0.667v11.985l-2.133-2.135c-0.26-0.261-0.683-0.261-0.943 0z"></path>
<path d="M15.528 14.759c0.061 0.061 0.136 0.111 0.217 0.145 0.081 0.033 0.168 0.051 0.255 0.051s0.173-0.017 0.255-0.051c0.083-0.033 0.156-0.083 0.217-0.145l3.271-3.271c0.26-0.26 0.26-0.683 0-0.943s-0.683-0.26-0.943 0l-2.133 2.133v-11.984c0-0.368-0.299-0.667-0.667-0.667s-0.667 0.299-0.667 0.667v11.985l-2.135-2.135c-0.26-0.26-0.683-0.26-0.943 0s-0.26 0.683 0 0.943l3.272 3.271z"></path>
<path d="M24.224 14.759c0.061 0.061 0.136 0.111 0.217 0.145 0.081 0.033 0.168 0.051 0.255 0.051s0.173-0.017 0.255-0.051c0.083-0.033 0.156-0.083 0.217-0.145l3.271-3.271c0.26-0.26 0.26-0.683 0-0.943s-0.683-0.26-0.943 0l-2.135 2.135v-11.985c0-0.368-0.299-0.667-0.667-0.667s-0.667 0.299-0.667 0.667v11.985l-2.135-2.135c-0.26-0.26-0.683-0.26-0.943 0s-0.26 0.683 0 0.943l3.273 3.271z"></path>
<path d="M3.117 23.304c-0.813 0-1.451-0.628-1.451-1.429v-1.385h16.192c0.315-0.476 0.672-0.92 1.063-1.333h-17.255v-14.1c0-0.797 0.637-1.42 1.451-1.42h1.045c0.368 0 0.667-0.299 0.667-0.667s-0.299-0.667-0.667-0.667h-1.045c-1.561 0-2.784 1.209-2.784 2.753v16.817c0 1.549 1.223 2.763 2.784 2.763h13.216c0.056-0.456 0.147-0.9 0.264-1.333h-13.48z"></path>
<path d="M31.667 5.056c0-1.544-1.224-2.753-2.788-2.753h-1.041c-0.368 0-0.667 0.299-0.667 0.667s0.299 0.667 0.667 0.667h1.041c0.815 0 1.455 0.624 1.455 1.42v12.067c0.467 0.232 0.912 0.499 1.333 0.801v-12.868z"></path>
<path d="M11.027 30.639l0.629-4.428c0.052-0.364-0.201-0.701-0.567-0.753-0.365-0.040-0.701 0.201-0.753 0.567l-0.659 4.679c0 0.701 0.591 1.272 1.319 1.272h5.253v-1.333l-5.223-0.003z"></path>
</svg>
