<!-- Generated by IcoMoon.io -->
<svg version="1.1" xmlns="http://www.w3.org/2000/svg" width="32" height="32" viewBox="0 0 32 32">
<title>data_manipulation</title>
<path d="M27.333 4.667c-3.067-3.067-7.067-4.667-11.333-4.667-4 0-7.733 1.467-10.8 4.133-0.133 0.133-0.267 0.4-0.533 0.533-3.067 3.067-4.667 7.067-4.667 11.333s1.6 8.267 4.667 11.333c3.067 3.067 7.067 4.667 11.333 4.667s8.267-1.6 11.333-4.667 4.667-7.067 4.667-11.333c0-4.267-1.6-8.267-4.667-11.333zM24.133 23.067c-0.133 0.133-0.267 0.4-0.533 0.533-2 2-4.667 3.067-7.6 3.067s-5.6-1.067-7.6-3.2c-2-2-3.2-4.667-3.2-7.6s1.067-5.6 3.2-7.6c0.133-0.133 0.267-0.267 0.533-0.533 2-1.733 4.4-2.667 7.067-2.667 2.933 0 5.6 1.067 7.6 3.2 2 2 3.2 4.667 3.2 7.6 0 2.667-0.933 5.2-2.667 7.2zM21.467 5.2c-1.733-0.8-3.6-1.333-5.467-1.333-2.667 0-5.333 0.933-7.467 2.533l-1.867-1.733c2.667-2.133 5.867-3.333 9.333-3.333 2.4 0 4.667 0.533 6.8 1.6l-1.333 2.267zM5.733 5.467l1.867 1.867-0.133 0.133c-2.267 2.267-3.467 5.333-3.467 8.533s1.2 6.267 3.467 8.533c2.267 2.267 5.333 3.467 8.533 3.467s6.267-1.2 8.533-3.467l0.133-0.133 1.867 1.867-0.133 0.133c-2.8 2.8-6.533 4.267-10.4 4.267s-7.6-1.467-10.4-4.267c-2.8-2.8-4.267-6.533-4.267-10.4s1.467-7.6 4.4-10.533v0zM28 16c0-3.2-1.2-6.267-3.467-8.533-0.533-0.533-1.2-1.067-2-1.6l1.333-2.267c0.933 0.533 1.733 1.2 2.533 2 2.8 2.8 4.267 6.533 4.267 10.4 0 3.467-1.2 6.667-3.333 9.333l-1.867-1.867c1.6-2.133 2.533-4.8 2.533-7.467z"></path>
<path d="M24.267 19.733h-1.333v-10.533c0-0.267-0.267-0.533-0.533-0.533h-3.2c-0.267 0-0.533 0.267-0.533 0.533v10.533h-0.667v-6.4c0-0.267-0.267-0.533-0.533-0.533h-2.667c-0.267 0-0.533 0.267-0.533 0.533v6.4h-0.667v-3.2c0-0.267-0.267-0.533-0.533-0.533h-3.467c-0.267 0-0.533 0.267-0.533 0.533v3.2h-1.333c-0.267 0-0.533 0.267-0.533 0.533s0.267 0.533 0.533 0.533h16.667c0.267 0 0.533-0.267 0.533-0.533s-0.267-0.533-0.667-0.533zM19.733 9.867h2v9.867h-2v-9.867zM15.2 14h1.6v5.867h-1.6v-5.867zM10.267 17.067h2v2.667h-2v-2.667z"></path>
</svg>
