<!-- Generated by IcoMoon.io -->
<svg version="1.1" xmlns="http://www.w3.org/2000/svg" width="32" height="32" viewBox="0 0 32 32">
<title>database_filled</title>
<path d="M28.8 3.2c0 1.766-5.73 3.2-12.8 3.2s-12.8-1.434-12.8-3.2 5.73-3.2 12.8-3.2 12.8 1.434 12.8 3.2z"></path>
<path d="M16 8.533c-7.040 0-12.8-1.493-12.8-3.2v6.4c0 1.707 5.76 3.2 12.8 3.2s12.8-1.493 12.8-3.2v-6.4c0 1.707-5.76 3.2-12.8 3.2z"></path>
<path d="M16 17.067c-7.040 0-12.8-1.493-12.8-3.2v6.4c0 1.707 5.76 3.2 12.8 3.2s12.8-1.493 12.8-3.2v-6.4c0 1.707-5.76 3.2-12.8 3.2z"></path>
<path d="M16 25.6c-7.040 0-12.8-1.493-12.8-3.2v6.4c0 1.707 5.76 3.2 12.8 3.2s12.8-1.493 12.8-3.2v-6.4c0 1.707-5.76 3.2-12.8 3.2z"></path>
</svg>
