<!-- Generated by IcoMoon.io -->
<svg version="1.1" xmlns="http://www.w3.org/2000/svg" width="32" height="32" viewBox="0 0 32 32">
<title>database</title>
<path fill="none" stroke-linejoin="miter" stroke-linecap="round" stroke-miterlimit="10" stroke-width="2" stroke="#000" d="M28 8c0 2.761-5.373 5-12 5s-12-2.239-12-5c0-2.761 5.373-5 12-5s12 2.239 12 5z"></path>
<path fill="none" stroke-linejoin="miter" stroke-linecap="round" stroke-miterlimit="10" stroke-width="2" stroke="#000" d="M28 13.375c0 2.761-5.375 5-12 5s-12-2.239-12-5M28 18.75c0 2.761-5.375 5-12 5s-12-2.239-12-5"></path>
<path fill="none" stroke-linejoin="miter" stroke-linecap="round" stroke-miterlimit="10" stroke-width="2" stroke="#000" d="M4 7.952v16.095c0 2.735 5.375 4.953 12 4.953s12-2.218 12-4.953v-16.095"></path>
</svg>
