<!-- Generated by IcoMoon.io -->
<svg version="1.1" xmlns="http://www.w3.org/2000/svg" width="32" height="32" viewBox="0 0 32 32">
<title>database_raid</title>
<path d="M21.033 27.283c-0.354 0-0.648-0.277-0.665-0.634-0.018-0.367 0.266-0.681 0.633-0.698 3.788-0.185 6.544-1.167 6.859-2.441l0.030-18.95c-0.001-0.019-0.003-0.038-0.003-0.055s0-0.034 0.001-0.050c-0.057-1.505-3.629-2.678-8.178-2.678-4.553 0-8.128 1.175-8.18 2.682 0.001 0.014 0.001 0.028 0.001 0.042 0 0.016-0.001 0.033-0.002 0.049v0.815c0 0.369-0.298 0.667-0.667 0.667s-0.667-0.298-0.667-0.667v-0.849c0-0.004 0-0.008 0-0.012s0-0.008 0-0.012c0-2.988 5.125-4.048 9.514-4.048s9.513 1.061 9.513 4.049c0 0.005 0 0.009 0 0.014s0 0.010 0 0.015v18.877c0 0.171-0.030 0.34-0.091 0.503-0.687 2.801-6.348 3.298-8.066 3.381-0.012 0.001-0.022 0.001-0.033 0.001z"></path>
<path d="M10.84 4.95c-0.303 0-0.557-0.175-0.62-0.473-0.014-0.057-0.024-0.13-0.024-0.183 0-0.369 0.298-0.667 0.667-0.667s0.667 0.298 0.667 0.667h-0.018c-0.028 0.313-0.252 0.607-0.565 0.648-0.036 0.005-0.071 0.007-0.106 0.007z"></path>
<path d="M20.043 7.755c-0.362 0-0.659-0.289-0.667-0.652-0.008-0.368 0.284-0.673 0.652-0.681 5.107-0.111 7.681-1.832 7.878-2.262 0.044-0.364 0.365-0.594 0.736-0.554 0.366 0.045 0.619 0.404 0.574 0.77-0.182 1.505-4.138 3.27-9.159 3.38-0.005 0-0.009 0-0.015 0z"></path>
<path d="M21.033 14.15c-0.35 0-0.645-0.273-0.665-0.628-0.022-0.367 0.259-0.683 0.626-0.704 4.582-0.271 6.741-1.827 6.91-2.221 0.044-0.366 0.375-0.611 0.736-0.559 0.366 0.044 0.621 0.4 0.577 0.765-0.167 1.393-3.479 3.070-8.145 3.346-0.013 0.001-0.026 0.001-0.039 0.001z"></path>
<path d="M21.013 20.535c-0.352 0-0.645-0.273-0.665-0.629-0.021-0.367 0.259-0.682 0.628-0.703 4.596-0.264 6.759-1.827 6.928-2.223 0.044-0.366 0.375-0.607 0.736-0.559 0.366 0.043 0.621 0.398 0.577 0.764-0.168 1.4-3.488 3.078-8.165 3.348-0.013 0.001-0.026 0.001-0.038 0.001z"></path>
<path d="M12.167 31.568c-3.96 0-8.811-0.913-9.444-3.483-0.038-0.087-0.069-0.258-0.069-0.432l0.001-18.876c-0.001-0.010-0.001-0.019-0.001-0.029 0-2.988 5.124-4.049 9.513-4.049s9.513 1.061 9.513 4.049h-0.001c0.001 0.010 0.001 0.019 0.001 0.029v18.876c0 0.177-0.031 0.349-0.094 0.512-0.608 2.491-5.458 3.404-9.419 3.404zM3.988 8.713c0.001 0.014 0.001 0.028 0.001 0.042l-0.002 18.897c0.377 1.521 3.881 2.582 8.18 2.582s7.803-1.061 8.15-2.469l0.030-18.961c-0.003-0.033-0.001-0.066 0.001-0.099-0.001-1.482-3.594-2.675-8.181-2.675-4.553 0-8.126 1.175-8.179 2.682z"></path>
<path d="M12.123 12.062c-5.823 0-9.286-2.002-9.455-3.385 0-0.369 0.292-0.731 0.659-0.731 0.316 0 0.576 0.174 0.643 0.456 0.232 0.553 2.85 2.327 8.153 2.327 5.374 0 8.041-1.835 8.238-2.304 0.046-0.366 0.375-0.613 0.737-0.559 0.366 0.044 0.621 0.398 0.577 0.764-0.173 1.433-3.89 3.432-9.551 3.432z"></path>
<path d="M12.123 18.445c-5.823 0-9.286-2.003-9.455-3.386 0-0.369 0.292-0.731 0.659-0.731 0.316 0 0.576 0.174 0.643 0.456 0.232 0.553 2.85 2.327 8.153 2.327 5.374 0 8.041-1.836 8.238-2.305 0.046-0.367 0.375-0.607 0.737-0.559 0.366 0.044 0.621 0.398 0.577 0.764-0.173 1.433-3.89 3.433-9.551 3.433z"></path>
<path d="M12.123 24.828c-5.823 0-9.286-2.001-9.455-3.385 0-0.369 0.292-0.731 0.659-0.731 0.318 0 0.578 0.175 0.644 0.46 0.232 0.549 2.85 2.323 8.152 2.323 5.374 0 8.041-1.836 8.238-2.305 0.046-0.366 0.375-0.594 0.737-0.56 0.366 0.044 0.621 0.4 0.577 0.764-0.173 1.434-3.891 3.434-9.551 3.434z"></path>
</svg>
