<svg version="1.1" xmlns="http://www.w3.org/2000/svg" width="32" height="32" viewBox="0 0 32 32">
<title>database</title>
<path d="M15.999 31.595c-4.46 0-9.917-1.051-10.621-4.013-0.042-0.104-0.074-0.288-0.074-0.474v-22.199c0-3.242 5.371-4.678 10.695-4.678s10.695 1.436 10.695 4.644c0 0.018-0.001 0.038-0.003 0.057l0.003 22.176c0 0.182-0.031 0.363-0.094 0.54-0.684 2.896-6.142 3.947-10.602 3.947zM15.999 1.564c-4.538 0-9.361 1.16-9.361 3.311v22.233c0.008 0.023 0.032 0.142 0.037 0.167 0.412 1.731 4.333 2.987 9.324 2.987 4.992 0 8.913-1.257 9.324-2.987l0.038-0.167v-22.199c0-0.010 0-0.022 0-0.035v0c0-2.15-4.823-3.311-9.362-3.311z"></path>
<path d="M15.951 8.193c-6.264 0-10.376-2.208-10.567-3.79-0.044-0.365 0.217-0.697 0.583-0.742 0.359-0.044 0.697 0.217 0.742 0.583 0.222 0.608 3.438 2.616 9.243 2.616 5.84 0 9.105-2.010 9.345-2.649 0.043-0.366 0.378-0.619 0.737-0.566 0.366 0.044 0.624 0.392 0.579 0.758-0.185 1.545-4.43 3.79-10.661 3.79z"></path>
<path d="M15.949 15.976c-6.305 0-10.44-2.285-10.63-3.923 0-0.369 0.29-0.733 0.659-0.733 0.326 0 0.591 0.182 0.648 0.48 0.258 0.782 3.422 2.842 9.323 2.842 5.988 0 9.214-2.138 9.419-2.817 0.042-0.365 0.362-0.624 0.738-0.575 0.366 0.042 0.625 0.383 0.583 0.749-0.19 1.622-4.469 3.977-10.741 3.977z"></path>
<path d="M15.949 23.573c-6.305 0-10.44-2.284-10.63-3.922 0-0.369 0.29-0.733 0.659-0.733 0.325 0 0.589 0.182 0.647 0.478 0.259 0.784 3.423 2.844 9.324 2.844 5.987 0 9.214-2.137 9.419-2.816 0.042-0.365 0.362-0.612 0.738-0.575 0.366 0.043 0.625 0.384 0.583 0.749-0.19 1.622-4.469 3.977-10.741 3.977z"></path>
</svg>
