<!-- Generated by IcoMoon.io -->
<svg version="1.1" xmlns="http://www.w3.org/2000/svg" width="32" height="32" viewBox="0 0 32 32">
<title>database</title>
<path d="M29 7.9c-0.1-3.4-5.7-5.9-13-5.9s-12.9 2.5-13 5.9c0 0 0 0 0 0v16.1c0 3.4 5.6 6 13 6s13-2.6 13-6v-16.1c0 0 0 0 0 0zM27 18.8c0 1.9-4.7 4-11 4s-11-2.1-11-4v-2.1c2.3 1.7 6.3 2.7 11 2.7s8.7-1.1 11-2.7v2.1zM27 13.4c0 1.9-4.7 4-11 4s-11-2.1-11-4v-2.1c2.3 1.7 6.3 2.7 11 2.7s8.7-1.1 11-2.7v2.1zM16 4c6.3 0 11 2.1 11 4s-4.7 4-11 4-11-2.1-11-4 4.7-4 11-4zM16 28c-6.3 0-11-2.1-11-4v-2c2.3 1.7 6.3 2.7 11 2.7s8.7-1.1 11-2.7v2c0 1.9-4.7 4-11 4z"></path>
</svg>
