<!-- Generated by IcoMoon.io -->
<svg version="1.1" xmlns="http://www.w3.org/2000/svg" width="32" height="32" viewBox="0 0 32 32">
<title>database_remote</title>
<path d="M16.039 24.65c-1.409 0-8.479-0.152-9.292-3.171-0.038-0.081-0.071-0.247-0.071-0.418l0.001-16.978c-0.001-0.009-0.001-0.018-0.001-0.027 0-2.737 5.044-3.708 9.363-3.708s9.363 0.971 9.363 3.708v17.005c0 0.171-0.033 0.337-0.098 0.496-0.787 2.94-7.857 3.092-9.266 3.092zM8.010 4.031c0.001 0.011 0.001 0.023 0.001 0.034l-0.001 16.996c0.355 1.296 3.871 2.255 8.030 2.255s7.675-0.96 8.005-2.184l0.025-17.049c0-1.336-3.603-2.402-8.030-2.402-4.399 0-7.983 1.051-8.029 2.35z"></path>
<path d="M15.996 7.105c-5.24 0-9.11-1.631-9.305-3.096 0-0.369 0.291-0.732 0.659-0.732 0.312 0 0.568 0.168 0.639 0.443 0.245 0.48 2.807 2.051 8.007 2.051 5.262 0 7.87-1.587 8.099-2.014 0.049-0.366 0.38-0.583 0.738-0.536 0.366 0.048 0.612 0.421 0.564 0.786-0.195 1.464-4.103 3.097-9.401 3.097z"></path>
<path d="M15.996 12.847c-5.24 0-9.11-1.632-9.305-3.097 0-0.368 0.291-0.731 0.659-0.731 0.312 0 0.569 0.168 0.639 0.443 0.247 0.481 2.809 2.051 8.007 2.051 5.262 0 7.87-1.588 8.099-2.014 0.049-0.367 0.38-0.582 0.738-0.536 0.366 0.048 0.612 0.421 0.564 0.786-0.195 1.465-4.103 3.097-9.401 3.097z"></path>
<path d="M15.996 18.587c-5.24 0-9.11-1.631-9.305-3.096 0-0.368 0.291-0.731 0.659-0.731 0.326 0 0.591 0.182 0.648 0.48 0.007 0.033 0.014 0.069 0.017 0.097 0.199 0.335 2.761 1.917 7.981 1.917 5.263 0 7.87-1.587 8.099-2.014 0.049-0.367 0.38-0.588 0.738-0.536 0.365 0.048 0.612 0.421 0.564 0.786-0.195 1.465-4.103 3.096-9.401 3.096z"></path>
<path d="M3.984 29.374h-3.333c-0.369 0-0.667-0.298-0.667-0.667s0.298-0.667 0.667-0.667h3.333c0.369 0 0.667 0.298 0.667 0.667s-0.298 0.667-0.667 0.667z"></path>
<path d="M11.314 29.374h-3.333c-0.369 0-0.667-0.298-0.667-0.667s0.298-0.667 0.667-0.667h3.333c0.369 0 0.667 0.298 0.667 0.667s-0.298 0.667-0.667 0.667z"></path>
<path d="M23.986 29.374h-3.333c-0.369 0-0.667-0.298-0.667-0.667s0.298-0.667 0.667-0.667h3.333c0.369 0 0.667 0.298 0.667 0.667s-0.298 0.667-0.667 0.667z"></path>
<path d="M31.316 29.374h-3.333c-0.369 0-0.667-0.298-0.667-0.667s0.298-0.667 0.667-0.667h3.333c0.369 0 0.667 0.298 0.667 0.667s-0.298 0.667-0.667 0.667z"></path>
<path d="M16.039 28.214c-0.369 0-0.667-0.298-0.667-0.667v-3.564c0-0.369 0.298-0.667 0.667-0.667s0.667 0.298 0.667 0.667v3.564c0 0.368-0.298 0.667-0.667 0.667z"></path>
<path d="M16.039 30.559c-1.014 0-1.84-0.824-1.84-1.839s0.825-1.84 1.84-1.84 1.84 0.825 1.84 1.84-0.826 1.839-1.84 1.839zM16.039 28.214c-0.279 0-0.507 0.228-0.507 0.507s0.227 0.505 0.507 0.505c0.279 0 0.507-0.227 0.507-0.505s-0.228-0.507-0.507-0.507z"></path>
</svg>
