<svg version="1.1" xmlns="http://www.w3.org/2000/svg" width="32" height="32" viewBox="0 0 32 32">
<title>deactivate</title>
<path d="M16 31.733c-8.667 0-15.733-7.067-15.733-15.733s7.067-15.733 15.733-15.733 15.733 7.067 15.733 15.733c0 8.667-7.067 15.733-15.733 15.733zM16 1.6c-7.867 0-14.4 6.533-14.4 14.4s6.533 14.4 14.4 14.4c7.867 0 14.4-6.4 14.4-14.4s-6.533-14.4-14.4-14.4z"></path>
<path d="M5.333 27.333c-0.133 0-0.4 0-0.533-0.133-0.267-0.267-0.267-0.667 0-0.933l21.333-21.333c0.267-0.267 0.667-0.267 0.933 0s0.267 0.667 0 0.933l-21.2 21.2c-0.133 0.133-0.267 0.267-0.533 0.267z"></path>
<path d="M16 14.133c0.4 0 0.8-0.4 0.8-0.8v-8.133c0-0.4-0.4-0.8-0.8-0.8s-0.8 0.4-0.8 0.8v8.133c0 0.533 0.4 0.8 0.8 0.8z"></path>
<path d="M21.067 8.133c-0.4-0.267-0.8-0.133-1.067 0.267s-0.133 0.8 0.267 1.067c2.533 1.467 4 4.133 4 6.933 0 4.4-3.733 8-8.267 8s-8.267-3.6-8.267-8c0-2.8 1.6-5.467 4-6.933 0.267-0.133 0.4-0.267 0.4-0.4 0-0.267 0-0.4-0.133-0.533-0.133-0.533-0.667-0.667-1.067-0.4-2.933 1.733-4.8 4.933-4.8 8.267 0 5.333 4.4 9.6 9.867 9.6s9.867-4.267 9.867-9.6c0-3.333-1.867-6.533-4.8-8.267z"></path>
</svg>
