<!-- Generated by IcoMoon.io -->
<svg version="1.1" xmlns="http://www.w3.org/2000/svg" width="28" height="32" viewBox="0 0 28 32">
<title>deeptrace_thin</title>
<path d="M23.978 25.859c-0.294 0-0.578-0.122-0.797-0.341s-0.341-0.503-0.341-0.797c0-0.294 0.122-0.578 0.341-0.797l1.553-1.553c0.375-0.344 0.647-0.806 0.762-1.303 0.228-0.919-0.050-1.903-0.722-2.578-0.509-0.509-1.212-0.8-1.931-0.8-0.219 0-0.434 0.025-0.647 0.078-0.497 0.116-0.959 0.384-1.303 0.762l-4.538 4.509c-0.959 0.941-2.209 1.456-3.525 1.456-0.441 0-0.881-0.059-1.306-0.178l-0.009-0.003c-1.706-0.444-3.044-1.794-3.497-3.525-0.222-0.853-0.222-1.747 0.003-2.584 0.225-0.841 0.672-1.609 1.294-2.219l9.072-9.072c0.534-0.575 0.813-1.291 0.781-2.019-0.006-0.741-0.35-1.459-0.947-1.978-0.478-0.416-1.091-0.644-1.722-0.644-0.131 0-0.262 0.009-0.391 0.028h-0.019c-0.613 0.109-1.172 0.4-1.616 0.844l-5.862 5.897c-0.934 0.934-2.2 1.45-3.559 1.45-0.031 0-0.063 0-0.094 0-1.394-0.053-2.663-0.637-3.578-1.65-0.894-1.019-1.35-2.381-1.25-3.731 0.097-1.206 0.653-2.353 1.559-3.234l1.488-1.488c0.219-0.219 0.503-0.341 0.797-0.341 0.3 0 0.597 0.122 0.778 0.319l0.009 0.013 0.009 0.009c0.219 0.219 0.341 0.503 0.341 0.797s-0.122 0.578-0.341 0.797l-1.553 1.556c-0.375 0.344-0.647 0.806-0.762 1.303-0.228 0.919 0.050 1.903 0.722 2.578 0.509 0.509 1.213 0.8 1.931 0.8 0.219 0 0.434-0.025 0.647-0.078 0.497-0.116 0.959-0.388 1.303-0.763l5.875-5.875c0.959-0.938 2.209-1.456 3.525-1.456 0.441 0 0.881 0.059 1.306 0.178 0.844 0.231 1.619 0.684 2.238 1.306 0.613 0.616 1.063 1.387 1.297 2.225 0.222 0.853 0.219 1.744-0.003 2.581-0.225 0.841-0.672 1.609-1.294 2.219l-9.072 9.072c-0.534 0.575-0.813 1.291-0.781 2.019 0.006 0.741 0.35 1.459 0.947 1.978 0.478 0.416 1.091 0.644 1.722 0.644 0.131 0 0.262-0.009 0.391-0.028l0.025-0.006c0.594-0.113 1.141-0.403 1.581-0.844l4.469-4.469c0.928-0.928 2.216-1.459 3.534-1.459 0.191 0 0.381 0.012 0.569 0.034h0.012c1.25 0.125 2.394 0.719 3.225 1.675 0.825 0.95 1.25 2.166 1.2 3.425-0.050 1.244-0.578 2.456-1.45 3.328l-1.594 1.594c-0.225 0.219-0.509 0.337-0.803 0.337z"></path>
<path d="M18.344 31.962c-0.9 0-1.634-0.734-1.634-1.634s0.734-1.634 1.634-1.634 1.634 0.734 1.634 1.634c0 0.9-0.734 1.634-1.634 1.634z"></path>
</svg>
