<!-- Generated by IcoMoon.io -->
<svg version="1.1" xmlns="http://www.w3.org/2000/svg" width="28" height="32" viewBox="0 0 28 32">
<title>deeptrace</title>
<path d="M23.411 15.044c-1.662-0.194-3.352 0.388-4.544 1.579l-4.35 4.35c-0.332 0.332-0.748 0.554-1.191 0.637-0.554 0.083-1.108-0.083-1.524-0.443s-0.693-0.887-0.693-1.441c-0.028-0.554 0.194-1.081 0.582-1.496l8.81-8.81c1.413-1.385 1.939-3.408 1.441-5.319-0.526-1.884-1.995-3.38-3.907-3.906s-3.934 0.028-5.347 1.413l-5.735 5.735c-0.249 0.277-0.582 0.471-0.942 0.554-0.665 0.166-1.385-0.028-1.884-0.526s-0.693-1.219-0.526-1.884c0.083-0.36 0.277-0.693 0.554-0.942l1.524-1.524c0.332-0.332 0.526-0.776 0.526-1.247s-0.194-0.914-0.526-1.247c-0.305-0.332-0.776-0.526-1.247-0.526s-0.914 0.194-1.247 0.526l-1.441 1.441c-0.97 0.942-1.607 2.216-1.718 3.574-0.111 1.496 0.388 2.992 1.385 4.128 1.025 1.136 2.438 1.773 3.962 1.829 1.524 0.028 2.964-0.526 4.045-1.607l5.707-5.735c0.332-0.332 0.748-0.554 1.219-0.637 0.554-0.083 1.108 0.083 1.524 0.443s0.693 0.887 0.693 1.441c0.028 0.554-0.194 1.081-0.582 1.496l-8.81 8.81c-1.413 1.385-1.939 3.408-1.441 5.319s1.967 3.408 3.879 3.907c1.912 0.526 3.934-0.028 5.347-1.413l4.433-4.405c0.249-0.277 0.582-0.471 0.942-0.554 0.665-0.166 1.385 0.028 1.884 0.526s0.693 1.219 0.526 1.884c-0.083 0.36-0.277 0.693-0.554 0.942l-1.524 1.524c-0.332 0.332-0.526 0.776-0.526 1.247s0.194 0.914 0.526 1.247c0.332 0.332 0.776 0.526 1.247 0.526s0.914-0.194 1.247-0.526l1.552-1.552c0.97-0.97 1.552-2.3 1.607-3.685s-0.416-2.743-1.33-3.796-2.189-1.718-3.574-1.856v0z"></path>
<path d="M20.281 30.144c0 1.025-0.831 1.856-1.856 1.856s-1.856-0.831-1.856-1.856c0-1.025 0.831-1.856 1.856-1.856s1.856 0.831 1.856 1.856z"></path>
</svg>
