<svg version="1.1" xmlns="http://www.w3.org/2000/svg" width="32" height="32" viewBox="0 0 32 32">
<title>delete_exit_remove_close</title>
<path d="M9.85 22.831c-0.171 0-0.341-0.065-0.471-0.195-0.26-0.26-0.26-0.682 0-0.943l12.322-12.322c0.26-0.26 0.682-0.26 0.943 0s0.26 0.682 0 0.943l-12.322 12.322c-0.13 0.13-0.301 0.195-0.471 0.195z"></path>
<path d="M22.172 22.831c-0.171 0-0.341-0.065-0.471-0.195l-12.322-12.321c-0.26-0.26-0.26-0.682 0-0.943s0.682-0.26 0.943 0l12.322 12.322c0.26 0.26 0.26 0.682 0 0.943-0.13 0.13-0.301 0.195-0.471 0.195z"></path>
<path d="M16.009 31.846c-8.736 0-15.843-7.107-15.843-15.842s7.107-15.844 15.843-15.844 15.842 7.107 15.842 15.844c0 8.736-7.107 15.842-15.842 15.842zM16.009 1.493c-8.001 0-14.51 6.509-14.51 14.51 0 8 6.509 14.509 14.51 14.509s14.509-6.509 14.509-14.509c0-8.001-6.509-14.51-14.509-14.51z"></path>
</svg>
