<svg height="32" version="1.1" viewBox="0 0 32 32" width="32" xmlns="http://www.w3.org/2000/svg">
  <title>delete</title>
  <tags>delete,remove,trash,trash-can,edition,bin,garbage,empty,recycle</tags>
  <path d="M25.849 32.052h-19.698c-0.35 0-0.64-0.269-0.665-0.619l-1.837-25.345c-0.014-0.185 0.050-0.367 0.176-0.502s0.303-0.213 0.488-0.213h23.372c0.185 0 0.362 0.077 0.488 0.213s0.19 0.317 0.177 0.502l-1.837 25.345c-0.026 0.349-0.316 0.619-0.665 0.619zM6.771 30.719h18.458l1.741-24.012h-21.939l1.74 24.012z"></path>
  <path d="M30.414 6.707h-28.827c-0.369 0-0.667-0.298-0.667-0.667s0.298-0.667 0.667-0.667h28.827c0.369 0 0.667 0.298 0.667 0.667s-0.298 0.667-0.667 0.667z"></path>
  <path d="M20.303 6.707h-8.607c-0.214 0-0.414-0.102-0.54-0.275s-0.16-0.395-0.094-0.598l1.323-4.051c0.089-0.274 0.345-0.46 0.633-0.46h5.961c0.289 0 0.544 0.186 0.634 0.46l1.323 4.051c0.066 0.203 0.031 0.426-0.095 0.598-0.125 0.173-0.326 0.275-0.539 0.275zM12.616 5.374h6.768l-0.887-2.717h-4.994l-0.887 2.717z"></path>
  <path d="M16.027 25.043c-1.067 0-2.139-0.26-3.113-0.798-0.323-0.177-0.44-0.583-0.262-0.905s0.584-0.443 0.906-0.262c2 1.102 4.521 0.74 6.13-0.881 1.615-1.624 1.974-4.164 0.876-6.177-0.177-0.324-0.057-0.729 0.266-0.905s0.728-0.057 0.904 0.266c1.38 2.528 0.927 5.717-1.1 7.756-1.242 1.251-2.917 1.906-4.605 1.906z"></path>
  <path d="M10.926 22.003c-0.236 0-0.465-0.126-0.586-0.348-1.378-2.527-0.925-5.717 1.101-7.757 2.028-2.043 5.204-2.496 7.719-1.108 0.323 0.178 0.44 0.584 0.262 0.906s-0.586 0.437-0.905 0.262c-2-1.105-4.52-0.74-6.131 0.88-1.613 1.624-1.973 4.164-0.876 6.178 0.176 0.323 0.057 0.728-0.266 0.905-0.102 0.055-0.211 0.081-0.319 0.081z"></path>
  <path d="M16.051 15.266c-0.255 0-0.499-0.148-0.609-0.397-0.149-0.337 0.003-0.731 0.339-0.88l2.201-0.976-0.971-2.217c-0.147-0.337 0.007-0.731 0.344-0.878 0.333-0.147 0.731 0.006 0.878 0.343l1.237 2.825c0.147 0.337-0.005 0.729-0.34 0.877l-2.807 1.245c-0.089 0.039-0.18 0.057-0.271 0.057z"></path>
  <path d="M14.473 27.152c-0.257 0-0.502-0.148-0.611-0.4l-1.237-2.824c-0.147-0.336 0.005-0.728 0.341-0.876l2.807-1.245c0.337-0.15 0.73 0.001 0.88 0.339s-0.003 0.731-0.339 0.88l-2.201 0.975 0.971 2.217c0.148 0.337-0.006 0.731-0.343 0.878-0.087 0.038-0.178 0.056-0.267 0.056z"></path>
</svg>
