<!-- Generated by IcoMoon.io -->
<svg version="1.1" xmlns="http://www.w3.org/2000/svg" width="32" height="32" viewBox="0 0 32 32">
<title>delete_remove_exit_close_checkbox</title>
<path d="M5 7c0-1.105 0.895-2 2-2h18c1.105 0 2 0.895 2 2v18c0 1.105-0.895 2-2 2h-18c-1.105 0-2-0.895-2-2v-18zM7 3c-2.209 0-4 1.791-4 4v18c0 2.209 1.791 4 4 4h18c2.209 0 4-1.791 4-4v-18c0-2.209-1.791-4-4-4h-18zM12.707 11.293c-0.391-0.39-1.024-0.39-1.414 0s-0.39 1.024 0 1.414l3.293 3.293-3.293 3.293c-0.39 0.391-0.39 1.024 0 1.414s1.024 0.39 1.414 0l3.293-3.293 3.293 3.293c0.391 0.39 1.024 0.39 1.414 0s0.39-1.024 0-1.414l-3.293-3.293 3.293-3.293c0.39-0.391 0.39-1.024 0-1.414s-1.024-0.39-1.414 0l-3.293 3.293-3.293-3.293z"></path>
</svg>
