<!-- Generated by IcoMoon.io -->
<svg version="1.1" xmlns="http://www.w3.org/2000/svg" width="32" height="32" viewBox="0 0 32 32">
<title>delete_exit_remove_close_rounded_filled</title>
<path d="M16 0.228c-8.697 0-15.772 7.075-15.772 15.772s7.075 15.772 15.772 15.772c8.697 0 15.772-7.075 15.772-15.772s-7.075-15.772-15.772-15.772zM23.075 23.059c-0.244 0.244-0.569 0.378-0.913 0.378v0c-0.344 0-0.669-0.134-0.913-0.378l-5.234-5.234-5.262 5.266c-0.244 0.244-0.569 0.378-0.912 0.378v0c-0.344 0-0.669-0.134-0.912-0.378s-0.378-0.569-0.378-0.913c0-0.344 0.134-0.669 0.378-0.913l5.259-5.266-5.263-5.262c-0.244-0.244-0.378-0.569-0.378-0.912s0.134-0.669 0.378-0.912c0.244-0.244 0.569-0.378 0.912-0.378s0.669 0.134 0.912 0.378l5.262 5.262 5.231-5.231c0.244-0.244 0.569-0.378 0.913-0.378s0.669 0.134 0.913 0.378c0.244 0.244 0.378 0.569 0.378 0.912s-0.134 0.669-0.378 0.912l-5.228 5.231 5.231 5.231c0.244 0.244 0.378 0.569 0.378 0.913 0.003 0.347-0.131 0.672-0.375 0.916z"></path>
</svg>
