<svg version="1.1" xmlns="http://www.w3.org/2000/svg" width="32" height="32" viewBox="0 0 32 32">
<title>delete_remove_exit_close_checkbox</title>
<path d="M31.333 32.001h-30.667c-0.369 0-0.667-0.298-0.667-0.667v-30.667c0-0.369 0.298-0.667 0.667-0.667h30.667c0.369 0 0.667 0.298 0.667 0.667v30.667c0 0.368-0.298 0.667-0.667 0.667zM1.333 30.668h29.333v-29.333h-29.333v29.333z"></path>
<path d="M23.563 24.243c-0.171 0-0.341-0.065-0.471-0.195l-15.179-15.18c-0.26-0.26-0.26-0.682 0-0.943s0.682-0.26 0.943 0l15.179 15.18c0.26 0.26 0.26 0.682 0 0.943-0.13 0.13-0.301 0.195-0.471 0.195z"></path>
<path d="M8.383 24.243c-0.171 0-0.341-0.065-0.471-0.195-0.26-0.26-0.26-0.682 0-0.943l15.179-15.18c0.26-0.26 0.682-0.26 0.943 0s0.26 0.682 0 0.943l-15.179 15.18c-0.13 0.13-0.301 0.195-0.471 0.195z"></path>
</svg>
