<!-- Generated by IcoMoon.io -->
<svg version="1.1" xmlns="http://www.w3.org/2000/svg" width="32" height="32" viewBox="0 0 32 32">
<title>delete_exit_remove_close_strong</title>
<path d="M16 3c-7.2 0-13 5.8-13 13s5.8 13 13 13c7.2 0 13-5.8 13-13s-5.8-13-13-13zM16 27c-6.1 0-11-4.9-11-11s4.9-11 11-11 11 4.9 11 11-4.9 11-11 11zM20.7 12.7l-3.3 3.3 3.3 3.3c0.4 0.4 0.4 1 0 1.4-0.2 0.2-0.4 0.3-0.7 0.3s-0.5-0.1-0.7-0.3l-3.3-3.3-3.3 3.3c-0.4 0.4-1 0.4-1.4 0s-0.4-1 0-1.4l3.3-3.3-3.3-3.3c-0.4-0.4-0.4-1 0-1.4s1-0.4 1.4 0l3.3 3.3 3.3-3.3c0.4-0.4 1-0.4 1.4 0s0.4 1 0 1.4z"></path>
</svg>
