<svg version="1.1" xmlns="http://www.w3.org/2000/svg" width="32" height="32" viewBox="0 0 32 32">
<title>deselect_all</title>
<path d="M7.334 29.228c-0.369 0-0.666-0.297-0.666-0.666v-25.197c0-0.369 0.297-0.666 0.666-0.666s0.666 0.297 0.666 0.666v25.197c0 0.369-0.297 0.666-0.666 0.666v0z"></path>
<path d="M7.334 29.228c-0.178 0-0.35-0.072-0.475-0.2l-4.059-4.144c-0.256-0.262-0.253-0.684 0.009-0.944 0.266-0.256 0.684-0.253 0.944 0.009l3.581 3.656 3.581-3.656c0.259-0.266 0.681-0.266 0.944-0.009 0.262 0.259 0.269 0.681 0.009 0.944l-4.059 4.144c-0.125 0.128-0.297 0.2-0.475 0.2v0z"></path>
<path d="M26.847 2.7h-14.222c-0.331 0-0.603 0.269-0.603 0.603v14.222c0 0.331 0.269 0.603 0.603 0.603h14.222c0.331 0 0.603-0.269 0.603-0.603v-14.222c0-0.334-0.272-0.603-0.603-0.603zM13.225 16.922v-13.016h13.019v13.019h-13.019z"></path>
</svg>
