<!-- Generated by IcoMoon.io -->
<svg version="1.1" xmlns="http://www.w3.org/2000/svg" width="179" height="32" viewBox="0 0 179 32">
<title>devo_logo_2c_b</title>
<path d="M31.184 0.428h13.387c1.47 0 2.659 1.189 2.659 2.659s-1.192 2.659-2.659 2.659h-13.387c-1.47 0-2.659-1.192-2.659-2.659s1.189-2.659 2.659-2.659z"></path>
<path d="M17.9 23.002h33.61c1.47 0 2.659-1.189 2.659-2.659s-1.189-2.659-2.659-2.659h-33.61c-1.47 0-2.659 1.192-2.659 2.659-0.003 1.47 1.189 2.659 2.659 2.659z"></path>
<path d="M44.37 14.374h7.141c1.47 0 2.659-1.189 2.659-2.659s-1.192-2.659-2.659-2.659h-7.141c-1.47 0-2.659 1.192-2.659 2.659-0.003 1.47 1.189 2.659 2.659 2.659z"></path>
<path d="M44.37 31.63v0c1.47 0 2.659-1.189 2.659-2.659s-1.192-2.659-2.659-2.659c-1.47 0-2.659 1.192-2.659 2.659-0.003 1.467 1.189 2.659 2.659 2.659z"></path>
</svg>
