<svg version="1.1" xmlns="http://www.w3.org/2000/svg" width="32" height="32" viewBox="0 0 32 32">
<title>devo_icon</title>
<path d="M18.372 6.969h7.75c0.85 0 1.541 0.691 1.541 1.541s-0.691 1.541-1.541 1.541h-7.75c-0.85 0-1.541-0.691-1.541-1.541s0.691-1.541 1.541-1.541z"></path>
<path d="M10.681 20.038h19.459c0.85 0 1.541-0.691 1.541-1.541s-0.691-1.541-1.541-1.541h-19.459c-0.85 0-1.541 0.691-1.541 1.541s0.691 1.541 1.541 1.541z"></path>
<path d="M26.006 15.044h4.134c0.85 0 1.541-0.691 1.541-1.541s-0.691-1.541-1.541-1.541h-4.134c-0.85 0-1.541 0.691-1.541 1.541s0.691 1.541 1.541 1.541z"></path>
<path d="M26.006 25.031v0c0.85 0 1.541-0.691 1.541-1.541s-0.691-1.541-1.541-1.541c-0.85 0-1.541 0.691-1.541 1.541s0.691 1.541 1.541 1.541z"></path>
<path d="M1.859 15.044h19.172c0.85 0 1.541-0.691 1.541-1.541s-0.691-1.541-1.541-1.541h-19.172c-0.85 0-1.541 0.691-1.541 1.541s0.691 1.541 1.541 1.541z"></path>
<path d="M16.719 25.031h4.313c0.85 0 1.541-0.691 1.541-1.541s-0.691-1.541-1.541-1.541h-4.313c-0.85 0-1.541 0.691-1.541 1.541 0.003 0.85 0.691 1.541 1.541 1.541z"></path>
<path d="M13.272 6.969v0c0.85 0 1.541 0.691 1.541 1.541s-0.691 1.541-1.541 1.541c-0.85 0-1.541-0.691-1.541-1.541s0.691-1.541 1.541-1.541z"></path>
<path d="M6.075 16.956v0c0.85 0 1.541 0.691 1.541 1.541s-0.691 1.541-1.541 1.541c-0.85 0-1.541-0.691-1.541-1.541 0.003-0.85 0.691-1.541 1.541-1.541z"></path>
</svg>
