<svg version="1.1" xmlns="http://www.w3.org/2000/svg" width="179" height="32" viewBox="0 0 179 32">
<title>devo_symbol_logo</title>
<path d="M63.727 1.287c0-0.446 0.357-0.847 0.802-0.847h10.535c8.579 0 15.599 6.981 15.599 15.51 0 8.624-7.019 15.599-15.599 15.599h-10.535c-0.446 0-0.802-0.401-0.802-0.847v-29.415zM74.524 26.134c5.777 0 10-4.357 10-10.178 0-5.777-4.223-10.134-10-10.134h-5.064v20.312h5.064z"></path>
<path d="M117.688 1.599c-0.267-0.579 0.089-1.153 0.752-1.153h4.535c0.401 0 0.669 0.267 0.758 0.49l8.535 19.114h0.312l8.535-19.114c0.089-0.223 0.357-0.49 0.758-0.49h4.535c0.669 0 1.025 0.579 0.758 1.153l-13.777 29.911c-0.134 0.267-0.357 0.49-0.758 0.49h-0.446c-0.401 0-0.624-0.223-0.758-0.49l-13.738-29.911z"></path>
<path d="M163.198 0c8.891 0 16 7.159 16 16.045s-7.109 15.955-16 15.955c-8.891 0-15.955-7.064-15.955-15.955s7.070-16.045 15.955-16.045zM163.198 26.223c5.599 0 10.223-4.579 10.223-10.178s-4.624-10.267-10.223-10.267c-5.599 0-10.178 4.669-10.178 10.267s4.579 10.178 10.178 10.178z"></path>
<path d="M113.593 26.223h-12.178c-0.54 0-0.981-0.44-0.981-0.98v-5.816c0-0.54 0.44-0.98 0.981-0.98h10.006c0.446 0 0.841-0.357 0.841-0.847v-3.688c0-0.446-0.401-0.847-0.841-0.847l-15.777-0.017c-0.54 0-0.981 0.44-0.981 0.98v16.685c0 0.446 0.357 0.847 0.841 0.847h18.089c0.49 0 0.847-0.401 0.847-0.847v-3.643c0-0.446-0.357-0.847-0.847-0.847z"></path>
<path d="M113.593 0.446h-18.089c-0.49 0-0.841 0.401-0.841 0.847v3.649c0 0.462 0.379 0.841 0.841 0.841l18.089-0.006c0.49 0 0.847-0.401 0.847-0.847v-3.643c0-0.44-0.357-0.841-0.847-0.841z"></path>
<path d="M31.326 0.429h13.387c1.471 0 2.663 1.192 2.663 2.657s-1.192 2.663-2.663 2.663h-13.387c-1.471 0-2.663-1.192-2.663-2.663s1.192-2.657 2.663-2.657z"></path>
<path d="M18.039 23.003h33.616c1.471 0 2.657-1.192 2.657-2.657 0-1.471-1.192-2.663-2.657-2.663h-33.616c-1.471 0-2.663 1.192-2.663 2.663s1.192 2.657 2.663 2.657z"></path>
<path d="M44.507 14.379h7.142c1.471 0 2.663-1.192 2.663-2.663s-1.192-2.657-2.663-2.657h-7.142c-1.471 0-2.663 1.192-2.663 2.657 0.006 1.471 1.198 2.663 2.663 2.663z"></path>
<path d="M44.507 31.632v0c1.471 0 2.663-1.192 2.663-2.663s-1.192-2.657-2.663-2.657c-1.471 0-2.663 1.192-2.663 2.657 0.006 1.471 1.198 2.663 2.663 2.663z"></path>
<path d="M2.797 14.379h33.12c1.471 0 2.663-1.192 2.663-2.663s-1.192-2.657-2.663-2.657h-33.12c-1.471 0-2.657 1.192-2.657 2.657-0.006 1.471 1.187 2.663 2.657 2.663z"></path>
<path d="M28.468 31.632h7.443c1.471 0 2.663-1.192 2.663-2.663s-1.192-2.657-2.663-2.657h-7.443c-1.471 0-2.657 1.192-2.657 2.657 0 1.471 1.187 2.663 2.657 2.663z"></path>
<path d="M22.507 0.429v0c1.471 0 2.663 1.192 2.663 2.657s-1.192 2.663-2.663 2.663c-1.471 0-2.663-1.192-2.663-2.663s1.198-2.657 2.663-2.657z"></path>
<path d="M10.084 17.682v0c1.471 0 2.663 1.192 2.663 2.663s-1.192 2.657-2.663 2.657c-1.471 0-2.663-1.192-2.663-2.657 0-1.471 1.192-2.663 2.663-2.663z"></path>
</svg>
