<svg version="1.1" xmlns="http://www.w3.org/2000/svg" width="115" height="32" viewBox="0 0 115 32">
<title>devo_logotype</title>
<path d="M0 1.288c0-0.442 0.355-0.846 0.802-0.846h10.534c8.58 0 15.599 6.981 15.599 15.511 0 8.624-7.024 15.599-15.599 15.599h-10.534c-0.442 0-0.802-0.398-0.802-0.846v-29.418zM10.801 26.133c5.78 0 9.999-4.355 9.999-10.179 0-5.78-4.224-10.135-9.999-10.135h-5.065v20.314h5.065z"></path>
<path d="M53.963 1.599c-0.267-0.579 0.087-1.157 0.753-1.157h4.536c0.398 0 0.666 0.267 0.753 0.491l8.536 19.114h0.311l8.536-19.114c0.087-0.224 0.355-0.491 0.753-0.491h4.53c0.666 0 1.021 0.579 0.759 1.157l-13.781 29.915c-0.131 0.267-0.355 0.491-0.753 0.491h-0.442c-0.398 0-0.622-0.224-0.753-0.491l-13.738-29.915z"></path>
<path d="M99.477 0c8.891 0 16.003 7.155 16.003 16.046s-7.112 15.954-16.003 15.954c-8.891 0-15.954-7.068-15.954-15.954-0.005-8.891 7.063-16.046 15.954-16.046zM99.477 26.225c5.6 0 10.223-4.579 10.223-10.179s-4.623-10.266-10.223-10.266c-5.6 0-10.179 4.667-10.179 10.266s4.579 10.179 10.179 10.179z"></path>
<path d="M49.869 26.225h-12.177c-0.54 0-0.982-0.437-0.982-0.982v-5.818c0-0.54 0.437-0.982 0.982-0.982h9.999c0.442 0 0.846-0.355 0.846-0.846v-3.69c0-0.442-0.398-0.846-0.846-0.846l-15.773-0.022c-0.54 0-0.982 0.437-0.982 0.982v16.685c0 0.442 0.355 0.846 0.846 0.846h18.088c0.491 0 0.846-0.398 0.846-0.846v-3.646c0-0.437-0.355-0.835-0.846-0.835z"></path>
<path d="M49.869 0.442h-18.088c-0.491 0-0.846 0.398-0.846 0.846v3.651c0 0.464 0.377 0.841 0.841 0.841l18.093-0.005c0.491 0 0.846-0.398 0.846-0.846v-3.64c0-0.442-0.355-0.846-0.846-0.846z"></path>
</svg>
