<svg version="1.1" xmlns="http://www.w3.org/2000/svg" width="179" height="32" viewBox="0 0 179 32">
<title>devo_logo_2c_a</title>
<path d="M22.372 0.428v0c1.47 0 2.659 1.189 2.659 2.659s-1.192 2.659-2.659 2.659c-1.47 0-2.659-1.192-2.659-2.659s1.189-2.659 2.659-2.659z"></path>
<path d="M63.582 1.288c0-0.445 0.356-0.846 0.798-0.846h10.533c8.576 0 15.601 6.976 15.601 15.512 0 8.621-7.021 15.597-15.601 15.597h-10.53c-0.445 0-0.798-0.401-0.798-0.843v-29.42zM74.382 26.134c5.777 0 9.999-4.355 9.999-10.177 0-5.777-4.221-10.132-9.999-10.132h-5.064v20.309h5.064z"></path>
<path d="M117.539 1.6c-0.267-0.579 0.089-1.155 0.757-1.155h4.533c0.401 0 0.668 0.267 0.757 0.49l8.532 19.11h0.312l8.532-19.11c0.089-0.223 0.356-0.49 0.757-0.49h4.533c0.668 0 1.021 0.576 0.757 1.155l-13.778 29.91c-0.134 0.267-0.356 0.49-0.757 0.49h-0.445c-0.397 0-0.62-0.223-0.754-0.49l-13.737-29.91z"></path>
<path d="M163.046 0c8.888 0 15.998 7.154 15.998 16.043s-7.11 15.954-15.998 15.954c-8.888 0-15.954-7.065-15.954-15.954s7.065-16.043 15.954-16.043zM163.046 26.22c5.599 0 10.221-4.578 10.221-10.177s-4.622-10.266-10.221-10.266c-5.599 0-10.177 4.667-10.177 10.266 0 5.602 4.578 10.177 10.177 10.177z"></path>
<path d="M113.448 26.22h-12.174c-0.541 0-0.98-0.439-0.98-0.98v-5.815c0-0.541 0.439-0.98 0.98-0.98h9.998c0.445 0 0.843-0.356 0.843-0.843v-3.69c0-0.445-0.401-0.843-0.843-0.843l-15.772-0.021c-0.541 0-0.98 0.439-0.98 0.98v16.684c0 0.445 0.356 0.846 0.843 0.846h18.088c0.49 0 0.843-0.401 0.843-0.846v-3.646c0-0.445-0.356-0.846-0.846-0.846z"></path>
<path d="M113.448 0.445h-18.088c-0.49 0-0.843 0.401-0.843 0.843v3.649c0 0.466 0.377 0.843 0.843 0.843l18.088-0.003c0.49 0 0.843-0.401 0.843-0.846v-3.642c0.003-0.442-0.353-0.843-0.843-0.843z"></path>
<path d="M2.659 14.374h33.114c1.47 0 2.659-1.189 2.659-2.659s-1.192-2.659-2.659-2.659h-33.114c-1.47 0-2.659 1.189-2.659 2.659s1.189 2.659 2.659 2.659z"></path>
<path d="M28.33 31.63h7.446c1.47 0 2.659-1.189 2.659-2.659s-1.189-2.659-2.659-2.659h-7.446c-1.47 0-2.659 1.192-2.659 2.659s1.189 2.659 2.659 2.659z"></path>
<path d="M9.944 17.681v0c1.47 0 2.659 1.189 2.659 2.659s-1.192 2.659-2.659 2.659c-1.47 0-2.659-1.192-2.659-2.659s1.189-2.659 2.659-2.659z"></path>
</svg>
