<svg version="1.1" xmlns="http://www.w3.org/2000/svg" width="120" height="32" viewBox="0 0 120 32">
<title>devo_tagline</title>
<path d="M15.005 0.287v0c0.986 0 1.785 0.799 1.785 1.785s-0.799 1.785-1.785 1.785c-0.986 0-1.785-0.799-1.785-1.785s0.799-1.785 1.785-1.785z"></path>
<path d="M42.647 0.865c0-0.297 0.239-0.566 0.537-0.566h7.064c5.754 0 10.464 4.681 10.464 10.403 0 5.783-4.71 10.461-10.463 10.461h-7.064c-0.297 0-0.537-0.268-0.537-0.566v-19.733zM49.888 17.528c3.875 0 6.707-2.921 6.707-6.825 0-3.875-2.831-6.796-6.707-6.796h-3.397v13.621h3.397z"></path>
<path d="M78.834 1.073c-0.179-0.387 0.060-0.774 0.508-0.774h3.039c0.268 0 0.447 0.179 0.508 0.329l5.723 12.816h0.208l5.723-12.816c0.060-0.15 0.239-0.329 0.508-0.329h3.039c0.447 0 0.686 0.387 0.508 0.774l-9.24 20.060c-0.089 0.179-0.239 0.329-0.508 0.329h-0.297c-0.268 0-0.416-0.15-0.505-0.329l-9.211-20.060z"></path>
<path d="M109.357 0c5.962 0 10.732 4.799 10.732 10.761s-4.77 10.701-10.732 10.701c-5.962 0-10.701-4.739-10.701-10.701s4.739-10.761 10.701-10.761zM109.357 17.586c3.757 0 6.856-3.070 6.856-6.825s-3.1-6.886-6.856-6.886c-3.757 0-6.825 3.129-6.825 6.886s3.068 6.825 6.825 6.825z"></path>
<path d="M76.090 17.586h-8.165c-0.364 0-0.657-0.293-0.657-0.657v-3.9c0-0.364 0.293-0.657 0.657-0.657h6.705c0.297 0 0.566-0.239 0.566-0.566v-2.475c0-0.297-0.268-0.566-0.566-0.566l-10.58-0.012c-0.364 0-0.657 0.293-0.657 0.657v11.19c0 0.297 0.239 0.566 0.566 0.566h12.132c0.329 0 0.566-0.268 0.566-0.566v-2.446c0-0.297-0.237-0.566-0.566-0.566z"></path>
<path d="M76.090 0.297h-12.132c-0.329 0-0.566 0.268-0.566 0.566v2.448c0 0.312 0.254 0.566 0.564 0.566l12.134-0.002c0.329 0 0.566-0.268 0.566-0.566v-2.444c0-0.3-0.237-0.568-0.566-0.568z"></path>
<path d="M20.917 0.287h8.98c0.986 0 1.785 0.799 1.785 1.785s-0.799 1.785-1.785 1.785h-8.98c-0.986 0-1.785-0.799-1.785-1.785s0.799-1.785 1.785-1.785z"></path>
<path d="M12.005 15.427h22.543c0.986 0 1.785-0.799 1.785-1.785s-0.799-1.785-1.785-1.785h-22.543c-0.986 0-1.785 0.799-1.785 1.785 0 0.988 0.799 1.785 1.785 1.785z"></path>
<path d="M29.76 9.642h4.791c0.986 0 1.785-0.799 1.785-1.785 0-0.984-0.799-1.785-1.785-1.785h-4.791c-0.986 0-1.785 0.799-1.785 1.785s0.799 1.785 1.785 1.785z"></path>
<path d="M29.76 21.214v0c0.986 0 1.785-0.799 1.785-1.785 0-0.984-0.799-1.785-1.785-1.785s-1.785 0.799-1.785 1.785c0 0.986 0.799 1.785 1.785 1.785z"></path>
<path d="M1.785 9.642h22.21c0.986 0 1.785-0.799 1.785-1.785 0-0.984-0.799-1.785-1.785-1.785h-22.21c-0.986 0.002-1.785 0.801-1.785 1.785 0 0.986 0.799 1.785 1.785 1.785z"></path>
<path d="M19.001 21.214h4.993c0.986 0 1.785-0.799 1.785-1.785 0-0.984-0.799-1.785-1.785-1.785h-4.993c-0.986 0-1.785 0.799-1.785 1.785 0.002 0.986 0.799 1.785 1.785 1.785z"></path>
<path d="M6.669 11.859v0c0.986 0 1.785 0.799 1.785 1.785 0 0.984-0.799 1.785-1.785 1.785s-1.785-0.799-1.785-1.785c0-0.986 0.801-1.785 1.785-1.785z"></path>
<path d="M42.78 26.327c0-0.081 0.065-0.156 0.148-0.156h1.939c1.579 0 2.871 1.284 2.871 2.854 0 1.587-1.292 2.871-2.871 2.871h-1.939c-0.081 0-0.148-0.073-0.148-0.156v-5.413zM44.766 30.9c1.063 0 1.839-0.801 1.839-1.872 0-1.063-0.776-1.864-1.839-1.864h-0.932v3.736h0.932z"></path>
<path d="M51.987 29.269c0.437 0 0.82 0.125 0.82 0.125 0.010-0.655-0.114-0.913-0.645-0.913-0.478 0-0.944 0.125-1.163 0.187-0.125 0.031-0.198-0.052-0.229-0.166l-0.083-0.385c-0.031-0.135 0.042-0.208 0.135-0.239 0.073-0.031 0.666-0.239 1.433-0.239 1.329 0 1.454 0.811 1.454 1.849v2.213c0 0.104-0.094 0.198-0.198 0.198h-0.291c-0.094 0-0.135-0.042-0.177-0.146l-0.104-0.281c-0.229 0.218-0.634 0.53-1.277 0.53-0.778 0-1.34-0.53-1.34-1.392 0.002-0.761 0.605-1.342 1.664-1.342zM51.862 31.264c0.416 0 0.811-0.312 0.934-0.52v-0.666c-0.062-0.042-0.354-0.166-0.728-0.166-0.499 0-0.84 0.26-0.84 0.686 0.002 0.374 0.25 0.666 0.634 0.666z"></path>
<path d="M57.295 28.603h-0.437c-0.114 0-0.198-0.094-0.198-0.198v-0.468c0-0.114 0.083-0.198 0.198-0.198h0.437v-1.152c0-0.104 0.094-0.198 0.198-0.198l0.593-0.010c0.104 0 0.187 0.094 0.187 0.198v1.163h1.059c0.114 0 0.198 0.083 0.198 0.198v0.468c0 0.104-0.083 0.198-0.198 0.198h-1.059v2.057c0 0.354 0.135 0.416 0.333 0.416 0.218 0 0.51-0.125 0.634-0.187 0.135-0.062 0.198 0 0.239 0.094l0.187 0.458c0.052 0.114 0.010 0.198-0.094 0.25-0.104 0.062-0.718 0.312-1.215 0.312-0.822 0-1.059-0.499-1.059-1.236v-2.163z"></path>
<path d="M64.089 29.269c0.437 0 0.822 0.125 0.822 0.125 0.010-0.655-0.114-0.913-0.645-0.913-0.478 0-0.944 0.125-1.163 0.187-0.125 0.031-0.198-0.052-0.229-0.166l-0.083-0.385c-0.031-0.135 0.042-0.208 0.135-0.239 0.073-0.031 0.666-0.239 1.433-0.239 1.329 0 1.454 0.811 1.454 1.849v2.213c0 0.104-0.094 0.198-0.198 0.198h-0.291c-0.094 0-0.135-0.042-0.177-0.146l-0.104-0.281c-0.229 0.218-0.634 0.53-1.277 0.53-0.78 0-1.34-0.53-1.34-1.392-0.002-0.761 0.601-1.342 1.662-1.342zM63.965 31.264c0.416 0 0.811-0.312 0.934-0.52v-0.666c-0.062-0.042-0.354-0.166-0.728-0.166-0.499 0-0.843 0.26-0.843 0.686 0.002 0.374 0.252 0.666 0.637 0.666z"></path>
<path d="M67.755 30.816c0.333 0 0.593 0.26 0.593 0.593 0 0.322-0.26 0.593-0.593 0.593-0.322 0-0.593-0.27-0.593-0.593 0.002-0.333 0.27-0.593 0.593-0.593z"></path>
<path d="M75.281 26.327c0-0.081 0.064-0.156 0.156-0.156h3.328c0.089 0 0.156 0.073 0.156 0.156v0.67c0 0.081-0.064 0.156-0.156 0.156h-2.421v1.342h2.020c0.081 0 0.156 0.073 0.156 0.156v0.678c0 0.089-0.073 0.156-0.156 0.156h-2.020v1.431h2.421c0.089 0 0.156 0.073 0.156 0.156v0.67c0 0.081-0.064 0.156-0.156 0.156h-3.328c-0.089 0-0.156-0.073-0.156-0.156v-5.415z"></path>
<path d="M81.341 27.979c-0.062-0.135 0-0.239 0.156-0.239h0.614c0.104 0 0.156 0.052 0.187 0.114l1.080 2.453h0.010l1.123-2.453c0.052-0.114 0.166-0.114 0.281-0.114h0.478c0.156 0 0.218 0.104 0.156 0.239l-1.839 3.917c-0.021 0.052-0.083 0.104-0.177 0.104h-0.052c-0.094 0-0.156-0.052-0.177-0.104l-1.841-3.917z"></path>
<path d="M90.003 27.638c1.163 0 2.099 0.996 2.099 2.172 0 1.194-0.934 2.193-2.099 2.193-1.163 0-2.099-0.996-2.099-2.193 0.002-1.175 0.936-2.172 2.099-2.172zM90.003 31.108c0.655 0 1.173-0.582 1.173-1.298 0-0.697-0.52-1.267-1.173-1.267-0.655 0-1.173 0.572-1.173 1.267 0 0.716 0.52 1.298 1.173 1.298z"></path>
<path d="M95.259 25.976c0-0.104 0.094-0.198 0.198-0.198h0.593c0.104 0 0.198 0.094 0.198 0.198v5.723c0 0.104-0.094 0.198-0.198 0.198h-0.593c-0.104 0-0.198-0.094-0.198-0.198v-5.723z"></path>
<path d="M99.156 27.979c-0.062-0.135 0-0.239 0.156-0.239h0.614c0.104 0 0.156 0.052 0.187 0.114l1.080 2.453h0.010l1.121-2.453c0.052-0.114 0.166-0.114 0.281-0.114h0.478c0.156 0 0.218 0.104 0.156 0.239l-1.839 3.917c-0.021 0.052-0.083 0.104-0.177 0.104h-0.052c-0.094 0-0.156-0.052-0.177-0.104l-1.839-3.917z"></path>
<path d="M107.807 27.638c1.080 0 1.912 0.811 1.912 1.922 0 0.073-0.010 0.208-0.021 0.281-0.010 0.104-0.094 0.177-0.187 0.177h-2.825c0.031 0.562 0.52 1.111 1.194 1.111 0.374 0 0.716-0.166 0.924-0.302 0.125-0.073 0.198-0.114 0.281-0.010l0.291 0.395c0.073 0.083 0.104 0.166-0.021 0.27-0.302 0.26-0.84 0.52-1.537 0.52-1.256 0-2.089-0.986-2.089-2.182 0.002-1.175 0.832-2.182 2.078-2.182zM108.754 29.362c-0.031-0.499-0.447-0.924-0.955-0.924-0.562 0-0.996 0.406-1.059 0.924h2.014z"></path>
<path d="M114.206 27.638c0.53 0 0.905 0.198 0.996 0.229v-1.891c0-0.104 0.094-0.198 0.198-0.198h0.603c0.104 0 0.198 0.094 0.198 0.198v5.723c0 0.104-0.094 0.198-0.198 0.198h-0.312c-0.094 0-0.156-0.073-0.187-0.177l-0.083-0.302c0 0-0.499 0.582-1.319 0.582-1.1 0-1.943-0.986-1.943-2.182 0.002-1.215 0.894-2.18 2.047-2.18zM114.229 31.108c0.634 0 0.934-0.51 0.986-0.624v-1.693c0 0-0.364-0.25-0.903-0.25-0.697 0-1.184 0.572-1.184 1.277-0.002 0.697 0.435 1.29 1.1 1.29z"></path>
<path d="M118.002 30.86c0.318 0 0.568 0.25 0.568 0.568 0 0.308-0.25 0.568-0.568 0.568-0.31 0-0.568-0.26-0.568-0.568 0-0.318 0.26-0.568 0.568-0.568z"></path>
</svg>
