<svg version="1.1" xmlns="http://www.w3.org/2000/svg" width="32" height="32" viewBox="0 0 32 32">
<title>diamond_prize_award_jewellery_ring</title>
<path d="M30.7 10.1c0 0 0 0 0 0l-4.4-7.1c-0.4-0.6-1-1-1.7-1h-8.6c0 0 0 0 0 0s0 0 0 0 0 0 0 0h-8.6c-0.7 0-1.3 0.4-1.7 1l-4.4 7.1c-0.2 0.3-0.3 0.7-0.3 1 0 0.5 0.1 0.9 0.4 1.2 0 0 0 0 0 0l13 16.8c0.4 0.5 1 0.8 1.6 0.8s1.2-0.3 1.6-0.8c0 0 0 0 0 0l13-16.8c0.3-0.4 0.4-0.8 0.4-1.2 0-0.3-0.1-0.7-0.3-1zM28.3 10h-4.8l2-4.6 2.8 4.6zM16 25l-4.6-13h9.2l-4.6 13zM12 10l4-5.3 4 5.3h-8zM10.2 9l-2.1-5h5.9l-3.8 5zM18 4h5.9l-2.1 5-3.8-5zM6.5 5.4l2 4.6h-4.8l2.8-4.6zM9.3 12l4.7 13.5-10.3-13.5h5.6zM18 25.5l4.7-13.5h5.6l-10.3 13.5z"></path>
</svg>
