<!-- Generated by IcoMoon.io -->
<svg version="1.1" xmlns="http://www.w3.org/2000/svg" width="32" height="32" viewBox="0 0 32 32">
<title>dimensions_object_coordinate_system</title>
<path d="M17.633 6.063c-0.171 0-0.341-0.065-0.471-0.195l-1.846-1.846-1.846 1.846c-0.26 0.26-0.682 0.26-0.943 0s-0.26-0.682 0-0.943l2.318-2.318c0.26-0.26 0.682-0.26 0.943 0l2.318 2.318c0.26 0.26 0.26 0.682 0 0.943-0.13 0.13-0.301 0.195-0.471 0.195z"></path>
<path d="M15.315 14.486c-0.369 0-0.667-0.298-0.667-0.667v-10.741c0-0.369 0.298-0.667 0.667-0.667s0.667 0.298 0.667 0.667v10.741c0 0.368-0.298 0.667-0.667 0.667z"></path>
<path d="M3.919 29.589c-0.057 0-0.115-0.008-0.173-0.022l-3.166-0.849c-0.355-0.096-0.566-0.461-0.471-0.818l0.848-3.165c0.096-0.354 0.463-0.559 0.816-0.471 0.355 0.096 0.566 0.461 0.471 0.818l-0.676 2.521 2.522 0.676c0.355 0.096 0.567 0.461 0.471 0.818-0.080 0.297-0.349 0.493-0.643 0.493z"></path>
<path d="M0.753 28.74c-0.229 0-0.452-0.117-0.575-0.329-0.186-0.318-0.080-0.725 0.238-0.913l9.229-5.415c0.318-0.184 0.726-0.081 0.912 0.238s0.080 0.725-0.238 0.913l-9.229 5.415c-0.106 0.061-0.222 0.091-0.337 0.091z"></path>
<path d="M26.663 29.589c-0.294 0-0.564-0.197-0.645-0.493-0.095-0.355 0.116-0.721 0.471-0.818l2.522-0.676-0.676-2.522c-0.095-0.355 0.116-0.72 0.473-0.816 0.352-0.089 0.72 0.116 0.816 0.473l0.848 3.165c0.095 0.355-0.116 0.72-0.471 0.816l-3.165 0.849c-0.059 0.014-0.116 0.022-0.173 0.022z"></path>
<path d="M29.828 28.74c-0.116 0-0.232-0.030-0.339-0.092l-9.18-5.415c-0.318-0.187-0.423-0.596-0.236-0.913 0.189-0.318 0.595-0.421 0.913-0.236l9.18 5.415c0.318 0.187 0.423 0.596 0.236 0.913-0.125 0.211-0.346 0.328-0.574 0.328z"></path>
<path d="M15.315 25.229c-0.135 0-0.27-0.042-0.384-0.121-0.177-0.125-0.283-0.329-0.283-0.546v-6.935c0-0.281 0.177-0.533 0.443-0.628l5.333-1.904c0.204-0.072 0.43-0.042 0.608 0.083 0.177 0.125 0.283 0.328 0.283 0.545v6.934c0 0.281-0.177 0.533-0.443 0.628l-5.333 1.905c-0.073 0.026-0.148 0.039-0.224 0.039zM15.982 18.098v5.518l4-1.428v-5.518l-4 1.428z"></path>
<path d="M15.315 25.229c-0.075 0-0.151-0.013-0.224-0.039l-5.333-1.905c-0.266-0.095-0.443-0.346-0.443-0.628v-6.934c0-0.217 0.105-0.42 0.283-0.545s0.406-0.155 0.608-0.083l5.333 1.904c0.266 0.095 0.443 0.346 0.443 0.628v6.935c0 0.216-0.105 0.421-0.283 0.546-0.114 0.079-0.249 0.121-0.384 0.121zM10.648 22.187l4 1.428v-5.518l-4-1.428v5.518z"></path>
<path d="M15.315 18.294c-0.075 0-0.152-0.013-0.224-0.039l-5.333-1.904c-0.266-0.095-0.443-0.346-0.443-0.628s0.178-0.533 0.444-0.628l5.368-1.904c0.143-0.052 0.301-0.053 0.448 0.001l5.299 1.904c0.266 0.096 0.441 0.347 0.441 0.628s-0.177 0.533-0.443 0.627l-5.333 1.904c-0.072 0.026-0.148 0.039-0.224 0.039zM11.97 15.726l3.345 1.193 3.357-1.197-3.324-1.195-3.378 1.199z"></path>
<path d="M27.514 13.13h-1.66c-0.369 0-0.667-0.298-0.667-0.667v-4.916c0-0.369 0.298-0.667 0.667-0.667h1.66c0.901 0 1.694 0.357 2.234 1.007 0.469 0.564 0.727 1.314 0.727 2.113 0 1.52-0.977 3.059-2.845 3.12-0.038 0.007-0.077 0.010-0.116 0.010zM26.521 11.797h0.887c0.035-0.006 0.070-0.008 0.107-0.008 0.512 0 0.918-0.177 1.208-0.527 0.267-0.322 0.419-0.781 0.419-1.262 0-0.663-0.342-1.786-1.628-1.786h-0.993v3.583z"></path>
<path d="M22.319 13.073c-0.906 0-1.831-0.471-2.195-1.167-0.171-0.326-0.044-0.729 0.281-0.9 0.325-0.173 0.731-0.046 0.901 0.281 0.138 0.265 0.74 0.528 1.217 0.434 0.358-0.065 0.431-0.28 0.456-0.481 0.039-0.322-0.064-0.43-0.098-0.465-0.216-0.227-0.762-0.269-0.983-0.25-0.255 0.018-0.514-0.12-0.638-0.353s-0.1-0.517 0.064-0.725l0.943-1.196h-1.387c-0.369 0-0.667-0.298-0.667-0.667s0.298-0.667 0.667-0.667h2.76c0.255 0 0.488 0.146 0.6 0.376 0.111 0.23 0.082 0.503-0.077 0.704l-1.081 1.372c0.268 0.099 0.536 0.25 0.758 0.48 0.263 0.273 0.556 0.764 0.461 1.551-0.104 0.865-0.68 1.476-1.539 1.633-0.146 0.027-0.295 0.040-0.444 0.040z"></path>
</svg>
