<!-- Generated by IcoMoon.io -->
<svg version="1.1" xmlns="http://www.w3.org/2000/svg" width="32" height="32" viewBox="0 0 32 32">
<title>disc_floppy_save_software</title>
<path d="M29.1 7.5l-4.6-4.6c-0.6-0.6-1.3-0.9-2.1-0.9h-16.5c-2.2 0-3.9 1.7-3.9 3.9v20.2c0 2.2 1.7 3.9 3.9 3.9h20.2c2.1 0 3.9-1.7 3.9-3.9v-16.5c0-0.8-0.3-1.5-0.9-2.1zM28 26.1c0 1-0.9 1.9-1.9 1.9h-20.2c-1 0-1.9-0.8-1.9-1.9v-20.2c0-1.1 0.8-1.9 1.9-1.9h16.5c0.3 0 0.5 0.1 0.7 0.3 0 0 0 0 0 0l4.6 4.6c0.2 0.2 0.3 0.4 0.3 0.7v16.5z"></path>
<path d="M19 5h-12c-1.1 0-2 0.9-2 2v4c0 1.1 0.9 2 2 2h12c1.1 0 2-0.9 2-2v-4c0-1.1-0.9-2-2-2zM19 11h-12v-4h12v4zM19 12v0z"></path>
<path d="M16 17c-2.8 0-5 2.2-5 5s2.2 5 5 5v0c2.8 0 5-2.2 5-5s-2.2-5-5-5zM16 25v0c-1.7 0-3-1.3-3-3s1.3-3 3-3 3 1.3 3 3c0 1.7-1.3 3-3 3z"></path>
</svg>
