<!-- Generated by IcoMoon.io -->
<svg version="1.1" xmlns="http://www.w3.org/2000/svg" width="32" height="32" viewBox="0 0 32 32">
<title>disc_floppy_save_software</title>
<path fill="none" stroke-linejoin="round" stroke-linecap="round" stroke-miterlimit="4" stroke-width="2" stroke="#000" d="M23.808 3.586c-0.362-0.362-0.862-0.586-1.414-0.586-0 0-0 0-0 0h-16.505c-0 0-0 0-0.001 0-1.595 0-2.888 1.293-2.888 2.888 0 0 0 0 0 0.001v-0 20.222c0 0 0 0 0 0.001 0 1.595 1.293 2.888 2.888 2.888 0 0 0 0 0.001 0h20.222c1.593-0.005 2.884-1.295 2.889-2.888v-16.505c0-0 0-0 0-0 0-0.552-0.224-1.052-0.586-1.414v0zM16 26c-2.209 0-4-1.791-4-4s1.791-4 4-4c2.209 0 4 1.791 4 4v0c0 0.001 0 0.003 0 0.005 0 2.206-1.789 3.995-3.995 3.995-0.002 0-0.003 0-0.005 0h0zM19 12h-12c-0.552 0-1-0.448-1-1v0-4c0-0.552 0.448-1 1-1v0h12c0.552 0 1 0.448 1 1v0 4c0 0.552-0.448 1-1 1v0z"></path>
</svg>
