<!-- Generated by IcoMoon.io -->
<svg version="1.1" xmlns="http://www.w3.org/2000/svg" width="32" height="32" viewBox="0 0 32 32">
<title>dislike_thumb_down_vote</title>
<path fill="none" stroke-linejoin="round" stroke-linecap="round" stroke-miterlimit="4" stroke-width="2" stroke="#000" d="M12 3.365s1-0.365 4-0.365 4.625 1 6 2h4c2.209 0 4 1.791 4 4v0 3c0 2.209-1.791 4-4 4v0h-1.875c-0.72 0.004-1.351 0.384-1.706 0.954l-0.005 0.009s-0.539 1.174-2.164 3.989-4.75 7.049-5.25 8.049c-1.813 0-2.688-1.375-2.125-2.982 0.643-1.837 1.482-3.399 1.716-5.443 0.034-0.299-0.196-0.75-0.5-0.75l-8.091-0.637"></path>
<path fill="none" stroke-linejoin="miter" stroke-linecap="butt" stroke-miterlimit="10" stroke-width="2" stroke="#000" d="M6 15.063l5 0.125c1.25 0.115 2 0.775 2 1.875v0c0 1.1-0.875 1.802-2 1.875l-5 0.25c-1.1 0-2-1.025-2-2.125v-0.011c0.006-1.1 0.899-1.989 2-1.989 0 0 0 0 0 0v0zM4 11l7 0.125c1.125 0.053 2 0.776 2 1.875v0c0 1.101-0.875 1.804-2 1.875l-7 0.125c-1.103-0.004-1.996-0.897-2-2v-0c0.004-1.103 0.897-1.996 2-2h0zM7 3l4 0.188c1.313 0.115 2 0.712 2 1.813v0c0 1.1-0.9 1.875-2 1.875l-4 0.125c-1.103-0.003-1.997-0.897-2-2v-0c0.003-1.103 0.897-1.997 2-2h0zM5 7l6 0.125c1.188 0.053 2 0.775 2 1.875v0c0 1.1-0.813 1.803-2 1.875l-6 0.125c-1.103-0.003-1.997-0.897-2-2v-0c0.003-1.103 0.897-1.997 2-2h0z"></path>
</svg>
