<svg version="1.1" xmlns="http://www.w3.org/2000/svg" width="32" height="32" viewBox="0 0 32 32">
<title>dislike_thumb_down_vote2</title>
<path d="M27.479 14.699h-2.464c-0.369 0-0.667-0.298-0.667-0.667s0.298-0.667 0.667-0.667h2.464c0.369 0 0.667 0.298 0.667 0.667s-0.298 0.667-0.667 0.667z"></path>
<path d="M26.13 10.664h-1.769c-0.369 0-0.667-0.298-0.667-0.667s0.298-0.667 0.667-0.667h1.769c0.369 0 0.667 0.298 0.667 0.667s-0.298 0.667-0.667 0.667z"></path>
<path d="M24.572 6.629h-0.944c-0.369 0-0.667-0.298-0.667-0.667s0.298-0.667 0.667-0.667h0.944c0.832 0 1.348-0.65 1.348-1.252 0-0.634-0.583-1.013-1.559-1.013-0.1-0.001-8.512-0.119-15.475 2.261-0.348 0.115-0.728-0.067-0.846-0.415s0.067-0.727 0.415-0.846c7.192-2.458 15.572-2.337 15.917-2.333 1.986 0 2.88 1.178 2.88 2.346 0 1.243-1.025 2.585-2.681 2.585z"></path>
<path d="M16.137 30.181c-0.286 0-0.561-0.060-0.813-0.182-0.764-0.371-1.146-1.223-1.049-2.336 0.447-5.131-5.952-10.241-6.017-10.292-0.289-0.228-0.339-0.647-0.111-0.936 0.227-0.288 0.647-0.339 0.936-0.111 0.288 0.225 7.031 5.603 6.52 11.453-0.046 0.526 0.068 0.908 0.303 1.022 0.25 0.122 0.767 0.018 1.313-0.493 1.428-1.34 2.34-4.76 0.203-9.986-0.083-0.206-0.060-0.44 0.064-0.624 0.124-0.185 0.331-0.296 0.553-0.296h9.648c0.434 0 0.775-0.137 1.014-0.406 0.212-0.24 0.335-0.583 0.335-0.943 0-0.503-0.284-1.353-1.349-1.353h-0.208c-0.369 0-0.667-0.298-0.667-0.667s0.298-0.667 0.667-0.667c0.434 0 0.775-0.137 1.014-0.406 0.212-0.24 0.335-0.583 0.335-0.943 0-0.503-0.284-1.353-1.349-1.353h-1.349c-0.369 0-0.667-0.298-0.667-0.667s0.298-0.667 0.667-0.667c0.434 0 0.773-0.137 1.013-0.406 0.214-0.24 0.336-0.583 0.336-0.943 0-0.503-0.284-1.353-1.349-1.353l-1.559 0.001c-0.369 0-0.667-0.298-0.667-0.667s0.298-0.667 0.667-0.667l1.559-0.001c1.76 0 2.682 1.352 2.682 2.686 0 0.54-0.146 1.055-0.417 1.488 1.163 0.377 1.766 1.467 1.766 2.547 0 0.692-0.238 1.341-0.672 1.829-0.026 0.030-0.055 0.061-0.085 0.091 0.637 0.518 0.965 1.32 0.965 2.115 0 0.691-0.238 1.341-0.672 1.829-0.346 0.389-0.975 0.853-2.010 0.853h-8.678c1.918 5.339 0.845 8.927-0.879 10.544-0.627 0.59-1.34 0.902-1.993 0.902z"></path>
<path d="M8.667 18.667h-8c-0.369 0-0.667-0.298-0.667-0.667v-16c0-0.369 0.298-0.667 0.667-0.667h8c0.369 0 0.667 0.298 0.667 0.667v16c0 0.369-0.298 0.667-0.667 0.667zM1.333 17.333h6.667v-14.667h-6.667v14.667z"></path>
</svg>
