<svg version="1.1" xmlns="http://www.w3.org/2000/svg" width="32" height="32" viewBox="0 0 32 32">
<title>dislike_thumb_down_vote</title>
<path d="M12.016 31.769c-0.572 0-1.126-0.207-1.569-0.6-1.232-1.096-1.857-2.193-1.857-3.26 0-1.107 0.577-2.65 1.764-4.716 0.483-0.948 0.994-2.971 1.257-4.1-1.814-0.007-4.297-0.109-6.422-1.292-1.43-0.806-2.366-1.453-2.366-3.053 0-0.965 0.771-1.88 1.292-2.387-0.318-0.553-0.479-1.092-0.479-1.603 0-2.023 0.598-2.514 2.047-3.094-0.026-0.297-0.042-0.616-0.042-1.091 0-2.021 1.439-2.642 2.73-2.792-0.019-0.141-0.033-0.255-0.033-0.281 0-1.008 0.384-3.352 3.94-3.352 0.147 0 1.696 0.007 3.223 0.019 4.829 0.042 7.435 2.871 8.686 4.231l0.122 0.132c0.055 0.059 0.13 0.092 0.212 0.092h3.267c0.275 0 0.521 0.169 0.621 0.425 1.56 4.005 1.517 7.905-0.125 11.594-0.108 0.241-0.346 0.396-0.609 0.396h-2.677c-0.646 0-1.112 0.103-1.387 0.306-0.378 0.273-1.824 2.163-2.687 3.293-0.703 0.919-1.259 1.646-1.534 1.937l-2.587 2.754c-1.195 1.271-2.029 2.842-2.414 4.546-0.191 0.848-0.801 1.513-1.631 1.779-0.246 0.080-0.496 0.119-0.742 0.119zM12.444 17.758c0.201 0 0.391 0.091 0.518 0.246 0.126 0.156 0.176 0.361 0.135 0.557-0.032 0.152-0.788 3.733-1.57 5.267-1.327 2.313-1.603 3.492-1.603 4.081 0 0.66 0.488 1.443 1.41 2.263 0.28 0.251 0.652 0.328 1.017 0.21 0.376-0.12 0.652-0.421 0.738-0.803 0.437-1.935 1.385-3.721 2.743-5.165l2.587-2.753c0.228-0.242 0.82-1.017 1.447-1.836 1.466-1.917 2.465-3.201 2.958-3.557 0.51-0.378 1.224-0.564 2.175-0.564h2.237c1.271-3.105 1.301-6.381 0.091-9.748h-2.805c-0.453 0-0.888-0.19-1.193-0.521l-0.122-0.133c-1.211-1.315-3.465-3.763-7.717-3.8-1.522-0.013-3.064-0.020-3.211-0.020-1.754 0-2.607 0.66-2.607 2.018 0.003 0.030 0.015 0.116 0.031 0.219l1.329 0.002c0.369 0.001 0.667 0.299 0.666 0.667s-0.299 0.666-0.667 0.666h-0.001l-1.876-0.003-0.473 0.038c-1.575 0.127-1.707 0.802-1.707 1.482 0 0.357 0.010 0.617 0.026 0.838l3.385-0.138c0.37-0.033 0.678 0.27 0.693 0.639s-0.271 0.678-0.639 0.693l-3.907 0.159c-1.503 0.57-1.563 0.622-1.563 1.994 0 0.298 0.126 0.658 0.364 1.043l4.204-0.208c0.352-0.033 0.681 0.266 0.699 0.633s-0.266 0.68-0.633 0.699l-4.369 0.215c-0.491 0.432-1.077 1.135-1.077 1.607 0 0.783 0.283 1.101 1.684 1.891 2.034 1.13 4.581 1.141 6.3 1.12h0.303z"></path>
</svg>
