<!-- Generated by IcoMoon.io -->
<svg version="1.1" xmlns="http://www.w3.org/2000/svg" width="32" height="32" viewBox="0 0 32 32">
<title>dislike_thumb_down_vote</title>
<path d="M26 4h-3.7c-1.4-1-3.2-2-6.3-2-2.3 0-3.6 0.2-4.1 0.3-0.3-0.1-0.6-0.1-0.9-0.2l-4-0.1c-1.7 0-3 1.4-3 3 0 0.4 0.1 0.8 0.2 1.1-1.3 0.4-2.2 1.5-2.2 2.9 0 0.5 0.1 1 0.4 1.5-0.8 0.5-1.4 1.4-1.4 2.5 0 1.4 1 2.5 2.2 2.9-0.1 0.4-0.2 0.7-0.2 1.2 0 1.6 1.3 3 2.9 3.1 0 0 0 0 0.1 0l7.6 0.6c-0.2 1.2-0.6 2.3-1 3.4-0.2 0.5-0.4 1-0.6 1.5-0.4 1.1-0.3 2.2 0.3 3s1.6 1.3 2.8 1.3c0.4 0 0.7-0.2 0.9-0.6s1-1.5 1.8-2.7c1.1-1.7 2.5-3.7 3.5-5.3 1.4-2.5 2-3.7 2.2-4s0.5-0.4 0.8-0.4h1.7c2.8 0 5-2.2 5-5v-3c0-2.8-2.2-5-5-5zM7 4l3.9 0.2c1.1 0.1 1.1 0.5 1.1 0.8 0 0.6-0.5 0.9-1 0.9l-4 0.1c-0.5 0-1-0.5-1-1s0.4-1 1-1zM5 8l6 0.1c0.4 0 1 0.2 1 0.9s-0.6 0.8-1 0.9l-6 0.1c-0.6 0-1-0.5-1-1s0.4-1 1-1zM3 13c0-0.5 0.4-1 1-1l7 0.1c0.2 0 1 0.1 1 0.9s-0.9 0.9-1 0.9l-7 0.1c-0.5 0-1-0.5-1-1zM6 16.1l4.9 0.1c1.1 0.1 1.1 0.6 1.1 0.9 0 0.8-0.9 0.9-1 0.9l-5 0.2c-0.5 0-1-0.5-1-1.1s0.4-1 1-1zM29 12c0 1.7-1.3 3-3 3h-1.9c-1 0-2 0.5-2.5 1.4 0 0 0 0.1-0.1 0.1 0 0-0.5 1.2-2.1 3.9-0.9 1.6-2.3 3.6-3.4 5.2-0.7 1-1.2 1.8-1.5 2.3-0.3-0.1-0.5-0.2-0.6-0.4-0.2-0.3-0.2-0.7-0.1-1.2 0.2-0.5 0.4-1 0.5-1.4 0.5-1.3 1-2.6 1.2-4.2 0.1-0.5-0.1-1-0.5-1.4-0.3-0.3-0.6-0.5-1-0.5 0 0 0 0 0 0l-0.8-0.1c0.4-0.5 0.6-1.1 0.6-1.7 0-0.8-0.3-1.5-0.9-2 0.5-0.5 0.9-1.2 0.9-2s-0.3-1.5-0.8-2c0.5-0.5 0.8-1.2 0.8-2s-0.3-1.5-0.8-2c0.7-0.5 1-1.2 1-2 0-0.2 0-0.6-0.1-0.9 0.5-0.1 1.2-0.1 2.1-0.1 2.7 0 4.1 0.9 5.4 1.8 0.2 0.1 0.4 0.2 0.6 0.2h4c1.7 0 3 1.3 3 3v3z"></path>
</svg>
