<svg version="1.1" xmlns="http://www.w3.org/2000/svg" width="32" height="32" viewBox="0 0 32 32">
<title>document_file_word_office_doc_text</title>
<path d="M16.732 9.373h-12.107c-0.369 0-0.667-0.298-0.667-0.667s0.298-0.667 0.667-0.667h12.107c0.369 0 0.667 0.298 0.667 0.667s-0.298 0.667-0.667 0.667z"></path>
<path d="M10.088 5.413h-5.463c-0.369 0-0.667-0.298-0.667-0.667s0.298-0.667 0.667-0.667h5.464c0.369 0 0.667 0.298 0.667 0.667s-0.298 0.667-0.667 0.667z"></path>
<path d="M29.902 26.728h-17.221c-1.14 0-2.067-0.927-2.067-2.066v-9.253c0-1.139 0.927-2.066 2.067-2.066h17.221c1.139 0 2.065 0.927 2.065 2.066v9.253c0 1.139-0.926 2.066-2.065 2.066zM12.681 14.676c-0.404 0-0.734 0.329-0.734 0.733v9.253c0 0.404 0.329 0.733 0.734 0.733h17.221c0.404 0 0.732-0.329 0.732-0.733v-9.253c0-0.404-0.328-0.733-0.732-0.733h-17.221z"></path>
<path d="M24.638 6.667h-5.519c-0.369 0-0.667-0.298-0.667-0.666l-0.005-5.295c0-0.369 0.298-0.667 0.665-0.667 0.001 0 0.001 0 0.001 0 0.369 0 0.667 0.298 0.667 0.666l0.004 4.629h4.854c0.369 0 0.667 0.298 0.667 0.667s-0.298 0.667-0.667 0.667z"></path>
<path d="M23.573 31.962h-21.785c-0.954 0-1.731-0.777-1.731-1.732v-28.462c0-0.954 0.776-1.731 1.731-1.731h17.326c0.458 0 0.891 0.177 1.215 0.499l4.46 4.396c0.238 0.236 0.517 0.511 0.517 1.067v5.203c0 0.369-0.298 0.667-0.667 0.667s-0.667-0.298-0.667-0.667v-5.203c-0.012-0.019-0.056-0.055-0.107-0.105l-4.473-4.409c-0.075-0.074-0.173-0.114-0.279-0.114h-17.325c-0.219 0-0.397 0.178-0.397 0.397v28.462c0 0.22 0.178 0.398 0.397 0.398h21.785c0.22 0 0.398-0.178 0.398-0.398v-1.479c0-0.369 0.298-0.667 0.667-0.667s0.667 0.298 0.667 0.667v1.479c0 0.954-0.777 1.732-1.732 1.732z"></path>
<path d="M16.549 22.677h-1.309c-0.369 0-0.667-0.298-0.667-0.667v-4.030c0-0.369 0.298-0.667 0.667-0.667h1.309c1.374 0 2.491 1.202 2.491 2.678 0 1.434-1.053 2.607-2.372 2.675-0.038 0.007-0.078 0.010-0.119 0.010zM15.908 21.344h0.539c0.034-0.005 0.068-0.008 0.103-0.008 0.638 0 1.158-0.603 1.158-1.344 0-0.742-0.519-1.345-1.158-1.345h-0.642v2.697z"></path>
<path d="M27.445 22.671c-1.415 0-2.566-1.202-2.566-2.678s1.151-2.678 2.566-2.678c0.672 0 1.307 0.269 1.789 0.758 0.258 0.262 0.255 0.684-0.008 0.943-0.26 0.257-0.685 0.257-0.943-0.008-0.228-0.232-0.526-0.359-0.839-0.359-0.68 0-1.233 0.603-1.233 1.345s0.553 1.345 1.233 1.345c0.325 0 0.633-0.138 0.867-0.388 0.249-0.269 0.675-0.283 0.941-0.033 0.269 0.251 0.284 0.673 0.033 0.941-0.488 0.523-1.142 0.812-1.841 0.812z"></path>
<path d="M22.008 22.677c-1.374 0-2.491-1.203-2.491-2.682 0-1.478 1.117-2.681 2.491-2.681s2.492 1.203 2.492 2.681c0 1.479-1.119 2.682-2.492 2.682zM22.008 18.647c-0.638 0-1.158 0.604-1.158 1.348s0.519 1.349 1.158 1.349c0.639 0 1.159-0.605 1.159-1.349s-0.519-1.348-1.159-1.348z"></path>
</svg>
