<svg version="1.1" xmlns="http://www.w3.org/2000/svg" width="32" height="32" viewBox="0 0 32 32">
<title>document_file_paper_text_article_blog_template</title>
<path d="M27.359 6.667h-5.333c-0.369 0-0.667-0.298-0.667-0.667v-5.333c0-0.369 0.298-0.667 0.667-0.667s0.667 0.298 0.667 0.667v4.667h4.667c0.369 0 0.667 0.298 0.667 0.667s-0.298 0.667-0.667 0.667z"></path>
<path d="M26.303 32h-20.561c-0.947 0-1.717-0.777-1.717-1.733v-28.526c0-0.96 0.77-1.741 1.717-1.741h16.284c0.557 0 0.854 0.292 1.070 0.505l4.417 4.359c0.238 0.235 0.513 0.577 0.513 1.136v24.267c0 0.956-0.772 1.733-1.723 1.733zM22.017 1.324l-16.275 0.009c-0.208 0-0.383 0.187-0.383 0.408v28.526c0 0.216 0.176 0.4 0.383 0.4h20.561c0.211 0 0.389-0.184 0.389-0.4v-24.267c0-0.046 0-0.072-0.116-0.186l-4.418-4.359c-0.036-0.037-0.115-0.114-0.142-0.13z"></path>
<path d="M23.169 26.667h-14.274c-0.369 0-0.667-0.298-0.667-0.667s0.298-0.667 0.667-0.667h14.274c0.369 0 0.667 0.298 0.667 0.667s-0.298 0.667-0.667 0.667z"></path>
<path d="M23.169 22.667h-14.274c-0.369 0-0.667-0.298-0.667-0.667s0.298-0.667 0.667-0.667h14.274c0.369 0 0.667 0.298 0.667 0.667s-0.298 0.667-0.667 0.667z"></path>
<path d="M13.581 18.667h-4.686c-0.369 0-0.667-0.298-0.667-0.667s0.298-0.667 0.667-0.667h4.686c0.369 0 0.667 0.298 0.667 0.667s-0.298 0.667-0.667 0.667z"></path>
<path d="M13.581 14.667h-4.686c-0.369 0-0.667-0.298-0.667-0.667s0.298-0.667 0.667-0.667h4.686c0.369 0 0.667 0.298 0.667 0.667s-0.298 0.667-0.667 0.667z"></path>
<path d="M13.581 10.667h-4.686c-0.369 0-0.667-0.298-0.667-0.667s0.298-0.667 0.667-0.667h4.686c0.369 0 0.667 0.298 0.667 0.667s-0.298 0.667-0.667 0.667z"></path>
<path d="M23.257 18.667h-6.658c-0.369 0-0.667-0.298-0.667-0.667v-8c0-0.369 0.298-0.667 0.667-0.667h6.658c0.369 0 0.667 0.298 0.667 0.667v8c0 0.369-0.298 0.667-0.667 0.667zM17.266 17.333h5.324v-6.667h-5.324v6.667z"></path>
<path d="M23.257 18.667c-0.191 0-0.38-0.082-0.513-0.24l-6.658-8.001c-0.235-0.283-0.197-0.703 0.086-0.939 0.284-0.234 0.703-0.197 0.94 0.086l6.658 7.999c0.234 0.284 0.197 0.704-0.086 0.94-0.125 0.103-0.276 0.154-0.427 0.154z"></path>
<path d="M16.599 18.667c-0.151 0-0.302-0.051-0.427-0.154-0.283-0.236-0.321-0.656-0.086-0.94l6.658-7.999c0.238-0.283 0.656-0.32 0.94-0.086 0.283 0.236 0.32 0.656 0.086 0.939l-6.658 8.001c-0.133 0.158-0.322 0.24-0.513 0.24z"></path>
</svg>
