<!-- Generated by IcoMoon.io -->
<svg version="1.1" xmlns="http://www.w3.org/2000/svg" width="32" height="32" viewBox="0 0 32 32">
<title>documents_files_paper_text_archive_copy</title>
<path d="M28.3 8.7l-6.8-6.9c-0.5-0.5-1.2-0.8-1.9-0.8h-5.9c-2 0-3.7 1.7-3.7 3.8v2.2h-3.3c-2 0-3.7 1.7-3.7 3.8v16.5c0 2 1.7 3.7 3.7 3.7h11.6c2 0 3.7-1.7 3.7-3.8v-2.2h3.3c2 0 3.7-1.7 3.7-3.8v-10.7c0-0.7-0.3-1.3-0.7-1.8zM26.2 9.5h-5c-0.4 0-0.8-0.3-0.8-0.8v-5l5.8 5.8zM13.5 9.7l5.7 5.8h-5c-0.4 0-0.8-0.3-0.8-0.8v-5zM18.3 29h-11.6c-0.9 0-1.7-0.8-1.7-1.8v-16.4c0-1 0.8-1.8 1.7-1.8h4.8v5.8c0 1.5 1.2 2.7 2.7 2.7h5.8v9.8c0 0.9-0.8 1.7-1.7 1.7zM25.3 23h-3.3v-6.5c0 0 0 0 0 0s0 0 0 0 0 0 0 0c0-0.7-0.3-1.3-0.7-1.8l-6.8-6.9c-0.5-0.5-1.2-0.8-1.9-0.8h-0.6v-2.2c0-1 0.8-1.8 1.7-1.8h4.8v5.8c0 1.5 1.2 2.7 2.7 2.7h5.8v9.8c0 0.9-0.8 1.7-1.7 1.7z"></path>
</svg>
