<!-- Generated by IcoMoon.io -->
<svg version="1.1" xmlns="http://www.w3.org/2000/svg" width="32" height="32" viewBox="0 0 32 32">
<title>document_file_word_office_doc_text</title>
<path d="M5.961 4.586c0.375-0.375 0.884-0.586 1.414-0.586h6v7c0 0.796 0.316 1.559 0.879 2.121s1.326 0.879 2.121 0.879h7v2h2v-2.172c0-0.795-0.316-1.558-0.878-2.121l-8.829-8.829c-0.562-0.562-1.325-0.878-2.121-0.878h-6.172c-1.061 0-2.078 0.421-2.828 1.172s-1.172 1.768-1.172 2.828v20c0 1.061 0.421 2.078 1.172 2.828s1.768 1.172 2.828 1.172h14c1.061 0 2.078-0.421 2.828-1.172s1.172-1.768 1.172-2.828v-0.25h-2v0.25c0 0.53-0.211 1.039-0.586 1.414s-0.884 0.586-1.414 0.586h-14c-0.53 0-1.039-0.211-1.414-0.586s-0.586-0.884-0.586-1.414v-20c0-0.53 0.211-1.039 0.586-1.414zM14.375 11c1 0 1 0 1 0zM15.668 11.707c-0.188-0.188-0.293-0.442-0.293-0.707v-5.586l6.586 6.586h-5.586c-0.265 0-0.52-0.105-0.707-0.293zM14.375 11h-1z"></path>
<path d="M10.625 16c-1.381 0-2.5 1.119-2.5 2.5v4.75c0 1.381 1.119 2.5 2.5 2.5h15.5c1.381 0 2.5-1.119 2.5-2.5v-4.75c0-1.381-1.119-2.5-2.5-2.5h-15.5zM18.649 23.75c-0.556 0-1.044-0.117-1.465-0.352-0.421-0.24-0.748-0.574-0.982-1.001-0.229-0.428-0.343-0.926-0.343-1.494 0-0.428 0.065-0.816 0.195-1.166 0.135-0.349 0.325-0.649 0.569-0.9 0.249-0.25 0.545-0.441 0.888-0.571 0.343-0.136 0.722-0.203 1.138-0.203 0.556 0 1.041 0.117 1.457 0.352 0.421 0.235 0.748 0.566 0.982 0.994 0.234 0.422 0.351 0.921 0.351 1.494 0 0.428-0.067 0.816-0.203 1.166-0.13 0.349-0.32 0.652-0.569 0.907-0.244 0.25-0.538 0.443-0.88 0.579-0.343 0.13-0.722 0.196-1.138 0.196zM18.649 22.545c-0.41 0-0.73-0.143-0.958-0.43-0.229-0.292-0.343-0.696-0.343-1.213 0-0.349 0.052-0.644 0.156-0.884 0.104-0.245 0.252-0.43 0.444-0.555 0.197-0.13 0.431-0.196 0.701-0.196 0.41 0 0.73 0.143 0.958 0.43s0.343 0.688 0.343 1.205c0 0.344-0.052 0.639-0.156 0.884s-0.252 0.433-0.444 0.563-0.426 0.196-0.701 0.196zM10.623 23.664c-0.244 0-0.431-0.063-0.561-0.188-0.125-0.13-0.187-0.316-0.187-0.555v-4.029c0-0.24 0.062-0.422 0.187-0.548 0.13-0.13 0.317-0.196 0.561-0.196h1.527c0.956 0 1.693 0.24 2.213 0.72 0.525 0.48 0.787 1.158 0.787 2.034 0 0.438-0.068 0.829-0.203 1.174-0.135 0.339-0.33 0.628-0.584 0.868-0.255 0.235-0.569 0.415-0.943 0.54-0.369 0.12-0.792 0.18-1.27 0.18h-1.527zM11.309 22.498v-3.184h0.748c0.54 0 0.943 0.13 1.208 0.391 0.265 0.256 0.397 0.655 0.397 1.197 0 0.271-0.034 0.506-0.101 0.704-0.062 0.198-0.161 0.363-0.296 0.493-0.13 0.13-0.296 0.229-0.499 0.297-0.197 0.068-0.434 0.102-0.709 0.102h-0.748zM23.493 23.398c-0.436-0.235-0.771-0.566-1.005-0.994-0.229-0.428-0.343-0.928-0.343-1.502 0-0.428 0.065-0.816 0.195-1.166 0.135-0.349 0.327-0.649 0.577-0.9 0.255-0.25 0.561-0.441 0.919-0.571 0.364-0.136 0.771-0.203 1.223-0.203 0.239 0 0.486 0.029 0.74 0.086 0.26 0.052 0.488 0.133 0.686 0.242 0.145 0.078 0.247 0.177 0.304 0.297s0.075 0.242 0.055 0.368c-0.016 0.125-0.060 0.237-0.132 0.336s-0.166 0.167-0.28 0.203c-0.114 0.031-0.239 0.013-0.374-0.055-0.156-0.073-0.312-0.128-0.468-0.164-0.151-0.042-0.309-0.063-0.475-0.063-0.322 0-0.592 0.063-0.81 0.188-0.213 0.12-0.374 0.297-0.483 0.532s-0.164 0.524-0.164 0.868c0 0.344 0.055 0.636 0.164 0.876 0.109 0.235 0.27 0.415 0.483 0.54 0.218 0.12 0.488 0.18 0.81 0.18 0.135 0 0.28-0.016 0.436-0.047 0.156-0.037 0.309-0.091 0.46-0.164 0.156-0.068 0.294-0.086 0.413-0.055 0.125 0.031 0.223 0.094 0.296 0.188 0.078 0.094 0.127 0.203 0.148 0.329 0.021 0.12 0.003 0.24-0.055 0.36-0.052 0.12-0.145 0.216-0.28 0.289-0.182 0.11-0.408 0.196-0.678 0.258-0.265 0.063-0.53 0.094-0.795 0.094-0.608 0-1.13-0.117-1.566-0.352z"></path>
</svg>
