<!-- Generated by IcoMoon.io -->
<svg version="1.1" xmlns="http://www.w3.org/2000/svg" width="32" height="32" viewBox="0 0 32 32">
<title>document_file_zip_archive_compressed_rar</title>
<path d="M5.961 4.586c0.375-0.375 0.884-0.586 1.414-0.586h6v7c0 0.796 0.316 1.559 0.879 2.121s1.326 0.879 2.121 0.879h7v2h2v-2.172c-0-0.795-0.316-1.558-0.878-2.121l-8.829-8.829c-0.562-0.562-1.325-0.878-2.121-0.878h-6.172c-1.061 0-2.078 0.421-2.828 1.172s-1.172 1.768-1.172 2.828v20c0 1.061 0.421 2.078 1.172 2.828s1.768 1.172 2.828 1.172h14c1.061 0 2.078-0.421 2.828-1.172s1.172-1.768 1.172-2.828v-0.25h-2v0.25c0 0.53-0.211 1.039-0.586 1.414s-0.884 0.586-1.414 0.586h-14c-0.53 0-1.039-0.211-1.414-0.586s-0.586-0.884-0.586-1.414v-20c0-0.53 0.211-1.039 0.586-1.414zM14.375 11c1 0 1-0 1-0zM15.668 11.707c-0.188-0.188-0.293-0.442-0.293-0.707v-5.586l6.586 6.586h-5.586c-0.265 0-0.52-0.105-0.707-0.293zM14.375 11l-1-0z"></path>
<path d="M10.625 16c-1.381 0-2.5 1.119-2.5 2.5v4.75c0 1.381 1.119 2.5 2.5 2.5h15.5c1.381 0 2.5-1.119 2.5-2.5v-4.75c0-1.381-1.119-2.5-2.5-2.5h-15.5zM18.084 24.188c-0.264 0-0.468-0.073-0.612-0.22-0.144-0.153-0.216-0.366-0.216-0.641v-4.902c0-0.281 0.072-0.495 0.216-0.641s0.348-0.22 0.612-0.22c0.27 0 0.474 0.073 0.612 0.22 0.144 0.147 0.216 0.36 0.216 0.641v4.902c0 0.275-0.069 0.489-0.207 0.641-0.138 0.147-0.345 0.22-0.621 0.22zM12.213 24.105c-0.21 0-0.384-0.046-0.522-0.137-0.132-0.092-0.222-0.214-0.27-0.366-0.048-0.159-0.048-0.33 0-0.513 0.048-0.189 0.147-0.379 0.297-0.568l2.734-3.491h-2.365c-0.234 0-0.411-0.058-0.531-0.174-0.12-0.122-0.18-0.296-0.18-0.522s0.060-0.397 0.18-0.513 0.297-0.174 0.531-0.174h3.512c0.21 0 0.381 0.046 0.513 0.137 0.138 0.092 0.231 0.214 0.279 0.366s0.048 0.324 0 0.513c-0.048 0.189-0.147 0.379-0.297 0.568l-2.734 3.491h2.509c0.228 0 0.402 0.058 0.522 0.174 0.126 0.116 0.189 0.287 0.189 0.513s-0.063 0.4-0.189 0.522c-0.12 0.116-0.294 0.174-0.522 0.174h-3.656zM20.278 23.968c-0.144-0.153-0.216-0.363-0.216-0.632v-4.838c0-0.275 0.072-0.486 0.216-0.632 0.15-0.147 0.357-0.22 0.621-0.22h2.215c0.721 0 1.276 0.189 1.666 0.568 0.396 0.373 0.594 0.889 0.594 1.549s-0.198 1.179-0.594 1.558c-0.39 0.373-0.946 0.559-1.666 0.559h-1.396v1.457c0 0.269-0.069 0.48-0.207 0.632-0.138 0.147-0.345 0.22-0.621 0.22-0.264 0-0.468-0.073-0.612-0.22zM22.826 20.586c0.312 0 0.552-0.067 0.721-0.202 0.168-0.14 0.252-0.348 0.252-0.623 0-0.281-0.084-0.489-0.252-0.623s-0.408-0.202-0.721-0.202h-1.108v1.649h1.108z"></path>
</svg>
