<!-- Generated by IcoMoon.io -->
<svg version="1.1" xmlns="http://www.w3.org/2000/svg" width="32" height="32" viewBox="0 0 32 32">
<title>document_file_cloud_sync_backup</title>
<path d="M4.648 4.586c0.375-0.375 0.884-0.586 1.414-0.586h6v7c0 0.796 0.316 1.559 0.879 2.121s1.326 0.879 2.121 0.879h7v2.125h2v-2.297c-0-0.795-0.316-1.558-0.878-2.121l-8.829-8.829c-0.562-0.562-1.325-0.878-2.121-0.878h-6.172c-1.061 0-2.078 0.421-2.828 1.172s-1.172 1.768-1.172 2.828v20c0 1.061 0.421 2.078 1.172 2.828s1.768 1.172 2.828 1.172h5.438v-2h-5.438c-0.53 0-1.039-0.211-1.414-0.586s-0.586-0.884-0.586-1.414v-20c0-0.53 0.211-1.039 0.586-1.414zM13.063 11c1 0 1-0 1-0zM14.355 11.707c-0.188-0.188-0.293-0.442-0.293-0.707v-5.586l6.586 6.586h-5.586c-0.265 0-0.52-0.105-0.707-0.293zM13.063 11l-1-0z"></path>
<path d="M16.369 20.869c0.738-1.65 2.398-3.182 4.85-3.182 2.68 0 4.906 1.853 5.513 4.735 0.614 0.138 1.241 0.398 1.782 0.812 0.827 0.633 1.424 1.611 1.424 2.918 0 1.253-0.48 2.266-1.328 2.942-0.815 0.649-1.867 0.906-2.903 0.906h-8.334c-2.587 0-4.872-1.843-4.872-4.617 0-1.382 0.536-2.508 1.408-3.304 0.69-0.629 1.555-1.023 2.46-1.21zM21.219 19.74c-1.664 0-2.756 1.151-3.122 2.351-0.121 0.396-0.467 0.681-0.879 0.722-0.79 0.079-1.465 0.361-1.927 0.782-0.442 0.403-0.739 0.977-0.739 1.788 0 1.459 1.176 2.565 2.821 2.565h8.334c0.727 0 1.278-0.183 1.625-0.459 0.314-0.25 0.555-0.647 0.555-1.336 0-0.61-0.252-1.007-0.619-1.288-0.4-0.306-0.958-0.481-1.486-0.509-0.506-0.026-0.917-0.419-0.967-0.923-0.238-2.403-1.838-3.693-3.595-3.693z"></path>
</svg>
