<!-- Generated by IcoMoon.io -->
<svg version="1.1" xmlns="http://www.w3.org/2000/svg" width="32" height="32" viewBox="0 0 32 32">
<title>document_file_delete_remove_error</title>
<path d="M9 4c-0.53 0-1.039 0.211-1.414 0.586s-0.586 0.884-0.586 1.414v20c0 0.53 0.211 1.039 0.586 1.414s0.884 0.586 1.414 0.586h14c0.53 0 1.039-0.211 1.414-0.586s0.586-0.884 0.586-1.414v-12h-7c-0.796 0-1.559-0.316-2.121-0.879s-0.879-1.326-0.879-2.121c0 0 0 0 1 0s1 0 1 0c0 0.265 0.105 0.52 0.293 0.707s0.442 0.293 0.707 0.293h5.586l-6.586-6.586v5.586h-2v-7h-6zM6.172 3.172c0.75-0.75 1.768-1.172 2.828-1.172h6.172c0.795 0 1.558 0.316 2.121 0.878v0l8.829 8.829c0.562 0.562 0.878 1.325 0.878 2.121v12.172c0 1.061-0.421 2.078-1.172 2.828s-1.768 1.172-2.828 1.172h-14c-1.061 0-2.078-0.421-2.828-1.172s-1.172-1.768-1.172-2.828v-20c0-1.061 0.421-2.078 1.172-2.828zM19.832 17.168c0.39 0.391 0.39 1.024 0 1.414l-2.418 2.418 2.418 2.418c0.39 0.391 0.39 1.024 0 1.414s-1.024 0.39-1.414 0l-2.418-2.418-2.418 2.418c-0.391 0.39-1.024 0.39-1.414 0s-0.39-1.024 0-1.414l2.418-2.418-2.418-2.418c-0.39-0.391-0.39-1.024 0-1.414s1.024-0.39 1.414 0l2.418 2.418 2.418-2.418c0.391-0.39 1.024-0.39 1.414 0z"></path>
</svg>
