<svg version="1.1" xmlns="http://www.w3.org/2000/svg" width="32" height="32" viewBox="0 0 32 32">
<title>documents_files_paper_text_archive_copy</title>
<path d="M27.346 5.989h-4.716c-0.369 0-0.667-0.298-0.667-0.667v-4.656c0-0.369 0.298-0.667 0.667-0.667s0.667 0.298 0.667 0.667v3.989h4.049c0.369 0 0.667 0.298 0.667 0.667s-0.298 0.667-0.667 0.667z"></path>
<path d="M26.413 28.1h-18.18c-0.879 0-1.594-0.716-1.594-1.598v-24.899c0-0.885 0.715-1.604 1.594-1.604h14.397c0.525 0 0.81 0.279 0.999 0.464l3.904 3.803c0.306 0.297 0.481 0.711 0.481 1.136v21.1c0 0.881-0.717 1.598-1.6 1.598zM22.585 1.314l-14.352 0.019c-0.141 0-0.261 0.124-0.261 0.271v24.899c0 0.146 0.117 0.264 0.261 0.264h18.18c0.145 0 0.267-0.121 0.267-0.264v-21.1c0-0.066-0.029-0.134-0.077-0.182l-3.905-3.804c-0.043-0.041-0.076-0.078-0.113-0.103z"></path>
<path d="M22.667 22.667h-10.667c-0.369 0-0.667-0.298-0.667-0.667s0.298-0.667 0.667-0.667h10.667c0.369 0 0.667 0.298 0.667 0.667s-0.298 0.667-0.667 0.667z"></path>
<path d="M22.667 18.667h-10.667c-0.369 0-0.667-0.298-0.667-0.667s0.298-0.667 0.667-0.667h10.667c0.369 0 0.667 0.298 0.667 0.667s-0.298 0.667-0.667 0.667z"></path>
<path d="M22.667 14.667h-10.667c-0.369 0-0.667-0.298-0.667-0.667s0.298-0.667 0.667-0.667h10.667c0.369 0 0.667 0.298 0.667 0.667s-0.298 0.667-0.667 0.667z"></path>
<path d="M18.667 10.667h-6.667c-0.369 0-0.667-0.298-0.667-0.667s0.298-0.667 0.667-0.667h6.667c0.369 0 0.667 0.298 0.667 0.667s-0.298 0.667-0.667 0.667z"></path>
<path d="M23.753 32.034h-19.46c-0.901 0-1.634-0.733-1.634-1.635v-24.791c0-0.9 0.733-1.633 1.634-1.633 0.369 0 0.667 0.298 0.667 0.667s-0.298 0.667-0.667 0.667c-0.166 0-0.301 0.135-0.301 0.3v24.791c0 0.167 0.135 0.302 0.301 0.302h19.46c0.165 0 0.301-0.135 0.301-0.302 0-0.369 0.298-0.667 0.667-0.667s0.667 0.298 0.667 0.667c0 0.902-0.733 1.635-1.634 1.635z"></path>
</svg>
