<svg version="1.1" xmlns="http://www.w3.org/2000/svg" width="32" height="32" viewBox="0 0 32 32">
<title>document_file_cloud_sync_backup</title>
<path d="M26.318 26.717h-14.321c-2.928 0-5.309-2.41-5.309-5.374 0-1.619 0.936-3.296 2.406-4.348 0.689-3.548 3.587-6.094 6.992-6.094 1.566 0 3.053 0.542 4.32 1.569 2.664-0.231 4.904 1.169 5.823 3.499 0.022 0 0.043 0 0.065 0 3.017 0 5.566 2.461 5.566 5.374s-2.538 5.374-5.542 5.374zM16.085 12.236c-2.836 0-5.244 2.211-5.726 5.258-0.029 0.187-0.138 0.354-0.298 0.457-1.239 0.796-2.040 2.128-2.040 3.393 0 2.228 1.784 4.040 3.976 4.040h14.321c2.281 0 4.208-1.85 4.208-4.040 0-2.336-2.186-4.264-4.695-4.017-0.329 0.038-0.617-0.167-0.708-0.474-0.624-2.114-2.493-3.331-4.844-3.027-0.187 0.022-0.381-0.033-0.526-0.16-1.067-0.936-2.335-1.43-3.668-1.43z"></path>
<path d="M24.643 6.667h-5.518c-0.369 0-0.667-0.298-0.667-0.666l-0.005-5.295c0-0.369 0.298-0.667 0.665-0.667 0.001 0 0.001 0 0.001 0 0.369 0 0.667 0.298 0.667 0.666l0.004 4.629h4.853c0.369 0 0.667 0.298 0.667 0.667s-0.298 0.667-0.667 0.667z"></path>
<path d="M23.579 31.962h-21.785c-0.954 0-1.731-0.777-1.731-1.732v-28.462c0-0.954 0.776-1.731 1.731-1.731h17.325c0.458 0 0.891 0.177 1.215 0.499l4.46 4.396c0.238 0.236 0.517 0.511 0.517 1.067v5.203c0 0.369-0.298 0.667-0.667 0.667s-0.667-0.298-0.667-0.667v-5.203c-0.012-0.019-0.056-0.055-0.107-0.105l-4.473-4.409c-0.075-0.074-0.173-0.114-0.279-0.114h-17.325c-0.219 0-0.397 0.178-0.397 0.397v28.462c0 0.22 0.178 0.398 0.397 0.398h21.785c0.22 0 0.398-0.178 0.398-0.398v-1.479c0-0.369 0.298-0.667 0.667-0.667s0.667 0.298 0.667 0.667v1.479c0 0.954-0.777 1.732-1.732 1.732z"></path>
</svg>
