<svg version="1.1" xmlns="http://www.w3.org/2000/svg" width="32" height="32" viewBox="0 0 32 32">
<title>document_file_pdf_adobe_acrobat</title>
<path d="M24.988 22.566c-0.369 0-0.667-0.298-0.667-0.667v-3.811c0-0.369 0.298-0.667 0.667-0.667h2.466c0.369 0 0.667 0.298 0.667 0.667s-0.298 0.667-0.667 0.667h-1.799v3.145c0 0.369-0.298 0.667-0.667 0.667z"></path>
<path d="M27.107 20.66h-2.119c-0.369 0-0.667-0.298-0.667-0.667s0.298-0.667 0.667-0.667h2.119c0.369 0 0.667 0.298 0.667 0.667s-0.298 0.667-0.667 0.667z"></path>
<path d="M29.896 26.728h-17.221c-1.14 0-2.067-0.927-2.067-2.066v-9.253c0-1.139 0.927-2.066 2.067-2.066h17.221c1.139 0 2.066 0.927 2.066 2.066v9.253c0 1.139-0.927 2.066-2.066 2.066zM12.675 14.676c-0.404 0-0.734 0.329-0.734 0.733v9.253c0 0.404 0.329 0.733 0.734 0.733h17.221c0.404 0 0.733-0.329 0.733-0.733v-9.253c0-0.404-0.329-0.733-0.733-0.733h-17.221z"></path>
<path d="M24.631 6.667h-5.519c-0.369 0-0.667-0.298-0.667-0.666l-0.005-5.295c0-0.369 0.298-0.667 0.665-0.667 0.001 0 0.001 0 0.001 0 0.369 0 0.667 0.298 0.667 0.666l0.004 4.629h4.854c0.369 0 0.667 0.298 0.667 0.667s-0.298 0.667-0.667 0.667z"></path>
<path d="M23.566 31.962h-21.785c-0.954 0-1.731-0.777-1.731-1.732v-28.462c0-0.954 0.776-1.731 1.731-1.731h17.325c0.458 0 0.891 0.177 1.215 0.499l4.46 4.396c0.238 0.236 0.517 0.511 0.517 1.067v5.203c0 0.369-0.298 0.667-0.667 0.667s-0.667-0.298-0.667-0.667v-5.203c-0.012-0.019-0.056-0.055-0.107-0.105l-4.473-4.409c-0.075-0.074-0.173-0.114-0.279-0.114h-17.325c-0.219 0-0.397 0.178-0.397 0.397v28.462c0 0.22 0.178 0.398 0.397 0.398h21.785c0.22 0 0.398-0.178 0.398-0.398v-1.479c0-0.369 0.298-0.667 0.667-0.667s0.667 0.298 0.667 0.667v1.479c0 0.954-0.777 1.732-1.732 1.732z"></path>
<path d="M15.337 22.566c-0.369 0-0.667-0.298-0.667-0.667v-3.811c0-0.369 0.298-0.667 0.667-0.667h1.43c0.075 0 0.883-0.016 1.428 0.512 0.302 0.292 0.462 0.686 0.462 1.141 0 1.267-1.128 1.737-1.885 1.743l-0.769 0.001v1.081c0 0.369-0.298 0.667-0.666 0.667zM16.003 18.755v0.731l0.763-0.001c0.202-0.007 0.559-0.068 0.559-0.41 0-0.129-0.038-0.165-0.055-0.181-0.108-0.105-0.408-0.128-0.478-0.138h-0.789z"></path>
<path d="M21.1 22.566h-1.286c-0.369 0-0.667-0.298-0.667-0.667v-3.811c0-0.369 0.298-0.667 0.667-0.667h1.286c1.357 0 2.46 1.152 2.46 2.569 0 1.379-1.046 2.507-2.352 2.566-0.035 0.007-0.072 0.009-0.108 0.009zM20.481 21.233h0.526c0.031-0.004 0.063-0.007 0.094-0.007 0.621 0 1.126-0.555 1.126-1.236s-0.505-1.236-1.126-1.236h-0.62v2.478z"></path>
</svg>
