<svg version="1.1" xmlns="http://www.w3.org/2000/svg" width="36" height="32" viewBox="0 0 36 32">
<title>document_file_model</title>
<path d="M24.639 6.644h-5.531c-0 0-0 0-0.001 0-0.369 0-0.668-0.299-0.668-0.668v0l-0.005-5.308c0-0 0-0 0-0 0-0.368 0.298-0.667 0.666-0.668h0c0 0 0 0 0.001 0 0.369 0 0.668 0.299 0.668 0.668v0l0.004 4.64h4.867c0.369 0 0.668 0.299 0.668 0.668s-0.299 0.668-0.668 0.668v0z"></path>
<path d="M23.572 32h-21.837c-0.958-0.002-1.734-0.778-1.735-1.736v-28.529c0.001-0.958 0.777-1.734 1.735-1.735h17.367c0.001 0 0.003 0 0.004 0 0.474 0 0.903 0.191 1.214 0.501l-0-0 4.47 4.406c0.239 0.236 0.518 0.512 0.518 1.069v5.216c-0.008 0.363-0.304 0.654-0.668 0.654s-0.66-0.291-0.668-0.653v-5.218c-0.034-0.037-0.069-0.072-0.106-0.104l-0.002-0.001-4.483-4.42c-0.071-0.071-0.17-0.114-0.278-0.114-0 0-0.001 0-0.001 0h-17.366c-0.22 0.001-0.398 0.178-0.398 0.398v28.529c0 0 0 0 0 0 0 0.22 0.178 0.399 0.398 0.399h21.837c0.221 0 0.399-0.179 0.399-0.399v0-1.483c0.008-0.363 0.304-0.654 0.668-0.654s0.66 0.291 0.668 0.653v1.483c-0.002 0.958-0.778 1.734-1.736 1.736h-0z"></path>
<path d="M33.712 26.757h-21.474c-1.144-0.001-2.070-0.928-2.072-2.071v-9.274c0.001-1.144 0.928-2.070 2.072-2.071h21.474c1.143 0.001 2.070 0.928 2.071 2.071v9.274c-0.001 1.143-0.928 2.070-2.071 2.071h-0zM12.239 14.676c-0.406 0.001-0.735 0.33-0.735 0.736v9.274c0.001 0.405 0.33 0.734 0.735 0.735h21.474c0.405-0.001 0.734-0.329 0.735-0.734v-9.274c-0.001-0.406-0.329-0.734-0.734-0.735h-0z"></path>
<path d="M14.081 21.527l-0.679-2.698v2.923q0 0.243-0.108 0.364c-0.072 0.075-0.174 0.121-0.286 0.121s-0.212-0.046-0.284-0.12l-0-0q-0.11-0.12-0.11-0.366v-3.352q0-0.277 0.144-0.374t0.39-0.097h0.266q0.24 0 0.348 0.043c0.073 0.029 0.129 0.085 0.16 0.155l0.001 0.002c0.043 0.101 0.084 0.224 0.115 0.35l0.004 0.017 0.615 2.318 0.615-2.318c0.034-0.143 0.075-0.265 0.124-0.383l-0.006 0.016c0.031-0.072 0.088-0.127 0.158-0.156l0.002-0.001q0.108-0.043 0.348-0.043h0.265q0.245 0 0.39 0.097t0.144 0.374v3.352q0 0.243-0.108 0.364c-0.068 0.075-0.166 0.122-0.274 0.122-0.006 0-0.011-0-0.017-0l0.001 0c-0.003 0-0.007 0-0.010 0-0.107 0-0.203-0.047-0.269-0.121l-0-0q-0.11-0.121-0.11-0.364v-2.923l-0.679 2.698q-0.066 0.262-0.108 0.386c-0.033 0.089-0.086 0.165-0.154 0.223l-0.001 0.001q-0.113 0.101-0.313 0.101c-0.006 0-0.012 0-0.019 0-0.169 0-0.317-0.092-0.396-0.229l-0.001-0.002c-0.037-0.064-0.068-0.139-0.089-0.217l-0.002-0.007q-0.031-0.123-0.066-0.256z"></path>
<path d="M19.442 17.858q0.658 0 1.131 0.267c0.311 0.176 0.557 0.436 0.71 0.75l0.005 0.010q0.242 0.492 0.243 1.157c0 0.010 0 0.022 0 0.035 0 0.306-0.049 0.602-0.139 0.878l0.006-0.020c-0.088 0.27-0.224 0.502-0.4 0.698l0.002-0.002c-0.177 0.194-0.395 0.348-0.641 0.446l-0.012 0.004q-0.387 0.157-0.887 0.157c-0.012 0-0.025 0-0.039 0-0.306 0-0.599-0.059-0.867-0.166l0.016 0.006c-0.259-0.104-0.478-0.258-0.654-0.451l-0.001-0.001c-0.174-0.196-0.31-0.43-0.393-0.687l-0.004-0.014c-0.085-0.258-0.134-0.554-0.134-0.863 0-0.009 0-0.017 0-0.026v0.001c-0-0.009-0-0.020-0-0.031 0-0.309 0.051-0.607 0.146-0.884l-0.006 0.019c0.091-0.269 0.23-0.5 0.408-0.695l-0.001 0.001c0.176-0.188 0.391-0.337 0.633-0.433l0.012-0.004c0.247-0.097 0.532-0.153 0.831-0.153 0.013 0 0.025 0 0.038 0l-0.002-0zM20.662 20.037q0-0.465-0.15-0.806c-0.090-0.215-0.238-0.391-0.425-0.513l-0.004-0.003c-0.176-0.11-0.389-0.175-0.618-0.175-0.008 0-0.015 0-0.023 0l0.001-0c-0.003-0-0.006-0-0.009-0-0.168 0-0.328 0.036-0.473 0.101l0.007-0.003c-0.149 0.067-0.275 0.162-0.375 0.28l-0.001 0.002c-0.109 0.132-0.194 0.289-0.246 0.46l-0.002 0.009c-0.058 0.185-0.091 0.397-0.091 0.617 0 0.010 0 0.020 0 0.030l-0-0.002c-0 0.008-0 0.018-0 0.028 0 0.223 0.033 0.438 0.095 0.641l-0.004-0.015c0.055 0.186 0.143 0.348 0.259 0.486l-0.002-0.002c0.103 0.122 0.231 0.219 0.375 0.286l0.007 0.003c0.138 0.060 0.3 0.095 0.469 0.095 0.224 0 0.434-0.061 0.614-0.168l-0.006 0.003q0.276-0.164 0.439-0.508t0.163-0.846z"></path>
<path d="M22.796 17.931h1.118c0.016-0 0.034-0 0.053-0 0.247 0 0.487 0.030 0.716 0.086l-0.021-0.004c0.22 0.059 0.41 0.164 0.567 0.304l-0.001-0.001q0.662 0.566 0.662 1.723c0 0.009 0 0.020 0 0.030 0 0.236-0.024 0.466-0.070 0.688l0.004-0.022c-0.044 0.214-0.115 0.403-0.211 0.578l0.005-0.011c-0.097 0.174-0.215 0.324-0.354 0.451l-0.001 0.001c-0.107 0.097-0.23 0.179-0.363 0.242l-0.009 0.004c-0.126 0.059-0.272 0.104-0.425 0.129l-0.010 0.001c-0.15 0.024-0.322 0.038-0.498 0.038-0.009 0-0.019-0-0.028-0h-1.117q-0.234 0-0.352-0.071c-0.075-0.043-0.13-0.113-0.154-0.197l-0.001-0.002c-0.023-0.089-0.036-0.192-0.036-0.298 0-0.013 0-0.025 0.001-0.038l-0 0.002v-3.105q0-0.277 0.125-0.402t0.399-0.124zM23.128 18.609v2.874h0.65c0.143 0 0.254-0.004 0.335-0.012 0.093-0.010 0.178-0.030 0.258-0.060l-0.007 0.002c0.087-0.030 0.162-0.074 0.226-0.131l-0.001 0.001q0.431-0.364 0.43-1.253 0-0.627-0.188-0.94t-0.467-0.397c-0.187-0.054-0.401-0.086-0.623-0.086-0.017 0-0.033 0-0.050 0.001l0.002-0z"></path>
<path d="M29.434 18.592h-1.931v1.040h1.78q0.196 0 0.293 0.088c0.060 0.055 0.097 0.134 0.097 0.221 0 0.004-0 0.008-0 0.012l0-0.001c0 0.004 0 0.008 0 0.013 0 0.087-0.036 0.166-0.094 0.223l-0 0q-0.094 0.091-0.294 0.091h-1.781v1.205h1.999q0.203 0 0.305 0.094c0.063 0.059 0.103 0.143 0.103 0.236 0 0.005-0 0.010-0 0.015l0-0.001c0 0.004 0 0.008 0 0.012 0 0.092-0.040 0.175-0.103 0.232l-0 0q-0.102 0.094-0.305 0.094h-2.332q-0.28 0-0.403-0.125t-0.123-0.401v-3.183c-0-0.008-0-0.017-0-0.026 0-0.1 0.020-0.195 0.057-0.281l-0.002 0.005c0.035-0.076 0.095-0.136 0.17-0.17l0.002-0.001c0.081-0.034 0.175-0.054 0.274-0.054 0.009 0 0.018 0 0.026 0l-0.001-0h2.265q0.205 0 0.305 0.091c0.062 0.061 0.1 0.146 0.1 0.24s-0.038 0.178-0.1 0.24v0q-0.1 0.091-0.305 0.091z"></path>
<path d="M31.43 18.378v3.082h1.739q0.208 0 0.319 0.101c0.068 0.061 0.111 0.149 0.111 0.247 0 0.003-0 0.005-0 0.008v-0c0 0.003 0 0.007 0 0.011 0 0.096-0.042 0.183-0.109 0.242l-0 0q-0.11 0.097-0.321 0.097h-2.071q-0.28 0-0.403-0.125t-0.123-0.4v-3.262q0-0.26 0.117-0.39c0.073-0.080 0.177-0.13 0.293-0.13 0.005 0 0.010 0 0.015 0l-0.001-0c0.005-0 0.010-0 0.016-0 0.117 0 0.223 0.050 0.297 0.129l0 0q0.12 0.128 0.12 0.391z"></path>
</svg>
