<svg version="1.1" xmlns="http://www.w3.org/2000/svg" width="32" height="32" viewBox="0 0 32 32">
<title>document_file_paper</title>
<path d="M27.333 6.667h-5.333c-0.369 0-0.667-0.298-0.667-0.667v-5.333c0-0.369 0.298-0.667 0.667-0.667s0.667 0.298 0.667 0.667v4.667h4.667c0.369 0 0.667 0.298 0.667 0.667s-0.298 0.667-0.667 0.667z"></path>
<path d="M26.277 32h-20.561c-0.946 0-1.716-0.777-1.716-1.733v-28.526c0-0.96 0.77-1.741 1.716-1.741h16.284c0.557 0 0.854 0.292 1.070 0.505l4.417 4.359c0.238 0.235 0.513 0.577 0.513 1.136v24.267c0 0.956-0.772 1.733-1.723 1.733zM21.991 1.324l-16.275 0.009c-0.208 0-0.383 0.187-0.383 0.408v28.526c0 0.216 0.175 0.4 0.383 0.4h20.561c0.211 0 0.389-0.184 0.389-0.4v-24.267c0-0.046 0-0.072-0.116-0.186l-4.418-4.359c-0.036-0.037-0.115-0.114-0.142-0.13z"></path>
</svg>
