<!-- Generated by IcoMoon.io -->
<svg version="1.1" xmlns="http://www.w3.org/2000/svg" width="32" height="32" viewBox="0 0 32 32">
<title>documents_files_paper_text_archive_copy</title>
<path fill="none" stroke-linejoin="round" stroke-linecap="butt" stroke-miterlimit="4" stroke-width="2" stroke="#000" d="M21 16.508v10.742c0 1.519-1.191 2.75-2.684 2.75h-11.628c-1.497 0-2.688-1.231-2.688-2.75v-16.5c0.009-1.515 1.235-2.741 2.749-2.75h5.883c0.428 0.001 0.815 0.177 1.093 0.46l0 0 6.822 6.938c0.28 0.286 0.453 0.678 0.453 1.11 0 0 0 0 0 0.001v-0z"></path>
<path fill="none" stroke-linejoin="round" stroke-linecap="round" stroke-miterlimit="4" stroke-width="2" stroke="#000" d="M12.5 8v6.75c0.012 0.962 0.788 1.738 1.749 1.75h6.751"></path>
<path fill="none" stroke-linejoin="round" stroke-linecap="butt" stroke-miterlimit="4" stroke-width="2" stroke="#000" d="M11 8v-3.25c0.009-1.515 1.235-2.741 2.749-2.75h5.876c0.43 0.001 0.82 0.176 1.101 0.46l0 0 6.822 6.938c0.28 0.283 0.453 0.672 0.453 1.102 0 0 0 0 0 0.001v-0 10.75c0 1.519-1.191 2.75-2.684 2.75h-3.816"></path>
<path fill="none" stroke-linejoin="round" stroke-linecap="round" stroke-miterlimit="4" stroke-width="2" stroke="#000" d="M19.5 2v6.75c0.012 0.962 0.788 1.738 1.749 1.75h6.751"></path>
</svg>
