<svg version="1.1" xmlns="http://www.w3.org/2000/svg" width="32" height="32" viewBox="0 0 32 32">
<title>document_file_zip_archive_compressed_rar</title>
<path d="M29.889 26.728h-15.822c-1.139 0-2.066-0.927-2.066-2.066v-9.253c0-1.139 0.927-2.066 2.066-2.066h15.822c1.139 0 2.066 0.927 2.066 2.066v9.253c0 1.139-0.927 2.066-2.066 2.066zM14.068 14.676c-0.404 0-0.733 0.329-0.733 0.733v9.253c0 0.404 0.329 0.733 0.733 0.733h15.822c0.404 0 0.733-0.329 0.733-0.733v-9.253c0-0.404-0.329-0.733-0.733-0.733h-15.822z"></path>
<path d="M7.301 9.28c-1.743 0-3.161-1.418-3.161-3.161 0-1.161 1.074-6.080 3.22-6.080 2.104 0 3.102 4.877 3.102 6.080 0 1.743-1.418 3.161-3.161 3.161zM7.361 1.372c-0.635 0-1.887 3.15-1.887 4.747 0 1.008 0.82 1.828 1.827 1.828s1.828-0.82 1.828-1.828c0-1.641-1.157-4.747-1.769-4.747z"></path>
<path d="M24.625 6.667h-5.518c-0.369 0-0.667-0.298-0.667-0.666l-0.007-5.295c0-0.368 0.298-0.667 0.665-0.667 0.001 0 0.001 0 0.001 0 0.369 0 0.667 0.298 0.667 0.666l0.005 4.629h4.853c0.369 0 0.667 0.298 0.667 0.667s-0.298 0.667-0.667 0.667z"></path>
<path d="M23.56 31.962h-21.785c-0.954 0-1.731-0.777-1.731-1.732v-28.462c0-0.954 0.777-1.731 1.731-1.731h1.456c0.369 0 0.667 0.298 0.667 0.667s-0.298 0.667-0.667 0.667h-1.456c-0.219 0-0.398 0.178-0.398 0.397v28.462c0 0.22 0.178 0.398 0.398 0.398h21.785c0.22 0 0.398-0.178 0.398-0.398v-1.479c0-0.369 0.298-0.667 0.667-0.667s0.667 0.298 0.667 0.667v1.479c0 0.954-0.777 1.732-1.732 1.732z"></path>
<path d="M24.625 11.87c-0.369 0-0.667-0.298-0.667-0.667v-5.203c-0.012-0.019-0.056-0.055-0.107-0.105l-4.471-4.409c-0.075-0.073-0.175-0.114-0.28-0.114h-7.66c-0.369 0-0.667-0.298-0.667-0.667s0.298-0.667 0.667-0.667h7.66c0.457 0 0.889 0.176 1.215 0.497l4.46 4.397c0.238 0.236 0.517 0.511 0.517 1.067v5.203c0 0.369-0.298 0.667-0.667 0.667z"></path>
<path d="M7.307 6.667c-0.174 0-0.347-0.067-0.481-0.187-0.12-0.133-0.186-0.307-0.186-0.48s0.066-0.347 0.186-0.467c0.254-0.253 0.68-0.253 0.947-0.014 0.12 0.133 0.201 0.307 0.201 0.481s-0.067 0.346-0.201 0.466c-0.133 0.133-0.293 0.201-0.466 0.201z"></path>
<path d="M21.863 22.62c-0.369 0-0.667-0.298-0.667-0.667v-3.969c0-0.369 0.298-0.667 0.667-0.667s0.667 0.298 0.667 0.667v3.969c0 0.369-0.298 0.667-0.667 0.667z"></path>
<path d="M19.47 22.62h-2.872c-0.25 0-0.479-0.141-0.594-0.363s-0.093-0.491 0.053-0.694l2.107-2.911h-1.393c-0.369 0-0.667-0.298-0.667-0.667s0.298-0.667 0.667-0.667h2.699c0.25 0 0.479 0.141 0.594 0.363 0.113 0.223 0.094 0.491-0.053 0.694l-2.107 2.911h1.566c0.369 0 0.667 0.298 0.667 0.667s-0.298 0.667-0.667 0.667z"></path>
<path d="M24.741 22.62c-0.369 0-0.667-0.298-0.667-0.667v-1.816c0 0 0-0.001 0-0.003v-2.15c0-0.369 0.298-0.667 0.667-0.667h1.49c0.073 0.001 0.908-0.017 1.469 0.523 0.309 0.298 0.473 0.703 0.473 1.169 0 1.299-1.158 1.781-1.936 1.788l-0.828 0.003v1.152c-0 0.368-0.298 0.667-0.667 0.667zM25.408 18.651v0.816l0.822-0.003c0.176-0.005 0.609-0.060 0.609-0.454 0-0.145-0.044-0.189-0.064-0.207-0.109-0.108-0.319-0.168-0.526-0.152h-0.841z"></path>
<path d="M7.301 13.363c-0.369 0-0.667-0.298-0.667-0.667v-1.326c0-0.369 0.298-0.667 0.667-0.667s0.667 0.298 0.667 0.667v1.326c0 0.369-0.298 0.667-0.667 0.667z"></path>
<path d="M7.301 17.363c-0.369 0-0.667-0.298-0.667-0.667v-1.325c0-0.369 0.298-0.667 0.667-0.667s0.667 0.298 0.667 0.667v1.325c0 0.368-0.298 0.667-0.667 0.667z"></path>
<path d="M7.301 21.365c-0.369 0-0.667-0.298-0.667-0.667v-1.327c0-0.369 0.298-0.667 0.667-0.667s0.667 0.298 0.667 0.667v1.327c0 0.369-0.298 0.667-0.667 0.667z"></path>
</svg>
