<svg version="1.1" xmlns="http://www.w3.org/2000/svg" width="32" height="32" viewBox="0 0 32 32">
<title>dogs_pets_forbidden</title>
<path d="M18.559 28.401c-0.553 0-1.105-0.096-1.311-0.302-0.122-0.12-0.503-0.492-0.686-1.917-0.098-0.233-0.316-0.764-0.548-1.341-0.424-1.047-0.675-1.717-0.767-2.047-0.074-0.272-0.175-0.505-0.276-0.645-0.038-0.001-0.373-0.090-0.51-0.069-0.557 0.217-1.53 0.342-2.79 0.345-1.406-0.003-2.686-0.164-3.428-0.43-0.445-0.164-0.845-0.116-0.847-0.113-0.153 0.966-0.793 1.495-1.217 1.845-0.477 0.378-1.641 1.413-1.797 1.609-0.187 0.318-0.582 0.401-0.9 0.216-0.317-0.187-0.409-0.615-0.223-0.932 0.244-0.414 2.064-1.917 2.082-1.93 0.357-0.296 0.667-0.575 0.719-0.919 0.111-0.779 0.68-1.249 1.52-1.251 0.341 0 0.717 0.074 1.118 0.221 0.592 0.214 1.734 0.348 2.973 0.35 1.070-0.003 1.935-0.105 2.434-0.289 0.392-0.141 1.542 0.018 1.941 0.556 0.254 0.349 0.405 0.78 0.487 1.079 0.052 0.187 0.22 0.673 0.719 1.904 0.264 0.659 0.51 1.254 0.575 1.409 0.025 0.057 0.040 0.117 0.047 0.178 0.066 0.556 0.172 0.927 0.251 1.109 0.324 0.039 0.889 0.040 1.052-0.031 0.001-0.013 0-0.046-0.003-0.083-0.307-0.236-0.754-0.651-0.883-1.147-0.122-0.564-0.272-3.089-0.272-3.47 0-0.199 0.007-1.206 0.069-1.583 0.022-0.13 0.082-0.251 0.172-0.348 0.092-0.154 0.581-1.025 0.629-1.346 0.005-0.051 0.1-0.487 0.227-1.035 0.165-0.729 0.475-2.084 0.493-2.324 0.003-0.63 0.443-2.23 0.934-2.818 0.034-0.068 0.087-0.426 0.091-0.64 0.005-0.355 0.29-0.674 0.646-0.685 0.012-0.005 0.129 0.001 0.292 0.006 0.259 0.008 0.658 0.019 0.865 0.019 0.151-0.001 0.259-0.004 0.324-0.027 0.129-0.047 0.456-0.165 0.557-0.265v0c-0.018 0 0.164-1.273 0.232-1.761-0.182-0.042-0.398-0.063-0.626-0.083-0.685-0.064-1.539-0.145-1.984-0.911-0.273-0.407-0.845-0.669-1.349-0.652-0.646 0.021-1.216 0.402-1.604 1.074-0.448 0.762-0.794 1.508-1.1 2.166-0.12 0.259-0.234 0.506-0.349 0.739-0.392 0.808-0.852 1.62-1.544 2.084-1.775 1.2-4.332 1.057-6.587 0.93-2.004-0.111-3.9-0.217-4.692 0.605-1.344 1.425-1.523 3.344-1.528 4.857-0.001 0.367-0.299 0.664-0.667 0.664-0.001 0-0.001 0-0.003 0-0.368-0.001-0.665-0.301-0.664-0.669 0.006-1.621 0.208-3.982 1.895-5.771 1.22-1.273 3.411-1.148 5.733-1.018 2.143 0.12 4.361 0.244 5.768-0.705 0.432-0.29 0.794-0.952 1.090-1.561 0.111-0.227 0.222-0.466 0.339-0.717 0.319-0.686 0.68-1.463 1.158-2.276 0.615-1.064 1.604-1.698 2.711-1.734 1.016-0.025 1.966 0.444 2.523 1.279 0.124 0.21 0.578 0.252 0.979 0.29 0.341 0.032 0.694 0.064 1.030 0.174 0.504 0.157 0.831 0.602 0.825 1.133-0.003 0.066-0.005 0.111-0.289 2.064 0.005 0.128-0.060 0.453-0.361 0.751-0.288 0.281-0.676 0.437-1.048 0.572-0.285 0.099-0.539 0.102-0.763 0.103-0.134 0-0.339-0.005-0.54-0.010-0.052 0.284-0.15 0.597-0.325 0.818-0.236 0.281-0.633 1.551-0.635 2.010-0.012 0.294-0.172 1.033-0.526 2.586-0.105 0.458-0.19 0.828-0.207 0.928-0.083 0.564-0.559 1.423-0.818 1.837-0.025 0.285-0.036 0.869-0.038 1.251 0 0.418 0.154 2.78 0.236 3.161 0.033 0.082 0.309 0.348 0.552 0.507 0.081 0.052 0.151 0.124 0.202 0.206 0.052 0.083 0.16 0.257 0.173 0.896-0.060 0.518-0.329 0.904-0.708 1.104-0.255 0.143-0.752 0.219-1.248 0.219z"></path>
<path d="M15.981 31.754c-4.215 0-8.173-1.637-11.145-4.608-2.972-2.973-4.609-6.931-4.609-11.145 0.001-4.215 1.637-8.173 4.61-11.145s6.93-4.609 11.145-4.609 8.171 1.637 11.144 4.609 4.609 6.93 4.609 11.145c0 4.215-1.637 8.172-4.609 11.145s-6.931 4.609-11.145 4.609zM15.982 1.58c-3.858 0-7.481 1.498-10.202 4.219s-4.219 6.343-4.219 10.203c0 3.858 1.498 7.482 4.218 10.202s6.343 4.217 10.202 4.217 7.482-1.499 10.203-4.219 4.219-6.344 4.219-10.202-1.499-7.481-4.219-10.202c-2.72-2.72-6.344-4.218-10.201-4.218z"></path>
<path d="M26.655 27.34c-0.171 0-0.341-0.065-0.471-0.195l-21.346-21.346c-0.26-0.26-0.26-0.682 0-0.943s0.682-0.26 0.943 0l21.346 21.346c0.26 0.26 0.26 0.682 0 0.943-0.13 0.13-0.301 0.195-0.471 0.195z"></path>
</svg>
