<svg version="1.1" xmlns="http://www.w3.org/2000/svg" width="32" height="32" viewBox="0 0 32 32">
<title>dont_touch_dangerous_stop_caution3</title>
<path d="M21.881 32.004h-11.805c-0.458 0-0.905-0.185-1.227-0.509l-8.346-8.348c-0.322-0.322-0.508-0.768-0.508-1.227v-11.806c0-0.458 0.186-0.905 0.509-1.227l8.346-8.345c0.328-0.328 0.764-0.508 1.227-0.508h11.805c0.462 0 0.897 0.18 1.225 0.508l8.35 8.345c0.324 0.325 0.51 0.773 0.508 1.231v11.803c0 0.464-0.18 0.898-0.505 1.227l-8.353 8.349c-0.327 0.328-0.763 0.508-1.225 0.508zM10.076 1.367c-0.107 0-0.208 0.042-0.284 0.118l-8.346 8.346c-0.075 0.075-0.118 0.178-0.118 0.284v11.806c0 0.105 0.042 0.21 0.117 0.283l8.348 8.35c0.075 0.074 0.178 0.117 0.284 0.117h11.805c0.107 0 0.207-0.042 0.283-0.117l8.352-8.348c0.073-0.074 0.116-0.178 0.116-0.285v-11.806c0-0.107-0.042-0.21-0.117-0.285l-8.35-8.345c-0.075-0.076-0.176-0.118-0.283-0.118h-11.805z"></path>
<path d="M16.617 26.984c-1.284 0-2.534-0.354-3.613-1.026-1.005-0.626-1.922-1.785-2.808-2.906-0.45-0.568-0.899-1.137-1.354-1.626-0.199-0.215-0.463-0.397-0.718-0.573-0.262-0.182-0.534-0.37-0.753-0.604-0.482-0.513-2.031-2.29-1.676-3.596 0.079-0.289 0.324-0.808 1.090-1.034 0.275-0.081 0.548-0.122 0.814-0.122 1.384 0 2.27 1.069 2.982 1.927 0.28 0.339 0.567 0.684 0.824 0.885 1.182-1.167 0.541-2.973-0.551-5.518-0.693-1.615-1.348-3.141-1.096-4.42 0.15-0.761 0.872-1.455 1.577-1.517 0.019-0.002 0.138-0.007 0.158-0.007 1.592 0 2.301 1.987 3.051 4.091 0.083 0.232 0.166 0.466 0.251 0.699-0.006-0.341-0.019-0.689-0.031-1.027-0.062-1.649-0.12-3.206 0.432-4.154 0.309-0.531 0.858-0.848 1.47-0.848 0.799 0 1.466 0.518 1.66 1.288 0.29 1.147 0.32 2.525 0.349 3.858 0.012 0.537 0.023 1.082 0.052 1.608 0.095-0.333 0.181-0.663 0.253-0.937 0.534-2.042 1.086-4.154 2.587-4.154 0.369 0 0.745 0.142 1.119 0.421 0.507 0.379 0.786 0.982 0.75 1.614-0.068 1.139-0.323 2.082-0.615 2.963 0.137-0.223 0.283-0.43 0.44-0.614 0.667-0.773 1.93-0.769 2.605-0.040 0.328 0.353 0.488 0.817 0.452 1.307-0.122 1.631-0.858 2.792-1.569 3.914-0.406 0.641-0.79 1.246-1.044 1.917-0.255 0.673-0.348 1.402-0.444 2.175-0.151 1.204-0.309 2.449-1.128 3.5-1.233 1.578-3.345 2.557-5.515 2.557zM7.598 16.829c-0.137 0-0.285 0.023-0.436 0.068-0.039 0.012-0.167 0.053-0.18 0.103-0.098 0.361 0.551 1.474 1.361 2.336 0.122 0.131 0.325 0.271 0.54 0.421 0.298 0.206 0.637 0.44 0.935 0.76 0.479 0.514 0.952 1.111 1.424 1.708 0.816 1.031 1.659 2.098 2.467 2.6 0.88 0.548 1.859 0.825 2.909 0.825 1.741 0 3.492-0.802 4.462-2.044 0.594-0.76 0.721-1.773 0.857-2.846 0.103-0.815 0.208-1.659 0.519-2.481 0.302-0.798 0.741-1.49 1.165-2.158 0.652-1.029 1.268-2.001 1.365-3.299 0.009-0.12-0.023-0.221-0.098-0.301-0.159-0.17-0.448-0.191-0.619 0.003-0.322 0.373-0.619 0.978-0.906 1.563-0.546 1.113-1.112 2.262-2.138 2.434-0.216 0.035-0.421-0.031-0.572-0.175-0.151-0.146-0.227-0.353-0.201-0.562 0.146-1.212 0.496-2.206 0.835-3.168 0.379-1.075 0.737-2.092 0.815-3.39 0.010-0.182-0.072-0.358-0.219-0.468-0.193-0.145-0.293-0.156-0.319-0.156-0.471 0-1.049 2.214-1.297 3.158-0.486 1.857-0.823 3.016-1.596 3.419-0.18 0.092-0.392 0.099-0.574 0.019-0.185-0.081-0.323-0.24-0.376-0.435-0.32-1.173-0.352-2.601-0.381-3.982-0.026-1.258-0.055-2.559-0.307-3.56-0.068-0.268-0.319-0.282-0.369-0.282-0.096 0-0.229 0.032-0.318 0.185-0.357 0.615-0.302 2.113-0.253 3.434 0.059 1.564 0.113 3.040-0.401 3.883-0.124 0.203-0.365 0.301-0.586 0.32-0.238-0.007-0.455-0.139-0.569-0.349-0.5-0.921-0.882-1.993-1.252-3.029-0.509-1.428-1.143-3.206-1.794-3.206-0.14 0.020-0.385 0.239-0.427 0.449-0.173 0.875 0.43 2.279 1.013 3.636 1.055 2.458 2.368 5.517-0.195 7.38-0.168 0.122-0.385 0.163-0.583 0.099-0.702-0.21-1.209-0.822-1.745-1.469-0.617-0.744-1.199-1.445-1.956-1.445z"></path>
</svg>
