<svg version="1.1" xmlns="http://www.w3.org/2000/svg" width="32" height="32" viewBox="0 0 32 32">
<title>dont_touch_dangerous_stop_caution2</title>
<path d="M4.801 21.374c-0.171 0-0.341-0.065-0.471-0.195l-4.052-4.052c-0.125-0.125-0.195-0.294-0.195-0.471s0.070-0.346 0.195-0.471l5.483-5.482-5.452-5.453c-0.26-0.26-0.26-0.682 0-0.943l3.99-3.99c0.25-0.25 0.693-0.25 0.943 0l5.452 5.453 5.453-5.453c0.125-0.125 0.294-0.195 0.471-0.195v0c0.177 0 0.346 0.070 0.471 0.195l4.051 4.052c0.26 0.26 0.26 0.682 0 0.943l-3.749 3.749c-0.26 0.26-0.682 0.26-0.943 0s-0.26-0.682 0-0.943l3.277-3.278-3.108-3.109-5.453 5.452c-0.125 0.125-0.294 0.195-0.471 0.195v0c-0.177 0-0.346-0.070-0.471-0.195l-5.452-5.452-3.047 3.047 5.452 5.453c0.125 0.125 0.195 0.294 0.195 0.471s-0.070 0.346-0.195 0.471l-5.483 5.482 3.109 3.109 5.482-5.482c0.26-0.26 0.682-0.26 0.943 0l2.746 2.745c0.26 0.26 0.26 0.682 0 0.943s-0.682 0.26-0.943 0l-2.275-2.274-5.482 5.482c-0.13 0.13-0.301 0.195-0.471 0.195z"></path>
<path d="M21.363 31.844c-1.389 0-2.741-0.384-3.909-1.111-1.086-0.677-2.082-1.935-3.045-3.152-0.486-0.615-0.988-1.249-1.479-1.776-0.223-0.241-0.515-0.443-0.797-0.638s-0.573-0.397-0.807-0.645c-0.521-0.556-2.191-2.474-1.813-3.866 0.1-0.37 0.38-0.858 1.147-1.085 0.294-0.087 0.587-0.13 0.87-0.13 1.481 0 2.437 1.152 3.205 2.079 0.322 0.388 0.652 0.786 0.949 1.005 1.367-1.294 0.661-3.293-0.551-6.119-0.752-1.751-1.462-3.405-1.191-4.781 0.158-0.805 0.921-1.54 1.666-1.605 0.019-0.002 0.147-0.007 0.167-0.007 1.693 0 2.458 2.147 3.269 4.42 0.129 0.361 0.259 0.725 0.393 1.085-0.001-0.477-0.021-0.982-0.038-1.466-0.068-1.788-0.13-3.477 0.464-4.495 0.325-0.56 0.905-0.895 1.551-0.895 0.842 0 1.547 0.546 1.751 1.359 0.315 1.243 0.348 2.742 0.378 4.191 0.016 0.704 0.031 1.421 0.079 2.099 0.141-0.468 0.269-0.963 0.372-1.354 0.575-2.203 1.172-4.482 2.76-4.482 0.388 0 0.786 0.15 1.184 0.447 0.536 0.402 0.832 1.041 0.793 1.709-0.090 1.501-0.479 2.69-0.876 3.825 0.238-0.451 0.493-0.878 0.792-1.223 0.702-0.814 2.034-0.813 2.75-0.043 0.345 0.372 0.514 0.861 0.477 1.38-0.131 1.763-0.93 3.022-1.702 4.24-0.444 0.701-0.863 1.363-1.143 2.102s-0.38 1.535-0.486 2.38c-0.164 1.305-0.335 2.655-1.217 3.786-1.332 1.706-3.617 2.766-5.962 2.766zM11.531 20.775c-0.156 0-0.321 0.025-0.492 0.075-0.212 0.063-0.231 0.133-0.238 0.155-0.113 0.417 0.587 1.633 1.499 2.604 0.136 0.145 0.359 0.298 0.594 0.461 0.325 0.225 0.692 0.479 1.014 0.825 0.527 0.566 1.046 1.223 1.547 1.858 0.893 1.128 1.814 2.293 2.704 2.846 0.97 0.604 2.048 0.91 3.203 0.91 1.915 0 3.844-0.884 4.911-2.253 0.658-0.842 0.798-1.956 0.945-3.133 0.112-0.884 0.227-1.798 0.563-2.686 0.328-0.866 0.805-1.616 1.264-2.342 0.716-1.129 1.392-2.195 1.497-3.625 0.012-0.147-0.030-0.273-0.122-0.374-0.197-0.21-0.556-0.232-0.763 0.007-0.355 0.411-0.681 1.074-0.996 1.715-0.589 1.199-1.198 2.44-2.288 2.621-0.208 0.036-0.419-0.031-0.57-0.176s-0.227-0.353-0.201-0.561c0.158-1.314 0.539-2.395 0.906-3.439 0.415-1.177 0.807-2.288 0.892-3.712 0.013-0.219-0.085-0.43-0.262-0.563-0.219-0.163-0.341-0.181-0.384-0.181-0.559 0-1.175 2.354-1.47 3.486-0.526 2.009-0.889 3.262-1.711 3.689-0.18 0.094-0.393 0.1-0.574 0.019-0.185-0.081-0.323-0.241-0.376-0.435-0.348-1.271-0.381-2.825-0.413-4.327-0.030-1.374-0.060-2.796-0.337-3.893-0.066-0.26-0.289-0.352-0.46-0.352-0.099 0-0.281 0.030-0.4 0.232-0.398 0.684-0.337 2.327-0.283 3.775 0.063 1.695 0.122 3.296-0.428 4.2-0.124 0.204-0.363 0.315-0.586 0.32-0.238-0.007-0.456-0.139-0.569-0.349-0.543-1-0.958-2.165-1.361-3.293-0.59-1.657-1.26-3.535-2.013-3.535-0.171 0.016-0.473 0.279-0.524 0.537-0.191 0.971 0.469 2.51 1.107 3.998 1.142 2.659 2.563 5.969-0.191 7.973-0.169 0.122-0.384 0.16-0.585 0.099-0.747-0.224-1.294-0.884-1.872-1.582-0.651-0.786-1.324-1.597-2.179-1.597z"></path>
</svg>
