<!-- Generated by IcoMoon.io -->
<svg version="1.1" xmlns="http://www.w3.org/2000/svg" width="32" height="32" viewBox="0 0 32 32">
<title>donut_chart</title>
<path d="M15.406 30.25c-7.531 0-13.656-6.125-13.656-13.656s5.594-13.656 12.469-13.656c0.328 0 0.594 0.266 0.594 0.594v4.844c0 0.297-0.219 0.544-0.509 0.588-3.772 0.541-6.616 3.822-6.616 7.631 0 4.256 3.463 7.719 7.719 7.719 1.409 0 2.8-0.394 4.016-1.137 0.256-0.156 0.594-0.097 0.778 0.144l2.8 3.597c0.197 0.253 0.156 0.619-0.091 0.822-2.313 1.903-4.134 2.512-7.503 2.512zM13.625 4.141c-5.947 0.344-10.688 5.8-10.688 12.453 0 6.875 5.594 12.469 12.469 12.469 2.856 0 4.422-0.45 6.297-1.881l-2.122-2.728c-1.288 0.684-2.719 1.047-4.172 1.047-4.912 0-8.906-3.994-8.906-8.906 0-4.222 3.028-7.881 7.125-8.719v-3.734z"></path>
<path d="M29.656 16h-4.75c-0.328 0-0.594-0.266-0.594-0.594 0-4.256-3.462-7.719-7.719-7.719-0.328 0-0.594-0.266-0.594-0.594v-4.75c0-0.328 0.266-0.594 0.594-0.594 7.531 0 13.656 6.125 13.656 13.656 0 0.328-0.266 0.594-0.594 0.594zM25.478 14.813h3.569c-0.3-6.403-5.456-11.559-11.859-11.859v3.569c4.438 0.291 8 3.853 8.291 8.291z"></path>
<path d="M25.5 27.931c-0.016 0-0.028 0-0.041 0-0.166-0.012-0.316-0.091-0.422-0.219l-3.547-4.394c-0.203-0.25-0.169-0.619 0.078-0.825 1.444-1.222 2.387-2.922 2.656-4.794 0.044-0.291 0.294-0.509 0.587-0.509h4.844c0.328 0 0.594 0.266 0.594 0.594 0 3.775-1.584 7.416-4.344 9.991-0.113 0.1-0.256 0.156-0.406 0.156zM22.766 23.006l2.784 3.447c2.103-2.175 3.35-5.063 3.497-8.078h-3.734c-0.359 1.769-1.247 3.381-2.547 4.631z"></path>
</svg>
