<!-- Generated by IcoMoon.io -->
<svg version="1.1" xmlns="http://www.w3.org/2000/svg" width="32" height="32" viewBox="0 0 32 32">
<title>door_exit_emergency_logout</title>
<path d="M20 21v2.5c0 1.9-1.6 3.5-3.5 3.5h-10c-1.9 0-3.5-1.6-3.5-3.5v-15c0-1.9 1.6-3.5 3.5-3.5h9.5c1.9 0 4 1.5 4 3.5v2.5c0 0.6-0.4 1-1 1s-1-0.4-1-1v-2.5c0-0.7-1-1.5-2-1.5h-9.5c-0.8 0-1.5 0.7-1.5 1.5v15c0 0.8 0.7 1.5 1.5 1.5h10c0.8 0 1.5-0.7 1.5-1.5v-2.5c0-0.6 0.4-1 1-1s1 0.4 1 1zM28.7 15.3l-5-5c-0.4-0.4-1-0.4-1.4 0s-0.4 1 0 1.4l3.3 3.3h-14.6c-0.6 0-1 0.4-1 1s0.4 1 1 1h14.6l-3.3 3.3c-0.4 0.4-0.4 1 0 1.4 0.2 0.2 0.5 0.3 0.7 0.3s0.5-0.1 0.7-0.3l5-5c0.4-0.4 0.4-1 0-1.4z"></path>
</svg>
