<svg version="1.1" xmlns="http://www.w3.org/2000/svg" width="32" height="32" viewBox="0 0 32 32">
<title>down_vote_minus_lower</title>
<path d="M20.887 12.677h-9.784c-0.369 0-0.667-0.298-0.667-0.667s0.298-0.667 0.667-0.667h9.784c0.369 0 0.667 0.298 0.667 0.667s-0.298 0.667-0.667 0.667z"></path>
<path d="M16.005 31.93c-0.179 0-0.35-0.072-0.476-0.199l-8.647-8.807c-0.122-0.125-0.191-0.293-0.191-0.467v-21.647c0-0.369 0.298-0.667 0.667-0.667h17.293c0.369 0 0.667 0.298 0.667 0.667v21.647c0 0.175-0.069 0.342-0.191 0.467l-8.646 8.807c-0.125 0.128-0.297 0.199-0.475 0.199zM8.025 22.184l7.981 8.128 7.979-8.128v-20.708h-15.96v20.708z"></path>
</svg>
