<!-- Generated by IcoMoon.io -->
<svg version="1.1" xmlns="http://www.w3.org/2000/svg" width="32" height="32" viewBox="0 0 32 32">
<title>download_cloud_file_sync</title>
<path d="M19.3 24.3l-2.3 2.3v-12.6c0-0.6-0.4-1-1-1s-1 0.4-1 1v12.6l-2.3-2.3c-0.4-0.4-1-0.4-1.4 0s-0.4 1 0 1.4l4 4c0.2 0.2 0.5 0.3 0.7 0.3s0.5-0.1 0.7-0.3l4-4c0.4-0.4 0.4-1 0-1.4s-1-0.4-1.4 0z"></path>
<path d="M25.9 10.6c-0.9-5.1-4.9-8.6-9.9-8.6-4.5 0-7.5 2.8-8.7 5.8-4.5 0.6-7.3 3.3-7.3 7.1 0 4.2 3.5 7.1 8.5 7.1h3.5c0.6 0 1-0.4 1-1s-0.4-1-1-1h-3.5c-3.2 0-6.5-1.6-6.5-5.1 0-4.1 4.3-5 6.1-5.2 0.4 0 0.7-0.3 0.9-0.7 0.7-2.3 3-5 7-5 4.3 0 7.5 3.1 8 7.7 0.1 0.5 0.5 0.9 0.9 0.9 1.2 0.1 5 0.5 5 3.7 0 3.1-2.9 3.7-5.2 3.7h-4.7c-0.6 0-1 0.4-1 1s0.4 1 1 1h4.8c4.5 0 7.2-2.1 7.2-5.7 0-3.7-3.1-5.3-6.1-5.7z"></path>
</svg>
