<svg version="1.1" xmlns="http://www.w3.org/2000/svg" width="32" height="32" viewBox="0 0 32 32">
<title>down</title>
<path d="M15.982 23.772c-0.369 0-0.667-0.298-0.667-0.667v-18.299c0-0.369 0.298-0.667 0.667-0.667s0.667 0.298 0.667 0.667v18.299c0 0.369-0.298 0.667-0.667 0.667z"></path>
<path d="M15.982 23.772c-0.178 0-0.348-0.072-0.473-0.198l-5.771-5.824c-0.259-0.26-0.257-0.684 0.004-0.943 0.262-0.26 0.685-0.255 0.943 0.005l5.297 5.346 5.297-5.346c0.259-0.26 0.684-0.266 0.943-0.005 0.262 0.259 0.264 0.682 0.005 0.943l-5.771 5.824c-0.125 0.126-0.295 0.198-0.474 0.198z"></path>
<path d="M28.126 32h-24.288c-2.126 0-3.856-1.729-3.856-3.855v-24.289c0-2.126 1.73-3.855 3.856-3.855h24.288c2.126 0 3.855 1.73 3.855 3.855v24.289c0 2.126-1.729 3.855-3.855 3.855zM3.838 1.333c-1.391 0-2.523 1.131-2.523 2.522v24.289c0 1.391 1.132 2.522 2.523 2.522h24.288c1.391 0 2.522-1.131 2.522-2.522v-24.289c0-1.391-1.131-2.522-2.522-2.522h-24.288z"></path>
<path d="M25.854 28h-19.779c-0.369 0-0.667-0.298-0.667-0.667s0.298-0.667 0.667-0.667h19.779c0.369 0 0.667 0.298 0.667 0.667s-0.298 0.667-0.667 0.667z"></path>
</svg>
