<!-- Generated by IcoMoon.io -->
<svg version="1.1" xmlns="http://www.w3.org/2000/svg" width="32" height="32" viewBox="0 0 32 32">
<title>down_vote_minus_lower</title>
<path d="M6 21.504v-16.567c0.003-0.755 0.283-1.492 0.798-2.047 0.518-0.557 1.235-0.887 2.001-0.89h14.401c0.766 0.004 1.483 0.333 2.001 0.89 0.515 0.555 0.795 1.292 0.798 2.047v16.566c0 0.408-0.081 0.814-0.24 1.19s-0.393 0.717-0.691 0.997c-0.044 0.042-0.092 0.079-0.143 0.111l-8.345 5.95c-0.347 0.248-0.814 0.248-1.161 0l-8.385-5.977c-0.037-0.026-0.072-0.055-0.105-0.087-0.297-0.28-0.531-0.621-0.689-0.996s-0.24-0.78-0.24-1.188zM8 21.503c0 0.144 0.029 0.285 0.083 0.412 0.046 0.108 0.107 0.202 0.179 0.279l7.738 5.516 7.742-5.52c0.071-0.076 0.131-0.169 0.176-0.275 0.054-0.127 0.082-0.267 0.083-0.412 0 0 0 0 0 0v-16.559c-0.002-0.272-0.103-0.52-0.263-0.692-0.158-0.17-0.355-0.251-0.544-0.252h-14.385c-0.189 0.001-0.386 0.082-0.544 0.252-0.16 0.172-0.262 0.42-0.263 0.692v16.559z"></path>
<path d="M10.313 12.25c0-0.552 0.448-1 1-1h9.313c0.552 0 1 0.448 1 1s-0.448 1-1 1h-9.313c-0.552 0-1-0.448-1-1z"></path>
</svg>
