<svg version="1.1" xmlns="http://www.w3.org/2000/svg" width="32" height="32" viewBox="0 0 32 32">
<title>download_file_computer_drive</title>
<path d="M16.728 19.757c-0.369 0-0.667-0.298-0.667-0.667v-18.335c0-0.369 0.298-0.667 0.667-0.667s0.667 0.298 0.667 0.667v18.335c0 0.369-0.298 0.667-0.667 0.667z"></path>
<path d="M16.728 19.757c-0.171 0-0.341-0.065-0.471-0.195l-4.413-4.413c-0.26-0.26-0.26-0.682 0-0.943s0.682-0.26 0.943 0l3.941 3.941 3.941-3.941c0.26-0.26 0.682-0.26 0.943 0s0.26 0.682 0 0.943l-4.413 4.413c-0.13 0.13-0.301 0.195-0.471 0.195z"></path>
<path d="M31.345 32.070h-30.689c-0.369 0-0.667-0.298-0.667-0.667v-8.111c0-0.369 0.298-0.667 0.667-0.667h30.689c0.369 0 0.667 0.298 0.667 0.667v8.111c0 0.369-0.298 0.667-0.667 0.667zM1.322 30.737h29.356v-6.777h-29.356v6.777z"></path>
<path d="M24.66 29.229c-1.014 0-1.839-0.824-1.839-1.839s0.824-1.839 1.839-1.839 1.839 0.824 1.839 1.839-0.824 1.839-1.839 1.839zM24.66 26.885c-0.279 0-0.505 0.227-0.505 0.505s0.227 0.505 0.505 0.505 0.505-0.227 0.505-0.505-0.227-0.505-0.505-0.505z"></path>
</svg>
