<!-- Generated by IcoMoon.io -->
<svg version="1.1" xmlns="http://www.w3.org/2000/svg" width="32" height="32" viewBox="0 0 32 32">
<title>drawing_board_canvas_table</title>
<path d="M27 4h-10v-1c0-0.6-0.4-1-1-1s-1 0.4-1 1v1h-10c-1.7 0-3 1.3-3 3v13c0 1.7 1.3 3 3 3h2.7l-1.7 5.7c-0.2 0.5 0.2 1.1 0.7 1.2 0.1 0 0.2 0 0.3 0 0.4 0 0.8-0.3 1-0.7l1.8-6.2h5.2v3c0 0.6 0.4 1 1 1s1-0.4 1-1v-3h5.2l1.8 6.3c0.1 0.4 0.5 0.7 1 0.7 0.1 0 0.2 0 0.3 0 0.5-0.2 0.8-0.7 0.7-1.2l-1.7-5.8h2.7c1.7 0 3-1.3 3-3v-13c0-1.7-1.3-3-3-3zM28 20c0 0.6-0.4 1-1 1h-22c-0.6 0-1-0.4-1-1v-13c0-0.6 0.4-1 1-1h22c0.6 0 1 0.4 1 1v13z"></path>
</svg>
