<svg version="1.1" xmlns="http://www.w3.org/2000/svg" width="32" height="32" viewBox="0 0 32 32">
<title>drawing_board_canvas_table</title>
<path d="M17.578 3.993c-0.369 0-0.667-0.298-0.667-0.667v-0.937c0-0.488-0.397-0.884-0.884-0.884s-0.885 0.397-0.885 0.884v0.937c0 0.369-0.298 0.667-0.667 0.667s-0.667-0.298-0.667-0.667v-0.937c0-1.223 0.995-2.217 2.218-2.217s2.217 0.995 2.217 2.217v0.937c0 0.369-0.298 0.667-0.667 0.667z"></path>
<path d="M21.055 31.793c-0.422 0-0.836-0.13-1.195-0.381-0.503-0.352-0.849-0.913-0.949-1.539l-0.757-6.464c-0.042-0.365 0.22-0.697 0.586-0.74 0.358-0.042 0.695 0.219 0.74 0.586l0.751 6.434c0.039 0.243 0.185 0.484 0.393 0.63 0.121 0.083 0.319 0.175 0.569 0.128 0.464-0.089 0.781-0.613 0.695-1.146l-0.687-5.892c-0.042-0.366 0.22-0.697 0.586-0.74 0.357-0.042 0.695 0.219 0.74 0.586l0.682 5.862c0.198 1.219-0.592 2.415-1.764 2.639-0.129 0.025-0.259 0.036-0.39 0.036z"></path>
<path d="M11.005 31.793c-0.13 0-0.26-0.012-0.389-0.036-1.172-0.224-1.962-1.421-1.759-2.668l0.679-5.833c0.043-0.366 0.377-0.617 0.739-0.586 0.366 0.043 0.628 0.374 0.585 0.74l-0.683 5.863c-0.091 0.563 0.227 1.086 0.689 1.175 0.249 0.046 0.449-0.043 0.572-0.129 0.208-0.145 0.353-0.385 0.397-0.658l0.788-6.41c0.044-0.365 0.374-0.637 0.743-0.579 0.365 0.044 0.625 0.378 0.58 0.743l-0.792 6.435c-0.105 0.651-0.451 1.211-0.953 1.563-0.36 0.251-0.774 0.381-1.197 0.381z"></path>
<path d="M23.372 21.294c-0.369 0-0.667-0.298-0.667-0.667v-16.624h-13.333v16.624c0 0.369-0.298 0.667-0.667 0.667s-0.667-0.298-0.667-0.667v-17.29c0-0.369 0.298-0.667 0.667-0.667h14.667c0.369 0 0.667 0.298 0.667 0.667v17.29c0 0.369-0.298 0.667-0.667 0.667z"></path>
<path d="M26.039 24.004h-20c-0.369 0-0.667-0.298-0.667-0.667v-2.667c0-0.369 0.298-0.667 0.667-0.667h20c0.369 0 0.667 0.298 0.667 0.667v2.667c0 0.369-0.298 0.667-0.667 0.667zM6.706 22.671h18.667v-1.333h-18.667v1.333z"></path>
</svg>
