<svg version="1.1" xmlns="http://www.w3.org/2000/svg" width="32" height="32" viewBox="0 0 32 32">
<title>drilldown</title>
<path d="M24.331 16.306l-11.269 13.084-10.969-13.084h2.947l-1.119-1.334h-3.256c-0.259 0-0.494 0.15-0.603 0.384s-0.072 0.512 0.094 0.709l12.391 14.781c0.128 0.15 0.275 0.25 0.512 0.238v0c0.194 0 0.378-0.084 0.506-0.231l12.728-14.781c0.172-0.197 0.209-0.475 0.1-0.713s-0.344-0.387-0.606-0.387h-3.45l-1.147 1.334h3.141z"></path>
<path d="M26.391 7.875c-0.109-0.237-0.344-0.388-0.606-0.388h-3.441l-1.147 1.334h3.134l-11.269 13.081-10.966-13.084h2.947l-1.119-1.334h-3.259c-0.259 0-0.494 0.15-0.603 0.384s-0.072 0.512 0.094 0.709l12.391 14.781c0.128 0.15 0.275 0.25 0.512 0.238v0c0.194 0 0.378-0.084 0.506-0.231l12.728-14.781c0.166-0.194 0.206-0.472 0.097-0.709z"></path>
<path d="M26.391 0.388c-0.109-0.234-0.344-0.388-0.606-0.388h-25.119c-0.259 0-0.494 0.15-0.603 0.384s-0.072 0.512 0.094 0.709l12.391 14.781c0.128 0.15 0.275 0.25 0.512 0.238v0c0.194 0 0.378-0.084 0.506-0.231l12.725-14.784c0.169-0.194 0.209-0.472 0.1-0.709zM20.594 5.675l-1.147 1.334-6.384 7.409-10.966-13.084h22.234l-3.738 4.341z"></path>
<path d="M26.122 32c-0.038 0-0.078-0.003-0.122-0.012l-0.012-0.003c-0.019-0.006-0.034-0.012-0.053-0.016-0.009-0.003-0.022-0.006-0.034-0.009h-0.003c-0.009-0.003-0.019-0.006-0.025-0.006-0.009-0.003-0.019-0.009-0.028-0.016 0 0-0.028-0.016-0.038-0.022-0.016-0.009-0.031-0.016-0.047-0.025 0 0-0.006-0.003-0.009-0.006-0.034-0.022-0.066-0.050-0.094-0.078l-5.219-5.216c-0.259-0.259-0.259-0.678 0-0.938 0.125-0.125 0.291-0.194 0.469-0.194s0.344 0.069 0.469 0.194l4.084 4.084v-8.831c0-0.366 0.297-0.663 0.663-0.663s0.663 0.297 0.663 0.663v8.834l4.084-4.084c0.125-0.125 0.291-0.194 0.469-0.194s0.344 0.069 0.469 0.194 0.194 0.291 0.194 0.469-0.069 0.344-0.194 0.469l-5.216 5.209c-0.028 0.028-0.059 0.053-0.094 0.078l-0.012 0.006c-0.016 0.006-0.028 0.016-0.041 0.022l-0.006 0.003-0.028 0.016c-0.009 0.006-0.025 0.012-0.031 0.019-0.003 0-0.022 0.006-0.022 0.006-0.016 0.003-0.031 0.009-0.044 0.012-0.016 0.003-0.031 0.009-0.050 0.016 0 0-0.012 0.003-0.016 0.006-0.047 0.009-0.087 0.012-0.125 0.012v0z"></path>
</svg>
