<svg version="1.1" xmlns="http://www.w3.org/2000/svg" width="32" height="32" viewBox="0 0 32 32">
<title>dropdown_menu_select_option_form</title>
<path d="M19.737 20h-18.404c-0.369 0-0.667-0.298-0.667-0.667s0.298-0.667 0.667-0.667h18.404c0.369 0 0.667 0.298 0.667 0.667s-0.298 0.667-0.667 0.667z"></path>
<path d="M31.333 20h-8.561c-0.369 0-0.667-0.298-0.667-0.667s0.298-0.667 0.667-0.667h7.895v-13.333h-29.333c-0.369 0-0.667-0.298-0.667-0.667s0.298-0.667 0.667-0.667h30c0.369 0 0.667 0.298 0.667 0.667v14.667c0 0.369-0.298 0.667-0.667 0.667z"></path>
<path d="M24.78 28.634v0c-0.352 0-0.68-0.19-0.855-0.493l-1.268-2.229-0.742 0.743c-0.529 0.529-1.546 0.203-1.669-0.531l-1.57-8.999c-0.051-0.288 0.027-0.579 0.214-0.801 0.348-0.413 1.016-0.467 1.419-0.1l6.875 6.175c0.281 0.255 0.392 0.637 0.292 0.999-0.102 0.362-0.392 0.631-0.76 0.703l-0.652 0.129 1.249 1.648c0.164 0.217 0.231 0.493 0.186 0.759-0.046 0.266-0.198 0.504-0.421 0.654l-1.745 1.176c-0.164 0.109-0.354 0.168-0.551 0.168zM22.803 24.155c0.030 0 0.059 0.003 0.089 0.007 0.207 0.027 0.388 0.15 0.491 0.331l1.513 2.659 1.13-0.76-1.672-2.206c-0.139-0.182-0.173-0.425-0.092-0.639 0.082-0.215 0.269-0.372 0.495-0.417l1.019-0.202-5.616-5.044 1.284 7.357 0.888-0.889c0.125-0.126 0.295-0.195 0.471-0.195z"></path>
<path d="M23.31 14.69v0c-0.337 0-0.658-0.163-0.855-0.436l-2.594-3.199c-0.315-0.426-0.289-0.973 0.039-1.345 0.189-0.236 0.518-0.362 0.796-0.362l5.229-0.001c0.4 0 0.759 0.219 0.939 0.571 0.181 0.357 0.148 0.792-0.085 1.11l-2.634 3.255c-0.177 0.245-0.496 0.408-0.835 0.408zM21.273 10.681l2.036 2.514 2.036-2.514-4.073 0.001z"></path>
<path d="M15.332 19.855c-0.369 0-0.667-0.298-0.667-0.667v-14.522c0-0.369 0.298-0.667 0.667-0.667s0.667 0.298 0.667 0.667v14.522c0 0.369-0.298 0.667-0.667 0.667z"></path>
</svg>
