<svg version="1.1" xmlns="http://www.w3.org/2000/svg" width="32" height="32" viewBox="0 0 32 32">
<title>dropbox</title>
<path d="M15.952 6.803c-0.656 0.419-1.307 0.844-1.968 1.253-2.283 1.413-4.567 2.821-6.851 4.229-0.128 0.079-0.261 0.147-0.392 0.219-0.037 0.001-0.075 0.003-0.113 0.003-0.045-0.027-0.097-0.048-0.139-0.081-2.005-1.619-4.009-3.237-6.016-4.855-0.073-0.060-0.164-0.097-0.283-0.167 3.177-2.051 6.259-4.040 9.344-6.031 0.584 0.487 1.143 0.949 1.699 1.416 1.575 1.321 3.148 2.644 4.721 3.967 0 0.016-0.001 0.031-0.003 0.047z"></path>
<path d="M15.952 6.803c0.001-0.015 0.003-0.031 0.003-0.047 0.116-0.063 0.245-0.109 0.345-0.192 0.983-0.812 1.959-1.631 2.937-2.447 1.092-0.912 2.185-1.823 3.28-2.736 0.84 0.533 1.659 1.055 2.477 1.575 1.6 1.055 3.2 2.109 4.801 3.163 0.661 0.435 1.325 0.867 2.012 1.316-1.595 1.277-3.168 2.535-4.737 3.796-0.555 0.445-1.1 0.901-1.651 1.352-0.024 0-0.049 0-0.073 0-0.924-0.583-1.845-1.172-2.775-1.748-2.084-1.292-4.171-2.577-6.259-3.864-0.112-0.069-0.24-0.113-0.361-0.168z"></path>
<path d="M6.628 12.507c0.039 0 0.076-0.001 0.113-0.003 0.123 0.113 0.229 0.251 0.369 0.337 2.845 1.763 5.693 3.519 8.54 5.277 0.113 0.069 0.22 0.151 0.363 0.249-2.176 1.816-4.321 3.607-6.479 5.408-3.101-2.040-6.181-4.067-9.291-6.113 1.687-1.345 3.352-2.675 5.019-4.004 0.455-0.383 0.911-0.768 1.365-1.152z"></path>
<path d="M25.348 12.583c0.024 0 0.049 0 0.073 0 2.020 1.623 4.040 3.247 6.059 4.869 0.095 0.076 0.187 0.157 0.319 0.268-3.104 2.027-6.183 4.037-9.272 6.055-2.163-1.805-4.308-3.595-6.492-5.419 0.155-0.099 0.277-0.177 0.403-0.255 2.88-1.779 5.759-3.557 8.639-5.337 0.093-0.056 0.181-0.12 0.272-0.181z"></path>
<path d="M6.744 23.108c0 0.663-0.015 1.239 0.011 1.812 0.005 0.128 0.124 0.296 0.239 0.365 2.932 1.771 5.868 3.532 8.811 5.283 0.119 0.071 0.351 0.081 0.465 0.013 2.956-1.756 5.903-3.527 8.849-5.299 0.087-0.052 0.212-0.14 0.213-0.215 0.017-0.632 0.009-1.265 0.009-1.953-0.967 0.631-1.86 1.213-2.777 1.812-2.165-1.795-4.327-3.587-6.516-5.403-2.183 1.809-4.351 3.607-6.513 5.4-0.935-0.608-1.828-1.189-2.791-1.816z"></path>
</svg>
