<!-- Generated by IcoMoon.io -->
<svg version="1.1" xmlns="http://www.w3.org/2000/svg" width="32" height="32" viewBox="0 0 32 32">
<title>dropbox_outline</title>
<path d="M31.131 7.862l-9.272-6.053-5.859 4.888-5.859-4.888-9.272 6.053 5.872 4.703-5.872 4.703 6.231 4.069v3.506l8.919 5.35 8.916-5.35v-3.531l6.197-4.044-5.872-4.703 5.872-4.703zM21.928 3l7.569 4.941-5.041 4.037-7.637-4.713 5.109-4.266zM23.578 12.566l-7.578 4.678-7.578-4.678 7.578-4.678 7.578 4.678zM2.503 7.941l7.569-4.941 5.109 4.266-7.638 4.713-5.041-4.037zM2.503 17.188l5.041-4.037 7.638 4.716-5.109 4.266-7.569-4.944zM23.975 24.3l-7.956 4.772-7.959-4.772v-2.337l2.084 1.359 5.856-4.887 5.859 4.891 2.119-1.384v2.359zM29.497 17.188l-7.569 4.944-5.109-4.262 7.637-4.716 5.041 4.034z"></path>
</svg>
