<!-- Generated by IcoMoon.io -->
<svg version="1.1" xmlns="http://www.w3.org/2000/svg" width="1024" height="1024" viewBox="0 0 1024 1024">
<title>dropdown_menu_select_option_form</title>
<g id="icomoon-ignore">
</g>
<path d="M631.582 640h-588.915c-11.793 0-21.333-9.54-21.333-21.333s9.54-21.333 21.333-21.333h588.915c11.793 0 21.333 9.54 21.333 21.333s-9.54 21.333-21.333 21.333z"></path>
<path d="M1002.667 640h-273.958c-11.793 0-21.333-9.54-21.333-21.333s9.54-21.333 21.333-21.333h252.625v-426.667h-938.667c-11.793 0-21.333-9.54-21.333-21.333s9.54-21.333 21.333-21.333h960c11.793 0 21.333 9.54 21.333 21.333v469.333c0 11.793-9.54 21.333-21.333 21.333z"></path>
<path d="M792.96 916.292v0c-11.251 0-21.751-6.084-27.375-15.791l-40.585-71.334-23.748 23.791c-16.917 16.917-49.459 6.498-53.419-16.998l-50.249-287.957c-1.626-9.207 0.875-18.543 6.835-25.626 11.123-13.231 32.499-14.938 45.419-3.209l219.998 197.585c8.998 8.166 12.54 20.373 9.335 31.957-3.251 11.584-12.54 20.207-24.333 22.498l-20.877 4.126 39.957 52.749c5.248 6.959 7.377 15.791 5.956 24.29-1.459 8.499-6.332 16.124-13.457 20.915l-55.834 37.623c-5.252 3.503-11.337 5.38-17.626 5.38zM729.707 772.958c0.96 0 1.873 0.085 2.833 0.209 6.626 0.875 12.416 4.791 15.71 10.581l48.418 85.082 36.169-24.333-53.5-70.583c-4.459-5.833-5.542-13.585-2.957-20.459 2.624-6.874 8.623-11.917 15.834-13.333l32.623-6.46-179.708-161.417 41.084 235.418 28.416-28.459c3.998-4.036 9.455-6.246 15.078-6.246z"></path>
<path d="M745.916 470.084v0c-10.79 0-21.043-5.21-27.375-13.956l-82.999-102.379c-10.082-13.645-9.25-31.147 1.25-43.042 6.042-7.561 16.585-11.584 25.459-11.584l167.334-0.021c12.791 0 24.29 7.002 30.042 18.27 5.79 11.418 4.749 25.353-2.709 35.52l-84.292 104.145c-5.666 7.838-15.876 13.047-26.709 13.047zM680.751 341.79l65.165 80.439 65.165-80.457-130.33 0.017z"></path>
<path d="M490.624 635.375c-11.793 0-21.333-9.54-21.333-21.333v-464.708c0-11.793 9.54-21.333 21.333-21.333s21.333 9.54 21.333 21.333v464.708c0 11.793-9.54 21.333-21.333 21.333z"></path>
</svg>
