<svg version="1.1" xmlns="http://www.w3.org/2000/svg" width="32" height="32" viewBox="0 0 32 32">
<title>dsl</title>
<path d="M30.072 16.759h-1.056c-2.363 0-2.856 1.834-2.856 3.491v6.522c0 3.772-1.622 5.041-4.159 5.041h-1.163v-1.447h0.953c1.622 0 2.784-0.706 2.784-3.703v-6.594c0-2.256 0.741-3.597 2.397-4.053-1.656-0.459-2.397-1.797-2.397-4.053v-6.556c0-2.997-1.163-3.703-2.784-3.703h-0.953v-1.444h1.128c2.572 0 4.191 1.269 4.191 5.075v6.453c0 1.656 0.494 3.525 2.856 3.525h1.056v1.447z"></path>
<path d="M1.928 15.313h1.056c2.362 0 2.856-1.834 2.856-3.491v-6.522c0-3.772 1.622-5.041 4.197-5.041h1.128v1.447h-0.953c-1.622 0-2.784 0.706-2.784 3.703v6.594c0 2.256-0.741 3.597-2.397 4.053 1.656 0.459 2.397 1.797 2.397 4.053v6.556c0 2.997 1.162 3.703 2.784 3.703h0.953v1.447h-1.128c-2.575 0-4.197-1.269-4.197-5.078v-6.453c0-1.656-0.494-3.525-2.856-3.525h-1.056v-1.447z"></path>
<path d="M10.941 15.075c0.991 0 1.731 0.744 1.731 1.731 0 0.991-0.744 1.731-1.731 1.731s-1.731-0.744-1.731-1.731c0-0.988 0.741-1.731 1.731-1.731z"></path>
<path d="M16 15.075c0.991 0 1.731 0.744 1.731 1.731 0 0.991-0.744 1.731-1.731 1.731s-1.731-0.744-1.731-1.731c0-0.988 0.741-1.731 1.731-1.731z"></path>
<path d="M21.059 15.075c0.991 0 1.731 0.744 1.731 1.731 0 0.991-0.744 1.731-1.731 1.731-0.991 0-1.731-0.744-1.731-1.731-0.003-0.988 0.741-1.731 1.731-1.731z"></path>
</svg>
