<!-- Generated by IcoMoon.io -->
<svg version="1.1" xmlns="http://www.w3.org/2000/svg" width="32" height="32" viewBox="0 0 32 32">
<title>dynamic_lookup_edit</title>
<path d="M0.904 30.528c0.25-0.001 0.477-0.103 0.64-0.267l7.416-7.413c1.386 1.116 3.168 1.791 5.107 1.791 4.517 0 8.178-3.661 8.178-8.178s-3.661-8.178-8.178-8.178c-4.517 0-8.178 3.661-8.178 8.178 0 1.939 0.675 3.721 1.803 5.123l-0.012-0.016-7.415 7.407c-0.164 0.166-0.265 0.393-0.265 0.645 0 0.249 0.099 0.475 0.261 0.64l-0-0c0.164 0.166 0.392 0.268 0.644 0.268 0 0 0 0 0 0h-0zM15.898 22.565c-0.398 0.126-0.863 0.217-1.342 0.255l-0.022 0.001-0.15 0.008h-0.073c-0.019 0-0.038 0-0.058 0h-0.075c-0.044 0-0.090 0-0.134 0-0.162 0-0.324-0.006-0.484-0.019-0.044 0-0.084-0.007-0.125-0.011h-0.044c-0.074-0.008-0.157-0.018-0.256-0.032l-0.035-0.006c-0.351-0.053-0.658-0.125-0.956-0.218l0.045 0.012v-2.872h3.708zM18.115 21.364c-0.033 0.028-0.064 0.056-0.1 0.082l-0.034 0.027-0.036 0.029q-0.049 0.038-0.096 0.073c-0.184 0.139-0.393 0.279-0.61 0.405l-0.030 0.016-0.006 0.003v-2.315h2.335c-0.138 0.234-0.271 0.431-0.413 0.62l0.012-0.017c-0.029 0.039-0.059 0.077-0.088 0.115-0.007 0.008-0.012 0.015-0.016 0.020-0.022 0.028-0.044 0.056-0.064 0.083-0.177 0.215-0.357 0.408-0.548 0.59l-0.003 0.003c-0.024 0.023-0.047 0.045-0.072 0.068l-0.108 0.098c-0.033 0.029-0.070 0.060-0.106 0.090zM10.883 21.996c-0.498-0.288-0.927-0.618-1.309-0.995l0.001 0.001c-0.009-0.011-0.018-0.021-0.028-0.031l-0-0-0.020-0.019v0.003c-0.313-0.316-0.594-0.665-0.838-1.041l-0.015-0.025c-0.031-0.049-0.061-0.097-0.090-0.145l-0.033-0.056h2.337zM7.973 18.38c-0.186-0.568-0.292-1.222-0.292-1.901 0-0.651 0.098-1.28 0.281-1.871l-0.012 0.045h2.936v3.727zM12.188 18.38v-3.724h3.708v3.727zM17.199 18.38v-3.724h2.933c0.171 0.547 0.269 1.177 0.269 1.829 0 0.678-0.106 1.331-0.302 1.943l0.012-0.045zM8.512 13.349c0.031-0.055 0.064-0.109 0.096-0.162 0.024-0.040 0.049-0.079 0.073-0.118l0.008-0.013c0.025-0.040 0.051-0.079 0.083-0.128 0.087-0.128 0.178-0.256 0.272-0.372 0.026-0.035 0.054-0.068 0.081-0.101l0.015-0.019c0.012-0.014 0.023-0.028 0.035-0.042l0.004-0.005c0.054-0.064 0.109-0.128 0.157-0.18 0.073-0.081 0.141-0.152 0.209-0.22 0.39-0.39 0.829-0.729 1.309-1.008l0.030-0.016v2.382zM12.189 13.349v-2.947c0.105-0.032 0.214-0.064 0.324-0.089 0.064-0.017 0.128-0.031 0.192-0.045l0.030-0.006 0.083-0.017c0.083-0.017 0.168-0.031 0.253-0.044 0.035-0.005 0.069-0.011 0.103-0.014 0.26-0.038 0.561-0.059 0.867-0.060h0c0.196 0 0.346 0.005 0.483 0.016 0.503 0.038 0.969 0.129 1.414 0.268l-0.045-0.012v2.948zM17.201 13.349v-2.382c0.035 0.020 0.070 0.040 0.108 0.064 0.052 0.031 0.104 0.064 0.155 0.099l0.018 0.011 0.081 0.052c0.064 0.044 0.131 0.091 0.195 0.136l0.026 0.019 0.020 0.014c0.075 0.055 0.145 0.111 0.205 0.158l0.033 0.026c0.071 0.058 0.149 0.124 0.237 0.202l0.027 0.024c0.064 0.064 0.141 0.128 0.227 0.216l0.019 0.019c0.077 0.077 0.152 0.157 0.225 0.239l0.012 0.012c0.076 0.086 0.152 0.174 0.223 0.264l0.020 0.026c0.029 0.037 0.058 0.074 0.086 0.111s0.055 0.074 0.082 0.111c0.064 0.083 0.124 0.175 0.198 0.289 0.028 0.043 0.054 0.085 0.080 0.128s0.049 0.081 0.071 0.12c0.005 0.010 0.010 0.019 0.016 0.027l-0-0.001 0.010 0.017z"></path>
<path d="M20.022 8.847c0.073 0.448 0.457 0.786 0.92 0.786 0.023 0 0.045-0.001 0.067-0.002l-0.003 0 0.051-0.005c0.464-0.062 0.818-0.456 0.818-0.932 0-0.038-0.002-0.076-0.007-0.113l0 0.004-0.456-3.683c0.143 0.093 0.278 0.182 0.406 0.284 2.757 2.202 4.582 5.284 5.138 8.68 0.060 0.367 0.1 0.752 0.128 1.077 0.038 0.449 0.411 0.799 0.866 0.8h0.12c0 0 0 0 0 0 0.481 0 0.872-0.39 0.872-0.872 0-0.024-0.001-0.048-0.003-0.072l0 0.003c-0.030-0.384-0.076-0.832-0.143-1.241-0.631-3.853-2.696-7.347-5.814-9.837-0.019-0.015-0.039-0.030-0.058-0.044l3.153-0.353c0.468-0.055 0.828-0.449 0.828-0.927 0-0.036-0.002-0.071-0.006-0.106l0 0.004c0-0.016-0.004-0.032-0.006-0.048-0.075-0.446-0.459-0.781-0.92-0.781-0.037 0-0.073 0.002-0.108 0.006l0.004-0-5.729 0.64c-0.253 0.029-0.472 0.157-0.62 0.342l-0.001 0.002-0.006 0.007c-0.124 0.156-0.199 0.357-0.199 0.575 0 0.041 0.003 0.082 0.008 0.121l-0-0.005 0.407 3.293 0.292 2.362c-0.003 0.012-0.001 0.022 0.001 0.033z"></path>
<path d="M21.211 25.162c-0.145-0.141-0.235-0.337-0.235-0.555 0-0.213 0.086-0.405 0.225-0.545l-0 0 5.807-5.821c0.401-0.379 0.944-0.612 1.541-0.612 0.569 0 1.089 0.212 1.485 0.561l-0.002-0.002 1.344 1.344c0.832 0.886 0.832 2.232 0 3.065l-5.764 5.764c-0.14 0.14-0.333 0.226-0.546 0.226-0.208 0-0.398-0.083-0.536-0.217l0 0z"></path>
<path d="M19.105 29.773l0.227-3.608c0.020-0.298 0.266-0.533 0.568-0.533 0.157 0 0.299 0.063 0.402 0.166v0l3.533 3.533c0.103 0.103 0.167 0.245 0.167 0.402 0 0.302-0.235 0.548-0.532 0.567l-0.002 0-3.608 0.228c-0.013 0.001-0.029 0.001-0.044 0.001-0.393 0-0.712-0.319-0.712-0.712 0-0.016 0-0.031 0.002-0.047l-0 0.002z"></path>
</svg>
