<svg version="1.1" xmlns="http://www.w3.org/2000/svg" width="32" height="32" viewBox="0 0 32 32">
<title>dynamic_lookup</title>
<path d="M0.996 32c0 0 0.001 0 0.001 0 0.277 0 0.527-0.113 0.708-0.294l8.162-8.167c1.52 1.224 3.473 1.964 5.599 1.964 4.951 0 8.964-4.014 8.964-8.964s-4.014-8.964-8.964-8.964c-4.951 0-8.964 4.014-8.964 8.964 0 1.541 0.389 2.992 1.074 4.259l-0.023-0.047c0.282 0.524 0.582 0.975 0.919 1.394l-0.014-0.017-8.166 8.163c-0.181 0.182-0.292 0.433-0.292 0.71 0 0.274 0.11 0.523 0.287 0.705l-0-0c0.18 0.183 0.431 0.296 0.708 0.296 0 0 0.001 0 0.001 0h-0zM17.508 23.232c-0.439 0.139-0.95 0.239-1.477 0.28l-0.024 0.002c-0.054 0.004-0.109 0.006-0.164 0.009h-0.226c-0.049 0-0.099 0-0.148 0-0.179 0-0.358-0.007-0.533-0.020-0.047-0.003-0.093-0.007-0.138-0.012h-0.049c-0.083-0.008-0.173-0.020-0.282-0.036l-0.039-0.006c-0.386-0.058-0.724-0.138-1.052-0.24l0.049 0.013v-3.164h4.083zM19.949 21.909c-0.036 0.031-0.073 0.064-0.11 0.090l-0.037 0.029c-0.013 0.011-0.027 0.022-0.041 0.033l-0.106 0.081c-0.202 0.153-0.432 0.306-0.671 0.446l-0.033 0.018-0.007 0.004v-2.552h2.571c-0.15 0.256-0.295 0.472-0.452 0.679l0.012-0.017c-0.032 0.043-0.064 0.085-0.097 0.128l-0.017 0.022c-0.024 0.031-0.049 0.064-0.074 0.092-0.195 0.237-0.393 0.45-0.603 0.65l-0.003 0.003-0.080 0.074-0.119 0.108c-0.037 0.032-0.077 0.064-0.117 0.099zM11.989 22.603c-0.548-0.318-1.021-0.681-1.443-1.096l0.001 0.001c-0.009-0.013-0.019-0.024-0.030-0.034l-0-0-0.023-0.020v0.003c-0.345-0.348-0.655-0.733-0.923-1.146l-0.017-0.028c-0.035-0.053-0.067-0.107-0.099-0.16-0.013-0.021-0.025-0.042-0.036-0.064h2.569zM8.784 18.624c-0.204-0.626-0.322-1.346-0.322-2.094 0-0.717 0.108-1.409 0.309-2.060l-0.013 0.049h3.231v4.105zM13.425 18.624v-4.108h4.083v4.108zM18.944 18.624v-4.108h3.23c0.188 0.603 0.296 1.296 0.296 2.015 0 0.746-0.117 1.465-0.333 2.14l0.014-0.050zM9.376 13.080c0.035-0.061 0.069-0.12 0.105-0.178 0.026-0.044 0.054-0.087 0.081-0.128l0.010-0.014c0.027-0.044 0.055-0.087 0.090-0.138 0.096-0.142 0.196-0.28 0.3-0.411 0.029-0.038 0.060-0.075 0.090-0.111l0.016-0.020c0.013-0.015 0.026-0.031 0.039-0.047l0.004-0.005c0.060-0.072 0.121-0.14 0.173-0.198 0.081-0.089 0.156-0.168 0.231-0.242 0.429-0.43 0.914-0.804 1.442-1.112l0.033-0.018v2.624zM13.425 13.080v-3.245c0.116-0.035 0.236-0.068 0.358-0.098 0.071-0.018 0.141-0.034 0.212-0.049l0.033-0.007 0.092-0.019q0.138-0.027 0.278-0.048c0.038-0.006 0.076-0.012 0.113-0.016 0.285-0.041 0.614-0.064 0.949-0.064 0.002 0 0.004 0 0.007 0h-0c0.216 0 0.38 0.005 0.532 0.017 0.553 0.043 1.066 0.143 1.556 0.297l-0.049-0.013v3.247zM18.945 13.080v-2.624c0.038 0.022 0.078 0.045 0.119 0.070 0.057 0.034 0.113 0.071 0.17 0.108l0.019 0.012c0.032 0.020 0.061 0.038 0.089 0.057 0.072 0.048 0.145 0.1 0.215 0.15l0.029 0.021 0.022 0.016c0.083 0.064 0.16 0.122 0.225 0.173l0.036 0.029c0.078 0.064 0.164 0.137 0.261 0.223l0.029 0.026c0.074 0.064 0.155 0.143 0.25 0.238l0.021 0.020c0.084 0.085 0.168 0.173 0.248 0.263l0.012 0.014c0.084 0.094 0.167 0.192 0.246 0.291l0.022 0.029c0.032 0.040 0.064 0.081 0.095 0.122s0.060 0.081 0.090 0.122c0.068 0.092 0.136 0.192 0.218 0.32 0.031 0.047 0.060 0.093 0.088 0.141s0.054 0.088 0.078 0.131c0.006 0.012 0.011 0.021 0.018 0.031l-0-0.001 0.011 0.019z"></path>
<path d="M22.049 8.123c0.079 0.493 0.502 0.866 1.012 0.866 0.026 0 0.051-0.001 0.076-0.003l-0.003 0c0.020 0 0.039 0 0.056-0.006 0.512-0.068 0.903-0.501 0.903-1.026 0-0.042-0.003-0.083-0.007-0.124l0 0.005-0.502-4.056c0.157 0.103 0.306 0.202 0.448 0.313 3.036 2.425 5.046 5.82 5.658 9.558 0.655 4.013-0.342 8.022-2.81 11.281l-0.289 0.361c-0.142 0.174-0.229 0.399-0.229 0.643 0 0.039 0.002 0.078 0.007 0.116l-0-0.005c0 0.017 0.004 0.034 0.007 0.051v0c0.045 0.259 0.18 0.48 0.372 0.633l0.002 0.002c0.174 0.135 0.395 0.217 0.636 0.217 0.32 0 0.606-0.144 0.796-0.371l0.001-0.002 0.077-0.075 0.007-0.009c2.288-2.833 3.672-6.478 3.672-10.446 0-0.964-0.082-1.909-0.239-2.828l0.014 0.099c-0.695-4.243-2.969-8.091-6.4-10.833-0.021-0.017-0.043-0.033-0.064-0.049l3.469-0.389c0.516-0.060 0.912-0.494 0.912-1.021 0-0.040-0.002-0.080-0.007-0.119l0 0.005c0-0.018-0.004-0.035-0.007-0.052-0.082-0.491-0.503-0.86-1.011-0.86-0.041 0-0.081 0.002-0.121 0.007l0.005-0-6.309 0.704c-0.28 0.031-0.522 0.171-0.686 0.376l-0.002 0.002-0.006 0.008c-0.138 0.172-0.221 0.394-0.221 0.634 0 0.044 0.003 0.088 0.008 0.13l-0.001-0.005 0.448 3.627 0.32 2.602c0.003 0.015 0.005 0.027 0.007 0.038z"></path>
</svg>
