<!-- Generated by IcoMoon.io -->
<svg version="1.1" xmlns="http://www.w3.org/2000/svg" width="32" height="32" viewBox="0 0 32 32">
<title>dynamic_lookup_2</title>
<path d="M22.587 28.016c-0.369 0-0.666 0.297-0.666 0.666v1.584c0 0.216-0.178 0.4-0.391 0.4h-19.722c-0.206 0-0.381-0.184-0.381-0.4v-28.525c0-0.222 0.175-0.406 0.381-0.406l14.778-0.009v4.675c0 0.369 0.297 0.666 0.666 0.666h4.666v2.084c0 0.369 0.297 0.666 0.666 0.666s0.666-0.297 0.666-0.666v-2.75c0-0.559-0.275-0.9-0.512-1.138l-4.416-4.356c-0.216-0.213-0.512-0.506-1.069-0.506h-15.444c-0.947 0-1.716 0.781-1.716 1.741v28.525c0 0.956 0.769 1.734 1.716 1.734h19.722c0.95 0 1.722-0.778 1.722-1.734v-1.584c0-0.366-0.297-0.666-0.666-0.666v0zM21.316 5.334h-3.397v-3.353l3.397 3.353z"></path>
<path d="M23.581 24.163v0 0z"></path>
<path d="M31.316 30.012l-6.794-6.794c1.047-1.256 1.675-2.869 1.675-4.628 0-3.997-3.25-7.247-7.247-7.247-0.153 0-0.303 0.006-0.453 0.016v-0.441c0-0.428-0.347-0.775-0.775-0.775h-12.697c-0.428 0-0.775 0.347-0.775 0.775v15.381c0 0.428 0.347 0.775 0.775 0.775h12.7c0.428 0 0.775-0.347 0.775-0.775v-0.478c0.15 0.009 0.303 0.016 0.456 0.016 1.759 0 3.372-0.628 4.628-1.675l6.791 6.794c0.131 0.131 0.3 0.197 0.472 0.197s0.341-0.066 0.472-0.197c0.256-0.262 0.256-0.684-0.003-0.944v0zM14.591 11.694h2.141c-0.778 0.253-1.503 0.631-2.141 1.116v-1.116zM9.772 11.694h3.266v2.297h-3.266v-2.297zM9.772 15.537h2.609c-0.331 0.709-0.55 1.484-0.634 2.297h-1.975v-2.297zM9.772 19.384h1.978c0.088 0.813 0.313 1.584 0.647 2.294h-2.628v-2.294h0.003zM5.797 11.694h2.425v2.297h-2.425v-2.297zM5.797 15.537h2.425v2.297h-2.425v-2.297zM5.797 19.384h2.425v2.294h-2.425v-2.294zM8.225 25.525h-2.425v-2.297h2.425v2.297zM13.037 25.525h-3.266v-2.297h3.266v2.297zM14.588 25.525v-1.156c0.672 0.509 1.437 0.903 2.263 1.156h-2.262zM23.15 22.75c-0.006 0.006-0.016 0.012-0.022 0.019s-0.012 0.016-0.019 0.022c-1.069 1.056-2.541 1.712-4.159 1.712-0.153 0-0.303-0.006-0.453-0.016-0.541-0.041-1.059-0.156-1.55-0.331-0.606-0.219-1.166-0.534-1.659-0.925-1.369-1.084-2.25-2.759-2.25-4.637 0-1.856 0.863-3.516 2.206-4.6 0.506-0.409 1.084-0.738 1.706-0.963 0.491-0.178 1.009-0.291 1.55-0.331 0.15-0.012 0.3-0.016 0.453-0.016v0c3.262 0 5.912 2.653 5.912 5.912-0.003 1.616-0.656 3.084-1.716 4.153z"></path>
<path d="M27.837 1.691c-0.113-0.113-0.244-0.203-0.363-0.313h3.297c0.381 0 0.688-0.306 0.688-0.688s-0.306-0.688-0.688-0.688l-5.219-0.003c-0.184 0-0.356 0.072-0.488 0.203 0 0-0.003 0.003-0.003 0.003-0.128 0.131-0.203 0.306-0.2 0.491l0.059 5.159c0.006 0.381 0.316 0.684 0.697 0.681 0.381-0.006 0.684-0.316 0.681-0.697l-0.044-3.7c0.2 0.178 0.416 0.337 0.606 0.525 4.866 4.866 5.141 12.541 0.425 17.503l-0.272 0.272c-0.134 0.134-0.203 0.309-0.203 0.484 0 0.178 0.069 0.35 0.203 0.484 0.269 0.262 0.703 0.262 0.972-0.003v0l0.069-0.053c5.463-5.481 5.256-14.188-0.219-19.663z"></path>
</svg>
