<!-- Generated by IcoMoon.io -->
<svg version="1.1" xmlns="http://www.w3.org/2000/svg" width="32" height="32" viewBox="0 0 32 32">
<title>dynamic_lookup_edit_2</title>
<path d="M22.587 28.016c-0.369 0-0.666 0.297-0.666 0.666v1.584c0 0.216-0.178 0.4-0.391 0.4h-19.722c-0.206 0-0.381-0.184-0.381-0.4v-28.525c0-0.222 0.175-0.406 0.381-0.406l14.778-0.009v4.675c0 0.369 0.297 0.666 0.666 0.666h4.666v2.084c0 0.369 0.297 0.666 0.666 0.666s0.666-0.297 0.666-0.666v-2.75c0-0.559-0.275-0.9-0.512-1.138l-4.416-4.356c-0.216-0.213-0.512-0.506-1.069-0.506h-15.444c-0.947 0-1.716 0.781-1.716 1.741v28.525c0 0.956 0.769 1.734 1.716 1.734h19.722c0.95 0 1.722-0.778 1.722-1.734v-1.584c0-0.366-0.297-0.666-0.666-0.666v0 0zM21.316 5.334h-3.397v-3.353l3.397 3.353z"></path>
<path d="M23.581 24.163v0 0z"></path>
<path d="M30.597 30.012l-6.794-6.794c1.047-1.256 1.675-2.869 1.675-4.628 0-3.997-3.25-7.247-7.247-7.247-0.153 0-0.303 0.006-0.453 0.016v-0.441c0-0.428-0.347-0.775-0.775-0.775h-12.697c-0.428 0-0.775 0.347-0.775 0.775v15.381c0 0.428 0.347 0.775 0.775 0.775h12.7c0.428 0 0.775-0.347 0.775-0.775v-0.478c0.15 0.009 0.303 0.016 0.456 0.016 1.759 0 3.372-0.628 4.628-1.675l6.791 6.794c0.131 0.131 0.3 0.197 0.472 0.197s0.341-0.066 0.472-0.197c0.256-0.262 0.256-0.684-0.003-0.944v0 0zM13.872 11.694h2.141c-0.778 0.253-1.503 0.631-2.141 1.116v-1.116zM9.053 11.694h3.266v2.297h-3.266v-2.297zM9.053 15.537h2.609c-0.331 0.709-0.55 1.484-0.634 2.297h-1.975v-2.297zM9.053 19.384h1.978c0.088 0.813 0.313 1.584 0.647 2.294h-2.628v-2.294h0.003zM5.078 11.694h2.425v2.297h-2.425v-2.297zM5.078 15.537h2.425v2.297h-2.425v-2.297zM5.078 19.384h2.425v2.294h-2.425v-2.294zM7.506 25.525h-2.425v-2.297h2.425v2.297zM12.319 25.525h-3.266v-2.297h3.266v2.297zM13.869 25.525v-1.156c0.672 0.509 1.438 0.903 2.263 1.156h-2.262zM22.431 22.75c-0.006 0.006-0.016 0.012-0.022 0.019s-0.012 0.016-0.019 0.022c-1.069 1.056-2.541 1.712-4.159 1.712-0.153 0-0.303-0.006-0.453-0.016-0.541-0.041-1.059-0.156-1.55-0.331-0.606-0.219-1.166-0.534-1.659-0.925-1.369-1.084-2.25-2.759-2.25-4.637 0-1.856 0.863-3.516 2.206-4.6 0.506-0.409 1.084-0.738 1.706-0.963 0.491-0.178 1.009-0.291 1.55-0.331 0.15-0.012 0.3-0.016 0.453-0.016v0c3.262 0 5.912 2.653 5.912 5.912-0.003 1.616-0.656 3.084-1.716 4.153z"></path>
<path d="M31.006 4.131l-3.303-0.003c-0.494 0-0.922 0.447-0.925 0.978l-0.009 15.031v0.003c0 0.041 0.003 0.072 0.034 0.169 0.006 0.019 0.012 0.034 0.019 0.053 0.116 0.306 0.481 1.119 1.656 3.703 0.116 0.231 0.328 0.409 0.584 0.488 0.266 0.081 0.553 0.050 0.788-0.087 0.159-0.094 0.291-0.231 0.384-0.416 1.719-3.741 1.719-3.756 1.719-3.906l0.006-15.034c0-0.278-0.113-0.534-0.316-0.722-0.172-0.162-0.406-0.256-0.637-0.256v0zM30.619 20.669c-0.081 0.181-0.175 0.384-0.275 0.606h-1.969c-0.1-0.222-0.191-0.425-0.272-0.606h2.516zM29.356 23.441c-0.153-0.341-0.328-0.725-0.503-1.109h1.009c-0.178 0.387-0.353 0.772-0.506 1.109v0zM30.9 19.613h-0.663l0.006-12.537c0-0.291-0.238-0.528-0.528-0.528s-0.528 0.234-0.528 0.528l-0.006 12.537h-1.356l0.009-14.431 3.072-0.072-0.006 14.503z"></path>
<path d="M30.459 0h-2.206c-0.406 0-0.781 0.156-1.059 0.438-0.266 0.269-0.413 0.634-0.416 1.003v1.184c0 0.291 0.238 0.528 0.528 0.528s0.528-0.234 0.528-0.528l0.003-1.184c0-0.097 0.041-0.191 0.113-0.262 0.053-0.056 0.15-0.122 0.306-0.122h2.206c0.266 0 0.453 0.203 0.453 0.384l-0.009 1.188c0 0.291 0.238 0.528 0.528 0.528 0.097 0 0.184-0.025 0.262-0.072 0.156-0.091 0.266-0.263 0.266-0.456l0.003-1.184c0-0.781-0.691-1.444-1.506-1.444v0z"></path>
</svg>
