<svg version="1.1" xmlns="http://www.w3.org/2000/svg" width="32" height="32" viewBox="0 0 32 32">
<title>elevator_up_down</title>
<path d="M21.982 27.161c-0.369 0-0.667-0.298-0.667-0.667v-7.828c0-0.369 0.298-0.667 0.667-0.667s0.667 0.298 0.667 0.667v7.828c0 0.369-0.298 0.667-0.667 0.667z"></path>
<path d="M22.038 27.161c-0.18 0-0.352-0.072-0.477-0.201l-3.664-3.742c-0.258-0.263-0.253-0.685 0.010-0.943 0.263-0.257 0.687-0.254 0.943 0.010l3.187 3.255 3.186-3.255c0.257-0.264 0.682-0.267 0.943-0.010 0.263 0.258 0.268 0.68 0.010 0.943l-3.663 3.742c-0.125 0.129-0.297 0.201-0.476 0.201z"></path>
<path d="M21.982 14c-0.369 0-0.667-0.298-0.667-0.667v-7.582c0-0.369 0.298-0.667 0.667-0.667s0.667 0.298 0.667 0.667v7.582c0 0.369-0.298 0.667-0.667 0.667z"></path>
<path d="M25.701 10.16c-0.173 0-0.346-0.067-0.477-0.201l-3.186-3.255-3.187 3.255c-0.255 0.264-0.68 0.269-0.943 0.010-0.263-0.258-0.268-0.68-0.010-0.943l3.664-3.742c0.125-0.128 0.297-0.201 0.477-0.201v0c0.18 0 0.352 0.072 0.477 0.201l3.663 3.742c0.258 0.263 0.253 0.685-0.010 0.943-0.129 0.127-0.298 0.19-0.466 0.19z"></path>
<path d="M28.146 32h-24.328c-2.115 0-3.836-1.721-3.836-3.836v-24.327c0-2.115 1.721-3.837 3.836-3.837h24.328c2.115 0 3.836 1.721 3.836 3.837v24.327c-0 2.115-1.721 3.836-3.836 3.836zM3.818 1.333c-1.38 0-2.503 1.123-2.503 2.503v24.327c0 1.38 1.122 2.503 2.503 2.503h24.328c1.38 0 2.503-1.122 2.503-2.503v-24.327c-0-1.38-1.123-2.503-2.503-2.503h-24.328z"></path>
<path d="M9.962 27.825c-0.369 0-0.667-0.298-0.667-0.667v-7.818c0-0.369 0.298-0.667 0.667-0.667s0.667 0.298 0.667 0.667v7.818c0 0.369-0.298 0.667-0.667 0.667z"></path>
<path d="M9.962 8.714c-1.27 0-2.081-1.503-2.081-2.538 0-1.148 0.934-2.081 2.081-2.081s2.081 0.934 2.081 2.081c0 1.035-0.811 2.538-2.081 2.538zM9.962 5.428c-0.412 0-0.747 0.335-0.747 0.748 0 0.547 0.459 1.205 0.747 1.205s0.748-0.658 0.748-1.205c0-0.413-0.335-0.748-0.748-0.748z"></path>
<path d="M11.793 27.825c-0.013 0-0.026 0-0.039-0.001-0.368-0.021-0.648-0.336-0.627-0.703l0.56-9.707c0.010-0.18 0.115-0.397 0.251-0.516 0.137-0.119 0.29-0.169 0.437-0.186 0.143-4.411-0.069-5.965-0.193-6.482-0.064-0.002-0.132-0.005-0.196-0.007l-0.318-0.015c-0.283 0.621-0.947 0.995-1.705 0.995s-1.423-0.375-1.734-0.98l-0.288-0.001c-0.064 0.003-0.132 0.006-0.197 0.008-0.124 0.517-0.336 2.074-0.193 6.484 0.155 0.018 0.303 0.068 0.436 0.184 0.139 0.12 0.245 0.342 0.253 0.526l0.558 9.697c0.021 0.367-0.26 0.682-0.627 0.703-0.362 0.036-0.683-0.259-0.704-0.628l-0.527-9.143c-0.161-0.016-0.314-0.065-0.451-0.185-0.139-0.121-0.243-0.34-0.249-0.523-0.281-7.494 0.356-8.031 0.628-8.26 0.074-0.063 0.161-0.108 0.255-0.133 0.107-0.029 0.215-0.038 0.763-0.061l0.288-0.013c0.507-0.023 0.99 0.249 1.241 0.736 0.197 0.38 0.901 0.38 1.098 0 0.252-0.486 0.737-0.774 1.241-0.736l0.288 0.013c0.547 0.023 0.655 0.031 0.762 0.061 0.092 0.025 0.178 0.070 0.252 0.131 0.273 0.228 0.912 0.762 0.631 8.262-0.007 0.184-0.11 0.402-0.249 0.523-0.142 0.124-0.301 0.172-0.452 0.187l-0.527 9.141c-0.020 0.355-0.315 0.629-0.665 0.629z"></path>
</svg>
