<!-- Generated by IcoMoon.io -->
<svg version="1.1" xmlns="http://www.w3.org/2000/svg" width="32" height="32" viewBox="0 0 32 32">
<title>email_mail_post_unread</title>
<path d="M28.9 13.9c-0.6 0-1 0.4-1 1v8.6c0 0.8-0.7 1.5-1.5 1.5h-20.9c-0.8 0-1.5-0.7-1.5-1.5v-15c0-0.8 0.7-1.5 1.5-1.5h14.5c0.6 0 1-0.4 1-1s-0.4-1-1-1h-14.5c-1.9 0-3.5 1.6-3.5 3.5v15c0 1.9 1.6 3.5 3.5 3.5h20.9c1.9 0 3.5-1.6 3.5-3.5v-8.6c0-0.5-0.4-1-1-1z"></path>
<path d="M16 15.7l-8.4-6.5c-0.4-0.3-1.1-0.3-1.4 0.2-0.3 0.4-0.2 1.1 0.2 1.4l9 7c0.2 0.1 0.4 0.2 0.6 0.2s0.4-0.1 0.6-0.2l5.4-4.1c0.4-0.3 0.5-1 0.2-1.4s-1-0.5-1.4-0.2l-4.8 3.6z"></path>
<path d="M27 12c2.2 0 4-1.8 4-4s-1.8-4-4-4c-2.2 0-4 1.8-4 4s1.8 4 4 4z"></path>
</svg>
