<!-- Generated by IcoMoon.io -->
<svg version="1.1" xmlns="http://www.w3.org/2000/svg" width="32" height="32" viewBox="0 0 32 32">
<title>email_mail_post_open</title>
<path d="M28 9.8l-10.9-5.4c-0.7-0.3-1.6-0.3-2.3 0 0 0 0 0 0 0l-10.8 5.4c-1.2 0.6-2 1.8-2 3.2v11.5c0 1.9 1.6 3.5 3.5 3.5h20.9c1.9 0 3.5-1.6 3.5-3.5v-11.5c0.1-1.4-0.6-2.6-1.9-3.2zM27.4 11.1c0 0 0 0 0 0v0zM15.8 6.2c0 0 0 0 0 0 0.2-0.1 0.3-0.1 0.5 0l10.6 5.2-7.7 5.8-1.8-1.4c-0.9-0.7-2.2-0.7-3.1 0 0 0 0 0 0 0l-1.8 1.4-7.6-5.7 10.9-5.3zM26.5 26h-21c-0.8 0-1.5-0.7-1.5-1.5v-11.1l6.9 5.2-4.7 3.6c-0.4 0.3-0.5 1-0.2 1.4s1 0.5 1.4 0.2l8.1-6.3c0 0 0 0 0 0 0.1-0.1 0.5-0.1 0.6 0l8.1 6.3c0.2 0.1 0.4 0.2 0.6 0.2 0.3 0 0.6-0.1 0.8-0.4 0.3-0.4 0.3-1.1-0.2-1.4l-4.7-3.6 7.2-5.5v11.4c0.1 0.8-0.6 1.5-1.4 1.5z"></path>
</svg>
