<!-- Generated by IcoMoon.io -->
<svg version="1.1" xmlns="http://www.w3.org/2000/svg" width="32" height="32" viewBox="0 0 32 32">
<title>email_mail_post_send</title>
<path d="M17.24 23.829c-0.401 0-0.777-0.156-1.061-0.44l-7.732-7.732c-0.585-0.585-0.585-1.538-0.001-2.124l12.981-12.981c0.568-0.568 1.557-0.567 2.125-0.001l7.732 7.732c0.585 0.586 0.585 1.538 0 2.124l-12.981 12.981c-0.285 0.284-0.661 0.44-1.063 0.44zM21.897 1.024l0.471 0.471-12.98 12.98c-0.066 0.066-0.066 0.173 0 0.239l7.851 7.782c0.033 0 0.079-0.009 0.121-0.051l12.979-12.979c0.065-0.066 0.065-0.173 0-0.24l-7.732-7.731-0.711-0.471z"></path>
<path d="M8.68 15.182c-0.305 0-0.579-0.21-0.65-0.519-0.081-0.359 0.144-0.716 0.503-0.797l10.809-2.447 2.415-10.777c0.082-0.359 0.436-0.583 0.797-0.505 0.359 0.080 0.585 0.437 0.505 0.796l-2.508 11.188c-0.057 0.251-0.253 0.447-0.504 0.505l-11.22 2.54c-0.049 0.011-0.099 0.016-0.148 0.016z"></path>
<path d="M0.803 25.516c-0.171 0-0.341-0.065-0.471-0.195-0.26-0.26-0.26-0.682 0-0.943l6.533-6.534c0.26-0.26 0.682-0.26 0.943 0s0.26 0.682 0 0.943l-6.533 6.534c-0.13 0.13-0.301 0.195-0.471 0.195z"></path>
<path d="M5.701 26.111c-0.171 0-0.341-0.065-0.471-0.195-0.26-0.26-0.26-0.682 0-0.943l4.383-4.383c0.26-0.26 0.682-0.26 0.943 0s0.26 0.682 0 0.943l-4.383 4.383c-0.13 0.13-0.301 0.195-0.471 0.195z"></path>
<path d="M10.638 26.665c-0.171 0-0.341-0.065-0.471-0.195-0.26-0.26-0.26-0.682 0-0.943l2.191-2.191c0.26-0.26 0.682-0.26 0.943 0s0.26 0.682 0 0.943l-2.191 2.191c-0.13 0.13-0.301 0.195-0.471 0.195z"></path>
</svg>
