<svg version="1.1" xmlns="http://www.w3.org/2000/svg" width="32" height="32" viewBox="0 0 32 32">
<title>email_mail_post_card2</title>
<path d="M15.852 18.523c-0.676 0-1.352-0.237-1.879-0.71l-10.57-9.505c-0.273-0.246-0.296-0.667-0.049-0.941s0.669-0.294 0.941-0.049l10.569 9.503c0.544 0.488 1.43 0.49 1.975 0l10.569-9.503c0.271-0.246 0.694-0.226 0.941 0.049 0.246 0.274 0.224 0.695-0.051 0.941l-10.569 9.505c-0.526 0.473-1.202 0.71-1.878 0.71z"></path>
<path d="M27.855 24.857c-0.151 0-0.302-0.051-0.426-0.154l-7.081-5.889c-0.284-0.236-0.322-0.656-0.087-0.939 0.238-0.284 0.659-0.32 0.939-0.087l7.081 5.889c0.284 0.236 0.322 0.656 0.087 0.939-0.133 0.159-0.322 0.241-0.513 0.241z"></path>
<path d="M3.85 24.857c-0.191 0-0.381-0.082-0.513-0.241-0.236-0.283-0.197-0.703 0.086-0.939l7.081-5.889c0.285-0.236 0.704-0.197 0.939 0.087 0.236 0.283 0.197 0.703-0.086 0.939l-7.081 5.889c-0.124 0.103-0.276 0.154-0.426 0.154z"></path>
<path d="M28.201 28h-24.411c-2.125 0-3.79-1.633-3.79-3.717v-16.561c0-2.087 1.665-3.721 3.79-3.721h24.411c2.095 0 3.799 1.669 3.799 3.721v16.561c0 2.049-1.704 3.717-3.799 3.717zM3.79 5.333c-1.378 0-2.456 1.049-2.456 2.388v16.561c0 1.337 1.079 2.384 2.456 2.384h24.411c1.383 0 2.466-1.047 2.466-2.384v-16.561c0-1.339-1.083-2.388-2.466-2.388h-24.411z"></path>
</svg>
