<svg version="1.1" xmlns="http://www.w3.org/2000/svg" width="32" height="32" viewBox="0 0 32 32">
<title>email_attachment</title>
<path d="M31.333 32h-30.667c-0.369 0-0.667-0.298-0.667-0.667v-17.352c0-0.369 0.298-0.667 0.667-0.667h6.667c0.369 0 0.667 0.298 0.667 0.667s-0.298 0.667-0.667 0.667h-6v16.018h29.333v-16.016l-6 0.016c-0.367 0-0.665-0.297-0.667-0.665-0.001-0.369 0.297-0.667 0.665-0.669l6.668-0.018c0.177 0 0.346 0.070 0.471 0.195s0.195 0.295 0.195 0.472v17.352c0 0.369-0.298 0.667-0.667 0.667z"></path>
<path d="M24.667 18.624c-0.369 0-0.667-0.298-0.667-0.667v-9.421l-3.167-3.203h-12.751l-0.083 12.624c0 0.369-0.298 0.667-0.667 0.667s-0.667-0.298-0.667-0.667v-12.579c0-0.785 0.609-1.378 1.416-1.378h12.684c0.401 0 0.749 0.133 1.005 0.385l3.172 3.147c0.258 0.256 0.389 0.594 0.389 1.004v9.421c0 0.368-0.298 0.667-0.667 0.667z"></path>
<path d="M14 15.93c-1.807 0-3.333-1.479-3.333-3.231v-4.033c0-0.369 0.298-0.667 0.667-0.667s0.667 0.298 0.667 0.667v4.033c0 1.029 0.916 1.897 2 1.897s2-0.869 2-1.897v-9.909c0-0.669-0.623-1.256-1.333-1.256s-1.333 0.587-1.333 1.257v1.876c0 0.369-0.298 0.667-0.667 0.667s-0.667-0.298-0.667-0.667v-1.876c0-1.404 1.221-2.59 2.667-2.59s2.667 1.186 2.667 2.589v9.909c0 1.751-1.527 3.231-3.333 3.231z"></path>
<path d="M24.667 9.333h-4.010c-0.369 0-0.667-0.298-0.667-0.667v-4c0-0.369 0.298-0.667 0.667-0.667s0.667 0.298 0.667 0.667v3.333h3.344c0.369 0 0.667 0.298 0.667 0.667s-0.298 0.667-0.667 0.667z"></path>
<path d="M15.975 23.853c-0.119 0-0.238-0.031-0.344-0.095l-15.308-9.204c-0.315-0.19-0.417-0.6-0.228-0.915s0.6-0.417 0.915-0.228l14.965 8.999 15.016-8.999c0.313-0.189 0.724-0.088 0.914 0.229 0.19 0.316 0.087 0.725-0.229 0.914l-15.358 9.204c-0.105 0.064-0.224 0.095-0.343 0.095z"></path>
</svg>
