<svg version="1.1" xmlns="http://www.w3.org/2000/svg" width="32" height="32" viewBox="0 0 32 32">
<title>email_mail_post_card_sent_successful</title>
<path d="M15.856 18.523c-0.676 0-1.352-0.237-1.879-0.71l-10.57-9.505c-0.273-0.246-0.296-0.667-0.049-0.941s0.667-0.294 0.941-0.049l10.569 9.503c0.544 0.49 1.431 0.49 1.975 0l10.569-9.503c0.271-0.246 0.694-0.226 0.941 0.049 0.246 0.274 0.224 0.695-0.051 0.941l-10.569 9.505c-0.526 0.473-1.202 0.71-1.878 0.71z"></path>
<path d="M3.855 24.857c-0.191 0-0.381-0.082-0.513-0.241-0.236-0.283-0.197-0.703 0.086-0.939l7.080-5.889c0.283-0.236 0.703-0.197 0.939 0.087 0.236 0.283 0.197 0.703-0.086 0.939l-7.080 5.889c-0.124 0.103-0.276 0.154-0.426 0.154z"></path>
<path d="M28.096 28c-0.369 0-0.667-0.298-0.667-0.667s0.298-0.667 0.667-0.667c1.396 0 2.574-1.091 2.574-2.384v-16.561c0-1.339-1.083-2.388-2.466-2.388h-24.411c-1.378 0-2.456 1.049-2.456 2.388v16.561c0 1.337 1.079 2.384 2.456 2.384h12.628c0.369 0 0.667 0.298 0.667 0.667s-0.298 0.667-0.667 0.667h-12.628c-2.125 0-3.79-1.633-3.79-3.717v-16.561c0-2.087 1.665-3.721 3.79-3.721h24.411c2.095 0 3.799 1.669 3.799 3.721v16.561c0 2.049-1.753 3.717-3.907 3.717z"></path>
<path d="M22.258 31.772c-3.897 0-7.068-3.171-7.068-7.069s3.171-7.069 7.068-7.069c3.898 0 7.069 3.171 7.069 7.069s-3.171 7.069-7.069 7.069zM22.258 18.967c-3.163 0-5.736 2.573-5.736 5.736s2.573 5.736 5.736 5.736 5.736-2.573 5.736-5.736-2.573-5.736-5.736-5.736z"></path>
<path d="M21.214 27.849c-0.16 0-0.322-0.057-0.448-0.173l-1.529-1.387c-0.272-0.247-0.293-0.669-0.046-0.941 0.249-0.272 0.671-0.292 0.941-0.046l1.091 0.99 3.74-3.234c0.277-0.24 0.698-0.211 0.94 0.068 0.241 0.279 0.211 0.699-0.068 0.94l-4.186 3.621c-0.125 0.109-0.281 0.163-0.436 0.163z"></path>
</svg>
