<!-- Generated by IcoMoon.io -->
<svg version="1.1" xmlns="http://www.w3.org/2000/svg" width="32" height="32" viewBox="0 0 32 32">
<title>email_mail_post_open</title>
<path fill="none" stroke-linejoin="round" stroke-linecap="round" stroke-miterlimit="4" stroke-width="2" stroke="#000" d="M27.6 10.726l-10.921-5.39c-0.198-0.1-0.432-0.158-0.679-0.158s-0.481 0.059-0.688 0.162l0.009-0.004-10.921 5.39c-0.833 0.415-1.396 1.259-1.4 2.236v11.539c0 1.381 1.134 2.5 2.533 2.5h20.938c1.399 0 2.532-1.119 2.532-2.5v-11.538c-0.004-0.977-0.568-1.822-1.388-2.23l-0.015-0.007z"></path>
<path fill="none" stroke-linejoin="round" stroke-linecap="round" stroke-miterlimit="4" stroke-width="2" stroke="#000" d="M24.833 23l-8.079-6.284c-0.251-0.197-0.572-0.316-0.921-0.316s-0.669 0.119-0.924 0.318l0.003-0.002-8.079 6.284M19.333 18.438l8.5-6.438M3.833 12l8.688 6.563"></path>
</svg>
