<svg version="1.1" xmlns="http://www.w3.org/2000/svg" width="32" height="32" viewBox="0 0 32 32">
<title>email_mail_post_open</title>
<path d="M30.212 30.667h-28.367c-1.001 0-1.846-0.775-1.846-1.691v-16.954c0-0.517 0.29-1.034 0.775-1.383l14.248-10.205c0.592-0.426 1.441-0.426 2.035 0.001l14.199 10.204c0.465 0.337 0.742 0.854 0.742 1.383v16.972c0 0.809-0.719 1.673-1.788 1.673zM16.040 1.441c-0.088 0-0.171 0.026-0.24 0.075l-14.248 10.205c-0.151 0.109-0.219 0.241-0.219 0.3v16.954c0 0.156 0.249 0.358 0.512 0.358h28.367c0.315 0 0.454-0.246 0.454-0.34v-16.972c0-0.099-0.075-0.22-0.189-0.301l-14.198-10.203c-0.069-0.050-0.151-0.076-0.24-0.076z"></path>
<path d="M16.030 21.086c-0.109 0-0.217-0.026-0.316-0.079l-15.374-8.279c-0.324-0.175-0.446-0.579-0.271-0.903 0.174-0.325 0.581-0.445 0.903-0.272l15.057 8.108 14.924-8.107c0.319-0.175 0.728-0.057 0.904 0.268s0.056 0.729-0.268 0.904l-15.241 8.279c-0.099 0.053-0.208 0.081-0.317 0.081z"></path>
</svg>
