<!-- Generated by IcoMoon.io -->
<svg version="1.1" xmlns="http://www.w3.org/2000/svg" width="32" height="32" viewBox="0 0 32 32">
<title>email_mail_post_card_sent_successful</title>
<path d="M3.025 6.025c0.656-0.656 1.547-1.025 2.475-1.025h14.5c0.552 0 1 0.448 1 1s-0.448 1-1 1h-14.5c-0.398 0-0.779 0.158-1.061 0.439s-0.439 0.663-0.439 1.061v15c0 0.398 0.158 0.779 0.439 1.061s0.663 0.439 1.061 0.439h20.921c0.398 0 0.779-0.158 1.061-0.439s0.439-0.663 0.439-1.061v-8.563c0-0.552 0.448-1 1-1s1 0.448 1 1v8.563c0 0.928-0.369 1.819-1.025 2.475s-1.547 1.025-2.475 1.025h-20.921c-0.928 0-1.819-0.369-2.475-1.025s-1.025-1.547-1.025-2.475v-15c0-0.928 0.369-1.819 1.025-2.475zM6.211 9.386c0.339-0.436 0.967-0.514 1.403-0.175l8.395 6.53 4.826-3.643c0.441-0.333 1.068-0.245 1.401 0.196s0.245 1.068-0.196 1.401l-5.438 4.104c-0.361 0.272-0.86 0.269-1.216-0.009l-9-7c-0.436-0.339-0.514-0.967-0.175-1.403zM31.271 6.52c0.287-0.322 0.259-0.816-0.063-1.103s-0.816-0.259-1.103 0.063l-3.964 4.447-1.715-1.702c-0.306-0.304-0.801-0.302-1.105 0.004s-0.302 0.801 0.004 1.105l2.3 2.283c0.152 0.151 0.36 0.233 0.574 0.226s0.417-0.101 0.559-0.261l4.512-5.063z"></path>
</svg>
