<!-- Generated by IcoMoon.io -->
<svg version="1.1" xmlns="http://www.w3.org/2000/svg" width="32" height="32" viewBox="0 0 32 32">
<title>email_at_sign</title>
<path d="M25.5 7.2c-2-2.2-5-3.3-8.6-3.3-6.6 0-12.4 5.3-13 11.9-0.3 3.2 0.7 6.3 2.8 8.6s5 3.5 8.2 3.5c2 0 3.4-0.1 5.3-1 0.5-0.2 0.7-0.8 0.5-1.3s-0.8-0.7-1.3-0.5c-1.7 0.7-2.7 0.8-4.6 0.8-2.6 0-5-1-6.7-2.9s-2.5-4.4-2.3-7c0.5-5.6 5.4-10.1 11-10.1 3 0 5.5 0.9 7.1 2.7 1.5 1.7 2.2 4 2 6.7-0.2 2.3-1.1 3.5-1.8 4s-1.4 0.6-1.8 0.6c-1.1-0.2-1.7-1.3-1.5-2.9l0.5-6c0-0.6-0.4-1-0.9-1.1-0.6 0-1 0.4-1.1 0.9l-0.1 0.6c-1-1-2.2-1.5-3.6-1.5-3 0-5.6 2.6-5.8 5.9-0.2 1.7 0.4 3.4 1.4 4.5 0.9 1 2.2 1.5 3.6 1.5 1.8 0 3.4-0.8 4.5-2 0.6 1.2 1.7 1.8 2.7 2 1.1 0.2 2.3-0.2 3.3-1s2.3-2.4 2.6-5.4c0.4-3.2-0.5-6.1-2.4-8.2zM15 19.9c-0.8 0-1.5-0.3-2.1-0.9-0.7-0.7-1-1.8-0.9-3 0.2-2.3 1.9-4.1 3.9-4.1 0.9 0 1.7 0.4 2.2 1 0.7 0.7 1 1.8 0.9 2.9-0.2 2.8-2.2 4.1-4 4.1z"></path>
</svg>
