<svg version="1.1" xmlns="http://www.w3.org/2000/svg" width="32" height="32" viewBox="0 0 32 32">
<title>email_mail_post_at</title>
<path d="M15.86 18.523c-0.676 0-1.352-0.237-1.878-0.71l-10.57-9.505c-0.273-0.246-0.296-0.667-0.049-0.941s0.668-0.294 0.941-0.049l10.57 9.503c0.544 0.49 1.43 0.49 1.975 0l10.57-9.503c0.271-0.246 0.694-0.226 0.941 0.049 0.246 0.274 0.224 0.695-0.051 0.941l-10.57 9.505c-0.526 0.473-1.202 0.71-1.878 0.71z"></path>
<path d="M3.859 24.857c-0.191 0-0.381-0.082-0.513-0.241-0.236-0.283-0.197-0.703 0.086-0.939l7.080-5.889c0.283-0.236 0.704-0.197 0.939 0.087 0.236 0.283 0.197 0.703-0.086 0.939l-7.080 5.889c-0.124 0.103-0.276 0.154-0.426 0.154z"></path>
<path d="M12.641 28h-8.843c-2.126 0-3.79-1.633-3.79-3.717v-16.561c0-2.087 1.665-3.721 3.79-3.721h24.41c2.095 0 3.799 1.669 3.799 3.721v16.561c0 1.615-0.958 2.991-2.441 3.508-0.35 0.124-0.729-0.061-0.849-0.409-0.122-0.349 0.061-0.728 0.409-0.849 0.94-0.328 1.548-1.211 1.548-2.25v-16.561c0-1.339-1.083-2.388-2.466-2.388h-24.41c-1.378 0-2.457 1.049-2.457 2.388v16.561c0 1.337 1.079 2.384 2.457 2.384h8.843c0.369 0 0.667 0.298 0.667 0.667s-0.298 0.667-0.667 0.667z"></path>
<path d="M23.391 26.81c-0.369 0-0.667-0.298-0.667-0.667v-1.596c0.001-0.038 0.022-0.798-0.479-1.165-0.475-0.349-1.344-0.313-2.512 0.1-0.349 0.12-0.728-0.060-0.852-0.406-0.122-0.348 0.060-0.728 0.406-0.852 1.638-0.579 2.901-0.547 3.762 0.094 1.070 0.799 1.010 2.204 1.007 2.264l0.001 1.561c0 0.369-0.298 0.667-0.667 0.667z"></path>
<path d="M21.329 31.642c-3.587 0-6.507-2.897-6.507-6.46s2.919-6.46 6.507-6.46c3.311 0 6.091 2.461 6.465 5.725 0.119 1.237-0.214 2.381-0.911 3.148-0.544 0.6-1.26 0.918-2.068 0.918-0.792 0-1.264-0.335-1.522-0.616-0.063-0.068-0.117-0.138-0.167-0.21-0.654 0.507-1.551 0.819-2.365 0.825-0.008 0-0.014 0-0.022 0-1.305 0-2.201-0.794-2.341-2.077-0.104-0.949 0.29-1.501 0.638-1.797 1.322-1.121 4.208-0.357 4.534-0.266 0.354 0.099 0.561 0.466 0.462 0.82-0.046 0.165-0.151 0.299-0.285 0.384 0.203 0.129 0.329 0.365 0.307 0.621-0.009 0.131 0.012 0.572 0.223 0.799 0.042 0.044 0.169 0.181 0.538 0.181 0.428 0 0.792-0.161 1.081-0.481 0.439-0.483 0.654-1.273 0.572-2.113-0.294-2.578-2.504-4.531-5.138-4.531-2.853 0-5.173 2.299-5.173 5.126s2.32 5.126 5.173 5.126c1.109 0 2.167-0.342 3.057-0.991 0.297-0.215 0.714-0.152 0.931 0.147 0.216 0.297 0.151 0.715-0.147 0.931-1.12 0.815-2.448 1.246-3.841 1.246zM21.154 25.367c-0.538 0-1.008 0.081-1.255 0.29-0.104 0.089-0.217 0.241-0.175 0.634 0.042 0.383 0.193 0.889 1.016 0.889 0.004 0 0.009 0 0.013 0 0.965-0.007 1.935-0.691 1.974-1.102 0.019-0.198 0.124-0.367 0.272-0.475-0.552-0.135-1.241-0.237-1.845-0.237z"></path>
</svg>
