<!-- Generated by IcoMoon.io -->
<svg version="1.1" xmlns="http://www.w3.org/2000/svg" width="32" height="32" viewBox="0 0 32 32">
<title>email_mail_post_card2</title>
<path d="M26.5 5h-21c-1.9 0-3.5 1.6-3.5 3.5v15c0 1.9 1.6 3.5 3.5 3.5h21c1.9 0 3.5-1.6 3.5-3.5v-15c0-1.9-1.6-3.5-3.5-3.5zM28 23.5c0 0.8-0.7 1.5-1.5 1.5h-21c-0.8 0-1.5-0.7-1.5-1.5v-15c0-0.8 0.7-1.5 1.5-1.5h21c0.8 0 1.5 0.7 1.5 1.5v15z"></path>
<path d="M24.4 9.2l-8.4 6.5-8.4-6.5c-0.4-0.3-1.1-0.3-1.4 0.2-0.3 0.4-0.2 1.1 0.2 1.4l9 7c0.2 0.1 0.4 0.2 0.6 0.2s0.4-0.1 0.6-0.2l9-7c0.4-0.3 0.5-1 0.2-1.4s-1-0.5-1.4-0.2z"></path>
</svg>
