<!-- Generated by IcoMoon.io -->
<svg version="1.1" xmlns="http://www.w3.org/2000/svg" width="32" height="32" viewBox="0 0 32 32">
<title>email_attachment</title>
<path d="M28.1 12.7l-8.8-8.8c-0.6-0.6-1.3-0.9-2.1-0.9h-3.8c-0.7-1.2-1.9-2-3.4-2-2.4 0-4 1.9-4 4.5v9c0 1.6 1.3 2.5 2.5 2.5 1.4 0 2.5-1.1 2.5-2.5v-9.5c0-0.6-0.4-1-1-1s-1 0.4-1 1v9.5c0 0.3-0.2 0.5-0.5 0.5-0.1 0-0.5-0.1-0.5-0.5v-9c0-1.2 0.5-2.5 2-2.5 1.9 0 2 1.9 2 2.5v8.7c0 1.8-1.1 3.8-3.5 3.8s-3.5-2-3.5-3.9v-5.1c0-0.6-0.4-1-1-1s-1 0.4-1 1v5.1c0 3.2 2.1 5.6 5 5.8v7c0 2.2 1.8 4 4 4h13c2.2 0 4-1.8 4-4v-12.1c0-0.8-0.3-1.5-0.9-2.1zM25.6 13h-5.6c-0.6 0-1-0.4-1-1v-5.6l6.6 6.6zM25 29h-13c-1.1 0-2-0.9-2-2v-7.2c2.4-0.6 4-2.8 4-5.7v-8.6c0-0.2 0-0.3 0-0.5h3v7c0 1.7 1.3 3 3 3h7v12c0 1.1-0.9 2-2 2z"></path>
</svg>
