<svg version="1.1" xmlns="http://www.w3.org/2000/svg" width="32" height="32" viewBox="0 0 32 32">
<title>email_at_sign</title>
<path d="M21.358 19.152c-0.369 0-0.667-0.298-0.667-0.667v-4.122c0.003-0.058 0.098-2.553-1.652-3.852-1.538-1.142-4.055-1.106-7.479 0.103-0.347 0.124-0.729-0.059-0.85-0.406-0.123-0.347 0.059-0.728 0.406-0.85 3.875-1.372 6.813-1.341 8.729 0.092 2.319 1.732 2.186 4.818 2.178 4.948l0.001 4.087c0 0.369-0.298 0.667-0.667 0.667z"></path>
<path d="M16.035 31.631c-8.682 0-15.746-7.010-15.746-15.626s7.064-15.627 15.746-15.627c8.017 0 14.743 5.954 15.646 13.85 0.277 2.881-0.483 5.538-2.085 7.301-1.203 1.324-2.78 2.023-4.561 2.023-1.331 0-2.392-0.421-3.152-1.249-0.437-0.477-0.717-1.033-0.896-1.572-1.454 1.656-4.161 2.805-6.424 2.82-0.017 0-0.034 0-0.050 0-2.827 0-4.694-1.65-4.997-4.422-0.175-1.599 0.257-2.85 1.283-3.721 3.050-2.586 10.428-0.561 10.739-0.474 0.354 0.099 0.561 0.467 0.462 0.822-0.098 0.354-0.46 0.565-0.822 0.462-1.94-0.542-7.434-1.561-9.518 0.207-0.677 0.575-0.945 1.411-0.82 2.559 0.294 2.693 2.137 3.22 3.713 3.234 2.809-0.019 5.965-1.97 6.14-3.797 0.035-0.365 0.333-0.652 0.723-0.599 0.365 0.031 0.635 0.353 0.605 0.717-0.001 0.018-0.131 1.805 0.848 2.866 0.504 0.547 1.212 0.813 2.165 0.813 1.396 0 2.631-0.548 3.574-1.587 1.329-1.464 1.982-3.805 1.745-6.264-0.823-7.21-6.981-12.656-14.319-12.656-7.947 0-14.413 6.412-14.413 14.294s6.465 14.293 14.413 14.293c3.089 0 6.034-0.954 8.517-2.76 0.296-0.216 0.714-0.152 0.931 0.147 0.216 0.298 0.151 0.715-0.147 0.931-2.712 1.973-5.928 3.015-9.301 3.015z"></path>
</svg>
