<!-- Generated by IcoMoon.io -->
<svg version="1.1" xmlns="http://www.w3.org/2000/svg" width="32" height="32" viewBox="0 0 32 32">
<title>embed_window</title>
<path d="M24.739 8.78h-24.031c-0.368 0-0.667 0.299-0.667 0.667v19.66c0 0.368 0.299 0.667 0.667 0.667h24.029c0.368 0 0.667-0.299 0.667-0.667v-19.66c0.001-0.369-0.297-0.667-0.665-0.667zM24.072 10.113v4.885h-22.697v-4.885h22.697zM1.375 28.44v-12.109h22.696v12.109h-22.696z"></path>
<path d="M31.292 2.227h-24.031c-0.368 0-0.667 0.299-0.667 0.667v4.363c0 0.368 0.299 0.667 0.667 0.667s0.667-0.299 0.667-0.667v-3.696h22.696v18.328h-3.701c-0.368 0-0.667 0.299-0.667 0.667s0.299 0.667 0.667 0.667h4.368c0.368 0 0.667-0.299 0.667-0.667v-19.661c0.001-0.369-0.297-0.667-0.665-0.667z"></path>
<path d="M3.459 13.964c0.347 0 0.693-0.147 0.947-0.387 0.24-0.253 0.387-0.6 0.387-0.947s-0.147-0.693-0.387-0.947c-0.507-0.493-1.387-0.493-1.893 0-0.253 0.253-0.387 0.6-0.387 0.947s0.133 0.693 0.387 0.947c0.253 0.241 0.599 0.387 0.947 0.387z"></path>
<path d="M8.417 13.964c0.36 0 0.693-0.147 0.947-0.387 0.253-0.253 0.387-0.6 0.387-0.947s-0.133-0.693-0.387-0.947c-0.493-0.493-1.4-0.493-1.88 0-0.253 0.253-0.4 0.6-0.4 0.947s0.147 0.693 0.387 0.947c0.253 0.241 0.601 0.387 0.947 0.387z"></path>
<path d="M13.391 13.964c0.347 0 0.693-0.147 0.933-0.387 0.253-0.253 0.4-0.6 0.4-0.947s-0.147-0.693-0.4-0.947c-0.493-0.493-1.387-0.493-1.88 0-0.253 0.253-0.387 0.6-0.387 0.947s0.133 0.693 0.387 0.947c0.253 0.241 0.587 0.387 0.947 0.387z"></path>
</svg>
