<!-- Generated by IcoMoon.io -->
<svg version="1.1" xmlns="http://www.w3.org/2000/svg" width="72" height="32" viewBox="0 0 72 32">
<title>empty_delivery</title>
<path d="M48.768 11.835c0-1.468-1.209-2.673-2.745-2.789-0.527-1.006-1.576-1.617-2.823-1.559-0.628-0.448-1.352-0.683-2.113-0.683-0.231 0-0.459 0.024-0.679 0.065-2.3-1.576-4.977-2.409-7.772-2.409-6.801 0-12.603 5.007-13.615 11.696-1.023 0.87-1.77 2.079-2.076 3.492-1.658 1.152-2.368 2.949-1.858 4.756 0.554 1.957 2.33 3.275 4.42 3.275h3.108c2.599 2.748 6.23 4.321 10.018 4.321v0c7.592 0 13.768-6.176 13.768-13.768 0-1.209-0.156-2.456-0.448-3.601 1.542-0.082 2.816-1.328 2.816-2.796zM19.506 26.228c-1.658 0-2.714-1.114-3.027-2.218-0.36-1.274 0.2-2.507 1.495-3.305 0.18-0.109 0.302-0.292 0.336-0.499 0.438-2.646 2.639-4.029 4.593-4.029v0c1.070 0 2.089 0.38 2.949 1.101 0.153 0.129 0.357 0.183 0.557 0.163 2.191-0.272 3.468 1.053 3.849 2.279 0.102 0.329 0.431 0.537 0.764 0.51 1.991-0.204 3.72 1.25 3.72 2.989 0 1.631-1.525 3.010-3.329 3.010h-8.435c-0.027 0-0.058 0-0.085 0h-3.387zM32.632 30.549c-2.904 0-5.704-1.029-7.905-2.87h6.685c2.589 0 4.776-2.042 4.776-4.457 0-2.442-2.123-4.433-4.746-4.46-0.815-1.845-2.67-2.945-4.902-2.789-1.070-0.815-2.32-1.247-3.635-1.247-0.775 0-1.518 0.149-2.205 0.421 1.383-5.361 6.271-9.237 11.93-9.237 2.201 0 4.321 0.577 6.203 1.675-0.642 0.506-1.124 1.23-1.335 2.076-0.961 0.724-1.366 1.814-1.053 2.918 0.346 1.226 1.457 2.052 2.758 2.052h5.248c0.323 1.121 0.496 2.378 0.496 3.597 0.003 6.794-5.524 12.321-12.318 12.321zM45.799 13.184h-0.785c-0.017 0-0.034 0-0.051 0h-5.755c-0.747 0-1.223-0.503-1.366-0.999-0.16-0.571 0.088-1.107 0.686-1.474 0.18-0.109 0.302-0.292 0.336-0.499 0.211-1.287 1.281-1.96 2.225-1.96v0c0.516 0 1.009 0.183 1.427 0.533 0.153 0.129 0.353 0.187 0.554 0.163 0.87-0.102 1.556 0.296 1.783 1.036 0.102 0.329 0.425 0.537 0.761 0.506 0.995-0.092 1.705 0.645 1.705 1.338-0.003 0.727-0.713 1.355-1.522 1.355z"></path>
<path d="M72.228 28.304l-1.063-9.535c-0.041-0.367-0.234-0.693-0.51-0.924-0.078-0.082-0.17-0.143-0.268-0.18-0.241-0.126-0.516-0.183-0.791-0.153l-16.007 1.787c-0.781 0.088-1.345 0.795-1.257 1.573l1.063 9.535c0.041 0.377 0.231 0.717 0.527 0.955 0.299 0.238 0.669 0.343 1.046 0.302l16.007-1.787c0.778-0.088 1.342-0.791 1.254-1.573zM68.053 19.112l-5.843 4.684-6.821-3.309 12.664-1.376zM54.811 30.291c-0.003 0-0.017 0.003-0.031-0.010l-0.978-9.026 8.197 3.975c0.241 0.119 0.527 0.085 0.734-0.082l7.113-5.707 0.968 9.063-16.003 1.787z"></path>
<path d="M43.271 29.503l8.058-0.883c0.38-0.041 0.72 0.231 0.761 0.611s-0.231 0.72-0.611 0.761l-8.058 0.883c-0.38 0.041-0.72-0.231-0.761-0.611-0.020-0.19 0.037-0.37 0.149-0.506s0.272-0.234 0.462-0.255z"></path>
<path d="M45.551 25.824l5.405-0.591c0.38-0.041 0.72 0.231 0.761 0.611s-0.231 0.72-0.611 0.761l-5.405 0.591c-0.38 0.041-0.72-0.231-0.761-0.611-0.020-0.19 0.037-0.37 0.149-0.506s0.275-0.234 0.462-0.255z"></path>
<path d="M47.422 22.397c0.112-0.139 0.275-0.234 0.462-0.255l2.701-0.296c0.38-0.041 0.72 0.231 0.761 0.608 0.041 0.38-0.231 0.72-0.611 0.761l-2.704 0.299c-0.38 0.041-0.72-0.231-0.761-0.611-0.017-0.19 0.041-0.37 0.153-0.506v0z"></path>
<path d="M14.818 10.201c-0.139 0.017-0.289-0.007-0.421-0.082-0.333-0.183-0.452-0.605-0.268-0.938 0.455-0.819 0.54-1.736 0.241-2.578s-0.944-1.502-1.814-1.848c-0.353-0.143-0.523-0.544-0.384-0.897 0.143-0.353 0.544-0.523 0.897-0.384 1.223 0.493 2.171 1.464 2.599 2.667 0.435 1.223 0.316 2.538-0.336 3.71-0.109 0.2-0.302 0.323-0.513 0.35v0z"></path>
<path d="M16.961 10.915c-0.126 0.017-0.262-0.003-0.384-0.061-0.343-0.163-0.489-0.574-0.326-0.921 1.237-2.606 0.085-5.86-2.521-7.103-0.343-0.163-0.489-0.574-0.326-0.921 0.163-0.343 0.574-0.489 0.921-0.326 3.336 1.593 4.756 5.602 3.173 8.941-0.105 0.221-0.309 0.36-0.537 0.391v0z"></path>
<path d="M14.549 14.251l-4.549-12.82c-0.387-1.090-1.634-1.698-2.711-1.315l-5.89 2.089c-0.533 0.19-0.958 0.581-1.199 1.101-0.238 0.513-0.262 1.090-0.075 1.627l0.462 1.298c0 0.003 0.003 0.007 0.003 0.010s0.003 0.007 0.003 0.010l2.972 8.384c0.007 0.027 0.014 0.054 0.024 0.082s0.020 0.051 0.034 0.075l1.053 2.966c0.336 0.948 1.294 1.546 2.279 1.42v0c0.146-0.020 0.289-0.054 0.428-0.102l5.89-2.089c0.533-0.19 0.961-0.581 1.199-1.101s0.265-1.097 0.075-1.634zM2.12 6.431l7.273-2.582 2.544 7.171-7.273 2.582-2.544-7.171zM1.454 3.883c0.082-0.18 0.228-0.316 0.408-0.377l5.89-2.089c0.048-0.017 0.095-0.027 0.143-0.034v0c0.346-0.044 0.683 0.17 0.805 0.513l0.234 0.656-7.273 2.578-0.234-0.656c-0.068-0.194-0.061-0.404 0.027-0.591zM13.221 15.3c-0.082 0.18-0.228 0.316-0.408 0.377l-5.89 2.089c-0.387 0.136-0.808-0.088-0.948-0.476l-0.849-2.392 7.273-2.578 0.849 2.392c0.068 0.197 0.058 0.404-0.027 0.588z"></path>
<path d="M9.301 14.006c-0.044 0.007-0.19 0.037-0.231 0.054-0.578 0.207-0.88 0.846-0.673 1.43 0.177 0.496 0.679 0.805 1.196 0.741v0c0.044-0.007 0.187-0.041 0.231-0.054 0.578-0.204 0.88-0.846 0.673-1.43-0.177-0.496-0.679-0.809-1.196-0.741z"></path>
</svg>
