<svg version="1.1" xmlns="http://www.w3.org/2000/svg" width="1024" height="1024" viewBox="0 0 1024 1024">
<title>entity_source</title>
<desc>entity, source, circle, arrow, export, send</desc>
<path d="M463.4 898.4c91.3 5.4 181.4-23.5 252.5-81.1s118.1-139.7 131.7-230.1c0.7-4.9 0.4-9.9-1-14.6s-3.8-9.1-7.1-12.8c-3.4-4-7.7-7.1-12.5-9.3s-10-3.3-15.2-3.3h-3.6c-8.6 0-17 3.1-23.5 8.8s-10.8 13.5-11.9 22.1c-8 52.9-30.6 102.4-65.1 143.3s-79.7 71.2-130.5 87.9c-50.8 16.7-105.2 18.9-157.2 6.5s-99.6-39-137.4-76.8c-37.8-37.8-64.4-85.4-76.8-137.4s-10.1-106.4 6.5-157.2c16.7-50.8 47.1-96 87.9-130.5s90.4-57.1 143.3-65.1c8.6-1.2 16.4-5.4 22.1-11.9s8.8-14.9 8.8-23.5v-3.6c0-5.2-1.1-10.4-3.3-15.1s-5.3-9-9.3-12.4c-6.2-5.5-14.1-8.5-22.4-8.5h-4.9c-89.2 12.9-170.4 58.5-228 127.8-57.7 69.1-87.5 157.3-83.9 247.4 3.6 90 40.4 175.5 103.4 240s147.6 103.4 237.5 109.1l-0.1 0.3z"></path>
<path d="M813.7 125h-161.3c-9.7-0.2-19.1 3.1-26.4 9.3-7.4 6.3-12.1 15-13.4 24.6-0.5 5.3 0.1 10.6 1.7 15.6 1.7 5 4.3 9.6 7.9 13.5s7.9 7 12.7 9.2c4.8 2.1 10.1 3.2 15.4 3.2h122.7l-359.5 359.5c-6.7 7.1-10.3 16.6-10.1 26.4s4.1 19.1 11 26c6.9 6.9 16.2 10.9 26 11 9.8 0.2 19.2-3.4 26.4-10.1l359.5-359.5v122.7c0 5.3 1.2 10.5 3.3 15.3 2.2 4.8 5.3 9.1 9.2 12.6 6.9 6.3 15.8 9.7 25.1 9.8h3.8c9.6-1.3 18.3-6.1 24.6-13.4 6.3-7.4 9.6-16.8 9.3-26.4v-161.3c0-23.3-9.3-45.7-25.8-62.2-16.4-16.6-38.8-25.8-62.1-25.8z"></path>
</svg>
