<svg version="1.1" xmlns="http://www.w3.org/2000/svg" width="1024" height="1024" viewBox="0 0 1024 1024">
<title>entity_destination</title>
<desc>entity, destination, circle, arrow, target</desc>
<path d="M463.9 899c91.5 5.4 181.7-23.5 252.9-81.2s118.3-139.9 132-230.5c0.7-4.9 0.4-9.9-1-14.6s-3.9-9.1-7.1-12.8c-3.4-4-7.7-7.1-12.5-9.3s-10-3.3-15.2-3.3h-3.7c-8.7 0-17 3.2-23.5 8.8-6.5 5.7-10.8 13.6-12 22.1-8.1 52.9-30.6 102.6-65.2 143.5s-79.9 71.4-130.7 88.1c-50.9 16.7-105.4 19-157.5 6.5-52.1-12.4-99.7-39.1-137.6-76.9-37.9-37.9-64.5-85.5-76.9-137.6s-10.2-106.6 6.5-157.5c16.7-50.9 47.2-96.1 88.1-130.7s90.5-57.2 143.5-65.2c8.6-1.2 16.4-5.4 22.1-12 5.7-6.5 8.8-14.9 8.8-23.5v-3.7c0-5.2-1.1-10.4-3.3-15.2s-5.3-9-9.3-12.4c-6.2-5.5-14.2-8.5-22.4-8.6h-4.9c-89.3 13-170.7 58.6-228.4 128s-87.6 157.8-84 248c3.6 90.2 40.5 175.9 103.6 240.5 63 64.6 147.8 103.5 237.9 109.3l-0.2 0.2z"></path>
<path d="M490.7 623.5h161.5c9.7 0.2 19.1-3.1 26.5-9.4s12.2-15 13.5-24.6c0.5-5.3-0.1-10.6-1.7-15.6-1.7-5-4.4-9.7-7.9-13.6-3.6-3.9-7.9-7-12.8-9.2-4.8-2.1-10.1-3.2-15.4-3.2h-122.9l360.1-360.1c6.7-7.2 10.3-16.6 10.1-26.4s-4.1-19.1-11.1-26-16.3-10.9-26-11.1c-9.8-0.2-19.3 3.5-26.4 10.1l-360.1 360.2v-122.9c0-5.3-1.2-10.5-3.3-15.3-2.2-4.8-5.3-9.1-9.3-12.6-6.9-6.3-15.9-9.8-25.2-9.8h-3.8c-9.6 1.3-18.4 6.1-24.6 13.5-6.3 7.4-9.6 16.8-9.4 26.5v161.5c0 23.4 9.3 45.8 25.8 62.3 16.6 16.4 39 25.7 62.4 25.7z"></path>
</svg>
