<!-- Generated by IcoMoon.io -->
<svg version="1.1" xmlns="http://www.w3.org/2000/svg" width="32" height="32" viewBox="0 0 32 32">
<title>error_warning_danger_stop_delete_exit</title>
<path d="M24.523 31.837c-0.4 0-0.773-0.155-1.052-0.437l-7.54-7.539-7.454 7.453c-0.564 0.56-1.54 0.56-2.1 0l-5.758-5.759c-0.281-0.279-0.437-0.652-0.437-1.049 0-0.398 0.156-0.772 0.439-1.053l7.45-7.452-7.497-7.497c-0.577-0.581-0.577-1.523-0.001-2.102l5.848-5.85c0.542-0.542 1.558-0.542 2.102-0.001l7.499 7.499 7.497-7.498c0.542-0.542 1.56-0.542 2.102 0l5.759 5.76c0.28 0.279 0.435 0.651 0.435 1.048 0.001 0.398-0.154 0.772-0.435 1.053l-7.497 7.498 7.542 7.54c0.281 0.281 0.436 0.655 0.435 1.053 0 0.397-0.155 0.771-0.436 1.051l-5.846 5.846c-0.28 0.28-0.654 0.435-1.052 0.435zM6.891 1.023l0.471 0.471-5.846 5.849c-0.059 0.059-0.059 0.158 0.001 0.218l7.967 7.967c0.26 0.26 0.26 0.682 0 0.943l-7.923 7.926c0.001 0-0.001 0.214 0 0.215l5.758 5.759 0.687 0.471-0.471-0.471 7.925-7.925c0.26-0.26 0.682-0.26 0.943 0l8.121 8.057c0.025 0 0.070-0.005 0.108-0.043l5.849-5.849 0.471-0.689-0.471 0.471-8.013-8.012c-0.125-0.125-0.195-0.294-0.195-0.471s0.070-0.346 0.195-0.471l7.969-7.969c0-0.001 0-0.216 0-0.217l-5.759-5.76-0.687-0.471 0.471 0.471-7.969 7.969c-0.25 0.25-0.693 0.25-0.943 0l-7.97-7.969-0.689-0.471z"></path>
</svg>
