<!-- Generated by IcoMoon.io -->
<svg version="1.1" xmlns="http://www.w3.org/2000/svg" width="32" height="32" viewBox="0 0 32 32">
<title>error_warning_danger_stop</title>
<path d="M11.133 3.25c-0.265 0-0.52 0.105-0.707 0.293l-6.883 6.883c-0.188 0.188-0.293 0.442-0.293 0.707v9.734c0 0.265 0.105 0.52 0.293 0.707l6.883 6.883c0.188 0.188 0.442 0.293 0.707 0.293h9.734c0.265 0 0.52-0.105 0.707-0.293l6.883-6.883c0.188-0.188 0.293-0.442 0.293-0.707v-9.734c0-0.265-0.105-0.52-0.293-0.707l-6.883-6.883c-0.188-0.188-0.442-0.293-0.707-0.293h-9.734zM5.25 11.547l6.297-6.297h8.905l6.297 6.297v8.905l-6.297 6.297h-8.905l-6.297-6.297v-8.905zM12.337 10.763c-0.434-0.434-1.139-0.434-1.573 0s-0.434 1.139 0 1.573l3.663 3.663-3.663 3.663c-0.434 0.434-0.434 1.139 0 1.573s1.139 0.434 1.573 0l3.663-3.663 3.663 3.663c0.434 0.434 1.139 0.434 1.573 0s0.434-1.139 0-1.573l-3.663-3.663 3.663-3.663c0.434-0.434 0.434-1.139 0-1.573s-1.139-0.434-1.573 0l-3.663 3.663-3.663-3.663z"></path>
</svg>
