<!-- Generated by IcoMoon.io -->
<svg version="1.1" xmlns="http://www.w3.org/2000/svg" width="32" height="32" viewBox="0 0 32 32">
<title>error_warning_danger_stop_filled</title>
<path d="M31.617 8.863l-8.356-8.352c-0.315-0.314-0.748-0.508-1.227-0.51h-11.816c-0.479 0.001-0.912 0.195-1.227 0.508l-8.352 8.353c-0.315 0.314-0.51 0.748-0.511 1.228v11.818c0.001 0.479 0.195 0.912 0.508 1.226l8.356 8.356c0.312 0.314 0.743 0.508 1.22 0.508 0.002 0 0.005 0 0.007 0h11.816c0.002 0 0.004 0 0.007 0 0.477 0 0.908-0.194 1.22-0.508l8.361-8.357c0.312-0.313 0.505-0.745 0.505-1.222 0-0.001 0-0.003 0-0.004v0-11.817c-0.001-0.479-0.195-0.913-0.509-1.227v0zM23.251 23.401c-0.215 0.217-0.514 0.351-0.843 0.351-0.001 0-0.002 0-0.004 0v0c-0.001 0-0.002 0-0.003 0-0.33 0-0.628-0.134-0.844-0.351l-5.43-5.43-5.43 5.43c-0.218 0.225-0.523 0.364-0.86 0.364-0.662 0-1.198-0.536-1.198-1.198 0-0.337 0.139-0.642 0.364-0.86v0l5.43-5.429-5.43-5.43c-0.225-0.218-0.364-0.523-0.364-0.86 0-0.662 0.536-1.198 1.198-1.198 0.337 0 0.642 0.139 0.86 0.364v0l5.43 5.43 5.43-5.43c0.217-0.221 0.519-0.357 0.853-0.357 0.662 0 1.198 0.536 1.198 1.198 0 0.334-0.137 0.636-0.357 0.853l-5.43 5.43 5.43 5.429c0.217 0.217 0.351 0.516 0.351 0.847s-0.134 0.63-0.351 0.847v0z"></path>
</svg>
