<svg version="1.1" xmlns="http://www.w3.org/2000/svg" width="32" height="32" viewBox="0 0 32 32">
<title>error_warning_alert_attention</title>
<path d="M15.388 17.418c-0.369 0-0.667-0.298-0.667-0.667v-9.173c0-0.369 0.298-0.667 0.667-0.667s0.667 0.298 0.667 0.667v9.173c0 0.368-0.298 0.667-0.667 0.667z"></path>
<path d="M15.388 21.439c-0.369 0-0.667-0.298-0.667-0.667v-0.234c0-0.369 0.298-0.667 0.667-0.667s0.667 0.298 0.667 0.667v0.234c0 0.369-0.298 0.667-0.667 0.667z"></path>
<path d="M6.575 31.918c-0.692 0-1.256-0.561-1.256-1.25v-3.987h-0.833c-1.314 0-2.494-0.678-3.157-1.816-0.663-1.139-0.672-2.501-0.023-3.646l10.902-19.205c0.657-1.158 1.846-1.85 3.18-1.85s2.521 0.691 3.178 1.85l10.902 19.205c0.65 1.145 0.641 2.508-0.022 3.645-0.663 1.138-1.842 1.818-3.156 1.818h-13.505l-5.342 4.881c-0.206 0.217-0.525 0.355-0.868 0.355zM15.389 1.497c-0.848 0-1.603 0.439-2.020 1.174l-10.902 19.206c-0.412 0.725-0.406 1.591 0.016 2.316 0.421 0.723 1.171 1.154 2.005 1.154h1.499c0.369 0 0.667 0.298 0.667 0.667v4.466l5.424-4.958c0.123-0.112 0.283-0.175 0.45-0.175h13.764c0.833 0 1.583-0.432 2.004-1.155 0.422-0.724 0.427-1.589 0.016-2.315l-10.902-19.206c-0.417-0.736-1.172-1.175-2.019-1.175z"></path>
</svg>
