<svg version="1.1" xmlns="http://www.w3.org/2000/svg" width="32" height="32" viewBox="0 0 32 32">
<title>error_warning_danger_stop</title>
<path d="M21.906 32.007h-11.819c-0.464 0-0.9-0.18-1.227-0.508l-8.356-8.358c-0.323-0.323-0.508-0.769-0.508-1.227v-11.821c0-0.458 0.186-0.906 0.51-1.229l8.354-8.354c0.322-0.324 0.77-0.509 1.227-0.509h11.819c0.457 0 0.905 0.186 1.228 0.51l8.358 8.354c0.323 0.321 0.509 0.769 0.509 1.227v11.82c0 0.464-0.18 0.898-0.505 1.227l-8.363 8.359c-0.327 0.328-0.763 0.508-1.227 0.508zM10.087 1.335c-0.105 0-0.209 0.043-0.284 0.118l-8.356 8.356c-0.076 0.076-0.118 0.178-0.118 0.285v11.821c0 0.105 0.043 0.208 0.118 0.284l8.356 8.358c0.075 0.074 0.178 0.117 0.285 0.117h11.819c0.107 0 0.208-0.042 0.284-0.117l8.362-8.358c0.073-0.074 0.116-0.178 0.116-0.285v-11.82c0-0.106-0.043-0.209-0.117-0.283l-8.361-8.356c-0.075-0.075-0.178-0.119-0.284-0.119h-11.819z"></path>
<path d="M22.277 23.227c-0.171 0-0.341-0.065-0.471-0.195l-12.557-12.557c-0.26-0.26-0.26-0.682 0-0.943s0.682-0.26 0.943 0l12.557 12.557c0.26 0.26 0.26 0.682 0 0.943-0.13 0.13-0.301 0.195-0.471 0.195z"></path>
<path d="M9.72 23.227c-0.171 0-0.341-0.065-0.471-0.195-0.26-0.26-0.26-0.682 0-0.943l12.557-12.557c0.26-0.26 0.682-0.26 0.943 0s0.26 0.682 0 0.943l-12.557 12.557c-0.13 0.13-0.301 0.195-0.471 0.195z"></path>
</svg>
