<!-- Generated by IcoMoon.io -->
<svg version="1.1" xmlns="http://www.w3.org/2000/svg" width="1024" height="1024" viewBox="0 0 1024 1024">
<title>error_warning_danger_stop</title>
<path d="M316.557 0.002c-10.641 0-20.881 4.217-28.392 11.766l-276.399 276.399c-7.55 7.55-11.766 17.748-11.766 28.392v390.886c0 10.641 4.217 20.881 11.766 28.392l276.399 276.399c7.55 7.55 17.748 11.766 28.392 11.766h390.886c10.641 0 20.881-4.217 28.392-11.766l276.399-276.399c7.55-7.55 11.766-17.748 11.766-28.392v-390.886c0-10.641-4.217-20.881-11.766-28.392l-276.399-276.399c-7.55-7.55-17.748-11.766-28.392-11.766h-390.886zM80.316 333.182l252.866-252.866h357.594l252.866 252.866v357.594l-252.866 252.866h-357.594l-252.866-252.866v-357.594zM364.907 301.699c-17.427-17.427-45.739-17.427-63.166 0s-17.427 45.739 0 63.166l147.093 147.093-147.093 147.093c-17.427 17.427-17.427 45.739 0 63.166s45.739 17.427 63.166 0l147.093-147.093 147.093 147.093c17.427 17.427 45.739 17.427 63.166 0s17.427-45.739 0-63.166l-147.093-147.093 147.093-147.093c17.427-17.427 17.427-45.739 0-63.166s-45.739-17.427-63.166 0l-147.093 147.093-147.093-147.093z"></path>
</svg>
