<!-- Generated by IcoMoon.io -->
<svg version="1.1" xmlns="http://www.w3.org/2000/svg" width="32" height="32" viewBox="0 0 32 32">
<title>events_sent</title>
<path d="M23.925 21.907c-0.371 0-0.671 0.3-0.671 0.671v4.22l-6.593-7.188c0.085-0.199 0.133-0.417 0.133-0.647 0-0.911-0.741-1.651-1.651-1.651-0.911 0-1.651 0.741-1.651 1.651 0 0.403 0.161 0.759 0.403 1.047l-3.301 5.54c-0.107-0.021-0.207-0.065-0.32-0.065-0.308 0-0.581 0.108-0.829 0.256l-2.509-2.104c0.069-0.183 0.119-0.377 0.119-0.585 0-0.911-0.74-1.651-1.651-1.651-0.909 0-1.649 0.741-1.649 1.651 0 0.201 0.048 0.391 0.115 0.569l-2.443 1.923v-11.893c0-0.612 0.499-1.111 1.112-1.111h11.713c0.371 0 0.671-0.3 0.671-0.671s-0.3-0.671-0.671-0.671h-11.713c-1.352 0-2.453 1.101-2.453 2.453v14.259c0 1.352 1.101 2.453 2.453 2.453h19.604c1.353 0 2.452-1.101 2.453-2.456v-5.329c0-0.371-0.3-0.671-0.671-0.671zM15.144 18.388c0.317 0 0.576 0.259 0.576 0.576s-0.257 0.576-0.576 0.576c-0.319 0-0.577-0.259-0.577-0.576s0.26-0.576 0.577-0.576zM10.851 27.136c0 0.317-0.26 0.576-0.577 0.576-0.117 0-0.576-0.151-0.576-0.576 0-0.317 0.259-0.576 0.576-0.576s0.576 0.259 0.577 0.576zM5.403 22.479c0.317 0 0.576 0.259 0.577 0.576 0 0.317-0.26 0.576-0.577 0.576s-0.576-0.259-0.576-0.576c0-0.317 0.259-0.576 0.576-0.576zM22.144 29.019h-19.605c-0.613 0-1.112-0.499-1.112-1.112v-0.999l3.137-2.468c0.249 0.152 0.527 0.264 0.839 0.264 0.308 0 0.581-0.108 0.828-0.256l2.511 2.105c-0.069 0.183-0.117 0.376-0.117 0.583 0 1.063 0.975 1.651 1.649 1.651 0.909 0 1.651-0.74 1.651-1.651 0-0.403-0.161-0.759-0.403-1.045l3.303-5.54c0.107 0.021 0.207 0.065 0.32 0.065 0.287 0 0.543-0.093 0.777-0.223l7.253 7.908c-0.16 0.417-0.557 0.717-1.031 0.717z"></path>
<path d="M23.923 5.559c-4.42 0-8.015 3.595-8.015 8.015s3.595 8.016 8.015 8.016c4.421 0 8.017-3.596 8.017-8.016s-3.596-8.015-8.017-8.015zM23.923 20.247c-3.679 0-6.672-2.993-6.672-6.675 0-3.679 2.993-6.672 6.672-6.672 3.68 0 6.675 2.993 6.675 6.672 0 3.681-2.995 6.675-6.675 6.675z"></path>
<path d="M20.303 12.72c0.171 0 0.341 0.065 0.472 0.195l3.275 3.273 3.273-3.273c0.26-0.26 0.683-0.26 0.943 0s0.26 0.683 0 0.943l-3.744 3.745c-0.249 0.249-0.693 0.251-0.943 0l-3.745-3.745c-0.26-0.26-0.26-0.683 0-0.943 0.128-0.129 0.299-0.195 0.469-0.195z"></path>
<path d="M24.048 9.348c0.368 0 0.667 0.299 0.667 0.667v7.117c0 0.368-0.299 0.667-0.667 0.667s-0.667-0.299-0.667-0.667v-7.116c0-0.369 0.299-0.668 0.667-0.668z"></path>
</svg>
