<svg version="1.1" xmlns="http://www.w3.org/2000/svg" width="32" height="32" viewBox="0 0 32 32">
<title>events_size</title>
<path d="M25.523 6.212l-7.863 0.005c-0.009 0-0.017-0.005-0.028-0.005h-11.715c-1.352 0-2.453 1.101-2.453 2.453v14.26c0 1.352 1.101 2.453 2.453 2.453h19.604c1.353 0 2.452-1.101 2.453-2.456v-14.259c0.001-1.352-1.1-2.452-2.452-2.452zM25.524 24.032h-19.607c-0.613 0-1.112-0.499-1.112-1.112v-1.003l3.149-2.477c0.249 0.152 0.527 0.264 0.839 0.264 0.308 0 0.581-0.108 0.828-0.256l2.512 2.105c-0.069 0.183-0.117 0.376-0.117 0.583 0 1.063 0.975 1.651 1.649 1.651 0.909 0 1.651-0.74 1.651-1.651 0-0.403-0.161-0.759-0.403-1.045l3.064-6.196h0.121c0.295 0 0.533-0.239 0.533-0.533 0-0.163-0.077-0.304-0.193-0.401l1.017-2.056c0.107 0.021 0.207 0.065 0.32 0.065 0.287 0 0.543-0.093 0.777-0.223l1.083 2.083h-0.872c-0.295 0-0.533 0.239-0.533 0.533s0.24 0.533 0.533 0.533h1.427l4.367 8.397c-0.152 0.428-0.553 0.739-1.033 0.739zM8.219 18.055c0-0.317 0.259-0.576 0.576-0.576s0.576 0.259 0.577 0.576c0 0.317-0.26 0.576-0.577 0.576s-0.576-0.259-0.576-0.576zM13.089 22.136c0-0.317 0.259-0.576 0.576-0.576s0.576 0.259 0.577 0.576c0 0.317-0.26 0.576-0.577 0.576-0.117 0-0.576-0.151-0.576-0.576zM19.2 10.317c0-0.317 0.26-0.576 0.577-0.576s0.576 0.259 0.576 0.576c0 0.317-0.257 0.576-0.576 0.576s-0.577-0.259-0.577-0.576zM26.635 18.5v3.284l-5.339-10.82c0.085-0.199 0.133-0.417 0.133-0.647 0-0.911-0.741-1.651-1.651-1.651-0.911 0-1.651 0.741-1.651 1.651 0 0.403 0.161 0.759 0.403 1.047l-1.219 2.465h-0.809c-0.295 0-0.533 0.239-0.533 0.533s0.239 0.533 0.533 0.533h0.283l-2.797 5.656c-0.107-0.021-0.207-0.065-0.32-0.065-0.308 0-0.581 0.108-0.829 0.256l-2.509-2.104c0.069-0.183 0.119-0.377 0.119-0.585 0-0.911-0.74-1.651-1.651-1.651-0.909 0-1.649 0.741-1.649 1.651 0 0.201 0.048 0.391 0.115 0.569l-2.455 1.931v-5.659h0.495c0.295 0 0.533-0.239 0.533-0.533s-0.239-0.533-0.533-0.533h-0.497v-5.165c0-0.612 0.499-1.111 1.112-1.111h11.713c0.009 0 0.017-0.005 0.028-0.005v0.005h7.863c0.613 0 1.112 0.499 1.112 1.111v5.165h-1.6c-0.295 0-0.533 0.239-0.533 0.533s0.24 0.533 0.533 0.533h1.6v3.605z"></path>
<path d="M13.833 13.828h-1.6c-0.295 0-0.533 0.239-0.533 0.533s0.239 0.533 0.533 0.533h1.6c0.295 0 0.533-0.239 0.533-0.533s-0.239-0.533-0.533-0.533z"></path>
<path d="M9.568 13.828h-1.6c-0.295 0-0.533 0.239-0.533 0.533s0.239 0.533 0.533 0.533h1.6c0.295 0 0.533-0.239 0.533-0.533s-0.24-0.533-0.533-0.533z"></path>
</svg>
