<!-- Generated by IcoMoon.io -->
<svg version="1.1" xmlns="http://www.w3.org/2000/svg" width="32" height="32" viewBox="0 0 32 32">
<title>exchange</title>
<path d="M23.925 19.416c-0.344 0-0.622-0.278-0.622-0.622v-10.188h-10.222c-0.344 0-0.622-0.278-0.622-0.622s0.278-0.622 0.622-0.622h10.847c0.344 0 0.622 0.278 0.622 0.622v10.809c-0.003 0.344-0.281 0.622-0.625 0.622z"></path>
<path d="M18.244 24.666h-10.3c-0.344 0-0.622-0.278-0.622-0.622v-10.809c0-0.344 0.278-0.622 0.622-0.622s0.622 0.278 0.622 0.622v10.188h9.681c0.344 0 0.622 0.278 0.622 0.622s-0.281 0.622-0.625 0.622z"></path>
<path d="M9.631 13c-0.166 0-0.322-0.066-0.441-0.181l-3.922-3.922-1.556 1.591c-0.156 0.159-0.384 0.222-0.6 0.169-0.216-0.056-0.384-0.222-0.444-0.438l-2.547-9.225c-0.059-0.216 0-0.444 0.156-0.603s0.384-0.222 0.6-0.166l9.222 2.4c0.216 0.056 0.384 0.222 0.444 0.434s0 0.444-0.156 0.603l-1.559 1.594 3.966 3.962c0.244 0.244 0.244 0.637 0 0.881l-2.722 2.722c-0.119 0.113-0.275 0.178-0.441 0.178zM5.266 7.391c0.166 0 0.322 0.066 0.441 0.181l3.925 3.928 1.841-1.841-3.956-3.959c-0.241-0.241-0.244-0.631-0.006-0.875l1.237-1.266-7.138-1.856 1.972 7.141 1.241-1.266c0.116-0.119 0.275-0.188 0.441-0.188 0 0 0 0 0.003 0z"></path>
<path d="M31.219 31.813c-0.053 0-0.106-0.006-0.156-0.019l-9.222-2.397c-0.216-0.056-0.384-0.222-0.444-0.434s0-0.444 0.156-0.603l1.559-1.594-3.966-3.962c-0.116-0.116-0.181-0.275-0.181-0.441s0.066-0.322 0.181-0.441l2.722-2.722c0.244-0.244 0.637-0.244 0.881 0l3.922 3.922 1.556-1.591c0.156-0.159 0.384-0.222 0.6-0.169 0.216 0.056 0.384 0.222 0.444 0.438l2.547 9.222c0.059 0.216 0 0.444-0.156 0.603-0.119 0.122-0.281 0.188-0.444 0.188zM23.191 28.459l7.141 1.856-1.972-7.141-1.241 1.266c-0.116 0.119-0.275 0.188-0.441 0.188 0 0-0.003 0-0.003 0-0.166 0-0.322-0.066-0.441-0.181l-3.925-3.925-1.841 1.841 3.956 3.956c0.241 0.241 0.244 0.631 0.006 0.875l-1.241 1.266z"></path>
</svg>
