<svg version="1.1" xmlns="http://www.w3.org/2000/svg" width="32" height="32" viewBox="0 0 32 32">
<title>exit_logout_door_emergency_outside</title>
<path d="M31.121 14.629h-15.802c-0.369 0-0.667-0.298-0.667-0.667s0.298-0.667 0.667-0.667h15.802c0.369 0 0.667 0.298 0.667 0.667s-0.298 0.667-0.667 0.667z"></path>
<path d="M26.701 19.049c-0.171 0-0.341-0.065-0.471-0.195-0.26-0.26-0.26-0.682 0-0.943l3.949-3.949-3.949-3.949c-0.26-0.26-0.26-0.682 0-0.943s0.682-0.26 0.943 0l4.421 4.421c0.26 0.26 0.26 0.682 0 0.943l-4.421 4.421c-0.13 0.13-0.301 0.195-0.471 0.195z"></path>
<path d="M20.527 25.379h-10.416c-0.369 0-0.667-0.298-0.667-0.667s0.298-0.667 0.667-0.667h9.749v-6.070c0-0.369 0.298-0.667 0.667-0.667s0.667 0.298 0.667 0.667v6.737c0 0.368-0.298 0.667-0.667 0.667z"></path>
<path d="M20.527 10.616c-0.369 0-0.667-0.298-0.667-0.667v-8.65h-19.218c-0.369 0-0.667-0.298-0.667-0.667s0.298-0.667 0.667-0.667h19.885c0.369 0 0.667 0.298 0.667 0.667v9.316c0 0.369-0.298 0.667-0.667 0.667z"></path>
<path d="M10.111 31.449c-0.12 0-0.24-0.033-0.346-0.096l-9.469-5.743c-0.199-0.121-0.321-0.337-0.321-0.57v-24.406c0-0.241 0.13-0.463 0.34-0.581 0.21-0.119 0.467-0.113 0.673 0.010l9.469 5.743c0.199 0.121 0.321 0.337 0.321 0.57v24.406c0 0.241-0.13 0.462-0.34 0.581-0.102 0.057-0.214 0.086-0.327 0.086zM1.309 24.664l8.135 4.935v-22.847l-8.135-4.935v22.847z"></path>
</svg>
