<!-- Generated by IcoMoon.io -->
<svg version="1.1" xmlns="http://www.w3.org/2000/svg" width="32" height="32" viewBox="0 0 32 32">
<title>exit_close</title>
<path d="M25.609 27.109c-0.416 0-0.75-0.141-1.053-0.444l-8.556-8.559-8.559 8.559c-0.303 0.303-0.638 0.444-1.053 0.444s-0.75-0.141-1.053-0.444c-0.591-0.591-0.591-1.516 0-2.106l8.556-8.559-8.556-8.556c-0.591-0.591-0.591-1.516 0-2.106 0.287-0.287 0.662-0.444 1.053-0.444 0.394 0 0.766 0.159 1.053 0.444l8.559 8.556 8.556-8.556c0.288-0.287 0.663-0.444 1.053-0.444 0.394 0 0.766 0.159 1.053 0.444 0.288 0.287 0.444 0.662 0.444 1.053s-0.159 0.766-0.444 1.053l-8.641 8.556 8.637 8.556c0.594 0.594 0.594 1.519 0.003 2.109-0.269 0.269-0.684 0.444-1.053 0.444z"></path>
</svg>
