<svg version="1.1" xmlns="http://www.w3.org/2000/svg" width="32" height="32" viewBox="0 0 32 32">
<title>exit_close_sm</title>
<path d="M31.2 31.867c-0.133 0-0.4 0-0.533-0.133l-30.4-30.533c-0.267-0.267-0.267-0.667 0-0.933s0.667-0.267 0.933 0l30.533 30.533c0.267 0.267 0.267 0.667 0 0.933-0.133 0.133-0.267 0.133-0.533 0.133z"></path>
<path d="M0.667 32c-0.133 0-0.4 0-0.533-0.133-0.267-0.267-0.267-0.667 0-0.933l30.667-30.667c0.267-0.267 0.667-0.267 0.933 0s0.267 0.667 0 0.933l-30.533 30.667c-0.133 0.133-0.4 0.133-0.533 0.133z"></path>
</svg>
