<svg version="1.1" xmlns="http://www.w3.org/2000/svg" width="32" height="32" viewBox="0 0 32 32">
<title>expand_move_window_full_screen</title>
<path d="M27 28h-7c-0.553 0-1-0.447-1-1s0.447-1 1-1h4.587l-6.294-6.294c-0.391-0.391-0.391-1.025 0-1.416s1.025-0.391 1.416 0l6.291 6.294v-4.584c0-0.553 0.447-1 1-1s1 0.447 1 1v7c0 0.553-0.447 1-1 1zM12 28h-7c-0.553 0-1-0.447-1-1v-7c0-0.553 0.447-1 1-1s1 0.447 1 1v4.587l6.294-6.294c0.391-0.391 1.025-0.391 1.416 0s0.391 1.025 0 1.416l-6.294 6.291h4.584c0.553 0 1 0.447 1 1s-0.447 1-1 1zM19 14c-0.256 0-0.512-0.097-0.706-0.294-0.391-0.391-0.391-1.025 0-1.416l6.291-6.291h-4.584c-0.553 0-1-0.447-1-1s0.447-1 1-1h7c0.553 0 1 0.447 1 1v7c0 0.553-0.447 1-1 1s-1-0.447-1-1v-4.588l-6.294 6.294c-0.194 0.197-0.45 0.294-0.706 0.294zM13 14c-0.256 0-0.512-0.097-0.706-0.294l-6.294-6.291v4.584c0 0.553-0.447 1-1 1s-1-0.447-1-1v-7c0-0.553 0.447-1 1-1h7c0.553 0 1 0.447 1 1s-0.447 1-1 1h-4.588l6.294 6.294c0.391 0.391 0.391 1.025 0 1.416-0.194 0.194-0.45 0.291-0.706 0.291z"></path>
</svg>
