<!-- Generated by IcoMoon.io -->
<svg version="1.1" xmlns="http://www.w3.org/2000/svg" width="32" height="32" viewBox="0 0 32 32">
<title>expand_open_all_horizontal</title>
<path d="M17.2 3.181v25.625c0 0.656-0.531 1.194-1.194 1.194-0.656 0-1.194-0.531-1.194-1.194v-25.625c0-0.656 0.531-1.194 1.194-1.194 0.656 0 1.194 0.538 1.194 1.194z"></path>
<path d="M20.887 23.45l7.7-6.594c0.125-0.106 0.225-0.238 0.294-0.387s0.106-0.313 0.106-0.475c0-0.162-0.038-0.325-0.106-0.475s-0.169-0.281-0.294-0.387l-7.7-6.594c-0.738-0.631-1.869-0.106-1.869 0.863v13.194c0 0.969 1.137 1.488 1.869 0.856z"></path>
<path d="M11.113 8.537l-7.7 6.6c-0.125 0.106-0.225 0.238-0.294 0.387s-0.106 0.313-0.106 0.475 0.038 0.325 0.106 0.475c0.069 0.15 0.169 0.281 0.294 0.387l7.7 6.594c0.738 0.631 1.869 0.106 1.869-0.863v-13.194c0-0.969-1.137-1.494-1.869-0.863z"></path>
</svg>
