<!-- Generated by IcoMoon.io -->
<svg version="1.1" xmlns="http://www.w3.org/2000/svg" width="32" height="32" viewBox="0 0 32 32">
<title>export_excel</title>
<path d="M11.467 13.733l-1.067-2c-0.533-0.933-0.8-1.467-1.067-2.133v-0.133h-0.267l-0.133 0.267c-0.267 0.533-0.533 1.067-0.933 2l-1.067 2h-1.867l3.067-5.2-2.933-5.2h1.867l1.067 2.133c0.4 0.667 0.667 1.2 0.933 1.733v0.133h0.267l0.133-0.133c0.267-0.667 0.533-1.2 0.8-1.733l1.067-2.133h1.867l-3.067 5.067 3.2 5.333h-1.867z"></path>
<path d="M14.133 13.733v-10.4h1.6v9.067h4.533v1.333z"></path>
<path d="M23.467 13.867c-1.067 0-2.133-0.267-2.667-0.533l0.4-1.333c0.8 0.4 1.6 0.533 2.533 0.533 1.333 0 2.133-0.667 2.133-1.6 0-1.067-0.8-1.467-2-2-1.867-0.667-2.8-1.6-2.8-2.933 0-1.733 1.467-2.933 3.6-2.933 1.067 0 1.867 0.267 2.4 0.4l-0.4 1.2c-0.4-0.133-1.067-0.4-2-0.4-1.333 0-2 0.8-2 1.467 0 0.933 0.667 1.333 2.133 2 1.867 0.667 2.667 1.6 2.667 3.067 0 1.867-1.6 3.067-4 3.067z"></path>
<path d="M16.933 28l4.667-4.8-4.933-4.8 0.933-0.933 5.733 5.733-5.6 5.6z"></path>
<path d="M13.067 28l4.8-4.8-4.933-4.8 0.933-0.933 5.733 5.733-5.6 5.6z"></path>
<path d="M9.333 28l4.8-4.8-4.933-4.8 0.933-0.933 5.733 5.733-5.6 5.6z"></path>
</svg>
