<svg version="1.1" xmlns="http://www.w3.org/2000/svg" width="32" height="32" viewBox="0 0 32 32">
<title>export_baseline</title>
<path d="M1.867 12.533c0.533 0 0.8-0.4 0.8-0.8v-2.267c0-0.4-0.4-0.8-0.8-0.8s-0.8 0.4-0.8 0.8v2.133c0 0.533 0.4 0.933 0.8 0.933z"></path>
<path d="M18.133 21.733h-10.8c-1.733 0-3.067-0.8-4-2.267v0c-0.267-0.4-0.4-0.933-0.533-1.6 0-0.133 0-0.133 0-0.133v-3.733c0-0.4-0.4-0.8-0.8-0.8s-0.8 0.4-0.8 0.8v3.733c0 0.133 0 0.133 0 0.267v0.133c0.133 0.8 0.4 1.6 0.8 2.133 1.2 2 3.067 3.067 5.333 3.067h10.8c0.4 0 0.8-0.4 0.8-0.8s-0.4-0.8-0.8-0.8zM1.467 18c0 0 0 0 0 0v0 0z"></path>
<path d="M20.267 21.733v0c-0.533 0-0.8 0.4-0.8 0.8s0.4 0.8 0.8 0.8c0.4 0 0.8-0.4 0.8-0.8s-0.4-0.8-0.8-0.8z"></path>
<path d="M30.933 12v-2.267c0 0 0-0.133 0-0.133 0-0.267-0.133-0.4-0.267-0.533s-0.4-0.133-0.533-0.133v0c-0.4 0-0.667 0.533-0.667 0.933l-0.133 2.133c0 2.667 0 3.733 0 5.2 0 2.4-1.733 4.267-4 4.533-0.133 0-0.133 0-0.267 0s-0.133 0-0.267 0h-2.4c-0.4 0-0.8 0.4-0.8 0.8s0.4 0.8 0.8 0.8h2.4c0.133 0 0.267 0 0.4 0s0.267 0 0.4 0c3.067-0.267 5.467-2.933 5.467-6-0.133-1.6-0.133-2.667-0.133-5.333z"></path>
</svg>
