<!-- Generated by IcoMoon.io -->
<svg version="1.1" xmlns="http://www.w3.org/2000/svg" width="32" height="32" viewBox="0 0 32 32">
<title>eye_view_filled</title>
<path d="M20 16c0 2.2-1.8 4-4 4s-4-1.8-4-4 1.8-4 4-4 4 1.8 4 4zM31 16c0 0.4-0.1 0.8-0.3 1.1-1.6 2.6-3.8 4.8-6.2 6.3-2.7 1.7-5.6 2.6-8.5 2.6-3 0-5.9-0.9-8.5-2.6-2.4-1.5-4.5-3.7-6.1-6.3-0.3-0.3-0.4-0.7-0.4-1.1s0.1-0.8 0.4-1.1c2-2.9 4.3-5.1 6.9-6.6 2.4-1.5 5-2.3 7.7-2.3 2.9 0 5.8 0.9 8.5 2.6 2.4 1.6 4.5 3.7 6.2 6.3 0.2 0.3 0.3 0.7 0.3 1.1zM22 16c0-3.3-2.7-6-6-6s-6 2.7-6 6 2.7 6 6 6c3.3 0 6-2.7 6-6zM1.3 17.1c0 0 0 0 0 0s0 0 0 0v0zM30.7 14.9v0c0 0 0 0 0 0s0 0 0 0v0z"></path>
</svg>
