<!-- Generated by IcoMoon.io -->
<svg version="1.1" xmlns="http://www.w3.org/2000/svg" width="32" height="32" viewBox="0 0 32 32">
<title>eye_visibility_hide_invisible</title>
<path d="M20.8 25.1c0 0.1 0 0.1-0.1 0.1-1.5 0.5-3.1 0.8-4.7 0.8-3 0-5.9-0.9-8.5-2.6-2.4-1.5-4.5-3.7-6.1-6.3-0.3-0.3-0.4-0.7-0.4-1.1s0.1-0.8 0.4-1.1c1.3-1.9 2.8-3.5 4.3-4.8 0 0 0 0 0.1 0 0 0 0.1 0 0.1 0l1.2 1.2c0 0 0 0.1 0 0.1s0 0.1 0 0.1c-1.5 1.2-2.9 2.7-4.1 4.5v0c1.5 2.3 3.4 4.3 5.5 5.7 2.3 1.5 4.8 2.3 7.4 2.3v0c0 0 0 0 0 0 1.1 0 2.2-0.1 3.2-0.4v0c0 0 0 0 0.1 0s0.1 0 0.2 0.1l1.4 1.4c0-0.1 0 0 0 0zM1.3 17.1c0 0 0 0 0 0s0 0 0 0v0zM20.7 25.2h0.1c0 0 0 0-0.1 0 0 0 0 0 0 0zM5.7 4.3c-0.2-0.2-0.4-0.3-0.7-0.3-0.5 0-1 0.5-1 1 0 0.3 0.1 0.5 0.3 0.7l22 22c0.2 0.2 0.4 0.3 0.7 0.3 0 0 0 0 0 0 0.6 0 1-0.4 1-1 0-0.3-0.1-0.5-0.3-0.7l-22-22zM11.2 6.8c0 0 0.1 0 0 0 0.1 0 0.1 0 0 0v0zM30.7 14.9v0 0c-1.6-2.6-3.8-4.7-6.2-6.3-2.7-1.7-5.6-2.6-8.5-2.6-1.6 0-3.2 0.3-4.7 0.8 0 0-0.1 0.1-0.1 0.1s0 0.1 0 0.1l1.3 1.3c0 0 0.1 0.1 0.2 0.1 0 0 0 0 0.1 0v0c1-0.2 2.1-0.4 3.2-0.4 2.5 0 5 0.8 7.4 2.3 2.2 1.4 4.1 3.4 5.6 5.7 0 0 0 0 0 0s0 0 0 0c-1.1 1.8-2.5 3.3-4 4.5v0c0 0 0 0.1 0 0.1s0 0.1 0 0.1l1.2 1.2c0 0 0.1 0 0.1 0s0.1 0 0.1 0c1.7-1.4 3.1-3 4.2-4.8l0.1-0.1c0.2-0.3 0.3-0.7 0.3-1.1 0-0.3-0.1-0.7-0.3-1zM14.6 10.3c0 0 0 0 0 0l7.1 7.1c0 0 0.1 0 0.1 0 0.1 0 0.1 0 0.1-0.1v0c0.1-0.4 0.2-0.9 0.2-1.3 0-3.3-2.7-6-6-6v0c0 0 0 0 0 0-0.5 0-0.9 0.1-1.3 0.2-0.2 0-0.2 0-0.2 0.1zM17.4 21.8c0 0 0 0.1 0 0-0.1 0.1-0.1 0.1 0 0v0zM17.4 21.7c0 0 0 0 0 0l-7.1-7.1c0 0-0.1 0-0.1 0-0.1 0-0.1 0-0.1 0.1v0c0 0.4-0.1 0.8-0.1 1.3 0 3.3 2.7 6 6 6 0.5 0 0.9-0.1 1.3-0.2 0.1 0 0.1 0 0.1-0.1zM14.6 10.2c0 0 0.1 0 0 0 0.1 0 0.1 0 0 0v0z"></path>
</svg>
