<svg version="1.1" xmlns="http://www.w3.org/2000/svg" width="32" height="32" viewBox="0 0 32 32">
<title>eye_visibility_show_visible</title>
<path d="M30.7 14.9c0 0 0 0 0 0-3.7-5.6-9.1-8.9-14.7-8.9-5.5 0-10.6 3.2-14.6 8.9-0.3 0.3-0.4 0.7-0.4 1.1s0.1 0.8 0.3 1.1c0 0 0 0 0 0 3.6 5.5 9 8.9 14.6 8.9s11.1-3.3 14.7-8.9c0.2-0.3 0.3-0.7 0.3-1.1 0.1-0.4 0-0.8-0.2-1.1zM29 16c-3.2 5-8.1 8-13 8s-9.8-3-13-8c0 0 0 0 0 0 3.6-5.2 8.2-8 13-8 4.9 0 9.8 3 13 8 0 0 0 0 0 0v0zM16 10c-3.3 0-6 2.7-6 6s2.7 6 6 6 6-2.7 6-6-2.7-6-6-6zM16 20c-2.2 0-4-1.8-4-4s1.8-4 4-4c2.2 0 4 1.8 4 4s-1.8 4-4 4z"></path>
</svg>
