<!-- Generated by IcoMoon.io -->
<svg version="1.1" xmlns="http://www.w3.org/2000/svg" width="32" height="32" viewBox="0 0 32 32">
<title>eyedropper_color</title>
<path d="M28.8 3.2c-0.7-0.8-1.8-1.2-2.9-1.2s-2 0.4-2.8 1.2c0 0 0 0.1-0.1 0.1l-3.4 4.4c-0.3 0.3-0.7 0.3-1 0.2l-0.1-0.1c-1.1-1.1-3.1-1.1-4.2 0-0.6 0.6-0.9 1.3-0.9 2.1s0.3 1.6 0.9 2.1l0.7 0.7-11.3 11.4c0 0-0.1 0.1-0.1 0.1s0 0 0 0 0 0 0 0c-0.8 1-1.3 3.5-1.5 4.6-0.1 0.3 0 0.6 0.3 0.9 0.1 0.2 0.3 0.3 0.6 0.3 0.1 0 0.1 0 0.2 0 0.8-0.1 3.5-0.6 4.6-1.5 0 0 0 0 0 0s0 0 0 0 0.1-0.1 0.1-0.1l11.3-11.4 0.7 0.7c0.6 0.6 1.3 0.9 2.1 0.9s1.6-0.3 2.1-0.9c1.2-1.2 1.2-3.1 0-4.2l-0.1-0.1c0-0.3-0.1-0.7 0.3-1.1l4.4-3.4c0 0 0.1-0.1 0.1-0.1 0.8-0.7 1.2-1.7 1.2-2.8 0-1-0.4-2-1.2-2.8zM6.6 26.8c-0.2 0.1-1 0.5-1.5 0s-0.1-1.2 0-1.5l11.2-11.2 1.4 1.4-11.1 11.3zM22.8 16.3c-0.4 0.4-1 0.4-1.4 0l-1.4-1.4c0 0 0 0 0 0s0 0 0 0l-2.8-2.8c0 0 0 0 0 0s0 0 0 0l-1.4-1.4c-0.2-0.2-0.3-0.4-0.3-0.7s0.1-0.5 0.3-0.7c0.2-0.2 0.4-0.3 0.7-0.3s0.5 0.1 0.7 0.3l5.7 5.7c0.3 0.3 0.3 0.9-0.1 1.3zM27.4 7.4l-4.4 3.4c0 0-0.1 0.1-0.1 0.1-0.3 0.3-0.4 0.5-0.6 0.8l-2.1-2.1c0.3-0.1 0.6-0.3 0.8-0.6 0 0 0.1-0.1 0.1-0.1l3.4-4.4c0.5-0.3 0.9-0.5 1.4-0.5s1.1 0.2 1.5 0.6c0.4 0.4 0.6 0.9 0.6 1.4s-0.2 1-0.6 1.4z"></path>
</svg>
