<svg version="1.1" xmlns="http://www.w3.org/2000/svg" width="32" height="32" viewBox="0 0 32 32">
<title>eyedropper_color</title>
<path d="M25.246 10.57c-0.229 0-0.452-0.119-0.575-0.331-0.186-0.318-0.078-0.726 0.24-0.911l4.358-2.539c0.501-0.286 0.858-0.747 1.009-1.298s0.077-1.129-0.207-1.626c-0.283-0.496-0.743-0.852-1.296-1.003-0.553-0.15-1.129-0.077-1.625 0.207l-4.371 2.516c-0.318 0.183-0.727 0.075-0.91-0.245s-0.074-0.727 0.246-0.91l4.372-2.518c0.806-0.463 1.746-0.582 2.638-0.337 0.896 0.243 1.643 0.822 2.103 1.626 0.461 0.807 0.581 1.743 0.336 2.639s-0.823 1.642-1.629 2.102l-4.353 2.536c-0.106 0.061-0.221 0.090-0.336 0.090z"></path>
<path d="M25.885 11.69c-0.231 0-0.456-0.12-0.579-0.336l-4.098-7.171c-0.182-0.32-0.072-0.727 0.249-0.909 0.315-0.184 0.725-0.074 0.91 0.248l4.098 7.171c0.182 0.32 0.072 0.727-0.249 0.909-0.104 0.060-0.217 0.088-0.331 0.088z"></path>
<path d="M3.449 30.518c-1.731 0-3.138-1.408-3.138-3.138 0-0.81 2.203-5.928 3.138-5.928s3.139 5.119 3.139 5.928c0 1.73-1.408 3.138-3.139 3.138zM3.449 23.366c-0.708 1.207-1.805 3.281-1.805 4.014 0 0.995 0.81 1.805 1.805 1.805s1.805-0.81 1.805-1.805c0-0.734-1.097-2.807-1.805-4.014z"></path>
<path d="M4.331 20.094c-0.232 0-0.457-0.122-0.579-0.336l-0.814-1.424c-0.167-0.293-0.090-0.665 0.182-0.866l5.388-3.995 12.499-7.059c0.319-0.181 0.727-0.070 0.909 0.253 0.181 0.32 0.068 0.727-0.253 0.908l-12.431 7.014-4.843 3.596 0.227 0.397 5.631-2.384 12.356-6.954c0.319-0.179 0.728-0.066 0.908 0.255 0.181 0.321 0.066 0.727-0.254 0.908l-12.423 6.985-6.243 2.648c-0.084 0.037-0.173 0.053-0.26 0.053z"></path>
</svg>
