<svg version="1.1" xmlns="http://www.w3.org/2000/svg" width="32" height="32" viewBox="0 0 32 32">
<title>facebook_outline</title>
<path d="M23.357 10.981c-0.125-0.139-0.328-0.211-0.605-0.212l-3.781-0.001v-2.351c0.004-0.787 0.184-0.971 0.961-0.98 0.409-0.005 0.815-0.008 1.224-0.008h1.46c0.611-0.003 0.817-0.205 0.82-0.803l0.024-4.217c0-0.221-0.060-0.396-0.181-0.519-0.127-0.127-0.309-0.192-0.545-0.192l-2.367-0.008c-0.656 0-1.311 0.005-1.968 0.021-0.691 0.017-1.381 0.097-2.056 0.24-2.359 0.499-3.796 1.883-4.275 4.115-0.157 0.729-0.196 1.495-0.236 2.247l-0.013 0.268c-0.028 0.497-0.021 0.996-0.016 1.516l0.005 0.669h-2.491c-0.593 0.004-0.816 0.224-0.817 0.817-0.003 1.407-0.001 2.813 0 4.22 0 0.613 0.22 0.832 0.837 0.832l2.472 0.001v12.829c0 0.643 0.192 0.84 0.821 0.841h5.445c0.708 0 0.891-0.181 0.891-0.883l0.001-12.787 3.245-0.001c0.441-0.003 0.691-0.197 0.739-0.579 0.188-1.495 0.372-2.991 0.539-4.488 0.031-0.26-0.015-0.457-0.133-0.589zM20.52 2.965c0.468-0.004 0.937-0.009 1.436-0.021 0.099 0 0.155 0.015 0.189 0.049 0.021 0.021 0.048 0.060 0.048 0.159l-0.001 3.013-0.504-0.001-0.805 0.015c-0.403 0.007-0.805 0.015-1.203 0.060-1.275 0.145-1.917 0.843-1.961 2.132-0.029 0.852-0.021 1.707-0.012 2.56l0.005 0.432c0.003 0.429 0.26 0.667 0.727 0.669l3.732 0.003-0.403 3.336h-3.14c-0.732 0-0.92 0.187-0.92 0.907l0.020 12.735-0.159 0.045-1.284 0.003c-0.979 0-1.956 0.001-2.943 0.009-0.103 0-0.172-0.020-0.212-0.060-0.060-0.061-0.060-0.18-0.060-0.295l0.003-12.537c0-0.587-0.223-0.805-0.821-0.805l-2.453-0.001v-3.337h2.384c0.697-0.001 0.88-0.185 0.889-0.891l0.008-1.127c0.005-0.963 0.011-1.956 0.071-2.931 0.148-2.391 1.539-3.813 3.915-4.005 1.096-0.089 2.217-0.101 3.304-0.113l0.151-0.001z"></path>
</svg>
