<svg version="1.1" xmlns="http://www.w3.org/2000/svg" width="32" height="32" viewBox="0 0 32 32">
<title>factory_work</title>
<path d="M7.437 32c-0.010-0.001-0.018 0-0.027 0h-6.7c-0.18 0-0.352-0.073-0.477-0.201-0.125-0.129-0.193-0.302-0.189-0.482l0.723-30.667c0.008-0.362 0.305-0.651 0.667-0.651h4.839c0.359 0 0.653 0.284 0.666 0.642l1.131 30.481c0.022 0.066 0.034 0.137 0.034 0.211 0 0.369-0.298 0.667-0.667 0.667zM1.393 30.667h5.325l-1.088-29.333h-3.545l-0.692 29.333z"></path>
<path d="M15.333 32h-7.923c-0.359 0-0.653-0.284-0.666-0.642l-0.472-12.556c-0.009-0.242 0.114-0.47 0.322-0.596l8.395-5.059c0.207-0.123 0.464-0.126 0.673-0.010 0.209 0.118 0.339 0.34 0.339 0.581v17.615c0 0.369-0.298 0.667-0.667 0.667zM8.053 30.667h6.614v-15.768l-7.047 4.247 0.433 11.521z"></path>
<path d="M23.333 32h-8c-0.369 0-0.667-0.298-0.667-0.667v-12.719c0-0.232 0.12-0.448 0.318-0.569l8.001-4.896c0.206-0.127 0.462-0.132 0.673-0.013 0.211 0.118 0.341 0.34 0.341 0.582v17.615c0 0.369-0.298 0.667-0.667 0.667zM16 30.667h6.667v-15.759l-6.667 4.081v11.678z"></path>
<path d="M31.333 32h-8c-0.369 0-0.667-0.298-0.667-0.667v-12.719c0-0.232 0.121-0.448 0.319-0.569l8-4.896c0.206-0.127 0.462-0.132 0.673-0.013 0.211 0.118 0.341 0.34 0.341 0.582v17.615c0 0.369-0.298 0.667-0.667 0.667zM24 30.667h6.667v-15.759l-6.667 4.081v11.678z"></path>
<path d="M11.342 22.846c-0.369 0-0.667-0.298-0.667-0.667v-1.676c0-0.369 0.298-0.667 0.667-0.667s0.667 0.298 0.667 0.667v1.676c0 0.368-0.298 0.667-0.667 0.667z"></path>
<path d="M19.344 22.846c-0.369 0-0.667-0.298-0.667-0.667v-1.676c0-0.369 0.298-0.667 0.667-0.667s0.667 0.298 0.667 0.667v1.676c0 0.368-0.298 0.667-0.667 0.667z"></path>
<path d="M27.344 22.846c-0.369 0-0.667-0.298-0.667-0.667v-1.676c0-0.369 0.298-0.667 0.667-0.667s0.667 0.298 0.667 0.667v1.676c0 0.368-0.298 0.667-0.667 0.667z"></path>
</svg>
