<svg version="1.1" xmlns="http://www.w3.org/2000/svg" width="32" height="32" viewBox="0 0 32 32">
<title>fast_sending</title>
<path d="M16.133 0.533c-3.867 0-6.933 3.067-6.933 6.933s3.067 6.933 6.933 6.933c3.867 0 6.933-3.067 6.933-6.933s-3.067-6.933-6.933-6.933zM16.133 13.067c-3.067 0-5.6-2.4-5.6-5.467s2.533-5.6 5.6-5.6c3.067 0 5.6 2.4 5.6 5.467s-2.533 5.6-5.6 5.6z"></path>
<path d="M17.6 5.067l-1.467 1.467-2.533-2.533c-0.267-0.267-0.667-0.267-0.933 0 0 0 0 0 0 0s0 0 0 0 0 0 0 0c-0.267 0.267-0.267 0.667 0 0.933 0 0 0 0 0 0v0c0 0 0 0 0 0v0l2.933 3.067c0.267 0.267 0.667 0.267 0.933 0 0 0 0 0 0 0s0 0 0 0c0.133-0.133 0.133-0.133 0.267-0.267s0.267-0.267 0.4-0.4c0.133-0.133 0.4-0.4 0.533-0.533 0.267-0.267 0.533-0.533 0.667-0.667 0.267-0.267 0.267-0.667 0-0.933s-0.533-0.4-0.8-0.133z"></path>
<path d="M6 18.933h-3.867c-0.4 0-0.667 0.267-0.667 0.667s0.267 0.667 0.667 0.667h3.867c0.4 0 0.667-0.267 0.667-0.667s-0.267-0.667-0.667-0.667z"></path>
<path d="M7.333 16.267h-6.533c-0.4 0-0.667 0.267-0.667 0.667s0.267 0.667 0.667 0.667h6.533c0.4 0 0.667-0.267 0.667-0.667s-0.267-0.667-0.667-0.667z"></path>
<path d="M28.667 9.067c-1.867 0-3.333 1.467-3.333 3.333 0 0.8 0.267 1.6 0.8 2.133l-2.8 3.733c-0.4-0.267-0.933-0.4-1.467-0.4-1.467 0-2.667 0.933-3.2 2.133l-3.733-0.667c0-1.867-1.467-3.333-3.333-3.333s-3.333 1.467-3.333 3.333c0 0.8 0.267 1.467 0.8 2.133l-3.067 3.6c-0.533-0.267-1.067-0.4-1.6-0.4-1.867 0-3.333 1.467-3.333 3.333s1.467 3.333 3.333 3.333 3.333-1.467 3.333-3.333c0-0.8-0.267-1.467-0.8-2.133l3.067-3.6c0.4 0.267 1.067 0.4 1.6 0.4 1.467 0 2.667-0.933 3.2-2.133l3.733 0.667c0 1.867 1.467 3.333 3.333 3.333s3.333-1.467 3.333-3.333c0-0.933-0.4-1.6-0.933-2.267l2.667-3.6c0.4 0.267 0.933 0.4 1.6 0.4 1.867 0 3.333-1.467 3.333-3.333s-1.333-3.333-3.2-3.333zM4.267 30c-1.067 0-2-0.933-2-2s0.933-2 2-2 2 0.933 2 2-0.8 2-2 2zM11.6 21.333c-1.067 0-2-0.933-2-2s0.933-2 2-2 2 0.933 2 2-0.933 2-2 2zM21.867 23.333c-1.067 0-2-0.933-2-2s0.933-2 2-2 2 0.933 2 2-0.933 2-2 2zM28.667 14.4c-1.067 0-2-0.933-2-2s0.933-2 2-2 2 0.933 2 2-0.933 2-2 2z"></path>
</svg>
