<!-- Generated by IcoMoon.io -->
<svg version="1.1" xmlns="http://www.w3.org/2000/svg" width="32" height="32" viewBox="0 0 32 32">
<title>file_font_ttf_otf_type_text</title>
<path d="M4.398 4.586c0.375-0.375 0.884-0.586 1.414-0.586h6v7c0 0.796 0.316 1.559 0.879 2.121s1.326 0.879 2.121 0.879h7v2.125h2v-2.297c0-0.795-0.316-1.558-0.878-2.121l-8.829-8.829c-0.562-0.562-1.325-0.878-2.121-0.878h-6.172c-1.061 0-2.078 0.421-2.828 1.172s-1.172 1.768-1.172 2.828v20c0 1.061 0.421 2.078 1.172 2.828s1.768 1.172 2.828 1.172h5.438v-2h-5.438c-0.53 0-1.039-0.211-1.414-0.586s-0.586-0.884-0.586-1.414v-20c0-0.53 0.211-1.039 0.586-1.414zM12.813 11c1 0 1 0 1 0zM14.105 11.707c-0.188-0.188-0.293-0.442-0.293-0.707v-5.586l6.586 6.586h-5.586c-0.265 0-0.52-0.105-0.707-0.293zM12.813 11h-1z"></path>
<path d="M18.258 17.625c-0.084-0.226-0.3-0.375-0.54-0.375s-0.456 0.149-0.54 0.375l-2.809 7.5c-0.003 0.008-0.006 0.017-0.009 0.025l-1.51 4.033c-0.112 0.299 0.039 0.632 0.338 0.744s0.631-0.039 0.743-0.338l1.374-3.67h4.827l1.374 3.67c0.112 0.299 0.445 0.45 0.743 0.338s0.45-0.445 0.338-0.744l-1.51-4.033c-0.003-0.008-0.006-0.017-0.009-0.025l-2.809-7.5zM17.718 19.474l1.981 5.289h-3.961l1.98-5.289zM24.525 23.255c0.347-0.819 1.175-1.382 2.138-1.382 0.693 0 1.265 0.24 1.66 0.629 0.394 0.388 0.648 0.957 0.648 1.683v0.295c-0.768 0.015-1.83 0.063-2.808 0.178v0c-0.641 0.076-1.361 0.266-1.936 0.674-0.601 0.426-1.026 1.083-1.026 1.995 0 0.803 0.303 1.484 0.82 1.96 0.511 0.471 1.197 0.713 1.921 0.713 1.061 0 2.122-0.265 2.922-0.995 0.037-0.033 0.072-0.067 0.107-0.102v0.483c0 0.319 0.258 0.578 0.577 0.578s0.577-0.259 0.577-0.578v-3.787c0-0.002 0-0.004 0-0.006v-0.542c0 0 0-0.001 0-0.002v-0.865c0-1.008-0.359-1.884-0.993-2.507-0.632-0.622-1.504-0.96-2.469-0.96-1.417 0-2.668 0.832-3.2 2.086-0.125 0.294 0.012 0.633 0.305 0.758s0.632-0.012 0.757-0.306zM24.894 26.275c0.356-0.253 0.863-0.405 1.403-0.469v0c0.922-0.109 1.933-0.155 2.673-0.17-0.008 1.287-0.384 2.058-0.884 2.515-0.517 0.471-1.259 0.694-2.145 0.694-0.471 0-0.867-0.156-1.139-0.407-0.267-0.246-0.448-0.613-0.448-1.11s0.21-0.818 0.54-1.052z"></path>
</svg>
