<!-- Generated by IcoMoon.io -->
<svg version="1.1" xmlns="http://www.w3.org/2000/svg" width="32" height="32" viewBox="0 0 32 32">
<title>file_document_legal_text</title>
<path fill="none" stroke-linejoin="round" stroke-linecap="butt" stroke-miterlimit="4" stroke-width="2" stroke="#000" d="M10 21v-18l2 1 2-1 1.996 1 2.023-1 1.981 1 1.987-1 1.996 1 2.017-1 2.001 1 1.999-1v14"></path>
<path fill="none" stroke-linejoin="round" stroke-linecap="butt" stroke-miterlimit="4" stroke-width="2" stroke="#000" d="M30 17v7c0 2.761-2.239 5-5 5v0 0c-2.761 0-5-2.239-5-5v0-3h-17c-0.003-0-0.006-0-0.009-0-0.547 0-0.991 0.444-0.991 0.991 0 0.003 0 0.006 0 0.009v-0c0 4 0.421 7 5 7h18"></path>
<path fill="none" stroke-linejoin="round" stroke-linecap="round" stroke-miterlimit="4" stroke-width="2" stroke="#000" d="M14 9h12M18 14h8"></path>
</svg>
