<svg version="1.1" xmlns="http://www.w3.org/2000/svg" width="32" height="32" viewBox="0 0 32 32">
<title>file_table</title>
<path d="M27.353 6.68h-5.333c-0.369 0-0.667-0.298-0.667-0.667v-5.333c0-0.369 0.298-0.667 0.667-0.667s0.667 0.298 0.667 0.667v4.667h4.667c0.369 0 0.667 0.298 0.667 0.667s-0.298 0.667-0.667 0.667z"></path>
<path d="M26.297 32.013h-20.561c-0.947 0-1.717-0.777-1.717-1.733v-28.526c0-0.96 0.77-1.741 1.717-1.741h16.284c0.557 0 0.854 0.292 1.070 0.505l4.417 4.358c0.238 0.236 0.513 0.579 0.513 1.137v24.267c-0 0.956-0.772 1.733-1.723 1.733zM22.010 1.337l-16.275 0.009c-0.208 0-0.383 0.187-0.383 0.408v28.526c0 0.216 0.176 0.4 0.383 0.4h20.561c0.211 0 0.389-0.184 0.389-0.4v-24.267c0-0.047 0-0.072-0.117-0.187l-4.417-4.358c-0.037-0.037-0.115-0.114-0.142-0.13z"></path>
<path d="M12.699 18.724h-3.949c-0.369 0-0.667-0.298-0.667-0.667v-3.996c0-0.369 0.298-0.667 0.667-0.667h3.949c0.369 0 0.667 0.298 0.667 0.667v3.996c0 0.368-0.298 0.667-0.667 0.667zM9.416 17.391h2.616v-2.663h-2.616v2.663z"></path>
<path d="M12.699 14.728h-3.949c-0.369 0-0.667-0.298-0.667-0.667v-3.996c0-0.369 0.298-0.667 0.667-0.667h3.949c0.369 0 0.667 0.298 0.667 0.667v3.996c0 0.369-0.298 0.667-0.667 0.667zM9.416 13.395h2.616v-2.663h-2.616v2.663z"></path>
<path d="M12.699 22.72h-3.949c-0.369 0-0.667-0.298-0.667-0.667v-3.996c0-0.369 0.298-0.667 0.667-0.667h3.949c0.369 0 0.667 0.298 0.667 0.667v3.996c0 0.369-0.298 0.667-0.667 0.667zM9.416 21.387h2.616v-2.663h-2.616v2.663z"></path>
<path d="M12.699 26.715h-3.949c-0.369 0-0.667-0.298-0.667-0.667v-3.995c0-0.369 0.298-0.667 0.667-0.667h3.949c0.369 0 0.667 0.298 0.667 0.667v3.995c0 0.369-0.298 0.667-0.667 0.667zM9.416 25.381h2.616v-2.661h-2.616v2.661z"></path>
<path d="M17.982 18.724h-5.283c-0.369 0-0.667-0.298-0.667-0.667v-3.996c0-0.369 0.298-0.667 0.667-0.667h5.283c0.369 0 0.667 0.298 0.667 0.667v3.996c0 0.368-0.298 0.667-0.667 0.667zM13.365 17.391h3.95v-2.663h-3.95v2.663z"></path>
<path d="M17.982 14.728h-5.283c-0.369 0-0.667-0.298-0.667-0.667v-3.996c0-0.369 0.298-0.667 0.667-0.667h5.283c0.369 0 0.667 0.298 0.667 0.667v3.996c0 0.369-0.298 0.667-0.667 0.667zM13.365 13.395h3.95v-2.663h-3.95v2.663z"></path>
<path d="M17.982 22.72h-5.283c-0.369 0-0.667-0.298-0.667-0.667v-3.996c0-0.369 0.298-0.667 0.667-0.667h5.283c0.369 0 0.667 0.298 0.667 0.667v3.996c0 0.369-0.298 0.667-0.667 0.667zM13.365 21.387h3.95v-2.663h-3.95v2.663z"></path>
<path d="M17.982 26.715h-5.283c-0.369 0-0.667-0.298-0.667-0.667v-3.995c0-0.369 0.298-0.667 0.667-0.667h5.283c0.369 0 0.667 0.298 0.667 0.667v3.995c0 0.369-0.298 0.667-0.667 0.667zM13.365 25.381h3.95v-2.661h-3.95v2.661z"></path>
<path d="M23.264 18.724h-5.283c-0.369 0-0.667-0.298-0.667-0.667v-3.996c0-0.369 0.298-0.667 0.667-0.667h5.283c0.369 0 0.667 0.298 0.667 0.667v3.996c0 0.368-0.298 0.667-0.667 0.667zM18.648 17.391h3.949v-2.663h-3.949v2.663z"></path>
<path d="M23.264 14.728h-5.283c-0.369 0-0.667-0.298-0.667-0.667v-3.996c0-0.369 0.298-0.667 0.667-0.667h5.283c0.369 0 0.667 0.298 0.667 0.667v3.996c0 0.369-0.298 0.667-0.667 0.667zM18.648 13.395h3.949v-2.663h-3.949v2.663z"></path>
<path d="M23.264 22.72h-5.283c-0.369 0-0.667-0.298-0.667-0.667v-3.996c0-0.369 0.298-0.667 0.667-0.667h5.283c0.369 0 0.667 0.298 0.667 0.667v3.996c0 0.369-0.298 0.667-0.667 0.667zM18.648 21.387h3.949v-2.663h-3.949v2.663z"></path>
<path d="M23.264 26.715h-5.283c-0.369 0-0.667-0.298-0.667-0.667v-3.995c0-0.369 0.298-0.667 0.667-0.667h5.283c0.369 0 0.667 0.298 0.667 0.667v3.995c0 0.369-0.298 0.667-0.667 0.667zM18.648 25.381h3.949v-2.661h-3.949v2.661z"></path>
</svg>
