<svg version="1.1" xmlns="http://www.w3.org/2000/svg" width="32" height="32" viewBox="0 0 32 32">
<title>file_profile_user_personal2</title>
<path d="M23.34 6.68h-5.333c-0.369 0-0.667-0.298-0.667-0.667v-5.333c0-0.369 0.298-0.667 0.667-0.667s0.667 0.298 0.667 0.667v4.667h4.667c0.369 0 0.667 0.298 0.667 0.667s-0.298 0.667-0.667 0.667z"></path>
<path d="M22.284 32.013h-20.562c-0.946 0-1.716-0.777-1.716-1.733v-28.526c0-0.96 0.77-1.741 1.716-1.741h16.285c0.557 0 0.854 0.292 1.070 0.505l4.417 4.358c0.238 0.236 0.513 0.579 0.513 1.137v2.752c0 0.369-0.298 0.667-0.667 0.667s-0.667-0.298-0.667-0.667v-2.752c0-0.047 0-0.072-0.117-0.187l-4.417-4.358c-0.036-0.037-0.115-0.114-0.142-0.13l-16.275 0.009c-0.208 0-0.383 0.187-0.383 0.408v28.526c0 0.216 0.175 0.4 0.383 0.4h20.562c0.211 0 0.389-0.184 0.389-0.4v-1.583c0-0.369 0.298-0.667 0.667-0.667s0.667 0.298 0.667 0.667v1.583c0 0.956-0.773 1.733-1.723 1.733z"></path>
<path d="M13.931 18.62h-8.015c-0.369 0-0.667-0.298-0.667-0.667s0.298-0.667 0.667-0.667h8.015c0.369 0 0.667 0.298 0.667 0.667s-0.298 0.667-0.667 0.667z"></path>
<path d="M13.931 22.658h-8.015c-0.369 0-0.667-0.298-0.667-0.667s0.298-0.667 0.667-0.667h8.015c0.369 0 0.667 0.298 0.667 0.667s-0.298 0.667-0.667 0.667z"></path>
<path d="M13.931 14.581h-8.015c-0.369 0-0.667-0.298-0.667-0.667s0.298-0.667 0.667-0.667h8.015c0.369 0 0.667 0.298 0.667 0.667s-0.298 0.667-0.667 0.667z"></path>
<path d="M30.895 26.71h-12.478c-0.63 0-1.143-0.529-1.143-1.178v-1.799c0-0.486 0.283-0.915 0.719-1.095 3.398-1.395 4.177-2.027 4.352-2.227v-0.301c-0.404-0.501-0.723-1.129-0.934-1.839-0.279-0.279-0.465-0.652-0.521-1.056-0.060-0.423 0.022-0.841 0.231-1.202v-1.412c0-2.139 1.355-3.467 3.536-3.467 2.212 0 3.534 1.296 3.534 3.467v1.411c0.208 0.361 0.29 0.78 0.232 1.203-0.056 0.404-0.242 0.777-0.521 1.056-0.211 0.71-0.53 1.337-0.934 1.839v0.316c0.142 0.156 0.876 0.786 4.35 2.211 0.43 0.175 0.72 0.615 0.72 1.095v1.799c-0 0.65-0.513 1.179-1.143 1.179zM18.607 25.376h12.098v-1.549c-4.349-1.792-4.884-2.518-5.043-3.059-0.018-0.060-0.027-0.124-0.027-0.187v-0.719c0-0.167 0.063-0.328 0.176-0.452 0.381-0.413 0.677-0.993 0.858-1.678 0.038-0.147 0.125-0.275 0.246-0.365 0.1-0.075 0.168-0.198 0.187-0.336 0.012-0.087 0.014-0.257-0.108-0.415-0.089-0.116-0.137-0.258-0.137-0.405v-1.61c0-1.436-0.72-2.133-2.201-2.133-1.462 0-2.203 0.718-2.203 2.133v1.611c0 0.146-0.048 0.289-0.137 0.405-0.121 0.158-0.119 0.327-0.107 0.413 0.019 0.139 0.087 0.262 0.187 0.337 0.121 0.090 0.208 0.217 0.246 0.365 0.181 0.685 0.477 1.266 0.858 1.678 0.113 0.124 0.176 0.285 0.176 0.452v0.719c0 0.064-0.009 0.126-0.027 0.187-0.195 0.668-1.131 1.445-5.043 3.059v1.549z"></path>
</svg>
