<svg version="1.1" xmlns="http://www.w3.org/2000/svg" width="32" height="32" viewBox="0 0 32 32">
<title>file_protected_password_security</title>
<path d="M27.359 6.68h-5.333c-0.369 0-0.667-0.298-0.667-0.667v-5.333c0-0.369 0.298-0.667 0.667-0.667s0.667 0.298 0.667 0.667v4.667h4.667c0.369 0 0.667 0.298 0.667 0.667s-0.298 0.667-0.667 0.667z"></path>
<path d="M26.303 32.013h-20.561c-0.947 0-1.717-0.777-1.717-1.733v-28.526c0-0.96 0.77-1.741 1.717-1.741h16.284c0.557 0 0.854 0.292 1.070 0.505l4.417 4.358c0.238 0.236 0.513 0.579 0.513 1.137v24.267c0 0.956-0.772 1.733-1.723 1.733zM22.017 1.337l-16.275 0.009c-0.208 0-0.383 0.187-0.383 0.408v28.526c0 0.216 0.176 0.4 0.383 0.4h20.561c0.211 0 0.389-0.184 0.389-0.4v-24.267c0-0.047 0-0.072-0.117-0.187l-4.417-4.358c-0.036-0.037-0.115-0.114-0.142-0.13z"></path>
<path d="M19.194 25.393h-6.389c-1.055 0-1.913-0.939-1.913-2.092l-0.548-6.522c-0.003-1.21 0.855-2.148 1.909-2.148h7.492c1.055 0 1.913 0.939 1.913 2.092l-0.553 6.634c0.003 1.098-0.856 2.036-1.91 2.036zM12.253 15.964c-0.314 0-0.579 0.348-0.579 0.759l0.548 6.522c0.003 0.467 0.268 0.815 0.582 0.815h6.389c0.314 0 0.579-0.348 0.579-0.759l0.553-6.634c-0.003-0.355-0.268-0.703-0.582-0.703h-7.491z"></path>
<path d="M18.039 15.956c-0.369 0-0.667-0.298-0.667-0.667v-3.415c0-0.793-0.616-1.438-1.372-1.438s-1.372 0.645-1.372 1.438v3.415c0 0.369-0.298 0.667-0.667 0.667s-0.667-0.298-0.667-0.667v-3.415c0-1.528 1.214-2.771 2.706-2.771s2.706 1.243 2.706 2.771v3.415c0 0.369-0.298 0.667-0.667 0.667z"></path>
<path d="M15.999 22.367c-0.369 0-0.667-0.298-0.667-0.667v-1.689c0-0.369 0.298-0.667 0.667-0.667s0.667 0.298 0.667 0.667v1.689c0 0.369-0.299 0.667-0.667 0.667z"></path>
</svg>
