<svg version="1.1" xmlns="http://www.w3.org/2000/svg" width="32" height="32" viewBox="0 0 32 32">
<title>file_profile_user_personal</title>
<path d="M27.333 6.68h-5.333c-0.369 0-0.667-0.298-0.667-0.667v-5.333c0-0.369 0.298-0.667 0.667-0.667s0.667 0.298 0.667 0.667v4.667h4.667c0.369 0 0.667 0.298 0.667 0.667s-0.298 0.667-0.667 0.667z"></path>
<path d="M26.277 32.013h-20.561c-0.946 0-1.716-0.777-1.716-1.733v-28.526c0-0.96 0.77-1.741 1.716-1.741h16.284c0.557 0 0.854 0.292 1.070 0.505l4.417 4.358c0.238 0.236 0.513 0.579 0.513 1.137v24.267c0 0.956-0.772 1.733-1.723 1.733zM21.991 1.337l-16.275 0.009c-0.208 0-0.383 0.187-0.383 0.407v28.526c0 0.216 0.175 0.4 0.383 0.4h20.561c0.211 0 0.389-0.184 0.389-0.4v-24.267c0-0.047 0-0.072-0.117-0.187l-4.417-4.358c-0.036-0.037-0.115-0.114-0.142-0.13z"></path>
<path d="M21.84 26.616h-11.857c-0.369 0-0.667-0.298-0.667-0.667s0.298-0.667 0.667-0.667h11.857c0.369 0 0.667 0.298 0.667 0.667s-0.298 0.667-0.667 0.667z"></path>
<path d="M21.582 22.612h-11.173c-0.602 0-1.092-0.513-1.092-1.143v-1.671c0-0.467 0.267-0.883 0.68-1.059 2.981-1.267 3.693-1.852 3.859-2.039v-0.259c-0.359-0.465-0.643-1.044-0.832-1.699-0.538-0.558-0.647-1.43-0.264-2.124v-1.304c0-2.016 1.24-3.268 3.235-3.268 2.025 0 3.235 1.222 3.235 3.268v1.305c0.372 0.687 0.262 1.569-0.264 2.121-0.189 0.656-0.473 1.236-0.832 1.7v0.277c0.13 0.139 0.798 0.719 3.859 2.021 0.414 0.176 0.681 0.591 0.681 1.059v1.671c0 0.63-0.49 1.143-1.093 1.143zM10.65 21.279h10.691v-1.369c-3.887-1.663-4.37-2.346-4.514-2.857-0.017-0.060-0.026-0.121-0.026-0.182v-0.669c0-0.164 0.060-0.321 0.169-0.443 0.335-0.377 0.598-0.909 0.758-1.541 0.036-0.145 0.12-0.272 0.238-0.363 0.159-0.122 0.22-0.432 0.061-0.648-0.085-0.115-0.13-0.253-0.13-0.395v-1.495c0-1.32-0.604-1.935-1.902-1.935-1.262 0-1.902 0.651-1.902 1.935v1.496c0 0.143-0.046 0.281-0.13 0.396-0.161 0.218-0.1 0.521 0.062 0.647 0.117 0.091 0.201 0.219 0.237 0.363 0.16 0.63 0.423 1.163 0.758 1.542 0.109 0.122 0.169 0.28 0.169 0.443v0.669c0 0.061-0.008 0.122-0.025 0.182-0.145 0.51-0.627 1.194-4.514 2.857v1.368z"></path>
</svg>
