<svg version="1.1" xmlns="http://www.w3.org/2000/svg" width="32" height="32" viewBox="0 0 32 32">
<title>file_text_long</title>
<path d="M27.371 6.68h-5.333c-0.369 0-0.667-0.298-0.667-0.667v-5.333c0-0.369 0.298-0.667 0.667-0.667s0.667 0.298 0.667 0.667v4.667h4.667c0.369 0 0.667 0.298 0.667 0.667s-0.298 0.667-0.667 0.667z"></path>
<path d="M22.754 24.013h-13.389c-0.369 0-0.667-0.298-0.667-0.667s0.298-0.667 0.667-0.667h13.389c0.369 0 0.667 0.298 0.667 0.667s-0.298 0.667-0.667 0.667z"></path>
<path d="M22.754 20.013h-13.389c-0.369 0-0.667-0.298-0.667-0.667s0.298-0.667 0.667-0.667h13.389c0.369 0 0.667 0.298 0.667 0.667s-0.298 0.667-0.667 0.667z"></path>
<path d="M22.754 16.013h-13.389c-0.369 0-0.667-0.298-0.667-0.667s0.298-0.667 0.667-0.667h13.389c0.369 0 0.667 0.298 0.667 0.667s-0.298 0.667-0.667 0.667z"></path>
<path d="M16.803 12.013h-7.438c-0.369 0-0.667-0.298-0.667-0.667s0.298-0.667 0.667-0.667h7.438c0.369 0 0.667 0.298 0.667 0.667s-0.298 0.667-0.667 0.667z"></path>
<path d="M24.255 31.979c-0.001 0-0.001 0-0.003 0-0.184-0.001-0.359-0.077-0.484-0.211l-3.629-3.878-3.629 3.878c-0.126 0.134-0.302 0.211-0.487 0.211v0c-0.184 0-0.361-0.077-0.487-0.211l-3.628-3.878-3.506 3.747c-0.253 0.268-0.721 0.268-0.974 0l-3.143-3.359c-0.15-0.122-0.247-0.306-0.247-0.51v-26.014c0-0.96 0.77-1.741 1.716-1.741h16.283c0.559 0 0.855 0.292 1.072 0.505l4.417 4.358c0.238 0.236 0.512 0.577 0.512 1.137v22.029c0 0.171-0.066 0.336-0.184 0.46l-3.116 3.271c-0.126 0.133-0.301 0.207-0.483 0.207zM20.139 26.249c0.185 0 0.361 0.077 0.487 0.211l3.633 3.881 2.445-2.566v-21.762c0-0.049 0-0.074-0.116-0.187l-4.417-4.358c-0.036-0.037-0.115-0.113-0.142-0.13l-16.275 0.009c-0.208 0-0.383 0.187-0.383 0.408v25.734l2.544 2.719 3.506-3.747c0.253-0.268 0.721-0.268 0.974 0l3.628 3.878 3.629-3.878c0.126-0.134 0.302-0.211 0.487-0.211z"></path>
</svg>
