<svg version="1.1" xmlns="http://www.w3.org/2000/svg" width="32" height="32" viewBox="0 0 32 32">
<title>file_attachment</title>
<path d="M25.932 11.085h-4.405c-0.369 0-0.667-0.298-0.667-0.667v-4.406c0-0.369 0.298-0.667 0.667-0.667s0.667 0.298 0.667 0.667v3.739h3.738c0.369 0 0.667 0.298 0.667 0.667s-0.298 0.667-0.667 0.667z"></path>
<path d="M25.061 32.013h-18.32c-0.846 0-1.534-0.694-1.534-1.548v-23.565c0-0.857 0.688-1.554 1.534-1.554h14.785c0.509 0 0.784 0.271 0.966 0.45l3.65 3.601c0.197 0.195 0.457 0.511 0.457 1.021v20.046c-0 0.854-0.69 1.548-1.538 1.548zM21.457 6.654l-14.715 0.026c-0.107 0-0.201 0.103-0.201 0.221v23.564c0 0.116 0.092 0.215 0.201 0.215h18.32c0.111 0 0.204-0.099 0.204-0.215v-20.046l-3.71-3.673c-0.037-0.036-0.065-0.069-0.099-0.093z"></path>
<path d="M14.038 17.396c-1.846 0-3.349-1.503-3.349-3.349v-6.081c0-0.369 0.298-0.667 0.667-0.667s0.667 0.298 0.667 0.667v6.081c0 1.111 0.904 2.016 2.016 2.016s2.016-0.904 2.016-2.016v-11.329c0-0.742-0.603-1.344-1.346-1.345s-1.345 0.603-1.345 1.346v3.294c0 0.369-0.298 0.667-0.667 0.667s-0.667-0.298-0.667-0.667v-3.294c0-1.477 1.202-2.679 2.679-2.679s2.678 1.203 2.678 2.678v11.329c0 1.846-1.503 3.349-3.35 3.349z"></path>
</svg>
