<!-- Generated by IcoMoon.io -->
<svg version="1.1" xmlns="http://www.w3.org/2000/svg" width="32" height="32" viewBox="0 0 32 32">
<title>file_protected_password_security</title>
<path d="M6.711 3.586c0.375-0.375 0.884-0.586 1.414-0.586h6v7c0 0.796 0.316 1.559 0.879 2.121s1.326 0.879 2.121 0.879h7v2.125h2v-2.297c0-0.795-0.316-1.558-0.878-2.121l-8.829-8.829c-0.562-0.562-1.325-0.878-2.121-0.878h-6.172c-1.061 0-2.078 0.421-2.828 1.172s-1.172 1.768-1.172 2.828v20c0 1.061 0.421 2.078 1.172 2.828s1.768 1.172 2.828 1.172h5.438v-2h-5.438c-0.53 0-1.039-0.211-1.414-0.586s-0.586-0.884-0.586-1.414v-20c0-0.53 0.211-1.039 0.586-1.414zM15.125 10c1 0 1 0 1 0zM16.418 10.707c-0.188-0.188-0.293-0.442-0.293-0.707v-5.586l6.586 6.586h-5.586c-0.265 0-0.52-0.105-0.707-0.293zM15.125 10h-1z"></path>
<path d="M21.891 19.813c0-2.738-2.224-4.938-5.034-4.938-2.792 0-5.108 2.175-5.108 4.931 0 2.754 2.314 4.939 5.108 4.939 0.577 0 1.072-0.070 1.576-0.239 0.112 0.076 0.315 0.205 0.557 0.257 0.146 0.032 0.276 0.018 0.329 0.011 0.071-0.008 0.14-0.022 0.198-0.035 0.039-0.009 0.081-0.019 0.122-0.029-0.013 0.029-0.026 0.059-0.038 0.087-0.026 0.063-0.056 0.147-0.077 0.241-0.019 0.087-0.043 0.238-0.006 0.411 0.042 0.197 0.144 0.365 0.215 0.469 0.083 0.121 0.186 0.243 0.298 0.353 0.193 0.189 0.544 0.473 0.979 0.524 0.166 0.019 0.319-0.003 0.442-0.034-0.010 0.063-0.016 0.13-0.015 0.201 0.009 0.558 0.34 0.893 0.544 1.082 0.109 0.102 0.264 0.244 0.459 0.349 0.22 0.119 0.459 0.177 0.725 0.174v0c0.127-0.002 0.247-0.019 0.34-0.035 0.054-0.009 0.109-0.021 0.158-0.031-0.004 0.024-0.008 0.051-0.013 0.083v0.001c-0.033 0.218-0.125 0.841 0.338 1.295 0.073 0.072 0.129 0.131 0.205 0.211 0.028 0.030 0.059 0.062 0.094 0.099 0.129 0.135 0.298 0.308 0.575 0.578 0.001 0.001 0.002 0.002 0.003 0.003 0.285 0.274 0.63 0.238 0.762 0.213 0.152-0.029 0.282-0.091 0.369-0.137 0.183-0.097 0.373-0.237 0.534-0.364 0.328-0.26 0.659-0.573 0.797-0.718 0.219-0.229 0.544-0.694 0.544-1.265v0c0-0.204-0.043-0.406-0.127-0.593-0.081-0.18-0.197-0.342-0.342-0.476 0 0-0.001-0.001-0.002-0.002-0.004-0.004-0.010-0.010-0.017-0.018-0.015-0.015-0.033-0.035-0.056-0.060-0.046-0.050-0.106-0.117-0.179-0.199-0.145-0.163-0.336-0.381-0.561-0.64-0.45-0.517-1.031-1.193-1.649-1.914-1.11-1.295-2.335-2.734-3.123-3.658 0.072-0.39 0.072-0.769 0.072-1.081 0-0.015 0-0.030 0-0.045zM23.709 28.21c0 0 0 0.004 0 0.012 0-0.008 0-0.012 0-0.012zM23.911 28.452c0.003 0 0.004 0 0.004 0s-0.001 0-0.004 0zM21.678 26.12c0 0 0 0 0 0.001 0-0.001 0-0.001 0-0.001zM19.857 24.231c0 0-0.001 0.003-0.002 0.008 0.002-0.006 0.002-0.009 0.002-0.008zM16.858 16.366c2.009 0 3.542 1.555 3.542 3.447 0 0.482-0.007 0.795-0.103 1.071-0.087 0.25-0.035 0.527 0.137 0.728 0.057 0.067 0.118 0.139 0.182 0.214 0.784 0.92 2.050 2.407 3.194 3.742 0.619 0.722 1.203 1.401 1.656 1.922 0.436 0.502 0.786 0.899 0.91 1.018 0.002 0.002 0.003 0.003 0.005 0.005-0.001 0.003-0.001 0.006-0.002 0.010-0.005 0.017-0.013 0.040-0.027 0.068-0.029 0.058-0.069 0.11-0.099 0.142-0.094 0.098-0.375 0.365-0.647 0.581-0.017 0.014-0.034 0.027-0.050 0.039-0.075-0.076-0.136-0.139-0.188-0.194-0.027-0.028-0.053-0.055-0.078-0.082-0.057-0.060-0.113-0.119-0.173-0.18 0.002-0.025 0.006-0.056 0.011-0.094 0.006-0.042 0.014-0.084 0.022-0.135 0.001-0.009 0.003-0.017 0.005-0.026 0.010-0.058 0.022-0.13 0.032-0.203s0.017-0.166 0.014-0.266c-0.004-0.099-0.020-0.238-0.083-0.385-0.087-0.203-0.214-0.414-0.429-0.573-0.207-0.154-0.424-0.204-0.543-0.229-0.166-0.035-0.318-0.024-0.415-0.013-0.103 0.012-0.204 0.033-0.279 0.048-0.186 0.039-0.255 0.053-0.302 0.054-0.003 0-0.005 0-0.007 0-0.006-0.004-0.016-0.011-0.030-0.022-0.027-0.022-0.062-0.052-0.113-0.1-0.001-0.001-0.002-0.002-0.003-0.003s-0.001-0.001-0.002-0.002c-0.012-0.012-0.023-0.022-0.033-0.031 0.004-0.009 0.008-0.019 0.013-0.029 0.004-0.008 0.007-0.016 0.011-0.025 0.021-0.047 0.049-0.11 0.074-0.177 0.048-0.127 0.117-0.338 0.103-0.586-0.016-0.28-0.133-0.542-0.349-0.754-0.247-0.242-0.548-0.332-0.832-0.32-0.243 0.010-0.453 0.094-0.575 0.146-0.055 0.024-0.111 0.050-0.155 0.070-0.008 0.004-0.015 0.007-0.023 0.011-0.026 0.012-0.047 0.022-0.066 0.030-0.027-0.020-0.057-0.045-0.088-0.076-0.005-0.005-0.009-0.009-0.014-0.014 0.011-0.022 0.023-0.046 0.036-0.074 0.050-0.103 0.12-0.249 0.171-0.403 0.046-0.14 0.11-0.389 0.049-0.665 0-0.002-0.001-0.004-0.001-0.006-0.038-0.162-0.118-0.288-0.159-0.349-0.053-0.078-0.116-0.154-0.181-0.221-0.1-0.103-0.323-0.31-0.628-0.376-0.146-0.032-0.277-0.018-0.33-0.012-0.071 0.008-0.14 0.022-0.198 0.035-0.111 0.025-0.237 0.059-0.339 0.088l-0.010 0.003c-0.080 0.022-0.148 0.041-0.206 0.055-0.002-0.001-0.004-0.003-0.006-0.004-0.033-0.023-0.065-0.046-0.105-0.075-0.011-0.008-0.023-0.017-0.035-0.026-0.051-0.037-0.118-0.084-0.188-0.128-0.208-0.129-0.465-0.148-0.69-0.051-0.442 0.191-0.836 0.269-1.382 0.269-2.026 0-3.616-1.572-3.616-3.447 0-1.874 1.589-3.439 3.616-3.439zM19.348 23.318c0 0-0.001 0-0.002-0.001 0.001 0.001 0.002 0.001 0.002 0.001zM21.229 25.323c0 0 0 0-0.002-0.001 0.001 0 0.002 0.001 0.002 0.001zM21.080 25.315c-0.003 0.001-0.004 0.001-0.005 0.001s0.001 0 0.005-0.001zM22.92 27.018c0 0 0-0.001 0.001-0.002 0 0.002-0.001 0.002-0.001 0.002zM23.131 27.073c0 0 0 0 0 0s0 0 0 0zM25.281 29.537c0 0 0.001 0 0.003-0.002-0.002 0.001-0.003 0.002-0.003 0.002zM15.873 18.618c0.075 0 0.149 0.022 0.211 0.064s0.111 0.101 0.14 0.171 0.036 0.146 0.022 0.22c-0.015 0.074-0.051 0.141-0.104 0.195s-0.121 0.089-0.195 0.104c-0.074 0.015-0.15 0.007-0.22-0.022s-0.129-0.078-0.171-0.14-0.064-0.136-0.064-0.211c0-0.101 0.040-0.197 0.111-0.269s0.168-0.111 0.269-0.111zM16.912 17.442c-0.308-0.206-0.67-0.315-1.040-0.315-0.496 0-0.972 0.197-1.323 0.548s-0.548 0.827-0.548 1.323c0 0.37 0.11 0.732 0.315 1.040s0.498 0.548 0.84 0.689c0.342 0.142 0.718 0.179 1.081 0.107s0.696-0.25 0.958-0.512c0.262-0.262 0.44-0.595 0.512-0.958s0.035-0.739-0.107-1.081-0.381-0.634-0.689-0.84z"></path>
</svg>
