<!-- Generated by IcoMoon.io -->
<svg version="1.1" xmlns="http://www.w3.org/2000/svg" width="32" height="32" viewBox="0 0 32 32">
<title>file_preferences_settings</title>
<path d="M7.586 4.586c0.375-0.375 0.884-0.586 1.414-0.586h6v7c0 0.796 0.316 1.559 0.879 2.121s1.326 0.879 2.121 0.879h7v2.125h2v-2.297c-0-0.795-0.316-1.558-0.878-2.121l-8.829-8.829c-0.562-0.562-1.325-0.878-2.121-0.878h-6.172c-1.061 0-2.078 0.421-2.828 1.172s-1.172 1.768-1.172 2.828v20c0 1.061 0.421 2.078 1.172 2.828s1.768 1.172 2.828 1.172h5.438v-2h-5.438c-0.53 0-1.039-0.211-1.414-0.586s-0.586-0.884-0.586-1.414v-20c0-0.53 0.211-1.039 0.586-1.414zM16 11c1 0 1-0 1-0zM17.293 11.707c-0.188-0.188-0.293-0.442-0.293-0.707v-5.586l6.586 6.586h-5.586c-0.265 0-0.52-0.105-0.707-0.293zM16 11l-1-0z"></path>
<path d="M19.93 16.688c0.005-0 0.011-0 0.016-0h2.358c0.004 0 0.009 0 0.013 0 0.243 0.004 0.477 0.091 0.665 0.246s0.317 0.37 0.366 0.609c0.003 0.016 0.006 0.032 0.008 0.048l0.162 1.147c0.136 0.071 0.268 0.148 0.396 0.232l1.079-0.434c0.005-0.002 0.009-0.003 0.013-0.005 0.234-0.089 0.491-0.092 0.727-0.010s0.436 0.245 0.564 0.46c0.001 0.002 0.002 0.003 0.003 0.005s0.001 0.002 0.002 0.003l1.178 2.035c0 0 0 0.001 0.001 0.001 0.126 0.217 0.172 0.473 0.127 0.72s-0.175 0.472-0.369 0.632c-0.005 0.004-0.010 0.008-0.015 0.012l-0.918 0.72c0.004 0.076 0.006 0.154 0.006 0.235v0.005c-0 0.074-0.003 0.149-0.006 0.223l0.917 0.718c0.005 0.004 0.011 0.009 0.016 0.013 0.194 0.16 0.324 0.384 0.369 0.632s-0.001 0.503-0.127 0.72c-0 0-0 0-0 0.001l-1.178 2.036c-0.001 0.003-0.003 0.005-0.004 0.007-0.128 0.215-0.328 0.378-0.564 0.461s-0.494 0.079-0.727-0.010c-0.005-0.002-0.009-0.004-0.014-0.005l-1.080-0.434c-0.128 0.082-0.26 0.159-0.394 0.229l-0.162 1.15c-0.001 0.008-0.003 0.017-0.004 0.025-0.043 0.245-0.169 0.467-0.358 0.628s-0.426 0.252-0.674 0.257c-0.003 0-0.007 0-0.011 0-0.002 0-0.004 0-0.006 0h-2.358c-0.004 0-0.009-0-0.013-0-0.243-0.004-0.477-0.091-0.665-0.246s-0.317-0.37-0.366-0.609c-0.003-0.016-0.006-0.032-0.008-0.048l-0.162-1.147c-0.136-0.071-0.268-0.148-0.396-0.232l-1.079 0.434c-0.005 0.002-0.009 0.004-0.013 0.005-0.234 0.089-0.491 0.092-0.727 0.010s-0.436-0.245-0.564-0.46l-0.001-0.002c-0.001-0.002-0.003-0.004-0.004-0.006l-1.178-2.035c-0-0-0.001-0.001-0.001-0.001-0.126-0.217-0.171-0.473-0.127-0.72s0.175-0.472 0.369-0.632c0.005-0.004 0.010-0.008 0.015-0.012l0.916-0.718c-0.004-0.077-0.007-0.156-0.007-0.237 0-0.077 0.002-0.153 0.006-0.228l-0.918-0.72c-0.007-0.006-0.014-0.011-0.021-0.017-0.191-0.161-0.319-0.384-0.361-0.63s0.003-0.499 0.128-0.715c0-0 0-0.001 0-0.001l1.179-2.036c0.001-0.003 0.003-0.005 0.004-0.007 0.128-0.215 0.328-0.378 0.564-0.461s0.494-0.079 0.727 0.010c0.005 0.002 0.009 0.004 0.014 0.005l1.080 0.434c0.128-0.082 0.26-0.159 0.394-0.229l0.162-1.15c0.001-0.008 0.003-0.017 0.004-0.025 0.043-0.245 0.169-0.467 0.358-0.628s0.426-0.252 0.674-0.257zM18.708 18.918c0-0 0-0.001 0-0.001l-0 0.001zM16.078 23.222c-0-0-0-0-0-0l0 0zM20.351 18.218l-0.128 0.911c-0 0-0 0.001-0 0.001v0c-0.027 0.196-0.103 0.381-0.219 0.541s-0.27 0.289-0.448 0.375l-0.001 0c-0.171 0.083-0.336 0.178-0.492 0.286-0.164 0.113-0.352 0.184-0.55 0.207s-0.399-0.004-0.585-0.078l-0.003-0.001-0.858-0.345-0.771 1.332 0.724 0.568c0 0 0 0 0 0 0.157 0.123 0.281 0.284 0.361 0.467s0.113 0.384 0.096 0.584l-0 0.005c-0.008 0.092-0.013 0.182-0.013 0.271 0 0.087 0.005 0.179 0.013 0.276 0.018 0.199-0.013 0.4-0.092 0.583-0.079 0.185-0.203 0.347-0.36 0.472l-0.003 0.003-0.727 0.57 0.771 1.332 0.858-0.345c0.185-0.075 0.387-0.102 0.585-0.079s0.388 0.094 0.553 0.208l0.001 0.001c0.154 0.107 0.316 0.202 0.485 0.284 0.178 0.085 0.333 0.213 0.451 0.373s0.195 0.347 0.223 0.544l0 0.003 0.127 0.902h1.549l0.128-0.911c0-0 0-0 0-0 0.027-0.196 0.103-0.382 0.219-0.542s0.27-0.289 0.448-0.375l0.001-0c0.171-0.083 0.336-0.179 0.493-0.286 0.164-0.113 0.352-0.184 0.55-0.207s0.399 0.004 0.585 0.078l0.003 0.001 0.858 0.345 0.771-1.332-0.92-0.721c-0.215-0.169-0.324-0.439-0.286-0.71 0.022-0.155 0.034-0.311 0.035-0.467-0-0.087-0.005-0.178-0.012-0.277-0.017-0.199 0.015-0.399 0.094-0.582 0.080-0.185 0.204-0.347 0.363-0.472l0.728-0.571-0.771-1.332-0.858 0.345c-0.185 0.075-0.387 0.102-0.585 0.079s-0.388-0.094-0.553-0.208l-0.001-0.001c-0.154-0.107-0.316-0.202-0.485-0.284-0.179-0.085-0.334-0.213-0.451-0.373s-0.195-0.347-0.223-0.544l-0-0.003-0.127-0.902h-1.549zM19.879 21.145c0.454-0.256 0.976-0.367 1.494-0.315l0.001 0c0.581 0.058 1.124 0.315 1.538 0.728s0.671 0.956 0.73 1.537l0 0.001c0.051 0.519-0.059 1.041-0.316 1.494s-0.648 0.816-1.119 1.039c-0.471 0.223-1 0.294-1.513 0.205s-0.987-0.334-1.356-0.702c-0.369-0.368-0.615-0.842-0.704-1.355s-0.017-1.042 0.206-1.513c0.223-0.471 0.587-0.861 1.040-1.118zM21.223 22.352c-0.205-0.020-0.412 0.024-0.591 0.125s-0.323 0.256-0.411 0.441c-0.088 0.186-0.116 0.394-0.081 0.596s0.132 0.389 0.278 0.534c0.146 0.145 0.333 0.243 0.536 0.278s0.413 0.007 0.599-0.081c0.186-0.088 0.341-0.231 0.442-0.41s0.145-0.384 0.125-0.588c-0.023-0.229-0.125-0.443-0.288-0.606s-0.378-0.265-0.609-0.288z"></path>
</svg>
