<!-- Generated by IcoMoon.io -->
<svg version="1.1" xmlns="http://www.w3.org/2000/svg" width="32" height="32" viewBox="0 0 32 32">
<title>file_profile_user_personal</title>
<path d="M23.5 13.1v2.1h2v-2.3c0-0.8-0.3-1.6-0.9-2.1l-8.8-8.8c-0.6-0.6-1.3-0.9-2.1-0.9h-6.2c-1.1 0-2.1 0.4-2.8 1.2-0.8 0.7-1.2 1.7-1.2 2.8v20c0 1.1 0.4 2.1 1.2 2.8s1.8 1.2 2.8 1.2h5.4v-2h-5.4c-0.5 0-1-0.2-1.4-0.6s-0.6-0.9-0.6-1.4v-20c0-0.5 0.2-1 0.6-1.4s0.9-0.6 1.4-0.6h6v7c0 0.8 0.3 1.6 0.9 2.1 0.6 0.6 1.3 0.9 2.1 0.9h7zM15.5 10.1v-5.6l6.6 6.6h-5.6c-0.3 0-0.5-0.1-0.7-0.3s-0.3-0.5-0.3-0.7z"></path>
<path d="M19 17.4c-0.7 0.7-1 1.7-0.9 2.7 0.1 2 1.7 3.7 3.5 3.7s3.3-1.7 3.5-3.7c0.1-1-0.2-2-0.9-2.7s-1.6-1.1-2.6-1.1c-1 0-2 0.4-2.6 1.1zM23.6 20c-0.1 1.2-1 2.3-2 2.3s-1.9-1.1-2-2.3c0-0.6 0.1-1.2 0.5-1.6s0.9-0.6 1.5-0.6c0.6 0 1.1 0.2 1.5 0.6 0.3 0.4 0.5 1 0.5 1.6z"></path>
<path d="M28.4 29.2c-0.6-3.4-3.9-5.1-6.8-5.1-3 0-6.2 1.7-6.9 5.1-0.1 0.4 0 0.8 0.2 1.1 0.2 0.4 0.6 0.6 1.1 0.6h11c0.5 0 0.9-0.2 1.1-0.6 0.3-0.3 0.4-0.7 0.3-1.1zM16.5 29.2c0.6-2.1 2.7-3.3 5.1-3.3s4.5 1.2 5.1 3.3h-10.2z"></path>
</svg>
