<!-- Generated by IcoMoon.io -->
<svg version="1.1" xmlns="http://www.w3.org/2000/svg" width="32" height="32" viewBox="0 0 32 32">
<title>file_search_find_replace_zoom_view</title>
<path d="M7.398 4.586c0.375-0.375 0.884-0.586 1.414-0.586h6v7c0 0.796 0.316 1.559 0.879 2.121s1.326 0.879 2.121 0.879h7v2.125h2v-2.297c0-0.795-0.316-1.558-0.878-2.121l-8.829-8.829c-0.562-0.562-1.325-0.878-2.121-0.878h-6.172c-1.061 0-2.078 0.421-2.828 1.172s-1.172 1.768-1.172 2.828v20c0 1.061 0.421 2.078 1.172 2.828s1.768 1.172 2.828 1.172h5.438v-2h-5.438c-0.53 0-1.039-0.211-1.414-0.586s-0.586-0.884-0.586-1.414v-20c0-0.53 0.211-1.039 0.586-1.414zM15.813 11c1 0 1 0 1 0zM17.105 11.707c-0.188-0.188-0.293-0.442-0.293-0.707v-5.586l6.586 6.586h-5.586c-0.265 0-0.52-0.105-0.707-0.293zM15.813 11h-1z"></path>
<path d="M19.018 16c-1.166 0-2.305 0.346-3.274 0.993s-1.724 1.568-2.171 2.645c-0.446 1.077-0.563 2.262-0.335 3.405s0.789 2.193 1.613 3.017 1.874 1.385 3.017 1.613c1.143 0.227 2.328 0.111 3.405-0.335 0.419-0.174 0.815-0.394 1.18-0.656l3.038 3.038c0.374 0.374 0.98 0.374 1.354 0s0.374-0.98 0-1.354l-3.038-3.038c0.038-0.053 0.075-0.107 0.111-0.161 0.648-0.969 0.993-2.109 0.993-3.274 0-1.563-0.621-3.062-1.726-4.167s-2.604-1.726-4.167-1.726zM21.831 19.080c-0.746-0.746-1.758-1.165-2.813-1.165h3.979v3.979c0-1.055-0.419-2.067-1.165-2.813zM16.808 18.585c0.654-0.437 1.424-0.671 2.21-0.671h3.979v3.979c0 0.787-0.233 1.556-0.671 2.21s-1.058 1.164-1.785 1.465-1.527 0.38-2.299 0.226c-0.772-0.154-1.481-0.532-2.037-1.089s-0.935-1.265-1.089-2.037c-0.154-0.772-0.075-1.572 0.226-2.299s0.811-1.348 1.465-1.786z"></path>
</svg>
