<!-- Generated by IcoMoon.io -->
<svg version="1.1" xmlns="http://www.w3.org/2000/svg" width="32" height="32" viewBox="0 0 32 32">
<title>file_profile_user_personal</title>
<path d="M6.086 3.648c0.375-0.375 0.884-0.586 1.414-0.586h6v7c0 0.796 0.316 1.559 0.879 2.121s1.326 0.879 2.121 0.879h7v2.125h2v-2.297c-0-0.795-0.316-1.558-0.878-2.121l-8.829-8.829c-0.562-0.562-1.325-0.878-2.121-0.878h-6.172c-1.061 0-2.078 0.421-2.828 1.172s-1.172 1.768-1.172 2.828v20c0 1.061 0.421 2.078 1.172 2.828s1.768 1.172 2.828 1.172h5.438v-2h-5.438c-0.53 0-1.039-0.211-1.414-0.586s-0.586-0.884-0.586-1.414v-20c0-0.53 0.211-1.039 0.586-1.414zM14.5 10.063c1 0 1-0 1-0zM15.793 10.77c-0.188-0.188-0.293-0.442-0.293-0.707v-5.586l6.586 6.586h-5.586c-0.265 0-0.52-0.105-0.707-0.293zM14.5 10.063l-1-0z"></path>
<path fill="none" stroke="#000" stroke-linejoin="round" stroke-linecap="round" stroke-miterlimit="4" stroke-width="1.5" d="M24.304 20.063c-0.122 1.652-1.371 3-2.741 3s-2.621-1.348-2.741-3c-0.125-1.719 1.090-3 2.741-3s2.866 1.313 2.741 3z"></path>
<path d="M14.712 29.25c0.613-3.405 3.88-5.063 6.85-5.063s6.237 1.658 6.85 5.063v0c0.066 0.367 0.004 0.77-0.224 1.105-0.241 0.354-0.642 0.582-1.112 0.582h-11.028c-0.47 0-0.87-0.229-1.112-0.582-0.228-0.334-0.29-0.738-0.224-1.105zM21.562 25.911c-2.355 0-4.516 1.223-5.081 3.303h10.163c-0.566-2.080-2.726-3.303-5.082-3.303z"></path>
</svg>
