<svg version="1.1" xmlns="http://www.w3.org/2000/svg" width="32" height="32" viewBox="0 0 32 32">
<title>file_search_find_replace_zoom_view</title>
<path d="M28.847 4.869l-4.419-4.356c-0.216-0.213-0.512-0.506-1.069-0.506h-16.284c-0.947 0-1.716 0.781-1.716 1.741v3.581c0 0.369 0.297 0.666 0.666 0.666s0.666-0.297 0.666-0.666v-3.581c0-0.222 0.175-0.406 0.381-0.406l15.619-0.009v4.675c0 0.369 0.297 0.666 0.666 0.666h4.666v23.6c0 0.216-0.178 0.4-0.391 0.4h-20.563c-0.206 0-0.381-0.184-0.381-0.4v-3.547c0-0.369-0.297-0.666-0.666-0.666s-0.666 0.297-0.666 0.666v3.547c0 0.956 0.769 1.734 1.716 1.734h20.563c0.95 0 1.722-0.778 1.722-1.734v-24.266c0.003-0.556-0.272-0.9-0.509-1.138zM24.025 1.988l3.397 3.353h-3.397v-3.353z"></path>
<path d="M8.031 20.831c1.256 1.047 2.869 1.675 4.628 1.675 3.997 0 7.247-3.25 7.247-7.247s-3.25-7.247-7.244-7.247c-3.997 0-7.247 3.25-7.247 7.247 0 1.759 0.628 3.372 1.675 4.628l-6.794 6.794c-0.259 0.259-0.259 0.681 0 0.944 0.131 0.131 0.3 0.197 0.472 0.197s0.341-0.066 0.472-0.197l6.791-6.794zM12.662 9.347c3.259 0 5.912 2.653 5.912 5.912 0 3.263-2.653 5.912-5.912 5.912-1.619 0-3.091-0.656-4.159-1.712-0.006-0.006-0.012-0.016-0.019-0.022s-0.016-0.012-0.022-0.019c-1.059-1.069-1.713-2.538-1.713-4.159 0-3.259 2.65-5.912 5.912-5.912z"></path>
<path d="M0.769 27.819v0 0z"></path>
</svg>
