<svg version="1.1" xmlns="http://www.w3.org/2000/svg" width="32" height="32" viewBox="0 0 32 32">
<title>file_preferences_settings</title>
<path d="M28.686 6.673h-5.333c-0.369 0-0.667-0.298-0.667-0.667v-5.333c0-0.369 0.298-0.667 0.667-0.667s0.667 0.298 0.667 0.667v4.667h4.667c0.369 0 0.667 0.298 0.667 0.667s-0.298 0.667-0.667 0.667z"></path>
<path d="M27.63 32.007h-20.561c-0.947 0-1.716-0.777-1.716-1.733v-3.548c0-0.369 0.298-0.667 0.667-0.667s0.667 0.298 0.667 0.667v3.548c0 0.216 0.175 0.4 0.383 0.4h20.561c0.211 0 0.389-0.184 0.389-0.4v-24.267c0-0.047 0-0.072-0.117-0.187l-4.417-4.358c-0.036-0.037-0.115-0.114-0.142-0.13l-16.275 0.009c-0.208 0-0.383 0.187-0.383 0.408v3.58c0 0.369-0.298 0.667-0.667 0.667s-0.667-0.298-0.667-0.667v-3.58c0-0.96 0.769-1.741 1.716-1.741h16.284c0.557 0 0.854 0.292 1.070 0.505l4.417 4.358c0.238 0.236 0.513 0.579 0.513 1.137v24.267c-0 0.956-0.773 1.733-1.723 1.733z"></path>
<path d="M8.465 19.115c-1.633 0-2.961-1.328-2.961-2.961s1.328-2.96 2.961-2.96c1.632 0 2.96 1.328 2.96 2.96s-1.328 2.961-2.96 2.961zM8.465 14.527c-0.898 0-1.628 0.73-1.628 1.627s0.73 1.628 1.628 1.628c0.897 0 1.627-0.731 1.627-1.628s-0.73-1.627-1.627-1.627z"></path>
<path d="M6.575 24.231c-0.055 0-0.111-0.007-0.166-0.021-0.766-0.197-1.441-0.474-2.124-0.87-0.26-0.151-0.387-0.457-0.31-0.747l0.421-1.593c-0.266-0.224-0.514-0.469-0.74-0.734l-1.592 0.435c-0.288 0.078-0.596-0.044-0.75-0.305-0.386-0.652-0.693-1.384-0.887-2.116-0.077-0.29 0.049-0.596 0.309-0.747l1.425-0.828c-0.031-0.349-0.032-0.698-0.005-1.046l-1.432-0.817c-0.261-0.148-0.391-0.454-0.316-0.745 0.192-0.745 0.484-1.46 0.869-2.123 0.151-0.26 0.457-0.387 0.747-0.31l1.594 0.421c0.225-0.267 0.471-0.515 0.737-0.742l-0.435-1.591c-0.079-0.29 0.045-0.596 0.303-0.749 0.652-0.386 1.383-0.693 2.117-0.887 0.29-0.078 0.596 0.049 0.747 0.309l0.83 1.426c0.344-0.030 0.693-0.032 1.044-0.004l0.818-1.431c0.148-0.26 0.452-0.391 0.744-0.315 0.755 0.194 1.45 0.479 2.124 0.87 0.259 0.15 0.386 0.456 0.309 0.747l-0.421 1.594c0.266 0.224 0.512 0.469 0.738 0.734l1.591-0.435c0.291-0.075 0.597 0.046 0.749 0.304 0.392 0.663 0.691 1.376 0.887 2.118 0.077 0.29-0.049 0.596-0.309 0.747l-1.427 0.829c0.031 0.346 0.032 0.694 0.005 1.040l1.432 0.816c0.262 0.15 0.391 0.454 0.315 0.745-0.194 0.758-0.478 1.453-0.87 2.125-0.151 0.26-0.458 0.388-0.747 0.31l-1.594-0.422c-0.223 0.266-0.467 0.513-0.732 0.738l0.435 1.591c0.079 0.289-0.045 0.596-0.303 0.749-0.66 0.392-1.372 0.69-2.117 0.889-0.292 0.074-0.598-0.049-0.748-0.31l-0.829-1.426c-0.343 0.029-0.693 0.033-1.042 0.005l-0.818 1.434c-0.121 0.211-0.344 0.336-0.579 0.336zM5.4 22.425c0.279 0.138 0.562 0.254 0.857 0.352l0.775-1.358c0.137-0.24 0.41-0.371 0.68-0.328 0.521 0.078 1.042 0.073 1.548-0.008 0.272-0.051 0.545 0.083 0.684 0.323l0.786 1.35c0.293-0.1 0.579-0.22 0.855-0.358l-0.412-1.508c-0.073-0.266 0.026-0.549 0.249-0.714 0.419-0.307 0.786-0.677 1.091-1.099 0.161-0.223 0.443-0.32 0.711-0.254l1.51 0.4c0.137-0.28 0.253-0.563 0.352-0.859l-1.357-0.773c-0.24-0.137-0.37-0.408-0.328-0.68 0.079-0.514 0.076-1.035-0.007-1.549-0.044-0.273 0.085-0.544 0.323-0.683l1.352-0.786c-0.1-0.293-0.22-0.579-0.358-0.856l-1.508 0.412c-0.266 0.073-0.55-0.026-0.714-0.249-0.308-0.42-0.678-0.788-1.099-1.092-0.223-0.161-0.324-0.444-0.254-0.711l0.4-1.511c-0.279-0.137-0.563-0.253-0.858-0.352l-0.775 1.357c-0.137 0.24-0.4 0.37-0.68 0.328-0.521-0.081-1.044-0.075-1.551 0.006-0.279 0.044-0.544-0.085-0.683-0.323l-0.786-1.351c-0.292 0.101-0.579 0.221-0.855 0.358l0.412 1.507c0.073 0.267-0.027 0.551-0.249 0.714-0.422 0.309-0.79 0.679-1.094 1.101-0.162 0.225-0.445 0.327-0.712 0.255l-1.51-0.399c-0.135 0.277-0.253 0.564-0.351 0.857l1.356 0.774c0.24 0.137 0.371 0.407 0.329 0.68-0.079 0.515-0.077 1.037 0.007 1.553 0.044 0.272-0.084 0.544-0.323 0.684l-1.35 0.785c0.1 0.29 0.221 0.578 0.358 0.854l1.507-0.411c0.269-0.071 0.549 0.026 0.713 0.247 0.311 0.423 0.681 0.79 1.102 1.094 0.225 0.161 0.325 0.444 0.255 0.711l-0.399 1.509z"></path>
</svg>
