<!-- Generated by IcoMoon.io -->
<svg version="1.1" xmlns="http://www.w3.org/2000/svg" width="32" height="32" viewBox="0 0 32 32">
<title>file_document_legal_text</title>
<path d="M30.5 2.1c-0.3-0.2-0.7-0.2-1 0l-1.5 0.8-1.6-0.8c-0.3-0.1-0.6-0.1-0.9 0l-1.5 0.8-1.5-0.8c-0.3-0.1-0.6-0.1-0.9 0l-1.6 0.8-1.5-0.8c-0.3-0.1-0.6-0.1-0.9 0l-1.6 0.8-1.6-0.8c-0.3-0.1-0.6-0.1-0.9 0l-1.5 0.8-1.6-0.8c-0.3-0.2-0.7-0.1-1 0-0.2 0.2-0.4 0.6-0.4 0.9v17h-6c-1.1 0-2 0.9-2 2 0 3.2 0 8 6 8h18c3.3 0 6-2.7 6-6v-21c0-0.3-0.2-0.7-0.5-0.9zM7 28c-3.4 0-4-1.8-4-6h16v2c0 1.5 0.6 2.9 1.5 4h-13.5zM29 24c0 2.2-1.8 4-4 4s-4-1.8-4-4v-3c0-0.6-0.4-1-1-1h-9v-15.4l0.6 0.3c0.3 0.1 0.6 0.1 0.9 0l1.5-0.8 1.5 0.8c0.3 0.1 0.6 0.1 0.9 0l1.6-0.8 1.5 0.8c0.3 0.1 0.6 0.1 0.9 0l1.6-0.8 1.5 0.8c0.3 0.1 0.6 0.1 0.9 0l1.6-0.8 1.6 0.8c0.3 0.1 0.6 0.1 0.9 0l0.5-0.3v19.4z"></path>
<path d="M26 13h-8c-0.6 0-1 0.4-1 1s0.4 1 1 1h8c0.6 0 1-0.4 1-1s-0.4-1-1-1z"></path>
<path d="M26 8h-12c-0.6 0-1 0.4-1 1s0.4 1 1 1h12c0.6 0 1-0.4 1-1s-0.4-1-1-1z"></path>
</svg>
