<svg version="1.1" xmlns="http://www.w3.org/2000/svg" width="32" height="32" viewBox="0 0 32 32">
<title>file_document_legal_text</title>
<path d="M21.427 24.013h-13.389c-0.369 0-0.667-0.298-0.667-0.667s0.298-0.667 0.667-0.667h13.389c0.369 0 0.667 0.298 0.667 0.667s-0.298 0.667-0.667 0.667z"></path>
<path d="M21.427 20.013h-13.389c-0.369 0-0.667-0.298-0.667-0.667s0.298-0.667 0.667-0.667h13.389c0.369 0 0.667 0.298 0.667 0.667s-0.298 0.667-0.667 0.667z"></path>
<path d="M21.427 16.013h-13.389c-0.369 0-0.667-0.298-0.667-0.667s0.298-0.667 0.667-0.667h13.389c0.369 0 0.667 0.298 0.667 0.667s-0.298 0.667-0.667 0.667z"></path>
<path d="M15.477 12.013h-7.438c-0.369 0-0.667-0.298-0.667-0.667s0.298-0.667 0.667-0.667h7.438c0.369 0 0.667 0.298 0.667 0.667s-0.298 0.667-0.667 0.667z"></path>
<path d="M6.765 1.347c-0.369 0-0.667-0.298-0.667-0.667s0.298-0.667 0.667-0.667l20.963-0.001c0.369 0 0.667 0.298 0.667 0.667s-0.298 0.667-0.667 0.667l-20.963 0.001z"></path>
<path d="M27.728 7.997h-20.963c-0.369 0-0.667-0.298-0.667-0.667s0.298-0.667 0.667-0.667c1.534 0 2.782-1.193 2.782-2.659s-1.248-2.659-2.782-2.659c-0.369 0-0.667-0.298-0.667-0.667s0.298-0.667 0.667-0.667h20.963c2.268 0 4.115 1.791 4.115 3.992s-1.846 3.992-4.115 3.992zM9.832 6.664h17.896c1.534 0 2.781-1.193 2.781-2.659s-1.247-2.659-2.781-2.659h-17.896c0.652 0.706 1.048 1.639 1.048 2.659s-0.396 1.953-1.048 2.659z"></path>
<path d="M22.927 31.979c-0.001 0-0.003 0-0.003 0-0.184-0.001-0.359-0.077-0.484-0.211l-3.628-3.878-3.629 3.878c-0.126 0.134-0.303 0.211-0.487 0.211v0c-0.184 0-0.361-0.077-0.487-0.211l-3.628-3.878-3.506 3.747c-0.253 0.268-0.721 0.268-0.974 0l-3.144-3.361c-0.149-0.122-0.245-0.305-0.245-0.509v-23.763c-0.001-1.065 0.413-2.067 1.165-2.822 0.754-0.755 1.757-1.171 2.824-1.171 0.369 0 0.667 0.298 0.667 0.667s-0.298 0.667-0.667 0.667c-1.466 0-2.659 1.193-2.659 2.659l0.003 23.483 2.544 2.719 3.506-3.747c0.253-0.268 0.721-0.268 0.974 0l3.628 3.878 3.629-3.878c0.126-0.134 0.302-0.211 0.487-0.211v0c0.185 0 0.361 0.077 0.487 0.211l3.631 3.881 2.447-2.566v-20.444c0-0.369 0.298-0.667 0.667-0.667s0.667 0.298 0.667 0.667v20.711c0 0.172-0.066 0.336-0.184 0.46l-3.117 3.271c-0.126 0.133-0.301 0.207-0.483 0.207z"></path>
</svg>
