<svg version="1.1" xmlns="http://www.w3.org/2000/svg" width="32" height="32" viewBox="0 0 32 32">
<title>filter_funnel2</title>
<path d="M16 8.117c-6.754 0-14.023-1.23-14.023-3.929 0-0.369 0.298-0.667 0.667-0.667s0.667 0.298 0.667 0.667c0 0.881 4.479 2.596 12.689 2.596s12.689-1.715 12.689-2.596c0-0.369 0.298-0.667 0.667-0.667s0.667 0.298 0.667 0.667c0 2.699-7.268 3.929-14.022 3.929z"></path>
<path d="M12.842 31.638c-0.105 0-0.211-0.025-0.308-0.075-0.221-0.115-0.359-0.342-0.359-0.591v-10.753l-9.833-15.025c-0.23-0.281-0.366-0.637-0.366-1.006 0-2.699 7.269-3.928 14.023-3.928s14.022 1.229 14.022 3.928c0 0.372-0.137 0.729-0.408 1.061l-9.746 14.969v6.311c0 0.217-0.107 0.422-0.285 0.547l-6.359 4.443c-0.114 0.079-0.247 0.12-0.381 0.12zM16 1.592c-8.21 0-12.689 1.714-12.689 2.595 0 0.074 0.068 0.169 0.109 0.219l9.981 15.249c0.071 0.108 0.109 0.234 0.109 0.365v9.673l5.026-3.512v-6.161c0-0.129 0.038-0.255 0.108-0.363l9.896-15.193c0.082-0.107 0.15-0.201 0.15-0.276 0-0.881-4.479-2.595-12.689-2.595z"></path>
</svg>
