<svg version="1.1" xmlns="http://www.w3.org/2000/svg" width="32" height="32" viewBox="0 0 32 32">
<title>filter_funnel_full</title>
<path d="M16 0.259c-6.753 0-14.023 1.229-14.023 3.928 0 0.173 0.032 0.341 0.091 0.503 0.040 0.116 0.107 0.217 0.172 0.321 0.027 0.045 0.044 0.092 0.075 0.135 0.012 0.015 0.016 0.033 0.028 0.048l9.832 15.025v10.753c0 0.249 0.139 0.476 0.359 0.591 0.097 0.051 0.203 0.076 0.308 0.076 0.135 0 0.268-0.040 0.381-0.12l6.359-4.443c0.179-0.125 0.285-0.329 0.285-0.547v-6.311l9.747-14.969c0.020-0.025 0.027-0.052 0.047-0.077 0.063-0.083 0.104-0.169 0.151-0.255 0.037-0.072 0.088-0.141 0.115-0.215 0.061-0.165 0.096-0.336 0.096-0.513 0.001-2.701-7.268-3.931-14.021-3.931zM24.111 4.367l-0.035 0.053c-0.62 0.593-3.42 1.447-8.076 1.447-4.693 0-7.499-0.867-8.087-1.461l-0.051-0.076c-0.027-0.032-0.071-0.093-0.071-0.141 0-0.569 2.897-1.679 8.208-1.679s8.207 1.109 8.207 1.679c0 0.048-0.044 0.109-0.096 0.179z"></path>
</svg>
