<svg version="1.1" xmlns="http://www.w3.org/2000/svg" width="32" height="32" viewBox="0 0 32 32">
<title>filter_or</title>
<path d="M20.337 17.233c2.328 0 4.090 1.926 4.090 4.383 0 2.532-1.76 4.504-4.090 4.504s-4.090-1.976-4.090-4.504c0-2.461 1.76-4.383 4.090-4.383zM20.337 24.69c1.448 0 2.608-1.309 2.608-3.078 0-1.696-1.158-2.953-2.608-2.953s-2.609 1.26-2.609 2.953c0 1.772 1.159 3.078 2.609 3.078z"></path>
<path d="M25.882 17.376h2.551c0.857 0 1.249 0.071 1.592 0.241 0.79 0.388 1.294 1.211 1.294 2.348 0 1.030-0.501 1.984-1.335 2.348v0.024c0.102 0.123 0.191 0.263 0.262 0.413l0.005 0.012 1.626 3.21h-1.604l-1.572-3.21h-1.379v3.21h-1.437v-8.593zM28.614 21.408c0.768 0 1.25-0.497 1.25-1.354 0-0.824-0.324-1.331-1.448-1.331h-1.091v2.688h1.291z"></path>
<path d="M8.576 27.615c0.184 0.116 0.407 0.186 0.646 0.192l0.002 0c0.152-0.007 0.295-0.035 0.431-0.079l-0.011 0.003 4.227-1.6c0.457-0.152 0.723-0.609 0.723-1.066v-7.503c0-0.419 0.152-0.8 0.381-1.142l7.464-10.435c0.267-0.342 0.267-0.799 0.076-1.18s-0.572-0.609-1.028-0.609h-20.334c-0.419 0-0.838 0.228-1.028 0.609-0.077 0.153-0.122 0.334-0.122 0.525 0 0.244 0.074 0.471 0.2 0.659l-0.003-0.004 7.464 10.473c0.228 0.343 0.384 0.724 0.384 1.142v9.102c0.031 0.38 0.232 0.708 0.526 0.911l0.004 0.003zM1.874 5.679h18.851l-7.007 9.825c-0.458 0.572-0.686 1.333-0.686 2.057v7.235l-3.465 1.333v-8.568c0-0.724-0.228-1.485-0.686-2.057z"></path>
</svg>
