<!-- Generated by IcoMoon.io -->
<svg version="1.1" xmlns="http://www.w3.org/2000/svg" width="32" height="32" viewBox="0 0 32 32">
<title>filter_funnel_full</title>
<path d="M2.879 3h26.248c0.358 0.001 0.709 0.104 1.011 0.298s0.541 0.47 0.691 0.796c0.149 0.326 0.202 0.688 0.152 1.043s-0.201 0.688-0.434 0.96v0l-10.537 12.277c-0.003 0.003-0.005 0.006-0.008 0.009-0.001 0.001-0.001 0.001-0.001 0.002v9.113c0.001 0.237-0.054 0.47-0.161 0.681s-0.264 0.396-0.457 0.536-0.416 0.231-0.651 0.267c-0.235 0.036-0.475 0.016-0.701-0.060 0 0-0.001 0-0.001 0l-5.012-1.668c-0.299-0.101-0.558-0.294-0.74-0.551-0.181-0.255-0.278-0.561-0.276-0.874v-7.447c0-0.001 0-0.002-0.001-0.002-0.002-0.002-0.003-0.003-0.005-0.005l-10.541-12.277c-0.234-0.272-0.385-0.606-0.434-0.962s0.004-0.718 0.154-1.044c0.15-0.326 0.391-0.602 0.693-0.796s0.653-0.295 1.012-0.295z"></path>
</svg>
