<!-- Generated by IcoMoon.io -->
<svg version="1.1" xmlns="http://www.w3.org/2000/svg" width="32" height="32" viewBox="0 0 32 32">
<title>filter_or</title>
<path d="M20.344 17.188c2.295 0 4.031 1.883 4.031 4.285 0 2.475-1.735 4.403-4.031 4.403s-4.031-1.931-4.031-4.403c0-2.406 1.735-4.285 4.031-4.285zM20.344 24.477c1.428 0 2.571-1.279 2.571-3.009 0-1.658-1.142-2.887-2.571-2.887s-2.571 1.232-2.571 2.887c0 1.732 1.142 3.009 2.571 3.009z"></path>
<path d="M25.773 17.328h2.497c0.839 0 1.223 0.070 1.558 0.235 0.773 0.38 1.267 1.185 1.267 2.297 0 1.009-0.49 1.942-1.307 2.298v0.024c0.1 0.121 0.187 0.257 0.256 0.404l0.005 0.012 1.591 3.141h-1.57l-1.539-3.141h-1.349v3.141h-1.407v-8.41l-0.001-0.001zM28.446 21.274c0.752 0 1.223-0.486 1.223-1.325 0-0.806-0.317-1.303-1.418-1.303h-1.068v2.631h1.263l-0.001-0.003z"></path>
<path d="M1.662 6.063h19.892c0.287 0 0.568 0.083 0.81 0.238s0.434 0.376 0.554 0.637c0.12 0.261 0.162 0.551 0.122 0.835s-0.161 0.551-0.348 0.769c0 0-0 0-0 0l-7.973 9.273v6.864c0.001 0.192-0.044 0.382-0.131 0.553s-0.215 0.322-0.372 0.435c-0.157 0.113-0.338 0.188-0.529 0.217s-0.386 0.013-0.569-0.048c0 0 0 0 0 0s-0.001-0-0.001-0l-3.799-1.262c-0.243-0.082-0.453-0.238-0.602-0.447-0.148-0.207-0.226-0.456-0.225-0.71v-5.604l-7.973-9.271c0-0 0 0 0 0-0.188-0.218-0.309-0.486-0.349-0.771s0.003-0.575 0.124-0.837c0.121-0.261 0.314-0.482 0.556-0.637s0.524-0.236 0.811-0.236zM2.047 7.742l7.734 8.994c0.25 0.288 0.389 0.656 0.392 1.037 0 0.002 0 0.004 0 0.006v5.311l2.867 0.952v-6.263c0-0.003 0-0.006 0-0.009 0.004-0.381 0.144-0.748 0.395-1.035l7.731-8.992h-19.119zM13.649 24.244h-0z"></path>
</svg>
