<svg version="1.1" xmlns="http://www.w3.org/2000/svg" width="32" height="32" viewBox="0 0 32 32">
<title>filter_funnel</title>
<path d="M16.001 30.677v0c-2.094 0-4.207-0.746-4.207-2.413v-6.1c-0.731-1.346-2.646-3.447-4.671-5.664-3.358-3.68-6.831-7.486-6.831-9.861 0-2.815 7.486-5.277 15.706-5.277s15.706 2.462 15.706 5.166c0 2.486-3.473 6.291-6.831 9.971-2.025 2.219-3.94 4.318-4.671 5.665v6.1c0 0.471-0.195 1.346-1.504 1.921-0.723 0.318-1.681 0.492-2.698 0.492zM15.999 2.695c-8.795 0-14.373 2.695-14.373 3.833 0 1.969 3.595 5.908 6.483 9.073 2.158 2.364 4.195 4.597 4.949 6.102 0.046 0.092 0.070 0.194 0.070 0.298v6.263c0 0.586 1.316 1.079 2.874 1.079v0c0.824 0 1.612-0.138 2.163-0.38 0.322-0.141 0.706-0.378 0.706-0.699v-6.263c0-0.104 0.025-0.206 0.070-0.298 0.754-1.505 2.792-3.738 4.949-6.103 2.888-3.165 6.482-7.103 6.482-8.961 0-1.249-5.578-3.944-14.372-3.944z"></path>
<path d="M15.999 10.603c-1.987 0-11.981-0.156-13.669-3.229-0.177-0.323-0.059-0.728 0.264-0.905 0.321-0.175 0.727-0.059 0.906 0.264 0.794 1.447 6.167 2.537 12.499 2.537 6.331 0 11.704-1.091 12.499-2.537 0.177-0.324 0.586-0.438 0.905-0.264 0.323 0.178 0.441 0.583 0.264 0.906-1.687 3.073-11.682 3.229-13.668 3.229z"></path>
</svg>
