<svg version="1.1" xmlns="http://www.w3.org/2000/svg" width="32" height="32" viewBox="0 0 32 32">
<title>filter</title>
<path d="M12.275 31.744c0.25 0.155 0.552 0.25 0.876 0.256l0.002 0c0.207 0 0.362-0.052 0.568-0.104l5.729-2.168c0.62-0.206 0.98-0.826 0.98-1.445v-10.168c0-0.568 0.207-1.084 0.516-1.548l10.116-14.144c0.362-0.462 0.362-1.080 0.106-1.598s-0.776-0.826-1.396-0.826h-27.561c-0.568 0-1.136 0.31-1.394 0.826-0.104 0.207-0.165 0.452-0.165 0.71 0 0.331 0.1 0.64 0.272 0.896l-0.004-0.006 10.116 14.194c0.31 0.464 0.516 0.98 0.516 1.548v12.335c0.052 0.465 0.258 0.929 0.723 1.241zM3.192 2.013h25.548l-9.497 13.316c-0.619 0.774-0.929 1.807-0.929 2.787v9.807l-4.697 1.806v-11.613c0-0.98-0.31-2.013-0.929-2.787z"></path>
</svg>
