<!-- Generated by IcoMoon.io -->
<svg version="1.1" xmlns="http://www.w3.org/2000/svg" width="32" height="32" viewBox="0 0 32 32">
<title>filter_funnel</title>
<path fill="none" stroke-linejoin="round" stroke-linecap="round" stroke-miterlimit="4" stroke-width="2" stroke="#000" d="M2.212 5.445l10.541 12.277c0.152 0.174 0.245 0.402 0.247 0.652v7.458c0 0.001-0 0.003-0 0.005 0 0.217 0.139 0.401 0.333 0.468l0.003 0.001 5.009 1.667c0.047 0.016 0.101 0.026 0.157 0.026 0.274 0 0.496-0.222 0.496-0.496 0-0.001 0-0.002 0-0.003v0-9.125c0.003-0.251 0.097-0.479 0.251-0.654l-0.001 0.001 10.537-12.277c0.131-0.152 0.211-0.352 0.211-0.57 0-0.483-0.391-0.874-0.874-0.875h-26.247c-0.001 0-0.001 0-0.002 0-0.483 0-0.875 0.392-0.875 0.875 0 0.218 0.080 0.418 0.212 0.571l-0.001-0.001z"></path>
</svg>
