<svg version="1.1" xmlns="http://www.w3.org/2000/svg" width="32" height="32" viewBox="0 0 32 32">
<title>finder_overview</title>
<path d="M30.533 2h-29.067c-0.4 0-0.667 0.267-0.667 0.667v2.533c0 0.4 0.267 0.667 0.667 0.667h29.067c0.4 0 0.667-0.267 0.667-0.667v-2.533c0-0.4-0.267-0.667-0.667-0.667zM29.867 4.533h-27.733v-1.2h27.733v1.2z"></path>
<path d="M10.933 12.133h-6.933c-0.4 0-0.667-0.267-0.667-0.667s0.267-0.667 0.667-0.667h6.933c0.4 0 0.667 0.267 0.667 0.667s-0.267 0.667-0.667 0.667z"></path>
<path d="M8.133 14.8h-4.133c-0.4 0-0.667-0.267-0.667-0.667s0.267-0.667 0.667-0.667h4.267c0.4 0 0.667 0.267 0.667 0.667s-0.4 0.667-0.8 0.667z"></path>
<path d="M20.933 12.133h6.933c0.4 0 0.667-0.267 0.667-0.667s-0.267-0.667-0.667-0.667h-6.933c-0.4 0-0.667 0.267-0.667 0.667s0.267 0.667 0.667 0.667z"></path>
<path d="M23.6 14.8h4.267c0.4 0 0.667-0.267 0.667-0.667s-0.267-0.667-0.667-0.667h-4.267c-0.4 0-0.667 0.267-0.667 0.667s0.4 0.667 0.667 0.667z"></path>
<path d="M16.4 13.467c-1.6 0-3.067 0.533-4.133 1.6-0.667 0.667-1.067 1.333-1.333 2.133-0.133 0.4-0.267 0.933-0.267 1.333 0 0.133 0 0.4 0 0.533 0 0.4 0.267 0.667 0.667 0.667 0 0 0 0 0 0 0.4 0 0.667-0.267 0.667-0.667 0-0.133 0-0.4 0-0.533 0-0.533 0.133-0.933 0.4-1.333s0.533-0.933 0.8-1.2c0.8-0.8 2-1.2 3.067-1.2 0.4 0 0.667-0.267 0.667-0.667 0.133-0.4-0.267-0.667-0.533-0.667z"></path>
<path d="M30.533 6.933h-12c-0.4 0-0.667 0.267-0.667 0.667v4c-0.667-0.133-1.333-0.267-2-0.267s-1.2 0.133-1.733 0.267v-4c0-0.4-0.267-0.667-0.667-0.667h-12c-0.4 0-0.667 0.267-0.667 0.667v10.267c0 0.4 0.267 0.667 0.667 0.667h7.067c0 0 0 0.133 0 0.133 0 4.133 3.333 7.467 7.467 7.467 1.467 0 2.8-0.4 4-1.2l4.533 4.533c0.267 0.267 0.667 0.533 1.067 0.533s0.8-0.133 1.067-0.4c0.267-0.267 0.533-0.667 0.533-1.067s-0.133-0.8-0.4-1.067l-4.533-4.533c0.8-1.2 1.2-2.533 1.2-4 0 0 0-0.133 0-0.133h7.2c0.4 0 0.667-0.267 0.667-0.667v-10.533c-0.133-0.4-0.4-0.667-0.8-0.667zM2.133 17.2v-8.933h10.667v3.733c-2.133 1.067-3.733 2.933-4.133 5.2h-6.533zM15.867 24.8c-3.333 0-6.133-2.667-6.133-6.133 0 0 0-0.133 0-0.133 0-0.4 0.133-0.933 0.133-1.333 0.667-2.667 3.067-4.533 5.867-4.533s5.2 2 5.867 4.533c0.133 0.4 0.133 0.933 0.133 1.333 0 0 0 0.133 0 0.133 0.267 3.467-2.533 6.133-5.867 6.133zM25.733 28.267c0 0 0.133 0.133 0.133 0.133s0 0.133-0.133 0.133-0.267 0.133-0.4 0l-4.4-4.4c0.133-0.133 0.267-0.267 0.4-0.4l4.4 4.533zM29.867 17.2h-6.667c-0.533-2.267-2-4.133-4-5.067v-3.867h10.667v8.933z"></path>
</svg>
