<svg version="1.1" xmlns="http://www.w3.org/2000/svg" width="32" height="32" viewBox="0 0 32 32">
<title>finder_panels</title>
<path d="M24.667 28.4l-6.4-6.4c1.067-1.6 1.733-3.467 1.733-5.467 0-5.467-4.4-9.867-9.867-9.867s-9.867 4.4-9.867 9.867c0 5.467 4.4 9.867 9.867 9.867 2 0 4-0.667 5.467-1.733l6.4 6.4c0.4 0.4 0.8 0.533 1.333 0.533s1.067-0.267 1.333-0.533c0.4-0.4 0.533-0.8 0.533-1.333s-0.133-0.933-0.533-1.333zM1.467 16.533c0-4.8 3.867-8.533 8.533-8.533 4.8 0 8.533 3.867 8.533 8.533 0 4.8-3.867 8.533-8.533 8.533s-8.533-3.867-8.533-8.533zM23.733 30.267c-0.133 0.133-0.267 0.133-0.4 0.133v0c-0.133 0-0.267 0-0.4-0.133l-6.267-6.267c0.267-0.267 0.533-0.533 0.8-0.8l6.267 6.267c0.267 0.133 0.267 0.533 0 0.8z"></path>
<path d="M10.667 9.467c-2.133-0.133-4 0.667-5.467 2.133s-2.267 3.333-2.133 5.467c0 0.4 0.267 0.667 0.667 0.667 0 0 0 0 0 0 0.4 0 0.667-0.267 0.667-0.667 0-1.733 0.533-3.333 1.733-4.4 1.2-1.333 2.8-2 4.4-1.867 0.4 0 0.667-0.267 0.667-0.667s-0.133-0.667-0.533-0.667z"></path>
<path d="M31.6 0h-12.133c-0.267 0-0.4 0.133-0.4 0.4v11.067c0 0.267 0.133 0.4 0.4 0.4h12.133c0.267 0 0.4-0.133 0.4-0.4v-11.067c0-0.267-0.133-0.4-0.4-0.4zM19.867 1.6v-0.8h11.333v0.8h-11.333zM19.867 11.067v-8.667h11.333v8.667h-11.333z"></path>
<path d="M30 6.267h-1.333v-0.8h1.333c0.267 0 0.4-0.133 0.4-0.4v-1.467c0-0.267-0.133-0.4-0.4-0.4h-8.933c-0.267 0-0.4 0.133-0.4 0.4v1.6c0 0.267 0.133 0.4 0.4 0.4h1.867v0.8h-1.867c-0.267 0-0.4 0.133-0.4 0.4v3.2c0 0.267 0.133 0.4 0.4 0.4h3.733c0.267 0 0.4-0.133 0.4-0.4v-3.333c0-0.267-0.133-0.4-0.4-0.4h-1.2v-0.8h4.4v0.8h-1.6c-0.267 0-0.4 0.133-0.4 0.4v3.2c0 0.267 0.133 0.4 0.4 0.4h3.733c0.267 0 0.4-0.133 0.4-0.4v-3.2c-0.133-0.133-0.267-0.4-0.533-0.4zM29.6 7.067v2.4h-2.933v-2.4h2.933zM29.6 4v0.8h-8.133v-0.8h8.133zM21.467 9.467v-2.4h2.933v2.4h-2.933z"></path>
</svg>
