<svg version="1.1" xmlns="http://www.w3.org/2000/svg" width="32" height="32" viewBox="0 0 32 32">
<title>finder_favorites</title>
<path d="M4.456 18.475c-0.359 0-0.653-0.284-0.666-0.644-0.056-1.75 0.587-3.387 1.819-4.616 1.228-1.228 2.853-1.881 4.616-1.819 0.369 0.012 0.656 0.319 0.644 0.688s-0.309 0.684-0.688 0.644c-1.369-0.028-2.662 0.463-3.628 1.428s-1.472 2.253-1.428 3.628c0.013 0.369-0.278 0.678-0.644 0.691-0.009 0-0.019 0-0.025 0z"></path>
<path d="M9.7 25.75v0 0z"></path>
<path d="M21.991 27.225l-5.275-5.275c0.863-1.316 1.366-2.891 1.366-4.578 0-4.619-3.759-8.378-8.378-8.378s-8.381 3.759-8.381 8.378 3.759 8.378 8.378 8.378c1.688 0 3.263-0.503 4.578-1.366l5.275 5.275c0.325 0.328 0.756 0.506 1.219 0.506v0c0.462 0 0.894-0.181 1.219-0.503 0.328-0.325 0.506-0.756 0.506-1.219 0-0.459-0.181-0.894-0.506-1.219zM2.656 17.372c0-3.884 3.159-7.047 7.047-7.047v0c3.884 0 7.047 3.162 7.047 7.047s-3.159 7.047-7.047 7.047-7.047-3.163-7.047-7.047zM21.050 28.719c-0.075 0.075-0.172 0.116-0.275 0.116s-0.2-0.041-0.275-0.116l-5.156-5.156c0.191-0.175 0.375-0.359 0.55-0.55l5.156 5.156c0.075 0.075 0.116 0.172 0.116 0.275s-0.044 0.2-0.116 0.275z"></path>
<path d="M23.059 15.166c-0.159 0-0.319-0.063-0.441-0.184l-5.941-5.938c-1.647-1.647-1.647-4.325 0-5.972 0.797-0.797 1.859-1.238 2.988-1.238s2.191 0.441 2.988 1.238l0.406 0.406 0.406-0.406c0.797-0.797 1.859-1.238 2.988-1.238s2.191 0.441 2.988 1.238v0c0.797 0.797 1.238 1.859 1.238 2.987s-0.441 2.191-1.238 2.987l-5.938 5.938c-0.125 0.122-0.284 0.181-0.444 0.181zM19.666 3.084c-0.794 0-1.541 0.309-2.103 0.872-1.159 1.159-1.159 3.047 0 4.206l5.497 5.497 5.497-5.497c0.563-0.563 0.872-1.309 0.872-2.103s-0.309-1.541-0.872-2.103c-0.563-0.563-1.309-0.872-2.103-0.872s-1.541 0.309-2.103 0.872l-0.85 0.847c-0.244 0.244-0.641 0.244-0.884 0l-0.847-0.847c-0.563-0.563-1.309-0.872-2.103-0.872z"></path>
</svg>
