<!-- Generated by IcoMoon.io -->
<svg version="1.1" xmlns="http://www.w3.org/2000/svg" width="32" height="32" viewBox="0 0 32 32">
<title>finder_last</title>
<path d="M19.757 31.333v0c-0.461-0.001-0.893-0.18-1.219-0.507l-5.669-5.669 0.943-0.943 5.671 5.671c0.075 0.075 0.171 0.115 0.275 0.115v0c0.104 0 0.201-0.040 0.276-0.115s0.115-0.171 0.115-0.275-0.040-0.201-0.115-0.276l-5.671-5.671 0.943-0.943 5.671 5.671c0.325 0.325 0.505 0.759 0.505 1.22-0.001 0.46-0.18 0.892-0.507 1.217-0.324 0.324-0.756 0.504-1.217 0.504z"></path>
<path d="M8.685 26.917c-4.62 0-8.379-3.759-8.379-8.379s3.759-8.379 8.379-8.379c4.62 0 8.379 3.759 8.379 8.379s-3.759 8.379-8.379 8.379zM8.685 11.492c-3.885 0-7.045 3.161-7.045 7.045s3.16 7.045 7.045 7.045 7.045-3.16 7.045-7.045c0-3.884-3.161-7.045-7.045-7.045z"></path>
<path d="M3.441 19.641c-0.359 0-0.655-0.284-0.665-0.644-0.056-1.749 0.588-3.388 1.817-4.616s2.852-1.883 4.616-1.817c0.368 0.012 0.656 0.32 0.644 0.688s-0.308 0.684-0.688 0.644c-1.369-0.029-2.664 0.463-3.629 1.428s-1.472 2.255-1.428 3.629c0.012 0.368-0.277 0.677-0.644 0.689-0.008-0.001-0.016-0.001-0.023-0.001z"></path>
<path d="M24.891 18.883c-0.425 0-0.791-0.3-0.887-0.728-0.095-0.425 0.107-0.837 0.504-1.025 1.62-0.764 2.548-1.817 2.548-2.889 0-1.757-2.576-3.275-6.079-3.637v1.481c-0.001 1.076-1.248 1.457-1.913 0.975l-5.152-4.516c-0.277-0.2-0.459-0.556-0.459-0.944s0.181-0.744 0.496-0.973l5.076-4.456c0.904-0.667 1.951 0.027 1.951 0.944v1.517c6.139 0.757 10.48 3.9 10.48 7.587 0 2.736-2.336 5.207-6.248 6.608-0.104 0.039-0.212 0.057-0.317 0.057zM20.444 9.491c0.012 0 0.024 0 0.035 0.001 4.5 0.296 7.644 2.249 7.644 4.749 0 1.020-0.531 1.995-1.501 2.812 2.391-1.251 3.768-2.985 3.768-4.835 0-3.233-4.189-6.004-9.961-6.587-0.295 0-0.52-0.232-0.52-0.527v-1.991c0-0.087-0.081-0.14-0.139-0.14l-5.248 4.625c0.013 0.009 0.083 0.132 0.095 0.143l5.113 4.485c0.103-0.009 0.18-0.033 0.18-0.141v-2.063c0-0.148 0.061-0.288 0.169-0.389 0.1-0.093 0.229-0.144 0.365-0.144z"></path>
</svg>
