<!-- Generated by IcoMoon.io -->
<svg version="1.1" xmlns="http://www.w3.org/2000/svg" width="32" height="32" viewBox="0 0 32 32">
<title>finder_info</title>
<path d="M20.975 28.391l-5.275-5.275c0.862-1.316 1.362-2.891 1.362-4.578 0-4.619-3.759-8.378-8.378-8.378s-8.378 3.759-8.378 8.378 3.759 8.378 8.378 8.378c1.688 0 3.262-0.503 4.578-1.366l5.275 5.275c0.325 0.328 0.756 0.506 1.219 0.506v0c0.462 0 0.894-0.181 1.219-0.503 0.328-0.325 0.506-0.756 0.506-1.219 0-0.459-0.181-0.891-0.506-1.219zM1.641 18.538c0-3.884 3.159-7.047 7.047-7.047v0c3.884 0 7.047 3.162 7.047 7.047s-3.159 7.047-7.047 7.047-7.047-3.163-7.047-7.047zM20.034 29.884c-0.075 0.075-0.172 0.116-0.275 0.116s-0.2-0.041-0.275-0.116l-5.156-5.156c0.191-0.175 0.375-0.359 0.55-0.55l5.156 5.156c0.075 0.075 0.116 0.172 0.116 0.275s-0.041 0.2-0.116 0.275z"></path>
<path d="M8.684 26.919v0 0z"></path>
<path d="M3.441 19.641c-0.359 0-0.653-0.284-0.666-0.644-0.056-1.75 0.587-3.387 1.819-4.616 1.228-1.228 2.853-1.881 4.616-1.819 0.369 0.012 0.656 0.319 0.644 0.688s-0.309 0.684-0.688 0.644c-1.369-0.028-2.662 0.463-3.628 1.428s-1.472 2.253-1.428 3.628c0.013 0.369-0.278 0.678-0.644 0.691-0.009 0-0.019 0-0.025 0z"></path>
<path d="M23.759 3.919c-4.078 0-7.397 3.319-7.397 7.397s3.319 7.397 7.397 7.397 7.397-3.319 7.397-7.397c-0.003-4.078-3.319-7.397-7.397-7.397zM23.759 4.741c3.625 0 6.575 2.95 6.575 6.575s-2.95 6.575-6.575 6.575-6.575-2.95-6.575-6.575 2.95-6.575 6.575-6.575z"></path>
<path d="M23.759 9.581c1.063 0 1.925-0.866 1.925-1.925s-0.866-1.928-1.925-1.928-1.925 0.866-1.925 1.928 0.863 1.925 1.925 1.925zM23.759 6.553c0.609 0 1.103 0.497 1.103 1.103s-0.497 1.103-1.103 1.103c-0.609 0-1.103-0.497-1.103-1.103 0-0.612 0.494-1.103 1.103-1.103z"></path>
<path d="M22.194 14.303c-0.284 0-0.534 0.128-0.706 0.356-0.134 0.178-0.206 0.416-0.206 0.656 0 0.575 0.384 0.994 0.913 0.994h3.712c0.284 0 0.538-0.122 0.706-0.344 0.134-0.175 0.206-0.409 0.206-0.653 0-0.575-0.394-1.012-0.913-1.012h-0.163v-3.725c0-0.328-0.266-0.594-0.594-0.594h-2.959c-0.284 0-0.538 0.128-0.706 0.35-0.134 0.178-0.206 0.416-0.206 0.656 0 0.581 0.384 1 0.913 1h0.325v2.316h-0.322zM25.337 15.125h0.572c0.084 0 0.091 0.191 0.091 0.191 0 0.028-0.003 0.175-0.091 0.175h-3.716c-0.087 0-0.091-0.144-0.091-0.172 0-0.003 0.006-0.191 0.091-0.191h0.734c0.228 0 0.413-0.184 0.413-0.412v-3.138c0-0.225-0.184-0.412-0.413-0.412h-0.734c-0.087 0-0.091-0.147-0.091-0.175 0-0.003 0.003-0.188 0.091-0.188h2.731v3.916c0.003 0.222 0.184 0.406 0.413 0.406z"></path>
</svg>
