<svg version="1.1" xmlns="http://www.w3.org/2000/svg" width="32" height="32" viewBox="0 0 32 32">
<title>fingerprint_scan_security_access</title>
<path d="M12.143 31.030c-0.156 0-0.313-0.055-0.44-0.165-0.277-0.243-0.304-0.665-0.061-0.941 3.341-3.801 4.683-8.822 3.684-13.775-0.073-0.361 0.161-0.712 0.522-0.785 0.359-0.069 0.712 0.161 0.785 0.522 1.082 5.363-0.372 10.801-3.99 14.918-0.131 0.15-0.316 0.227-0.501 0.227z"></path>
<path d="M16.451 31.525c-0.13 0-0.262-0.038-0.376-0.117-0.304-0.207-0.381-0.622-0.174-0.926 3.040-4.441 4.128-9.792 3.066-15.067-0.004-0.022-0.008-0.045-0.010-0.068-0.172-0.771-0.629-1.435-1.289-1.874-0.678-0.452-1.492-0.612-2.294-0.45-1.614 0.325-2.675 1.876-2.409 3.488 0.013 0.033 0.023 0.068 0.031 0.103l-0.012 0.005c0 0 0.001 0 0.001 0.001l-0.008 0.001-0.609 0.237 0.12 0.542c-0.175 0.036-0.365 0.007-0.514-0.091-0.119-0.077-0.214-0.189-0.265-0.32l-0.001 0.001c0-0.001-0.001-0.004-0.001-0.008-0.012-0.031-0.021-0.065-0.029-0.099-0.478-2.371 1.062-4.689 3.433-5.168 1.15-0.231 2.32-0.002 3.295 0.647 0.977 0.648 1.642 1.638 1.874 2.787 0.005 0.025 0.009 0.050 0.010 0.075 1.111 5.607-0.056 11.289-3.288 16.009-0.129 0.189-0.337 0.291-0.549 0.291z"></path>
<path d="M8.469 29.493c-0.178 0-0.355-0.070-0.487-0.211-0.251-0.269-0.238-0.691 0.031-0.943 2.525-2.363 3.953-5.694 3.916-9.138-0.004-0.367 0.292-0.669 0.659-0.673 0.003 0 0.005 0 0.007 0 0.365 0 0.663 0.294 0.667 0.66 0.041 3.816-1.54 7.507-4.338 10.125-0.129 0.12-0.292 0.18-0.456 0.18z"></path>
<path d="M21.303 30.544c-0.099 0-0.198-0.022-0.292-0.068-0.331-0.16-0.469-0.56-0.307-0.891 1.119-2.299 1.852-4.747 2.176-7.273 0.047-0.367 0.385-0.625 0.746-0.577 0.366 0.047 0.624 0.381 0.577 0.746-0.344 2.672-1.117 5.258-2.301 7.687-0.114 0.237-0.353 0.375-0.599 0.375z"></path>
<path d="M5.476 27.181c-0.193 0-0.385-0.083-0.516-0.245-0.234-0.284-0.191-0.704 0.093-0.937 2.454-2.010 3.603-5.175 3.016-8.28-0.012-0.033-0.022-0.066-0.029-0.102-0.882-4.375 1.96-8.654 6.337-9.537 4.378-0.878 8.654 1.962 9.536 6.337 0.374 1.853 0.534 3.76 0.477 5.665-0.012 0.369-0.301 0.641-0.686 0.647-0.369-0.012-0.658-0.319-0.647-0.686 0.055-1.806-0.098-3.609-0.452-5.361-0.357-1.771-1.381-3.297-2.885-4.297-1.505-1.001-3.31-1.353-5.079-0.997-3.621 0.731-5.986 4.245-5.313 7.864 0.012 0.033 0.022 0.066 0.029 0.102 0.731 3.622-0.595 7.331-3.458 9.677-0.123 0.101-0.273 0.151-0.422 0.151z"></path>
<path d="M26.517 27.143c-0.056 0-0.115-0.007-0.172-0.022-0.355-0.095-0.568-0.461-0.473-0.816 1.082-4.060 1.207-8.219 0.371-12.357-0.711-3.521-3.145-6.398-6.512-7.697-0.344-0.132-0.514-0.518-0.383-0.862 0.133-0.344 0.519-0.516 0.862-0.381 3.796 1.464 6.538 4.708 7.339 8.677 0.878 4.341 0.746 8.703-0.388 12.964-0.079 0.298-0.349 0.495-0.645 0.495z"></path>
<path d="M5.124 14.208c-0.049 0-0.1-0.005-0.15-0.017-0.359-0.082-0.583-0.439-0.501-0.798 1.035-4.522 4.634-8.035 9.17-8.949 1.357-0.275 2.758-0.3 4.164-0.080 0.363 0.057 0.612 0.399 0.555 0.762-0.059 0.364-0.408 0.604-0.763 0.555-1.247-0.197-2.49-0.174-3.692 0.070-4.023 0.811-7.215 3.926-8.134 7.938-0.070 0.309-0.345 0.518-0.649 0.518z"></path>
<path d="M3.197 24.249c-0.189 0-0.378-0.079-0.509-0.236-0.238-0.281-0.204-0.702 0.077-0.94 1.346-1.141 1.978-2.914 1.659-4.643-0.008-0.026-0.016-0.052-0.021-0.079-0.163-0.809-0.24-1.646-0.229-2.489 0.005-0.365 0.302-0.658 0.667-0.658 0.003 0 0.005 0 0.008 0 0.368 0.005 0.663 0.307 0.658 0.675-0.009 0.721 0.053 1.436 0.187 2.126 0.009 0.026 0.016 0.053 0.022 0.082 0.449 2.231-0.351 4.531-2.089 6.005-0.125 0.106-0.279 0.158-0.43 0.158z"></path>
<path d="M30.832 16.983c-0.004 0-0.009 0-0.013 0-0.369-0.008-0.66-0.311-0.654-0.68 0.019-0.995-0.068-2.002-0.26-2.993-0.012-0.031-0.021-0.063-0.027-0.096-1.546-7.665-9.036-12.648-16.704-11.098-1.995 0.402-3.841 1.209-5.487 2.397-0.298 0.217-0.715 0.149-0.93-0.15-0.215-0.298-0.148-0.715 0.15-0.93 1.801-1.3 3.82-2.182 6.003-2.623 8.353-1.688 16.518 3.712 18.255 12.041 0.012 0.032 0.022 0.066 0.029 0.1 0.225 1.118 0.328 2.255 0.306 3.38-0.008 0.363-0.305 0.654-0.667 0.654z"></path>
<path d="M1.571 20.251c-0.299 0-0.572-0.203-0.647-0.508-0.045-0.184-0.087-0.37-0.126-0.556-0.012-0.034-0.023-0.068-0.030-0.104-1.032-5.118 0.565-10.377 4.271-14.068 0.261-0.26 0.682-0.258 0.943 0.002 0.26 0.261 0.258 0.684-0.002 0.943-3.365 3.35-4.828 8.113-3.926 12.758 0.012 0.033 0.021 0.066 0.029 0.1 0.041 0.204 0.087 0.406 0.136 0.607 0.087 0.358-0.131 0.719-0.489 0.806-0.053 0.013-0.107 0.020-0.16 0.020z"></path>
</svg>
