<svg version="1.1" xmlns="http://www.w3.org/2000/svg" width="32" height="32" viewBox="0 0 32 32">
<title>fingerprint_iphone_scan_access</title>
<path d="M16.026 29.96c-0.173 0-0.333-0.066-0.466-0.201-0.133-0.12-0.2-0.293-0.2-0.466s0.066-0.346 0.2-0.466c0.266-0.267 0.707-0.254 0.947 0 0.12 0.12 0.186 0.293 0.186 0.466s-0.066 0.346-0.186 0.466c-0.133 0.121-0.307 0.201-0.481 0.201z"></path>
<path d="M10.671 13.685c-0.063 0-0.126-0.008-0.189-0.027-0.353-0.105-0.554-0.476-0.45-0.829 0.669-2.256 2.504-3.944 4.79-4.406 0.587-0.119 1.199-0.148 1.82-0.089 0.367 0.035 0.635 0.359 0.602 0.726-0.035 0.369-0.388 0.65-0.727 0.601-0.491-0.044-0.972-0.024-1.431 0.070-1.801 0.363-3.247 1.696-3.775 3.477-0.086 0.29-0.351 0.477-0.639 0.477z"></path>
<path d="M14.381 22.224c-0.145 0-0.292-0.047-0.414-0.145-0.288-0.229-0.336-0.648-0.107-0.937 1.443-1.815 2.010-4.147 1.557-6.399-0.073-0.361 0.161-0.712 0.522-0.785 0.353-0.072 0.712 0.161 0.785 0.522 0.531 2.637-0.131 5.369-1.821 7.493-0.132 0.165-0.326 0.251-0.522 0.251z"></path>
<path d="M16.547 22.413c-0.121 0-0.242-0.033-0.353-0.1-0.312-0.195-0.408-0.605-0.213-0.919 1.313-2.111 1.768-4.604 1.281-7.023-0.064-0.32-0.249-0.594-0.518-0.775-0.273-0.181-0.599-0.245-0.916-0.18-0.587 0.119-1.003 0.662-0.968 1.264 0.021 0.367-0.259 0.683-0.627 0.704-0.357 0.018-0.683-0.259-0.704-0.627-0.073-1.26 0.802-2.399 2.035-2.648 1.381-0.273 2.729 0.619 3.007 1.998 0.553 2.754 0.036 5.591-1.457 7.992-0.126 0.202-0.344 0.314-0.566 0.314z"></path>
<path d="M12.545 21.479c-0.164 0-0.329-0.060-0.458-0.182-0.268-0.253-0.28-0.675-0.027-0.943 0.979-1.035 1.553-2.387 1.615-3.805 0.016-0.367 0.346-0.66 0.695-0.636 0.368 0.016 0.653 0.327 0.637 0.696-0.077 1.737-0.779 3.392-1.977 4.661-0.131 0.138-0.308 0.208-0.485 0.208z"></path>
<path d="M18.992 21.793c-0.089 0-0.178-0.017-0.264-0.055-0.337-0.146-0.493-0.538-0.348-0.876 0.387-0.897 0.66-1.841 0.811-2.803 0.057-0.366 0.401-0.613 0.762-0.556 0.365 0.057 0.613 0.398 0.556 0.762-0.169 1.074-0.473 2.126-0.905 3.126-0.108 0.251-0.354 0.402-0.612 0.402z"></path>
<path d="M11.051 20.314c-0.173 0-0.346-0.066-0.476-0.201-0.258-0.262-0.254-0.685 0.009-0.943 0.969-0.951 1.4-2.296 1.158-3.612-0.007-0.023-0.013-0.047-0.018-0.070-0.234-1.161-0.002-2.343 0.653-3.329s1.656-1.658 2.816-1.893c2.389-0.485 4.737 1.073 5.221 3.469 0.165 0.822 0.249 1.684 0.249 2.562 0 0.369-0.298 0.667-0.667 0.667s-0.667-0.298-0.667-0.667c0-0.792-0.075-1.564-0.224-2.297-0.163-0.812-0.633-1.511-1.322-1.969-0.69-0.459-1.517-0.622-2.327-0.456-1.652 0.333-2.733 1.93-2.439 3.581 0.007 0.022 0.014 0.046 0.018 0.068 0.359 1.784-0.208 3.616-1.518 4.901-0.129 0.126-0.298 0.19-0.467 0.19z"></path>
<path d="M21.612 19.71c-0.044 0-0.087-0.004-0.131-0.013-0.362-0.072-0.595-0.423-0.523-0.784 0.35-1.753 0.348-3.531-0.007-5.285-0.315-1.557-1.378-2.881-2.842-3.542-0.335-0.151-0.484-0.546-0.333-0.881 0.154-0.337 0.547-0.485 0.883-0.333 1.854 0.837 3.201 2.516 3.599 4.492 0.391 1.928 0.393 3.883 0.008 5.81-0.064 0.318-0.341 0.537-0.652 0.537z"></path>
<path d="M9.916 18.781c-0.153 0-0.306-0.052-0.432-0.159-0.281-0.238-0.315-0.659-0.076-0.94 0.422-0.496 0.597-1.139 0.485-1.773-0.005-0.016-0.008-0.033-0.012-0.050-0.064-0.322-0.096-0.642-0.109-0.96-0.016-0.368 0.269-0.679 0.637-0.695 0.397-0.020 0.68 0.269 0.695 0.637 0.010 0.232 0.031 0.466 0.074 0.701 0.005 0.018 0.009 0.035 0.013 0.053 0.212 1.053-0.067 2.128-0.767 2.953-0.132 0.155-0.319 0.234-0.508 0.234z"></path>
<path d="M21.987 32.012h-11.915c-1.861 0-3.376-1.514-3.376-3.375v-25.297c0-1.861 1.514-3.375 3.376-3.375h11.915c1.861 0 3.375 1.514 3.375 3.375v25.297c0 1.861-1.514 3.375-3.375 3.375zM10.072 1.298c-1.126 0-2.042 0.916-2.042 2.042v25.297c0 1.126 0.916 2.042 2.042 2.042h11.915c1.126 0 2.042-0.915 2.042-2.042v-25.297c0-1.126-0.915-2.042-2.042-2.042h-11.915z"></path>
<path d="M24.708 5.333h-17.334c-0.369 0-0.667-0.298-0.667-0.667s0.298-0.667 0.667-0.667h17.334c0.369 0 0.667 0.298 0.667 0.667s-0.298 0.667-0.667 0.667z"></path>
<path d="M24.708 28.001h-17.334c-0.369 0-0.667-0.298-0.667-0.667s0.298-0.667 0.667-0.667h17.334c0.369 0 0.667 0.298 0.667 0.667s-0.298 0.667-0.667 0.667z"></path>
</svg>
