<svg version="1.1" xmlns="http://www.w3.org/2000/svg" width="32" height="32" viewBox="0 0 32 32">
<title>fire_extinguisher</title>
<path d="M5.957 23.794c-0.369 0-0.667-0.298-0.667-0.667v-13.168c0-3.727 2.913-4.711 4.453-4.711h1.477c0.369 0 0.667 0.298 0.667 0.667s-0.298 0.667-0.667 0.667h-1.477c-0.316 0.003-3.12 0.122-3.12 3.378v13.168c0 0.369-0.298 0.667-0.667 0.667z"></path>
<path d="M5.959 26.846h-0.004c-0.945 0-1.715-0.769-1.715-1.715v-0.956c0-0.945 0.769-1.715 1.715-1.715 0.949 0 1.719 0.769 1.719 1.715v0.956c0 0.945-0.77 1.715-1.715 1.715zM5.959 23.794c-0.214 0-0.385 0.171-0.385 0.381v0.956c0 0.211 0.171 0.381 0.381 0.381h0.004c0.21 0 0.381-0.171 0.381-0.381v-0.956c0-0.211-0.171-0.381-0.381-0.381z"></path>
<path d="M19.46 32.035h-8.266c-0.665 0-1.074-0.272-1.301-0.5-0.471-0.474-0.519-1.096-0.518-1.342v-17.691c-0.003-3.036 2.533-4.756 3.951-5.29v-3.205h-0.551c-0.369 0-0.667-0.298-0.667-0.667v-2.676c0-0.369 0.298-0.667 0.667-0.667h5.213c0.369 0 0.667 0.298 0.667 0.667v2.676c0 0.369-0.298 0.667-0.667 0.667l-0.646 0.001h3.301c0.369 0 0.667 0.298 0.667 0.667v1.803c0 0.369-0.298 0.667-0.667 0.667h-3.309l-0.001 0.071c1.419 0.536 3.948 2.255 3.945 5.288v17.694c0.001 0.242-0.046 0.865-0.517 1.339-0.227 0.228-0.637 0.5-1.302 0.5zM13.442 2.673h0.551c0.369 0 0.667 0.298 0.667 0.667v4.368c0 0.322-0.231 0.598-0.547 0.656-0.751 0.137-3.406 1.464-3.404 4.137v17.696c-0.001 0.125 0.033 0.302 0.13 0.4 0.070 0.070 0.189 0.105 0.355 0.105h8.266c0.167 0 0.286-0.035 0.355-0.107 0.098-0.096 0.131-0.273 0.13-0.395v-17.699c0.003-2.676-2.654-4.001-3.405-4.139-0.32-0.058-0.551-0.339-0.547-0.664l0.016-1.231c0.005-0.365 0.302-0.658 0.667-0.658h3.301v-0.469h-3.301c-0.369 0-0.667-0.298-0.667-0.667v-1.334c0-0.369 0.298-0.667 0.667-0.667h0.646v-1.343h-3.88v1.343z"></path>
<path d="M29.889 9.225c-0.031 0-0.063-0.002-0.094-0.007l-9.246-1.319c-0.329-0.047-0.573-0.328-0.573-0.66v-3.387c0-0.333 0.246-0.615 0.575-0.66l9.246-1.275c0.191-0.030 0.384 0.032 0.529 0.158 0.146 0.127 0.229 0.31 0.229 0.503v5.981c0 0.193-0.083 0.377-0.231 0.504-0.121 0.105-0.277 0.163-0.436 0.163zM21.31 6.661l7.913 1.129v-4.448l-7.913 1.091v2.228z"></path>
</svg>
