<svg version="1.1" xmlns="http://www.w3.org/2000/svg" width="32" height="32" viewBox="0 0 32 32">
<title>fire_danger_hot_flammable</title>
<path d="M16.542 31.945c-3.139 0-4.452-0.233-7.7-1.869-5.011-3.078-4.513-7.902-4.074-12.159 0.264-2.556 0.514-4.971-0.24-7.040-0.109-0.295-0.068-0.613 0.111-0.87 0.296-0.425 0.927-0.536 1.353-0.229 0.505 0.38 3.643 4.653 5.074 7.452 0.307-1.111 0.482-2.597 0.665-4.141 0.539-4.56 1.21-10.235 5.575-12.857 0.609-0.363 1.449 0.12 1.449 0.82 0 5.437 0.4 9.373 1.216 11.942 0.866-2.169 2.719-5.596 5.936-6.132 0.396-0.057 0.855 0.172 1.027 0.547 0.156 0.344 0.1 0.735-0.147 1.020-2.385 2.783-1.499 5.382-0.471 8.391 0.69 2.025 1.405 4.119 1.112 6.391-0.652 5.061-5.23 8.735-10.887 8.735zM6.212 12.133c0.297 1.904 0.087 3.939-0.118 5.922-0.438 4.241-0.852 8.247 3.396 10.859 3.042 1.529 4.122 1.698 7.051 1.698 4.977 0 8.999-3.184 9.564-7.57 0.254-1.966-0.41-3.91-1.051-5.79-0.962-2.819-1.954-5.726 0.013-8.749-2.346 1.119-3.845 4.519-4.393 6.567-0.072 0.265-0.298 0.46-0.57 0.49-0.271 0.027-0.536-0.109-0.664-0.353-1.331-2.531-1.974-6.815-2.016-13.45-3.301 2.454-3.891 7.441-4.37 11.49-0.299 2.529-0.557 4.712-1.403 5.995-0.084 0.126-0.208 0.221-0.353 0.268-0.171 0.053-0.382 0.046-0.542-0.039-0.159-0.086-0.301-0.224-0.35-0.398-0.435-1.546-2.775-5.019-4.195-6.939z"></path>
</svg>
