<!-- Generated by IcoMoon.io -->
<svg version="1.1" xmlns="http://www.w3.org/2000/svg" width="32" height="32" viewBox="0 0 32 32">
<title>flag</title>
<path d="M26.9 4h-0.3l-0.2 0.1c-1.4 0.6-2.9 0.9-4.4 0.9-1.2 0-2.9-0.6-4.8-1.3-2.3-0.8-4.9-1.7-7.2-1.7-3 0-4.5 0.5-5.3 1-0.4 0.2-0.7 0.7-0.7 1.3v14.6c0 0.1 0 0.2 0 0.3v9.8c0 0.6 0.4 1 1 1s1-0.4 1-1v-9.4c0.5-0.2 1.7-0.6 4-0.6 2 0 4.4 0.5 6.6 1.1 2 0.5 3.9 0.9 5.4 0.9 2.7 0 4.7-0.8 5.2-1s0.8-0.6 0.8-1.1v-13.8c0-0.6-0.5-1.1-1.1-1.1zM26 18.3c-0.7 0.3-2.2 0.7-4 0.7-1.3 0-3.1-0.4-4.9-0.9-2.3-0.5-4.8-1.1-7.1-1.1-1.8 0-3.1 0.2-4 0.5v-12.9c0.5-0.2 1.7-0.6 4-0.6 2 0 4.3 0.8 6.6 1.6 2 0.7 3.9 1.4 5.4 1.4 1.4 0 2.7-0.2 4-0.6v11.9z"></path>
</svg>
