<svg version="1.1" xmlns="http://www.w3.org/2000/svg" width="32" height="32" viewBox="0 0 32 32">
<title>flag</title>
<path d="M10.65 18.159c-1.249 0-2.381-0.116-3.462-0.357-0.305-0.068-0.521-0.338-0.521-0.651v-14.638c0-0.224 0.112-0.432 0.299-0.556s0.421-0.145 0.628-0.058c1.24 0.526 2.482 0.781 3.797 0.781 1.904 0 3.705-0.54 5.447-1.063 1.731-0.519 3.366-1.010 5.086-1.010 2.135 0 4.052 0.807 5.861 2.468 0.138 0.126 0.216 0.304 0.216 0.491v13.66c0 0.22-0.108 0.426-0.29 0.549-0.181 0.125-0.411 0.155-0.617 0.072-1.473-0.569-3.074-0.846-4.897-0.846-1.874 0-3.805 0.29-5.673 0.572-1.916 0.288-3.898 0.586-5.872 0.586zM8 16.605c2.469 0.443 5.51 0.072 8.324-0.352 1.915-0.288 3.897-0.587 5.871-0.587 1.626 0 3.099 0.205 4.471 0.624v-12.428c-1.501-1.311-3.016-1.923-4.743-1.923-1.525 0-3.068 0.464-4.703 0.954-1.833 0.55-3.729 1.119-5.829 1.119-1.169 0-2.287-0.176-3.391-0.538v13.13z"></path>
<path d="M7.333 31.333c-0.369 0-0.667-0.298-0.667-0.667v-29.333c0-0.369 0.298-0.667 0.667-0.667s0.667 0.298 0.667 0.667v29.333c0 0.369-0.298 0.667-0.667 0.667z"></path>
</svg>
