<svg version="1.1" xmlns="http://www.w3.org/2000/svg" width="32" height="32" viewBox="0 0 32 32">
<title>flamegraph</title>
<path d="M22.384 12.477c0 0-0.040 0.025-0.107 0.073-0.020 0.013-0.048 0.039-0.072 0.057-0.063 0.047-0.128 0.097-0.217 0.175-0.040 0.035-0.088 0.084-0.132 0.125-0.088 0.081-0.173 0.161-0.273 0.268-0.057 0.061-0.116 0.137-0.176 0.207-0.096 0.112-0.191 0.223-0.289 0.359-0.020 0.027-0.037 0.044-0.057 0.071 0.009-0.009 0.017-0.015 0.027-0.024-0.589 0.817-1.168 2.032-1.223 3.728-0.008 0.217-0.011 0.369-0.012 0.463 0.004-1.2-0.117-11.827-4.34-17.872 0 0 0.352 1.391 0.591 2.863 0.195 1.913 0.067 4.475-1.371 6.677-0.752 1.027-1.792 2.261-3.228 3.745-6.339 6.553-6.228 13.207-1.087 17.032-0.221-1.711-0.037-3.968 2.028-5.196 3.615-2.147 3.728-3.615 3.728-3.615s0.049 0.1 0.121 0.273c0.323 0.767 1.119 3.004 0.277 4.721-0.157 0.321-0.288 0.588-0.401 0.819-0.627 1.28-0.629 1.285-0.629 1.285s2.869-0.329 4.699-2.805c0 0 0.677 3.953-3.276 5.423-0.471 0.175-0.917 0.351-1.348 0.525-0.001 0-0.001 0-0.003 0-0.027 0.011-0.055 0.021-0.080 0.032 2.713 0.080 6.212-0.683 8.571-4.405 4.349-6.872-4.24-9.964-1.72-15.004z"></path>
</svg>
