<svg version="1.1" xmlns="http://www.w3.org/2000/svg" width="32" height="32" viewBox="0 0 32 32">
<title>flight_departure_airport_airplane</title>
<path d="M17.315 30.667h-17.333c-0.369 0-0.667-0.298-0.667-0.667s0.298-0.667 0.667-0.667h17.333c0.369 0 0.667 0.298 0.667 0.667s-0.298 0.667-0.667 0.667z"></path>
<path d="M3.206 21.796c-0.378 0-0.711-0.236-0.836-0.603-0.13-0.383 0.007-0.788 0.333-1.013l-3.335-2.298c-0.188-0.13-0.297-0.348-0.288-0.577 0.009-0.228 0.135-0.436 0.333-0.551l0.969-0.559c0.142-0.082 0.313-0.109 0.473-0.073 1.074 0.232 1.971 0.441 2.734 0.619 2.977 0.695 3.641 0.819 4.667 0.229l4.070-2.35-4.751-4.38c-0.156-0.144-0.234-0.353-0.211-0.564s0.146-0.398 0.329-0.504l0.53-0.306c0.167-0.098 0.37-0.117 0.554-0.051l8.467 2.965 5.022-2.899c0.475-0.268 4.659-2.568 6.978-1.723 0.707 0.259 0.852 0.749 0.875 1.018 0.109 1.256-2.224 2.799-3.624 3.607l-13.728 7.926c-0.212 0.092-3.194 1.253-9.443 2.078-0.040 0.005-0.080 0.008-0.12 0.008zM1.281 17.579l3.046 2.099c0.188 0.13 0.297 0.348 0.288 0.575 0 0.001 0 0.003 0 0.004 5.074-0.777 7.551-1.734 7.577-1.745l13.64-7.884c1.309-0.756 2.575-1.741 2.892-2.227-1.436-0.384-4.276 0.783-5.794 1.637l-5.281 3.049c-0.168 0.097-0.37 0.117-0.553 0.051l-7.103-2.487 4.765 4.392c0.271 0.249 0.288 0.671 0.038 0.942s-0.671 0.288-0.942 0.038l-0.497-0.458-4.43 2.557c-1.519 0.879-2.641 0.615-5.637-0.083-0.583-0.137-1.246-0.292-2.007-0.461z"></path>
<path d="M19.254 20.969c-0.165 0-0.329-0.061-0.457-0.181l-1.96-1.844c-0.268-0.253-0.281-0.675-0.029-0.943s0.675-0.281 0.943-0.029l1.544 1.453 0.137-0.107 0.311-2.78c0.040-0.366 0.376-0.628 0.737-0.589 0.366 0.041 0.629 0.371 0.589 0.737l-0.342 3.060c-0.021 0.178-0.112 0.342-0.254 0.452l-0.81 0.629c-0.121 0.094-0.264 0.141-0.409 0.141z"></path>
</svg>
