<svg version="1.1" xmlns="http://www.w3.org/2000/svg" width="32" height="32" viewBox="0 0 32 32">
<title>flight_arrival_airport_airplane</title>
<path d="M30.648 30.667h-17.333c-0.369 0-0.667-0.298-0.667-0.667s0.298-0.667 0.667-0.667h17.333c0.369 0 0.667 0.298 0.667 0.667s-0.298 0.667-0.667 0.667z"></path>
<path d="M28.783 22.281c-1.193 0-2.775-0.491-3.816-0.871l-15.133-5.508c-0.208-0.104-3.057-1.667-7.779-5.99-0.318-0.29-0.383-0.75-0.16-1.118 0.213-0.35 0.619-0.509 1.009-0.394l-0.39-4.112c-0.022-0.228 0.075-0.451 0.256-0.591 0.181-0.141 0.421-0.178 0.635-0.099l1.068 0.389c0.156 0.057 0.285 0.169 0.362 0.315 0.489 0.929 0.896 1.719 1.243 2.393 1.605 3.119 1.852 3.532 2.935 3.926l4.501 1.638 0.306-6.572c0.010-0.212 0.12-0.406 0.296-0.523s0.402-0.144 0.598-0.072l0.585 0.213c0.186 0.067 0.331 0.213 0.398 0.398l3.087 8.477 5.672 2.063c0.519 0.194 5.039 1.951 5.891 4.298 0.259 0.715-0.025 1.143-0.217 1.336-0.292 0.292-0.773 0.404-1.345 0.404zM4.061 9.922c3.925 3.45 6.292 4.755 6.317 4.768l15.044 5.467c1.456 0.529 3.070 0.869 3.639 0.796-0.634-1.389-3.409-2.836-5.069-3.46l-6.017-2.207c-0.161-0.075-0.286-0.21-0.346-0.377l-2.575-7.073-0.307 6.575c-0.018 0.367-0.325 0.647-0.697 0.635-0.368-0.017-0.652-0.329-0.635-0.697l0.033-0.693-4.891-1.781c-1.615-0.588-2.049-1.431-3.665-4.569-0.268-0.521-0.572-1.111-0.923-1.781l0.36 3.797c0.022 0.228-0.075 0.451-0.256 0.591-0.004 0.003-0.008 0.007-0.012 0.009z"></path>
<path d="M12.533 19.293c-0.173 0-0.347-0.066-0.467-0.186-0.133-0.134-0.2-0.307-0.2-0.481s0.066-0.346 0.2-0.481c0.24-0.239 0.68-0.239 0.934 0.014 0.133 0.12 0.2 0.293 0.2 0.466s-0.067 0.346-0.2 0.466c-0.133 0.134-0.294 0.201-0.467 0.201z"></path>
<path d="M15.28 20.227c-0.174 0-0.347-0.066-0.467-0.201-0.133-0.12-0.2-0.293-0.2-0.466s0.066-0.346 0.186-0.481c0.254-0.24 0.707-0.24 0.947 0.013 0.133 0.121 0.2 0.294 0.2 0.467s-0.067 0.346-0.2 0.466c-0.133 0.134-0.294 0.201-0.467 0.201z"></path>
</svg>
