<!-- Generated by IcoMoon.io -->
<svg version="1.1" xmlns="http://www.w3.org/2000/svg" width="32" height="32" viewBox="0 0 32 32">
<title>flow</title>
<path d="M28 6c0-2.2-1.8-4-4-4s-4 1.8-4 4c0 1.8 1.2 3.4 2.9 3.8-0.4 3.4-3.8 5.2-6.9 5.2s-6.5-1.8-6.9-5.2c1.7-0.4 2.9-2 2.9-3.8 0-2.2-1.8-4-4-4s-4 1.8-4 4c0 1.9 1.3 3.4 3 3.9 0.4 4.3 4.2 6.7 8 7.1v5.2c-1.7 0.4-3 2-3 3.9 0 2.2 1.8 4 4 4s4-1.8 4-4c0-1.9-1.3-3.4-3-3.9v-5.2c3.8-0.4 7.5-2.8 8-7.1 1.7-0.5 3-2 3-3.9zM6 6c0-1.1 0.9-2 2-2s2 0.9 2 2-0.9 2-2 2-2-0.9-2-2zM18 26c0 1.1-0.9 2-2 2s-2-0.9-2-2 0.9-2 2-2c1.1 0 2 0.9 2 2zM24 8c-1.1 0-2-0.9-2-2s0.9-2 2-2 2 0.9 2 2-0.9 2-2 2z"></path>
</svg>
