<!-- Generated by IcoMoon.io -->
<svg version="1.1" xmlns="http://www.w3.org/2000/svg" width="32" height="32" viewBox="0 0 32 32">
<title>flux_capacitor</title>
<path d="M28.133 32h-24.267c-2.133 0-3.867-1.733-3.867-3.867v-24.267c0-2.133 1.733-3.867 3.867-3.867h24.267c2.133 0 3.867 1.733 3.867 3.867v24.267c0 2.133-1.733 3.867-3.867 3.867zM3.867 1.333c-1.467 0-2.533 1.067-2.533 2.533v24.267c0 1.333 1.067 2.533 2.533 2.533h24.267c1.333 0 2.533-1.067 2.533-2.533v-24.267c0-1.333-1.067-2.533-2.533-2.533h-24.267z"></path>
<path d="M22.533 5.067c-2.533 0-4.533 2-4.533 4.533 0 0.8 0.267 1.467 0.533 2.133l-2.667 2.667-2.533-2.667c0.4-0.667 0.533-1.333 0.533-2.133 0-2.533-2-4.533-4.533-4.533s-4.4 2-4.4 4.4c0 2.533 2 4.533 4.533 4.533 1.2 0 2.267-0.533 3.067-1.2l2.667 2.8v2.4c-2.133 0.4-3.867 2.133-3.867 4.4 0 2.533 2 4.533 4.533 4.533s4.533-2 4.533-4.533c0-2.267-1.6-4.133-3.867-4.4v-2.533l2.667-2.667c0.8 0.8 1.867 1.333 3.067 1.333 2.533 0 4.533-2 4.533-4.533 0.267-2.533-1.733-4.533-4.267-4.533zM9.467 12.667c-1.733 0-3.067-1.333-3.067-3.067s1.333-3.067 3.067-3.067 3.067 1.333 3.067 3.067c0 1.6-1.333 3.067-3.067 3.067zM19.067 22.533c0 1.733-1.333 3.067-3.067 3.067s-3.067-1.333-3.067-3.067c0-1.733 1.333-3.067 3.067-3.067 1.733-0.133 3.067 1.333 3.067 3.067zM22.533 12.667c-1.733 0-3.067-1.333-3.067-3.067s1.333-3.067 3.067-3.067 3.067 1.333 3.067 3.067c0 1.6-1.333 3.067-3.067 3.067z"></path>
</svg>
