<!-- Generated by IcoMoon.io -->
<svg version="1.1" xmlns="http://www.w3.org/2000/svg" width="32" height="32" viewBox="0 0 32 32">
<title>folder_preferences_options_settings</title>
<path d="M3.439 5.627c0.281-0.281 0.663-0.439 1.061-0.439h4.743c0.296 0 0.586 0.088 0.832 0.252l0 0 1.74 1.16c0.575 0.383 1.251 0.588 1.942 0.588h13.743c0.398 0 0.779 0.158 1.061 0.439s0.439 0.663 0.439 1.061v1.5h-26v-3.5c0-0.398 0.158-0.779 0.439-1.061zM3 12.188h26v2.375h2v-5.875c0-0.928-0.369-1.819-1.025-2.475s-1.547-1.025-2.475-1.025h-13.743c-0.296 0-0.586-0.088-0.832-0.252l-0-0-1.74-1.16c-0.575-0.383-1.251-0.588-1.942-0.588h-4.743c-0.928 0-1.819 0.369-2.475 1.025s-1.025 1.547-1.025 2.475v17c0 0.928 0.369 1.819 1.025 2.475s1.547 1.025 2.475 1.025h9.813v-2h-9.813c-0.398 0-0.779-0.158-1.061-0.439s-0.439-0.663-0.439-1.061v-11.5z"></path>
<path d="M22.824 15.875c0.006-0 0.011-0 0.017-0h2.506c0.005 0 0.009 0 0.014 0 0.258 0.004 0.507 0.096 0.706 0.261s0.336 0.392 0.389 0.646c0.003 0.017 0.006 0.034 0.009 0.051l0.172 1.217c0.144 0.076 0.285 0.157 0.421 0.246l1.147-0.46c0.005-0.002 0.009-0.004 0.014-0.006 0.248-0.094 0.522-0.098 0.772-0.011s0.463 0.26 0.599 0.488c0.001 0.002 0.002 0.004 0.003 0.005s0.001 0.002 0.002 0.003l1.252 2.16c0 0 0 0.001 0.001 0.001 0.134 0.231 0.182 0.501 0.135 0.764s-0.186 0.501-0.392 0.671c-0.005 0.004-0.011 0.009-0.016 0.013l-0.976 0.764c0.004 0.081 0.007 0.164 0.007 0.249l-0 0.005c-0 0.079-0.003 0.158-0.007 0.237l0.975 0.762c0.006 0.005 0.011 0.009 0.017 0.014 0.206 0.17 0.345 0.408 0.392 0.671s-0.001 0.534-0.135 0.764c-0 0-0 0-0 0.001l-1.252 2.16c-0.002 0.003-0.003 0.005-0.005 0.008-0.136 0.229-0.348 0.401-0.599 0.489s-0.524 0.084-0.773-0.011c-0.005-0.002-0.010-0.004-0.015-0.006l-1.148-0.461c-0.136 0.087-0.276 0.168-0.419 0.244l-0.172 1.22c-0.001 0.009-0.003 0.018-0.004 0.027-0.046 0.26-0.18 0.495-0.38 0.666s-0.453 0.268-0.716 0.273c-0.004 0-0.007 0-0.011 0-0.002 0-0.004 0-0.006 0h-2.506c-0.005 0-0.009-0-0.014-0-0.258-0.004-0.507-0.096-0.706-0.261s-0.336-0.392-0.389-0.646c-0.003-0.017-0.006-0.034-0.009-0.051l-0.172-1.217c-0.144-0.076-0.285-0.157-0.421-0.246l-1.147 0.46c-0.005 0.002-0.009 0.004-0.014 0.006-0.248 0.094-0.522 0.098-0.772 0.011s-0.463-0.26-0.599-0.488l-0.001-0.002c-0.001-0.002-0.003-0.005-0.004-0.007l-1.252-2.16c-0-0-0.001-0.001-0.001-0.001-0.134-0.231-0.182-0.501-0.135-0.764s0.186-0.501 0.392-0.671c0.005-0.004 0.011-0.009 0.016-0.013l0.974-0.762c-0.004-0.082-0.007-0.166-0.007-0.251 0-0.082 0.002-0.163 0.006-0.242l-0.975-0.764c-0.008-0.006-0.015-0.012-0.023-0.018-0.203-0.171-0.339-0.407-0.384-0.669s0.003-0.53 0.136-0.759c0-0 0-0.001 0-0.001l1.252-2.16c0.002-0.003 0.003-0.005 0.005-0.008 0.136-0.229 0.348-0.401 0.599-0.489s0.524-0.084 0.773 0.011c0.005 0.002 0.010 0.004 0.015 0.006l1.148 0.461c0.136-0.087 0.276-0.168 0.419-0.244l0.172-1.22c0.001-0.009 0.003-0.018 0.004-0.027 0.046-0.26 0.18-0.495 0.38-0.666s0.453-0.268 0.716-0.273zM21.526 18.241c0-0 0-0.001 0-0.001l-0 0.001zM18.731 22.808c-0-0-0-0-0.001-0l0.001 0zM23.272 17.499l-0.136 0.967c-0 0-0 0.001-0 0.001v0c-0.029 0.208-0.109 0.405-0.232 0.574s-0.287 0.306-0.476 0.398l-0.001 0c-0.182 0.088-0.357 0.189-0.523 0.304-0.174 0.12-0.375 0.196-0.584 0.22s-0.424-0.004-0.622-0.082l-0.003-0.001-0.911-0.366-0.82 1.414 0.77 0.603c0 0 0 0 0.001 0 0.167 0.131 0.299 0.301 0.384 0.495s0.12 0.407 0.102 0.619l-0 0.005c-0.009 0.098-0.014 0.193-0.014 0.287 0 0.093 0.005 0.189 0.014 0.293 0.019 0.211-0.014 0.424-0.098 0.619-0.084 0.196-0.216 0.369-0.383 0.501l-0.776 0.608 0.82 1.414 0.911-0.366c0.197-0.079 0.411-0.108 0.622-0.084s0.413 0.1 0.587 0.221l0.001 0.001c0.163 0.114 0.336 0.215 0.515 0.301 0.19 0.091 0.354 0.226 0.479 0.395s0.207 0.368 0.237 0.578l0 0.003 0.135 0.957h1.645l0.136-0.967c0-0 0-0 0-0.001 0.029-0.208 0.109-0.405 0.233-0.575s0.287-0.306 0.476-0.398l0.001-0c0.182-0.088 0.357-0.189 0.523-0.304 0.174-0.12 0.375-0.196 0.584-0.22 0.211-0.024 0.424 0.004 0.622 0.082l0.003 0.001 0.911 0.366 0.82-1.414-0.978-0.764c-0.229-0.179-0.345-0.466-0.304-0.754 0.023-0.164 0.036-0.33 0.037-0.495-0-0.092-0.005-0.189-0.013-0.294-0.018-0.211 0.016-0.423 0.1-0.617 0.085-0.196 0.217-0.368 0.385-0.5l0.774-0.606-0.82-1.414-0.911 0.366c-0.197 0.079-0.411 0.108-0.622 0.084s-0.413-0.1-0.587-0.221l-0.001-0.001c-0.163-0.114-0.336-0.215-0.515-0.301-0.19-0.091-0.354-0.226-0.479-0.395s-0.207-0.368-0.237-0.578l-0-0.003-0.135-0.957h-1.645zM22.77 20.604c0.482-0.272 1.036-0.389 1.587-0.335l0.001 0c0.617 0.062 1.194 0.335 1.634 0.772s0.713 1.014 0.775 1.631l0 0.001c0.055 0.55-0.063 1.104-0.336 1.585s-0.689 0.866-1.189 1.102-1.062 0.312-1.608 0.218c-0.546-0.094-1.049-0.355-1.441-0.745s-0.653-0.893-0.748-1.438-0.018-1.106 0.219-1.606c0.237-0.5 0.623-0.914 1.105-1.186zM24.198 21.885c-0.218-0.021-0.437 0.025-0.628 0.133s-0.343 0.271-0.436 0.468c-0.093 0.197-0.124 0.418-0.086 0.632s0.14 0.413 0.295 0.567 0.354 0.257 0.57 0.295c0.216 0.037 0.439 0.007 0.637-0.086s0.362-0.246 0.47-0.435c0.108-0.189 0.154-0.407 0.133-0.623-0.025-0.243-0.133-0.47-0.306-0.643s-0.402-0.281-0.647-0.306z"></path>
</svg>
