<svg version="1.1" xmlns="http://www.w3.org/2000/svg" width="32" height="32" viewBox="0 0 32 32">
<title>folder_images_photos</title>
<path d="M30.016 31.966h-28.119c-1.063 0-1.928-0.867-1.928-1.934v-25.412c0-1.066 0.865-1.934 1.928-1.934h4.757c0.266 0 1.052 0 2.343 2.72h21.019c1.063 0 1.927 0.868 1.927 1.934v22.692c-0 1.067-0.865 1.934-1.927 1.934zM1.897 4.019c-0.327 0-0.594 0.269-0.594 0.601v25.412c0 0.331 0.267 0.6 0.594 0.6h28.119c0.327 0 0.594-0.269 0.594-0.6v-22.692c0-0.331-0.267-0.601-0.594-0.601h-21.445c-0.262 0-0.501-0.154-0.608-0.393-0.473-1.050-1.108-2.1-1.402-2.327h-4.663z"></path>
<path d="M31.276 12.034h-30.641c-0.369 0-0.667-0.298-0.667-0.667s0.298-0.667 0.667-0.667h30.641c0.369 0 0.667 0.298 0.667 0.667s-0.298 0.667-0.667 0.667z"></path>
<path d="M24.010 28.046h-16.034c-0.698 0-1.266-0.555-1.266-1.237v-10.929c0-0.682 0.568-1.237 1.266-1.237h16.034c0.695 0 1.263 0.553 1.266 1.234v10.932c0 0.682-0.568 1.237-1.266 1.237zM23.943 15.88l-15.966 0.096 0.068 10.833 15.898-0.096v-10.833z"></path>
<path d="M11.711 22.005c-1.253 0-2.273-0.986-2.273-2.198s1.020-2.199 2.273-2.199c1.254 0 2.274 0.987 2.274 2.199s-1.020 2.198-2.274 2.198zM11.711 18.941c-0.518 0-0.94 0.388-0.94 0.866 0 0.477 0.422 0.865 0.94 0.865s0.941-0.388 0.941-0.865c0-0.478-0.422-0.866-0.941-0.866z"></path>
<path d="M10.975 27.984c-0.141 0-0.285-0.046-0.406-0.138-0.292-0.224-0.347-0.643-0.122-0.935l5.313-6.919c0.126-0.165 0.311-0.298 0.529-0.26 0.206 0 0.4 0.095 0.526 0.258l1.586 2.039 2.255-3.38c0.121-0.181 0.323-0.292 0.54-0.297 0.199 0 0.423 0.098 0.553 0.273l3.384 4.641c0.216 0.298 0.151 0.715-0.146 0.932-0.297 0.215-0.714 0.151-0.932-0.146l-2.82-3.869-2.238 3.354c-0.119 0.178-0.316 0.289-0.53 0.297-0.236 0.003-0.419-0.089-0.551-0.258l-1.624-2.089-4.788 6.236c-0.131 0.171-0.329 0.26-0.529 0.26z"></path>
</svg>
