<!-- Generated by IcoMoon.io -->
<svg version="1.1" xmlns="http://www.w3.org/2000/svg" width="32" height="32" viewBox="0 0 32 32">
<title>folder_cloud_sync_backup</title>
<path d="M3.439 5.939c0.281-0.281 0.663-0.439 1.061-0.439h4.743c0.296 0 0.586 0.088 0.832 0.252l0 0 1.74 1.16c0.575 0.383 1.251 0.588 1.942 0.588h13.743c0.398 0 0.779 0.158 1.061 0.439s0.439 0.663 0.439 1.061v1.5h-26v-3.5c0-0.398 0.158-0.779 0.439-1.061zM3 12.5h26v5.188h2v-8.688c0-0.928-0.369-1.819-1.025-2.475s-1.547-1.025-2.475-1.025h-13.743c-0.296 0-0.586-0.088-0.832-0.252l-0-0-1.74-1.16c-0.575-0.383-1.251-0.588-1.942-0.588h-4.743c-0.928 0-1.819 0.369-2.475 1.025s-1.025 1.547-1.025 2.475v17c0 0.928 0.369 1.819 1.025 2.475s1.547 1.025 2.475 1.025h4.743v-2h-4.743c-0.398 0-0.779-0.158-1.061-0.439s-0.439-0.663-0.439-1.061v-11.5z"></path>
<path d="M15.826 19.678c0.825-1.842 2.682-3.553 5.424-3.553 2.997 0 5.486 2.069 6.165 5.288 0.687 0.154 1.388 0.445 1.992 0.906 0.925 0.706 1.593 1.799 1.593 3.259 0 1.399-0.537 2.531-1.486 3.285-0.911 0.725-2.087 1.012-3.246 1.012h-9.32c-2.893 0-5.448-2.059-5.448-5.156 0-1.544 0.599-2.801 1.575-3.69 0.771-0.703 1.739-1.142 2.751-1.351zM21.25 18.417c-1.861 0-3.082 1.285-3.491 2.625-0.135 0.442-0.523 0.76-0.983 0.806-0.883 0.088-1.639 0.403-2.155 0.874-0.494 0.45-0.827 1.091-0.827 1.997 0 1.629 1.316 2.865 3.154 2.865h9.32c0.813 0 1.429-0.204 1.817-0.513 0.351-0.279 0.62-0.723 0.62-1.492 0-0.682-0.282-1.125-0.692-1.439-0.448-0.342-1.072-0.538-1.662-0.568-0.566-0.029-1.026-0.468-1.082-1.031-0.267-2.684-2.055-4.124-4.020-4.124z"></path>
</svg>
