<!-- Generated by IcoMoon.io -->
<svg version="1.1" xmlns="http://www.w3.org/2000/svg" width="32" height="32" viewBox="0 0 32 32">
<title>folder_open</title>
<path d="M29 11.2v-1.7c0-1.9-1.6-3.5-3.5-3.5h-9.7c-0.3 0-0.6-0.1-0.8-0.3l-1.7-1.1c0 0 0 0 0 0-0.6-0.4-1.3-0.6-2-0.6h-4.8c-1.9 0-3.5 1.6-3.5 3.5v3.7c-1.2 0.4-2 1.5-2 2.8 0 0.1 0 0.2 0 0.3l1 10.2c0 1.9 1.6 3.5 3.5 3.5h21c1.9 0 3.5-1.6 3.5-3.4l1-10.3c0 0 0 0 0 0 0-0.1 0-0.2 0-0.3 0-1.3-0.8-2.4-2-2.8zM6.5 6h4.7c0.3 0 0.6 0.1 0.8 0.2 0 0 0 0 0 0l1.7 1.2c0.7 0.4 1.4 0.6 2.1 0.6h9.7c0.8 0 1.5 0.7 1.5 1.5v1.5h-22v-3.5c0-0.8 0.7-1.5 1.5-1.5zM29 14.1l-1 10.4c0 0.8-0.7 1.5-1.5 1.5h-21c-0.8 0-1.5-0.7-1.5-1.6l-1-10.4c0-0.6 0.4-1 1-1h24c0.6 0 1 0.5 1 1.1 0 0 0 0 0 0z"></path>
</svg>
