<svg version="1.1" xmlns="http://www.w3.org/2000/svg" width="32" height="32" viewBox="0 0 32 32">
<title>folder_open_full_documents</title>
<path d="M28.819 32.029h-25.626c-0.331 0-0.613-0.243-0.659-0.572l-2.326-16.067c-0.028-0.191 0.029-0.386 0.156-0.532s0.311-0.231 0.504-0.231h30.277c0.194 0 0.378 0.084 0.504 0.231s0.184 0.341 0.156 0.532l-2.325 16.067c-0.048 0.328-0.329 0.572-0.66 0.572zM3.77 30.695h24.472l2.133-14.734h-28.738l2.133 14.734z"></path>
<path d="M3.393 13.474c-0.369 0-0.667-0.298-0.667-0.667v-3.077c0-0.933 0.772-1.691 1.721-1.691h3.779c0.253 0 1.022 0 2.091 2.508 0.145 0.339-0.013 0.73-0.352 0.874-0.341 0.145-0.73-0.014-0.875-0.351-0.309-0.723-0.754-1.49-0.979-1.697h-3.663c-0.214 0-0.388 0.161-0.388 0.358v3.077c0 0.368-0.298 0.667-0.667 0.667z"></path>
<path d="M20.624 21.262h-10.402c-0.369 0-0.667-0.298-0.667-0.667s0.298-0.667 0.667-0.667h10.402c0.369 0 0.667 0.298 0.667 0.667s-0.298 0.667-0.667 0.667z"></path>
<path d="M28.31 15.96c-0.007 0.001-0.017 0.001-0.026 0h-20.499c-0.327 0-0.607-0.238-0.658-0.561l-0.63-3.934c-0.056-0.35 0.171-0.682 0.517-0.757l19.483-4.219c0.175-0.038 0.357-0.005 0.505 0.094 0.15 0.098 0.254 0.251 0.289 0.426l1.611 7.977c0.049 0.092 0.075 0.197 0.075 0.309 0 0.369-0.298 0.667-0.667 0.667zM8.353 14.627h19.116l-1.352-6.692-18.205 3.943 0.441 2.749z"></path>
</svg>
