<svg version="1.1" xmlns="http://www.w3.org/2000/svg" width="32" height="32" viewBox="0 0 32 32">
<title>folder_cloud_sync_backup</title>
<path d="M22.743 32.031h-13.598c-2.248 0-4.2-1.484-4.856-3.693-0.508-1.712-0.216-4.081 2.067-5.712 0.661-3.426 3.424-5.883 6.67-5.883 1.492 0 2.909 0.521 4.115 1.509 2.556-0.224 4.66 1.131 5.54 3.374 0.010 0 0.021 0 0.033 0 2.884 0 5.323 2.383 5.324 5.202 0 2.82-2.425 5.203-5.296 5.203zM13.027 18.077c-2.294 0-4.887 1.733-5.403 5.044-0.029 0.186-0.136 0.353-0.295 0.456-1.607 1.047-2.265 2.685-1.761 4.381 0.406 1.363 1.669 2.74 3.578 2.74h13.598c2.147 0 3.962-1.772 3.962-3.87-0.001-2.234-2.072-4.079-4.423-3.846-0.315 0.038-0.619-0.168-0.708-0.477-0.453-1.56-1.96-3.238-4.561-2.897-0.191 0.025-0.384-0.035-0.529-0.163-1.006-0.896-2.202-1.368-3.458-1.368z"></path>
<path d="M30.029 29.299c-0.369 0-0.667-0.298-0.667-0.667s0.298-0.667 0.667-0.667c0.327 0 0.594-0.269 0.594-0.6v-22.692c0-0.331-0.267-0.601-0.594-0.601h-21.445c-0.262 0-0.501-0.154-0.608-0.393-0.473-1.050-1.109-2.1-1.403-2.327h-4.663c-0.327 0-0.594 0.269-0.594 0.601v25.412c0 0.331 0.267 0.6 0.594 0.6 0.369 0 0.667 0.298 0.667 0.667s-0.298 0.667-0.667 0.667c-1.063 0-1.928-0.867-1.928-1.934v-25.412c0-1.066 0.865-1.934 1.928-1.934h4.757c0.266 0 1.052 0 2.344 2.72h21.019c1.063 0 1.927 0.868 1.927 1.934v22.692c0 1.067-0.865 1.934-1.927 1.934z"></path>
<path d="M31.289 9.367h-30.641c-0.369 0-0.667-0.298-0.667-0.667s0.298-0.667 0.667-0.667h30.641c0.369 0 0.667 0.298 0.667 0.667s-0.298 0.667-0.667 0.667z"></path>
</svg>
