<svg version="1.1" xmlns="http://www.w3.org/2000/svg" width="32" height="32" viewBox="0 0 32 32">
<title>folder_password_protected_secure_private</title>
<path d="M30.022 31.966h-28.119c-1.063 0-1.928-0.867-1.928-1.934v-25.412c0-1.066 0.865-1.934 1.928-1.934h4.757c0.266 0 1.052 0 2.344 2.72h21.019c1.063 0 1.927 0.868 1.927 1.934v22.692c0 1.067-0.865 1.934-1.927 1.934zM1.903 4.019c-0.327 0-0.594 0.269-0.594 0.601v25.412c0 0.331 0.267 0.6 0.594 0.6h28.119c0.327 0 0.594-0.269 0.594-0.6v-22.692c0-0.331-0.267-0.601-0.594-0.601h-21.445c-0.262 0-0.501-0.154-0.608-0.393-0.473-1.050-1.109-2.1-1.403-2.327h-4.663z"></path>
<path d="M31.283 12.034h-30.641c-0.369 0-0.667-0.298-0.667-0.667s0.298-0.667 0.667-0.667h30.641c0.369 0 0.667 0.298 0.667 0.667s-0.298 0.667-0.667 0.667z"></path>
<path d="M21.766 25.383c-1.816 0-3.482-1.053-4.28-2.663h-2.365c-0.182 0-0.357-0.074-0.482-0.207l-1.169-1.227-1.91 1.441c-0.229 0.171-0.538 0.18-0.774 0.021l-1.613-1.086-1.454 0.842c-0.254 0.146-0.574 0.111-0.788-0.089l-1.739-1.616c-0.203-0.189-0.268-0.482-0.164-0.738l0.583-1.44c0.102-0.253 0.346-0.417 0.618-0.417h11.407c0.85-1.46 2.427-2.381 4.13-2.381 2.635 0 4.779 2.145 4.779 4.78s-2.143 4.779-4.779 4.779zM15.407 21.387h2.515c0.277 0 0.526 0.172 0.624 0.431 0.503 1.335 1.797 2.232 3.22 2.232 1.9 0 3.445-1.546 3.445-3.445 0-1.901-1.546-3.447-3.445-3.447-1.332 0-2.559 0.784-3.122 1.996-0.109 0.236-0.345 0.385-0.604 0.385h-11.361l-0.242 0.598 1.041 0.967 1.387-0.805c0.222-0.126 0.494-0.12 0.707 0.023l1.565 1.053 2.005-1.512c0.269-0.203 0.648-0.173 0.884 0.073l1.381 1.449z"></path>
<path d="M22.547 22.24c-0.902 0-1.635-0.733-1.635-1.635s0.733-1.635 1.635-1.635c0.901 0 1.634 0.733 1.634 1.635s-0.733 1.635-1.634 1.635zM22.547 20.302c-0.167 0-0.302 0.135-0.302 0.302 0.001 0.332 0.603 0.335 0.603 0 0-0.167-0.135-0.302-0.301-0.302z"></path>
</svg>
