<!-- Generated by IcoMoon.io -->
<svg version="1.1" xmlns="http://www.w3.org/2000/svg" width="32" height="32" viewBox="0 0 32 32">
<title>folder_documents_revert_history</title>
<path d="M3.439 5.689c0.281-0.281 0.663-0.439 1.061-0.439h4.743c0.296 0 0.586 0.088 0.832 0.252l0 0 1.74 1.16c0.575 0.383 1.251 0.588 1.942 0.588h13.743c0.398 0 0.779 0.158 1.061 0.439s0.439 0.663 0.439 1.061v1.5h-26v-3.5c0-0.398 0.158-0.779 0.439-1.061zM3 12.25h26v2.375h2v-5.875c0-0.928-0.369-1.819-1.025-2.475s-1.547-1.025-2.475-1.025h-13.743c-0.296 0-0.586-0.088-0.832-0.252l-0-0-1.74-1.16c-0.575-0.383-1.251-0.588-1.942-0.588h-4.743c-0.928 0-1.819 0.369-2.475 1.025s-1.025 1.547-1.025 2.475v17c0 0.928 0.369 1.819 1.025 2.475s1.547 1.025 2.475 1.025h9.813v-2h-9.813c-0.398 0-0.779-0.158-1.061-0.439s-0.439-0.663-0.439-1.061v-11.5z"></path>
<path d="M23.938 15.813c-3.899 0-7.063 3.163-7.063 7.063s3.163 7.063 7.063 7.063c3.899 0 7.063-3.163 7.063-7.063s-3.163-7.063-7.063-7.063zM18.495 22.875c0-3.005 2.438-5.442 5.442-5.442s5.442 2.438 5.442 5.442c0 3.005-2.438 5.442-5.442 5.442s-5.442-2.438-5.442-5.442zM24.773 18.698c0-0.447-0.363-0.81-0.81-0.81s-0.81 0.363-0.81 0.81v4.708c0 0.447 0.363 0.81 0.81 0.81h3.088c0.447 0 0.81-0.363 0.81-0.81s-0.363-0.81-0.81-0.81h-2.278v-3.898z"></path>
</svg>
