<svg version="1.1" xmlns="http://www.w3.org/2000/svg" width="32" height="32" viewBox="0 0 32 32">
<title>folder_preferences_options_settings</title>
<path d="M30.035 29.299h-4.746c-0.369 0-0.667-0.298-0.667-0.667s0.298-0.667 0.667-0.667h4.746c0.327 0 0.594-0.269 0.594-0.6v-22.692c0-0.331-0.267-0.601-0.594-0.601h-21.445c-0.262 0-0.501-0.154-0.608-0.393-0.473-1.050-1.109-2.1-1.403-2.327h-4.663c-0.327 0-0.594 0.269-0.594 0.601v25.412c0 0.331 0.266 0.6 0.594 0.6h4.639c0.369 0 0.667 0.298 0.667 0.667s-0.298 0.667-0.667 0.667h-4.639c-1.063 0-1.927-0.867-1.927-1.934v-25.412c0-1.066 0.865-1.934 1.927-1.934h4.757c0.266 0 1.052 0 2.344 2.72h21.019c1.063 0 1.927 0.868 1.927 1.934v22.692c0 1.067-0.865 1.934-1.927 1.934z"></path>
<path d="M31.296 9.367h-30.641c-0.369 0-0.667-0.298-0.667-0.667s0.298-0.667 0.667-0.667h30.641c0.369 0 0.667 0.298 0.667 0.667s-0.298 0.667-0.667 0.667z"></path>
<path d="M16 26.613c-1.658 0-3.007-1.349-3.007-3.007s1.349-3.007 3.007-3.007 3.007 1.349 3.007 3.007-1.349 3.007-3.007 3.007zM16 21.934c-0.923 0-1.673 0.75-1.673 1.673s0.751 1.673 1.673 1.673c0.923 0 1.673-0.75 1.673-1.673s-0.75-1.673-1.673-1.673z"></path>
<path d="M14.074 31.831c-0.055 0-0.11-0.007-0.165-0.021-0.768-0.197-1.476-0.486-2.163-0.884-0.26-0.151-0.387-0.457-0.31-0.747l0.432-1.634c-0.276-0.231-0.533-0.484-0.766-0.759l-1.631 0.445c-0.294 0.077-0.597-0.047-0.749-0.303-0.392-0.66-0.705-1.406-0.904-2.154-0.077-0.29 0.049-0.598 0.309-0.749l1.462-0.849c-0.032-0.361-0.034-0.721-0.005-1.082l-1.468-0.837c-0.26-0.15-0.39-0.454-0.315-0.745 0.195-0.758 0.493-1.486 0.885-2.163 0.151-0.26 0.458-0.389 0.747-0.31l1.634 0.432c0.232-0.277 0.486-0.534 0.761-0.767l-0.446-1.631c-0.079-0.29 0.046-0.596 0.304-0.75 0.665-0.393 1.411-0.705 2.156-0.902 0.289-0.077 0.596 0.049 0.747 0.309l0.851 1.463c0.358-0.033 0.718-0.034 1.079-0.004l0.837-1.469c0.148-0.26 0.447-0.393 0.746-0.315 0.78 0.201 1.467 0.483 2.161 0.887 0.26 0.151 0.387 0.457 0.31 0.747l-0.432 1.634c0.276 0.231 0.531 0.484 0.764 0.759l1.631-0.447c0.29-0.078 0.598 0.046 0.75 0.303 0.398 0.675 0.702 1.4 0.902 2.158 0.077 0.29-0.049 0.595-0.309 0.746l-1.464 0.853c0.033 0.358 0.034 0.717 0.005 1.074l1.469 0.837c0.26 0.15 0.389 0.454 0.315 0.746-0.198 0.768-0.488 1.475-0.887 2.163-0.151 0.26-0.453 0.383-0.747 0.31l-1.633-0.432c-0.231 0.275-0.484 0.53-0.758 0.763l0.447 1.631c0.079 0.289-0.046 0.596-0.303 0.749-0.672 0.4-1.398 0.703-2.158 0.905-0.289 0.073-0.595-0.049-0.747-0.31l-0.849-1.461c-0.357 0.031-0.716 0.035-1.077 0.005l-0.838 1.469c-0.121 0.211-0.344 0.336-0.579 0.336zM12.858 30.010c0.292 0.145 0.588 0.266 0.897 0.367l0.796-1.395c0.137-0.238 0.408-0.367 0.68-0.328 0.533 0.082 1.068 0.074 1.585-0.008 0.271-0.047 0.544 0.083 0.684 0.323l0.806 1.387c0.307-0.104 0.605-0.231 0.895-0.375l-0.423-1.548c-0.073-0.266 0.026-0.549 0.249-0.712 0.43-0.318 0.806-0.695 1.116-1.125 0.161-0.224 0.444-0.322 0.711-0.254l1.549 0.41c0.146-0.293 0.267-0.589 0.369-0.898l-1.393-0.794c-0.24-0.137-0.37-0.408-0.328-0.681 0.079-0.522 0.078-1.055-0.008-1.583-0.043-0.272 0.085-0.543 0.323-0.681l1.388-0.809c-0.104-0.306-0.229-0.605-0.374-0.895l-1.549 0.423c-0.267 0.072-0.549-0.026-0.714-0.25-0.315-0.43-0.693-0.805-1.122-1.116-0.224-0.161-0.325-0.444-0.255-0.711l0.41-1.552c-0.292-0.145-0.587-0.266-0.897-0.367l-0.794 1.393c-0.137 0.24-0.409 0.372-0.681 0.328-0.531-0.081-1.066-0.075-1.586 0.007-0.277 0.048-0.545-0.083-0.683-0.323l-0.807-1.388c-0.305 0.105-0.605 0.231-0.894 0.375l0.423 1.548c0.073 0.267-0.027 0.551-0.25 0.715-0.43 0.313-0.805 0.691-1.117 1.124-0.161 0.225-0.443 0.323-0.712 0.255l-1.55-0.41c-0.143 0.29-0.266 0.59-0.367 0.897l1.393 0.794c0.24 0.137 0.37 0.408 0.328 0.68-0.081 0.529-0.078 1.064 0.008 1.59 0.044 0.272-0.084 0.544-0.323 0.684l-1.386 0.806c0.105 0.305 0.231 0.605 0.374 0.893l1.548-0.423c0.269-0.072 0.551 0.027 0.714 0.249 0.316 0.431 0.695 0.806 1.126 1.116 0.224 0.161 0.325 0.445 0.255 0.712l-0.41 1.551z"></path>
</svg>
