<!-- Generated by IcoMoon.io -->
<svg version="1.1" xmlns="http://www.w3.org/2000/svg" width="32" height="32" viewBox="0 0 32 32">
<title>folder</title>
<path d="M27.5 6h-13.7c-0.3 0-0.6-0.1-0.8-0.3l-1.7-1.1c0 0 0 0 0 0-0.7-0.4-1.4-0.6-2.1-0.6h-4.7c-1.9 0-3.5 1.6-3.5 3.5v17c0 1.9 1.6 3.5 3.5 3.5h23c1.9 0 3.5-1.6 3.5-3.5v-15c0-1.9-1.6-3.5-3.5-3.5zM29 24.5c0 0.8-0.7 1.5-1.5 1.5h-23c-0.8 0-1.5-0.7-1.5-1.5v-11.5h26v11.5zM29 11h-26v-3.5c0-0.8 0.7-1.5 1.5-1.5h4.7c0.3 0 0.6 0.1 0.8 0.2 0 0 0 0 0 0l1.7 1.2c0.7 0.4 1.4 0.6 2.1 0.6h13.7c0.8 0 1.5 0.7 1.5 1.5v1.5z"></path>
</svg>
