<!-- Generated by IcoMoon.io -->
<svg version="1.1" xmlns="http://www.w3.org/2000/svg" width="32" height="32" viewBox="0 0 32 32">
<title>folder_open</title>
<path fill="none" stroke-linejoin="round" stroke-linecap="round" stroke-miterlimit="4" stroke-width="2" stroke="#000" d="M4 12v-4.5c0-1.381 1.119-2.5 2.5-2.5v0h4.743c0.517 0 0.997 0.157 1.396 0.426l-0.009-0.006 1.74 1.16c0.39 0.263 0.87 0.42 1.387 0.42h9.743c1.381 0 2.5 1.119 2.5 2.5v0 2.5"></path>
<path fill="none" stroke-linejoin="round" stroke-linecap="round" stroke-miterlimit="4" stroke-width="2" stroke="#000" d="M29.994 14.159l-1.014 10.341c0 0 0 0 0 0 0 1.379-1.117 2.497-2.495 2.5h-20.969c-1.379-0.003-2.496-1.121-2.496-2.5 0 0 0 0 0 0v0l-1.014-10.341c-0.004-0.048-0.006-0.103-0.006-0.159 0-1.105 0.895-2 2-2 0 0 0 0 0 0h24.006c1.102 0.004 1.994 0.898 1.994 2 0 0.056-0.002 0.112-0.007 0.167l0-0.007z"></path>
</svg>
