<svg version="1.1" xmlns="http://www.w3.org/2000/svg" width="32" height="32" viewBox="0 0 32 32">
<title>folder_files_documents</title>
<path d="M28.871 12.034c-0.005 0.001-0.016 0.001-0.026 0h-23.958c-0.315 0-0.587-0.221-0.652-0.529l-0.847-4.010c-0.036-0.175-0.003-0.355 0.095-0.504s0.251-0.252 0.425-0.288l22.964-4.656c0.361-0.071 0.708 0.157 0.785 0.515l1.803 8.49c0.051 0.094 0.078 0.201 0.078 0.314 0 0.369-0.298 0.667-0.667 0.667zM5.427 10.701h22.595l-1.533-7.215-21.659 4.391 0.596 2.824z"></path>
<path d="M29.995 31.966h-28.105c-1.063 0-1.927-0.867-1.927-1.934v-25.412c0-1.066 0.865-1.934 1.927-1.934h4.755c0.307 0 1.124 0 2.683 3.437 0.152 0.335 0.003 0.731-0.332 0.883s-0.731 0.003-0.883-0.332c-0.544-1.2-1.257-2.396-1.574-2.655h-4.648c-0.327 0-0.594 0.269-0.594 0.601v25.412c0 0.331 0.266 0.6 0.594 0.6h28.105c0.327 0 0.592-0.269 0.592-0.6v-22.692c0-0.331-0.266-0.601-0.592-0.601h-2.275c-0.369 0-0.667-0.298-0.667-0.667s0.298-0.667 0.667-0.667h2.275c1.063 0 1.926 0.868 1.926 1.934v22.692c0 1.066-0.863 1.934-1.926 1.934z"></path>
<path d="M31.254 12.034h-30.625c-0.369 0-0.667-0.298-0.667-0.667s0.298-0.667 0.667-0.667h30.625c0.369 0 0.667 0.298 0.667 0.667s-0.298 0.667-0.667 0.667z"></path>
</svg>
