<svg version="1.1" xmlns="http://www.w3.org/2000/svg" width="32" height="32" viewBox="0 0 32 32">
<title>folder</title>
<path d="M32.838 2.973h-22.971c-1.412-2.971-2.271-2.971-2.561-2.971h-5.199c-1.164 0.004-2.106 0.948-2.106 2.112v27.772c0 0 0 0.001 0 0.001 0 1.164 0.942 2.109 2.106 2.112h30.732c1.164-0.003 2.106-0.948 2.106-2.112 0-0 0-0.001 0-0.001v0-24.799c0-0 0-0.001 0-0.001 0-1.164-0.942-2.109-2.106-2.112h-0zM2.106 1.457h5.097c0.322 0.248 1.017 1.395 1.533 2.543 0.117 0.255 0.371 0.429 0.665 0.43h23.437c0.359 0.003 0.649 0.294 0.649 0.654 0 0.001 0 0.002 0 0.003v-0 3.672h-32.029v-6.645c0-0.001 0-0.002 0-0.003 0-0.359 0.29-0.651 0.649-0.654h0zM32.838 30.543h-30.732c-0.359-0.003-0.649-0.294-0.649-0.653 0-0.001 0-0.002 0-0.003v0-19.672h32.029v19.671c0 0.001 0 0.002 0 0.004 0 0.359-0.29 0.651-0.648 0.654h-0z"></path>
</svg>
