<!-- Generated by IcoMoon.io -->
<svg version="1.1" xmlns="http://www.w3.org/2000/svg" width="32" height="32" viewBox="0 0 32 32">
<title>folder_password_protected_secure_private</title>
<path d="M3.439 5.939c0.281-0.281 0.663-0.439 1.061-0.439h4.743c0.296 0 0.586 0.088 0.832 0.252v0l1.74 1.16c0.575 0.383 1.251 0.588 1.942 0.588h13.743c0.398 0 0.779 0.158 1.061 0.439s0.439 0.663 0.439 1.061v1.5h-26v-3.5c0-0.398 0.158-0.779 0.439-1.061zM3 12.5h26v2.375h2v-5.875c0-0.928-0.369-1.819-1.025-2.475s-1.547-1.025-2.475-1.025h-13.743c-0.296 0-0.586-0.088-0.832-0.252v0l-1.74-1.16c-0.575-0.383-1.251-0.588-1.942-0.588h-4.743c-0.928 0-1.819 0.369-2.475 1.025s-1.025 1.547-1.025 2.475v17c0 0.928 0.369 1.819 1.025 2.475s1.547 1.025 2.475 1.025h9.375v-2h-9.375c-0.398 0-0.779-0.158-1.061-0.439s-0.439-0.663-0.439-1.061v-11.5z"></path>
<path d="M21.663 20.393c0-2.506 2.036-4.518 4.604-4.518 2.549 0 4.67 1.987 4.67 4.512 0 2.523-2.119 4.519-4.67 4.519-0.508 0-0.948-0.060-1.394-0.203-0.109 0.071-0.285 0.173-0.492 0.217-0.148 0.032-0.278 0.018-0.328 0.012-0.037-0.004-0.073-0.010-0.107-0.016 0.013 0.039 0.025 0.082 0.035 0.128 0.019 0.085 0.042 0.236 0.005 0.411-0.042 0.196-0.142 0.36-0.208 0.456-0.078 0.114-0.174 0.228-0.279 0.331-0.177 0.174-0.511 0.448-0.935 0.497-0.104 0.012-0.203 0.008-0.292-0.005 0.001 0.017 0.001 0.035 0 0.053-0.009 0.543-0.332 0.868-0.52 1.041-0.098 0.092-0.245 0.226-0.432 0.327-0.213 0.115-0.444 0.171-0.699 0.168v0c-0.122-0.002-0.235-0.018-0.32-0.033v0c0.032 0.242 0.068 0.776-0.341 1.178-0.064 0.063-0.112 0.114-0.18 0.185-0.025 0.027-0.053 0.056-0.085 0.090-0.116 0.121-0.268 0.277-0.517 0.52-0.001 0.001-0.002 0.002-0.004 0.003-0.291 0.28-0.642 0.242-0.773 0.217-0.15-0.029-0.278-0.090-0.359-0.133-0.172-0.091-0.348-0.221-0.493-0.336-0.297-0.235-0.596-0.519-0.724-0.652-0.205-0.214-0.515-0.654-0.515-1.202v0c0-0.197 0.042-0.392 0.122-0.572 0.077-0.173 0.189-0.329 0.328-0.458 0.003-0.003 0.007-0.007 0.014-0.014 0.012-0.013 0.029-0.030 0.049-0.053 0.041-0.045 0.094-0.104 0.159-0.177 0.13-0.146 0.3-0.34 0.501-0.571 0.402-0.462 0.922-1.066 1.474-1.711 0.978-1.141 2.056-2.406 2.761-3.234-0.058-0.342-0.058-0.669-0.058-0.933 0-0.015 0-0.029 0-0.044zM20.243 27.896c0 0 0.001 0.006 0.001 0.015-0.001-0.011-0.001-0.015-0.001-0.015zM19.954 28.221c-0.003 0-0.005 0-0.005 0s0.002 0 0.005 0zM22.056 26.006c0 0 0 0.001 0.001 0.004-0.001-0.003-0.001-0.004-0.001-0.004zM23.685 24.319c0 0 0.001 0.003 0.002 0.009-0.002-0.006-0.003-0.010-0.002-0.009zM26.267 17.415c-1.741 0-3.065 1.346-3.065 2.979 0 0.434 0.007 0.697 0.086 0.924 0.090 0.258 0.036 0.544-0.141 0.752-0.051 0.060-0.105 0.124-0.163 0.191-0.701 0.823-1.833 2.152-2.857 3.347-0.553 0.646-1.076 1.253-1.481 1.719-0.346 0.398-0.636 0.728-0.776 0.873 0.021 0.041 0.049 0.078 0.070 0.099 0.077 0.081 0.309 0.302 0.54 0.488 0.038-0.039 0.072-0.075 0.103-0.107 0.023-0.025 0.046-0.049 0.069-0.073 0.041-0.043 0.081-0.085 0.123-0.128-0.001-0.009-0.003-0.020-0.004-0.032-0.005-0.036-0.012-0.072-0.020-0.118-0.001-0.008-0.003-0.015-0.004-0.024-0.009-0.052-0.020-0.119-0.029-0.187s-0.017-0.157-0.013-0.255c0.004-0.096 0.019-0.234 0.082-0.381 0.082-0.191 0.205-0.398 0.416-0.555 0.204-0.152 0.417-0.2 0.526-0.223 0.164-0.035 0.313-0.024 0.404-0.013 0.097 0.011 0.192 0.031 0.259 0.045 0.019 0.004 0.036 0.008 0.052 0.011 0.050 0.011 0.087 0.019 0.127 0.026 0.019 0.003 0.033 0.006 0.045 0.007 0.017-0.014 0.039-0.033 0.068-0.061-0.018-0.040-0.040-0.091-0.061-0.146-0.045-0.118-0.112-0.323-0.098-0.566 0.016-0.276 0.131-0.535 0.343-0.742 0.243-0.238 0.541-0.327 0.821-0.315 0.237 0.010 0.44 0.091 0.55 0.139 0.044 0.019 0.089 0.040 0.125 0.057-0.043-0.090-0.099-0.211-0.141-0.338-0.043-0.131-0.108-0.375-0.046-0.649 0-0.002 0.001-0.004 0.001-0.006 0.038-0.163 0.118-0.289 0.158-0.347 0.051-0.076 0.111-0.147 0.173-0.212 0.093-0.095 0.31-0.299 0.614-0.365 0.148-0.032 0.279-0.018 0.329-0.012 0.068 0.008 0.134 0.021 0.188 0.033 0.102 0.023 0.216 0.054 0.308 0.079l0.010 0.003c0.052 0.014 0.097 0.027 0.137 0.037 0.018-0.013 0.037-0.026 0.058-0.042 0.010-0.007 0.021-0.015 0.032-0.023 0.046-0.033 0.108-0.077 0.173-0.118 0.214-0.133 0.48-0.153 0.712-0.053 0.381 0.165 0.719 0.233 1.195 0.233 1.758 0 3.131-1.363 3.131-2.98 0-1.615-1.37-2.973-3.131-2.973zM23.997 23.435c0 0 0.001 0 0.002-0.001-0.001 0.001-0.002 0.001-0.002 0.001zM22.487 25.402c0 0 0 0 0-0.001 0 0.001 0 0.001 0 0.001zM22.526 25.217c0 0-0.002 0-0.007-0.002 0.005 0.001 0.007 0.002 0.007 0.002zM20.748 26.868c0 0-0.001-0.002-0.002-0.006 0.001 0.004 0.002 0.006 0.002 0.006zM18.778 28.996c0 0-0.002-0.001-0.005-0.002 0.003 0.001 0.005 0.002 0.005 0.002z"></path>
</svg>
