<svg version="1.1" xmlns="http://www.w3.org/2000/svg" width="32" height="32" viewBox="0 0 32 32">
<title>folder_documents_revert_history</title>
<path d="M8.611 23.983h-6.855c-0.929 0-1.685-0.749-1.685-1.669v-19.254c0-0.921 0.756-1.67 1.685-1.67h3.841c0.648 0 1.145 0.592 1.834 2.184 0.146 0.338-0.009 0.73-0.347 0.877-0.341 0.146-0.731-0.010-0.877-0.347-0.406-0.939-0.649-1.271-0.748-1.381h-3.703c-0.194 0-0.352 0.151-0.352 0.337v19.254c0 0.185 0.158 0.336 0.352 0.336h6.855c0.369 0 0.667 0.298 0.667 0.667s-0.298 0.667-0.667 0.667z"></path>
<path d="M25.988 11.281c-0.369 0-0.667-0.298-0.667-0.667v-4.824c0-0.194-0.158-0.352-0.352-0.352h-2.465c-0.369 0-0.667-0.298-0.667-0.667s0.298-0.667 0.667-0.667h2.465c0.93 0 1.685 0.756 1.685 1.685v4.824c0 0.368-0.298 0.667-0.667 0.667z"></path>
<path d="M25.988 9.398h-25.251c-0.369 0-0.667-0.298-0.667-0.667s0.298-0.667 0.667-0.667h25.251c0.369 0 0.667 0.298 0.667 0.667s-0.298 0.667-0.667 0.667z"></path>
<path d="M23.283 9.398c-0.007 0-0.016 0.001-0.026 0h-19.577c-0.325 0-0.603-0.235-0.658-0.556l-0.692-4.115c-0.059-0.355 0.173-0.693 0.525-0.764l18.765-3.805c0.176-0.033 0.355 0.001 0.505 0.1 0.147 0.1 0.249 0.254 0.283 0.429l1.47 7.742c0.047 0.091 0.072 0.193 0.072 0.302 0 0.368-0.298 0.667-0.667 0.667zM4.243 8.065h18.209l-1.228-6.465-17.473 3.542 0.491 2.923z"></path>
<path d="M20.731 31.957c-5.497 0-9.969-4.471-9.969-9.969 0-5.496 4.472-9.968 9.969-9.968s9.969 4.472 9.969 9.968c-0 5.497-4.471 9.969-9.969 9.969zM20.731 13.353c-4.762 0-8.635 3.873-8.635 8.635s3.874 8.635 8.635 8.635 8.635-3.874 8.635-8.635-3.874-8.635-8.635-8.635z"></path>
<path d="M25.65 22.655h-4.919c-0.369 0-0.667-0.298-0.667-0.667v-6.997c0-0.369 0.298-0.667 0.667-0.667s0.667 0.298 0.667 0.667v6.331h4.253c0.369 0 0.667 0.298 0.667 0.667s-0.298 0.667-0.667 0.667z"></path>
</svg>
