<!-- Generated by IcoMoon.io -->
<svg version="1.1" xmlns="http://www.w3.org/2000/svg" width="32" height="32" viewBox="0 0 32 32">
<title>folder_upload</title>
<path d="M3.439 5.689c0.281-0.281 0.663-0.439 1.061-0.439h4.743c0.296 0 0.586 0.088 0.832 0.252l0 0 1.74 1.16c0.575 0.383 1.251 0.588 1.942 0.588h13.743c0.398 0 0.779 0.158 1.061 0.439s0.439 0.663 0.439 1.061v1.5h-26v-3.5c0-0.398 0.158-0.779 0.439-1.061zM3 12.25h26v2.375h2v-5.875c0-0.928-0.369-1.819-1.025-2.475s-1.547-1.025-2.475-1.025h-13.743c-0.296 0-0.586-0.088-0.832-0.252l-0-0-1.74-1.16c-0.575-0.383-1.251-0.588-1.942-0.588h-4.743c-0.928 0-1.819 0.369-2.475 1.025s-1.025 1.547-1.025 2.475v17c0 0.928 0.369 1.819 1.025 2.475s1.547 1.025 2.475 1.025h9.813v-2h-9.813c-0.398 0-0.779-0.158-1.061-0.439s-0.439-0.663-0.439-1.061v-11.5z"></path>
<path d="M30.71 22.666c-0.389 0.392-1.022 0.395-1.414 0.006l-3.296-3.27v8.349c0 0.552-0.448 1-1 1s-1-0.448-1-1v-8.349l-3.296 3.27c-0.392 0.389-1.025 0.387-1.414-0.006s-0.387-1.025 0.006-1.414l5-4.961c0.39-0.387 1.019-0.387 1.409 0l5 4.961c0.392 0.389 0.395 1.022 0.006 1.414z"></path>
</svg>
