<svg version="1.1" xmlns="http://www.w3.org/2000/svg" width="32" height="32" viewBox="0 0 32 32">
<title>folder_upload</title>
<path d="M30.042 29.299h-8.747c-0.369 0-0.667-0.298-0.667-0.667s0.298-0.667 0.667-0.667h8.747c0.327 0 0.594-0.269 0.594-0.6v-22.692c0-0.331-0.267-0.601-0.594-0.601h-21.445c-0.262 0-0.501-0.154-0.608-0.393-0.473-1.050-1.109-2.1-1.403-2.327h-4.663c-0.327 0-0.594 0.269-0.594 0.601v25.412c0 0.331 0.266 0.6 0.594 0.6h9.973c0.369 0 0.667 0.298 0.667 0.667s-0.298 0.667-0.667 0.667h-9.973c-1.063 0-1.927-0.867-1.927-1.934v-25.412c0-1.066 0.865-1.934 1.927-1.934h4.757c0.266 0 1.052 0 2.344 2.72h21.019c1.063 0 1.927 0.868 1.927 1.934v22.692c0 1.067-0.865 1.934-1.927 1.934z"></path>
<path d="M31.302 9.367h-30.641c-0.369 0-0.667-0.298-0.667-0.667s0.298-0.667 0.667-0.667h30.641c0.369 0 0.667 0.298 0.667 0.667s-0.298 0.667-0.667 0.667z"></path>
<path d="M16.663 32.083c-0.369 0-0.667-0.298-0.667-0.667v-17.534c0-0.369 0.298-0.667 0.667-0.667s0.667 0.298 0.667 0.667v17.534c0 0.369-0.298 0.667-0.667 0.667z"></path>
<path d="M11.953 19.259c-0.171 0-0.341-0.065-0.471-0.195-0.26-0.26-0.26-0.682 0-0.943l4.71-4.71c0.26-0.26 0.682-0.26 0.943 0l4.71 4.71c0.26 0.26 0.26 0.682 0 0.943s-0.682 0.26-0.943 0l-4.238-4.238-4.239 4.238c-0.13 0.13-0.301 0.195-0.471 0.195z"></path>
</svg>
