<!-- Generated by IcoMoon.io -->
<svg version="1.1" xmlns="http://www.w3.org/2000/svg" width="32" height="32" viewBox="0 0 32 32">
<title>folder_images_photos</title>
<path d="M3.439 5.627c0.281-0.281 0.663-0.439 1.061-0.439h4.743c0.296 0 0.586 0.088 0.832 0.252l0 0 1.74 1.16c0.575 0.383 1.251 0.588 1.942 0.588h13.743c0.398 0 0.779 0.158 1.061 0.439s0.439 0.663 0.439 1.061v1.5h-26v-3.5c0-0.398 0.158-0.779 0.439-1.061zM3 12.188h26v2.375h2v-5.875c0-0.928-0.369-1.819-1.025-2.475s-1.547-1.025-2.475-1.025h-13.743c-0.296 0-0.586-0.088-0.832-0.252l-0-0-1.74-1.16c-0.575-0.383-1.251-0.588-1.942-0.588h-4.743c-0.928 0-1.819 0.369-2.475 1.025s-1.025 1.547-1.025 2.475v17c0 0.928 0.369 1.819 1.025 2.475s1.547 1.025 2.475 1.025h9.813v-2h-9.813c-0.398 0-0.779-0.158-1.061-0.439s-0.439-0.663-0.439-1.061v-11.5z"></path>
<path d="M18.812 17.75h10.001c0.45 0 0.814 0.365 0.814 0.813v6.024l-1.173-0.981c-0.324-0.27-0.736-0.409-1.157-0.389s-0.819 0.196-1.116 0.495l-0.615 0.617-2.601-2.603c-0.304-0.305-0.713-0.482-1.143-0.494s-0.849 0.14-1.17 0.426l-2.654 2.366v-5.46c0-0.448 0.363-0.813 0.814-0.813zM31 26.052v-7.489c0-1.209-0.98-2.188-2.187-2.188h-10.001c-1.207 0-2.187 0.978-2.187 2.188v8c0 1.209 0.98 2.188 2.187 2.188h4c0 0 0.001 0 0.002 0h6c1.207 0 2.187-0.978 2.187-2.188v-0.5c0-0.004 0-0.008 0-0.011zM29.627 26.378v0.184c0 0.448-0.363 0.813-0.814 0.813h-4.345l2.685-2.692c0.055-0.056 0.129-0.088 0.207-0.092s0.154 0.022 0.214 0.072l2.052 1.716zM22.528 27.375h-3.716c-0.45 0-0.814-0.365-0.814-0.813v-0.699l3.566-3.179c0.060-0.053 0.137-0.081 0.217-0.079s0.155 0.035 0.212 0.092l2.602 2.604-2.068 2.073zM26.301 19.727c0.178 0 0.322 0.144 0.322 0.322s-0.144 0.322-0.322 0.322-0.322-0.144-0.322-0.322c0-0.178 0.144-0.322 0.322-0.322zM24.606 20.049c0 0.937 0.759 1.697 1.695 1.697s1.695-0.76 1.695-1.697-0.759-1.697-1.695-1.697c-0.936 0-1.695 0.76-1.695 1.697z"></path>
</svg>
