<svg version="1.1" xmlns="http://www.w3.org/2000/svg" width="32" height="32" viewBox="0 0 32 32">
<title>font_file_ttf_otf_type_text</title>
<path d="M27.346 6.673h-5.333c-0.369 0-0.667-0.298-0.667-0.667v-5.333c0-0.369 0.298-0.667 0.667-0.667s0.667 0.298 0.667 0.667v4.667h4.667c0.369 0 0.667 0.298 0.667 0.667s-0.298 0.667-0.667 0.667z"></path>
<path d="M26.29 32.007h-20.561c-0.946 0-1.716-0.777-1.716-1.733v-28.526c0-0.96 0.77-1.741 1.716-1.741h16.284c0.557 0 0.854 0.292 1.070 0.505l4.417 4.358c0.238 0.236 0.513 0.579 0.513 1.137v24.267c0 0.956-0.772 1.733-1.723 1.733zM22.004 1.331l-16.275 0.009c-0.208 0-0.383 0.187-0.383 0.408v28.526c0 0.216 0.175 0.4 0.383 0.4h20.561c0.211 0 0.389-0.184 0.389-0.4v-24.267c0-0.047 0-0.072-0.117-0.187l-4.417-4.358c-0.037-0.037-0.115-0.114-0.142-0.13z"></path>
<path d="M16.31 23.952c-0.26 0-0.507-0.154-0.615-0.408l-3.253-7.732-3.253 7.732c-0.143 0.339-0.534 0.497-0.873 0.355-0.339-0.143-0.499-0.534-0.356-0.874l3.867-9.192c0.208-0.495 1.021-0.495 1.229 0l3.867 9.192c0.143 0.34-0.017 0.731-0.355 0.874-0.085 0.035-0.173 0.052-0.259 0.052z"></path>
<path d="M15.089 21.048h-5.291c-0.369 0-0.667-0.298-0.667-0.667s0.298-0.667 0.667-0.667h5.291c0.369 0 0.667 0.298 0.667 0.667s-0.298 0.667-0.667 0.667z"></path>
<path d="M23.245 23.794c-0.369 0-0.667-0.298-0.667-0.667v-3.845c0.001-0.040 0.031-1.026-0.631-1.514-0.608-0.448-1.701-0.414-3.154 0.102-0.352 0.121-0.728-0.059-0.852-0.406-0.122-0.348 0.060-0.728 0.406-0.852 1.93-0.682 3.411-0.649 4.404 0.094 1.233 0.921 1.163 2.543 1.159 2.612l0.001 3.81c0 0.369-0.298 0.667-0.667 0.667z"></path>
<path d="M20.051 23.925c-1.518 0-2.521-0.888-2.684-2.379-0.119-1.085 0.327-1.711 0.723-2.046 1.539-1.306 4.952-0.402 5.335-0.293 0.354 0.099 0.561 0.466 0.462 0.822-0.098 0.354-0.464 0.565-0.822 0.462-1.19-0.331-3.361-0.619-4.113 0.026-0.141 0.119-0.319 0.339-0.259 0.883 0.033 0.296 0.13 1.191 1.358 1.191 0.005 0 0.012 0 0.017 0 1.18-0.008 2.456-0.849 2.513-1.449 0.036-0.367 0.37-0.62 0.728-0.6 0.366 0.035 0.635 0.361 0.6 0.728-0.142 1.482-2.176 2.645-3.832 2.655-0.009 0-0.017 0-0.026 0z"></path>
</svg>
