<svg version="1.1" xmlns="http://www.w3.org/2000/svg" width="32" height="32" viewBox="0 0 32 32">
<title>fountain_pen</title>
<path d="M26.004 27.051c-0.124 0-0.247-0.034-0.355-0.103-0.509-0.322-4.973-3.224-4.927-6.112 0.014-0.898 0.437-1.673 1.263-2.309-0.742-1.392-2.388-4.881-1.325-6.739 0.234-0.41 0.678-0.881 1.512-1.079-0.431-1.76-0.867-5.996 3.389-9.797 0.253-0.225 0.635-0.225 0.888 0 4.257 3.801 3.82 8.037 3.389 9.797 0.833 0.199 1.277 0.67 1.513 1.081 1.061 1.857-0.583 5.348-1.327 6.74 0.824 0.635 1.249 1.409 1.263 2.309 0.046 2.887-4.418 5.789-4.927 6.111-0.108 0.069-0.232 0.103-0.356 0.103zM26.004 2.322c-4.232 4.176-2.37 8.647-2.35 8.693 0.089 0.206 0.069 0.443-0.055 0.631-0.122 0.188-0.332 0.301-0.556 0.301-0.939 0.001-1.156 0.38-1.227 0.504-0.672 1.176 0.639 4.273 1.624 5.951 0.186 0.316 0.079 0.725-0.237 0.911-0.764 0.449-1.139 0.954-1.148 1.544-0.027 1.66 2.577 3.789 3.949 4.729 1.372-0.94 3.977-3.069 3.949-4.729-0.009-0.589-0.384-1.094-1.148-1.543-0.316-0.186-0.422-0.594-0.237-0.911 0.984-1.678 2.296-4.779 1.624-5.952-0.070-0.124-0.286-0.503-1.227-0.504-0.223 0-0.431-0.114-0.555-0.3-0.122-0.186-0.145-0.423-0.057-0.629 0.081-0.19 1.861-4.549-2.349-8.695z"></path>
<path d="M26.004 31.973c-0.369 0-0.667-0.298-0.667-0.667v-4.922c0-0.369 0.298-0.667 0.667-0.667s0.667 0.298 0.667 0.667v4.922c0 0.369-0.298 0.667-0.667 0.667z"></path>
<path d="M26.004 22.586c-0.369 0-0.667-0.298-0.667-0.667v-9.231c0-0.369 0.298-0.667 0.667-0.667s0.667 0.298 0.667 0.667v9.231c0 0.369-0.298 0.667-0.667 0.667z"></path>
<path d="M17.835 32h-17.077c-0.369 0-0.667-0.298-0.667-0.667 0-4.164 2.6-7.784 5.28-9.369v-1.298c0-0.367-0.293-0.667-0.654-0.667-0.369 0-0.667-0.298-0.667-0.667v-4c0-0.369 0.298-0.667 0.667-0.667h9.159c0.369 0 0.667 0.298 0.667 0.667v4c0 0.369-0.298 0.667-0.667 0.667-0.361 0-0.654 0.299-0.654 0.667v1.298c2.68 1.585 5.279 5.204 5.279 9.369-0 0.369-0.298 0.667-0.667 0.667zM1.45 30.667h15.692c-0.273-3.503-2.65-6.548-4.895-7.719-0.22-0.115-0.358-0.342-0.358-0.591v-1.69c0-0.867 0.551-1.608 1.32-1.884v-2.783h-7.825v2.783c0.769 0.276 1.32 1.017 1.32 1.884v1.69c0 0.249-0.138 0.477-0.358 0.591-2.245 1.171-4.622 4.216-4.896 7.719z"></path>
</svg>
