<svg version="1.1" xmlns="http://www.w3.org/2000/svg" width="32" height="32" viewBox="0 0 32 32">
<title>full_screen_frame</title>
<path d="M24.267 22.8h-16.533c-0.8 0-1.467-0.667-1.467-1.467v-10.667c0-0.8 0.667-1.467 1.467-1.467h16.667c0.8 0 1.467 0.667 1.467 1.467v10.667c-0.133 0.8-0.8 1.467-1.6 1.467zM7.733 10.533l-0.133 10.667 16.8 0.133c0 0 0.133 0 0.133-0.133v-10.533l-16.8-0.133z"></path>
<path d="M0.267 26.267c0 0.8 0.667 1.333 1.333 1.333h6.4v-1.333h-6.533v-6.667h-1.333v6.667z"></path>
<path d="M1.6 5.733h6.4v-1.333h-6.4c-0.8 0-1.333 0.667-1.333 1.333v6.667h1.333v-6.667z"></path>
<path d="M30.533 26.267c0 0-0.133 0 0 0h-6.533v1.333h6.4c0.8 0 1.333-0.667 1.333-1.333v-6.667h-1.333v6.667z"></path>
<path d="M31.733 5.733c0-0.8-0.667-1.333-1.333-1.333h-6.4v1.333h6.533v6.667h1.333v-6.667z"></path>
</svg>
