<!-- Generated by IcoMoon.io -->
<svg version="1.1" xmlns="http://www.w3.org/2000/svg" width="32" height="32" viewBox="0 0 32 32">
<title>funnel</title>
<path d="M23.078 24.389h8.922v2.845h-8.922v-2.845zM23.078 19.511h8.922v2.845h-8.922v-2.845zM23.078 14.633h8.922v2.845h-8.922v-2.845zM23.078 9.756h8.922v2.845h-8.922v-2.845zM23.078 4.878h8.922v2.845h-8.922v-2.845zM23.078 0h8.922v2.845h-8.922v-2.845zM0 29.031h32v2.969h-32v-2.969zM17.596 20.89h-14.776c-1.413 0-2.757 1.421-2.757 3.172s1.344 3.172 2.757 3.172h14.776c1.413 0 2.95-1.421 2.95-3.172s-1.537-3.172-2.95-3.172zM17.688 11.298h-9.93c-1.069 0-2.712 1.421-2.712 3.172s1.642 3.172 2.712 3.172h9.93c1.069 0 2.858-1.421 2.858-3.172s-1.788-3.172-2.858-3.172zM18.175 1.706h-4.815c-0.653 0-2.282 1.421-2.282 3.172s1.629 3.172 2.282 3.172h4.815c0.653 0 2.371-1.421 2.371-3.172s-1.718-3.172-2.371-3.172z"></path>
</svg>
