<svg version="1.1" xmlns="http://www.w3.org/2000/svg" width="32" height="32" viewBox="0 0 32 32">
<title>gauge_dashboard_speedometer_odometer_speed</title>
<path d="M27.54 27.638c-0.151 0-0.302-0.051-0.427-0.155-0.283-0.236-0.32-0.656-0.085-0.939 0.749-0.898 1.392-1.9 1.909-2.974 0.939-1.956 1.415-4.047 1.415-6.216 0-1.598-0.276-3.195-0.819-4.747-2.018-5.757-7.465-9.624-13.552-9.624-6.102 0-11.552 3.879-13.562 9.652-0.537 1.543-0.809 3.13-0.809 4.719 0 2.16 0.471 4.241 1.399 6.182 0.519 1.085 1.167 2.098 1.926 3.008 0.236 0.284 0.197 0.703-0.086 0.939-0.283 0.237-0.702 0.198-0.939-0.085-0.829-0.996-1.537-2.101-2.104-3.286-1.015-2.122-1.529-4.397-1.529-6.758 0-1.738 0.297-3.473 0.883-5.158 2.196-6.309 8.152-10.547 14.821-10.547 6.652 0 12.604 4.226 14.81 10.516 0.594 1.694 0.895 3.439 0.895 5.188 0 2.371-0.521 4.656-1.548 6.794-0.564 1.173-1.266 2.267-2.086 3.25-0.131 0.158-0.321 0.24-0.512 0.24z"></path>
<path d="M20.638 30.667h-9.313c-1.109 0-2.010-0.902-2.010-2.010v-2.646c0-1.108 0.902-2.010 2.010-2.010h9.313c1.108 0 2.010 0.902 2.010 2.010v2.646c0 1.108-0.902 2.010-2.010 2.010zM11.325 25.333c-0.373 0-0.677 0.303-0.677 0.677v2.646c0 0.374 0.304 0.677 0.677 0.677h9.313c0.374 0 0.677-0.303 0.677-0.677v-2.646c0-0.374-0.303-0.677-0.677-0.677h-9.313z"></path>
<path d="M31.019 17.922h-3.918c-0.369 0-0.667-0.298-0.667-0.667s0.298-0.667 0.667-0.667h3.918c0.369 0 0.667 0.298 0.667 0.667s-0.298 0.667-0.667 0.667z"></path>
<path d="M5.024 17.922h-4.080c-0.369 0-0.667-0.298-0.667-0.667s0.298-0.667 0.667-0.667h4.080c0.369 0 0.667 0.298 0.667 0.667s-0.298 0.667-0.667 0.667z"></path>
<path d="M2.96 25.44c-0.231 0-0.454-0.12-0.578-0.333-0.184-0.319-0.075-0.727 0.244-0.91l3.525-2.035c0.316-0.186 0.726-0.075 0.911 0.243s0.075 0.727-0.244 0.91l-3.525 2.035c-0.105 0.061-0.219 0.090-0.333 0.090z"></path>
<path d="M21.521 8.328c-0.113 0-0.228-0.029-0.333-0.089-0.319-0.184-0.428-0.592-0.243-0.911l1.936-3.353c0.182-0.319 0.591-0.426 0.91-0.244 0.319 0.184 0.428 0.592 0.243 0.911l-1.936 3.353c-0.122 0.214-0.348 0.333-0.577 0.333z"></path>
<path d="M15.982 6.885c-0.369 0-0.667-0.298-0.667-0.667v-3.902c0-0.369 0.298-0.667 0.667-0.667s0.667 0.298 0.667 0.667v3.902c0 0.368-0.298 0.667-0.667 0.667z"></path>
<path d="M10.484 8.398c-0.231 0-0.454-0.12-0.578-0.333l-1.976-3.423c-0.184-0.319-0.075-0.727 0.244-0.911 0.318-0.184 0.726-0.075 0.911 0.244l1.976 3.423c0.184 0.319 0.075 0.727-0.244 0.911-0.105 0.061-0.219 0.089-0.333 0.089z"></path>
<path d="M6.483 12.438c-0.113 0-0.228-0.029-0.333-0.089l-3.471-2.004c-0.319-0.184-0.428-0.592-0.244-0.911s0.592-0.429 0.911-0.244l3.471 2.004c0.319 0.184 0.428 0.592 0.244 0.911-0.124 0.214-0.348 0.333-0.578 0.333z"></path>
<path d="M29.051 25.454c-0.113 0-0.227-0.029-0.332-0.089l-3.449-1.979c-0.319-0.184-0.43-0.591-0.246-0.91 0.184-0.322 0.589-0.428 0.91-0.246l3.449 1.979c0.319 0.184 0.43 0.591 0.246 0.91-0.124 0.215-0.348 0.335-0.578 0.335z"></path>
<path d="M15.986 18.547c-0.173 0-0.346-0.068-0.467-0.187-0.133-0.133-0.2-0.293-0.2-0.466 0-0.186 0.067-0.361 0.187-0.481 0.266-0.253 0.693-0.24 0.947 0 0.12 0.134 0.201 0.307 0.201 0.481 0 0.16-0.068 0.333-0.201 0.466-0.133 0.12-0.307 0.187-0.467 0.187z"></path>
<path d="M15.982 21.008c-1.721 0-3.12-1.4-3.12-3.121 0-1.72 1.4-3.12 3.12-3.12s3.121 1.4 3.121 3.12c0 1.721-1.4 3.121-3.121 3.121zM15.982 16.1c-0.986 0-1.787 0.801-1.787 1.786s0.801 1.788 1.787 1.788 1.788-0.802 1.788-1.788-0.802-1.786-1.788-1.786z"></path>
<path d="M18.043 17.223c-0.219 0-0.432-0.108-0.56-0.305-0.201-0.31-0.111-0.723 0.198-0.922l8.684-5.607c0.309-0.197 0.721-0.112 0.922 0.198s0.111 0.722-0.198 0.922l-8.684 5.607c-0.112 0.073-0.237 0.107-0.362 0.107z"></path>
</svg>
