<!-- Generated by IcoMoon.io -->
<svg version="1.1" xmlns="http://www.w3.org/2000/svg" width="32" height="32" viewBox="0 0 32 32">
<title>gauge_dashboard_half</title>
<path d="M16.6 12.9c0-0.2-0.1-0.3-0.3-0.4-0.1-0.1-0.3-0.1-0.5-0.1-0.1 0-0.2 0.1-0.3 0.2s-0.2 0.2-0.2 0.3l-1.2 5.4c-0.1 0.5 0 1 0.3 1.4s0.7 0.7 1.2 0.8 1 0 1.4-0.3c0.4-0.3 0.7-0.7 0.8-1.2 0-0.2 0-0.4 0-0.6l-1.2-5.5z"></path>
<path d="M16 3c-8.3 0-15 6.7-15 15 0 3.7 1.3 7.2 3.8 9.9 0 0 0.1 0.1 0.1 0.1 0 0.1 0.1 0.1 0.1 0.2 0.2 0.3 0.5 0.5 0.9 0.6 0.3 0.1 0.7 0.2 1 0.2 0 0 0 0 0 0 0.4 0 0.7-0.1 1-0.2s0.6-0.4 0.9-0.6c0.9-1 2-1.8 3.3-2.3 2.5-1.1 5.4-1.1 7.9 0 1.3 0.5 2.4 1.3 3.3 2.3 0.2 0.3 0.5 0.5 0.9 0.6 0.3 0.1 0.7 0.2 1 0.2 0 0 0 0 0 0 0.4 0 0.7-0.1 1-0.2s0.6-0.3 0.9-0.6l0.2-0.2c2.4-2.7 3.8-6.3 3.8-9.9-0.1-8.4-6.8-15.1-15.1-15.1zM25.7 26.6l-0.2 0.2c-0.1 0.1-0.1 0.1-0.2 0.1s-0.2 0-0.2 0c0 0 0 0 0 0-0.1 0-0.2 0-0.2 0-0.1 0-0.1-0.1-0.2-0.1-1.1-1.2-2.4-2.2-3.9-2.8-1.5-0.7-3.1-1-4.8-1s-3.2 0.3-4.8 1c-1.5 0.7-2.8 1.6-4 2.8-0.1 0.1-0.1 0.1-0.2 0.1 0 0.1-0.1 0.1-0.1 0.1-0.1 0-0.2 0-0.2 0-0.1 0-0.1-0.1-0.2-0.2l-0.2-0.2c-2.1-2.4-3.3-5.4-3.3-8.6 0-7.2 5.8-13 13-13v0c7.2 0 13 5.8 13 13 0 3.2-1.2 6.2-3.3 8.6z"></path>
<path d="M8 17h-2c-0.6 0-1 0.4-1 1s0.4 1 1 1h2c0.6 0 1-0.4 1-1s-0.4-1-1-1z"></path>
<path d="M16 11c0.6 0 1-0.4 1-1v-2c0-0.6-0.4-1-1-1s-1 0.4-1 1v2c0 0.6 0.4 1 1 1z"></path>
<path d="M9.6 10.2c-0.4-0.4-1-0.4-1.4 0s-0.4 1 0 1.4l1.4 1.4c0.2 0.2 0.5 0.3 0.7 0.3s0.5-0.1 0.7-0.3c0.4-0.4 0.4-1 0-1.4l-1.4-1.4z"></path>
<path d="M26 17h-2c-0.6 0-1 0.4-1 1s0.4 1 1 1h2c0.6 0 1-0.4 1-1s-0.4-1-1-1z"></path>
<path d="M23.8 10.2c-0.4-0.4-1-0.4-1.4 0l-1.4 1.4c-0.4 0.4-0.4 1 0 1.4 0.2 0.2 0.5 0.3 0.7 0.3s0.5-0.1 0.7-0.3l1.4-1.4c0.4-0.4 0.4-1 0-1.4z"></path>
</svg>
