<svg version="1.1" xmlns="http://www.w3.org/2000/svg" width="32" height="32" viewBox="0 0 32 32">
<title>gauge</title>
<path d="M13.005 22.083c-1.104 1.914-0.362 3.488 1.17 4.371s3.267 0.742 4.371-1.171c1.104-1.912 8.075-18.986 7.469-19.336-0.605-0.35-11.906 14.222-13.010 16.136zM16 9.923c0.701 0 1.384 0.061 2.050 0.173 0.701-0.877 1.486-1.843 2.25-2.763-1.363-0.395-2.802-0.61-4.299-0.61-8.971 0-16 7.565-16 17.222 0 0.595 0.027 1.189 0.078 1.768 0.078 0.88 0.864 1.528 1.736 1.451 0.88-0.080 1.53-0.856 1.451-1.736-0.043-0.485-0.066-0.984-0.066-1.483 0-7.862 5.624-14.022 12.8-14.022zM27.55 11.922c-0.446 1.2-0.918 2.422-1.334 3.48 1.627 2.352 2.584 5.301 2.584 8.544 0 0.507-0.022 1.018-0.067 1.512-0.080 0.88 0.568 1.658 1.448 1.739 0.050 0.005 0.098 0.006 0.147 0.006 0.818 0 1.515-0.626 1.59-1.454 0.054-0.592 0.082-1.198 0.082-1.803 0-4.722-1.683-8.942-4.45-12.024z"></path>
</svg>
