<!-- Generated by IcoMoon.io -->
<svg version="1.1" xmlns="http://www.w3.org/2000/svg" width="32" height="32" viewBox="0 0 32 32">
<title>gauge_dashboard_full_fuel</title>
<path d="M20.2 13.6c0.2 0.1 0.3 0.3 0.3 0.5 0 0.1 0 0.3-0.1 0.4v0l-3 4.7c-0.1 0.2-0.3 0.3-0.4 0.4v0c-0.3 0.2-0.7 0.3-1.1 0.3-1 0-1.9-0.8-1.9-1.9 0-0.6 0.3-1.2 0.8-1.5v0l4.7-3c0.1-0.1 0.2-0.1 0.4-0.1 0.1 0.1 0.2 0.1 0.3 0.2v0zM31 18c0 3.7-1.3 7.2-3.8 9.9l-0.2 0.3c-1 1.1-2.8 1.1-3.8 0-1.9-2-4.5-3.2-7.2-3.2-2.8 0-5.3 1.1-7.2 3.2-0.5 0.5-1.2 0.8-1.9 0.8s-1.4-0.3-1.9-0.8c0 0-0.1-0.1-0.1-0.1v0c0 0 0 0-0.1-0.1-2.5-2.8-3.8-6.3-3.8-10 0-8.3 6.7-15 15-15 0 0 0 0 0 0 4 0 7.8 1.6 10.6 4.4s4.4 6.6 4.4 10.6zM29 18c0-7.2-5.8-13-13-13v0c-7.2 0-13 5.8-13 13 0 3.2 1.2 6.2 3.2 8.6 0 0 0 0 0 0s0.1 0.1 0.1 0.1l0.1 0.1c0.1 0.1 0.3 0.2 0.5 0.2s0.4-0.1 0.4-0.2c2.2-2.4 5.4-3.8 8.7-3.8s6.5 1.4 8.7 3.8c0.1 0.1 0.2 0.2 0.4 0.2s0.4-0.1 0.4-0.2l0.2-0.2c2.1-2.4 3.3-5.4 3.3-8.6zM16 11c0.6 0 1-0.4 1-1v-2c0-0.6-0.4-1-1-1s-1 0.4-1 1v2c0 0.6 0.4 1 1 1zM8 17h-2c-0.6 0-1 0.4-1 1s0.4 1 1 1h2c0.6 0 1-0.4 1-1s-0.4-1-1-1zM9.6 10.2c-0.4-0.4-1-0.4-1.4 0s-0.4 1 0 1.4l1.4 1.4c0.2 0.2 0.5 0.3 0.7 0.3s0.5-0.1 0.7-0.3c0.4-0.4 0.4-1 0-1.4l-1.4-1.4zM26 17h-2c-0.6 0-1 0.4-1 1s0.4 1 1 1h2c0.6 0 1-0.4 1-1s-0.4-1-1-1zM23.8 10.2c-0.4-0.4-1-0.4-1.4 0l-1.4 1.4c-0.4 0.4-0.4 1 0 1.4 0.2 0.2 0.5 0.3 0.7 0.3s0.5-0.1 0.7-0.3l1.4-1.4c0.4-0.4 0.4-1 0-1.4z"></path>
</svg>
