<svg version="1.1" xmlns="http://www.w3.org/2000/svg" width="32" height="32" viewBox="0 0 32 32">
<title>gauge_car_dashboard_speedometer_odometer_speed</title>
<path d="M10.383 19.055h-0.609c-0.369 0-0.667-0.298-0.667-0.667s0.298-0.667 0.667-0.667h0.609c0.369 0 0.667 0.298 0.667 0.667s-0.298 0.667-0.667 0.667z"></path>
<path d="M11.885 15.152c-0.171 0-0.341-0.065-0.471-0.195l-0.458-0.458c-0.26-0.26-0.26-0.682 0-0.943s0.682-0.26 0.943 0l0.458 0.458c0.26 0.26 0.26 0.682 0 0.943-0.13 0.13-0.301 0.195-0.471 0.195z"></path>
<path d="M16.025 13.337c-0.369 0-0.667-0.298-0.667-0.667v-0.583c0-0.369 0.298-0.667 0.667-0.667s0.667 0.298 0.667 0.667v0.583c0 0.369-0.298 0.667-0.667 0.667z"></path>
<path d="M22.111 19.056h-0.634c-0.369 0-0.667-0.298-0.667-0.667s0.298-0.667 0.667-0.667h0.634c0.369 0 0.667 0.298 0.667 0.667s-0.298 0.667-0.667 0.667z"></path>
<path d="M22.115 23.996h-12.331c-0.198 0-0.385-0.089-0.512-0.24-1.296-1.557-2.010-3.53-2.010-5.557 0-4.791 3.898-8.689 8.688-8.689s8.688 3.898 8.688 8.689c0 2.027-0.714 4-2.010 5.557-0.126 0.151-0.314 0.24-0.512 0.24zM10.104 22.663h11.69c0.975-1.277 1.509-2.85 1.509-4.464 0-4.056-3.299-7.355-7.355-7.355s-7.355 3.299-7.355 7.355c0 1.613 0.535 3.186 1.51 4.464z"></path>
<path d="M4.67 23.999c-0.781 0-1.562-0.21-2.267-0.629-1.367-0.811-2.183-2.242-2.183-3.829 0-1.374 0.62-2.65 1.701-3.501 1.075-0.848 2.458-1.148 3.795-0.827 0.357 0.087 0.578 0.447 0.492 0.805-0.087 0.357-0.447 0.569-0.805 0.492-0.936-0.228-1.906-0.016-2.658 0.577-0.758 0.598-1.193 1.492-1.193 2.454 0 1.112 0.572 2.115 1.53 2.684 0.955 0.564 2.107 0.587 3.080 0.055 0.324-0.178 0.729-0.059 0.905 0.266 0.176 0.323 0.057 0.728-0.266 0.904-0.672 0.367-1.403 0.551-2.133 0.551z"></path>
<path d="M27.293 23.999c-0.729 0-1.46-0.184-2.131-0.551-0.324-0.176-0.443-0.581-0.266-0.904 0.177-0.325 0.579-0.444 0.904-0.266 0.977 0.533 2.128 0.513 3.081-0.055 0.958-0.569 1.53-1.572 1.53-2.684 0-0.962-0.435-1.857-1.193-2.454-0.75-0.591-1.719-0.802-2.658-0.577-0.374 0.082-0.719-0.137-0.805-0.492-0.086-0.358 0.134-0.718 0.492-0.805 1.342-0.321 2.721-0.020 3.796 0.827 1.081 0.852 1.701 2.128 1.701 3.501 0 1.587-0.816 3.018-2.184 3.829-0.704 0.418-1.484 0.629-2.267 0.629z"></path>
<path d="M16 21.768c-1.124 0-2.039-0.914-2.039-2.038s0.915-2.039 2.039-2.039c1.124 0 2.039 0.915 2.039 2.039s-0.915 2.038-2.039 2.038zM16 19.025c-0.389 0-0.706 0.316-0.706 0.706 0 0.388 0.316 0.704 0.706 0.704s0.706-0.316 0.706-0.704c0-0.389-0.316-0.706-0.706-0.706z"></path>
<path d="M16.768 19.26c-0.129 0-0.259-0.036-0.374-0.115-0.305-0.206-0.385-0.62-0.178-0.926l3.236-4.789c0.207-0.305 0.622-0.382 0.926-0.18 0.305 0.206 0.385 0.621 0.178 0.926l-3.236 4.79c-0.129 0.19-0.339 0.293-0.552 0.293z"></path>
</svg>
