<svg version="1.1" xmlns="http://www.w3.org/2000/svg" width="32" height="32" viewBox="0 0 32 32">
<title>gauge_dashboard_half</title>
<path d="M25.716 29.279h-19.451c-1.472 0-2.858-0.771-3.618-2.013-1.557-2.547-2.381-5.488-2.381-8.504 0-9.201 7.594-16.615 16.729-16.037 7.691 0.49 13.993 6.769 14.658 14.606 0.299 3.531-0.504 6.97-2.324 9.941-0.757 1.238-2.141 2.006-3.613 2.006zM15.99 4.026c-7.934 0-14.389 6.61-14.389 14.736 0 2.771 0.756 5.47 2.186 7.809 0.518 0.848 1.469 1.375 2.48 1.375h19.451c1.010 0 1.96-0.525 2.475-1.369 1.672-2.729 2.409-5.887 2.134-9.134-0.609-7.184-6.376-12.939-13.415-13.387-0.309-0.019-0.615-0.029-0.921-0.029z"></path>
<path d="M27.807 19.918h-1.167c-0.369 0-0.667-0.298-0.667-0.667s0.298-0.667 0.667-0.667h1.167c0.369 0 0.667 0.298 0.667 0.667s-0.298 0.667-0.667 0.667z"></path>
<path d="M23.766 11.969c-0.168 0-0.336-0.063-0.466-0.19-0.263-0.257-0.268-0.68-0.010-0.943l0.878-0.897c0.257-0.262 0.678-0.268 0.943-0.010 0.263 0.257 0.268 0.68 0.010 0.943l-0.878 0.897c-0.13 0.133-0.303 0.201-0.477 0.201z"></path>
<path d="M16.016 8.415c-0.369 0-0.667-0.298-0.667-0.667v-1.142c0-0.369 0.298-0.667 0.667-0.667s0.667 0.298 0.667 0.667v1.142c0 0.369-0.298 0.667-0.667 0.667z"></path>
<path d="M8.021 11.969c-0.173 0-0.346-0.067-0.477-0.201l-0.863-0.883c-0.258-0.263-0.253-0.686 0.011-0.943s0.687-0.253 0.943 0.010l0.863 0.883c0.258 0.263 0.253 0.686-0.010 0.943-0.129 0.127-0.298 0.19-0.466 0.19z"></path>
<path d="M5.414 19.919h-1.214c-0.369 0-0.667-0.298-0.667-0.667s0.298-0.667 0.667-0.667h1.214c0.369 0 0.667 0.298 0.667 0.667s-0.298 0.667-0.667 0.667z"></path>
<path d="M15.941 25.253c-0.764 0-1.478-0.297-2.011-0.836-0.533-0.538-0.821-1.255-0.813-2.019 0.019-1.575 1.315-2.872 2.89-2.891 0 0 0 0 0.001 0 0.796 0 1.509 0.297 2.043 0.836 0.531 0.539 0.82 1.257 0.811 2.019-0.018 1.575-1.315 2.872-2.89 2.891-0.003 0-0.029 0-0.032 0zM16.039 20.84c-0.872 0.010-1.578 0.716-1.588 1.573-0.005 0.405 0.147 0.784 0.428 1.066 0.28 0.284 0.658 0.44 1.063 0.44v0.667l0.017-0.667c0.857-0.010 1.561-0.716 1.572-1.573 0.005-0.405-0.147-0.784-0.427-1.066-0.28-0.284-0.658-0.44-1.064-0.44z"></path>
<path d="M16.016 20.815c-0.369 0-0.667-0.298-0.667-0.667v-8.4c0-0.369 0.298-0.667 0.667-0.667s0.667 0.298 0.667 0.667v8.4c0 0.369-0.298 0.667-0.667 0.667z"></path>
</svg>
