<!-- Generated by IcoMoon.io -->
<svg version="1.1" xmlns="http://www.w3.org/2000/svg" width="32" height="32" viewBox="0 0 32 32">
<title>gauge_dashboard_empty</title>
<path d="M11.617 14.494l2.969 4.719c0.121 0.168 0.269 0.316 0.438 0.438 0.406 0.284 0.908 0.395 1.396 0.311s0.924-0.358 1.212-0.761c0.288-0.403 0.405-0.904 0.327-1.393s-0.347-0.928-0.747-1.22l-4.719-2.969c-0.107-0.075-0.235-0.115-0.366-0.115s-0.258 0.040-0.366 0.115c-0.135 0.097-0.225 0.244-0.252 0.408s0.012 0.332 0.109 0.467z"></path>
<path fill="none" stroke="#000" stroke-linejoin="round" stroke-linecap="round" stroke-miterlimit="4" stroke-width="2" d="M16 4c-7.731 0-14 6.262-14 13.994-0.005 3.421 1.248 6.724 3.519 9.281 0.069 0.075 0.131 0.15 0.2 0.219 0.148 0.16 0.327 0.288 0.527 0.375s0.415 0.132 0.633 0.131 0.433-0.046 0.633-0.135c0.199-0.088 0.378-0.217 0.525-0.378 1.013-1.101 2.244-1.98 3.615-2.582s2.851-0.912 4.348-0.912 2.977 0.31 4.348 0.912c1.371 0.601 2.601 1.48 3.615 2.582 0.147 0.161 0.326 0.29 0.525 0.378s0.415 0.134 0.633 0.135 0.434-0.044 0.634-0.131c0.2-0.087 0.379-0.215 0.527-0.375l0.2-0.219c2.271-2.558 3.523-5.861 3.519-9.281 0-7.731-6.269-13.994-14-13.994z"></path>
<path fill="none" stroke="#000" stroke-linejoin="miter" stroke-linecap="round" stroke-miterlimit="10" stroke-width="2" d="M16 8v2M26 18h-2M8 18h-2M10.343 12.343l-1.414-1.414M21.657 12.343l1.414-1.414"></path>
</svg>
