<svg version="1.1" xmlns="http://www.w3.org/2000/svg" width="32" height="32" viewBox="0 0 32 32">
<title>gauge_dashboard_empty</title>
<path d="M25.71 29.279h-19.451c-1.471 0-2.855-0.768-3.613-2.007-1.82-2.97-2.624-6.409-2.325-9.941 0.664-7.837 6.966-14.117 14.658-14.606 9.133-0.575 16.729 6.836 16.729 16.037 0 3.017-0.823 5.957-2.38 8.504-0.76 1.242-2.147 2.013-3.619 2.013zM15.985 4.026c-0.305 0-0.612 0.010-0.921 0.029-7.039 0.448-12.805 6.203-13.415 13.387-0.275 3.249 0.463 6.406 2.133 9.134 0.518 0.844 1.466 1.369 2.476 1.369h19.451c1.010 0 1.961-0.527 2.481-1.375 1.43-2.337 2.185-5.038 2.185-7.809-0-8.126-6.456-14.736-14.39-14.736z"></path>
<path d="M5.334 19.918h-1.165c-0.369 0-0.667-0.298-0.667-0.667s0.298-0.667 0.667-0.667h1.165c0.369 0 0.667 0.298 0.667 0.667s-0.298 0.667-0.667 0.667z"></path>
<path d="M8.21 11.969c-0.173 0-0.346-0.067-0.477-0.201l-0.878-0.897c-0.257-0.263-0.253-0.686 0.010-0.943s0.685-0.251 0.943 0.010l0.878 0.897c0.257 0.263 0.253 0.686-0.010 0.943-0.129 0.127-0.298 0.19-0.466 0.19z"></path>
<path d="M15.964 8.415c-0.369 0-0.667-0.298-0.667-0.667v-1.142c0-0.369 0.298-0.667 0.667-0.667s0.667 0.298 0.667 0.667v1.142c0 0.369-0.298 0.667-0.667 0.667z"></path>
<path d="M23.954 11.969c-0.168 0-0.336-0.063-0.466-0.19-0.263-0.257-0.268-0.68-0.010-0.943l0.863-0.883c0.257-0.263 0.678-0.268 0.943-0.010 0.263 0.257 0.268 0.68 0.010 0.943l-0.863 0.883c-0.13 0.133-0.303 0.201-0.477 0.201z"></path>
<path d="M27.776 19.919h-1.215c-0.369 0-0.667-0.298-0.667-0.667s0.298-0.667 0.667-0.667h1.215c0.369 0 0.667 0.298 0.667 0.667s-0.298 0.667-0.667 0.667z"></path>
<path d="M15.964 25.277c-0.764 0-1.481-0.303-2.019-0.854-1.102-1.126-1.102-2.961 0-4.087 1.077-1.102 2.96-1.102 4.037 0 1.102 1.126 1.102 2.961 0 4.087-0.538 0.551-1.255 0.854-2.018 0.854zM15.964 20.815c-0.402 0-0.78 0.161-1.066 0.453-0.6 0.613-0.6 1.609 0 2.223 0.572 0.582 1.559 0.583 2.131 0 0.599-0.613 0.599-1.609 0-2.223-0.285-0.292-0.664-0.453-1.065-0.453z"></path>
<path d="M14.421 21.469c-0.173 0-0.346-0.066-0.477-0.201l-6.115-6.255c-0.258-0.264-0.253-0.686 0.010-0.943 0.264-0.257 0.687-0.252 0.943 0.010l6.115 6.255c0.258 0.263 0.253 0.685-0.010 0.943-0.129 0.126-0.298 0.19-0.466 0.19z"></path>
</svg>
