<svg version="1.1" xmlns="http://www.w3.org/2000/svg" width="32" height="32" viewBox="0 0 32 32">
<title>gavel_hammer_law_judge_court</title>
<path d="M22.32 24.556c-0.53 0-1.027-0.206-1.401-0.581l-0.21-0.21c-0.519-0.519-0.698-1.263-0.503-1.94l-10.083-10.083c-0.678 0.191-1.436 0.001-1.939-0.503l-0.209-0.208c-0.773-0.774-0.773-2.030-0.002-2.803l7.254-7.253c0.747-0.746 2.051-0.75 2.8 0l0.208 0.207c0.526 0.526 0.704 1.273 0.504 1.952l10.075 10.075c0.682-0.197 1.443-0.005 1.949 0.501l0.21 0.21c0.772 0.771 0.772 2.028 0 2.802l-7.253 7.251c-0.373 0.375-0.871 0.581-1.401 0.581zM10.277 10.286c0.172 0 0.342 0.066 0.471 0.195l10.721 10.721c0.219 0.219 0.258 0.56 0.095 0.823-0.16 0.258-0.124 0.586 0.089 0.798l0.21 0.21c0.245 0.245 0.672 0.245 0.917 0l7.253-7.251c0.253-0.253 0.253-0.664 0-0.916l-0.21-0.21c-0.207-0.206-0.551-0.245-0.802-0.089-0.263 0.166-0.607 0.128-0.827-0.092l-10.717-10.717c-0.221-0.221-0.259-0.565-0.091-0.828 0.159-0.253 0.122-0.589-0.089-0.8l-0.208-0.207c-0.251-0.25-0.676-0.246-0.917-0.002l-7.254 7.253c-0.252 0.253-0.252 0.663 0.001 0.916l0.208 0.208c0.209 0.209 0.552 0.245 0.799 0.091 0.109-0.068 0.23-0.101 0.352-0.101z"></path>
<path d="M0.818 31.798c-0.171 0-0.341-0.065-0.471-0.195-0.26-0.26-0.26-0.682 0-0.943l13.034-13.034c0.26-0.26 0.682-0.26 0.943 0s0.26 0.682 0 0.943l-13.034 13.034c-0.13 0.13-0.301 0.195-0.471 0.195z"></path>
<path d="M20.997 22.34c-0.171 0-0.341-0.065-0.471-0.195-0.26-0.26-0.26-0.682 0-0.943l7.667-7.671c0.26-0.26 0.682-0.26 0.943 0s0.26 0.682 0 0.943l-7.667 7.671c-0.13 0.13-0.301 0.195-0.471 0.195z"></path>
<path d="M10.277 11.619c-0.171 0-0.341-0.065-0.471-0.195-0.26-0.26-0.26-0.682 0-0.943l7.67-7.667c0.26-0.26 0.682-0.26 0.943 0s0.26 0.682 0 0.943l-7.67 7.667c-0.13 0.13-0.301 0.195-0.471 0.195z"></path>
</svg>
