<!-- Generated by IcoMoon.io -->
<svg version="1.1" xmlns="http://www.w3.org/2000/svg" width="32" height="32" viewBox="0 0 32 32">
<title>gear_new</title>
<path d="M8.097 20.779c-2.040-1.005-2.881-3.481-1.877-5.52s3.481-2.881 5.521-1.877c2.039 1.004 2.881 3.48 1.876 5.52-1.004 2.041-3.48 2.883-5.52 1.877zM11.197 14.484c-1.432-0.705-3.172-0.115-3.877 1.319s-0.115 3.171 1.319 3.877 3.171 0.115 3.876-1.317c0.707-1.435 0.116-3.173-1.317-3.879z"></path>
<path d="M5.459 26.129c-0.412-0.203-0.805-0.431-1.2-0.7-0.229-0.155-0.327-0.444-0.237-0.705l0.7-2.061c-0.372-0.347-0.709-0.732-1.005-1.147l-2.139 0.428c-0.272 0.055-0.547-0.077-0.668-0.327-0.413-0.821-0.724-1.733-0.897-2.636-0.052-0.272 0.084-0.544 0.331-0.667l1.956-0.964c-0.020-0.511 0.015-1.021 0.099-1.524l-1.812-1.207c-0.231-0.153-0.329-0.441-0.243-0.704 0.295-0.885 0.708-1.725 1.231-2.497 0.156-0.229 0.444-0.327 0.705-0.237l2.061 0.7c0.348-0.373 0.732-0.709 1.148-1.007l-0.428-2.136c-0.053-0.271 0.080-0.544 0.327-0.669 0.821-0.413 1.733-0.721 2.636-0.896 0.272-0.052 0.544 0.084 0.667 0.331l0.964 1.957c0.509-0.019 1.019 0.015 1.52 0.099l1.208-1.812c0.153-0.231 0.441-0.331 0.704-0.243 0.913 0.303 1.703 0.693 2.497 1.232 0.229 0.156 0.327 0.444 0.237 0.705l-0.699 2.064c0.372 0.347 0.708 0.731 1.004 1.145l2.137-0.428c0.271-0.053 0.543 0.080 0.669 0.327 0.419 0.833 0.721 1.721 0.895 2.639 0.052 0.271-0.084 0.544-0.331 0.665l-1.957 0.964c0.019 0.507-0.016 1.015-0.097 1.517l1.811 1.207c0.231 0.153 0.329 0.44 0.243 0.703-0.301 0.911-0.693 1.705-1.231 2.5-0.156 0.229-0.444 0.327-0.705 0.237l-2.060-0.701c-0.347 0.372-0.731 0.708-1.144 1.003l0.429 2.139c0.053 0.271-0.080 0.544-0.325 0.669-0.833 0.419-1.721 0.721-2.639 0.897-0.272 0.051-0.544-0.083-0.667-0.331l-0.964-1.956c-0.508 0.017-1.016-0.015-1.519-0.097l-1.208 1.812c-0.153 0.231-0.441 0.331-0.704 0.243-0.46-0.153-0.884-0.327-1.3-0.531zM5.336 24.665c0.44 0.265 0.887 0.487 1.368 0.672l1.169-1.753c0.141-0.212 0.397-0.315 0.645-0.259 0.649 0.147 1.316 0.189 1.981 0.128 0.253-0.021 0.493 0.113 0.607 0.34l0.932 1.892c0.495-0.123 0.977-0.287 1.445-0.492l-0.416-2.068c-0.049-0.249 0.060-0.504 0.275-0.64 0.561-0.353 1.063-0.795 1.491-1.307 0.164-0.195 0.428-0.269 0.669-0.189l1.995 0.679c0.268-0.44 0.488-0.888 0.675-1.369l-1.753-1.168c-0.212-0.141-0.315-0.397-0.259-0.645 0.147-0.651 0.189-1.317 0.128-1.98-0.023-0.253 0.112-0.493 0.34-0.607l1.893-0.932c-0.123-0.495-0.287-0.977-0.491-1.445l-2.068 0.415c-0.249 0.051-0.503-0.059-0.64-0.273-0.355-0.564-0.796-1.067-1.308-1.493-0.195-0.164-0.268-0.431-0.187-0.671l0.679-1.997c-0.44-0.265-0.888-0.485-1.368-0.675l-1.169 1.755c-0.141 0.212-0.397 0.315-0.645 0.259-0.651-0.147-1.317-0.191-1.983-0.129-0.253 0.024-0.496-0.111-0.608-0.34l-0.932-1.892c-0.491 0.123-0.98 0.288-1.443 0.491l0.413 2.067c0.049 0.249-0.060 0.504-0.273 0.64-0.567 0.359-1.069 0.8-1.496 1.312-0.164 0.196-0.429 0.269-0.669 0.188l-1.995-0.677c-0.263 0.436-0.488 0.892-0.673 1.367l1.753 1.168c0.211 0.141 0.313 0.397 0.259 0.647-0.148 0.651-0.191 1.32-0.128 1.984 0.024 0.253-0.112 0.496-0.34 0.607l-1.891 0.932c0.123 0.492 0.288 0.98 0.491 1.443l2.068-0.413c0.249-0.048 0.504 0.061 0.639 0.273 0.357 0.565 0.799 1.068 1.312 1.493 0.195 0.164 0.269 0.428 0.188 0.669l-0.68 1.997z"></path>
<path d="M24.479 10.548c-1.668 0-3.025-1.357-3.025-3.025s1.357-3.027 3.025-3.027 3.027 1.357 3.027 3.027c-0.001 1.668-1.36 3.025-3.027 3.025zM24.479 5.829c-0.932 0-1.692 0.759-1.692 1.692s0.759 1.692 1.692 1.692c0.933 0 1.693-0.759 1.693-1.692-0.001-0.932-0.76-1.692-1.693-1.692z"></path>
<path d="M22.731 15.045c-0.055 0-0.111-0.007-0.165-0.021-0.705-0.181-1.353-0.447-1.979-0.809-0.26-0.151-0.387-0.457-0.309-0.748l0.383-1.444c-0.232-0.196-0.448-0.411-0.647-0.641l-1.443 0.395c-0.289 0.080-0.597-0.044-0.748-0.303-0.361-0.608-0.647-1.291-0.827-1.972-0.077-0.289 0.049-0.595 0.309-0.747l1.291-0.751c-0.025-0.304-0.025-0.609-0.004-0.912l-1.299-0.741c-0.26-0.149-0.389-0.453-0.315-0.745 0.179-0.693 0.451-1.359 0.809-1.976 0.152-0.26 0.453-0.388 0.748-0.309l1.444 0.381c0.197-0.232 0.412-0.448 0.641-0.647l-0.395-1.444c-0.080-0.289 0.045-0.597 0.305-0.749 0.608-0.359 1.289-0.644 1.969-0.825 0.296-0.076 0.596 0.049 0.747 0.309l0.752 1.292c0.303-0.025 0.607-0.027 0.912-0.003l0.74-1.297c0.149-0.26 0.451-0.392 0.745-0.316 0.704 0.181 1.351 0.447 1.977 0.809 0.259 0.151 0.387 0.457 0.309 0.747l-0.381 1.445c0.231 0.196 0.445 0.411 0.644 0.641l1.443-0.395c0.292-0.077 0.596 0.045 0.749 0.303 0.363 0.615 0.64 1.279 0.825 1.972 0.077 0.291-0.049 0.596-0.309 0.748l-1.293 0.752c0.025 0.301 0.027 0.605 0.004 0.908l1.299 0.741c0.26 0.148 0.389 0.453 0.315 0.744-0.179 0.703-0.445 1.349-0.809 1.979-0.149 0.26-0.453 0.389-0.747 0.309l-1.444-0.381c-0.196 0.231-0.411 0.445-0.639 0.644l0.395 1.443c0.080 0.289-0.045 0.596-0.304 0.749-0.615 0.364-1.279 0.643-1.972 0.827-0.283 0.077-0.595-0.049-0.747-0.309l-0.751-1.292c-0.301 0.025-0.603 0.028-0.908 0.004l-0.741 1.299c-0.123 0.212-0.345 0.337-0.581 0.337zM21.7 13.299c0.232 0.112 0.468 0.208 0.712 0.291l0.696-1.22c0.137-0.24 0.409-0.371 0.681-0.328 0.477 0.073 0.953 0.071 1.416-0.007 0.273-0.041 0.544 0.085 0.684 0.323l0.705 1.215c0.244-0.085 0.48-0.184 0.711-0.297l-0.371-1.356c-0.073-0.267 0.027-0.549 0.249-0.713 0.385-0.283 0.721-0.621 0.999-1.005 0.159-0.224 0.436-0.327 0.711-0.255l1.359 0.359c0.113-0.233 0.209-0.468 0.292-0.713l-1.22-0.697c-0.24-0.136-0.369-0.407-0.328-0.679 0.072-0.472 0.071-0.949-0.005-1.417-0.044-0.273 0.083-0.544 0.323-0.683l1.215-0.707c-0.087-0.243-0.185-0.48-0.299-0.711l-1.355 0.369c-0.264 0.075-0.549-0.025-0.713-0.249-0.284-0.387-0.623-0.724-1.005-1-0.224-0.161-0.325-0.444-0.255-0.711l0.36-1.359c-0.233-0.112-0.468-0.209-0.712-0.292l-0.696 1.22c-0.137 0.24-0.413 0.369-0.681 0.329-0.477-0.073-0.956-0.069-1.421 0.007-0.268 0.048-0.544-0.084-0.684-0.323l-0.705-1.215c-0.241 0.085-0.479 0.185-0.709 0.297l0.369 1.355c0.073 0.267-0.027 0.551-0.249 0.713-0.385 0.283-0.723 0.621-1.001 1.008-0.16 0.224-0.439 0.327-0.711 0.255l-1.357-0.359c-0.112 0.231-0.208 0.469-0.292 0.712l1.219 0.696c0.24 0.136 0.369 0.407 0.328 0.679-0.072 0.471-0.069 0.951 0.007 1.423 0.044 0.272-0.083 0.544-0.323 0.683l-1.212 0.707c0.085 0.241 0.184 0.48 0.297 0.709l1.356-0.371c0.268-0.071 0.551 0.025 0.713 0.249 0.284 0.387 0.623 0.723 1.008 0.999 0.224 0.161 0.325 0.444 0.255 0.712l-0.359 1.357z"></path>
<path d="M25.256 27.968c-1.496 0-2.712-1.217-2.712-2.712s1.216-2.713 2.712-2.713 2.713 1.217 2.713 2.713c0 1.495-1.219 2.712-2.713 2.712zM25.256 23.737c-0.836 0-1.516 0.68-1.516 1.517 0 0.836 0.68 1.517 1.516 1.517 0.837 0 1.517-0.68 1.517-1.517 0-0.836-0.68-1.517-1.517-1.517z"></path>
<path d="M23.689 32c-0.049 0-0.099-0.005-0.148-0.019-0.633-0.163-1.213-0.4-1.775-0.725-0.233-0.136-0.347-0.409-0.277-0.671l0.343-1.295c-0.208-0.176-0.401-0.368-0.58-0.575l-1.293 0.353c-0.259 0.071-0.536-0.040-0.671-0.272-0.324-0.545-0.58-1.157-0.741-1.769-0.069-0.26 0.044-0.533 0.277-0.669l1.157-0.673c-0.023-0.272-0.023-0.545-0.004-0.817l-1.164-0.665c-0.233-0.133-0.349-0.407-0.283-0.668 0.16-0.623 0.404-1.219 0.727-1.772 0.136-0.233 0.407-0.348 0.671-0.277l1.295 0.343c0.176-0.208 0.369-0.403 0.576-0.58l-0.352-1.293c-0.071-0.26 0.041-0.535 0.273-0.672 0.545-0.323 1.156-0.577 1.767-0.74 0.265-0.068 0.535 0.044 0.671 0.277l0.673 1.159c0.271-0.023 0.544-0.024 0.817-0.003l0.663-1.163c0.135-0.233 0.404-0.352 0.668-0.283 0.632 0.163 1.211 0.4 1.773 0.727 0.232 0.136 0.347 0.409 0.277 0.669l-0.343 1.296c0.207 0.176 0.399 0.368 0.577 0.575l1.293-0.353c0.261-0.069 0.535 0.040 0.672 0.272 0.325 0.552 0.575 1.147 0.74 1.768 0.069 0.26-0.044 0.535-0.277 0.671l-1.159 0.675c0.023 0.271 0.023 0.543 0.004 0.813l1.164 0.664c0.233 0.133 0.349 0.407 0.283 0.667-0.161 0.629-0.399 1.209-0.727 1.773-0.135 0.233-0.407 0.348-0.671 0.277l-1.295-0.343c-0.176 0.207-0.368 0.399-0.573 0.577l0.353 1.293c0.071 0.26-0.041 0.535-0.272 0.672-0.551 0.327-1.147 0.576-1.769 0.741-0.253 0.069-0.533-0.044-0.671-0.277l-0.673-1.159c-0.269 0.023-0.54 0.024-0.813 0.004l-0.664 1.164c-0.109 0.191-0.309 0.303-0.52 0.303zM22.765 30.433c0.208 0.1 0.419 0.187 0.639 0.261l0.624-1.095c0.123-0.215 0.367-0.332 0.611-0.295 0.428 0.065 0.855 0.063 1.271-0.007 0.245-0.037 0.488 0.076 0.613 0.289l0.633 1.088c0.219-0.076 0.431-0.165 0.637-0.267l-0.333-1.216c-0.065-0.239 0.023-0.492 0.223-0.639 0.345-0.253 0.647-0.557 0.896-0.901 0.143-0.2 0.391-0.292 0.637-0.228l1.217 0.321c0.101-0.209 0.188-0.42 0.261-0.639l-1.093-0.624c-0.215-0.123-0.332-0.365-0.295-0.609 0.064-0.424 0.063-0.852-0.004-1.271-0.040-0.244 0.075-0.488 0.289-0.612l1.089-0.633c-0.077-0.217-0.165-0.431-0.267-0.637l-1.215 0.332c-0.237 0.067-0.492-0.023-0.64-0.223-0.255-0.347-0.559-0.649-0.901-0.896-0.201-0.145-0.292-0.399-0.229-0.637l0.323-1.219c-0.209-0.101-0.419-0.187-0.639-0.261l-0.624 1.093c-0.123 0.216-0.371 0.331-0.611 0.295-0.428-0.065-0.857-0.063-1.273 0.005-0.24 0.043-0.488-0.076-0.613-0.289l-0.633-1.089c-0.216 0.076-0.429 0.165-0.636 0.267l0.332 1.215c0.065 0.239-0.023 0.493-0.223 0.64-0.345 0.253-0.648 0.557-0.897 0.904-0.144 0.2-0.393 0.292-0.637 0.228l-1.216-0.321c-0.1 0.207-0.187 0.42-0.261 0.639l1.093 0.624c0.215 0.123 0.332 0.364 0.295 0.609-0.064 0.423-0.061 0.852 0.005 1.276 0.040 0.244-0.075 0.488-0.289 0.612l-1.087 0.633c0.076 0.216 0.164 0.431 0.267 0.636l1.215-0.332c0.24-0.064 0.493 0.023 0.64 0.223 0.255 0.347 0.559 0.648 0.904 0.896 0.201 0.145 0.292 0.399 0.229 0.639l-0.327 1.215z"></path>
</svg>
