<!-- Generated by IcoMoon.io -->
<svg version="1.1" xmlns="http://www.w3.org/2000/svg" width="32" height="32" viewBox="0 0 32 32">
<title>gear_check</title>
<path d="M26.719 16.825c0-0.294 0-0.581 0-0.875s0-0.581 0-0.875l2.331-1.844c0.387-0.294 0.581-0.775 0.581-1.262 0-0.294-0.1-0.581-0.194-0.775l-2.625-4.469c-0.381-0.688-1.256-0.975-1.938-0.688l-2.719 1.069c-0.488-0.294-0.875-0.581-1.456-0.875l-0.488-2.913c-0.194-0.775-0.775-1.262-1.556-1.262h-5.25c-0.775 0-1.456 0.581-1.556 1.362l-0.387 2.912h-0.1c-0.488 0.194-0.969 0.487-1.363 0.775l-2.719-1.069c-0.681-0.294-1.556 0-1.944 0.681l-2.625 4.469c-0.194 0.294-0.294 0.581-0.294 0.875 0 0.488 0.194 0.969 0.581 1.262l2.331 1.75c0 0.294 0 0.581 0 0.875s0 0.581 0 0.875l-2.331 1.844c-0.388 0.294-0.581 0.775-0.581 1.262 0 0.294 0.1 0.581 0.194 0.775l2.625 4.469c0.388 0.681 1.263 0.969 1.944 0.681l2.719-1.069c0.488 0.294 0.875 0.581 1.456 0.875l0.387 3.012c0.194 0.775 0.775 1.262 1.556 1.262h5.25c0.775 0 1.456-0.581 1.556-1.363l0.387-2.913h0.1c0.488-0.194 0.969-0.488 1.363-0.775l2.719 1.069c0.681 0.294 1.556 0 1.944-0.681l2.625-4.469c0.1-0.194 0.194-0.488 0.194-0.775 0-0.488-0.194-0.969-0.581-1.262l-2.137-1.944zM25.262 23.919l-2.431-0.969c-0.581-0.194-1.262-0.194-1.844 0.194-0.294 0.194-0.681 0.488-1.069 0.681h-0.1c-0.581 0.294-0.969 0.875-1.069 1.456l-0.387 2.625h-4.662l-0.387-2.625c-0.1-0.681-0.488-1.169-1.069-1.456-0.387-0.194-0.775-0.387-1.169-0.681-0.488-0.294-1.262-0.387-1.844-0.1l-2.431 0.969-2.331-3.981 2.138-1.65c0.487-0.387 0.775-0.969 0.775-1.556v-0.194c0-0.194 0-0.387 0-0.681 0-0.194 0-0.488 0-0.681 0 0 0-0.1 0-0.194 0-0.581-0.294-1.169-0.681-1.556l-2.044-1.65 2.331-3.981 2.431 0.969c0.581 0.294 1.363 0.194 1.844-0.194 0.294-0.194 0.681-0.488 1.069-0.681h0.1c0.581-0.294 0.969-0.875 1.069-1.456l0.387-2.625h4.662l0.387 2.625c0.1 0.681 0.488 1.169 1.069 1.456 0.194 0.194 0.581 0.488 0.875 0.681 0.581 0.387 1.363 0.488 1.944 0.194l2.431-0.969 2.331 3.981-2.137 1.65c-0.488 0.387-0.775 0.969-0.775 1.556v0.194c0 0.194 0 0.387 0 0.681 0 0.387 0 0.775-0.1 1.169-0.1 0.488 0.194 0.875 0.581 0.969l2.238 1.75-2.131 4.081z"></path>
<path d="M23.156 12.225l-7.969 9.912c-0.194 0.194-0.488 0.294-0.775 0.294s-0.488-0.1-0.681-0.294l-3.113-3.113c-0.387-0.387-0.488-1.069-0.1-1.456s0.969-0.387 1.363 0l2.431 2.431 7.288-9.137c0.387-0.387 0.969-0.488 1.363-0.1 0.488 0.394 0.488 0.975 0.194 1.463z"></path>
</svg>
