<svg version="1.1" xmlns="http://www.w3.org/2000/svg" width="32" height="32" viewBox="0 0 32 32">
<title>gift_wrapping</title>
<path d="M27.264 31.947h-22.57c-0.369 0-0.667-0.298-0.667-0.667v-12.031c0-0.369 0.298-0.667 0.667-0.667s0.667 0.298 0.667 0.667v11.365h21.236v-11.365c0-0.369 0.298-0.667 0.667-0.667s0.667 0.298 0.667 0.667v12.031c0 0.368-0.298 0.667-0.667 0.667z"></path>
<path d="M28.686 17.337h-10.555c-0.369 0-0.667-0.298-0.667-0.667s0.298-0.667 0.667-0.667h9.888v-5.298h-24.079v5.298h10.011c0.369 0 0.667 0.298 0.667 0.667s-0.298 0.667-0.667 0.667h-10.678c-0.369 0-0.667-0.298-0.667-0.667v-6.631c0-0.369 0.298-0.667 0.667-0.667h25.412c0.369 0 0.667 0.298 0.667 0.667v6.631c-0 0.369-0.298 0.667-0.667 0.667z"></path>
<path d="M15.969 10.706c-0.080 0-0.161-0.014-0.238-0.044-0.834-0.32-8.162-3.222-8.688-6.705-0.115-0.755 0.040-1.883 1.426-2.973 0.703-0.553 1.421-0.833 2.132-0.833 3.803 0 5.654 7.991 5.985 9.579 0.048 0.092 0.075 0.198 0.075 0.309 0 0.373-0.332 0.652-0.679 0.667-0.005 0-0.009 0-0.014 0zM10.601 1.484c-0.406 0-0.846 0.184-1.308 0.547-1.066 0.838-0.965 1.506-0.932 1.725 0.27 1.79 3.859 3.928 6.676 5.175-0.823-3.285-2.505-7.447-4.435-7.447z"></path>
<path d="M15.969 10.706c-0.145 0-0.287-0.047-0.406-0.138-0.197-0.151-0.293-0.398-0.251-0.643 0.152-0.874 1.588-8.543 5.239-8.543 0.615 0 1.242 0.221 1.863 0.657 1.102 0.772 1.268 1.658 1.214 2.266-0.266 2.969-6.652 6.003-7.379 6.339-0.090 0.042-0.185 0.062-0.28 0.062zM20.551 2.715c-1.642 0-2.983 3.348-3.65 6.115 2.385-1.265 5.272-3.234 5.398-4.645 0.022-0.242-0.022-0.614-0.651-1.055-0.392-0.275-0.762-0.415-1.098-0.415z"></path>
<path d="M18.131 31.947h-4.18c-0.369 0-0.667-0.298-0.667-0.667v-21.241c0-0.369 0.298-0.667 0.667-0.667h4.18c0.369 0 0.667 0.298 0.667 0.667v21.241c0 0.368-0.298 0.667-0.667 0.667zM14.619 30.613h2.846v-19.908h-2.846v19.908z"></path>
</svg>
