<!-- Generated by IcoMoon.io -->
<svg version="1.1" xmlns="http://www.w3.org/2000/svg" width="32" height="32" viewBox="0 0 32 32">
<title>gift_wrapping</title>
<path fill="none" stroke-linejoin="miter" stroke-linecap="round" stroke-miterlimit="10" stroke-width="2" stroke="#000" d="M16 6.5v3.5h3.5c1.933 0 3.5-1.567 3.5-3.5s-1.567-3.5-3.5-3.5c-1.933 0-3.5 1.567-3.5 3.5v0zM16 6.5v3.5h-3.5c-1.933 0-3.5-1.567-3.5-3.5s1.567-3.5 3.5-3.5c1.933 0 3.5 1.567 3.5 3.5v0z"></path>
<path fill="none" stroke-linejoin="round" stroke-linecap="round" stroke-miterlimit="4" stroke-width="2" stroke="#000" d="M6 10h20c1.105 0 2 0.895 2 2v3c0 1.105-0.895 2-2 2h-20c-1.105 0-2-0.895-2-2v-3c0-1.105 0.895-2 2-2z"></path>
<path fill="none" stroke-linejoin="round" stroke-linecap="round" stroke-miterlimit="4" stroke-width="2" stroke="#000" d="M26 17v9c0 1.657-1.343 3-3 3v0h-14c-1.657 0-3-1.343-3-3v0-9M16 10v19"></path>
</svg>
