<!-- Generated by IcoMoon.io -->
<svg version="1.1" xmlns="http://www.w3.org/2000/svg" width="32" height="32" viewBox="0 0 32 32">
<title>gift_wrapping</title>
<path d="M26 9h-2.8c0.5-0.7 0.8-1.6 0.8-2.5 0-2.5-2-4.5-4.5-4.5-1.4 0-2.7 0.7-3.5 1.7-0.8-1-2.1-1.7-3.5-1.7-2.5 0-4.5 2-4.5 4.5 0 0.9 0.3 1.8 0.8 2.5h-2.8c-1.7 0-3 1.3-3 3v3c0 1.3 0.8 2.4 2 2.8v8.2c0 2.2 1.8 4 4 4h14c2.2 0 4-1.8 4-4v-8.2c1.2-0.4 2-1.5 2-2.8v-3c0-1.7-1.3-3-3-3zM17 6.5c0-1.4 1.1-2.5 2.5-2.5s2.5 1.1 2.5 2.5-1.1 2.5-2.5 2.5h-2.5v-2.5zM10 6.5c0-1.4 1.1-2.5 2.5-2.5s2.5 1.1 2.5 2.5v2.5h-2.5c-1.4 0-2.5-1.1-2.5-2.5zM5 12c0-0.6 0.4-1 1-1h9v5h-9c-0.6 0-1-0.4-1-1v-3zM9 28c-1.1 0-2-0.9-2-2v-8h8v10h-6zM23 28h-6v-10h8v8c0 1.1-0.9 2-2 2zM27 15c0 0.6-0.4 1-1 1h-9v-5h9c0.6 0 1 0.4 1 1v3z"></path>
</svg>
