<!-- Generated by IcoMoon.io -->
<svg version="1.1" xmlns="http://www.w3.org/2000/svg" width="32" height="32" viewBox="0 0 32 32">
<title>globebarmap</title>
<path d="M23.398 27.415c-0.044 0.284-0.066 0.512-0.066 0.684 0 0.276 0.083 0.594 0.25 0.955s0.364 0.611 0.592 0.749c0.123 0.069 0.333 0.112 0.632 0.129s0.508 0 0.631-0.052c0.105-0.052 0.184-0.112 0.236-0.181s0.096-0.167 0.132-0.297c0.035-0.129 0.061-0.219 0.079-0.271 0.122-0.327 0.351-0.499 0.683-0.516 0.211-0.017 0.364 0.004 0.461 0.064s0.136 0.142 0.118 0.245c-0.018 0.103-0.052 0.211-0.105 0.323s-0.119 0.237-0.197 0.374c-0.079 0.138-0.127 0.241-0.145 0.309-0.035 0.138-0.066 0.331-0.092 0.581s-0.048 0.4-0.066 0.452c0.035 0.017 0.167 0.026 0.394 0.026 0-0.035 0.014-0.090 0.040-0.168s0.040-0.125 0.040-0.142c0.088 0.137 0.228 0.215 0.421 0.232s0.333-0.052 0.421-0.207c0.035 0.052 0.14 0.181 0.316 0.387s0.272 0.379 0.289 0.517c0.017 0.069 0.052 0.181 0.105 0.335 0.006 0.019 0.012 0.037 0.018 0.054h3.385v-11.503c-0.168 0.056-0.285 0.129-0.351 0.22 0.105 0.137 0.096 0.275-0.027 0.413-0.21 0.172-0.394 0.155-0.552-0.052-0.088 0.035-0.154 0.121-0.198 0.258s-0.109 0.232-0.197 0.284c0.123 0.189 0.105 0.327-0.053 0.413 0.017 0 0.057 0.017 0.119 0.052s0.127 0.077 0.197 0.129c0.070 0.052 0.114 0.078 0.132 0.078-0.070 0.155-0.167 0.232-0.289 0.232 0.105 0.275-0.026 0.576-0.395 0.903-0.070 0.069-0.18 0.138-0.329 0.207s-0.285 0.125-0.408 0.168c-0.123 0.043-0.193 0.073-0.211 0.090-0.175 0.155-0.307 0.314-0.394 0.477s-0.101 0.323-0.040 0.477c0.062 0.155 0.224 0.258 0.487 0.31l0.027 0.207v0.465l0.026 0.207c0.018 0.12 0.031 0.228 0.039 0.323s0.009 0.215 0 0.361c-0.009 0.146-0.048 0.228-0.118 0.245s-0.166 0-0.289-0.052c-0.14-0.069-0.307-0.448-0.5-1.136-0.035-0.172-0.14-0.379-0.316-0.62-0.088 0.086-0.162 0.142-0.224 0.168s-0.105 0.030-0.131 0.013-0.074-0.056-0.145-0.116c-0.070-0.060-0.132-0.107-0.184-0.142-0.088-0.052-0.241-0.095-0.461-0.129s-0.355-0.077-0.408-0.129c-0.421 0.31-0.675 0.232-0.763-0.232-0.035 0.086-0.030 0.202 0.014 0.349s0.066 0.228 0.066 0.245c-0.122 0.223-0.315 0.241-0.578 0.051-0.105-0.103-0.346-0.116-0.723-0.039-0.361 0.074-0.604 0.089-0.732 0.044 0.020 0.010 0.049 0.034 0.088 0.072 0.052 0.035 0.088 0.060 0.105 0.077-0.017 0.069-0.044 0.12-0.079 0.155s-0.070 0.047-0.105 0.039c-0.035-0.009-0.075-0.009-0.118 0s-0.083 0.022-0.119 0.039c-0.070 0.052-0.158 0.142-0.263 0.271s-0.184 0.211-0.237 0.245c0.105 0.275 0.154 0.486 0.145 0.633s-0.035 0.361-0.079 0.645zM26.25 32c-0.211-0.056-0.447-0.151-0.709-0.286-0.123-0.069-0.307-0.25-0.552-0.542s-0.5-0.422-0.763-0.387c-0.088 0.017-0.206 0.047-0.355 0.091s-0.276 0.064-0.381 0.064c-0.105 0-0.245-0.034-0.421-0.103-0.14-0.052-0.329-0.151-0.566-0.297s-0.399-0.236-0.486-0.271c-0.092-0.049-0.165-0.087-0.22-0.116-0.042 0.046-0.098 0.081-0.17 0.094-2.306 0.421-4.653 0.369-6.986 0.268-2.359-0.102-4.72-0.16-7.078-0.287-0.99-0.053-1.973-0.115-2.964-0.128-0.042-0.001-0.086-0.001-0.129-0.002-0.044 0.628-0.068 1.263-0.074 1.903h21.855zM19.912 27.612c-0.193-0.175-0.368-0.263-0.526-0.263 0.14 0 0.14-0.119 0-0.355s-0.263-0.408-0.368-0.513c-0.035-0.035-0.14-0.149-0.316-0.342s-0.324-0.359-0.447-0.5-0.228-0.303-0.316-0.487c-0.088-0.184-0.105-0.338-0.053-0.46 0.017-0.018 0-0.044-0.053-0.079s-0.119-0.070-0.198-0.105c-0.079-0.035-0.153-0.066-0.223-0.092s-0.123-0.040-0.158-0.040c0.035 0.070 0.074 0.197 0.118 0.381s0.092 0.32 0.145 0.408c0.035 0.070 0.184 0.325 0.447 0.763 0.456 0.737 0.667 1.28 0.631 1.631-0.105 0.035-0.175 0.017-0.21-0.053s-0.061-0.167-0.079-0.29c-0.017-0.123-0.035-0.21-0.053-0.263-0.053-0.105-0.189-0.22-0.408-0.342s-0.355-0.245-0.408-0.368c0.018 0 0.039-0.009 0.066-0.026s0.048-0.026 0.066-0.026c0.017-0.158-0.075-0.36-0.276-0.605s-0.285-0.421-0.25-0.526c-0.14-0.105-0.263-0.312-0.368-0.619s-0.193-0.504-0.263-0.592c-0.070-0.105-0.158-0.197-0.263-0.276s-0.237-0.167-0.395-0.263c-0.158-0.097-0.263-0.162-0.316-0.197-0.035-0.018-0.105-0.096-0.211-0.237-0.579-0.701-0.754-1.078-0.526-1.131-0.228 0.053-0.417-0.118-0.566-0.513-0.087-0.231-0.139-0.429-0.157-0.597-0.822-0.586-1.665-1.144-2.464-1.76-0.562-0.433-1.074-0.889-1.566-1.4-0.325-0.338-0.662-0.707-1.058-0.976-0.133 0.217-0.265 0.435-0.394 0.656-1.618 2.773-2.758 5.697-3.419 8.772 1.044 0.191 2.077 0.441 3.115 0.664 1.386 0.297 2.759 0.501 4.171 0.581 1.263 0.071 2.527 0.143 3.785 0.287 1.268 0.145 2.579 0.317 3.78 0.769 0.182 0.069 0.373 0.147 0.563 0.238-0.039-0.137-0.083-0.247-0.133-0.327-0.105-0.175-0.254-0.351-0.447-0.526zM31.302 11.421c0.283 0.049 0.506 0.1 0.667 0.152v-9.526c-4.396 0.413-8.505 1.735-12.327 3.965-2.75 1.605-5.163 3.545-7.242 5.821 0.196 0.238 0.396 0.472 0.6 0.702 0.161 0.182 0.322 0.363 0.486 0.544 1.339-1.611 2.946-2.932 4.822-3.96 0.105-0.017 0.298-0.026 0.579-0.026 0.14 0.018 0.272 0.061 0.395 0.132s0.25 0.167 0.381 0.289c0.131 0.123 0.232 0.21 0.302 0.263 0.035-0.105-0.009-0.263-0.131-0.474 0.035-0.105 0.228-0.21 0.579-0.316 0.403-0.053 0.666-0.044 0.789 0.026-0.105-0.158-0.281-0.377-0.526-0.658l-0.131 0.132c-0.14-0.123-0.509-0.061-1.105 0.184-0.035 0.018-0.123 0.066-0.263 0.145s-0.254 0.136-0.342 0.171c-0.105 0.035-0.21 0.044-0.316 0.026 0.842-0.456 1.666-0.815 2.473-1.079 0.053 0.035 0.14 0.11 0.263 0.224s0.219 0.197 0.29 0.25c-0.053-0.035-0.088-0.018-0.105 0.053-0.070 0.21-0.070 0.386 0 0.526 0.088 0.123 0.206 0.193 0.355 0.21s0.329 0.009 0.539-0.026c0.21-0.035 0.351-0.053 0.421-0.053l0.263 0.026c0.561 0.053 0.78 0 0.658-0.158 0.052 0.070 0.114 0.215 0.184 0.434s0.149 0.373 0.237 0.46c0.088-0.070 0.105-0.193 0.053-0.368s-0.053-0.298 0-0.368c0.017-0.035 0.070-0.070 0.158-0.105s0.189-0.075 0.302-0.118c0.114-0.044 0.188-0.075 0.224-0.092 0.105-0.070 0.035-0.193-0.21-0.368-0.035-0.018-0.11-0.044-0.224-0.079s-0.215-0.070-0.303-0.105c-0.087-0.035-0.18-0.083-0.276-0.145s-0.14-0.132-0.132-0.21c0.009-0.079 0.057-0.18 0.145-0.303 0.105-0.088 0.276-0.123 0.513-0.105s0.417 0.061 0.539 0.131c0.474 0.263 0.544 0.5 0.211 0.71 0.175 0.018 0.386 0.088 0.631 0.21s0.342 0.254 0.289 0.395c0.14-0.263 0.28-0.395 0.421-0.395 0.088 0.018 0.171 0.136 0.25 0.355s0.127 0.338 0.145 0.355c0.14 0.193 0.28 0.237 0.421 0.132s0.285-0.259 0.434-0.46c0.149-0.202 0.232-0.294 0.25-0.276-0.175-0.070-0.193-0.14-0.053-0.21 0.263-0.158 0.5-0.202 0.71-0.132 0.053 0.035 0.123 0.114 0.211 0.237 0.158 0.316 0.131 0.465-0.079 0.447 0.158 0.14 0.224 0.316 0.197 0.526s-0.162 0.307-0.408 0.289c-0.088 0-0.215-0.044-0.381-0.132s-0.293-0.136-0.381-0.145c-0.088-0.009-0.21 0.039-0.368 0.145-0.070 0.088-0.162 0.237-0.277 0.447s-0.215 0.36-0.302 0.447c-0.263 0.263-0.701 0.36-1.315 0.289 0.052 0 0.048 0.053-0.013 0.158s-0.145 0.224-0.25 0.355c-0.105 0.132-0.167 0.206-0.184 0.224-0.158 0.175-0.263 0.377-0.316 0.605 0 0.035-0.009 0.153-0.026 0.355s-0.052 0.355-0.105 0.46c0.21-0.053 0.377 0.053 0.5 0.316 0.105 0.246 0.105 0.377 0 0.395 0.578-0.088 1.087-0.053 1.525 0.105 0.631 0.228 0.991 0.456 1.078 0.684 0.105-0.158 0.359-0.166 0.763-0.026 0.158 0.088 0.298 0.351 0.421 0.789 0.070 0.263 0.189 0.491 0.355 0.684s0.346 0.245 0.539 0.158l0.079-0.053c0.070-0.035 0.127-0.066 0.171-0.092s0.092-0.061 0.145-0.105c0.053-0.044 0.083-0.083 0.092-0.118s-0.004-0.070-0.040-0.105c-0.123-0.105-0.215-0.25-0.276-0.434s-0.048-0.346 0.039-0.487c0.052-0.070 0.193-0.175 0.421-0.316s0.368-0.281 0.421-0.421c0.070-0.228-0.017-0.416-0.263-0.566s-0.368-0.285-0.368-0.408c0-0.088 0.057-0.193 0.171-0.316s0.162-0.237 0.145-0.342c0-0.053-0.030-0.162-0.092-0.329s-0.096-0.289-0.105-0.368c-0.009-0.079 0.031-0.171 0.118-0.276 0.123-0.070 0.413-0.066 0.868 0.013zM4.289 4.781c-1.083-0.698-0.799-0.683-2.573 1.863-0.629 0.902-0.745 0.825-0.935 1.527l18.053 14.311 3.062-1.285-17.607-16.416zM17.962 6.699c0.6-0.407 0.607-0.445 1.248-0.81l-2.462-5.357-3.104 0.84 3.546 5.888c0.271-0.19 0.492-0.371 0.772-0.561zM21.423 8.985c-0.587-1.045-0.759-0.69-1.919-0.421-0.519 0.12-1.606 0.24-1.802 0.518l6.232 9.739 1.532-1.855-4.042-7.981zM22.75 30.61l0.405 0.013-0.046-1.949-1.915-0.385c0.468 0.811 0.935 1.63 1.555 2.322zM20.605 28.822l-19.724-3.262c-0.1 1.233-0.1 1.233-0.1 3.235 0 0.526 0.361 0.392 0.431 0.661l20.182 0.509c-1.205-0.779 0.249-0.309-0.788-1.143z"></path>
</svg>
