<!-- Generated by IcoMoon.io -->
<svg version="1.1" xmlns="http://www.w3.org/2000/svg" width="32" height="32" viewBox="0 0 32 32">
<title>global_settings_gear_preferences</title>
<path d="M15.994 31.6c-0.709 0-1.409-0.047-2.144-0.15-0.297-0.041-0.531-0.275-0.569-0.575l-0.472-3.6c-0.878-0.247-1.722-0.597-2.519-1.044l-2.881 2.212c-0.237 0.181-0.569 0.184-0.809 0.003-1.131-0.856-2.188-1.909-3.047-3.047-0.181-0.241-0.181-0.569 0.003-0.809l2.213-2.878c-0.447-0.797-0.8-1.644-1.047-2.522l-3.597-0.466c-0.297-0.038-0.531-0.275-0.575-0.569-0.197-1.428-0.197-2.875 0-4.306 0.041-0.297 0.275-0.531 0.575-0.569l3.6-0.472c0.247-0.878 0.6-1.725 1.047-2.522l-2.216-2.881c-0.184-0.237-0.184-0.569-0.003-0.809 0.859-1.134 1.912-2.188 3.047-3.044 0.237-0.181 0.569-0.178 0.809 0.003l2.881 2.212c0.797-0.447 1.641-0.797 2.519-1.044l0.472-3.597c0.037-0.297 0.272-0.531 0.569-0.575 1.472-0.203 2.831-0.203 4.306 0 0.297 0.041 0.531 0.275 0.569 0.575l0.472 3.6c0.875 0.247 1.719 0.597 2.516 1.044l2.881-2.212c0.238-0.184 0.569-0.184 0.809-0.003 1.15 0.872 2.175 1.897 3.047 3.047 0.181 0.241 0.181 0.572-0.003 0.809l-2.216 2.881c0.447 0.797 0.797 1.641 1.041 2.512l3.6 0.472c0.297 0.037 0.531 0.272 0.575 0.569 0.203 1.469 0.203 2.838 0 4.309-0.041 0.297-0.275 0.531-0.572 0.569l-3.6 0.472c-0.247 0.872-0.594 1.716-1.041 2.512l2.212 2.881c0.181 0.238 0.184 0.569 0.003 0.809-0.872 1.153-1.897 2.178-3.047 3.047-0.238 0.181-0.569 0.181-0.809-0.003l-2.881-2.212c-0.797 0.447-1.641 0.797-2.516 1.044l-0.472 3.6c-0.038 0.297-0.272 0.531-0.569 0.572-0.738 0.103-1.444 0.153-2.162 0.153v0zM14.534 30.191c0.994 0.103 1.947 0.103 2.938-0.003l0.462-3.531c0.038-0.275 0.238-0.497 0.506-0.563 1.050-0.253 2.050-0.669 2.975-1.234 0.234-0.144 0.534-0.128 0.756 0.041l2.825 2.172c0.759-0.619 1.456-1.316 2.078-2.078l-2.172-2.828c-0.169-0.219-0.184-0.519-0.041-0.753 0.566-0.928 0.981-1.928 1.231-2.972 0.066-0.269 0.288-0.469 0.563-0.506l3.531-0.462c0.103-0.994 0.103-1.947 0-2.938l-3.531-0.463c-0.275-0.034-0.497-0.238-0.563-0.506-0.25-1.047-0.666-2.047-1.234-2.975-0.144-0.234-0.128-0.534 0.041-0.753l2.172-2.825c-0.619-0.763-1.316-1.456-2.078-2.078l-2.825 2.172c-0.219 0.169-0.519 0.184-0.756 0.041-0.925-0.566-1.925-0.981-2.975-1.234-0.269-0.066-0.469-0.287-0.506-0.563l-0.459-3.538c-0.991-0.103-1.944-0.106-2.938 0l-0.463 3.531c-0.034 0.275-0.238 0.497-0.506 0.563-1.053 0.253-2.056 0.669-2.981 1.234-0.234 0.144-0.534 0.128-0.753-0.041l-2.825-2.172c-0.753 0.616-1.462 1.322-2.078 2.075l2.172 2.825c0.169 0.219 0.184 0.519 0.041 0.756-0.569 0.925-0.984 1.928-1.237 2.981-0.066 0.269-0.287 0.469-0.563 0.506l-3.531 0.463c-0.1 0.975-0.1 1.959 0 2.934l3.531 0.462c0.275 0.038 0.497 0.238 0.563 0.506 0.253 1.053 0.669 2.056 1.237 2.984 0.144 0.234 0.128 0.538-0.041 0.756l-2.169 2.822c0.616 0.756 1.322 1.462 2.075 2.075l2.825-2.172c0.219-0.166 0.519-0.181 0.753-0.041 0.928 0.569 1.931 0.984 2.981 1.234 0.269 0.063 0.469 0.288 0.506 0.563l0.463 3.531z"></path>
<path d="M23.938 20.453c0.019-0.025 0.034-0.053 0.047-0.084 0.712-1.297 1.119-2.788 1.119-4.372 0-1.294-0.272-2.525-0.759-3.637-0.009-0.028-0.022-0.053-0.034-0.078-1.413-3.141-4.553-5.344-8.203-5.384-0.019 0-0.041 0-0.059 0-0.003 0-0.006 0-0.009 0-0.012 0-0.025 0-0.038 0-0.006 0-0.012 0-0.019 0-0.003 0-0.003 0-0.006 0-0.009 0-0.019 0-0.031 0-3.672 0.022-6.838 2.228-8.253 5.384-0.016 0.025-0.025 0.050-0.034 0.078-0.487 1.116-0.759 2.347-0.759 3.637 0 0.097 0.003 0.194 0.006 0.291-0.003 0.019-0.006 0.041-0.006 0.059 0 0.031 0.003 0.059 0.009 0.091 0.069 1.419 0.463 2.753 1.106 3.928 0.012 0.031 0.028 0.063 0.050 0.087 1.553 2.756 4.503 4.625 7.881 4.647 0.009 0 0.019 0 0.031 0v0c0.003 0 0.003 0 0.006 0 0.006 0 0.012 0 0.022 0v0 0c0.012 0 0.025 0 0.038 0 0.003 0 0.006 0 0.009 0v0c0.019 0 0.038 0 0.056 0 3.356-0.034 6.284-1.9 7.831-4.647zM7.703 16.738h3.541c0.044 1.106 0.188 2.15 0.412 3.1h-3.047c-0.491-0.941-0.806-1.991-0.906-3.1zM8.284 12.863h3.222c-0.178 0.963-0.278 2.006-0.278 3.1h-3.556c0.003-1.097 0.222-2.141 0.613-3.1zM24.328 15.963h-3.538c-0.003-1.094-0.1-2.138-0.278-3.1h3.203c0.391 0.959 0.609 2.003 0.613 3.1zM20.016 15.963h-3.628v-3.1h3.325c0.194 0.963 0.303 2.012 0.303 3.1zM16.387 12.088v-4.384c1.344 0.253 2.519 1.981 3.147 4.384h-3.147zM15.613 7.706v4.381h-3.125c0.622-2.391 1.791-4.112 3.125-4.381zM15.613 12.863v3.1h-3.609c0.003-1.091 0.109-2.138 0.303-3.1h3.306zM12.022 16.738h3.591v3.1h-3.144c-0.244-0.947-0.4-1.997-0.447-3.1zM15.613 20.613v3.678c-1.2-0.241-2.266-1.656-2.922-3.678h2.922zM16.387 24.297v-3.684h2.944c-0.663 2.034-1.734 3.456-2.944 3.684zM16.387 19.837v-3.1h3.613c-0.050 1.103-0.206 2.153-0.447 3.1h-3.166zM20.778 16.738h3.519c-0.097 1.109-0.416 2.156-0.906 3.1h-3.025c0.225-0.95 0.369-1.994 0.413-3.1zM23.35 12.088h-3.003c-0.422-1.741-1.119-3.162-1.991-4.078 2.156 0.637 3.953 2.128 4.994 4.078zM13.672 8.003c-0.875 0.912-1.578 2.341-2 4.084h-3.025c1.050-1.959 2.856-3.453 5.025-4.084zM9.069 20.613h2.794c0.428 1.428 1.053 2.597 1.809 3.384-1.903-0.553-3.525-1.772-4.603-3.384zM18.356 23.991c0.753-0.788 1.375-1.956 1.803-3.375h2.775c-1.075 1.603-2.688 2.816-4.578 3.375z"></path>
</svg>
