<svg version="1.1" xmlns="http://www.w3.org/2000/svg" width="32" height="32" viewBox="0 0 32 32">
<title>golf_course_sports</title>
<path d="M15.387 31.71c-3.741 0-7.527-1.089-7.527-3.168 0-1.439 1.863-2.559 4.985-2.993 0.356-0.051 0.701 0.203 0.752 0.568s-0.203 0.702-0.568 0.753c-2.617 0.365-3.835 1.215-3.835 1.673 0 0.622 2.186 1.835 6.194 1.835s6.193-1.212 6.193-1.835c0-0.451-1.195-1.29-3.762-1.661-0.365-0.053-0.617-0.392-0.565-0.755 0.053-0.366 0.411-0.611 0.755-0.565 3.072 0.445 4.905 1.56 4.905 2.982 0 2.079-3.786 3.168-7.527 3.168z"></path>
<path d="M15.387 29.208c-0.369 0-0.667-0.298-0.667-0.667v-27.561c0-0.369 0.298-0.667 0.667-0.667s0.667 0.298 0.667 0.667v27.561c0 0.369-0.298 0.667-0.667 0.667z"></path>
<path d="M15.387 10.488c-0.121 0-0.242-0.033-0.348-0.098-0.199-0.121-0.319-0.336-0.319-0.568v-8.84c0-0.232 0.12-0.447 0.319-0.568 0.198-0.122 0.444-0.131 0.651-0.025l8.647 4.42c0.223 0.114 0.363 0.343 0.363 0.594s-0.141 0.48-0.363 0.594l-8.647 4.421c-0.096 0.049-0.199 0.073-0.303 0.073zM16.053 2.070v6.661l6.516-3.331-6.516-3.331z"></path>
</svg>
