<!-- Generated by IcoMoon.io -->
<svg version="1.1" xmlns="http://www.w3.org/2000/svg" width="32" height="32" viewBox="0 0 32 32">
<title>golf_course_sports</title>
<path d="M29 28.6c-1.1-5.5-6.8-8.3-12-8.6v-7.4l10.4-4.7c0.4-0.2 0.6-0.5 0.6-0.9s-0.2-0.7-0.6-0.9l-11-5c-0.3-0.1-0.7-0.1-1 0.1-0.2 0.1-0.4 0.5-0.4 0.8v10c0 0 0 0 0 0v8c-5.2 0.3-10.8 3-12 8.6-0.1 0.6 0 1.2 0.4 1.7 0.4 0.4 1 0.7 1.6 0.7h22c0.6 0 1.2-0.3 1.6-0.7 0.3-0.5 0.5-1.1 0.4-1.7zM17 3.6l7.6 3.4-7.6 3.4v-6.8zM5 29c0.9-4.5 5.6-6.7 10-7v3c0 0.6 0.4 1 1 1s1-0.4 1-1v-3c4.4 0.3 9.1 2.5 10 7h-22z"></path>
</svg>
