<!-- Generated by IcoMoon.io -->
<svg version="1.1" xmlns="http://www.w3.org/2000/svg" width="32" height="32" viewBox="0 0 32 32">
<title>google_plus</title>
    <path d="M10.5,14.6L10.5,14.6v3.2H16c-0.2,1.4-1.6,4.1-5.4,4.1c-3.3,0-5.9-2.7-5.9-6c0-3.3,2.7-6,5.9-6c1.9,0,3.1,0.8,3.8,1.5
		L17,8.9c-1.7-1.6-3.8-2.5-6.4-2.5C5.2,6.4,1,10.7,1,16.1s4.3,9.5,9.5,9.5c5.5,0,9.2-3.9,9.2-9.3c0-0.6-0.1-1.1-0.2-1.6H10.5z"/>
    <polygon points="28.2,14.3 28.2,11.4 25.4,11.4 25.4,14.3 22.6,14.3 22.6,17.2 25.4,17.2 25.4,20 28.2,20 28.2,17.2 31,17.2
		31,14.3 	"/>
</svg>
