<!-- Generated by IcoMoon.io -->
<svg version="1.1" xmlns="http://www.w3.org/2000/svg" width="1024" height="1024" viewBox="0 0 1024 1024">
<title>google_plus</title>
<g id="icomoon-ignore">
</g>
<path fill="#000" d="M325.792 457.408v111.808h184.8c-7.392 48-55.808 140.608-184.8 140.608-111.2 0-202.016-92.192-202.016-205.792s90.816-205.792 202.016-205.792c63.392 0 105.6 27.008 129.792 50.208l88.384-85.184c-56.8-52.992-130.4-85.184-218.208-85.184-180.192 0.192-325.792 145.792-325.792 326.016s145.6 325.792 325.792 325.792c188 0 312.8-132.192 312.8-318.4 0-21.408-2.4-37.792-5.216-54.016h-307.616z"></path>
<path fill="#000" d="M1024 448h-96v-96h-96v96h-96v96h96v96h96v-96h96z"></path>
</svg>
