<svg version="1.1" xmlns="http://www.w3.org/2000/svg" width="32" height="32" viewBox="0 0 32 32">
<title>gotoquery</title>
<path d="M8.547 16.85c-0.359 0-0.653-0.284-0.666-0.644-0.056-1.75 0.588-3.387 1.819-4.616 1.228-1.228 2.853-1.881 4.616-1.819 0.369 0.012 0.656 0.319 0.644 0.688s-0.309 0.684-0.688 0.644c-1.369-0.028-2.662 0.463-3.628 1.428s-1.472 2.253-1.428 3.628c0.012 0.369-0.278 0.678-0.644 0.691-0.009 0-0.019 0-0.025 0z"></path>
<path d="M13.791 24.125v0 0z"></path>
<path d="M26.269 4.016c-0.053-0.316-0.325-0.556-0.656-0.556h-7.334c-0.369 0-0.666 0.297-0.666 0.666s0.297 0.666 0.666 0.666h5.863l-8.566 8.569c-0.259 0.259-0.259 0.681 0 0.944 0.131 0.131 0.3 0.197 0.472 0.197s0.341-0.066 0.472-0.197l8.425-8.428v5.584c0 0.369 0.297 0.666 0.666 0.666v0c0.369 0 0.666-0.297 0.666-0.666v-7.031c0.044-0.134 0.041-0.281-0.006-0.412z"></path>
<path d="M16.047 14.497v0 0z"></path>
<path d="M20.841 15.747c0 3.884-3.159 7.047-7.047 7.047s-7.047-3.163-7.047-7.047 3.159-7.047 7.047-7.047c1.609 0 3.094 0.544 4.281 1.453l0.947-0.947c-1.434-1.15-3.253-1.838-5.228-1.838-4.619 0-8.381 3.759-8.381 8.378s3.759 8.378 8.378 8.378c1.688 0 3.262-0.503 4.578-1.366l5.275 5.275c0.325 0.328 0.756 0.506 1.219 0.506s0.894-0.181 1.219-0.503c0.328-0.325 0.506-0.756 0.506-1.219 0-0.459-0.181-0.894-0.506-1.219l-5.275-5.275c0.863-1.316 1.366-2.891 1.366-4.578 0-1.803-0.572-3.475-1.547-4.844l-0.956 0.956c0.741 1.116 1.172 2.453 1.172 3.887zM25.141 26.544c0.075 0.075 0.116 0.172 0.116 0.275s-0.044 0.2-0.116 0.275c-0.075 0.075-0.172 0.116-0.275 0.116s-0.2-0.041-0.275-0.116l-5.156-5.156c0.191-0.175 0.375-0.359 0.55-0.55l5.156 5.156z"></path>
</svg>
