<svg version="1.1" xmlns="http://www.w3.org/2000/svg" width="32" height="32" viewBox="0 0 32 32">
<title>government_white_house_capitol</title>
<path d="M13.964 29.296c-0.369 0-0.667-0.298-0.667-0.667v-10.6c0-0.369 0.298-0.667 0.667-0.667s0.667 0.298 0.667 0.667v10.6c0 0.368-0.298 0.667-0.667 0.667z"></path>
<path d="M11.297 29.296c-0.369 0-0.667-0.298-0.667-0.667v-10.6c0-0.369 0.298-0.667 0.667-0.667s0.667 0.298 0.667 0.667v10.6c0 0.368-0.298 0.667-0.667 0.667z"></path>
<path d="M7.297 29.296c-0.369 0-0.667-0.298-0.667-0.667v-10.6c0-0.369 0.298-0.667 0.667-0.667s0.667 0.298 0.667 0.667v10.6c0 0.368-0.298 0.667-0.667 0.667z"></path>
<path d="M4.63 29.296c-0.369 0-0.667-0.298-0.667-0.667v-10.6c0-0.369 0.298-0.667 0.667-0.667s0.667 0.298 0.667 0.667v10.6c0 0.368-0.298 0.667-0.667 0.667z"></path>
<path d="M20.631 29.296c-0.369 0-0.667-0.298-0.667-0.667v-10.6c0-0.369 0.298-0.667 0.667-0.667s0.667 0.298 0.667 0.667v10.6c0 0.368-0.298 0.667-0.667 0.667z"></path>
<path d="M17.965 29.296c-0.369 0-0.667-0.298-0.667-0.667v-10.6c0-0.369 0.298-0.667 0.667-0.667s0.667 0.298 0.667 0.667v10.6c0 0.368-0.298 0.667-0.667 0.667z"></path>
<path d="M27.299 29.296c-0.369 0-0.667-0.298-0.667-0.667v-10.6c0-0.369 0.298-0.667 0.667-0.667s0.667 0.298 0.667 0.667v10.6c0 0.368-0.298 0.667-0.667 0.667z"></path>
<path d="M24.631 29.296c-0.369 0-0.667-0.298-0.667-0.667v-10.6c0-0.369 0.298-0.667 0.667-0.667s0.667 0.298 0.667 0.667v10.6c0 0.368-0.298 0.667-0.667 0.667z"></path>
<path d="M31.145 32.001h-30.327c-0.369 0-0.667-0.298-0.667-0.667s0.298-0.667 0.667-0.667h30.327c0.369 0 0.667 0.298 0.667 0.667s-0.298 0.667-0.667 0.667z"></path>
<path d="M31.145 16h-30.327c-0.369 0-0.667-0.298-0.667-0.667s0.298-0.667 0.667-0.667h30.327c0.369 0 0.667 0.298 0.667 0.667s-0.298 0.667-0.667 0.667z"></path>
<path d="M21.814 13.243c-0.369 0-0.667-0.298-0.667-0.667 0-2.6-2.318-4.714-5.166-4.714s-5.166 2.115-5.166 4.714c0 0.369-0.298 0.667-0.667 0.667s-0.667-0.298-0.667-0.667c0-3.335 2.915-6.047 6.499-6.047s6.499 2.713 6.499 6.047c0 0.369-0.298 0.667-0.667 0.667z"></path>
<path d="M15.981 7.863c-0.369 0-0.667-0.298-0.667-0.667v-6.521c0-0.369 0.298-0.667 0.667-0.667h3.739c0.369 0 0.667 0.298 0.667 0.667s-0.298 0.667-0.667 0.667h-3.073v5.855c0 0.368-0.298 0.667-0.666 0.667z"></path>
</svg>
