<!-- Generated by IcoMoon.io -->
<svg version="1.1" xmlns="http://www.w3.org/2000/svg" width="32" height="32" viewBox="0 0 32 32">
<title>graph_columns_growth_statistics</title>
<path d="M7.648 32.007h-6.117c-0.886 0-1.607-0.703-1.607-1.566v-4.806c0-0.881 0.736-1.626 1.607-1.626h6.117c0.872 0 1.609 0.745 1.609 1.626v4.806c0 0.863-0.721 1.566-1.609 1.566zM1.531 25.341c-0.141 0-0.274 0.142-0.274 0.293v4.806c0 0.151 0.141 0.233 0.274 0.233h6.117c0.135 0 0.275-0.087 0.275-0.233v-4.806c0-0.148-0.137-0.293-0.275-0.293h-6.117z"></path>
<path d="M18.316 32.007h-6.117c-0.886 0-1.607-0.703-1.607-1.566v-12.806c0-0.883 0.736-1.628 1.607-1.628h6.117c0.872 0 1.609 0.745 1.609 1.628v12.806c0 0.863-0.721 1.566-1.609 1.566zM12.199 17.34c-0.141 0-0.274 0.143-0.274 0.294v12.806c0 0.151 0.141 0.233 0.274 0.233h6.117c0.135 0 0.276-0.087 0.276-0.233v-12.806c0-0.148-0.137-0.294-0.276-0.294h-6.117z"></path>
<path d="M28.984 32.007h-6.117c-0.887 0-1.608-0.703-1.608-1.566v-26.141c0-0.881 0.737-1.626 1.608-1.626h6.117c0.871 0 1.608 0.745 1.608 1.626v26.141c-0 0.863-0.721 1.566-1.608 1.566zM22.867 4.006c-0.141 0-0.275 0.143-0.275 0.293v26.141c0 0.151 0.142 0.233 0.275 0.233h6.117c0.135 0 0.275-0.087 0.275-0.233v-26.141c0-0.148-0.137-0.293-0.275-0.293h-6.117z"></path>
<path d="M1.925 17.298c-0.171 0-0.341-0.065-0.471-0.195-0.26-0.26-0.26-0.682 0-0.943l11.949-11.948c0.26-0.26 0.682-0.26 0.943 0s0.26 0.682 0 0.943l-11.949 11.948c-0.13 0.13-0.301 0.195-0.471 0.195z"></path>
<path d="M13.982 11.333c-0.369 0-0.667-0.298-0.667-0.667v-5.333h-5.333c-0.369 0-0.667-0.298-0.667-0.667s0.298-0.667 0.667-0.667h6c0.369 0 0.667 0.298 0.667 0.667v6c0 0.369-0.298 0.667-0.667 0.667z"></path>
</svg>
