<!-- Generated by IcoMoon.io -->
<svg version="1.1" xmlns="http://www.w3.org/2000/svg" width="32" height="32" viewBox="0 0 32 32">
<title>graphical_corelation_2</title>
<path d="M0.8 32c-0.006 0-0.012 0-0.019 0-0.442 0-0.8-0.358-0.8-0.8 0-0.435 0.348-0.79 0.781-0.8l0.001-0h27.895c0.437 0.006 0.789 0.362 0.789 0.8 0 0.004-0 0.008-0 0.012v-0.001c-0.008 0.436-0.362 0.787-0.799 0.789h-27.847zM20.693 32c-0.442-0.001-0.799-0.358-0.8-0.8v-13.242c-0-0.002-0-0.004-0-0.006 0-0.415 0.317-0.755 0.722-0.792l0.003-0c0.019 0 0.031 0 0.044 0h5.99c0.441 0.001 0.799 0.358 0.799 0.799v13.24c0 0 0 0 0 0.001 0 0.442-0.358 0.8-0.799 0.801h-0zM25.852 30.4v-11.642h-4.359v11.642zM11.756 32c-0.442-0.001-0.799-0.358-0.8-0.8v-20.856c-0-0.002-0-0.004-0-0.006 0-0.414 0.317-0.755 0.721-0.792l0.003-0c0.019 0 0.032 0 0.044 0h5.99c0.441 0.001 0.799 0.358 0.799 0.799v20.854c0 0 0 0 0 0 0 0.442-0.358 0.8-0.799 0.801h-0zM16.914 30.4v-19.256h-4.359v19.256zM2.816 32c-0.441-0.001-0.799-0.359-0.799-0.8v-8.608c-0-0.002-0-0.004-0-0.006 0-0.414 0.317-0.755 0.721-0.792l0.003-0c0.019 0 0.031 0 0.044 0h5.989c0 0 0 0 0 0 0.442 0 0.8 0.357 0.801 0.799v8.607c-0.001 0.442-0.358 0.799-0.8 0.8h-0zM7.975 30.4v-7.008h-4.358v7.008z"></path>
<path d="M14.723 7.571c-0.001 0-0.001 0-0.002 0-0.22 0-0.419-0.090-0.563-0.234l-0-0-2.157-2.188c-0.144-0.144-0.233-0.344-0.233-0.564 0-0.441 0.357-0.798 0.798-0.798 0.221 0 0.421 0.090 0.565 0.234v0l0.793 0.812v-3.233h-7.33v3.123l0.79-0.81c0.145-0.147 0.346-0.238 0.568-0.238 0.441 0 0.798 0.357 0.798 0.798 0 0.221-0.090 0.421-0.235 0.566l-0 0-2.154 2.186c-0.144 0.145-0.344 0.235-0.565 0.235s-0.421-0.090-0.565-0.235l-0-0-2.157-2.189c-0.132-0.142-0.214-0.333-0.214-0.544 0-0.441 0.357-0.798 0.798-0.798 0.211 0 0.404 0.082 0.546 0.216l-0-0 0.792 0.812v-3.123h-4.2c-0.442 0-0.8-0.358-0.8-0.8s0.358-0.8 0.8-0.8v0h27.85c0.442 0 0.8 0.358 0.8 0.8s-0.358 0.8-0.8 0.8v0h-4.178v3.123l0.79-0.81c0.145-0.145 0.345-0.235 0.566-0.235 0.441 0 0.798 0.357 0.798 0.798 0 0.22-0.089 0.419-0.233 0.563l0-0-2.154 2.186c-0.145 0.145-0.344 0.235-0.565 0.235s-0.421-0.090-0.565-0.235l-0-0-2.157-2.189c-0.128-0.141-0.207-0.329-0.207-0.536 0-0.441 0.357-0.798 0.798-0.798 0.207 0 0.396 0.079 0.538 0.209l-0.001-0.001 0.794 0.812v-3.123h-7.352v3.233l0.79-0.81c0.145-0.145 0.345-0.235 0.566-0.235 0.441 0 0.798 0.357 0.798 0.798 0 0.22-0.089 0.419-0.233 0.563l0-0-2.154 2.186c-0.144 0.145-0.344 0.236-0.565 0.236-0 0-0.001 0-0.001 0h0z"></path>
</svg>
