<svg version="1.1" xmlns="http://www.w3.org/2000/svg" width="32" height="32" viewBox="0 0 32 32">
<title>graphical_correlation</title>
<path d="M24.1 2.884c2.647 0.003 5.006 2.362 5.016 5.012s-2.381 5.034-5.034 5.025c-2.647-0.012-5.006-2.384-5.003-5.028 0.006-2.647 2.381-5.013 5.022-5.009zM20.634 7.897c0 2.031 1.441 3.472 3.469 3.469 2.025-0.003 3.472-1.453 3.466-3.478-0.006-2.006-1.45-3.453-3.459-3.459-2.022-0.003-3.475 1.447-3.475 3.469z"></path>
<path d="M7.903 19.081c2.644 0.003 5.009 2.369 5.016 5.012 0.006 2.641-2.363 5.016-5.006 5.022-2.656 0.006-5.037-2.375-5.028-5.028 0.006-2.647 2.375-5.009 5.019-5.006zM7.931 20.634c-2.016-0.016-3.478 1.406-3.5 3.409-0.025 2.028 1.409 3.503 3.422 3.525 2.028 0.022 3.494-1.409 3.513-3.431 0.016-2.034-1.406-3.488-3.434-3.503z"></path>
<path d="M14.853 7.066c-0.425-0.422-0.847-0.847-1.272-1.266-0.206-0.203-0.325-0.438-0.269-0.728 0.056-0.3 0.231-0.506 0.525-0.603 0.309-0.1 0.575-0.016 0.8 0.206 0.669 0.666 1.334 1.334 2.003 2 0.212 0.213 0.431 0.422 0.644 0.634 0.366 0.362 0.372 0.809 0.012 1.169-0.866 0.866-1.734 1.731-2.603 2.594-0.375 0.372-0.847 0.4-1.172 0.072-0.328-0.334-0.297-0.781 0.091-1.169 0.409-0.412 0.822-0.822 1.278-1.278-0.144-0.012-0.225-0.025-0.309-0.025-1.666 0-3.331-0.003-5 0-0.719 0-0.912 0.197-0.912 0.912-0.003 2.319 0 4.638-0.003 6.956 0 0.159 0 0.325-0.041 0.478-0.094 0.344-0.466 0.566-0.819 0.519-0.381-0.053-0.662-0.344-0.669-0.731-0.013-0.503-0.003-1.003-0.003-1.506 0-1.906-0.003-3.816 0-5.722 0.003-1.372 1.069-2.441 2.438-2.444 1.747-0.003 3.491 0 5.238 0 0.016-0.022 0.028-0.047 0.044-0.069z"></path>
<path d="M17.097 23.306c0.159 0.012 0.244 0.022 0.328 0.022 1.675 0 3.353 0 5.028 0 0.119 0 0.241-0.012 0.359-0.031 0.266-0.044 0.431-0.203 0.478-0.472 0.025-0.147 0.034-0.3 0.034-0.45 0.003-2.35 0-4.697 0.003-7.047 0-0.622 0.45-0.997 0.988-0.838 0.341 0.1 0.544 0.378 0.547 0.772 0.003 0.762 0 1.525 0 2.288 0 1.625 0 3.253 0 4.878-0.003 1.366-1.075 2.431-2.447 2.434-1.637 0.003-3.272 0-4.909 0-0.109 0-0.216 0-0.378 0 0.075 0.097 0.116 0.159 0.166 0.209 0.381 0.384 0.769 0.762 1.147 1.153 0.331 0.344 0.341 0.791 0.038 1.106-0.313 0.322-0.781 0.322-1.128-0.016-0.894-0.881-1.781-1.766-2.669-2.656-0.341-0.341-0.338-0.784 0.003-1.122 0.887-0.887 1.775-1.775 2.669-2.656 0.331-0.328 0.797-0.334 1.106-0.034 0.325 0.313 0.322 0.778-0.022 1.125-0.422 0.431-0.859 0.859-1.341 1.334z"></path>
<path d="M28.166 0.003h-24.359c-2.106 0-3.822 1.716-3.822 3.822v19.678c0 0.003 0 0.003 0 0.006v4.675c0 2.106 1.712 3.819 3.819 3.819h24.359c2.106 0 3.822-1.712 3.819-3.819v-24.359c0.003-2.106-1.709-3.822-3.816-3.822zM30.653 28.184c0 1.369-1.116 2.488-2.488 2.488v0h-24.359c-1.372 0-2.487-1.116-2.487-2.488v-24.359c0-1.372 1.116-2.487 2.487-2.487v0h24.359c1.372 0 2.488 1.116 2.488 2.487v24.359z"></path>
</svg>
