<svg version="1.1" xmlns="http://www.w3.org/2000/svg" width="32" height="32" viewBox="0 0 32 32">
<title>graphical_corelation</title>
<path d="M2.481 32c-0.007 0-0.016 0-0.025 0-0.571 0-1.033-0.463-1.033-1.033 0-0.562 0.449-1.019 1.007-1.033l0.001-0h27.085c0.557 0.017 1.002 0.472 1.002 1.032 0 0.563-0.451 1.021-1.011 1.032l-0.001 0h-27.025z"></path>
<path d="M6.144 27.034c-0.537-0.001-0.972-0.436-0.973-0.973v-0.819h-0.819c-0.537 0-0.973-0.436-0.973-0.973s0.436-0.973 0.973-0.973h0.819v-0.819c0-0.537 0.436-0.973 0.973-0.973s0.973 0.436 0.973 0.973v0 0.819h0.819c0.537 0 0.973 0.436 0.973 0.973s-0.436 0.973-0.973 0.973h-0.819v0.819c-0 0.537-0.436 0.973-0.973 0.973h-0z"></path>
<path d="M13.491 16.282c-0.537-0-0.972-0.436-0.973-0.973v-0.819h-0.819c-0.537 0-0.973-0.436-0.973-0.973s0.436-0.973 0.973-0.973v0h0.819v-0.819c0-0.537 0.436-0.973 0.973-0.973s0.973 0.436 0.973 0.973v0 0.819h0.819c0.537 0 0.973 0.436 0.973 0.973s-0.436 0.973-0.973 0.973v0h-0.819v0.819c-0 0.537-0.436 0.972-0.973 0.973h-0z"></path>
<path d="M21.914 12.339c-0.537-0.001-0.972-0.436-0.973-0.973v-0.819h-0.819c-0.537 0-0.973-0.436-0.973-0.973s0.436-0.973 0.973-0.973v0h0.819v-0.819c0-0.537 0.436-0.973 0.973-0.973s0.973 0.436 0.973 0.973v0 0.819h0.819c0.537 0 0.973 0.436 0.973 0.973s-0.436 0.973-0.973 0.973v0h-0.819v0.819c-0.001 0.537-0.436 0.972-0.973 0.973h-0z"></path>
<path d="M25.856 5.53c-0.537-0.001-0.972-0.436-0.973-0.973v-0.819h-0.819c-0.537 0-0.973-0.436-0.973-0.973s0.436-0.973 0.973-0.973v0h0.819v-0.819c0-0.537 0.436-0.973 0.973-0.973s0.973 0.436 0.973 0.973v0 0.819h0.819c0.537 0 0.973 0.436 0.973 0.973s-0.436 0.973-0.973 0.973v0h-0.819v0.819c-0.001 0.537-0.436 0.972-0.973 0.973h-0z"></path>
<path d="M14.029 23.45c-0.537-0.001-0.972-0.436-0.973-0.973v-0.819h-0.819c-0.527-0.014-0.948-0.444-0.948-0.973s0.422-0.959 0.947-0.973l0.001-0h0.819v-0.819c0-0.537 0.436-0.973 0.973-0.973s0.973 0.436 0.973 0.973v0 0.819h0.819c0.527 0.014 0.948 0.444 0.948 0.973s-0.422 0.959-0.947 0.973l-0.001 0h-0.819v0.819c-0.001 0.537-0.436 0.972-0.973 0.973h-0z"></path>
</svg>
