<!-- Generated by IcoMoon.io -->
<svg version="1.1" xmlns="http://www.w3.org/2000/svg" width="32" height="32" viewBox="0 0 32 32">
<title>graph_line_chart_statistics</title>
<path d="M29.159 11.497c-1.194 0-2.166 0.972-2.166 2.166 0 0.387 0.103 0.753 0.284 1.069l-6.041 6.591c-0.275-0.125-0.581-0.197-0.903-0.197-0.194 0-0.381 0.025-0.559 0.075l-6.588-10.181c0.303-0.372 0.488-0.85 0.488-1.369 0-1.194-0.972-2.166-2.166-2.166-1.197 0-2.169 0.972-2.169 2.166 0 0.197 0.028 0.387 0.075 0.569l-5.35 3.381c-0.375-0.313-0.856-0.5-1.381-0.5-1.197 0-2.169 0.972-2.169 2.169s0.972 2.166 2.169 2.166c1.194 0 2.166-0.972 2.166-2.166 0-0.188-0.025-0.369-0.069-0.544l5.366-3.391c0.372 0.3 0.847 0.481 1.363 0.481 0.194 0 0.381-0.025 0.559-0.075l6.588 10.184c-0.303 0.372-0.488 0.85-0.488 1.369 0 1.194 0.972 2.166 2.166 2.166s2.169-0.972 2.169-2.166c0-0.387-0.103-0.753-0.284-1.069l6.041-6.588c0.275 0.125 0.581 0.197 0.903 0.197 1.197 0 2.169-0.972 2.169-2.169-0.003-1.197-0.975-2.169-2.172-2.169zM2.684 16.103c-0.459 0-0.834-0.375-0.834-0.834s0.375-0.834 0.834-0.834v0c0.281 0 0.531 0.141 0.681 0.356 0.006 0.009 0.009 0.019 0.016 0.028 0.009 0.012 0.016 0.025 0.025 0.037 0.069 0.122 0.109 0.259 0.109 0.409 0.003 0.463-0.372 0.838-0.831 0.838zM10.825 10.128c0-0.003-0.003-0.003-0.003-0.006-0.003-0.006-0.009-0.012-0.012-0.019-0.084-0.131-0.134-0.287-0.134-0.453 0-0.459 0.375-0.834 0.834-0.834s0.834 0.375 0.834 0.834c0 0.281-0.141 0.534-0.356 0.684-0.009 0.006-0.016 0.009-0.025 0.016s-0.016 0.012-0.025 0.019c-0.125 0.075-0.272 0.119-0.428 0.119-0.281-0.003-0.534-0.144-0.684-0.359zM20.334 24.125c-0.459 0-0.834-0.375-0.834-0.834 0-0.284 0.144-0.534 0.359-0.684 0.006-0.003 0.016-0.009 0.022-0.012 0.006-0.006 0.012-0.009 0.022-0.016 0.125-0.075 0.272-0.122 0.431-0.122 0.203 0 0.387 0.072 0.534 0.194 0.009 0.009 0.019 0.019 0.028 0.028s0.022 0.019 0.034 0.028c0.147 0.15 0.241 0.356 0.241 0.584-0.003 0.459-0.378 0.834-0.837 0.834zM29.159 14.497c-0.459 0-0.834-0.375-0.834-0.834s0.375-0.834 0.834-0.834 0.834 0.375 0.834 0.834c0 0.459-0.375 0.834-0.834 0.834z"></path>
</svg>
