<!-- Generated by IcoMoon.io -->
<svg version="1.1" xmlns="http://www.w3.org/2000/svg" width="32" height="32" viewBox="0 0 32 32">
<title>graph_columns_statistics</title>
<path d="M7.706 32h-6.117c-0.886 0-1.607-0.703-1.607-1.566v-19.473c0-0.882 0.736-1.627 1.607-1.627h6.117c0.872 0 1.609 0.745 1.609 1.627v19.473c0 0.863-0.721 1.566-1.609 1.566zM1.589 10.667c-0.141 0-0.274 0.143-0.274 0.294v19.473c0 0.151 0.141 0.233 0.274 0.233h6.117c0.135 0 0.275-0.087 0.275-0.233v-19.473c0-0.148-0.137-0.294-0.275-0.294h-6.117z"></path>
<path d="M18.374 32h-6.117c-0.886 0-1.607-0.703-1.607-1.566v-12.806c0-0.881 0.736-1.626 1.607-1.626h6.117c0.872 0 1.609 0.745 1.609 1.626v12.806c0 0.863-0.721 1.566-1.609 1.566zM12.257 17.335c-0.141 0-0.274 0.142-0.274 0.293v12.806c0 0.151 0.141 0.233 0.274 0.233h6.117c0.135 0 0.276-0.087 0.276-0.233v-12.806c0-0.148-0.137-0.293-0.276-0.293h-6.117z"></path>
<path d="M29.042 32h-6.117c-0.901 0-1.607-0.687-1.607-1.566v-26.141c0-0.882 0.736-1.627 1.607-1.627h6.117c0.872 0 1.609 0.745 1.609 1.627v26.141c0 0.863-0.721 1.566-1.609 1.566zM22.925 3.999c-0.141 0-0.273 0.143-0.273 0.294v26.141c0 0.151 0.141 0.233 0.273 0.233h6.117c0.135 0 0.276-0.087 0.276-0.233v-26.141c0-0.148-0.137-0.294-0.276-0.294h-6.117z"></path>
</svg>
