<!-- Generated by IcoMoon.io -->
<svg version="1.1" xmlns="http://www.w3.org/2000/svg" width="32" height="32" viewBox="0 0 32 32">
<title>graph_pie_chart_statistics</title>
<path d="M14.41 31.682c-0.001 0-0.001 0-0.001 0-1.142 0-2.288-0.141-3.407-0.417-7.591-1.872-12.242-9.572-10.369-17.161 1.567-6.35 7.223-10.785 13.755-10.785 1.142 0 2.288 0.14 3.408 0.416 0.171 0.042 0.319 0.151 0.41 0.302s0.12 0.333 0.077 0.505l-3.062 12.41c11.821-3.589 12.105-3.589 12.229-3.589 0.297 0 0.565 0.199 0.647 0.484 0.615 2.305 0.637 4.739 0.066 7.050-1.566 6.35-7.223 10.785-13.753 10.785zM14.388 4.652c-5.917 0-11.041 4.018-12.461 9.771-1.697 6.876 2.518 13.852 9.394 15.548 1.014 0.25 2.053 0.378 3.089 0.378 5.916 0 11.040-4.018 12.459-9.772 0.465-1.884 0.495-3.858 0.092-5.748-1.825 0.519-8.15 2.425-12.475 3.74-0.227 0.069-0.479 0.010-0.653-0.154s-0.245-0.411-0.188-0.645l3.179-12.885c-0.806-0.156-1.622-0.234-2.436-0.234z"></path>
<path d="M19.792 12.745c-0.171 0-0.337-0.065-0.464-0.187-0.171-0.165-0.241-0.409-0.184-0.641l2.799-11.242c0.089-0.357 0.445-0.574 0.809-0.486 4.227 1.052 7.603 4.311 8.813 8.507 0.087 0.178 0.072 0.33-0.009 0.511-0.079 0.181-0.257 0.263-0.447 0.317l-11.134 3.195c-0.060 0.017-0.122 0.026-0.183 0.026zM23.072 1.665l-2.354 9.454 9.366-2.687c-1.198-3.265-3.789-5.75-7.012-6.767z"></path>
</svg>
