<!-- Generated by IcoMoon.io -->
<svg version="1.1" xmlns="http://www.w3.org/2000/svg" width="32" height="32" viewBox="0 0 32 32">
<title>graph_columns_drop_statistics</title>
<path d="M28.992 32.007h-6.117c-0.888 0-1.609-0.703-1.609-1.566v-4.806c0-0.881 0.737-1.626 1.609-1.626h6.117c0.871 0 1.607 0.745 1.607 1.626v4.806c0 0.879-0.706 1.566-1.607 1.566zM22.875 25.341c-0.139 0-0.276 0.145-0.276 0.293v4.806c0 0.146 0.141 0.233 0.276 0.233h6.117c0.133 0 0.273-0.082 0.273-0.233v-4.806c0-0.151-0.133-0.293-0.273-0.293h-6.117z"></path>
<path d="M18.324 32.007h-6.117c-0.887 0-1.609-0.703-1.609-1.566v-12.806c0-0.883 0.737-1.628 1.609-1.628h6.117c0.871 0 1.607 0.745 1.607 1.628v12.806c-0 0.879-0.706 1.566-1.607 1.566zM12.207 17.34c-0.139 0-0.275 0.146-0.275 0.294v12.806c0 0.146 0.14 0.233 0.275 0.233h6.117c0.133 0 0.273-0.082 0.273-0.233v-12.806c0-0.151-0.133-0.294-0.273-0.294h-6.117z"></path>
<path d="M7.656 32.007h-6.117c-0.887 0-1.609-0.703-1.609-1.566v-26.141c0-0.881 0.737-1.626 1.609-1.626h6.117c0.871 0 1.607 0.745 1.607 1.626v26.141c0 0.863-0.721 1.566-1.607 1.566zM1.54 4.006c-0.139 0-0.276 0.145-0.276 0.293v26.141c0 0.146 0.141 0.233 0.276 0.233h6.117c0.133 0 0.274-0.082 0.274-0.233v-26.141c0-0.15-0.133-0.293-0.274-0.293h-6.117z"></path>
<path d="M28.49 17.281c-0.171 0-0.341-0.065-0.471-0.195l-11.948-11.948c-0.26-0.26-0.26-0.682 0-0.943s0.682-0.26 0.943 0l11.948 11.948c0.26 0.26 0.26 0.682 0 0.943-0.13 0.13-0.301 0.195-0.471 0.195z"></path>
<path d="M28.599 17.298h-6c-0.369 0-0.667-0.298-0.667-0.667s0.298-0.667 0.667-0.667h5.333v-5.333c0-0.369 0.298-0.667 0.667-0.667s0.667 0.298 0.667 0.667v5.999c0 0.369-0.298 0.667-0.667 0.667z"></path>
</svg>
