<svg version="1.1" xmlns="http://www.w3.org/2000/svg" width="32" height="32" viewBox="0 0 32 32">
<title>graph_growth_money_stock_inflation</title>
<path d="M17.272 6.092c-0.172 0-0.342-0.066-0.473-0.197-0.26-0.262-0.258-0.684 0.003-0.943l3.371-3.348c0.26-0.258 0.68-0.258 0.94 0l3.372 3.348c0.26 0.26 0.263 0.682 0.003 0.943-0.258 0.261-0.68 0.264-0.943 0.004l-2.902-2.881-2.901 2.881c-0.13 0.129-0.301 0.193-0.47 0.193z"></path>
<path d="M3.022 22.579c-0.358 0-0.654-0.285-0.665-0.646-0.012-0.367 0.277-0.676 0.645-0.687 0.693-0.022 16.975-0.721 16.975-15.952v-3.216c0-0.369 0.298-0.667 0.667-0.667s0.667 0.298 0.667 0.667v3.216c0 16.53-18.084 17.279-18.266 17.285-0.007 0-0.014 0-0.022 0z"></path>
<path d="M6.813 15.85c-3.614 0-6.554-2.94-6.554-6.555s2.94-6.554 6.554-6.554c3.615 0 6.555 2.94 6.555 6.554s-2.94 6.555-6.555 6.555zM6.813 4.075c-2.879 0-5.221 2.342-5.221 5.221s2.342 5.221 5.221 5.221 5.221-2.342 5.221-5.221-2.343-5.221-5.221-5.221z"></path>
<path d="M6.778 13.069c-0.788 0-1.826-0.426-2.526-1.035-0.277-0.242-0.307-0.663-0.064-0.941s0.664-0.305 0.941-0.064c0.455 0.396 1.18 0.707 1.65 0.707 0.648 0 1.176-0.423 1.176-0.944 0-0.157 0-0.573-1.363-0.971-0.704-0.221-2.322-0.729-2.322-2.251 0-1.256 1.125-2.277 2.508-2.277 0.882 0 1.709 0.427 2.158 1.114 0.202 0.308 0.115 0.721-0.193 0.923s-0.721 0.115-0.923-0.193c-0.206-0.315-0.605-0.51-1.042-0.51-0.648 0-1.175 0.423-1.175 0.944 0 0.282 0.167 0.596 1.375 0.975 0.561 0.163 2.309 0.674 2.309 2.247 0 1.256-1.126 2.277-2.509 2.277z"></path>
<path d="M6.778 6.626c-0.369 0-0.667-0.298-0.667-0.667v-0.88c0-0.369 0.298-0.667 0.667-0.667s0.667 0.298 0.667 0.667v0.88c0 0.368-0.298 0.667-0.667 0.667z"></path>
<path d="M6.778 13.949c-0.369 0-0.667-0.298-0.667-0.667v-0.881c0-0.369 0.298-0.667 0.667-0.667s0.667 0.298 0.667 0.667v0.881c0 0.369-0.298 0.667-0.667 0.667z"></path>
<path d="M31.402 32h-2.667c-0.369 0-0.667-0.298-0.667-0.667v-28c0-0.369 0.298-0.667 0.667-0.667h2.667c0.369 0 0.667 0.298 0.667 0.667v28c0 0.369-0.298 0.667-0.667 0.667zM29.402 30.667h1.333v-26.667h-1.333v26.667z"></path>
<path d="M24.734 32h-2.667c-0.369 0-0.667-0.298-0.667-0.667v-15.999c0-0.369 0.298-0.667 0.667-0.667h2.667c0.369 0 0.667 0.298 0.667 0.667v15.999c0 0.369-0.298 0.667-0.667 0.667zM22.734 30.667h1.333v-14.665h-1.333v14.665z"></path>
<path d="M18.068 32h-2.667c-0.369 0-0.667-0.298-0.667-0.667v-9.332c0-0.369 0.298-0.667 0.667-0.667h2.667c0.369 0 0.667 0.298 0.667 0.667v9.332c0 0.369-0.298 0.667-0.667 0.667zM16.068 30.667h1.333v-7.999h-1.333v7.999z"></path>
<path d="M11.401 32h-2.667c-0.369 0-0.667-0.298-0.667-0.667v-5.332c0-0.369 0.298-0.667 0.667-0.667h2.667c0.369 0 0.667 0.298 0.667 0.667v5.332c0 0.369-0.298 0.667-0.667 0.667zM9.401 30.667h1.333v-3.999h-1.333v3.999z"></path>
<path d="M4.734 32h-2.667c-0.369 0-0.667-0.298-0.667-0.667v-3.999c0-0.369 0.298-0.667 0.667-0.667h2.667c0.369 0 0.667 0.298 0.667 0.667v3.999c0 0.369-0.298 0.667-0.667 0.667zM2.734 30.667h1.333v-2.665h-1.333v2.665z"></path>
</svg>
