<!-- Generated by IcoMoon.io -->
<svg version="1.1" xmlns="http://www.w3.org/2000/svg" width="32" height="32" viewBox="0 0 32 32">
<title>grid_view</title>
<path fill="none" stroke-linejoin="round" stroke-linecap="round" stroke-miterlimit="4" stroke-width="2" stroke="#000" d="M4.25 3h8.5c0.69 0 1.25 0.56 1.25 1.25v8.5c0 0.69-0.56 1.25-1.25 1.25h-8.5c-0.69 0-1.25-0.56-1.25-1.25v-8.5c0-0.69 0.56-1.25 1.25-1.25z"></path>
<path fill="none" stroke-linejoin="round" stroke-linecap="round" stroke-miterlimit="4" stroke-width="2" stroke="#000" d="M19.25 3h8.5c0.69 0 1.25 0.56 1.25 1.25v8.5c0 0.69-0.56 1.25-1.25 1.25h-8.5c-0.69 0-1.25-0.56-1.25-1.25v-8.5c0-0.69 0.56-1.25 1.25-1.25z"></path>
<path fill="none" stroke-linejoin="round" stroke-linecap="round" stroke-miterlimit="4" stroke-width="2" stroke="#000" d="M4.25 18h8.5c0.69 0 1.25 0.56 1.25 1.25v8.5c0 0.69-0.56 1.25-1.25 1.25h-8.5c-0.69 0-1.25-0.56-1.25-1.25v-8.5c0-0.69 0.56-1.25 1.25-1.25z"></path>
<path fill="none" stroke-linejoin="round" stroke-linecap="round" stroke-miterlimit="4" stroke-width="2" stroke="#000" d="M19.25 18h8.5c0.69 0 1.25 0.56 1.25 1.25v8.5c0 0.69-0.56 1.25-1.25 1.25h-8.5c-0.69 0-1.25-0.56-1.25-1.25v-8.5c0-0.69 0.56-1.25 1.25-1.25z"></path>
</svg>
