<!-- Generated by IcoMoon.io -->
<svg version="1.1" xmlns="http://www.w3.org/2000/svg" width="32" height="32" viewBox="0 0 32 32">
<title>grid_view</title>
<path d="M12.8 2h-8.6c-1.2 0-2.2 1-2.2 2.2v8.5c0 1.3 1 2.3 2.2 2.3h8.5c1.2 0 2.2-1 2.2-2.2v-8.6c0.1-1.2-0.9-2.2-2.1-2.2zM13 12.8c0 0.1-0.1 0.2-0.2 0.2h-8.6c-0.1 0-0.2-0.1-0.2-0.2v-8.6c0-0.1 0.1-0.2 0.2-0.2h8.5c0.2 0 0.3 0.1 0.3 0.2v8.6z"></path>
<path d="M27.8 2h-8.5c-1.3 0-2.3 1-2.3 2.2v8.5c0 1.2 1 2.2 2.2 2.2h8.5c1.2 0 2.2-1 2.2-2.2v-8.5c0.1-1.2-0.9-2.2-2.1-2.2zM28 12.8c0 0.1-0.1 0.2-0.2 0.2h-8.5c-0.1 0-0.2-0.1-0.2-0.2v-8.6c-0.1-0.1 0-0.2 0.1-0.2h8.5c0.2 0 0.3 0.1 0.3 0.2v8.6z"></path>
<path d="M12.8 17h-8.6c-1.2 0-2.2 1-2.2 2.2v8.5c0 1.3 1 2.3 2.2 2.3h8.5c1.2 0 2.2-1 2.2-2.2v-8.5c0.1-1.3-0.9-2.3-2.1-2.3zM13 27.8c0 0.1-0.1 0.2-0.2 0.2h-8.6c-0.1 0-0.2-0.1-0.2-0.2v-8.5c0-0.2 0.1-0.3 0.2-0.3h8.5c0.1 0 0.2 0.1 0.2 0.2v8.6z"></path>
<path d="M27.8 17h-8.5c-1.3 0-2.3 1-2.3 2.2v8.5c0 1.2 1 2.2 2.2 2.2h8.5c1.2 0 2.2-1 2.2-2.2v-8.5c0.1-1.2-0.9-2.2-2.1-2.2zM28 27.8c0 0.1-0.1 0.2-0.2 0.2h-8.5c-0.1 0-0.2-0.1-0.2-0.2v-8.5c0-0.1 0.1-0.2 0.2-0.2h8.5c0.1 0 0.2 0.1 0.2 0.2v8.5z"></path>
</svg>
