<svg version="1.1" xmlns="http://www.w3.org/2000/svg" width="32" height="32" viewBox="0 0 32 32">
<title>grid_view2</title>
<path d="M8.686 30.669h-6.667c-0.369 0-0.667-0.298-0.667-0.667v-6.668c0-0.369 0.298-0.667 0.667-0.667h6.667c0.369 0 0.667 0.298 0.667 0.667v6.668c-0 0.368-0.298 0.667-0.667 0.667zM2.686 29.336h5.334v-5.335h-5.334v5.335z"></path>
<path d="M8.686 20.001h-6.667c-0.369 0-0.667-0.298-0.667-0.667v-6.667c0-0.369 0.298-0.667 0.667-0.667h6.667c0.369 0 0.667 0.298 0.667 0.667v6.667c-0 0.368-0.298 0.667-0.667 0.667zM2.686 18.668h5.334v-5.334h-5.334v5.334z"></path>
<path d="M8.686 9.333h-6.667c-0.369 0-0.667-0.298-0.667-0.667v-6.667c0-0.369 0.298-0.667 0.667-0.667h6.667c0.369 0 0.667 0.298 0.667 0.667v6.667c-0 0.369-0.298 0.667-0.667 0.667zM2.686 8h5.334v-5.333h-5.334v5.333z"></path>
<path d="M19.354 30.669h-6.667c-0.369 0-0.667-0.298-0.667-0.667v-6.668c0-0.369 0.298-0.667 0.667-0.667h6.667c0.369 0 0.667 0.298 0.667 0.667v6.668c0 0.368-0.298 0.667-0.667 0.667zM13.353 29.336h5.334v-5.335h-5.334v5.335z"></path>
<path d="M19.354 20.001h-6.667c-0.369 0-0.667-0.298-0.667-0.667v-6.667c0-0.369 0.298-0.667 0.667-0.667h6.667c0.369 0 0.667 0.298 0.667 0.667v6.667c0 0.368-0.298 0.667-0.667 0.667zM13.353 18.668h5.334v-5.334h-5.334v5.334z"></path>
<path d="M19.354 9.333h-6.667c-0.369 0-0.667-0.298-0.667-0.667v-6.667c0-0.369 0.298-0.667 0.667-0.667h6.667c0.369 0 0.667 0.298 0.667 0.667v6.667c0 0.369-0.298 0.667-0.667 0.667zM13.353 8h5.334v-5.333h-5.334v5.333z"></path>
<path d="M30.022 30.669h-6.668c-0.369 0-0.667-0.298-0.667-0.667v-6.668c0-0.369 0.298-0.667 0.667-0.667h6.668c0.369 0 0.667 0.298 0.667 0.667v6.668c0 0.368-0.298 0.667-0.667 0.667zM24.021 29.336h5.335v-5.335h-5.335v5.335z"></path>
<path d="M30.022 20.001h-6.668c-0.369 0-0.667-0.298-0.667-0.667v-6.667c0-0.369 0.298-0.667 0.667-0.667h6.668c0.369 0 0.667 0.298 0.667 0.667v6.667c0 0.368-0.298 0.667-0.667 0.667zM24.021 18.668h5.335v-5.334h-5.335v5.334z"></path>
<path d="M30.022 9.333h-6.668c-0.369 0-0.667-0.298-0.667-0.667v-6.667c0-0.369 0.298-0.667 0.667-0.667h6.668c0.369 0 0.667 0.298 0.667 0.667v6.667c0 0.369-0.298 0.667-0.667 0.667zM24.021 8h5.335v-5.333h-5.335v5.333z"></path>
</svg>
