<svg version="1.1" xmlns="http://www.w3.org/2000/svg" width="32" height="32" viewBox="0 0 32 32">
<title>group_users_circle</title>
<path d="M20.307 29.361h-8.641c-0.549 0-0.996-0.451-0.996-1.005v-1.19c0-0.415 0.248-0.783 0.631-0.936 2.048-0.801 2.686-1.207 2.88-1.366v-0.005c-0.263-0.329-0.473-0.729-0.619-1.175-0.208-0.216-0.346-0.497-0.389-0.801-0.043-0.31 0.014-0.616 0.16-0.884v-0.869c0-1.553 1.016-2.518 2.653-2.518 1.661 0 2.653 0.941 2.653 2.518v0.867c0.147 0.269 0.203 0.577 0.159 0.888-0.042 0.302-0.181 0.583-0.389 0.799-0.145 0.445-0.354 0.844-0.617 1.172v0.043c0.128 0.078 0.717 0.483 2.876 1.328 0.379 0.147 0.635 0.525 0.635 0.937v1.19c0 0.555-0.446 1.005-0.996 1.005zM12.003 28.027h7.967v-0.641c-2.69-1.066-3.319-1.583-3.482-2.105-0.019-0.064-0.030-0.131-0.030-0.198v-0.477c0-0.173 0.068-0.34 0.187-0.464 0.237-0.245 0.423-0.594 0.536-1.009 0.042-0.148 0.133-0.279 0.258-0.367-0.095-0.119-0.134-0.422-0.134-0.573v-1.064c0-0.819-0.408-1.185-1.32-1.185-0.9 0-1.32 0.376-1.32 1.185v1.065c0 0.152-0.052 0.299-0.147 0.418 0.125 0.089 0.229 0.374 0.269 0.521 0.114 0.414 0.3 0.764 0.538 1.012 0.12 0.124 0.187 0.289 0.187 0.462v0.475c0 0.066-0.010 0.133-0.030 0.198-0.135 0.435-0.507 0.926-3.481 2.105v0.641z"></path>
<path d="M30.975 14.693h-8.642c-0.549 0-0.996-0.451-0.996-1.005v-1.189c0-0.417 0.249-0.785 0.635-0.937 2.046-0.801 2.682-1.207 2.875-1.365v-0.008c-0.263-0.329-0.473-0.727-0.619-1.173-0.207-0.216-0.345-0.497-0.388-0.801-0.043-0.31 0.013-0.616 0.159-0.885v-0.868c0-1.553 1.017-2.518 2.654-2.518 1.661 0 2.654 0.941 2.654 2.518v0.868c0.146 0.27 0.202 0.577 0.159 0.888-0.043 0.303-0.181 0.583-0.389 0.799-0.145 0.445-0.354 0.843-0.617 1.172v0.044c0.126 0.077 0.715 0.483 2.876 1.328 0.383 0.15 0.631 0.516 0.635 0.931v1.196c0 0.554-0.446 1.005-0.996 1.005zM22.671 13.359h7.967v-0.64c-2.693-1.067-3.322-1.585-3.482-2.108-0.019-0.064-0.030-0.13-0.030-0.196v-0.476c0-0.173 0.066-0.339 0.186-0.463 0.236-0.243 0.426-0.602 0.538-1.010 0.042-0.148 0.131-0.277 0.258-0.367-0.095-0.119-0.134-0.423-0.134-0.574v-1.064c0-0.819-0.408-1.184-1.32-1.184-0.901 0-1.32 0.376-1.32 1.184v1.065c0 0.152-0.052 0.298-0.146 0.417 0.125 0.089 0.228 0.375 0.269 0.523 0.112 0.408 0.302 0.766 0.538 1.010 0.12 0.124 0.186 0.29 0.186 0.463v0.476c0 0.066-0.010 0.133-0.030 0.196-0.16 0.523-0.789 1.040-3.481 2.108v0.64z"></path>
<path d="M9.64 14.693h-8.641c-0.549 0-0.997-0.451-0.997-1.005v-1.189c0-0.417 0.249-0.785 0.635-0.937 2.046-0.801 2.683-1.207 2.876-1.365v-0.007c-0.262-0.329-0.473-0.728-0.618-1.173-0.208-0.217-0.347-0.498-0.389-0.803-0.043-0.309 0.014-0.615 0.159-0.883v-0.868c0-1.553 1.016-2.518 2.653-2.518 1.661 0 2.653 0.941 2.653 2.518v0.867c0.147 0.269 0.203 0.576 0.159 0.886-0.042 0.303-0.18 0.585-0.389 0.801-0.145 0.446-0.355 0.844-0.617 1.172v0.043c0.126 0.077 0.715 0.483 2.875 1.328 0.387 0.152 0.636 0.52 0.636 0.937v1.189c0 0.554-0.447 1.005-0.996 1.005zM1.335 13.359h7.967v-0.64c-2.691-1.066-3.32-1.585-3.482-2.108-0.019-0.064-0.029-0.13-0.029-0.196v-0.476c0-0.173 0.067-0.339 0.187-0.463 0.234-0.242 0.425-0.601 0.538-1.010 0.041-0.148 0.132-0.277 0.257-0.366-0.095-0.118-0.134-0.422-0.134-0.574v-1.064c0-0.819-0.407-1.184-1.32-1.184-0.9 0-1.32 0.376-1.32 1.184v1.065c0 0.152-0.052 0.299-0.147 0.418 0.125 0.089 0.229 0.374 0.269 0.521 0.113 0.409 0.303 0.767 0.538 1.010 0.12 0.124 0.187 0.29 0.187 0.463v0.476c0 0.066-0.010 0.133-0.029 0.196-0.135 0.437-0.506 0.928-3.482 2.108v0.64z"></path>
<path d="M21.943 5.472c-0.115 0-0.229-0.029-0.335-0.091-3.31-1.925-7.607-1.923-10.913 0-0.32 0.183-0.726 0.077-0.911-0.241s-0.077-0.727 0.241-0.911c3.714-2.161 8.54-2.161 12.253 0 0.319 0.185 0.427 0.593 0.242 0.911-0.125 0.213-0.348 0.331-0.577 0.331z"></path>
<path d="M22.509 25.059c-0.215 0-0.427-0.104-0.556-0.298-0.074-0.113-0.111-0.241-0.111-0.369 0-0.215 0.104-0.427 0.298-0.556 2.691-1.783 4.443-4.633 4.805-7.818 0.042-0.367 0.375-0.629 0.738-0.587 0.34 0.038 0.591 0.327 0.591 0.661 0 0.026-0.001 0.051-0.004 0.077-0.408 3.578-2.374 6.777-5.393 8.779-0.113 0.074-0.241 0.111-0.369 0.111z"></path>
<path d="M9.792 25.059c-0.126 0-0.255-0.036-0.368-0.111-3.019-2.001-4.985-5.202-5.392-8.779-0.003-0.026-0.005-0.051-0.005-0.077 0-0.334 0.251-0.622 0.591-0.661 0.38-0.049 0.696 0.221 0.738 0.587 0.363 3.185 2.114 6.035 4.805 7.818 0.193 0.129 0.298 0.341 0.298 0.557 0 0.126-0.036 0.254-0.111 0.367-0.128 0.194-0.341 0.298-0.557 0.298z"></path>
</svg>
