<svg version="1.1" xmlns="http://www.w3.org/2000/svg" width="32" height="32" viewBox="0 0 32 32">
<title>gun_security_arms_police</title>
<path d="M31.372 10.667h-28c-0.369 0-0.667-0.298-0.667-0.667v-2.667c0-1.838 1.495-3.333 3.333-3.333h24c1.103 0 2 0.897 2 2v4c0 0.369-0.298 0.667-0.667 0.667zM4.039 9.333h26.667v-3.333c0-0.368-0.299-0.667-0.667-0.667h-24c-1.103 0-2 0.897-2 2v2z"></path>
<path d="M15.654 16.656c-0.205 0-0.408-0.094-0.54-0.271-0.527-0.709-0.349-2.32-0.247-2.98 0.055-0.364 0.391-0.617 0.76-0.558 0.364 0.055 0.613 0.396 0.559 0.76-0.126 0.825-0.125 1.773 0.004 1.988 0.219 0.296 0.156 0.71-0.139 0.93-0.119 0.087-0.258 0.13-0.396 0.13z"></path>
<path d="M9.908 13.355h-1.259c-0.369 0-0.667-0.298-0.667-0.667s0.298-0.667 0.667-0.667h1.259c0.369 0 0.667 0.298 0.667 0.667s-0.298 0.667-0.667 0.667z"></path>
<path d="M7.38 29.147h-5.395c-0.401 0-0.743-0.175-0.938-0.478-0.187-0.293-0.209-0.664-0.057-0.995 0.154-0.335 0.549-0.483 0.883-0.328 0.2 0.091 0.333 0.268 0.375 0.467h5.132c-0.003-0.017 0.158-0.16 0.255-0.28 0.231-0.285 0.65-0.331 0.936-0.1 0.286 0.229 0.333 0.647 0.105 0.934-0.146 0.184-0.67 0.78-1.296 0.78z"></path>
<path d="M6.039 5.334c-0.369 0-0.667-0.298-0.667-0.667v-1.292c0-0.369 0.298-0.667 0.667-0.667s0.667 0.298 0.667 0.667v1.292c0 0.369-0.298 0.667-0.667 0.667z"></path>
<path d="M30.039 5.333c-0.369 0-0.667-0.298-0.667-0.667v-1.292c0-0.369 0.298-0.667 0.667-0.667s0.667 0.298 0.667 0.667v1.292c0 0.369-0.298 0.667-0.667 0.667z"></path>
<path d="M2.557 26.699c-0.258 0-0.281-0.001-0.295-0.004-0.583-0.099-1.594-0.651-1.587-2.073 0.010-2.027 2.982-8.4 3.322-9.119 0.432-0.916 0.051-2.652-0.132-3.243-0.109-0.352 0.088-0.725 0.439-0.834 0.352-0.111 0.725 0.087 0.835 0.437 0.083 0.268 0.794 2.661 0.064 4.208-1.281 2.72-3.188 7.243-3.194 8.556-0.003 0.664 0.417 0.745 0.435 0.749 0.14-0.003 3.303-0.031 5.875-0.057-0.007-0.315 0.044-0.678 0.147-1.039 0.156-0.548 0.387-0.981 0.663-1.268-0.083-0.389-0.052-0.876 0.103-1.423 0.156-0.548 0.387-0.979 0.663-1.267-0.083-0.389-0.052-0.876 0.103-1.422 0.238-0.837 0.651-1.402 1.133-1.599l1.434-3.945c0.093-0.256 0.332-0.429 0.604-0.438l14.915-0.504v-0.351c0-0.369 0.298-0.667 0.667-0.667s0.667 0.298 0.667 0.667v0.995c0 0.359-0.285 0.654-0.645 0.666l-15.109 0.51-1.417 3.898c-0.1 0.276-0.348 0.454-0.645 0.439-0.236 0.251-0.481 1.109-0.413 1.448 0.204 0.119 0.331 0.34 0.331 0.575 0 0.060-0.008 0.121-0.025 0.182-0.085 0.299-0.37 0.471-0.659 0.484-0.236 0.251-0.48 1.109-0.412 1.448 0.204 0.119 0.331 0.34 0.331 0.575 0 0.060-0.008 0.121-0.025 0.182-0.085 0.299-0.376 0.482-0.659 0.484-0.236 0.251-0.48 1.109-0.413 1.448 0.228 0.133 0.361 0.392 0.325 0.664-0.044 0.328-0.323 0.574-0.654 0.578-4.665 0.049-6.231 0.058-6.77 0.058z"></path>
<path d="M17.973 18.617c-0.044 0-0.089-0.001-0.133-0.004l-6.225-0.042c-0.369-0.003-0.665-0.303-0.662-0.672 0.003-0.366 0.301-0.661 0.667-0.661 0.001 0 0.003 0 0.005 0l6.253 0.043c0.383 0.018 0.727-0.108 0.987-0.357 0.259-0.247 0.402-0.581 0.402-0.939v-2.615c0-0.369 0.298-0.667 0.667-0.667s0.667 0.298 0.667 0.667v2.615c0 0.727-0.29 1.404-0.816 1.905-0.495 0.471-1.134 0.727-1.811 0.727z"></path>
</svg>
