<svg version="1.1" xmlns="http://www.w3.org/2000/svg" width="32" height="32" viewBox="0 0 32 32">
<title>guns_arms_forbidden</title>
<path d="M15.984 31.708c-4.214 0-8.171-1.637-11.143-4.608-2.973-2.973-4.609-6.93-4.609-11.145 0.001-4.214 1.637-8.172 4.61-11.145s6.93-4.609 11.145-4.609 8.171 1.637 11.144 4.609c2.973 2.972 4.609 6.93 4.609 11.145s-1.637 8.171-4.609 11.144-6.931 4.609-11.146 4.609zM15.986 1.535c-3.858 0-7.481 1.498-10.202 4.219s-4.219 6.344-4.219 10.203c0 3.858 1.498 7.482 4.219 10.202s6.342 4.217 10.201 4.217 7.482-1.497 10.203-4.219c2.72-2.72 4.219-6.344 4.219-10.201s-1.499-7.481-4.219-10.202-6.344-4.219-10.201-4.219z"></path>
<path d="M26.659 27.294c-0.171 0-0.341-0.065-0.471-0.195l-21.346-21.346c-0.26-0.26-0.26-0.682 0-0.943s0.682-0.26 0.943 0l21.346 21.346c0.26 0.26 0.26 0.682 0 0.943-0.13 0.13-0.301 0.195-0.471 0.195z"></path>
<path d="M24.594 14.734h-15.996c-0.369 0-0.667-0.298-0.667-0.667v-1.367c0-1.121 0.982-2.033 2.19-2.033h13.711c0.788 0 1.428 0.605 1.428 1.35v2.051c0 0.368-0.298 0.667-0.667 0.667zM9.264 13.401h14.663v-1.384l-13.806-0.016c-0.473 0-0.857 0.314-0.857 0.7v0.701z"></path>
<path d="M15.747 18.417c-0.217 0-0.437-0.104-0.574-0.288-0.333-0.448-0.289-1.281-0.193-1.902 0.056-0.364 0.389-0.612 0.76-0.557 0.364 0.056 0.614 0.396 0.558 0.759-0.056 0.375-0.066 0.832-0.021 0.962 0.22 0.294 0.142 0.684-0.154 0.904-0.112 0.083-0.243 0.123-0.376 0.123z"></path>
<path d="M23.84 12.001c-0.369 0-0.667-0.298-0.667-0.667v-0.73c0-0.369 0.298-0.667 0.667-0.667s0.667 0.298 0.667 0.667v0.73c0 0.369-0.298 0.667-0.667 0.667z"></path>
<path d="M8.348 24.073c-0.199 0-0.218-0.001-0.236-0.004-0.43-0.073-1.158-0.464-1.154-1.461 0.005-1.184 1.587-4.602 1.904-5.275 0.171-0.363 0.048-1.182-0.089-1.622-0.109-0.352 0.087-0.725 0.438-0.835 0.355-0.107 0.726 0.087 0.835 0.438 0.050 0.162 0.481 1.615 0.021 2.589-0.736 1.563-1.774 4.059-1.777 4.711 0 0.030 0.005 0.137 0.006 0.137 0.102-0.003 1.9-0.022 2.995-0.034 0.018-0.145 0.048-0.275 0.077-0.378 0.089-0.315 0.21-0.555 0.348-0.732-0.045-0.488 0.134-1.117 0.43-1.509-0.023-0.223 0-0.49 0.090-0.803 0.158-0.555 0.413-0.874 0.686-1.031l0.77-2.119c0.092-0.256 0.332-0.429 0.603-0.438l8.154-0.275c0.040-0.329 0.322-0.585 0.661-0.585 0.369 0 0.667 0.298 0.667 0.667v0.563c0 0.359-0.285 0.654-0.645 0.667l-8.342 0.281-0.734 2.018c-0.078 0.215-0.257 0.367-0.465 0.419-0.055 0.111-0.105 0.285-0.117 0.409 0.119 0.122 0.189 0.289 0.189 0.464 0 0.061-0.008 0.124-0.026 0.185-0.068 0.237-0.256 0.408-0.479 0.464-0.055 0.111-0.104 0.285-0.117 0.408 0.12 0.122 0.189 0.289 0.189 0.465 0 0.060-0.008 0.121-0.025 0.182-0.068 0.237-0.256 0.409-0.48 0.465-0.055 0.111-0.104 0.285-0.117 0.408 0.139 0.143 0.211 0.345 0.183 0.553-0.044 0.328-0.322 0.574-0.654 0.578-2.512 0.026-3.438 0.033-3.793 0.033z"></path>
<path d="M17.018 19.507c-0.029 0-0.057-0.001-0.086-0.003l-3.505-0.023c-0.369-0.003-0.665-0.303-0.662-0.672 0.003-0.366 0.301-0.661 0.667-0.661 0.001 0 0.003 0 0.005 0l3.533 0.025c0.147 0.003 0.267-0.035 0.355-0.121 0.089-0.085 0.138-0.199 0.138-0.322v-1.478c0-0.369 0.298-0.667 0.667-0.667s0.667 0.298 0.667 0.667v1.478c0 0.484-0.201 0.953-0.552 1.288-0.329 0.314-0.772 0.49-1.226 0.49z"></path>
</svg>
