<!-- Generated by IcoMoon.io -->
<svg version="1.1" xmlns="http://www.w3.org/2000/svg" width="32" height="32" viewBox="0 0 32 32">
<title>hand_one_finger_swipe_right</title>
<path d="M16.524 5.003l-2.247 1.78c-0.289 0.229-0.337 0.648-0.109 0.937 0.131 0.166 0.327 0.253 0.523 0.253 0.145 0 0.291-0.047 0.413-0.144l3.441-2.726c0.030-0.024 0.048-0.058 0.073-0.086 0.027-0.030 0.055-0.056 0.077-0.091 0.025-0.040 0.038-0.085 0.054-0.13 0.011-0.031 0.031-0.057 0.037-0.091 0.002-0.008-0.001-0.016 0-0.024s0.007-0.016 0.008-0.025c0.004-0.039-0.007-0.076-0.009-0.115-0.002-0.041 0-0.083-0.010-0.122s-0.030-0.074-0.047-0.111c-0.019-0.042-0.035-0.085-0.063-0.122-0.005-0.007-0.006-0.015-0.011-0.022l-2.726-3.44c-0.231-0.288-0.649-0.338-0.937-0.109s-0.337 0.648-0.109 0.937l1.669 2.105c-4.304-0.54-8.557-0.003-12.142 1.558-0.337 0.147-0.492 0.54-0.345 0.878 0.109 0.251 0.354 0.4 0.612 0.4 0.089 0 0.179-0.018 0.266-0.055 3.406-1.485 7.47-1.977 11.582-1.436z"></path>
<path d="M26.616 6.325c-1.039-1.040-2.732-1.040-3.771 0l-10.059 10.059 1.284-4.982c0.231-1.031-0.415-2.081-1.502-2.44-0.928-0.307-2.129-0.017-2.719 1.306-0.131 0.277-3.229 6.85-3.589 11.654 0.001 0.013 0.068 1.31-0.449 2.551-0.142 0.34 0.019 0.731 0.359 0.872 0.084 0.034 0.171 0.051 0.257 0.051 0.261 0 0.508-0.154 0.615-0.41 0.634-1.522 0.554-3.052 0.548-3.052 0.34-4.466 3.432-11.028 3.469-11.108 0.323-0.725 0.818-0.688 1.089-0.597 0.374 0.124 0.708 0.488 0.624 0.867l-1.887 7.318c-0.007 0.027-0.001 0.054-0.005 0.081-0.006 0.045-0.011 0.089-0.008 0.135 0.003 0.044 0.013 0.084 0.024 0.125 0.011 0.040 0.022 0.079 0.041 0.117 0.021 0.042 0.047 0.078 0.076 0.115 0.017 0.021 0.025 0.047 0.044 0.067 0.010 0.010 0.024 0.014 0.035 0.023 0.033 0.029 0.071 0.050 0.11 0.073s0.078 0.045 0.122 0.059c0.013 0.004 0.023 0.014 0.036 0.018 0.027 0.007 0.054 0.001 0.081 0.005 0.030 0.004 0.058 0.017 0.088 0.017 0.015 0 0.030-0.008 0.045-0.009 0.047-0.003 0.091-0.014 0.136-0.026 0.036-0.010 0.070-0.020 0.105-0.037 0.046-0.022 0.086-0.051 0.126-0.084 0.019-0.015 0.042-0.022 0.060-0.040l11.785-11.785c0.505-0.504 1.38-0.504 1.885 0 0.519 0.52 0.519 1.366 0 1.886l-8.013 8.014c-0.26 0.26-0.26 0.682 0 0.943s0.682 0.26 0.943 0l1.414-1.414c0.505-0.503 1.38-0.503 1.885 0 0.519 0.519 0.519 1.366 0 1.885l-2.357 2.357c-0.26 0.26-0.26 0.682 0 0.943 0.13 0.13 0.301 0.195 0.471 0.195s0.341-0.065 0.471-0.195l1.414-1.414c0.505-0.503 1.38-0.503 1.885 0 0.251 0.253 0.391 0.587 0.391 0.943s-0.139 0.69-0.391 0.943l-2.357 2.357c-0.26 0.26-0.26 0.682 0 0.943 0.13 0.13 0.301 0.195 0.471 0.195s0.341-0.065 0.471-0.195l0.471-0.471c0.518-0.518 1.365-0.518 1.885 0 0.566 0.566 0.031 1.271-0.284 1.591-0.027 0.022-2.766 2.21-5.547 3.113-0.263 0.086-0.533 0.165-0.798 0.242-0.625 0.184-1.215 0.357-1.728 0.607-0.331 0.161-0.467 0.561-0.306 0.892 0.116 0.236 0.353 0.374 0.599 0.374 0.099 0 0.198-0.022 0.293-0.068 0.41-0.201 0.948-0.358 1.517-0.525 0.279-0.082 0.56-0.164 0.836-0.254 3.018-0.982 5.852-3.247 6.023-3.391 0.508-0.508 0.833-1.075 0.939-1.639 0.13-0.698-0.083-1.367-0.602-1.885-0.345-0.345-0.764-0.564-1.205-0.68l0.263-0.263c1.039-1.039 1.039-2.732 0-3.771-0.383-0.383-0.874-0.619-1.391-0.711 0.49-0.996 0.332-2.233-0.495-3.060-0.345-0.345-0.764-0.565-1.205-0.681l4.976-4.976c1.040-1.040 1.040-2.732 0-3.771z"></path>
</svg>
