<!-- Generated by IcoMoon.io -->
<svg version="1.1" xmlns="http://www.w3.org/2000/svg" width="32" height="32" viewBox="0 0 32 32">
<title>hand_touch_click_two_finger</title>
<path d="M17.333 2.575c-1.314 0-2.551 0.482-3.518 1.366-0.158-0.020-0.318-0.033-0.482-0.033-2.89 0-5.242 2.352-5.242 5.242 0 0.369 0.298 0.667 0.667 0.667s0.667-0.298 0.667-0.667c0-2.155 1.753-3.908 3.908-3.908 0.208 0 0.409 0.033 0.609 0.064 0.22 0.036 0.433-0.040 0.583-0.196 0.747-0.775 1.744-1.201 2.809-1.201 2.155 0 3.909 1.753 3.909 3.908 0 0.369 0.298 0.667 0.667 0.667s0.667-0.298 0.667-0.667c0-2.89-2.351-5.242-5.242-5.242z"></path>
<path d="M6.077 9.831c0.369 0 0.667-0.298 0.667-0.667 0-3.593 2.816-6.484 6.411-6.579 0.133-0.004 0.26-0.047 0.369-0.123 1.123-0.798 2.441-1.22 3.81-1.22 3.633 0 6.589 2.956 6.589 6.589 0 0.369 0.298 0.667 0.667 0.667s0.667-0.298 0.667-0.667c0-4.369-3.553-7.923-7.922-7.923-1.581 0-3.103 0.467-4.416 1.351-4.225 0.217-7.507 3.651-7.507 7.905 0 0.369 0.298 0.667 0.667 0.667z"></path>
<path d="M25.333 17.242c-0.488 0-0.939 0.141-1.333 0.371v-0.371c0-1.471-1.197-2.667-2.667-2.667-0.488 0-0.939 0.141-1.333 0.371v-7.038c0-1.471-1.197-2.667-2.667-2.667-1.163 0-2.143 0.752-2.507 1.792-0.426-0.289-0.94-0.458-1.493-0.458-1.471 0-2.667 1.196-2.667 2.667v11.559l-2.615-4.431c-0.566-0.893-1.765-1.176-2.786-0.664-0.872 0.439-1.518 1.493-1 2.846 0.103 0.289 2.561 7.128 5.704 10.779 0.010 0.008 0.974 0.878 1.486 2.121 0.106 0.258 0.355 0.413 0.617 0.413 0.085 0 0.171-0.016 0.254-0.051 0.341-0.139 0.503-0.53 0.363-0.87-0.627-1.522-1.762-2.547-1.771-2.547-2.917-3.397-5.372-10.224-5.402-10.307-0.285-0.742 0.096-1.066 0.348-1.193 0.353-0.178 0.846-0.155 1.054 0.173l3.841 6.509c0.014 0.024 0.037 0.039 0.054 0.060 0.028 0.037 0.057 0.072 0.092 0.102 0.031 0.027 0.064 0.047 0.099 0.067 0.039 0.023 0.077 0.043 0.121 0.058 0.040 0.013 0.081 0.019 0.123 0.025 0.030 0.004 0.056 0.017 0.087 0.017 0.016 0 0.029-0.008 0.045-0.009 0.041-0.003 0.081-0.014 0.121-0.025 0.046-0.012 0.089-0.023 0.131-0.044 0.013-0.006 0.027-0.006 0.040-0.013 0.025-0.015 0.039-0.038 0.061-0.055 0.036-0.028 0.070-0.055 0.1-0.090 0.028-0.033 0.050-0.068 0.071-0.105s0.040-0.072 0.054-0.113c0.015-0.044 0.021-0.088 0.027-0.134 0.003-0.027 0.016-0.051 0.016-0.079v-14.001c0-0.735 0.598-1.333 1.333-1.333s1.333 0.598 1.333 1.333v8.667c0 0.369 0.298 0.667 0.667 0.667s0.667-0.298 0.667-0.667v-10.001c0-0.735 0.598-1.333 1.333-1.333s1.333 0.598 1.333 1.333v11.334c0 0.369 0.298 0.667 0.667 0.667s0.667-0.298 0.667-0.667v-2c0-0.736 0.598-1.334 1.333-1.334s1.333 0.598 1.333 1.334v3.333c0 0.369 0.298 0.667 0.667 0.667s0.667-0.298 0.667-0.667v-0.667c0-0.736 0.598-1.333 1.333-1.333 0.801 0 0.921 0.875 0.925 1.324-0.004 0.035-0.391 3.512-1.72 6.125-1.029 2.019-1.492 3.866-1.699 5.059-0.064 0.363 0.18 0.708 0.542 0.771 0.039 0.008 0.077 0.010 0.116 0.010 0.318 0 0.599-0.228 0.655-0.552 0.193-1.103 0.621-2.811 1.574-4.684 1.44-2.829 1.841-6.434 1.862-6.658-0-1.657-0.884-2.729-2.254-2.729z"></path>
</svg>
