<!-- Generated by IcoMoon.io -->
<svg version="1.1" xmlns="http://www.w3.org/2000/svg" width="32" height="32" viewBox="0 0 32 32">
<title>hand_two_finger_swipe_right_end</title>
<path d="M15.19 4.709l-2.247 1.78c-0.288 0.229-0.337 0.648-0.109 0.937 0.131 0.166 0.327 0.253 0.523 0.253 0.145 0 0.291-0.047 0.413-0.144l3.441-2.726c0.030-0.023 0.047-0.057 0.072-0.085 0.027-0.030 0.056-0.057 0.078-0.092 0.025-0.040 0.038-0.085 0.054-0.13 0.011-0.031 0.031-0.057 0.038-0.091 0.002-0.008-0.001-0.016 0-0.024s0.007-0.016 0.008-0.025c0.004-0.039-0.007-0.076-0.009-0.115-0.002-0.041 0-0.083-0.010-0.122s-0.030-0.074-0.047-0.111c-0.019-0.042-0.035-0.085-0.063-0.122-0.005-0.007-0.006-0.015-0.011-0.022l-2.726-3.44c-0.23-0.289-0.648-0.338-0.937-0.109s-0.337 0.648-0.109 0.937l1.668 2.105c-4.303-0.539-8.556-0.003-12.141 1.558-0.337 0.147-0.492 0.54-0.345 0.878 0.109 0.251 0.354 0.4 0.612 0.4 0.089 0 0.179-0.018 0.266-0.055 3.405-1.483 7.47-1.977 11.582-1.437z"></path>
<path d="M28.112 8.861c-0.82-0.821-2.047-0.984-3.040-0.507-0.097-0.506-0.341-0.989-0.732-1.379-1.039-1.039-2.732-1.039-3.771 0l-9.116 9.116 1.284-4.981c0.23-1.031-0.415-2.081-1.502-2.44-0.929-0.305-2.13-0.017-2.719 1.306-0.131 0.277-3.229 6.85-3.589 11.654 0.001 0.013 0.068 1.31-0.449 2.551-0.142 0.34 0.019 0.731 0.359 0.872 0.084 0.034 0.171 0.051 0.257 0.051 0.261 0 0.508-0.154 0.615-0.41 0.634-1.522 0.554-3.052 0.548-3.052 0.34-4.467 3.432-11.029 3.469-11.109 0.323-0.725 0.818-0.687 1.089-0.597 0.374 0.124 0.708 0.488 0.624 0.867l-1.887 7.318c-0.007 0.027-0.001 0.054-0.005 0.081-0.006 0.045-0.011 0.089-0.008 0.135 0.003 0.044 0.013 0.084 0.024 0.125 0.011 0.040 0.022 0.079 0.041 0.117 0.021 0.042 0.047 0.078 0.076 0.115 0.017 0.021 0.025 0.047 0.044 0.067 0.010 0.010 0.024 0.014 0.035 0.023 0.033 0.029 0.071 0.050 0.11 0.073s0.078 0.045 0.122 0.059c0.013 0.004 0.023 0.014 0.036 0.018 0.027 0.007 0.054 0.001 0.081 0.005 0.030 0.004 0.058 0.017 0.088 0.017 0.015 0 0.030-0.008 0.045-0.009 0.046-0.003 0.089-0.013 0.133-0.026 0.037-0.010 0.073-0.021 0.109-0.038 0.045-0.022 0.083-0.050 0.122-0.081 0.020-0.016 0.044-0.023 0.063-0.042l10.842-10.842c0.521-0.519 1.365-0.519 1.885 0 0.519 0.52 0.519 1.366 0 1.886l-7.070 7.070c-0.26 0.26-0.26 0.682 0 0.943s0.682 0.26 0.943 0l8.013-8.013c0.519-0.518 1.366-0.521 1.887 0 0.519 0.519 0.519 1.365 0 1.885l-8.957 8.957c-0.26 0.26-0.26 0.682 0 0.943 0.13 0.13 0.301 0.195 0.471 0.195s0.341-0.065 0.471-0.195l1.414-1.414c0.505-0.503 1.38-0.503 1.885 0 0.253 0.251 0.391 0.586 0.391 0.943 0 0.355-0.139 0.69-0.391 0.943l-2.357 2.357c-0.26 0.26-0.26 0.682 0 0.943 0.13 0.13 0.301 0.195 0.471 0.195s0.341-0.065 0.471-0.195l0.471-0.471c0.505-0.503 1.38-0.503 1.885 0 0.566 0.566 0.031 1.269-0.284 1.59-0.027 0.022-2.766 2.21-5.546 3.115-0.339 0.109-0.663 0.18-0.971 0.247-0.484 0.107-0.985 0.216-1.46 0.451-0.33 0.163-0.466 0.563-0.303 0.892 0.117 0.236 0.353 0.372 0.599 0.372 0.099 0 0.199-0.022 0.294-0.069 0.329-0.161 0.712-0.246 1.155-0.342 0.349-0.077 0.715-0.159 1.098-0.283 3.018-0.983 5.852-3.249 6.023-3.392 1.173-1.173 1.305-2.556 0.337-3.523-0.345-0.345-0.764-0.564-1.205-0.68l0.263-0.263c0.504-0.504 0.781-1.173 0.781-1.885 0-0.714-0.277-1.383-0.781-1.885-0.34-0.34-0.767-0.555-1.22-0.666l5.935-5.935c1.039-1.040 1.039-2.731 0-3.77z"></path>
</svg>
