<!-- Generated by IcoMoon.io -->
<svg version="1.1" xmlns="http://www.w3.org/2000/svg" width="32" height="32" viewBox="0 0 32 32">
<title>hand_two_finger_swipe_right</title>
<path d="M30.594 7.335c0 0 0-0.001 0-0.001v0c0-0.085-0.018-0.169-0.050-0.249-0.014-0.034-0.038-0.061-0.057-0.092-0.023-0.037-0.038-0.078-0.069-0.111l-2.441-2.652c-0.249-0.27-0.669-0.286-0.943-0.038-0.271 0.249-0.288 0.671-0.039 0.942l1.412 1.533h-6.34c-0.369 0-0.667 0.298-0.667 0.667s0.298 0.667 0.667 0.667h6.341l-1.412 1.535c-0.249 0.271-0.232 0.692 0.039 0.941 0.129 0.119 0.29 0.176 0.452 0.176 0.18 0 0.359-0.072 0.491-0.215l2.441-2.652c0.029-0.031 0.043-0.070 0.065-0.105 0.020-0.033 0.046-0.061 0.060-0.097 0.032-0.079 0.050-0.163 0.050-0.247z"></path>
<path d="M25.333 17.333c-0.488 0-0.939 0.141-1.333 0.371v-0.371c0-1.471-1.197-2.667-2.667-2.667-0.488 0-0.939 0.141-1.333 0.371v-8.371c0-1.471-1.197-2.667-2.667-2.667-1.163 0-2.143 0.752-2.507 1.792-0.426-0.289-0.94-0.458-1.493-0.458-1.471 0-2.667 1.196-2.667 2.667v12.892l-2.615-4.429c-0.566-0.893-1.763-1.182-2.787-0.664-0.872 0.439-1.518 1.493-1 2.846 0.103 0.289 2.561 7.126 5.705 10.78 0.010 0.008 0.968 0.863 1.485 2.119 0.106 0.258 0.355 0.413 0.617 0.413 0.085 0 0.171-0.016 0.254-0.051 0.341-0.139 0.503-0.53 0.363-0.87-0.627-1.522-1.762-2.546-1.771-2.546 0 0 0 0 0 0.001-2.917-3.4-5.372-10.226-5.402-10.309-0.285-0.743 0.096-1.066 0.348-1.193 0.352-0.178 0.846-0.155 1.053 0.173l3.841 6.508c0.014 0.024 0.037 0.038 0.054 0.059 0.029 0.038 0.058 0.073 0.094 0.104 0.030 0.025 0.061 0.044 0.093 0.063 0.041 0.025 0.082 0.046 0.128 0.061 0.037 0.012 0.074 0.017 0.113 0.023 0.032 0.005 0.060 0.019 0.094 0.019 0.017 0 0.031-0.008 0.048-0.010 0.039-0.003 0.076-0.013 0.115-0.023 0.047-0.012 0.092-0.023 0.135-0.045 0.013-0.006 0.027-0.006 0.040-0.013 0.025-0.015 0.039-0.038 0.061-0.055 0.036-0.028 0.070-0.055 0.1-0.090 0.028-0.033 0.050-0.068 0.071-0.105s0.040-0.072 0.054-0.113c0.015-0.044 0.021-0.088 0.027-0.134 0.003-0.027 0.016-0.051 0.016-0.079v-15.333c0-0.735 0.598-1.333 1.333-1.333s1.333 0.598 1.333 1.333v10c0 0.369 0.298 0.667 0.667 0.667s0.667-0.298 0.667-0.667v-11.333c0-0.735 0.598-1.333 1.333-1.333s1.333 0.598 1.333 1.333v12.667c0 0.369 0.298 0.667 0.667 0.667s0.667-0.298 0.667-0.667v-2c0-0.736 0.598-1.333 1.333-1.333s1.333 0.598 1.333 1.333v3.333c0 0.369 0.298 0.667 0.667 0.667s0.667-0.298 0.667-0.667v-0.667c0-0.736 0.598-1.333 1.333-1.333 0.801 0 0.921 0.875 0.925 1.325-0.004 0.035-0.393 3.518-1.72 6.124-1.029 2.019-1.492 3.866-1.699 5.059-0.064 0.363 0.18 0.708 0.542 0.771 0.039 0.008 0.077 0.010 0.116 0.010 0.318 0 0.599-0.228 0.655-0.552 0.193-1.103 0.621-2.811 1.574-4.684 1.44-2.828 1.841-6.432 1.862-6.656 0-1.659-0.884-2.73-2.254-2.73z"></path>
</svg>
