<svg version="1.1" xmlns="http://www.w3.org/2000/svg" width="32" height="32" viewBox="0 0 32 32">
<title>hand_fingers_grab_touch</title>
<path d="M24 9.333c-0.488 0-0.939 0.141-1.333 0.371v-3.038c0-1.471-1.197-2.667-2.667-2.667-0.488 0-0.939 0.141-1.333 0.371v-0.371c0-1.471-1.197-2.667-2.667-2.667s-2.667 1.196-2.667 2.667v0.371c-0.394-0.23-0.845-0.371-1.333-0.371-1.471 0-2.667 1.196-2.667 2.667v12.892l-2.615-4.431c-0.292-0.46-0.779-0.764-1.369-0.854-0.684-0.103-1.398 0.091-1.908 0.52-0.768 0.649-0.962 1.753-0.51 2.518 0.103 0.289 2.561 7.126 5.708 10.783 0.014 0.012 1.425 1.267 1.738 2.93 0.060 0.32 0.34 0.543 0.654 0.543 0.041 0 0.082-0.004 0.124-0.012 0.362-0.068 0.6-0.417 0.532-0.779-0.399-2.122-2.093-3.619-2.103-3.619-2.917-3.4-5.372-10.225-5.446-10.402-0.18-0.314-0.111-0.711 0.165-0.943 0.213-0.18 0.545-0.264 0.845-0.221 0.118 0.018 0.333 0.075 0.436 0.237l3.841 6.509c0.014 0.024 0.037 0.039 0.054 0.060 0.028 0.037 0.056 0.072 0.092 0.102 0.031 0.027 0.064 0.047 0.099 0.067 0.039 0.023 0.077 0.043 0.121 0.058 0.040 0.013 0.080 0.019 0.122 0.025 0.030 0.004 0.056 0.018 0.087 0.018 0.016 0 0.029-0.008 0.045-0.009 0.042-0.003 0.081-0.014 0.122-0.025 0.045-0.012 0.089-0.023 0.13-0.044 0.013-0.006 0.027-0.006 0.040-0.014 0.025-0.015 0.039-0.038 0.061-0.055 0.036-0.028 0.070-0.055 0.1-0.090 0.028-0.033 0.050-0.068 0.071-0.105s0.040-0.072 0.054-0.113c0.015-0.044 0.021-0.088 0.027-0.134 0.003-0.027 0.016-0.051 0.016-0.079v-15.333c0-0.735 0.598-1.333 1.333-1.333s1.333 0.598 1.333 1.333v10c0 0.369 0.298 0.667 0.667 0.667s0.667-0.298 0.667-0.667v-12.667c0-0.735 0.598-1.333 1.333-1.333s1.333 0.598 1.333 1.333v12.667c0 0.369 0.298 0.667 0.667 0.667s0.667-0.298 0.667-0.667v-10c0-0.735 0.598-1.333 1.333-1.333s1.333 0.598 1.333 1.333v11.333c0 0.369 0.298 0.667 0.667 0.667s0.667-0.298 0.667-0.667v-6c0-0.735 0.598-1.333 1.333-1.333 0.831 0 0.921 0.977 0.921 1.374-0.094 2.82-0.585 10.605-1.712 12.732-1.35 2.551-1.734 5.085-1.837 6.056-0.039 0.366 0.227 0.694 0.592 0.733 0.023 0.003 0.048 0.004 0.072 0.004 0.336 0 0.625-0.254 0.661-0.596 0.095-0.895 0.449-3.228 1.69-5.573 1.501-2.833 1.853-12.885 1.867-13.334 0-1.658-0.884-2.73-2.254-2.73z"></path>
</svg>
