<!-- Generated by IcoMoon.io -->
<svg version="1.1" xmlns="http://www.w3.org/2000/svg" width="32" height="32" viewBox="0 0 32 32">
<title>hand_three_finger_swipe_right</title>
<path d="M25.116 4.489c0.001-0.040 0.007-0.080 0.002-0.119-0.006-0.041-0.023-0.077-0.037-0.116-0.015-0.043-0.027-0.086-0.050-0.126-0.004-0.007-0.005-0.016-0.009-0.023l-2.341-3.622c-0.201-0.311-0.615-0.396-0.922-0.198-0.309 0.2-0.397 0.613-0.198 0.922l1.416 2.191c-4.146-0.928-8.352-0.802-11.999 0.384-0.35 0.114-0.542 0.49-0.428 0.841 0.114 0.349 0.491 0.541 0.841 0.428 3.461-1.128 7.469-1.228 11.431-0.317l-2.345 1.515c-0.309 0.2-0.397 0.613-0.198 0.922 0.128 0.197 0.341 0.305 0.56 0.305 0.125 0 0.25-0.035 0.362-0.107l3.622-2.341c0.008-0.005 0.012-0.014 0.019-0.019 0.014-0.009 0.022-0.023 0.034-0.033 0.094-0.077 0.162-0.176 0.203-0.29 0.004-0.012 0.017-0.017 0.021-0.030 0.002-0.008 0-0.015 0.002-0.023 0.002-0.009 0.009-0.016 0.011-0.025 0.008-0.039 0-0.079 0.002-0.118z"></path>
<path d="M22.84 15.986c-0.578-0.412-1.271-0.503-1.962-0.251-0.449 0.163-0.829 0.445-1.127 0.802l-2.406-6.612c-0.504-1.381-2.039-2.099-3.418-1.593-0.449 0.163-0.829 0.445-1.127 0.803l-0.126-0.346c-0.243-0.669-0.733-1.204-1.379-1.505s-1.369-0.333-2.039-0.089c-0.669 0.243-1.204 0.733-1.505 1.378-0.173 0.37-0.246 0.765-0.241 1.161-0.513-0.129-1.051-0.103-1.558 0.081-0.669 0.243-1.204 0.733-1.505 1.378s-0.333 1.37-0.089 2.039l2.874 7.896c-0.636-0.433-1.49-0.412-2.153 0.074-0.682 0.5-1.227 1.577-0.71 3.094 0.064 0.195 1.611 4.803 5.175 7.397 0.119 0.086 0.256 0.128 0.392 0.128 0.206 0 0.409-0.095 0.54-0.275 0.217-0.297 0.151-0.714-0.147-0.931-3.21-2.336-4.678-6.693-4.695-6.742-0.243-0.714-0.156-1.31 0.234-1.595 0.212-0.152 0.465-0.169 0.607-0.065l1.216 0.986c0.21 0.169 0.372 0.393 0.469 0.645l0.991 2.559c0.045 0.118 0.127 0.205 0.22 0.277 0.020 0.016 0.038 0.029 0.060 0.042 0.102 0.062 0.214 0.104 0.336 0.105 0.002 0 0.004 0.002 0.006 0.002 0.075 0 0.153-0.013 0.228-0.040 0.003-0.001 0.004-0.003 0.007-0.004s0.004-0 0.006-0.001c0.037-0.014 0.063-0.041 0.096-0.061 0.042-0.025 0.088-0.045 0.122-0.078 0.029-0.027 0.045-0.062 0.068-0.094 0.028-0.038 0.060-0.072 0.079-0.114 0.016-0.036 0.019-0.077 0.029-0.115 0.011-0.044 0.028-0.086 0.030-0.132s-0.013-0.091-0.021-0.137c-0.007-0.039-0.004-0.079-0.018-0.117l-0.004-0.012c-0-0-0-0.001-0-0.001l-0.003-0.008-4.781-13.135c-0.122-0.335-0.105-0.697 0.045-1.019s0.417-0.568 0.753-0.689c0.333-0.121 0.696-0.106 1.019 0.044s0.567 0.418 0.69 0.752l2.965 8.144c0.044 0.122 0.127 0.213 0.222 0.287 0.021 0.016 0.039 0.031 0.061 0.045 0.1 0.061 0.211 0.101 0.33 0.103 0.005 0 0.008 0.004 0.012 0.004 0.075 0 0.153-0.013 0.228-0.040 0.346-0.126 0.525-0.508 0.398-0.854l-2.964-8.143c-0-0-0-0.001-0.001-0.001l-0.456-1.252c-0.122-0.335-0.105-0.697 0.045-1.019s0.417-0.568 0.752-0.689c0.335-0.121 0.696-0.105 1.020 0.044 0.323 0.151 0.568 0.418 0.689 0.753l3.876 10.65c0.044 0.122 0.127 0.213 0.222 0.287 0.021 0.017 0.039 0.031 0.062 0.045 0.1 0.061 0.211 0.101 0.33 0.103 0.005 0 0.008 0.004 0.012 0.004 0.075 0 0.153-0.013 0.229-0.040 0.345-0.126 0.523-0.508 0.398-0.854l-2.965-8.145c-0.122-0.334-0.106-0.696 0.044-1.019s0.418-0.568 0.753-0.69c0.689-0.248 1.458 0.107 1.71 0.797l3.419 9.398c0.098 0.271 0.354 0.439 0.626 0.439 0.075 0 0.152-0.013 0.228-0.040 0.346-0.125 0.525-0.508 0.398-0.854l-0.228-0.628c-0.121-0.335-0.105-0.697 0.044-1.019 0.151-0.322 0.418-0.566 0.753-0.689 0.277-0.098 0.508-0.075 0.731 0.083 0.243 0.175 0.461 0.499 0.591 0.846 0.008 0.034 0.835 3.432 0.479 6.342-0.16 1.303-0.176 2.587-0.049 3.925 0.034 0.346 0.323 0.604 0.663 0.604 0.022 0 0.043-0.001 0.064-0.003 0.367-0.035 0.635-0.361 0.602-0.727-0.119-1.241-0.104-2.431 0.044-3.638 0.385-3.15-0.471-6.676-0.529-6.892-0.246-0.676-0.623-1.208-1.089-1.543z"></path>
</svg>
