<!-- Generated by IcoMoon.io -->
<svg version="1.1" xmlns="http://www.w3.org/2000/svg" width="32" height="32" viewBox="0 0 32 32">
<title>hand_three_finger_swipe_scroll_up</title>
<path d="M10.197 2.701l0.47-0.451v3.77c0 0.369 0.298 0.667 0.667 0.667s0.667-0.298 0.667-0.667v-3.77l0.47 0.451c0.13 0.124 0.296 0.185 0.462 0.185 0.175 0 0.35-0.069 0.481-0.205 0.255-0.266 0.246-0.687-0.019-0.943l-1.598-1.533c-0.027-0.026-0.061-0.038-0.091-0.059-0.039-0.027-0.074-0.058-0.119-0.076-0.161-0.066-0.342-0.066-0.503 0-0.045 0.018-0.080 0.049-0.119 0.077-0.030 0.021-0.064 0.032-0.091 0.058l-1.598 1.533c-0.266 0.255-0.274 0.677-0.020 0.943s0.677 0.273 0.943 0.020z"></path>
<path d="M15.068 2.912c0.163 0 0.327-0.060 0.456-0.18l0.475-0.446v2.459c0 0.369 0.298 0.667 0.667 0.667s0.667-0.298 0.667-0.667v-2.459l0.474 0.445c0.268 0.251 0.689 0.24 0.943-0.029 0.253-0.268 0.24-0.69-0.029-0.942l-1.598-1.501c-0.258-0.241-0.658-0.24-0.913-0.001l-1.599 1.501c-0.268 0.253-0.282 0.675-0.030 0.943 0.132 0.14 0.309 0.21 0.486 0.21z"></path>
<path d="M20.865 4.012l0.469-0.45v3.769c0 0.369 0.298 0.667 0.667 0.667s0.667-0.298 0.667-0.667v-3.769l0.469 0.45c0.13 0.124 0.296 0.186 0.462 0.186 0.175 0 0.35-0.068 0.481-0.205 0.255-0.266 0.247-0.687-0.018-0.943l-1.598-1.533c-0.029-0.027-0.065-0.040-0.097-0.062-0.038-0.026-0.072-0.056-0.115-0.073-0.161-0.066-0.341-0.066-0.502 0-0.043 0.017-0.077 0.048-0.115 0.073-0.032 0.021-0.068 0.034-0.097 0.062l-1.598 1.533c-0.266 0.255-0.273 0.677-0.018 0.943 0.254 0.266 0.676 0.274 0.943 0.020z"></path>
<path d="M24 18.667c-0.488 0-0.939 0.141-1.333 0.371v-7.038c0-1.471-1.197-2.667-2.667-2.667-0.488 0-0.939 0.141-1.333 0.371v-0.371c0-1.471-1.197-2.667-2.667-2.667-1.163 0-2.143 0.752-2.507 1.792-0.426-0.289-0.94-0.458-1.493-0.458-1.471 0-2.667 1.196-2.667 2.667v8.403c-0.449-0.624-1.26-0.897-2.047-0.669-0.813 0.237-1.693 1.063-1.726 2.664-0.008 0.241-0.155 5.937 3.074 9.69 0.004 0.004 0.394 0.354 0.807 0.926 0.13 0.18 0.334 0.275 0.54 0.275 0.135 0 0.273-0.042 0.391-0.128 0.298-0.216 0.365-0.633 0.148-0.931-0.479-0.66-0.933-1.077-0.94-1.077-2.822-3.29-2.69-8.658-2.688-8.719 0.016-0.755 0.301-1.285 0.765-1.419 0.247-0.073 0.492-0.003 0.592 0.147l0.806 1.34c0.139 0.232 0.215 0.497 0.221 0.767l0.056 2.743c0.001 0.022 0.012 0.041 0.015 0.063 0.039 0.331 0.31 0.591 0.651 0.591 0.002 0 0.004-0.001 0.007-0.001s0.005 0.001 0.007 0.001c0.044-0.001 0.081-0.019 0.122-0.027 0.044-0.009 0.090-0.012 0.13-0.029 0.036-0.016 0.063-0.043 0.095-0.064 0.039-0.026 0.082-0.047 0.115-0.081 0.027-0.028 0.042-0.064 0.064-0.095 0.026-0.039 0.058-0.073 0.076-0.117 0.017-0.041 0.018-0.088 0.027-0.133 0.008-0.040 0.024-0.077 0.024-0.12v-14c0-0.735 0.598-1.333 1.333-1.333s1.333 0.598 1.333 1.333v8.667c0 0.369 0.298 0.667 0.667 0.667s0.667-0.298 0.667-0.667v-10c0-0.735 0.598-1.333 1.333-1.333s1.333 0.598 1.333 1.333v11.333c0 0.369 0.298 0.667 0.667 0.667s0.667-0.298 0.667-0.667v-8.667c0-0.735 0.598-1.333 1.333-1.333s1.333 0.598 1.333 1.333v10c0 0.369 0.298 0.667 0.667 0.667s0.667-0.298 0.667-0.667v-0.667c0-0.736 0.598-1.333 1.333-1.333 0.801 0 0.921 0.875 0.925 1.325-0.004 0.035-0.393 3.518-1.72 6.124-0.596 1.169-1.051 2.371-1.389 3.672-0.092 0.357 0.122 0.72 0.478 0.814 0.056 0.014 0.113 0.021 0.168 0.021 0.297 0 0.568-0.199 0.646-0.499 0.314-1.207 0.734-2.32 1.285-3.404 1.44-2.828 1.841-6.432 1.862-6.656-0-1.659-0.884-2.731-2.254-2.731z"></path>
</svg>
