<!-- Generated by IcoMoon.io -->
<svg version="1.1" xmlns="http://www.w3.org/2000/svg" width="32" height="32" viewBox="0 0 32 32">
<title>hand_two_finger_swipe_left2</title>
<path d="M13.047 6.133c0.006 0.036 0.003 0.072 0.015 0.107 0.002 0.007 0.009 0.012 0.011 0.019s0.002 0.016 0.005 0.024c0.007 0.015 0.023 0.021 0.030 0.036 0.045 0.088 0.108 0.162 0.187 0.222 0.022 0.017 0.041 0.034 0.065 0.048 0.017 0.010 0.028 0.026 0.045 0.034l3.886 1.84c0.092 0.044 0.189 0.064 0.285 0.064 0.249 0 0.488-0.141 0.603-0.381 0.158-0.333 0.016-0.731-0.318-0.888l-2.488-1.178c3.81-1.369 7.792-1.758 11.36-1.087 0.355 0.064 0.711-0.169 0.779-0.531s-0.169-0.711-0.531-0.779c-3.765-0.712-7.946-0.317-11.942 1.097l1.12-2.29c0.161-0.331 0.025-0.73-0.306-0.892s-0.73-0.024-0.892 0.306l-1.871 3.823c-0.004 0.008-0.003 0.016-0.006 0.024-0.019 0.043-0.026 0.089-0.036 0.136-0.008 0.039-0.021 0.075-0.022 0.114-0.001 0.044 0.011 0.088 0.019 0.132z"></path>
<path d="M28.543 21.59c-0.645-0.913-1.548-2.422-2.199-4.425-0.982-3.018-3.247-5.851-3.391-6.023-1.175-1.174-2.559-1.305-3.525-0.337-0.338 0.337-0.563 0.753-0.682 1.203l-0.26-0.261c-1.008-1.008-2.764-1.007-3.771 0-0.338 0.338-0.564 0.754-0.682 1.203l-5.917-5.918c-1.040-1.040-2.731-1.040-3.771 0-0.828 0.828-0.985 2.065-0.495 3.061-0.517 0.092-1.008 0.328-1.391 0.711-0.504 0.503-0.781 1.173-0.781 1.885s0.277 1.382 0.781 1.885l9.116 9.117-4.982-1.285c-1.027-0.229-2.080 0.415-2.439 1.503-0.307 0.927-0.018 2.129 1.305 2.72 0.277 0.131 6.85 3.228 11.654 3.587 0.014 0.003 1.31-0.069 2.551 0.449 0.085 0.034 0.171 0.051 0.257 0.051 0.26 0 0.509-0.154 0.616-0.41 0.141-0.34-0.019-0.731-0.359-0.872-1.538-0.641-3.082-0.549-3.052-0.548-4.466-0.339-11.028-3.431-11.108-3.469-0.726-0.323-0.686-0.822-0.597-1.089 0.124-0.374 0.488-0.706 0.867-0.624l7.318 1.887c0.029 0.008 0.056 0.002 0.085 0.006s0.055 0.016 0.084 0.016c0.014 0 0.027-0.007 0.040-0.008 0.052-0.003 0.101-0.014 0.15-0.029 0.031-0.009 0.061-0.018 0.091-0.032 0.049-0.023 0.091-0.054 0.133-0.088 0.018-0.015 0.040-0.021 0.057-0.038 0.009-0.009 0.012-0.022 0.021-0.031 0.031-0.035 0.054-0.075 0.077-0.116 0.022-0.039 0.043-0.076 0.057-0.117 0.005-0.014 0.015-0.024 0.019-0.038 0.007-0.027 0.001-0.054 0.005-0.081 0.006-0.045 0.011-0.089 0.008-0.135-0.003-0.044-0.013-0.084-0.024-0.125-0.011-0.040-0.022-0.079-0.041-0.117-0.021-0.042-0.047-0.078-0.076-0.115-0.017-0.021-0.025-0.047-0.044-0.067l-10.842-10.843c-0.252-0.252-0.391-0.587-0.391-0.943s0.139-0.691 0.391-0.943c0.504-0.504 1.381-0.504 1.885 0l7.071 7.071c0.13 0.13 0.301 0.195 0.471 0.195s0.341-0.065 0.471-0.195c0.26-0.26 0.26-0.682 0-0.943l-8.014-8.014c-0.52-0.52-0.52-1.366 0-1.886 0.503-0.504 1.381-0.505 1.886 0l8.956 8.957c0.13 0.13 0.301 0.195 0.471 0.195s0.341-0.065 0.471-0.195c0.26-0.26 0.26-0.682 0-0.943l-1.414-1.415c-0.252-0.252-0.391-0.587-0.391-0.943s0.139-0.691 0.391-0.943c0.504-0.503 1.379-0.505 1.885 0l2.357 2.357c0.13 0.13 0.301 0.195 0.471 0.195s0.341-0.065 0.471-0.195c0.26-0.26 0.26-0.682 0-0.943l-0.471-0.471c-0.251-0.252-0.391-0.587-0.391-0.943s0.139-0.691 0.39-0.943c0.564-0.564 1.271-0.033 1.591 0.283 0.022 0.027 2.207 2.759 3.113 5.546 0.703 2.161 1.681 3.793 2.378 4.781 0.129 0.184 0.336 0.283 0.544 0.283 0.133 0 0.267-0.039 0.384-0.122 0.301-0.211 0.372-0.627 0.161-0.928z"></path>
</svg>
