<!-- Generated by IcoMoon.io -->
<svg version="1.1" xmlns="http://www.w3.org/2000/svg" width="32" height="32" viewBox="0 0 32 32">
<title>hand_two_finger_pinch_zoom_out</title>
<path d="M3.687 8.317c0.043 0.075 0.101 0.141 0.171 0.195s0.149 0.093 0.234 0.116c0.057 0.015 0.115 0.022 0.172 0.022 0 0 0 0 0 0s0 0 0 0 0.002-0.001 0.003-0.001c0.115-0.001 0.229-0.030 0.331-0.089l2.438-1.413c0.319-0.185 0.428-0.592 0.243-0.911s-0.593-0.426-0.911-0.243l-1.046 0.606 1.159-4.35c0.094-0.356-0.117-0.721-0.473-0.816-0.354-0.089-0.72 0.117-0.816 0.473l-1.159 4.35-0.606-1.046c-0.184-0.318-0.593-0.428-0.911-0.243s-0.428 0.592-0.243 0.911l1.412 2.438z"></path>
<path d="M4.043 10.65c-0.043-0.075-0.101-0.141-0.171-0.195-0.034-0.026-0.077-0.038-0.115-0.057-0.040-0.020-0.074-0.047-0.119-0.059-0.014-0.004-0.028 0-0.042-0.002-0.161-0.034-0.325-0.011-0.464 0.070l-2.439 1.413c-0.319 0.184-0.428 0.592-0.243 0.911 0.184 0.32 0.595 0.43 0.911 0.243l1.047-0.606-1.159 4.35c-0.094 0.355 0.117 0.721 0.473 0.816 0.058 0.016 0.115 0.022 0.173 0.022 0.294 0 0.564-0.197 0.643-0.495l1.159-4.35 0.605 1.045c0.124 0.214 0.348 0.333 0.577 0.333 0.113 0 0.229-0.029 0.333-0.090 0.319-0.184 0.428-0.592 0.243-0.911l-1.412-2.437z"></path>
<path d="M31.717 23.867c-1.066-1.439-2.040-4.086-2.425-6.585-0.361-2.351-1.117-4.62-2.247-6.742-0.475-0.897-1.587-1.266-2.594-0.816-0.387 0.175-0.699 0.458-0.904 0.814l-0.411-0.673c-0.526-0.87-1.66-1.175-2.638-0.669-0.329 0.171-0.598 0.423-0.783 0.731l-0.066-0.113c-0.527-0.866-1.667-1.169-2.661-0.655-0.332 0.172-0.602 0.423-0.791 0.728l-3.986-6.739c-0.525-0.868-1.659-1.175-2.637-0.668-0.473 0.245-0.819 0.656-0.973 1.156-0.15 0.485-0.1 0.996 0.137 1.437l4.484 8.441c0.725 1.387 1.441 3.347 1.397 4.837l-4.595-2.231c-1.883-0.711-2.666-0.253-3.314 0.719-0.064 0.098-0.102 0.21-0.11 0.325-0.053 0.801 1.048 2.005 3.249 3.563 0.755 0.587 1.301 1.176 1.829 1.746 1.092 1.178 2.124 2.292 4.564 2.904 3.72 0.931 7.141 5.496 7.176 5.542 0.13 0.176 0.332 0.269 0.535 0.269 0.138 0 0.277-0.043 0.397-0.131 0.296-0.219 0.358-0.637 0.138-0.932-0.15-0.203-3.737-4.992-7.922-6.042-2.056-0.516-2.874-1.398-3.911-2.516-0.538-0.581-1.148-1.24-2.013-1.91-1.225-0.867-2.391-1.909-2.661-2.309 0.242-0.302 0.519-0.38 1.515-0.005l5.353 2.602c0.178 0.089 0.383 0.089 0.562 0.010s0.315-0.234 0.37-0.423c0.693-2.381-0.878-5.68-1.379-6.639l-4.488-8.449c-0.069-0.127-0.083-0.274-0.039-0.415 0.048-0.156 0.159-0.286 0.368-0.394 0.298-0.156 0.665-0.067 0.825 0.197l6.896 11.656c0.131 0.223 0.369 0.354 0.639 0.324l0.139-0.014c0.221-0.021 0.417-0.152 0.522-0.348s0.105-0.432 0.001-0.628l-1.96-3.689c-0.085-0.158-0.066-0.308-0.036-0.406 0.051-0.164 0.169-0.301 0.388-0.415 0.309-0.16 0.691-0.074 0.849 0.186l2.766 4.666c0.133 0.224 0.516 0.335 0.764 0.311 0.22-0.021 0.415-0.15 0.521-0.344s0.108-0.428 0.007-0.624l-1.725-3.347c-0.068-0.127-0.082-0.274-0.039-0.415 0.049-0.157 0.16-0.287 0.37-0.395 0.296-0.156 0.669-0.061 0.828 0.206l2.586 4.225c0.184 0.3 0.57 0.405 0.879 0.242s0.441-0.539 0.299-0.86l-1.086-2.457c-0.060-0.13-0.065-0.279-0.013-0.417 0.057-0.155 0.177-0.28 0.393-0.377 0.305-0.137 0.664-0.031 0.811 0.25 1.061 1.991 1.771 4.117 2.108 6.32 0.421 2.736 1.469 5.552 2.669 7.176 0.221 0.296 0.638 0.355 0.934 0.139 0.295-0.22 0.358-0.637 0.139-0.933z"></path>
</svg>
