<!-- Generated by IcoMoon.io -->
<svg version="1.1" xmlns="http://www.w3.org/2000/svg" width="32" height="32" viewBox="0 0 32 32">
<title>hand_two_finger_swipe_down</title>
<path d="M6.413 16.859l-1.634 1.863c-0.225-4.981 0.739-12.56 2.026-15.129 0.165-0.329 0.032-0.73-0.297-0.895s-0.73-0.033-0.895 0.297c-1.38 2.753-2.392 10.464-2.171 15.691l-1.689-1.604c-0.267-0.254-0.689-0.243-0.943 0.023s-0.242 0.69 0.025 0.943l2.938 2.79c0.003 0.002 0.006 0.003 0.009 0.006 0.047 0.043 0.102 0.074 0.16 0.103 0.017 0.008 0.030 0.022 0.047 0.029 0.076 0.030 0.158 0.047 0.243 0.047 0 0 0 0 0.001 0s0 0 0 0c0.010 0 0.020 0 0.031-0.001 0.001 0 0.001 0 0.001 0 0.015-0.001 0.030-0.001 0.045-0.002 0.043-0.005 0.079-0.026 0.118-0.039 0.037-0.012 0.075-0.018 0.11-0.036 0.045-0.024 0.081-0.058 0.12-0.090 0.025-0.021 0.055-0.033 0.076-0.058l2.682-3.057c0.243-0.277 0.215-0.698-0.062-0.941-0.275-0.241-0.695-0.216-0.94 0.061z"></path>
<path d="M30.798 14.985c-0.245-0.675-0.622-1.209-1.089-1.544-0.575-0.413-1.271-0.503-1.962-0.251-0.458 0.167-0.834 0.454-1.126 0.804l-0.127-0.349c-0.243-0.669-0.733-1.204-1.379-1.505-0.645-0.301-1.372-0.331-2.039-0.089-0.459 0.167-0.835 0.455-1.126 0.805l-3.319-9.12c-0.243-0.669-0.733-1.204-1.379-1.505-0.643-0.3-1.367-0.333-2.040-0.089-1.092 0.398-1.756 1.44-1.742 2.542-0.499-0.126-1.040-0.11-1.559 0.079-1.381 0.503-2.096 2.036-1.594 3.418l3.785 10.401c-0.636-0.434-1.49-0.411-2.152 0.074-0.682 0.5-1.227 1.577-0.71 3.092 0.075 0.229 1.885 5.633 6.201 8.053 0.005 0.003 0.492 0.201 1.078 0.595 0.113 0.078 0.243 0.115 0.372 0.115 0.214 0 0.425-0.103 0.552-0.294 0.207-0.305 0.126-0.719-0.18-0.925-0.673-0.454-1.24-0.693-1.251-0.693 0 0 0 0 0.001 0-3.779-2.126-5.49-7.215-5.51-7.273-0.243-0.714-0.156-1.31 0.234-1.595 0.208-0.152 0.464-0.171 0.607-0.065l1.216 0.986c0.209 0.169 0.372 0.392 0.469 0.645l0.986 2.546c0 0 0 0 0 0l0.005 0.013c0.045 0.118 0.127 0.206 0.22 0.278 0.020 0.016 0.038 0.028 0.059 0.041 0.102 0.063 0.215 0.104 0.336 0.105 0.002 0 0.004 0.002 0.006 0.002 0.075 0 0.152-0.013 0.228-0.040 0.003-0.001 0.004-0.003 0.007-0.004s0.004 0 0.006-0.001c0.038-0.015 0.066-0.043 0.1-0.064 0.040-0.025 0.084-0.043 0.118-0.075s0.053-0.071 0.078-0.107c0.023-0.033 0.053-0.063 0.070-0.1 0.018-0.040 0.022-0.085 0.032-0.128 0.009-0.040 0.026-0.078 0.027-0.12s-0.013-0.083-0.019-0.125c-0.007-0.044-0.004-0.087-0.020-0.13l-5.7-15.661c-0.251-0.691 0.106-1.458 0.797-1.71 0.691-0.248 1.456 0.107 1.708 0.795l3.877 10.652c0.045 0.123 0.128 0.214 0.223 0.289 0.020 0.016 0.037 0.030 0.059 0.043 0.1 0.062 0.211 0.101 0.331 0.103 0.005 0 0.008 0.004 0.013 0.004 0.075 0 0.152-0.013 0.228-0.040 0.346-0.126 0.525-0.508 0.398-0.854l-3.876-10.651c-0.001-0.002-0.002-0.004-0.003-0.006l-0.453-1.246c-0.251-0.691 0.107-1.458 0.797-1.71 0.694-0.254 1.458 0.107 1.71 0.797l4.788 13.156c0.044 0.122 0.127 0.213 0.222 0.287 0.021 0.016 0.039 0.031 0.061 0.044 0.1 0.061 0.211 0.101 0.33 0.103 0.005 0 0.008 0.004 0.013 0.004 0.075 0 0.152-0.013 0.228-0.040 0.346-0.126 0.525-0.508 0.398-0.854l-0.684-1.879c-0.251-0.691 0.107-1.458 0.797-1.71 0.335-0.12 0.699-0.106 1.019 0.045 0.323 0.15 0.568 0.417 0.69 0.752l1.139 3.133c0.099 0.271 0.354 0.439 0.626 0.439 0.075 0 0.152-0.013 0.228-0.040 0.346-0.126 0.525-0.508 0.398-0.854l-0.228-0.626c-0.251-0.691 0.107-1.458 0.797-1.71 0.277-0.1 0.509-0.074 0.731 0.083 0.243 0.175 0.461 0.5 0.591 0.847 0.008 0.035 0.835 3.432 0.479 6.342-0.16 1.303-0.176 2.587-0.049 3.925 0.034 0.346 0.323 0.604 0.663 0.604 0.022 0 0.043-0.001 0.064-0.003 0.367-0.035 0.635-0.361 0.602-0.727-0.119-1.241-0.104-2.431 0.044-3.638 0.385-3.15-0.472-6.675-0.529-6.891z"></path>
</svg>
