<svg version="1.1" xmlns="http://www.w3.org/2000/svg" width="32" height="32" viewBox="0 0 32 32">
<title>hand_papers_payment</title>
<path d="M31.052 7.93c-0.007 0.001-0.017 0-0.026 0h-24.628c-0.271 0-0.515-0.164-0.617-0.415s-0.043-0.539 0.15-0.728l4.030-3.953c0.124-0.122 0.292-0.191 0.467-0.191v0l16.609 0.004c0.176 0 0.344 0.070 0.469 0.193l3.892 3.852c0.193 0.117 0.322 0.329 0.322 0.571 0 0.369-0.298 0.667-0.667 0.667zM8.029 6.596h21.376l-2.643-2.616-16.062-0.004-2.671 2.62z"></path>
<path d="M21.591 29.63c-0.233 0-0.47-0.035-0.708-0.105l-7.747-2.273c-0.353-0.103-0.556-0.474-0.453-0.827s0.475-0.553 0.827-0.452l7.747 2.273c0.301 0.085 0.564 0.063 0.783-0.074 0.199-0.126 0.357-0.346 0.432-0.604 0.129-0.443 0.035-1.031-0.659-1.236l-7.374-2.164c-1.025-0.301-4.655-0.543-8.243 0.039-0.366 0.063-0.706-0.189-0.765-0.551-0.059-0.363 0.188-0.706 0.551-0.764 3.712-0.604 7.515-0.389 8.832-0.003l7.374 2.164c1.457 0.427 1.889 1.777 1.563 2.889-0.168 0.573-0.522 1.055-0.997 1.355-0.348 0.22-0.746 0.332-1.163 0.332z"></path>
<path d="M19.105 31.698c-2.513 0-5.923-0.519-9.467-2.104-0.655-0.29-1.999 0.077-2.89 0.32l-0.493 0.133c-0.355 0.094-0.719-0.121-0.812-0.481-0.092-0.357 0.124-0.72 0.48-0.811l0.473-0.128c1.202-0.328 2.697-0.737 3.786-0.25 5.869 2.622 10.891 2.068 11.962 1.581l7.802-3.557c0.704-0.322 0.63-0.981 0.477-1.319-0.068-0.151-0.456-0.879-1.348-0.471l-5.745 2.619c-0.329 0.151-0.729 0.007-0.883-0.331-0.152-0.335-0.005-0.731 0.331-0.883l5.745-2.619c1.413-0.647 2.633 0.082 3.113 1.131 0.469 1.030 0.231 2.462-1.138 3.086l-7.802 3.557c-0.655 0.298-1.927 0.526-3.591 0.526z"></path>
<path d="M6.064 32h-5.333c-0.369 0-0.667-0.298-0.667-0.667v-9.333c0-0.369 0.298-0.667 0.667-0.667h5.333c0.369 0 0.667 0.298 0.667 0.667v9.333c0 0.369-0.298 0.667-0.667 0.667zM1.398 30.667h4v-8h-4v8z"></path>
<path d="M31.026 13.263h-24.628c-0.271 0-0.515-0.164-0.617-0.415s-0.043-0.539 0.15-0.728l2.691-2.639c0.262-0.258 0.685-0.254 0.943 0.009s0.254 0.685-0.009 0.943l-1.526 1.497h21.375l-1.514-1.499c-0.262-0.259-0.264-0.681-0.005-0.943 0.258-0.262 0.681-0.264 0.943-0.005l2.667 2.639c0.193 0.19 0.25 0.477 0.148 0.727-0.103 0.25-0.346 0.413-0.617 0.413z"></path>
<path d="M31.026 18.596h-24.628c-0.271 0-0.515-0.164-0.617-0.414-0.102-0.251-0.043-0.539 0.15-0.729l2.691-2.639c0.262-0.258 0.685-0.255 0.943 0.009 0.258 0.263 0.254 0.685-0.009 0.943l-1.526 1.497h21.375l-1.514-1.499c-0.262-0.259-0.264-0.681-0.005-0.943 0.258-0.262 0.681-0.264 0.943-0.005l2.667 2.639c0.193 0.19 0.25 0.478 0.148 0.728-0.103 0.25-0.346 0.413-0.617 0.413z"></path>
</svg>
