<svg version="1.1" xmlns="http://www.w3.org/2000/svg" width="32" height="32" viewBox="0 0 32 32">
<title>hand_finger_show_left</title>
<path d="M29.887 22.661c-0.973 0.169-4.311 0.801-6.422 1.876-0.717 0.365-1.5 0.657-2.259 0.892 0.024-0.143 0.039-0.284 0.039-0.418 0-0.663-0.312-1.26-0.807-1.687 0.554-0.489 0.911-1.196 0.911-1.991 0-0.8-0.362-1.511-0.922-2 0.56-0.489 0.922-1.2 0.922-2 0-1.471-1.197-2.667-2.667-2.667h-14.667c-0.735 0-1.333-0.598-1.333-1.333s0.598-1.333 1.333-1.333h10.772c0.017 0.481 0.21 0.934 0.617 1.288 0.495 0.431 1.184 0.648 1.851 0.648 0.523 0 1.034-0.135 1.425-0.406 0.375-0.19 2.030-1.057 2.919-2.044 0.733 0.43 2.116 1.201 3.487 1.749 0.341 0.137 0.729-0.029 0.866-0.372s-0.029-0.73-0.371-0.867c-1.841-0.736-3.785-1.949-3.805-1.961-0.158-0.098-0.348-0.128-0.531-0.077-0.18 0.049-0.331 0.172-0.415 0.338-0.313 0.607-1.797 1.56-2.828 2.089-0.504 0.346-1.339 0.229-1.721-0.103-0.211-0.183-0.24-0.372-0.116-0.621 0.009-0.016 0.943-1.66 2.693-3.87 0.471-0.539 4.552-1.044 6.381 0.062 0.642 0.837 3.086 3.881 4.703 4.026 0.362 0.033 0.69-0.237 0.724-0.605 0.033-0.367-0.238-0.691-0.604-0.723-0.732-0.065-2.56-1.919-3.835-3.6-0.046-0.060-0.1-0.111-0.164-0.153-2.141-1.417-7.243-1.105-8.249 0.164-1.359 1.714-2.231 3.079-2.61 3.705h-11.19c-1.471 0-2.667 1.196-2.667 2.667s1.196 2.667 2.667 2.667h7.037c-0.23 0.394-0.371 0.845-0.371 1.333 0 1.162 0.752 2.143 1.792 2.507-0.289 0.426-0.459 0.94-0.459 1.493 0 1.47 1.196 2.667 2.667 2.667h0.371c-0.23 0.394-0.371 0.846-0.371 1.333 0 1.366 1.067 2.25 2.79 2.25 0.004 0 0.008 0 0.012 0 0.152-0.017 3.757-0.418 6.585-1.858 1.546-0.786 4.135-1.419 6.044-1.749 0.363-0.064 0.607-0.409 0.544-0.771-0.064-0.363-0.415-0.605-0.771-0.544zM12.016 17.333c0-0.736 0.598-1.333 1.333-1.333h5.333c0.736 0 1.333 0.598 1.333 1.333s-0.598 1.333-1.333 1.333h-5.333c-0.735 0-1.333-0.598-1.333-1.333zM13.349 21.333c0-0.736 0.598-1.333 1.333-1.333h4c0.736 0 1.333 0.598 1.333 1.333s-0.598 1.333-1.333 1.333h-4c-0.735 0-1.333-0.598-1.333-1.333zM17.413 26.254c-0.522 0-1.397-0.12-1.397-0.921 0-0.736 0.598-1.333 1.333-1.333h1.281c0.707 0 1.281 0.454 1.281 1.012 0 0.375-0.091 0.796-1.178 1.027-0.001 0-0.002 0.001-0.003 0.001-0.802 0.153-1.332 0.214-1.317 0.214z"></path>
</svg>
