<!-- Generated by IcoMoon.io -->
<svg version="1.1" xmlns="http://www.w3.org/2000/svg" width="32" height="32" viewBox="0 0 32 32">
<title>hand_two_finger_pinch_zoom_in</title>
<path d="M6.951 4.997c0.126 0 0.253-0.036 0.366-0.11 0.308-0.203 0.393-0.616 0.19-0.923l-1.55-2.352c-0.048-0.073-0.11-0.136-0.184-0.185-0.066-0.045-0.14-0.073-0.217-0.092-0.008-0.002-0.014-0.008-0.023-0.010-0.023-0.005-0.045 0.002-0.067 0-0.063-0.006-0.127-0.013-0.191-0.001-0.075 0.014-0.143 0.046-0.208 0.083-0.011 0.006-0.024 0.007-0.035 0.014l-2.353 1.55c-0.308 0.203-0.393 0.616-0.19 0.923s0.617 0.393 0.923 0.19l1.010-0.665-0.908 4.41c-0.074 0.361 0.158 0.713 0.519 0.787 0.045 0.009 0.091 0.014 0.135 0.014 0.31 0 0.587-0.217 0.652-0.533l0.907-4.409 0.665 1.009c0.128 0.195 0.34 0.3 0.557 0.3z"></path>
<path d="M4.298 14.883l-1.009 0.665 0.907-4.411c0.074-0.361-0.158-0.713-0.519-0.787-0.359-0.074-0.713 0.158-0.787 0.519l-0.907 4.409-0.665-1.009c-0.202-0.307-0.616-0.391-0.923-0.19-0.308 0.203-0.393 0.616-0.19 0.923l1.55 2.354c0.048 0.072 0.11 0.135 0.182 0.184s0.154 0.084 0.24 0.102c0.044 0.009 0.089 0.013 0.134 0.013 0 0 0 0 0 0s0 0 0.001 0c0.12 0 0.23-0.041 0.33-0.099 0.011-0.006 0.025-0.004 0.036-0.011l2.353-1.551c0.308-0.203 0.393-0.616 0.19-0.923s-0.615-0.392-0.923-0.19z"></path>
<path d="M31.695 23.867c-1.066-1.439-2.040-4.086-2.425-6.585-0.361-2.351-1.117-4.62-2.247-6.742-0.475-0.897-1.587-1.266-2.594-0.816-0.387 0.175-0.699 0.458-0.904 0.814l-0.411-0.673c-0.527-0.869-1.668-1.175-2.637-0.668-0.332 0.171-0.6 0.423-0.785 0.731l-0.066-0.114c-0.529-0.867-1.672-1.168-2.66-0.655-0.327 0.169-0.6 0.425-0.789 0.73l-3.988-6.74c-0.526-0.868-1.659-1.174-2.637-0.668-0.473 0.245-0.82 0.656-0.974 1.156-0.15 0.484-0.1 0.996 0.137 1.437l4.484 8.44c0.724 1.389 1.44 3.349 1.396 4.837l-4.594-2.23c-1.884-0.711-2.666-0.253-3.314 0.719-0.064 0.098-0.102 0.21-0.11 0.325-0.053 0.801 1.048 2.005 3.249 3.563 0.755 0.587 1.301 1.176 1.829 1.746 1.092 1.178 2.125 2.292 4.565 2.904 3.719 0.931 7.142 5.496 7.176 5.542 0.13 0.176 0.332 0.269 0.535 0.269 0.138 0 0.277-0.043 0.397-0.131 0.296-0.219 0.358-0.637 0.138-0.932-0.15-0.203-3.738-4.992-7.922-6.042-2.056-0.516-2.875-1.398-3.911-2.516-0.538-0.581-1.149-1.24-2.013-1.91-1.225-0.867-2.39-1.909-2.661-2.309 0.242-0.302 0.519-0.38 1.515-0.005l5.352 2.602c0.178 0.089 0.382 0.089 0.562 0.010s0.315-0.234 0.37-0.423c0.693-2.378-0.878-5.679-1.378-6.639l-4.489-8.449c-0.068-0.127-0.082-0.274-0.038-0.415 0.048-0.156 0.159-0.286 0.368-0.394 0.301-0.156 0.665-0.066 0.825 0.197l6.896 11.656c0.131 0.224 0.396 0.344 0.639 0.324l0.138-0.014c0.221-0.022 0.418-0.152 0.522-0.348 0.105-0.196 0.105-0.432 0.001-0.628l-1.96-3.69c-0.085-0.156-0.066-0.306-0.035-0.404 0.049-0.165 0.168-0.302 0.388-0.416 0.316-0.162 0.689-0.075 0.848 0.186l2.766 4.666c0.131 0.224 0.512 0.335 0.764 0.311 0.22-0.021 0.415-0.15 0.522-0.344 0.105-0.194 0.108-0.428 0.007-0.624l-1.725-3.347c-0.069-0.128-0.082-0.275-0.039-0.416 0.048-0.156 0.16-0.286 0.369-0.393 0.298-0.155 0.663-0.068 0.829 0.206l2.586 4.225c0.184 0.3 0.569 0.405 0.879 0.242s0.441-0.539 0.299-0.86l-1.086-2.457c-0.060-0.13-0.065-0.279-0.013-0.417 0.057-0.155 0.177-0.28 0.392-0.377 0.305-0.137 0.665-0.030 0.813 0.25 1.061 1.991 1.771 4.117 2.108 6.32 0.421 2.736 1.469 5.552 2.669 7.176 0.221 0.296 0.638 0.355 0.934 0.139 0.296-0.22 0.358-0.637 0.139-0.933z"></path>
</svg>
