<!-- Generated by IcoMoon.io -->
<svg version="1.1" xmlns="http://www.w3.org/2000/svg" width="32" height="32" viewBox="0 0 32 32">
<title>hand_touch_one_finger</title>
<path d="M25.333 16c-0.488 0-0.939 0.141-1.333 0.371v-0.371c0-1.471-1.197-2.667-2.667-2.667-0.553 0-1.066 0.169-1.493 0.459-0.364-1.040-1.345-1.792-2.507-1.792-0.488 0-0.94 0.141-1.333 0.371v-7.037c0-1.471-1.196-2.667-2.667-2.667s-2.667 1.196-2.667 2.667v14.225l-2.615-4.43c-0.566-0.892-1.763-1.18-2.787-0.663-0.872 0.438-1.518 1.493-1 2.846 0.103 0.289 2.561 7.126 5.656 10.732 0.743 0.807 1.963 2.431 2.069 3.352 0.039 0.34 0.327 0.59 0.661 0.59 0.025 0 0.051-0.001 0.077-0.004 0.366-0.043 0.628-0.374 0.586-0.74-0.19-1.647-2.186-3.855-2.397-4.083-2.917-3.4-5.372-10.225-5.402-10.309-0.285-0.743 0.096-1.066 0.348-1.193 0.352-0.178 0.846-0.154 1.053 0.173l3.841 6.508c0.014 0.024 0.036 0.037 0.052 0.059 0.029 0.038 0.057 0.073 0.093 0.104 0.031 0.027 0.065 0.047 0.1 0.068 0.039 0.023 0.076 0.043 0.119 0.057 0.041 0.014 0.081 0.019 0.123 0.025 0.030 0.004 0.056 0.017 0.087 0.017 0.016 0 0.029-0.008 0.045-0.009 0.041-0.003 0.080-0.014 0.121-0.025 0.046-0.012 0.090-0.023 0.131-0.044 0.013-0.006 0.027-0.006 0.040-0.013 0.025-0.015 0.039-0.038 0.061-0.055 0.036-0.028 0.070-0.055 0.1-0.090 0.028-0.033 0.050-0.068 0.071-0.105s0.040-0.072 0.054-0.113c0.015-0.044 0.021-0.088 0.027-0.134 0.003-0.027 0.016-0.051 0.016-0.079v-16.667c0-0.735 0.598-1.333 1.333-1.333s1.333 0.598 1.333 1.333v11.333c0 0.369 0.298 0.667 0.667 0.667s0.667-0.298 0.667-0.667v-2c0-0.735 0.598-1.333 1.333-1.333s1.333 0.598 1.333 1.333v3.333c0 0.369 0.298 0.667 0.667 0.667s0.667-0.298 0.667-0.667v-2c0-0.735 0.598-1.333 1.333-1.333s1.333 0.598 1.333 1.333v3.333c0 0.369 0.298 0.667 0.667 0.667s0.667-0.298 0.667-0.667v-0.667c0-0.736 0.598-1.333 1.333-1.333 0.801 0 0.921 0.875 0.925 1.325-0.004 0.035-0.393 3.518-1.72 6.124-1.074 2.109-1.707 5.448-1.876 6.422-0.063 0.362 0.181 0.707 0.544 0.771 0.038 0.007 0.077 0.009 0.115 0.009 0.318 0 0.599-0.229 0.656-0.553 0.16-0.926 0.759-4.102 1.749-6.044 1.44-2.828 1.841-6.432 1.862-6.656 0-1.659-0.884-2.73-2.254-2.73z"></path>
</svg>
