<svg version="1.1" xmlns="http://www.w3.org/2000/svg" width="32" height="32" viewBox="0 0 32 32">
<title>handicapped</title>
<path d="M13.296 7.050c-1.848 0-3.352-1.504-3.352-3.352s1.504-3.352 3.352-3.352 3.352 1.504 3.352 3.352-1.504 3.352-3.352 3.352zM13.296 1.679c-1.113 0-2.019 0.906-2.019 2.019s0.906 2.019 2.019 2.019 2.019-0.906 2.019-2.019-0.906-2.019-2.019-2.019z"></path>
<path d="M20.376 17.363c-0.121 0-0.243-0.033-0.354-0.102l-3.536-2.214c-0.167-0.105-0.28-0.279-0.306-0.475l-0.325-2.367c-0.142-1.195-0.845-2.434-2.263-2.374-1.105 0.047-2.012 1.017-2.065 2.209l0.217 2.557c0.031 0.367-0.242 0.689-0.609 0.719-0.376 0.034-0.689-0.242-0.719-0.609l-0.219-2.642c0.081-1.962 1.548-3.492 3.339-3.567 1.917-0.090 3.383 1.341 3.642 3.536l0.281 2.046 3.272 2.048c0.311 0.195 0.406 0.607 0.211 0.919-0.126 0.202-0.344 0.313-0.565 0.313z"></path>
<path d="M26.128 29.18c-0.314 0-0.594-0.223-0.654-0.543l-1.372-7.259h-1.457c-0.369 0-0.667-0.298-0.667-0.667s0.298-0.667 0.667-0.667h2.009c0.32 0 0.595 0.228 0.655 0.543l1.475 7.802c0.069 0.362-0.169 0.711-0.531 0.779-0.042 0.008-0.083 0.012-0.125 0.012z"></path>
<path d="M13.886 30.842c-4.083 0-7.406-3.323-7.406-7.406s3.322-7.405 7.406-7.405c4.084 0 7.406 3.322 7.406 7.405s-3.322 7.406-7.406 7.406zM13.886 17.365c-3.348 0-6.072 2.724-6.072 6.072 0 3.349 2.724 6.073 6.072 6.073s6.072-2.724 6.072-6.073c0-3.348-2.724-6.072-6.072-6.072z"></path>
<path d="M13.893 24.107c-0.173 0-0.347-0.066-0.48-0.187-0.133-0.146-0.2-0.306-0.2-0.479s0.080-0.348 0.201-0.467c0.253-0.253 0.693-0.253 0.947-0.013 0.12 0.133 0.186 0.307 0.186 0.481s-0.066 0.333-0.186 0.466c-0.134 0.134-0.307 0.201-0.467 0.201z"></path>
<path d="M9.067 19.4c-0.264 0-0.514-0.158-0.619-0.418l-1.754-4.358h-1.992c-0.369 0-0.667-0.298-0.667-0.667s0.298-0.667 0.667-0.667h2.442c0.272 0 0.517 0.165 0.619 0.418l1.922 4.776c0.137 0.341-0.028 0.729-0.37 0.867-0.081 0.033-0.165 0.048-0.249 0.048z"></path>
</svg>
