<!-- Generated by IcoMoon.io -->
<svg version="1.1" xmlns="http://www.w3.org/2000/svg" width="32" height="32" viewBox="0 0 32 32">
<title>hand_one_finger_swipe_down_scroll</title>
<path d="M6.755 21.725l-1.495 2.128c-0.873-4.906-0.844-12.588 0.161-15.314 0.127-0.345-0.049-0.729-0.395-0.856-0.345-0.124-0.728 0.049-0.856 0.395-1.078 2.923-1.141 10.744-0.242 15.903l-2.010-1.413c-0.301-0.214-0.716-0.138-0.929 0.163-0.212 0.301-0.139 0.716 0.162 0.928l3.386 2.38c0.111 0.078 0.242 0.116 0.375 0.118 0.003 0 0.005 0.003 0.008 0.003 0 0 0-0 0.001-0s0 0 0 0c0.038 0 0.077-0.004 0.115-0.010 0.006-0.001 0.011-0.005 0.016-0.006 0.011-0.002 0.022-0.001 0.033-0.004 0.034-0.009 0.060-0.030 0.092-0.044 0.042-0.018 0.085-0.032 0.122-0.058s0.067-0.061 0.099-0.094c0.022-0.023 0.051-0.040 0.070-0.067l2.379-3.387c0.212-0.301 0.139-0.716-0.162-0.928s-0.717-0.138-0.929 0.162z"></path>
<path d="M30.798 14.985c-0.245-0.675-0.622-1.209-1.089-1.544-0.575-0.413-1.271-0.503-1.962-0.251-0.458 0.167-0.834 0.454-1.126 0.804l-0.127-0.349c-0.243-0.669-0.733-1.204-1.379-1.505-0.645-0.301-1.372-0.331-2.039-0.089-0.519 0.189-0.943 0.523-1.245 0.94-0.251-0.307-0.561-0.563-0.931-0.735-0.647-0.3-1.371-0.336-2.039-0.089-0.459 0.167-0.835 0.454-1.127 0.805l-2.863-7.866c-0.243-0.669-0.733-1.204-1.378-1.505-0.647-0.302-1.37-0.333-2.039-0.089s-1.204 0.733-1.505 1.378c-0.301 0.646-0.333 1.37-0.089 2.039l4.241 11.654c-0.636-0.434-1.49-0.411-2.152 0.074-0.682 0.5-1.227 1.577-0.71 3.092 0.075 0.229 1.885 5.633 6.201 8.053 0.005 0.003 0.492 0.201 1.078 0.595 0.113 0.078 0.243 0.115 0.372 0.115 0.214 0 0.425-0.103 0.552-0.294 0.207-0.305 0.126-0.719-0.18-0.925-0.673-0.454-1.24-0.693-1.251-0.693 0 0 0 0 0.001 0-3.779-2.126-5.49-7.215-5.51-7.273-0.243-0.714-0.156-1.31 0.234-1.595 0.208-0.152 0.464-0.171 0.607-0.065l1.216 0.986c0.209 0.169 0.372 0.392 0.469 0.645l0.986 2.546c0 0 0 0 0 0l0.005 0.013c0.045 0.118 0.127 0.206 0.22 0.278 0.020 0.016 0.038 0.028 0.059 0.041 0.102 0.063 0.215 0.104 0.336 0.105 0.002 0 0.004 0.002 0.006 0.002 0.075 0 0.152-0.013 0.228-0.040 0.003-0.001 0.004-0.003 0.007-0.004s0.004-0 0.006-0.001c0.038-0.015 0.066-0.043 0.1-0.064 0.040-0.025 0.084-0.043 0.118-0.075s0.053-0.071 0.078-0.107c0.023-0.033 0.053-0.063 0.070-0.1 0.018-0.040 0.022-0.085 0.032-0.128 0.009-0.040 0.026-0.078 0.027-0.12s-0.013-0.083-0.019-0.125c-0.007-0.044-0.004-0.087-0.020-0.13l-6.156-16.914c-0.122-0.335-0.105-0.697 0.045-1.020s0.417-0.568 0.753-0.689c0.333-0.12 0.695-0.106 1.019 0.044s0.568 0.418 0.689 0.753l4.332 11.903c0.045 0.122 0.127 0.213 0.222 0.288 0.021 0.016 0.038 0.030 0.060 0.044 0.1 0.062 0.211 0.101 0.331 0.103 0.005 0 0.008 0.004 0.013 0.004 0.075 0 0.152-0.013 0.228-0.040 0.26-0.094 0.425-0.333 0.438-0.592 0.004-0.087-0.008-0.175-0.040-0.262l-0.684-1.88c-0.251-0.691 0.107-1.458 0.797-1.71 0.333-0.121 0.698-0.105 1.019 0.045 0.323 0.15 0.568 0.417 0.69 0.752l0.455 1.252c0 0 0 0.001 0 0.001l0.684 1.879c0.044 0.122 0.127 0.214 0.223 0.288 0.020 0.016 0.038 0.030 0.059 0.043 0.1 0.062 0.211 0.101 0.331 0.103 0.005 0 0.008 0.004 0.013 0.004 0.075 0 0.152-0.013 0.228-0.040 0.346-0.126 0.525-0.508 0.398-0.854l-0.684-1.88c-0.251-0.691 0.107-1.457 0.797-1.709 0.335-0.12 0.699-0.106 1.019 0.045 0.323 0.15 0.568 0.417 0.69 0.752l1.139 3.133c0.099 0.271 0.354 0.439 0.626 0.439 0.075 0 0.152-0.013 0.228-0.040 0.346-0.126 0.525-0.508 0.398-0.854l-0.228-0.626c-0.251-0.691 0.107-1.458 0.797-1.71 0.277-0.1 0.509-0.074 0.731 0.083 0.243 0.175 0.461 0.5 0.591 0.847 0.008 0.035 0.835 3.432 0.479 6.342-0.16 1.303-0.176 2.587-0.049 3.925 0.034 0.346 0.323 0.604 0.663 0.604 0.022 0 0.043-0.001 0.064-0.003 0.367-0.035 0.635-0.361 0.602-0.727-0.119-1.241-0.104-2.431 0.044-3.638 0.385-3.15-0.472-6.675-0.529-6.891z"></path>
</svg>
