<!-- Generated by IcoMoon.io -->
<svg version="1.1" xmlns="http://www.w3.org/2000/svg" width="32" height="32" viewBox="0 0 32 32">
<title>hand_finger_show_right</title>
<path d="M28 10.667h-14.226l4.431-2.615c0.893-0.566 1.178-1.764 0.664-2.786-0.44-0.873-1.493-1.518-2.846-1-0.289 0.103-7.126 2.561-10.731 5.656-0.809 0.744-2.433 1.963-3.351 2.070-0.366 0.042-0.628 0.372-0.586 0.738 0.039 0.34 0.327 0.591 0.661 0.591 0.025 0 0.051-0.001 0.077-0.005 1.648-0.19 3.856-2.186 4.085-2.398 3.398-2.917 10.224-5.371 10.307-5.401 0.747-0.287 1.065 0.097 1.193 0.348 0.177 0.352 0.155 0.846-0.173 1.054l-6.508 3.841c-0.024 0.014-0.037 0.036-0.059 0.052-0.038 0.029-0.073 0.057-0.104 0.093-0.028 0.032-0.048 0.066-0.069 0.103-0.022 0.037-0.041 0.073-0.055 0.115-0.015 0.043-0.021 0.087-0.027 0.132-0.003 0.028-0.016 0.052-0.016 0.080 0 0.015 0.007 0.027 0.008 0.042 0.003 0.044 0.014 0.085 0.026 0.128 0.012 0.045 0.023 0.088 0.044 0.129 0.006 0.013 0.006 0.027 0.013 0.039 0.014 0.024 0.037 0.038 0.053 0.059 0.028 0.037 0.056 0.072 0.091 0.102 0.033 0.029 0.068 0.050 0.106 0.071 0.036 0.021 0.071 0.040 0.111 0.054 0.044 0.015 0.088 0.021 0.135 0.027 0.027 0.003 0.051 0.016 0.079 0.016h16.667c0.736 0 1.333 0.598 1.333 1.333s-0.598 1.333-1.333 1.333h-11.333c-0.369 0-0.667 0.298-0.667 0.667s0.298 0.667 0.667 0.667h2c0.736 0 1.333 0.598 1.333 1.333s-0.598 1.333-1.333 1.333h-3.333c-0.369 0-0.667 0.298-0.667 0.667s0.298 0.667 0.667 0.667h2c0.736 0 1.333 0.598 1.333 1.333s-0.598 1.333-1.333 1.333h-2.667c-0.369 0-0.667 0.298-0.667 0.667s0.298 0.667 0.667 0.667c0.735 0 1.333 0.598 1.333 1.333 0 0.831-0.977 0.921-1.325 0.925-0.035-0.004-3.518-0.393-6.124-1.72-2.111-1.075-5.449-1.707-6.423-1.876-0.361-0.060-0.707 0.182-0.77 0.544s0.18 0.707 0.544 0.771c0.926 0.16 4.1 0.759 6.044 1.749 2.828 1.44 6.434 1.841 6.658 1.862 1.658-0 2.73-0.884 2.73-2.254 0-0.488-0.141-0.939-0.371-1.333h0.371c1.47 0 2.667-1.197 2.667-2.667 0-0.553-0.169-1.067-0.459-1.493 1.040-0.364 1.792-1.345 1.792-2.507 0-0.488-0.141-0.94-0.371-1.333h7.038c1.47 0 2.667-1.196 2.667-2.667s-1.197-2.667-2.667-2.667z"></path>
</svg>
