<!-- Generated by IcoMoon.io -->
<svg version="1.1" xmlns="http://www.w3.org/2000/svg" width="32" height="32" viewBox="0 0 32 32">
<title>header_top</title>
<path d="M30.72 0h-29.44c-0.707 0-1.28 0.573-1.28 1.28v0 29.44c0 0.707 0.573 1.28 1.28 1.28v0h29.44c0.707 0 1.28-0.573 1.28-1.28v0-29.44c0-0.707-0.573-1.28-1.28-1.28v0zM30.048 30.048h-28.096v-22.633h28.096z"></path>
<path d="M11.619 16.64c0.001 0 0.002 0 0.002 0 0.288 0 0.549-0.117 0.737-0.306v0l2.596-2.66v12.695c0 0.578 0.468 1.046 1.046 1.046s1.046-0.468 1.046-1.046v-12.694l2.596 2.66c0.189 0.189 0.451 0.307 0.74 0.307s0.55-0.117 0.739-0.307v0c0.189-0.189 0.306-0.451 0.306-0.74s-0.117-0.55-0.306-0.74v0l-4.382-4.446c-0.189-0.189-0.451-0.306-0.74-0.306s-0.55 0.117-0.74 0.306v0l-4.38 4.446c-0.189 0.189-0.305 0.45-0.305 0.739 0 0.577 0.467 1.045 1.044 1.046v0z"></path>
</svg>
