<!-- Generated by IcoMoon.io -->
<svg version="1.1" xmlns="http://www.w3.org/2000/svg" width="32" height="32" viewBox="0 0 32 32">
<title>header_bottom</title>
<path d="M30.72 0h-29.44c-0.707 0-1.28 0.573-1.28 1.28v0 29.44c0 0.707 0.573 1.28 1.28 1.28v0h29.44c0.707 0 1.28-0.573 1.28-1.28v0-29.44c0-0.707-0.573-1.28-1.28-1.28v0zM30.048 24.585h-28.096v-22.633h28.096z"></path>
<path d="M15.26 21.591c0.189 0.189 0.451 0.306 0.74 0.306s0.55-0.117 0.74-0.306v0l4.381-4.446c0.189-0.189 0.305-0.45 0.305-0.739 0-0.577-0.467-1.045-1.044-1.046v0c-0.001 0-0.002 0-0.004 0-0.288 0-0.548 0.117-0.735 0.306v0l-2.596 2.66v-12.695c0-0.578-0.468-1.046-1.046-1.046s-1.046 0.468-1.046 1.046v0 12.694l-2.596-2.66c-0.191-0.201-0.46-0.326-0.759-0.326-0.578 0-1.046 0.468-1.046 1.046 0 0.299 0.125 0.568 0.326 0.759v0z"></path>
</svg>
