<!-- Generated by IcoMoon.io -->
<svg version="1.1" xmlns="http://www.w3.org/2000/svg" width="32" height="32" viewBox="0 0 32 32">
<title>headers</title>
<path d="M10.88 13.647c0.189 0.189 0.451 0.307 0.74 0.307s0.55-0.117 0.739-0.307v0l2.596-2.66v10.060l-2.596-2.66c-0.189-0.189-0.451-0.306-0.74-0.306-0.578 0-1.046 0.468-1.046 1.046 0 0.289 0.117 0.55 0.306 0.74v0l4.381 4.446c0.189 0.189 0.451 0.307 0.74 0.307s0.55-0.117 0.739-0.307v0l4.38-4.446c0.189-0.189 0.306-0.451 0.306-0.74 0-0.578-0.468-1.046-1.046-1.046-0.289 0-0.55 0.117-0.74 0.306v0l-2.596 2.66v-10.060l2.596 2.66c0.189 0.189 0.451 0.306 0.74 0.306 0.578 0 1.046-0.468 1.046-1.046 0-0.289-0.117-0.55-0.306-0.74v0l-4.382-4.446c-0.189-0.189-0.451-0.307-0.74-0.307s-0.55 0.117-0.739 0.307v0l-4.379 4.446c-0.189 0.189-0.306 0.451-0.306 0.74s0.117 0.55 0.306 0.74l-0-0z"></path>
<path d="M30.72 0h-29.44c-0.707 0-1.28 0.573-1.28 1.28v0 29.44c0 0.707 0.573 1.28 1.28 1.28v0h29.44c0.707 0 1.28-0.573 1.28-1.28v0-29.44c0-0.707-0.573-1.28-1.28-1.28v0zM30.048 26.537h-28.096v-21.074h28.096z"></path>
</svg>
