<!-- Generator: Adobe Illustrator 28.1.0, SVG Export Plug-In . SVG Version: 6.00 Build 0)  -->
<svg version="1.1" id="Capa_1" xmlns="http://www.w3.org/2000/svg" xmlns:xlink="http://www.w3.org/1999/xlink" x="0px" y="0px"
	 viewBox="0 0 32 32" style="enable-background:new 0 0 32 32;" xml:space="preserve">
<title>heart_pulse_rate_health</title>
<desc>heart, cardio, pulse, rate, health, signal, graph, line, medical, doctor, arrow</desc>
<path d="M-90.2,46c-0.6,0-1.1-0.4-1.2-1l-3.1-20.2c-0.1-0.3,0-0.7,0.3-0.9c0.2-0.3,0.5-0.4,0.9-0.4h27.6
	c0.3,0,0.7,0.1,0.9,0.4c0.2,0.3,0.3,0.6,0.3,0.9L-67.6,45c-0.1,0.6-0.6,1-1.2,1H-90.2z M-89.2,43.7h19.5l2.7-17.9H-92L-89.2,43.7
	L-89.2,43.7z M-92.9,22.1l-0.2-1c-0.1-0.3,0-0.7,0.3-0.9c0.2-0.3,0.5-0.4,0.9-0.4h24c0.3,0,0.7,0.1,0.9,0.4c0.2,0.3,0.3,0.6,0.3,0.9
	l-0.2,1H-92.9z M-90.7,18.3l-0.2-1c-0.1-0.3,0-0.7,0.3-0.9c0.2-0.3,0.5-0.4,0.9-0.4h20.3c0.3,0,0.7,0.1,0.9,0.4
	c0.2,0.3,0.3,0.6,0.3,0.9l-0.2,1H-90.7z"/>
<path d="M28.5,16.5c-1.5,0-2.7,0.9-3.3,2.2h-2.9l-2-6c-0.2-0.4-0.7-0.7-1.1-0.7c-0.4,0-0.9,0.4-1.1,0.7l-3.3,11.1L11.3,1.6
	c0-0.5-0.4-0.9-0.9-0.9S9.3,1.1,9.1,1.6L4.7,18.9H1.1C0.4,18.9,0,19.2,0,20s0.4,1.1,1.1,1.1h4.5c0.5,0,1.1-0.4,1.1-0.9L10,7.2
	l3.6,22c0.2,0.5,0.5,0.9,1.1,0.9c0,0,0,0,0.2,0c0.4,0,0.9-0.4,1.1-0.7l3.5-12.4l1.1,3.3c0.2,0.4,0.5,0.7,1.1,0.7h3.6
	c0.4,1.5,1.6,2.2,3.3,2.2c2,0,3.5-1.5,3.5-3.5S30.4,16.5,28.5,16.5z M28.5,21.1c-0.7,0-1.1-0.4-1.1-1.1s0.4-1.1,1.1-1.1
	c0.7,0,1.1,0.4,1.1,1.1S29.1,21.1,28.5,21.1z"/>
</svg>
