<!-- Generator: Adobe Illustrator 28.1.0, SVG Export Plug-In . SVG Version: 6.00 Build 0)  -->
<svg version="1.1" id="Capa_1" xmlns="http://www.w3.org/2000/svg" xmlns:xlink="http://www.w3.org/1999/xlink" x="0px" y="0px"
	 viewBox="0 0 18 18" style="enable-background:new 0 0 18 18;" xml:space="preserve">
<title>heart_pulse_rate_health</title>
<desc>heart, cardio, pulse, rate, health, signal, graph, line, medical, doctor, arrow</desc>
<path d="M15.9,9.6c-0.8,0-1.5,0.5-1.8,1.2h-1.6l-1.1-3.3c-0.1-0.2-0.4-0.4-0.6-0.4s-0.5,0.2-0.6,0.4l-1.8,6.1l-2-12.2
	C6.4,1.1,6.2,0.9,5.9,0.9S5.3,1.1,5.2,1.4l-2.4,9.5h-2c-0.4,0-0.6,0.2-0.6,0.6s0.2,0.6,0.6,0.6h2.5c0.3,0,0.6-0.2,0.6-0.5l1.8-7.1
	l2,12.1c0.1,0.3,0.3,0.5,0.6,0.5c0,0,0,0,0.1,0c0.2,0,0.5-0.2,0.6-0.4l1.9-6.8l0.6,1.8c0.1,0.2,0.3,0.4,0.6,0.4h2
	c0.2,0.8,0.9,1.2,1.8,1.2c1.1,0,1.9-0.8,1.9-1.9S16.9,9.6,15.9,9.6z M15.9,12.1c-0.4,0-0.6-0.2-0.6-0.6s0.2-0.6,0.6-0.6
	s0.6,0.2,0.6,0.6S16.2,12.1,15.9,12.1z"/>
</svg>
