<svg version="1.1" xmlns="http://www.w3.org/2000/svg" width="32" height="32" viewBox="0 0 32 32">
<title>heart_pulse_rate_health</title>
<path d="M17.462 30.698c-0.318 0-0.592-0.225-0.654-0.536l-5.019-25.318-3.292 14.703c-0.068 0.305-0.339 0.521-0.65 0.521h-7.008c-0.369 0-0.667-0.298-0.667-0.667s0.298-0.667 0.667-0.667h6.475l3.865-17.265c0.068-0.305 0.339-0.521 0.65-0.521 0.003 0 0.005 0 0.008 0 0.315 0.004 0.584 0.228 0.645 0.537l4.944 24.939 2.743-15.417c0.051-0.29 0.286-0.511 0.578-0.546 0.288-0.034 0.572 0.126 0.689 0.396l2.842 6.522h6.915c0.369 0 0.667 0.298 0.667 0.667s-0.298 0.667-0.667 0.667h-7.352c-0.266 0-0.505-0.158-0.611-0.4l-2.137-4.901-2.978 16.736c-0.056 0.315-0.329 0.547-0.65 0.549-0.003-0-0.004-0-0.006-0z"></path>
</svg>
