<svg version="1.1" xmlns="http://www.w3.org/2000/svg" width="32" height="32" viewBox="0 0 32 32">
<title>heat_calendar</title>
<path d="M32 0.505h-1.379v0.032h-29.243v-0.032h-1.379v30.988h26.773v-24.593l5.227-0.007v-6.388zM1.379 6.313h3.989v3.107h-3.989v-3.107zM11.247 19.768v-4.375h4.28v4.375h-4.28zM15.527 20.568v4.375h-4.28v-4.375h4.28zM15.527 10.22v4.375h-4.28v-4.375h4.28zM11.247 9.42v-3.107h4.28v3.107h-4.28zM10.448 14.595h-4.28v-4.375h4.28v4.375zM10.448 15.393v4.375h-4.28v-4.375h4.28zM16.327 15.393h4.28v4.375h-4.28v-4.375zM16.327 14.595v-4.375h4.28v4.375h-4.28zM16.327 9.42v-3.107h4.28v3.107h-4.28zM16.327 5.513v-3.596h4.28v3.597h-4.28zM15.527 5.513h-4.28v-3.596h4.28v3.596zM10.448 5.513h-4.28v-3.596h4.28v3.596zM10.448 6.313v3.107h-4.28v-3.107h4.28zM1.379 10.22h3.989v4.375h-3.989v-4.375zM1.379 15.393h3.989v4.375h-3.989v-4.375zM1.379 20.568h3.989v4.375h-3.989v-4.375zM6.168 20.568h4.28v4.375h-4.28v-4.375zM10.448 25.741v4.375h-4.28v-4.375h4.28zM11.247 25.741h4.28v4.375h-4.28v-4.375zM16.327 25.741h4.28v4.375h-4.28v-4.375zM16.327 24.941v-4.375h4.28v4.375h-4.28zM21.405 20.568h3.88v4.375h-3.88v-4.375zM21.405 19.768v-4.375h3.88v4.375h-3.88zM21.405 14.595v-4.375h3.88v4.375h-3.88zM21.405 9.42v-3.107h3.88v3.107h-3.88zM21.405 5.513v-3.596h3.88v3.597h-3.88zM5.368 1.917v3.597h-3.989v-3.597h3.989zM1.379 25.741h3.989v4.375h-3.989v-4.375zM21.405 30.116v-4.375h3.88v4.375h-3.88zM26.452 5.513h-0.368v-3.596h4.537v3.599l-3.848 0.005v-0.008h-0.321z"></path>
</svg>
