<svg version="1.1" xmlns="http://www.w3.org/2000/svg" width="30" height="32" viewBox="0 0 30 32">
<title>heatcalendar</title>
<path d="M2.286 29.714h25.143v-18.286h-25.143v18.286zM9.143 8v-5.143c0-0.167-0.054-0.304-0.161-0.411s-0.244-0.161-0.411-0.161h-1.143c-0.167 0-0.304 0.054-0.411 0.161s-0.161 0.244-0.161 0.411v5.143c0 0.167 0.054 0.304 0.161 0.411s0.244 0.161 0.411 0.161h1.143c0.167 0 0.304-0.054 0.411-0.161s0.161-0.244 0.161-0.411zM22.857 8v-5.143c0-0.167-0.054-0.304-0.161-0.411s-0.244-0.161-0.411-0.161h-1.143c-0.167 0-0.304 0.054-0.411 0.161s-0.161 0.244-0.161 0.411v5.143c0 0.167 0.054 0.304 0.161 0.411s0.244 0.161 0.411 0.161h1.143c0.167 0 0.304-0.054 0.411-0.161s0.161-0.244 0.161-0.411zM29.714 6.857v22.857c0 0.619-0.226 1.155-0.679 1.607s-0.988 0.679-1.607 0.679h-25.143c-0.619 0-1.155-0.226-1.607-0.679s-0.679-0.988-0.679-1.607v-22.857c0-0.619 0.226-1.155 0.679-1.607s0.988-0.679 1.607-0.679h2.286v-1.714c0-0.786 0.28-1.458 0.839-2.018s1.232-0.839 2.018-0.839h1.143c0.786 0 1.458 0.28 2.018 0.839s0.839 1.232 0.839 2.018v1.714h6.857v-1.714c0-0.786 0.28-1.458 0.839-2.018s1.232-0.839 2.018-0.839h1.143c0.786 0 1.458 0.28 2.018 0.839s0.839 1.232 0.839 2.018v1.714h2.286c0.619 0 1.155 0.226 1.607 0.679s0.679 0.988 0.679 1.607h0zM4.44 13.28h20.838v1.736h-20.838v-1.736zM23.75 14.922h1.528v11.594h-1.528v-11.594zM5.875 19.891h19.403v1.727h-19.403v-1.727zM5.563 26.18h19.716v1.681h-19.716v-1.681zM4.44 14.391h1.685v13.471h-1.685v-13.471zM10.72 14.922h1.655v11.258h-1.655v-11.258zM17.438 14.922h1.651v11.594h-1.651v-11.594z"></path>
</svg>
