<svg version="1.1" xmlns="http://www.w3.org/2000/svg" width="33" height="32" viewBox="0 0 33 32">
<title>heat_calendar_time</title>
<path d="M11 0.233c0 0.686 0 1.234 0 1.234v17.639c0.298 0.282 0.568 0.587 0.81 0.914l0.013-3.753h3.978v4.252h-3.649c0.147 0.23 0.293 0.5 0.421 0.78l3.227 0.043v4.526h-2.88c-0.087 0.328-0.181 0.602-0.291 0.868l3.157-0.045v4.115h-3.978v-2.661c-0.256 0.34-0.526 0.64-0.819 0.916l-0.004 1.718h-9.382v-1.701h-1.221v2.922h21.699v-10.712h5.747v-14.073h5.116v-6.982h-21.946zM15.801 15.431h-3.978v-4.115h3.978v4.115zM15.801 10.507h-3.991v-3.772h3.978v3.786zM15.801 5.925h-3.991v-4.458h3.978v4.458zM20.862 30.779h-4.252v-4.115h4.252v4.115zM20.862 25.814h-4.252v-4.526h4.252v4.526zM20.862 20.478h-4.252v-4.252h4.252v4.252zM20.862 15.417h-4.252v-4.115h4.252v4.115zM20.862 10.493h-4.252v-3.758h4.252v3.786zM20.862 5.939h-4.252v-4.471h4.252v4.458zM26.61 20.465h-4.924v-4.252h4.924v4.252zM26.61 15.403h-4.924v-4.115h4.924v4.115zM26.61 10.479l-4.938 0.041v-3.786h4.924v3.703zM26.61 5.953h-4.938v-4.485h4.924v4.458zM31.739 5.953h-4.279v-4.485h4.321v4.458z"></path>
<path d="M6.982 20.725v-13.222h-1.468v13.236c-1.619 0.402-2.799 1.843-2.799 3.559 0 0.226 0.020 0.446 0.059 0.66 0.304 1.637 1.709 2.888 3.419 2.954l0.418 0c1.631-0.115 2.954-1.303 3.274-2.857 0.047-0.233 0.071-0.475 0.071-0.722 0-1.782-1.268-3.268-2.951-3.605z"></path>
<path d="M9.78 19.038c-0.142-0.085-0.235-0.238-0.235-0.413 0-0.014 0.001-0.028 0.002-0.042-0-0.177-0-0.355-0-0.519q0-3.566 0-7.146c0-2.524 0-5.061 0-7.585 0-0.004 0-0.008 0-0.012 0-1.833-1.486-3.319-3.319-3.319-0.317 0-0.624 0.045-0.915 0.128-1.399 0.407-2.422 1.698-2.422 3.228 0 0.054 0.001 0.108 0.004 0.162q-0 3.325-0 6.672v0 7.105q0 0.617 0 1.234c0.002 0.018 0.003 0.038 0.003 0.058 0 0.2-0.104 0.375-0.261 0.475-1.613 1.113-2.655 2.949-2.655 5.028 0 1.366 0.45 2.628 1.21 3.644l-0.011-0.016c0.274 0.379 0.571 0.712 0.9 1.010 1.096 0.979 2.543 1.575 4.129 1.575 3.424 0 6.2-2.776 6.2-6.2 0-2.086-1.030-3.931-2.61-5.055zM10.904 25.018c-0.401 1.994-1.996 3.524-3.992 3.824l-0.424 0.003c-0.090 0.006-0.196 0.010-0.302 0.010-2.621 0-4.746-2.125-4.746-4.746 0-1.719 0.914-3.225 2.283-4.058 0.376-0.195 0.615-0.559 0.615-0.978 0-0.032-0.001-0.063-0.004-0.094 0-5.14 0-10.283 0-15.427-0.005-0.052-0.007-0.112-0.007-0.173 0-0.567 0.234-1.079 0.61-1.445 0.322-0.317 0.764-0.513 1.251-0.513 0.252 0 0.491 0.052 0.709 0.146 0.664 0.21 1.154 0.807 1.209 1.526 0.011 0.211 0.018 0.45 0.018 0.692s-0.006 0.481-0.019 0.719q0.001 3.368 0.001 6.825 0 3.086 0 6.172c0 0.549 0 1.097 0 1.66-0.001 0.015-0.001 0.032-0.001 0.049 0 0.363 0.211 0.678 0.517 0.827 1.427 0.843 2.365 2.368 2.365 4.112 0 0.312-0.030 0.617-0.087 0.913z"></path>
</svg>
