<!-- Generated by IcoMoon.io -->
<svg version="1.1" xmlns="http://www.w3.org/2000/svg" width="32" height="32" viewBox="0 0 32 32">
<title>heat_map_animated</title>
<path d="M16.385 24.9c-0.624 0.935-1.293 1.68-1.695 2.032-0.045-0.289-0.063-0.719-0.036-1.080 0.46-4.243-1.116-5.601-1.4-5.809-0.080-0.041-1.991-1.019-2.896-1.3-0.017-0.025-0.048-0.168 0.021-0.381 0.091-0.285 0.296-0.524 0.521-0.608 0.185-0.069 0.291-0.045 0.441-0.015 0.185 0.040 0.524 0.109 0.832-0.14 0.363-0.293 0.384-0.783 0.387-1.56 0.004-0.673-0.183-1.197-0.549-1.557-0.575-0.559-1.372-0.536-1.953-0.52-0.144 0.003-0.277 0.009-0.387 0-1.136-0.103-1.471 0.705-1.939 2.195-0.009-0.387-0.005-0.88 0.008-1.315 0.008-0.293-0.177-0.56-0.457-0.652-0.277-0.091-0.588 0.011-0.755 0.251l-0.949 1.379c-0.001 0.003-0.195 0.283-1.073 0.505 0.045-0.383 0.331-1.145 0.685-1.795 0.177-0.323 0.059-0.728-0.264-0.905s-0.728-0.060-0.905 0.264c-0.496 0.907-1.237 2.551-0.6 3.373 0.171 0.223 0.583 0.567 1.407 0.357 0.836-0.213 1.327-0.509 1.611-0.775 0.035 0.285 0.076 0.381 0.101 0.433 0.079 0.169 0.509 1.017 1.249 0.965 0.321-0.020 0.757-0.208 1-0.991l0.107-0.341c0.241-0.779 0.469-1.515 0.656-1.62 0.156 0.015 0.343 0.011 0.547 0.009 0.345-0.007 0.815-0.021 0.981 0.141 0.097 0.093 0.149 0.307 0.149 0.597-0.001 0.137-0.003 0.252-0.005 0.343-0.213-0.012-0.479 0.011-0.787 0.127-0.957 0.357-1.453 1.379-1.433 2.159 0.017 0.651 0.383 1.165 0.949 1.344 0.668 0.211 2.171 0.953 2.588 1.155 0.013 0.008 1.165 1.075 0.788 4.567-0.057 0.757-0.048 2.099 0.652 2.556 0.136 0.089 0.287 0.14 0.443 0.155 0.207 0.019 0.427-0.028 0.636-0.143 0.699-0.368 1.753-1.636 2.436-2.661 0.205-0.307 0.121-0.72-0.184-0.924-0.305-0.201-0.723-0.123-0.928 0.185z"></path>
<path d="M27.556 18.511c-0.171-0.119-0.232-0.239-0.231-0.444 0.008-2.489 0.005-4.98 0.005-7.469 0-2.461 0.011-4.921-0.003-7.383-0.012-2.16-2.013-3.677-4.095-3.125-1.445 0.384-2.379 1.676-2.38 3.305-0.001 3.128 0.001 6.257 0.004 9.385-3.612-4.639-10.232-5.909-15.337-2.745-5.465 3.385-7.157 10.588-3.771 16.053 3.387 5.467 10.588 7.159 16.053 3.773 0.819-0.507 1.573-1.161 2.275-1.904 1.32 1.176 3.115 1.768 4.94 1.484 2.431-0.379 4.42-2.229 4.971-4.624 0.551-2.399-0.413-4.911-2.432-6.307zM17.1 28.728c-4.84 2.999-11.219 1.5-14.217-3.341s-1.501-11.219 3.34-14.219c4.841-2.999 11.22-1.5 14.219 3.341 0.153 0.247 0.287 0.5 0.416 0.755 0.001 0.917 0 1.835 0.001 2.752 0 0.235-0.060 0.376-0.26 0.517-2.295 1.613-3.168 4.609-2.112 7.2 0.183 0.448 0.431 0.852 0.704 1.233-0.645 0.692-1.34 1.296-2.091 1.761zM28.652 24.337c-0.383 1.927-1.927 3.415-3.855 3.713-2.183 0.339-4.308-0.927-5.072-3.019-0.755-2.065 0.061-4.401 1.963-5.532 0.419-0.249 0.58-0.544 0.579-1.025-0.013-5.009-0.005-10.019-0.011-15.028 0-0.604 0.123-1.152 0.589-1.572 0.54-0.488 1.171-0.633 1.853-0.387 0.692 0.249 1.117 0.757 1.193 1.497 0.047 0.449 0.028 0.905 0.028 1.359 0.003 2.211 0.001 4.42 0.001 6.631 0 2.539 0.005 5.077-0.004 7.615-0.001 0.405 0.156 0.659 0.504 0.861 1.721 1.008 2.611 2.973 2.231 4.887z"></path>
<path d="M24.84 20.155c0-4.284 0-8.575 0-12.876-0.467 0-0.908 0-1.396 0 0 4.316 0 8.607 0 12.889-2.060 0.499-3.057 2.379-2.761 4.080 0.281 1.613 1.708 2.857 3.332 2.896 1.767 0.041 3.22-1.111 3.588-2.831 0.299-1.397-0.384-3.544-2.763-4.159z"></path>
<path d="M6.271 28.292c-0.055 0-0.109-0.009-0.164-0.027-0.265-0.091-0.408-0.38-0.317-0.645 0.973-2.855 1.369-3.28 2.103-3.904l0.12-0.104c-0.207-0.108-0.539-0.235-0.763-0.32-0.521-0.199-1.015-0.387-1.299-0.671-0.28-0.28-0.473-0.395-0.716-0.541-0.139-0.084-0.285-0.171-0.455-0.289-0.148 0.421-0.308 1.288-0.383 2.128-0.025 0.279-0.264 0.48-0.551 0.461-0.28-0.025-0.487-0.271-0.461-0.551 0.248-2.816 0.833-3.068 1.027-3.151 0.24-0.103 0.504-0.064 0.723 0.109 0.252 0.2 0.445 0.315 0.621 0.42 0.268 0.161 0.545 0.327 0.913 0.695 0.131 0.129 0.6 0.309 0.943 0.44 0.767 0.293 1.428 0.545 1.533 1.112 0.037 0.2 0.012 0.5-0.319 0.799-0.099 0.088-0.191 0.165-0.276 0.239-0.563 0.479-0.873 0.741-1.799 3.457-0.072 0.209-0.269 0.343-0.481 0.343z"></path>
<path d="M16.568 0.037c-0.413 0.132-0.64 0.575-0.503 0.989l0.521 1.601c-3.239-1.3-6.971-1.379-10.433 0.080-1.221 0.515-2.395 1.239-3.484 2.153-0.333 0.28-0.377 0.772-0.096 1.105 0.279 0.333 0.773 0.376 1.105 0.097 0.969-0.811 2.005-1.455 3.084-1.908 3.035-1.279 6.303-1.22 9.149-0.101l-1.663 0.543c-0.328 0.105-0.537 0.408-0.541 0.735-0.001 0.084 0.012 0.171 0.040 0.255 0.133 0.412 0.576 0.637 0.989 0.501l3.436-1.12c0.199-0.064 0.361-0.205 0.456-0.391 0.096-0.185 0.112-0.401 0.048-0.599l-0.116-0.352-1.004-3.083c-0.136-0.412-0.579-0.637-0.989-0.507z"></path>
</svg>
