<svg version="1.1" xmlns="http://www.w3.org/2000/svg" width="32" height="32" viewBox="0 0 32 32">
<title>help_float</title>
<path d="M27.44 26.615c2.576-2.784 4.164-6.493 4.164-10.576 0-4.081-1.588-7.791-4.161-10.575-0.024-0.037-0.041-0.079-0.075-0.112-0.020-0.020-0.047-0.028-0.069-0.045-2.845-2.995-6.853-4.875-11.301-4.875-4.080 0-7.787 1.587-10.571 4.159-0.037 0.025-0.080 0.043-0.113 0.077-0.021 0.021-0.029 0.048-0.048 0.071-2.993 2.845-4.872 6.853-4.872 11.299s1.877 8.452 4.869 11.296c0.019 0.024 0.028 0.053 0.049 0.075 0.036 0.036 0.080 0.055 0.121 0.081 2.783 2.568 6.487 4.152 10.564 4.152 4.448 0 8.457-1.88 11.303-4.876 0.021-0.017 0.047-0.024 0.067-0.044 0.033-0.031 0.049-0.071 0.073-0.107zM26.861 25.272l-4.721-4.72c0.933-1.265 1.492-2.824 1.492-4.513s-0.559-3.248-1.492-4.513l4.721-4.721c2.121 2.492 3.411 5.713 3.411 9.235-0.001 3.521-1.289 6.743-3.411 9.233zM9.699 16.039c0-3.473 2.827-6.3 6.3-6.3s6.3 2.827 6.3 6.3-2.825 6.299-6.3 6.299c-3.473 0-6.3-2.825-6.3-6.299zM25.951 5.828l-4.692 4.693c-1.371-1.307-3.221-2.116-5.26-2.116-1.689 0-3.248 0.559-4.513 1.492l-4.721-4.721c2.492-2.121 5.713-3.409 9.235-3.409 3.869 0 7.379 1.553 9.952 4.061zM1.727 16.039c0-3.869 1.553-7.379 4.063-9.952l4.692 4.692c-1.307 1.371-2.115 3.221-2.115 5.26s0.808 3.889 2.116 5.26l-4.692 4.692c-2.511-2.573-4.064-6.083-4.064-9.952zM6.765 26.901l4.721-4.721c1.265 0.932 2.824 1.491 4.513 1.491 2.039 0 3.888-0.808 5.259-2.115l4.693 4.692c-2.573 2.509-6.083 4.063-9.952 4.063-3.523-0.001-6.744-1.289-9.235-3.409z"></path>
</svg>
