<svg version="1.1" xmlns="http://www.w3.org/2000/svg" width="32" height="32" viewBox="0 0 32 32">
<title>highlighting_row</title>
<path d="M30.080 0h-28.16c-1.060 0-1.92 0.86-1.92 1.92v0 28.16c0 1.060 0.86 1.92 1.92 1.92v0h28.16c1.060 0 1.92-0.86 1.92-1.92v0-28.16c0-1.060-0.86-1.92-1.92-1.92v0zM3.186 2.146h25.664c0.707 0 1.28 0.573 1.28 1.28v0 4.292h-28.224v-4.292c0-0.707 0.573-1.28 1.28-1.28v0zM10.057 29.897h-6.871c-0.707 0-1.28-0.573-1.28-1.28v0-4.16h8.151zM10.057 15.080h-8.151v-5.44h8.151zM20.114 15.080h-8.151v-5.44h8.151zM30.132 15.080h-8.113v-5.44h8.113zM20.114 29.897h-8.151v-5.44h8.151zM28.852 29.897h-6.833v-5.44h8.113v4.16c0 0.707-0.573 1.28-1.28 1.28v0z"></path>
</svg>
