<!-- Generated by IcoMoon.io -->
<svg version="1.1" xmlns="http://www.w3.org/2000/svg" width="32" height="32" viewBox="0 0 32 32">
<title>histogram</title>
<path d="M5.333 30.747h-3.333c-1.103 0-2-0.897-2-2v-10.437c0-1.103 0.897-2 2-2h3.333c1.103 0 2 0.897 2 2v10.437c0 1.103-0.897 2-2 2zM2 17.643c-0.368 0-0.667 0.3-0.667 0.667v10.437c0 0.367 0.299 0.667 0.667 0.667h3.333c0.368 0 0.667-0.3 0.667-0.667v-10.437c0-0.367-0.299-0.667-0.667-0.667h-3.333z"></path>
<path d="M13.556 30.747h-3.333c-1.103 0-2-0.897-2-2v-25.493c0-1.103 0.897-2 2-2h3.333c1.103 0 2 0.897 2 2v25.493c0 1.103-0.897 2-2 2zM10.223 2.587c-0.368 0-0.667 0.299-0.667 0.667v25.493c0 0.367 0.299 0.667 0.667 0.667h3.333c0.368 0 0.667-0.3 0.667-0.667v-25.493c0-0.368-0.299-0.667-0.667-0.667h-3.333z"></path>
<path d="M21.777 30.747h-3.333c-1.103 0-2-0.897-2-2v-15.716c0-1.103 0.897-2 2-2h3.333c1.103 0 2 0.897 2 2v15.716c0 1.103-0.897 2-2 2zM18.444 12.364c-0.367 0-0.667 0.299-0.667 0.667v15.716c0 0.367 0.3 0.667 0.667 0.667h3.333c0.367 0 0.667-0.3 0.667-0.667v-15.716c0-0.368-0.3-0.667-0.667-0.667h-3.333z"></path>
<path d="M30 30.747h-3.333c-1.103 0-2-0.897-2-2v-4.552c0-1.103 0.897-2 2-2h3.333c1.103 0 2 0.897 2 2v4.552c0 1.103-0.897 2-2 2zM26.667 23.528c-0.367 0-0.667 0.3-0.667 0.667v4.552c0 0.367 0.3 0.667 0.667 0.667h3.333c0.367 0 0.667-0.3 0.667-0.667v-4.552c0-0.367-0.3-0.667-0.667-0.667h-3.333z"></path>
</svg>
