<svg version="1.1" xmlns="http://www.w3.org/2000/svg" width="32" height="32" viewBox="0 0 32 32">
<title>home_house2</title>
<path d="M28.707 31.975h-25.405c-0.369 0-0.667-0.298-0.667-0.667v-18.311c0-0.369 0.298-0.667 0.667-0.667s0.667 0.298 0.667 0.667v17.645h24.072v-17.645c0-0.369 0.298-0.667 0.667-0.667s0.667 0.298 0.667 0.667v18.311c0 0.369-0.298 0.667-0.667 0.667z"></path>
<path d="M12.691 24.061h-4.066c-0.369 0-0.667-0.298-0.667-0.667v-4.053c0-0.369 0.298-0.667 0.667-0.667h4.066c0.369 0 0.667 0.298 0.667 0.667v4.053c0 0.369-0.298 0.667-0.667 0.667zM9.292 22.728h2.732v-2.72h-2.732v2.72z"></path>
<path d="M23.341 31.975h-6.741c-0.369 0-0.667-0.298-0.667-0.667v-11.967c0-0.369 0.298-0.667 0.667-0.667h6.741c0.369 0 0.667 0.298 0.667 0.667v11.967c0 0.369-0.298 0.667-0.667 0.667zM17.267 30.642h5.408v-10.634h-5.408v10.634z"></path>
<path d="M31.345 15.789c-0.152 0-0.306-0.052-0.431-0.158l-14.91-12.624-14.909 12.624c-0.283 0.237-0.703 0.202-0.939-0.078-0.238-0.281-0.203-0.702 0.077-0.939l15.34-12.989c0.249-0.211 0.612-0.208 0.862 0l15.341 12.988c0.281 0.238 0.315 0.659 0.078 0.94-0.133 0.155-0.32 0.236-0.509 0.236z"></path>
</svg>
