<svg version="1.1" xmlns="http://www.w3.org/2000/svg" width="32" height="32" viewBox="0 0 32 32">
<title>home_house</title>
<path d="M30.7 15.3l-4.7-4.5v-6.8c0-0.6-0.4-1-1-1h-3c-0.6 0-1 0.4-1 1v2l-3.6-3.4c-0.3-0.4-0.8-0.6-1.4-0.6 0 0 0 0 0 0-0.6 0-1.1 0.2-1.4 0.5l-13.3 12.8c-0.4 0.4-0.4 1 0 1.4s1 0.4 1.4 0l1.3-1.2v12.5c0 1.1 0.9 2 2 2h6c0.6 0 1-0.4 1-1v-8.5c0-0.3 0.2-0.5 0.5-0.5h5c0.3 0 0.5 0.2 0.5 0.5v8.5c0 0.6 0.4 1 1 1h6c1.1 0 2-0.9 2-2v-12.5l1.3 1.3c0.2 0.2 0.4 0.3 0.7 0.3s0.5-0.1 0.7-0.3c0.4-0.5 0.4-1.1 0-1.5zM23 5h1v3.9l-1-1v-2.9zM16 3.9c0 0.1 0 0.1 0 0 0 0.1 0 0.1 0 0v0zM26 28h-5v-7.5c0-1.4-1.1-2.5-2.5-2.5h-5c-1.4 0-2.5 1.1-2.5 2.5v7.5h-5v-14.4l10-9.6c0 0 0 0 0 0l10 9.6v14.4z"></path>
</svg>
