<svg version="1.1" xmlns="http://www.w3.org/2000/svg" width="32" height="32" viewBox="0 0 32 32">
<title>home_wi_fi_wireless_network</title>
<path d="M28.667 32h-25.333c-0.369 0-0.667-0.298-0.667-0.667v-18.454c0-0.369 0.298-0.667 0.667-0.667s0.667 0.298 0.667 0.667v17.787h24v-17.801c0-0.369 0.298-0.667 0.667-0.667s0.667 0.298 0.667 0.667v18.468c0 0.369-0.298 0.667-0.667 0.667z"></path>
<path d="M27.333 12.387c-0.369 0-0.667-0.298-0.667-0.667v-7.721h-5.333v1.995c0 0.369-0.298 0.667-0.667 0.667s-0.667-0.298-0.667-0.667v-2.661c0-0.369 0.298-0.667 0.667-0.667h6.667c0.369 0 0.667 0.298 0.667 0.667v8.387c0 0.369-0.298 0.667-0.667 0.667z"></path>
<path d="M31.275 15.771c-0.154 0-0.309-0.053-0.435-0.161l-14.832-12.738-14.832 12.738c-0.277 0.24-0.698 0.209-0.94-0.072-0.24-0.279-0.208-0.7 0.072-0.94l15.266-13.111c0.25-0.215 0.619-0.215 0.869 0l15.267 13.111c0.279 0.24 0.311 0.661 0.070 0.94-0.131 0.154-0.318 0.232-0.505 0.232z"></path>
<path d="M20.945 21.611c-0.178 0-0.355-0.070-0.487-0.211-1.169-1.25-2.75-1.937-4.449-1.937-1.701 0-3.282 0.687-4.453 1.937-0.253 0.268-0.673 0.281-0.942 0.031-0.269-0.253-0.283-0.675-0.031-0.943 1.425-1.521 3.352-2.359 5.425-2.359v0c2.072 0 3.999 0.839 5.423 2.359 0.251 0.268 0.237 0.69-0.031 0.943-0.129 0.12-0.292 0.18-0.456 0.18z"></path>
<path d="M23.34 19.217c-0.176 0-0.35-0.069-0.482-0.206-1.811-1.893-4.245-2.935-6.852-2.935-2.605 0-5.036 1.043-6.848 2.935-0.255 0.267-0.678 0.275-0.943 0.021-0.266-0.255-0.275-0.677-0.021-0.943 2.065-2.158 4.839-3.346 7.811-3.346 2.974 0 5.749 1.188 7.815 3.346 0.254 0.266 0.245 0.687-0.021 0.943-0.129 0.124-0.296 0.185-0.461 0.185z"></path>
<path d="M13.464 24.004c-0.156 0-0.313-0.055-0.439-0.165-0.277-0.242-0.305-0.664-0.062-0.94 0.771-0.88 1.88-1.384 3.045-1.384s2.275 0.504 3.046 1.383c0.242 0.277 0.215 0.699-0.061 0.941-0.279 0.242-0.699 0.216-0.941-0.061-1.038-1.182-3.050-1.181-4.085-0.001-0.131 0.151-0.316 0.228-0.501 0.228z"></path>
<path d="M16.013 26.639c-0.173 0-0.346-0.079-0.467-0.199-0.133-0.134-0.2-0.294-0.2-0.467s0.067-0.346 0.187-0.479c0.253-0.241 0.706-0.241 0.946 0.013 0.121 0.107 0.201 0.28 0.201 0.466 0 0.173-0.079 0.348-0.201 0.467-0.12 0.12-0.293 0.199-0.466 0.199z"></path>
</svg>
