<!-- Generated by IcoMoon.io -->
<svg version="1.1" xmlns="http://www.w3.org/2000/svg" width="32" height="32" viewBox="0 0 32 32">
<title>idea</title>
<path d="M19 26h-6c-0.6 0-1 0.4-1 1s0.4 1 1 1h6c0.6 0 1-0.4 1-1s-0.4-1-1-1z"></path>
<path d="M18 29h-4c-0.6 0-1 0.4-1 1s0.4 1 1 1h4c0.6 0 1-0.4 1-1s-0.4-1-1-1z"></path>
<path d="M16 1c-5.5 0-10 4.5-10 10 0 2.9 1.1 5.6 3.1 7.5l0.3 0.3c1.1 1.1 2.7 2.5 2.7 3.8v1.4c0 0.6 0.4 1 1 1s1-0.4 1-1v-1.5c0-2.1-1.9-3.9-3.3-5.2l-0.4-0.3c-1.5-1.4-2.4-3.6-2.4-6 0-4.4 3.6-8 8-8 4.5 0 8 3.5 8 8 0 2.4-0.8 4.5-2.4 6l-0.3 0.3c-1.4 1.3-3.3 3.1-3.3 5.2v1.5c0 0.6 0.4 1 1 1s1-0.4 1-1v-1.5c0-1.2 1.5-2.7 2.6-3.7l0.3-0.3c2-1.9 3.1-4.5 3.1-7.5 0-5.5-4.5-10-10-10z"></path>
<path d="M16 25c0.6 0 1-0.4 1-1v-7.2c0.9-0.3 1.8-0.9 2-1 0.4-0.3 0.5-1 0.2-1.4s-1-0.5-1.4-0.2c-0.5 0.3-1.3 0.8-1.8 0.8s-1.3-0.5-1.8-0.8c-0.4-0.3-1.1-0.2-1.4 0.2s-0.2 1.1 0.2 1.4c0.2 0.1 1 0.7 2 1v7.2c0 0.6 0.4 1 1 1z"></path>
</svg>
