<svg version="1.1" xmlns="http://www.w3.org/2000/svg" width="32" height="32" viewBox="0 0 32 32">
<title>idea</title>
<path d="M13.5 30.1c-0.4 0-0.7-0.2-0.7-0.7 0-0.4 0.2-0.7 0.7-0.7h4c0.4 0 0.7 0.2 0.7 0.7 0 0.4-0.2 0.7-0.7 0.7h-4zM12.5 27.1c-0.4 0-0.7-0.2-0.7-0.7 0-0.4 0.2-0.7 0.7-0.7h6c0.4 0 0.7 0.2 0.7 0.7 0 0.4-0.2 0.7-0.7 0.7h-6zM18.5 24.1c-0.4 0-0.7-0.2-0.7-0.7v-1.5c0-2 1.9-3.8 3.2-5l0.3-0.3c1.6-1.5 2.5-3.7 2.5-6.2 0-4.7-3.7-8.4-8.4-8.4-4.6 0-8.4 3.7-8.4 8.4 0 2.5 0.9 4.8 2.5 6.3l0.4 0.3c1.2 1.2 3.2 3 3.2 4.9v1.5c0 0.4-0.2 0.7-0.7 0.7s-0.7-0.2-0.7-0.7v-1.4c0-1.3-1.3-2.5-2.4-3.7l-0.7-0.7c-1.9-1.8-3-4.4-3-7.3 0-5.3 4.3-9.7 9.7-9.7 5.3 0 9.7 4.3 9.7 9.7 0 2.9-1 5.4-3 7.3l-0.1 0.4c-1.3 1.1-2.7 2.6-2.7 3.9v1.5c0 0.4-0.3 0.7-0.7 0.7zM15.5 24.1c-0.4 0-0.7-0.2-0.7-0.7v-7.4l-0.2-0.1c-0.7-0.2-1.4-0.6-1.7-0.8-0.1-0.1-0.2-0.1-0.2-0.1-0.1-0.1-0.2-0.2-0.2-0.4s0-0.4 0.1-0.5c0.1-0.1 0.3-0.2 0.6-0.2 0.1 0 0.3 0 0.4 0.1l0.1 0.1c0.6 0.3 1.3 0.8 1.9 0.8s1.3-0.5 1.9-0.8l0.1-0.1c0.1-0.1 0.3-0.1 0.4-0.1 0.2 0 0.5 0.1 0.6 0.2s0.1 0.3 0.1 0.5c0 0.2-0.1 0.4-0.2 0.4 0 0 0 0 0 0s-0.1 0-0.2 0.1c-0.4 0.2-1 0.6-1.7 0.8l-0.4 0.1v7.5c0 0.3-0.3 0.6-0.7 0.6z"></path>
</svg>
