<!-- Generated by IcoMoon.io -->
<svg version="1.1" xmlns="http://www.w3.org/2000/svg" width="32" height="32" viewBox="0 0 32 32">
<title>idea</title>
<path fill="none" stroke-linejoin="round" stroke-linecap="round" stroke-miterlimit="4" stroke-width="2" stroke="#000" d="M19 24v-1.5c0-1.813 1.971-3.527 3.25-4.75 1.802-1.723 2.75-4.038 2.75-6.75 0-5-3.983-9-9-9-0.007-0-0.016-0-0.025-0-4.957 0-8.975 4.018-8.975 8.975 0 0.009 0 0.018 0 0.026v-0.001c0 2.615 0.988 5.087 2.75 6.75 1.272 1.201 3.25 2.919 3.25 4.75v1.5M14 30h4M13 27h6M16 24v-8"></path>
<path fill="none" stroke-linejoin="round" stroke-linecap="round" stroke-miterlimit="4" stroke-width="2" stroke="#000" d="M18.375 15s-1.344 1-2.375 1-2.375-1-2.375-1"></path>
</svg>
