<svg version="1.1" xmlns="http://www.w3.org/2000/svg" width="32" height="32" viewBox="0 0 32 32">
<title>identity_card_photo_user_profile</title>
<path d="M31.358 29.309h-30.607c-0.369 0-0.667-0.298-0.667-0.667v-21.31c0-0.369 0.298-0.667 0.667-0.667h13.175c0.369 0 0.667 0.298 0.667 0.667s-0.298 0.667-0.667 0.667h-12.508v19.977h29.274v-19.977h-12.063c-0.369 0-0.667-0.298-0.667-0.667s0.298-0.667 0.667-0.667h12.729c0.369 0 0.667 0.298 0.667 0.667v21.31c0 0.369-0.298 0.667-0.667 0.667z"></path>
<path d="M16.138 25.266h-11.005c-0.599 0-1.086-0.49-1.086-1.092v-1.496c0-0.454 0.272-0.854 0.693-1.019 2.827-1.092 3.581-1.617 3.778-1.799v-0.143c-0.346-0.414-0.621-0.927-0.807-1.505-0.257-0.25-0.426-0.585-0.477-0.945-0.051-0.367 0.021-0.729 0.204-1.044v-1.135c0-1.847 1.225-2.995 3.197-2.995 2.001 0 3.196 1.12 3.196 2.995v1.135c0.184 0.315 0.257 0.678 0.206 1.046-0.051 0.361-0.221 0.694-0.477 0.945-0.186 0.577-0.462 1.090-0.807 1.504v0.169c0.143 0.119 0.843 0.642 3.775 1.772 0.426 0.168 0.697 0.568 0.697 1.021v1.496c0 0.603-0.487 1.092-1.086 1.092zM5.38 23.932h10.51v-1.092c-3.813-1.482-4.286-2.090-4.441-2.583-0.020-0.065-0.031-0.131-0.031-0.199v-0.598c0-0.175 0.068-0.341 0.19-0.466 0.322-0.329 0.574-0.794 0.727-1.344 0.042-0.148 0.133-0.277 0.259-0.366 0.065-0.046 0.109-0.12 0.12-0.202 0.008-0.060 0.003-0.148-0.068-0.237-0.097-0.119-0.15-0.267-0.15-0.421v-1.339c0-1.133-0.592-1.661-1.863-1.661-1.236 0-1.863 0.559-1.863 1.661v1.339c0 0.154-0.053 0.301-0.149 0.421-0.071 0.087-0.076 0.176-0.068 0.236 0.011 0.083 0.055 0.158 0.121 0.203 0.126 0.089 0.217 0.219 0.258 0.366 0.154 0.549 0.405 1.014 0.727 1.344 0.122 0.125 0.19 0.292 0.19 0.466v0.598c0 0.068-0.010 0.134-0.031 0.199-0.154 0.492-0.626 1.098-4.441 2.583v1.093z"></path>
<path d="M17.298 10.678h-2.042c-0.917 0-1.689-0.689-1.796-1.603l-0.678-5.757c-0.061-0.513 0.1-1.029 0.442-1.417 0.344-0.389 0.837-0.611 1.354-0.611h3.398c0.516 0 1.009 0.222 1.353 0.609 0.344 0.391 0.505 0.908 0.443 1.42l-0.678 5.756c-0.107 0.913-0.879 1.602-1.795 1.602zM14.578 2.624c-0.135 0-0.264 0.059-0.355 0.161s-0.133 0.24-0.117 0.378l0.678 5.757c0.029 0.243 0.231 0.425 0.472 0.425h2.042c0.241 0 0.444-0.182 0.471-0.425l0.68-5.758c0.016-0.137-0.027-0.275-0.119-0.379-0.090-0.101-0.219-0.159-0.354-0.159h-3.398z"></path>
<path d="M27.302 21.319h-7.949c-0.369 0-0.667-0.298-0.667-0.667s0.298-0.667 0.667-0.667h7.949c0.369 0 0.667 0.298 0.667 0.667s-0.298 0.667-0.667 0.667z"></path>
<path d="M27.302 17.319h-7.949c-0.369 0-0.667-0.298-0.667-0.667s0.298-0.667 0.667-0.667h7.949c0.369 0 0.667 0.298 0.667 0.667s-0.298 0.667-0.667 0.667z"></path>
</svg>
