<!-- Generated by IcoMoon.io -->
<svg version="1.1" xmlns="http://www.w3.org/2000/svg" width="32" height="32" viewBox="0 0 32 32">
<title>identity_card_photo_user_profile</title>
<path d="M23 1h-14c-2.2 0-4 1.8-4 4v22c0 2.2 1.8 4 4 4h14c2.2 0 4-1.8 4-4v-22c0-2.2-1.8-4-4-4zM25 27c0 1.1-0.9 2-2 2h-14c-1.1 0-2-0.9-2-2v-22c0-1.1 0.9-2 2-2h14c1.1 0 2 0.9 2 2v22z"></path>
<path d="M20 5c0-0.6-0.4-1-1-1h-6c-0.6 0-1 0.4-1 1s0.4 1 1 1h6c0.6 0 1-0.4 1-1z"></path>
<path d="M19 17c0 0 0 0 0 0-0.8 0-1.4 0.3-1.9 0.8s-0.7 1.2-0.6 1.9c0.1 1.5 1.2 2.7 2.5 2.7s2.4-1.2 2.5-2.7c0.1-0.7-0.2-1.4-0.6-1.9v0c-0.5-0.5-1.2-0.8-1.9-0.8z"></path>
<path d="M14 27.1v0 0z"></path>
<path d="M24 27.1c-0.2-1.1-0.8-2-1.8-2.7-0.9-0.6-2-0.9-3.2-0.9s-2.3 0.3-3.2 0.9c-1 0.6-1.6 1.6-1.8 2.7 0 0.1 0 0.1 0 0.2 0 0.2 0.1 0.4 0.2 0.5v0c0.1 0.2 0.3 0.3 0.6 0.3 0 0 0 0 0 0h8.5c0 0 0 0 0 0 0.2 0 0.4-0.1 0.6-0.3 0.1-0.1 0.2-0.3 0.2-0.5-0.1-0.1-0.1-0.2-0.1-0.2z"></path>
<path d="M23.8 27.7v0 0z"></path>
</svg>
