<!-- Generated by IcoMoon.io -->
<svg version="1.1" xmlns="http://www.w3.org/2000/svg" width="32" height="32" viewBox="0 0 32 32">
<title>identity_card_photo_user_profile</title>
<path fill="none" stroke="#444" stroke-linejoin="round" stroke-linecap="butt" stroke-miterlimit="4" stroke-width="2" d="M9 2h14c1.657 0 3 1.343 3 3v22c0 1.657-1.343 3-3 3h-14c-1.657 0-3-1.343-3-3v-22c0-1.657 1.343-3 3-3z"></path>
<path fill="none" stroke="#444" stroke-linejoin="round" stroke-linecap="round" stroke-miterlimit="4" stroke-width="2" d="M13 5h6"></path>
<path d="M20.843 17.782c-0.453-0.482-1.095-0.782-1.807-0.782-0.013 0-0.025 0-0.038 0l0.002-0c-0.725 0-1.381 0.276-1.846 0.777s-0.7 1.195-0.646 1.938c0.107 1.468 1.225 2.661 2.492 2.661s2.384-1.193 2.492-2.659c0.055-0.736-0.176-1.423-0.649-1.934zM23.231 28h-8.461c-0.004 0-0.008 0-0.012 0-0.227 0-0.431-0.101-0.569-0.26l-0.001-0.001c-0.117-0.14-0.189-0.322-0.189-0.521 0-0.057 0.006-0.113 0.017-0.167l-0.001 0.005c0.203-1.098 0.836-2.019 1.831-2.666 0.884-0.574 2.004-0.891 3.154-0.891s2.27 0.316 3.154 0.891c0.995 0.647 1.628 1.569 1.831 2.666 0.010 0.049 0.016 0.105 0.016 0.162 0 0.199-0.071 0.381-0.19 0.522l0.001-0.001c-0.139 0.16-0.343 0.261-0.57 0.261-0.004 0-0.008-0-0.013-0h0.001z"></path>
</svg>
