<svg version="1.1" xmlns="http://www.w3.org/2000/svg" width="32" height="32" viewBox="0 0 32 32">
<title>identity_card_photo_tag_user_profile</title>
<path d="M21.855 21.24c-0.369 0-0.667-0.298-0.667-0.667v-0.663c-3.771-1.47-4.238-2.070-4.391-2.56-0.019-0.064-0.030-0.13-0.030-0.198v-0.591c0-0.175 0.068-0.341 0.19-0.466 0.316-0.324 0.565-0.783 0.717-1.325 0.042-0.148 0.133-0.277 0.258-0.365 0.064-0.045 0.105-0.116 0.117-0.196 0.008-0.057 0.003-0.143-0.066-0.228-0.096-0.119-0.15-0.268-0.15-0.421v-1.324c0-1.116-0.582-1.635-1.833-1.635-1.218 0-1.835 0.55-1.835 1.635v1.324c0 0.153-0.053 0.301-0.149 0.421-0.069 0.084-0.074 0.17-0.066 0.227 0.011 0.080 0.053 0.152 0.117 0.196 0.126 0.089 0.217 0.217 0.258 0.365 0.152 0.542 0.4 1.001 0.717 1.325 0.122 0.125 0.19 0.292 0.19 0.466v0.591c0 0.066-0.010 0.134-0.030 0.198-0.152 0.488-0.619 1.090-4.391 2.56v0.663c0 0.369-0.298 0.667-0.667 0.667s-0.667-0.298-0.667-0.667v-0.829c0-0.445 0.278-0.853 0.691-1.014 2.786-1.078 3.534-1.595 3.73-1.776v-0.137c-0.342-0.409-0.613-0.916-0.797-1.486-0.255-0.249-0.423-0.58-0.472-0.939-0.050-0.363 0.021-0.723 0.203-1.035v-1.12c0-1.831 1.214-2.969 3.169-2.969 1.983 0 3.167 1.11 3.167 2.969v1.119c0.182 0.313 0.254 0.672 0.203 1.036-0.049 0.359-0.217 0.691-0.473 0.94-0.184 0.57-0.456 1.076-0.797 1.485v0.163c0.141 0.115 0.836 0.63 3.728 1.749 0.413 0.158 0.693 0.565 0.693 1.016v0.829c-0 0.368-0.298 0.667-0.667 0.667z"></path>
<path d="M16.9 8.001h-1.799c-0.862 0-1.56-0.586-1.66-1.393l-0.597-4.722c-0.059-0.469 0.087-0.93 0.411-1.297 0.324-0.369 0.791-0.588 1.249-0.588h2.993c0.458 0 0.928 0.222 1.255 0.593 0.319 0.362 0.464 0.814 0.405 1.273l-0.598 4.755c-0.098 0.798-0.797 1.38-1.66 1.38zM14.504 1.334c-0.064 0-0.17 0.047-0.249 0.136-0.048 0.055-0.102 0.141-0.089 0.249l0.597 4.723c0.018 0.148 0.184 0.225 0.337 0.225h1.799c0.15 0 0.319-0.066 0.337-0.211l0.598-4.757c0.012-0.094-0.038-0.174-0.082-0.224-0.081-0.092-0.191-0.141-0.255-0.141h-2.993z"></path>
<path d="M23.525 32h-15.048c-1.792 0-3.143-1.217-3.143-2.833v-20.852c0-1.643 1.41-2.981 3.143-2.981h2.19c0.369 0 0.667 0.298 0.667 0.667s-0.298 0.667-0.667 0.667h-2.19c-0.998 0-1.81 0.739-1.81 1.647v20.852c0 0.974 0.932 1.5 1.81 1.5h15.047c0.878 0 1.81-0.526 1.81-1.5v-20.852c0-0.908-0.813-1.647-1.81-1.647h-2.19c-0.369 0-0.667-0.298-0.667-0.667s0.298-0.667 0.667-0.667h2.19c1.733 0 3.143 1.337 3.143 2.981v20.852c0 1.616-1.352 2.833-3.143 2.833z"></path>
<path d="M21.855 28h-5.043c-0.369 0-0.667-0.298-0.667-0.667s0.298-0.667 0.667-0.667h5.043c0.369 0 0.667 0.298 0.667 0.667s-0.298 0.667-0.667 0.667z"></path>
<path d="M12.812 28h-2.667c-0.369 0-0.667-0.298-0.667-0.667s0.298-0.667 0.667-0.667h2.667c0.369 0 0.667 0.298 0.667 0.667s-0.298 0.667-0.667 0.667z"></path>
<path d="M26.001 24h-20.001c-0.369 0-0.667-0.298-0.667-0.667s0.298-0.667 0.667-0.667h20.001c0.369 0 0.667 0.298 0.667 0.667s-0.298 0.667-0.667 0.667z"></path>
<path d="M16 4.027c-0.174 0-0.333-0.067-0.467-0.187-0.133-0.133-0.2-0.307-0.2-0.48s0.066-0.347 0.2-0.467c0.253-0.253 0.693-0.253 0.933-0.014 0.134 0.134 0.201 0.307 0.201 0.481s-0.066 0.346-0.201 0.48c-0.12 0.12-0.293 0.187-0.466 0.187z"></path>
</svg>
