<svg version="1.1" xmlns="http://www.w3.org/2000/svg" width="32" height="32" viewBox="0 0 32 32">
<title>image_photo_file</title>
<path d="M27.34 6.673h-5.333c-0.369 0-0.667-0.298-0.667-0.667v-5.333c0-0.369 0.298-0.667 0.667-0.667s0.667 0.298 0.667 0.667v4.667h4.667c0.369 0 0.667 0.298 0.667 0.667s-0.298 0.667-0.667 0.667z"></path>
<path d="M26.284 32.007h-20.561c-0.946 0-1.716-0.777-1.716-1.733v-28.526c0-0.96 0.77-1.741 1.716-1.741h16.284c0.557 0 0.854 0.292 1.070 0.505l4.417 4.358c0.238 0.236 0.513 0.579 0.513 1.137v24.267c0 0.956-0.772 1.733-1.723 1.733zM21.997 1.331l-16.275 0.009c-0.208 0-0.383 0.187-0.383 0.408v28.526c0 0.216 0.175 0.4 0.383 0.4h20.561c0.211 0 0.389-0.184 0.389-0.4v-24.267c0-0.047 0-0.072-0.117-0.187l-4.417-4.358c-0.037-0.037-0.115-0.114-0.142-0.13z"></path>
<path d="M24.074 24.014h-16.033c-0.697 0-1.265-0.553-1.265-1.233v-10.859c0-0.68 0.568-1.233 1.265-1.233h16.033c0.698 0 1.266 0.553 1.266 1.233v10.859c0 0.68-0.568 1.233-1.266 1.233zM24.007 11.923l-15.965 0.1 0.068 10.758 15.897-0.1v-10.758z"></path>
<path d="M11.776 18.013c-1.253 0-2.273-0.982-2.273-2.188s1.020-2.189 2.273-2.189 2.273 0.982 2.273 2.189c0 1.206-1.020 2.188-2.273 2.188zM11.776 14.969c-0.518 0-0.94 0.383-0.94 0.855 0 0.471 0.422 0.855 0.94 0.855s0.94-0.384 0.94-0.855c0-0.472-0.422-0.855-0.94-0.855z"></path>
<path d="M11.040 23.953c-0.142 0-0.286-0.046-0.407-0.139-0.292-0.225-0.345-0.643-0.12-0.935l5.314-6.874c0.126-0.163 0.32-0.258 0.526-0.259h0.001c0.204 0 0.398 0.094 0.525 0.257l1.586 2.027 2.257-3.361c0.121-0.18 0.322-0.29 0.539-0.295 0.216-0.019 0.423 0.096 0.552 0.272l3.385 4.61c0.217 0.297 0.154 0.714-0.143 0.932-0.293 0.216-0.712 0.156-0.932-0.143l-2.823-3.845-2.24 3.335c-0.119 0.178-0.316 0.288-0.529 0.296-0.254 0.003-0.418-0.087-0.549-0.257l-1.625-2.075-4.789 6.195c-0.132 0.171-0.329 0.259-0.528 0.259z"></path>
</svg>
