<svg version="1.1" xmlns="http://www.w3.org/2000/svg" width="32" height="32" viewBox="0 0 32 32">
<title>image_frame_crop_resize</title>
<path d="M25.163 24.001h-18.325c-0.773 0-1.505-0.693-1.505-1.426v-13.148c0-0.733 0.731-1.426 1.505-1.426h18.325c0.773 0 1.504 0.693 1.504 1.426v13.148c0 0.733-0.731 1.426-1.504 1.426zM25.16 9.335h-18.322c-0.050 0.005-0.156 0.084-0.177 0.134l0.006 13.107c0.015 0.008 0.121 0.087 0.175 0.092h18.319c0.055-0.007 0.159-0.085 0.18-0.134l-0.007-13.107c-0.014-0.008-0.12-0.087-0.173-0.092z"></path>
<path d="M10.801 16.182c-1.365 0-2.475-1.111-2.475-2.476s1.111-2.475 2.475-2.475c1.365 0 2.476 1.111 2.476 2.475s-1.111 2.476-2.476 2.476zM10.801 12.564c-0.63 0-1.142 0.512-1.142 1.142s0.512 1.142 1.142 1.142c0.63 0 1.143-0.512 1.143-1.142s-0.512-1.142-1.143-1.142z"></path>
<path d="M11.055 24.001c-0.116 0-0.232-0.030-0.339-0.094-0.317-0.187-0.421-0.596-0.234-0.913l4.971-8.384c0.114-0.192 0.316-0.314 0.54-0.326 0.212-0.021 0.436 0.090 0.569 0.269l1.845 2.49 2.595-4.081c0.119-0.187 0.324-0.303 0.546-0.309 0.234-0.002 0.434 0.101 0.561 0.281l4.435 6.26c0.212 0.301 0.142 0.716-0.159 0.93-0.299 0.21-0.716 0.143-0.93-0.159l-3.861-5.45-2.583 4.063c-0.117 0.185-0.319 0.301-0.539 0.309-0.216-0.010-0.428-0.094-0.559-0.269l-1.825-2.464-4.459 7.521c-0.125 0.209-0.347 0.327-0.575 0.327z"></path>
<path d="M6 6.69c-0.369 0-0.667-0.298-0.667-0.667v-2.667c0-0.369 0.298-0.667 0.667-0.667s0.667 0.298 0.667 0.667v2.667c0 0.368-0.298 0.667-0.667 0.667z"></path>
<path d="M3.333 9.357h-2.667c-0.369 0-0.667-0.298-0.667-0.667s0.298-0.667 0.667-0.667h2.667c0.369 0 0.667 0.298 0.667 0.667s-0.298 0.667-0.667 0.667z"></path>
<path d="M31.335 9.357h-2.667c-0.369 0-0.667-0.298-0.667-0.667s0.298-0.667 0.667-0.667h2.667c0.369 0 0.667 0.298 0.667 0.667s-0.298 0.667-0.667 0.667z"></path>
<path d="M3.333 24.025h-2.667c-0.369 0-0.667-0.298-0.667-0.667s0.298-0.667 0.667-0.667h2.667c0.369 0 0.667 0.298 0.667 0.667s-0.298 0.667-0.667 0.667z"></path>
<path d="M31.335 24.025h-2.667c-0.369 0-0.667-0.298-0.667-0.667s0.298-0.667 0.667-0.667h2.667c0.369 0 0.667 0.298 0.667 0.667s-0.298 0.667-0.667 0.667z"></path>
<path d="M26 6.69c-0.369 0-0.667-0.298-0.667-0.667v-2.667c0-0.369 0.298-0.667 0.667-0.667s0.667 0.298 0.667 0.667v2.667c0 0.368-0.298 0.667-0.667 0.667z"></path>
<path d="M6 29.358c-0.369 0-0.667-0.298-0.667-0.667v-2.667c0-0.369 0.298-0.667 0.667-0.667s0.667 0.298 0.667 0.667v2.667c0 0.368-0.298 0.667-0.667 0.667z"></path>
<path d="M26 29.358c-0.369 0-0.667-0.298-0.667-0.667v-2.667c0-0.369 0.298-0.667 0.667-0.667s0.667 0.298 0.667 0.667v2.667c0 0.368-0.298 0.667-0.667 0.667z"></path>
</svg>
