<svg version="1.1" xmlns="http://www.w3.org/2000/svg" width="32" height="32" viewBox="0 0 32 32">
<title>image_frame_size_rotate_resize</title>
<path d="M4.301 30.855c-1.736 0-3.149-1.413-3.149-3.15 0-1.736 1.413-3.148 3.149-3.148s3.15 1.413 3.15 3.148c0 1.737-1.413 3.15-3.15 3.15zM4.301 25.891c-1.001 0-1.816 0.814-1.816 1.815s0.814 1.816 1.816 1.816 1.816-0.815 1.816-1.816-0.815-1.815-1.816-1.815z"></path>
<path d="M27.698 30.855c-1.736 0-3.148-1.413-3.148-3.15 0-1.736 1.413-3.148 3.148-3.148 1.737 0 3.15 1.413 3.15 3.148 0 1.737-1.413 3.15-3.15 3.15zM27.698 25.891c-1.001 0-1.815 0.814-1.815 1.815s0.814 1.816 1.815 1.816 1.816-0.815 1.816-1.816-0.815-1.815-1.816-1.815z"></path>
<path d="M27.698 7.459c-1.736 0-3.148-1.413-3.148-3.15s1.413-3.149 3.148-3.149c1.737 0 3.15 1.413 3.15 3.149s-1.413 3.15-3.15 3.15zM27.698 2.493c-1.001 0-1.815 0.814-1.815 1.816s0.814 1.816 1.815 1.816 1.816-0.815 1.816-1.816-0.815-1.816-1.816-1.816z"></path>
<path d="M4.301 7.459c-1.736 0-3.149-1.413-3.149-3.15s1.413-3.149 3.149-3.149c1.737 0 3.15 1.413 3.15 3.149s-1.413 3.15-3.15 3.15zM4.301 2.493c-1.001 0-1.816 0.814-1.816 1.816s0.814 1.816 1.816 1.816 1.816-0.815 1.816-1.816-0.815-1.816-1.816-1.816z"></path>
<path d="M4.667 25.919c-0.369 0-0.667-0.298-0.667-0.667v-18.46c0-0.369 0.298-0.667 0.667-0.667s0.667 0.298 0.667 0.667v18.46c0 0.369-0.298 0.667-0.667 0.667z"></path>
<path d="M25.216 28.001h-18.432c-0.369 0-0.667-0.298-0.667-0.667s0.298-0.667 0.667-0.667h18.432c0.369 0 0.667 0.298 0.667 0.667s-0.298 0.667-0.667 0.667z"></path>
<path d="M27.333 25.891c-0.369 0-0.667-0.298-0.667-0.667v-18.432c0-0.369 0.298-0.667 0.667-0.667s0.667 0.298 0.667 0.667v18.432c0 0.368-0.298 0.667-0.667 0.667z"></path>
<path d="M25.216 5.335h-18.432c-0.369 0-0.667-0.298-0.667-0.667s0.298-0.667 0.667-0.667h18.432c0.369 0 0.667 0.298 0.667 0.667s-0.298 0.667-0.667 0.667z"></path>
</svg>
