<!-- Generated by IcoMoon.io -->
<svg version="1.1" xmlns="http://www.w3.org/2000/svg" width="32" height="32" viewBox="0 0 32 32">
<title>image_photo_file</title>
<path d="M5.898 4.586c0.375-0.375 0.884-0.586 1.414-0.586h6v7c0 0.796 0.316 1.559 0.879 2.121s1.326 0.879 2.121 0.879h7v2.125h2v-2.297c-0-0.795-0.316-1.558-0.878-2.121l-8.829-8.829c-0.562-0.562-1.325-0.878-2.121-0.878h-6.172c-1.061 0-2.078 0.421-2.828 1.172s-1.172 1.768-1.172 2.828v20c0 1.061 0.421 2.078 1.172 2.828s1.768 1.172 2.828 1.172h5.438v-2h-5.438c-0.53 0-1.039-0.211-1.414-0.586s-0.586-0.884-0.586-1.414v-20c0-0.53 0.211-1.039 0.586-1.414zM14.313 11c1 0 1-0 1-0zM15.605 11.707c-0.188-0.188-0.293-0.442-0.293-0.707v-5.586l6.586 6.586h-5.586c-0.265 0-0.52-0.105-0.707-0.293zM14.313 11l-1-0z"></path>
<path d="M16.499 19h10.001c0.45 0 0.814 0.365 0.814 0.813v6.024l-1.173-0.981c-0.324-0.27-0.736-0.409-1.157-0.389s-0.819 0.196-1.116 0.495l-0.615 0.617-2.601-2.603c-0.304-0.305-0.713-0.482-1.143-0.494s-0.849 0.14-1.17 0.426l-2.654 2.366v-5.46c0-0.448 0.363-0.813 0.814-0.813zM28.688 27.302v-7.489c0-1.209-0.98-2.188-2.187-2.188h-10.001c-1.207 0-2.187 0.978-2.187 2.188v8c0 1.209 0.98 2.188 2.187 2.188h4c0 0 0.001 0 0.002 0h6c1.207 0 2.187-0.978 2.187-2.188v-0.5c0-0.004 0-0.008 0-0.011zM27.314 27.628v0.184c0 0.448-0.363 0.813-0.814 0.813h-4.345l2.685-2.692c0.055-0.056 0.129-0.088 0.207-0.092s0.154 0.022 0.214 0.072l2.052 1.716zM20.215 28.625h-3.716c-0.45 0-0.814-0.365-0.814-0.813v-0.699l3.566-3.179c0.060-0.053 0.137-0.081 0.217-0.079s0.155 0.035 0.212 0.092l2.602 2.604-2.068 2.073zM23.989 20.977c0.178 0 0.322 0.144 0.322 0.322s-0.144 0.322-0.322 0.322-0.322-0.144-0.322-0.322c0-0.178 0.144-0.322 0.322-0.322zM22.294 21.299c0 0.937 0.759 1.697 1.695 1.697s1.695-0.76 1.695-1.697-0.759-1.697-1.695-1.697c-0.936 0-1.695 0.76-1.695 1.697z"></path>
</svg>
