<!-- Generated by IcoMoon.io -->
<svg version="1.1" xmlns="http://www.w3.org/2000/svg" width="32" height="32" viewBox="0 0 32 32">
<title>import_file_load</title>
<path d="M6.023 4.586c0.375-0.375 0.884-0.586 1.414-0.586h6v7c0 0.796 0.316 1.559 0.879 2.121s1.326 0.879 2.121 0.879h7v2.125h2v-2.297c-0-0.795-0.316-1.558-0.878-2.121l-8.829-8.829c-0.562-0.562-1.325-0.878-2.121-0.878h-6.172c-1.061 0-2.078 0.421-2.828 1.172s-1.172 1.768-1.172 2.828v20c0 1.061 0.421 2.078 1.172 2.828s1.768 1.172 2.828 1.172h5.438v-2h-5.438c-0.53 0-1.039-0.211-1.414-0.586s-0.586-0.884-0.586-1.414v-20c0-0.53 0.211-1.039 0.586-1.414zM14.438 11c1 0 1-0 1-0zM15.73 11.707c-0.188-0.188-0.293-0.442-0.293-0.707v-5.586l6.586 6.586h-5.586c-0.265 0-0.52-0.105-0.707-0.293zM14.438 11l-1-0z"></path>
<path d="M16.73 26.52c0.391 0.39 1.024 0.39 1.414 0s0.39-1.024 0-1.414l-1.293-1.293h10.711c0.552 0 1-0.448 1-1s-0.448-1-1-1h-10.711l1.293-1.293c0.39-0.391 0.39-1.024 0-1.414s-1.024-0.39-1.414 0l-3 3c-0.39 0.391-0.39 1.024 0 1.414l3 3z"></path>
</svg>
