<svg version="1.1" xmlns="http://www.w3.org/2000/svg" width="32" height="32" viewBox="0 0 32 32">
<title>import_file_load</title>
<path d="M31.366 6.673h-5.333c-0.369 0-0.667-0.298-0.667-0.667v-5.333c0-0.369 0.298-0.667 0.667-0.667s0.667 0.298 0.667 0.667v4.667h4.667c0.369 0 0.667 0.298 0.667 0.667s-0.298 0.667-0.667 0.667z"></path>
<path d="M30.31 32.007h-20.561c-0.947 0-1.716-0.777-1.716-1.733v-8.883c0-0.369 0.298-0.667 0.667-0.667s0.667 0.298 0.667 0.667v8.883c0 0.216 0.175 0.4 0.383 0.4h20.561c0.211 0 0.389-0.184 0.389-0.4v-24.267c0-0.047 0-0.072-0.117-0.187l-4.417-4.358c-0.036-0.037-0.115-0.114-0.142-0.13l-16.275 0.009c-0.208 0-0.383 0.187-0.383 0.408v10.247c0 0.369-0.298 0.667-0.667 0.667s-0.667-0.298-0.667-0.667v-10.247c0-0.96 0.769-1.741 1.716-1.741h16.284c0.557 0 0.854 0.292 1.070 0.505l4.417 4.358c0.238 0.236 0.513 0.579 0.513 1.137v24.267c0 0.956-0.773 1.733-1.723 1.733z"></path>
<path d="M18.119 17.38h-17.579c-0.369 0-0.667-0.298-0.667-0.667s0.298-0.667 0.667-0.667h17.579c0.369 0 0.667 0.298 0.667 0.667s-0.298 0.667-0.667 0.667z"></path>
<path d="M13.887 21.794c-0.166 0-0.332-0.061-0.462-0.185-0.266-0.255-0.275-0.677-0.019-0.943l3.789-3.953-3.789-3.951c-0.255-0.266-0.246-0.688 0.019-0.943s0.688-0.245 0.943 0.019l4.232 4.413c0.246 0.258 0.246 0.664 0 0.922l-4.232 4.414c-0.131 0.137-0.306 0.206-0.481 0.206z"></path>
</svg>
