<!-- Generated by IcoMoon.io -->
<svg version="1.1" xmlns="http://www.w3.org/2000/svg" width="32" height="32" viewBox="0 0 32 32">
<title>info_about_round</title>
<path d="M15.5 3c-6.9 0-12.5 5.6-12.5 12.5s5.6 12.5 12.5 12.5 12.5-5.6 12.5-12.5-5.6-12.5-12.5-12.5zM15.5 26c-5.8 0-10.5-4.7-10.5-10.5s4.7-10.5 10.5-10.5c5.8 0 10.5 4.7 10.5 10.5s-4.7 10.5-10.5 10.5zM19.5 21.2c0 0.6-0.4 1-1 1h-5.5c-0.6 0-1-0.4-1-1s0.4-1 1-1h1.8v-5.5h-1c-0.6 0-1-0.4-1-1s0.4-1 1-1h2c0.6 0 1 0.4 1 1v6.5h1.8c0.5 0 0.9 0.5 0.9 1zM13.9 9.8c0-0.9 0.7-1.6 1.6-1.6s1.6 0.7 1.6 1.6-0.7 1.6-1.6 1.6-1.6-0.8-1.6-1.6z"></path>
</svg>
