<svg version="1.1" xmlns="http://www.w3.org/2000/svg" width="32" height="32" viewBox="0 0 32 32">
<title>information_about</title>
<path d="M15.981 31.878c-8.764 0-15.895-7.13-15.895-15.896 0-8.764 7.13-15.895 15.895-15.895s15.895 7.13 15.895 15.895c-0 8.766-7.13 15.896-15.895 15.896zM15.981 1.421c-8.029 0-14.561 6.532-14.561 14.561s6.532 14.563 14.561 14.563c8.029 0 14.561-6.533 14.561-14.563s-6.533-14.561-14.561-14.561z"></path>
<path d="M15.984 11.969c-2.189 0-3.97-1.781-3.97-3.97s1.781-3.969 3.97-3.969 3.97 1.781 3.97 3.969-1.781 3.97-3.97 3.97zM15.984 5.363c-1.454 0-2.637 1.182-2.637 2.636s1.183 2.637 2.637 2.637c1.454 0 2.637-1.183 2.637-2.637s-1.182-2.636-2.637-2.636z"></path>
<path d="M20.668 26.647h-8.096c-1.023 0-1.765-0.818-1.765-1.943 0-0.484 0.146-0.947 0.409-1.299 0.327-0.439 0.809-0.68 1.355-0.68h0.934v-5.51h-0.934c-1.023 0-1.764-0.82-1.764-1.95 0-0.484 0.145-0.944 0.409-1.296 0.326-0.436 0.808-0.675 1.355-0.675h6.454c0.586 0 1.063 0.479 1.063 1.067v8.365h0.579c1.005 0 1.763 0.85 1.763 1.978 0 0.482-0.145 0.937-0.408 1.283-0.324 0.427-0.806 0.661-1.355 0.661zM12.572 24.059c-0.426 0-0.432 0.639-0.432 0.646 0 0.102 0.021 0.609 0.432 0.609h8.096c0.409 0 0.43-0.509 0.43-0.611 0-0.007-0.005-0.645-0.43-0.645h-1.246c-0.369 0-0.667-0.298-0.667-0.667v-8.765h-6.184c-0.426 0-0.431 0.612-0.431 0.638 0 0.103 0.021 0.617 0.431 0.617h1.6c0.369 0 0.667 0.298 0.667 0.667v6.844c0 0.369-0.298 0.667-0.667 0.667h-1.6z"></path>
</svg>
