<svg version="1.1" xmlns="http://www.w3.org/2000/svg" width="32" height="32" viewBox="0 0 32 32">
<title>information_office_desk_support_help</title>
<path d="M8.29 11.243c-1.928 0-3.207-2.425-3.207-4.029 0-1.768 1.439-3.207 3.207-3.207s3.207 1.439 3.207 3.207c0 1.604-1.279 4.029-3.207 4.029zM8.29 5.34c-1.033 0-1.874 0.841-1.874 1.874 0 1.128 0.944 2.696 1.874 2.696s1.874-1.568 1.874-2.696c0-1.033-0.841-1.874-1.874-1.874z"></path>
<path d="M30.652 29.333h-29.333c-0.369 0-0.667-0.298-0.667-0.667s0.298-0.667 0.667-0.667h29.333c0.369 0 0.667 0.298 0.667 0.667s-0.298 0.667-0.667 0.667z"></path>
<path d="M8.997 26.639h-3.769c-0.799 0-1.566-0.339-2.104-0.928s-0.806-1.385-0.733-2.181l0.551-6.022c-0.003-2.099 1.291-4.036 3.293-4.875 0.29-0.123 0.626-0.025 0.806 0.236 0.386 0.557 0.829 0.865 1.248 0.865v0c0.419 0 0.862-0.307 1.248-0.865 0.208-0.305 0.624-0.379 0.927-0.169s0.379 0.624 0.169 0.927c-0.642 0.929-1.475 1.44-2.344 1.44 0 0 0 0-0.001 0-0.715 0-1.405-0.346-1.984-0.984-1.248 0.712-2.031 2.033-2.031 3.487l-0.554 6.083c-0.040 0.43 0.099 0.841 0.389 1.16 0.291 0.318 0.689 0.493 1.12 0.493h3.769c0.369 0 0.667 0.298 0.667 0.667s-0.298 0.667-0.667 0.667z"></path>
<path d="M27.384 25.333h-2.069c-0.369 0-0.667-0.298-0.667-0.667s0.298-0.667 0.667-0.667h2.069c0.271 0 0.598-0.299 0.598-0.487v-8.464c0-0.158-0.309-0.382-0.598-0.382h-13.619c-0.217 0-0.451 0.154-0.451 0.382v8.464c0 0.237 0.232 0.487 0.451 0.487h2.216c0.369 0 0.667 0.298 0.667 0.667s-0.298 0.667-0.667 0.667h-2.216c-0.951 0-1.784-0.85-1.784-1.82v-8.464c0-0.946 0.8-1.716 1.784-1.716h13.619c0.913 0 1.931 0.704 1.931 1.715v8.464c0 0.936-0.939 1.82-1.931 1.82z"></path>
<path d="M22.961 29.333c-0.007 0.001-0.017 0-0.026 0h-4.569c-0.189 0-0.369-0.079-0.495-0.22s-0.187-0.327-0.168-0.514l0.685-6.667c0.035-0.34 0.32-0.599 0.663-0.599h3.138c0.34 0 0.625 0.255 0.663 0.592l0.725 6.484c0.033 0.079 0.051 0.165 0.051 0.257 0 0.369-0.298 0.667-0.667 0.667zM19.104 28h3.086l-0.598-5.333h-1.94l-0.548 5.333z"></path>
</svg>
