<svg version="1.1" xmlns="http://www.w3.org/2000/svg" width="32" height="32" viewBox="0 0 32 32">
<title>information_desk_support_help</title>
<path d="M19.691 14.583c-0.595 0-1.043-0.489-1.043-1.138l-0.039-1.445c-1.497 0-2.628-1.128-2.628-2.624v-3.95c0-1.547 1.154-2.76 2.628-2.76h8.005c1.49 0 2.701 1.238 2.701 2.76v3.95c0 1.471-1.186 2.624-2.701 2.624h-3.885l-2.236 2.24c-0.245 0.228-0.523 0.344-0.802 0.344zM18.609 4c-0.725 0-1.294 0.626-1.294 1.426v3.95c0 0.76 0.533 1.29 1.294 1.29h0.706c0.369 0 0.667 0.298 0.667 0.667v1.533l2-2.003c0.125-0.126 0.294-0.196 0.471-0.196h4.161c0.792 0 1.367-0.543 1.367-1.29v-3.95c0-0.786-0.613-1.426-1.367-1.426h-8.005z"></path>
<path d="M9.47 13.936c-1.666 0-2.771-2.078-2.771-3.453 0-1.528 1.243-2.771 2.771-2.771s2.771 1.243 2.771 2.771c0 1.375-1.105 3.453-2.771 3.453zM9.47 9.046c-0.793 0-1.438 0.645-1.438 1.438 0 0.876 0.743 2.119 1.438 2.119s1.438-1.243 1.438-2.119c0-0.793-0.645-1.438-1.438-1.438z"></path>
<path d="M30.648 29.333h-29.333c-0.369 0-0.667-0.298-0.667-0.667s0.298-0.667 0.667-0.667h29.333c0.369 0 0.667 0.298 0.667 0.667s-0.298 0.667-0.667 0.667z"></path>
<path d="M13.988 26.694c-0.341 0-0.631-0.26-0.663-0.605l-0.638-6.964c-0.002-1.186-0.597-2.225-1.551-2.806-0.978 1.021-2.353 1.021-3.331 0-0.954 0.579-1.548 1.612-1.548 2.745l-0.46 5.051c-0.030 0.323 0.074 0.634 0.293 0.874s0.519 0.372 0.844 0.372h3.123c0.369 0 0.667 0.298 0.667 0.667s-0.298 0.667-0.667 0.667h-3.123c-0.694 0-1.361-0.294-1.829-0.807s-0.699-1.203-0.636-1.895l0.457-4.99c-0.003-1.775 1.097-3.421 2.798-4.134 0.291-0.122 0.626-0.024 0.806 0.236 0.595 0.861 1.285 0.861 1.88 0 0.179-0.26 0.514-0.357 0.806-0.236 1.701 0.713 2.801 2.359 2.801 4.195l0.635 6.902c0.033 0.367-0.236 0.691-0.603 0.725-0.020 0.001-0.041 0.003-0.061 0.003z"></path>
</svg>
