<!-- Generator: Adobe Illustrator 28.1.0, SVG Export Plug-In . SVG Version: 6.00 Build 0)  -->
<svg version="1.1" id="Capa_1" xmlns="http://www.w3.org/2000/svg" xmlns:xlink="http://www.w3.org/1999/xlink" x="0px" y="0px"
	 viewBox="0 0 32 32" style="enable-background:new 0 0 32 32;" xml:space="preserve">
<title>ingestion_collect_layers</title>
<desc>ingestion, collect, layers, square, line, archive, folder</desc>
<path d="M5.3,31c-0.6,0-1.1-0.4-1.2-1L1,9.8C1,9.5,1.1,9.2,1.3,8.9c0.2-0.3,0.5-0.4,0.9-0.4h27.6c0.3,0,0.7,0.1,0.9,0.4
	C30.9,9.2,31,9.5,31,9.8L27.9,30c-0.1,0.6-0.6,1-1.2,1H5.3z M6.3,28.7h19.5l2.7-17.9H3.5L6.3,28.7L6.3,28.7z M2.6,7.1l-0.2-1
	c-0.1-0.3,0-0.7,0.3-0.9C3,4.9,3.3,4.8,3.6,4.8h24c0.3,0,0.7,0.1,0.9,0.4c0.2,0.3,0.3,0.6,0.3,0.9l-0.2,1H2.6z M4.8,3.3l-0.2-1
	C4.6,2,4.7,1.7,4.9,1.4C5.2,1.1,5.5,1,5.8,1h20.3c0.3,0,0.7,0.1,0.9,0.4c0.2,0.3,0.3,0.6,0.3,0.9l-0.2,1H4.8z"/>
</svg>
