<!-- Generated by IcoMoon.io -->
<svg version="1.1" xmlns="http://www.w3.org/2000/svg" width="32" height="32" viewBox="0 0 32 32">
<title>injection</title>
<path d="M31.793 0.299c-0.28-0.28-0.732-0.28-1.012 0l-7.307 7.308-2.405-2.407c-0.28-0.28-0.732-0.28-1.012 0l-9.269 9.269c0 0 0 0 0 0s0 0 0 0l-1.991 1.991c-0.001 0.001-0.001 0.001-0.003 0.001s-0.001 0.001-0.001 0.003l-4.165 4.165c-0.135 0.135-0.209 0.316-0.209 0.505 0 0.191 0.076 0.372 0.209 0.505l0.993 0.993-3.264 3.265-0.993-0.992c-0.28-0.28-0.732-0.28-1.012 0s-0.28 0.732 0 1.012l5.821 5.82c0.14 0.14 0.323 0.209 0.505 0.209s0.365-0.069 0.505-0.209c0.28-0.28 0.28-0.732 0-1.012l-0.992-0.993 3.264-3.264 0.995 0.993c0.135 0.135 0.316 0.209 0.505 0.209 0.191 0 0.372-0.076 0.505-0.209l15.429-15.429c0.28-0.28 0.28-0.732 0-1.012l-2.404-2.404 7.307-7.308c0.279-0.279 0.279-0.732 0-1.011zM5.18 28.721l-1.812-1.811 3.264-3.264 1.811 1.811-3.263 3.264zM10.955 25.945l-0.991-0.991c-0.001-0.001-0.001-0.003-0.003-0.004l-2.823-2.823c-0.001-0.001-0.001-0.001-0.003-0.001l-0.992-0.992 1.163-1.163 2.405 2.405c0.14 0.14 0.323 0.209 0.505 0.209s0.367-0.069 0.505-0.209c0.28-0.28 0.28-0.732 0-1.012l-2.403-2.404 0.981-0.981 0.949 0.949c0.14 0.14 0.323 0.209 0.505 0.209s0.365-0.069 0.505-0.209c0.28-0.28 0.28-0.732 0-1.012l-0.949-0.949 0.981-0.981 2.405 2.404c0.14 0.14 0.323 0.209 0.505 0.209s0.367-0.069 0.505-0.209c0.28-0.28 0.28-0.732 0-1.012l-2.405-2.404 0.981-0.981 0.949 0.951c0.14 0.14 0.323 0.209 0.505 0.209s0.367-0.069 0.505-0.209c0.28-0.28 0.28-0.733 0-1.012l-0.949-0.949 0.981-0.981 2.405 2.405c0.14 0.14 0.323 0.209 0.505 0.209s0.365-0.069 0.505-0.209c0.28-0.28 0.28-0.732 0-1.012l-2.405-2.405 0.981-0.981 0.951 0.949c0.14 0.14 0.323 0.209 0.505 0.209s0.365-0.069 0.505-0.209c0.28-0.28 0.28-0.732 0-1.012l-0.951-0.949 2.28-2.28 4.811 4.809-14.416 14.42z"></path>
</svg>
