<svg version="1.1" xmlns="http://www.w3.org/2000/svg" width="32" height="32" viewBox="0 0 32 32">
<title>inject</title>
<path d="M31.701 7.212l-6.912-6.912c-0.188-0.211-0.461-0.343-0.765-0.343-0.566 0-1.024 0.458-1.024 1.024 0 0.303 0.132 0.576 0.342 0.764l0.001 0.001 2.733 2.734-4.316 4.314-5.037-5.037c-0.189-0.212-0.462-0.345-0.767-0.345-0.566 0-1.024 0.458-1.024 1.024 0 0.305 0.133 0.579 0.345 0.766l0.001 0.001 1.581 1.582-10.799 10.798c-0.184 0.185-0.298 0.441-0.298 0.723s0.114 0.537 0.298 0.723l0.429 0.429-2.733 2.734c-0.185 0.185-0.299 0.441-0.299 0.723s0.114 0.538 0.299 0.723l-0-0 1.581 1.58-5.038 5.040c-0.184 0.185-0.298 0.441-0.298 0.723s0.114 0.537 0.298 0.723l-0-0c0.185 0.185 0.441 0.299 0.723 0.299s0.538-0.114 0.723-0.299l5.039-5.037 1.581 1.581c0.185 0.185 0.441 0.299 0.723 0.299s0.538-0.114 0.723-0.299l2.733-2.733 0.429 0.429c0.185 0.185 0.441 0.299 0.723 0.3h0c0.001 0 0.002 0 0.003 0 0.281 0 0.535-0.114 0.719-0.299l10.798-10.799 1.581 1.581c0.185 0.186 0.442 0.301 0.726 0.301 0 0 0 0 0 0v0c0.563-0.004 1.017-0.461 1.017-1.024 0-0.281-0.113-0.535-0.296-0.72l-5.038-5.040 4.314-4.316 2.733 2.733c0.185 0.185 0.441 0.299 0.723 0.299 0 0 0.001 0 0.002 0h-0c0.563-0.004 1.017-0.461 1.017-1.024 0-0.281-0.113-0.535-0.296-0.72l0 0zM9.088 26.076l-3.163-3.164 2.011-2.010 3.162 3.162zM13.696 23.772l-5.467-5.468 10.075-10.076 5.468 5.468z"></path>
</svg>
