<!-- Generated by IcoMoon.io -->
<svg version="1.1" xmlns="http://www.w3.org/2000/svg" width="32" height="32" viewBox="0 0 32 32">
<title>inject_full</title>
<path d="M31.702 7.212l-6.912-6.912c-0.185-0.184-0.44-0.298-0.722-0.298-0.565 0-1.023 0.457-1.024 1.021v0c0 0.001 0 0.002 0 0.003 0 0.281 0.114 0.535 0.299 0.719l2.733 2.733-4.316 4.314-5.036-5.037c-0.188-0.211-0.461-0.343-0.764-0.343-0.566 0-1.024 0.458-1.024 1.024 0 0.303 0.132 0.576 0.342 0.764l1.582 1.583-10.799 10.798c-0.184 0.185-0.298 0.441-0.298 0.723s0.114 0.537 0.298 0.723v0l0.429 0.429-2.733 2.734c-0.185 0.185-0.299 0.441-0.299 0.723s0.114 0.538 0.299 0.723v0l1.581 1.58-5.038 5.040c-0.184 0.185-0.298 0.441-0.298 0.723s0.114 0.537 0.298 0.723v0c0.185 0.185 0.441 0.299 0.723 0.299 0.001 0 0.001 0 0.002 0v0c0.001 0 0.002 0 0.003 0 0.281 0 0.535-0.114 0.719-0.298l5.038-5.038 1.581 1.581c0.185 0.185 0.441 0.299 0.723 0.3v0c0.001 0 0.003 0 0.004 0 0.281 0 0.534-0.114 0.718-0.298l2.734-2.735 0.429 0.429c0.185 0.185 0.441 0.299 0.723 0.3v0c0.001 0 0.002 0 0.003 0 0.281 0 0.535-0.114 0.718-0.299l10.799-10.799 1.581 1.581c0.185 0.186 0.442 0.301 0.726 0.301 0 0 0.001 0 0.001 0v0c0.563-0.003 1.018-0.461 1.018-1.024 0-0.281-0.113-0.535-0.296-0.72l-5.038-5.040 4.313-4.316 2.733 2.733c0.185 0.185 0.441 0.299 0.723 0.299 0 0 0.001 0 0.002 0v0c0.563-0.004 1.018-0.461 1.018-1.024 0-0.281-0.113-0.535-0.296-0.72v0zM9.174 17.361l9.13-9.133 5.468 5.468-3.666 3.665z"></path>
</svg>
