<svg version="1.1" xmlns="http://www.w3.org/2000/svg" width="32" height="32" viewBox="0 0 32 32">
<title>injection_edit</title>
<path d="M30 17.733l-2.4-1.333c-0.267-0.133-0.8-0.133-1.067 0.267l-6.267 10.933c0 0 0 0 0 0.133 0 0 0 0 0 0 0 0.267-0.133 1.067-0.4 3.333 0 0.267 0.133 0.533 0.4 0.8 0.267 0.133 0.533 0.133 0.8 0 2-1.333 2.533-1.867 2.8-2 0 0 0 0 0 0s0.133-0.133 0.133-0.133l6.267-10.933c0.267-0.4 0.133-0.933-0.267-1.067zM29.467 18.4l-6.133 10.533-0.667-0.4 5.333-9.333c0.133-0.267 0-0.533-0.133-0.533-0.267-0.133-0.533 0-0.533 0.133l-5.333 9.333-0.8-0.4 6.133-10.533 2.133 1.2zM22 30.133l-1.2-0.667c0-0.4 0.133-0.667 0.133-0.933l1.867 1.067c-0.133 0.133-0.4 0.267-0.8 0.533zM20.667 31.067c0-0.267 0-0.4 0.133-0.667l0.533 0.267c-0.267 0.133-0.4 0.267-0.667 0.4z"></path>
<path d="M31.333 14.4l-1.6-0.933c-0.533-0.4-1.333-0.133-1.6 0.4l-0.533 0.8c-0.133 0.267 0 0.533 0.133 0.533 0.267 0.133 0.533 0 0.533-0.133l0.533-0.8c0.133-0.133 0.267-0.267 0.533-0.133l1.6 0.933c0.133 0.133 0.267 0.4 0.133 0.533l-0.4 0.933c-0.133 0.267 0 0.533 0.133 0.533 0.267 0.133 0.533 0 0.533-0.133l0.533-0.8c0.267-0.533 0.133-1.333-0.533-1.733z"></path>
<path d="M31.467 0.267c-0.267-0.267-0.667-0.267-1.067 0l-7.2 7.2-3.2-3.2c-0.267-0.267-0.667-0.267-1.067 0l-15.2 15.333c-0.133 0.133-0.267 0.267-0.267 0.533 0 0.133 0.133 0.4 0.267 0.533l1.733 1.733-3.333 3.333-0.933-0.933c-0.267-0.267-0.667-0.267-1.067 0-0.267 0.267-0.267 0.667 0 1.067l5.733 5.733c0.133 0.133 0.267 0.267 0.533 0.267 0.133 0 0.4-0.133 0.533-0.267 0.267-0.267 0.267-0.667 0-1.067l-0.933-0.933 3.2-3.2 1.867 1.6c0.133 0.133 0.267 0.267 0.533 0.267 0.133 0 0.4-0.133 0.533-0.267l15.2-15.333c0.267-0.267 0.267-0.667 0-1.067l-3.2-3.2 7.2-7.2c0.4-0.267 0.4-0.667 0.133-0.933zM4.933 28.4l-1.733-1.733 3.2-3.2 1.733 1.733-3.2 3.2zM25.867 12.133l-14.267 14.267-6.4-6.4 1.467-1.467 2 2c0.133 0.133 0.267 0.133 0.4 0.133s0.267 0 0.4-0.133c0.267-0.267 0.267-0.533 0-0.8l-2-2 1.067-1.067 0.933 0.933c0.133 0.133 0.267 0.133 0.4 0.133s0.267 0 0.4-0.133c0.267-0.267 0.267-0.533 0-0.8l-0.933-0.8 1.067-1.067 0.8 0.8c0.133 0.133 0.267 0.133 0.4 0.133s0.267 0 0.4-0.133c0.267-0.267 0.267-0.533 0-0.8l-0.8-0.8 1.067-1.067 0.933 0.933c0.133 0.133 0.267 0.133 0.4 0.133s0.267 0 0.4-0.133c0.267-0.267 0.267-0.533 0-0.8l-0.933-0.933 1.067-1.067 2 2c0.133 0.133 0.267 0.133 0.4 0.133s0.267 0 0.4-0.133c0.267-0.267 0.267-0.533 0-0.8l-2-2 1.067-1.067 0.933 0.933c0.133 0.133 0.267 0.133 0.4 0.133s0.267 0 0.4-0.133c0.267-0.267 0.267-0.533 0-0.8l-0.933-0.933 2.8-2.8 6.267 6.4z"></path>
<path d="M19.867 7.333c-0.133 0-0.133 0-0.267 0 0 0 0 0-0.133 0s-0.133 0-0.267 0.133c0 0 0 0 0 0-0.267 0.133-0.4 0.267-0.533 0.4 0 0 0 0 0 0s0 0 0 0c0 0.133 0 0.133-0.133 0.267 0 0.133-0.133 0.133-0.133 0.267 0 0 0 0 0 0s0 0 0 0c0 0.133-0.133 0.267-0.133 0.4 0 0 0 0 0 0 0 0.133 0 0.267 0 0.267s0 0 0 0c0 0.133 0 0.133 0 0.267 0 0 0 0 0 0.133s0 0.133 0 0.267c0 0 0 0 0 0 0.133 0.267 0.267 0.533 0.4 0.667s0.267 0.267 0.4 0.267c0 0 0.133 0.133 0.133 0.133-0.133 0.933-0.133 1.867-0.267 2.933 0 0-0.133 0-0.133 0-0.933 0-1.733 0.667-1.867 1.6 0 0.133 0 0.133-0.133 0.133-0.8 0.267-1.6 0.533-2.267 0.8-0.133 0-0.133 0-0.267 0-0.533-0.667-1.6-0.8-2.267-0.267-0.933 0.667-1.067 2-0.267 2.8 0.133 0.133 0.133 0.133 0.133 0.267-0.133 0.8-0.4 1.733-0.533 2.533 0 0.133-0.133 0.133-0.133 0.133-0.533 0-0.933 0.267-1.2 0.8-0.533 0.933-0.267 2 0.533 2.533s2 0.267 2.533-0.533c0.533-0.933 0.267-2-0.667-2.533-0.133 0-0.133-0.133-0.133-0.133 0.133-0.8 0.267-1.6 0.533-2.4 0-0.133 0.133-0.133 0.133-0.133 0.8 0 1.333-0.267 1.733-0.933 0.133-0.267 0.267-0.667 0.133-1.067 0 0 0-0.133 0.133-0.133 0.667-0.267 1.467-0.533 2.133-0.667 0.133 0 0.133 0 0.133 0.133s0.133 0.133 0.133 0.267c0.533 0.667 1.6 0.8 2.4 0.4 1.067-0.667 1.2-2 0.267-2.8-0.133-0.133-0.133-0.133-0.133-0.267 0.133-1.2 0.133-2.133 0.267-3.2 0-0.133 0-0.133 0.133-0.133 0.4 0 0.8-0.133 1.067-0.533 0.133-0.133 0.267-0.4 0.4-0.533 0 0 0 0 0 0 0-0.133 0.133-0.133 0.133-0.267 0 0 0 0 0 0 0-0.133 0-0.267 0-0.267 0-0.133 0-0.267 0-0.4 0-0.4-0.133-0.667-0.4-1.067 0 0 0 0 0-0.133-0.533-0.267-1.067-0.4-1.6-0.4zM12 24.133c-0.4 0.4-0.933 0.4-1.2 0-0.4-0.4-0.4-0.933 0-1.2 0.4-0.4 0.933-0.4 1.2 0 0.4 0.267 0.4 0.8 0 1.2zM13.6 18.133c-0.4 0.4-0.933 0.4-1.2 0-0.4-0.4-0.4-0.933 0-1.2 0.4-0.4 0.933-0.4 1.2 0 0.4 0.267 0.4 0.8 0 1.2zM19.333 16.133c-0.4 0.4-0.933 0.4-1.333 0s-0.267-0.933 0-1.2c0.4-0.4 0.933-0.4 1.2 0 0.533 0.267 0.533 0.933 0.133 1.2zM20.667 9.867c-0.4 0.4-0.933 0.4-1.333 0s-0.267-0.933 0-1.2c0.4-0.4 0.933-0.267 1.2 0 0.4 0.267 0.4 0.8 0.133 1.2z"></path>
</svg>
