<svg version="1.1" xmlns="http://www.w3.org/2000/svg" width="59" height="32" viewBox="0 0 59 32">
<title>input_filter_funnel</title>
<path d="M27.867 4.933c0-0.133 0.133-0.133 0.133-0.267s0-0.267 0-0.4c0-2.667-7.333-3.867-14-3.867-6.667-0.133-14 1.2-14 3.867 0 0.133 0 0.4 0.133 0.533 0 0.133 0.133 0.267 0.133 0.267s0 0.133 0.133 0.133c0 0 0 0 0 0l9.867 15.067v10.8c0 0.267 0.133 0.533 0.4 0.533 0.133 0 0.267 0.133 0.267 0.133 0.133 0 0.267 0 0.4-0.133l6.4-4.4c0.133-0.133 0.267-0.267 0.267-0.533v-6.267l9.6-15.067c0 0 0 0 0-0.133 0.133 0 0.133-0.133 0.267-0.267zM14 1.6c8.267 0 12.667 1.733 12.667 2.533 0 0.133-0.133 0.133-0.133 0.267v0.133c-0.933 0.933-5.333 2.267-12.533 2.267s-11.6-1.333-12.533-2.267v-0.133c0 0-0.133-0.133-0.133-0.267 0-0.8 4.533-2.533 12.667-2.533zM16.667 19.733c-0.133 0.133-0.133 0.267-0.133 0.4v6.133l-5.067 3.467v-9.733c0-0.133 0-0.267-0.133-0.4l-8.4-12.8c2.8 0.933 6.933 1.467 11.067 1.467s8.267-0.4 11.067-1.467l-8.4 12.933z"></path>
<path d="M42.8 28.667c-0.4 0-0.667-0.267-0.667-0.667s0.267-0.667 0.667-0.667h1.2v-22.533h-1.2c-0.4 0-0.667-0.267-0.667-0.667s0.267-0.667 0.667-0.667h3.6c0.4 0 0.667 0.267 0.667 0.667s-0.267 0.667-0.667 0.667h-1.067v22.4h1.067c0.4 0 0.667 0.267 0.667 0.667s-0.267 0.667-0.667 0.667h-3.6z"></path>
<path d="M47.733 24.933c-0.4 0-0.667-0.267-0.667-0.667s0.267-0.667 0.667-0.667h10.267v-15.2h-10.267c-0.4 0-0.667-0.267-0.667-0.667s0.267-0.667 0.667-0.667h10.933c0.4 0 0.667 0.267 0.667 0.667v16.533c0 0.4-0.267 0.667-0.667 0.667h-10.933z"></path>
<path d="M27.2 8.4l0.933-1.333h13.467c0.4 0 0.667 0.267 0.667 0.667s-0.267 0.667-0.667 0.667h-14.4z"></path>
<path d="M21.067 24.933c-0.4 0-0.667-0.267-0.667-0.667v-5.333l1.333-2v6.667h19.867c0.4 0 0.667 0.267 0.667 0.667s-0.267 0.667-0.667 0.667h-20.533z"></path>
<path d="M30.933 17.6h-2.933l-0.8 2.267h-1.067l2.8-7.6h1.067l2.8 7.6h-1.067l-0.8-2.267zM29.467 13.2c0 0-0.133 0.667-0.267 1.067l-0.8 2.4h2.267l-0.8-2.4c-0.133-0.4-0.4-1.067-0.4-1.067v0z"></path>
<path d="M34 12.133h2.667c1.333 0 2.267 0.667 2.267 2 0 0.8-0.4 1.333-0.933 1.6v0c0.8 0.267 1.2 0.933 1.2 1.867 0 1.467-1.067 2.133-2.4 2.133h-2.8v-7.6zM36.667 15.333c0.667 0 1.067-0.533 1.067-1.2s-0.4-1.067-1.067-1.067h-1.6v2.267h1.6zM36.8 18.933c0.8 0 1.333-0.533 1.333-1.333s-0.533-1.333-1.333-1.333h-1.733v2.667h1.733z"></path>
</svg>
