<!-- Generated by IcoMoon.io -->
<svg version="1.1" xmlns="http://www.w3.org/2000/svg" width="32" height="32" viewBox="0 0 32 32">
<title>input_box_text_edit</title>
<path d="M11.333 25.336c-0.369 0-0.667-0.298-0.667-0.667v-17.335c0-0.369 0.298-0.667 0.667-0.667s0.667 0.298 0.667 0.667v17.335c0 0.368-0.298 0.667-0.667 0.667z"></path>
<path d="M12.663 8.001h-2.652c-0.369 0-0.667-0.298-0.667-0.667s0.298-0.667 0.667-0.667h2.652c0.369 0 0.667 0.298 0.667 0.667s-0.298 0.667-0.667 0.667z"></path>
<path d="M12.663 25.336h-2.652c-0.369 0-0.667-0.298-0.667-0.667s0.298-0.667 0.667-0.667h2.652c0.369 0 0.667 0.298 0.667 0.667s-0.298 0.667-0.667 0.667z"></path>
<path d="M8.667 22.668h-8c-0.369 0-0.667-0.298-0.667-0.667v-12c0-0.369 0.298-0.667 0.667-0.667h8c0.369 0 0.667 0.298 0.667 0.667s-0.298 0.667-0.667 0.667h-7.333v10.667h7.333c0.369 0 0.667 0.298 0.667 0.667s-0.298 0.667-0.667 0.667z"></path>
<path d="M31.333 22.668h-17.333c-0.369 0-0.667-0.298-0.667-0.667s0.298-0.667 0.667-0.667h16.667v-10.667h-16.667c-0.369 0-0.667-0.298-0.667-0.667s0.298-0.667 0.667-0.667h17.333c0.369 0 0.667 0.298 0.667 0.667v12c0 0.368-0.298 0.667-0.667 0.667z"></path>
<path d="M8.030 14.6h-3.96c-0.369 0-0.667-0.298-0.667-0.667s0.298-0.667 0.667-0.667h3.96c0.369 0 0.667 0.298 0.667 0.667s-0.298 0.667-0.667 0.667z"></path>
<path d="M6.049 19.496c-0.369 0-0.667-0.298-0.667-0.667v-4.897c0-0.369 0.298-0.667 0.667-0.667s0.667 0.298 0.667 0.667v4.897c0 0.368-0.298 0.667-0.667 0.667z"></path>
</svg>
