<!-- Generated by IcoMoon.io -->
<svg version="1.1" xmlns="http://www.w3.org/2000/svg" width="32" height="32" viewBox="0 0 32 32">
<title>interactive_guide_info</title>
<path d="M5.734 22.141c-2.725 0-4.944 2.216-4.944 4.941s2.219 4.944 4.944 4.944c1.319 0 2.559-0.516 3.494-1.45s1.45-2.175 1.45-3.494c-0.003-2.722-2.219-4.941-4.944-4.941zM5.734 24.359c0.725 0 1.409 0.284 1.925 0.8s0.8 1.197 0.8 1.925c0 1.503-1.222 2.725-2.722 2.725-1.503 0-2.725-1.222-2.725-2.725-0.003-1.503 1.219-2.725 2.722-2.725z"></path>
<path d="M11.566 11.394c-0.238 0-0.475-0.091-0.656-0.272l-7.531-7.531c-0.362-0.362-0.362-0.947 0-1.309s0.947-0.363 1.309 0l7.531 7.531c0.363 0.363 0.363 0.947 0 1.309-0.181 0.181-0.419 0.272-0.653 0.272v0z"></path>
<path d="M4.034 11.394c-0.237 0-0.475-0.091-0.656-0.272-0.362-0.363-0.362-0.947 0-1.309l7.531-7.531c0.363-0.363 0.947-0.363 1.309 0s0.363 0.947 0 1.309l-7.531 7.531c-0.181 0.181-0.416 0.272-0.653 0.272v0z"></path>
<path d="M30.284 30.113c-0.238 0-0.475-0.091-0.656-0.272l-7.531-7.531c-0.363-0.363-0.363-0.947 0-1.309s0.947-0.363 1.309 0l7.531 7.531c0.363 0.363 0.363 0.947 0 1.309-0.181 0.181-0.419 0.272-0.653 0.272v0z"></path>
<path d="M22.753 30.113c-0.238 0-0.475-0.091-0.656-0.272-0.363-0.363-0.363-0.947 0-1.309l7.531-7.531c0.363-0.363 0.947-0.363 1.309 0s0.363 0.947 0 1.309l-7.531 7.531c-0.181 0.181-0.416 0.272-0.653 0.272v0z"></path>
<path d="M29.603-0.025h-7.725c-0.609 0-1.103 0.494-1.103 1.103s0.494 1.103 1.103 1.103h4.997l-6.066 5.297c-1.184 1.131-1.981 2.144-2.506 3.184-0.528 1.047-0.784 2.153-0.784 3.381v4.456c0 2.953-2.056 5.375-5.003 5.887l-3.137 0.544c-0.291 0.050-0.547 0.212-0.719 0.453-0.172 0.244-0.238 0.538-0.188 0.828 0.091 0.534 0.553 0.919 1.094 0.919v0c0.069 0 0.134-0.006 0.194-0.019l3.131-0.544c4.031-0.697 6.844-4.016 6.844-8.069v-4.453c0-1.778 0.722-3.162 2.578-4.938l6.188-5.403v5.097c0 0.609 0.494 1.103 1.103 1.103s1.103-0.494 1.103-1.103v-7.725c0-0.609-0.494-1.103-1.103-1.103z"></path>
</svg>
