<!-- Generated by IcoMoon.io -->
<svg version="1.1" xmlns="http://www.w3.org/2000/svg" width="32" height="32" viewBox="0 0 32 32">
<title>invert_selection</title>
<path d="M26.519 2.462h-14.222c-0.331 0-0.603 0.269-0.603 0.603v14.222c0 0.331 0.269 0.603 0.603 0.603h14.222c0.331 0 0.603-0.269 0.603-0.603v-14.222c0-0.334-0.272-0.603-0.603-0.603v0zM12.897 16.684v-13.016h13.019v13.019l-13.019-0.003z"></path>
<path d="M24.038 6.209c-0.188 0-0.363 0.075-0.494 0.209l-5.806 5.972-2.434-2.503c-0.131-0.134-0.306-0.206-0.494-0.206-0.181 0-0.35 0.069-0.478 0.194-0.272 0.262-0.278 0.7-0.012 0.972l2.925 3.009c0.128 0.131 0.309 0.209 0.494 0.209v0c0.184 0 0.363-0.075 0.494-0.209l6.3-6.478c0.262-0.272 0.256-0.709-0.012-0.972-0.131-0.125-0.303-0.197-0.481-0.197v0z"></path>
<path d="M8.759 22.738c-4.156-4.156-5.084-10.656-2.256-15.813 0.178-0.322 0.581-0.441 0.906-0.263 0.322 0.184 0.441 0.581 0.263 0.906-2.544 4.638-1.709 10.488 2.031 14.225 3.766 3.766 9.634 4.619 14.272 2.075 0.322-0.178 0.722-0.056 0.906 0.262 0.175 0.325 0.059 0.728-0.266 0.906-5.156 2.825-11.675 1.881-15.856-2.3v0z"></path>
<path d="M21.875 29.341c-0.188-0.188-0.253-0.481-0.137-0.741l1.678-3.806-3.653-1.609c-0.334-0.147-0.491-0.541-0.341-0.878 0.147-0.337 0.541-0.491 0.878-0.341l4.262 1.878c0.337 0.147 0.491 0.541 0.341 0.878l-1.947 4.419c-0.147 0.337-0.541 0.491-0.878 0.341-0.078-0.034-0.147-0.081-0.203-0.141v0z"></path>
</svg>
