<!-- Generated by IcoMoon.io -->
<svg version="1.1" xmlns="http://www.w3.org/2000/svg" width="32" height="32" viewBox="0 0 32 32">
<title>invert_selection_alt</title>
<path d="M26.519 2.462h-14.222c-0.331 0-0.603 0.269-0.603 0.603v14.222c0 0.331 0.269 0.603 0.603 0.603h14.222c0.331 0 0.603-0.269 0.603-0.603v-14.222c0-0.334-0.272-0.603-0.603-0.603v0zM12.897 16.684v-13.016h13.019v13.019l-13.019-0.003z"></path>
<path d="M8.803 22.778v0c-4.181-4.181-5.125-10.7-2.3-15.856 0.178-0.325 0.581-0.441 0.906-0.266 0.319 0.184 0.441 0.584 0.263 0.906-2.544 4.637-1.691 10.506 2.075 14.272 3.738 3.741 9.588 4.575 14.225 2.031 0.325-0.178 0.722-0.059 0.906 0.262 0.178 0.325 0.059 0.728-0.262 0.906-5.156 2.828-11.656 1.9-15.813-2.256v0z"></path>
<path d="M2.2 9.662v0c-0.059-0.056-0.106-0.125-0.141-0.203-0.15-0.338 0.003-0.731 0.341-0.878l4.419-1.947c0.338-0.15 0.731 0.003 0.878 0.341l1.878 4.263c0.15 0.338-0.003 0.731-0.341 0.878-0.338 0.15-0.731-0.006-0.878-0.341l-1.609-3.653-3.806 1.678c-0.259 0.116-0.553 0.050-0.741-0.137v0z"></path>
<path d="M24.038 6.209c-0.188 0-0.363 0.075-0.494 0.209l-5.806 5.972-2.434-2.503c-0.131-0.134-0.306-0.206-0.494-0.206-0.181 0-0.35 0.069-0.478 0.194-0.272 0.262-0.278 0.7-0.012 0.972l2.925 3.009c0.128 0.131 0.309 0.209 0.494 0.209v0c0.184 0 0.363-0.075 0.494-0.209l6.3-6.478c0.262-0.272 0.256-0.709-0.012-0.972-0.131-0.125-0.303-0.197-0.481-0.197v0 0z"></path>
</svg>
