<!-- Generated by IcoMoon.io -->
<svg version="1.1" xmlns="http://www.w3.org/2000/svg" width="34" height="32" viewBox="0 0 34 32">
<title>invitation_code</title>
<path d="M12.025 12.059l-0.838-0.484 0.838-0.484c0.209-0.122 0.35-0.347 0.35-0.606 0-0.387-0.313-0.7-0.7-0.7-0.128 0-0.25 0.034-0.353 0.094l0.003-0.003-0.841 0.488v-0.969c0-0.384-0.313-0.697-0.697-0.697s-0.697 0.313-0.697 0.697v0 0.969l-0.841-0.478c-0.1-0.059-0.222-0.094-0.35-0.094-0.388 0-0.7 0.313-0.7 0.7 0 0.256 0.141 0.481 0.347 0.603l0.003 0.003 0.841 0.481-0.838 0.484c-0.213 0.122-0.35 0.347-0.35 0.606 0 0.384 0.313 0.7 0.7 0.7 0 0 0 0 0 0v0c0 0 0 0 0 0 0.128 0 0.247-0.034 0.35-0.097l-0.003 0.003 0.838-0.484v0.969c0 0 0 0 0 0 0 0.384 0.313 0.697 0.697 0.697 0 0 0 0 0 0v0c0 0 0 0 0.003 0 0.384 0 0.697-0.313 0.697-0.697 0 0 0 0 0-0.003v0-0.969l0.841 0.484c0.1 0.059 0.219 0.094 0.347 0.094v0c0 0 0.003 0 0.003 0 0.384 0 0.7-0.313 0.7-0.7 0-0.259-0.141-0.484-0.347-0.603l-0.003-0.003z"></path>
<path d="M19.006 12.059l-0.837-0.484 0.837-0.484c0.209-0.122 0.35-0.347 0.35-0.606 0-0.387-0.313-0.7-0.7-0.7-0.128 0-0.25 0.034-0.353 0.094l0.003-0.003-0.837 0.491v-0.969c-0.009-0.378-0.319-0.684-0.697-0.684s-0.691 0.303-0.697 0.681v0.969l-0.838-0.484c-0.1-0.059-0.222-0.094-0.35-0.094-0.387 0-0.7 0.313-0.7 0.7 0 0.256 0.141 0.481 0.347 0.603l0.003 0.003 0.838 0.484-0.841 0.488c-0.209 0.122-0.35 0.347-0.35 0.606 0 0.384 0.313 0.7 0.7 0.7 0 0 0 0 0 0v0c0 0 0 0 0 0 0.128 0 0.247-0.034 0.35-0.097l-0.003 0.003 0.838-0.484v0.969c0 0.384 0.313 0.697 0.697 0.697 0 0 0 0 0 0v0c0 0 0 0 0 0 0.384 0 0.697-0.313 0.697-0.697 0 0 0 0 0 0v0-0.969l0.841 0.484c0.1 0.059 0.219 0.094 0.347 0.094v0c0 0 0 0 0 0 0.384 0 0.7-0.313 0.7-0.7 0-0.256-0.137-0.481-0.347-0.603l0.003-0.006z"></path>
<path d="M25.988 12.059l-0.841-0.484 0.837-0.484c0.209-0.122 0.35-0.347 0.35-0.606 0-0.387-0.313-0.7-0.7-0.7-0.128 0-0.25 0.034-0.353 0.094l0.003-0.003-0.837 0.484v-0.969c0-0.384-0.313-0.697-0.697-0.697s-0.697 0.313-0.697 0.697v0 0.969l-0.837-0.484c-0.1-0.059-0.222-0.094-0.35-0.094-0.387 0-0.7 0.313-0.7 0.7 0 0.256 0.141 0.481 0.347 0.603l0.003 0.003 0.837 0.484-0.834 0.491c-0.209 0.122-0.35 0.347-0.35 0.606 0 0.384 0.313 0.697 0.697 0.7v0c0.128 0 0.25-0.034 0.353-0.097l-0.003 0.003 0.837-0.484v0.969c0 0 0 0 0 0 0 0.384 0.313 0.697 0.697 0.697 0 0 0 0 0 0v0c0.384 0 0.697-0.313 0.697-0.697 0 0 0 0 0 0v0-0.969l0.837 0.484c0.1 0.059 0.222 0.094 0.35 0.094v0c0.384 0 0.697-0.313 0.697-0.7 0-0.256-0.137-0.481-0.344-0.603v-0.006z"></path>
<path d="M32.75 11.022v0l-3.109-2.234v-2.556c0 0 0 0 0 0 0-0.384-0.313-0.697-0.697-0.697h-3.831l-7.234-5.2c-0.622-0.447-1.512-0.447-2.131 0l-7.259 5.2h-3.787c0 0 0 0 0 0-0.384 0-0.697 0.313-0.697 0.697 0 0 0 0 0 0s0 0 0 0v2.516l-3.178 2.275c-0.509 0.366-0.813 0.906-0.813 1.447-0.006 0.041-0.013 0.084-0.013 0.125 0 0.044 0.003 0.084 0.013 0.125v17.506c0 0.959 0.884 1.772 1.931 1.772h29.712c1.119 0 1.872-0.906 1.872-1.753v-17.772c0-0.556-0.291-1.097-0.778-1.45zM29.641 10.509l2.291 1.647c0.025 0.019 0.050 0.037 0.069 0.059l-2.359 1.281v-2.988zM16.563 1.469c0.069-0.050 0.153-0.078 0.247-0.078 0 0 0.003 0 0.003 0 0.003 0 0.003 0 0.006 0 0.094 0 0.178 0.028 0.247 0.081l5.656 4.066h-11.838l5.678-4.069zM5.397 6.931h22.847v7.325l-11.444 6.216-11.403-6.137v-7.403zM1.637 12.156l2.362-1.694v3.116l-2.469-1.328c0.028-0.031 0.066-0.063 0.106-0.094zM32.128 30.247c0 0.1-0.147 0.356-0.475 0.356h-29.709c-0.275 0-0.538-0.212-0.538-0.375v-16.456l15.062 8.109c0.094 0.053 0.209 0.084 0.328 0.084h0.003c0.122 0 0.238-0.031 0.337-0.087l14.991-8.144v16.512z"></path>
</svg>
