<svg version="1.1" xmlns="http://www.w3.org/2000/svg" width="32" height="32" viewBox="0 0 32 32">
<title>ipad_reading_mobile</title>
<path d="M19.825 25.333h-18.087c-0.975 0-1.738-0.703-1.738-1.602v-22.145c0-0.89 0.764-1.587 1.738-1.587h17.997c0.94 0 1.598 0.652 1.598 1.587v18.843c0 0.369-0.298 0.667-0.667 0.667s-0.667-0.298-0.667-0.667v-18.843c0-0.189-0.066-0.253-0.264-0.253h-17.997c-0.168 0-0.405 0.079-0.405 0.253v22.145c0 0.165 0.21 0.268 0.405 0.268h18.087c0.369 0 0.667 0.298 0.667 0.667s-0.298 0.667-0.667 0.667z"></path>
<path d="M18.535 22.667h-15.202c-0.369 0-0.667-0.298-0.667-0.667v-18.667c0-0.369 0.298-0.667 0.667-0.667h14.667c0.369 0 0.667 0.298 0.667 0.667v13.682c0 0.369-0.298 0.667-0.667 0.667s-0.667-0.298-0.667-0.667v-13.016h-13.333v17.333h14.535c0.369 0 0.667 0.298 0.667 0.667s-0.298 0.667-0.667 0.667z"></path>
<path d="M29.228 31.486c-0.176 0-0.35-0.069-0.482-0.206-1.54-1.607-2.698-2.881-3.44-3.79-1.513-1.853-1.461-3.53-1.397-5.655 0.022-0.733 0.048-1.546 0.013-2.475-0.124-3.4-3.602-5.865-3.637-5.889-0.302-0.211-0.376-0.626-0.165-0.928 0.214-0.303 0.629-0.374 0.928-0.165 0.165 0.116 4.059 2.877 4.207 6.934 0.035 0.964 0.010 1.806-0.013 2.566-0.063 2.060-0.1 3.303 1.098 4.769 0.708 0.869 1.874 2.152 3.37 3.712 0.254 0.266 0.245 0.687-0.021 0.943-0.129 0.124-0.296 0.185-0.461 0.185z"></path>
<path d="M23.039 31.465c-0.221 0-0.439-0.111-0.565-0.314-1.258-2.010-2.888-4.854-3.517-6.984-0.167-0.526-2.41-4.211-2.828-4.872-0.014-0.018-0.029-0.039-0.040-0.060-0.376-0.622-0.405-1.315-0.081-1.902 0.327-0.591 0.974-0.982 1.647-0.995 0.652-0.014 1.232 0.322 1.59 0.914l2.521 3.583c0.211 0.301 0.139 0.716-0.163 0.928-0.298 0.211-0.716 0.139-0.928-0.163l-2.547-3.622c-0.138-0.224-0.279-0.329-0.448-0.307-0.199 0.004-0.408 0.129-0.505 0.306-0.091 0.165-0.073 0.357 0.055 0.57v0c0.031 0.059 0.053 0.121 0.066 0.184 1.052 1.393 2.927 5.017 2.94 5.060 0.586 1.984 2.155 4.714 3.369 6.655 0.195 0.311 0.1 0.723-0.212 0.918-0.109 0.069-0.232 0.102-0.353 0.102z"></path>
<path d="M15.247 9.333h-2.529c-0.369 0-0.667-0.298-0.667-0.667s0.298-0.667 0.667-0.667h2.529c0.369 0 0.667 0.298 0.667 0.667s-0.298 0.667-0.667 0.667z"></path>
<path d="M15.247 6.667h-2.529c-0.369 0-0.667-0.298-0.667-0.667s0.298-0.667 0.667-0.667h2.529c0.369 0 0.667 0.298 0.667 0.667s-0.298 0.667-0.667 0.667z"></path>
<path d="M15.247 12h-2.529c-0.369 0-0.667-0.298-0.667-0.667s0.298-0.667 0.667-0.667h2.529c0.369 0 0.667 0.298 0.667 0.667s-0.298 0.667-0.667 0.667z"></path>
<path d="M15.333 14.667h-9.333c-0.369 0-0.667-0.298-0.667-0.667s0.298-0.667 0.667-0.667h9.333c0.369 0 0.667 0.298 0.667 0.667s-0.298 0.667-0.667 0.667z"></path>
<path d="M13.983 17.333h-7.983c-0.369 0-0.667-0.298-0.667-0.667s0.298-0.667 0.667-0.667h7.983c0.369 0 0.667 0.298 0.667 0.667s-0.298 0.667-0.667 0.667z"></path>
<path d="M10.667 24c-0.174 0-0.333-0.066-0.467-0.187-0.133-0.146-0.2-0.306-0.2-0.479s0.066-0.346 0.186-0.467c0.267-0.253 0.707-0.253 0.96 0 0.12 0.121 0.187 0.294 0.187 0.467s-0.067 0.346-0.201 0.466c-0.12 0.134-0.293 0.201-0.466 0.201z"></path>
<path d="M10 12h-4c-0.369 0-0.667-0.298-0.667-0.667v-5.333c0-0.369 0.298-0.667 0.667-0.667h4c0.369 0 0.667 0.298 0.667 0.667v5.333c0 0.369-0.298 0.667-0.667 0.667zM6.667 10.667h2.667v-4h-2.667v4z"></path>
</svg>
