<svg version="1.1" xmlns="http://www.w3.org/2000/svg" width="32" height="32" viewBox="0 0 32 32">
<title>ipad_tablet</title>
<path d="M27.229 31.967h-22.482c-1.143 0-2.072-0.866-2.072-1.93v-28.098c0-1.064 0.929-1.93 2.072-1.93h22.482c1.142 0 2.072 0.866 2.072 1.93v28.098c0 1.064-0.93 1.93-2.072 1.93zM4.747 1.343c-0.407 0-0.738 0.268-0.738 0.596v28.098c0 0.329 0.331 0.596 0.738 0.596h22.482c0.408 0 0.738-0.267 0.738-0.596v-28.098c0-0.329-0.331-0.596-0.738-0.596h-22.482z"></path>
<path d="M25.974 28.001h-19.939c-0.369 0-0.667-0.298-0.667-0.667v-23.959c0-0.369 0.298-0.667 0.667-0.667h19.939c0.369 0 0.667 0.298 0.667 0.667v23.959c0 0.368-0.298 0.667-0.667 0.667zM6.701 26.668h18.606v-22.626h-18.606v22.626z"></path>
<path d="M16 30c-0.174 0-0.333-0.066-0.467-0.187-0.133-0.133-0.2-0.306-0.2-0.479s0.080-0.346 0.2-0.467c0.266-0.253 0.693-0.253 0.933-0.013 0.134 0.134 0.201 0.307 0.201 0.481s-0.066 0.346-0.187 0.466c-0.133 0.134-0.306 0.201-0.479 0.201z"></path>
</svg>
