<!-- Generated by IcoMoon.io -->
<svg version="1.1" xmlns="http://www.w3.org/2000/svg" width="32" height="32" viewBox="0 0 32 32">
<title>iphone_mobile</title>
<path d="M15.988 26.236c-0.995 0-1.805 0.809-1.805 1.804s0.809 1.804 1.805 1.804 1.805-0.808 1.805-1.804c0-0.995-0.811-1.804-1.805-1.804zM15.988 28.511c-0.26 0-0.472-0.211-0.472-0.471s0.212-0.471 0.472-0.471c0.26 0 0.472 0.211 0.472 0.471s-0.211 0.471-0.472 0.471z"></path>
<path d="M25.333 4.667c0-0.021-0.009-0.039-0.012-0.059v-1.268c0-1.861-1.515-3.375-3.376-3.375h-11.915c-1.861 0-3.376 1.515-3.376 3.375v25.297c0 1.861 1.515 3.375 3.376 3.375h11.915c1.863 0 3.376-1.515 3.376-3.375v-3.912c0.003-0.020 0.012-0.037 0.012-0.059v-20zM23.988 24h-15.988v-18.667h15.988v18.667zM10.031 1.299v0h11.915c1.127 0 2.043 0.916 2.043 2.041v0.66h-16v-0.66c0-1.125 0.916-2.041 2.043-2.041zM21.945 30.679h-11.915c-1.127 0-2.043-0.916-2.043-2.041v-3.304h16v3.303c0 1.127-0.916 2.043-2.043 2.043z"></path>
</svg>
