<!-- Generated by IcoMoon.io -->
<svg version="1.1" xmlns="http://www.w3.org/2000/svg" width="32" height="32" viewBox="0 0 32 32">
<title>jira</title>
<path d="M5 16.553c-0.347-0.347-0.347-0.916 0-1.262l3.366-3.366 7.556 7.528c1.078 1.078 1.672 2.509 1.672 4.031 0 1.512-0.584 2.938-1.647 4.012v0l-0.003 0.003-10.944-10.947z"></path>
<path d="M19.484 15.781l-3.406-3.387c-1.072-1.072-1.666-2.5-1.669-4.016s0.581-2.947 1.647-4.025l0.003-0.003 10.941 10.941c0.347 0.347 0.347 0.916 0 1.262l-3.372 3.372-4.144-4.144z"></path>
<path d="M8.575 11.825l6.369-6.366c-0.497 0.884-0.759 1.888-0.756 2.919 0.003 1.537 0.594 2.988 1.656 4.091l-3.313 3.313-3.956-3.956z"></path>
<path d="M16.056 12.525v0 0z"></path>
<path d="M16.003 27.597v0h-0.003l-0.056-0.053 0.112 0.109 0.003-0.003h-0.003l-0.053-0.053z"></path>
<path d="M16.003 27.597v0l-0.056-0.056-0.003 0.003 0.056 0.053h0.003z"></path>
<path d="M17.059 26.384c0.494-0.881 0.756-1.878 0.756-2.9 0-1.544-0.591-3-1.659-4.109l3.306-3.306 3.956 3.956-6.359 6.359z"></path>
<path d="M16.003 27.597v0 0z"></path>
<path d="M23.462 20.025v0z"></path>
<path d="M23.616 20.022l0.012-0.012 0.012 0.012-0.012 0.012-0.012-0.012z"></path>
<path d="M15.991 27.584v0 0z"></path>
<path d="M15.991 27.541l0.278-0.278c-0.084 0.1-0.175 0.197-0.266 0.288l-0.012-0.009z"></path>
<path d="M16.056 27.65v0 0z"></path>
<path d="M16.003 27.597v0z"></path>
<path d="M16.003 27.597v0 0 0z"></path>
<path d="M16.025 27.616v0z"></path>
</svg>
