<svg version="1.1" xmlns="http://www.w3.org/2000/svg" width="32" height="32" viewBox="0 0 32 32">
<title>keyboard_wired</title>
<path d="M6.008 15.962c-0.369 0-0.667-0.298-0.667-0.667v-3.089c0.021-1.451 0.953-4.176 4.329-4.176h10.184c0.143-0.006 4.068-0.184 4.15-3.222v-3.956c0-0.369 0.298-0.667 0.667-0.667s0.667 0.298 0.667 0.667v3.974c-0.092 3.453-3.613 4.476-5.461 4.536l-10.206 0.001c-2.847 0-2.99 2.563-2.996 2.855v3.077c0 0.369-0.298 0.667-0.667 0.667z"></path>
<path d="M31.357 31.96h-30.703c-0.369 0-0.667-0.298-0.667-0.667v-15.998c0-0.369 0.298-0.667 0.667-0.667h30.703c0.369 0 0.667 0.298 0.667 0.667v15.998c0 0.369-0.298 0.667-0.667 0.667zM1.32 30.626h29.37v-14.665h-29.37v14.665z"></path>
<path d="M21.318 28.013h-10.583c-0.369 0-0.667-0.298-0.667-0.667s0.298-0.667 0.667-0.667h10.583c0.369 0 0.667 0.298 0.667 0.667s-0.298 0.667-0.667 0.667z"></path>
<path d="M8.68 23.96c-0.173 0-0.346-0.066-0.48-0.201-0.12-0.12-0.187-0.293-0.187-0.466 0-0.186 0.067-0.359 0.2-0.481 0.214-0.227 0.68-0.24 0.934 0.014 0.12 0.12 0.2 0.293 0.2 0.466s-0.066 0.347-0.2 0.466c-0.133 0.134-0.294 0.201-0.467 0.201z"></path>
<path d="M12.68 23.96c-0.173 0-0.346-0.066-0.467-0.186-0.133-0.134-0.2-0.307-0.2-0.481 0-0.186 0.067-0.359 0.2-0.481 0.24-0.24 0.68-0.24 0.934 0.014 0.12 0.107 0.2 0.28 0.2 0.466 0 0.173-0.066 0.346-0.2 0.466-0.133 0.134-0.307 0.201-0.467 0.201z"></path>
<path d="M16.68 23.96c-0.173 0-0.346-0.066-0.481-0.186-0.12-0.134-0.186-0.307-0.186-0.481s0.066-0.346 0.186-0.481c0.254-0.24 0.694-0.24 0.947 0 0.121 0.121 0.201 0.307 0.201 0.481s-0.079 0.346-0.201 0.466c-0.133 0.134-0.293 0.201-0.466 0.201z"></path>
<path d="M20.68 23.96c-0.173 0-0.346-0.066-0.466-0.186-0.134-0.134-0.201-0.307-0.201-0.481s0.066-0.346 0.186-0.466c0.267-0.254 0.707-0.254 0.947 0 0.121 0.107 0.201 0.28 0.201 0.466 0 0.173-0.079 0.346-0.201 0.466-0.12 0.134-0.293 0.201-0.466 0.201z"></path>
<path d="M24.68 23.96c-0.173 0-0.346-0.066-0.466-0.186-0.134-0.134-0.201-0.307-0.201-0.481s0.066-0.346 0.201-0.481c0.227-0.227 0.68-0.24 0.932 0 0.134 0.134 0.201 0.307 0.201 0.481s-0.066 0.333-0.186 0.466c-0.147 0.134-0.307 0.201-0.481 0.201z"></path>
<path d="M6.013 21.293c-0.173 0-0.346-0.066-0.48-0.186-0.12-0.134-0.187-0.307-0.187-0.481s0.067-0.333 0.187-0.466c0.266-0.254 0.693-0.254 0.947 0 0.12 0.12 0.2 0.293 0.2 0.466s-0.080 0.346-0.2 0.466c-0.133 0.134-0.307 0.201-0.467 0.201z"></path>
<path d="M10.013 21.293c-0.173 0-0.346-0.066-0.467-0.186-0.133-0.134-0.2-0.307-0.2-0.481s0.067-0.346 0.187-0.466c0.253-0.254 0.693-0.254 0.947 0 0.133 0.12 0.2 0.293 0.2 0.466s-0.080 0.346-0.2 0.466c-0.133 0.134-0.307 0.201-0.467 0.201z"></path>
<path d="M14.013 21.293c-0.173 0-0.346-0.066-0.48-0.201-0.12-0.12-0.187-0.293-0.187-0.466s0.067-0.346 0.187-0.466c0.24-0.254 0.693-0.254 0.947 0 0.133 0.133 0.2 0.293 0.2 0.466s-0.066 0.346-0.187 0.466c-0.147 0.134-0.307 0.201-0.48 0.201z"></path>
<path d="M18.013 21.293c-0.173 0-0.346-0.066-0.481-0.186-0.12-0.134-0.186-0.307-0.186-0.481s0.066-0.333 0.186-0.466c0.254-0.254 0.694-0.254 0.947-0.014 0.134 0.134 0.201 0.307 0.201 0.481s-0.079 0.346-0.201 0.466c-0.133 0.134-0.293 0.2-0.466 0.2z"></path>
<path d="M22.013 21.293c-0.186 0-0.359-0.066-0.481-0.201-0.12-0.12-0.186-0.293-0.186-0.466s0.066-0.346 0.186-0.466c0.254-0.254 0.681-0.254 0.947-0.014 0.134 0.147 0.201 0.307 0.201 0.481s-0.079 0.346-0.201 0.466c-0.12 0.134-0.293 0.2-0.466 0.2z"></path>
<path d="M26.013 21.293c-0.186 0-0.346-0.066-0.481-0.201-0.12-0.12-0.186-0.293-0.186-0.466s0.066-0.346 0.186-0.466c0.267-0.267 0.694-0.254 0.947-0.014 0.134 0.134 0.201 0.307 0.201 0.481s-0.079 0.346-0.201 0.481c-0.12 0.12-0.293 0.186-0.466 0.186z"></path>
</svg>
