<svg version="1.1" xmlns="http://www.w3.org/2000/svg" width="32" height="32" viewBox="0 0 32 32">
<title>keyboard_wireless</title>
<path d="M21.596 10.514c-0.178 0-0.355-0.071-0.487-0.211-1.335-1.425-3.137-2.21-5.077-2.21s-3.742 0.785-5.077 2.21c-0.251 0.268-0.673 0.281-0.942 0.031s-0.283-0.673-0.031-0.942c1.589-1.697 3.738-2.631 6.049-2.631s4.461 0.934 6.051 2.631c0.251 0.269 0.237 0.691-0.031 0.942-0.129 0.121-0.292 0.18-0.456 0.18z"></path>
<path d="M7.773 7.555c-0.166 0-0.332-0.061-0.461-0.185-0.266-0.255-0.275-0.676-0.021-0.943 2.311-2.415 5.415-3.744 8.742-3.744s6.431 1.329 8.742 3.744c0.254 0.266 0.245 0.688-0.021 0.943s-0.687 0.243-0.943-0.021c-2.057-2.149-4.819-3.333-7.779-3.333s-5.721 1.184-7.778 3.333c-0.131 0.137-0.307 0.206-0.482 0.206z"></path>
<path d="M31.363 31.96h-30.704c-0.369 0-0.667-0.298-0.667-0.667v-15.998c0-0.369 0.298-0.667 0.667-0.667h30.704c0.369 0 0.667 0.298 0.667 0.667v15.998c0 0.369-0.298 0.667-0.667 0.667zM1.326 30.626h29.37v-14.665h-29.37v14.665z"></path>
<path d="M21.324 28.013h-10.583c-0.369 0-0.667-0.298-0.667-0.667s0.298-0.667 0.667-0.667h10.583c0.369 0 0.667 0.298 0.667 0.667s-0.298 0.667-0.667 0.667z"></path>
<path d="M8.68 23.96c-0.173 0-0.333-0.066-0.467-0.186-0.133-0.134-0.2-0.307-0.2-0.481 0-0.186 0.080-0.359 0.2-0.481 0.24-0.24 0.693-0.24 0.934 0.014 0.133 0.107 0.2 0.28 0.2 0.466 0 0.173-0.066 0.346-0.2 0.466-0.12 0.134-0.294 0.201-0.467 0.201z"></path>
<path d="M12.68 23.96c-0.173 0-0.346-0.066-0.467-0.186-0.133-0.134-0.2-0.307-0.2-0.481s0.067-0.346 0.2-0.466c0.253-0.254 0.693-0.254 0.934 0 0.133 0.107 0.2 0.293 0.2 0.466s-0.066 0.346-0.2 0.466c-0.12 0.134-0.294 0.201-0.467 0.201z"></path>
<path d="M16.68 23.96c-0.173 0-0.346-0.066-0.466-0.186-0.134-0.134-0.201-0.307-0.201-0.481s0.066-0.346 0.201-0.481c0.24-0.24 0.693-0.24 0.947 0.014 0.12 0.12 0.186 0.293 0.186 0.466s-0.066 0.346-0.186 0.466c-0.134 0.134-0.307 0.201-0.481 0.201z"></path>
<path d="M20.68 23.96c-0.173 0-0.346-0.066-0.466-0.201-0.134-0.12-0.201-0.293-0.201-0.466 0-0.186 0.079-0.359 0.201-0.481 0.212-0.227 0.68-0.24 0.932 0 0.134 0.134 0.201 0.307 0.201 0.481s-0.066 0.346-0.186 0.466c-0.134 0.134-0.307 0.201-0.481 0.201z"></path>
<path d="M24.68 23.96c-0.173 0-0.346-0.066-0.466-0.186-0.121-0.134-0.201-0.307-0.201-0.481 0-0.186 0.079-0.346 0.201-0.481 0.253-0.24 0.693-0.24 0.932 0 0.134 0.134 0.201 0.307 0.201 0.481s-0.066 0.346-0.186 0.466c-0.134 0.134-0.307 0.201-0.481 0.201z"></path>
<path d="M6.013 21.293c-0.173 0-0.346-0.066-0.467-0.186-0.133-0.134-0.2-0.307-0.2-0.481s0.067-0.333 0.187-0.466c0.253-0.254 0.706-0.254 0.947 0 0.133 0.133 0.2 0.293 0.2 0.466s-0.066 0.346-0.187 0.466c-0.133 0.134-0.307 0.201-0.48 0.201z"></path>
<path d="M10.013 21.293c-0.173 0-0.346-0.066-0.467-0.186-0.133-0.134-0.2-0.307-0.2-0.481s0.067-0.333 0.187-0.466c0.266-0.267 0.72-0.254 0.96 0 0.121 0.12 0.187 0.293 0.187 0.466s-0.066 0.346-0.2 0.466c-0.12 0.134-0.294 0.201-0.467 0.201z"></path>
<path d="M14.013 21.293c-0.173 0-0.333-0.066-0.467-0.186-0.133-0.134-0.2-0.307-0.2-0.481s0.067-0.346 0.2-0.466c0.253-0.254 0.693-0.254 0.934 0 0.133 0.12 0.2 0.293 0.2 0.466s-0.066 0.346-0.2 0.466c-0.12 0.134-0.294 0.201-0.467 0.201z"></path>
<path d="M18.013 21.293c-0.173 0-0.346-0.066-0.466-0.186-0.134-0.134-0.201-0.307-0.201-0.481s0.066-0.333 0.186-0.466c0.267-0.254 0.707-0.254 0.961 0 0.12 0.133 0.186 0.293 0.186 0.466s-0.066 0.346-0.186 0.466c-0.134 0.134-0.307 0.201-0.48 0.201z"></path>
<path d="M22.013 21.293c-0.173 0-0.346-0.066-0.466-0.186-0.134-0.134-0.201-0.307-0.201-0.481s0.079-0.346 0.201-0.481c0.227-0.227 0.68-0.24 0.947 0.014 0.12 0.12 0.186 0.293 0.186 0.466s-0.066 0.333-0.186 0.466c-0.147 0.134-0.307 0.201-0.481 0.201z"></path>
<path d="M26.013 21.293c-0.173 0-0.333-0.066-0.466-0.186-0.134-0.134-0.201-0.307-0.201-0.481s0.079-0.346 0.201-0.466c0.24-0.254 0.693-0.254 0.947 0 0.12 0.12 0.186 0.293 0.186 0.466s-0.066 0.333-0.186 0.466c-0.134 0.134-0.307 0.201-0.481 0.201z"></path>
</svg>
