<svg version="1.1" xmlns="http://www.w3.org/2000/svg" width="32" height="32" viewBox="0 0 32 32">
<title>keyboard_connect</title>
<path d="M31.35 31.96h-30.703c-0.369 0-0.667-0.298-0.667-0.667v-15.998c0-0.369 0.298-0.667 0.667-0.667h30.703c0.369 0 0.667 0.298 0.667 0.667v15.998c0 0.369-0.298 0.667-0.667 0.667zM1.314 30.626h29.37v-14.665h-29.37v14.665z"></path>
<path d="M21.313 28.013h-10.585c-0.369 0-0.667-0.298-0.667-0.667s0.298-0.667 0.667-0.667h10.585c0.369 0 0.667 0.298 0.667 0.667s-0.298 0.667-0.667 0.667z"></path>
<path d="M8.667 23.96c-0.174 0-0.347-0.066-0.467-0.186-0.133-0.134-0.2-0.307-0.2-0.481s0.080-0.346 0.2-0.466c0.24-0.254 0.706-0.241 0.947 0 0.12 0.107 0.187 0.28 0.187 0.466 0 0.173-0.067 0.346-0.201 0.466-0.12 0.134-0.293 0.201-0.466 0.201z"></path>
<path d="M12.667 23.96c-0.174 0-0.347-0.066-0.467-0.201-0.133-0.12-0.2-0.293-0.2-0.466 0-0.186 0.080-0.359 0.2-0.481 0.227-0.227 0.693-0.24 0.947 0.014 0.12 0.12 0.187 0.293 0.187 0.466s-0.067 0.346-0.187 0.466c-0.133 0.134-0.307 0.201-0.48 0.201z"></path>
<path d="M16.667 23.96c-0.173 0-0.346-0.066-0.467-0.201-0.133-0.12-0.199-0.293-0.199-0.466 0-0.186 0.079-0.359 0.199-0.481 0.227-0.227 0.681-0.24 0.934 0 0.134 0.134 0.201 0.307 0.201 0.481s-0.066 0.346-0.187 0.466c-0.133 0.134-0.306 0.201-0.479 0.201z"></path>
<path d="M20.667 23.96c-0.173 0-0.346-0.066-0.467-0.186-0.133-0.134-0.199-0.307-0.199-0.481 0-0.186 0.079-0.359 0.199-0.481 0.241-0.24 0.694-0.24 0.934 0.014 0.134 0.12 0.201 0.293 0.201 0.466s-0.066 0.346-0.187 0.466c-0.133 0.134-0.306 0.201-0.479 0.201z"></path>
<path d="M24.667 23.96c-0.173 0-0.346-0.066-0.467-0.201-0.12-0.105-0.199-0.28-0.199-0.466 0-0.173 0.079-0.346 0.199-0.466 0.254-0.254 0.681-0.254 0.934-0.014 0.134 0.147 0.201 0.307 0.201 0.48s-0.066 0.346-0.187 0.466c-0.133 0.134-0.293 0.201-0.479 0.201z"></path>
<path d="M6 21.293c-0.174 0-0.333-0.066-0.467-0.186-0.133-0.134-0.2-0.307-0.2-0.481s0.066-0.346 0.2-0.466c0.253-0.254 0.693-0.254 0.933 0 0.133 0.12 0.201 0.293 0.201 0.466s-0.067 0.346-0.201 0.466c-0.12 0.134-0.293 0.201-0.466 0.201z"></path>
<path d="M10 21.293c-0.174 0-0.347-0.066-0.467-0.186-0.133-0.134-0.2-0.307-0.2-0.481s0.066-0.333 0.186-0.466c0.267-0.254 0.707-0.254 0.947 0 0.133 0.133 0.201 0.293 0.201 0.466s-0.067 0.346-0.187 0.466c-0.133 0.134-0.307 0.201-0.48 0.201z"></path>
<path d="M14 21.293c-0.174 0-0.333-0.066-0.467-0.186-0.133-0.134-0.2-0.307-0.2-0.481s0.066-0.333 0.186-0.466c0.267-0.267 0.72-0.254 0.96 0 0.12 0.12 0.187 0.293 0.187 0.466s-0.067 0.346-0.201 0.466c-0.12 0.134-0.293 0.201-0.466 0.201z"></path>
<path d="M18 21.293c-0.173 0-0.346-0.066-0.467-0.201-0.133-0.12-0.199-0.293-0.199-0.466s0.066-0.346 0.199-0.466c0.241-0.254 0.681-0.254 0.934-0.014 0.134 0.147 0.201 0.307 0.201 0.48s-0.066 0.346-0.187 0.466c-0.133 0.134-0.306 0.201-0.479 0.201z"></path>
<path d="M22 21.293c-0.173 0-0.346-0.066-0.467-0.201-0.133-0.12-0.199-0.293-0.199-0.466s0.079-0.346 0.199-0.466c0.241-0.254 0.681-0.254 0.934-0.014 0.134 0.134 0.201 0.307 0.201 0.48s-0.066 0.346-0.187 0.466c-0.133 0.134-0.306 0.201-0.479 0.201z"></path>
<path d="M26 21.293c-0.173 0-0.333-0.066-0.467-0.186-0.12-0.134-0.199-0.307-0.199-0.481s0.079-0.346 0.199-0.466c0.254-0.254 0.694-0.254 0.934-0.014 0.134 0.134 0.201 0.307 0.201 0.48s-0.066 0.346-0.187 0.466c-0.133 0.134-0.306 0.201-0.479 0.201z"></path>
<path d="M10.826 10.626v0c-0.608 0-1.164-0.348-1.45-0.908-0.307-0.601-0.254-1.312 0.138-1.854l5.193-7.178c0.628-0.867 1.994-0.868 2.623-0.001l5.194 7.179c0.392 0.542 0.445 1.253 0.138 1.853-0.285 0.561-0.841 0.908-1.449 0.908l-10.387 0.001zM16.019 1.337c-0.089 0-0.171 0.046-0.231 0.13l-5.193 7.178c-0.117 0.161-0.093 0.346-0.032 0.466 0.035 0.068 0.115 0.182 0.263 0.182l10.387-0.001c0.147 0 0.228-0.113 0.262-0.181 0.061-0.12 0.086-0.305-0.031-0.466l-5.194-7.178c-0.060-0.083-0.142-0.13-0.231-0.13z"></path>
</svg>
