<!-- Generated by IcoMoon.io -->
<svg version="1.1" xmlns="http://www.w3.org/2000/svg" width="32" height="32" viewBox="0 0 32 32">
<title>kognos</title>
<path d="M25.209 21.038h-8.103l5.031-5.035c0.768-0.771 1.2-1.816 1.2-2.905s-0.431-2.133-1.2-2.905l-0.689-0.685c-0.509-0.512-1.147-0.879-1.846-1.060 0.349-0.614 0.532-1.309 0.532-2.016v-0.976c-0.001-1.093-0.436-2.142-1.209-2.915s-1.821-1.208-2.915-1.209h-9.22c-1.093 0.001-2.142 0.436-2.915 1.209s-1.208 1.821-1.209 2.915v0.976c0.001 1.093 0.436 2.142 1.209 2.915s1.821 1.208 2.915 1.209h7.817l-5.116 5.116c-0.767 0.772-1.198 1.816-1.198 2.905s0.431 2.133 1.198 2.905l0.689 0.689c0.578 0.581 1.316 0.974 2.12 1.129-0.297 0.577-0.451 1.217-0.451 1.866v0.972c0 1.094 0.434 2.143 1.208 2.917s1.822 1.209 2.916 1.211h9.236c1.094-0.001 2.143-0.437 2.916-1.211s1.208-1.823 1.208-2.917v-0.972c0-1.094-0.434-2.143-1.208-2.917s-1.822-1.209-2.916-1.211zM4.682 6.445v-0.976c0.001-0.559 0.224-1.095 0.619-1.49s0.931-0.618 1.49-0.619h9.236c0.559 0 1.095 0.222 1.491 0.618s0.617 0.932 0.617 1.491v0.976c0 0.559-0.222 1.095-0.617 1.491s-0.932 0.618-1.491 0.618h-9.236c-0.559-0.001-1.095-0.224-1.49-0.619s-0.618-0.931-0.619-1.49zM10.894 20.095c-0.397-0.399-0.62-0.94-0.62-1.504s0.223-1.104 0.62-1.504l6.164-6.164c0.4-0.395 0.939-0.617 1.502-0.617s1.102 0.222 1.502 0.617l0.689 0.689c0.398 0.399 0.622 0.94 0.622 1.504s-0.224 1.105-0.622 1.504l-6.164 6.164c-0.4 0.397-0.94 0.62-1.504 0.62s-1.104-0.223-1.504-0.62l-0.685-0.689zM27.318 26.142c0 0.559-0.222 1.096-0.617 1.492s-0.931 0.619-1.491 0.62h-9.236c-0.559-0.001-1.096-0.224-1.491-0.62s-0.617-0.933-0.617-1.492v-0.972c0-0.559 0.222-1.095 0.617-1.491s0.932-0.617 1.491-0.617h9.236c0.559 0 1.095 0.222 1.491 0.617s0.618 0.932 0.618 1.491v0.972z"></path>
</svg>
