<svg version="1.1" xmlns="http://www.w3.org/2000/svg" width="28" height="32" viewBox="0 0 28 32">
<title>last_name</title>
<path d="M26.556 27.618h-24.963c-0.929 0-1.593-0.664-1.593-1.593 0 0 0 0 0 0v-2.921c0-0.664 0.398-1.328 1.062-1.461 7.568-3.054 8.896-4.116 9.162-4.515v-0.929c-0.929-1.195-1.593-2.39-1.992-3.718-1.062-0.929-1.328-2.523-0.531-3.851v-2.788c0-3.718 2.39-5.842 6.373-5.842s6.373 2.124 6.373 5.842v2.788c0.797 1.195 0.664 2.788-0.531 3.851-0.398 1.328-1.062 2.523-1.859 3.585v0.929c0.266 0.398 1.461 1.593 9.162 4.515 0.664 0.266 1.062 0.797 1.062 1.461v2.921c0 1.062-0.797 1.726-1.726 1.726 0 0 0 0 0 0zM14.075 1.328c-3.187 0-5.046 1.593-5.046 4.515v3.054c0 0.133-0.133 0.266-0.266 0.398-0.531 0.664-0.398 1.593 0.266 2.124 0 0 0 0 0.133 0 0.133 0.133 0.266 0.398 0.266 0.531 0.266 1.328 0.929 2.39 1.859 3.452 0.133 0.133 0.133 0.266 0.133 0.531v1.328c0 0 0 0.133 0 0.133-0.266 0.929-1.726 2.257-9.959 5.444-0.133 0-0.133 0.133-0.133 0.266v2.921c0 0.133 0.133 0.266 0.266 0.266 0 0 0 0 0 0h24.963c0.133 0 0.266-0.133 0.266-0.266 0 0 0 0 0 0v-2.921c0-0.133-0.133-0.266-0.133-0.266v0c-8.232-3.187-9.693-4.515-9.959-5.444 0 0 0-0.133 0-0.133v-1.328c0-0.133 0-0.398 0.133-0.531 0.929-0.929 1.461-2.124 1.859-3.452 0-0.133 0.133-0.266 0.266-0.398 0.664-0.531 0.929-1.461 0.398-2.124 0 0-0.133-0.133-0.133-0.133-0.133-0.133-0.133-0.266-0.133-0.398v-3.054c0-2.921-1.726-4.515-5.046-4.515z"></path>
<path d="M13.544 32h13.278c0.398 0 0.797-0.398 0.797-0.797s-0.398-0.797-0.797-0.797h-13.278c-0.398 0-0.797 0.398-0.797 0.797s0.398 0.797 0.797 0.797v0z"></path>
<path d="M0 31.203c0-0.133 0.133-0.266 0.266-0.266 0 0 0 0 0 0h1.328c0.133 0 0.266 0.133 0.266 0.266s-0.133 0.266-0.266 0.266c0 0 0 0 0 0h-1.328c-0.133 0-0.266-0.133-0.266-0.266zM2.39 31.203c0-0.133 0.133-0.266 0.266-0.266 0 0 0 0 0 0h1.328c0.133 0 0.266 0.133 0.266 0.266s0 0.266-0.266 0.266c0 0 0 0 0 0h-1.328c-0.133 0-0.266-0.133-0.266-0.266zM4.78 31.203c0-0.133 0.133-0.266 0.266-0.266v0h1.328c0.266 0 0.266 0.133 0.266 0.266s0 0.266-0.266 0.266c0 0 0 0 0 0h-1.328c-0.133 0-0.266-0.133-0.266-0.266zM7.17 31.203c0-0.133 0.133-0.266 0.266-0.266v0h1.328c0.133 0 0.266 0.133 0.266 0.266s-0.133 0.266-0.266 0.266h-1.328c-0.133 0.133-0.266 0-0.266-0.266 0 0 0 0 0 0zM9.56 31.203c0-0.133 0.133-0.266 0.266-0.266 0 0 0 0 0 0h1.328c0.133 0 0.266 0.133 0.266 0.266s-0.133 0.266-0.266 0.266c0 0 0 0 0 0h-1.328c-0.133 0-0.266-0.133-0.266-0.266z"></path>
</svg>
