<svg version="1.1" xmlns="http://www.w3.org/2000/svg" width="32" height="32" viewBox="0 0 32 32">
<title>layers_slides</title>
<path d="M16.048 17.937c-0.115 0-0.231-0.030-0.334-0.090l-14.697-8.514c-0.209-0.121-0.337-0.346-0.333-0.587s0.138-0.462 0.351-0.577l14.697-7.897c0.197-0.105 0.434-0.105 0.631 0l14.698 7.897c0.214 0.115 0.348 0.335 0.352 0.577s-0.124 0.466-0.332 0.587l-14.698 8.514c-0.104 0.060-0.219 0.090-0.335 0.090zM2.719 8.779l13.329 7.721 13.331-7.721-13.331-7.162-13.329 7.162z"></path>
<path d="M16.048 24.738c-0.115 0-0.231-0.030-0.334-0.090l-14.697-8.514c-0.206-0.12-0.333-0.339-0.333-0.577s0.127-0.458 0.333-0.577l3.668-2.125c0.318-0.185 0.727-0.075 0.911 0.243 0.185 0.318 0.076 0.727-0.243 0.911l-2.672 1.548 13.367 7.743 13.369-7.743-2.673-1.548c-0.318-0.184-0.427-0.592-0.242-0.911 0.185-0.321 0.594-0.427 0.911-0.243l3.668 2.125c0.206 0.119 0.332 0.339 0.332 0.577s-0.126 0.457-0.332 0.577l-14.698 8.514c-0.104 0.060-0.219 0.090-0.335 0.090z"></path>
<path d="M16.048 31.753c-0.115 0-0.231-0.030-0.334-0.090l-14.697-8.514c-0.206-0.12-0.333-0.339-0.333-0.577s0.127-0.457 0.333-0.577l3.668-2.125c0.318-0.184 0.727-0.077 0.911 0.242 0.185 0.319 0.076 0.727-0.243 0.911l-2.672 1.548 13.367 7.743 13.369-7.743-2.673-1.548c-0.318-0.185-0.427-0.592-0.242-0.911 0.185-0.322 0.594-0.427 0.911-0.242l3.668 2.125c0.206 0.12 0.332 0.339 0.332 0.577s-0.126 0.457-0.332 0.577l-14.698 8.514c-0.104 0.060-0.219 0.090-0.335 0.090z"></path>
</svg>
