<!-- Generated by IcoMoon.io -->
<svg version="1.1" xmlns="http://www.w3.org/2000/svg" width="32" height="32" viewBox="0 0 32 32">
<title>layers_slides</title>
<path d="M27.6 20.7l-3.1-1.5 3-1.4c1.3-0.6 1.4-1.5 1.4-1.8 0-0.4-0.1-1.2-1.4-1.8l-3.2-1.4 3.2-1.4c1.3-0.6 1.4-1.5 1.4-1.8 0-0.4-0.1-1.2-1.4-1.8l-9.3-4.3c-1.3-0.6-3.2-0.6-4.5 0l-9.3 4.2c-1.3 0.6-1.4 1.5-1.4 1.8 0 0.4 0.1 1.2 1.4 1.8l3.2 1.4-3.2 1.4c-1.3 0.7-1.4 1.6-1.4 1.9 0 0.4 0.1 1.2 1.4 1.8l3.2 1.4-3.2 1.4c-1.3 0.7-1.4 1.6-1.4 1.9 0 0.4 0.1 1.2 1.4 1.8l9.3 4.2c0.7 0.3 1.5 0.4 2.3 0.4s1.7-0.1 2.3-0.4l9.2-4.2c1.3-0.6 1.4-1.5 1.4-1.8 0.1-0.3 0-1.2-1.3-1.8zM14.6 5.3c0.7-0.3 2.1-0.3 2.8 0l9.3 4.3c0 0 0 0 0 0l-5.1 2.3c0 0 0 0 0 0l-4.1 1.9c-0.8 0.4-2.2 0.4-3 0l-9.3-4.3 9.4-4.2zM10 13.9l3.7 1.7c0.7 0.3 1.5 0.4 2.3 0.4s1.7-0.1 2.3-0.4l3.7-1.7 4.8 2.1c0 0 0 0 0 0l-9.2 4.2c-0.8 0.4-2.2 0.4-3 0l-9.4-4.2 4.8-2.1zM17.5 26.7c-0.8 0.4-2.2 0.4-3 0l-9.2-4.2 4.8-2.1 3.7 1.7c0.7 0.3 1.5 0.4 2.3 0.4s1.7-0.1 2.3-0.4l3.8-1.7 4.6 2.2-9.3 4.1z"></path>
</svg>
