<svg version="1.1" xmlns="http://www.w3.org/2000/svg" width="32" height="32" viewBox="0 0 32 32">
<title>layout_columns_sidemenu</title>
<path d="M31.371 30.667h-30.666c-0.369 0-0.667-0.298-0.667-0.667v-28c0-0.369 0.298-0.667 0.667-0.667h30.666c0.369 0 0.667 0.298 0.667 0.667v28c0 0.369-0.298 0.667-0.667 0.667zM1.372 29.333h29.333v-26.667h-29.333v26.667z"></path>
<path d="M31.337 6.667h-30.568c-0.369 0-0.667-0.298-0.667-0.667s0.298-0.667 0.667-0.667h30.568c0.369 0 0.667 0.298 0.667 0.667s-0.298 0.667-0.667 0.667z"></path>
<path d="M8.667 26.667h-4c-0.369 0-0.667-0.298-0.667-0.667v-14.667c0-0.369 0.298-0.667 0.667-0.667h4c0.369 0 0.667 0.298 0.667 0.667v14.667c0 0.369-0.298 0.667-0.667 0.667zM5.333 25.333h2.667v-13.333h-2.667v13.333z"></path>
<path d="M27.333 26.667h-14.667c-0.369 0-0.667-0.298-0.667-0.667v-14.667c0-0.369 0.298-0.667 0.667-0.667h14.667c0.369 0 0.667 0.298 0.667 0.667v14.667c0 0.369-0.298 0.667-0.667 0.667zM13.333 25.333h13.333v-13.333h-13.333v13.333z"></path>
</svg>
