<svg version="1.1" xmlns="http://www.w3.org/2000/svg" width="32" height="32" viewBox="0 0 32 32">
<title>layout_grid_view</title>
<path d="M31.391 1.334h-30.666c-0.369 0-0.669 0.297-0.669 0.666v28c0 0.369 0.297 0.666 0.666 0.666h30.666c0.369 0 0.666-0.297 0.666-0.666v-28c0.003-0.369-0.294-0.666-0.663-0.666zM30.725 2.666v2.669h-29.334v-2.669h29.334zM1.391 29.334v-22.666h29.334v22.666h-29.334z"></path>
<path d="M14.022 20h-9.338c-0.369 0-0.666 0.297-0.666 0.666v5.334c0 0.369 0.297 0.666 0.666 0.666h9.334c0.369 0 0.666-0.297 0.666-0.666v-5.331c0.003-0.369-0.294-0.669-0.662-0.669zM13.353 25.334h-8v-4h8.003v4z"></path>
<path d="M27.356 20h-9.334c-0.369 0-0.666 0.297-0.666 0.666v5.334c0 0.369 0.297 0.666 0.666 0.666h9.334c0.369 0 0.666-0.297 0.666-0.666v-5.331c0-0.369-0.297-0.669-0.666-0.669zM26.688 25.334h-8v-4h8v4z"></path>
<path d="M14.022 10.666h-9.338c-0.369 0-0.666 0.297-0.666 0.666v5.331c0 0.369 0.297 0.666 0.666 0.666h9.334c0.369 0 0.666-0.297 0.666-0.666v-5.328c0.003-0.369-0.294-0.669-0.662-0.669zM13.353 16h-8v-4h8.003v4z"></path>
<path d="M27.356 10.666h-9.334c-0.369 0-0.666 0.297-0.666 0.666v5.331c0 0.369 0.297 0.666 0.666 0.666h9.334c0.369 0 0.666-0.297 0.666-0.666v-5.328c0-0.369-0.297-0.669-0.666-0.669zM26.688 16h-8v-4h8v4z"></path>
</svg>
