<svg version="1.1" xmlns="http://www.w3.org/2000/svg" width="32" height="32" viewBox="0 0 32 32">
<title>layout_columns_title</title>
<path d="M31.384 30.667h-30.666c-0.369 0-0.667-0.298-0.667-0.667v-28c0-0.369 0.298-0.667 0.667-0.667h30.666c0.369 0 0.667 0.298 0.667 0.667v28c0 0.369-0.298 0.667-0.667 0.667zM1.385 29.333h29.333v-26.667h-29.333v26.667z"></path>
<path d="M31.349 6.667h-30.567c-0.369 0-0.667-0.298-0.667-0.667s0.298-0.667 0.667-0.667h30.567c0.369 0 0.667 0.298 0.667 0.667s-0.298 0.667-0.667 0.667z"></path>
<path d="M27.348 14.665h-22.668c-0.369 0-0.667-0.298-0.667-0.667v-2.665c0-0.369 0.298-0.667 0.667-0.667h22.668c0.369 0 0.667 0.298 0.667 0.667v2.665c-0 0.369-0.298 0.667-0.667 0.667zM5.346 13.332h21.335v-1.332h-21.335v1.332z"></path>
<path d="M14.014 26.667h-9.335c-0.369 0-0.667-0.298-0.667-0.667v-7.999c0-0.369 0.298-0.667 0.667-0.667h9.335c0.369 0 0.667 0.298 0.667 0.667v7.999c0 0.369-0.298 0.667-0.667 0.667zM5.346 25.333h8.001v-6.665h-8.001v6.665z"></path>
<path d="M27.349 26.667h-9.335c-0.369 0-0.667-0.298-0.667-0.667v-7.999c0-0.369 0.298-0.667 0.667-0.667h9.335c0.369 0 0.667 0.298 0.667 0.667v7.999c0 0.369-0.298 0.667-0.667 0.667zM18.681 25.333h8.001v-6.665h-8.001v6.665z"></path>
</svg>
