<svg version="1.1" xmlns="http://www.w3.org/2000/svg" width="32" height="32" viewBox="0 0 32 32">
<title>layout_columns_three</title>
<path d="M31.378 30.667h-30.666c-0.369 0-0.667-0.298-0.667-0.667v-28c0-0.369 0.298-0.667 0.667-0.667h30.666c0.369 0 0.667 0.298 0.667 0.667v28c0 0.369-0.298 0.667-0.667 0.667zM1.378 29.333h29.333v-26.667h-29.333v26.667z"></path>
<path d="M31.344 6.667h-30.568c-0.369 0-0.667-0.298-0.667-0.667s0.298-0.667 0.667-0.667h30.568c0.369 0 0.667 0.298 0.667 0.667s-0.298 0.667-0.667 0.667z"></path>
<path d="M7.339 26.667h-2.666c-0.369 0-0.667-0.298-0.667-0.667v-14.667c0-0.369 0.298-0.667 0.667-0.667h2.666c0.369 0 0.667 0.298 0.667 0.667v14.667c0 0.369-0.298 0.667-0.667 0.667zM5.34 25.333h1.333v-13.333h-1.333v13.333z"></path>
<path d="M27.341 26.667h-2.667c-0.369 0-0.667-0.298-0.667-0.667v-14.667c0-0.369 0.298-0.667 0.667-0.667h2.667c0.369 0 0.667 0.298 0.667 0.667v14.667c0 0.369-0.298 0.667-0.667 0.667zM25.341 25.333h1.333v-13.333h-1.333v13.333z"></path>
<path d="M20.675 26.667h-9.335c-0.369 0-0.667-0.298-0.667-0.667v-14.667c0-0.369 0.298-0.667 0.667-0.667h9.335c0.369 0 0.667 0.298 0.667 0.667v14.667c0 0.369-0.298 0.667-0.667 0.667zM12.007 25.333h8.001v-13.333h-8.001v13.333z"></path>
</svg>
