<svg version="1.1" xmlns="http://www.w3.org/2000/svg" width="32" height="32" viewBox="0 0 32 32">
<title>legal_document_law_license</title>
<path d="M6.771 1.347c-0.369 0-0.667-0.298-0.667-0.667s0.298-0.667 0.667-0.667l20.963-0.001c0.369 0 0.667 0.298 0.667 0.667s-0.298 0.667-0.667 0.667l-20.963 0.001z"></path>
<path d="M27.734 7.997h-20.963c-0.369 0-0.667-0.298-0.667-0.667s0.298-0.667 0.667-0.667c1.534 0 2.782-1.193 2.782-2.659s-1.248-2.659-2.782-2.659c-0.369 0-0.667-0.298-0.667-0.667s0.298-0.667 0.667-0.667h20.963c2.268 0 4.115 1.791 4.115 3.992s-1.846 3.992-4.115 3.992zM9.839 6.664h17.896c1.534 0 2.781-1.193 2.781-2.659s-1.247-2.659-2.781-2.659h-17.896c0.652 0.706 1.048 1.639 1.048 2.659s-0.396 1.953-1.048 2.659z"></path>
<path d="M22.934 31.979c-0.001 0-0.003 0-0.003 0-0.184-0.001-0.359-0.077-0.484-0.211l-3.629-3.878-3.628 3.878c-0.253 0.268-0.721 0.268-0.974 0l-3.629-3.878-3.505 3.747c-0.253 0.268-0.721 0.268-0.974 0l-3.144-3.359c-0.15-0.122-0.247-0.306-0.247-0.51v-23.763c-0.001-1.065 0.413-2.068 1.167-2.822 0.754-0.755 1.757-1.171 2.824-1.171 0.369 0 0.667 0.298 0.667 0.667s-0.298 0.667-0.667 0.667c-1.466 0-2.659 1.193-2.659 2.659l0.002 23.483 2.544 2.719 3.505-3.747c0.253-0.268 0.721-0.268 0.974 0l3.629 3.878 3.628-3.878c0.253-0.268 0.721-0.268 0.974 0l3.633 3.881 2.447-2.566v-20.444c0-0.369 0.298-0.667 0.667-0.667s0.667 0.298 0.667 0.667v20.711c0 0.172-0.066 0.336-0.184 0.46l-3.117 3.271c-0.126 0.133-0.301 0.207-0.483 0.207z"></path>
<path d="M15.178 20.202c-0.118 0-0.238-0.003-0.361-0.009-0.368-0.017-0.652-0.329-0.634-0.698s0.368-0.677 0.698-0.633c0.983 0.036 1.719-0.131 2.077-0.501 0.204-0.212 0.289-0.491 0.26-0.854-0.049-0.616-1.078-1.243-2.682-1.637-2.552-0.672-2.932-1.977-2.932-2.696 0-1.421 1.408-2.533 3.206-2.533 1.17 0 2.255 0.723 2.813 1.438 0.227 0.291 0.175 0.71-0.117 0.936-0.289 0.225-0.71 0.173-0.935-0.117-0.349-0.448-1.084-0.924-1.76-0.924-1.016 0-1.873 0.549-1.873 1.2 0 0.809 1.348 1.251 1.927 1.404 2.301 0.565 3.579 1.541 3.682 2.821 0.061 0.746-0.156 1.4-0.63 1.888-0.582 0.602-1.523 0.915-2.737 0.915z"></path>
<path d="M14.437 24.025c-1.17 0-2.256-0.721-2.813-1.436-0.226-0.29-0.174-0.71 0.117-0.936 0.29-0.228 0.708-0.175 0.936 0.116 0.357 0.46 1.077 0.923 1.761 0.923 1.015 0 1.873-0.549 1.873-1.199 0-0.81-1.348-1.253-1.927-1.405-1.369-0.336-3.685-1.16-3.685-2.874 0-0.736 0.251-1.363 0.727-1.814 0.682-0.647 1.765-0.917 3.304-0.844 0.368 0.019 0.65 0.333 0.631 0.701-0.020 0.367-0.337 0.636-0.701 0.631-1.132-0.059-1.926 0.107-2.317 0.479-0.21 0.198-0.311 0.475-0.311 0.846 0 0.535 1.128 1.201 2.68 1.582 2.553 0.672 2.932 1.978 2.932 2.697 0 1.42-1.409 2.532-3.206 2.532z"></path>
</svg>
