<svg version="1.1" xmlns="http://www.w3.org/2000/svg" width="32" height="32" viewBox="0 0 32 32">
<title>like_thumb_up_vote2</title>
<path d="M27.475 18.723h-2.464c-0.369 0-0.667-0.298-0.667-0.667s0.298-0.667 0.667-0.667h2.464c0.369 0 0.667 0.298 0.667 0.667s-0.298 0.667-0.667 0.667z"></path>
<path d="M26.126 22.754h-1.769c-0.369 0-0.667-0.298-0.667-0.667s0.298-0.667 0.667-0.667h1.769c0.369 0 0.667 0.298 0.667 0.667s-0.298 0.667-0.667 0.667z"></path>
<path d="M23.996 30.381c-1.721 0-9.107-0.135-15.545-2.332-0.348-0.12-0.535-0.499-0.415-0.846 0.119-0.349 0.497-0.531 0.846-0.417 6.968 2.379 15.382 2.255 15.463 2.259 0.987 0 1.568-0.38 1.568-1.016 0-0.599-0.514-1.246-1.345-1.246h-0.944c-0.369 0-0.667-0.298-0.667-0.667s0.298-0.667 0.667-0.667h0.944c1.655 0 2.678 1.339 2.678 2.579 0 1.169-0.893 2.349-2.889 2.349-0.035 0-0.16 0.003-0.361 0.003z"></path>
<path d="M26.126 26.784h-1.559c-0.369 0-0.667-0.298-0.667-0.667s0.298-0.667 0.667-0.667h1.559c1.065 0 1.349-0.849 1.349-1.35 0-0.621-0.354-1.346-1.349-1.346-0.369 0-0.667-0.298-0.667-0.667s0.298-0.667 0.667-0.667h1.349c1.059 0 1.341-0.861 1.341-1.37 0-0.612-0.35-1.328-1.341-1.328-0.369 0-0.667-0.298-0.667-0.667s0.298-0.667 0.667-0.667h0.208c1.065 0 1.349-0.849 1.349-1.35 0-0.359-0.122-0.702-0.335-0.941-0.24-0.269-0.581-0.406-1.014-0.406h-9.648c-0.223 0-0.43-0.111-0.553-0.295s-0.147-0.419-0.064-0.624c2.135-5.217 1.227-8.633-0.202-9.972-0.547-0.514-1.064-0.615-1.314-0.494-0.235 0.114-0.348 0.495-0.303 1.019 0.51 5.845-6.233 11.217-6.52 11.443-0.291 0.227-0.708 0.178-0.936-0.112-0.227-0.289-0.177-0.708 0.112-0.936 0.064-0.051 6.464-5.154 6.016-10.279-0.097-1.113 0.285-1.964 1.049-2.334 0.827-0.402 1.906-0.127 2.809 0.721 1.723 1.617 2.794 5.201 0.876 10.531h8.678c1.034 0 1.664 0.464 2.010 0.852 0.434 0.487 0.672 1.136 0.672 1.827 0 0.794-0.327 1.594-0.964 2.112 0.495 0.507 0.747 1.206 0.747 1.9 0 1.086-0.6 2.184-1.758 2.564 0.271 0.431 0.417 0.945 0.417 1.486 0 1.333-0.922 2.684-2.682 2.684z"></path>
<path d="M8.667 30.667h-8c-0.369 0-0.667-0.298-0.667-0.667v-16c0-0.369 0.298-0.667 0.667-0.667h8c0.369 0 0.667 0.298 0.667 0.667v16c0 0.369-0.298 0.667-0.667 0.667zM1.333 29.333h6.667v-14.667h-6.667v14.667z"></path>
</svg>
