<svg version="1.1" xmlns="http://www.w3.org/2000/svg" width="32" height="32" viewBox="0 0 32 32">
<title>like_heart_favorite_rating_love</title>
<path d="M22.1 4c-3 0-5 1.8-6.1 3.2-1.1-1.4-3.1-3.2-6.1-3.2-3.7 0-6.9 3.2-6.9 7-0.1 7.5 6 12.6 11.9 16.6 0.3 0.2 0.7 0.3 1.1 0.3s0.8-0.1 1.1-0.3c0 0 0 0 0 0 5.9-4 12-9.1 11.9-16.6 0-3.8-3.2-7-6.9-7zM16 26c0 0 0 0 0 0v0c-5.5-3.7-11.1-8.4-11-14.9 0-2.8 2.2-5.1 4.9-5.1 3.4 0 5.1 3.4 5.2 3.4 0.2 0.4 0.5 0.6 0.9 0.6 0 0 0 0 0 0 0.4 0 0.7-0.2 0.9-0.5 0 0 1.8-3.5 5.2-3.5v0c2.7 0 4.9 2.3 4.9 5.1 0.1 6.5-5.5 11.2-11 14.9z"></path>
</svg>
