<svg version="1.1" xmlns="http://www.w3.org/2000/svg" width="32" height="32" viewBox="0 0 32 32">
<title>like_thumb_up_vote</title>
<path d="M17.38 31.867c-1.109 0-2.234-0.306-3.193-0.566l-0.035-0.009-0.27 0.122c-1.084 0.488-3.214 0.461-4.333-0.31-1.078-0.74-1.148-1.697-1.104-2.652-2.325-0.331-2.857-1.573-2.857-2.638 0-0.068 0.010-0.135 0.031-0.199l0.145-0.462c-1.632-0.488-2.037-1.539-2.037-2.458 0-0.51 0.182-1.027 0.541-1.538l0.109-0.169c-0.741-0.646-1.239-1.516-1.46-2.566-0.423-2.009 0.535-3.586 2.693-4.44 1.448-0.566 3.546-0.865 6.241-0.889-0.252-1.297-0.842-3.926-1.736-5.411-0.74-1.268-1.379-2.363-1.379-3.893 0-2.474 1.368-3.498 2.539-3.622 1.276-0.143 2.447 0.71 2.718 1.97 0.582 2.705 1.883 4.061 4.246 6.523 0.4 0.417 0.827 0.863 1.284 1.35 0.139 0.167 0.296 0.37 0.505 0.643 2.065 2.685 3.289 4.159 3.638 4.38 0.199 0.033 2.187 0.175 3.94 0.271 0.267 0.014 0.5 0.187 0.591 0.439 0.743 2.059 1.061 3.758 1.061 5.681 0 2.085-0.493 3.794-0.975 5.19-0.092 0.269-0.346 0.449-0.63 0.449h-3.212c-0.081 0-0.159 0.039-0.215 0.108-1.441 1.763-3.142 3.178-5.354 4.454-0.047 0.027-0.096 0.048-0.147 0.064-0.436 0.126-0.889 0.178-1.344 0.178zM16.13 30.401c0.745 0.137 1.499 0.197 2.147 0.027 2.033-1.182 3.595-2.487 4.915-4.102 0.31-0.38 0.764-0.598 1.247-0.598h2.733c0.408-1.242 0.751-2.628 0.751-4.306 0-1.654-0.245-3.075-0.837-4.814-3.633-0.206-3.884-0.323-4.008-0.381-0.434-0.198-1.247-1.043-4.109-4.764-0.202-0.263-0.353-0.459-0.427-0.551-0.445-0.474-0.87-0.916-1.267-1.33-2.448-2.551-3.925-4.092-4.587-7.165-0.147-0.681-0.747-0.976-1.274-0.926-0.651 0.070-1.347 0.71-1.347 2.297 0 1.169 0.5 2.027 1.133 3.112 1.403 2.331 2.077 6.574 2.105 6.754 0.030 0.193-0.026 0.389-0.152 0.536s-0.312 0.233-0.507 0.233h-0.445c-2.699 0-4.753 0.268-6.105 0.797-2.062 0.815-2.059 2.060-1.877 2.926 0.222 1.055 0.796 1.823 1.705 2.285 1.313 0.667 3.087 0.547 4.087 0.094l2.567-1.156c0.014-0.008 0.027-0.013 0.042-0.019l1.002-0.452c-0.223-0.428-1.167-1.327-2.558-1.327-0.836 0-2.077 0.508-2.743 0.781-0.071 0.029-0.146 0.046-0.223 0.048l-0.919 0.042c-0.342 0.040-0.679-0.267-0.696-0.635-0.017-0.367 0.268-0.68 0.636-0.695l0.803-0.036c1.014-0.413 2.163-0.837 3.141-0.837 2.088 0 3.684 1.465 3.91 2.514 0.1 0.466-0.049 0.892-0.385 1.143 0.639 0.307 1.219 0.745 1.855 1.599 0.208 0.28 0.277 0.633 0.19 0.97-0.078 0.297-0.269 0.546-0.531 0.697 0.379 0.245 0.741 0.533 1.172 1.025 0.005 0.007 0.086 0.108 0.091 0.113 0.189 0.232 0.504 0.62 0.353 1.189-0.089 0.337-0.323 0.612-0.643 0.751l-0.413 0.186c1.043 0.964 1.749 1.723 1.628 2.484-0.034 0.207-0.163 0.589-0.655 0.811l-1.508 0.68zM9.776 28.536c-0.033 0.759 0.031 1.128 0.527 1.469 0.693 0.474 2.322 0.513 3.031 0.193l0.464-0.208c0.016-0.008 0.032-0.016 0.048-0.022l3.045-1.372c-0.25-0.387-0.977-1.051-1.316-1.361-0.080-0.073-0.158-0.145-0.231-0.212l-0.317 0.142c-2.93 1.329-3.035 1.375-4.869 1.374l-0.381-0.001zM9.216 27.19c0.166 0.008 0.344 0.013 0.536 0.013l0.411 0.001c1.546 0.003 1.535 0.005 4.314-1.254l0.658-0.297c0.044-0.026 0.091-0.047 0.138-0.063l1.045-0.47c-0.025-0.030-0.066-0.083-0.069-0.086-0.468-0.535-0.812-0.733-1.381-1.059-0.080-0.046-0.163-0.094-0.249-0.145-0.219 0.099-0.424 0.191-0.616 0.277-2.87 1.293-2.979 1.339-5.089 1.324l-0.9-0.005c-0.333 0-0.642-0.013-0.928-0.038l-0.163 0.521c0.014 0.396 0.184 1.152 2.23 1.275 0.021-0.001 0.043 0.001 0.064 0.004zM5.497 21.706l-0.124 0.194c-0.214 0.305-0.314 0.564-0.314 0.794 0 0.346 0 1.401 2.954 1.401l0.912 0.005c1.819 0.014 1.814 0.017 4.529-1.207 0.266-0.119 0.556-0.25 0.875-0.393 0.036-0.019 0.074-0.036 0.113-0.051 0.245-0.109 0.507-0.227 0.787-0.35-0.699-0.871-1.234-1.053-2.318-1.417l-2.35 1.060c-1.235 0.555-3.319 0.77-5.064-0.036z"></path>
</svg>
