<svg version="1.1" xmlns="http://www.w3.org/2000/svg" width="32" height="32" viewBox="0 0 32 32">
<title>like_heart_favorite_rating_love2</title>
<path d="M24.634 31.755c-0.369 0-0.667-0.298-0.667-0.667v-10.381c0-0.369 0.298-0.667 0.667-0.667s0.667 0.298 0.667 0.667v10.381c0 0.369-0.298 0.667-0.667 0.667z"></path>
<path d="M29.824 26.564h-10.38c-0.369 0-0.667-0.298-0.667-0.667s0.298-0.667 0.667-0.667h10.38c0.369 0 0.667 0.298 0.667 0.667s-0.298 0.667-0.667 0.667z"></path>
<path d="M16.051 30.337c-0.171 0-0.341-0.065-0.471-0.195l-12.759-12.758c-1.587-1.586-2.46-3.695-2.46-5.939s0.874-4.353 2.46-5.939c1.586-1.587 3.695-2.46 5.939-2.46s4.353 0.874 5.939 2.46l1.352 1.351 1.352-1.352c1.586-1.587 3.695-2.46 5.939-2.46s4.353 0.874 5.94 2.46c1.586 1.587 2.46 3.696 2.46 5.939s-0.874 4.353-2.461 5.939l-1.727 1.646c-0.266 0.253-0.687 0.243-0.943-0.023-0.254-0.267-0.243-0.689 0.023-0.943l1.715-1.634c1.323-1.323 2.059-3.097 2.059-4.985s-0.734-3.662-2.069-4.997-3.109-2.070-4.997-2.070c-1.887 0-3.661 0.735-4.996 2.070l-1.823 1.823c-0.26 0.26-0.682 0.26-0.943 0l-1.823-1.822c-1.335-1.335-3.109-2.070-4.997-2.070s-3.662 0.735-4.997 2.070-2.070 3.109-2.070 4.997 0.735 3.661 2.070 4.996l12.288 12.286 1.195-1.195c0.26-0.26 0.682-0.26 0.943 0s0.26 0.682 0 0.943l-1.667 1.667c-0.13 0.13-0.301 0.195-0.471 0.195z"></path>
</svg>
