<!-- Generated by IcoMoon.io -->
<svg version="1.1" xmlns="http://www.w3.org/2000/svg" width="32" height="32" viewBox="0 0 32 32">
<title>like_heart_favorite_rating_love_add</title>
<path d="M24.494 17.025c0-0.569-0.462-1.025-1.025-1.025s-1.025 0.463-1.025 1.025v3.725h-3.725c-0.569 0-1.025 0.462-1.025 1.025s0.462 1.025 1.025 1.025h3.725v3.725c0 0.569 0.462 1.025 1.025 1.025s1.025-0.462 1.025-1.025v-3.725h3.725c0.569 0 1.025-0.462 1.025-1.025s-0.462-1.025-1.025-1.025h-3.725v-3.725z"></path>
<path d="M22.056 4c-2.381 0-4.137 1.181-5.256 2.287-0.313 0.306-0.581 0.619-0.8 0.9-0.225-0.287-0.494-0.594-0.8-0.9-1.119-1.106-2.875-2.288-5.256-2.288-3.881 0-6.906 3.237-6.944 7.037v0c-0.075 7.419 5.887 12.55 11.875 16.612 0.331 0.225 0.725 0.344 1.125 0.344s0.794-0.119 1.125-0.344c0.6-0.406 1.2-0.825 1.788-1.25-0.506-0.438-0.95-0.95-1.306-1.525-0.525 0.381-1.063 0.756-1.613 1.125v0 0c-6.037-4.1-11.056-8.688-10.994-14.938l0.013-0.006c0 0 0 0 0 0l-0.013 0.006c0.031-2.781 2.231-5.063 4.944-5.063 1.675 0 2.95 0.819 3.844 1.713 0.2 0.2 0.375 0.394 0.531 0.588 0.194 0.231 0.35 0.45 0.475 0.637 0.113 0.169 0.194 0.3 0.244 0.394 0.025 0.044 0.044 0.081 0.056 0.1 0 0.006 0.006 0.006 0.006 0.012 0 0 0 0.006 0 0.006s0 0.006 0 0.006v0c0.169 0.338 0.512 0.55 0.894 0.55 0.375 0 0.725-0.213 0.894-0.55v0c0-0.006 0.006-0.012 0.012-0.019 0.012-0.019 0.031-0.056 0.056-0.1 0.050-0.094 0.131-0.225 0.244-0.394 0.225-0.331 0.556-0.781 1.006-1.219 0.325-0.319 0.694-0.631 1.119-0.9v0c0.738-0.463 1.625-0.794 2.669-0.806 0.012 0 0.025 0 0.038 0 0.006 0 0.012 0 0.025 0 2.712 0 4.912 2.281 4.938 5.063 0.019 1.575-0.294 3.050-0.856 4.431 0.619 0.306 1.181 0.706 1.669 1.181 0.769-1.725 1.206-3.594 1.188-5.637v0c-0.031-3.819-3.056-7.056-6.938-7.056z"></path>
</svg>
