<svg version="1.1" xmlns="http://www.w3.org/2000/svg" width="32" height="32" viewBox="0 0 32 32">
<title>line_thumb_view</title>
<path d="M28.191 32h-24.359c-2.107 0-3.82-1.714-3.82-3.82v-24.359c0-2.107 1.713-3.82 3.82-3.82h24.359c2.107 0 3.82 1.714 3.82 3.82v24.359c0 2.107-1.713 3.82-3.82 3.82zM3.833 1.333c-1.371 0-2.487 1.116-2.487 2.487v24.359c0 1.371 1.116 2.487 2.487 2.487h24.359c1.371 0 2.487-1.116 2.487-2.487v-24.359c0-1.371-1.116-2.487-2.487-2.487h-24.359z"></path>
<path d="M11.975 25.333h-5.282c-0.749 0-1.359-0.609-1.359-1.359v-5.281c0-0.75 0.61-1.359 1.359-1.359h5.282c0.749 0 1.359 0.609 1.359 1.359v5.281c0 0.75-0.609 1.359-1.359 1.359zM6.693 18.667l-0.026 5.307 5.308 0.026c0.014 0 0.025-0.012 0.025-0.026v-5.281l-5.307-0.026z"></path>
<path d="M25.917 20h-9.195c-0.369 0-0.667-0.298-0.667-0.667s0.298-0.667 0.667-0.667h9.195c0.369 0 0.667 0.298 0.667 0.667s-0.298 0.667-0.667 0.667z"></path>
<path d="M25.917 22.667h-9.195c-0.369 0-0.667-0.298-0.667-0.667s0.298-0.667 0.667-0.667h9.195c0.369 0 0.667 0.298 0.667 0.667s-0.298 0.667-0.667 0.667z"></path>
<path d="M11.975 13.333h-5.282c-0.749 0-1.359-0.609-1.359-1.359v-5.283c0-0.749 0.61-1.359 1.359-1.359h5.281c0.749 0 1.359 0.609 1.359 1.359v5.283c0 0.749-0.609 1.359-1.359 1.359zM6.693 6.666l-0.026 5.308 5.308 0.025c0.014 0 0.025-0.011 0.025-0.025v-5.283l-5.307-0.025z"></path>
<path d="M25.917 7.999h-9.195c-0.369 0-0.667-0.298-0.667-0.667s0.298-0.667 0.667-0.667h9.195c0.369 0 0.667 0.298 0.667 0.667s-0.298 0.667-0.667 0.667z"></path>
<path d="M25.917 10.666h-9.195c-0.369 0-0.667-0.298-0.667-0.667s0.298-0.667 0.667-0.667h9.195c0.369 0 0.667 0.298 0.667 0.667s-0.298 0.667-0.667 0.667z"></path>
</svg>
