<!-- Generated by IcoMoon.io -->
<svg version="1.1" xmlns="http://www.w3.org/2000/svg" width="32" height="32" viewBox="0 0 32 32">
<title>line_structure_relations_hierarchy_favorite</title>
<path d="M16.612 31.863c0 0-0.001 0-0.001 0-1.683 0-3.048-1.365-3.048-3.048s1.365-3.048 3.048-3.048c1.683 0 3.048 1.365 3.048 3.048v0c-0.002 1.682-1.365 3.046-3.047 3.048v0zM16.612 27.1c0 0-0.001 0-0.001 0-0.947 0-1.715 0.768-1.715 1.715s0.768 1.715 1.715 1.715c0.947 0 1.715-0.768 1.715-1.715 0 0 0 0 0 0v0c-0.001-0.946-0.768-1.713-1.714-1.715v0z"></path>
<path d="M16.025 27.177c-0.31 0-0.57-0.212-0.645-0.498l-0.001-0.005-1.898-7.452c-0.013-0.049-0.021-0.106-0.021-0.164 0-0.368 0.298-0.666 0.666-0.666 0.31 0 0.57 0.211 0.645 0.498l0.001 0.005 1.898 7.452c0.013 0.049 0.021 0.106 0.021 0.164 0 0.31-0.212 0.571-0.499 0.645l-0.005 0.001c-0.049 0.013-0.105 0.021-0.164 0.021 0 0 0 0-0.001 0v0z"></path>
<path d="M27.677 26.363c-1.269 0-2.298-1.029-2.298-2.298s1.029-2.298 2.298-2.298c1.269 0 2.298 1.029 2.298 2.298v0c-0.002 1.269-1.030 2.297-2.298 2.298v0zM27.677 23.1c0 0 0 0 0 0-0.533 0-0.965 0.432-0.965 0.965s0.432 0.965 0.965 0.965c0.533 0 0.965-0.432 0.965-0.965 0 0 0 0 0 0v0c0-0.533-0.432-0.965-0.965-0.965v0z"></path>
<path d="M4.32 23.394c-1.269 0-2.298-1.029-2.298-2.298s1.029-2.298 2.298-2.298c1.269 0 2.298 1.029 2.298 2.298 0 0 0 0 0 0v0c-0.002 1.268-1.030 2.296-2.298 2.298v0zM4.32 20.132c0 0 0 0 0 0-0.533 0-0.965 0.432-0.965 0.965s0.432 0.965 0.965 0.965c0.533 0 0.965-0.432 0.965-0.965 0 0 0 0 0 0v0c-0.001-0.533-0.432-0.964-0.965-0.965v0z"></path>
<path d="M6.217 4.94c-1.269 0-2.298-1.029-2.298-2.298s1.029-2.298 2.298-2.298c1.269 0 2.298 1.029 2.298 2.298v0c-0.002 1.269-1.030 2.297-2.298 2.298v0zM6.217 1.677c-0.533 0-0.965 0.432-0.965 0.965s0.432 0.965 0.965 0.965c0.533 0 0.965-0.432 0.965-0.965v0c-0.001-0.532-0.432-0.964-0.965-0.965v0z"></path>
<path d="M7.558 5.947c0 0 0 0 0 0-0.251 0-0.47-0.139-0.584-0.343l-0.002-0.003-0.639-1.17c-0.051-0.092-0.082-0.202-0.082-0.32 0-0.368 0.299-0.667 0.667-0.667 0.251 0 0.47 0.139 0.584 0.344l0.002 0.003 0.639 1.17c0.052 0.092 0.082 0.203 0.082 0.32 0 0.368-0.298 0.666-0.666 0.666 0 0 0 0 0 0v0z"></path>
<path d="M9.928 10.285c-0.251-0.001-0.469-0.139-0.583-0.344l-0.002-0.003-1.188-2.169c-0.051-0.092-0.082-0.202-0.082-0.32 0-0.368 0.299-0.667 0.667-0.667 0.251 0 0.47 0.139 0.584 0.344l0.002 0.003 1.185 2.169c0.052 0.092 0.082 0.203 0.082 0.32 0 0.368-0.298 0.666-0.666 0.667v0z"></path>
<path d="M11.753 13.625c0 0 0 0 0 0-0.251 0-0.47-0.139-0.584-0.343l-0.002-0.003-0.639-1.171c-0.057-0.096-0.090-0.212-0.090-0.335 0-0.368 0.299-0.667 0.667-0.667 0.257 0 0.481 0.146 0.592 0.359l0.002 0.004 0.639 1.17c0.051 0.092 0.081 0.202 0.081 0.319 0 0.368-0.298 0.666-0.666 0.667v0z"></path>
<path d="M26.25 23.952c0 0 0 0 0 0-0.122 0-0.236-0.033-0.335-0.090l0.003 0.002-1.156-0.664c-0.201-0.117-0.335-0.332-0.335-0.578 0-0.368 0.299-0.667 0.667-0.667 0.122 0 0.237 0.033 0.335 0.090l-0.003-0.002 1.156 0.664c0.201 0.117 0.335 0.332 0.335 0.578 0 0.368-0.298 0.667-0.667 0.667 0 0 0 0 0 0v0z"></path>
<path d="M22.508 21.802c0 0 0 0 0 0-0.122 0-0.236-0.033-0.335-0.090l0.003 0.002-2.587-1.486c-0.201-0.117-0.335-0.332-0.335-0.578 0-0.368 0.299-0.667 0.667-0.667 0.122 0 0.237 0.033 0.335 0.090l-0.003-0.002 2.587 1.486c0.201 0.117 0.334 0.332 0.334 0.578 0 0.368-0.298 0.667-0.667 0.667v0z"></path>
<path d="M17.332 18.829c0 0-0.001 0-0.001 0-0.122 0-0.236-0.033-0.334-0.090l0.003 0.002-1.156-0.664c-0.201-0.117-0.335-0.332-0.335-0.578 0-0.368 0.299-0.667 0.667-0.667 0.122 0 0.237 0.033 0.335 0.090l-0.003-0.002 1.156 0.664c0.201 0.117 0.335 0.332 0.335 0.578 0 0.368-0.298 0.667-0.667 0.667 0 0 0 0 0 0v0z"></path>
<path d="M5.745 20.983c0 0 0 0-0.001 0-0.368 0-0.667-0.298-0.667-0.667 0-0.241 0.128-0.451 0.319-0.569l0.003-0.002 2.281-1.382c0.099-0.062 0.22-0.099 0.349-0.099 0.368 0 0.667 0.298 0.667 0.667 0 0.242-0.129 0.454-0.323 0.571l-0.003 0.002-2.281 1.381c-0.098 0.061-0.217 0.096-0.344 0.097v0z"></path>
<path d="M8.117 19.547c0 0 0 0-0.001 0-0.368 0-0.667-0.298-0.667-0.667 0-0.241 0.128-0.451 0.319-0.569l0.003-0.002 2.281-1.382c0.098-0.061 0.218-0.096 0.345-0.096 0.368 0 0.667 0.298 0.667 0.667 0 0.241-0.127 0.451-0.319 0.569l-0.003 0.002-2.281 1.382c-0.098 0.060-0.217 0.096-0.344 0.096 0 0 0 0 0 0v0z"></path>
<path d="M13.313 19.829c-2.189-0.002-3.962-1.776-3.965-3.964v0c0-2.188 1.778-3.966 3.965-3.966s3.966 1.779 3.966 3.966-1.779 3.965-3.966 3.965zM13.313 13.232c-1.453 0.001-2.631 1.179-2.631 2.632s1.178 2.632 2.632 2.632c1.453 0 2.632-1.178 2.632-2.632v0c-0.001-1.453-1.179-2.631-2.633-2.632v0z"></path>
<path d="M15.259 12.864c-0.106 0.118-0.172 0.274-0.172 0.446 0 0.368 0.298 0.667 0.667 0.667 0.185 0 0.353-0.076 0.474-0.198v0l2.422-2.629c0.107-0.118 0.173-0.275 0.173-0.447 0-0.184-0.075-0.351-0.195-0.471v0c-0.12-0.12-0.287-0.195-0.471-0.195-0.195 0-0.371 0.084-0.493 0.218v0.001z"></path>
<path d="M30.761 1.238c-0.765-0.765-1.821-1.237-2.988-1.237s-2.223 0.473-2.988 1.237l-0.406 0.406-0.406-0.406c-0.768-0.787-1.839-1.275-3.024-1.275-2.333 0-4.224 1.891-4.224 4.224 0 1.185 0.488 2.256 1.274 3.023l5.94 5.939c0.113 0.113 0.268 0.184 0.441 0.184v0c0 0 0.001 0 0.001 0 0.173 0 0.329-0.069 0.443-0.181l5.937-5.937c0.765-0.765 1.237-1.821 1.237-2.987s-0.473-2.223-1.237-2.987v0zM29.877 6.328l-5.497 5.497-5.497-5.497c-0.538-0.538-0.871-1.282-0.871-2.103 0-1.643 1.331-2.974 2.974-2.975v0c0.002 0 0.005 0 0.007 0 0.819 0 1.561 0.333 2.096 0.872v0l0.848 0.847c0.113 0.113 0.269 0.183 0.442 0.183s0.329-0.070 0.442-0.183v0l0.85-0.847c0.54-0.549 1.291-0.889 2.121-0.889 1.643 0 2.974 1.332 2.974 2.974 0 0.83-0.34 1.581-0.889 2.121v0z"></path>
</svg>
