<!-- Generated by IcoMoon.io -->
<svg version="1.1" xmlns="http://www.w3.org/2000/svg" width="32" height="32" viewBox="0 0 32 32">
<title>line</title>
<path d="M4 28h28v4h-32v-32h4v28zM9 26c-1.657 0-3-1.343-3-3s1.343-3 3-3c0.088 0 0.176 0.005 0.262 0.012l3.226-5.375c-0.309-0.47-0.488-1.033-0.488-1.637 0-1.657 1.343-3 3-3s3 1.343 3 3c0 0.604-0.179 1.167-0.487 1.637l3.226 5.375c0.085-0.007 0.173-0.012 0.261-0.012 0.066 0 0.133 0.003 0.198 0.007l5.323-9.316c-0.328-0.482-0.521-1.064-0.521-1.691 0-1.657 1.343-3 3-3s3 1.343 3 3-1.343 3-3 3c-0.066 0-0.133-0.003-0.198-0.007l-5.323 9.315c0.328 0.483 0.521 1.065 0.521 1.692 0 1.657-1.343 3-3 3s-3-1.343-3-3c0-0.604 0.179-1.167 0.487-1.638l-3.226-5.374c-0.085 0.007-0.173 0.012-0.261 0.012s-0.176-0.005-0.262-0.012l-3.226 5.375c0.309 0.47 0.488 1.033 0.488 1.637 0 1.657-1.343 3-3 3z"></path>
</svg>
