<!-- Generated by IcoMoon.io -->
<svg version="1.1" xmlns="http://www.w3.org/2000/svg" width="32" height="32" viewBox="0 0 32 32">
<title>line_structure_hierarchy</title>
<path d="M4.041 31.863c-2.141 0-3.882-1.75-3.882-3.9s1.742-3.9 3.882-3.9 3.882 1.75 3.882 3.9-1.742 3.9-3.882 3.9zM4.041 25.397c-1.406 0-2.549 1.151-2.549 2.566s1.143 2.566 2.549 2.566 2.549-1.151 2.549-2.566-1.143-2.566-2.549-2.566z"></path>
<path d="M15.348 31.863c-2.141 0-3.882-1.75-3.882-3.9s1.742-3.9 3.882-3.9c2.141 0 3.882 1.75 3.882 3.9s-1.741 3.9-3.882 3.9zM15.348 25.397c-1.406 0-2.549 1.151-2.549 2.566s1.143 2.566 2.549 2.566 2.549-1.151 2.549-2.566-1.143-2.566-2.549-2.566z"></path>
<path d="M26.878 31.863c-2.141 0-3.881-1.75-3.881-3.9s1.741-3.9 3.881-3.9 3.883 1.75 3.883 3.9-1.742 3.9-3.883 3.9zM26.878 25.397c-1.405 0-2.548 1.151-2.548 2.566s1.143 2.566 2.548 2.566c1.406 0 2.549-1.151 2.549-2.566s-1.143-2.566-2.549-2.566z"></path>
<path d="M15.348 25.397c-0.369 0-0.667-0.298-0.667-0.667v-17.389c0-0.369 0.298-0.667 0.667-0.667s0.667 0.298 0.667 0.667v17.389c0 0.369-0.299 0.667-0.667 0.667z"></path>
<path d="M6.163 26.204c-0.15 0-0.302-0.051-0.426-0.155-0.283-0.236-0.32-0.656-0.085-0.939l9.184-10.995c0.125-0.15 0.309-0.237 0.503-0.24 0.198 0.012 0.381 0.081 0.509 0.226l9.564 10.867c0.243 0.276 0.217 0.697-0.060 0.94-0.276 0.245-0.698 0.216-0.94-0.060l-9.051-10.282-8.686 10.398c-0.132 0.158-0.322 0.24-0.512 0.24z"></path>
<path d="M15.348 8.008c-2.141 0-3.882-1.749-3.882-3.9s1.742-3.9 3.882-3.9c2.141 0 3.882 1.749 3.882 3.9s-1.741 3.9-3.882 3.9zM15.348 1.542c-1.406 0-2.549 1.151-2.549 2.566s1.143 2.566 2.549 2.566 2.549-1.151 2.549-2.566-1.143-2.566-2.549-2.566z"></path>
</svg>
