<svg version="1.1" xmlns="http://www.w3.org/2000/svg" width="32" height="32" viewBox="0 0 32 32">
<title>line_structure_relations_hierarchy</title>
<path d="M25.164 6.477c-1.681 0-3.048-1.367-3.048-3.048s1.367-3.047 3.048-3.047 3.048 1.367 3.048 3.047c0 1.681-1.367 3.048-3.048 3.048zM25.164 1.714c-0.945 0-1.715 0.769-1.715 1.714s0.769 1.715 1.715 1.715 1.715-0.769 1.715-1.715-0.769-1.714-1.715-1.714z"></path>
<path d="M16.612 31.863c-1.681 0-3.048-1.367-3.048-3.048s1.367-3.048 3.048-3.048c1.68 0 3.047 1.367 3.047 3.048s-1.367 3.048-3.047 3.048zM16.612 27.1c-0.945 0-1.715 0.769-1.715 1.715s0.769 1.715 1.715 1.715 1.714-0.769 1.714-1.715-0.768-1.715-1.714-1.715z"></path>
<path d="M15.587 14.145c-0.164 0-0.329-0.061-0.458-0.182-0.268-0.253-0.28-0.675-0.027-0.943l7.912-8.385c0.25-0.268 0.673-0.28 0.941-0.027s0.28 0.675 0.027 0.943l-7.911 8.385c-0.131 0.139-0.307 0.209-0.484 0.209z"></path>
<path d="M16.025 27.177c-0.298 0-0.569-0.201-0.646-0.503l-1.898-7.452c-0.091-0.357 0.124-0.719 0.481-0.81 0.356-0.095 0.72 0.124 0.811 0.482l1.898 7.452c0.091 0.357-0.125 0.719-0.482 0.81-0.055 0.014-0.111 0.021-0.164 0.021z"></path>
<path d="M27.677 26.363c-1.267 0-2.298-1.031-2.298-2.298s1.031-2.298 2.298-2.298 2.298 1.031 2.298 2.298-1.031 2.298-2.298 2.298zM27.677 23.1c-0.533 0-0.965 0.432-0.965 0.965s0.432 0.965 0.965 0.965 0.965-0.432 0.965-0.965-0.432-0.965-0.965-0.965z"></path>
<path d="M4.32 23.395c-1.267 0-2.298-1.031-2.298-2.298s1.031-2.298 2.298-2.298 2.298 1.031 2.298 2.298-1.031 2.298-2.298 2.298zM4.32 20.131c-0.532 0-0.965 0.432-0.965 0.965s0.433 0.965 0.965 0.965 0.965-0.432 0.965-0.965-0.433-0.965-0.965-0.965z"></path>
<path d="M6.217 4.94c-1.267 0-2.298-1.031-2.298-2.298s1.031-2.298 2.298-2.298 2.298 1.031 2.298 2.298-1.031 2.298-2.298 2.298zM6.217 1.677c-0.532 0-0.965 0.433-0.965 0.965s0.433 0.965 0.965 0.965 0.965-0.433 0.965-0.965-0.433-0.965-0.965-0.965z"></path>
<path d="M7.557 5.947c-0.236 0-0.465-0.126-0.586-0.347l-0.639-1.17c-0.176-0.323-0.057-0.728 0.266-0.905 0.324-0.175 0.728-0.057 0.905 0.266l0.639 1.17c0.176 0.323 0.057 0.728-0.266 0.905-0.101 0.055-0.211 0.081-0.319 0.081z"></path>
<path d="M9.928 10.285c-0.236 0-0.465-0.126-0.586-0.347l-1.186-2.169c-0.176-0.323-0.057-0.728 0.266-0.905s0.728-0.057 0.905 0.266l1.186 2.169c0.177 0.323 0.057 0.728-0.266 0.905-0.101 0.055-0.211 0.081-0.319 0.081z"></path>
<path d="M11.753 13.624c-0.236 0-0.465-0.126-0.586-0.347l-0.639-1.17c-0.176-0.323-0.057-0.728 0.266-0.905s0.728-0.058 0.905 0.266l0.639 1.17c0.176 0.323 0.057 0.728-0.266 0.905-0.102 0.055-0.211 0.081-0.319 0.081z"></path>
<path d="M26.251 23.952c-0.113 0-0.228-0.029-0.332-0.089l-1.156-0.664c-0.319-0.184-0.43-0.591-0.246-0.91 0.185-0.322 0.594-0.428 0.91-0.246l1.156 0.664c0.319 0.184 0.43 0.591 0.246 0.91-0.124 0.215-0.348 0.335-0.578 0.335z"></path>
<path d="M22.508 21.802c-0.113 0-0.228-0.029-0.332-0.089l-2.587-1.486c-0.319-0.184-0.43-0.591-0.246-0.91 0.184-0.322 0.594-0.428 0.91-0.246l2.587 1.486c0.319 0.184 0.43 0.591 0.246 0.91-0.124 0.215-0.348 0.335-0.578 0.335z"></path>
<path d="M17.332 18.829c-0.113 0-0.228-0.029-0.332-0.089l-1.156-0.664c-0.319-0.184-0.43-0.591-0.246-0.91 0.183-0.32 0.592-0.428 0.91-0.246l1.156 0.664c0.319 0.184 0.43 0.591 0.246 0.91-0.124 0.215-0.348 0.335-0.578 0.335z"></path>
<path d="M5.745 20.983c-0.225 0-0.445-0.115-0.571-0.322-0.191-0.315-0.090-0.724 0.225-0.915l2.281-1.381c0.313-0.189 0.725-0.090 0.915 0.225s0.090 0.724-0.225 0.915l-2.281 1.381c-0.107 0.065-0.227 0.096-0.344 0.096z"></path>
<path d="M8.117 19.547c-0.225 0-0.445-0.115-0.571-0.322-0.191-0.315-0.090-0.724 0.225-0.915l2.281-1.381c0.314-0.189 0.725-0.090 0.915 0.225s0.090 0.724-0.225 0.915l-2.281 1.381c-0.107 0.065-0.227 0.096-0.344 0.096z"></path>
<path d="M13.313 19.829c-2.186 0-3.965-1.779-3.965-3.965s1.779-3.965 3.965-3.965c2.187 0 3.966 1.779 3.966 3.965s-1.779 3.965-3.966 3.965zM13.313 13.232c-1.451 0-2.631 1.181-2.631 2.632s1.18 2.631 2.631 2.631c1.452 0 2.633-1.181 2.633-2.631s-1.181-2.632-2.633-2.632z"></path>
</svg>
