<!-- Generated by IcoMoon.io -->
<svg version="1.1" xmlns="http://www.w3.org/2000/svg" width="32" height="32" viewBox="0 0 32 32">
<title>linkedin</title>
<path d="M3.391 11.628h5.406v17.384h-5.406v-17.384zM6.103 2.987c1.728 0 3.134 1.406 3.134 3.134s-1.406 3.134-3.134 3.134c-1.737 0-3.134-1.406-3.134-3.134s1.397-3.134 3.134-3.134z"></path>
<path d="M12.191 11.628h5.175v2.381h0.072c0.725-1.366 2.481-2.803 5.116-2.803 5.466 0 6.481 3.597 6.481 8.281v9.525h-5.397v-8.45c0-2.019-0.031-4.613-2.803-4.613-2.813 0-3.234 2.2-3.234 4.462v8.6h-5.397l-0.012-17.384z"></path>
</svg>
