<svg version="1.1" xmlns="http://www.w3.org/2000/svg" width="32" height="32" viewBox="0 0 32 32">
<title>link_url_chain_hyperlink</title>
<path d="M18.171 19.935h-8.638c-0.369 0-0.667-0.298-0.667-0.667s0.298-0.667 0.667-0.667h8.638c3.145 0 5.702-2.631 5.702-5.867s-2.557-5.867-5.702-5.867h-10.547c-3.167 0-5.842 2.709-5.842 5.916 0 2.332 1.211 4.43 3.085 5.345 0.331 0.161 0.468 0.561 0.307 0.892-0.16 0.329-0.561 0.467-0.891 0.306-2.329-1.137-3.833-3.706-3.833-6.543 0-3.93 3.286-7.249 7.175-7.249h10.547c3.879 0 7.035 3.23 7.035 7.201 0 3.969-3.156 7.2-7.035 7.2z"></path>
<path d="M24.41 26.469h-10.548c-3.879 0-7.035-3.231-7.035-7.201s3.156-7.2 7.035-7.2h8.607c0.369 0 0.667 0.298 0.667 0.667s-0.298 0.667-0.667 0.667h-8.607c-3.144 0-5.702 2.632-5.702 5.867 0 3.236 2.558 5.867 5.702 5.867h10.548c3.163 0 5.835-2.652 5.835-5.793 0-2.328-1.217-4.344-3.177-5.262-0.333-0.156-0.478-0.553-0.322-0.886s0.556-0.477 0.887-0.321c2.434 1.139 3.945 3.617 3.945 6.469 0 3.863-3.283 7.126-7.168 7.126z"></path>
</svg>
