<!-- Generated by IcoMoon.io -->
<svg version="1.1" xmlns="http://www.w3.org/2000/svg" width="32" height="32" viewBox="0 0 32 32">
<title>list_checkbox_todo_done</title>
<path d="M13.438 6.25c-0.552 0-1 0.448-1 1s0.448 1 1 1h15.063c0.552 0 1-0.448 1-1s-0.448-1-1-1h-15.063zM13.438 15c-0.552 0-1 0.448-1 1s0.448 1 1 1h15.063c0.552 0 1-0.448 1-1s-0.448-1-1-1h-15.063zM12.438 24.75c0-0.552 0.448-1 1-1h15.063c0.552 0 1 0.448 1 1s-0.448 1-1 1h-15.063c-0.552 0-1-0.448-1-1zM3.438 21c-0.69 0-1.25 0.56-1.25 1.25v5c0 0.69 0.56 1.25 1.25 1.25h5c0.69 0 1.25-0.56 1.25-1.25v-5c0-0.69-0.56-1.25-1.25-1.25h-5zM3.688 27v-4.5h4.5v4.5h-4.5zM2.188 13.5c0-0.69 0.56-1.25 1.25-1.25h5c0.69 0 1.25 0.56 1.25 1.25v5c0 0.69-0.56 1.25-1.25 1.25h-5c-0.69 0-1.25-0.56-1.25-1.25v-5zM3.688 13.75v4.5h4.5v-4.5h-4.5z"></path>
<path d="M10.808 3.749c0.311 0.273 0.342 0.747 0.068 1.058l-5.162 5.875c-0.137 0.155-0.332 0.248-0.538 0.255s-0.407-0.072-0.554-0.218l-2.212-2.203c-0.294-0.292-0.295-0.767-0.002-1.061s0.767-0.295 1.061-0.002l1.647 1.64 4.636-5.275c0.273-0.311 0.747-0.342 1.058-0.068z"></path>
</svg>
