<svg version="1.1" xmlns="http://www.w3.org/2000/svg" width="32" height="32" viewBox="0 0 32 32">
<title>list_checkbox_todo_done</title>
<path d="M8.68 30.669h-6.667c-0.369 0-0.667-0.298-0.667-0.667v-6.668c0-0.369 0.298-0.667 0.667-0.667h6.667c0.369 0 0.667 0.298 0.667 0.667v6.668c0 0.368-0.298 0.667-0.667 0.667zM2.68 29.336h5.333v-5.335h-5.333v5.335z"></path>
<path d="M8.68 20.001h-6.667c-0.369 0-0.667-0.298-0.667-0.667v-6.667c0-0.369 0.298-0.667 0.667-0.667h6.667c0.369 0 0.667 0.298 0.667 0.667v6.667c0 0.368-0.298 0.667-0.667 0.667zM2.68 18.668h5.333v-5.334h-5.333v5.334z"></path>
<path d="M28.6 26.667h-15.908c-0.369 0-0.667-0.298-0.667-0.667s0.298-0.667 0.667-0.667h15.908c0.369 0 0.667 0.298 0.667 0.667s-0.298 0.667-0.667 0.667z"></path>
<path d="M28.6 15.999h-15.908c-0.369 0-0.667-0.298-0.667-0.667s0.298-0.667 0.667-0.667h15.908c0.369 0 0.667 0.298 0.667 0.667s-0.298 0.667-0.667 0.667z"></path>
<path d="M28.6 5.331h-15.908c-0.369 0-0.667-0.298-0.667-0.667s0.298-0.667 0.667-0.667h15.908c0.369 0 0.667 0.298 0.667 0.667s-0.298 0.667-0.667 0.667z"></path>
<path d="M4.264 9.333c-0.185 0-0.362-0.077-0.488-0.213l-2.251-2.421c-0.251-0.269-0.236-0.691 0.035-0.942 0.268-0.25 0.69-0.235 0.942 0.034l1.74 1.87 5.329-6.295c0.238-0.28 0.657-0.315 0.94-0.078 0.281 0.238 0.316 0.659 0.078 0.94l-5.814 6.868c-0.124 0.145-0.303 0.231-0.493 0.236-0.005 0-0.011 0-0.016 0z"></path>
</svg>
