<!-- Generated by IcoMoon.io -->
<svg version="1.1" xmlns="http://www.w3.org/2000/svg" width="32" height="32" viewBox="0 0 32 32">
<title>list_2</title>
<path d="M4.345 32c-0.003 0-0.007 0-0.011 0-0.552 0-1-0.448-1-1 0-0.004 0-0.008 0-0.012v0.001-27.484c0-0.003 0-0.006 0-0.009 0-0.552 0.448-1 1-1 0.004 0 0.008 0 0.011 0h4.637v-1.485c0-0.003 0-0.007 0-0.011 0-0.552 0.448-1 1-1 0.004 0 0.008 0 0.012 0h12.494c0.003 0 0.007 0 0.011 0 0.552 0 1 0.448 1 1 0 0.004 0 0.008 0 0.012v-0.001 1.485h4.155c0.003 0 0.007 0 0.011 0 0.552 0 1 0.448 1 1 0 0.004 0 0.008 0 0.012v-0.001 27.482c0 0.003 0 0.007 0 0.011 0 0.552-0.448 1-1 1-0.004 0-0.008 0-0.012 0h0.001zM5.356 29.978h21.288v-25.461h-3.144v1.864c0 0.003 0 0.007 0 0.011 0 0.552-0.448 1-1 1-0.004 0-0.008 0-0.012 0h-12.494c-0.003 0-0.007 0-0.011 0-0.552 0-1-0.448-1-1 0-0.004 0-0.008 0-0.012v0.001-1.864h-3.627zM11.008 5.37h10.47v-3.347h-10.47z"></path>
<path d="M8.722 20.090c-0.558 0-1.011-0.453-1.011-1.011s0.453-1.011 1.011-1.011v0h15.040c0.558 0 1.011 0.453 1.011 1.011s-0.453 1.011-1.011 1.011v0z"></path>
<path d="M8.722 25.129c-0.558 0-1.011-0.453-1.011-1.011s0.453-1.011 1.011-1.011v0h15.065c0.553 0.007 0.998 0.457 0.998 1.011 0 0.558-0.453 1.011-1.011 1.011-0.005 0-0.009 0-0.013 0h0.001z"></path>
<path d="M8.722 15.027c-0.003 0-0.007 0-0.011 0-0.552 0-1-0.448-1-1 0-0.004 0-0.008 0-0.012v0.001c0-0.558 0.453-1.011 1.011-1.012h15.040c0.008 0 0.017 0 0.025 0 0.559 0 1.012 0.453 1.012 1.012s-0.453 1.012-1.012 1.012c-0.009 0-0.018 0-0.027 0h0.001z"></path>
</svg>
