<!-- Generated by IcoMoon.io -->
<svg version="1.1" xmlns="http://www.w3.org/2000/svg" width="32" height="32" viewBox="0 0 32 32">
<title>list_checkbox_todo</title>
<path d="M3.438 3.5c-0.69 0-1.25 0.56-1.25 1.25v5c0 0.69 0.56 1.25 1.25 1.25h5c0.69 0 1.25-0.56 1.25-1.25v-5c0-0.69-0.56-1.25-1.25-1.25h-5zM3.688 9.5v-4.5h4.5v4.5h-4.5zM13.438 6.25c-0.552 0-1 0.448-1 1s0.448 1 1 1h15.063c0.552 0 1-0.448 1-1s-0.448-1-1-1h-15.063zM13.438 15c-0.552 0-1 0.448-1 1s0.448 1 1 1h15.063c0.552 0 1-0.448 1-1s-0.448-1-1-1h-15.063zM12.438 24.75c0-0.552 0.448-1 1-1h15.063c0.552 0 1 0.448 1 1s-0.448 1-1 1h-15.063c-0.552 0-1-0.448-1-1zM3.438 21c-0.69 0-1.25 0.56-1.25 1.25v5c0 0.69 0.56 1.25 1.25 1.25h5c0.69 0 1.25-0.56 1.25-1.25v-5c0-0.69-0.56-1.25-1.25-1.25h-5zM3.688 27v-4.5h4.5v4.5h-4.5zM2.188 13.5c0-0.69 0.56-1.25 1.25-1.25h5c0.69 0 1.25 0.56 1.25 1.25v5c0 0.69-0.56 1.25-1.25 1.25h-5c-0.69 0-1.25-0.56-1.25-1.25v-5zM3.688 13.75v4.5h4.5v-4.5h-4.5z"></path>
</svg>
