<!-- Generated by IcoMoon.io -->
<svg version="1.1" xmlns="http://www.w3.org/2000/svg" width="32" height="32" viewBox="0 0 32 32">
<title>list</title>
<path d="M6.413 31.981c-2.327-0.004-4.212-1.889-4.216-4.216v-23.549c0.004-1.164 0.475-2.216 1.236-2.981v0c0.759-0.763 1.81-1.236 2.971-1.236 0.003 0 0.007 0 0.010 0h19.267c0.001 0 0.003 0 0.004 0 2.327 0 4.213 1.886 4.213 4.213 0 0.001 0 0.002 0 0.003v0 23.548c-0.004 2.327-1.89 4.212-4.217 4.216v0zM6.413 2.012c-1.217 0.001-2.203 0.987-2.204 2.204v23.552c0.001 1.217 0.987 2.203 2.204 2.205h19.271c1.217-0.001 2.203-0.988 2.205-2.205v-0.064h-0.004v-23.488c-0.001-1.217-0.988-2.203-2.205-2.204v0z"></path>
<path d="M23.070 21.411h-14.042c-0.556 0-1.006 0.45-1.006 1.006s0.45 1.006 1.006 1.006h14.045c0.555-0.001 1.004-0.451 1.004-1.006s-0.45-1.006-1.006-1.006c-0.001 0-0.001 0-0.002 0v0z"></path>
<path d="M9.028 10.577h14.045c0.555-0.001 1.004-0.451 1.004-1.006s-0.45-1.006-1.006-1.006c-0.001 0-0.001 0-0.002 0h-14.041c-0.556 0-1.006 0.45-1.006 1.006s0.45 1.006 1.006 1.006v0z"></path>
<path d="M23.070 14.986h-14.042c-0.556 0-1.006 0.45-1.006 1.006s0.45 1.006 1.006 1.006h14.045c0.555-0.001 1.004-0.451 1.004-1.006s-0.45-1.006-1.006-1.006c-0.001 0-0.001 0-0.002 0v0z"></path>
</svg>
