<svg version="1.1" xmlns="http://www.w3.org/2000/svg" width="32" height="32" viewBox="0 0 32 32">
<title>list_checkbox_todo</title>
<path d="M8.673 30.669h-6.667c-0.369 0-0.667-0.298-0.667-0.667v-6.668c0-0.369 0.298-0.667 0.667-0.667h6.667c0.369 0 0.667 0.298 0.667 0.667v6.668c0 0.368-0.298 0.667-0.667 0.667zM2.673 29.336h5.333v-5.335h-5.333v5.335z"></path>
<path d="M8.673 20.001h-6.667c-0.369 0-0.667-0.298-0.667-0.667v-6.667c0-0.369 0.298-0.667 0.667-0.667h6.667c0.369 0 0.667 0.298 0.667 0.667v6.667c0 0.368-0.298 0.667-0.667 0.667zM2.673 18.668h5.333v-5.334h-5.333v5.334z"></path>
<path d="M8.673 9.333h-6.667c-0.369 0-0.667-0.298-0.667-0.667v-6.667c0-0.369 0.298-0.667 0.667-0.667h6.667c0.369 0 0.667 0.298 0.667 0.667v6.667c0 0.369-0.298 0.667-0.667 0.667zM2.673 8h5.333v-5.333h-5.333v5.333z"></path>
<path d="M28.594 26.667h-15.908c-0.369 0-0.667-0.298-0.667-0.667s0.298-0.667 0.667-0.667h15.908c0.369 0 0.667 0.298 0.667 0.667s-0.298 0.667-0.667 0.667z"></path>
<path d="M28.594 15.999h-15.908c-0.369 0-0.667-0.298-0.667-0.667s0.298-0.667 0.667-0.667h15.908c0.369 0 0.667 0.298 0.667 0.667s-0.298 0.667-0.667 0.667z"></path>
<path d="M28.594 5.331h-15.908c-0.369 0-0.667-0.298-0.667-0.667s0.298-0.667 0.667-0.667h15.908c0.369 0 0.667 0.298 0.667 0.667s-0.298 0.667-0.667 0.667z"></path>
</svg>
