<svg version="1.1" xmlns="http://www.w3.org/2000/svg" width="32" height="32" viewBox="0 0 32 32">
<title>list_bullets</title>
<path d="M27.346 6.68h-5.333c-0.369 0-0.667-0.298-0.667-0.667v-5.333c0-0.369 0.298-0.667 0.667-0.667s0.667 0.298 0.667 0.667v4.667h4.667c0.369 0 0.667 0.298 0.667 0.667s-0.298 0.667-0.667 0.667z"></path>
<path d="M26.29 32.013h-20.561c-0.946 0-1.716-0.777-1.716-1.733v-28.526c0-0.96 0.77-1.741 1.716-1.741h16.284c0.557 0 0.854 0.292 1.070 0.505l4.417 4.358c0.238 0.236 0.513 0.579 0.513 1.137v24.267c0 0.956-0.772 1.733-1.723 1.733zM22.004 1.337l-16.275 0.009c-0.208 0-0.383 0.187-0.383 0.408v28.526c0 0.216 0.175 0.4 0.383 0.4h20.561c0.211 0 0.389-0.184 0.389-0.4v-24.267c0-0.047 0-0.072-0.117-0.187l-4.417-4.358c-0.037-0.037-0.115-0.114-0.142-0.13z"></path>
<path d="M23.279 13.374h-9.152c-0.369 0-0.667-0.298-0.667-0.667s0.298-0.667 0.667-0.667h9.152c0.369 0 0.667 0.298 0.667 0.667s-0.298 0.667-0.667 0.667z"></path>
<path d="M11.264 14.695h-2.576c-0.369 0-0.667-0.298-0.667-0.667v-2.73c0-0.369 0.298-0.667 0.667-0.667h2.575c0.369 0 0.667 0.298 0.667 0.667v2.73c0 0.369-0.298 0.667-0.667 0.667zM9.355 13.361h1.242v-1.397h-1.242v1.397z"></path>
<path d="M23.279 18.707h-9.152c-0.369 0-0.667-0.298-0.667-0.667s0.298-0.667 0.667-0.667h9.152c0.369 0 0.667 0.298 0.667 0.667s-0.298 0.667-0.667 0.667z"></path>
<path d="M11.264 20.029h-2.576c-0.369 0-0.667-0.298-0.667-0.667v-2.731c0-0.369 0.298-0.667 0.667-0.667h2.575c0.369 0 0.667 0.298 0.667 0.667v2.731c0 0.369-0.298 0.667-0.667 0.667zM9.355 18.695h1.242v-1.397h-1.242v1.397z"></path>
<path d="M23.279 24.042h-9.152c-0.369 0-0.667-0.298-0.667-0.667s0.298-0.667 0.667-0.667h9.152c0.369 0 0.667 0.298 0.667 0.667s-0.298 0.667-0.667 0.667z"></path>
<path d="M11.264 25.362h-2.576c-0.369 0-0.667-0.298-0.667-0.667v-2.729c0-0.369 0.298-0.667 0.667-0.667h2.575c0.369 0 0.667 0.298 0.667 0.667v2.729c0 0.369-0.298 0.667-0.667 0.667zM9.355 24.029h1.242v-1.396h-1.242v1.396z"></path>
</svg>
