<!-- Generated by IcoMoon.io -->
<svg version="1.1" xmlns="http://www.w3.org/2000/svg" width="32" height="32" viewBox="0 0 32 32">
<title>literal_fieldType</title>
<path d="M8.766 19.291h-4.287l-0.734 2.081h-1.744l3.656-10.184h1.944l3.666 10.238h-1.766l-0.734-2.134zM8.287 17.922l-1.662-4.75-1.672 4.753h3.334z"></path>
<path d="M15.7 13.512c0.512-0.253 1.078-0.384 1.653-0.372 0.684-0.009 1.356 0.172 1.947 0.519 0.584 0.344 1.053 0.853 1.356 1.459 0.347 0.672 0.525 1.416 0.509 2.172 0.012 0.759-0.163 1.509-0.509 2.181-0.938 1.809-3.144 2.544-4.978 1.663-0.447-0.219-0.838-0.538-1.131-0.938v1.131h-1.697v-10.841h1.672v3.963c0.316-0.4 0.719-0.725 1.178-0.938zM19.094 15.841c-0.203-0.391-0.519-0.713-0.906-0.928-1.134-0.669-2.6-0.291-3.269 0.847-0.022 0.034-0.037 0.069-0.056 0.106-0.244 0.444-0.366 0.941-0.35 1.447-0.012 0.512 0.106 1.019 0.35 1.469 0.206 0.397 0.519 0.725 0.906 0.95 0.366 0.206 0.781 0.316 1.2 0.316 0.45 0.009 0.891-0.103 1.278-0.328 0.384-0.231 0.697-0.566 0.903-0.962 0.244-0.45 0.366-0.959 0.35-1.469 0.003-0.509-0.134-1.009-0.397-1.447h-0.009z"></path>
<path d="M22.769 15.119c0.316-0.613 0.806-1.119 1.403-1.459 1.431-0.766 3.163-0.7 4.528 0.178 0.659 0.484 1.122 1.191 1.3 1.994h-1.809c-0.131-0.378-0.375-0.706-0.703-0.938-0.363-0.234-0.791-0.356-1.222-0.341-0.628-0.028-1.238 0.238-1.641 0.725-0.441 0.584-0.656 1.306-0.613 2.034-0.047 0.734 0.169 1.459 0.613 2.050 0.4 0.488 1.009 0.759 1.641 0.734 0.863 0.075 1.659-0.456 1.922-1.278h1.809c-0.2 0.788-0.669 1.484-1.325 1.969-0.703 0.497-1.55 0.753-2.413 0.725-0.722 0.009-1.431-0.169-2.059-0.519-0.609-0.344-1.106-0.853-1.438-1.469-0.359-0.7-0.534-1.475-0.509-2.262 0.003-0.753 0.175-1.484 0.516-2.144z"></path>
</svg>
