<svg version="1.1" xmlns="http://www.w3.org/2000/svg" width="32" height="32" viewBox="0 0 32 32">
<title>lookup_set</title>
<path d="M18.544 21.116h4.144v0.606h-4.144v-0.606z"></path>
<path d="M9.503 4.119h8.216v-0.828h-8.216z"></path>
<path d="M23.475 3.291h0.016z"></path>
<path d="M23.488 3.291h0.825v0.831h-0.825v-0.831z"></path>
<path d="M23.475 3.291h0.016v0.831h-0.016v-0.831z"></path>
<path d="M8.875 3.291h0.628v0.828h-0.628v-0.828z"></path>
<path d="M23.663 26.887l-2.309 2.366v-6.569h-1.472v6.563l-2.337-2.278-0.984 1.016 4.109 3.988 4.003-4.1z"></path>
<path d="M24.316 3.288v0z"></path>
<path d="M25.447 3.291h-0.247l-0.884-0.003v0.831h1.137c1.178 0 2.066 0.831 2.066 1.934v4.5h-4.028v-6.434h-0.016v-0.822h0.012v-0.009h0.003v-1.066h-0.003v-0.95h-5.769v2.028h0.003v7.256h-13.222v-4.5c0-1.156 0.766-1.934 1.906-1.934h2.469v-0.828h-2.472c-1.362 0-2.397 0.859-2.663 2.116l-0.081 18.197v3.916l0.013 0.447c0.019 1.603 1.159 2.762 2.728 2.762h9.978v-0.828h-2.8v-3.919h4.969v-0.828h-0.003v-2.453h4.144v3.281h4.825v1.941c0 1.128-0.887 1.975-2.066 1.975h-0.725v0.831h0.722c1.622 0 2.894-1.231 2.894-2.803v-21.875c0.003-1.575-1.241-2.763-2.891-2.763zM7.778 29.9h-1.375c-1.122 0-1.906-0.813-1.906-1.975v-1.941h3.281v3.916zM7.781 24.328l-0.003 0.828h-3.278v-4.041h3.281v3.212zM7.781 20.288h-3.281v-4.038h3.281v4.038zM7.781 15.422h-3.281v-4.041h3.281v4.041zM12.75 29.9h-4.141v-3.916h4.141v3.916zM12.75 25.156h-4.141v-4.041h4.141v4.041zM12.75 20.291l-4.144-0.003v-4.037h4.144v4.041zM12.75 15.422h-4.144v-4.041h4.144v4.041zM13.578 11.381h4.141v4.041h-4.141v-4.041zM13.578 16.25h4.141v4.041l-4.141-0.003v-4.037zM17.722 25.156h-4.144v-4.041h4.141v1.587h0.003v2.453zM22.347 20.291h-3.347v-2.453h3.347v2.453zM22.347 15.422h-3.347v-2.425h3.347v2.425zM22.347 10.553h-3.347v-2.397h3.347v2.397zM22.347 4.119v2.009h-3.347v-2.813h3.347v0.803zM23.488 11.381h4.025v4.041h-4.025v-4.041zM27.516 25.156h-4.028v-4.041h4.028v4.041zM27.516 20.291h-4.028v-4.041h4.028v4.041z"></path>
</svg>
