<svg version="1.1" xmlns="http://www.w3.org/2000/svg" width="32" height="32" viewBox="0 0 32 32">
<title>lookup_upload</title>
<path d="M22.231 19.144c-0.105-0.104-0.284-0.212-0.509-0.271-0.069-0.033-0.145-0.056-0.228-0.056h-13.299c-0.613 0-1.112 0.497-1.112 1.107v11c0 0.608 0.499 1.104 1.112 1.104h15.609c0.616 0 1.117-0.496 1.117-1.104v-8.68c0-0.373-0.203-0.579-0.324-0.701l-2.367-2.399zM23.312 21.709h-1.284v-1.267l1.284 1.267zM23.804 30.96l-15.655-0.037 0.045-11.039 12.765 0.011v2.348c0 0.295 0.24 0.533 0.533 0.533h2.36v8.145c0 0.019-0.024 0.039-0.049 0.039z"></path>
<path d="M20.225 21.811h-8.608c-0.24 0-0.433 0.195-0.433 0.433v7.108c0 0.24 0.195 0.433 0.433 0.433h8.608c0.24 0 0.433-0.195 0.433-0.433v-7.108c0-0.24-0.193-0.433-0.433-0.433zM12.051 24.901h1.285v1.828h-1.285v-1.828zM14.203 24.901h1.284v1.828h-1.284v-1.828zM16.355 24.901h1.285v1.828h-1.285v-1.828zM18.507 24.901h1.285v1.828h-1.285v-1.828zM19.792 24.035h-1.285v-1.357h1.285v1.357zM17.64 24.035h-1.285v-1.357h1.285v1.357zM15.488 24.035h-1.284v-1.357h1.284v1.357zM12.051 22.677h1.285v1.357h-1.285v-1.357zM12.051 27.596h1.285v1.321h-1.285v-1.321zM14.203 27.596h1.284v1.321h-1.284v-1.321zM16.355 27.596h1.285v1.321h-1.285v-1.321zM19.792 28.919h-1.285v-1.321h1.285v1.321z"></path>
<path d="M15.577 18.312c0.368 0 0.667-0.299 0.667-0.667v-7.688l2.012 2.084c0.131 0.136 0.305 0.204 0.479 0.204 0.167 0 0.333-0.061 0.464-0.187 0.264-0.256 0.272-0.677 0.016-0.943l-3.157-3.272c-0.001-0.001-0.004-0.001-0.004-0.003-0.121-0.124-0.288-0.2-0.475-0.2s-0.355 0.077-0.475 0.2c-0.001 0.001-0.004 0.001-0.004 0.003l-3.161 3.272c-0.256 0.264-0.248 0.687 0.017 0.943s0.687 0.248 0.943-0.017l2.012-2.084v7.688c0 0.368 0.299 0.667 0.667 0.667z"></path>
<path d="M26.913 6.348c-1.065-0.967-2.5-1.485-3.943-1.475-0.815-1.957-2.848-3.636-5.843-3.383-1.951-1.524-4.452-1.931-6.752-1.083-2.375 0.876-4.073 2.903-4.589 5.456-1.983 1.349-2.832 3.477-2.224 5.619 0.651 2.287 2.713 3.823 5.133 3.823h3.375c0.368 0 0.667-0.299 0.667-0.667s-0.299-0.667-0.667-0.667h-3.375c-2.1 0-3.447-1.433-3.851-2.853-0.471-1.659 0.237-3.26 1.896-4.285 0.164-0.101 0.276-0.269 0.307-0.459 0.363-2.212 1.78-3.975 3.789-4.716 1.932-0.713 4.045-0.327 5.655 1.032 0.141 0.12 0.329 0.173 0.512 0.152 2.817-0.344 4.391 1.352 4.869 2.916 0.093 0.303 0.377 0.496 0.703 0.468 1.276-0.123 2.528 0.28 3.439 1.108 0.815 0.739 1.281 1.741 1.281 2.752 0 2.105-1.935 3.884-4.227 3.884h-3.988c-0.368 0-0.667 0.299-0.667 0.667s0.299 0.667 0.667 0.667h3.988c3.015 0 5.56-2.389 5.56-5.217 0.001-1.385-0.625-2.748-1.716-3.739z"></path>
</svg>
