<!-- Generator: Adobe Illustrator 28.1.0, SVG Export Plug-In . SVG Version: 6.00 Build 0)  -->
<svg version="1.1" xmlns="http://www.w3.org/2000/svg" viewBox="0 0 32 32" width="32" height="32">
	<title>machine_learning_models</title>
	<desc>machine, learning, models, cloud, brain, diagram</desc>
<path d="M-90.2,46c-0.6,0-1.1-0.4-1.2-1l-3.1-20.2c-0.1-0.3,0-0.7,0.3-0.9c0.2-0.3,0.5-0.4,0.9-0.4h27.6
	c0.3,0,0.7,0.1,0.9,0.4c0.2,0.3,0.3,0.6,0.3,0.9L-67.6,45c-0.1,0.6-0.6,1-1.2,1H-90.2z M-89.2,43.7h19.5l2.7-17.9h-25L-89.2,43.7
	L-89.2,43.7z M-92.9,22.1l-0.2-1c-0.1-0.3,0-0.7,0.3-0.9c0.2-0.3,0.5-0.4,0.9-0.4h24c0.3,0,0.7,0.1,0.9,0.4c0.2,0.3,0.3,0.6,0.3,0.9
	l-0.2,1H-92.9z M-90.7,18.3l-0.2-1c-0.1-0.3,0-0.7,0.3-0.9c0.2-0.3,0.5-0.4,0.9-0.4h20.3c0.3,0,0.7,0.1,0.9,0.4
	c0.2,0.3,0.3,0.6,0.3,0.9l-0.2,1H-90.7z"/>
<path d="M-23.3,44.8c-1.5,0-2.7,0.9-3.3,2.2h-2.9l-2-6c-0.2-0.4-0.7-0.7-1.1-0.7s-0.9,0.4-1.1,0.7L-37,52.1l-3.6-22.2
	c0-0.5-0.4-0.9-0.9-0.9s-1.1,0.4-1.3,0.9l-4.4,17.3h-3.6c-0.7,0-1.1,0.4-1.1,1.1c0,0.7,0.4,1.1,1.1,1.1h4.5c0.5,0,1.1-0.4,1.1-0.9
	l3.3-12.9l3.6,22c0.2,0.5,0.5,0.9,1.1,0.9c0,0,0,0,0.2,0c0.4,0,0.9-0.4,1.1-0.7l3.5-12.4l1.1,3.3c0.2,0.4,0.5,0.7,1.1,0.7h3.6
	c0.4,1.5,1.6,2.2,3.3,2.2c2,0,3.5-1.5,3.5-3.5C-19.8,46.1-21.5,44.8-23.3,44.8z M-23.3,49.3c-0.7,0-1.1-0.4-1.1-1.1
	c0-0.7,0.4-1.1,1.1-1.1s1.1,0.4,1.1,1.1C-22.2,49-22.7,49.3-23.3,49.3z"/>
<g>
	<g>
		<path d="M48,81.3c-0.5,0-1.1-0.2-1.6-0.5c-0.5-0.3-0.8-0.6-1.1-1.1s-0.5-1-0.5-1.6c0-0.5,0.2-1.1,0.3-1.6l0,0l-1.9-2.1H43
			c-0.3,0.3-1,0.5-1.4,0.5c-0.5,0-0.8,0-1.3-0.2c-0.3-0.2-0.8-0.3-1-0.6c-0.3-0.3-0.5-0.6-0.6-1c-0.2-0.6-0.3-1-0.3-1.4
			c0-0.8,0.3-1.6,1-2.2c0.7-0.6,1.4-1,2.2-1c0.5,0,1.1,0.2,1.6,0.3h0.2l1.9-1.9v-0.2c-0.3-0.3-0.5-1-0.5-1.4c0-0.5,0.2-0.8,0.3-1.3
			c0.2-0.3,0.3-0.6,0.6-1c0.3-0.3,0.6-0.5,1-0.6c0.5-0.2,0.8-0.3,1.3-0.3c0.8,0,1.6,0.3,2.2,1c0.6,0.6,1,1.4,1,2.2
			c0,0.5,0,0.8-0.2,1.3c-0.2,0.3-0.3,0.8-0.6,1c-0.3,0.3-0.6,0.5-1,0.6c-0.6,0.2-1,0.3-1.4,0.3c-0.5,0-1.1-0.2-1.6-0.3h-0.2
			l-1.9,1.9v0.2c0.3,0.3,0.5,1,0.5,1.4c0,0.5-0.2,1.1-0.3,1.6v0.2l1.9,1.9h0.2c0.5-0.3,1-0.3,1.4-0.3c0.5,0,1.1,0.2,1.4,0.3h0.2
			l8.5-8.5v-0.2c-0.3-0.5-0.3-1-0.3-1.6c0-0.5,0.2-1.1,0.3-1.4v-0.2l-8.5-8.3l0,0c-0.5,0.3-1,0.3-1.4,0.3s-1.2-0.1-1.5-0.3h-0.3
			l-8.5,8.5v0.2c0.3,0.3,0.5,1,0.5,1.4c0,0.5,0,0.8-0.2,1.3c-0.2,0.3-0.3,0.8-0.6,1c-0.3,0.3-0.6,0.5-1,0.6c-0.6,0.2-1,0.3-1.4,0.3
			c-0.4,0-0.8,0-1.3-0.2c-0.3-0.2-0.8-0.3-1-0.6c-0.3-0.3-0.5-0.6-0.6-1c-0.1-0.6-0.3-0.9-0.3-1.4s0-0.8,0.2-1.3
			c0.2-0.3,0.5-0.6,0.8-1c0.3-0.3,0.6-0.5,1-0.6c0.5-0.2,0.8-0.3,1.3-0.3s1.1,0.2,1.6,0.3H37l8.3-8.3v-0.2c-0.3-0.5-0.5-1-0.5-1.4
			c0-0.4,0.2-1.1,0.5-1.6s0.6-1,1.1-1.1c0.5-0.3,1.1-0.5,1.6-0.5s0.8,0.2,1.3,0.3c0.3,0.2,0.8,0.3,1,0.6c0.5,0.5,0.8,1.1,1,1.8
			c0.2,0.6,0,1.4-0.3,1.9v0.2l8.3,8.5h0.2c0.5-0.3,1-0.5,1.4-0.5c0.5,0,0.8,0.2,1.3,0.2s0.8,0.3,1,0.6c0.6,0.6,1,1.4,1,2.2
			s-0.2,1.6-0.6,2.1c-0.5,0.6-1.1,1.1-1.9,1.3s-1.6,0-2.2-0.3H59l-8.3,8.3v0.2c0.3,0.6,0.5,1.3,0.3,1.9c-0.2,0.6-0.5,1.3-1,1.8
			c-0.3,0.3-0.6,0.5-1,0.6C48.8,81.1,48.5,81.3,48,81.3z M48,76.5c-0.3,0-0.5,0-0.8,0.2c-0.3,0.2-0.5,0.3-0.6,0.5
			c0,0.3-0.2,0.6-0.2,0.8c0,0.3,0,0.5,0.2,0.8c0.2,0.3,0.3,0.5,0.5,0.6c0.2,0.2,0.3,0.3,0.6,0.3s0.5,0,0.8,0s0.5-0.2,0.6-0.3
			c0.3-0.3,0.5-0.6,0.5-1.1s-0.2-0.8-0.5-1.1c-0.2-0.2-0.3-0.3-0.5-0.3C48.5,76.5,48.2,76.5,48,76.5z M41.6,70.1
			c-0.2,0-0.5,0-0.6,0.2c-0.2,0-0.3,0.2-0.5,0.3c-0.2,0.2-0.3,0.3-0.3,0.5C40,71.2,40,71.5,40,71.7c0,0.2,0,0.5,0.2,0.6
			c0,0.2,0.2,0.3,0.3,0.5c0.2,0.2,0.3,0.3,0.5,0.3c0.1,0.2,0.4,0.2,0.6,0.2c0.5,0,0.8-0.2,1.1-0.5c0.2-0.2,0.3-0.3,0.3-0.5
			c0.2-0.2,0.2-0.5,0.2-0.6c0-0.2,0-0.5-0.2-0.6c0-0.2-0.2-0.3-0.3-0.5c-0.2-0.2-0.3-0.3-0.5-0.3C41.9,70.1,41.8,70.1,41.6,70.1z
			 M60.8,63.7c-0.5,0-0.8,0.2-1.1,0.5c-0.3,0.3-0.5,0.6-0.5,1.1s0.2,0.8,0.5,1.1c0.3,0.3,0.6,0.5,1.1,0.3c0.5,0,0.8-0.2,1.1-0.5
			c0.3-0.3,0.5-0.6,0.5-1.1s-0.2-0.8-0.3-1.1C61.6,63.9,61.3,63.7,60.8,63.7z M48,63.7c-0.5,0-0.8,0.2-1.1,0.5
			c-0.2,0.2-0.3,0.5-0.5,0.8c0,0.3,0,0.6,0.2,1c0.2,0.3,0.3,0.5,0.6,0.6c0.2,0.2,0.5,0.3,0.8,0.3c0.5,0,0.8-0.2,1.1-0.5
			c0.3-0.3,0.5-0.6,0.5-1.1s-0.2-0.8-0.5-1.1C48.8,63.9,48.5,63.7,48,63.7z M35.2,63.7c-0.5,0-0.8,0.2-1.1,0.5
			c-0.3,0.3-0.5,0.6-0.5,1.1s0.2,0.8,0.5,1.1c0.3,0.3,0.6,0.5,1.1,0.5c0.2,0,0.5,0,0.6-0.2c0.2,0,0.3-0.2,0.5-0.3s0.3-0.3,0.3-0.5
			c0-0.2,0.2-0.5,0.2-0.6c0-0.2,0-0.5-0.2-0.6c-0.2-0.1-0.1-0.4-0.3-0.5c-0.2-0.2-0.3-0.3-0.5-0.3C35.7,63.7,35.4,63.7,35.2,63.7z
			 M48,50.9c-0.2,0-0.5,0-0.6,0.2c-0.2,0-0.3,0.2-0.5,0.3c-0.2,0.2-0.3,0.5-0.5,0.8c0,0.3,0,0.6,0.2,1c0.2,0.4,0.3,0.5,0.6,0.6
			c0.2,0.2,0.5,0.3,0.8,0.3s0.6-0.2,0.8-0.3c0.3-0.2,0.5-0.5,0.6-0.6c0.2-0.3,0.2-0.6,0.2-1c0-0.4-0.2-0.6-0.5-0.8
			c-0.2-0.2-0.3-0.3-0.5-0.3C48.5,50.9,48.2,50.9,48,50.9z"/>
	</g>
</g>
<path d="M9.7,1.9c1.7,0,3.3,0.7,4.5,1.9c0.5,0.5,0.8,1.2,0.8,2v20.8c0,0.9-0.5,1.8-1.2,2.3c-1.2,0.8-2.7,1.2-4.1,1.2
	c-0.3,0-0.7,0-1-0.1c-2.2-0.3-4.1-1.5-5.3-3.4c-1.2-1.8-1.5-4.1-0.9-6.2h0c0,0,0,0-0.1-0.1l0,0C0.9,19,0,17,0,14.9
	c0-2.5,1.2-4.8,3.3-6.2c0-0.1,0-0.2,0-0.4C3.3,4.8,6.2,1.9,9.7,1.9z M26.5,4.7c0.5-1.3,1.8-2.1,3.1-1.8C31,3.1,32,4.3,32,5.7
	c0,1.4-1,2.6-2.3,2.8c-1.4,0.2-2.7-0.5-3.1-1.8h-2.4l-1.6,4.1c-0.1,0.4-0.5,0.6-0.9,0.6h-1.9v3.8h6.8c0.5-1.3,1.8-2.1,3.1-1.8
	C31,13.5,32,14.6,32,16c0,1.4-1,2.5-2.3,2.8c-1.4,0.2-2.7-0.5-3.1-1.8h-6.8v3.8h1.9c0.4,0,0.7,0.2,0.9,0.6h0l1.6,4.1h2.4
	c0.5-1.3,1.8-2.1,3.1-1.8C31,23.8,32,25,32,26.3c0,1.4-1,2.5-2.3,2.8c-1.4,0.2-2.7-0.5-3.1-1.8h-3c-0.4,0-0.7-0.2-0.9-0.6v0L21,22.6
	h-1.2v2.8c0,0.3-0.1,0.5-0.3,0.7c-0.2,0.2-0.4,0.3-0.7,0.3h-0.9c-0.5,0-0.9-0.4-0.9-0.9c0-0.5,0.4-0.9,0.9-0.9V7.5
	c-0.5,0-0.9-0.4-0.9-0.9c0-0.5,0.4-0.9,0.9-0.9h0.9c0.2,0,0.5,0.1,0.7,0.3c0.2,0.2,0.3,0.4,0.3,0.7v2.8H21l1.6-4.1
	c0.1-0.4,0.5-0.6,0.9-0.6H26.5z M9.7,3.8c-2.5,0-4.5,2-4.5,4.5c0,0.2,0,0.5,0.1,0.7v0.1c0.2,1.1,0.8,2.1,1.7,2.8
	c0.4,0.3,0.5,0.9,0.2,1.3c-0.3,0.4-0.9,0.5-1.3,0.2c-0.9-0.7-1.6-1.6-2-2.7c-1.2,1.1-1.9,2.6-1.9,4.2c0,1.5,0.6,2.9,1.6,3.9h2
	c2.3,0,4.2,1.9,4.2,4.2c0,0.5-0.4,0.9-0.9,0.9c-0.5,0-0.9-0.4-0.9-0.9c0-0.6-0.2-1.2-0.7-1.7c-0.4-0.4-1-0.7-1.7-0.7H4.4
	C3.6,23,4.3,25.5,6.2,27c1.9,1.5,4.5,1.6,6.6,0.3c0.2-0.2,0.4-0.5,0.4-0.8V12.2h-1.6c-1.6,0-2.8-1.3-2.8-2.8V9.1
	c0-0.5,0.4-0.9,0.9-0.9c0.5,0,0.9,0.4,0.9,0.9v0.3c0,0.5,0.4,0.9,0.9,0.9h1.6V5.8c0-0.2-0.1-0.5-0.3-0.7C12.1,4.2,10.9,3.8,9.7,3.8z
	 M29.2,25.4c-0.5,0-0.9,0.4-0.9,0.9c0,0.4,0.2,0.7,0.6,0.9c0.4,0.1,0.8,0.1,1-0.2c0.3-0.3,0.3-0.7,0.2-1
	C29.9,25.6,29.5,25.4,29.2,25.4z M29.8,15.3c-0.3-0.3-0.7-0.3-1-0.2c-0.4,0.1-0.6,0.5-0.6,0.9c0,0.5,0.4,0.9,0.9,0.9
	c0.4,0,0.7-0.2,0.9-0.6C30.2,16,30.1,15.6,29.8,15.3z M29.2,4.7c-0.5,0-0.9,0.4-0.9,0.9c0,0.4,0.2,0.7,0.6,0.9
	c0.4,0.1,0.8,0.1,1-0.2c0.3-0.3,0.3-0.7,0.2-1C29.9,4.9,29.5,4.7,29.2,4.7z"/>
</svg>
