<!-- Generated by IcoMoon.io -->
<svg version="1.1" xmlns="http://www.w3.org/2000/svg" width="32" height="32" viewBox="0 0 32 32">
<title>magic_wand</title>
<path d="M29.887 15.078h-6.291c-0.525 0.059-0.997-0.322-1.056-0.847s0.322-0.997 0.847-1.056c0.069-0.006 0.141-0.006 0.212 0h6.291c0.525-0.059 0.997 0.322 1.056 0.847s-0.322 0.997-0.847 1.056c-0.072 0.006-0.144 0.006-0.212 0z"></path>
<path d="M12.137 15.078h-6.303c-0.525 0.059-0.997-0.322-1.056-0.847s0.322-0.997 0.847-1.056c0.069-0.006 0.141-0.006 0.213 0h6.303c0.525 0.059 0.903 0.531 0.847 1.056-0.056 0.447-0.406 0.797-0.85 0.847z"></path>
<path d="M27.041 6.303l-4.447 4.444c-0.375 0.375-0.978 0.375-1.353 0 0 0 0 0 0 0-0.372-0.369-0.372-0.966-0.006-1.338 0.003-0.003 0.003-0.003 0.006-0.006l4.447-4.456c0.375-0.375 0.981-0.375 1.353 0s0.372 0.981 0 1.356z"></path>
<path d="M14.022 19.319l-11.338 11.341c-0.375 0.375-0.978 0.375-1.353 0 0 0 0 0 0 0-0.372-0.369-0.372-0.966-0.006-1.337 0.003-0.003 0.003-0.003 0.006-0.006l11.809-11.809c0.369-0.372 0.966-0.372 1.338-0.006 0.003 0.003 0.003 0.003 0.006 0.006 0.472 0.5 0.141 1.063 0.141 1.063s-0.475 0.622-0.603 0.75z"></path>
<path d="M10.034 4.947l4.447 4.459c0.372 0.372 0.372 0.972 0 1.341-0.372 0.372-0.972 0.372-1.341 0l-4.459-4.444c-0.375-0.375-0.375-0.981 0-1.353 0.375-0.375 0.981-0.375 1.353-0.003z"></path>
<path d="M22.594 17.506l4.447 4.459c0.375 0.375 0.375 0.981 0 1.353-0.375 0.375-0.981 0.375-1.353 0v0l-4.447-4.447c-0.375-0.375-0.375-0.981 0-1.353s0.981-0.375 1.353 0v-0.012z"></path>
<path d="M18.813 2.125v6.303c-0.059 0.525-0.531 0.903-1.056 0.847-0.444-0.050-0.797-0.4-0.847-0.847v-6.303c-0.059-0.525 0.322-0.997 0.847-1.056s0.997 0.322 1.056 0.847c0.006 0.066 0.006 0.137 0 0.209z"></path>
<path d="M18.813 19.863v6.291c0.059 0.525-0.322 0.997-0.847 1.056s-0.997-0.322-1.056-0.847c-0.006-0.069-0.006-0.141 0-0.212v-6.287c-0.059-0.525 0.322-0.997 0.847-1.056s0.997 0.322 1.056 0.847c0.006 0.069 0.006 0.141 0 0.209z"></path>
</svg>
