<!-- Generated by IcoMoon.io -->
<svg version="1.1" xmlns="http://www.w3.org/2000/svg" width="32" height="32" viewBox="0 0 32 32">
<title>magnet</title>
<path d="M20 2c-2.7 0-5.2 1-7.1 2.9v0l-7 7.1c-0.6 0.6-0.9 1.3-0.9 2.1s0.3 1.6 0.9 2.1l1.4 1.4c0.6 0.6 1.3 0.9 2.1 0.9s1.6-0.3 2.1-0.9l7.1-7.1c0.4-0.3 0.9-0.5 1.4-0.5 1.1 0 2 0.9 2 2 0 0.5-0.2 1-0.6 1.4v0l-7.1 7.1c-0.6 0.6-0.9 1.3-0.9 2.1s0.3 1.6 0.9 2.1l1.4 1.4c0.6 0.6 1.3 0.9 2.1 0.9s1.6-0.3 2.1-0.9l7.1-7.1c2-1.8 3-4.3 3-7 0-5.5-4.5-10-10-10zM10.1 16.2c-0.4 0.4-1 0.4-1.4 0l-1.4-1.4c-0.2-0.2-0.3-0.4-0.3-0.7s0.1-0.5 0.3-0.7l1.4-1.4 2.8 2.8-1.4 1.4zM18.6 24.7c-0.4 0.4-1 0.4-1.4 0l-1.4-1.4c-0.2-0.2-0.3-0.4-0.3-0.7s0.1-0.5 0.3-0.7l1.4-1.4 2.8 2.8-1.4 1.4zM25.7 17.7l-4.2 4.2-2.8-2.8 4.2-4.2-0.9-0.8 0.8 0.8c0.7-0.8 1.1-1.7 1.1-2.8 0-2.2-1.8-4-4-4-1.1 0-2.1 0.4-2.8 1.1l0.6 0.7-0.6-0.6-4.2 4.2-2.8-2.8 4.2-4.2c1.6-1.7 3.6-2.5 5.7-2.5 4.4 0 8 3.6 8 8 0 2.1-0.8 4.1-2.3 5.7z"></path>
<path d="M7 20c0-0.6-0.4-1-1-1h-3c-0.6 0-1 0.4-1 1s0.4 1 1 1h3c0.6 0 1-0.4 1-1z"></path>
<path d="M12 25c-0.6 0-1 0.4-1 1v3c0 0.6 0.4 1 1 1s1-0.4 1-1v-3c0-0.6-0.4-1-1-1z"></path>
<path d="M7 23.5l-2.1 2.1c-0.4 0.4-0.4 1 0 1.4 0.2 0.2 0.5 0.3 0.7 0.3s0.5-0.1 0.7-0.3l2.2-2c0.4-0.4 0.4-1 0-1.4s-1.1-0.5-1.5-0.1z"></path>
</svg>
