<!-- Generated by IcoMoon.io -->
<svg version="1.1" xmlns="http://www.w3.org/2000/svg" width="32" height="32" viewBox="0 0 32 32">
<title>magnet</title>
<path fill="none" stroke-linejoin="miter" stroke-linecap="butt" stroke-miterlimit="10" stroke-width="2" stroke="#000" d="M26.364 18.364c1.629-1.629 2.636-3.879 2.636-6.364 0-4.971-4.029-9-9-9-2.485 0-4.735 1.007-6.364 2.636v0M22.121 14.121c0.533-0.541 0.861-1.284 0.861-2.104 0-1.657-1.343-3-3-3-0.82 0-1.563 0.329-2.104 0.862l0-0"></path>
<path stroke-linejoin="miter" stroke-linecap="round" stroke-miterlimit="10" stroke-width="2" stroke="#000" fill="#000" d="M12 29v-3M5.636 26.364l2.121-2.121M3 20h3"></path>
<path fill="none" stroke-linejoin="round" stroke-linecap="butt" stroke-miterlimit="4" stroke-width="2" stroke="#000" d="M17.879 9.879l-7.071 7.071c-0.362 0.362-0.862 0.586-1.414 0.586s-1.052-0.224-1.414-0.586v0l-1.417-1.414c-0.362-0.362-0.586-0.862-0.586-1.414s0.224-1.052 0.586-1.414l7.074-7.071M26.364 18.364l-7.071 7.074c-0.362 0.362-0.862 0.586-1.414 0.586s-1.052-0.224-1.414-0.586l-1.414-1.414c-0.362-0.362-0.586-0.862-0.586-1.414s0.224-1.052 0.586-1.414l7.071-7.073M8.725 10.624l4.242 4.243M17.21 19.109l4.243 4.242"></path>
</svg>
