<svg version="1.1" xmlns="http://www.w3.org/2000/svg" width="32" height="32" viewBox="0 0 32 32">
<title>magnet</title>
<path d="M19.701 29.333h-9.701c-0.369 0-0.667-0.298-0.667-0.667v-5.333c0-0.369 0.298-0.667 0.667-0.667h9.701c3.487 0 5.652-2.299 5.652-6s-2.165-6-5.652-6h-9.701c-0.369 0-0.667-0.298-0.667-0.667v-5.333c0-0.369 0.298-0.667 0.667-0.667h9.701c6.549 0 12.082 5.801 12.082 12.667s-5.533 12.667-12.082 12.667zM10.667 28h9.034c5.827 0 10.749-5.19 10.749-11.333s-4.922-11.333-10.749-11.333h-9.034v4h9.034c4.243 0 6.986 2.878 6.986 7.333s-2.742 7.333-6.986 7.333h-9.034v4z"></path>
<path d="M14 10.667c-0.369 0-0.667-0.298-0.667-0.667v-5.355c0-0.369 0.298-0.667 0.667-0.667s0.667 0.298 0.667 0.667v5.355c0 0.369-0.298 0.667-0.667 0.667z"></path>
<path d="M14 29.333c-0.369 0-0.667-0.298-0.667-0.667v-5.333c0-0.369 0.298-0.667 0.667-0.667s0.667 0.298 0.667 0.667v5.333c0 0.369-0.298 0.667-0.667 0.667z"></path>
<path d="M3.331 10.853c-0.369 0-0.667-0.298-0.667-0.667v-5.542c0-0.369 0.298-0.667 0.667-0.667s0.667 0.298 0.667 0.667v5.542c0 0.369-0.298 0.667-0.667 0.667z"></path>
<path d="M6.063 8.082h-5.464c-0.369 0-0.667-0.298-0.667-0.667s0.298-0.667 0.667-0.667h5.464c0.369 0 0.667 0.298 0.667 0.667s-0.298 0.667-0.667 0.667z"></path>
<path d="M6.063 26.738h-5.464c-0.369 0-0.667-0.298-0.667-0.667s0.298-0.667 0.667-0.667h5.464c0.369 0 0.667 0.298 0.667 0.667s-0.298 0.667-0.667 0.667z"></path>
</svg>
