<svg version="1.1" xmlns="http://www.w3.org/2000/svg" width="32" height="32" viewBox="0 0 32 32">
<title>mail_post_box</title>
<path d="M31.333 28h-17.333c-0.369 0-0.667-0.298-0.667-0.667s0.298-0.667 0.667-0.667h16.667v-11.631c0-3.091-2.631-5.702-5.746-5.702h-16.874c-0.369 0-0.667-0.298-0.667-0.667s0.298-0.667 0.667-0.667h16.874c3.837 0 7.079 3.222 7.079 7.035v12.298c0 0.369-0.298 0.667-0.667 0.667z"></path>
<path d="M14 28h-13.333c-0.369 0-0.667-0.298-0.667-0.667v-12.487c0-3.711 3.138-6.846 6.853-6.846h1.193c3.651 0 6.621 3.071 6.621 6.846v12.487c0 0.369-0.298 0.667-0.667 0.667zM1.333 26.667h12v-11.82c0-3.040-2.372-5.513-5.287-5.513h-1.193c-2.992 0-5.52 2.525-5.52 5.513v11.82z"></path>
<path d="M11.333 25.333h-8c-0.369 0-0.667-0.298-0.667-0.667s0.298-0.667 0.667-0.667h8c0.369 0 0.667 0.298 0.667 0.667s-0.298 0.667-0.667 0.667z"></path>
<path d="M31.333 5.333h-12c-0.369 0-0.667-0.298-0.667-0.667v-4c0-0.369 0.298-0.667 0.667-0.667h12c0.369 0 0.667 0.298 0.667 0.667v4c0 0.369-0.298 0.667-0.667 0.667zM20 4h10.667v-2.667h-10.667v2.667z"></path>
<path d="M19.333 15.636c-0.369 0-0.667-0.298-0.667-0.667v-10.303c0-0.369 0.298-0.667 0.667-0.667s0.667 0.298 0.667 0.667v10.303c0 0.368-0.298 0.667-0.667 0.667z"></path>
<path d="M19.402 18.931c-1.276 0-2.314-1.038-2.314-2.314s1.038-2.314 2.314-2.314 2.314 1.038 2.314 2.314-1.038 2.314-2.314 2.314zM19.402 15.636c-0.54 0-0.981 0.441-0.981 0.981s0.44 0.981 0.981 0.981 0.981-0.44 0.981-0.981-0.44-0.981-0.981-0.981z"></path>
<path d="M16.667 31.869c-0.369 0-0.667-0.298-0.667-0.667v-3.869c0-0.369 0.298-0.667 0.667-0.667s0.667 0.298 0.667 0.667v3.869c0 0.368-0.298 0.667-0.667 0.667z"></path>
</svg>
