<!-- Generated by IcoMoon.io -->
<svg version="1.1" xmlns="http://www.w3.org/2000/svg" width="32" height="32" viewBox="0 0 32 32">
<title>mail_post_card</title>
<path d="M26.863 17.333h-4.426c-0.599 0-1.104-0.483-1.104-1.055v-5.948c0-0.559 0.484-0.997 1.104-0.997h4.426c0.638 0 1.137 0.438 1.137 0.997v5.948c0 0.572-0.521 1.055-1.137 1.055zM22.667 16h4v-5.333h-4v5.333z"></path>
<path d="M13.968 22.667h-9.204c-0.369 0-0.667-0.298-0.667-0.667s0.298-0.667 0.667-0.667h9.204c0.369 0 0.667 0.298 0.667 0.667s-0.298 0.667-0.667 0.667z"></path>
<path d="M13.968 18.667h-9.204c-0.369 0-0.667-0.298-0.667-0.667s0.298-0.667 0.667-0.667h9.204c0.369 0 0.667 0.298 0.667 0.667s-0.298 0.667-0.667 0.667z"></path>
<path d="M8.708 14.667h-3.945c-0.369 0-0.667-0.298-0.667-0.667s0.298-0.667 0.667-0.667h3.945c0.369 0 0.667 0.298 0.667 0.667s-0.298 0.667-0.667 0.667z"></path>
<path d="M31.333 26.667h-30.667c-0.369 0-0.667-0.298-0.667-0.667v-20c0-0.369 0.298-0.667 0.667-0.667h30.667c0.369 0 0.667 0.298 0.667 0.667v20c0 0.369-0.298 0.667-0.667 0.667zM1.333 25.333h29.333v-18.667h-29.333v18.667z"></path>
</svg>
