<svg version="1.1" xmlns="http://www.w3.org/2000/svg" width="32" height="32" viewBox="0 0 32 32">
<title>maintenance_hotfix</title>
<path d="M23.867 9.333l1.333 1.333-1.333 1.333-1.333-1.333 1.333-1.333z"></path>
<path d="M19.867 8.267l1.333-1.333 1.333 1.333-1.333 1.333-1.333-1.333z"></path>
<path d="M27.6 8.267l-1.333 1.333-1.333-1.333 1.333-1.333 1.333 1.333z"></path>
<path d="M23.867 4.267l1.333 1.333-1.333 1.333-1.333-1.333 1.333-1.333z"></path>
<path d="M8.267 27.6l-1.333-1.333 1.333-1.333 1.333 1.333-1.333 1.333z"></path>
<path d="M4.267 23.6l1.333-1.333 1.333 1.333-1.333 1.333-1.333-1.333z"></path>
<path d="M12.133 23.6l-1.333 1.333-1.333-1.333 1.333-1.333 1.333 1.333z"></path>
<path d="M8.267 22.4l-1.333-1.333 1.333-1.333 1.333 1.333-1.333 1.333z"></path>
<path d="M19.867 23.6l1.333-1.333 1.333 1.333-1.333 1.333-1.333-1.333z"></path>
<path d="M23.867 19.733l1.333 1.333-1.333 1.333-1.333-1.333 1.333-1.333z"></path>
<path d="M23.867 27.6l-1.333-1.333 1.333-1.333 1.333 1.333-1.333 1.333z"></path>
<path d="M26.267 24.933l-1.333-1.333 1.333-1.333 1.333 1.333-1.333 1.333z"></path>
<path d="M4.267 8.267l1.333-1.333 1.333 1.333-1.333 1.333-1.333-1.333z"></path>
<path d="M8.267 4.267l1.333 1.333-1.333 1.333-1.333-1.333 1.333-1.333z"></path>
<path d="M8.267 12l-1.333-1.333 1.333-1.333 1.333 1.333-1.333 1.333z"></path>
<path d="M9.6 8.267l1.333-1.333 1.333 1.333-1.333 1.333-1.333-1.333z"></path>
<path d="M24.933 16l4.667-4.667c1.2-1.2 1.867-2.8 1.867-4.533s-0.667-3.333-1.867-4.533-2.8-1.867-4.533-1.867-3.333 0.667-4.533 1.867l-4.533 4.667-4.667-4.667c-1.2-1.2-2.8-2-4.533-2s-3.333 0.8-4.533 2c-2.533 2.533-2.533 6.533 0 9.067l4.667 4.667-4.667 4.667c-1.2 1.2-1.867 2.8-1.867 4.533s0.667 3.333 1.867 4.533 2.8 1.867 4.533 1.867 3.333-0.667 4.533-1.867l4.667-4.667 4.667 4.667c1.2 1.2 2.8 1.867 4.533 1.867s3.333-0.667 4.533-1.867c2.533-2.533 2.533-6.533 0-9.067l-4.8-4.667zM21.867 3.467c0.933-0.933 2-1.333 3.2-1.333s2.4 0.4 3.2 1.333c0.933 0.933 1.333 2 1.333 3.2s-0.4 2.4-1.333 3.2l-4.533 4.8-6.4-6.4 4.533-4.8zM22.533 16l-6.533 6.4-6.4-6.4 6.4-6.4 6.533 6.4zM3.6 10c-1.733-1.733-1.733-4.667 0-6.533 0.933-0.933 2-1.333 3.2-1.333s2.4 0.4 3.2 1.333l4.667 4.8-6.4 6.4-4.667-4.667zM10 28.267c-0.933 0.933-2 1.333-3.2 1.333s-2.4-0.4-3.2-1.333c-0.933-0.933-1.333-2-1.333-3.2s0.4-2.4 1.333-3.2l4.667-4.667 6.4 6.4-4.667 4.667zM28.533 28.267c-0.933 0.933-2 1.333-3.2 1.333s-2.4-0.4-3.2-1.333l-4.8-4.667 6.4-6.4 4.667 4.667c1.867 1.733 1.867 4.667 0.133 6.4z"></path>
</svg>
