<svg version="1.1" xmlns="http://www.w3.org/2000/svg" width="32" height="32" viewBox="0 0 32 32">
<title>maintenance_release</title>
<path d="M3.2 0c-1.6 0-2.533 1.333-2.533 2.933v28.267c0 0.267 0.133 0.4 0.267 0.533 0.267 0.267 0.4 0.267 0.667 0.133l14.267-8.267 14.267 8.267c0.133 0.133 0.8 0 1.067-0.133s0.267-0.267 0.267-0.533v-28.267c0-1.733-1.333-2.933-3.067-2.933h-25.2zM3.2 1.6h25.067c0.667 0 1.6 0.533 1.6 1.333v1.733c0 0-0.133 0-0.267 0h-27.6v-1.733c0-0.667 0.4-1.333 1.2-1.333zM29.733 6.133v23.6l-13.467-7.733c-0.133-0.133-0.4-0.133-0.533-0.133s-0.133 0-0.267 0.133l-13.333 7.733v-23.6h27.467c0 0 0.133 0 0.133 0z"></path>
<path d="M19.867 20.933c-0.133 0-0.267 0-0.267-0.133l-3.6-1.733-3.6 1.867c-0.267 0.133-0.533 0.133-0.667 0-0.267-0.133-0.267-0.4-0.267-0.667l0.667-4-2.8-2.8c-0.133-0.267-0.267-0.533-0.133-0.667 0.133-0.267 0.267-0.4 0.533-0.4l4-0.667 1.867-3.6c0.133-0.267 0.4-0.4 0.533-0.4 0.267 0 0.533 0.133 0.533 0.4l1.733 3.6 4 0.667c0.267 0 0.4 0.267 0.533 0.4 0.133 0.267 0 0.533-0.133 0.667l-2.933 2.8 0.667 3.867c0 0.267 0 0.533-0.267 0.667 0 0.133-0.267 0.133-0.4 0.133zM11.2 13.467l2.133 2.133c0.133 0.133 0.267 0.4 0.133 0.533l-0.4 2.933 2.667-1.467c0.133-0.133 0.4-0.133 0.667 0l2.667 1.333-0.533-2.933c0-0.267 0-0.4 0.133-0.533l2.267-2.133-3.067-0.4c-0.267 0-0.4-0.133-0.533-0.4l-1.333-2.667-1.333 2.667c-0.133 0.133-0.267 0.267-0.533 0.4l-2.933 0.533z"></path>
</svg>
