<svg version="1.1" xmlns="http://www.w3.org/2000/svg" width="32" height="32" viewBox="0 0 32 32">
<title>manage_custom_tables</title>
<path d="M13.155 20.923h3.816l0.845-1.464v-3.101h1.791l0.448-0.777h-2.239v-3.788h3.884v0.94l0.991-1.716h-0.215v-3.789h2.401l0.448-0.776v-0.001h-20.685v-1.627c0-0.165 0.047-0.304 0.079-0.451 0.020-0.095 0.017-0.204 0.051-0.289 0.015-0.040 0.048-0.067 0.067-0.104 0.179-0.383 0.465-0.681 0.861-0.836 0.217-0.088 0.463-0.133 0.731-0.133h17.861c1.105 0 1.937 0.78 1.937 1.813v0.067l0.591-1.023c-0.384-0.973-1.341-1.632-2.529-1.632h-1.184c-0.172-1.293-1.26-2.235-2.679-2.235h-17.861c-1.484 0-2.564 1.089-2.564 2.589v17.92c0 1.524 1.079 2.631 2.564 2.631h1.299l0.004-0.36c0.017 1.504 1.088 2.592 2.56 2.592h7.975l0.448-0.777h-1.695v-3.672zM17.816 7.227h3.884v3.788h-3.884v-3.788zM13.155 7.227h3.884v3.788h-3.884v-3.788zM13.155 11.792h3.884v3.788h-3.884v-3.788zM13.155 16.357h3.884v3.788h-3.884v-3.788zM0.753 5.015h3.060v3.713h-3.060v-3.713zM0.753 9.627h3.060v3.713h-3.060v-3.713zM0.753 14.191h3.060v3.713h-3.060v-3.713zM3.853 22.361h-1.289c-1.053 0-1.788-0.763-1.788-1.853v-1.819h3.077v3.672zM3.931 4.217l-3.152-0.001v-1.627c0-1.084 0.719-1.813 1.788-1.813h17.86c0.972 0 1.731 0.604 1.9 1.455 0 0.001 0.001 0.001 0.001 0.003h-15.901c-1.275-0.001-2.247 0.805-2.496 1.984zM7.716 24.596h-1.289c-1.052 0-1.788-0.763-1.788-1.853v-1.819h3.077v3.672zM7.717 20.145h-3.077v-3.788h3.076v3.788zM7.717 15.58h-3.077v-3.788h3.076v3.788zM7.717 11.015h-3.077v-3.788h3.076v3.788zM12.377 24.596h-3.884v-3.673h3.884v3.673zM12.377 20.145h-3.884v-3.788h3.884v3.788zM12.377 15.58h-3.884v-3.788h3.884v3.788zM12.377 11.015h-3.884v-3.788h3.884v3.788z"></path>
<path d="M29.348 12.556l-3.307-1.909c-0.397-0.229-0.993-0.144-1.305 0.396l-8.689 15.051c-0.017 0.029-0.031 0.053-0.049 0.145-0.004 0.019-0.008 0.037-0.009 0.056-0.056 0.332-0.155 1.311-0.477 4.659-0.023 0.364 0.176 0.724 0.507 0.915 0.327 0.188 0.721 0.18 1.045-0.035 2.736-1.941 3.535-2.513 3.793-2.727 0.016-0.011 0.029-0.024 0.044-0.037 0.069-0.060 0.083-0.084 0.1-0.115l8.689-15.051c0.308-0.533 0.061-1.115-0.341-1.348zM16.529 31.051c-0.007 0.004-0.015 0.009-0.039-0.004l-0.037-0.020c0.052-0.539 0.116-1.189 0.179-1.829l1.381 0.797c-0.52 0.371-1.048 0.747-1.484 1.056zM18.859 29.391l-2.124-1.227c0.041-0.405 0.077-0.772 0.108-1.065l2.887 1.667c-0.239 0.173-0.539 0.388-0.871 0.625zM20.417 28.071l-0.9-0.52 7.316-12.673c0.131-0.227 0.053-0.516-0.173-0.647s-0.516-0.053-0.647 0.173l-7.316 12.673-1.596-0.921 8.467-14.689 3.303 1.963-8.453 14.641z"></path>
<path d="M31.184 8.104l-2.208-1.275c-0.748-0.432-1.699-0.189-2.121 0.541l-0.684 1.185c-0.131 0.227-0.053 0.516 0.173 0.647s0.516 0.053 0.647-0.173l0.684-1.185c0.14-0.243 0.497-0.387 0.829-0.196l2.208 1.275c0.336 0.195 0.416 0.596 0.279 0.835l-0.684 1.185c-0.131 0.227-0.053 0.516 0.173 0.647s0.516 0.053 0.647-0.173l0.684-1.185c0.413-0.717 0.128-1.692-0.627-2.127z"></path>
</svg>
