<svg version="1.1" xmlns="http://www.w3.org/2000/svg" width="32" height="32" viewBox="0 0 32 32">
<title>map_path_navigation_location</title>
<path d="M0.777 25.193c-0.133 0-0.266-0.040-0.38-0.119-0.18-0.125-0.287-0.329-0.287-0.548v-20.193c0-0.277 0.172-0.526 0.432-0.624l7.899-2.973c0.167-0.063 0.352-0.057 0.512 0.018l6.355 2.903 7.589-3.467c0.121-0.056 0.257-0.072 0.387-0.051l8.15 1.36c0.322 0.053 0.557 0.332 0.557 0.658v20.191c0 0.198-0.089 0.385-0.241 0.513-0.151 0.126-0.346 0.18-0.548 0.142l-2.669-0.496c-0.362-0.066-0.6-0.415-0.533-0.777 0.066-0.362 0.413-0.6 0.777-0.533l1.88 0.349v-18.825l-7.392-1.233-7.68 3.508c-0.177 0.081-0.378 0.081-0.555 0l-6.379-2.915-7.208 2.714v18.768l6.997-2.634c0.165-0.063 0.346-0.056 0.507 0.016l6.327 2.832c0.337 0.15 0.487 0.544 0.337 0.88s-0.543 0.491-0.881 0.336l-6.077-2.72-7.642 2.878c-0.076 0.029-0.156 0.043-0.235 0.043z"></path>
<path d="M8.676 18.724c-0.369 0-0.667-0.298-0.667-0.667v-12.815c0-0.369 0.298-0.667 0.667-0.667s0.667 0.298 0.667 0.667v12.814c0 0.369-0.298 0.667-0.667 0.667z"></path>
<path d="M15.309 13.278c-0.369 0-0.667-0.298-0.667-0.667v-4.888c0-0.369 0.298-0.667 0.667-0.667s0.667 0.298 0.667 0.667v4.888c0 0.369-0.298 0.667-0.667 0.667z"></path>
<path d="M23.316 11.477c-0.369 0-0.667-0.298-0.667-0.667v-6.477c0-0.369 0.298-0.667 0.667-0.667s0.667 0.298 0.667 0.667v6.477c0 0.369-0.298 0.667-0.667 0.667z"></path>
<path d="M21.316 31.829c-0.224 0-0.432-0.112-0.556-0.298-0.583-0.881-5.699-8.704-5.699-11.884 0-3.432 2.806-6.224 6.255-6.224s6.255 2.792 6.255 6.224c0 3.18-5.116 11.003-5.699 11.884-0.124 0.186-0.332 0.298-0.556 0.298zM21.316 14.757c-2.714 0-4.922 2.194-4.922 4.891 0 2.104 3.164 7.521 4.922 10.289 1.758-2.768 4.922-8.185 4.922-10.289 0-2.697-2.208-4.891-4.922-4.891z"></path>
<path d="M21.316 21.286c-1.13 0-2.049-0.915-2.049-2.042s0.919-2.042 2.049-2.042c1.129 0 2.048 0.915 2.048 2.042s-0.919 2.042-2.048 2.042zM21.316 18.536c-0.395 0-0.716 0.318-0.716 0.708s0.322 0.708 0.716 0.708 0.715-0.318 0.715-0.708-0.32-0.708-0.715-0.708z"></path>
</svg>
