<svg version="1.1" xmlns="http://www.w3.org/2000/svg" width="32" height="32" viewBox="0 0 32 32">
<title>map_by_country</title>
<path d="M11.661 31.608c-6.429 0-11.661-5.231-11.661-11.66s5.231-11.661 11.661-11.661c0.401 0 0.801 0.021 1.192 0.060 0.367 0.037 0.633 0.364 0.597 0.729-0.037 0.367-0.359 0.636-0.729 0.597-0.348-0.035-0.703-0.053-1.060-0.053-5.695 0-10.328 4.633-10.328 10.328s4.633 10.327 10.328 10.327 10.328-4.633 10.328-10.327c0-0.993-0.161-2.019-0.477-3.045-0.109-0.352 0.088-0.725 0.44-0.833 0.353-0.111 0.725 0.088 0.833 0.44 0.357 1.155 0.537 2.312 0.537 3.439 0 6.429-5.231 11.66-11.661 11.66z"></path>
<path d="M15.249 28.212c-0.156 0-0.311-0.037-0.455-0.113-0.739-0.392-0.869-1.727-0.881-2.487 0.059-3.512-1.187-4.469-1.2-4.476-0.435-0.163-1.999-0.765-2.683-0.915-0.581-0.127-0.992-0.605-1.068-1.252-0.091-0.775 0.309-1.837 1.231-2.28 0.296-0.143 0.559-0.189 0.772-0.197-0.005-0.091-0.015-0.204-0.025-0.341-0.025-0.289-0.097-0.497-0.203-0.581-0.181-0.147-0.648-0.091-0.991-0.052-0.203 0.020-0.389 0.040-0.545 0.040-0.176 0.123-0.336 0.876-0.505 1.673l-0.075 0.349c-0.171 0.801-0.587 1.028-0.905 1.077-0.732 0.119-1.239-0.687-1.332-0.848-0.029-0.049-0.080-0.141-0.14-0.423-0.259 0.289-0.72 0.629-1.533 0.917-0.801 0.283-1.243-0.021-1.433-0.228-0.709-0.761-0.121-2.465 0.291-3.413 0.147-0.339 0.54-0.492 0.877-0.345s0.492 0.54 0.345 0.877c-0.295 0.679-0.509 1.464-0.52 1.849 0.855-0.303 1.021-0.599 1.023-0.601l0.82-1.459c0.145-0.255 0.445-0.384 0.729-0.319 0.287 0.067 0.496 0.315 0.515 0.608 0.027 0.433 0.068 0.925 0.112 1.309 0.331-1.525 0.591-2.36 1.731-2.36 0.111 0 0.243-0.019 0.385-0.035 0.577-0.069 1.369-0.164 1.992 0.34 0.399 0.325 0.632 0.831 0.689 1.501 0.068 0.773 0.092 1.263-0.243 1.588-0.284 0.276-0.628 0.237-0.816 0.215-0.153-0.017-0.26-0.031-0.439 0.055-0.217 0.104-0.4 0.361-0.464 0.653-0.049 0.219-0.007 0.357 0.013 0.381 0.928 0.197 2.919 0.997 3.003 1.031 0.303 0.181 1.995 1.391 1.923 5.657 0.007 0.363 0.063 0.788 0.135 1.072 0.368-0.387 0.967-1.189 1.503-2.177 0.176-0.325 0.585-0.441 0.904-0.268 0.324 0.176 0.444 0.58 0.268 0.904-0.587 1.083-1.521 2.441-2.184 2.872-0.197 0.133-0.412 0.2-0.62 0.2z"></path>
<path d="M31.284 2.117c-1.343-1.233-2.771-1.835-4.368-1.835-1.259 0-2.435 0.352-3.705 0.731-1.216 0.367-2.473 0.745-3.793 0.745-0.721 0-1.417-0.119-2.12-0.363v-0.307c0-0.424-0.343-0.767-0.767-0.767s-0.767 0.344-0.767 0.767v19.105c0 0.423 0.343 0.765 0.767 0.765s0.767-0.343 0.767-0.765v-6.951c0.553 0.077 1.068 0.113 1.595 0.113 1.429 0 2.849-0.213 4.229-0.423 1.316-0.197 2.679-0.401 3.987-0.401 1.259 0 2.364 0.189 3.376 0.58 0.091 0.036 0.184 0.056 0.28 0.056 0.155 0 0.305-0.048 0.431-0.135 0.212-0.141 0.337-0.379 0.337-0.635v-9.72c0.001-0.216-0.091-0.421-0.248-0.563zM30.001 3.027l-0.001 8.325c-0.896-0.235-1.847-0.351-2.889-0.351-1.415 0-2.827 0.212-4.224 0.423-1.339 0.201-2.76 0.389-4.083 0.389-0.556 0-1.053-0.032-1.505-0.099v-8.704c0.689 0.189 1.385 0.281 2.12 0.281 1.536 0 2.903-0.411 4.272-0.819 1.131-0.337 2.197-0.656 3.229-0.656 1.117-0.001 2.101 0.384 3.081 1.209z"></path>
</svg>
