<!-- Generated by IcoMoon.io -->
<svg version="1.1" xmlns="http://www.w3.org/2000/svg" width="32" height="32" viewBox="0 0 32 32">
<title>map_by_coordinates</title>
<path d="M9.585 14.188c-0.143 0.016-0.275 0.035-0.385 0.035-1.14 0-1.4 0.835-1.731 2.36-0.044-0.384-0.085-0.876-0.112-1.309-0.019-0.293-0.228-0.541-0.515-0.608-0.284-0.065-0.584 0.064-0.729 0.319l-0.82 1.459c-0.001 0.003-0.168 0.299-1.023 0.601 0.011-0.385 0.225-1.171 0.52-1.849 0.147-0.337-0.008-0.731-0.345-0.877s-0.731 0.007-0.877 0.345c-0.412 0.948-1 2.652-0.291 3.413 0.191 0.207 0.632 0.511 1.433 0.228 0.813-0.288 1.275-0.628 1.533-0.917 0.060 0.281 0.111 0.373 0.14 0.423 0.093 0.161 0.6 0.967 1.332 0.848 0.319-0.049 0.735-0.276 0.905-1.077l0.075-0.349c0.169-0.797 0.329-1.551 0.505-1.673 0.156 0 0.343-0.020 0.545-0.040 0.343-0.039 0.809-0.095 0.991 0.052 0.105 0.084 0.177 0.292 0.203 0.581 0.011 0.137 0.020 0.251 0.025 0.341-0.213 0.008-0.476 0.055-0.772 0.197-0.921 0.443-1.321 1.505-1.231 2.28 0.076 0.647 0.487 1.125 1.068 1.252 0.684 0.149 2.248 0.752 2.683 0.915 0.013 0.007 1.259 0.964 1.2 4.476 0.012 0.76 0.143 2.095 0.881 2.487 0.144 0.076 0.299 0.113 0.455 0.113 0.208 0 0.423-0.067 0.62-0.2 0.663-0.431 1.597-1.789 2.184-2.872 0.176-0.324 0.056-0.728-0.268-0.904-0.319-0.173-0.728-0.057-0.904 0.268-0.536 0.988-1.135 1.791-1.503 2.177-0.072-0.284-0.128-0.709-0.135-1.072 0.072-4.267-1.62-5.476-1.923-5.657-0.084-0.033-2.075-0.833-3.003-1.031-0.020-0.024-0.063-0.163-0.013-0.381 0.064-0.292 0.247-0.549 0.464-0.653 0.179-0.085 0.285-0.072 0.439-0.055 0.188 0.023 0.532 0.061 0.816-0.215 0.335-0.325 0.311-0.815 0.243-1.588-0.057-0.671-0.291-1.176-0.689-1.501-0.623-0.504-1.415-0.409-1.992-0.34z"></path>
<path d="M23.536 0.579c-4.588 0-8.327 3.672-8.451 8.231-4.668-1.431-9.933 0.181-12.919 4.369-3.732 5.235-2.509 12.532 2.727 16.264s12.532 2.511 16.264-2.724c0.469-0.657 0.845-1.403 1.176-2.183 0.303 0.476 0.512 0.796 0.559 0.867 0.143 0.217 0.385 0.348 0.645 0.348s0.501-0.131 0.645-0.348c0.317-0.484 7.817-11.932 7.817-16.361 0-4.667-3.797-8.463-8.464-8.463zM21.449 23.187c-0.339 1.020-0.803 1.948-1.379 2.757-3.305 4.636-9.768 5.719-14.404 2.413-4.637-3.305-5.72-9.767-2.415-14.404 2.76-3.871 7.717-5.253 11.977-3.685 0.744 3.608 4.227 9.625 6.239 12.888-0.005 0.011-0.015 0.019-0.019 0.031zM23.536 23.556c-1.953-3.079-5.313-8.78-6.495-12.411-0.213-0.657-0.345-1.235-0.395-1.728-0.013-0.128-0.032-0.261-0.032-0.376 0-3.816 3.104-6.92 6.92-6.92 3.817 0 6.921 3.104 6.921 6.92 0.001 2.997-4.52 10.735-6.92 14.515z"></path>
<path d="M23.536 11.961c-1.935 0-3.508-1.573-3.508-3.509s1.573-3.508 3.508-3.508 3.509 1.573 3.509 3.508c0 1.936-1.575 3.509-3.509 3.509zM23.536 6.488c-1.084 0-1.965 0.881-1.965 1.965s0.881 1.965 1.965 1.965c1.085 0 1.967-0.881 1.967-1.965s-0.883-1.965-1.967-1.965z"></path>
</svg>
