<svg version="1.1" xmlns="http://www.w3.org/2000/svg" width="32" height="32" viewBox="0 0 32 32">
<title>map_travel_destination_location_world</title>
<path d="M14.36 31.608c-6.43 0-11.661-5.231-11.661-11.66s5.231-11.661 11.661-11.661c0.402 0 0.801 0.021 1.193 0.060 0.367 0.037 0.633 0.364 0.597 0.73-0.038 0.367-0.359 0.635-0.73 0.597-0.348-0.035-0.703-0.053-1.060-0.053-5.695 0-10.327 4.633-10.327 10.327s4.633 10.327 10.327 10.327 10.327-4.633 10.327-10.327c0-0.993-0.161-2.018-0.478-3.046-0.109-0.352 0.089-0.725 0.44-0.833 0.353-0.11 0.725 0.089 0.833 0.44 0.357 1.155 0.538 2.313 0.538 3.439 0 6.43-5.23 11.66-11.661 11.66z"></path>
<path d="M18.268 26.887c-0.156 0-0.311-0.038-0.454-0.113-0.738-0.392-0.87-1.727-0.881-2.487 0.059-3.512-1.187-4.469-1.2-4.477-0.434-0.163-1.999-0.766-2.682-0.915-0.582-0.126-0.992-0.605-1.068-1.253-0.091-0.775 0.309-1.838 1.231-2.28 0.296-0.143 0.559-0.189 0.771-0.198-0.006-0.091-0.014-0.204-0.026-0.342-0.025-0.29-0.097-0.497-0.203-0.582-0.182-0.147-0.648-0.091-0.991-0.052-0.201 0.025-0.388 0.045-0.544 0.045-0.176 0.123-0.336 0.876-0.506 1.674l-0.075 0.35c-0.171 0.801-0.587 1.027-0.905 1.077-0.732 0.119-1.239-0.686-1.331-0.848-0.029-0.049-0.080-0.141-0.14-0.423-0.259 0.289-0.719 0.629-1.533 0.917-0.801 0.283-1.242-0.021-1.434-0.228-0.709-0.762-0.122-2.465 0.291-3.413 0.147-0.339 0.54-0.492 0.877-0.345s0.492 0.54 0.346 0.878c-0.295 0.678-0.51 1.464-0.52 1.85 0.854-0.302 1.021-0.598 1.023-0.601l0.82-1.459c0.146-0.255 0.446-0.383 0.73-0.318 0.287 0.067 0.496 0.314 0.514 0.608 0.027 0.433 0.068 0.926 0.112 1.31 0.331-1.526 0.591-2.36 1.731-2.36 0.111 0 0.242-0.018 0.385-0.035 0.577-0.070 1.369-0.164 1.992 0.341 0.399 0.325 0.631 0.83 0.689 1.501 0.068 0.773 0.092 1.262-0.243 1.588-0.285 0.276-0.628 0.237-0.816 0.215-0.153-0.017-0.26-0.030-0.438 0.055-0.217 0.104-0.4 0.361-0.464 0.654-0.049 0.219-0.007 0.357 0.014 0.381 0.928 0.197 2.919 0.997 3.003 1.031 0.303 0.181 1.995 1.391 1.923 5.658 0.007 0.363 0.063 0.788 0.134 1.072 0.369-0.387 0.966-1.189 1.503-2.177 0.176-0.325 0.585-0.441 0.904-0.268 0.324 0.176 0.444 0.581 0.268 0.904-0.587 1.082-1.521 2.441-2.184 2.872-0.199 0.13-0.414 0.197-0.623 0.197z"></path>
<path d="M21.951 22.142v0c-0.224 0-0.434-0.113-0.557-0.301-0.276-0.418-6.755-10.31-6.755-14.137 0-4.032 3.28-7.313 7.313-7.313s7.314 3.281 7.314 7.313c0 3.827-6.481 13.719-6.757 14.137-0.124 0.188-0.333 0.301-0.557 0.301zM21.951 1.725c-3.297 0-5.979 2.682-5.979 5.979 0 2.59 3.906 9.276 5.979 12.542 2.074-3.266 5.981-9.952 5.981-12.542-0-3.297-2.682-5.979-5.981-5.979z"></path>
<path d="M21.951 10.228c-1.672 0-3.031-1.36-3.031-3.032s1.359-3.031 3.031-3.031 3.033 1.36 3.033 3.031c0 1.672-1.361 3.032-3.033 3.032zM21.951 5.498c-0.936 0-1.698 0.762-1.698 1.698s0.762 1.699 1.698 1.699c0.937 0 1.699-0.762 1.699-1.699s-0.762-1.698-1.699-1.698z"></path>
</svg>
