<!-- Generated by IcoMoon.io -->
<svg version="1.1" xmlns="http://www.w3.org/2000/svg" width="32" height="32" viewBox="0 0 32 32">
<title>map_travel_distance_directions</title>
<path d="M6.049 18.671c-0.225 0-0.434-0.113-0.557-0.301-0.514-0.78-5.021-7.71-5.021-10.54 0-3.075 2.502-5.577 5.577-5.577s5.577 2.502 5.577 5.577c0 2.83-4.506 9.76-5.020 10.54-0.123 0.188-0.332 0.301-0.557 0.301zM6.049 3.586c-2.341 0-4.244 1.904-4.244 4.243 0 1.815 2.691 6.471 4.244 8.94 1.553-2.469 4.243-7.125 4.243-8.94 0-2.34-1.904-4.243-4.243-4.243z"></path>
<path d="M6.048 9.869c-1.331 0-2.414-1.083-2.414-2.414s1.083-2.415 2.414-2.415 2.414 1.083 2.414 2.415-1.083 2.414-2.414 2.414zM6.048 6.373c-0.596 0-1.081 0.485-1.081 1.081s0.485 1.081 1.081 1.081 1.081-0.485 1.081-1.081c0-0.596-0.485-1.081-1.081-1.081z"></path>
<path d="M26.12 26.59c-0.224 0-0.434-0.113-0.557-0.301-0.513-0.78-5.019-7.708-5.019-10.54 0-3.075 2.501-5.577 5.577-5.577s5.578 2.502 5.578 5.577c0 2.83-4.508 9.76-5.021 10.54-0.124 0.187-0.333 0.301-0.557 0.301zM26.12 11.506c-2.34 0-4.243 1.904-4.243 4.243 0 1.816 2.69 6.471 4.243 8.939 1.553-2.469 4.245-7.125 4.245-8.939 0-2.34-1.904-4.243-4.245-4.243z"></path>
<path d="M26.12 17.788c-1.331 0-2.414-1.083-2.414-2.414s1.083-2.414 2.414-2.414 2.414 1.083 2.414 2.414c0 1.331-1.083 2.414-2.414 2.414zM26.12 14.293c-0.596 0-1.081 0.485-1.081 1.081s0.484 1.081 1.081 1.081 1.081-0.485 1.081-1.081-0.484-1.081-1.081-1.081z"></path>
<path d="M22.695 26.151c-0.061 0-0.124-0.008-0.185-0.026l-1.281-0.371c-0.354-0.103-0.557-0.473-0.456-0.825 0.103-0.354 0.475-0.56 0.825-0.456l1.281 0.371c0.354 0.103 0.557 0.473 0.456 0.825-0.085 0.292-0.351 0.482-0.641 0.482zM17.573 24.664c-0.061 0-0.124-0.008-0.186-0.026l-1.28-0.371c-0.353-0.103-0.557-0.473-0.454-0.827 0.102-0.354 0.469-0.559 0.826-0.454l1.28 0.371c0.353 0.103 0.556 0.473 0.454 0.827-0.085 0.292-0.352 0.48-0.641 0.48zM12.451 23.177c-0.061 0-0.124-0.008-0.186-0.026l-1.281-0.371c-0.353-0.103-0.557-0.473-0.455-0.827 0.102-0.352 0.471-0.559 0.826-0.454l1.281 0.371c0.353 0.103 0.557 0.473 0.455 0.827-0.085 0.29-0.351 0.48-0.641 0.48zM7.329 21.69c-0.061 0-0.124-0.008-0.186-0.026l-1.281-0.371c-0.353-0.103-0.557-0.473-0.455-0.827 0.102-0.353 0.471-0.557 0.826-0.454l1.281 0.371c0.353 0.103 0.557 0.473 0.455 0.827-0.085 0.292-0.351 0.48-0.641 0.48z"></path>
</svg>
