<!-- Generated by IcoMoon.io -->
<svg version="1.1" xmlns="http://www.w3.org/2000/svg" width="32" height="32" viewBox="0 0 32 32">
<title>map_path_navigation_location</title>
<path d="M28 2.7c-0.3 0-0.6 0.1-0.9 0.2 0 0 0 0-0.1 0s0 0 0 0l-6 3.9c-0.3 0.1-0.6 0.2-0.9 0l-7.2-4.6c-0.8-0.4-1.9-0.4-2.8 0 0 0-0.1 0.1-0.1 0.1l-6.9 4.8c-0.7 0.3-1.1 1-1.1 1.8v18.5c0 1.1 0.9 2 2 2 0.3 0 0.7-0.1 1-0.2 0 0 0 0 0 0s0.1 0 0.1-0.1l6-3.9c0.3-0.1 0.6-0.1 0.9 0l7 4.6c0.4 0.2 0.9 0.3 1.4 0.3 0 0 0.1 0 0.1 0 0.1 0 0.2 0 0.3 0 0.3 0 0.7-0.2 1-0.3 0 0 0.1-0.1 0.1-0.1l7.1-4.7c0.7-0.3 1.1-1 1.1-1.8v-18.5c-0.1-1.1-1-2-2.1-2zM10.5 23.2c-0.2 0.1-0.3 0.1-0.5 0.2l-6 3.9v-18.4l6.5-4.4v18.7zM19.5 27.6l-6.5-4.2c0 0-0.1-0.1-0.1-0.1-0.1-0.1-0.3-0.1-0.4-0.2v-18.7l6.5 4.2c0 0 0.1 0.1 0.2 0.1 0.1 0.1 0.3 0.1 0.4 0.2v18.7zM27.9 23.2l-6.4 4.2v-18.6c0.1-0.1 0.3-0.1 0.5-0.2l6-3.9-0.1 18.5z"></path>
</svg>
