<svg version="1.1" xmlns="http://www.w3.org/2000/svg" width="32" height="32" viewBox="0 0 32 32">
<title>map_path_navigation_location_treasure_hunt</title>
<path d="M0.783 26.659c-0.133 0-0.266-0.040-0.379-0.119-0.18-0.124-0.288-0.329-0.288-0.548v-20.306c0-0.277 0.171-0.525 0.431-0.624l7.9-2.99c0.167-0.061 0.352-0.057 0.514 0.018l6.353 2.919 7.587-3.486c0.122-0.056 0.258-0.072 0.389-0.052l8.15 1.367c0.32 0.054 0.556 0.332 0.556 0.658v20.305c0 0.203-0.092 0.395-0.251 0.522-0.159 0.125-0.366 0.176-0.565 0.128l-7.741-1.781-8.149 3.783c-0.176 0.082-0.379 0.083-0.554 0.004l-6.076-2.734-7.641 2.893c-0.077 0.029-0.157 0.043-0.236 0.043zM8.683 22.335c0.094 0 0.187 0.019 0.273 0.059l6.049 2.723 8.080-3.75c0.135-0.063 0.285-0.078 0.431-0.046l7.147 1.645v-18.904l-7.391-1.24-7.68 3.529c-0.177 0.082-0.38 0.082-0.557 0l-6.378-2.931-7.208 2.728v18.881l6.997-2.65c0.076-0.029 0.156-0.043 0.236-0.043z"></path>
<path d="M25.37 12.175c-0.26 0-0.508-0.154-0.615-0.409l-1.467-3.512c-0.142-0.34 0.018-0.731 0.358-0.872 0.337-0.141 0.729 0.018 0.871 0.358l1.467 3.512c0.142 0.34-0.018 0.731-0.358 0.872-0.083 0.035-0.171 0.051-0.257 0.051z"></path>
<path d="M22.88 11.153c-0.26 0-0.508-0.154-0.615-0.409-0.142-0.34 0.018-0.731 0.358-0.872l3.512-1.468c0.337-0.14 0.729 0.018 0.871 0.358s-0.018 0.731-0.358 0.872l-3.512 1.468c-0.083 0.035-0.171 0.051-0.257 0.051z"></path>
<path d="M5.494 18.452c-0.091 0-0.183-0.018-0.271-0.057-0.337-0.15-0.488-0.544-0.338-0.88 0 0 0.223-0.501 0.598-1.232 0.169-0.327 0.57-0.457 0.898-0.288s0.456 0.57 0.288 0.898c-0.352 0.685-0.563 1.156-0.566 1.164-0.11 0.249-0.353 0.396-0.609 0.396z"></path>
<path d="M18.246 19.629c-0.173-0.004-0.329-0.029-0.482-0.073-0.354-0.103-0.557-0.473-0.456-0.825 0.103-0.354 0.475-0.563 0.825-0.456 0.397 0.116 0.815-0.168 1.357-0.704 0.26-0.259 0.685-0.257 0.943 0.005 0.259 0.262 0.257 0.684-0.005 0.943-0.743 0.737-1.478 1.111-2.182 1.111zM14.99 16.169c-0.223 0-0.441-0.112-0.567-0.316l-0.225-0.363c-0.329-0.531-0.659-1.066-0.992-1.563-0.204-0.307-0.122-0.721 0.184-0.925s0.72-0.121 0.925 0.184c0.341 0.51 0.68 1.058 1.016 1.603l0.224 0.361c0.194 0.313 0.098 0.723-0.215 0.917-0.109 0.069-0.231 0.102-0.351 0.102zM8.525 13.381c-0.15 0-0.301-0.051-0.426-0.155-0.283-0.236-0.321-0.656-0.085-0.939 0.696-0.835 1.343-1.377 1.978-1.658 0.339-0.147 0.731 0.004 0.88 0.341s-0.004 0.731-0.341 0.88c-0.431 0.19-0.947 0.637-1.493 1.292-0.131 0.158-0.321 0.239-0.512 0.239z"></path>
<path d="M22.501 14.875c-0.1 0-0.203-0.023-0.298-0.070-0.329-0.165-0.462-0.566-0.298-0.895 0.34-0.678 0.544-1.157 0.548-1.165 0.145-0.34 0.539-0.497 0.874-0.353 0.339 0.144 0.497 0.535 0.353 0.874 0 0-0.217 0.512-0.582 1.242-0.117 0.233-0.353 0.368-0.596 0.368z"></path>
</svg>
