<!-- Generated by IcoMoon.io -->
<svg version="1.1" xmlns="http://www.w3.org/2000/svg" width="32" height="32" viewBox="0 0 32 32">
<title>marker_text</title>
<path d="M20.154 24.004h-8.146c-0.182 0-0.355-0.074-0.481-0.206-0.126-0.13-0.193-0.307-0.185-0.488l0.885-21.139c-0.001-1.223 0.746-2.167 1.737-2.167h4.234c0.991 0 1.738 0.943 1.738 2.195l0.885 21.111c0.007 0.181-0.060 0.358-0.185 0.488-0.126 0.132-0.299 0.206-0.482 0.206zM12.703 22.671h6.756l-0.857-20.444c0-0.554-0.24-0.889-0.405-0.889h-4.234c-0.165 0-0.404 0.335-0.404 0.861l-0.856 20.472z"></path>
<path d="M16.893 29.466h-1.626c-0.363 0-0.659-0.29-0.667-0.654-0.054-2.76-2.682-4.919-2.708-4.941-0.286-0.231-0.331-0.65-0.1-0.936 0.231-0.288 0.65-0.332 0.936-0.102 0.12 0.096 2.757 2.25 3.156 5.299h0.391c0.398-3.049 3.035-5.203 3.155-5.299 0.29-0.231 0.707-0.185 0.936 0.102 0.232 0.286 0.186 0.706-0.099 0.936-0.027 0.022-2.654 2.181-2.708 4.941-0.008 0.363-0.303 0.654-0.667 0.654z"></path>
<path d="M15.178 31.72c-0.149 0-0.296-0.049-0.415-0.145-0.167-0.133-0.26-0.336-0.251-0.548l0.089-2.254c0.014-0.358 0.308-0.641 0.666-0.641h1.626c0.369 0 0.667 0.298 0.667 0.667l0.001 1.784c0 0.299-0.201 0.564-0.491 0.643l-1.715 0.47c-0.059 0.016-0.118 0.023-0.176 0.023zM15.908 29.466l-0.027 0.703 0.347-0.095-0.001-0.608h-0.318z"></path>
</svg>
