<!-- Generated by IcoMoon.io -->
<svg version="1.1" xmlns="http://www.w3.org/2000/svg" width="32" height="32" viewBox="0 0 32 32">
<title>masks_theater_play_single</title>
<path d="M12.606 31.178c-0.666 0-1.328-0.087-1.966-0.262-1.491-0.403-2.809-1.247-3.819-2.441-2.662-3.147-4.206-7.478-4.594-12.881-0.337-4.694 0.278-9.275 0.856-12.294 0.163-0.847 0.653-1.563 1.378-2.016 0.484-0.303 1.047-0.463 1.625-0.463 0.494 0 0.978 0.119 1.406 0.344 2.775 1.444 5.347 2.478 7.872 3.159 2.8 0.759 5.709 1.128 8.9 1.128 0.769 0 1.575-0.022 2.394-0.063 0.053-0.003 0.109-0.003 0.163-0.003 0.272 0 0.541 0.034 0.8 0.106 1.591 0.431 2.563 2.084 2.163 3.684-1.553 6.244-5.431 17.309-13.938 21.281-1.012 0.469-2.131 0.719-3.241 0.719zM6.084 2.263c-0.303 0-0.6 0.084-0.859 0.247-0.381 0.241-0.641 0.616-0.725 1.063-0.934 4.888-2.466 17.003 3.425 23.972 0.575 0.681 1.319 1.238 2.15 1.609 0.809 0.363 1.709 0.556 2.597 0.556 0.9 0 1.762-0.188 2.563-0.559 8.262-3.856 11.947-15.497 13.147-20.322 0.116-0.472 0.006-0.969-0.306-1.369s-0.772-0.628-1.262-0.628c-0.028 0-0.053 0-0.081 0.003-0.847 0.044-1.681 0.066-2.478 0.066-3.313 0-6.344-0.384-9.266-1.178-2.625-0.713-5.294-1.781-8.159-3.275-0.103-0.053-0.216-0.097-0.328-0.128-0.138-0.038-0.275-0.056-0.416-0.056z"></path>
<path d="M9.75 16.403c-1.412-0.384-3.362-2.363-3.006-3.981 0.35-1.597 2.491-1.894 4.331-1.488 0.003 0 0.006 0 0.009 0.003 1.672 0.453 2.612 1.922 2.294 3.384-0.334 1.516-1.906 2.463-3.506 2.112-0.022-0.006-0.106-0.028-0.122-0.031v0zM10.716 12.844c-0.984-0.216-1.928-0.109-2.109 0.066 0.009 0.297 0.938 1.422 1.653 1.616l-0.253 0.938 0.281-0.931c0.553 0.122 1.088-0.159 1.191-0.631 0.097-0.45-0.238-0.912-0.762-1.056v0z"></path>
<path d="M17.972 18.206c-1.528-0.413-2.472-1.884-2.15-3.35 0.166-0.75 0.631-1.381 1.312-1.778 0.656-0.381 1.434-0.5 2.197-0.334l0.291 0.072c1.609 0.438 3.366 1.509 3.019 3.094-0.231 1.044-1.294 1.662-1.909 1.938-0.909 0.406-1.884 0.556-2.609 0.397-0.016-0.003-0.134-0.034-0.15-0.038v0zM19.113 14.694l-0.2-0.050c-0.284-0.063-0.566-0.022-0.8 0.113-0.206 0.122-0.344 0.303-0.391 0.516-0.1 0.45 0.234 0.916 0.759 1.056l-0.253 0.938 0.313-0.925c0.691 0.153 2.069-0.5 2.203-0.859-0.072-0.084-0.678-0.531-1.631-0.787v0z"></path>
<path d="M11.866 25.603c-1.903-0.516-3.425-1.856-4.181-3.681-0.313-0.756-0.169-1.609 0.375-2.228 0.672-0.766 1.781-0.966 2.659-0.45 1.641 0.95 3.569 1.375 5.456 1.197 1.038-0.097 2.006 0.609 2.253 1.628 0.188 0.766-0.044 1.541-0.622 2.075-1.516 1.4-3.625 1.975-5.641 1.531l-0.3-0.072zM9.741 20.925l-0.225 0.053c-0.081 0.094-0.050 0.169-0.037 0.2 0.522 1.262 1.578 2.191 2.894 2.547l0.209 0.053c1.394 0.306 2.853-0.091 3.903-1.063l-0.066-0.334c-2.403 0.206-4.688-0.303-6.678-1.456v0z"></path>
</svg>
