<svg version="1.1" xmlns="http://www.w3.org/2000/svg" width="32" height="32" viewBox="0 0 32 32">
<title>mathematics_calculate_add_subtract_divide_multiply</title>
<path d="M11.104 14.671h-7.541c-1.964 0-3.563-1.598-3.563-3.563v-7.542c0-1.964 1.598-3.563 3.563-3.563h7.541c1.964 0 3.562 1.598 3.562 3.563v7.542c0 1.964-1.598 3.563-3.563 3.563zM3.563 1.337c-1.229 0-2.229 1-2.229 2.229v7.542c0 1.229 1 2.229 2.229 2.229h7.541c1.229 0 2.229-1 2.229-2.229v-7.542c0-1.229-1-2.229-2.229-2.229h-7.541z"></path>
<path d="M9.92 8.004h-5.208c-0.369 0-0.667-0.298-0.667-0.667s0.298-0.667 0.667-0.667h5.208c0.369 0 0.667 0.298 0.667 0.667s-0.298 0.667-0.667 0.667z"></path>
<path d="M7.316 10.608c-0.369 0-0.667-0.298-0.667-0.667v-5.208c0-0.369 0.298-0.667 0.667-0.667s0.667 0.298 0.667 0.667v5.208c0 0.369-0.298 0.667-0.667 0.667z"></path>
<path d="M27.254 8.004h-5.208c-0.369 0-0.667-0.298-0.667-0.667s0.298-0.667 0.667-0.667h5.208c0.369 0 0.667 0.298 0.667 0.667s-0.298 0.667-0.667 0.667z"></path>
<path d="M28.439 14.671h-7.542c-1.965 0-3.563-1.598-3.563-3.563v-7.542c0-1.964 1.598-3.563 3.563-3.563h7.542c1.965 0 3.563 1.598 3.563 3.563v7.542c0 1.964-1.598 3.563-3.563 3.563zM20.897 1.337c-1.229 0-2.229 1-2.229 2.229v7.542c0 1.229 1 2.229 2.229 2.229h7.542c1.229 0 2.229-1 2.229-2.229v-7.542c0-1.229-1-2.229-2.229-2.229h-7.542z"></path>
<path d="M11.104 32.005h-7.541c-1.964 0-3.563-1.598-3.563-3.563v-7.542c0-1.965 1.598-3.563 3.563-3.563h7.541c1.964 0 3.563 1.598 3.563 3.563v7.542c-0 1.965-1.598 3.563-3.563 3.563zM3.563 18.672c-1.229 0-2.229 1-2.229 2.229v7.542c0 1.229 1 2.229 2.229 2.229h7.541c1.229 0 2.229-1 2.229-2.229v-7.542c0-1.229-1-2.229-2.229-2.229h-7.541z"></path>
<path d="M9.157 27.18c-0.171 0-0.341-0.065-0.471-0.195l-3.683-3.682c-0.26-0.26-0.26-0.682 0-0.943s0.682-0.26 0.943 0l3.683 3.682c0.26 0.26 0.26 0.682 0 0.943-0.13 0.13-0.301 0.195-0.471 0.195z"></path>
<path d="M5.474 27.18c-0.171 0-0.341-0.065-0.471-0.195-0.26-0.26-0.26-0.682 0-0.943l3.683-3.682c0.26-0.26 0.682-0.26 0.943 0s0.26 0.682 0 0.943l-3.683 3.682c-0.13 0.13-0.301 0.195-0.471 0.195z"></path>
<path d="M27.254 25.339h-5.208c-0.369 0-0.667-0.298-0.667-0.667s0.298-0.667 0.667-0.667h5.208c0.369 0 0.667 0.298 0.667 0.667s-0.298 0.667-0.667 0.667z"></path>
<path d="M28.439 32.005h-7.542c-1.965 0-3.563-1.598-3.563-3.563v-7.542c0-1.965 1.598-3.563 3.563-3.563h7.542c1.965 0 3.563 1.598 3.563 3.563v7.542c0 1.965-1.598 3.563-3.563 3.563zM20.897 18.672c-1.229 0-2.229 1-2.229 2.229v7.542c0 1.229 1 2.229 2.229 2.229h7.542c1.229 0 2.229-1 2.229-2.229v-7.542c0-1.229-1-2.229-2.229-2.229h-7.542z"></path>
<path d="M24.667 22.667c-0.173 0-0.346-0.066-0.467-0.187-0.133-0.133-0.199-0.306-0.199-0.479s0.066-0.346 0.199-0.467c0.254-0.253 0.681-0.24 0.934 0 0.134 0.134 0.201 0.294 0.201 0.467s-0.066 0.346-0.187 0.479c-0.133 0.121-0.306 0.187-0.479 0.187z"></path>
<path d="M24.667 28c-0.173 0-0.346-0.066-0.467-0.187-0.133-0.133-0.199-0.306-0.199-0.479s0.066-0.346 0.199-0.467c0.227-0.24 0.681-0.253 0.934 0 0.134 0.134 0.201 0.307 0.201 0.467 0 0.173-0.066 0.346-0.187 0.466-0.146 0.134-0.306 0.201-0.479 0.201z"></path>
</svg>
