<!-- Generated by IcoMoon.io -->
<svg version="1.1" xmlns="http://www.w3.org/2000/svg" width="32" height="32" viewBox="0 0 32 32">
<title>mathematics_curve_coordinate_system</title>
<path d="M30.439 29.333h-27.124c-0.369 0-0.667-0.298-0.667-0.667v-27.057c0-0.369 0.298-0.667 0.667-0.667s0.667 0.298 0.667 0.667v26.391h26.457c0.369 0 0.667 0.298 0.667 0.667s-0.298 0.667-0.667 0.667z"></path>
<path d="M7.327 25.25c-0.368 0-0.666-0.298-0.667-0.667 0-0.367 0.298-0.667 0.666-0.667 0.775-0.001 18.987-0.245 19.111-19.114 0.003-0.367 0.301-0.662 0.667-0.662 0.001 0 0.003 0 0.004 0 0.369 0.003 0.665 0.303 0.663 0.671-0.133 20.205-20.24 20.438-20.443 20.438z"></path>
<path d="M28.447 31.369c-0.171 0-0.341-0.065-0.471-0.195-0.26-0.26-0.26-0.682 0-0.943l1.521-1.521-1.521-1.521c-0.26-0.26-0.26-0.682 0-0.943s0.682-0.26 0.943 0l1.992 1.992c0.26 0.26 0.26 0.682 0 0.943l-1.992 1.992c-0.13 0.13-0.301 0.195-0.471 0.195z"></path>
<path d="M5.307 4.268c-0.171 0-0.341-0.065-0.471-0.195l-1.521-1.521-1.521 1.521c-0.26 0.26-0.682 0.26-0.943 0s-0.26-0.682 0-0.943l1.993-1.992c0.26-0.26 0.682-0.26 0.943 0l1.992 1.992c0.26 0.26 0.26 0.682 0 0.943-0.13 0.13-0.301 0.195-0.471 0.195z"></path>
</svg>
