<!-- Generated by IcoMoon.io -->
<svg version="1.1" xmlns="http://www.w3.org/2000/svg" width="32" height="32" viewBox="0 0 32 32">
<title>mathematics_root_equation</title>
<path d="M8.023 30.616c-0.262 0-0.502-0.154-0.609-0.397l-3.93-8.867h-2.513c-0.369 0-0.667-0.298-0.667-0.667s0.298-0.667 0.667-0.667h2.947c0.264 0 0.503 0.155 0.609 0.397l3.322 7.496 5.905-23.427c0.075-0.296 0.341-0.504 0.647-0.504h16.591c0.369 0 0.667 0.298 0.667 0.667s-0.298 0.667-0.667 0.667h-16.072l-6.251 24.798c-0.070 0.276-0.307 0.478-0.59 0.501-0.019 0.001-0.038 0.003-0.057 0.003z"></path>
<path d="M28.583 30.534c-0.171 0-0.341-0.065-0.471-0.195l-11.837-11.839c-0.26-0.26-0.26-0.682 0-0.943s0.682-0.26 0.943 0l11.837 11.839c0.26 0.26 0.26 0.682 0 0.943-0.13 0.13-0.301 0.195-0.471 0.195z"></path>
<path d="M16.746 30.534c-0.171 0-0.341-0.065-0.471-0.195-0.26-0.26-0.26-0.682 0-0.943l11.837-11.839c0.26-0.26 0.682-0.26 0.943 0s0.26 0.682 0 0.943l-11.837 11.839c-0.13 0.13-0.301 0.195-0.471 0.195z"></path>
</svg>
