<svg version="1.1" xmlns="http://www.w3.org/2000/svg" width="32" height="32" viewBox="0 0 32 32">
<title>meal_eating_restaurant_offer</title>
<path d="M30.667 29.359h-29.333c-0.369 0-0.667-0.298-0.667-0.667s0.298-0.667 0.667-0.667h29.333c0.369 0 0.667 0.298 0.667 0.667s-0.298 0.667-0.667 0.667z"></path>
<path d="M29.19 26.693h-26.535c-0.369 0-0.667-0.298-0.667-0.667 0-8.078 5.86-13.941 13.934-13.941s13.934 5.863 13.934 13.941c0 0.369-0.298 0.667-0.667 0.667zM3.337 25.359h25.173c-0.313-6.96-5.509-11.941-12.587-11.941s-12.273 4.982-12.586 11.941z"></path>
<path d="M17.491 11.583c-0.369 0-0.667-0.298-0.667-0.667 0-1.654-1.802-1.659-1.803 0 0 0.369-0.298 0.667-0.667 0.667s-0.667-0.298-0.667-0.667c0-0.948 0.365-1.533 0.672-1.857 1.179-1.247 3.797-0.697 3.797 1.857 0 0.369-0.298 0.667-0.667 0.667z"></path>
<path d="M7.089 23.496c-0.061 0-0.124-0.008-0.186-0.026-0.353-0.103-0.557-0.473-0.454-0.827 1.005-3.458 2.927-5.819 5.711-7.016 0.341-0.147 0.731 0.012 0.876 0.349s-0.011 0.731-0.349 0.876c-2.435 1.048-4.057 3.064-4.958 6.164-0.085 0.292-0.351 0.481-0.64 0.481z"></path>
<path d="M15.922 6.598c-0.369 0-0.667-0.298-0.667-0.667v-5.101c0-0.369 0.298-0.667 0.667-0.667s0.667 0.298 0.667 0.667v5.102c0 0.368-0.298 0.667-0.667 0.667z"></path>
<path d="M23.546 9.771c-0.167 0-0.332-0.062-0.462-0.186-0.266-0.255-0.273-0.677-0.018-0.943l3.957-4.122c0.255-0.267 0.677-0.271 0.943-0.019 0.266 0.255 0.273 0.677 0.018 0.943l-3.957 4.122c-0.13 0.137-0.306 0.205-0.48 0.205z"></path>
<path d="M8.3 9.771c-0.175 0-0.35-0.068-0.481-0.205l-3.958-4.122c-0.255-0.266-0.246-0.687 0.019-0.943s0.687-0.247 0.943 0.019l3.958 4.122c0.255 0.266 0.246 0.687-0.019 0.943-0.129 0.124-0.296 0.186-0.462 0.186z"></path>
<path d="M27.488 32.026h-23.131c-0.229 0-0.443-0.119-0.564-0.313l-1.675-2.667c-0.129-0.206-0.136-0.465-0.019-0.677s0.341-0.344 0.583-0.344h26.481c0.242 0 0.466 0.131 0.583 0.344s0.111 0.471-0.018 0.677l-1.675 2.667c-0.122 0.194-0.336 0.313-0.565 0.313zM4.725 30.693h22.395l0.837-1.333h-24.069l0.837 1.333z"></path>
</svg>
