<svg version="1.1" xmlns="http://www.w3.org/2000/svg" width="32" height="32" viewBox="0 0 32 32">
<title>medal_award_rating_prize_achievement2</title>
<path d="M20.675 14.383c-0.369 0-0.667-0.298-0.667-0.667v-12.405h-7.941v12.405c0 0.369-0.298 0.667-0.667 0.667s-0.667-0.298-0.667-0.667v-13.072c0-0.369 0.298-0.667 0.667-0.667h9.274c0.369 0 0.667 0.298 0.667 0.667v13.072c0 0.369-0.298 0.667-0.667 0.667z"></path>
<path d="M9.777 31.887c-0.416 0-0.814-0.202-1.065-0.54-0.247-0.335-0.318-0.757-0.195-1.16l1.941-6.346-5.344-4.008c-0.455-0.342-0.635-0.914-0.46-1.454 0.175-0.542 0.654-0.9 1.221-0.911l6.719-0.135 2.204-6.273c0.187-0.533 0.673-0.877 1.24-0.877 0.565 0 1.052 0.344 1.24 0.876l2.203 6.273 6.719 0.135c0.569 0.012 1.049 0.37 1.224 0.911 0.173 0.542-0.008 1.112-0.461 1.453l-5.345 4.009 1.943 6.346c0.122 0.404 0.052 0.825-0.195 1.16-0.251 0.339-0.648 0.54-1.065 0.54v0c-0.263 0-0.519-0.081-0.741-0.233l-5.521-3.801-5.519 3.801c-0.221 0.152-0.478 0.233-0.742 0.233zM16.038 26.376c0.131 0 0.264 0.039 0.378 0.117l5.898 4.061-2.109-6.772c-0.082-0.268 0.013-0.56 0.238-0.729l5.719-4.289-7.169-0.109c-0.279-0.005-0.523-0.184-0.616-0.445l-2.357-6.71-2.321 6.71c-0.092 0.262-0.337 0.44-0.615 0.445l-7.181 0.145 5.728 4.254c0.225 0.169 0.32 0.46 0.238 0.729l-2.061 6.741 5.852-4.030c0.114-0.078 0.246-0.117 0.378-0.117z"></path>
</svg>
