<svg version="1.1" xmlns="http://www.w3.org/2000/svg" width="32" height="32" viewBox="0 0 32 32">
<title>medal_award_rating_prize_achievement</title>
<path d="M11.32 31.786c-0.086 0-0.173-0.017-0.255-0.051-0.249-0.103-0.411-0.346-0.411-0.616v-11.772c0-0.369 0.298-0.667 0.667-0.667s0.667 0.298 0.667 0.667v10.165l3.648-3.641c0.259-0.26 0.682-0.26 0.942 0l3.646 3.639v-10.164c0-0.369 0.298-0.667 0.667-0.667s0.667 0.298 0.667 0.667v11.772c0 0.269-0.163 0.513-0.411 0.616-0.246 0.103-0.535 0.047-0.727-0.145l-4.313-4.306-4.314 4.306c-0.127 0.128-0.297 0.195-0.471 0.195z"></path>
<path d="M18.143 17.937c-0.839 0-1.658-0.311-2.297-0.853-0.999 0.764-2.393 0.951-3.561 0.44-1.191-0.527-1.967-1.652-2.075-2.927-1.286-0.16-2.377-0.992-2.85-2.21-0.475-1.226-0.222-2.579 0.616-3.555-0.779-1.015-0.962-2.369-0.437-3.559 0.518-1.173 1.645-1.962 2.925-2.074 0.157-1.28 0.987-2.378 2.214-2.85 1.188-0.46 2.585-0.204 3.552 0.617 1.001-0.767 2.395-0.954 3.56-0.44 1.191 0.525 1.967 1.651 2.074 2.927 1.286 0.159 2.376 0.992 2.849 2.212 0.477 1.224 0.224 2.575-0.616 3.553 0.779 1.015 0.962 2.37 0.436 3.56-0.517 1.172-1.643 1.96-2.923 2.073-0.158 1.277-0.987 2.375-2.212 2.85-0.404 0.156-0.827 0.236-1.255 0.236zM15.869 15.486c0.006 0 0.012 0 0.018 0 0.198 0.005 0.384 0.099 0.507 0.255 0.591 0.753 1.642 1.063 2.523 0.717 0.9-0.349 1.454-1.244 1.38-2.229-0.014-0.198 0.060-0.393 0.203-0.531s0.331-0.21 0.538-0.182c0.984 0.11 1.897-0.417 2.277-1.278 0.387-0.875 0.15-1.898-0.59-2.544-0.15-0.131-0.233-0.322-0.228-0.52s0.099-0.384 0.255-0.507c0.779-0.61 1.068-1.623 0.719-2.521-0.327-0.844-1.135-1.389-2.057-1.389l-0.172 0.007c-0.199 0.010-0.393-0.060-0.531-0.203s-0.204-0.341-0.182-0.538c0.112-0.977-0.401-1.893-1.277-2.279-0.866-0.383-1.914-0.129-2.543 0.591-0.133 0.15-0.335 0.23-0.521 0.228-0.199-0.006-0.385-0.1-0.507-0.256-0.588-0.753-1.634-1.060-2.521-0.716-0.901 0.347-1.455 1.242-1.382 2.228 0.015 0.198-0.059 0.393-0.203 0.53s-0.333 0.211-0.538 0.182c-0.965-0.113-1.897 0.416-2.277 1.279-0.387 0.874-0.15 1.896 0.59 2.544 0.149 0.131 0.232 0.321 0.227 0.519s-0.1 0.384-0.256 0.507c-0.777 0.609-1.065 1.623-0.717 2.523 0.327 0.842 1.136 1.387 2.062 1.387l0.168-0.006c0.205-0.014 0.393 0.061 0.53 0.203 0.138 0.143 0.204 0.341 0.182 0.538-0.111 0.975 0.402 1.891 1.278 2.278 0.863 0.38 1.915 0.13 2.544-0.591 0.126-0.145 0.31-0.228 0.502-0.228zM16.034 12.474c-0.48 0-0.947-0.099-1.389-0.294-0.842-0.372-1.489-1.050-1.822-1.909s-0.311-1.796 0.061-2.638c0.745-1.689 2.846-2.514 4.547-1.763 1.738 0.768 2.529 2.808 1.76 4.548-0.552 1.249-1.792 2.055-3.157 2.055zM16.040 6.91c-0.839 0-1.598 0.495-1.937 1.262-0.229 0.516-0.242 1.091-0.037 1.618s0.601 0.943 1.117 1.171c1.046 0.464 2.333-0.047 2.789-1.080 0.47-1.067-0.014-2.319-1.081-2.79-0.271-0.12-0.557-0.18-0.852-0.18z"></path>
</svg>
