<svg version="1.1" xmlns="http://www.w3.org/2000/svg" width="32" height="32" viewBox="0 0 32 32">
<title>medal_first_place_winner_award_prize_achievement</title>
<path d="M14.228 10.090c-0.212 0-0.421-0.101-0.551-0.29l-5.9-8.605c-0.208-0.303-0.131-0.719 0.173-0.927 0.304-0.207 0.718-0.131 0.927 0.173l5.9 8.605c0.208 0.303 0.131 0.719-0.173 0.927-0.115 0.079-0.247 0.117-0.376 0.117z"></path>
<path d="M13.063 16.508c-0.212 0-0.421-0.102-0.551-0.289l-10.301-15.023c-0.208-0.303-0.131-0.719 0.173-0.927 0.305-0.207 0.717-0.131 0.927 0.173l10.301 15.023c0.208 0.303 0.131 0.718-0.173 0.926-0.115 0.079-0.247 0.117-0.376 0.117z"></path>
<path d="M18.979 16.574c-0.13 0-0.26-0.038-0.375-0.116-0.305-0.207-0.383-0.621-0.176-0.926l10.262-15.089c0.208-0.305 0.625-0.381 0.926-0.176 0.305 0.207 0.383 0.622 0.176 0.926l-10.262 15.089c-0.129 0.19-0.339 0.292-0.551 0.292z"></path>
<path d="M13.516 16.359c-0.13 0-0.261-0.038-0.376-0.117-0.304-0.208-0.381-0.623-0.173-0.926l9.007-13.134c0.21-0.304 0.622-0.379 0.927-0.173 0.303 0.208 0.38 0.624 0.172 0.927l-9.006 13.135c-0.13 0.188-0.339 0.289-0.551 0.289z"></path>
<path d="M15.932 31.917c-4.915 0-8.913-3.866-8.913-8.619s3.999-8.62 8.913-8.62c4.915 0 8.914 3.867 8.914 8.62s-3.999 8.619-8.914 8.619zM15.932 16.012c-4.18 0-7.58 3.268-7.58 7.286 0 4.017 3.4 7.285 7.58 7.285s7.581-3.268 7.581-7.285c0-4.018-3.401-7.286-7.581-7.286z"></path>
<path d="M16.552 27.779c-0.369 0-0.667-0.298-0.667-0.667v-6.43l-0.817 0.301c-0.344 0.129-0.729-0.048-0.857-0.395-0.127-0.345 0.049-0.728 0.395-0.855l1.715-0.633c0.201-0.078 0.432-0.048 0.612 0.078 0.178 0.125 0.285 0.329 0.285 0.547v7.387c0 0.369-0.298 0.667-0.667 0.667z"></path>
</svg>
