<svg version="1.1" xmlns="http://www.w3.org/2000/svg" width="32" height="32" viewBox="0 0 32 32">
<title>medicine_health_injection_ill</title>
<path d="M10.22 27.964c-0.177 0-0.346-0.070-0.471-0.195l-5.426-5.426c-0.125-0.125-0.195-0.294-0.195-0.471s0.070-0.346 0.195-0.471l14.38-14.38c0.26-0.26 0.682-0.26 0.943 0l5.426 5.425c0.26 0.26 0.26 0.682 0 0.943l-14.38 14.381c-0.125 0.125-0.294 0.195-0.471 0.195zM5.737 21.871l4.483 4.483 13.438-13.438-4.483-4.482-13.438 13.437z"></path>
<path d="M21.888 10.87c-0.171 0-0.341-0.065-0.471-0.195-0.26-0.26-0.26-0.682 0-0.943l7.281-7.282c0.26-0.26 0.682-0.26 0.943 0s0.26 0.682 0 0.943l-7.281 7.282c-0.13 0.13-0.301 0.195-0.471 0.195z"></path>
<path d="M17.464 12.582c-0.171 0-0.341-0.065-0.471-0.195l-1.357-1.356c-0.26-0.26-0.26-0.682 0-0.943s0.682-0.26 0.943 0l1.357 1.356c0.26 0.26 0.26 0.682 0 0.943-0.13 0.13-0.301 0.195-0.471 0.195z"></path>
<path d="M16.962 15.796c-0.171 0-0.341-0.065-0.471-0.195l-2.713-2.713c-0.26-0.26-0.26-0.682 0-0.943s0.682-0.26 0.943 0l2.713 2.713c0.26 0.26 0.26 0.682 0 0.943-0.13 0.13-0.301 0.195-0.471 0.195z"></path>
<path d="M13.749 16.297c-0.171 0-0.341-0.065-0.471-0.195l-1.356-1.357c-0.26-0.26-0.26-0.682 0-0.943s0.682-0.26 0.943 0l1.356 1.356c0.26 0.26 0.26 0.682 0 0.943-0.13 0.13-0.301 0.195-0.471 0.195z"></path>
<path d="M13.248 19.509c-0.171 0-0.341-0.065-0.471-0.195l-2.713-2.712c-0.26-0.26-0.26-0.682 0-0.943s0.682-0.26 0.943 0l2.713 2.712c0.26 0.26 0.26 0.682 0 0.943-0.13 0.13-0.301 0.195-0.471 0.195z"></path>
<path d="M10.035 20.010c-0.171 0-0.341-0.065-0.471-0.195l-1.357-1.357c-0.26-0.26-0.26-0.682 0-0.943s0.682-0.26 0.943 0l1.357 1.357c0.26 0.26 0.26 0.682 0 0.943-0.13 0.13-0.301 0.195-0.471 0.195z"></path>
<path d="M9.533 23.224c-0.171 0-0.341-0.065-0.471-0.195l-2.712-2.712c-0.26-0.26-0.26-0.682 0-0.943s0.682-0.26 0.943 0l2.712 2.712c0.26 0.26 0.26 0.682 0 0.943-0.13 0.13-0.301 0.195-0.471 0.195z"></path>
<path d="M6.234 31.948c-0.171 0-0.341-0.065-0.471-0.195l-5.425-5.425c-0.26-0.26-0.26-0.682 0-0.943s0.682-0.26 0.943 0l5.425 5.425c0.26 0.26 0.26 0.682 0 0.943-0.13 0.13-0.301 0.195-0.471 0.195z"></path>
<path d="M4.838 30.551c-0.171 0-0.341-0.065-0.471-0.195l-2.631-2.63c-0.125-0.125-0.195-0.294-0.195-0.471s0.070-0.346 0.195-0.471l3.985-3.986c0.26-0.26 0.682-0.26 0.943 0l2.631 2.63c0.125 0.125 0.195 0.294 0.195 0.471s-0.070 0.346-0.195 0.471l-3.985 3.986c-0.13 0.13-0.301 0.195-0.471 0.195zM3.15 27.254l1.688 1.687 3.042-3.043-1.688-1.687-3.042 3.043z"></path>
<path d="M29.169 16.306c-1.467 0-2.661-1.194-2.661-2.661 0-0.637 1.769-4.912 2.661-4.912s2.66 4.275 2.66 4.912c0 1.467-1.193 2.661-2.66 2.661zM29.169 10.663c-0.56 0.977-1.328 2.456-1.328 2.981 0 0.732 0.596 1.328 1.328 1.328s1.327-0.596 1.327-1.328c0-0.533-0.764-2.006-1.327-2.981z"></path>
</svg>
