<svg version="1.1" xmlns="http://www.w3.org/2000/svg" width="32" height="32" viewBox="0 0 32 32">
<title>meeting_presentation_speech_speaker_keynote</title>
<path d="M29.763 17.333h-27.566c-0.281 0-0.545-0.142-0.706-0.38-0.165-0.243-0.199-0.548-0.092-0.816l3.914-10.262c0.139-0.336 0.451-0.542 0.802-0.542h19.73c0.359 0 0.664 0.195 0.794 0.509l3.927 10.314c0.102 0.255 0.068 0.557-0.095 0.798-0.16 0.237-0.426 0.379-0.708 0.379zM2.878 16h26.201l-3.552-9.333h-19.089l-3.56 9.333z"></path>
<path d="M15.981 29.758c-0.369 0-0.667-0.298-0.667-0.667v-12.425c0-0.369 0.298-0.667 0.667-0.667s0.667 0.298 0.667 0.667v12.425c0 0.368-0.298 0.667-0.667 0.667z"></path>
<path d="M15.981 31.813c-2.915 0-5.866-0.908-5.866-2.642 0-3.469 11.732-3.469 11.732 0 0 1.734-2.951 2.642-5.866 2.642zM15.981 27.862c-2.944 0-4.533 0.928-4.533 1.309s1.589 1.309 4.533 1.309 4.533-0.928 4.533-1.309-1.589-1.309-4.533-1.309z"></path>
<path d="M8.676 9.407c-0.369 0-0.667-0.298-0.667-0.667v-3.883c0-0.691 0.269-1.341 0.757-1.83l2.051-2.051c0.591-0.591 1.437-0.863 2.259-0.723l2.089 0.35c0.363 0.061 0.608 0.405 0.547 0.768s-0.408 0.612-0.768 0.547l-2.089-0.35c-0.4-0.068-0.81 0.064-1.096 0.35l-2.051 2.051c-0.236 0.237-0.367 0.553-0.367 0.888v3.883c0 0.368-0.298 0.667-0.667 0.667z"></path>
<path d="M20.432 14.667c-0.007 0-0.016 0.001-0.026 0h-8.859c-0.197 0-0.383-0.087-0.509-0.236s-0.181-0.348-0.148-0.542l0.679-4c0.055-0.321 0.333-0.555 0.657-0.555h7.5c0.325 0 0.603 0.234 0.658 0.555l0.648 3.822c0.043 0.088 0.066 0.186 0.066 0.29 0 0.369-0.298 0.667-0.667 0.667zM12.337 13.333h7.281l-0.453-2.667h-6.374l-0.453 2.667z"></path>
<path d="M15.977 14.667c-0.369 0-0.667-0.298-0.667-0.667v-4c0-0.369 0.298-0.667 0.667-0.667s0.667 0.298 0.667 0.667v4c0 0.369-0.298 0.667-0.667 0.667z"></path>
</svg>
