<svg version="1.1" xmlns="http://www.w3.org/2000/svg" width="32" height="32" viewBox="0 0 32 32">
<title>men_women_toilet_wc_restroom2</title>
<path d="M15.982 31.93c-0.369 0-0.667-0.298-0.667-0.667v-30.633c0-0.369 0.298-0.667 0.667-0.667s0.667 0.298 0.667 0.667v30.633c0 0.368-0.298 0.667-0.667 0.667z"></path>
<path d="M26.078 31.823c-0.369 0-0.667-0.298-0.667-0.667v-7.858c0-0.369 0.298-0.667 0.667-0.667h2.852l-2.615-6.553c-0.047-0.117-0.059-0.246-0.035-0.37l0.586-3.105c0.086-2.785-0.007-3.837-0.073-4.224l-1.576 1.703c-0.253 0.272-0.727 0.272-0.979 0l-1.575-1.703c-0.066 0.391-0.156 1.462-0.063 4.325l0.575 3.003c0.023 0.124 0.012 0.253-0.035 0.37l-2.616 6.553h2.852c0.369 0 0.667 0.298 0.667 0.667v7.858c0 0.369-0.298 0.667-0.667 0.667s-0.667-0.298-0.667-0.667v-7.191h-3.169c-0.221 0-0.428-0.109-0.552-0.293-0.124-0.182-0.148-0.415-0.068-0.621l2.909-7.286-0.551-2.915c-0.178-5.242 0.175-5.492 0.673-5.687 0.034-0.017 0.070-0.031 0.108-0.042 0.465-0.138 1.019-0.253 1.337 0.089l1.331 1.437 1.329-1.437c0.318-0.342 0.872-0.227 1.337-0.089 0.038 0.011 0.073 0.025 0.108 0.042 0.5 0.195 0.853 0.447 0.685 5.585l-0.563 3.016 2.909 7.287c0.081 0.206 0.056 0.439-0.068 0.621-0.124 0.184-0.331 0.293-0.552 0.293h-3.169v7.191c0 0.369-0.298 0.667-0.666 0.667z"></path>
<path d="M7.311 31.93v0c-0.369 0-0.667-0.298-0.667-0.667l0.001-10.595c0-0.369 0.299-0.667 0.667-0.667v0c0.369 0 0.667 0.298 0.667 0.667l-0.001 10.595c0 0.368-0.299 0.667-0.667 0.667z"></path>
<path d="M7.312 6.030c-1.553 0-2.584-1.928-2.584-3.204 0-1.425 1.159-2.583 2.584-2.583s2.583 1.159 2.583 2.583c0 1.275-1.031 3.204-2.583 3.204zM7.312 1.576c-0.689 0-1.251 0.561-1.251 1.25 0 0.773 0.647 1.87 1.251 1.87s1.25-1.098 1.25-1.87c0-0.689-0.561-1.25-1.25-1.25z"></path>
<path d="M24.728 6.32c-1.495 0-2.487-1.928-2.487-3.203 0-1.425 1.116-2.584 2.487-2.584s2.486 1.159 2.486 2.584c0 1.275-0.991 3.203-2.486 3.203zM24.728 1.867c-0.637 0-1.154 0.561-1.154 1.251 0 0.822 0.647 1.87 1.154 1.87s1.152-1.048 1.152-1.87c0-0.689-0.517-1.251-1.152-1.251z"></path>
<path d="M9.792 31.93c-0.013 0-0.026 0-0.039-0.001-0.368-0.021-0.648-0.336-0.627-0.703l0.758-13.155c0.010-0.18 0.124-0.417 0.26-0.534 0.204-0.177 0.436-0.208 0.665-0.206 0.225-6.66-0.135-8.673-0.307-9.239-0.135-0.005-0.306-0.012-0.46-0.018l-0.404-0.018c-0.073-0.012-0.15 0.077-0.187 0.148-0.382 0.741-1.203 1.201-2.14 1.201-0.001 0-0.001 0-0.001 0-0.938-0.001-1.758-0.46-2.139-1.2-0.037-0.072-0.12-0.157-0.187-0.149l-0.404 0.018c-0.161 0.007-0.342 0.014-0.489 0.021-0.123 0.456-0.509 2.39-0.277 9.236 0.223-0.004 0.462 0.029 0.665 0.206 0.139 0.12 0.253 0.361 0.26 0.544l0.757 13.145c0.021 0.367-0.26 0.682-0.627 0.703-0.373 0.026-0.683-0.259-0.704-0.628l-0.726-12.604c-0.223 0.014-0.473-0.021-0.681-0.202-0.139-0.121-0.25-0.357-0.257-0.54-0.377-10.049 0.487-10.769 0.771-11.006 0.072-0.061 0.156-0.105 0.247-0.13 0.126-0.035 0.277-0.047 1.007-0.077l0.376-0.017c0.609-0.034 1.159 0.296 1.456 0.869 0.15 0.29 0.524 0.478 0.954 0.478h0.001c0.43 0 0.805-0.187 0.954-0.478 0.295-0.573 0.839-0.904 1.456-0.869l0.376 0.017c0.731 0.030 0.881 0.042 1.007 0.077 0.090 0.025 0.173 0.069 0.244 0.129 0.285 0.235 1.149 0.952 0.773 11.007-0.007 0.184-0.118 0.419-0.257 0.54-0.209 0.181-0.449 0.219-0.682 0.202l-0.727 12.604c-0.020 0.355-0.314 0.629-0.665 0.629z"></path>
</svg>
