<!-- Generated by IcoMoon.io -->
<svg version="1.1" xmlns="http://www.w3.org/2000/svg" width="32" height="32" viewBox="0 0 32 32">
<title>menu_hambuger_bold</title>
<path d="M1.415 7.98c0.127 0.671 0.688 1.187 1.395 1.187h26.383c0.707 0 1.268-0.517 1.395-1.187 0.033-0.080 0.052-0.168 0.052-0.26s-0.019-0.18-0.052-0.26c-0.127-0.671-0.688-1.187-1.395-1.187h-26.384c-0.707 0-1.268 0.517-1.395 1.187-0.033 0.080-0.052 0.168-0.052 0.26s0.019 0.18 0.053 0.26z"></path>
<path d="M30.585 24.020c-0.127-0.671-0.688-1.187-1.395-1.187h-26.383c-0.707 0-1.268 0.517-1.395 1.187-0.033 0.080-0.052 0.168-0.052 0.26s0.019 0.18 0.052 0.26c0.127 0.671 0.688 1.187 1.395 1.187h26.383c0.707 0 1.268-0.517 1.395-1.187 0.033-0.080 0.052-0.168 0.052-0.26s-0.017-0.18-0.052-0.26z"></path>
<path d="M30.596 15.789c-0.005-0.016-0.004-0.033-0.009-0.048-0.127-0.671-0.688-1.188-1.395-1.188h-26.384c-0.707 0-1.268 0.517-1.395 1.188-0.007 0.015-0.004 0.033-0.009 0.048-0.011 0.072-0.043 0.136-0.043 0.211 0 0 0 0 0 0s0 0 0 0c0 0.092 0.019 0.18 0.052 0.26 0.127 0.671 0.688 1.187 1.395 1.187h26.383c0.707 0 1.268-0.517 1.395-1.187 0.033-0.080 0.052-0.168 0.052-0.26 0 0 0 0 0 0s0 0 0 0c0.001-0.075-0.031-0.139-0.041-0.211z"></path>
</svg>
