<svg version="1.1" xmlns="http://www.w3.org/2000/svg" width="32" height="32" viewBox="0 0 32 32">
<title>message_text_like_favorite</title>
<path d="M20.668 16.083c-0.184 0.036-0.378-0.083-0.504-0.23l-7.173-8.289c-0.867-1.137-1.155-2.542-0.816-3.888 0.518-2.060 2.389-3.499 4.551-3.499 1.625 0 3.143 0.808 4.027 2.044 0.885-1.236 2.404-2.044 4.029-2.044 2.587 0 4.693 2.064 4.693 4.602 0 1.081-0.391 2.132-1.099 2.959l-7.21 8.122c-0.126 0.143-0.309 0.223-0.499 0.223zM16.727 1.51c-1.55 0-2.89 1.025-3.258 2.492-0.24 0.951-0.036 1.943 0.557 2.723l6.649 7.682 6.697-7.545c0.495-0.576 0.771-1.319 0.771-2.082 0-1.803-1.507-3.269-3.359-3.269-1.542 0-2.997 1.029-3.388 2.395-0.081 0.286-0.342 0.484-0.641 0.484v0c-0.298 0-0.56-0.198-0.641-0.484-0.389-1.365-1.845-2.394-3.387-2.394z"></path>
<path d="M21.38 26.664h-11.999c-0.369 0-0.667-0.298-0.667-0.667s0.298-0.667 0.667-0.667h11.999c0.369 0 0.667 0.298 0.667 0.667s-0.298 0.667-0.667 0.667z"></path>
<path d="M21.38 22.664h-11.999c-0.369 0-0.667-0.298-0.667-0.667s0.298-0.667 0.667-0.667h11.999c0.369 0 0.667 0.298 0.667 0.667s-0.298 0.667-0.667 0.667z"></path>
<path d="M14.714 18.664h-5.333c-0.369 0-0.667-0.298-0.667-0.667s0.298-0.667 0.667-0.667h5.333c0.369 0 0.667 0.298 0.667 0.667s-0.298 0.667-0.667 0.667z"></path>
<path d="M25.023 31.982h-19.47c-0.884 0-1.603-0.716-1.603-1.595v-24.831c0-0.879 0.719-1.594 1.603-1.594h4.546c0.369 0 0.667 0.298 0.667 0.667s-0.298 0.667-0.667 0.667h-4.546c-0.149 0-0.27 0.117-0.27 0.261v24.831c0 0.145 0.121 0.262 0.27 0.262h19.47c0.15 0 0.271-0.117 0.271-0.262v-15.029c0-0.369 0.298-0.667 0.667-0.667s0.667 0.298 0.667 0.667v15.029c0 0.879-0.72 1.595-1.604 1.595z"></path>
</svg>
