<!-- Generated by IcoMoon.io -->
<svg version="1.1" xmlns="http://www.w3.org/2000/svg" width="9748" height="1024" viewBox="0 0 9748 1024">
<title>mitre_attack</title>
<desc>mitre,attck,attack,logo</desc>
<g id="icomoon-ignore"></g>
<path d="M862.078 16.136l-240.908 620.155-243.052-620.155h-192.162l-185.956 992.067h198.255l117.802-621.396 229.624 621.396h148.833l229.286-621.396 118.141 621.396h204.010l-191.711-992.067z"></path>
<path d="M1295.825 16.136h185.956v992.067h-185.956v-992.067z"></path>
<path d="M1542.601 177.268h218.002v830.935h184.602v-830.935h218.453v-161.132h-621.057z"></path>
<path d="M2720.624 575.133c52.018-15.12 99.071-43.781 136.533-82.936 48.407-51.454 73.119-120.736 68.267-191.147 4.513-67.59-17.715-134.277-61.722-185.618-34.641-37.575-78.309-65.559-126.942-81.243-28.886-9.591-58.788-15.684-89.029-18.054h-441.759v992.067h185.956v-824.842h217.099c34.641-1.016 68.267 11.171 94.219 34.077 22.906 22.342 35.318 53.372 34.077 85.305 1.128 34.19-14.218 66.8-41.299 87.675-21.89 17.603-48.971 27.532-77.181 28.322h-194.532v178.509l302.404 409.487h223.531l-330.050-412.985c34.19-2.031 67.928-8.237 100.425-18.618z"></path>
<path d="M2974.847 1008.203h574.004v-161.019h-387.935v-254.674h384.55v-161.019h-384.55v-254.223h387.935v-161.132h-574.004z"></path>
<path d="M5153.174 18.844l-405.764 986.651h170.61l90.834-233.461h421.109l93.542 233.461h170.61l-398.542-986.651h-142.401zM5050.831 645.43l166.548-443.677 170.61 443.677h-337.158z"></path>
<path d="M5560.743 157.408h226.578v848.086h157.295v-848.086h226.578v-138.564h-610.451z"></path>
<path d="M6828.246 18.844h-610.564v138.564h226.578v848.086h157.295v-848.086h226.69z"></path>
<path d="M7654.781 406.892h-146.802l-115.997 227.932-170.61-173.318c74.36-39.944 175.801-98.62 175.801-230.753-1.918-129.199-108.211-232.558-237.523-230.753-1.128 0-2.37 0-3.498 0.113-131.907-2.821-241.134 101.779-243.955 233.686 0 0.339 0 0.79 0 1.128 2.708 85.305 46.715 149.171 113.289 219.807-87.675 46.715-218.453 129.312-218.453 288.074 0 149.51 121.187 281.191 316.058 281.191 158.649 0 234.476-79.889 287.736-182.571l176.139 182.571 95.912-93.542-197.24-201.302 169.143-322.264zM7156.152 117.464v0c60.707-1.693 111.258 46.038 112.95 106.744 0 1.693 0 3.498 0 5.191 0 74.698-47.73 107.873-129.312 153.233-38.59-41.299-90.383-88.013-90.383-155.941-1.467-58.788 44.909-107.647 103.698-109.227 1.016 0 2.031 0 3.047 0zM7128.168 890.852c-89.254 4.852-165.533-63.415-170.385-152.669-0.113-2.482-0.226-4.965-0.226-7.447 0-71.99 44.007-134.841 153.233-189.454l204.8 209.539c-42.088 85.418-88.803 140.031-187.423 140.031z"></path>
<path d="M8224.723 138.677c128.748 0.451 246.663 71.652 307.144 185.279h166.548c-74.473-196.563-263.588-325.875-473.692-323.844-279.724-4.513-510.025 218.453-514.652 498.177-0.113 4.626-0.113 9.14 0 13.766-1.693 280.965 224.659 510.251 505.738 511.944 3.385 0 6.883 0 10.268 0 207.847 4.175 395.721-123.557 468.275-318.427h-165.533c-62.061 109.791-177.945 178.283-304.097 179.863-207.847 0-357.356-170.61-357.356-375.41 0.677-199.384 147.479-371.348 357.356-371.348z"></path>
<path d="M9458.713 18.844h-166.887l-361.080 466.583v-466.583h-157.295v986.651h157.295v-454.622l373.379 454.622h193.178l-422.463-494.905z"></path>
<path d="M4129.738 5.868h25.614v1012.265h-25.614v-1012.265z"></path>
<path d="M9638.238 9.027c60.707 0.226 109.791 49.536 109.565 110.242s-49.536 109.791-110.242 109.565c-60.594-0.226-109.565-49.31-109.565-109.904-0.226-60.481 48.746-109.678 109.227-109.904 0.339 0 0.677 0 1.016 0zM9638.238 27.42c-49.536 0-89.706 40.17-89.819 89.706 0 0.564 0 1.128 0 1.693 0 49.536 40.17 89.706 89.706 89.706s89.706-40.17 89.706-89.706c0.79-49.761-38.929-90.721-88.69-91.398-0.451 0-0.903 0-1.354 0h0.451z"></path>
<path d="M9686.758 91.85c0-25.276-15.346-36.559-46.038-36.559h-48.069v122.993h24.26v-52.244h15.346l27.645 52.244h26.968l-28.661-53.598c16.361-0.451 29.338-14.105 28.774-30.579-0.113-0.677-0.226-1.467-0.226-2.257zM9638.915 106.97h-22.229v-32.497h21.213c15.684 0 23.922 3.385 23.922 15.346s-7.56 17.151-22.906 17.151z"></path>
</svg>
