<svg version="1.1" xmlns="http://www.w3.org/2000/svg" width="32" height="32" viewBox="0 0 32 32">
<title>mobile_phone_call_ringing_nfc</title>
<path d="M15.304 32.009h-11.915c-1.861 0-3.376-1.514-3.376-3.375v-25.297c0-1.861 1.514-3.375 3.376-3.375h11.915c1.861 0 3.376 1.514 3.376 3.375v25.297c0 1.861-1.514 3.375-3.376 3.375zM3.389 1.296c-1.126 0-2.042 0.916-2.042 2.042v25.297c0 1.126 0.916 2.042 2.042 2.042h11.915c1.126 0 2.042-0.915 2.042-2.042v-25.297c0-1.126-0.917-2.042-2.042-2.042h-11.915z"></path>
<path d="M9.346 29.841c-0.995 0-1.804-0.81-1.804-1.805s0.809-1.803 1.804-1.803 1.805 0.809 1.805 1.803-0.81 1.805-1.805 1.805zM9.346 27.566c-0.26 0-0.471 0.211-0.471 0.47 0 0.26 0.211 0.471 0.471 0.471s0.471-0.211 0.471-0.471c0-0.259-0.212-0.47-0.471-0.47z"></path>
<path d="M18.025 25.331h-17.333c-0.369 0-0.667-0.298-0.667-0.667v-20c0-0.369 0.298-0.667 0.667-0.667h17.333c0.369 0 0.667 0.298 0.667 0.667v20c0 0.369-0.298 0.667-0.667 0.667zM1.358 23.997h16v-18.667h-16v18.667z"></path>
<path d="M22.169 21.251c-0.185 0-0.369-0.077-0.5-0.225-0.243-0.276-0.217-0.698 0.059-0.941 1.453-1.283 2.253-3.010 2.253-4.867s-0.799-3.585-2.253-4.866c-0.276-0.243-0.302-0.665-0.059-0.941 0.242-0.277 0.664-0.303 0.941-0.059 1.743 1.538 2.703 3.621 2.703 5.865s-0.96 4.328-2.703 5.867c-0.128 0.112-0.284 0.167-0.441 0.167z"></path>
<path d="M25.507 23.853c-0.171 0-0.341-0.065-0.471-0.195-0.26-0.259-0.26-0.682 0-0.943 4.055-4.064 4.055-10.93 0-14.993-0.26-0.26-0.26-0.682 0-0.943 0.26-0.259 0.682-0.26 0.943 0.001 4.645 4.652 4.645 12.223 0 16.877-0.13 0.13-0.301 0.195-0.471 0.195z"></path>
</svg>
