<svg version="1.1" xmlns="http://www.w3.org/2000/svg" width="32" height="32" viewBox="0 0 32 32">
<title>mobile_message_sms2</title>
<path d="M16.625 32.009h-11.915c-1.861 0-3.376-1.514-3.376-3.375v-25.297c0-1.861 1.514-3.375 3.376-3.375h11.915c1.861 0 3.375 1.514 3.375 3.375 0 0.369-0.298 0.667-0.667 0.667s-0.667-0.298-0.667-0.667c0-1.126-0.915-2.042-2.042-2.042h-11.915c-1.126 0-2.042 0.916-2.042 2.042v25.297c0 1.126 0.916 2.042 2.042 2.042h11.915c1.126 0 2.042-0.915 2.042-2.042v-7.999c0-0.369 0.298-0.667 0.667-0.667s0.667 0.298 0.667 0.667v7.999c0 1.861-1.514 3.375-3.375 3.375z"></path>
<path d="M10.667 29.841c-0.995 0-1.805-0.81-1.805-1.805s0.81-1.803 1.805-1.803 1.804 0.809 1.804 1.803-0.809 1.805-1.804 1.805zM10.667 27.566c-0.26 0-0.471 0.211-0.471 0.47 0 0.26 0.212 0.471 0.471 0.471s0.471-0.211 0.471-0.471c0-0.259-0.211-0.47-0.471-0.47z"></path>
<path d="M19.345 25.331h-17.333c-0.369 0-0.667-0.298-0.667-0.667v-20c0-0.369 0.298-0.667 0.667-0.667h12.203c0.369 0 0.667 0.298 0.667 0.667s-0.298 0.667-0.667 0.667h-11.536v18.667h16.666c0.369 0 0.667 0.298 0.667 0.667s-0.298 0.667-0.667 0.667z"></path>
<path d="M16.673 23.454c-0.098 0-0.195-0.021-0.288-0.065-0.232-0.111-0.379-0.345-0.379-0.602v-4.633c-2.641-0.874-5.301-3.87-5.301-7.609 0-4.346 3.292-7.882 7.339-7.882h6.645c3.987 0 7.231 3.589 7.231 8s-3.243 8-7.231 8h-1.857l-5.74 4.642c-0.121 0.098-0.269 0.148-0.419 0.148zM18.044 3.997c-3.255 0-6.006 2.999-6.006 6.549 0 3.325 2.481 5.938 4.781 6.451 0.305 0.069 0.521 0.339 0.521 0.651v3.742l4.837-3.911c0.119-0.096 0.267-0.148 0.419-0.148h2.092c3.197 0 5.897-3.053 5.897-6.667s-2.701-6.667-5.897-6.667h-6.644z"></path>
<path d="M16.147 13.372c-0.508 0-1.152-0.241-1.6-0.6-0.288-0.23-0.335-0.65-0.105-0.937s0.651-0.335 0.937-0.105c0.227 0.182 0.587 0.308 0.768 0.308 0.224 0 0.359-0.113 0.376-0.162v0c-0.022 0-0.147-0.096-0.549-0.204-0.429-0.124-1.538-0.443-1.538-1.482 0-0.83 0.768-1.505 1.712-1.505 0.595 0 1.138 0.263 1.451 0.703 0.214 0.3 0.143 0.717-0.156 0.93s-0.716 0.143-0.93-0.156c-0.049-0.069-0.184-0.143-0.365-0.143-0.232 0-0.369 0.122-0.378 0.167 0.003-0.020 0.12 0.075 0.563 0.203 1.009 0.271 1.527 0.769 1.527 1.479-0 0.83-0.768 1.505-1.712 1.505z"></path>
<path d="M27.288 13.372c-0.508 0-1.151-0.241-1.6-0.6-0.288-0.23-0.333-0.65-0.104-0.937 0.231-0.287 0.648-0.333 0.937-0.105 0.227 0.182 0.586 0.308 0.767 0.308 0.228 0 0.359-0.112 0.378-0.162-0.001 0-0.001 0-0.001 0-0.022 0-0.147-0.096-0.549-0.204-0.428-0.124-1.538-0.443-1.538-1.482 0-0.83 0.767-1.505 1.711-1.505 0.595 0 1.138 0.263 1.451 0.703 0.214 0.3 0.143 0.717-0.156 0.93-0.298 0.212-0.715 0.143-0.93-0.156-0.049-0.069-0.184-0.143-0.365-0.143-0.236 0-0.369 0.121-0.378 0.167 0.030-0.029 0.133 0.078 0.563 0.203 1.009 0.271 1.527 0.769 1.527 1.479 0 0.83-0.768 1.505-1.712 1.505z"></path>
<path d="M19.121 13.372c-0.369 0-0.667-0.298-0.667-0.667v-3.352c0-0.369 0.298-0.667 0.667-0.667s0.667 0.298 0.667 0.667v3.352c0 0.369-0.298 0.667-0.667 0.667z"></path>
<path d="M21.724 13.372c-0.369 0-0.667-0.298-0.667-0.667v-2.021c0.001-0.135-0.038-0.421-0.173-0.558-0.044-0.046-0.128-0.106-0.335-0.106-0.605 0-0.749 0.625-0.771 0.75-0.065 0.36-0.401 0.607-0.768 0.543-0.361-0.061-0.605-0.397-0.548-0.758 0.103-0.647 0.671-1.869 2.087-1.869 0.66 0 1.069 0.281 1.297 0.516 0.56 0.58 0.547 1.412 0.544 1.505v1.997c0 0.369-0.298 0.667-0.667 0.667z"></path>
<path d="M24.328 13.372c-0.369 0-0.667-0.298-0.667-0.667v-2.021c0.001-0.134-0.039-0.421-0.173-0.559-0.046-0.045-0.129-0.105-0.335-0.105-0.646 0-0.767 0.714-0.771 0.744-0.059 0.364-0.398 0.609-0.764 0.553-0.363-0.058-0.611-0.4-0.553-0.763 0.104-0.647 0.673-1.868 2.089-1.868 0.659 0 1.068 0.28 1.296 0.515 0.56 0.58 0.548 1.412 0.546 1.505v1.998c-0 0.369-0.298 0.667-0.667 0.667z"></path>
</svg>
