<svg version="1.1" xmlns="http://www.w3.org/2000/svg" width="32" height="32" viewBox="0 0 32 32">
<title>mobile_phone_call</title>
<path d="M16.63 32.009h-11.914c-1.861 0-3.376-1.514-3.376-3.375v-25.297c0-1.861 1.514-3.375 3.376-3.375h11.914c1.862 0 3.376 1.514 3.376 3.375 0 0.369-0.298 0.667-0.667 0.667s-0.667-0.298-0.667-0.667c0-1.126-0.917-2.042-2.043-2.042h-11.914c-1.126 0-2.042 0.916-2.042 2.042v25.297c0 1.126 0.916 2.042 2.042 2.042h11.914c1.126 0 2.043-0.915 2.043-2.042v-7.999c0-0.369 0.298-0.667 0.667-0.667s0.667 0.298 0.667 0.667v7.999c0 1.861-1.514 3.375-3.376 3.375z"></path>
<path d="M10.673 29.841c-0.995 0-1.804-0.81-1.804-1.805s0.809-1.803 1.804-1.803 1.805 0.809 1.805 1.803-0.81 1.805-1.805 1.805zM10.673 27.566c-0.26 0-0.471 0.211-0.471 0.47 0 0.26 0.211 0.471 0.471 0.471s0.471-0.211 0.471-0.471c0-0.259-0.212-0.47-0.471-0.47z"></path>
<path d="M19.352 25.331h-17.333c-0.369 0-0.667-0.298-0.667-0.667v-20c0-0.369 0.298-0.667 0.667-0.667h12.203c0.369 0 0.667 0.298 0.667 0.667s-0.298 0.667-0.667 0.667h-11.536v18.667h16.666c0.369 0 0.667 0.298 0.667 0.667s-0.298 0.667-0.667 0.667z"></path>
<path d="M16.68 23.454c-0.098 0-0.195-0.021-0.288-0.065-0.232-0.111-0.379-0.345-0.379-0.602v-4.633c-2.641-0.874-5.301-3.87-5.301-7.609 0-4.346 3.292-7.882 7.339-7.882h6.645c3.987 0 7.231 3.589 7.231 8s-3.243 8-7.231 8h-1.857l-5.74 4.642c-0.121 0.098-0.269 0.148-0.419 0.148zM18.051 3.997c-3.255 0-6.006 2.999-6.006 6.549 0 3.325 2.481 5.938 4.781 6.451 0.305 0.069 0.521 0.339 0.521 0.651v3.742l4.837-3.911c0.119-0.096 0.267-0.148 0.419-0.148h2.092c3.197 0 5.897-3.053 5.897-6.667s-2.701-6.667-5.897-6.667h-6.644z"></path>
<path d="M22.441 15.897v0c-1.159 0-2.496-0.813-4.207-2.558-1.611-1.643-3.54-4.042-1.717-5.904 0.633-0.656 0.891-0.863 1.231-0.863 0.335 0.003 0.404 0.004 2.465 2.146 0.231 0.235 0.315 0.45 0.307 0.678-0.013 0.419-0.328 0.732-0.613 0.987 0.237 0.421 0.931 1.133 1.325 1.358 0.034-0.035 0.065-0.066 0.094-0.096 0.241-0.246 0.491-0.501 0.895-0.501 0.465 0 0.743 0.301 1.354 0.961 0.28 0.302 0.655 0.707 1.175 1.232 0.323 0.331 0.329 0.852 0.018 1.188-0.034 0.037-0.822 0.882-1.331 1.14-0.306 0.155-0.641 0.233-0.995 0.233zM17.732 8.102c-0.063 0.061-0.137 0.137-0.225 0.229-0.372 0.38-1.156 1.182 1.681 4.075 1.749 1.784 2.734 2.158 3.254 2.158v0c0.145 0 0.273-0.029 0.393-0.090 0.109-0.055 0.374-0.28 0.638-0.535-0.367-0.378-0.651-0.686-0.876-0.929-0.131-0.142-0.259-0.28-0.363-0.386-0.082 0.083-0.177 0.179-0.292 0.285-0.047 0.043-0.13 0.101-0.186 0.129-0.125 0.063-0.267 0.096-0.418 0.096v0c-0.967 0-2.378-1.568-2.715-2.353-0.26-0.608-0.042-0.971 0.112-1.132 0.069-0.068 0.137-0.129 0.21-0.193 0.019-0.018 0.043-0.038 0.068-0.061-0.657-0.68-1.048-1.069-1.28-1.293z"></path>
<path d="M23.594 11.156c-0.007 0-0.014 0-0.022-0.001-0.367-0.012-0.656-0.32-0.645-0.688 0.016-0.482-0.161-0.934-0.5-1.272-0.339-0.34-0.828-0.523-1.272-0.501-0.008 0.001-0.016 0.001-0.022 0.001-0.358 0-0.655-0.284-0.667-0.645-0.012-0.368 0.277-0.676 0.645-0.688 0.855-0.039 1.658 0.288 2.259 0.889 0.603 0.602 0.918 1.404 0.891 2.26-0.012 0.36-0.309 0.645-0.667 0.645z"></path>
<path d="M25.228 10.714c-0.005 0-0.009 0-0.014 0-0.369-0.008-0.66-0.313-0.652-0.681 0.018-0.805-0.284-1.559-0.85-2.124s-1.363-0.869-2.122-0.848c-0.341 0.004-0.673-0.284-0.681-0.652s0.284-0.673 0.652-0.682c1.228-0.026 2.269 0.415 3.094 1.239 0.825 0.825 1.266 1.925 1.241 3.096-0.008 0.363-0.305 0.652-0.667 0.652z"></path>
</svg>
