<svg version="1.1" xmlns="http://www.w3.org/2000/svg" width="32" height="32" viewBox="0 0 32 32">
<title>mobile_iphone</title>
<path d="M23.362 8.975c-0.187 0-0.374-0.079-0.505-0.232-0.24-0.279-0.208-0.7 0.070-0.94l3.484-3.002c0.573-0.436 0.661-1.417 0.216-2.046-0.204-0.287-0.503-0.473-0.84-0.525-0.336-0.055-0.66 0.034-0.93 0.238l-1.098 0.919c-0.28 0.236-0.702 0.199-0.939-0.083-0.236-0.283-0.198-0.703 0.085-0.939l1.122-0.939c0.585-0.446 1.275-0.623 1.962-0.514 0.697 0.107 1.309 0.488 1.723 1.071 0.876 1.234 0.664 2.999-0.465 3.854l-3.452 2.976c-0.126 0.108-0.28 0.162-0.435 0.162z"></path>
<path d="M23.333 15.159c-0.19 0-0.379-0.081-0.512-0.239-0.236-0.282-0.198-0.703 0.083-0.939l5.206-4.357c0.586-0.426 0.695-1.404 0.263-2.044-0.198-0.292-0.492-0.486-0.829-0.545-0.327-0.057-0.66 0.020-0.934 0.218l-2.871 2.21c-0.292 0.222-0.711 0.17-0.935-0.122s-0.169-0.71 0.122-0.935l2.887-2.221c0.585-0.423 1.273-0.585 1.962-0.462 0.695 0.122 1.299 0.517 1.702 1.11 0.849 1.255 0.598 3.014-0.548 3.843l-5.168 4.327c-0.125 0.105-0.277 0.156-0.428 0.156z"></path>
<path d="M23.345 25.467c-0.228 0-0.451-0.117-0.574-0.329-0.187-0.316-0.081-0.725 0.237-0.911 2.185-1.285 4.197-2.884 4.217-2.9 0.986-0.741 1.327-1.288 1.194-1.896-0.072-0.325-0.264-0.602-0.544-0.777-0.296-0.187-0.668-0.25-1.016-0.165-0.32 0.074-0.638-0.090-0.764-0.385-0.128-0.296-0.026-0.641 0.243-0.82l2.271-1.507c0.708-0.54 0.919-1.257 0.561-1.994-0.383-0.662-1.077-0.915-1.703-0.591l-3.747 2.556c-0.299 0.208-0.717 0.13-0.926-0.176-0.207-0.304-0.129-0.719 0.176-0.926l3.815-2.597c1.332-0.695 2.805-0.212 3.563 1.109 0.66 1.353 0.281 2.757-0.966 3.704l-0.902 0.599c0.035 0.021 0.072 0.042 0.107 0.065 0.585 0.367 0.987 0.943 1.135 1.619 0.329 1.503-0.725 2.518-1.681 3.236-0.069 0.056-2.087 1.661-4.358 2.995-0.106 0.063-0.221 0.093-0.337 0.093z"></path>
<path d="M23.345 20.74c-0.215 0-0.427-0.104-0.555-0.298-0.204-0.306-0.121-0.72 0.186-0.923l3.362-2.234c0.302-0.203 0.72-0.124 0.923 0.186 0.204 0.306 0.121 0.72-0.186 0.923l-3.362 2.234c-0.113 0.075-0.241 0.112-0.369 0.112z"></path>
<path d="M9.907 31.755c-0.096 0-0.187-0.005-0.27-0.016-4.1-0.531-6.102-2.589-7.058-4.22-1.316-2.247-1.504-5.211-0.489-7.737 1.058-2.633 0.776-6.326 0.55-9.294-0.253-3.311-0.435-5.704 1.094-6.292 0.797-0.307 1.579-0.234 2.264 0.21 2.791 1.811 3.288 9.715 3.335 10.61 0.019 0.368-0.263 0.681-0.631 0.701-0.361 0.031-0.68-0.262-0.701-0.63-0.166-3.12-1.054-8.475-2.729-9.562-0.329-0.214-0.655-0.239-1.059-0.083-0.602 0.232-0.395 2.956-0.243 4.945 0.236 3.107 0.531 6.973-0.643 9.893-0.864 2.151-0.71 4.667 0.402 6.565 1.156 1.971 3.257 3.207 6.078 3.572 1.361 0.189 6.271-2.159 9.069-3.671 0.32-0.171 0.727-0.055 0.904 0.271 0.175 0.324 0.053 0.728-0.271 0.904-1.222 0.659-7.229 3.835-9.602 3.835z"></path>
<path d="M20.96 28h-10.008c-1.627 0-2.951-1.346-2.951-3.003v-21.947c0-1.653 1.352-3.051 2.951-3.051h10.008c1.649 0 3.040 1.397 3.040 3.051v21.947c0 1.628-1.392 3.003-3.040 3.003zM10.951 1.333c-0.877 0-1.618 0.786-1.618 1.717v21.947c0 0.921 0.726 1.669 1.618 1.669h10.008c0.909 0 1.707-0.78 1.707-1.669v-21.947c0-0.899-0.814-1.717-1.707-1.717h-10.008z"></path>
<path d="M16 26.026c-0.174 0-0.333-0.066-0.467-0.186-0.133-0.147-0.2-0.307-0.2-0.481s0.066-0.346 0.186-0.466c0.267-0.267 0.707-0.254 0.947-0.013 0.134 0.133 0.201 0.306 0.201 0.479s-0.066 0.333-0.187 0.467c-0.146 0.133-0.306 0.199-0.479 0.199z"></path>
<path d="M23.224 5.333h-14.557c-0.369 0-0.667-0.298-0.667-0.667s0.298-0.667 0.667-0.667h14.557c0.369 0 0.667 0.298 0.667 0.667s-0.298 0.667-0.667 0.667z"></path>
<path d="M23.224 24.001h-14.557c-0.369 0-0.667-0.298-0.667-0.667s0.298-0.667 0.667-0.667h14.557c0.369 0 0.667 0.298 0.667 0.667s-0.298 0.667-0.667 0.667z"></path>
</svg>
