<svg version="1.1" xmlns="http://www.w3.org/2000/svg" width="32" height="32" viewBox="0 0 32 32">
<title>mobile_message_sms</title>
<path d="M16.619 32.009h-11.915c-1.861 0-3.376-1.514-3.376-3.375v-25.297c0-1.861 1.514-3.375 3.376-3.375h11.915c1.861 0 3.375 1.514 3.375 3.375 0 0.369-0.298 0.667-0.667 0.667s-0.667-0.298-0.667-0.667c0-1.126-0.915-2.042-2.042-2.042h-11.915c-1.126 0-2.042 0.916-2.042 2.042v25.297c0 1.126 0.916 2.042 2.042 2.042h11.915c1.126 0 2.042-0.915 2.042-2.042v-7.999c0-0.369 0.298-0.667 0.667-0.667s0.667 0.298 0.667 0.667v7.999c0 1.861-1.514 3.375-3.375 3.375z"></path>
<path d="M10.661 29.841c-0.995 0-1.805-0.81-1.805-1.805s0.81-1.803 1.805-1.803 1.804 0.809 1.804 1.803-0.809 1.805-1.804 1.805zM10.661 27.566c-0.26 0-0.471 0.211-0.471 0.47 0 0.26 0.212 0.471 0.471 0.471s0.471-0.211 0.471-0.471c0-0.259-0.211-0.47-0.471-0.47z"></path>
<path d="M19.34 25.331h-17.334c-0.369 0-0.667-0.298-0.667-0.667v-20c0-0.369 0.298-0.667 0.667-0.667h12.203c0.369 0 0.667 0.298 0.667 0.667s-0.298 0.667-0.667 0.667h-11.536v18.667h16.667c0.369 0 0.667 0.298 0.667 0.667s-0.298 0.667-0.667 0.667z"></path>
<path d="M16.667 23.454c-0.098 0-0.195-0.021-0.288-0.065-0.232-0.111-0.379-0.345-0.379-0.602v-4.633c-2.641-0.874-5.301-3.87-5.301-7.609 0-4.346 3.292-7.882 7.339-7.882h6.645c3.987 0 7.231 3.589 7.231 8s-3.243 8-7.231 8h-1.857l-5.74 4.642c-0.121 0.098-0.269 0.148-0.419 0.148zM18.038 3.997c-3.255 0-6.006 2.999-6.006 6.549 0 3.325 2.481 5.938 4.781 6.451 0.305 0.069 0.521 0.339 0.521 0.651v3.742l4.837-3.911c0.119-0.096 0.267-0.148 0.419-0.148h2.092c3.197 0 5.897-3.053 5.897-6.667s-2.701-6.667-5.897-6.667h-6.645z"></path>
<path d="M26.667 9.331h-9.333c-0.369 0-0.667-0.298-0.667-0.667s0.298-0.667 0.667-0.667h9.333c0.369 0 0.667 0.298 0.667 0.667s-0.298 0.667-0.667 0.667z"></path>
<path d="M21.333 13.331h-4c-0.369 0-0.667-0.298-0.667-0.667s0.298-0.667 0.667-0.667h4c0.369 0 0.667 0.298 0.667 0.667s-0.298 0.667-0.667 0.667z"></path>
</svg>
