<!-- Generated by IcoMoon.io -->
<svg version="1.1" xmlns="http://www.w3.org/2000/svg" width="32" height="32" viewBox="0 0 32 32">
<title>model_management</title>
<path d="M29.859 7.881c0-0.1 0-0.2-0.1-0.3v0 0c-0.1-0.1-0.1-0.1-0.2-0.2v0l-2.803-1.5-7.003-3.906-3.503-1.9c-0.2-0.1-0.4-0.1-0.6 0l-13.109 7.406c-0.1 0-0.1 0.1-0.2 0.2v0 0c0 0.1-0.1 0.2-0.1 0.3v0l-0.1 15.813c0 0.2 0.1 0.4 0.3 0.6l13.209 7.506c0.1 0 0.2 0.1 0.3 0.1s0.2 0 0.3-0.1v0l13.209-7.606c0.2-0.1 0.3-0.3 0.3-0.6l0.1-15.813c0 0.1 0 0 0 0zM12.547 6.081c0.3 0.2 0.7 0.4 0.7 0.4 0.2 0.1 0.4 0.1 0.6 0l4.903-2.803v2.803l-1.6 0.8c-0.1-0.1-0.3-0.2-0.4-0.3-0.4-0.3-0.8-0.2-1.1 0l-4.303 2.603c-0.2 0.1-0.3 0.3-0.3 0.5v1.8l-2.403-1.3v-2.203l3.903-2.3zM20.053 5.778v-2.103l2 1.1-2 1.003zM12.347 10.384l3.903-2.303c0.3 0.2 0.7 0.4 0.7 0.4 0.2 0.1 0.4 0.1 0.6 0l5.203-2.703v2.103l-2.303 1.3c-0.2-0.1-0.3-0.2-0.4-0.2-0.4-0.2-0.8-0.2-1.1 0l-4.303 2.603c-0.2 0.1-0.3 0.3-0.3 0.5v1.6l-2.103-1.2v-2.103h0.103zM24.056 5.878l1.1 0.6-1.1 0.7v-1.3zM15.95 14.588l-0.3-0.2v-2l3.903-2.303c0.3 0.2 0.7 0.4 0.7 0.4 0.2 0.1 0.4 0.1 0.6 0l5.003-3.003v1.5l-9.906 5.606zM27.059 7.481l0.8 0.5-0.8 0.4c0 0 0-0.9 0-0.9zM15.95 1.375l2.203 1.2-4.603 2.603c-0.2-0.1-0.3-0.2-0.4-0.3-0.4-0.3-0.8-0.2-1.1 0l-4.403 2.603c-0.1 0.1-0.3 0.3-0.3 0.5v1.8l-3.203-1.8 11.806-6.606zM3.441 12.184l2 1.1v0.3c-0.8 0.2-1.3 1-1.3 1.8 0 1 0.9 1.9 1.9 1.9s1.9-0.9 1.9-1.9c0-0.8-0.5-1.5-1.2-1.8v-0.7c0-0.2-0.1-0.4-0.3-0.6l-2.903-1.6v-1.6l11.912 6.603v5.503l-4.703-2.503v-1c0.7-0.3 1.3-1 1.3-1.8 0-1-0.9-1.9-1.9-1.9s-1.9 0.9-1.9 1.9c0 0.8 0.5 1.5 1.3 1.8v1.3c0 0.2 0.1 0.4 0.3 0.6l5.503 3.006v4.803l-4.603-2.503v-2.603c0-0.2-0.1-0.4-0.3-0.5l-2.203-1.3c0-0.1 0-0.2 0-0.3 0-1-0.9-1.9-1.9-1.9s-1.9 0.9-1.9 1.9c0 1 0.9 1.9 1.9 1.9 0.5 0 0.9-0.2 1.2-0.5l1.8 1.1v2.603c0 0.2 0.1 0.4 0.3 0.6l5.503 3.003v1.4l-12.006-6.803 0.3-11.309zM6.544 15.287c0 0.3-0.3 0.6-0.6 0.6s-0.6-0.3-0.6-0.6c0-0.3 0.3-0.6 0.6-0.6v0c0.4 0 0.6 0.3 0.6 0.6zM9.544 15.887c0-0.3 0.3-0.6 0.6-0.6s0.6 0.3 0.6 0.6c0 0.3-0.3 0.6-0.6 0.6s-0.6-0.2-0.6-0.6zM6.444 20.791c-0.3 0-0.6-0.3-0.6-0.6s0.3-0.6 0.6-0.6 0.6 0.3 0.6 0.6c0 0.3-0.2 0.6-0.6 0.6zM16.65 30.3v-4.406l5.506-3c0.2-0.1 0.3-0.3 0.3-0.6v-2.703l2.303-1.2c0.3 0.3 0.8 0.5 1.3 0.5 1 0 1.9-0.9 1.9-1.9s-0.9-1.9-1.9-1.9-1.903 0.897-1.903 1.897c0 0.1 0 0.2 0 0.3l-2.703 1.4c-0.2 0.1-0.3 0.3-0.3 0.6v2.703l-4.603 2.503v-4.903l1.2-0.6c0.3 0.4 0.8 0.6 1.4 0.6 1 0 1.9-0.9 1.9-1.9s-0.9-1.9-1.9-1.9-1.9 0.897-1.9 1.897v0.1l-0.7 0.4v-2.303l12.009-6.706v10.109l-2.203 1.2c-0.3-0.4-0.8-0.6-1.4-0.6-1 0-1.9 0.9-1.9 1.9s0.9 1.9 1.9 1.9 1.9-0.9 1.9-1.9c0-0.1 0-0.1 0-0.2l1.7-0.9v2.803l-11.906 6.809zM25.356 16.887c0-0.3 0.3-0.6 0.6-0.6s0.6 0.3 0.6 0.6c0 0.3-0.3 0.6-0.6 0.6-0.3 0.1-0.6-0.2-0.6-0.6zM18.553 17.587c0-0.3 0.3-0.6 0.6-0.6s0.6 0.3 0.6 0.6-0.3 0.6-0.6 0.6c-0.2 0-0.5-0.1-0.6-0.4v0c0.1-0.1 0-0.2 0-0.2zM25.656 21.791c0 0.3-0.3 0.6-0.6 0.6s-0.6-0.3-0.6-0.6 0.3-0.6 0.6-0.6c0.2 0 0.4 0.1 0.5 0.3l0.1 0.2c-0.1-0.1 0 0 0 0.1z"></path>
</svg>
