<svg version="1.1" xmlns="http://www.w3.org/2000/svg" width="32" height="32" viewBox="0 0 32 32">
<title>module_connection_plugin</title>
<path d="M29.54 32.001h-27.080c-1.357 0-2.46-1.103-2.46-2.46v-27.080c0-1.357 1.103-2.46 2.46-2.46h27.080c1.357 0 2.46 1.103 2.46 2.46v27.080c0 1.357-1.103 2.46-2.46 2.46zM2.46 1.335c-0.621 0-1.127 0.506-1.127 1.127v27.080c0 0.621 0.506 1.126 1.127 1.126h27.080c0.621 0 1.126-0.505 1.126-1.126v-27.080c0-0.621-0.505-1.127-1.126-1.127h-27.080z"></path>
<path d="M15.394 13.335h-4.061c-0.369 0-0.667-0.298-0.667-0.667s0.298-0.667 0.667-0.667h4.061c0.369 0 0.667 0.298 0.667 0.667s-0.299 0.667-0.667 0.667z"></path>
<path d="M15.394 18.668h-4.061c-0.369 0-0.667-0.298-0.667-0.667s0.298-0.667 0.667-0.667h4.061c0.369 0 0.667 0.298 0.667 0.667s-0.299 0.667-0.667 0.667z"></path>
<path d="M11.333 21.335h-2.115c-3.333 0-6.148-2.747-6.148-6s2.816-6 6.148-6h2.115c0.369 0 0.667 0.298 0.667 0.667v10.667c0 0.368-0.298 0.667-0.667 0.667zM9.219 10.668c-2.61 0-4.815 2.137-4.815 4.667s2.205 4.667 4.815 4.667h1.448v-9.333h-1.448z"></path>
<path d="M11.333 22.001c-0.369 0-0.667-0.298-0.667-0.667v-12c0-0.369 0.298-0.667 0.667-0.667s0.667 0.298 0.667 0.667v12c0 0.368-0.298 0.667-0.667 0.667z"></path>
<path d="M23.104 13.335h-2.437c-0.369 0-0.667-0.298-0.667-0.667s0.298-0.667 0.667-0.667h2.437c0.369 0 0.667 0.298 0.667 0.667s-0.298 0.667-0.667 0.667z"></path>
<path d="M23.104 18.668h-2.437c-0.369 0-0.667-0.298-0.667-0.667s0.298-0.667 0.667-0.667h2.437c0.369 0 0.667 0.298 0.667 0.667s-0.298 0.667-0.667 0.667z"></path>
<path d="M22.863 21.335h-2.197c-0.369 0-0.667-0.298-0.667-0.667v-10.667c0-0.369 0.298-0.667 0.667-0.667h2.197c3.236 0 5.97 2.747 5.97 6s-2.734 6-5.97 6zM21.333 20.001h1.53c2.513 0 4.637-2.137 4.637-4.667s-2.124-4.667-4.637-4.667h-1.53v9.333z"></path>
<path d="M3.737 16.001h-3.070c-0.369 0-0.667-0.298-0.667-0.667s0.298-0.667 0.667-0.667h3.070c0.369 0 0.667 0.298 0.667 0.667s-0.298 0.667-0.667 0.667z"></path>
<path d="M31.333 16.001h-3.167c-0.369 0-0.667-0.298-0.667-0.667s0.298-0.667 0.667-0.667h3.167c0.369 0 0.667 0.298 0.667 0.667s-0.298 0.667-0.667 0.667z"></path>
</svg>
