<!-- Generated by IcoMoon.io -->
<svg version="1.1" xmlns="http://www.w3.org/2000/svg" width="32" height="32" viewBox="0 0 32 32">
<title>money_coins_jettons_chips</title>
<path d="M10.853 22.737c-0.041 0-0.082 0-0.13 0l-0.242-0.001c-5.212 0-10.488-1.35-10.488-3.932 0-0.369 0.298-0.667 0.667-0.667s0.667 0.298 0.667 0.667c0 1.060 3.566 2.599 9.155 2.599l0.252 0.001c0.141-0.001 0.214 0.001 0.453-0.008 0.351 0.003 0.677 0.273 0.69 0.642s-0.273 0.677-0.642 0.691c-0.188 0.007-0.284 0.008-0.381 0.008z"></path>
<path d="M10.911 18.75c-0.047 0-0.096 0-0.154 0l-0.275-0.001c-5.212 0-10.488-1.35-10.488-3.932 0-0.369 0.298-0.667 0.667-0.667s0.667 0.298 0.667 0.667c0 1.060 3.566 2.599 9.155 2.599l0.283 0.001c0.222-0.001 0.313 0.001 0.647-0.014 0.356-0.059 0.68 0.264 0.698 0.634 0.018 0.367-0.266 0.68-0.634 0.697-0.285 0.014-0.409 0.017-0.565 0.017z"></path>
<path d="M10.482 14.762c-5.212 0-10.488-1.351-10.488-3.932 0-0.369 0.298-0.667 0.667-0.667s0.667 0.298 0.667 0.667c0 1.060 3.566 2.599 9.155 2.599 5.59 0 9.156-1.539 9.156-2.599 0-0.369 0.298-0.667 0.667-0.667s0.667 0.298 0.667 0.667c0 2.581-5.277 3.932-10.49 3.932z"></path>
<path d="M10.861 26.724c-0.042 0-0.083 0-0.132 0l-0.247-0.001c-5.212 0-10.489-1.35-10.489-3.932v-16.13c0-0.369 0.298-0.667 0.667-0.667s0.667 0.298 0.667 0.667v16.13c0 1.060 3.566 2.599 9.156 2.599l0.257 0.001c0.147 0 0.221 0.001 0.464-0.008 0.363 0.005 0.677 0.273 0.69 0.643 0.014 0.367-0.274 0.677-0.642 0.69-0.192 0.007-0.291 0.008-0.39 0.008z"></path>
<path d="M20.305 16.021c-0.369 0-0.667-0.298-0.667-0.667v-8.694c0-0.369 0.298-0.667 0.667-0.667s0.667 0.298 0.667 0.667v8.694c0 0.369-0.298 0.667-0.667 0.667z"></path>
<path d="M10.482 10.592c-5.213 0-10.49-1.351-10.49-3.932s5.277-3.932 10.49-3.932c5.212 0 10.489 1.351 10.489 3.932s-5.277 3.932-10.489 3.932zM10.482 4.061c-5.589 0-9.156 1.539-9.156 2.599s3.567 2.599 9.156 2.599 9.156-1.539 9.156-2.599-3.566-2.599-9.156-2.599z"></path>
<path d="M21.263 26.753c-5.299 0-10.664-1.311-10.664-3.819 0-0.369 0.298-0.667 0.667-0.667s0.667 0.298 0.667 0.667c0 1.013 3.635 2.486 9.331 2.486s9.332-1.473 9.332-2.486c0-0.369 0.298-0.667 0.667-0.667s0.667 0.298 0.667 0.667c0 2.508-5.366 3.819-10.665 3.819z"></path>
<path d="M21.263 30.6c-5.299 0-10.664-1.311-10.664-3.819v-7.871c0-0.369 0.298-0.667 0.667-0.667s0.667 0.298 0.667 0.667v7.871c0 1.013 3.635 2.486 9.331 2.486s9.332-1.473 9.332-2.486v-7.871c0-0.369 0.298-0.667 0.667-0.667s0.667 0.298 0.667 0.667v7.871c0 2.508-5.366 3.819-10.665 3.819z"></path>
<path d="M21.263 22.728c-5.299 0-10.664-1.384-10.664-4.029s5.365-4.028 10.664-4.028 10.665 1.383 10.665 4.028-5.366 4.029-10.665 4.029zM21.263 16.004c-5.696 0-9.331 1.596-9.331 2.695s3.635 2.695 9.331 2.695c5.697 0 9.332-1.596 9.332-2.695s-3.635-2.695-9.332-2.695z"></path>
</svg>
