<svg version="1.1" xmlns="http://www.w3.org/2000/svg" width="32" height="32" viewBox="0 0 32 32">
<title>monitoring</title>
<path d="M16.838 24.425h-11.783c-0.079 0-0.143 0.064-0.143 0.143v2.239c0 0.079 0.064 0.143 0.143 0.143h11.783c0.079 0 0.143-0.064 0.143-0.143v-2.239c0-0.079-0.064-0.143-0.143-0.143zM31.433 20.538l-4.304-4.279c1.18-1.68 1.877-3.719 1.877-5.923 0-5.726-4.671-10.368-10.428-10.368-4.257 0-7.92 2.538-9.54 6.175h-4.451c-1.246 0-2.311 0.517-3.196 1.552s-1.327 2.28-1.327 3.737v15.279c0 1.457 0.442 2.703 1.327 3.737s1.95 1.552 3.196 1.552h13.065c1.246 0 2.311-0.517 3.196-1.552s1.327-2.28 1.327-3.737v-3.489c0-0.257-0.105-0.435-0.314-0.533s-0.393-0.055-0.55 0.129l-1.005 1.175c-0.094 0.11-0.141 0.245-0.141 0.404v2.314c0 0.808-0.246 1.5-0.738 2.075s-1.084 0.863-1.774 0.863h-13.065c-0.691 0-1.282-0.288-1.774-0.863s-0.738-1.267-0.738-2.075v-15.279c0-0.808 0.246-1.5 0.738-2.075s1.084-0.863 1.774-0.863h3.726c-0.108 0.598-0.164 1.213-0.164 1.842 0 0.411 0.025 0.816 0.072 1.214-0.015-0.024-0.030-0.048-0.047-0.072h-3.308c-0.080 0-0.144 0.064-0.144 0.143v2.239c0 0.079 0.064 0.143 0.144 0.143h3.955c0.547 1.438 1.407 2.724 2.497 3.775h-5.571c-0.080 0-0.144 0.064-0.144 0.143v2.239c0 0.079 0.065 0.143 0.144 0.143h9.912c-0.026-0.011-0.051-0.022-0.077-0.033 0.949 0.283 1.955 0.434 2.996 0.434 2.217 0 4.27-0.693 5.959-1.866l4.304 4.279c0.715 0.711 1.877 0.711 2.592 0s0.715-1.865 0-2.579zM18.576 18.244c-4.391 0-7.952-3.538-7.952-7.906s3.561-7.906 7.952-7.906c4.393 0 7.952 3.538 7.952 7.906 0.002 4.367-3.558 7.906-7.952 7.906zM21.971 5.903l-5.219 5.209-2.436-2.431-1.74 1.736 4.175 4.167 6.959-6.945-1.74-1.736z"></path>
</svg>
