<svg height="32" version="1.1" viewBox="0 0 36 32" width="36" xmlns="http://www.w3.org/2000/svg">
  <title>more_options</title>
  <desc>menu,settings,preferences,list,dots</desc>
  <path d="M14.706 3.131c-0.009 1.734 1.394 3.147 3.131 3.156s3.147-1.394 3.156-3.131c0.006-1.734-1.397-3.147-3.131-3.156v0c-1.738-0.003-3.147 1.394-3.156 3.131z"></path>
  <path d="M14.637 15.988c-0.009 1.734 1.394 3.147 3.131 3.156 1.734 0.009 3.147-1.394 3.156-3.131 0.009-1.734-1.394-3.147-3.131-3.156v0c-1.734-0.009-3.147 1.394-3.156 3.131z"></path>
  <path d="M14.572 28.844c-0.009 1.734 1.394 3.147 3.131 3.156 1.734 0.009 3.147-1.394 3.156-3.131 0.009-1.734-1.394-3.147-3.131-3.156v0c-1.738-0.009-3.15 1.394-3.156 3.131z"></path>
</svg>
