<svg version="1.1" xmlns="http://www.w3.org/2000/svg" width="32" height="32" viewBox="0 0 32 32">
<title>most_viewed</title>
<path d="M13.067 28.208c-7.148 0-12.964-5.815-12.964-12.963s5.816-12.963 12.964-12.963c7.016 0 12.828 5.879 12.952 13.103l-1.313 0.023c-0.111-6.404-5.44-11.813-11.639-11.813-6.424 0-11.651 5.227-11.651 11.651s5.227 11.651 11.651 11.651c1.461 0 3.169-0.361 4.688-0.992l0.503 1.213c-1.672 0.692-3.563 1.091-5.191 1.091z"></path>
<path d="M25.179 29.717c-1.797 0-3.485-0.699-4.753-1.967-2.62-2.62-2.62-6.885 0-9.505 1.268-1.268 2.955-1.965 4.753-1.965 1.797 0 3.484 0.699 4.752 1.965 1.268 1.268 1.967 2.956 1.967 4.753s-0.697 3.485-1.965 4.752c-1.268 1.268-2.956 1.967-4.753 1.967zM25.179 17.199c-1.552 0-3.009 0.603-4.105 1.697-2.261 2.263-2.261 5.943 0 8.207 1.095 1.093 2.552 1.696 4.105 1.696s3.009-0.603 4.105-1.696c1.093-1.095 1.696-2.551 1.695-4.104 0-1.552-0.603-3.009-1.696-4.104-1.096-1.093-2.553-1.696-4.104-1.696z"></path>
<path d="M27.333 26.803v0c-0.124 0-0.245-0.037-0.349-0.109l-1.807-1.244-1.807 1.244c-0.265 0.184-0.653 0.116-0.847-0.143-0.116-0.157-0.151-0.356-0.093-0.545l0.635-2.075-1.745-1.311c-0.215-0.163-0.299-0.429-0.216-0.683 0.081-0.252 0.305-0.42 0.572-0.427l2.2-0.045 0.72-2.051c0.177-0.497 0.984-0.5 1.164-0.001l0.72 2.052 2.197 0.045c0.269 0.007 0.493 0.175 0.576 0.429 0.081 0.253-0.005 0.52-0.217 0.681l-1.745 1.311 0.635 2.073c0.057 0.188 0.024 0.387-0.091 0.545-0.119 0.159-0.305 0.252-0.501 0.252zM25.179 24.579c0.079 0 0.156 0.023 0.223 0.069l1.625 1.119-0.572-1.868c-0.049-0.159 0.008-0.331 0.141-0.431l1.571-1.18-1.975-0.040c-0.164-0.003-0.309-0.108-0.364-0.263l-0.649-1.849-0.649 1.849c-0.055 0.155-0.2 0.26-0.364 0.263l-1.975 0.040 1.571 1.18c0.133 0.1 0.189 0.272 0.141 0.431l-0.572 1.868 1.625-1.119c0.067-0.047 0.144-0.069 0.223-0.069z"></path>
<path d="M17.469 20.596c-0.331 0-0.644-0.121-0.888-0.348l-3.149-2.904 0.712-0.772 3.149 2.904c0.071 0.064 0.144 0.069 0.188 0.069 0.040-0.001 0.116-0.016 0.181-0.083 0.083-0.092 0.076-0.287-0.016-0.371l-3.148-2.904 0.712-0.772 3.149 2.904c0.257 0.237 0.407 0.561 0.42 0.911 0.015 0.351-0.109 0.685-0.347 0.943-0.236 0.256-0.559 0.407-0.909 0.42-0.019 0.003-0.037 0.003-0.055 0.003z"></path>
<path d="M10.135 18.792c-3.372 0-6.12-2.641-6.257-6.013-0.067-1.672 0.52-3.271 1.655-4.501 1.135-1.229 2.681-1.945 4.353-2.013l0.259-0.005c3.372 0 6.12 2.641 6.257 6.012 0.139 3.453-2.556 6.376-6.008 6.516l-0.259 0.005zM10.144 7.309l-0.216 0.005c-1.392 0.056-2.679 0.651-3.624 1.675-0.944 1.025-1.433 2.356-1.376 3.748 0.115 2.807 2.401 5.004 5.207 5.004l0.216-0.004c2.873-0.116 5.117-2.549 5-5.423-0.115-2.807-2.401-5.005-5.207-5.005z"></path>
<path d="M6.252 13.535c-0.272 0-0.503-0.211-0.523-0.487-0.097-1.305 0.336-2.552 1.22-3.511 0.869-0.944 2.109-1.491 3.4-1.5 0.001 0 0.003 0 0.004 0 0.288 0 0.523 0.232 0.525 0.521 0.001 0.289-0.232 0.527-0.523 0.528-1.016 0.008-1.952 0.421-2.635 1.163-0.684 0.743-1.020 1.709-0.945 2.721 0.021 0.289-0.196 0.541-0.485 0.563-0.013 0.001-0.027 0.001-0.039 0.001z"></path>
</svg>
