<svg version="1.1" xmlns="http://www.w3.org/2000/svg" width="32" height="32" viewBox="0 0 32 32">
<title>mouse_wireless</title>
<path d="M15.963 31.964c-0.001 0-0.029 0-0.030 0-3.768-0.013-6.598-2.689-6.88-6.507l-0.324-11.195c0.014-3.61 3.273-6.529 7.264-6.529 1.956 0.007 3.768 0.684 5.133 1.905 1.387 1.242 2.147 2.895 2.141 4.656l-0.402 11.183c-0.359 3.896-3.131 6.487-6.901 6.487zM16.017 9.066c-3.283 0-5.943 2.323-5.954 5.178l0.322 11.143c0.191 2.585 1.984 5.229 5.553 5.242l0.025 0.667v-0.667c3.091 0 5.278-2.056 5.571-5.238l0.4-11.125c0.005-1.353-0.598-2.652-1.697-3.635-1.121-1.003-2.62-1.559-4.22-1.565z"></path>
<path d="M18.592 6.409c-0.178 0-0.355-0.071-0.487-0.211-1.111-1.186-3.115-1.189-4.227 0-0.253 0.268-0.674 0.281-0.943 0.031-0.269-0.252-0.283-0.674-0.031-0.943 1.621-1.731 4.553-1.732 6.175 0 0.251 0.269 0.237 0.691-0.031 0.942-0.129 0.121-0.292 0.18-0.456 0.18z"></path>
<path d="M10.357 3.816c-0.166 0-0.332-0.061-0.461-0.185-0.266-0.255-0.275-0.676-0.021-0.943 1.617-1.689 3.789-2.619 6.116-2.619v0c2.327 0 4.499 0.93 6.117 2.619 0.254 0.266 0.245 0.688-0.021 0.943-0.266 0.256-0.689 0.245-0.943-0.021-1.362-1.424-3.193-2.208-5.153-2.208s-3.79 0.784-5.152 2.208c-0.131 0.137-0.307 0.206-0.482 0.206z"></path>
<path d="M16.007 16.417c-0.369 0-0.667-0.298-0.667-0.666v-3.754c0-0.369 0.298-0.667 0.667-0.667s0.667 0.298 0.667 0.667v3.754c0 0.368-0.298 0.666-0.667 0.666z"></path>
</svg>
