<!-- Generated by IcoMoon.io -->
<svg version="1.1" xmlns="http://www.w3.org/2000/svg" width="32" height="32" viewBox="0 0 32 32">
<title>mouse</title>
<path d="M6.12 6.326c-0.391 0-0.768-0.047-1.132-0.143-1.717-0.45-2.458-1.813-2.488-1.87l-1.465-3.025c-0.16-0.331-0.021-0.73 0.31-0.891 0.335-0.158 0.731-0.021 0.891 0.31l1.453 3.002c0.007 0.010 0.508 0.898 1.66 1.189 1.131 0.288 2.503-0.083 4.084-1.097 0.912-0.585 1.822-0.759 2.697-0.521 1.538 0.417 2.352 1.986 2.386 2.053 0.167 0.328 0.036 0.729-0.292 0.897-0.328 0.163-0.729 0.036-0.897-0.292-0.005-0.009-0.587-1.114-1.553-1.372-0.503-0.138-1.035-0.019-1.622 0.359-1.456 0.933-2.807 1.402-4.031 1.402z"></path>
<path d="M24.133 31.815c-2.466 0-4.819-1.324-6.293-3.54l-6.395-10.619c-1.937-3.464-0.381-8.014 3.457-10.159 1.304-0.729 2.757-1.113 4.201-1.113 2.701 0 5.039 1.299 6.255 3.474l5.687 11.003c1.759 3.925 0.495 7.9-3.129 9.927-1.22 0.681-2.493 1.027-3.784 1.027zM19.103 7.717c-1.217 0-2.445 0.326-3.551 0.944-3.197 1.787-4.522 5.522-2.954 8.326l6.369 10.574c1.866 2.802 5.315 3.732 8.299 2.063 3.034-1.697 4.047-4.909 2.579-8.185l-5.661-10.95c-0.967-1.729-2.87-2.772-5.081-2.772z"></path>
<path d="M19.398 16.211c-0.233 0-0.46-0.124-0.582-0.342l-2.228-3.989c-0.18-0.321-0.065-0.727 0.257-0.907 0.319-0.178 0.727-0.066 0.908 0.257l2.228 3.989c0.18 0.321 0.065 0.727-0.257 0.908-0.103 0.057-0.215 0.085-0.326 0.085z"></path>
</svg>
