<!-- Generated by IcoMoon.io -->
<svg version="1.1" xmlns="http://www.w3.org/2000/svg" width="32" height="32" viewBox="0 0 32 32">
<title>navigation_location_drop_pin_map</title>
<path d="M16 2c-5.5 0-10 4.3-10 9.6 0 5.7 5.9 14.2 8.4 17.6 0.4 0.5 1 0.8 1.6 0.8s1.2-0.3 1.6-0.8c2.5-3.4 8.4-12 8.4-17.6 0-5.3-4.5-9.6-10-9.6zM16 28c-1.9-2.5-8-11.2-8-16.4 0-4.2 3.6-7.6 8-7.6s8 3.4 8 7.6c0 5.2-6.1 13.9-8 16.4z"></path>
<path d="M16 8c-2.2 0-4 1.8-4 4s1.8 4 4 4c2.2 0 4-1.8 4-4s-1.8-4-4-4zM16 14c-1.1 0-2-0.9-2-2s0.9-2 2-2c1.1 0 2 0.9 2 2s-0.9 2-2 2z"></path>
</svg>
