<svg version="1.1" xmlns="http://www.w3.org/2000/svg" width="32" height="32" viewBox="0 0 32 32">
<title>navigation_location_drop_pin_map</title>
<path d="M15.982 31.773c-0.225 0-0.434-0.113-0.557-0.301-0.406-0.616-9.937-15.165-9.937-20.728 0-5.786 4.707-10.494 10.493-10.494s10.493 4.708 10.493 10.494c0 5.563-9.531 20.112-9.936 20.728-0.124 0.187-0.333 0.301-0.557 0.301zM15.982 1.584c-5.051 0-9.16 4.109-9.16 9.161 0 4.437 7.094 15.891 9.16 19.131 2.065-3.241 9.16-14.695 9.16-19.131 0-5.051-4.109-9.161-9.16-9.161z"></path>
<path d="M15.982 13.393c-2.238 0-4.059-1.82-4.059-4.058s1.821-4.059 4.059-4.059c2.238 0 4.059 1.821 4.059 4.059s-1.82 4.058-4.059 4.058zM15.982 6.609c-1.503 0-2.725 1.223-2.725 2.725s1.223 2.725 2.725 2.725 2.725-1.222 2.725-2.725-1.223-2.725-2.725-2.725z"></path>
</svg>
