<!-- Generated by IcoMoon.io -->
<svg version="1.1" xmlns="http://www.w3.org/2000/svg" width="32" height="32" viewBox="0 0 32 32">
<title>navigation_compass_orientation</title>
<path d="M16 3c-7.2 0-13 5.8-13 13s5.8 13 13 13c7.2 0 13-5.8 13-13s-5.8-13-13-13zM16 27c-6.1 0-11-4.9-11-11s4.9-11 11-11 11 4.9 11 11-4.9 11-11 11z"></path>
<path d="M22.1 9.4c-0.1 0-0.1 0-0.2 0l-7.3 2.9c-1 0.4-1.8 1.2-2.2 2.2v0l-2.9 7.3c0 0.1 0 0.1 0 0.2 0 0.3 0.2 0.5 0.5 0.5 0.1 0 0.1 0 0.2 0l7.3-2.9c1-0.4 1.8-1.2 2.2-2.2v0l2.9-7.3c0-0.1 0-0.1 0-0.2 0-0.3-0.2-0.5-0.5-0.5zM16 17.5c-0.8 0-1.5-0.7-1.5-1.5s0.7-1.5 1.5-1.5 1.5 0.7 1.5 1.5-0.7 1.5-1.5 1.5z"></path>
<path d="M10.1 22.6v0 0z"></path>
<path d="M21.9 9.4v0 0z"></path>
</svg>
