<!-- Generated by IcoMoon.io -->
<svg version="1.1" xmlns="http://www.w3.org/2000/svg" width="32" height="32" viewBox="0 0 32 32">
<title>navigation_compass_orientation</title>
<path fill="none" stroke="#444" stroke-linejoin="miter" stroke-linecap="butt" stroke-miterlimit="10" stroke-width="2" d="M28 16c0-6.625-5.375-12-12-12s-12 5.375-12 12 5.375 12 12 12 12-5.375 12-12z"></path>
<path d="M21.917 9.433l-7.325 2.93c-1.020 0.415-1.813 1.209-2.219 2.202l-0.010 0.027-2.93 7.325c-0.023 0.055-0.036 0.119-0.036 0.186 0 0.276 0.224 0.5 0.5 0.5 0.067 0 0.131-0.013 0.189-0.037l-0.003 0.001 7.325-2.93c1.020-0.415 1.813-1.209 2.219-2.202l0.010-0.027 2.93-7.325c0.023-0.055 0.036-0.119 0.036-0.186 0-0.276-0.224-0.5-0.5-0.5-0.067 0-0.131 0.013-0.189 0.037l0.003-0.001zM16 17.5c-0.828 0-1.5-0.672-1.5-1.5s0.672-1.5 1.5-1.5c0.828 0 1.5 0.672 1.5 1.5v0c0 0.828-0.672 1.5-1.5 1.5v0z"></path>
</svg>
