<svg version="1.1" xmlns="http://www.w3.org/2000/svg" width="32" height="32" viewBox="0 0 32 32">
<title>navigation_location_drop_pin_map3</title>
<path d="M15.988 28.036c-0.225 0-0.434-0.113-0.557-0.301-0.354-0.538-8.669-13.228-8.669-18.098 0-5.087 4.139-9.225 9.225-9.225s9.225 4.139 9.225 9.225c0 4.87-8.314 17.561-8.668 18.098-0.123 0.188-0.333 0.301-0.557 0.301zM15.988 1.745c-4.352 0-7.892 3.54-7.892 7.892 0 3.792 6.008 13.538 7.892 16.501 1.884-2.962 7.892-12.709 7.892-16.501 0-4.351-3.54-7.892-7.892-7.892z"></path>
<path d="M15.988 12.011c-1.824 0-3.309-1.484-3.309-3.309s1.484-3.309 3.309-3.309 3.309 1.484 3.309 3.309-1.484 3.309-3.309 3.309zM15.988 6.727c-1.089 0-1.975 0.886-1.975 1.975s0.886 1.975 1.975 1.975c1.089 0 1.975-0.886 1.975-1.975s-0.887-1.975-1.975-1.975z"></path>
<path d="M15.988 31.724c-4.347 0-8.748-1.194-8.748-3.478 0-1.4 1.71-2.534 4.693-3.111 0.355-0.068 0.711 0.167 0.781 0.529 0.070 0.361-0.166 0.711-0.528 0.781-2.631 0.509-3.613 1.375-3.613 1.801 0 0.854 2.957 2.145 7.415 2.145s7.416-1.29 7.416-2.145c0-0.423-0.971-1.284-3.579-1.796-0.362-0.070-0.598-0.421-0.526-0.781 0.069-0.363 0.425-0.602 0.781-0.526 2.96 0.579 4.658 1.711 4.658 3.103 0 2.284-4.401 3.478-8.749 3.478z"></path>
</svg>
