<svg version="1.1" xmlns="http://www.w3.org/2000/svg" width="32" height="32" viewBox="0 0 32 32">
<title>navigation_compass_orientation</title>
<path d="M12.986 5.373c-0.243 0-0.477-0.133-0.594-0.363-0.236-0.462-0.361-0.982-0.361-1.505 0-1.828 1.487-3.316 3.314-3.316 1.829 0 3.316 1.488 3.316 3.316 0 0.521-0.125 1.040-0.361 1.504-0.168 0.329-0.573 0.456-0.896 0.292-0.328-0.167-0.46-0.569-0.292-0.897 0.142-0.28 0.215-0.583 0.215-0.898 0-1.093-0.889-1.982-1.982-1.982s-1.981 0.889-1.981 1.982c0 0.317 0.072 0.619 0.215 0.898 0.167 0.328 0.037 0.73-0.29 0.897-0.097 0.049-0.2 0.073-0.303 0.073z"></path>
<path d="M15.346 31.724c-7.52 0-13.638-6.119-13.638-13.638s6.118-13.638 13.638-13.638c7.519 0 13.638 6.118 13.638 13.638s-6.119 13.638-13.638 13.638zM15.346 5.781c-6.785 0-12.305 5.52-12.305 12.305s5.52 12.305 12.305 12.305c6.785 0 12.305-5.519 12.305-12.305s-5.52-12.305-12.305-12.305z"></path>
<path d="M15.346 8.848c-0.369 0-0.667-0.298-0.667-0.667v-3.066c0-0.369 0.298-0.667 0.667-0.667s0.667 0.298 0.667 0.667v3.066c0 0.369-0.298 0.667-0.667 0.667z"></path>
<path d="M15.346 31.723c-0.369 0-0.667-0.298-0.667-0.667v-3.066c0-0.369 0.298-0.667 0.667-0.667s0.667 0.298 0.667 0.667v3.066c0 0.369-0.298 0.667-0.667 0.667z"></path>
<path d="M28.318 18.646h-3.103c-0.369 0-0.667-0.298-0.667-0.667s0.298-0.667 0.667-0.667h3.103c0.369 0 0.667 0.298 0.667 0.667s-0.298 0.667-0.667 0.667z"></path>
<path d="M5.415 18.646h-3.040c-0.369 0-0.667-0.298-0.667-0.667s0.298-0.667 0.667-0.667h3.040c0.369 0 0.667 0.298 0.667 0.667s-0.298 0.667-0.667 0.667z"></path>
<path d="M8.391 25.707c-0.173 0-0.343-0.068-0.471-0.195-0.206-0.206-0.255-0.522-0.12-0.78l4.77-9.139c0.098-0.188 0.28-0.318 0.49-0.35 0.204-0.036 0.421 0.037 0.572 0.187l4.37 4.369c0.15 0.15 0.22 0.362 0.187 0.573-0.033 0.21-0.163 0.391-0.35 0.49l-9.14 4.771c-0.098 0.051-0.203 0.076-0.309 0.076zM13.332 17.014l-3.368 6.453 6.454-3.369-3.086-3.085z"></path>
<path d="M17.531 20.936c-0.176 0-0.345-0.069-0.471-0.195l-4.37-4.369c-0.15-0.15-0.22-0.362-0.187-0.572s0.162-0.392 0.35-0.49l9.139-4.771c0.259-0.133 0.574-0.086 0.78 0.12s0.254 0.521 0.12 0.78l-4.769 9.139c-0.099 0.187-0.28 0.318-0.49 0.35-0.034 0.005-0.068 0.008-0.102 0.008zM14.275 16.072l3.085 3.085 3.367-6.453-6.453 3.368z"></path>
</svg>
