<svg version="1.1" xmlns="http://www.w3.org/2000/svg" width="32" height="32" viewBox="0 0 32 32">
<title>navigation_location_drop_pin_map2</title>
<path d="M26.294 32h-20.625c-0.221 0-0.426-0.109-0.551-0.292-0.124-0.181-0.15-0.413-0.070-0.619l3.138-8c0.1-0.255 0.346-0.423 0.62-0.423h1.841c0.369 0 0.667 0.298 0.667 0.667s-0.298 0.667-0.667 0.667h-1.387l-2.615 6.667h18.669l-2.615-6.667h-1.387c-0.369 0-0.667-0.298-0.667-0.667s0.298-0.667 0.667-0.667h1.841c0.275 0 0.521 0.168 0.621 0.423l3.138 8c0.079 0.206 0.053 0.437-0.070 0.619-0.124 0.182-0.331 0.292-0.551 0.292z"></path>
<path d="M15.982 11.909c-1.874 0-3.398-1.524-3.398-3.397s1.524-3.398 3.398-3.398 3.397 1.524 3.397 3.398c0 1.873-1.523 3.397-3.397 3.397zM15.982 6.447c-1.139 0-2.064 0.926-2.064 2.064s0.926 2.064 2.064 2.064c1.138 0 2.064-0.926 2.064-2.064s-0.926-2.064-2.064-2.064z"></path>
<path d="M15.982 27.57c-0.225 0-0.434-0.113-0.557-0.301-0.351-0.533-8.594-13.115-8.594-17.944 0-5.046 4.105-9.151 9.15-9.151s9.151 4.105 9.151 9.151c0 4.829-8.243 17.411-8.594 17.944-0.124 0.188-0.333 0.301-0.557 0.301zM15.982 1.508c-4.311 0-7.817 3.507-7.817 7.818 0 3.755 5.945 13.401 7.817 16.346 1.872-2.945 7.818-12.592 7.818-16.346 0-4.311-3.507-7.818-7.818-7.818z"></path>
</svg>
