<svg version="1.1" xmlns="http://www.w3.org/2000/svg" width="32" height="32" viewBox="0 0 32 32">
<title>network_connection_lan_computers</title>
<path d="M23.333 13.333h-14.667c-0.369 0-0.667-0.298-0.667-0.667v-12c0-0.369 0.298-0.667 0.667-0.667h14.667c0.369 0 0.667 0.298 0.667 0.667v12c0 0.369-0.298 0.667-0.667 0.667zM9.333 12h13.333v-10.667h-13.333v10.667z"></path>
<path d="M7.333 32h-6.667c-0.369 0-0.667-0.298-0.667-0.667v-5.333c0-0.369 0.298-0.667 0.667-0.667h6.667c0.369 0 0.667 0.298 0.667 0.667v5.333c0 0.369-0.298 0.667-0.667 0.667zM1.333 30.667h5.333v-4h-5.333v4z"></path>
<path d="M19.333 32h-6.667c-0.369 0-0.667-0.298-0.667-0.667v-5.333c0-0.369 0.298-0.667 0.667-0.667h6.667c0.369 0 0.667 0.298 0.667 0.667v5.333c0 0.369-0.298 0.667-0.667 0.667zM13.333 30.667h5.333v-4h-5.333v4z"></path>
<path d="M31.333 32h-6.667c-0.369 0-0.667-0.298-0.667-0.667v-5.333c0-0.369 0.298-0.667 0.667-0.667h6.667c0.369 0 0.667 0.298 0.667 0.667v5.333c0 0.369-0.298 0.667-0.667 0.667zM25.333 30.667h5.333v-4h-5.333v4z"></path>
<path d="M27.333 23.333c-0.369 0-0.667-0.298-0.667-0.667v-2.667h-21.333v2.667c0 0.369-0.298 0.667-0.667 0.667s-0.667-0.298-0.667-0.667v-3.333c0-0.369 0.298-0.667 0.667-0.667h22.667c0.369 0 0.667 0.298 0.667 0.667v3.333c0 0.369-0.298 0.667-0.667 0.667z"></path>
<path d="M16.060 23.333c-0.369 0-0.667-0.298-0.667-0.667v-6.667c0-0.369 0.298-0.667 0.667-0.667s0.667 0.298 0.667 0.667v6.667c0 0.369-0.298 0.667-0.667 0.667z"></path>
</svg>
