<svg version="1.1" xmlns="http://www.w3.org/2000/svg" width="32" height="32" viewBox="0 0 32 32">
<title>network_lan_drives_backup_remote</title>
<path d="M30 21.333h-28c-0.369 0-0.667-0.298-0.667-0.667v-8c0-0.369 0.298-0.667 0.667-0.667h28c0.369 0 0.667 0.298 0.667 0.667v8c0 0.369-0.298 0.667-0.667 0.667zM2.667 20h26.667v-6.667h-26.667v6.667z"></path>
<path d="M24.676 18.405c-0.971 0-1.762-0.79-1.762-1.762 0-0.973 0.79-1.764 1.762-1.764 0.973 0 1.763 0.791 1.763 1.764 0 0.971-0.79 1.762-1.763 1.762zM24.676 16.212c-0.236 0-0.428 0.194-0.428 0.431 0 0.236 0.193 0.428 0.428 0.428 0.237 0 0.43-0.193 0.43-0.428 0-0.237-0.193-0.431-0.43-0.431z"></path>
<path d="M30 9.332h-28c-0.369 0-0.667-0.298-0.667-0.667v-8c0-0.369 0.298-0.667 0.667-0.667h28c0.369 0 0.667 0.298 0.667 0.667v8c0 0.369-0.298 0.667-0.667 0.667zM2.667 7.999h26.667v-6.667h-26.667v6.667z"></path>
<path d="M24.676 6.404c-0.971 0-1.762-0.791-1.762-1.763s0.79-1.762 1.762-1.762c0.973 0 1.763 0.79 1.763 1.762s-0.79 1.763-1.763 1.763zM24.676 4.212c-0.236 0-0.428 0.193-0.428 0.429s0.193 0.43 0.428 0.43c0.237 0 0.43-0.193 0.43-0.43s-0.193-0.429-0.43-0.429z"></path>
<path d="M4.009 29.374h-3.333c-0.369 0-0.667-0.298-0.667-0.667s0.298-0.667 0.667-0.667h3.333c0.369 0 0.667 0.298 0.667 0.667s-0.298 0.667-0.667 0.667z"></path>
<path d="M11.34 29.374h-3.333c-0.369 0-0.667-0.298-0.667-0.667s0.298-0.667 0.667-0.667h3.333c0.369 0 0.667 0.298 0.667 0.667s-0.298 0.667-0.667 0.667z"></path>
<path d="M22.677 29.378c0 0 0 0-0.001 0l-3.333-0.004c-0.367 0-0.665-0.299-0.665-0.668 0-0.367 0.299-0.665 0.667-0.665 0 0 0 0 0.001 0l3.333 0.004c0.367 0 0.665 0.299 0.665 0.668 0 0.367-0.299 0.665-0.667 0.665z"></path>
<path d="M29.956 29.387h-0.001l-3.333-0.005c-0.369 0-0.665-0.299-0.665-0.668 0-0.367 0.299-0.665 0.667-0.665h0.001l3.333 0.005c0.369 0 0.665 0.299 0.665 0.668 0 0.367-0.299 0.665-0.667 0.665z"></path>
<path d="M15.262 28.214c-0.369 0-0.667-0.298-0.667-0.667v-4.102c0-0.369 0.298-0.667 0.667-0.667s0.667 0.298 0.667 0.667v4.102c0 0.368-0.298 0.667-0.667 0.667z"></path>
<path d="M15.262 30.559c-1.014 0-1.839-0.824-1.839-1.839s0.825-1.84 1.839-1.84 1.84 0.825 1.84 1.84-0.826 1.839-1.84 1.839zM15.262 28.214c-0.279 0-0.506 0.228-0.506 0.507s0.227 0.505 0.506 0.505c0.279 0 0.507-0.227 0.507-0.505s-0.227-0.507-0.507-0.507z"></path>
</svg>
