<!-- Generated by IcoMoon.io -->
<svg version="1.1" xmlns="http://www.w3.org/2000/svg" width="32" height="32" viewBox="0 0 32 32">
<title>network_connection_computers</title>
<path d="M20.023 5.337h-0.667c-0.369 0-0.667-0.298-0.667-0.667s0.298-0.667 0.667-0.667h0.667c0.369 0 0.667 0.298 0.667 0.667s-0.298 0.667-0.667 0.667z"></path>
<path d="M22.872 5.337h-0.712c-0.369 0-0.667-0.298-0.667-0.667s0.298-0.667 0.667-0.667h0.712c0.369 0 0.667 0.298 0.667 0.667s-0.298 0.667-0.667 0.667z"></path>
<path d="M25.676 5.337h-0.667c-0.369 0-0.667-0.298-0.667-0.667s0.298-0.667 0.667-0.667h0.667c0.369 0 0.667 0.298 0.667 0.667s-0.298 0.667-0.667 0.667z"></path>
<path d="M27.342 13.333c-0.369 0-0.667-0.298-0.667-0.667v-0.667c0-0.369 0.298-0.667 0.667-0.667s0.667 0.298 0.667 0.667v0.667c0 0.369-0.298 0.667-0.667 0.667z"></path>
<path d="M27.342 10.525c-0.369 0-0.667-0.298-0.667-0.667v-0.713c0-0.369 0.298-0.667 0.667-0.667s0.667 0.298 0.667 0.667v0.713c0 0.369-0.298 0.667-0.667 0.667z"></path>
<path d="M27.342 7.671c-0.369 0-0.667-0.298-0.667-0.667v-0.667c0-0.369 0.298-0.667 0.667-0.667s0.667 0.298 0.667 0.667v0.667c0 0.369-0.298 0.667-0.667 0.667z"></path>
<path d="M27.342 7.004c-1.286 0-2.333-1.047-2.333-2.333s1.047-2.333 2.333-2.333 2.333 1.047 2.333 2.333-1.047 2.333-2.333 2.333zM27.342 3.671c-0.551 0-1 0.449-1 1s0.449 1 1 1 1-0.449 1-1-0.449-1-1-1z"></path>
<path d="M15.443 13.333h-13.445c-1.098 0-1.99-0.824-1.99-1.837v-9.516c0-1.055 0.93-1.981 1.99-1.981h13.445c1.029 0 1.898 0.907 1.898 1.981v9.516c0 1.030-0.833 1.837-1.898 1.837zM1.998 1.333c-0.313 0-0.657 0.339-0.657 0.647v9.516c0 0.297 0.346 0.504 0.657 0.504h13.445c0.272 0 0.565-0.158 0.565-0.504v-9.516c0-0.333-0.275-0.647-0.565-0.647h-13.445z"></path>
<path d="M16.675 10.667h-16c-0.369 0-0.667-0.298-0.667-0.667s0.298-0.667 0.667-0.667h16c0.369 0 0.667 0.298 0.667 0.667s-0.298 0.667-0.667 0.667z"></path>
<path d="M11.351 16h-5.256c-0.369 0-0.667-0.298-0.667-0.667s0.298-0.667 0.667-0.667h5.256c0.369 0 0.667 0.298 0.667 0.667s-0.298 0.667-0.667 0.667z"></path>
<path d="M8.675 16c-0.369 0-0.667-0.298-0.667-0.667v-2.667c0-0.369 0.298-0.667 0.667-0.667s0.667 0.298 0.667 0.667v2.667c0 0.369-0.298 0.667-0.667 0.667z"></path>
<path d="M30.109 29.335h-13.444c-1.097 0-1.99-0.824-1.99-1.837v-9.516c0-1.055 0.93-1.981 1.99-1.981h13.444c1.030 0 1.9 0.908 1.9 1.981v9.516c0 1.030-0.835 1.837-1.9 1.837zM16.665 17.335c-0.313 0-0.656 0.339-0.656 0.647v9.516c0 0.297 0.346 0.504 0.656 0.504h13.444c0.273 0 0.566-0.158 0.566-0.504v-9.516c0-0.332-0.275-0.647-0.566-0.647h-13.444z"></path>
<path d="M31.342 26.668h-16c-0.369 0-0.667-0.298-0.667-0.667s0.298-0.667 0.667-0.667h16c0.369 0 0.667 0.298 0.667 0.667s-0.298 0.667-0.667 0.667z"></path>
<path d="M26.018 32.001h-5.255c-0.369 0-0.667-0.298-0.667-0.667s0.298-0.667 0.667-0.667h5.255c0.369 0 0.667 0.298 0.667 0.667s-0.298 0.667-0.667 0.667z"></path>
<path d="M23.342 32.001c-0.369 0-0.667-0.298-0.667-0.667v-2.667c0-0.369 0.298-0.667 0.667-0.667s0.667 0.298 0.667 0.667v2.667c0 0.368-0.298 0.667-0.667 0.667z"></path>
<path d="M12.56 28.055h-0.667c-0.369 0-0.667-0.298-0.667-0.667s0.298-0.667 0.667-0.667h0.667c0.369 0 0.667 0.298 0.667 0.667s-0.298 0.667-0.667 0.667z"></path>
<path d="M9.801 28.055h-0.697c-0.369 0-0.667-0.298-0.667-0.667s0.298-0.667 0.667-0.667h0.697c0.369 0 0.667 0.298 0.667 0.667s-0.298 0.667-0.667 0.667z"></path>
<path d="M7.012 28.055h-0.667c-0.369 0-0.667-0.298-0.667-0.667s0.298-0.667 0.667-0.667h0.667c0.369 0 0.667 0.298 0.667 0.667s-0.298 0.667-0.667 0.667z"></path>
<path d="M4.678 20.725c-0.369 0-0.667-0.298-0.667-0.667v-0.667c0-0.369 0.298-0.667 0.667-0.667s0.667 0.298 0.667 0.667v0.667c0 0.369-0.298 0.667-0.667 0.667z"></path>
<path d="M4.678 23.581c-0.369 0-0.667-0.298-0.667-0.667v-0.714c0-0.369 0.298-0.667 0.667-0.667s0.667 0.298 0.667 0.667v0.714c0 0.369-0.298 0.667-0.667 0.667z"></path>
<path d="M4.678 26.388c-0.369 0-0.667-0.298-0.667-0.667v-0.667c0-0.369 0.298-0.667 0.667-0.667s0.667 0.298 0.667 0.667v0.667c0 0.369-0.298 0.667-0.667 0.667z"></path>
<path d="M4.678 29.721c-1.286 0-2.333-1.047-2.333-2.333s1.047-2.333 2.333-2.333 2.333 1.047 2.333 2.333-1.047 2.333-2.333 2.333zM4.678 26.388c-0.551 0-1 0.449-1 1s0.449 1 1 1 1-0.449 1-1-0.449-1-1-1z"></path>
</svg>
