<!-- Generated by IcoMoon.io -->
<svg version="1.1" xmlns="http://www.w3.org/2000/svg" width="32" height="32" viewBox="0 0 32 32">
<title>network_connection_computer_folder</title>
<path d="M15.434 13.333h-13.444c-1.098 0-1.99-0.824-1.99-1.837v-9.516c0-1.055 0.93-1.981 1.99-1.981h13.444c1.029 0 1.899 0.907 1.899 1.981v9.516c0 1.030-0.835 1.837-1.899 1.837zM1.99 1.333c-0.313 0-0.657 0.339-0.657 0.647v9.516c0 0.297 0.346 0.504 0.657 0.504h13.444c0.273 0 0.566-0.158 0.566-0.504v-9.516c0-0.333-0.275-0.647-0.566-0.647h-13.444z"></path>
<path d="M23.315 31.82c-4.711 0-8.544-3.832-8.544-8.543s3.833-8.544 8.544-8.544 8.543 3.833 8.543 8.544-3.832 8.543-8.543 8.543zM23.315 16.068c-3.977 0-7.211 3.234-7.211 7.21s3.234 7.21 7.211 7.21c3.975 0 7.21-3.234 7.21-7.21s-3.234-7.21-7.21-7.21z"></path>
<path d="M25.772 27.888c-0.139 0-0.275-0.034-0.402-0.102-0.548-0.292-0.676-1.128-0.686-1.779l0.001-0.318c0.003-0.74 0.003-0.816-0.255-1.823l-0.418-0.467c-0.413-0.163-1.208-0.462-1.572-0.542-0.474-0.103-0.805-0.487-0.866-1.003-0.009-0.081-0.012-0.163-0.008-0.246-0.167 0.186-0.361 0.25-0.495 0.269-0.471 0.075-0.855-0.267-1.068-0.621-0.187 0.135-0.439 0.268-0.772 0.387-0.635 0.225-1.003-0.033-1.165-0.208-0.516-0.552-0.21-1.617 0.137-2.411 0.145-0.337 0.536-0.492 0.876-0.345 0.337 0.146 0.492 0.539 0.346 0.876-0.087 0.202-0.167 0.432-0.223 0.634 0.049-0.031 0.078-0.056 0.092-0.070 0.009-0.022 0.021-0.044 0.033-0.066l0.486-0.85c0.146-0.255 0.437-0.385 0.731-0.319 0.184 0.043 0.336 0.16 0.426 0.316 0.194-0.376 0.484-0.6 1-0.6 0.061 0 0.134-0.010 0.212-0.021 0.383-0.043 0.965-0.116 1.437 0.268 0.305 0.249 0.482 0.624 0.523 1.115 0.042 0.483 0.078 0.9-0.227 1.197-0.263 0.257-0.578 0.223-0.714 0.203-0.083-0.009-0.092-0.012-0.141 0.013-0.075 0.035-0.13 0.141-0.154 0.227 0.63 0.172 1.622 0.569 1.745 0.619 0.094 0.039 0.178 0.098 0.246 0.173l0.631 0.704c0.072 0.079 0.122 0.176 0.15 0.279 0.329 1.281 0.34 1.423 0.337 2.319l-0.001 0.302c0 0.031 0.001 0.064 0.004 0.098 0.523-0.732 1.169-1.971 1.057-2.358-0.311-0.885-0.536-1.526 0.556-2.116 0.504-0.273 0.62-0.482 0.624-0.522-0.019-0.367 0.262-0.681 0.63-0.701 0.365-0.038 0.681 0.263 0.701 0.63 0.036 0.676-0.408 1.269-1.32 1.764-0.033 0.018-0.061 0.034-0.085 0.047 0.038 0.128 0.102 0.311 0.154 0.457 0.465 1.328-1.366 3.986-2.039 4.426-0.168 0.109-0.349 0.165-0.526 0.165zM22.098 19.928c-0.049 0.154-0.111 0.426-0.171 0.71 0.15-0.198 0.341-0.361 0.559-0.465 0.116-0.056 0.227-0.092 0.328-0.116-0.016-0.141-0.046-0.185-0.046-0.185-0.049-0.013-0.294 0.014-0.427 0.031-0.086 0.010-0.168 0.020-0.243 0.025z"></path>
<path d="M19.107 28.049c-0.072 0-0.143-0.012-0.215-0.035-0.349-0.12-0.535-0.497-0.417-0.846 0.445-1.307 0.701-1.816 1.027-2.181-0.327-0.126-0.633-0.251-0.844-0.462-0.085-0.085-0.15-0.137-0.221-0.184-0.042 0.227-0.079 0.493-0.102 0.742-0.034 0.367-0.384 0.629-0.723 0.605-0.367-0.033-0.638-0.357-0.605-0.723 0.169-1.913 0.62-2.105 0.836-2.198 0.221-0.099 0.608-0.039 0.802 0.115 0.135 0.108 0.24 0.169 0.336 0.227 0.172 0.103 0.367 0.22 0.62 0.473 0.049 0.034 0.296 0.128 0.443 0.184 0.516 0.197 1.049 0.401 1.15 0.941 0.026 0.139 0.048 0.496-0.306 0.814l-0.175 0.151c-0.29 0.247-0.451 0.384-0.975 1.926-0.095 0.277-0.354 0.452-0.632 0.452z"></path>
<path d="M16.667 10.667h-16c-0.369 0-0.667-0.298-0.667-0.667s0.298-0.667 0.667-0.667h16c0.369 0 0.667 0.298 0.667 0.667s-0.298 0.667-0.667 0.667z"></path>
<path d="M11.343 16h-5.256c-0.369 0-0.667-0.298-0.667-0.667s0.298-0.667 0.667-0.667h5.256c0.369 0 0.667 0.298 0.667 0.667s-0.298 0.667-0.667 0.667z"></path>
<path d="M8.667 16c-0.369 0-0.667-0.298-0.667-0.667v-2.667c0-0.369 0.298-0.667 0.667-0.667s0.667 0.298 0.667 0.667v2.667c0 0.369-0.298 0.667-0.667 0.667z"></path>
<path d="M20.016 5.337h-0.667c-0.369 0-0.667-0.298-0.667-0.667s0.298-0.667 0.667-0.667h0.667c0.369 0 0.667 0.298 0.667 0.667s-0.298 0.667-0.667 0.667z"></path>
<path d="M22.865 5.337h-0.712c-0.369 0-0.667-0.298-0.667-0.667s0.298-0.667 0.667-0.667h0.712c0.369 0 0.667 0.298 0.667 0.667s-0.298 0.667-0.667 0.667z"></path>
<path d="M25.668 5.337h-0.667c-0.369 0-0.667-0.298-0.667-0.667s0.298-0.667 0.667-0.667h0.667c0.369 0 0.667 0.298 0.667 0.667s-0.298 0.667-0.667 0.667z"></path>
<path d="M27.335 13.333c-0.369 0-0.667-0.298-0.667-0.667v-0.667c0-0.369 0.298-0.667 0.667-0.667s0.667 0.298 0.667 0.667v0.667c0 0.369-0.298 0.667-0.667 0.667z"></path>
<path d="M27.335 10.525c-0.369 0-0.667-0.298-0.667-0.667v-0.713c0-0.369 0.298-0.667 0.667-0.667s0.667 0.298 0.667 0.667v0.713c0 0.369-0.298 0.667-0.667 0.667z"></path>
<path d="M27.335 7.671c-0.369 0-0.667-0.298-0.667-0.667v-0.667c0-0.369 0.298-0.667 0.667-0.667s0.667 0.298 0.667 0.667v0.667c0 0.369-0.298 0.667-0.667 0.667z"></path>
<path d="M27.335 7.004c-1.286 0-2.333-1.047-2.333-2.333s1.047-2.333 2.333-2.333 2.333 1.047 2.333 2.333-1.047 2.333-2.333 2.333zM27.335 3.671c-0.551 0-1 0.449-1 1s0.449 1 1 1 1-0.449 1-1-0.449-1-1-1z"></path>
<path d="M12.551 28.055h-0.667c-0.369 0-0.667-0.298-0.667-0.667s0.298-0.667 0.667-0.667h0.667c0.369 0 0.667 0.298 0.667 0.667s-0.298 0.667-0.667 0.667z"></path>
<path d="M9.793 28.055h-0.697c-0.369 0-0.667-0.298-0.667-0.667s0.298-0.667 0.667-0.667h0.697c0.369 0 0.667 0.298 0.667 0.667s-0.298 0.667-0.667 0.667z"></path>
<path d="M7.004 28.055h-0.667c-0.369 0-0.667-0.298-0.667-0.667s0.298-0.667 0.667-0.667h0.667c0.369 0 0.667 0.298 0.667 0.667s-0.298 0.667-0.667 0.667z"></path>
<path d="M4.671 20.725c-0.369 0-0.667-0.298-0.667-0.667v-0.667c0-0.369 0.298-0.667 0.667-0.667s0.667 0.298 0.667 0.667v0.667c0 0.369-0.298 0.667-0.667 0.667z"></path>
<path d="M4.671 23.581c-0.369 0-0.667-0.298-0.667-0.667v-0.714c0-0.369 0.298-0.667 0.667-0.667s0.667 0.298 0.667 0.667v0.714c0 0.369-0.298 0.667-0.667 0.667z"></path>
<path d="M4.671 26.388c-0.369 0-0.667-0.298-0.667-0.667v-0.667c0-0.369 0.298-0.667 0.667-0.667s0.667 0.298 0.667 0.667v0.667c0 0.369-0.298 0.667-0.667 0.667z"></path>
<path d="M4.671 29.721c-1.286 0-2.333-1.047-2.333-2.333s1.047-2.333 2.333-2.333 2.333 1.047 2.333 2.333-1.047 2.333-2.333 2.333zM4.671 26.388c-0.551 0-1 0.449-1 1s0.449 1 1 1 1-0.449 1-1-0.449-1-1-1z"></path>
</svg>
