<!-- Generated by IcoMoon.io -->
<svg version="1.1" xmlns="http://www.w3.org/2000/svg" width="32" height="32" viewBox="0 0 32 32">
<title>network_remote_folder_drive</title>
<path d="M4.016 29.374h-3.333c-0.369 0-0.667-0.298-0.667-0.667s0.298-0.667 0.667-0.667h3.333c0.369 0 0.667 0.298 0.667 0.667s-0.298 0.667-0.667 0.667z"></path>
<path d="M11.346 29.374h-3.333c-0.369 0-0.667-0.298-0.667-0.667s0.298-0.667 0.667-0.667h3.333c0.369 0 0.667 0.298 0.667 0.667s-0.298 0.667-0.667 0.667z"></path>
<path d="M22.684 29.374h-3.333c-0.369 0-0.667-0.298-0.667-0.667s0.298-0.667 0.667-0.667h3.333c0.369 0 0.667 0.298 0.667 0.667s-0.298 0.667-0.667 0.667z"></path>
<path d="M30.014 29.374h-3.333c-0.369 0-0.667-0.298-0.667-0.667s0.298-0.667 0.667-0.667h3.333c0.369 0 0.667 0.298 0.667 0.667s-0.298 0.667-0.667 0.667z"></path>
<path d="M15.268 28.214c-0.369 0-0.667-0.298-0.667-0.667v-4.102c0-0.369 0.298-0.667 0.667-0.667s0.667 0.298 0.667 0.667v4.102c0 0.368-0.298 0.667-0.667 0.667z"></path>
<path d="M15.268 30.559c-1.014 0-1.84-0.824-1.84-1.839s0.825-1.84 1.84-1.84 1.84 0.825 1.84 1.84-0.826 1.839-1.84 1.839zM15.268 28.214c-0.279 0-0.507 0.228-0.507 0.507s0.227 0.505 0.507 0.505 0.507-0.227 0.507-0.505-0.227-0.507-0.507-0.507z"></path>
<path d="M27.336 21.298h-22.786c-1.063 0-1.927-0.867-1.927-1.934v-17.411c0-1.066 0.865-1.934 1.927-1.934h4.757c0.266 0 1.052 0 2.344 2.72h15.685c1.063 0 1.927 0.868 1.927 1.934v14.691c0 1.066-0.865 1.934-1.927 1.934zM4.55 1.352c-0.327 0-0.594 0.269-0.594 0.601v17.411c0 0.331 0.266 0.6 0.594 0.6h22.786c0.327 0 0.594-0.269 0.594-0.6v-14.691c0-0.331-0.267-0.601-0.594-0.601h-16.111c-0.262 0-0.501-0.154-0.608-0.393-0.473-1.050-1.109-2.1-1.403-2.327h-4.663z"></path>
<path d="M28.596 8.033h-25.307c-0.369 0-0.667-0.298-0.667-0.667s0.298-0.667 0.667-0.667h25.307c0.369 0 0.667 0.298 0.667 0.667s-0.298 0.667-0.667 0.667z"></path>
</svg>
