<!-- Generated by IcoMoon.io -->
<svg version="1.1" xmlns="http://www.w3.org/2000/svg" width="32" height="32" viewBox="0 0 32 32">
<title>network_connection_computers</title>
<path d="M26.991 26.672h-0.667c-0.369 0-0.667-0.298-0.667-0.667s0.298-0.667 0.667-0.667h0.667c0.369 0 0.667 0.298 0.667 0.667s-0.298 0.667-0.667 0.667z"></path>
<path d="M30.022 26.672h-0.667c-0.369 0-0.667-0.298-0.667-0.667s0.298-0.667 0.667-0.667h0.667c0.369 0 0.667 0.298 0.667 0.667s-0.298 0.667-0.667 0.667z"></path>
<path d="M2.624 26.672h-0.667c-0.369 0-0.667-0.298-0.667-0.667s0.298-0.667 0.667-0.667h0.667c0.369 0 0.667 0.298 0.667 0.667s-0.298 0.667-0.667 0.667z"></path>
<path d="M5.656 26.672h-0.667c-0.369 0-0.667-0.298-0.667-0.667s0.298-0.667 0.667-0.667h0.667c0.369 0 0.667 0.298 0.667 0.667s-0.298 0.667-0.667 0.667z"></path>
<path d="M9.656 26.672h-0.667c-0.369 0-0.667-0.298-0.667-0.667s0.298-0.667 0.667-0.667h0.667c0.369 0 0.667 0.298 0.667 0.667s-0.298 0.667-0.667 0.667z"></path>
<path d="M18.87 26.672h-1.152c-0.369 0-0.667-0.298-0.667-0.667s0.298-0.667 0.667-0.667h1.152c0.369 0 0.667 0.298 0.667 0.667s-0.298 0.667-0.667 0.667zM14.263 26.672h-1.152c-0.369 0-0.667-0.298-0.667-0.667s0.298-0.667 0.667-0.667h1.152c0.369 0 0.667 0.298 0.667 0.667s-0.298 0.667-0.667 0.667z"></path>
<path d="M22.991 26.672h-0.667c-0.369 0-0.667-0.298-0.667-0.667s0.298-0.667 0.667-0.667h0.667c0.369 0 0.667 0.298 0.667 0.667s-0.298 0.667-0.667 0.667z"></path>
<path d="M24.658 25.007c-0.369 0-0.667-0.298-0.667-0.667v-0.667c0-0.369 0.298-0.667 0.667-0.667s0.667 0.298 0.667 0.667v0.667c0 0.368-0.298 0.667-0.667 0.667z"></path>
<path d="M24.658 21.404c-0.369 0-0.667-0.298-0.667-0.667v-0.667c0-0.369 0.298-0.667 0.667-0.667s0.667 0.298 0.667 0.667v0.667c0 0.369-0.298 0.667-0.667 0.667z"></path>
<path d="M7.323 21.404c-0.369 0-0.667-0.298-0.667-0.667v-0.667c0-0.369 0.298-0.667 0.667-0.667s0.667 0.298 0.667 0.667v0.667c0 0.369-0.298 0.667-0.667 0.667z"></path>
<path d="M7.323 25.007c-0.369 0-0.667-0.298-0.667-0.667v-0.667c0-0.369 0.298-0.667 0.667-0.667s0.667 0.298 0.667 0.667v0.667c0 0.368-0.298 0.667-0.667 0.667z"></path>
<path d="M7.323 28.34c-1.286 0-2.333-1.047-2.333-2.333s1.047-2.333 2.333-2.333 2.333 1.047 2.333 2.333-1.047 2.333-2.333 2.333zM7.323 25.007c-0.551 0-1 0.449-1 1s0.449 1 1 1 1-0.449 1-1-0.449-1-1-1z"></path>
<path d="M24.658 28.34c-1.286 0-2.333-1.047-2.333-2.333s1.047-2.333 2.333-2.333 2.333 1.047 2.333 2.333-1.047 2.333-2.333 2.333zM24.658 25.007c-0.551 0-1 0.449-1 1s0.449 1 1 1 1-0.449 1-1-0.449-1-1-1z"></path>
<path d="M12.771 16h-10.777c-1.098 0-1.99-0.824-1.99-1.837v-8.182c0-1.055 0.93-1.981 1.99-1.981h10.777c1.029 0 1.899 0.908 1.899 1.981v8.182c0 1.030-0.834 1.837-1.899 1.837zM1.994 5.333c-0.313 0-0.657 0.339-0.657 0.648v8.182c0 0.297 0.346 0.504 0.657 0.504h10.777c0.273 0 0.566-0.158 0.566-0.504v-8.182c0-0.333-0.275-0.648-0.566-0.648h-10.777z"></path>
<path d="M14.004 13.333h-13.333c-0.369 0-0.667-0.298-0.667-0.667s0.298-0.667 0.667-0.667h13.333c0.369 0 0.667 0.298 0.667 0.667s-0.298 0.667-0.667 0.667z"></path>
<path d="M8.68 18.667h-2.589c-0.369 0-0.667-0.298-0.667-0.667s0.298-0.667 0.667-0.667h2.589c0.369 0 0.667 0.298 0.667 0.667s-0.298 0.667-0.667 0.667z"></path>
<path d="M7.337 18.667c-0.369 0-0.667-0.298-0.667-0.667v-2.667c0-0.369 0.298-0.667 0.667-0.667s0.667 0.298 0.667 0.667v2.667c0 0.369-0.298 0.667-0.667 0.667z"></path>
<path d="M30.105 16h-10.777c-1.098 0-1.99-0.824-1.99-1.837v-8.182c0-1.055 0.93-1.981 1.99-1.981h10.777c1.030 0 1.9 0.908 1.9 1.981v8.182c0 1.030-0.835 1.837-1.9 1.837zM19.328 5.333c-0.313 0-0.656 0.339-0.656 0.648v8.182c0 0.297 0.346 0.504 0.656 0.504h10.777c0.273 0 0.566-0.158 0.566-0.504v-8.182c0-0.333-0.275-0.648-0.566-0.648h-10.777z"></path>
<path d="M31.339 13.333h-13.333c-0.369 0-0.667-0.298-0.667-0.667s0.298-0.667 0.667-0.667h13.333c0.369 0 0.667 0.298 0.667 0.667s-0.298 0.667-0.667 0.667z"></path>
<path d="M26.014 18.667h-2.589c-0.369 0-0.667-0.298-0.667-0.667s0.298-0.667 0.667-0.667h2.589c0.369 0 0.667 0.298 0.667 0.667s-0.298 0.667-0.667 0.667z"></path>
<path d="M24.672 18.667c-0.369 0-0.667-0.298-0.667-0.667v-2.667c0-0.369 0.298-0.667 0.667-0.667s0.667 0.298 0.667 0.667v2.667c0 0.369-0.298 0.667-0.667 0.667z"></path>
</svg>
