<svg version="1.1" xmlns="http://www.w3.org/2000/svg" width="32" height="32" viewBox="0 0 32 32">
<title>network_firewall</title>
<path d="M11.423 30.76c-3.268 0-5.101-0.925-6.608-1.685l-0.154-0.078c-4.7-2.887-4.234-7.4-3.823-11.38 0.245-2.379 0.477-4.625-0.221-6.545-0.142-0.388-0.016-0.817 0.315-1.066 0.334-0.251 0.783-0.255 1.119-0.010 0.465 0.35 3.328 4.243 4.689 6.861 0.266-1.017 0.425-2.352 0.589-3.737 0.505-4.265 1.133-9.572 5.222-12.027 0.29-0.174 0.65-0.177 0.944-0.011 0.292 0.166 0.475 0.479 0.475 0.814 0 4.982 0.359 8.609 1.094 11.001 0.829-2.036 2.559-5.135 5.521-5.629 0.367-0.072 0.767 0.111 0.966 0.457 0.201 0.35 0.161 0.773-0.103 1.077-1.76 2.053-0.889 5.9-0.434 7.458 0.104 0.354-0.099 0.724-0.452 0.827-0.358 0.104-0.724-0.1-0.827-0.452-0.563-1.919-1.216-5.257 0.038-7.709-2.159 1.087-3.516 4.177-4.018 6.050-0.071 0.265-0.297 0.46-0.57 0.49-0.279 0.031-0.536-0.109-0.663-0.353-1.238-2.356-1.84-6.329-1.884-12.471-2.999 2.295-3.543 6.895-3.986 10.633-0.28 2.362-0.521 4.401-1.314 5.603-0.081 0.123-0.199 0.215-0.338 0.263-0.173 0.060-0.385 0.055-0.549-0.030s-0.306-0.225-0.355-0.402c-0.389-1.385-2.467-4.492-3.796-6.307 0.238 1.727 0.048 3.561-0.137 5.351-0.407 3.939-0.791 7.66 3.145 10.081l0.106 0.051c1.633 0.823 3.485 1.754 7.236 1.497 0.353-0.029 0.686 0.253 0.712 0.62s-0.252 0.685-0.619 0.711c-0.465 0.033-0.905 0.047-1.321 0.047z"></path>
<path d="M23.315 32h-8c-0.369 0-0.667-0.298-0.667-0.667v-12c0-0.369 0.298-0.667 0.667-0.667h8c0.369 0 0.667 0.298 0.667 0.667v4c0 0.369-0.298 0.667-0.667 0.667h-7.333v2.667h7.333c0.369 0 0.667 0.298 0.667 0.667v4c0 0.369-0.298 0.667-0.667 0.667zM15.982 30.667h6.667v-2.667h-6.667v2.667zM15.982 22.667h6.667v-2.667h-6.667v2.667z"></path>
<path d="M31.173 24h-7.858c-0.369 0-0.667-0.298-0.667-0.667v-4c0-0.369 0.298-0.667 0.667-0.667h7.858c0.369 0 0.667 0.298 0.667 0.667s-0.298 0.667-0.667 0.667h-7.191v2.667h7.191c0.369 0 0.667 0.298 0.667 0.667s-0.298 0.667-0.667 0.667z"></path>
<path d="M31.173 32h-7.858c-0.369 0-0.667-0.298-0.667-0.667v-4c0-0.369 0.298-0.667 0.667-0.667h7.858c0.369 0 0.667 0.298 0.667 0.667s-0.298 0.667-0.667 0.667h-7.191v2.667h7.191c0.369 0 0.667 0.298 0.667 0.667s-0.298 0.667-0.667 0.667z"></path>
<path d="M27.315 28h-8c-0.369 0-0.667-0.298-0.667-0.667v-4c0-0.369 0.298-0.667 0.667-0.667h8c0.369 0 0.667 0.298 0.667 0.667v4c0 0.369-0.298 0.667-0.667 0.667zM19.982 26.667h6.667v-2.667h-6.667v2.667z"></path>
<path d="M31.173 28h-3.858c-0.369 0-0.667-0.298-0.667-0.667v-4c0-0.369 0.298-0.667 0.667-0.667h3.858c0.369 0 0.667 0.298 0.667 0.667s-0.298 0.667-0.667 0.667h-3.191v2.667h3.191c0.369 0 0.667 0.298 0.667 0.667s-0.298 0.667-0.667 0.667z"></path>
<path d="M19.315 28h-4c-0.369 0-0.667-0.298-0.667-0.667s0.298-0.667 0.667-0.667h3.333v-2.667h-3.333c-0.369 0-0.667-0.298-0.667-0.667s0.298-0.667 0.667-0.667h4c0.369 0 0.667 0.298 0.667 0.667v4c0 0.369-0.298 0.667-0.667 0.667z"></path>
</svg>
