<svg version="1.1" xmlns="http://www.w3.org/2000/svg" width="32" height="32" viewBox="0 0 32 32">
<title>new</title>
<path d="M15.969 31.712c-8.699 0-15.777-7.077-15.777-15.777s7.077-15.776 15.777-15.776c8.7 0 15.777 7.077 15.777 15.776s-7.077 15.777-15.777 15.777zM15.969 1.493c-7.964 0-14.443 6.479-14.443 14.443s6.479 14.443 14.443 14.443 14.443-6.479 14.443-14.443c0-7.963-6.479-14.443-14.443-14.443z"></path>
<path d="M6.412 18.939c-0.369 0-0.667-0.298-0.667-0.667v-4.591c0-0.369 0.298-0.667 0.667-0.667s0.667 0.298 0.667 0.667v4.591c0 0.369-0.298 0.667-0.667 0.667z"></path>
<path d="M10.227 18.939c-0.369 0-0.667-0.298-0.667-0.667v-2.768c0.003-0.175-0.046-0.635-0.309-0.903-0.167-0.171-0.411-0.254-0.747-0.254-1.213 0-1.427 1.184-1.436 1.234-0.062 0.363-0.409 0.605-0.769 0.546-0.363-0.061-0.607-0.406-0.546-0.768 0.138-0.811 0.889-2.345 2.751-2.345 0.884 0 1.419 0.362 1.712 0.666 0.697 0.723 0.681 1.736 0.676 1.849l0.001 2.743c0 0.369-0.298 0.667-0.667 0.667z"></path>
<path d="M14.999 19.004c-1.53 0-2.775-1.376-2.775-3.068s1.245-3.068 2.775-3.068 2.775 1.376 2.775 3.068c0 0.368-0.298 0.666-0.667 0.666h-3.439c0.217 0.628 0.732 1.069 1.331 1.069 0.594 0 1.043-0.186 1.337-0.555 0.231-0.288 0.65-0.337 0.936-0.105 0.288 0.229 0.336 0.648 0.105 0.936-0.384 0.483-1.109 1.057-2.379 1.057zM13.668 15.269h2.661c-0.217-0.626-0.732-1.068-1.331-1.068s-1.113 0.441-1.331 1.068z"></path>
<path d="M20.841 18.939c-0.279 0-0.527-0.173-0.625-0.434l-1.716-4.591c-0.129-0.345 0.047-0.729 0.392-0.858 0.341-0.128 0.728 0.046 0.858 0.391l1.086 2.907 1.068-2.904c0.096-0.261 0.346-0.436 0.625-0.436h0.001c0.279 0 0.527 0.173 0.625 0.433l1.086 2.908 1.070-2.905c0.128-0.346 0.516-0.519 0.855-0.395 0.345 0.127 0.522 0.51 0.395 0.856l-1.69 4.591c-0.095 0.262-0.345 0.435-0.624 0.436h-0.001c-0.279 0-0.527-0.173-0.625-0.434l-1.086-2.907-1.068 2.904c-0.096 0.262-0.346 0.435-0.625 0.436h-0.001z"></path>
</svg>
