<svg version="1.1" xmlns="http://www.w3.org/2000/svg" width="41" height="32" viewBox="0 0 41 32">
<title>new_dashboards</title>
<path d="M38.73 0h-36.191c-1.401 0.004-2.536 1.139-2.54 2.539v26.921c0.004 1.401 1.139 2.536 2.539 2.54h36.191c1.401-0.004 2.536-1.139 2.54-2.539v-26.921c-0.004-1.401-1.139-2.536-2.539-2.54h-0zM1.269 29.46v-21.397h27.271v22.667h-26c-0.701-0.002-1.269-0.569-1.271-1.27v-0zM40.001 29.46c-0.002 0.701-0.57 1.268-1.27 1.27h-8.952v-22.667h10.222zM40.001 6.794h-38.731v-4.254c0.002-0.701 0.57-1.268 1.27-1.27h36.191c0.701 0.002 1.268 0.57 1.27 1.27v0z"></path>
<path d="M15.204 2.421c-0 0-0.001 0-0.001 0-0.89 0-1.611 0.721-1.611 1.611s0.721 1.611 1.611 1.611c0.89 0 1.611-0.721 1.611-1.611v0c0-0 0-0.001 0-0.001 0-0.889-0.721-1.61-1.61-1.61v0z"></path>
<path d="M20.635 2.421c-0 0-0.001 0-0.001 0-0.89 0-1.611 0.721-1.611 1.611s0.721 1.611 1.611 1.611c0.89 0 1.611-0.721 1.611-1.611v0c0-0 0-0.001 0-0.001 0-0.889-0.721-1.61-1.61-1.61v0z"></path>
<path d="M27.554 3.416c0.34 0.822-0.050 1.764-0.872 2.104s-1.764-0.050-2.104-0.872c-0.34-0.822 0.050-1.764 0.872-2.104s1.764 0.050 2.104 0.872z"></path>
<path d="M25.564 9.762h-21.284c-0.351 0-0.635 0.285-0.635 0.636 0 0.001 0 0.002 0 0.003v-0 18.044c0.001 0.27 0.17 0.5 0.408 0.591l0.004 0.001c0.066 0.027 0.142 0.042 0.222 0.042 0.001 0 0.002 0 0.003 0h21.29c0.346-0.006 0.624-0.287 0.625-0.634v-18.045c0-0.001 0-0.002 0-0.003 0-0.35-0.284-0.634-0.634-0.635h-0zM24.927 27.87h-20.013v-16.838h20.006v7.997l0.007 0.945z"></path>
<path d="M19.040 18.529c-0.083 0-0.185 0-4.323 1.255l-0.069 0.021 1.082-4.387c0.009-0.036 0.015-0.077 0.015-0.119 0-0.23-0.158-0.422-0.37-0.476l-0.003-0.001c-0.408-0.104-0.877-0.164-1.359-0.164-3.15 0-5.704 2.554-5.704 5.704 0 3.149 2.552 5.702 5.7 5.704h0c3.149-0.003 5.7-2.556 5.7-5.705 0-0.525-0.071-1.033-0.204-1.516l0.009 0.040c-0.062-0.207-0.251-0.355-0.475-0.356h-0zM18.588 21.49c-0.526 2.077-2.378 3.589-4.583 3.589-2.607 0-4.721-2.114-4.721-4.721 0-2.606 2.111-4.719 4.717-4.721h0.058c0.196 0.003 0.386 0.017 0.573 0.041l-0.025-0.003 0.046 0.006-1.166 4.727c-0.009 0.035-0.014 0.076-0.014 0.118 0 0.271 0.22 0.49 0.49 0.49 0.001 0 0.001 0 0.002 0h-0c0.001 0 0.002 0 0.003 0 0.050 0 0.098-0.008 0.143-0.022l-0.003 0.001c1.51-0.459 3.567-1.079 4.517-1.357l0.045-0.013 0.007 0.047c0.031 0.206 0.049 0.443 0.049 0.684 0 0.402-0.050 0.793-0.144 1.166l0.007-0.033z"></path>
<path d="M17.944 12.794c-0.035-0.009-0.076-0.014-0.118-0.014h-0c-0 0-0 0-0 0-0.229 0-0.422 0.157-0.475 0.37l-0.001 0.003-1.080 4.338c-0.009 0.035-0.014 0.076-0.014 0.118 0 0.271 0.22 0.491 0.491 0.491 0 0 0.001 0 0.001 0h-0c0.001 0 0.002 0 0.002 0 0.047 0 0.093-0.007 0.135-0.020l-0.003 0.001 4.292-1.232c0.143-0.032 0.259-0.125 0.322-0.249l0.001-0.003c0.029-0.058 0.046-0.126 0.046-0.198 0-0.065-0.014-0.126-0.038-0.182l0.001 0.003c-0.509-1.69-1.845-2.982-3.527-3.419l-0.035-0.008zM17.43 16.902l0.748-3.004 0.044 0.017c0.972 0.396 1.736 1.134 2.156 2.062l0.010 0.025 0.019 0.044z"></path>
<path d="M37.754 12.721h-5.728c-0.007 0-0.016 0-0.024 0-0.399 0-0.722-0.323-0.722-0.722s0.323-0.722 0.722-0.722c0.009 0 0.017 0 0.026 0l-0.001-0h5.728c0.388 0.014 0.698 0.332 0.698 0.722s-0.31 0.708-0.697 0.722l-0.001 0z"></path>
<path d="M37.904 17.626h-5.728c-0.007 0-0.016 0-0.024 0-0.399 0-0.722-0.323-0.722-0.722s0.323-0.722 0.722-0.722c0.009 0 0.017 0 0.026 0l-0.001-0h5.728c0.388 0.014 0.698 0.332 0.698 0.722s-0.31 0.708-0.697 0.722l-0.001 0z"></path>
<path d="M37.754 22.533h-5.728c-0.007 0-0.016 0-0.024 0-0.399 0-0.722-0.323-0.722-0.722s0.323-0.722 0.722-0.722c0.009 0 0.017 0 0.026 0l-0.001-0h5.728c0.388 0.014 0.698 0.332 0.698 0.722s-0.31 0.708-0.697 0.722l-0.001 0z"></path>
<path d="M37.754 27.434h-5.728c-0.399 0-0.722-0.323-0.722-0.722s0.323-0.722 0.722-0.722v0h5.728c0.399 0 0.722 0.323 0.722 0.722s-0.323 0.722-0.722 0.722v0z"></path>
</svg>
