<!-- Generated by IcoMoon.io -->
<svg version="1.1" xmlns="http://www.w3.org/2000/svg" width="32" height="32" viewBox="0 0 32 32">
<title>newspaper_reading_news</title>
<path d="M27.5 7h-3.5v-2.5c0-1.4-1.1-2.5-2.5-2.5h-17c-1.4 0-2.5 1.1-2.5 2.5v22c0 1.9 1.6 3.5 3.5 3.5h20.5c2.2 0 4-1.8 4-4v-16.5c0-1.4-1.1-2.5-2.5-2.5zM4 26.5v-22c0-0.3 0.2-0.5 0.5-0.5h17c0.3 0 0.5 0.2 0.5 0.5v21.5c0 0.7 0.2 1.4 0.6 2h-17.1c-0.8 0-1.5-0.7-1.5-1.5zM28 26c0 1.1-0.9 2-2 2s-2-0.9-2-2v0-17h3.5c0.3 0 0.5 0.2 0.5 0.5v16.5z"></path>
<path d="M19 19h-12c-0.6 0-1 0.4-1 1s0.4 1 1 1h12c0.6 0 1-0.4 1-1s-0.4-1-1-1z"></path>
<path d="M19 23h-12c-0.6 0-1 0.4-1 1s0.4 1 1 1h12c0.6 0 1-0.4 1-1s-0.4-1-1-1z"></path>
<path d="M19 15h-12c-0.6 0-1 0.4-1 1s0.4 1 1 1h12c0.6 0 1-0.4 1-1s-0.4-1-1-1z"></path>
<path d="M19 11h-4c-0.6 0-1 0.4-1 1s0.4 1 1 1h4c0.6 0 1-0.4 1-1s-0.4-1-1-1z"></path>
<path d="M19 7h-4c-0.6 0-1 0.4-1 1s0.4 1 1 1h4c0.6 0 1-0.4 1-1s-0.4-1-1-1z"></path>
<path d="M7 13h4c0.6 0 1-0.4 1-1v-4c0-0.6-0.4-1-1-1h-4c-0.6 0-1 0.4-1 1v4c0 0.6 0.4 1 1 1z"></path>
</svg>
