<svg version="1.1" xmlns="http://www.w3.org/2000/svg" width="32" height="32" viewBox="0 0 32 32">
<title>newspaper_reading_news</title>
<path d="M15.305 18.667h-6.639c-0.369 0-0.667-0.298-0.667-0.667s0.298-0.667 0.667-0.667h6.639c0.369 0 0.667 0.298 0.667 0.667s-0.298 0.667-0.667 0.667z"></path>
<path d="M15.305 22.667h-6.639c-0.369 0-0.667-0.298-0.667-0.667s0.298-0.667 0.667-0.667h6.639c0.369 0 0.667 0.298 0.667 0.667s-0.298 0.667-0.667 0.667z"></path>
<path d="M15.305 14.667h-6.639c-0.369 0-0.667-0.298-0.667-0.667s0.298-0.667 0.667-0.667h6.639c0.369 0 0.667 0.298 0.667 0.667s-0.298 0.667-0.667 0.667z"></path>
<path d="M15.305 10.667h-6.639c-0.369 0-0.667-0.298-0.667-0.667s0.298-0.667 0.667-0.667h6.639c0.369 0 0.667 0.298 0.667 0.667s-0.298 0.667-0.667 0.667z"></path>
<path d="M27.306 22.667h-7.971c-0.369 0-0.667-0.298-0.667-0.667s0.298-0.667 0.667-0.667h7.971c0.369 0 0.667 0.298 0.667 0.667s-0.298 0.667-0.667 0.667z"></path>
<path d="M27.307 18.667h-7.973c-0.369 0-0.667-0.298-0.667-0.667v-8c0-0.369 0.298-0.667 0.667-0.667h7.973c0.369 0 0.667 0.298 0.667 0.667v8c0 0.369-0.298 0.667-0.667 0.667zM20.001 17.333h6.639v-6.667h-6.639v6.667z"></path>
<path d="M29.082 26.71h-26.302c-0.369 0-0.667-0.298-0.667-0.667s0.298-0.667 0.667-0.667h26.302c0.879 0 1.568-0.706 1.568-1.608v-15.263c0-0.958-0.754-1.768-1.647-1.768h-23.674v1.254c0 0.369-0.298 0.667-0.667 0.667s-0.667-0.298-0.667-0.667v-1.921c0-0.369 0.298-0.667 0.667-0.667h24.341c1.643 0 2.981 1.391 2.981 3.101v15.263c-0 1.622-1.301 2.941-2.901 2.941z"></path>
<path d="M2.662 26.715c-1.44 0-2.656-1.236-2.656-2.699v-16.024c0-0.369 0.298-0.667 0.667-0.667h3.99c0.369 0 0.667 0.298 0.667 0.667v16.012c-0.001 1.47-1.222 2.711-2.667 2.711zM1.339 8.658v15.357c0 0.728 0.619 1.366 1.323 1.366 0.71 0 1.333-0.643 1.333-1.378l0.001-15.346h-2.657z"></path>
</svg>
