<!-- Generated by IcoMoon.io -->
<svg version="1.1" xmlns="http://www.w3.org/2000/svg" width="32" height="32" viewBox="0 0 32 32">
<title>no_data</title>
    <path d="M29.6,26.4L29.6,26.4c-0.1,0-0.1,0-0.2,0H2.7c0,0-0.1,0-0.1,0c-0.1,0-0.2,0-0.4,0.1c-0.8,0.2-1.3,1-1.2,1.8
		c0.1,0.9,0.8,1.5,1.7,1.5c8.3,0,17,0,26.6,0c0.9,0,1.6-0.6,1.7-1.6C31.1,27.3,30.5,26.6,29.6,26.4z M30.2,28.1
		c0,0.5-0.4,0.7-0.8,0.8c-0.2,0-0.4,0-0.5,0c-0.1,0-0.2,0-0.3,0c-0.1,0-0.2,0-0.3,0H13.4c-3.5,0-7,0-10.5,0c-0.2,0-0.7,0-0.9-0.4
		c-0.2-0.3-0.2-0.6,0-0.9c0.2-0.4,0.7-0.4,0.8-0.4c1.1,0,2.2,0,3.3,0h3.3c6.6,0,13.1,0,19.7,0h0c0.1,0,0.3,0,0.4,0
		C30,27.3,30.2,27.7,30.2,28.1L30.2,28.1z"/>
    <path d="M6,19h3.3c0.6,0,1.2,0,1.9,0c5.9,0,11.9,0,17.8,0c0.1,0,0.1,0,0.2,0L29.1,18c-0.4-3.4-1.6-6.2-3.5-8.2
		c-1.9-2-4.5-3.5-7.8-4.2l-0.2-0.1l0.1-0.2c0.4-1.1,0.2-1.9-0.5-2.5c-0.7-0.5-1.6-0.6-2.3-0.2c-0.4,0.2-0.7,0.6-0.8,1
		c-0.2,0.6-0.2,1.1,0.1,1.7l0.1,0.2L14,5.5c-3.3,0.8-5.9,2.2-7.8,4.2c-1.8,2.1-3,4.8-3.4,8.2l0,1.1C3.8,19,4.9,19,6,19L6,19z
		 M15.1,3.5c0.2-0.2,0.5-0.4,0.8-0.4c0.6,0,1.2,0.5,1.2,1.2c0,0.3-0.1,0.6-0.3,0.8c-0.2,0.2-0.5,0.4-0.8,0.4c-0.6,0-1.2-0.5-1.2-1.1
		C14.8,4,14.9,3.7,15.1,3.5z M3.7,17.9L3.7,17.9c0-2.7,1.2-5.5,3.2-7.7c2.2-2.4,5.3-3.8,8.6-3.9c3.3-0.1,6.4,1,8.8,3.2
		c2.4,2.2,3.8,5.3,3.9,8.4v0.2H3.7L3.7,17.9z"/>
    <path d="M16,8L16,8c0,0-0.1,0-0.1,0c-0.3,0-0.5,0-0.8,0.1c-3.4,0.4-6.1,2-8,4.8c-0.3,0.4-0.5,0.8-0.7,1.3c-0.1,0.1-0.1,0.2,0,0.3
		c0,0.1,0.1,0.2,0.2,0.2c0.2,0.1,0.4,0,0.5-0.2c0-0.1,0.1-0.2,0.1-0.2c0-0.1,0.1-0.1,0.1-0.2c0.9-1.8,2.3-3.2,4.1-4.1
		c1.4-0.7,2.9-1.1,4.5-1.1c0.3,0,0.5-0.2,0.5-0.4C16.4,8.2,16.2,8,16,8z"/>
    <path d="M8.1,22.3L8.1,22.3c-0.2,0.2-0.2,0.4,0,0.6l1.7,1.7c0.1,0.1,0.2,0.1,0.3,0.1c0.1,0,0.2,0,0.3-0.1c0.2-0.2,0.2-0.4,0-0.6
		l-1.7-1.7C8.5,22.2,8.3,22.2,8.1,22.3z"/>
    <path d="M23.2,22.3L23.2,22.3L21.5,24c-0.2,0.2-0.2,0.4,0,0.6c0.1,0.1,0.2,0.1,0.3,0.1c0.1,0,0.2,0,0.3-0.1l1.7-1.7
		c0.2-0.2,0.2-0.4,0-0.6C23.6,22.2,23.3,22.2,23.2,22.3z"/>
    <path d="M15.5,21.9v2.3c0,0.2,0.2,0.4,0.4,0.4c0.2,0,0.4-0.2,0.4-0.4v-2.3c0-0.2-0.2-0.4-0.4-0.4C15.7,21.5,15.5,21.7,15.5,21.9z"
    />
    <path d="M19.4,21.8L18.5,24c-0.1,0.2,0,0.4,0.2,0.5c0.1,0,0.1,0,0.2,0c0.2,0,0.3-0.1,0.4-0.2l0.9-2.2c0.1-0.2,0-0.4-0.2-0.5
		C19.7,21.5,19.4,21.7,19.4,21.8z"/>
    <path d="M12,21.6c-0.2,0.1-0.3,0.3-0.2,0.5l0.9,2.2c0.1,0.2,0.2,0.2,0.4,0.2c0.1,0,0.1,0,0.2,0c0.2-0.1,0.3-0.3,0.2-0.5l-0.9-2.2
		C12.5,21.7,12.2,21.5,12,21.6z"/>
</svg>
