<!-- Generated by IcoMoon.io -->
<svg version="1.1" xmlns="http://www.w3.org/2000/svg" width="32" height="32" viewBox="0 0 32 32">
<title>no_data</title>
<path d="M33.294 28.118c-0.070 0-0.175-0.035-0.21-0.035v0h-31.126c-0.035 0-0.105 0-0.14 0.035-0.14 0.035-0.28 0.035-0.42 0.070-0.909 0.245-1.504 1.154-1.364 2.063 0.14 1.049 0.909 1.714 1.958 1.714 9.617 0 19.76 0 31.021 0 1.084 0 1.889-0.734 1.958-1.819 0.070-1.014-0.63-1.854-1.679-2.028zM34.063 30.146c-0.035 0.525-0.42 0.874-0.944 0.909-0.21 0-0.42 0-0.595 0-0.105 0-0.245 0-0.35 0s-0.245 0-0.35 0h-17.416c-4.092 0-8.149 0-12.24 0-0.28 0-0.769 0-1.049-0.455-0.21-0.35-0.21-0.734-0.035-1.084 0.28-0.49 0.804-0.49 0.979-0.49 1.294 0 2.588 0 3.882 0h3.882c7.659 0 15.318 0 22.977 0h0.035c0.14 0 0.315 0 0.49 0.035 0.455 0.105 0.769 0.525 0.734 1.084z"></path>
<path d="M5.84 19.515h3.882c0.734 0 1.434 0 2.168 0 6.925 0 13.849 0 20.774 0 0.070 0 0.14 0 0.175 0l-0.070-1.224c-0.455-3.952-1.819-7.169-4.022-9.548-2.168-2.378-5.246-4.057-9.093-4.931l-0.28-0.070 0.105-0.28c0.49-1.224 0.28-2.168-0.56-2.903-0.769-0.629-1.819-0.734-2.693-0.21-0.455 0.28-0.769 0.664-0.979 1.119-0.245 0.664-0.21 1.329 0.105 1.958l0.14 0.28-0.315 0.070c-3.882 0.909-6.925 2.588-9.093 4.931-2.133 2.413-3.497 5.631-3.952 9.582l-0.035 1.224c1.224 0 2.483 0 3.742 0zM16.472 1.434c0.245-0.245 0.595-0.42 0.944-0.42 0 0 0 0 0 0 0.734 0 1.364 0.629 1.364 1.364 0 0.35-0.14 0.699-0.385 0.944s-0.595 0.42-0.979 0.42c0 0 0 0 0 0-0.734 0-1.364-0.63-1.364-1.329 0-0.385 0.175-0.734 0.42-0.979zM3.183 18.256c0.035-3.148 1.434-6.4 3.742-8.953 2.588-2.798 6.12-4.407 9.967-4.581 3.812-0.14 7.449 1.189 10.247 3.777 2.763 2.553 4.442 6.12 4.581 9.757v0.245h-28.573l0.035-0.245z"></path>
<path d="M17.451 6.68c-0.035 0-0.070 0-0.14 0-0.315 0-0.63 0.035-0.979 0.070-3.952 0.42-7.064 2.308-9.268 5.631-0.315 0.455-0.56 0.979-0.804 1.504-0.070 0.105-0.070 0.245-0.035 0.35s0.14 0.21 0.28 0.28c0.245 0.105 0.455 0.035 0.595-0.245 0.035-0.105 0.105-0.175 0.14-0.28 0.035-0.070 0.070-0.105 0.105-0.175 1.084-2.098 2.693-3.742 4.826-4.826 1.609-0.839 3.357-1.294 5.211-1.294 0.35 0 0.525-0.175 0.525-0.49s-0.14-0.525-0.455-0.525z"></path>
<path d="M8.323 23.362c-0.175 0.175-0.175 0.49 0.035 0.664l2.028 1.924c0.105 0.070 0.21 0.14 0.315 0.14 0.14 0 0.245-0.035 0.35-0.14 0.175-0.175 0.175-0.49-0.035-0.664l-2.028-1.924c-0.21-0.175-0.49-0.175-0.664 0z"></path>
<path d="M25.88 23.362l-2.028 1.924c-0.175 0.175-0.21 0.455-0.035 0.664 0.105 0.105 0.21 0.14 0.35 0.14 0.105 0 0.21-0.035 0.315-0.14l2.028-1.924c0.175-0.175 0.21-0.455 0.035-0.664-0.175-0.175-0.49-0.175-0.664 0z"></path>
<path d="M16.962 22.907v2.693c0 0.245 0.21 0.455 0.455 0.455s0.455-0.21 0.455-0.455v-2.693c0-0.245-0.21-0.455-0.455-0.455s-0.455 0.175-0.455 0.455z"></path>
<path d="M21.403 22.802l-1.049 2.518c-0.105 0.245 0 0.49 0.245 0.595 0.070 0.035 0.105 0.035 0.175 0.035 0.175 0 0.35-0.105 0.42-0.28l1.049-2.518c0.105-0.245 0-0.49-0.245-0.595-0.21-0.105-0.49 0.035-0.595 0.245z"></path>
<path d="M12.835 22.557c-0.245 0.105-0.35 0.385-0.245 0.595l1.049 2.518c0.070 0.175 0.245 0.28 0.42 0.28 0.070 0 0.105 0 0.175-0.035 0.245-0.105 0.35-0.385 0.245-0.595l-1.049-2.518c-0.070-0.21-0.35-0.35-0.595-0.245z"></path>
</svg>
