<!-- Generated by IcoMoon.io -->
<svg version="1.1" xmlns="http://www.w3.org/2000/svg" width="32" height="32" viewBox="0 0 32 32">
<title>no_notifications</title>
<path d="M16 31.688c-8.65 0-15.684-7.038-15.684-15.688s7.034-15.688 15.684-15.688 15.684 7.037 15.684 15.688c0 8.65-7.034 15.688-15.684 15.688v0zM16 1.647c-7.912 0-14.353 6.438-14.353 14.353s6.438 14.353 14.353 14.353c7.913 0 14.353-6.438 14.353-14.353s-6.441-14.353-14.353-14.353v0z"></path>
<path d="M5.378 27.288c-0.172 0-0.341-0.066-0.472-0.197-0.259-0.259-0.259-0.681 0-0.944l21.241-21.241c0.259-0.259 0.681-0.259 0.944 0 0.259 0.259 0.259 0.681 0 0.944l-21.241 21.241c-0.128 0.131-0.3 0.197-0.472 0.197v0z"></path>
<path d="M16 22.325c-0.653 0-1.184-0.528-1.184-1.184v-16.284c0-0.653 0.528-1.184 1.184-1.184 0.653 0 1.184 0.528 1.184 1.184v16.288c0 0.653-0.531 1.181-1.184 1.181v0z"></path>
<path d="M16 28.328c-0.653 0-1.184-0.528-1.184-1.184v-0.416c0-0.653 0.528-1.184 1.184-1.184 0.653 0 1.184 0.528 1.184 1.184v0.416c0 0.656-0.531 1.184-1.184 1.184v0z"></path>
</svg>
