<!-- Generated by IcoMoon.io -->
<svg version="1.1" xmlns="http://www.w3.org/2000/svg" width="32" height="32" viewBox="0 0 32 32">
<title>notebook_paper</title>
<path d="M23 3h-1.1c-0.3-1.1-1.3-2-2.5-2h-6.7c-1.2 0-2.3 0.9-2.5 2h-1.2c-2.2 0-4 1.8-4 4v20c0 2.2 1.8 4 4 4h14c2.2 0 4-1.8 4-4v-20c0-2.2-1.8-4-4-4zM12 3.6c0-0.3 0.3-0.6 0.6-0.6h6.7c0.4 0 0.7 0.3 0.7 0.6v0.7c0 0.4-0.3 0.7-0.6 0.7h-6.7c-0.4 0-0.7-0.3-0.7-0.6v-0.8zM25 27c0 1.1-0.9 2-2 2h-14c-1.1 0-2-0.9-2-2v-20c0-1.1 0.9-2 2-2h1.1c0.3 1.1 1.3 2 2.5 2h6.7c1.2 0 2.3-0.9 2.5-2h1.2c1.1 0 2 0.9 2 2v20z"></path>
</svg>
