<svg version="1.1" xmlns="http://www.w3.org/2000/svg" width="32" height="32" viewBox="0 0 32 32">
<title>notebook_paper_certificate</title>
<path d="M21.978 8h-11.93c-0.369 0-0.667-0.298-0.667-0.667s0.298-0.667 0.667-0.667h11.93c0.369 0 0.667 0.298 0.667 0.667s-0.298 0.667-0.667 0.667z"></path>
<path d="M21.978 12h-11.93c-0.369 0-0.667-0.298-0.667-0.667s0.298-0.667 0.667-0.667h11.93c0.369 0 0.667 0.298 0.667 0.667s-0.298 0.667-0.667 0.667z"></path>
<path d="M21.978 16h-11.93c-0.369 0-0.667-0.298-0.667-0.667s0.298-0.667 0.667-0.667h11.93c0.369 0 0.667 0.298 0.667 0.667s-0.298 0.667-0.667 0.667z"></path>
<path d="M19.279 20h-9.231c-0.369 0-0.667-0.298-0.667-0.667s0.298-0.667 0.667-0.667h9.231c0.369 0 0.667 0.298 0.667 0.667s-0.298 0.667-0.667 0.667z"></path>
<path d="M21.352 27.638c-1.266 0-2.294-1.029-2.294-2.294s1.029-2.294 2.294-2.294 2.294 1.029 2.294 2.294-1.029 2.294-2.294 2.294zM21.352 24.383c-0.53 0-0.961 0.431-0.961 0.961s0.431 0.961 0.961 0.961 0.961-0.431 0.961-0.961-0.431-0.961-0.961-0.961z"></path>
<path d="M24.18 32h-16.359c-2.107 0-3.82-1.714-3.82-3.82v-24.359c0-2.107 1.714-3.82 3.82-3.82h16.359c2.107 0 3.82 1.714 3.82 3.82v24.359c0 2.107-1.714 3.82-3.82 3.82zM7.82 1.333c-1.371 0-2.487 1.116-2.487 2.487v24.359c0 1.371 1.116 2.487 2.487 2.487h16.359c1.371 0 2.487-1.116 2.487-2.487v-24.359c0-1.371-1.116-2.487-2.487-2.487h-16.359z"></path>
</svg>
