<svg version="1.1" xmlns="http://www.w3.org/2000/svg" width="32" height="32" viewBox="0 0 32 32">
<title>notes_text_notebook</title>
<path d="M28.591 31.991h-25.312c-0.369 0-0.667-0.298-0.667-0.667v-28.599c0-0.369 0.298-0.667 0.667-0.667h25.312c0.369 0 0.667 0.298 0.667 0.667v28.599c0 0.369-0.298 0.667-0.667 0.667zM3.946 30.658h23.979v-27.266h-23.979v27.266z"></path>
<path d="M23.324 26.708h-14.574c-0.369 0-0.667-0.298-0.667-0.667s0.298-0.667 0.667-0.667h14.574c0.369 0 0.667 0.298 0.667 0.667s-0.298 0.667-0.667 0.667z"></path>
<path d="M23.324 22.659h-14.574c-0.369 0-0.667-0.298-0.667-0.667s0.298-0.667 0.667-0.667h14.574c0.369 0 0.667 0.298 0.667 0.667s-0.298 0.667-0.667 0.667z"></path>
<path d="M23.324 18.609h-14.574c-0.369 0-0.667-0.298-0.667-0.667s0.298-0.667 0.667-0.667h14.574c0.369 0 0.667 0.298 0.667 0.667s-0.298 0.667-0.667 0.667z"></path>
<path d="M15.362 14.654h-6.612c-0.369 0-0.667-0.298-0.667-0.667s0.298-0.667 0.667-0.667h6.612c0.369 0 0.667 0.298 0.667 0.667s-0.298 0.667-0.667 0.667z"></path>
<path d="M8.656 7.049c-0.369 0-0.667-0.298-0.667-0.667v-5.613c0-0.369 0.298-0.667 0.667-0.667s0.667 0.298 0.667 0.667v5.613c0 0.369-0.298 0.667-0.667 0.667z"></path>
<path d="M16.007 7.049c-0.369 0-0.667-0.298-0.667-0.667v-5.613c0-0.369 0.298-0.667 0.667-0.667s0.667 0.298 0.667 0.667v5.613c0 0.369-0.298 0.667-0.667 0.667z"></path>
<path d="M8.655 9.568c-1.223 0-2.219-0.991-2.219-2.209s0.995-2.21 2.219-2.21c1.224 0 2.219 0.992 2.219 2.21s-0.995 2.209-2.219 2.209zM8.655 6.483c-0.488 0-0.885 0.393-0.885 0.876s0.397 0.876 0.885 0.876 0.886-0.393 0.886-0.876-0.398-0.876-0.886-0.876z"></path>
<path d="M23.324 7.049c-0.369 0-0.667-0.298-0.667-0.667v-5.613c0-0.369 0.298-0.667 0.667-0.667s0.667 0.298 0.667 0.667v5.613c0 0.369-0.298 0.667-0.667 0.667z"></path>
<path d="M23.323 9.568c-1.224 0-2.219-0.991-2.219-2.209s0.995-2.21 2.219-2.21 2.219 0.992 2.219 2.21-0.995 2.209-2.219 2.209zM23.323 6.483c-0.488 0-0.885 0.393-0.885 0.876s0.397 0.876 0.885 0.876 0.885-0.393 0.885-0.876-0.397-0.876-0.885-0.876z"></path>
<path d="M16 9.568c-1.223 0-2.219-0.991-2.219-2.209s0.995-2.21 2.219-2.21c1.224 0 2.219 0.992 2.219 2.21s-0.995 2.209-2.219 2.209zM16 6.483c-0.488 0-0.885 0.393-0.885 0.876s0.397 0.876 0.885 0.876 0.885-0.393 0.885-0.876-0.397-0.876-0.885-0.876z"></path>
</svg>
