<svg version="1.1" xmlns="http://www.w3.org/2000/svg" width="32" height="32" viewBox="0 0 32 32">
<title>notebook_paper_todo</title>
<path d="M24.187 32h-16.359c-2.107 0-3.82-1.714-3.82-3.82v-21.693c0-2.107 1.713-3.82 3.82-3.82h16.359c2.107 0 3.82 1.714 3.82 3.82v21.693c0 2.107-1.713 3.82-3.82 3.82zM7.828 4c-1.371 0-2.487 1.116-2.487 2.487v21.693c0 1.371 1.116 2.487 2.487 2.487h16.359c1.371 0 2.487-1.116 2.487-2.487v-21.693c0-1.371-1.116-2.487-2.487-2.487h-16.359z"></path>
<path d="M21.917 12h-11.902c-0.369 0-0.667-0.298-0.667-0.667s0.298-0.667 0.667-0.667h11.902c0.369 0 0.667 0.298 0.667 0.667s-0.298 0.667-0.667 0.667z"></path>
<path d="M21.917 17.333h-11.902c-0.369 0-0.667-0.298-0.667-0.667s0.298-0.667 0.667-0.667h11.902c0.369 0 0.667 0.298 0.667 0.667s-0.298 0.667-0.667 0.667z"></path>
<path d="M21.917 22.667h-11.902c-0.369 0-0.667-0.298-0.667-0.667s0.298-0.667 0.667-0.667h11.902c0.369 0 0.667 0.298 0.667 0.667s-0.298 0.667-0.667 0.667z"></path>
<path d="M16.008 5.337c-0.369 0-0.667-0.298-0.667-0.667v-3.99c0-0.369 0.298-0.667 0.667-0.667s0.667 0.298 0.667 0.667v3.99c0 0.369-0.298 0.667-0.667 0.667z"></path>
<path d="M12.008 5.337c-0.369 0-0.667-0.298-0.667-0.667v-3.99c0-0.369 0.298-0.667 0.667-0.667s0.667 0.298 0.667 0.667v3.99c0 0.369-0.298 0.667-0.667 0.667z"></path>
<path d="M20.008 5.337c-0.369 0-0.667-0.298-0.667-0.667v-3.99c0-0.369 0.298-0.667 0.667-0.667s0.667 0.298 0.667 0.667v3.99c0 0.369-0.298 0.667-0.667 0.667z"></path>
</svg>
