<svg version="1.1" xmlns="http://www.w3.org/2000/svg" width="32" height="32" viewBox="0 0 32 32">
<title>notebook_paper</title>
<path d="M24.184 32h-16.359c-2.107 0-3.82-1.714-3.82-3.82v-24.359c-0-2.107 1.713-3.82 3.82-3.82h16.359c2.107 0 3.82 1.714 3.82 3.82v24.359c0 2.107-1.713 3.82-3.82 3.82zM7.824 1.333c-1.371 0-2.487 1.116-2.487 2.487v24.359c0 1.371 1.116 2.487 2.487 2.487h16.359c1.371 0 2.487-1.116 2.487-2.487v-24.359c0-1.371-1.116-2.487-2.487-2.487h-16.359z"></path>
<path d="M21.974 9.333h-7.941c-0.369 0-0.667-0.298-0.667-0.667s0.298-0.667 0.667-0.667h7.941c0.369 0 0.667 0.298 0.667 0.667s-0.298 0.667-0.667 0.667z"></path>
<path d="M19.299 12h-5.267c-0.369 0-0.667-0.298-0.667-0.667s0.298-0.667 0.667-0.667h5.267c0.369 0 0.667 0.298 0.667 0.667s-0.298 0.667-0.667 0.667z"></path>
<path d="M10.001 32c-0.369 0-0.667-0.298-0.667-0.667v-30.667c0-0.369 0.298-0.667 0.667-0.667s0.667 0.298 0.667 0.667v30.667c0 0.369-0.298 0.667-0.667 0.667z"></path>
</svg>
