<!-- Generated by IcoMoon.io -->
<svg version="1.1" xmlns="http://www.w3.org/2000/svg" width="32" height="32" viewBox="0 0 32 32">
<title>notebook_paper</title>
<path fill="none" stroke-linejoin="round" stroke-linecap="butt" stroke-miterlimit="4" stroke-width="2" stroke="#000" d="M21 4h2c1.657 0 3 1.343 3 3v0 20c0 1.657-1.343 3-3 3v0h-14c-1.657 0-3-1.343-3-3v0-20c0-1.657 1.343-3 3-3v0h2"></path>
<path fill="none" stroke-linejoin="round" stroke-linecap="butt" stroke-miterlimit="4" stroke-width="2" stroke="#000" d="M12.633 2h6.734c0.902 0 1.633 0.731 1.633 1.633v0.734c0 0.902-0.731 1.633-1.633 1.633h-6.734c-0.902 0-1.633-0.731-1.633-1.633v-0.734c0-0.902 0.731-1.633 1.633-1.633z"></path>
</svg>
