<svg version="1.1" xmlns="http://www.w3.org/2000/svg" width="32" height="32" viewBox="0 0 32 32">
<title>notebook_to_do_bullets_list</title>
<path d="M28.598 31.991h-25.312c-0.369 0-0.667-0.298-0.667-0.667v-28.599c0-0.369 0.298-0.667 0.667-0.667h25.312c0.369 0 0.667 0.298 0.667 0.667v28.599c-0 0.369-0.298 0.667-0.667 0.667zM3.953 30.658h23.979v-27.266h-23.979v27.266z"></path>
<path d="M8.662 7.049c-0.369 0-0.667-0.298-0.667-0.667v-5.613c0-0.369 0.298-0.667 0.667-0.667s0.667 0.298 0.667 0.667v5.613c0 0.369-0.298 0.667-0.667 0.667z"></path>
<path d="M16.013 7.049c-0.369 0-0.667-0.298-0.667-0.667v-5.613c0-0.369 0.298-0.667 0.667-0.667s0.667 0.298 0.667 0.667v5.613c0 0.369-0.298 0.667-0.667 0.667z"></path>
<path d="M8.661 9.568c-1.223 0-2.219-0.991-2.219-2.209s0.995-2.21 2.219-2.21 2.219 0.991 2.219 2.209-0.995 2.209-2.219 2.209zM8.661 6.483c-0.488 0-0.885 0.393-0.885 0.876s0.397 0.876 0.885 0.876 0.885-0.393 0.885-0.876-0.397-0.876-0.885-0.876z"></path>
<path d="M23.331 7.049c-0.369 0-0.667-0.298-0.667-0.667v-5.613c0-0.369 0.298-0.667 0.667-0.667s0.667 0.298 0.667 0.667v5.613c0 0.369-0.298 0.667-0.667 0.667z"></path>
<path d="M23.329 9.568c-1.224 0-2.219-0.991-2.219-2.209s0.995-2.21 2.219-2.21 2.219 0.992 2.219 2.21-0.995 2.209-2.219 2.209zM23.329 6.483c-0.488 0-0.885 0.393-0.885 0.876s0.397 0.876 0.885 0.876 0.885-0.393 0.885-0.876-0.397-0.876-0.885-0.876z"></path>
<path d="M16.007 9.568c-1.223 0-2.219-0.991-2.219-2.209s0.995-2.21 2.219-2.21c1.224 0 2.219 0.992 2.219 2.21s-0.995 2.209-2.219 2.209zM16.007 6.483c-0.488 0-0.885 0.393-0.885 0.876s0.397 0.876 0.885 0.876 0.885-0.393 0.885-0.876-0.397-0.876-0.885-0.876z"></path>
<path d="M23.272 16.047h-9.069c-0.369 0-0.667-0.298-0.667-0.667s0.298-0.667 0.667-0.667h9.069c0.369 0 0.667 0.298 0.667 0.667s-0.298 0.667-0.667 0.667z"></path>
<path d="M11.367 17.369h-2.705c-0.369 0-0.667-0.298-0.667-0.667v-2.731c0-0.369 0.298-0.667 0.667-0.667h2.705c0.369 0 0.667 0.298 0.667 0.667v2.731c0 0.368-0.298 0.667-0.667 0.667zM9.328 16.035h1.372v-1.397h-1.372v1.397z"></path>
<path d="M23.272 21.38h-9.069c-0.369 0-0.667-0.298-0.667-0.667s0.298-0.667 0.667-0.667h9.069c0.369 0 0.667 0.298 0.667 0.667s-0.298 0.667-0.667 0.667z"></path>
<path d="M23.272 26.715h-9.069c-0.369 0-0.667-0.298-0.667-0.667s0.298-0.667 0.667-0.667h9.069c0.369 0 0.667 0.298 0.667 0.667s-0.298 0.667-0.667 0.667z"></path>
<path d="M11.367 22.702h-2.705c-0.369 0-0.667-0.298-0.667-0.667v-2.731c0-0.369 0.298-0.667 0.667-0.667h2.705c0.369 0 0.667 0.298 0.667 0.667v2.731c0 0.368-0.298 0.667-0.667 0.667zM9.328 21.369h1.372v-1.397h-1.372v1.397z"></path>
<path d="M11.367 28.035h-2.705c-0.369 0-0.667-0.298-0.667-0.667v-2.729c0-0.369 0.298-0.667 0.667-0.667h2.705c0.369 0 0.667 0.298 0.667 0.667v2.729c0 0.368-0.298 0.667-0.667 0.667zM9.328 26.702h1.372v-1.396h-1.372v1.396z"></path>
</svg>
