<!-- Generated by IcoMoon.io -->
<svg version="1.1" xmlns="http://www.w3.org/2000/svg" width="32" height="32" viewBox="0 0 32 32">
<title>office_trash_bin</title>
<path d="M29 3h-26c-1.1 0-2 0.9-2 2v3c0 1.1 0.9 2 2 2h1.1l1.7 16.4c0.2 1.5 1.5 2.6 3 2.6h14.4c1.5 0 2.8-1.1 3-2.7l1.7-16.3h1.1c1.1 0 2-0.9 2-2v-3c0-1.1-0.9-2-2-2zM3 5v0c0 0 0 0 0 0zM24.2 26.1c-0.1 0.5-0.5 0.9-1 0.9h-14.4c-0.5 0-0.9-0.4-1-0.9l-1.7-16.1h19.8l-1.7 16.1zM29 8h-26v-3h26v3z"></path>
<path d="M11.8 22.7c0.4 0.4 1 0.4 1.4 0l2.8-2.8 2.8 2.8c0.2 0.2 0.5 0.3 0.7 0.3s0.5-0.1 0.7-0.3c0.4-0.4 0.4-1 0-1.4l-2.8-2.8 2.8-2.8c0.4-0.4 0.4-1 0-1.4s-1-0.4-1.4 0l-2.8 2.8-2.8-2.8c-0.4-0.4-1-0.4-1.4 0s-0.4 1 0 1.4l2.8 2.8-2.8 2.8c-0.4 0.4-0.4 1 0 1.4z"></path>
</svg>
