<!-- Generated by IcoMoon.io -->
<svg version="1.1" xmlns="http://www.w3.org/2000/svg" width="32" height="32" viewBox="0 0 32 32">
<title>office_archive</title>
<path d="M31 27.2l-2.2-20.1c-0.1-1.3-1.3-2.2-2.5-2.1l-2.5 0.3c-0.3 0-0.5 0.1-0.8 0.2v-1.5c0-1.1-0.9-2-2-2h-4c-1.1 0-2 0.9-2 2v5.3c-0.3-0.2-0.6-0.3-1-0.3h-6c-0.4 0-0.7 0.1-1 0.3v-2.3c0-1.1-0.9-2-2-2h-2c-1.1 0-2 0.9-2 2v21c0 1.1 0.9 2 2 2h2c0.6 0 1.1-0.3 1.5-0.7 0.4 0.4 0.9 0.7 1.5 0.7h6c0.6 0 1.1-0.3 1.5-0.7 0.4 0.4 0.9 0.7 1.5 0.7h4c1.1 0 2-0.9 2-2v-8.8l0.9 8.7c0.1 1.2 1.1 2.1 2.3 2.1 0.1 0 0.2 0 0.2 0l2.5-0.3c0.6-0.1 1.1-0.4 1.5-0.8 0.5-0.5 0.7-1.1 0.6-1.7zM3 7v0c0 0 0 0 0 0zM5 28h-2v-21h2v21zM8 15h6v9h-6v-9zM14 11v2h-6v-2h6zM8 10v1c0 0 0 0 0 0v-1zM8 28v-2h6v2h-6zM17 4v0c0 0 0 0 0 0zM21 28h-4v-24h4v24zM28.9 27.6c0 0-0.1 0.1-0.2 0.1l-2.5 0.3c-0.2 0-0.3-0.1-0.3-0.3l-2.1-20.1c0-0.1 0-0.2 0.1-0.2 0 0 0.1-0.1 0.2-0.1l2.4-0.3c0.2 0 0.3 0.1 0.3 0.3l2.2 20.1c0 0.1 0 0.2-0.1 0.2z"></path>
</svg>
