<svg version="1.1" xmlns="http://www.w3.org/2000/svg" width="32" height="32" viewBox="0 0 32 32">
<title>office_trash_bin</title>
<path d="M16.115 31.779c-4.059 0-10.93-0.637-10.93-3.025l-2.26-24.232c-0.034-0.367 0.236-0.691 0.602-0.726 0.357-0.036 0.691 0.235 0.726 0.602l2.262 24.294c0.234 0.633 3.738 1.753 9.599 1.753 5.859 0 9.363-1.12 9.599-1.72l2.262-24.327c0.035-0.367 0.369-0.637 0.725-0.602 0.367 0.035 0.637 0.359 0.603 0.726l-2.263 24.293c0.003 2.327-6.867 2.963-10.926 2.963z"></path>
<path d="M16.115 8.681c-6.555 0-13.192-1.458-13.192-4.244s6.637-4.245 13.192-4.245c6.555 0 13.191 1.458 13.191 4.245s-6.637 4.244-13.191 4.244zM16.115 1.525c-7.239 0-11.859 1.725-11.859 2.911s4.62 2.911 11.859 2.911c7.238 0 11.858-1.724 11.858-2.911s-4.62-2.911-11.858-2.911z"></path>
<path d="M16.115 31.779c-0.177 0-0.354-0.070-0.486-0.21l-11.146-11.837c-0.252-0.268-0.24-0.69 0.029-0.943s0.689-0.241 0.943 0.029l11.146 11.837c0.253 0.268 0.24 0.69-0.029 0.943-0.129 0.121-0.293 0.181-0.457 0.181z"></path>
<path d="M26.078 29.982c-0.172 0-0.344-0.066-0.474-0.198l-22.27-22.501c-0.259-0.262-0.257-0.684 0.005-0.943 0.262-0.258 0.684-0.258 0.943 0.005l22.27 22.501c0.259 0.262 0.257 0.684-0.005 0.943-0.13 0.129-0.299 0.193-0.469 0.193z"></path>
<path d="M27.264 19.881c-0.171 0-0.342-0.065-0.473-0.197l-11.15-11.201c-0.26-0.26-0.258-0.683 0.003-0.943s0.685-0.258 0.943 0.003l11.15 11.201c0.259 0.26 0.259 0.682-0.003 0.943-0.13 0.129-0.299 0.194-0.47 0.194z"></path>
<path d="M16.115 31.779c-0.163 0-0.327-0.060-0.456-0.18-0.269-0.253-0.283-0.675-0.031-0.943l11.149-11.897c0.253-0.269 0.675-0.281 0.943-0.031 0.268 0.253 0.283 0.675 0.031 0.943l-11.15 11.897c-0.131 0.141-0.309 0.211-0.487 0.211z"></path>
<path d="M6.148 29.984c-0.169 0-0.339-0.064-0.469-0.193-0.262-0.259-0.264-0.681-0.005-0.943l22.271-22.503c0.258-0.262 0.68-0.263 0.943-0.005 0.262 0.259 0.264 0.681 0.005 0.943l-22.271 22.503c-0.13 0.132-0.302 0.198-0.474 0.198z"></path>
<path d="M4.969 19.941c-0.169 0-0.339-0.064-0.469-0.193-0.262-0.259-0.264-0.681-0.005-0.943l11.146-11.26c0.258-0.262 0.681-0.263 0.943-0.005 0.262 0.259 0.264 0.681 0.005 0.943l-11.146 11.26c-0.13 0.131-0.302 0.198-0.474 0.198z"></path>
</svg>
