<svg version="1.1" xmlns="http://www.w3.org/2000/svg" width="32" height="32" viewBox="0 0 32 32">
<title>office_archive</title>
<path d="M31.292 29.337h-30.561c-0.369 0-0.667-0.298-0.667-0.667s0.298-0.667 0.667-0.667h30.561c0.369 0 0.667 0.298 0.667 0.667s-0.298 0.667-0.667 0.667z"></path>
<path d="M9.964 29.337h-8c-0.369 0-0.667-0.298-0.667-0.667v-20c0-0.369 0.298-0.667 0.667-0.667h8c0.369 0 0.667 0.298 0.667 0.667v20c0 0.369-0.298 0.667-0.667 0.667zM2.63 28.004h6.667v-18.667h-6.667v18.667z"></path>
<path d="M7.257 25.337h-2.696c-0.369 0-0.667-0.298-0.667-0.667s0.298-0.667 0.667-0.667h2.696c0.369 0 0.667 0.298 0.667 0.667s-0.298 0.667-0.667 0.667z"></path>
<path d="M15.257 25.337h-2.697c-0.369 0-0.667-0.298-0.667-0.667s0.298-0.667 0.667-0.667h2.697c0.369 0 0.667 0.298 0.667 0.667s-0.298 0.667-0.667 0.667z"></path>
<path d="M24.479 29.333c-0.102 0-0.203-0.023-0.296-0.069-0.163-0.081-0.285-0.223-0.34-0.396l-6.001-18.856c-0.108-0.342 0.073-0.709 0.41-0.83l6.615-2.371c0.172-0.061 0.361-0.050 0.521 0.030 0.163 0.080 0.285 0.223 0.34 0.396l6 18.858c0.108 0.341-0.073 0.708-0.41 0.829l-6.613 2.37c-0.073 0.026-0.15 0.039-0.225 0.039zM19.309 10.221l5.596 17.585 5.357-1.919-5.595-17.587-5.358 1.921z"></path>
<path d="M23.092 14.596c-0.833 0-1.573-0.546-1.84-1.357-0.341-1.035 0.198-2.17 1.201-2.529 0.996-0.358 2.143 0.221 2.481 1.245 0.341 1.036-0.198 2.17-1.202 2.529-0.206 0.074-0.421 0.112-0.639 0.112zM23.094 11.931c-0.064 0-0.128 0.011-0.19 0.034-0.329 0.118-0.501 0.502-0.385 0.857 0.108 0.328 0.456 0.516 0.764 0.407 0.329-0.118 0.501-0.501 0.385-0.855-0.087-0.264-0.318-0.442-0.574-0.442z"></path>
<path d="M5.909 14.645c-1.111 0-2.015-0.904-2.015-2.015s0.904-2.015 2.015-2.015c1.111 0 2.014 0.904 2.014 2.015s-0.904 2.015-2.014 2.015zM5.909 11.948c-0.376 0-0.682 0.306-0.682 0.682s0.306 0.682 0.682 0.682 0.681-0.306 0.681-0.682-0.305-0.682-0.681-0.682z"></path>
<path d="M17.964 29.337h-8c-0.369 0-0.667-0.298-0.667-0.667v-20c0-0.369 0.298-0.667 0.667-0.667h8c0.369 0 0.667 0.298 0.667 0.667v20c0 0.369-0.298 0.667-0.667 0.667zM10.63 28.004h6.667v-18.667h-6.667v18.667z"></path>
<path d="M13.909 14.645c-1.111 0-2.015-0.904-2.015-2.015s0.904-2.015 2.015-2.015c1.111 0 2.014 0.904 2.014 2.015s-0.904 2.015-2.014 2.015zM13.909 11.948c-0.376 0-0.682 0.306-0.682 0.682s0.306 0.682 0.682 0.682 0.681-0.306 0.681-0.682-0.305-0.682-0.681-0.682z"></path>
</svg>
