<svg version="1.1" xmlns="http://www.w3.org/2000/svg" width="32" height="32" viewBox="0 0 32 32">
<title>oid</title>
<path d="M13.467 6.667c0.133 0.8 0.8 1.333 1.6 1.333h1.733c0.8 0 1.6-0.533 1.6-1.333l0.533-4.8c0-0.4-0.133-0.933-0.4-1.333-0.133-0.267-0.533-0.533-1.067-0.533h-2.933c-0.4 0-0.933 0.267-1.2 0.533-0.267 0.4-0.533 0.8-0.4 1.333l0.533 4.8zM14.267 1.467c0-0.133 0.133-0.133 0.267-0.133h2.933c0 0 0.133 0 0.267 0.133 0 0 0.133 0.133 0.133 0.267l-0.533 4.8c-0.133 0.133-0.267 0.133-0.4 0.133h-1.733c-0.133 0-0.267-0.133-0.4-0.267l-0.533-4.667c-0.133-0.133 0-0.267 0-0.267z"></path>
<path d="M23.467 5.333h-2.133c-0.4 0-0.667 0.267-0.667 0.667s0.267 0.667 0.667 0.667h2.133c1.067 0 1.867 0.8 1.867 1.6v14.4h-18.667v-14.4c0-0.8 0.8-1.6 1.867-1.6h2.133c0.4 0 0.667-0.267 0.667-0.667s-0.267-0.667-0.667-0.667h-2.133c-1.733 0-3.2 1.333-3.2 2.933v20.8c0 1.733 1.333 2.933 3.2 2.933h15.067c1.733 0 3.2-1.2 3.2-2.8v-20.933c-0.133-1.6-1.6-2.933-3.333-2.933zM23.467 30.667h-14.933c-0.933 0-1.867-0.533-1.867-1.467v-5.2h18.667v5.2c0 0.933-0.933 1.467-1.867 1.467z"></path>
<path d="M21.867 26.667h-5.067c-0.4 0-0.667 0.267-0.667 0.667s0.267 0.667 0.667 0.667h5.067c0.4 0 0.667-0.267 0.667-0.667s-0.267-0.667-0.667-0.667z"></path>
<path d="M12.8 26.667h-2.667c-0.4 0-0.667 0.267-0.667 0.667s0.267 0.667 0.667 0.667h2.667c0.4 0 0.667-0.267 0.667-0.667s-0.267-0.667-0.667-0.667z"></path>
<path d="M15.467 3.867c0.133 0.133 0.4 0.133 0.533 0.133s0.133 0 0.267 0 0.133-0.133 0.267-0.133c0.133 0 0.133-0.133 0.133-0.267s0-0.133 0-0.267 0-0.133 0-0.267-0.133-0.133-0.133-0.267c0 0-0.133-0.133-0.267-0.133-0.267 0-0.533 0-0.8 0.267-0.133 0-0.133 0.133-0.133 0.267s0 0.133 0 0.267 0 0.133 0 0.267c0.133 0 0.133 0 0.133 0.133z"></path>
<path d="M17.733 18.933c0 0 0 0 0 0-0.133 0-0.267 0.133-0.267 0.133-0.133 0.133-0.133 0.267-0.133 0.4l0.133 1.067h-3.067l0.133-1.067c0-0.133 0-0.267-0.133-0.267-0.133-0.133-0.133-0.133-0.4-0.133s-0.4 0.133-0.4 0.4l-0.267 1.467c0 0.4 0.267 0.667 0.667 0.667h3.6c0.133 0 0.4-0.133 0.533-0.133 0.133-0.133 0.133-0.267 0.133-0.533l-0.267-1.467c0.133-0.267 0-0.533-0.267-0.533z"></path>
<path d="M20.8 9.467h-9.6c-0.667 0-1.2 0.533-1.2 1.2v6.667c0 0.667 0.533 1.2 1.2 1.2h9.6c0.667 0 1.2-0.533 1.2-1.2v-6.667c0-0.667-0.533-1.2-1.2-1.2zM11.467 17.467c-0.133 0-0.4-0.133-0.4-0.267v-6.267c0-0.133 0.133-0.267 0.4-0.267h9.067c0.133 0 0.4 0.133 0.4 0.267v6.133c0 0.133-0.133 0.267-0.4 0.267h-9.067z"></path>
</svg>
