<svg version="1.1" xmlns="http://www.w3.org/2000/svg" width="32" height="32" viewBox="0 0 32 32">
<title>ok_successful_check_filled</title>
<path d="M16.127 0c-8.822 0-16 7.178-16 16s7.177 15.999 15.999 15.999 15.999-7.177 15.999-15.999-7.177-16-15.999-16zM26.16 10.623l-12.341 12.692c-0.253 0.26-0.607 0.421-0.998 0.421s-0.745-0.161-0.998-0.421l-0-0-5.732-5.892c-0.245-0.25-0.396-0.593-0.396-0.972 0-0.768 0.622-1.39 1.39-1.39 0 0 0.001 0 0.001 0h-0c0.001 0 0.003 0 0.004 0 0.389 0 0.74 0.16 0.991 0.418l0 0 4.738 4.872 11.347-11.669c0.253-0.26 0.607-0.421 0.998-0.421 0.377 0 0.719 0.15 0.97 0.393l-0-0c0.26 0.253 0.421 0.606 0.421 0.996 0 0.378-0.151 0.721-0.396 0.971l0-0z"></path>
</svg>
