<svg version="1.1" xmlns="http://www.w3.org/2000/svg" width="32" height="32" viewBox="0 0 32 32">
<title>ok_successful_check_bold</title>
<path d="M16.016 31.847c-8.734 0-15.844-7.106-15.844-15.844s7.106-15.844 15.844-15.844 15.844 7.106 15.844 15.844c0 8.738-7.109 15.844-15.844 15.844v0zM16.016 1.494c-8 0-14.509 6.509-14.509 14.509s6.509 14.509 14.509 14.509c8 0 14.509-6.509 14.509-14.509s-6.509-14.509-14.509-14.509v0z"></path>
<path d="M13.856 23.222v0 0z"></path>
<path d="M24.15 9.119c-0.219-0.172-0.491-0.266-0.766-0.266-0.375 0-0.725 0.169-0.959 0.459l-8.569 10.712-3.466-4.334c-0.234-0.291-0.584-0.459-0.959-0.459-0.278 0-0.55 0.097-0.766 0.269-0.528 0.425-0.613 1.2-0.191 1.728l4.425 5.534c0.234 0.291 0.584 0.459 0.959 0.459s0.725-0.169 0.959-0.462l9.525-11.912c0.422-0.528 0.337-1.303-0.194-1.728z"></path>
</svg>
