<svg version="1.1" xmlns="http://www.w3.org/2000/svg" width="32" height="32" viewBox="0 0 32 32">
<title>ok_successful_check</title>
<path d="M16.016 31.846c-8.736 0-15.843-7.107-15.843-15.842s7.107-15.844 15.843-15.844 15.842 7.107 15.842 15.844c0 8.736-7.107 15.842-15.842 15.842zM16.016 1.493c-8.001 0-14.51 6.509-14.51 14.51 0 8 6.509 14.509 14.51 14.509s14.509-6.509 14.509-14.509c0-8.001-6.509-14.51-14.509-14.51z"></path>
<path d="M13.856 22.659c-0.203 0-0.394-0.092-0.521-0.25l-4.425-5.533c-0.23-0.288-0.183-0.707 0.104-0.937s0.706-0.182 0.937 0.104l3.904 4.881 9.007-11.261c0.231-0.286 0.648-0.333 0.937-0.104 0.288 0.231 0.333 0.65 0.104 0.937l-9.528 11.912c-0.127 0.158-0.318 0.25-0.521 0.25z"></path>
</svg>
