<svg version="1.1" xmlns="http://www.w3.org/2000/svg" width="32" height="32" viewBox="0 0 32 32">
<title>ok_sign</title>
<path d="M16 0.228c-8.697 0-15.772 7.075-15.772 15.772s7.075 15.772 15.772 15.772c8.697 0 15.772-7.075 15.772-15.772s-7.075-15.772-15.772-15.772zM25.891 10.7l-12.166 12.512c-0.262 0.266-0.619 0.416-0.984 0.416-0.369 0-0.728-0.153-0.984-0.416l-5.65-5.809c-0.525-0.544-0.516-1.412 0.025-1.941 0.259-0.25 0.6-0.387 0.956-0.387 0.372 0 0.722 0.147 0.981 0.412l4.672 4.803 11.184-11.503c0.259-0.269 0.609-0.416 0.984-0.416 0.359 0 0.697 0.137 0.956 0.387v0c0.262 0.256 0.409 0.597 0.416 0.966 0.006 0.366-0.134 0.713-0.391 0.975z"></path>
</svg>
