<!-- Generated by IcoMoon.io -->
<svg version="1.1" xmlns="http://www.w3.org/2000/svg" width="32" height="32" viewBox="0 0 32 32">
<title>on_off_switch_toggle_settings_preferences</title>
<path d="M26.5 8.719c0-2.054-1.664-3.719-3.717-3.719h-9.282c0.857 1 1.374 2.299 1.374 3.719s-0.517 2.719-1.374 3.719h9.282c2.052 0 3.717-1.665 3.717-3.719zM9.156 5c-2.054 0-3.719 1.665-3.719 3.719 0 0.001 0 0.001 0 0.002 0.001 2.052 1.664 3.715 3.716 3.717 0 0 0 0 0.001 0h0.002c0.001 0 0.002 0 0.003 0 2.053-0.001 3.716-1.666 3.716-3.719s-1.665-3.719-3.719-3.719zM9.156 3h13.627c3.158 0 5.717 2.561 5.717 5.719s-2.559 5.719-5.717 5.719h-13.624c-0.001 0-0.002 0-0.003 0s-0.002 0-0.004 0c-3.156-0.001-5.713-2.559-5.715-5.715 0-0.001 0-0.002 0-0.004 0-3.158 2.559-5.719 5.717-5.719h0.002z"></path>
<path d="M22.781 27c2.054 0 3.719-1.665 3.719-3.719 0-0.001 0-0.001 0-0.002-0.001-2.052-1.664-3.715-3.716-3.717 0 0 0 0-0.001 0h-0.002c-0.001 0-0.002 0-0.003 0-2.053 0.001-3.716 1.666-3.716 3.719s1.665 3.719 3.719 3.719zM22.781 29h-13.627c-3.158 0-5.717-2.561-5.717-5.719s2.559-5.719 5.717-5.719h13.624c0.001 0 0.002 0 0.003 0s0.003 0 0.004 0c3.156 0.001 5.713 2.559 5.715 5.715 0 0.001 0 0.002 0 0.004 0 3.158-2.559 5.719-5.717 5.719h-0.002z"></path>
</svg>
