<svg version="1.1" xmlns="http://www.w3.org/2000/svg" width="32" height="32" viewBox="0 0 32 32">
<title>on_off_switch_toggle_settings_preferences2</title>
<path d="M24.457 11.813c-2.426 0-4.4-1.992-4.4-4.439s1.974-4.439 4.4-4.439c2.427 0 4.401 1.992 4.401 4.439s-1.974 4.439-4.401 4.439zM24.457 4.268c-1.691 0-3.066 1.393-3.066 3.105s1.375 3.105 3.066 3.105 3.068-1.393 3.068-3.105-1.376-3.105-3.068-3.105z"></path>
<path d="M24.457 14.668h-16.983c-4.017 0-7.285-3.29-7.285-7.333s3.269-7.333 7.285-7.333h16.983c4.017 0 7.285 3.29 7.285 7.333s-3.268 7.333-7.285 7.333zM7.474 1.335c-3.281 0-5.951 2.691-5.952 6s2.67 6 5.952 6h16.983c3.281 0 5.952-2.691 5.952-6s-2.671-6-5.952-6h-16.983z"></path>
<path d="M7.474 29.069c-2.426 0-4.401-1.991-4.401-4.439s1.975-4.439 4.401-4.439 4.401 1.991 4.401 4.439-1.975 4.439-4.401 4.439zM7.474 21.525c-1.691 0-3.068 1.393-3.068 3.105s1.376 3.105 3.068 3.105 3.068-1.393 3.068-3.105-1.376-3.105-3.068-3.105z"></path>
<path d="M24.457 32.003h-16.983c-4.017 0-7.285-3.29-7.285-7.333s3.268-7.333 7.285-7.333h16.983c4.017 0 7.285 3.29 7.285 7.333s-3.268 7.333-7.285 7.333zM7.474 18.669c-3.282 0-5.952 2.691-5.952 6s2.67 6 5.952 6h16.983c3.281 0 5.952-2.691 5.952-6s-2.671-6-5.952-6h-16.983z"></path>
<path d="M24.807 27.185c-0.369 0-0.667-0.298-0.667-0.667v-3.699c0-0.369 0.298-0.667 0.667-0.667h2.393c0.369 0 0.667 0.298 0.667 0.667s-0.298 0.667-0.667 0.667h-1.727v3.033c0 0.368-0.298 0.667-0.667 0.667z"></path>
<path d="M15.975 27.185c-1.322 0-2.397-1.129-2.397-2.516 0-1.388 1.075-2.517 2.397-2.517s2.396 1.129 2.396 2.517c0 1.387-1.074 2.516-2.396 2.516zM15.975 23.486c-0.586 0-1.063 0.531-1.063 1.184s0.477 1.182 1.063 1.182 1.063-0.53 1.063-1.182-0.477-1.184-1.063-1.184z"></path>
<path d="M7.693 9.89c-1.322 0-2.397-1.129-2.397-2.516s1.075-2.516 2.397-2.516 2.397 1.129 2.397 2.516-1.075 2.516-2.397 2.516zM7.693 6.191c-0.586 0-1.063 0.531-1.063 1.183s0.477 1.183 1.063 1.183 1.063-0.531 1.063-1.183-0.477-1.183-1.063-1.183z"></path>
<path d="M26.863 25.336h-2.056c-0.369 0-0.667-0.298-0.667-0.667s0.298-0.667 0.667-0.667h2.056c0.369 0 0.667 0.298 0.667 0.667s-0.298 0.667-0.667 0.667z"></path>
<path d="M20.139 27.185c-0.369 0-0.667-0.298-0.667-0.667v-3.699c0-0.369 0.298-0.667 0.667-0.667h2.395c0.369 0 0.667 0.298 0.667 0.667s-0.298 0.667-0.667 0.667h-1.728v3.033c0 0.368-0.298 0.667-0.667 0.667z"></path>
<path d="M22.195 25.336h-2.056c-0.369 0-0.667-0.298-0.667-0.667s0.298-0.667 0.667-0.667h2.056c0.369 0 0.667 0.298 0.667 0.667s-0.298 0.667-0.667 0.667z"></path>
<path d="M11.691 9.89c-0.369 0-0.667-0.298-0.667-0.667v-3.699c0-0.285 0.182-0.539 0.451-0.631s0.569-0.003 0.743 0.223l1.659 2.147v-1.671c0-0.369 0.298-0.667 0.667-0.667s0.667 0.298 0.667 0.667v3.624c0 0.285-0.182 0.539-0.451 0.631-0.27 0.089-0.569 0.002-0.743-0.223l-1.659-2.147v1.746c0 0.368-0.298 0.667-0.667 0.667z"></path>
</svg>
