<svg version="1.1" xmlns="http://www.w3.org/2000/svg" width="32" height="32" viewBox="0 0 32 32">
<title>on_off_switch_toggle_settings_preferences3</title>
<path d="M22.415 21.335h-12.903c-3.064 0-5.557-2.392-5.557-5.333s2.493-5.333 5.557-5.333h12.903c3.064 0 5.557 2.393 5.557 5.333s-2.493 5.333-5.557 5.333zM9.512 12.001c-2.369 0-4.224 1.757-4.224 4s1.855 4 4.224 4h12.903c2.369 0 4.224-1.757 4.224-4s-1.855-4-4.224-4h-12.903z"></path>
<path d="M31.325 32.001h-30.667c-0.369 0-0.667-0.298-0.667-0.667v-30.667c0-0.369 0.298-0.667 0.667-0.667h30.667c0.369 0 0.667 0.298 0.667 0.667v30.667c0 0.368-0.298 0.667-0.667 0.667zM1.325 30.668h29.333v-29.333h-29.333v29.333z"></path>
<path d="M9.294 18.47c-1.361 0-2.469-1.108-2.469-2.469 0-1.362 1.108-2.47 2.469-2.47s2.469 1.108 2.469 2.47c0 1.361-1.107 2.469-2.469 2.469zM9.294 14.865c-0.626 0-1.136 0.51-1.136 1.137s0.51 1.135 1.136 1.135 1.135-0.509 1.135-1.135c0-0.627-0.509-1.137-1.135-1.137z"></path>
</svg>
