<svg version="1.1" xmlns="http://www.w3.org/2000/svg" width="32" height="32" viewBox="0 0 32 32">
<title>on_off_switch_toggle_settings_preferences4</title>
<path d="M10.118 22.57c-3.246 0-5.887-2.641-5.887-5.887s2.641-5.887 5.887-5.887 5.887 2.641 5.887 5.887-2.641 5.887-5.887 5.887zM10.118 12.13c-2.511 0-4.554 2.043-4.554 4.554s2.043 4.553 4.554 4.553 4.553-2.043 4.553-4.553c0-2.511-2.042-4.554-4.553-4.554z"></path>
<path d="M21.863 26.482h-11.745c-5.405 0-9.803-4.402-9.803-9.814s4.398-9.813 9.803-9.813h11.745c5.405 0 9.802 4.402 9.802 9.813s-4.397 9.814-9.802 9.814zM10.118 8.188c-4.67 0-8.469 3.804-8.469 8.48s3.799 8.481 8.469 8.481h11.745c4.669 0 8.469-3.805 8.469-8.481s-3.799-8.48-8.469-8.48h-11.745z"></path>
</svg>
