<svg version="1.1" xmlns="http://www.w3.org/2000/svg" width="32" height="32" viewBox="0 0 32 32">
<title>on_off_switch_toggle_settings_preferences</title>
<path d="M24.453 11.813c-2.427 0-4.401-1.992-4.401-4.439s1.974-4.439 4.401-4.439 4.401 1.992 4.401 4.439-1.974 4.439-4.401 4.439zM24.453 4.268c-1.691 0-3.068 1.393-3.068 3.105s1.376 3.105 3.068 3.105 3.068-1.393 3.068-3.105-1.376-3.105-3.068-3.105z"></path>
<path d="M24.453 14.668h-16.983c-4.017 0-7.285-3.29-7.285-7.333s3.268-7.333 7.285-7.333h16.983c4.017 0 7.285 3.29 7.285 7.333s-3.268 7.333-7.285 7.333zM7.47 1.335c-3.282 0-5.952 2.691-5.952 6s2.67 6 5.952 6h16.983c3.281 0 5.952-2.691 5.952-6s-2.671-6-5.952-6h-16.983z"></path>
<path d="M7.47 29.069c-2.426 0-4.401-1.991-4.401-4.439s1.975-4.439 4.401-4.439 4.401 1.991 4.401 4.439-1.975 4.439-4.401 4.439zM7.47 21.525c-1.691 0-3.068 1.393-3.068 3.105s1.376 3.105 3.068 3.105 3.068-1.393 3.068-3.105-1.376-3.105-3.068-3.105z"></path>
<path d="M24.453 32.003h-16.983c-4.017 0-7.285-3.29-7.285-7.333s3.268-7.333 7.285-7.333h16.983c4.017 0 7.285 3.29 7.285 7.333s-3.268 7.333-7.285 7.333zM7.47 18.669c-3.282 0-5.952 2.691-5.952 6s2.67 6 5.952 6h16.983c3.281 0 5.952-2.691 5.952-6s-2.671-6-5.952-6h-16.983z"></path>
</svg>
