<!-- Generated by IcoMoon.io -->
<svg version="1.1" xmlns="http://www.w3.org/2000/svg" width="32" height="32" viewBox="0 0 32 32">
<title>open_search</title>
<path d="M19.769 20.194l-5.037-5.037c0.822-1.259 1.3-2.763 1.3-4.375 0-4.419-3.597-8.016-8.016-8.016s-8.016 3.597-8.016 8.016 3.597 8.016 8.016 8.016c1.613 0 3.116-0.478 4.372-1.3l5.037 5.037c0.278 0.278 0.634 0.444 1.019 0.478l0.003 0.006h0.15c0.444 0 0.859-0.172 1.169-0.484 0.647-0.644 0.647-1.697 0.003-2.341zM1.294 10.781c0-3.706 3.016-6.725 6.725-6.725 3.706 0 6.722 3.016 6.722 6.725 0 3.706-3.016 6.725-6.722 6.725-3.709 0-6.725-3.016-6.725-6.725zM18.853 21.622c-0.069 0.069-0.159 0.106-0.256 0.106s-0.188-0.038-0.256-0.106l-4.922-4.922c0.178-0.163 0.35-0.334 0.512-0.512l4.922 4.922c0.069 0.069 0.106 0.159 0.106 0.256s-0.038 0.188-0.106 0.256z"></path>
<path d="M8.969 5.269c-0.119-0.125-0.278-0.197-0.45-0.203-0.075-0.003-0.153-0.003-0.228-0.003-1.578 0-3.066 0.619-4.191 1.744-1.178 1.178-1.794 2.747-1.741 4.419 0.013 0.35 0.294 0.625 0.644 0.625v0c0.009 0 0.016 0 0.025 0 0.172-0.006 0.328-0.078 0.447-0.203s0.181-0.291 0.175-0.463c-0.044-1.309 0.441-2.541 1.362-3.463 0.881-0.881 2.047-1.366 3.284-1.366 0.053 0 0.109 0 0.166 0.003 0.022 0.003 0.044 0.003 0.069 0.003 0.325 0 0.6-0.281 0.609-0.628 0.006-0.175-0.056-0.341-0.172-0.466z"></path>
<path d="M28.175 6.381v0h-10.041v1.334h6.256v2.825h-6.272v1.306h6.272v15.341h-14.434c-1.372 0-2.487-1.116-2.487-2.488v-4.406h-1.334c0 0 0 3.047 0 3.050v1.356c0 2.106 1.713 3.819 3.819 3.819h18.219c2.106 0 3.822-1.712 3.819-3.819v-14.497c0.003-2.106-1.709-3.822-3.816-3.822zM30.663 24.7c0 1.369-1.116 2.488-2.488 2.488h-2.478v-15.341h4.966v12.853zM30.663 10.541h-4.966v-2.825h2.478c1.372 0 2.488 1.116 2.488 2.487v0.338z"></path>
</svg>
