<svg version="1.1" xmlns="http://www.w3.org/2000/svg" width="43" height="32" viewBox="0 0 43 32">
<title>or_filter</title>
<path d="M27.562 17.67c3.155 0 5.542 2.611 5.542 5.941 0 3.431-2.385 6.104-5.542 6.104s-5.543-2.677-5.543-6.104c0-3.335 2.386-5.941 5.543-5.941zM27.562 27.777c1.963 0 3.534-1.773 3.534-4.17 0-2.299-1.57-4.003-3.534-4.003s-3.534 1.708-3.534 4.003c0 2.402 1.572 4.17 3.534 4.17z"></path>
<path d="M35.078 17.864h3.456c1.162 0 1.693 0.097 2.157 0.326 1.071 0.525 1.754 1.642 1.754 3.182 0 1.396-0.679 2.692-1.809 3.181v0.031s0.153 0.163 0.362 0.576l2.202 4.352h-2.17l-2.131-4.352h-1.871v4.352h-1.948v-11.648zM38.78 23.331c1.039 0 1.694-0.674 1.694-1.836 0-1.116-0.439-1.805-1.963-1.805h-1.478v3.648h1.752z"></path>
<path d="M11.623 31.744c0.25 0.155 0.552 0.25 0.876 0.256l0.002 0c0.207 0 0.362-0.052 0.568-0.103l5.729-2.168c0.62-0.207 0.98-0.826 0.98-1.445v-10.168c0-0.568 0.207-1.084 0.516-1.548l10.116-14.144c0.362-0.464 0.362-1.084 0.104-1.6s-0.774-0.824-1.394-0.824h-27.561c-0.568 0-1.136 0.31-1.394 0.826-0.104 0.207-0.165 0.452-0.165 0.71 0 0.331 0.1 0.64 0.272 0.896l-0.004-0.006 10.116 14.194c0.31 0.465 0.516 0.98 0.516 1.548v12.335c0.052 0.465 0.259 0.929 0.723 1.241zM2.54 2.013h25.548l-9.496 13.316c-0.62 0.774-0.927 1.806-0.927 2.787v9.807l-4.697 1.807v-11.613c0-0.98-0.31-2.013-0.929-2.787z"></path>
</svg>
