<svg version="1.1" xmlns="http://www.w3.org/2000/svg" width="32" height="32" viewBox="0 0 32 32">
<title>out_exit_emergency_logout2</title>
<path d="M12.954 10.565c-0.254 0-0.507-0.040-0.751-0.118-1.309-0.421-2.042-1.85-1.635-3.185 0.402-1.32 1.833-2.091 3.136-1.675 1.308 0.42 2.042 1.849 1.635 3.186-0.327 1.072-1.285 1.792-2.386 1.792zM12.953 6.803c-0.509 0-0.955 0.341-1.11 0.848-0.196 0.643 0.149 1.329 0.768 1.527 0.607 0.195 1.263-0.172 1.453-0.793 0.196-0.644-0.148-1.329-0.767-1.528-0.112-0.036-0.227-0.054-0.343-0.054z"></path>
<path d="M11.496 29.286c-0.367 0-0.666-0.297-0.667-0.665 0-0.042-0.012-4.204-0.089-5.507-0.005-0.081-0.038-0.158-0.094-0.215l-3.031-3.167c-0.041-0.043-0.076-0.091-0.104-0.143-0.325-0.599-0.397-1.316-0.199-1.97l1.236-4.060c0.414-1.359 1.757-2.191 3.063-1.899 1.387 0.313 2.133 1.559 1.947 3.249l-0.208 2.42 2.641 0.042c0.369 0.007 0.661 0.309 0.656 0.677-0.007 0.367-0.292 0.654-0.677 0.656l-3.355-0.053c-0.185-0.003-0.361-0.082-0.484-0.22-0.124-0.137-0.186-0.319-0.169-0.504l0.27-3.148c0.053-0.484 0.068-1.597-0.913-1.818-0.624-0.141-1.282 0.292-1.493 0.986l-1.236 4.060c-0.088 0.289-0.066 0.603 0.059 0.875l2.961 3.094c0.274 0.285 0.439 0.661 0.462 1.060 0.079 1.339 0.091 5.409 0.091 5.582 0.001 0.367-0.297 0.667-0.665 0.668-0.001 0-0.001 0-0.002 0z"></path>
<path d="M5.352 23.967h-4.471c-0.369 0-0.667-0.298-0.667-0.667s0.298-0.667 0.667-0.667h4.149l1.508-1.898c0.231-0.288 0.649-0.337 0.937-0.107 0.288 0.229 0.337 0.648 0.107 0.937l-1.709 2.15c-0.127 0.159-0.319 0.251-0.522 0.251z"></path>
<path d="M3.333 17.199c-0.106 0-0.214-0.025-0.313-0.078-0.325-0.173-0.448-0.578-0.274-0.902l2.071-3.881c0.116-0.217 0.342-0.353 0.588-0.353h1.875c0.369 0 0.667 0.298 0.667 0.667s-0.298 0.667-0.667 0.667h-1.475l-1.883 3.528c-0.12 0.225-0.35 0.353-0.589 0.353z"></path>
<path d="M21.982 25.333h-6.667c-0.369 0-0.667-0.298-0.667-0.667v-1.242c0-0.369 0.298-0.667 0.667-0.667s0.667 0.298 0.667 0.667v0.575h6c0.369 0 0.667 0.298 0.667 0.667s-0.298 0.667-0.667 0.667z"></path>
<path d="M15.315 4.008c-0.369 0-0.667-0.298-0.667-0.667v-2.675c0-0.369 0.298-0.667 0.667-0.667h16c0.369 0 0.667 0.298 0.667 0.667s-0.298 0.667-0.667 0.667h-15.333v2.008c0 0.369-0.298 0.667-0.667 0.667z"></path>
<path d="M21.982 31.151c-0.115 0-0.229-0.030-0.332-0.089-0.207-0.119-0.335-0.34-0.335-0.578v-24.212c0-0.237 0.125-0.456 0.329-0.575l9.333-5.461c0.207-0.121 0.462-0.122 0.669-0.003 0.207 0.119 0.335 0.339 0.335 0.578v24.212c0 0.237-0.125 0.456-0.329 0.575l-9.333 5.461c-0.104 0.061-0.221 0.091-0.337 0.091zM22.648 6.654v22.667l8-4.681v-22.667l-8 4.68z"></path>
</svg>
