<svg version="1.1" xmlns="http://www.w3.org/2000/svg" width="32" height="32" viewBox="0 0 32 32">
<title>out_exit_emergency_logout</title>
<path d="M26.97 17.339h-6.090c-0.369 0-0.667-0.298-0.667-0.667s0.298-0.667 0.667-0.667h6.090c0.369 0 0.667 0.298 0.667 0.667s-0.298 0.667-0.667 0.667z"></path>
<path d="M23.371 20.863c-0.173 0-0.346-0.066-0.477-0.201-0.258-0.263-0.253-0.685 0.010-0.943l3.113-3.048-3.113-3.047c-0.263-0.258-0.268-0.68-0.010-0.943 0.257-0.262 0.681-0.267 0.943-0.010l3.6 3.524c0.129 0.125 0.201 0.297 0.201 0.477s-0.072 0.352-0.201 0.477l-3.6 3.525c-0.129 0.126-0.298 0.19-0.466 0.19z"></path>
<path d="M28.146 32h-24.328c-2.115 0-3.836-1.721-3.836-3.836v-24.327c0-2.115 1.721-3.837 3.836-3.837h24.328c2.115 0 3.836 1.721 3.836 3.837v24.327c-0 2.115-1.721 3.836-3.836 3.836zM3.818 1.333c-1.38 0-2.503 1.123-2.503 2.503v24.327c0 1.38 1.122 2.503 2.503 2.503h24.328c1.38 0 2.503-1.122 2.503-2.503v-24.327c-0-1.38-1.123-2.503-2.503-2.503h-24.328z"></path>
<path d="M15.226 10.99c-1.234 0-2.237-1.003-2.237-2.236s1.003-2.237 2.237-2.237 2.236 1.003 2.236 2.237c0 1.233-1.003 2.236-2.236 2.236zM15.226 7.85c-0.498 0-0.904 0.406-0.904 0.904s0.406 0.903 0.904 0.903 0.903-0.405 0.903-0.903-0.405-0.904-0.903-0.904z"></path>
<path d="M13.976 26.616c-0.367 0-0.666-0.297-0.667-0.665 0-0.035-0.010-3.507-0.075-4.589l-2.646-2.747c-0.042-0.043-0.078-0.091-0.107-0.143-0.296-0.529-0.361-1.164-0.18-1.741l1.059-3.389c0.37-1.183 1.568-1.912 2.732-1.656 1.237 0.271 1.923 1.386 1.745 2.84l-0.325 2.818 2.361 0.038c0.369 0.007 0.661 0.309 0.656 0.677-0.007 0.369-0.318 0.643-0.677 0.656l-3.097-0.049c-0.189-0.003-0.367-0.086-0.491-0.227-0.124-0.142-0.182-0.329-0.161-0.517l0.411-3.553c0.044-0.361 0.062-1.211-0.708-1.38-0.487-0.11-1.008 0.221-1.174 0.752l-1.059 3.389c-0.064 0.206-0.050 0.428 0.037 0.624l2.525 2.568c0.255 0.26 0.407 0.602 0.429 0.961 0.068 1.121 0.077 4.522 0.078 4.667 0.001 0.367-0.297 0.667-0.665 0.668-0.001-0-0.001-0-0.002-0z"></path>
<path d="M8.709 22.556h-3.532c-0.369 0-0.667-0.298-0.667-0.667s0.298-0.667 0.667-0.667h3.173l1.098-1.667c0.203-0.305 0.617-0.392 0.923-0.19 0.308 0.203 0.393 0.616 0.19 0.925l-1.295 1.966c-0.123 0.186-0.333 0.299-0.557 0.299z"></path>
<path d="M6.97 16.559c-0.108 0-0.218-0.027-0.32-0.083-0.323-0.176-0.441-0.581-0.264-0.904l1.775-3.24c0.117-0.213 0.341-0.346 0.585-0.346h1.258c0.369 0 0.667 0.298 0.667 0.667s-0.298 0.667-0.667 0.667h-0.863l-1.586 2.894c-0.121 0.22-0.35 0.346-0.585 0.346z"></path>
</svg>
