<!-- Generated by IcoMoon.io -->
<svg version="1.1" xmlns="http://www.w3.org/2000/svg" width="32" height="32" viewBox="0 0 32 32">
<title>pagerduty</title>
<path d="M18.788 13.806c-0.091 0-0.325 0.025-0.453 0.15-0.097 0.094-0.147 0.262-0.147 0.503v3.144c-0.003 0.084 0.019 0.319 0.141 0.447 0.119 0.125 0.35 0.15 0.522 0.15h2.553c0.637-0.009 0.637-0.488 0.637-0.644v-3.75h-3.247c-0.003 0-0.003 0-0.006 0z"></path>
<path d="M13.159 13.778h-2.559c-0.641 0.009-0.641 0.491-0.641 0.647v3.759h3.256c0.084 0 0.328-0.025 0.459-0.153 0.097-0.094 0.147-0.266 0.147-0.506l0.003-3.15c0.003-0.084-0.019-0.322-0.141-0.45-0.116-0.119-0.35-0.147-0.525-0.147z"></path>
<path d="M21.731 3.237h-11.463c-3.869 0-7.031 3.163-7.031 7.031v11.459c0 3.869 3.162 7.031 7.031 7.031h11.459c3.869 0 7.031-3.163 7.031-7.031v-11.459c0.003-3.866-3.163-7.031-7.028-7.031zM15.444 14.466v3.063c0 0.884-0.359 1.409-0.662 1.691-0.619 0.581-1.431 0.591-1.628 0.584h-3.188v2.759h-1.622v-8.137c0-0.831 0.341-1.344 0.628-1.625 0.634-0.622 1.497-0.644 1.641-0.644h2.547c0.906 0 1.438 0.369 1.722 0.678 0.569 0.622 0.572 1.419 0.563 1.631zM23.656 17.556c0 0.831-0.341 1.341-0.628 1.622-0.622 0.609-1.462 0.641-1.631 0.641-0.003 0-0.006 0-0.009 0h-2.544c-0.906 0-1.434-0.369-1.719-0.678-0.566-0.616-0.572-1.413-0.559-1.625v-3.056c0-0.884 0.359-1.406 0.663-1.688 0.619-0.581 1.431-0.591 1.628-0.584h3.178v-2.753h1.622v8.122z"></path>
</svg>
