<svg version="1.1" xmlns="http://www.w3.org/2000/svg" width="32" height="32" viewBox="0 0 32 32">
<title>paint_brush_color</title>
<path d="M24.234 32.108h-1.874c-0.579-0.003-1.092-0.369-1.281-0.909l-0.124-0.357-0.004 0.042c-0.068 0.698-0.648 1.224-1.35 1.224l-0.699-0.001c-0.001 0-0.004 0-0.005 0-0.491 0-0.935-0.268-1.171-0.682-0.237 0.413-0.68 0.682-1.178 0.682l-0.751 0.001c-0.556-0.003-1.049-0.339-1.256-0.842-0.208 0.507-0.703 0.841-1.255 0.841h-1.46c-0.482 0-0.908-0.25-1.149-0.634-0.242 0.389-0.671 0.634-1.15 0.634h-1.753c-0.512 0-0.974-0.283-1.206-0.737-0.126-0.243-0.217-0.421 1.975-14.358 0.058-0.363 0.395-0.609 0.762-0.555 0.364 0.057 0.612 0.398 0.555 0.763-0.729 4.626-1.853 11.975-2.017 13.54l1.683 0.013 0.74-2.296c0.094-0.301 0.394-0.482 0.701-0.464 0.314 0.031 0.563 0.277 0.598 0.59l0.239 2.151 1.482 0.018 0.629-1.763c0.093-0.269 0.399-0.471 0.631-0.448 0.284 0 0.537 0.181 0.629 0.451l0.6 1.747 0.772 0.013 0.428-2.254c0.056-0.307 0.318-0.535 0.63-0.548 0.264 0.012 0.59 0.194 0.671 0.496l0.607 2.292 0.72 0.016 0.318-3.104c0.030-0.313 0.273-0.561 0.585-0.598 0.319-0.049 0.607 0.147 0.71 0.443l1.124 3.245 1.816 0.014c-0.16-1.556-1.283-8.943-2.009-13.591-0.057-0.363 0.193-0.704 0.556-0.762 0.363-0.047 0.704 0.191 0.762 0.556 2.186 13.995 2.095 14.161 1.958 14.414-0.241 0.441-0.695 0.716-1.188 0.716z"></path>
<path d="M9.202 17.783c-0.011 0-0.022 0-0.033-0.001-0.368-0.017-0.651-0.331-0.633-0.698 0.124-2.555 2.863-2.51 4.182-2.484l0.104 0.001c0.092-0.225 0.139-0.747 0.070-1.221l-1.635-7.109c-0.363-1.581-0.038-3.11 0.914-4.307 0.937-1.177 2.355-1.852 3.891-1.852 1.531 0 2.944 0.671 3.876 1.841 0.945 1.185 1.283 2.757 0.926 4.314l-1.651 7.205c-0.059 0.466 0 0.926 0.086 1.131l0.047-0.001c1.285-0.018 4.001-0.047 4.125 2.447 0.018 0.367-0.264 0.68-0.633 0.698-0.369 0.044-0.681-0.266-0.698-0.633-0.052-1.030-0.957-1.208-2.779-1.179l-0.345 0.003c-0.124 0-0.246-0.035-0.352-0.1-0.948-0.589-0.823-2.141-0.763-2.602l1.663-7.266c0.269-1.176 0.031-2.307-0.668-3.186-0.678-0.85-1.711-1.338-2.835-1.338-1.127 0-2.165 0.492-2.848 1.35-0.695 0.872-0.928 2.001-0.657 3.178l1.645 7.161c0.031 0.061 0.339 2.029-0.746 2.703-0.105 0.066-0.227 0.1-0.352 0.1 0 0 0 0-0.001 0l-0.408-0.005c-1.874-0.037-2.775 0.142-2.827 1.216-0.017 0.357-0.312 0.634-0.665 0.634zM16.063 6.87c-0.96-0.001-1.739-0.779-1.739-1.734v-0.001c0-0.956 0.779-1.734 1.738-1.734 0.958 0.001 1.738 0.779 1.738 1.734s-0.78 1.734-1.737 1.735zM16.060 4.735c-0.221 0-0.403 0.18-0.403 0.4s0.182 0.402 0.406 0.402c0.221 0 0.404-0.18 0.404-0.402s-0.182-0.4-0.406-0.4z"></path>
<path d="M23.544 22.716v0l-15.081-0.013c-0.368 0-0.666-0.299-0.666-0.667 0-0.369 0.299-0.667 0.667-0.667l15.081 0.013c0.369 0 0.667 0.299 0.667 0.667-0 0.369-0.298 0.667-0.667 0.667z"></path>
<path d="M22.957 18.723h-13.903c-0.369 0-0.667-0.298-0.667-0.667s0.298-0.667 0.667-0.667h13.903c0.369 0 0.667 0.298 0.667 0.667s-0.298 0.667-0.667 0.667z"></path>
</svg>
