<svg version="1.1" xmlns="http://www.w3.org/2000/svg" width="32" height="32" viewBox="0 0 32 32">
<title>paint_bucket_color</title>
<path d="M22.651 29.594c-0.264 0-0.492-0.057-0.684-0.141l-18.165-7.966c-0.337-0.148-0.491-0.542-0.343-0.879s0.538-0.491 0.878-0.342l18.167 7.966c0.262 0.111 1.060-0.089 2.369-1.595 1.233-1.419 2.479-3.493 3.508-5.841 2.214-5.049 2.362-8.977 1.488-9.36l-18.166-7.965c-0.337-0.148-0.491-0.541-0.343-0.878s0.538-0.49 0.878-0.343l18.167 7.965c2.24 0.983 1.292 6.337-0.803 11.118-1.082 2.466-2.404 4.66-3.723 6.178-1.406 1.621-2.471 2.083-3.228 2.083z"></path>
<path d="M4.331 21.596c-0.186 0-0.364-0.036-0.529-0.108-2.226-0.977-0.168-7.284 1.399-10.856 1.383-3.154 4.31-8.491 6.508-8.491 0.187 0 0.365 0.036 0.529 0.109 0.938 0.411 1.197 1.735 0.794 4.048-0.338 1.936-1.117 4.353-2.193 6.807-1.383 3.155-4.31 8.492-6.509 8.492zM11.692 3.464c-0.67 0.010-3.023 2.581-5.269 7.703-2.269 5.173-2.561 8.645-2.085 9.096 0.695-0.016 3.041-2.586 5.281-7.694 2.285-5.21 2.565-8.696 2.074-9.105z"></path>
<path d="M15.626 17.538c-0.383 0-0.755-0.026-1.11-0.079-0.365-0.053-0.615-0.393-0.561-0.758 0.054-0.363 0.397-0.612 0.758-0.56 2.319 0.337 5.483-0.671 7.699-2.474 1.784-1.453 3.025-3.344 3.492-5.325 0.453-1.919 0.122-3.689-0.932-4.984-1.035-1.272-2.764-1.903-4.845-1.77-2.104 0.131-4.337 1.040-6.126 2.495-0.286 0.234-0.705 0.19-0.937-0.096-0.233-0.285-0.189-0.705 0.096-0.937 1.999-1.627 4.508-2.645 6.883-2.792 2.539-0.158 4.65 0.645 5.962 2.26 1.322 1.624 1.747 3.801 1.197 6.132-0.535 2.266-1.938 4.416-3.949 6.053-2.152 1.751-5.138 2.837-7.627 2.837z"></path>
<path d="M13.58 18.141c-0.99 0-1.795-0.805-1.795-1.794s0.805-1.796 1.795-1.796c0.99 0 1.796 0.805 1.796 1.796s-0.805 1.794-1.796 1.794zM13.58 15.884c-0.255 0-0.462 0.207-0.462 0.462 0 0.254 0.207 0.461 0.462 0.461s0.462-0.207 0.462-0.461c-0-0.255-0.208-0.462-0.462-0.462z"></path>
<path d="M4.083 31.594c-1.489 0-2.701-1.211-2.701-2.701 0-0.648 1.795-4.996 2.701-4.996s2.7 4.348 2.7 4.996c0 1.49-1.211 2.701-2.7 2.701zM4.082 25.828c-0.573 0.997-1.367 2.523-1.367 3.065 0 0.754 0.613 1.367 1.367 1.367s1.367-0.613 1.367-1.367c0-0.539-0.794-2.068-1.367-3.065z"></path>
</svg>
