<!-- Generated by IcoMoon.io -->
<svg version="1.1" xmlns="http://www.w3.org/2000/svg" width="32" height="32" viewBox="0 0 32 32">
<title>paint_brush</title>
<path d="M8.6 20v0c-2.4 0-4.4 2-4.4 4.4 0 0.9-0.8 1.3-1.2 1.3s-0.7 0.2-0.9 0.6c-0.2 0.3-0.1 0.7 0.1 1 1.2 1.6 3.3 2.7 5.3 2.7 3 0 5.5-2.5 5.5-5.6 0-2.4-2-4.4-4.4-4.4zM7.5 28c-0.9 0-1.9-0.3-2.7-0.9 0.8-0.6 1.4-1.5 1.4-2.7 0-1.3 1.1-2.4 2.4-2.4v0c1.3 0 2.4 1.1 2.4 2.4 0 2-1.6 3.6-3.5 3.6z"></path>
<path d="M29 3c-1.3-1.3-3.6-1.4-5 0l-13.2 14.8c-0.2 0.3-0.3 0.6-0.2 1 0.1 0.3 0.4 0.6 0.8 0.7 1 0.2 2.2 1.3 2.3 2.2 0.1 0.4 0.3 0.7 0.7 0.8 0.1 0 0.2 0 0.3 0 0.3 0 0.5-0.1 0.7-0.3l13.6-14.2c0.7-0.7 1-1.6 1-2.5s-0.4-1.8-1-2.5zM27.6 6.6l-12.7 13.1c-0.4-0.7-1-1.2-1.7-1.7l12.2-13.6c0.6-0.6 1.6-0.6 2.2 0v0c0.3 0.3 0.4 0.7 0.4 1.1s-0.1 0.8-0.4 1.1z"></path>
</svg>
