<svg version="1.1" xmlns="http://www.w3.org/2000/svg" width="32" height="32" viewBox="0 0 32 32">
<title>paint_brush2</title>
<path d="M17.721 25.337h-3.221c-0.292 0-0.551-0.19-0.637-0.47-3.322-10.751 1.126-23.861 1.317-24.414 0.093-0.269 0.346-0.449 0.63-0.449h0.6c0.284 0 0.538 0.18 0.63 0.449 0.191 0.553 4.639 13.663 1.318 24.414-0.086 0.28-0.344 0.47-0.637 0.47zM14.997 24.004h2.227c2.43-8.536-0.151-18.776-1.113-22.053-0.961 3.279-3.541 13.524-1.113 22.053z"></path>
<path d="M18.598 21.337h-4.975c-0.369 0-0.667-0.298-0.667-0.667s0.298-0.667 0.667-0.667h4.975c0.369 0 0.667 0.298 0.667 0.667s-0.298 0.667-0.667 0.667z"></path>
<path d="M15.871 31.799c-0.13 0-0.258-0.038-0.37-0.112-0.187-0.125-0.298-0.335-0.297-0.559v0c-0.001 0-0.042-0.634-0.786-1.557-0.379-0.471-0.547-1.001-0.486-1.533 0.102-0.896 0.806-1.471 0.886-1.534 0.288-0.227 0.71-0.176 0.936 0.113 0.226 0.288 0.177 0.704-0.109 0.934-0.208 0.169-0.639 0.622-0.188 1.184 0.429 0.533 0.688 1.012 0.843 1.398 0.46-0.307 0.953-0.749 1.026-1.228 0.063-0.409-0.202-0.87-0.784-1.369-0.28-0.24-0.313-0.661-0.073-0.94 0.242-0.279 0.664-0.309 0.94-0.073 0.958 0.822 1.372 1.691 1.234 2.589-0.254 1.631-2.283 2.535-2.513 2.633-0.083 0.037-0.172 0.053-0.26 0.053z"></path>
</svg>
