<!-- Generated by IcoMoon.io -->
<svg version="1.1" xmlns="http://www.w3.org/2000/svg" width="32" height="32" viewBox="0 0 32 32">
<title>paint_brush_color</title>
<path d="M23.7 18.6v0c0-0.1 0-0.1 0-0.2 0-0.2-0.1-0.5-0.1-0.7 0-0.1 0-0.1 0-0.2s0-0.2 0-0.2 0-0.2 0-0.2c0 0 0-0.1 0-0.1v0c0 0 0 0 0 0-0.2-1.9-1.9-2.3-3.3-2.3-0.3 0-0.6 0-0.8 0v0c-0.1-0.2-0.1-0.7-0.1-1.1l1.6-7.2c0.4-1.6 0-3.1-0.9-4.3-1.1-1.4-2.4-2.1-3.9-2.1 0 0-0.1 0-0.1 0s-0.1 0-0.2 0c-1.5 0-2.8 0.7-3.7 1.9-1 1.2-1.3 2.7-0.9 4.3l1.6 7.1c0.1 0.5 0 1-0.1 1.2h-0.1c-1.3 0-4-0.1-4.2 2.3 0 0 0 0.1 0 0.1s0 0 0 0.1c0 0.3-0.1 0.5-0.1 0.8 0 0.1 0 0.1 0 0.2s0 0.2 0 0.3c0 0.1 0 0.1 0 0.2 0 0 0 0.1 0 0.1s0 0.1 0 0.1c0 0.2-0.1 0.3-0.1 0.5h15.6c-0.1-0.3-0.1-0.4-0.2-0.6zM16.1 6.8c-1 0-1.7-0.8-1.7-1.7 0-1 0.8-1.7 1.7-1.7s1.7 0.8 1.7 1.7c0 0.9-0.8 1.7-1.7 1.7z"></path>
<path d="M25.4 30.4v0c0 0 0-0.1 0 0 0-0.1 0-0.1 0-0.1s0 0 0-0.1 0-0.2 0-0.2c0 0 0-0.1 0-0.2 0 0 0-0.1 0-0.1s0 0 0-0.1 0-0.1 0-0.2c0 0 0-0.1 0-0.1 0-0.2-0.1-0.5-0.1-0.8 0 0 0-0.1 0-0.1s0 0 0 0c0-0.1 0-0.1 0-0.2 0-0.2-0.1-0.4-0.1-0.7 0-0.1 0-0.3-0.1-0.4 0-0.1 0-0.2-0.1-0.4 0-0.1 0-0.2 0-0.2 0-0.1 0-0.1 0-0.2s0-0.1 0-0.2c0 0 0-0.1 0-0.1 0-0.1 0-0.1 0-0.2s0-0.3-0.1-0.4c0-0.1 0-0.2 0-0.3 0 0 0-0.1 0-0.1 0-0.1 0-0.1 0-0.2-0.1-0.4-0.1-0.8-0.2-1.3 0-0.1 0-0.1 0-0.2 0 0 0-0.1 0-0.1s0 0 0-0.1 0-0.1 0-0.2 0-0.2 0-0.3c0-0.1 0-0.3-0.1-0.4 0-0.1 0-0.1 0-0.2 0-0.2-0.1-0.5-0.1-0.8 0-0.1 0-0.3-0.1-0.4h-16.5c0 0.1 0 0.2-0.1 0.4 0 0 0 0 0 0 0 0.1 0 0.1 0 0.2s0 0.1 0 0.2c0 0.2-0.1 0.5-0.1 0.7 0 0.1 0 0.1 0 0.2 0 0 0 0 0 0.1 0 0 0 0 0 0s0 0.1 0 0.1c0 0 0 0.1 0 0.1s0 0.1 0 0.1c-0.1 0.5-0.1 0.9-0.2 1.3 0 0 0 0.1 0 0.1 0 0.1 0 0.3-0.1 0.4 0 0 0 0.1 0 0.1s0 0.1 0 0.1 0 0.1 0 0.2c0 0 0 0.1 0 0.1 0 0.1 0 0.1 0 0.2 0 0 0 0.1 0 0.1s0 0.1 0 0.1c0 0 0 0.1 0 0.1 0 0.1 0 0.2-0.1 0.4 0 0 0 0 0 0 0 0.1 0 0.2 0 0.3 0 0 0 0.1 0 0.1s0 0.1 0 0.2c0 0 0 0.1 0 0.1 0 0.1 0 0.2 0 0.4 0 0.1 0 0.2 0 0.2 0 0.1 0 0.1 0 0.2 0 0 0 0.1 0 0.1s0 0.1 0 0.2c0 0 0 0.1 0 0.1s0 0.1 0 0.1 0 0.1 0 0.2c0 0 0 0 0 0 0 0.1 0 0.1 0 0.2 0 0 0 0.1 0 0.1 0 0.1 0 0.1 0 0.2 0 0 0 0.1 0 0.1 0 0.1 0 0.1 0 0.2 0 0.2 0 0.3-0.1 0.5 0 0 0 0.1 0 0.1s0 0 0 0 0 0 0 0 0 0.1 0 0.1c0 0 0 0 0 0s0 0.1 0 0.1c0 0 0 0.1 0 0.1s0 0 0 0.1c0 0 0 0.1 0 0.1s0 0 0 0 0 0.1 0 0.1c0 0 0 0 0 0 0 0.1 0 0.1 0 0.2 0 0 0 0 0 0s0 0 0 0 0 0 0 0 0 0 0 0 0 0 0 0 0 0 0 0 0 0 0 0c0 0.3 0 0.3 0.1 0.4-0.5 0.8 0 1.1 0.5 1.1h1.8c0.5 0 0.9-3.7 1.1-4.1 0.2 0.4 0.7 4.1 1.2 4.1h1.5c0.6 0 1.1-3.5 1.3-3.5 0.1 0 0.7 3.5 1.3 3.5h0.8c0 0 0 0 0 0v0c0.5-0.1 1-4.1 1.2-4.1s0.7 4.1 1.2 4.1v0c0 0 0 0 0 0h0.7c0.7 0 0.7-5.1 0.9-5.1s0.5 3.7 0.6 4.2c0.1 0.4 0.7 0.9 1.3 0.9 0 0 0 0 0 0h1.9c0.1 0 0.2 0 0.2 0s0.1 0 0.1 0 0.3-0.1 0.4-0.2c0 0 0.1 0 0.1-0.1 0 0 0 0 0.1-0.1 0 0 0 0 0 0s0 0 0 0 0.1-0.1 0.1-0.1c0 0 0 0 0.1-0.1 0 0 0-0.1 0.1-0.1-0.3-0.1-0.3-0.2-0.4-0.9z"></path>
</svg>
