<!-- Generated by IcoMoon.io -->
<svg version="1.1" xmlns="http://www.w3.org/2000/svg" width="32" height="32" viewBox="0 0 32 32">
<title>paint_bucket_color</title>
<path d="M23.9 19.7c0.8 0 1.4-0.6 1.4-1.4 0-0.4-0.1-0.7-0.4-1l-14.5-14.4c-1.2-1.2-3.4-1.2-4.6 0l-0.3 0.4c-0.6 0.6-1 1.4-1 2.3s0.3 1.7 1 2.3l2.6 2.6-5.3 5.3c-0.5 0.5-0.8 1.2-0.8 1.9 0 0.8 0.3 1.5 0.8 2l8.2 7.9c0.5 0.5 1.2 0.8 1.9 0.8s1.4-0.3 1.9-0.8l0.9-0.9c2.6-2.5 6.5-6.3 7-6.8 0.1 0 0.3-0.2 1.2-0.2zM6.9 6.5c-0.2-0.3-0.3-0.6-0.3-0.9s0.1-0.6 0.4-0.9l0.3-0.3c0.2-0.3 0.5-0.4 0.8-0.4 0.4 0 0.7 0.1 0.9 0.4l2.6 2.6-2.1 2-2.6-2.5zM21.4 18.4c-0.5 0.5-4.5 4.4-7 6.8l-0.9 0.9c-0.3 0.3-0.8 0.3-1 0l-8.2-7.9c-0.2-0.1-0.3-0.3-0.3-0.5s0.1-0.4 0.2-0.5l8.8-8.8 9.5 9.5c-0.4 0-0.8 0.2-1.1 0.5z"></path>
<path d="M27.2 20.8l-0.2-0.4c-0.5-0.6-1.5-0.5-1.9 0-0.1 0.1-0.2 0.2-0.3 0.3-1 1.1-2.8 3.1-2.8 5.2 0 2.2 1.8 4.1 4 4.1s4-1.8 4-4.1c0-2.1-1.8-4.1-2.8-5.1zM26 28c-1.1 0-2-0.9-2-2.1s1.2-2.7 2-3.6c0.8 0.9 2 2.4 2 3.6s-0.9 2.1-2 2.1z"></path>
</svg>
