<svg version="1.1" xmlns="http://www.w3.org/2000/svg" width="32" height="32" viewBox="0 0 32 32">
<title>paint_brush</title>
<path d="M15.711 20.203c-0.152 0-0.304-0.052-0.429-0.158-0.281-0.237-0.317-0.658-0.080-0.939l10.514-12.468-12.468 10.513c-0.282 0.238-0.701 0.202-0.939-0.079-0.237-0.281-0.201-0.702 0.080-0.939l18.462-15.567c0.266-0.221 0.658-0.206 0.901 0.038 0.245 0.245 0.262 0.637 0.038 0.901l-15.568 18.461c-0.131 0.156-0.32 0.237-0.51 0.237z"></path>
<path d="M12.129 23.784c-0.171 0-0.341-0.065-0.471-0.195l-2.893-2.893c-0.125-0.125-0.195-0.294-0.195-0.471s0.070-0.346 0.195-0.471l3.583-3.582c0.125-0.125 0.294-0.195 0.471-0.195v0c0.177 0 0.346 0.070 0.471 0.195l2.893 2.895c0.26 0.26 0.26 0.682 0 0.943l-3.582 3.581c-0.13 0.13-0.301 0.195-0.471 0.195zM10.178 20.224l1.951 1.951 2.639-2.638-1.95-1.952-2.64 2.639z"></path>
<path d="M3.505 31.835c-1.635 0-2.85-0.297-2.95-0.323-0.232-0.059-0.415-0.237-0.479-0.469-0.064-0.231 0.001-0.479 0.171-0.648 0.018-0.018 1.807-1.85 2.903-5.87 1.275-4.673 6.006-4.965 6.053-4.966 0.345-0.049 0.678 0.263 0.698 0.63 0.019 0.366-0.262 0.68-0.629 0.701-0.156 0.009-3.819 0.259-4.836 3.987-0.745 2.731-1.786 4.531-2.488 5.523 1.516 0.18 4.349 0.253 6.516-1.283 1.728-1.224 2.738-3.263 3.003-6.061 0.035-0.366 0.353-0.619 0.726-0.602 0.367 0.035 0.636 0.361 0.601 0.727-0.302 3.207-1.503 5.572-3.566 7.030-1.84 1.298-4.011 1.624-5.722 1.624z"></path>
</svg>
