<svg version="1.1" xmlns="http://www.w3.org/2000/svg" width="32" height="32" viewBox="0 0 32 32">
<title>paint_bucket_color2</title>
<path d="M24.294 21.869c-1.898 0-3.951-0.471-5.911-1.456-2.906-1.46-5.437-4.306-6.297-7.083-0.109-0.352 0.088-0.725 0.439-0.834 0.355-0.107 0.725 0.089 0.834 0.439 0.748 2.414 3.061 4.998 5.623 6.285 4.492 2.258 9.47 1.573 11.095-1.525 1.563-2.982-1.686-7.427-5.701-9.707-0.32-0.182-0.432-0.589-0.25-0.909 0.181-0.321 0.589-0.434 0.909-0.25 4.536 2.575 8.206 7.699 6.223 11.486-1.212 2.311-3.885 3.553-6.963 3.553z"></path>
<path d="M12.699 13.813c-0.968 0-1.756-0.777-1.756-1.732s0.788-1.732 1.756-1.732 1.755 0.777 1.755 1.732-0.787 1.732-1.755 1.732zM12.699 11.682c-0.233 0-0.423 0.179-0.423 0.399s0.189 0.399 0.423 0.399c0.232 0 0.422-0.179 0.422-0.399s-0.189-0.399-0.422-0.399z"></path>
<path d="M12.706 31.745c-6.294 0-12.667-1.486-12.667-4.327v-9.434c0-0.369 0.298-0.667 0.667-0.667s0.667 0.298 0.667 0.667v9.434c0 1.22 4.415 2.993 11.333 2.993s11.333-1.773 11.333-2.993v-23.85c0-0.369 0.298-0.667 0.667-0.667s0.667 0.298 0.667 0.667v23.85c0 2.841-6.372 4.327-12.667 4.327z"></path>
<path d="M2.497 16.465c-0.619 0-1.203-0.19-1.646-0.536-0.528-0.412-0.818-1.020-0.818-1.712 0-0.013 0.016-10.65 0.016-10.65l1.333 0.003-0.016 10.648c0 0.889 1.015 0.915 1.131 0.915 0.415 0 1.118-0.187 1.118-0.891l-0.001-3.182 1.333-0.023c0 0.372 0.136 0.642 0.416 0.846 0.282 0.206 0.691 0.325 1.121 0.325 0.57 0 1.536-0.242 1.536-1.148v-4.895c0-0.369 0.299-0.667 0.667-0.667v0c0.369 0 0.667 0.299 0.667 0.667v4.872c-0 2.295-2.802 2.97-4.406 2.151l0.001 1.055c0 1.46-1.233 2.224-2.451 2.224z"></path>
<path d="M12.703 6.984c-4.706 0-12.669-0.719-12.669-3.417s7.964-3.417 12.669-3.417c4.706 0 12.67 0.719 12.67 3.417s-7.964 3.417-12.67 3.417zM12.703 1.484c-7.098 0-11.212 1.378-11.336 2.086 0.124 0.703 4.238 2.081 11.336 2.081s11.213-1.378 11.337-2.086c-0.124-0.702-4.238-2.081-11.337-2.081z"></path>
</svg>
