<svg version="1.1" xmlns="http://www.w3.org/2000/svg" width="32" height="32" viewBox="0 0 32 32">
<title>panels_finder</title>
<path d="M31.333 1.333h-30.667c-0.4 0-0.667 0.267-0.667 0.667v28c0 0.4 0.267 0.667 0.667 0.667h30.667c0.4 0 0.667-0.267 0.667-0.667v-28c0-0.4-0.267-0.667-0.667-0.667zM30.667 2.667v4h-29.333v-4h29.333zM1.333 29.333v-21.333h29.333v21.333h-29.333z"></path>
<path d="M3.333 5.333c0.133 0 0.4-0.133 0.4-0.267 0.133 0 0.267-0.267 0.267-0.4s-0.133-0.4-0.267-0.533c-0.133-0.133-0.667-0.267-0.933 0-0.133 0.133-0.133 0.4-0.133 0.533s0 0.4 0.133 0.533c0.133 0 0.4 0.133 0.533 0.133z"></path>
<path d="M6 5.333c0.133 0 0.4-0.133 0.4-0.133 0.133-0.133 0.267-0.4 0.267-0.533s-0.133-0.4-0.267-0.533c-0.133-0.133-0.667-0.133-0.933 0-0.133 0.133-0.133 0.4-0.133 0.533s0 0.4 0.133 0.4c0.133 0.133 0.4 0.267 0.533 0.267z"></path>
<path d="M8.667 5.333c0.133 0 0.4-0.133 0.533-0.267 0 0 0.133-0.267 0.133-0.4s-0.133-0.4-0.267-0.533c-0.133-0.133-0.667-0.267-0.933 0-0.133 0.133-0.133 0.4-0.133 0.533s0 0.4 0.133 0.533c0.133 0 0.4 0.133 0.533 0.133z"></path>
<path d="M28.267 25.6v-5.867c0.533-0.133 1.067-0.667 1.067-1.333 0-0.8-0.667-1.333-1.333-1.333s-1.067 0.4-1.333 1.067h-2.933l2-2.133-0.4-0.4-1.2 1.333v-2.667c0-0.133-0.133-0.267-0.267-0.267h-11.067v-2.267c0.533-0.133 1.067-0.667 1.067-1.333 0-0.8-0.667-1.333-1.333-1.333s-1.067 0.4-1.333 1.067h-5.867c-0.133-0.667-0.667-1.067-1.333-1.067-0.8 0-1.333 0.667-1.333 1.333s0.4 1.067 1.067 1.333v5.867c-0.533 0.133-1.067 0.667-1.067 1.333 0 0.8 0.667 1.333 1.333 1.333s1.067-0.4 1.333-1.067h5.867c0.133 0.533 0.667 1.067 1.333 1.067 0.8 0 1.333-0.667 1.333-1.333s-0.4-1.067-1.067-1.333v-3.067h10.667v2.4l-1.2-1.333-0.4 0.4 2 2.133h-2.933c-0.133-0.533-0.667-1.067-1.333-1.067-0.8 0-1.333 0.667-1.333 1.333s0.4 1.067 1.067 1.333v5.867c-0.533 0.133-1.067 0.667-1.067 1.333 0 0.8 0.667 1.333 1.333 1.333s1.2-0.4 1.333-1.067h5.733c0.133 0.533 0.667 1.067 1.333 1.067 0.8 0 1.333-0.667 1.333-1.333s-0.4-1.2-1.067-1.333zM11.2 18.267h-6c-0.133-0.267-0.4-0.533-0.667-0.667v-6c0.267-0.133 0.533-0.4 0.667-0.667h6c0.133 0.267 0.4 0.533 0.667 0.667v6c-0.267 0.133-0.533 0.4-0.667 0.667zM12.4 10c0.267 0 0.4 0.133 0.4 0.4s-0.133 0.4-0.4 0.4c-0.267 0-0.4-0.133-0.4-0.4s0.133-0.4 0.4-0.4zM4 10c0.267 0 0.4 0.133 0.4 0.4s-0.133 0.4-0.4 0.4c-0.267 0-0.4-0.133-0.4-0.4s0.133-0.4 0.4-0.4zM4 19.333c-0.267 0-0.4-0.133-0.4-0.4s0.133-0.4 0.4-0.4c0.267 0 0.4 0.133 0.4 0.4 0 0.133-0.133 0.4-0.4 0.4zM12.4 19.333c-0.267 0-0.4-0.133-0.4-0.4s0.133-0.4 0.4-0.4c0.267 0 0.4 0.133 0.4 0.4 0.133 0.133-0.133 0.4-0.4 0.4zM20.133 25.733v-6c0.267-0.133 0.533-0.4 0.667-0.667h6c0.133 0.267 0.4 0.533 0.667 0.667v6c-0.267 0.133-0.533 0.4-0.667 0.667h-6c-0.133-0.4-0.4-0.533-0.667-0.667zM28 18c0.267 0 0.4 0.133 0.4 0.4s-0.133 0.4-0.4 0.4c-0.267 0-0.4-0.133-0.4-0.4s0.133-0.4 0.4-0.4zM19.6 18c0.267 0 0.4 0.133 0.4 0.4s-0.133 0.4-0.4 0.4c-0.267 0-0.4-0.133-0.4-0.4s0.133-0.4 0.4-0.4zM19.6 27.333c-0.267 0-0.4-0.133-0.4-0.4s0.133-0.4 0.4-0.4c0.267 0 0.4 0.133 0.4 0.4s-0.133 0.4-0.4 0.4zM28 27.333c-0.267 0-0.4-0.133-0.4-0.4s0.133-0.4 0.4-0.4c0.267 0 0.4 0.133 0.4 0.4s-0.133 0.4-0.4 0.4z"></path>
</svg>
