<!-- Generated by IcoMoon.io -->
<svg version="1.1" xmlns="http://www.w3.org/2000/svg" width="32" height="32" viewBox="0 0 32 32">
<title>panel_reset</title>
<path d="M31 0h-30.002c-0.551 0.001-0.997 0.448-0.998 0.998v30.003c0.001 0.551 0.447 0.997 0.998 0.998h10c0.551-0.001 0.997-0.448 0.999-0.998v-9.005h1.28c0.53 0 0.96-0.43 0.96-0.96v0-0.074c0-0.53-0.43-0.96-0.96-0.96v0h-1.28v-8.007h8.005v1.304c0 0.53 0.43 0.96 0.96 0.96v0h0.075c0.53 0 0.96-0.43 0.96-0.96v0-1.304h9.286v-0.041l0.013-0.004c0.411-0.127 0.704-0.504 0.704-0.949 0-0.001 0-0.001 0-0.002v0-10.002c-0-0.551-0.448-0.998-0.999-0.998-0 0-0.001 0-0.001 0h0zM10 11.996v8.007h-8.005v-8.007zM20.001 10h-8.004v-8.005h8.004zM10 1.995v8.005h-8.005v-8.005zM10 30.004h-8.005v-8.006h8.007zM30.003 10.002h-8.006v-8.007h8.006z"></path>
<path d="M23.918 32c-0.593 0-1.073-0.481-1.073-1.073s0.481-1.073 1.073-1.073v0c0.001 0 0.002 0 0.003 0 3.3 0 5.975-2.675 5.975-5.975s-2.675-5.975-5.975-5.975c-3.3 0-5.975 2.675-5.975 5.975 0 0 0 0 0 0.001v-0 0.505l1.072-0.96c0.189-0.177 0.444-0.286 0.724-0.286 0.325 0 0.616 0.146 0.81 0.376l0.001 0.002c0.412 0.458 0.372 1.117-0.091 1.536l-2.92 2.584c-0.184 0.173-0.431 0.28-0.704 0.282h-0c-0 0-0 0-0.001 0-0.28 0-0.536-0.103-0.732-0.273l0.001 0.001-0.009-0.007-2.894-2.595c-0.433-0.432-0.448-1.118-0.042-1.532 0.194-0.22 0.475-0.358 0.789-0.361h0c0.277 0.003 0.531 0.102 0.73 0.265l-0.002-0.002 0.009 0.007 1.072 0.96v-0.502c0-4.48 3.642-8.122 8.118-8.122 4.497 0 8.156 3.644 8.156 8.122s-3.64 8.121-8.117 8.121z"></path>
</svg>
