<!-- Generated by IcoMoon.io -->
<svg version="1.1" xmlns="http://www.w3.org/2000/svg" width="32" height="32" viewBox="0 0 32 32">
<title>panel_add</title>
<path d="M30.938 0.032h-29.941c-0.55 0.001-0.996 0.446-0.996 0.996v29.943c0.001 0.55 0.446 0.996 0.996 0.996h9.979c0.55-0.001 0.995-0.447 0.997-0.996v-8.987h0.853c0.529 0 0.958-0.429 0.958-0.958v0-0.073c0-0.529-0.429-0.958-0.958-0.958v0h-0.853v-7.991h7.989v0.818c0 0.529 0.429 0.958 0.958 0.958v0h0.075c0.529 0 0.958-0.429 0.958-0.958v0-0.818h9.267v-0.041l0.013-0.004c0.41-0.127 0.703-0.503 0.703-0.947 0-0.001 0-0.001 0-0.002v0-9.982c0-0.55-0.447-0.996-0.997-0.996 0 0-0.001 0-0.001 0v0zM9.98 12.004v7.991h-7.989v-7.991zM19.961 10.012h-7.988v-7.989h7.988zM9.98 2.023v7.989h-7.989v-7.989zM9.98 29.976h-7.989v-7.99h7.991zM29.943 10.014h-7.99v-7.991h7.99z"></path>
<path d="M29.499 17.533c-3.298-3.298-8.666-3.298-11.964 0s-3.298 8.665 0 11.963c1.532 1.529 3.646 2.474 5.981 2.474s4.45-0.945 5.981-2.474v0c3.299-3.301 3.3-8.667 0.001-11.963zM24.602 28.211c0 0.001 0 0.001 0 0.002 0 0.035-0.002 0.070-0.005 0.104v-0.004 0.018c-0.004 0.033-0.008 0.059-0.013 0.086l-0.004 0.022c-0.015 0.072-0.036 0.135-0.061 0.195l0.003-0.007-0.006 0.015c-0.013 0.029-0.024 0.053-0.036 0.077l-0.010 0.017c-0.034 0.060-0.069 0.112-0.109 0.161l0.002-0.002-0.013 0.015c-0.019 0.022-0.035 0.040-0.052 0.058l-0.019 0.019c-0.021 0.020-0.043 0.041-0.064 0.059l-0.014 0.012c-0.022 0.017-0.041 0.032-0.061 0.045l-0.031 0.020-0.046 0.028-0.042 0.024-0.028 0.014c-0.138 0.069-0.3 0.109-0.471 0.109v0c-0.207-0.001-0.401-0.059-0.566-0.16l0.005 0.003c-0.070-0.043-0.131-0.089-0.186-0.142h0.001c-0.019-0.018-0.034-0.033-0.049-0.050l-0.017-0.019c-0.013-0.015-0.027-0.030-0.039-0.046l-0.012-0.016c-0.021-0.027-0.042-0.059-0.061-0.091l-0.018-0.030c-0.009-0.017-0.017-0.033-0.026-0.050s-0.011-0.021-0.016-0.033-0.015-0.033-0.022-0.050-0.007-0.018-0.010-0.027v-0.006c-0.012-0.032-0.021-0.064-0.030-0.097v-0.007c0-0.009-0.004-0.018-0.006-0.027-0.004-0.019-0.008-0.037-0.011-0.056l-0.006-0.036c0-0.020-0.005-0.040-0.006-0.059 0-0.008 0-0.041 0-0.041 0-0.015 0-0.031 0-0.047v-3.614h-3.628c-0.016 0-0.032 0-0.047 0h-0.042l-0.058-0.006-0.035-0.006c-0.020-0.003-0.038-0.006-0.057-0.011l-0.029-0.007c-0.038-0.010-0.071-0.020-0.102-0.032h-0.007l-0.026-0.010-0.051-0.022-0.032-0.015c-0.017-0.008-0.033-0.017-0.049-0.026l-0.020-0.012c-0.038-0.022-0.070-0.043-0.101-0.066l0.003 0.002-0.019-0.014c-0.015-0.012-0.031-0.026-0.047-0.039l-0.019-0.018c-0.015-0.014-0.031-0.029-0.046-0.045l-0.004-0.006c-0.050-0.053-0.095-0.111-0.133-0.173l-0.003-0.005-0.004-0.007c-0.098-0.159-0.156-0.352-0.157-0.558v0c0-0.172 0.040-0.334 0.112-0.478l-0.003 0.006 0.014-0.029c0.008-0.015 0.016-0.029 0.024-0.043s0.016-0.027 0.024-0.040 0.015-0.024 0.024-0.036 0.028-0.039 0.043-0.058l0.015-0.019c0.018-0.021 0.038-0.043 0.059-0.064l0.019-0.019c0.017-0.017 0.035-0.033 0.053-0.049l0.019-0.015c0.047-0.038 0.099-0.074 0.153-0.105l0.022-0.011c0.025-0.013 0.049-0.024 0.073-0.035l0.019-0.008c0.054-0.023 0.118-0.044 0.184-0.058l0.007-0.001h0.015c0.032-0.006 0.058-0.010 0.086-0.013h0.023c0.031-0.003 0.066-0.006 0.103-0.006h3.613v-3.628c0-0.6 0.486-1.086 1.086-1.086v0c0.6 0 1.086 0.486 1.086 1.086v0 3.613h3.614c0.599 0.002 1.083 0.487 1.083 1.086 0 0.299-0.121 0.57-0.317 0.767v0c-0.195 0.197-0.466 0.319-0.765 0.319-0.001 0-0.001 0-0.002 0h-3.616z"></path>
</svg>
