<!-- Generated by IcoMoon.io -->
<svg version="1.1" xmlns="http://www.w3.org/2000/svg" width="32" height="32" viewBox="0 0 32 32">
<title>panel</title>
<path d="M31 0h-30.001c-0.551 0.001-0.998 0.447-0.998 0.998v30.003c0.001 0.551 0.447 0.998 0.998 0.998h9.999c0.551-0.001 0.997-0.448 0.999-0.998v-9.005h9.002c0.551-0.001 0.997-0.448 0.998-0.998v-9.002h9.286v-0.041l0.013-0.004c0.411-0.127 0.704-0.504 0.704-0.949 0-0.001 0-0.001 0-0.002v0-10.002c-0-0.551-0.448-0.998-0.999-0.998-0 0-0.001 0-0.001 0h0zM20.001 10h-8.004v-8.005h8.004zM10 11.996v8.007h-8.005v-8.007zM10 1.995v8.005h-8.005v-8.005zM10 30.004h-8.005v-8.006h8.007zM20.002 20.003h-8.005v-8.007h8.005zM30.003 10.002h-8.006v-8.007h8.006z"></path>
</svg>
