<svg version="1.1" xmlns="http://www.w3.org/2000/svg" width="32" height="32" viewBox="0 0 32 32">
<title>pantone_color_guide_samples_book</title>
<path d="M19.704 28.565c-0.112 0-0.225-0.027-0.329-0.087l-16.947-9.631c-0.37-0.211-0.634-0.551-0.743-0.96-0.109-0.406-0.052-0.831 0.161-1.194l4.040-6.886c0.437-0.745 1.408-1.001 2.16-0.574l5.63 3.199c0.32 0.182 0.432 0.589 0.25 0.909-0.182 0.319-0.588 0.431-0.909 0.25l-5.63-3.199c-0.123-0.069-0.283-0.029-0.352 0.089l-4.039 6.886c-0.040 0.068-0.035 0.133-0.023 0.175 0.009 0.035 0.037 0.102 0.115 0.146l16.947 9.631c0.32 0.182 0.432 0.589 0.25 0.909-0.122 0.216-0.348 0.337-0.579 0.337z"></path>
<path d="M20.18 25.269c-0.228 0-0.451-0.117-0.575-0.329l-10.062-17.157c-0.214-0.363-0.271-0.786-0.162-1.193 0.109-0.409 0.374-0.751 0.744-0.961l6.995-3.976c0.754-0.426 1.725-0.172 2.16 0.575l3.332 5.577c0.189 0.316 0.085 0.725-0.231 0.914-0.318 0.186-0.727 0.086-0.915-0.231l-3.335-5.583c-0.069-0.121-0.228-0.165-0.353-0.094l-6.995 3.976c-0.078 0.044-0.105 0.111-0.115 0.147-0.011 0.042-0.016 0.105 0.024 0.173l10.063 17.158c0.186 0.318 0.079 0.727-0.238 0.913-0.105 0.061-0.223 0.091-0.337 0.091z"></path>
<path d="M30.467 32.004h-7.523c-0.867 0-1.572-0.704-1.572-1.572v-28.857c0-0.867 0.704-1.572 1.572-1.572h7.523c0.867 0 1.572 0.705 1.572 1.572v28.857c0 0.867-0.704 1.572-1.572 1.572zM22.944 1.337c-0.131 0-0.238 0.107-0.238 0.238v28.857c0 0.131 0.107 0.238 0.238 0.238h7.523c0.131 0 0.238-0.107 0.238-0.238v-28.857c0-0.131-0.107-0.238-0.238-0.238h-7.523z"></path>
<path d="M19.381 32.004h-17.771c-0.867 0-1.572-0.704-1.572-1.572v-7.522c0-0.867 0.705-1.573 1.572-1.573h7.723c0.369 0 0.667 0.298 0.667 0.667s-0.298 0.667-0.667 0.667h-7.723c-0.131 0-0.239 0.108-0.239 0.24v7.522c0 0.131 0.107 0.238 0.239 0.238h17.771c0.369 0 0.667 0.298 0.667 0.667s-0.298 0.667-0.667 0.667z"></path>
<path d="M26.707 28c-0.175 0-0.348-0.066-0.467-0.187-0.133-0.133-0.199-0.293-0.199-0.479 0-0.173 0.066-0.346 0.199-0.467 0.24-0.253 0.68-0.253 0.934-0.013 0.133 0.147 0.201 0.32 0.201 0.481 0 0.173-0.068 0.346-0.187 0.466-0.146 0.134-0.306 0.201-0.479 0.201z"></path>
<path d="M29.372 24.004h-5.333c-0.369 0-0.667-0.298-0.667-0.667s0.298-0.667 0.667-0.667h5.333c0.369 0 0.667 0.298 0.667 0.667s-0.298 0.667-0.667 0.667z"></path>
</svg>
