<svg version="1.1" xmlns="http://www.w3.org/2000/svg" width="32" height="32" viewBox="0 0 32 32">
<title>paper_role</title>
<path d="M23.392 29.449c-0.066 0-0.133-0.003-0.199-0.008-1.849-0.010-11.464-0.065-16.622-0.187-4.909-0.117-6.266-6.178-6.321-6.436-0.043-0.199 0.008-0.408 0.138-0.564 0.13-0.158 0.342-0.229 0.529-0.242l17.404 0.402c0.25 0.007 0.477 0.152 0.586 0.378 1.605 3.348 3.148 5.208 4.389 5.316 0.126 0.001 0.199 0.001 0.212 0.001 0.042-0.003 0.082-0.009 0.121-0.016 3.221-0.589 5.729-12.535 6.743-23.639l-18.361-0.538c-0.203 2.454-1.076 11.225-3.518 16.466-0.154 0.335-0.551 0.482-0.885 0.323-0.334-0.155-0.479-0.552-0.323-0.885 2.694-5.783 3.437-16.525 3.445-16.633 0.024-0.357 0.318-0.617 0.685-0.622l19.704 0.577c0.184 0.006 0.357 0.087 0.478 0.223 0.122 0.137 0.182 0.318 0.167 0.501-0.496 5.764-2.527 24.559-7.895 25.539-0.159 0.029-0.318 0.044-0.477 0.044zM1.797 23.366c0.512 1.492 1.899 4.486 4.805 4.555 3.925 0.094 10.437 0.147 14.129 0.172-0.934-0.947-1.879-2.396-2.848-4.354l-16.086-0.372z"></path>
<path d="M25.484 10.117c-0.008 0-0.016 0-0.023-0.001l-10.050-0.353c-0.368-0.013-0.656-0.322-0.643-0.689s0.358-0.674 0.689-0.643l10.050 0.353c0.369 0.013 0.656 0.322 0.643 0.689-0.013 0.36-0.309 0.643-0.667 0.643z"></path>
<path d="M24.090 14.64c-0.008 0-0.016 0-0.023-0.001l-9.395-0.33c-0.368-0.012-0.656-0.322-0.643-0.689s0.337-0.66 0.689-0.643l9.395 0.33c0.369 0.012 0.656 0.322 0.643 0.689-0.013 0.36-0.309 0.643-0.667 0.643z"></path>
<path d="M18.867 19.061c-0.008 0-0.016 0-0.023 0l-5.361-0.189c-0.368-0.013-0.656-0.322-0.643-0.69s0.345-0.635 0.689-0.643l5.361 0.189c0.369 0.013 0.656 0.322 0.643 0.69-0.013 0.359-0.309 0.643-0.667 0.643z"></path>
</svg>
