<svg version="1.1" xmlns="http://www.w3.org/2000/svg" width="32" height="32" viewBox="0 0 32 32">
<title>paper_layers</title>
<path d="M17.596 17.656c-0.009 0-0.121-0.003-0.13-0.003l-9.080-0.354c-0.46-0.018-0.906-0.129-1.323-0.328l-6.374-3.043c-0.232-0.111-0.38-0.346-0.38-0.603s0.149-0.492 0.382-0.602l18.052-8.538c0.182-0.085 0.397-0.085 0.579 0.005l12.168 5.975c0.229 0.113 0.374 0.346 0.372 0.602s-0.148 0.488-0.379 0.598l-12.427 5.959c-0.455 0.217-0.96 0.332-1.461 0.332zM2.53 13.329l5.107 2.439c0.253 0.121 0.523 0.187 0.801 0.199l9.080 0.353 0.078 0.669v-0.667c0.307 0 0.605-0.068 0.887-0.202l11.186-5.364-10.646-5.228-16.493 7.8z"></path>
<path d="M12.976 24.038c-0.103 0-0.206-0.023-0.3-0.072l-11.999-6.042c-0.329-0.165-0.461-0.566-0.296-0.895 0.165-0.329 0.567-0.461 0.895-0.296l11.709 5.895 17.926-8.465c0.333-0.156 0.732-0.014 0.888 0.318 0.158 0.333 0.014 0.73-0.318 0.887l-18.221 8.605c-0.090 0.043-0.187 0.064-0.284 0.064z"></path>
<path d="M12.976 28.040c-0.103 0-0.206-0.023-0.3-0.072l-11.999-6.043c-0.329-0.165-0.461-0.566-0.296-0.895 0.165-0.329 0.565-0.462 0.896-0.296l11.708 5.896 17.926-8.466c0.333-0.154 0.732-0.016 0.888 0.318 0.158 0.333 0.014 0.731-0.318 0.888l-18.221 8.605c-0.090 0.043-0.187 0.064-0.284 0.064z"></path>
<path d="M17.492 17.654c-0.095 0-0.191-0.021-0.284-0.064-0.128-0.060-2.844-1.354-4.533-3.6-1.743 2.249-3.895 3.21-3.995 3.254-0.337 0.147-0.729-0.005-0.877-0.342-0.148-0.336 0.005-0.729 0.341-0.879 0.024-0.010 2.411-1.089 3.987-3.574 0.126-0.198 0.348-0.307 0.581-0.31 0.235 0.007 0.449 0.136 0.564 0.341 1.349 2.404 4.47 3.89 4.501 3.906 0.333 0.156 0.477 0.553 0.319 0.887-0.113 0.241-0.353 0.383-0.603 0.383z"></path>
</svg>
