<!-- Generated by IcoMoon.io -->
<svg version="1.1" xmlns="http://www.w3.org/2000/svg" width="32" height="32" viewBox="0 0 32 32">
<title>paste_clipboard</title>
<path d="M23.2 28.4c-0.4 0.4-0.9 0.6-1.4 0.6h-14c-0.5 0-1-0.2-1.4-0.6s-0.6-0.9-0.6-1.4v-20c0-0.5 0.2-1 0.6-1.4 0.3-0.4 0.8-0.6 1.4-0.6h1.1c0.3 1.1 1.3 2 2.5 2h6.7c1.2 0 2.3-0.9 2.5-2h1.1c0.5 0 1 0.2 1.4 0.6s0.7 0.9 0.7 1.4v1.6h2v-1.6c0-1.1-0.4-2.1-1.2-2.8-0.8-0.8-1.8-1.2-2.8-1.2h-1.1c-0.3-1.1-1.3-2-2.5-2h-6.7c-1.2 0-2.3 0.9-2.5 2h-1.2c-1.1 0-2.1 0.4-2.9 1.2-0.7 0.7-1.1 1.7-1.1 2.8v20c0 1.1 0.4 2.1 1.2 2.8 0.7 0.8 1.7 1.2 2.8 1.2h14c1.1 0 2.1-0.4 2.8-1.2 0.8-0.8 1.2-1.8 1.2-2.8h-2c0 0.5-0.3 1-0.6 1.4zM10.8 3.6c0-0.3 0.2-0.6 0.6-0.6h6.7c0.3 0 0.6 0.3 0.6 0.6v0.7c0 0.3-0.3 0.6-0.6 0.6h-6.7c-0.3 0-0.6-0.3-0.6-0.6v-0.7z"></path>
<path d="M28.5 14.9l-5-5c-0.4-0.4-0.9-0.6-1.5-0.6h-3.5c-0.7 0-1.4 0.3-1.9 0.8s-0.8 1.2-0.8 1.9v11.2c0 0.7 0.3 1.4 0.8 1.9s1.2 0.8 1.9 0.8h7.8c0.7 0 1.4-0.3 1.9-0.8s0.8-1.2 0.8-1.9v-6.8c0.1-0.6-0.1-1.1-0.5-1.5zM25.7 14.9h-2.1l-0.1-0.1v-2.1l2.2 2.2zM26.9 23.7c-0.1 0.1-0.3 0.2-0.5 0.2h-7.8c-0.2 0-0.4-0.1-0.5-0.2s-0.2-0.3-0.2-0.5v-11.2c0-0.2 0.1-0.4 0.2-0.5s0.3-0.2 0.5-0.2h2.9v3.5c0 0.6 0.2 1.1 0.6 1.5s0.9 0.6 1.5 0.6h3.5v6.3c0 0.2-0.1 0.3-0.2 0.5z"></path>
</svg>
