<svg version="1.1" xmlns="http://www.w3.org/2000/svg" width="32" height="32" viewBox="0 0 32 32">
<title>paste_clipboard</title>
<path d="M10.001 32.001h-5.334c-0.369 0-0.667-0.298-0.667-0.667v-26.667c0-0.369 0.298-0.667 0.667-0.667h2.667c0.369 0 0.667 0.298 0.667 0.667s-0.298 0.667-0.667 0.667h-2v25.333h4.667c0.369 0 0.667 0.298 0.667 0.667s-0.298 0.667-0.667 0.667z"></path>
<path d="M26 12.021c-0.369 0-0.667-0.298-0.667-0.667v-6.019h-2c-0.369 0-0.667-0.298-0.667-0.667s0.298-0.667 0.667-0.667h2.667c0.369 0 0.667 0.298 0.667 0.667v6.686c0 0.369-0.298 0.667-0.667 0.667z"></path>
<path d="M28.667 32.001h-16c-0.369 0-0.667-0.298-0.667-0.667v-17.333c0-0.369 0.298-0.667 0.667-0.667h12.926c0.181 0 0.353 0.073 0.479 0.203l3.074 3.175c0.12 0.124 0.187 0.29 0.187 0.463v14.159c0 0.368-0.298 0.667-0.667 0.667zM13.333 30.668h14.667v-13.223l-2.69-2.777h-11.977v16z"></path>
<path d="M24.667 28.001h-8.026c-0.369 0-0.667-0.298-0.667-0.667s0.298-0.667 0.667-0.667h8.026c0.369 0 0.667 0.298 0.667 0.667s-0.298 0.667-0.667 0.667z"></path>
<path d="M24.667 24.001h-8.026c-0.369 0-0.667-0.298-0.667-0.667s0.298-0.667 0.667-0.667h8.026c0.369 0 0.667 0.298 0.667 0.667s-0.298 0.667-0.667 0.667z"></path>
<path d="M24.667 20.001h-8.026c-0.369 0-0.667-0.298-0.667-0.667s0.298-0.667 0.667-0.667h8.026c0.369 0 0.667 0.298 0.667 0.667s-0.298 0.667-0.667 0.667z"></path>
<path d="M15.4 3.986c-0.187 0-0.36-0.066-0.48-0.2-0.12-0.107-0.187-0.28-0.187-0.467 0-0.173 0.066-0.346 0.187-0.467 0.253-0.24 0.68-0.253 0.947 0 0.133 0.133 0.2 0.307 0.2 0.467 0 0.187-0.080 0.36-0.2 0.48s-0.294 0.187-0.467 0.187z"></path>
<path d="M18.667 8.001h-6.667c-1.471 0-2.667-1.196-2.667-2.667s1.196-2.667 2.667-2.667v-0.213c0-1.404 1.549-2.454 2.934-2.454h0.925c1.328 0 2.807 1.008 2.807 2.454v0.213c1.47 0 2.667 1.196 2.667 2.667s-1.197 2.667-2.667 2.667zM12 4.001c-0.735 0-1.333 0.598-1.333 1.333s0.598 1.333 1.333 1.333h6.667c0.736 0 1.333-0.598 1.333-1.333s-0.598-1.333-1.333-1.333h-0.667c-0.369 0-0.667-0.298-0.667-0.667v-0.88c0-0.62-0.806-1.12-1.474-1.12h-0.925c-0.699 0-1.601 0.544-1.601 1.12v0.88c0 0.369-0.298 0.667-0.667 0.667h-0.667z"></path>
</svg>
