<!-- Generated by IcoMoon.io -->
<svg version="1.1" xmlns="http://www.w3.org/2000/svg" width="32" height="32" viewBox="0 0 32 32">
<title>paste_clipboard</title>
<path fill="none" stroke-linejoin="round" stroke-linecap="butt" stroke-miterlimit="4" stroke-width="2" stroke="#000" d="M19.75 4h2c0.796 0 1.559 0.316 2.121 0.879s0.879 1.326 0.879 2.121v1.625M24.75 27c0 0.796-0.316 1.559-0.879 2.121s-1.326 0.879-2.121 0.879h-14c-0.796 0-1.559-0.316-2.121-0.879s-0.879-1.326-0.879-2.121v-20c0-0.796 0.316-1.559 0.879-2.121s1.326-0.879 2.121-0.879h2"></path>
<path fill="none" stroke-linejoin="round" stroke-linecap="butt" stroke-miterlimit="4" stroke-width="2" stroke="#000" d="M18.117 2h-6.734c-0.902 0-1.633 0.731-1.633 1.633v0.734c0 0.902 0.731 1.633 1.633 1.633h6.734c0.902 0 1.633-0.731 1.633-1.633v-0.734c0-0.902-0.731-1.633-1.633-1.633z"></path>
<path fill="none" stroke-linejoin="round" stroke-linecap="butt" stroke-miterlimit="4" stroke-width="2" stroke="#000" d="M28.087 16.37v6.823c0 0.446-0.177 0.874-0.493 1.189s-0.743 0.493-1.189 0.493h-7.848c-0.446 0-0.874-0.177-1.189-0.493s-0.493-0.743-0.493-1.189v-11.211c0-0.446 0.177-0.874 0.493-1.189s0.743-0.493 1.189-0.493h3.46c0.297 0 0.582 0.118 0.793 0.328l4.949 4.949c0.21 0.21 0.328 0.495 0.328 0.793z"></path>
<path fill="none" stroke-linejoin="round" stroke-linecap="round" stroke-miterlimit="4" stroke-width="2" stroke="#000" d="M22.481 10.58v4.204c0 0.297 0.118 0.582 0.328 0.793s0.495 0.328 0.793 0.328h4.204"></path>
</svg>
