<!-- Generated by IcoMoon.io -->
<svg version="1.1" xmlns="http://www.w3.org/2000/svg" width="32" height="32" viewBox="0 0 32 32">
<title>path_way_road_sign</title>
<path fill="none" stroke-linejoin="round" stroke-linecap="round" stroke-miterlimit="4" stroke-width="2" stroke="#000" d="M16 25v4M16 13v4M16 3v2M26 13h-19.586c-0 0-0 0-0 0-0.276 0-0.526-0.112-0.707-0.293l-3.707-3.707 3.707-3.707c0.181-0.181 0.431-0.293 0.707-0.293 0 0 0 0 0 0h19.586c0.552 0 1 0.448 1 1v0 6c0 0.552-0.448 1-1 1v0zM6 25h19.586c0 0 0 0 0 0 0.276 0 0.526-0.112 0.707-0.293l3.707-3.707-3.707-3.707c-0.181-0.181-0.431-0.293-0.707-0.293-0 0-0 0-0 0h-19.586c-0.552 0-1 0.448-1 1v0 6c0 0.552 0.448 1 1 1v0z"></path>
</svg>
