<!-- Generated by IcoMoon.io -->
<svg version="1.1" xmlns="http://www.w3.org/2000/svg" width="32" height="32" viewBox="0 0 32 32">
<title>path_way_road_sign</title>
<path d="M30.7 20.3l-3.7-3.7c-0.4-0.4-0.9-0.6-1.4-0.6h-8.6v-2h9c1.1 0 2-0.9 2-2v-6c0-1.1-0.9-2-2-2h-9v-1c0-0.6-0.4-1-1-1s-1 0.4-1 1v1h-8.6c-0.5 0-1 0.2-1.4 0.6l-3.7 3.7c-0.4 0.4-0.4 1 0 1.4l3.7 3.7c0.4 0.4 0.9 0.6 1.4 0.6h8.6v2h-9c-1.1 0-2 0.9-2 2v6c0 1.1 0.9 2 2 2h9v3c0 0.6 0.4 1 1 1s1-0.4 1-1v-3h8.6c0.5 0 1-0.2 1.4-0.6l3.7-3.7c0.4-0.4 0.4-1 0-1.4zM26 12v0zM6.4 12l-3-3 3-3h19.6v6h-19.6zM25.6 24h-19.6v-6h19.6l3 3-3 3z"></path>
</svg>
