<svg version="1.1" xmlns="http://www.w3.org/2000/svg" width="32" height="32" viewBox="0 0 32 32">
<title>pathfinder_shapes_intersect</title>
<path d="M20.717 11.768c-0.369 0-0.667-0.298-0.667-0.667v-1.333c0-0.369 0.298-0.667 0.667-0.667s0.667 0.298 0.667 0.667v1.333c0 0.369-0.298 0.667-0.667 0.667z"></path>
<path d="M20.717 7.327c-0.369 0-0.667-0.298-0.667-0.667v-1.553c0-0.369 0.298-0.667 0.667-0.667s0.667 0.298 0.667 0.667v1.553c0 0.369-0.298 0.667-0.667 0.667z"></path>
<path d="M20.717 2.667c-0.369 0-0.667-0.298-0.667-0.667v-0.667h-0.667c-0.369 0-0.667-0.298-0.667-0.667s0.298-0.667 0.667-0.667h1.333c0.369 0 0.667 0.298 0.667 0.667v1.333c0 0.369-0.298 0.667-0.667 0.667z"></path>
<path d="M15.051 1.333h-2.167c-0.369 0-0.667-0.298-0.667-0.667s0.298-0.667 0.667-0.667h2.167c0.369 0 0.667 0.298 0.667 0.667s-0.298 0.667-0.667 0.667zM8.551 1.333h-2.167c-0.369 0-0.667-0.298-0.667-0.667s0.298-0.667 0.667-0.667h2.167c0.369 0 0.667 0.298 0.667 0.667s-0.298 0.667-0.667 0.667z"></path>
<path d="M0.718 2.667c-0.369 0-0.667-0.298-0.667-0.667v-1.333c0-0.369 0.298-0.667 0.667-0.667h1.333c0.369 0 0.667 0.298 0.667 0.667s-0.298 0.667-0.667 0.667h-0.667v0.667c0 0.369-0.298 0.667-0.667 0.667z"></path>
<path d="M0.718 15.667c-0.369 0-0.667-0.298-0.667-0.667v-2.167c0-0.369 0.298-0.667 0.667-0.667s0.667 0.298 0.667 0.667v2.167c0 0.369-0.298 0.667-0.667 0.667zM0.718 9.167c-0.369 0-0.667-0.298-0.667-0.667v-2.167c0-0.369 0.298-0.667 0.667-0.667s0.667 0.298 0.667 0.667v2.167c0 0.369-0.298 0.667-0.667 0.667z"></path>
<path d="M2.051 21.333h-1.333c-0.369 0-0.667-0.298-0.667-0.667v-1.333c0-0.369 0.298-0.667 0.667-0.667s0.667 0.298 0.667 0.667v0.667h0.667c0.369 0 0.667 0.298 0.667 0.667s-0.298 0.667-0.667 0.667z"></path>
<path d="M6.712 21.333h-1.553c-0.369 0-0.667-0.298-0.667-0.667s0.298-0.667 0.667-0.667h1.553c0.369 0 0.667 0.298 0.667 0.667s-0.298 0.667-0.667 0.667z"></path>
<path d="M11.152 21.333h-1.333c-0.369 0-0.667-0.298-0.667-0.667s0.298-0.667 0.667-0.667h1.333c0.369 0 0.667 0.298 0.667 0.667s-0.298 0.667-0.667 0.667z"></path>
<path d="M11.152 22.667c-0.369 0-0.667-0.298-0.667-0.667v-1.333c0-0.369 0.298-0.667 0.667-0.667s0.667 0.298 0.667 0.667v1.333c0 0.369-0.298 0.667-0.667 0.667z"></path>
<path d="M11.152 27.514c-0.369 0-0.667-0.298-0.667-0.667v-1.616c0-0.369 0.298-0.667 0.667-0.667s0.667 0.298 0.667 0.667v1.616c0 0.369-0.298 0.667-0.667 0.667z"></path>
<path d="M12.485 32.079h-1.333c-0.369 0-0.667-0.298-0.667-0.667v-1.333c0-0.369 0.298-0.667 0.667-0.667s0.667 0.298 0.667 0.667v0.667h0.667c0.369 0 0.667 0.298 0.667 0.667s-0.298 0.667-0.667 0.667z"></path>
<path d="M25.72 32.079h-2.206c-0.369 0-0.667-0.298-0.667-0.667s0.298-0.667 0.667-0.667h2.206c0.369 0 0.667 0.298 0.667 0.667s-0.298 0.667-0.667 0.667zM19.103 32.079h-2.206c-0.369 0-0.667-0.298-0.667-0.667s0.298-0.667 0.667-0.667h2.206c0.369 0 0.667 0.298 0.667 0.667s-0.298 0.667-0.667 0.667z"></path>
<path d="M31.464 32.079h-1.333c-0.369 0-0.667-0.298-0.667-0.667s0.298-0.667 0.667-0.667h0.667v-0.667c0-0.369 0.298-0.667 0.667-0.667s0.667 0.298 0.667 0.667v1.333c0 0.368-0.298 0.667-0.667 0.667z"></path>
<path d="M31.464 26.335c-0.369 0-0.667-0.298-0.667-0.667v-2.206c0-0.369 0.298-0.667 0.667-0.667s0.667 0.298 0.667 0.667v2.206c0 0.368-0.298 0.667-0.667 0.667zM31.464 19.717c-0.369 0-0.667-0.298-0.667-0.667v-2.206c0-0.369 0.298-0.667 0.667-0.667s0.667 0.298 0.667 0.667v2.206c0 0.369-0.298 0.667-0.667 0.667z"></path>
<path d="M31.464 13.101c-0.369 0-0.667-0.298-0.667-0.667v-0.667h-0.667c-0.369 0-0.667-0.298-0.667-0.667s0.298-0.667 0.667-0.667h1.333c0.369 0 0.667 0.298 0.667 0.667v1.333c0 0.369-0.298 0.667-0.667 0.667z"></path>
<path d="M26.898 11.768h-1.616c-0.369 0-0.667-0.298-0.667-0.667s0.298-0.667 0.667-0.667h1.616c0.369 0 0.667 0.298 0.667 0.667s-0.298 0.667-0.667 0.667z"></path>
<path d="M22.051 11.768h-1.333c-0.369 0-0.667-0.298-0.667-0.667s0.298-0.667 0.667-0.667h1.333c0.369 0 0.667 0.298 0.667 0.667s-0.298 0.667-0.667 0.667z"></path>
<path d="M20.717 21.333h-9.566c-0.369 0-0.667-0.298-0.667-0.667v-9.566c0-0.369 0.298-0.667 0.667-0.667h9.566c0.369 0 0.667 0.298 0.667 0.667v9.566c0 0.369-0.298 0.667-0.667 0.667zM11.818 20h8.232v-8.232h-8.232v8.232z"></path>
</svg>
