<!-- Generated by IcoMoon.io -->
<svg version="1.1" xmlns="http://www.w3.org/2000/svg" width="32" height="32" viewBox="0 0 32 32">
<title>path_travel_road</title>
<path d="M4.975 31.608c-2.481 0-4.5-2.018-4.5-4.5 0-2.481 2.019-4.499 4.5-4.499s4.499 2.018 4.499 4.499c0 2.482-2.018 4.5-4.499 4.5zM4.975 23.943c-1.746 0-3.167 1.421-3.167 3.165 0 1.746 1.421 3.167 3.167 3.167s3.166-1.421 3.166-3.167c0-1.745-1.421-3.165-3.166-3.165z"></path>
<path d="M6.717 7.757c-0.171 0-0.341-0.065-0.471-0.195l-5.421-5.421c-0.26-0.26-0.26-0.682 0-0.943s0.682-0.26 0.943 0l5.421 5.421c0.26 0.26 0.26 0.682 0 0.943-0.13 0.13-0.301 0.195-0.471 0.195z"></path>
<path d="M1.297 7.757c-0.171 0-0.341-0.065-0.471-0.195-0.26-0.26-0.26-0.682 0-0.943l5.421-5.421c0.26-0.26 0.682-0.26 0.943 0s0.26 0.682 0 0.943l-5.421 5.421c-0.13 0.13-0.301 0.195-0.471 0.195z"></path>
<path d="M27.315 8.667c-0.369 0-0.667-0.298-0.667-0.667v-4h-4c-0.369 0-0.667-0.298-0.667-0.667s0.298-0.667 0.667-0.667h4.667c0.369 0 0.667 0.298 0.667 0.667v4.667c0 0.369-0.298 0.667-0.667 0.667z"></path>
<path d="M11.519 19.365c-0.171 0-0.341-0.065-0.471-0.195l-5.421-5.421c-0.26-0.26-0.26-0.682 0-0.943s0.682-0.26 0.943 0l5.421 5.421c0.26 0.26 0.26 0.682 0 0.943-0.13 0.13-0.301 0.195-0.471 0.195z"></path>
<path d="M6.098 19.365c-0.171 0-0.341-0.065-0.471-0.195-0.26-0.26-0.26-0.682 0-0.943l5.421-5.421c0.26-0.26 0.682-0.26 0.943 0s0.26 0.682 0 0.943l-5.421 5.421c-0.13 0.13-0.301 0.195-0.471 0.195z"></path>
<path d="M30.822 16.655c-0.171 0-0.341-0.065-0.471-0.195l-5.421-5.422c-0.26-0.26-0.26-0.682 0-0.943s0.682-0.26 0.943 0l5.421 5.421c0.26 0.26 0.26 0.683 0 0.943-0.13 0.13-0.301 0.195-0.471 0.195z"></path>
<path d="M25.401 16.655c-0.171 0-0.341-0.065-0.471-0.195-0.26-0.26-0.26-0.683 0-0.943l5.421-5.421c0.26-0.26 0.682-0.26 0.943 0s0.26 0.682 0 0.943l-5.421 5.422c-0.13 0.129-0.301 0.195-0.471 0.195z"></path>
<path d="M28.842 30.923c-0.171 0-0.341-0.065-0.471-0.195l-5.422-5.422c-0.26-0.26-0.26-0.682 0-0.943s0.682-0.26 0.943 0l5.422 5.422c0.26 0.26 0.26 0.682 0 0.943-0.13 0.13-0.301 0.195-0.471 0.195z"></path>
<path d="M23.421 30.923c-0.171 0-0.341-0.065-0.471-0.195-0.26-0.26-0.26-0.682 0-0.943l5.422-5.422c0.26-0.26 0.682-0.26 0.943 0s0.26 0.682 0 0.943l-5.422 5.422c-0.13 0.13-0.301 0.195-0.471 0.195z"></path>
<path d="M8.808 27.415c-0.318 0-0.6-0.228-0.656-0.552-0.063-0.363 0.18-0.708 0.543-0.771l3.137-0.544c3.161-0.551 5.369-3.15 5.369-6.323v-4.453c0-2.297 0.914-4.107 3.155-6.247l6.521-5.693c0.277-0.243 0.697-0.214 0.941 0.064 0.242 0.277 0.214 0.698-0.064 0.94l-6.499 5.674c-1.952 1.865-2.721 3.346-2.721 5.263v4.453c0 3.833-2.662 6.973-6.475 7.635l-3.137 0.544c-0.038 0.008-0.077 0.010-0.115 0.010z"></path>
</svg>
