<svg version="1.1" xmlns="http://www.w3.org/2000/svg" width="32" height="32" viewBox="0 0 32 32">
<title>pathfinder_shapes_exclude</title>
<path d="M11.148 21.333h-10.434c-0.369 0-0.667-0.298-0.667-0.667v-20c0-0.369 0.298-0.667 0.667-0.667h20c0.369 0 0.667 0.298 0.667 0.667v10.434c0 0.369-0.298 0.667-0.667 0.667s-0.667-0.298-0.667-0.667v-9.768h-18.667v18.667h9.768c0.369 0 0.667 0.298 0.667 0.667s-0.298 0.667-0.667 0.667z"></path>
<path d="M31.46 32.079h-20.312c-0.369 0-0.667-0.298-0.667-0.667v-10.746c0-0.369 0.298-0.667 0.667-0.667s0.667 0.298 0.667 0.667v10.079h18.979v-18.979h-10.079c-0.369 0-0.667-0.298-0.667-0.667s0.298-0.667 0.667-0.667h10.746c0.369 0 0.667 0.298 0.667 0.667v20.312c0 0.368-0.298 0.667-0.667 0.667z"></path>
<path d="M12.481 21.333h-1.333c-0.369 0-0.667-0.298-0.667-0.667v-1.333c0-0.369 0.298-0.667 0.667-0.667s0.667 0.298 0.667 0.667v0.667h0.667c0.369 0 0.667 0.298 0.667 0.667s-0.298 0.667-0.667 0.667z"></path>
<path d="M11.148 17.241c-0.369 0-0.667-0.298-0.667-0.667v-1.38c0-0.369 0.298-0.667 0.667-0.667s0.667 0.298 0.667 0.667v1.38c0 0.368-0.298 0.667-0.667 0.667z"></path>
<path d="M11.148 13.101c-0.369 0-0.667-0.298-0.667-0.667v-1.333c0-0.369 0.298-0.667 0.667-0.667h1.333c0.369 0 0.667 0.298 0.667 0.667s-0.298 0.667-0.667 0.667h-0.667v0.667c0 0.369-0.298 0.667-0.667 0.667z"></path>
<path d="M16.621 11.768h-1.38c-0.369 0-0.667-0.298-0.667-0.667s0.298-0.667 0.667-0.667h1.38c0.369 0 0.667 0.298 0.667 0.667s-0.298 0.667-0.667 0.667z"></path>
<path d="M20.714 13.101c-0.369 0-0.667-0.298-0.667-0.667v-0.667h-0.667c-0.369 0-0.667-0.298-0.667-0.667s0.298-0.667 0.667-0.667h1.333c0.369 0 0.667 0.298 0.667 0.667v1.333c0 0.369-0.298 0.667-0.667 0.667z"></path>
<path d="M20.714 17.241c-0.369 0-0.667-0.298-0.667-0.667v-1.38c0-0.369 0.298-0.667 0.667-0.667s0.667 0.298 0.667 0.667v1.38c0 0.368-0.298 0.667-0.667 0.667z"></path>
<path d="M20.714 21.333h-1.333c-0.369 0-0.667-0.298-0.667-0.667s0.298-0.667 0.667-0.667h0.667v-0.667c0-0.369 0.298-0.667 0.667-0.667s0.667 0.298 0.667 0.667v1.333c0 0.369-0.298 0.667-0.667 0.667z"></path>
<path d="M16.621 21.333h-1.38c-0.369 0-0.667-0.298-0.667-0.667s0.298-0.667 0.667-0.667h1.38c0.369 0 0.667 0.298 0.667 0.667s-0.298 0.667-0.667 0.667z"></path>
</svg>
