<!-- Generated by IcoMoon.io -->
<svg version="1.1" xmlns="http://www.w3.org/2000/svg" width="32" height="32" viewBox="0 0 32 32">
<title>pathfinder_shapes_unite</title>
<path d="M31.456 32.079h-20.312c-0.369 0-0.667-0.298-0.667-0.667v-10.079h-9.768c-0.369 0-0.667-0.298-0.667-0.667v-20c0-0.369 0.298-0.667 0.667-0.667h20c0.369 0 0.667 0.298 0.667 0.667v9.768h10.079c0.369 0 0.667 0.298 0.667 0.667v20.312c0 0.368-0.298 0.667-0.667 0.667zM11.811 30.746h18.979v-18.979h-10.079c-0.369 0-0.667-0.298-0.667-0.667v-9.768h-18.667v18.667h9.768c0.369 0 0.667 0.298 0.667 0.667v10.079z"></path>
</svg>
