<!-- Generated by IcoMoon.io -->
<svg version="1.1" xmlns="http://www.w3.org/2000/svg" width="32" height="32" viewBox="0 0 32 32">
<title>pathfinder_shapes_minus_back</title>
<path d="M8.473 21.333h-7.768c-0.369 0-0.667-0.298-0.667-0.667v-20c0-0.369 0.298-0.667 0.667-0.667h20c0.369 0 0.667 0.298 0.667 0.667v7.767c0 0.369-0.298 0.667-0.667 0.667s-0.667-0.298-0.667-0.667v-7.1h-18.667v18.667h7.101c0.369 0 0.667 0.298 0.667 0.667s-0.298 0.667-0.667 0.667z"></path>
<path d="M31.452 32.079h-1.333c-0.369 0-0.667-0.298-0.667-0.667s0.298-0.667 0.667-0.667h0.667v-0.667c0-0.369 0.298-0.667 0.667-0.667s0.667 0.298 0.667 0.667v1.333c0 0.368-0.298 0.667-0.667 0.667z"></path>
<path d="M25.707 32.079h-2.206c-0.369 0-0.667-0.298-0.667-0.667s0.298-0.667 0.667-0.667h2.206c0.369 0 0.667 0.298 0.667 0.667s-0.298 0.667-0.667 0.667zM19.090 32.079h-2.206c-0.369 0-0.667-0.298-0.667-0.667s0.298-0.667 0.667-0.667h2.206c0.369 0 0.667 0.298 0.667 0.667s-0.298 0.667-0.667 0.667z"></path>
<path d="M12.473 32.079h-1.333c-0.369 0-0.667-0.298-0.667-0.667v-1.333c0-0.369 0.298-0.667 0.667-0.667s0.667 0.298 0.667 0.667v0.667h0.667c0.369 0 0.667 0.298 0.667 0.667s-0.298 0.667-0.667 0.667z"></path>
<path d="M11.14 26.335c-0.369 0-0.667-0.298-0.667-0.667v-2.206c0-0.369 0.298-0.667 0.667-0.667s0.667 0.298 0.667 0.667v2.206c0 0.368-0.298 0.667-0.667 0.667zM11.14 19.717c-0.369 0-0.667-0.298-0.667-0.667v-2.206c0-0.369 0.298-0.667 0.667-0.667s0.667 0.298 0.667 0.667v2.206c0 0.369-0.298 0.667-0.667 0.667z"></path>
<path d="M11.14 13.101c-0.369 0-0.667-0.298-0.667-0.667v-1.333c0-0.369 0.298-0.667 0.667-0.667h1.333c0.369 0 0.667 0.298 0.667 0.667s-0.298 0.667-0.667 0.667h-0.667v0.667c0 0.369-0.298 0.667-0.667 0.667z"></path>
<path d="M25.707 11.768h-2.206c-0.369 0-0.667-0.298-0.667-0.667s0.298-0.667 0.667-0.667h2.206c0.369 0 0.667 0.298 0.667 0.667s-0.298 0.667-0.667 0.667zM19.090 11.768h-2.206c-0.369 0-0.667-0.298-0.667-0.667s0.298-0.667 0.667-0.667h2.206c0.369 0 0.667 0.298 0.667 0.667s-0.298 0.667-0.667 0.667z"></path>
<path d="M31.452 13.101c-0.369 0-0.667-0.298-0.667-0.667v-0.667h-0.667c-0.369 0-0.667-0.298-0.667-0.667s0.298-0.667 0.667-0.667h1.333c0.369 0 0.667 0.298 0.667 0.667v1.333c0 0.369-0.298 0.667-0.667 0.667z"></path>
<path d="M31.452 26.335c-0.369 0-0.667-0.298-0.667-0.667v-2.206c0-0.369 0.298-0.667 0.667-0.667s0.667 0.298 0.667 0.667v2.206c0 0.368-0.298 0.667-0.667 0.667zM31.452 19.717c-0.369 0-0.667-0.298-0.667-0.667v-2.206c0-0.369 0.298-0.667 0.667-0.667s0.667 0.298 0.667 0.667v2.206c0 0.369-0.298 0.667-0.667 0.667z"></path>
</svg>
