<svg version="1.1" xmlns="http://www.w3.org/2000/svg" width="32" height="32" viewBox="0 0 32 32">
<title>path_way_road_sign</title>
<path d="M6.261 11.473c-0.151 0-0.298-0.051-0.417-0.147-0.138-0.111-0.227-0.271-0.246-0.447l-0.695-6.303c-0.040-0.366 0.224-0.695 0.59-0.736l16.575-1.827c0.147-0.012 0.29 0.016 0.415 0.091l4.553 2.727c0.18 0.107 0.299 0.294 0.32 0.503 0.022 0.208-0.056 0.415-0.21 0.558l-3.859 3.576c-0.104 0.097-0.238 0.158-0.38 0.174l-16.575 1.827c-0.024 0.003-0.049 0.004-0.073 0.004zM6.302 5.093l0.549 4.977 15.693-1.73 3.046-2.822-3.598-2.155-15.69 1.73z"></path>
<path d="M8.543 20.654c-0.122 0-0.243-0.034-0.349-0.099l-4.523-2.776c-0.178-0.109-0.296-0.297-0.315-0.505-0.019-0.21 0.061-0.415 0.216-0.556l3.898-3.535c0.106-0.096 0.24-0.155 0.382-0.169l16.593-1.647c0.385-0.029 0.694 0.231 0.729 0.598l0.628 6.31c0.018 0.176-0.035 0.352-0.147 0.488-0.112 0.138-0.273 0.224-0.449 0.241l-16.596 1.649c-0.022 0.001-0.044 0.003-0.066 0.003zM5.126 17.108l3.575 2.193 15.708-1.559-0.496-4.984-15.711 1.56-3.076 2.79z"></path>
<path d="M15.318 4.005c-0.369 0-0.667-0.298-0.667-0.667v-2.491c0-0.369 0.298-0.667 0.667-0.667s0.667 0.298 0.667 0.667v2.492c0 0.368-0.298 0.667-0.667 0.667z"></path>
<path d="M15.318 31.948c-0.369 0-0.667-0.298-0.667-0.667v-9.047c0-0.369 0.298-0.667 0.667-0.667s0.667 0.298 0.667 0.667v9.047c0 0.369-0.298 0.667-0.667 0.667z"></path>
</svg>
