<svg version="1.1" xmlns="http://www.w3.org/2000/svg" width="32" height="32" viewBox="0 0 32 32">
<title>path_way_road_sign2</title>
<path d="M27.497 15.96h-19.335c-0.193 0-0.378-0.084-0.505-0.231l-5.114-5.914c-0.214-0.249-0.216-0.617-0.005-0.867l5.114-6.040c0.127-0.149 0.313-0.236 0.509-0.236h19.335c0.369 0 0.667 0.298 0.667 0.667v11.954c0 0.369-0.298 0.667-0.667 0.667zM8.467 14.626h18.363v-10.621h-18.359l-4.546 5.369 4.541 5.252z"></path>
<path d="M16.617 4.005c-0.369 0-0.667-0.298-0.667-0.667v-2.491c0-0.369 0.298-0.667 0.667-0.667s0.667 0.298 0.667 0.667v2.492c0 0.368-0.298 0.667-0.667 0.667z"></path>
<path d="M16.617 31.948c-0.369 0-0.667-0.298-0.667-0.667v-13.238c0-0.369 0.298-0.667 0.667-0.667s0.667 0.298 0.667 0.667v13.238c0 0.369-0.298 0.667-0.667 0.667z"></path>
</svg>
