<!-- Generated by IcoMoon.io -->
<svg version="1.1" xmlns="http://www.w3.org/2000/svg" width="32" height="32" viewBox="0 0 32 32">
<title>pause</title>
<path d="M12.909 25.419h-2.028c-0.688 0-1.25-0.563-1.25-1.25v-16.3c0-0.688 0.563-1.25 1.25-1.25h2.028c0.688 0 1.25 0.563 1.25 1.25v16.303c0 0.684-0.563 1.247-1.25 1.247z"></path>
<path d="M21.966 25.419h-2.028c-0.688 0-1.25-0.563-1.25-1.25v-16.3c0-0.688 0.563-1.25 1.25-1.25h2.028c0.688 0 1.25 0.563 1.25 1.25v16.303c0 0.684-0.563 1.247-1.25 1.247z"></path>
</svg>
