<svg version="1.1" xmlns="http://www.w3.org/2000/svg" width="32" height="32" viewBox="0 0 32 32">
<title>pause_stop</title>
<path d="M11.867 31.6h-7.6c-0.4 0-0.667-0.267-0.667-0.667v-29.733c0-0.4 0.267-0.667 0.667-0.667h7.6c0.4 0 0.667 0.267 0.667 0.667v29.733c0 0.4-0.267 0.667-0.667 0.667zM4.933 30.267h6.267v-28.4h-6.267v28.4z"></path>
<path d="M27.733 31.6h-7.6c-0.4 0-0.667-0.267-0.667-0.667v-29.733c0-0.4 0.267-0.667 0.667-0.667h7.6c0.4 0 0.667 0.267 0.667 0.667v29.733c0 0.4-0.267 0.667-0.667 0.667zM20.8 30.267h6.267v-28.4h-6.267v28.4z"></path>
</svg>
