<svg version="1.1" xmlns="http://www.w3.org/2000/svg" width="32" height="32" viewBox="0 0 32 32">
<title>pen</title>
<path d="M17.646 28.004h-3.23c-0.3 0-0.563-0.201-0.643-0.49-3.318-12.051 1.13-26.437 1.321-27.044 0.088-0.277 0.345-0.466 0.636-0.466h0.602c0.292 0 0.548 0.189 0.635 0.466 0.191 0.607 4.639 14.993 1.322 27.044-0.081 0.289-0.344 0.49-0.643 0.49zM14.929 26.671h2.204c2.462-9.63-0.13-20.976-1.102-24.615-0.971 3.64-3.562 14.992-1.102 24.615z"></path>
<path d="M10.633 16.425c-0.012 0-0.025 0-0.038-0.001-0.368-0.021-0.649-0.335-0.628-0.703 0.283-5.092 1.194-8.528 1.573-9.769 0.349-1.147 1.414-1.947 2.589-1.947h3.224c0.369 0 0.667 0.298 0.667 0.667s-0.298 0.667-0.667 0.667h-3.224c-0.593 0-1.133 0.413-1.314 1.003-0.284 0.932-1.234 4.369-1.517 9.454-0.019 0.355-0.314 0.63-0.665 0.63z"></path>
<path d="M16.031 32.007c-0.369 0-0.667-0.298-0.667-0.667v-1.49c0-0.369 0.298-0.667 0.667-0.667s0.667 0.298 0.667 0.667v1.49c0 0.368-0.298 0.667-0.667 0.667z"></path>
<path d="M16.466 30.517h-0.87c-0.32 0-0.594-0.227-0.654-0.54l-0.486-2.513c-0.038-0.195 0.014-0.397 0.14-0.551s0.315-0.242 0.514-0.242h1.841c0.199 0 0.388 0.089 0.514 0.242s0.178 0.355 0.141 0.551l-0.486 2.513c-0.061 0.314-0.336 0.54-0.655 0.54z"></path>
</svg>
