<svg version="1.1" xmlns="http://www.w3.org/2000/svg" width="32" height="32" viewBox="0 0 32 32">
<title>pen_writting_fontain</title>
<path d="M15.105 26.013c-2.127 0-4.102-0.44-4.186-0.46-0.251-0.056-0.447-0.253-0.503-0.503-0.055-0.245-1.333-6.031 0.652-8.514 0.732-0.916 1.819-1.31 3.161-1.113 0.541-1.807 2.236-6.609 4.955-6.609 0.496 0 0.984 0.156 1.46 0.466 0.99-1.719 3.939-5.585 10.617-5.201 0.339 0.019 0.609 0.289 0.628 0.628 0.37 6.562-3.499 9.595-5.208 10.607 0.547 0.838 0.53 1.58 0.389 2.097-0.641 2.349-4.863 3.831-6.523 4.328 0.151 1.048-0.044 1.93-0.585 2.629-0.845 1.090-2.479 1.643-4.857 1.643zM11.63 24.336c0.669 0.125 2.053 0.344 3.475 0.344 1.917 0 3.232-0.389 3.803-1.126 0.387-0.5 0.458-1.193 0.217-2.119-0.092-0.357 0.122-0.72 0.478-0.813 2.169-0.566 5.764-2.033 6.181-3.56 0.047-0.171 0.187-0.69-0.607-1.488-0.159-0.158-0.225-0.385-0.181-0.605 0.046-0.219 0.198-0.402 0.405-0.485 0.221-0.089 5.277-2.208 5.178-9.095-6.944-0.072-9.008 4.966-9.095 5.18-0.083 0.208-0.266 0.36-0.484 0.405-0.227 0.046-0.448-0.023-0.605-0.18-0.428-0.428-0.836-0.646-1.21-0.646-1.676 0-3.308 4.189-3.836 6.219-0.093 0.355-0.458 0.566-0.813 0.478-1.112-0.29-1.908-0.128-2.426 0.523-1.209 1.51-0.814 5.213-0.48 6.967z"></path>
<path d="M7.281 29.357c-0.171 0-0.341-0.065-0.471-0.195-0.26-0.26-0.26-0.682 0-0.943l3.786-3.786c0.26-0.26 0.682-0.26 0.943 0s0.26 0.682 0 0.943l-3.786 3.786c-0.13 0.13-0.301 0.195-0.471 0.195z"></path>
<path d="M13.959 22.678c-0.171 0-0.341-0.065-0.471-0.195-0.26-0.26-0.26-0.682 0-0.943l7.308-7.308c0.26-0.26 0.682-0.26 0.943 0s0.26 0.682 0 0.943l-7.308 7.308c-0.13 0.13-0.301 0.195-0.471 0.195z"></path>
<path d="M4.65 29.357h-3.886c-0.369 0-0.667-0.298-0.667-0.667s0.298-0.667 0.667-0.667h3.886c0.369 0 0.667 0.298 0.667 0.667s-0.298 0.667-0.667 0.667z"></path>
</svg>
