<svg version="1.1" xmlns="http://www.w3.org/2000/svg" width="32" height="32" viewBox="0 0 32 32">
<title>pencil_ruller_drawing</title>
<path d="M3.368 11.791c-0.171 0-0.341-0.065-0.471-0.195-0.26-0.26-0.26-0.682 0-0.943l4.26-4.26c0.26-0.26 0.682-0.26 0.943 0s0.26 0.682 0 0.943l-4.26 4.26c-0.13 0.13-0.301 0.195-0.471 0.195z"></path>
<path d="M5.704 14.127c-0.171 0-0.341-0.065-0.471-0.195-0.26-0.26-0.26-0.682 0-0.943l1.704-1.704c0.26-0.26 0.682-0.26 0.943 0s0.26 0.682 0 0.943l-1.704 1.704c-0.13 0.13-0.301 0.195-0.471 0.195z"></path>
<path d="M18.647 27.069c-0.171 0-0.341-0.065-0.471-0.195-0.26-0.26-0.26-0.682 0-0.943l1.703-1.703c0.26-0.26 0.682-0.26 0.943 0s0.26 0.682 0 0.943l-1.703 1.703c-0.13 0.13-0.301 0.195-0.471 0.195z"></path>
<path d="M21.082 29.505c-0.171 0-0.341-0.065-0.471-0.195-0.26-0.26-0.26-0.682 0-0.943l4.26-4.26c0.26-0.26 0.682-0.26 0.943 0s0.26 0.682 0 0.943l-4.26 4.26c-0.13 0.13-0.301 0.195-0.471 0.195z"></path>
<path d="M1.923 31.62c-0.413 0-0.824-0.171-1.148-0.496-0.475-0.477-0.626-1.159-0.386-1.738 3.425-8.717 3.479-8.771 3.609-8.9 0.259-0.262 0.682-0.259 0.943 0.003 0.216 0.219 0.251 0.548 0.105 0.802-0.214 0.462-2.153 5.367-3.421 8.594-0.041 0.099 0.018 0.223 0.095 0.299 0.042 0.043 0.151 0.134 0.277 0.085 3.254-1.255 8.182-3.168 8.65-3.381 0.252-0.147 0.582-0.111 0.799 0.107 0.262 0.259 0.263 0.681 0.004 0.943-0.131 0.131-0.186 0.186-8.96 3.572-0.184 0.075-0.376 0.112-0.568 0.112z"></path>
<path d="M5.6 30.257c-0.171 0-0.341-0.065-0.471-0.195l-3.281-3.283c-0.26-0.26-0.26-0.682 0-0.943s0.682-0.26 0.943 0l3.281 3.283c0.26 0.26 0.26 0.682 0 0.943-0.13 0.13-0.301 0.195-0.471 0.195z"></path>
<path d="M11.005 28.16c-0.177 0-0.346-0.070-0.471-0.195l-6.563-6.564c-0.26-0.26-0.26-0.682 0-0.943l18.977-18.976c1.134-1.136 3.109-1.132 4.242 0l3.027 3.027c0.63 0.63 0.977 1.467 0.977 2.357s-0.346 1.728-0.977 2.357l-18.74 18.741c-0.125 0.125-0.294 0.195-0.471 0.195zM5.384 20.93l5.62 5.621 18.269-18.27c0.378-0.378 0.586-0.88 0.586-1.414s-0.208-1.036-0.586-1.414l-3.027-3.027c-0.63-0.63-1.727-0.63-2.357 0l-18.505 18.505z"></path>
<path d="M7.069 15.566c-0.171 0-0.341-0.065-0.471-0.195l-6.229-6.228c-0.125-0.125-0.195-0.294-0.195-0.471s0.070-0.346 0.195-0.471l7.803-7.802c0.125-0.125 0.294-0.195 0.471-0.195v0c0.177 0 0.346 0.070 0.471 0.195l6.228 6.229c0.26 0.26 0.26 0.682 0 0.943s-0.682 0.26-0.943 0l-5.757-5.757-6.86 6.859 5.757 5.757c0.26 0.26 0.26 0.682 0 0.943-0.13 0.13-0.301 0.195-0.471 0.195z"></path>
<path d="M23.481 31.977c-0.171 0-0.341-0.065-0.471-0.195l-6.43-6.428c-0.26-0.26-0.26-0.682 0-0.943s0.682-0.26 0.943 0l5.958 5.957 6.858-6.858-5.957-5.958c-0.26-0.26-0.26-0.682 0-0.943s0.682-0.26 0.943 0l6.428 6.43c0.26 0.26 0.26 0.682 0 0.943l-7.801 7.801c-0.13 0.13-0.301 0.195-0.471 0.195z"></path>
<path d="M8.191 25.348c-0.171 0-0.341-0.065-0.471-0.195-0.26-0.26-0.26-0.682 0-0.943l15.47-15.47c0.26-0.26 0.682-0.26 0.943 0s0.26 0.682 0 0.943l-15.47 15.47c-0.13 0.13-0.301 0.195-0.471 0.195z"></path>
</svg>
