<svg version="1.1" xmlns="http://www.w3.org/2000/svg" width="32" height="32" viewBox="0 0 32 32">
<title>pencil_ruler_drawing</title>
<path d="M22.005 5.333h-5.339c-0.369 0-0.667-0.298-0.667-0.667s0.298-0.667 0.667-0.667h5.339c0.369 0 0.667 0.298 0.667 0.667s-0.298 0.667-0.667 0.667z"></path>
<path d="M19.336 9.333h-2.669c-0.369 0-0.667-0.298-0.667-0.667s0.298-0.667 0.667-0.667h2.669c0.369 0 0.667 0.298 0.667 0.667s-0.298 0.667-0.667 0.667z"></path>
<path d="M22.005 13.333h-5.339c-0.369 0-0.667-0.298-0.667-0.667s0.298-0.667 0.667-0.667h5.339c0.369 0 0.667 0.298 0.667 0.667s-0.298 0.667-0.667 0.667z"></path>
<path d="M19.336 17.333h-2.669c-0.369 0-0.667-0.298-0.667-0.667s0.298-0.667 0.667-0.667h2.669c0.369 0 0.667 0.298 0.667 0.667s-0.298 0.667-0.667 0.667z"></path>
<path d="M22.005 21.333h-5.339c-0.369 0-0.667-0.298-0.667-0.667s0.298-0.667 0.667-0.667h5.339c0.369 0 0.667 0.298 0.667 0.667s-0.298 0.667-0.667 0.667z"></path>
<path d="M19.336 25.333h-2.669c-0.369 0-0.667-0.298-0.667-0.667s0.298-0.667 0.667-0.667h2.669c0.369 0 0.667 0.298 0.667 0.667s-0.298 0.667-0.667 0.667z"></path>
<path d="M22.005 29.333h-5.339c-0.369 0-0.667-0.298-0.667-0.667s0.298-0.667 0.667-0.667h5.339c0.369 0 0.667 0.298 0.667 0.667s-0.298 0.667-0.667 0.667z"></path>
<path d="M8.040 31.996c-0.001 0-0.001 0-0.002 0-0.59-0.001-1.112-0.411-1.298-1.019-2.77-7.948-2.77-8.037-2.77-8.182 0-0.369 0.298-0.667 0.667-0.667 0.322 0 0.591 0.228 0.653 0.533 0.127 0.439 1.686 4.944 2.717 7.902 1.096-2.961 2.682-7.464 2.812-7.905 0.063-0.303 0.331-0.53 0.652-0.53 0.369 0 0.667 0.298 0.667 0.667 0 0.152 0 0.236-2.824 8.21-0.183 0.593-0.686 0.992-1.273 0.992z"></path>
<path d="M9.338 29.333h-2.667c-0.369 0-0.667-0.298-0.667-0.667s0.298-0.667 0.667-0.667h2.667c0.369 0 0.667 0.298 0.667 0.667s-0.298 0.667-0.667 0.667z"></path>
<path d="M11.471 23.54h-6.834c-0.369 0-0.667-0.298-0.667-0.667v-19.539c0-1.838 1.495-3.333 3.333-3.333h1.501c1.838 0 3.333 1.495 3.333 3.333v19.539c0 0.368-0.298 0.667-0.667 0.667zM5.304 22.207h5.501v-18.872c0-1.103-0.897-2-2-2h-1.501c-1.103 0-2 0.897-2 2v18.872z"></path>
<path d="M27.333 32h-10.667c-0.369 0-0.667-0.298-0.667-0.667v-30.667c0-0.369 0.298-0.667 0.667-0.667h10.667c0.369 0 0.667 0.298 0.667 0.667v30.667c0 0.369-0.298 0.667-0.667 0.667zM17.333 30.667h9.333v-29.333h-9.333v29.333z"></path>
<path d="M8.668 23.54c-0.369 0-0.667-0.298-0.667-0.667v-16.887c0-0.369 0.298-0.667 0.667-0.667s0.667 0.298 0.667 0.667v16.887c0 0.369-0.298 0.667-0.667 0.667z"></path>
</svg>
