<!-- Generated by IcoMoon.io -->
<svg version="1.1" xmlns="http://www.w3.org/2000/svg" width="32" height="32" viewBox="0 0 32 32">
<title>pencil</title>
<path d="M15.373 31.743v0c-0.479 0-0.921-0.267-1.125-0.678-2.209-4.849-2.209-4.865-2.209-5.061v-19.416c0-0.783 0.599-1.251 1.178-1.251h4.267c0.587 0 1.221 0.478 1.221 1.25v19.417c0 0.197 0 0.214-2.216 5.043-0.219 0.438-0.643 0.697-1.117 0.697zM13.372 25.878c0.22 0.518 1.276 2.849 1.993 4.425 0.713-1.557 1.783-3.904 2.007-4.426v-19.206h-3.999l-0.001 19.207z"></path>
<path d="M15.372 26.671c-0.369 0-0.667-0.298-0.667-0.667v-17.228c0-0.369 0.298-0.667 0.667-0.667s0.667 0.298 0.667 0.667v17.228c0 0.369-0.298 0.667-0.667 0.667z"></path>
<path d="M18.039 26.671h-5.333c-0.369 0-0.667-0.298-0.667-0.667s0.298-0.667 0.667-0.667h5.333c0.369 0 0.667 0.298 0.667 0.667s-0.298 0.667-0.667 0.667z"></path>
<path d="M16.844 29.337h-2.951c-0.369 0-0.667-0.298-0.667-0.667s0.298-0.667 0.667-0.667h2.951c0.369 0 0.667 0.298 0.667 0.667s-0.298 0.667-0.667 0.667z"></path>
<path d="M18.039 4.047c-0.369 0-0.667-0.298-0.667-0.667v-1.529c0-0.243-0.246-0.514-0.598-0.514h-2.849c-0.342 0-0.553 0.267-0.553 0.514v1.529c0 0.369-0.298 0.667-0.667 0.667s-0.667-0.298-0.667-0.667v-1.529c0-1.018 0.846-1.847 1.887-1.847h2.849c1.047 0 1.931 0.846 1.931 1.847v1.529c0 0.368-0.298 0.667-0.667 0.667z"></path>
</svg>
