<svg version="1.1" xmlns="http://www.w3.org/2000/svg" width="32" height="32" viewBox="0 0 32 32">
<title>pencil_ruler</title>
<path d="M4.6 30.6h-3v-1.3h3.1c0.1-0.3 0.2-0.6 0.4-0.9 0.1-0.1 0.1-0.3 0.2-0.4h-3.7v-2.7h2c0.4 0 0.7-0.3 0.7-0.7 0-0.3-0.3-0.6-0.7-0.6h-2v-2.7h4.7c0.4 0 0.7-0.3 0.7-0.6 0-0.4-0.3-0.7-0.7-0.7h-4.7v-2.7h2c0.4 0 0.7-0.3 0.7-0.7 0-0.3-0.3-0.6-0.7-0.6h-2v-2.7h4.7c0.4 0 0.7-0.3 0.7-0.6 0-0.4-0.3-0.7-0.7-0.7h-4.7v-2.7h2c0.4 0 0.7-0.3 0.7-0.6 0-0.4-0.3-0.7-0.7-0.7h-2v-2.7h4.7c0.4 0 0.7-0.3 0.7-0.6 0-0.4-0.3-0.7-0.7-0.7h-4.7v-2.6h9.4v17.1l1.3-1.3v-16.5c0-0.4-0.3-0.7-0.7-0.7h-10.6c-0.4 0-0.7 0.3-0.7 0.7v30.6c0 0.4 0.3 0.7 0.7 0.7h4c-0.2-0.5-0.3-0.9-0.4-1.4z"></path>
<path d="M30.7 9.1l-1.1-1.1c-1.3-1.3-3.4-1.3-4.7 0l-13.8 13.9c-0.1 0.1-0.1 0.2-0.2 0.3-0.3 0.6-1.1 2.3-3.6 7.4-0.3 0.6-0.2 1.2 0.2 1.6 0 0 0 0 0 0v0c0.4 0.4 1.1 0.5 1.6 0.2 5.2-2.5 6.9-3.3 7.4-3.6 0.1 0 0.2-0.1 0.3-0.2v0c0 0 0 0 0 0s0 0 0 0l13.8-13.8c1.4-1.3 1.4-3.4 0.1-4.7zM8.5 30.2c0.2-0.4 0.4-0.8 0.6-1.2l0.6 0.6c-0.4 0.2-0.8 0.4-1.2 0.6zM11 29l-1.3-1.3c0.8-1.6 1.6-3.3 2.1-4.2l3.5 3.5c-1 0.5-2.7 1.2-4.3 2zM29.7 12.9l-13.3 13.3-1-1 11.5-11.5c0.3-0.3 0.3-0.7 0-0.9-0.3-0.3-0.7-0.3-0.9 0l-11.6 11.5-1.9-1.9 13.3-13.4c0.8-0.8 2-0.8 2.8 0l1.1 1.1c0.8 0.7 0.8 2 0 2.8z"></path>
</svg>
