<svg version="1.1" xmlns="http://www.w3.org/2000/svg" width="32" height="32" viewBox="0 0 32 32">
<title>phone_telephone_contact</title>
<path d="M25.957 10.627h-9.273c-0.369 0-0.667-0.298-0.667-0.667s0.298-0.667 0.667-0.667h9.273c0.369 0 0.667 0.298 0.667 0.667s-0.298 0.667-0.667 0.667z"></path>
<path d="M29.25 25.322h-13.939c-0.369 0-0.667-0.298-0.667-0.667s0.298-0.667 0.667-0.667h13.939c0.066 0 0.268 0 0.314-0.023 0.040-0.029 0.257-0.262 0.457-1.922 0.447-3.701 0.447-9.718 0-13.415-0.242-2.001-0.441-2.001-0.771-2.001h-13.939c-0.369 0-0.667-0.298-0.667-0.667s0.298-0.667 0.667-0.667h13.939c1.473 0 1.824 0.936 2.094 3.174 0.458 3.785 0.458 9.947 0 13.734-0.266 2.201-0.615 3.12-2.094 3.12z"></path>
<path d="M3.295 25.322h-0.569c-1.479 0-1.829-0.919-2.094-3.12-0.457-3.786-0.457-9.947 0-13.734 0.27-2.238 0.621-3.174 2.094-3.174h0.569c0.369 0 0.667 0.298 0.667 0.667s-0.298 0.667-0.667 0.667h-0.569c-0.33 0-0.529 0-0.77 2.001-0.447 3.699-0.447 9.716 0 13.415 0.2 1.66 0.416 1.893 0.457 1.923 0.045 0.022 0.247 0.022 0.313 0.022h0.569c0.369 0 0.667 0.298 0.667 0.667s-0.298 0.667-0.667 0.667z"></path>
<path d="M11.123 28.018h-3.641c-1.206 0-2.187-0.992-2.187-2.212v-20.9c0-1.22 0.981-2.212 2.187-2.212h3.641c1.206 0 2.187 0.992 2.187 2.212v20.9c0 1.22-0.981 2.212-2.187 2.212zM7.482 4.027c-0.471 0-0.854 0.395-0.854 0.879v20.9c0 0.484 0.383 0.879 0.854 0.879h3.641c0.471 0 0.854-0.395 0.854-0.879v-20.9c0-0.484-0.383-0.879-0.854-0.879h-3.641z"></path>
<path d="M17.964 14.628h-1.28c-0.369 0-0.667-0.298-0.667-0.667s0.298-0.667 0.667-0.667h1.28c0.369 0 0.667 0.298 0.667 0.667s-0.298 0.667-0.667 0.667z"></path>
<path d="M17.964 17.294h-1.28c-0.369 0-0.667-0.298-0.667-0.667s0.298-0.667 0.667-0.667h1.28c0.369 0 0.667 0.298 0.667 0.667s-0.298 0.667-0.667 0.667z"></path>
<path d="M17.964 19.961h-1.28c-0.369 0-0.667-0.298-0.667-0.667s0.298-0.667 0.667-0.667h1.28c0.369 0 0.667 0.298 0.667 0.667s-0.298 0.667-0.667 0.667z"></path>
<path d="M21.965 14.628h-1.281c-0.369 0-0.667-0.298-0.667-0.667s0.298-0.667 0.667-0.667h1.281c0.369 0 0.667 0.298 0.667 0.667s-0.298 0.667-0.667 0.667z"></path>
<path d="M21.965 17.294h-1.281c-0.369 0-0.667-0.298-0.667-0.667s0.298-0.667 0.667-0.667h1.281c0.369 0 0.667 0.298 0.667 0.667s-0.298 0.667-0.667 0.667z"></path>
<path d="M21.965 19.961h-1.281c-0.369 0-0.667-0.298-0.667-0.667s0.298-0.667 0.667-0.667h1.281c0.369 0 0.667 0.298 0.667 0.667s-0.298 0.667-0.667 0.667z"></path>
<path d="M25.965 14.628h-1.281c-0.369 0-0.667-0.298-0.667-0.667s0.298-0.667 0.667-0.667h1.281c0.369 0 0.667 0.298 0.667 0.667s-0.298 0.667-0.667 0.667z"></path>
<path d="M25.965 17.294h-1.281c-0.369 0-0.667-0.298-0.667-0.667s0.298-0.667 0.667-0.667h1.281c0.369 0 0.667 0.298 0.667 0.667s-0.298 0.667-0.667 0.667z"></path>
<path d="M25.965 19.961h-1.281c-0.369 0-0.667-0.298-0.667-0.667s0.298-0.667 0.667-0.667h1.281c0.369 0 0.667 0.298 0.667 0.667s-0.298 0.667-0.667 0.667z"></path>
</svg>
