<svg version="1.1" xmlns="http://www.w3.org/2000/svg" width="32" height="32" viewBox="0 0 32 32">
<title>phone_contact</title>
<path d="M28.587 29.331h-25.198c-0.369 0-0.667-0.298-0.667-0.667v-5.667c0-0.164 0.060-0.322 0.169-0.444l9.221-10.341c0.126-0.142 0.307-0.223 0.497-0.223h6.725c0.19 0 0.37 0.081 0.497 0.222l9.253 10.342c0.109 0.121 0.169 0.28 0.169 0.444v5.667c-0 0.369-0.298 0.667-0.667 0.667zM4.056 27.997h23.865v-4.745l-8.884-9.93h-6.128l-8.853 9.929v4.746z"></path>
<path d="M6.038 31.883c-0.369 0-0.667-0.298-0.667-0.667v-2.51c0-0.369 0.298-0.667 0.667-0.667s0.667 0.298 0.667 0.667v2.51c0 0.369-0.298 0.667-0.667 0.667z"></path>
<path d="M25.937 31.883c-0.369 0-0.667-0.298-0.667-0.667v-2.51c0-0.369 0.298-0.667 0.667-0.667s0.667 0.298 0.667 0.667v2.51c0 0.369-0.298 0.667-0.667 0.667z"></path>
<path d="M12.61 13.322c-0.369 0-0.667-0.298-0.667-0.667v-1.374c0-0.369 0.298-0.667 0.667-0.667s0.667 0.298 0.667 0.667v1.374c0 0.369-0.298 0.667-0.667 0.667z"></path>
<path d="M19.354 13.322c-0.369 0-0.667-0.298-0.667-0.667v-1.374c0-0.369 0.298-0.667 0.667-0.667s0.667 0.298 0.667 0.667v1.374c0 0.369-0.298 0.667-0.667 0.667z"></path>
<path d="M15.988 26.521c-2.82 0-5.114-2.294-5.114-5.113 0-2.82 2.294-5.115 5.114-5.115s5.114 2.294 5.114 5.115c0 2.819-2.294 5.113-5.114 5.113zM15.988 17.626c-2.085 0-3.781 1.697-3.781 3.781s1.696 3.78 3.781 3.78c2.084 0 3.781-1.695 3.781-3.78s-1.697-3.781-3.781-3.781z"></path>
<path d="M15.988 23.913c-1.381 0-2.505-1.124-2.505-2.505s1.124-2.505 2.505-2.505c1.382 0 2.506 1.124 2.506 2.505s-1.124 2.505-2.506 2.505zM15.988 20.236c-0.647 0-1.172 0.526-1.172 1.172s0.525 1.172 1.172 1.172 1.173-0.526 1.173-1.172-0.526-1.172-1.173-1.172z"></path>
<path d="M21.361 10.57c-0.66 0-1.199-0.51-1.225-1.16 0-0.014-0.026-1.589-0.040-2.080-0.263-0.253-1.641-0.694-4.095-0.694-2.445 0-3.831 0.436-4.119 0.703-0.014 0.501-0.040 2.056-0.040 2.056-0.025 0.665-0.563 1.176-1.225 1.176l-8.001-0.039c-0.661-0.006-1.195-0.516-1.219-1.162-0.001-0.030-0.115-3.155 0.332-4.462 1.117-3.264 5.581-4.85 13.648-4.85l0.618 0.003 0.604-0.003c8.068 0 12.533 1.586 13.647 4.85 0.449 1.307 0.336 4.432 0.335 4.464-0.023 0.645-0.559 1.155-1.217 1.161l-7.996 0.038c0-0-0.005-0-0.007-0zM21.361 9.236v0.667l0.001-0.667c-0.001 0-0.001 0-0.001 0zM2.725 9.199l7.786 0.037c0.036-2.173 0.036-2.176 0.079-2.304 0.502-1.471 3.951-1.629 5.41-1.629 1.453 0 4.884 0.158 5.385 1.625 0.044 0.126 0.046 0.129 0.081 2.309l7.786-0.037c0.038-1.214-0.018-3.135-0.266-3.86-0.897-2.62-5.065-3.948-12.388-3.948l-0.604 0.003-0.618-0.003c-7.322 0-11.49 1.328-12.386 3.947-0.249 0.726-0.305 2.648-0.266 3.861z"></path>
</svg>
