<svg version="1.1" xmlns="http://www.w3.org/2000/svg" width="32" height="32" viewBox="0 0 32 32">
<title>phone_call_number_dialer</title>
<path d="M10 6.5c0 1.9-1.6 3.5-3.5 3.5s-3.5-1.6-3.5-3.5 1.6-3.5 3.5-3.5 3.5 1.6 3.5 3.5zM6.5 12.5c-1.9 0-3.5 1.6-3.5 3.5s1.6 3.5 3.5 3.5c1.9 0 3.5-1.6 3.5-3.5s-1.6-3.5-3.5-3.5zM6.5 22c-1.9 0-3.5 1.6-3.5 3.5s1.6 3.5 3.5 3.5c1.9 0 3.5-1.6 3.5-3.5s-1.6-3.5-3.5-3.5zM25.5 12.5c-1.9 0-3.5 1.6-3.5 3.5s1.6 3.5 3.5 3.5c1.9 0 3.5-1.6 3.5-3.5s-1.6-3.5-3.5-3.5zM25.5 10c1.9 0 3.5-1.6 3.5-3.5s-1.6-3.5-3.5-3.5-3.5 1.6-3.5 3.5 1.6 3.5 3.5 3.5zM16 3c-1.9 0-3.5 1.6-3.5 3.5s1.6 3.5 3.5 3.5c1.9 0 3.5-1.6 3.5-3.5s-1.6-3.5-3.5-3.5zM25.5 22c-1.9 0-3.5 1.6-3.5 3.5s1.6 3.5 3.5 3.5c1.9 0 3.5-1.6 3.5-3.5s-1.6-3.5-3.5-3.5zM16 12.5c-1.9 0-3.5 1.6-3.5 3.5s1.6 3.5 3.5 3.5c1.9 0 3.5-1.6 3.5-3.5s-1.6-3.5-3.5-3.5zM16 22c-1.9 0-3.5 1.6-3.5 3.5s1.6 3.5 3.5 3.5c1.9 0 3.5-1.6 3.5-3.5s-1.6-3.5-3.5-3.5z"></path>
</svg>
