<svg version="1.1" xmlns="http://www.w3.org/2000/svg" width="32" height="32" viewBox="0 0 32 32">
<title>phone_hold_call</title>
<path d="M22.888 30.292v0c-3.339 0-7.393-2.549-12.76-8.023-5.328-5.434-7.78-9.518-7.715-12.854 0.054-2.786 1.844-4.477 3.423-5.967 0.222-0.21 0.441-0.416 0.652-0.623 0.508-0.489 1.367-0.475 1.847 0.018l6.381 6.508c0.242 0.243 0.376 0.572 0.373 0.921-0.002 0.35-0.141 0.678-0.39 0.924l-1.951 1.911c0 0.076 0.11 0.757 1.119 2.132 1.685 2.298 4.382 4.555 5.446 4.553 0.109-0.040 0.753-0.656 1.954-1.84 0.579-0.54 1.378-0.482 1.855 0.003l6.405 6.47c0.493 0.501 0.504 1.296 0.025 1.809l-0.336 0.365c-1.596 1.732-3.405 3.694-6.328 3.694zM7.381 3.775c-0.176 0.213-0.402 0.426-0.63 0.642-1.456 1.375-2.962 2.797-3.005 5.023-0.056 2.914 2.342 6.805 7.334 11.896 5.029 5.129 8.893 7.622 11.808 7.622v0c2.34 0 3.801-1.585 5.348-3.264l0.341-0.37-6.404-6.434c-1.971 1.982-2.043 2.018-2.163 2.078-0.204 0.103-0.44 0.156-0.698 0.156-2.247 0.001-6.549-4.467-7.583-6.871-0.395-0.917-0.372-1.618 0.068-2.082l1.967-1.928-6.384-6.469z"></path>
<path d="M30.598 9.398h-11.935c-0.369 0-0.667-0.298-0.667-0.667s0.298-0.667 0.667-0.667h11.935c0.369 0 0.667 0.298 0.667 0.667s-0.298 0.667-0.667 0.667z"></path>
<path d="M24.63 15.366c-0.369 0-0.667-0.298-0.667-0.667v-11.935c0-0.369 0.298-0.667 0.667-0.667s0.667 0.298 0.667 0.667v11.935c0 0.369-0.298 0.667-0.667 0.667z"></path>
</svg>
