<svg version="1.1" xmlns="http://www.w3.org/2000/svg" width="32" height="32" viewBox="0 0 32 32">
<title>phone_call_ringing</title>
<path d="M22.268 30.418c0 0 0 0-0.001 0-3.337 0-7.391-2.548-12.758-8.022-5.328-5.434-7.78-9.519-7.715-12.855 0.053-2.786 1.844-4.476 3.423-5.967 0.222-0.21 0.441-0.416 0.651-0.622 0.249-0.242 0.573-0.374 0.915-0.374 0.356 0.003 0.692 0.146 0.932 0.393l6.381 6.507c0.242 0.243 0.376 0.572 0.373 0.921-0.002 0.35-0.141 0.678-0.39 0.924l-1.951 1.912c0 0.076 0.11 0.757 1.119 2.133 1.686 2.298 4.382 4.553 5.446 4.552 0.175-0.098 1.978-1.863 1.978-1.863 0.531-0.491 1.355-0.458 1.832 0.026l6.405 6.47c0.492 0.504 0.503 1.297 0.025 1.809l-0.336 0.365c-1.595 1.732-3.405 3.694-6.328 3.694zM6.761 3.901c-0.176 0.214-0.402 0.426-0.63 0.642-1.456 1.375-2.962 2.796-3.005 5.023-0.056 2.914 2.342 6.805 7.334 11.897 5.030 5.129 8.891 7.621 11.807 7.621 2.34 0.001 3.802-1.586 5.349-3.264l0.341-0.37-6.402-6.432c-0.010 0.047-1.789 1.788-1.909 1.898-0.049 0.044-0.204 0.154-0.263 0.182-0.197 0.099-0.432 0.152-0.69 0.152-2.249 0.001-6.55-4.467-7.584-6.872-0.395-0.917-0.372-1.617 0.068-2.081l1.967-1.929-6.383-6.469z"></path>
<path d="M27.572 14.456c-0.007 0-0.014 0-0.022-0.001-0.367-0.012-0.656-0.32-0.645-0.688 0.077-2.346-0.789-4.547-2.437-6.196-1.65-1.65-3.857-2.498-6.197-2.439-0.008 0.001-0.016 0.001-0.022 0.001-0.358 0-0.655-0.285-0.667-0.645-0.012-0.369 0.277-0.676 0.645-0.688 2.742-0.092 5.271 0.915 7.184 2.828 1.913 1.912 2.917 4.463 2.828 7.183-0.012 0.36-0.309 0.645-0.667 0.645z"></path>
<path d="M32.091 14.456c-0.005 0-0.009 0-0.014 0-0.369-0.008-0.66-0.313-0.652-0.681 0.078-3.559-1.258-6.897-3.762-9.4-2.503-2.503-5.809-3.864-9.4-3.761-0.367 0.025-0.673-0.283-0.681-0.652-0.008-0.368 0.284-0.673 0.652-0.681 3.926-0.070 7.608 1.389 10.371 4.152s4.238 6.447 4.152 10.372c-0.008 0.363-0.305 0.652-0.667 0.652z"></path>
<path d="M23.053 14.456c-0.016 0-0.030-0.001-0.046-0.001-0.367-0.024-0.645-0.342-0.621-0.709 0.073-1.111-0.333-2.197-1.116-2.979-0.78-0.781-1.866-1.192-2.978-1.115-0.4 0.019-0.685-0.255-0.71-0.622-0.023-0.367 0.254-0.685 0.621-0.709 1.486-0.095 2.954 0.449 4.010 1.503 1.053 1.053 1.6 2.515 1.503 4.009-0.023 0.353-0.316 0.623-0.664 0.623z"></path>
</svg>
