<svg version="1.1" xmlns="http://www.w3.org/2000/svg" width="32" height="32" viewBox="0 0 32 32">
<title>phone_mobile_contact</title>
<path d="M20.111 17.331h-8.201c-0.587 0-1.243-0.535-1.243-1.25v-6.928c0-0.648 0.546-1.156 1.243-1.156h8.202c0.754 0 1.221 0.6 1.221 1.155v6.928c0 0.677-0.56 1.25-1.223 1.25zM12 9.331v6.75l8-0.082v-6.668h-8z"></path>
<path d="M23.544 31.913h-14.988c-1.035 0-1.877-0.835-1.877-1.862v-27.863c0-1.174 0.964-2.129 2.148-2.129h1.355c1.061 0 1.975 0.785 2.126 1.825l0.408 2.113h10.829c1.035 0 1.876 0.835 1.876 1.863v24.191c0 1.027-0.841 1.862-1.876 1.862zM8.827 1.392c-0.449 0-0.814 0.357-0.814 0.796v27.863c0 0.292 0.244 0.529 0.544 0.529h14.988c0.299 0 0.543-0.237 0.543-0.529v-24.191c0-0.292-0.243-0.529-0.543-0.529h-11.38c-0.32 0-0.594-0.227-0.655-0.541l-0.516-2.683c-0.061-0.419-0.408-0.714-0.811-0.714h-1.355z"></path>
<path d="M12.614 21.331h-1.281c-0.369 0-0.667-0.298-0.667-0.667s0.298-0.667 0.667-0.667h1.281c0.369 0 0.667 0.298 0.667 0.667s-0.298 0.667-0.667 0.667z"></path>
<path d="M12.614 23.997h-1.281c-0.369 0-0.667-0.298-0.667-0.667s0.298-0.667 0.667-0.667h1.281c0.369 0 0.667 0.298 0.667 0.667s-0.298 0.667-0.667 0.667z"></path>
<path d="M12.614 26.665h-1.281c-0.369 0-0.667-0.298-0.667-0.667s0.298-0.667 0.667-0.667h1.281c0.369 0 0.667 0.298 0.667 0.667s-0.298 0.667-0.667 0.667z"></path>
<path d="M16.615 21.331h-1.281c-0.369 0-0.667-0.298-0.667-0.667s0.298-0.667 0.667-0.667h1.281c0.369 0 0.667 0.298 0.667 0.667s-0.298 0.667-0.667 0.667z"></path>
<path d="M16.615 23.997h-1.281c-0.369 0-0.667-0.298-0.667-0.667s0.298-0.667 0.667-0.667h1.281c0.369 0 0.667 0.298 0.667 0.667s-0.298 0.667-0.667 0.667z"></path>
<path d="M16.615 26.665h-1.281c-0.369 0-0.667-0.298-0.667-0.667s0.298-0.667 0.667-0.667h1.281c0.369 0 0.667 0.298 0.667 0.667s-0.298 0.667-0.667 0.667z"></path>
<path d="M20.615 21.331h-1.28c-0.369 0-0.667-0.298-0.667-0.667s0.298-0.667 0.667-0.667h1.28c0.369 0 0.667 0.298 0.667 0.667s-0.298 0.667-0.667 0.667z"></path>
<path d="M20.615 23.997h-1.28c-0.369 0-0.667-0.298-0.667-0.667s0.298-0.667 0.667-0.667h1.28c0.369 0 0.667 0.298 0.667 0.667s-0.298 0.667-0.667 0.667z"></path>
<path d="M20.615 26.665h-1.28c-0.369 0-0.667-0.298-0.667-0.667s0.298-0.667 0.667-0.667h1.28c0.369 0 0.667 0.298 0.667 0.667s-0.298 0.667-0.667 0.667z"></path>
</svg>
