<svg version="1.1" xmlns="http://www.w3.org/2000/svg" width="32" height="32" viewBox="0 0 32 32">
<title>phone_call_contact</title>
<path d="M23.408 25.988c-0.001 0-0.001 0-0.001 0-4.060 0-8.419-3.914-11.763-7.325-4.925-5.023-7.189-8.802-7.127-11.894 0.052-2.586 1.704-4.139 3.161-5.509 0.209-0.197 0.415-0.391 0.613-0.585 0.486-0.471 1.313-0.456 1.775 0.018l5.88 5.995c0.232 0.234 0.36 0.549 0.359 0.885-0.001 0.337-0.135 0.652-0.374 0.888l-1.798 1.762c0.016 0.070 0.171 0.803 1.301 2.245 1.716 2.189 3.902 3.825 4.71 3.825 0.099-0.052 0.849-0.786 1.341-1.267l0.299-0.293c0.633-0.618 1.389-0.645 1.906-0.119l5.902 5.961c0.473 0.484 0.483 1.246 0.025 1.738-0.066 0.069-1.814 1.776-1.893 1.849l-0.107 0.099c-1.221 1.145-2.638 1.727-4.208 1.727zM9.112 1.625c-0.093 0.202-0.305 0.402-0.521 0.605-1.327 1.249-2.701 2.54-2.742 4.565-0.054 2.673 2.153 6.249 6.746 10.935 3.161 3.224 7.247 6.925 10.811 6.925h0.001c1.237 0 2.316-0.447 3.298-1.367l0.112-0.105c0.109-0.102 1.737-1.691 1.832-1.788l-5.852-5.786c-0.018 0.019-0.048 0.044-0.083 0.078l-0.299 0.293c-0.504 0.492-1.269 1.242-1.362 1.325-0.043 0.040-0.184 0.141-0.236 0.168-0.204 0.103-0.43 0.154-0.676 0.154-2.089 0-6.077-4.137-7.035-6.363-0.372-0.867-0.348-1.531 0.073-1.975l1.814-1.778-5.882-5.885z"></path>
<path d="M22.585 31.668c-0.051 0-0.102-0.001-0.152-0.003-1.693-0.046-3.413-0.865-4.602-2.191l-9.777-10.032c-0.126-0.091-1.791-1.332-3.411 0.191-0.605 0.6-0.896 1.299-0.897 2.043-0.001 0.745 0.288 1.445 0.814 1.971l3.441 3.441c0.26 0.26 0.26 0.682 0 0.943s-0.682 0.26-0.943 0l-3.441-3.441c-0.779-0.779-1.206-1.814-1.204-2.915s0.432-2.134 1.212-2.91c0.003-0.003 0.098-0.095 0.1-0.099 2.009-1.884 4.297-0.96 5.226-0.207l9.855 10.105c0.969 1.079 2.331 1.733 3.663 1.768 0.729 0.023 1.785-0.145 2.681-1.040 2.658-2.659 1.526-5.325 1.514-5.352-0.15-0.337 0.004-0.73 0.34-0.879 0.333-0.151 0.731 0.003 0.879 0.34 0.064 0.143 1.507 3.535-1.79 6.833-0.939 0.939-2.149 1.434-3.507 1.434z"></path>
</svg>
