<!-- Generated by IcoMoon.io -->
<svg version="1.1" xmlns="http://www.w3.org/2000/svg" width="32" height="32" viewBox="0 0 32 32">
<title>phone_call_contact</title>
<path d="M28.9 22.7v0c-1.1-1.1-3.7-2.7-4.8-3.2-1.7-0.9-2.3-1.1-3.9 0.1l-0.3 0.2c-0.6 0.5-0.8 0.6-1.2 0.5-0.7-0.2-2.6-1.2-4.2-2.8-1.7-1.7-2.8-3.7-2.9-4.3-0.1-0.3 0-0.5 0.5-1.1l0.2-0.3c1.1-1.5 0.9-2.2 0.2-3.8-0.5-1.3-2.1-3.8-3.2-4.9-1-1-1.6-1.4-2.7-0.9l-0.2 0.1c-0.7 0.3-1.2 0.6-1.8 1v0c-1 0.7-1.7 1.3-2.3 2.4-0.4 0.9-0.8 3.1 1.5 7.3 2 3.7 3.5 5.6 6.5 8.6 3.1 3.1 5.5 4.7 8.6 6.5 2.6 1.4 4.3 1.9 5.5 1.9 0.8 0 1.4-0.2 1.8-0.4 1.1-0.5 1.8-1.3 2.5-2.3 0.3-0.5 0.7-1.1 1-1.8l0.1-0.2c0.5-1.1 0.1-1.6-0.9-2.6zM27.8 24.8c-0.2 0.5-0.5 1-0.8 1.4-0.6 0.9-1 1.3-1.6 1.6-0.5 0.2-1.6 0.8-5.5-1.4-3-1.7-5.3-3.2-8.2-6.1s-4.2-4.6-6.2-8.2c-2-3.8-1.5-5.3-1.3-5.5 0.3-0.6 0.7-1 1.6-1.6v0c0.5-0.3 0.9-0.5 1.4-0.8l0.2-0.1c0.1 0.1 0.2 0.2 0.5 0.5 0.9 0.9 2.4 3.2 2.9 4.3s0.5 1.1 0 1.8l-0.2 0.3c-0.5 0.7-1.1 1.5-0.9 2.8 0.2 1.1 1.5 3.4 3.4 5.3s4.1 3.1 5.2 3.4c1.3 0.3 2.1-0.3 2.8-0.9l0.3-0.2c0.1-0.1 0.6-0.4 0.7-0.5 0.1 0 0.6 0.2 1.1 0.5 1.2 0.6 3.5 2 4.3 2.9v0c0.2 0.2 0.4 0.4 0.5 0.5h-0.2z"></path>
</svg>
