<svg version="1.1" xmlns="http://www.w3.org/2000/svg" width="32" height="32" viewBox="0 0 32 32">
<title>photo_camera_tripod_stand</title>
<path d="M15.322 12.305c-1.967 0-3.568-1.601-3.568-3.569s1.601-3.569 3.568-3.569c1.968 0 3.57 1.601 3.57 3.569s-1.601 3.569-3.57 3.569zM15.322 6.501c-1.232 0-2.235 1.003-2.235 2.236s1.003 2.236 2.235 2.236c1.234 0 2.236-1.003 2.236-2.236s-1.003-2.236-2.236-2.236z"></path>
<path d="M23.142 31.888c-0.245 0-0.482-0.137-0.598-0.372l-7.154-14.513c-0.163-0.329-0.027-0.729 0.303-0.892 0.33-0.164 0.73-0.027 0.893 0.303l7.154 14.513c0.163 0.329 0.027 0.729-0.303 0.892-0.094 0.047-0.195 0.069-0.294 0.069z"></path>
<path d="M8.821 31.887c-0.099 0-0.2-0.022-0.294-0.069-0.33-0.163-0.466-0.563-0.303-0.893l7.167-14.512c0.162-0.329 0.564-0.465 0.893-0.302s0.465 0.563 0.302 0.893l-7.167 14.512c-0.116 0.235-0.352 0.371-0.598 0.371z"></path>
<path d="M15.988 29.661c-0.369 0-0.667-0.298-0.667-0.667v-12.286c0-0.369 0.298-0.667 0.667-0.667s0.667 0.298 0.667 0.667v12.286c0 0.369-0.298 0.667-0.667 0.667z"></path>
<path d="M21.992 6.671h-1.333c-0.369 0-0.667-0.298-0.667-0.667s0.298-0.667 0.667-0.667h1.333c0.369 0 0.667 0.298 0.667 0.667s-0.298 0.667-0.667 0.667z"></path>
<path d="M23.069 14.671c-0.008 0-0.018-0.001-0.039-0.001h-14.047c-1.391 0-2.326-0.93-2.326-2.313v-7.265c0-1.709 1.413-2.391 2.363-2.432l3.271-0.001v-0.347c0-1.258 1.023-2.281 2.282-2.281h0.995c1.258 0 2.282 1.023 2.282 2.281v0.348h5.167c1.564 0 2.228 1.316 2.294 2.202l0.014 7.51c0 1.522-1.315 2.201-2.199 2.286-0.039 0.011-0.042 0.013-0.057 0.013zM9.048 3.992c-0.016 0.001-1.058 0.059-1.058 1.099v7.266c0 0.65 0.334 0.98 0.993 0.98h13.999c0.292-0.049 1.010-0.224 1.010-0.964l-0.013-7.462c-0.001 0-0.083-0.919-0.962-0.919h-5.833c-0.369 0-0.667-0.298-0.667-0.667v-1.014c0-0.523-0.426-0.948-0.949-0.948h-0.995c-0.523 0-0.949 0.425-0.949 0.948v1.014c0 0.369-0.298 0.667-0.667 0.667h-3.909z"></path>
</svg>
