<svg version="1.1" xmlns="http://www.w3.org/2000/svg" width="32" height="32" viewBox="0 0 32 32">
<title>photo_camera_landscape</title>
<path d="M8.016 18.525c-1.214 0-2.203-0.996-2.203-2.22s0.988-2.218 2.203-2.218 2.202 0.995 2.202 2.218c0 1.224-0.988 2.22-2.202 2.22zM8.016 15.42c-0.479 0-0.869 0.397-0.869 0.885s0.39 0.887 0.869 0.887 0.869-0.398 0.869-0.887c0-0.488-0.389-0.885-0.869-0.885z"></path>
<path d="M7.652 25.288c-0.137 0-0.274-0.042-0.393-0.129-0.297-0.217-0.362-0.634-0.145-0.931l4.738-6.478c0.126-0.172 0.324-0.272 0.536-0.273 0.184-0.039 0.411 0.1 0.538 0.269l1.479 1.997 2.125-3.345c0.119-0.186 0.322-0.302 0.543-0.309 0.217-0.009 0.431 0.098 0.56 0.276l3.491 4.837c0.216 0.299 0.148 0.716-0.15 0.931-0.298 0.216-0.716 0.148-0.931-0.15l-2.915-4.040-2.118 3.335c-0.118 0.185-0.319 0.301-0.538 0.309-0.244-0.013-0.429-0.094-0.56-0.269l-1.518-2.049-4.203 5.746c-0.131 0.179-0.333 0.274-0.539 0.274z"></path>
<path d="M26.044 16.754c-1.49 0-2.701-1.212-2.701-2.701s1.211-2.701 2.701-2.701 2.701 1.212 2.701 2.701-1.211 2.701-2.701 2.701zM26.044 12.685c-0.754 0-1.367 0.614-1.367 1.368s0.613 1.368 1.367 1.368 1.367-0.614 1.367-1.368-0.613-1.368-1.367-1.368z"></path>
<path d="M20.652 25.337h-17.333c-0.369 0-0.667-0.298-0.667-0.667v-13.333c0-0.369 0.298-0.667 0.667-0.667h17.333c0.369 0 0.667 0.298 0.667 0.667v13.333c0 0.369-0.298 0.667-0.667 0.667zM3.986 24.004h16v-12h-16v12z"></path>
<path d="M27.259 6.671h-2.671c-0.369 0-0.667-0.298-0.667-0.667s0.298-0.667 0.667-0.667h2.671c0.369 0 0.667 0.298 0.667 0.667s-0.298 0.667-0.667 0.667z"></path>
<path d="M16.519 8.004h-2.576c-0.369 0-0.667-0.298-0.667-0.667s0.298-0.667 0.667-0.667h2.576c0.369 0 0.667 0.298 0.667 0.667s-0.298 0.667-0.667 0.667z"></path>
<path d="M24.589 20.004h-1.206c-0.369 0-0.667-0.298-0.667-0.667s0.298-0.667 0.667-0.667h1.206c0.369 0 0.667 0.298 0.667 0.667s-0.298 0.667-0.667 0.667z"></path>
<path d="M24.589 22.671h-1.206c-0.369 0-0.667-0.298-0.667-0.667s0.298-0.667 0.667-0.667h1.206c0.369 0 0.667 0.298 0.667 0.667s-0.298 0.667-0.667 0.667z"></path>
<path d="M28.589 20.004h-1.206c-0.369 0-0.667-0.298-0.667-0.667s0.298-0.667 0.667-0.667h1.206c0.369 0 0.667 0.298 0.667 0.667s-0.298 0.667-0.667 0.667z"></path>
<path d="M28.589 22.671h-1.206c-0.369 0-0.667-0.298-0.667-0.667s0.298-0.667 0.667-0.667h1.206c0.369 0 0.667 0.298 0.667 0.667s-0.298 0.667-0.667 0.667z"></path>
<path d="M28.234 28.004h-24.44c-2.314 0-3.809-1.486-3.809-3.784v-12.207c0-2.816 2.333-3.94 3.902-4.008l6.765-0.001v-1.616c0-1.314 1.074-2.384 2.393-2.384h4.557c1.315 0 2.384 1.070 2.384 2.384v1.616h8.224c2.557 0 3.643 2.163 3.75 3.618l0.026 12.628c0 2.486-2.168 3.595-3.624 3.734-0.056 0.014-0.070 0.019-0.128 0.019zM3.917 9.337c0.003 0.001-2.598 0.143-2.598 2.676v12.207c0 1.557 0.902 2.451 2.475 2.451h24.37c0.335-0.047 2.488-0.38 2.488-2.419l-0.025-12.579c-0.003 0-0.208-2.335-2.418-2.335h-8.891c-0.369 0-0.667-0.298-0.667-0.667v-2.282c0-0.579-0.471-1.051-1.051-1.051h-4.556c-0.584 0-1.059 0.471-1.059 1.051v2.283c0 0.369-0.298 0.667-0.667 0.667h-7.402z"></path>
</svg>
