<svg version="1.1" xmlns="http://www.w3.org/2000/svg" width="32" height="32" viewBox="0 0 32 32">
<title>photo_camera_portrait</title>
<path d="M14.030 8.647c-1.489 0-2.701-1.212-2.701-2.701s1.212-2.701 2.701-2.701 2.701 1.212 2.701 2.701c0 1.489-1.212 2.701-2.701 2.701zM14.030 4.578c-0.754 0-1.367 0.614-1.367 1.368s0.613 1.367 1.367 1.367 1.367-0.613 1.367-1.367-0.613-1.368-1.367-1.368z"></path>
<path d="M22.057 25.335c-0.369 0-0.667-0.298-0.667-0.667v-1.014c-2.325-1.081-2.884-1.62-3.019-2.133-0.014-0.055-0.022-0.112-0.022-0.169v-0.482c0-0.155 0.055-0.306 0.154-0.426 0.204-0.246 0.371-0.616 0.471-1.039 0.033-0.141 0.111-0.268 0.223-0.361 0.031-0.027 0.063-0.156 0.003-0.243-0.075-0.111-0.116-0.242-0.116-0.376v-1.078c0-1.066-0.533-1.21-1.053-1.21-0.289 0-1.055 0-1.055 1.21v1.079c0 0.135-0.040 0.267-0.117 0.378-0.059 0.085-0.026 0.215 0.005 0.242 0.108 0.092 0.19 0.221 0.221 0.359 0.1 0.423 0.267 0.793 0.471 1.039 0.099 0.12 0.154 0.271 0.154 0.426v0.482c0 0.057-0.008 0.115-0.022 0.169-0.134 0.513-0.694 1.052-3.019 2.133v1.014c0 0.369-0.298 0.667-0.667 0.667s-0.667-0.298-0.667-0.667v-1.206c0-0.404 0.225-0.767 0.572-0.926 1.787-0.819 2.316-1.221 2.469-1.371v-0.073c-0.232-0.336-0.417-0.743-0.542-1.199-0.369-0.444-0.447-1.105-0.192-1.642v-0.905c0-1.568 0.915-2.543 2.388-2.543s2.387 0.975 2.387 2.543v0.905c0.255 0.538 0.177 1.199-0.193 1.643-0.125 0.454-0.31 0.862-0.542 1.198v0.103c0.1 0.078 0.587 0.479 2.469 1.34 0.349 0.163 0.573 0.526 0.573 0.928v1.204c-0 0.368-0.299 0.667-0.667 0.667z"></path>
<path d="M24.648 29.337h-13.333c-0.369 0-0.667-0.298-0.667-0.667v-17.333c0-0.369 0.298-0.667 0.667-0.667h13.333c0.369 0 0.667 0.298 0.667 0.667v17.333c0 0.369-0.298 0.667-0.667 0.667zM11.982 28.004h12v-16h-12v16z"></path>
<path d="M5.982 8.068c-0.369 0-0.667-0.298-0.667-0.667v-2.669c0-0.369 0.298-0.667 0.667-0.667s0.667 0.298 0.667 0.667v2.669c0 0.368-0.298 0.667-0.667 0.667z"></path>
<path d="M7.315 18.714c-0.369 0-0.667-0.298-0.667-0.667v-2.576c0-0.369 0.298-0.667 0.667-0.667s0.667 0.298 0.667 0.667v2.576c0 0.369-0.298 0.667-0.667 0.667z"></path>
<path d="M19.315 9.273c-0.369 0-0.667-0.298-0.667-0.667v-1.206c0-0.369 0.298-0.667 0.667-0.667s0.667 0.298 0.667 0.667v1.206c0 0.368-0.298 0.667-0.667 0.667z"></path>
<path d="M21.982 9.273c-0.369 0-0.667-0.298-0.667-0.667v-1.206c0-0.369 0.298-0.667 0.667-0.667s0.667 0.298 0.667 0.667v1.206c0 0.368-0.298 0.667-0.667 0.667z"></path>
<path d="M19.315 5.273c-0.369 0-0.667-0.298-0.667-0.667v-1.206c0-0.369 0.298-0.667 0.667-0.667s0.667 0.298 0.667 0.667v1.206c0 0.368-0.298 0.667-0.667 0.667z"></path>
<path d="M21.982 5.273c-0.369 0-0.667-0.298-0.667-0.667v-1.206c0-0.369 0.298-0.667 0.667-0.667s0.667 0.298 0.667 0.667v1.206c0 0.368-0.298 0.667-0.667 0.667z"></path>
<path d="M24.198 32.004h-12.207c-2.818 0-3.941-2.333-4.008-3.902l-0.001-6.764h-1.616c-1.314 0-2.384-1.073-2.384-2.392v-4.557c0-1.314 1.070-2.383 2.384-2.383h1.616v-8.224c0-2.557 2.164-3.643 3.618-3.749l12.628-0.027c2.486 0 3.595 2.168 3.734 3.625l0.019 24.566c0 2.314-1.486 3.809-3.784 3.809zM9.315 28.073c0.001 0 0.143 2.598 2.676 2.598h12.207c1.557 0 2.451-0.902 2.451-2.475v-24.363c-0.007-0.031-0.012-0.061-0.014-0.077-0.001-0.024-0.255-2.418-2.405-2.418l-12.579 0.025c0.023 0-2.335 0.198-2.335 2.418v8.891c0 0.369-0.298 0.667-0.667 0.667h-2.283c-0.579 0-1.051 0.471-1.051 1.050v4.557c0 0.583 0.471 1.059 1.051 1.059h2.283c0.369 0 0.667 0.298 0.667 0.667v7.402z"></path>
</svg>
