<svg version="1.1" xmlns="http://www.w3.org/2000/svg" width="32" height="32" viewBox="0 0 32 32">
<title>photo_camera2</title>
<path d="M8.333 23.91c-0.493 0-0.97-0.267-1.213-0.733l-6.196-11.878c-0.348-0.668-0.088-1.495 0.579-1.843l16.605-8.662c0.323-0.169 0.691-0.203 1.042-0.091 0.348 0.109 0.633 0.348 0.801 0.673l6.195 11.876c0.348 0.667 0.089 1.493-0.578 1.842l-0.372 0.195c-0.327 0.169-0.729 0.044-0.9-0.283-0.171-0.326-0.043-0.729 0.283-0.899l0.372-0.194-6.182-11.92-16.649 8.647 6.182 11.922 0.542-0.246c0.327-0.169 0.73-0.044 0.899 0.284 0.17 0.327 0.043 0.729-0.283 0.898l-0.498 0.259c-0.201 0.106-0.417 0.155-0.629 0.155z"></path>
<path d="M8.229 15.462c-1.402 0-2.544-1.141-2.544-2.544s1.141-2.544 2.544-2.544c1.403 0 2.544 1.141 2.544 2.544s-1.141 2.544-2.544 2.544zM8.229 11.707c-0.667 0-1.21 0.543-1.21 1.21s0.543 1.211 1.21 1.211c0.668 0 1.211-0.543 1.211-1.211s-0.543-1.21-1.211-1.21z"></path>
<path d="M12.507 17.010c-0.033 0-0.067-0.003-0.101-0.008-0.364-0.055-0.614-0.395-0.559-0.759l0.799-5.255c0.032-0.21 0.161-0.391 0.349-0.49 0.187-0.1 0.41-0.104 0.601-0.010l2.927 1.422 0.432-5.040c0.019-0.222 0.148-0.42 0.344-0.527 0.198-0.107 0.431-0.108 0.63-0.006l3.349 1.755c0.325 0.171 0.452 0.574 0.281 0.9-0.172 0.327-0.578 0.452-0.901 0.281l-2.461-1.289-0.43 5.007c-0.018 0.219-0.145 0.414-0.335 0.522-0.189 0.109-0.422 0.117-0.621 0.020l-2.984-1.45-0.663 4.36c-0.050 0.329-0.334 0.566-0.658 0.566z"></path>
<path d="M20.704 29.376c-2.227 0-4.038-1.811-4.038-4.038 0-2.225 1.811-4.036 4.038-4.036s4.038 1.811 4.038 4.036c0 2.227-1.811 4.038-4.038 4.038zM20.704 22.635c-1.491 0-2.704 1.212-2.704 2.703s1.214 2.704 2.704 2.704 2.704-1.214 2.704-2.704-1.213-2.703-2.704-2.703z"></path>
<path d="M29.519 32c-0.008 0-0.018 0-0.026 0h-16.298c-0.796 0-1.451-0.281-1.945-0.835-0.62-0.69-0.601-1.553-0.595-1.839l0.001-7.876c0-1.854 1.333-2.757 2.572-2.811h2.892c0.19-1.25 0.798-2.591 2.913-2.591h3.345c2.116 0 2.723 1.341 2.913 2.592h4.186c1.602 0 2.415 1.388 2.513 2.763l0.017 7.906c0 1.613-1.215 2.41-2.177 2.615-0.093 0.048-0.198 0.076-0.31 0.076zM13.257 19.973c-0.103 0.005-1.268 0.096-1.268 1.478v7.841c-0.005 0.25-0.014 0.685 0.255 0.984 0.242 0.271 0.535 0.391 0.952 0.391h16.095c0.040-0.013 0.083-0.021 0.128-0.026 0.013-0.001 1.255-0.135 1.255-1.329l-0.016-7.859c-0.009-0.111-0.135-1.478-1.181-1.478h-4.785c-0.35 0-0.642-0.272-0.665-0.621-0.113-1.667-0.645-1.971-1.648-1.971h-3.345c-1.004 0-1.535 0.305-1.648 1.97-0.025 0.349-0.315 0.621-0.665 0.621h-3.462z"></path>
<path d="M27.267 23.96c-0.175 0-0.348-0.066-0.467-0.201-0.12-0.105-0.199-0.28-0.199-0.466 0-0.173 0.079-0.346 0.199-0.466 0.254-0.254 0.68-0.254 0.934-0.014 0.133 0.147 0.201 0.307 0.201 0.481s-0.068 0.346-0.187 0.466c-0.133 0.134-0.306 0.2-0.479 0.2z"></path>
</svg>
