<svg version="1.1" xmlns="http://www.w3.org/2000/svg" width="32" height="32" viewBox="0 0 32 32">
<title>photo_wall_frame</title>
<path d="M10.495 17.534c-1.522 0-2.76-1.238-2.76-2.76s1.238-2.76 2.76-2.76 2.76 1.238 2.76 2.76-1.238 2.76-2.76 2.76zM10.495 13.346c-0.787 0-1.427 0.64-1.427 1.427s0.64 1.427 1.427 1.427 1.427-0.64 1.427-1.427-0.64-1.427-1.427-1.427z"></path>
<path d="M9.846 25.337c-0.136 0-0.273-0.042-0.392-0.128-0.297-0.216-0.363-0.634-0.147-0.931l6.613-9.089c0.125-0.171 0.324-0.273 0.536-0.274 0.211 0.054 0.413 0.1 0.538 0.269l2.228 3.006 3.086-4.854c0.121-0.191 0.331-0.307 0.556-0.309 0.241 0.051 0.437 0.11 0.563 0.299l4.444 6.71c0.203 0.307 0.119 0.721-0.187 0.925-0.305 0.201-0.719 0.119-0.925-0.187l-3.876-5.854-3.056 4.806c-0.117 0.185-0.319 0.301-0.539 0.309-0.229-0.009-0.43-0.094-0.559-0.269l-2.264-3.056-6.079 8.354c-0.13 0.18-0.333 0.275-0.54 0.275z"></path>
<path d="M3.090 29.231c-0.971 0-1.901-0.575-2.427-1.501-0.568-1.003-0.551-2.199 0.048-3.202 0.273-0.46 0.295-0.997 0.055-1.371-0.641-0.993-0.673-2.302-0.083-3.332 0.275-0.479 0.275-1.075 0-1.556-0.555-0.971-0.555-2.225 0.001-3.195 0.274-0.48 0.274-1.076-0.001-1.556-0.59-1.030-0.557-2.338 0.083-3.333 0.24-0.374 0.219-0.911-0.055-1.37-0.598-1.002-0.617-2.197-0.049-3.198 0.822-1.449 2.667-1.939 3.995-0.974 0.361 0.261 0.781 0.294 1.077 0.062 0.925-0.723 2.229-0.761 3.186-0.093 0.385 0.266 0.863 0.267 1.249 0 0.913-0.637 2.149-0.634 3.059 0 0.385 0.266 0.863 0.267 1.25-0.001 0.911-0.635 2.148-0.633 3.058 0 0.385 0.268 0.865 0.268 1.25 0.001 0.914-0.638 2.15-0.635 3.059 0 0.383 0.266 0.863 0.268 1.25 0 0.953-0.668 2.26-0.631 3.184 0.092 0.301 0.236 0.723 0.199 1.078-0.061 1.333-0.963 3.172-0.478 3.993 0.969 0.569 1.003 0.552 2.2-0.046 3.203-0.275 0.459-0.296 0.997-0.055 1.371 0.639 0.995 0.672 2.303 0.082 3.332-0.273 0.48-0.273 1.076 0 1.557 0.556 0.97 0.556 2.224 0 3.195-0.273 0.479-0.273 1.075 0.001 1.556 0.589 1.029 0.556 2.336-0.083 3.331-0.241 0.374-0.219 0.913 0.055 1.372 0.598 1.003 0.616 2.198 0.048 3.198-0.526 0.926-1.457 1.503-2.43 1.503v0c-0.547 0-1.089-0.184-1.566-0.531-0.355-0.258-0.779-0.294-1.077-0.061-0.921 0.724-2.228 0.762-3.186 0.094-0.384-0.268-0.866-0.267-1.25 0-0.909 0.635-2.147 0.634-3.057 0-0.385-0.268-0.865-0.268-1.25 0-0.91 0.637-2.147 0.635-3.059 0-0.383-0.268-0.863-0.267-1.249 0-0.91 0.635-2.148 0.634-3.059 0-0.384-0.268-0.863-0.267-1.249 0-0.956 0.668-2.262 0.63-3.185-0.094-0.299-0.233-0.719-0.198-1.077 0.063-0.48 0.348-1.022 0.531-1.568 0.531zM3.092 5.446c-0.493 0-0.981 0.318-1.271 0.829-0.157 0.277-0.469 1.014 0.034 1.856 0.531 0.891 0.544 1.98 0.031 2.775-0.368 0.572-0.387 1.355-0.047 1.949 0.508 0.889 0.508 1.992 0 2.881-0.325 0.568-0.325 1.302 0 1.871 0.508 0.887 0.508 1.991 0 2.88-0.341 0.594-0.322 1.376 0.047 1.948 0.512 0.797 0.5 1.885-0.031 2.775-0.504 0.845-0.191 1.583-0.033 1.861 0.447 0.786 1.329 1.073 2.053 0.551 0.838-0.607 1.925-0.626 2.682-0.034 0.472 0.367 1.115 0.389 1.601 0.049 0.835-0.582 1.939-0.582 2.774 0 0.46 0.322 1.072 0.324 1.534 0 0.835-0.582 1.938-0.582 2.774 0 0.459 0.322 1.071 0.324 1.535 0 0.836-0.581 1.939-0.581 2.772 0 0.461 0.319 1.072 0.324 1.535 0 0.835-0.579 1.939-0.582 2.773 0 0.488 0.341 1.134 0.319 1.602-0.049 0.758-0.591 1.846-0.575 2.684 0.033 0.251 0.182 0.516 0.276 0.783 0.276v0c0.493 0 0.981-0.318 1.271-0.828 0.158-0.277 0.469-1.013-0.035-1.857-0.53-0.889-0.543-1.979-0.031-2.776 0.369-0.572 0.388-1.354 0.048-1.948-0.509-0.889-0.508-1.993 0-2.88 0.325-0.569 0.325-1.302 0-1.87-0.509-0.889-0.509-1.993 0-2.881 0.34-0.594 0.32-1.376-0.048-1.949-0.512-0.796-0.499-1.886 0.031-2.776 0.504-0.843 0.19-1.582 0.033-1.861-0.447-0.786-1.329-1.071-2.051-0.548-0.837 0.607-1.927 0.625-2.684 0.032-0.47-0.369-1.117-0.388-1.6-0.049-0.837 0.581-1.941 0.58-2.773 0-0.461-0.321-1.070-0.324-1.536 0.001-0.833 0.579-1.937 0.58-2.771-0.001-0.462-0.32-1.072-0.323-1.536 0-0.835 0.581-1.939 0.58-2.773 0-0.462-0.32-1.070-0.323-1.535 0-0.835 0.581-1.939 0.58-2.773 0-0.486-0.338-1.131-0.32-1.602 0.049-0.755 0.593-1.846 0.575-2.683-0.032-0.252-0.183-0.515-0.276-0.782-0.276z"></path>
<path d="M27.315 25.337h-22.667c-0.369 0-0.667-0.298-0.667-0.667v-15.999c0-0.369 0.298-0.667 0.667-0.667h22.667c0.369 0 0.667 0.298 0.667 0.667v15.999c0 0.369-0.298 0.667-0.667 0.667zM5.315 24.004h21.333v-14.666h-21.333v14.666z"></path>
</svg>
