<!-- Generated by IcoMoon.io -->
<svg version="1.1" xmlns="http://www.w3.org/2000/svg" width="32" height="32" viewBox="0 0 32 32">
<title>photo_camera</title>
<path d="M27 9h-3.7c-0.2 0-0.4-0.1-0.6-0.3l-1.6-2.6c0 0-0.1-0.1-0.1-0.1-0.6-0.7-1.3-1-2.1-1h-5.8c-0.8 0-1.6 0.4-2.1 1 0 0-0.1 0.1-0.1 0.1l-1.6 2.6c-0.2 0.1-0.3 0.3-0.5 0.3v-0.5c0-0.6-0.4-1-1-1h-1.6c-0.6 0-1 0.4-1 1v0.5h-0.2c-1.7 0-3 1.3-3 3v12c0 1.7 1.3 3 3 3h22c1.7 0 3-1.3 3-3v-12c0-1.7-1.3-3-3-3zM28 24c0 0.6-0.4 1-1 1h-22c-0.6 0-1-0.4-1-1v-12c0-0.6 0.4-1 1-1h3.8c0.8 0 1.5-0.4 2.1-1.1 0 0 0.1-0.1 0.1-0.1l1.6-2.6c0.1-0.1 0.3-0.2 0.5-0.2h5.8c0.3 0 0.4 0.1 0.6 0.3l1.6 2.6c0 0 0.1 0.1 0.1 0.1 0.6 0.7 1.4 1.1 2.2 1.1h3.6c0.6 0 1 0.4 1 1v11.9z"></path>
<path d="M16 11c-3.3 0-6 2.7-6 6s2.7 6 6 6 6-2.7 6-6-2.7-6-6-6zM16 21c-2.2 0-4-1.8-4-4s1.8-4 4-4c2.2 0 4 1.8 4 4s-1.8 4-4 4z"></path>
</svg>
