<!-- Generated by IcoMoon.io -->
<svg version="1.1" xmlns="http://www.w3.org/2000/svg" width="32" height="32" viewBox="0 0 32 32">
	<title>photo_camera_filled</title>
	<circle cx="16" cy="17" r="4"/>
	<path d="M27,9h-3.7c-0.2,0-0.4-0.1-0.6-0.3l-1.6-2.6L21,6c-0.6-0.7-1.3-1-2.1-1h-5.8c-0.8,0-1.6,0.4-2.1,1l-0.1,0.1L9.3,8.7
		C9.1,8.8,9,9,8.8,9V8.5c0-0.6-0.4-1-1-1H6.2c-0.6,0-1,0.4-1,1V9H5c-1.7,0-3,1.3-3,3v12c0,1.7,1.3,3,3,3h22c1.7,0,3-1.3,3-3V12
		C30,10.3,28.7,9,27,9z M16,23c-3.3,0-6-2.7-6-6s2.7-6,6-6s6,2.7,6,6S19.3,23,16,23z"/>
</svg>
