<svg version="1.1" xmlns="http://www.w3.org/2000/svg" width="32" height="32" viewBox="0 0 32 32">
<title>photo_camera_upload_computer</title>
<path d="M15.315 17.269c-0.369 0-0.667-0.298-0.667-0.667v-14.476c0-0.369 0.298-0.667 0.667-0.667s0.667 0.298 0.667 0.667v14.476c0 0.369-0.298 0.667-0.667 0.667z"></path>
<path d="M20.042 7.509c-0.171 0-0.341-0.065-0.471-0.195l-4.244-4.244-4.245 4.244c-0.26 0.26-0.682 0.26-0.943 0s-0.26-0.682 0-0.943l4.716-4.715c0.26-0.26 0.682-0.26 0.943 0l4.715 4.715c0.26 0.26 0.26 0.682 0 0.943-0.13 0.13-0.301 0.195-0.471 0.195z"></path>
<path d="M15.326 27.96c-2.565 0-4.652-2.086-4.652-4.651s2.087-4.652 4.652-4.652c2.564 0 4.652 2.087 4.652 4.652s-2.087 4.651-4.652 4.651zM15.326 19.99c-1.83 0-3.319 1.488-3.319 3.319 0 1.829 1.489 3.318 3.319 3.318s3.318-1.488 3.318-3.318c0-1.831-1.488-3.319-3.318-3.319z"></path>
<path d="M8.017 30.667c-0.847 0-1.542-0.301-2.064-0.896-0.652-0.734-0.632-1.66-0.626-1.964l0.001-8.617c0-2.129 1.594-3.159 2.725-3.21l2.676-0.001c0.131-1.087 0.477-2.138 1.697-2.514 0.356-0.109 0.726 0.089 0.834 0.441s-0.089 0.725-0.441 0.834c-0.396 0.122-0.708 0.343-0.816 1.951-0.024 0.35-0.314 0.622-0.665 0.622h-3.255c-0.277 0.013-1.422 0.372-1.422 1.878v8.575c-0.005 0.263-0.016 0.777 0.29 1.122 0.271 0.309 0.6 0.445 1.064 0.445l17.301-0.031c0.208-0.010 1.375-0.12 1.375-1.204v-9.534c-0.026-0.344-0.212-1.25-1.353-1.25h-5.992c-0.35 0-0.642-0.272-0.665-0.622-0.103-1.527-0.542-1.797-0.945-1.93-0.35-0.115-0.54-0.492-0.425-0.842s0.492-0.541 0.841-0.425c1.241 0.409 1.648 1.46 1.796 2.486h5.391c1.732 0 2.596 1.275 2.685 2.536l0.001 9.581c0 1.932-1.755 2.505-2.684 2.538l-17.324 0.031z"></path>
<path d="M23.28 21.293c-0.173 0-0.346-0.066-0.481-0.201-0.12-0.12-0.186-0.293-0.186-0.466s0.066-0.346 0.186-0.466c0.267-0.254 0.694-0.254 0.947-0.014 0.12 0.134 0.201 0.307 0.201 0.481s-0.081 0.346-0.201 0.466c-0.133 0.134-0.293 0.2-0.466 0.2z"></path>
</svg>
