<svg version="1.1" xmlns="http://www.w3.org/2000/svg" width="32" height="32" viewBox="0 0 32 32">
<title>photo_camera</title>
<path d="M14.025 25.337c-4.030 0-7.309-3.279-7.309-7.307 0-4.031 3.279-7.309 7.309-7.309s7.308 3.279 7.308 7.309c0 4.029-3.279 7.307-7.308 7.307zM14.025 12.054c-3.295 0-5.975 2.681-5.975 5.976s2.68 5.974 5.975 5.974 5.975-2.68 5.975-5.974c0-3.295-2.68-5.976-5.975-5.976z"></path>
<path d="M24.681 15.999c-1.091 0-1.979-0.887-1.979-1.979s0.888-1.979 1.979-1.979 1.978 0.888 1.978 1.979-0.887 1.979-1.978 1.979zM24.681 13.375c-0.355 0-0.646 0.29-0.646 0.646s0.29 0.645 0.646 0.645 0.645-0.29 0.645-0.645c0-0.356-0.289-0.646-0.645-0.646z"></path>
<path d="M9.938 18.695c-0.358 0-0.654-0.284-0.665-0.645-0.042-1.281 0.431-2.484 1.333-3.385s2.097-1.374 3.385-1.333c0.368 0.012 0.656 0.32 0.644 0.688s-0.298 0.682-0.688 0.644c-0.909-0.013-1.76 0.306-2.398 0.943s-0.973 1.491-0.944 2.398c0.012 0.369-0.276 0.676-0.644 0.689-0.008 0-0.015 0-0.023 0z"></path>
<path d="M28.47 28h-24.953c-1.115 0-2.029-0.396-2.717-1.175-0.853-0.964-0.827-2.194-0.819-2.599l0.001-12.232c0-2.634 1.867-3.917 3.601-3.994l4.722-0.001c0.373-3.446 1.835-5.333 4.156-5.333l4.669 0.001c2.32 0 3.783 1.887 4.155 5.333h7.177c2.279 0 3.449 1.865 3.572 3.598l-0.051 12.599c0 2.534-2.060 3.661-3.445 3.799-0.022 0.003-0.044 0.004-0.066 0.004zM3.612 9.333c-0.065 0.003-2.297 0.131-2.297 2.661v12.169c-0.008 0.397-0.025 1.206 0.483 1.779 0.437 0.495 0.982 0.725 1.719 0.725h24.917c0.645-0.077 2.215-0.655 2.215-2.473l0.052-12.552c-0.016-0.192-0.223-2.309-2.24-2.309h-7.788c-0.35 0-0.642-0.272-0.665-0.622-0.119-1.76-0.65-4.712-2.879-4.712l-4.669-0.001c-2.229 0-2.761 2.952-2.88 4.712-0.024 0.35-0.314 0.622-0.665 0.622h-5.303z"></path>
</svg>
