<!-- Generated by IcoMoon.io -->
<svg version="1.1" xmlns="http://www.w3.org/2000/svg" width="32" height="32" viewBox="0 0 32 32">
<title>photo_camera</title>
<path fill="none" stroke-linejoin="round" stroke-linecap="round" stroke-miterlimit="4" stroke-width="2" stroke="#000" d="M21.909 9.293l-1.664-2.629c-0.351-0.409-0.831-0.664-1.37-0.664h-5.75c-0.539 0-1.019 0.255-1.37 0.664l-1.664 2.629c-0.351 0.409-0.803 0.707-1.341 0.707h-3.75c-1.105 0-2 0.895-2 2v0 12c0 1.105 0.895 2 2 2v0h22c1.105 0 2-0.895 2-2v0-12c0-1.105-0.895-2-2-2v0h-3.688c-0.541 0-1.053-0.298-1.404-0.707z"></path>
<path fill="none" stroke-linejoin="miter" stroke-linecap="butt" stroke-miterlimit="10" stroke-width="2" stroke="#000" d="M21 17c0 2.761-2.239 5-5 5s-5-2.239-5-5c0-2.761 2.239-5 5-5s5 2.239 5 5z"></path>
<path fill="none" stroke-linejoin="round" stroke-linecap="round" stroke-miterlimit="4" stroke-width="2" stroke="#000" d="M7.75 9.875v-1.375h-1.5v1.375"></path>
</svg>
