<svg version="1.1" xmlns="http://www.w3.org/2000/svg" width="36" height="32" viewBox="0 0 36 32">
<title>photo_camera_solid</title>
<path d="M26.65 6.016c-0.244 0.016-0.475-0.116-0.591-0.331l-3.106-4.291c-0.141-0.191-0.356-0.313-0.591-0.331h-9.172c-0.244-0.016-0.475 0.116-0.591 0.331l-3.106 4.325c-0.141 0.191-0.356 0.313-0.591 0.331h-6.844c-1.119-0.003-2.031 0.903-2.034 2.022 0 0.003 0 0.009 0 0.012v20.822c-0.003 1.119 0.9 2.031 2.022 2.034 0.003 0 0.009 0 0.013 0h31.469c1.119 0.003 2.031-0.903 2.034-2.022 0-0.003 0-0.009 0-0.012v-20.856c0.003-1.119-0.903-2.031-2.022-2.034-0.003 0-0.009 0-0.013 0h-6.878zM17.775 26.022c-4.369-0.003-7.912-3.547-7.909-7.919s3.547-7.912 7.916-7.909c4.369 0.003 7.909 3.544 7.909 7.913-0.003 4.372-3.547 7.913-7.916 7.916zM17.666 13.041c-2.797 0-5.066 2.269-5.066 5.066s2.269 5.066 5.066 5.066 5.066-2.266 5.066-5.066v0c0.009-2.791-2.247-5.056-5.034-5.066-0.012 0-0.022 0-0.031 0v0z"></path>
</svg>
