<!-- Generated by IcoMoon.io -->
<svg version="1.1" xmlns="http://www.w3.org/2000/svg" width="32" height="32" viewBox="0 0 32 32">
<title>picture_image_photo</title>
<path fill="none" stroke-linejoin="round" stroke-linecap="butt" stroke-miterlimit="4" stroke-width="2" stroke="#000" d="M6 5h20c1.657 0 3 1.343 3 3v16c0 1.657-1.343 3-3 3h-20c-1.657 0-3-1.343-3-3v-16c0-1.657 1.343-3 3-3z"></path>
<path fill="none" stroke-linejoin="miter" stroke-linecap="butt" stroke-miterlimit="10" stroke-width="2" stroke="#000" d="M23 11c0 1.105-0.895 2-2 2s-2-0.895-2-2c0-1.105 0.895-2 2-2s2 0.895 2 2z"></path>
<path fill="none" stroke-linejoin="round" stroke-linecap="round" stroke-miterlimit="4" stroke-width="2" stroke="#000" d="M19 20.987l-5.666-5.656c-0.362-0.362-0.862-0.586-1.414-0.586-0.511 0-0.976 0.191-1.33 0.506l0.002-0.002-7.592 6.75M14 27l7.709-7.709c0.362-0.363 0.863-0.587 1.416-0.587 0.488 0 0.935 0.175 1.282 0.465l-0.003-0.003 4.597 3.834"></path>
</svg>
