<svg version="1.1" xmlns="http://www.w3.org/2000/svg" width="32" height="32" viewBox="0 0 32 32">
<title>picture_image_photo</title>
<path d="M30.258 28h-28.553c-0.951 0-1.723-0.773-1.723-1.724v-20.551c0-0.951 0.773-1.725 1.723-1.725h28.553c0.951 0 1.724 0.773 1.724 1.725v20.551c-0 0.951-0.774 1.724-1.724 1.724zM1.705 5.333c-0.215 0-0.39 0.176-0.39 0.391v20.551c0 0.215 0.175 0.391 0.39 0.391h28.553c0.215 0 0.391-0.176 0.391-0.391v-20.551c-0-0.216-0.176-0.391-0.391-0.391h-28.553z"></path>
<path d="M8.6 16.141c-1.901 0-3.448-1.547-3.448-3.449s1.547-3.447 3.448-3.447 3.447 1.546 3.447 3.447-1.546 3.449-3.447 3.449zM8.6 10.578c-1.166 0-2.115 0.949-2.115 2.114s0.949 2.115 2.115 2.115c1.165 0 2.114-0.949 2.114-2.115s-0.949-2.114-2.114-2.114z"></path>
<path d="M7.297 28c-0.133 0-0.268-0.040-0.385-0.122-0.3-0.214-0.37-0.63-0.158-0.93l9.211-12.977c0.123-0.174 0.324-0.279 0.537-0.281 0.001 0 0.004 0 0.007 0 0.211 0 0.41 0.1 0.535 0.269l3.233 4.361 4.378-6.885c0.12-0.189 0.327-0.305 0.551-0.309 0.215 0.007 0.434 0.105 0.561 0.289l6.098 8.869c0.208 0.303 0.131 0.719-0.172 0.927-0.303 0.21-0.717 0.133-0.927-0.172l-5.526-8.038-4.358 6.852c-0.117 0.185-0.319 0.301-0.539 0.309-0.227-0.010-0.43-0.094-0.559-0.269l-3.263-4.401-8.679 12.227c-0.13 0.184-0.335 0.281-0.544 0.281z"></path>
</svg>
