<!-- Generated by IcoMoon.io -->
<svg version="1.1" xmlns="http://www.w3.org/2000/svg" width="32" height="32" viewBox="0 0 32 32">
<title>picture_image_photo</title>
<path d="M26 4h-20c-2.2 0-4 1.8-4 4v16c0 2.2 1.8 4 4 4h20c2.2 0 4-1.8 4-4v-16c0-2.2-1.8-4-4-4zM6 6h20c1.1 0 2 0.9 2 2v12.9l-3-2.5c0 0 0 0 0 0-1.2-0.9-3-0.8-4 0.2l-1.5 1.5-5.5-5.5c-1.1-1.1-2.9-1.1-4.1-0.1 0 0 0 0 0 0l-5.9 5.3v-11.8c0-1.1 0.9-2 2-2zM4 24v-1.6l7.2-6.4c0 0 0 0 0 0 0.1-0.1 0.4-0.3 0.7-0.3s0.5 0.1 0.7 0.3l5.5 5.5-4.5 4.5h-7.6c-1.1 0-2-0.9-2-2zM26 26h-9.6l6-6c0.2-0.2 0.4-0.3 0.7-0.3s0.5 0.1 0.6 0.2c0 0 0 0 0 0l4.2 3.5v0.6c0.1 1.1-0.8 2-1.9 2z"></path>
<path d="M21 14c1.7 0 3-1.3 3-3s-1.3-3-3-3-3 1.3-3 3 1.3 3 3 3zM21 10c0.6 0 1 0.4 1 1s-0.4 1-1 1-1-0.4-1-1 0.4-1 1-1z"></path>
</svg>
