<svg version="1.1" xmlns="http://www.w3.org/2000/svg" width="32" height="32" viewBox="0 0 32 32">
<title>picture_image_photo_desk</title>
<path d="M30.24 23.981v0c-0.004-0.001-0.008-0.001-0.010 0h-2.896c-0.369 0-0.667-0.298-0.667-0.667s0.298-0.667 0.667-0.667h2.896c0.003 0 0.008 0 0.010 0 0.083 0 0.15-0.063 0.15-0.143-0.056-0.305-2.24-11.481-3.075-15.753-0.017-0.038-0.404-0.136-0.835-0.088-0.34 0.038-0.693-0.224-0.734-0.591-0.040-0.367 0.225-0.695 0.591-0.735 0.893-0.1 1.96 0.135 2.266 1.079 3.121 15.923 3.121 16 3.121 16.087 0 0.814-0.665 1.477-1.483 1.477z"></path>
<path d="M7.315 8.020c-0.369 0-0.667-0.298-0.667-0.667v-3.914c0-0.369 0.298-0.667 0.667-0.667s0.667 0.298 0.667 0.667v3.914c0 0.369-0.298 0.667-0.667 0.667z"></path>
<path d="M13.982 8.020c-0.369 0-0.667-0.298-0.667-0.667v-3.914c0-0.369 0.298-0.667 0.667-0.667s0.667 0.298 0.667 0.667v3.914c0 0.369-0.298 0.667-0.667 0.667z"></path>
<path d="M20.65 8.020c-0.369 0-0.667-0.298-0.667-0.667v-3.914c0-0.369 0.298-0.667 0.667-0.667s0.667 0.298 0.667 0.667v3.914c0 0.369-0.298 0.667-0.667 0.667z"></path>
<path d="M26.408 26.667h-24.827c-0.875 0-1.587-0.712-1.587-1.587v-18.159c0-0.875 0.712-1.587 1.587-1.587h24.827c0.875 0 1.586 0.712 1.586 1.587v18.159c0 0.875-0.711 1.587-1.586 1.587zM1.581 6.667c-0.139 0-0.253 0.114-0.253 0.254v18.159c0 0.141 0.114 0.254 0.253 0.254h24.827c0.139 0 0.253-0.113 0.253-0.254v-18.159c0-0.14-0.113-0.254-0.253-0.254h-24.827z"></path>
<path d="M7.568 16.345c-1.702 0-3.087-1.384-3.087-3.086s1.385-3.087 3.087-3.087 3.087 1.385 3.087 3.087-1.385 3.086-3.087 3.086zM7.568 11.506c-0.967 0-1.753 0.786-1.753 1.753s0.786 1.753 1.753 1.753 1.753-0.786 1.753-1.753-0.786-1.753-1.753-1.753z"></path>
<path d="M6.434 26.667c-0.133 0-0.268-0.040-0.385-0.124-0.3-0.212-0.37-0.629-0.157-0.928l8.016-11.293c0.124-0.174 0.324-0.279 0.537-0.281 0.178-0.058 0.415 0.098 0.542 0.269l2.736 3.693 3.742-5.884c0.12-0.189 0.327-0.305 0.551-0.309 0.214-0.008 0.434 0.105 0.561 0.289l5.306 7.718c0.208 0.303 0.131 0.719-0.172 0.927-0.302 0.21-0.719 0.133-0.927-0.172l-4.734-6.887-3.723 5.853c-0.117 0.185-0.319 0.301-0.539 0.309-0.224-0.005-0.43-0.095-0.559-0.269l-2.767-3.735-7.484 10.542c-0.13 0.184-0.335 0.281-0.544 0.281z"></path>
</svg>
