<svg version="1.1" xmlns="http://www.w3.org/2000/svg" width="32" height="32" viewBox="0 0 32 32">
<title>pin_bookmark</title>
<path d="M18.539 28.715c-0.387 0-0.75-0.151-1.023-0.425l-13.771-13.771c-0.273-0.275-0.424-0.638-0.424-1.023 0-0.386 0.15-0.749 0.424-1.023 2.482-2.479 6.715-2.973 10.473-1.262l5.348-5.348c-0.431-1.749-0.234-3.458 0.566-4.852 0.451-0.783 1.637-0.941 2.276-0.303l8.917 8.915c0.32 0.319 0.471 0.761 0.411 1.212s-0.319 0.839-0.714 1.065c-1.353 0.779-3.141 0.985-4.853 0.567l-5.348 5.348c1.764 3.857 1.289 7.926-1.26 10.474-0.274 0.273-0.637 0.424-1.022 0.424zM4.687 13.577l13.852 13.805c0.021 0 0.052-0.007 0.079-0.034 2.232-2.231 2.547-5.908 0.802-9.367-0.13-0.258-0.079-0.569 0.124-0.772l5.956-5.956c0.173-0.173 0.431-0.236 0.663-0.167 1.482 0.443 3.052 0.318 4.195-0.339 0 0 0.023-0.177 0.023-0.178l-8.915-8.915-0.757-0.309 0.578 0.332c-0.676 1.176-0.797 2.666-0.339 4.195 0.069 0.234 0.005 0.489-0.168 0.662l-5.954 5.955c-0.204 0.205-0.515 0.253-0.771 0.124-3.353-1.687-7.193-1.371-9.369 0.803l-0.471 0.631 0.471-0.471z"></path>
<path d="M0.93 31.772c-0.171 0-0.341-0.065-0.471-0.195-0.26-0.26-0.26-0.682 0-0.943l10.177-10.165c0.26-0.26 0.682-0.26 0.943 0s0.26 0.682 0 0.943l-10.177 10.165c-0.13 0.13-0.301 0.195-0.471 0.195z"></path>
</svg>
