<!-- Generated by IcoMoon.io -->
<svg version="1.1" xmlns="http://www.w3.org/2000/svg" width="32" height="32" viewBox="0 0 32 32">
<title>pin_bookmark_solid</title>
<path d="M31.325 9.625l-8.919-8.916c-0.641-0.637-1.825-0.481-2.275 0.303-0.8 1.394-0.997 3.103-0.566 4.853l-5.347 5.347c-3.759-1.713-7.991-1.219-10.472 1.262-0.275 0.275-0.425 0.637-0.425 1.022s0.15 0.747 0.425 1.022l6.419 6.419-9.706 9.697c-0.259 0.259-0.259 0.681 0 0.944 0.131 0.131 0.3 0.197 0.472 0.197s0.341-0.066 0.472-0.197l9.706-9.694 6.409 6.409c0.275 0.275 0.637 0.425 1.025 0.425v0c0.384 0 0.75-0.15 1.022-0.425 2.55-2.547 3.025-6.619 1.259-10.475l5.344-5.35c1.712 0.419 3.5 0.213 4.853-0.566 0.394-0.225 0.653-0.616 0.712-1.066s-0.091-0.894-0.409-1.213zM20.75 1.363l-0.003 0.006-0.038-0.022 0.041 0.016z"></path>
<path d="M0.931 31.772v0 0z"></path>
</svg>
