<!-- Generated by IcoMoon.io -->
<svg version="1.1" xmlns="http://www.w3.org/2000/svg" width="32" height="32" viewBox="0 0 32 32">
<title>pin_bookmark</title>
<path d="M21 6c0-2.8-2.2-5-5-5s-5 2.2-5 5c0 2.4 1.7 4.4 4 4.9v17.7c0 0.3 0.1 0.5 0.2 0.8l0.6 1.5c0 0.1 0.1 0.1 0.2 0.1s0.2-0.1 0.2-0.1v0l0.6-1.5c0.1-0.2 0.2-0.5 0.2-0.8v-17.7c2.3-0.5 4-2.5 4-4.9zM16 9c-1.7 0-3-1.3-3-3s1.3-3 3-3c0.3 0 0.6 0.1 0.9 0.1-0.5 0.3-0.9 0.8-0.9 1.4 0 0.8 0.7 1.5 1.5 1.5 0.6 0 1.1-0.4 1.4-0.9 0 0.3 0.1 0.6 0.1 0.9 0 1.7-1.3 3-3 3z"></path>
<path d="M15.2 29.4v0 0z"></path>
</svg>
