<svg version="1.1" xmlns="http://www.w3.org/2000/svg" width="32" height="32" viewBox="0 0 32 32">
<title>pivot_table</title>
<path d="M6 6.666h-5.334c-0.369 0-0.666-0.297-0.666-0.666v-5.334c0-0.369 0.297-0.666 0.666-0.666h5.334c0.369 0 0.666 0.297 0.666 0.666v5.334c0 0.369-0.297 0.666-0.666 0.666v0zM1.334 5.334h4v-4h-4v4z"></path>
<path d="M6 31.659h-5.334c-0.369 0-0.666-0.297-0.666-0.666v-22.703c0-0.369 0.297-0.666 0.666-0.666h5.334c0.369 0 0.666 0.297 0.666 0.666v22.7c0 0.372-0.297 0.669-0.666 0.669v0zM1.334 30.325h4v-21.366h-4v21.366z"></path>
<path d="M32 0.666v5.334c0 0.369-0.297 0.666-0.666 0.666h-22.703c-0.369 0-0.666-0.297-0.666-0.666v-5.334c0-0.369 0.297-0.666 0.666-0.666h22.7c0.372 0 0.669 0.297 0.669 0.666v0zM30.666 5.334v-4h-21.366v4h21.366z"></path>
<path d="M30.378 9.588l-4.262-1.653c-0.084-0.044-0.178-0.069-0.275-0.075-0.012 0-0.025 0-0.038-0.003-0.003 0-0.003 0-0.006 0-0.269-0.003-0.522 0.159-0.628 0.425l-1.747 4.5c-0.131 0.344 0.038 0.728 0.381 0.863 0.078 0.031 0.163 0.047 0.241 0.047v0c0.266 0 0.519-0.162 0.622-0.425l1.188-3.059c1.722 4.375 0.716 9.484-2.666 12.866-3.422 3.422-8.588 4.438-12.984 2.678l2.925-1.291c0.334-0.147 0.491-0.541 0.341-0.878-0.147-0.337-0.541-0.491-0.878-0.341l-4.262 1.878c-0.116 0.050-0.213 0.131-0.278 0.231 0 0 0 0.003-0.003 0.003-0.009 0.012-0.016 0.025-0.025 0.038-0.003 0.006-0.009 0.012-0.012 0.019s-0.006 0.012-0.009 0.016c-0.003 0.003-0.003 0.006-0.006 0.012-0.006 0.016-0.016 0.031-0.022 0.050 0 0.003-0.003 0.006-0.003 0.009-0.006 0.019-0.013 0.034-0.019 0.053 0 0.003 0 0.006-0.003 0.009-0.006 0.019-0.009 0.034-0.013 0.053 0 0.003 0 0.006-0.003 0.012-0.003 0.016-0.006 0.034-0.006 0.050 0 0.006 0 0.012 0 0.022 0 0.012 0 0.028 0 0.041 0 0.009 0 0.022 0 0.031s0 0.022 0.003 0.031c0 0.012 0.003 0.025 0.006 0.038 0 0.009 0.003 0.016 0.003 0.025 0.003 0.012 0.006 0.028 0.009 0.041 0.003 0.006 0.003 0.016 0.006 0.022 0.003 0.012 0.009 0.028 0.016 0.041 0.003 0.006 0.006 0.012 0.006 0.019 0.003 0.006 0.003 0.009 0.006 0.016l1.947 4.419c0.147 0.337 0.541 0.491 0.878 0.341 0.078-0.034 0.147-0.081 0.203-0.137v0c0.188-0.188 0.253-0.481 0.137-0.741l-1.238-2.809c4.838 1.841 10.466 0.691 14.216-3.056v0c3.75-3.75 4.869-9.406 2.978-14.262l2.784 1.081c0.341 0.134 0.728-0.037 0.863-0.381 0.141-0.347-0.028-0.734-0.372-0.866z"></path>
</svg>
