<svg version="1.1" xmlns="http://www.w3.org/2000/svg" width="32" height="32" viewBox="0 0 32 32">
<title>plus_add_new</title>
<path d="M15.996 31.846c-8.736 0-15.843-7.107-15.843-15.842s7.107-15.844 15.843-15.844 15.842 7.107 15.842 15.844c0 8.736-7.107 15.842-15.842 15.842zM15.996 1.493c-8.001 0-14.51 6.509-14.51 14.51 0 8 6.509 14.509 14.51 14.509s14.509-6.509 14.509-14.509c0-8.001-6.509-14.51-14.509-14.51z"></path>
<path d="M15.999 25.47c-0.369 0-0.667-0.298-0.667-0.667v-17.6c0-0.369 0.298-0.667 0.667-0.667s0.667 0.298 0.667 0.667v17.6c0 0.369-0.298 0.667-0.667 0.667z"></path>
<path d="M24.798 16.671h-17.6c-0.369 0-0.667-0.298-0.667-0.667s0.298-0.667 0.667-0.667h17.6c0.369 0 0.667 0.298 0.667 0.667s-0.298 0.667-0.667 0.667z"></path>
</svg>
