<!-- Generated by IcoMoon.io -->
<svg version="1.1" xmlns="http://www.w3.org/2000/svg" width="32" height="32" viewBox="0 0 32 32">
<title>plus_sign_add_new</title>
<path d="M28.978 16.941c-0.259 0.259-0.559 0.381-0.938 0.381l-10.722-0.003v10.722c0 0.378-0.122 0.678-0.381 0.938s-0.559 0.381-0.938 0.381c-0.741 0-1.319-0.578-1.319-1.319l-0.003-10.722h-10.719c-0.741 0-1.319-0.578-1.319-1.319 0-0.359 0.138-0.694 0.381-0.938 0.247-0.247 0.578-0.381 0.938-0.381l10.722-0.003v-10.719c0-0.359 0.137-0.694 0.381-0.938 0.247-0.247 0.578-0.381 0.938-0.381s0.694 0.138 0.938 0.381c0.244 0.244 0.381 0.578 0.381 0.938l-0.053 10.772 10.769-0.050c0.744 0 1.325 0.578 1.322 1.319 0.003 0.341-0.15 0.709-0.378 0.941v0z"></path>
</svg>
