<svg version="1.1" xmlns="http://www.w3.org/2000/svg" width="32" height="32" viewBox="0 0 32 32">
<title>plus_minus</title>
<path d="M23.478 18.236c-0.548 0-1.099-0.055-1.638-0.163-0.361-0.073-0.595-0.423-0.522-0.785 0.073-0.361 0.427-0.598 0.785-0.522 0.452 0.091 0.915 0.137 1.375 0.137 3.832 0 6.951-3.119 6.951-6.951s-3.119-6.951-6.951-6.951c-3.625 0-6.669 2.827-6.932 6.437-0.026 0.367-0.355 0.645-0.713 0.617-0.367-0.027-0.643-0.346-0.617-0.713 0.313-4.303 3.941-7.674 8.262-7.674 4.568 0 8.284 3.716 8.284 8.284s-3.716 8.285-8.284 8.285z"></path>
<path d="M11.536 30.336c-6.198 0-11.241-5.043-11.241-11.241s5.043-11.241 11.241-11.241 11.241 5.043 11.241 11.241-5.043 11.241-11.241 11.241zM11.536 9.187c-5.463 0-9.908 4.445-9.908 9.908s4.445 9.908 9.908 9.908c5.464 0 9.908-4.444 9.908-9.908s-4.444-9.908-9.908-9.908z"></path>
<path d="M16.961 19.762h-10.849c-0.369 0-0.667-0.298-0.667-0.667s0.298-0.667 0.667-0.667h10.849c0.369 0 0.667 0.298 0.667 0.667s-0.298 0.667-0.667 0.667z"></path>
<path d="M23.478 13.656c-0.369 0-0.667-0.298-0.667-0.667v-6.075c0-0.369 0.298-0.667 0.667-0.667s0.667 0.298 0.667 0.667v6.075c0 0.369-0.298 0.667-0.667 0.667z"></path>
<path d="M26.516 10.618h-6.075c-0.369 0-0.667-0.298-0.667-0.667s0.298-0.667 0.667-0.667h6.075c0.369 0 0.667 0.298 0.667 0.667s-0.298 0.667-0.667 0.667z"></path>
</svg>
