<!-- Generated by IcoMoon.io -->
<svg version="1.1" xmlns="http://www.w3.org/2000/svg" width="32" height="32" viewBox="0 0 32 32">
<title>poison_danger_death_caution</title>
<path d="M16 1c0 0 0 0 0 0-7.2 0-13 5.8-13 13v6.3c0 2 1.2 3.9 3.1 4.6l1.5 0.6c0.3 0.1 0.5 0.4 0.6 0.7l0.6 3.1c0.2 0.9 1 1.6 2 1.6h10.4c0.9 0 1.8-0.7 2-1.6l0.6-3.1c0.1-0.3 0.3-0.6 0.6-0.7l1.5-0.6c1.9-0.8 3.1-2.6 3.1-4.6v-6.2c0-3.5-1.4-6.8-3.9-9.3-2.4-2.4-5.7-3.8-9.1-3.8zM27 20.3c0 1.2-0.7 2.3-1.9 2.8l-1.5 0.6c-0.9 0.4-1.6 1.2-1.8 2.2l-0.6 3.1h-1.2v-1c0-0.6-0.4-1-1-1s-1 0.4-1 1v1h-1v-1c0-0.6-0.4-1-1-1s-1 0.4-1 1v1h-1v-1c0-0.6-0.4-1-1-1s-1 0.4-1 1v1h-1.2l-0.6-3.1c-0.2-1-0.9-1.8-1.8-2.2l-1.5-0.6c-1.2-0.5-1.9-1.6-1.9-2.8v-6.3c0-6.1 4.9-11 11-11 0 0 0 0 0 0 2.9 0 5.6 1.1 7.7 3.2s3.3 4.9 3.3 7.9v6.2z"></path>
<path d="M10.5 14c-1.9 0-3.5 1.6-3.5 3.5s1.6 3.5 3.5 3.5 3.5-1.6 3.5-3.5-1.6-3.5-3.5-3.5zM10.5 19c-0.8 0-1.5-0.7-1.5-1.5s0.7-1.5 1.5-1.5 1.5 0.7 1.5 1.5-0.7 1.5-1.5 1.5z"></path>
<path d="M18 17.5c0 1.9 1.6 3.5 3.5 3.5s3.5-1.6 3.5-3.5-1.6-3.5-3.5-3.5-3.5 1.6-3.5 3.5zM23 17.5c0 0.8-0.7 1.5-1.5 1.5s-1.5-0.7-1.5-1.5 0.7-1.5 1.5-1.5 1.5 0.7 1.5 1.5z"></path>
<path d="M16.9 20.7c-0.1-0.4-0.5-0.7-0.9-0.7s-0.8 0.3-0.9 0.7l-1 3c-0.1 0.3-0.1 0.6 0.1 0.9s0.5 0.4 0.8 0.4h2c0.3 0 0.6-0.2 0.8-0.4 0.2-0.3 0.2-0.6 0.1-0.9l-1-3z"></path>
</svg>
