<svg version="1.1" xmlns="http://www.w3.org/2000/svg" width="32" height="32" viewBox="0 0 32 32">
<title>poison_danger_death_caution</title>
<path d="M15.982 20.211v0c-0.841 0-1.697-0.126-2.619-0.387-0.191-0.055-0.348-0.191-0.428-0.372l-0.411-0.932-3.119-1.475c-0.332-0.158-0.475-0.553-0.318-0.885 0.014-0.035 0.451-1.114-0.724-2.628-1.601-2.062-1.441-5.67-1.433-5.835-0.053-1.626 0.628-3.264 1.925-4.619 1.721-1.799 4.32-2.832 7.131-2.832 2.802 0 5.4 1.029 7.126 2.824 1.307 1.359 1.991 3.056 1.925 4.777 0.018 0.578 0.038 3.788-1.436 5.685-1.175 1.515-0.738 2.594-0.719 2.639 0.138 0.329-0.001 0.721-0.324 0.875l-3.117 1.475-0.411 0.932c-0.079 0.181-0.237 0.318-0.427 0.372-0.922 0.261-1.777 0.387-2.619 0.387zM14.025 18.621c1.376 0.344 2.538 0.346 3.913 0l0.383-0.867c0.064-0.146 0.18-0.264 0.324-0.333l2.848-1.348c-0.104-0.714-0.044-1.944 1.053-3.36 1.22-1.569 1.167-4.54 1.156-4.873 0.053-1.401-0.497-2.751-1.552-3.846-1.477-1.535-3.724-2.415-6.165-2.415-2.449 0-4.697 0.882-6.167 2.421-1.044 1.091-1.609 2.44-1.553 3.701 0.002 0.038 0 0.076-0.005 0.113-0.013 0.422-0.054 3.342 1.156 4.9 1.098 1.416 1.158 2.647 1.053 3.36l2.848 1.348c0.145 0.069 0.26 0.187 0.325 0.333l0.383 0.867z"></path>
<path d="M19.171 14.575c-1.284 0-2.349-0.975-2.375-2.173v-0.732c0-0.010 0-0.149 0.001-0.159 0.059-1.219 1.102-2.173 2.374-2.173 1.258 0 2.299 0.943 2.371 2.148 0.001 0.018 0.003 0.17 0.001 0.187v0.597c0.001 1.309-1.064 2.305-2.373 2.305zM19.171 10.67c-0.56 0-1.017 0.397-1.042 0.904l-0.001 0.781c0.010 0.497 0.479 0.887 1.043 0.887 0.574 0 1.040-0.398 1.040-0.887l-0.001-0.83c-0.029-0.461-0.486-0.855-1.039-0.855z"></path>
<path d="M12.945 14.575c-1.283 0-2.348-0.975-2.374-2.173l0.001-0.733c0-0.012 0.001-0.147 0.001-0.159 0.056-1.217 1.098-2.173 2.372-2.173 1.258 0 2.299 0.944 2.37 2.149l0.001 0.784c0.003 1.309-1.063 2.305-2.372 2.305zM12.946 10.67c-0.56 0-1.017 0.397-1.040 0.903l-0.001 0.782c0.010 0.497 0.478 0.887 1.041 0.887 0.574 0 1.042-0.398 1.042-0.887l-0.003-0.65 0.667-0.18-0.665 0.039c-0.030-0.501-0.486-0.894-1.040-0.894z"></path>
<path d="M21.725 29.193c-0.1 0-0.201-0.022-0.296-0.069l-11.62-5.757c-0.329-0.164-0.465-0.564-0.301-0.893 0.163-0.331 0.56-0.465 0.894-0.302l11.619 5.757c0.331 0.164 0.465 0.564 0.302 0.893-0.117 0.236-0.353 0.371-0.598 0.371z"></path>
<path d="M8.794 24.927c-0.367 0-0.727-0.102-1.041-0.293-0.455-0.279-0.773-0.717-0.898-1.236s-0.040-1.053 0.239-1.508c0.15-0.245 0.349-0.451 0.586-0.608 0.033-0.283 0.126-0.553 0.275-0.798 0.558-0.909 1.831-1.217 2.743-0.658 0.454 0.277 0.772 0.716 0.897 1.234 0.124 0.517 0.039 1.053-0.239 1.507-0.151 0.246-0.35 0.452-0.587 0.609-0.032 0.281-0.124 0.552-0.274 0.797-0.367 0.598-1.003 0.953-1.703 0.953zM9.658 20.865c-0.232 0-0.443 0.119-0.564 0.315-0.077 0.126-0.106 0.271-0.087 0.428 0.038 0.309-0.142 0.603-0.435 0.708-0.102 0.038-0.244 0.115-0.341 0.271-0.092 0.151-0.12 0.328-0.079 0.5s0.147 0.318 0.297 0.409c0.305 0.187 0.726 0.085 0.909-0.217 0.096-0.156 0.1-0.318 0.086-0.426-0.039-0.309 0.141-0.604 0.435-0.71 0.102-0.038 0.245-0.115 0.342-0.272 0.091-0.15 0.12-0.327 0.078-0.499s-0.147-0.318-0.297-0.409c-0.105-0.065-0.225-0.099-0.345-0.099z"></path>
<path d="M22.302 31.706v0c-0.366 0-0.727-0.102-1.039-0.293-0.937-0.577-1.233-1.806-0.66-2.743 0.151-0.246 0.35-0.452 0.586-0.608 0.033-0.284 0.126-0.553 0.277-0.799 0.555-0.908 1.829-1.217 2.741-0.659 0.454 0.279 0.773 0.717 0.898 1.236 0.124 0.517 0.039 1.053-0.238 1.507-0.151 0.246-0.349 0.452-0.586 0.609-0.033 0.283-0.126 0.553-0.277 0.799-0.365 0.596-1.001 0.952-1.702 0.952zM23.168 27.643c-0.233 0-0.444 0.119-0.565 0.315-0.096 0.158-0.1 0.318-0.087 0.426 0.039 0.309-0.142 0.604-0.435 0.71-0.102 0.038-0.243 0.115-0.341 0.272-0.189 0.31-0.091 0.719 0.22 0.91 0.303 0.182 0.723 0.079 0.908-0.219 0.096-0.158 0.1-0.319 0.087-0.427-0.039-0.309 0.142-0.604 0.435-0.71 0.103-0.038 0.245-0.115 0.34-0.271 0.092-0.151 0.121-0.328 0.079-0.5-0.040-0.172-0.146-0.316-0.297-0.409-0.104-0.064-0.224-0.098-0.344-0.098z"></path>
<path d="M10.242 29.193c-0.244 0-0.479-0.134-0.596-0.367-0.165-0.328-0.033-0.729 0.296-0.895l11.428-5.757c0.325-0.164 0.728-0.035 0.895 0.296 0.165 0.328 0.034 0.729-0.296 0.895l-11.426 5.757c-0.096 0.048-0.199 0.072-0.299 0.072z"></path>
<path d="M23.167 24.927c-0.701 0-1.336-0.355-1.702-0.952-0.15-0.246-0.243-0.517-0.276-0.799-0.236-0.156-0.435-0.362-0.585-0.607-0.575-0.939-0.28-2.168 0.659-2.743 0.908-0.557 2.184-0.25 2.742 0.659 0.15 0.246 0.243 0.517 0.276 0.798 0.236 0.158 0.435 0.363 0.585 0.608 0.279 0.454 0.363 0.991 0.24 1.508-0.125 0.518-0.444 0.957-0.898 1.236-0.314 0.191-0.673 0.293-1.040 0.293zM22.303 20.865c-0.121 0-0.24 0.034-0.344 0.098-0.311 0.191-0.41 0.599-0.219 0.91 0.096 0.156 0.238 0.233 0.34 0.271 0.293 0.105 0.474 0.401 0.435 0.71-0.013 0.108-0.009 0.269 0.087 0.427 0.182 0.298 0.599 0.402 0.909 0.216 0.31-0.19 0.409-0.598 0.217-0.909-0.096-0.156-0.238-0.233-0.34-0.271-0.293-0.105-0.474-0.401-0.435-0.71 0.013-0.108 0.009-0.269-0.087-0.427-0.121-0.197-0.331-0.315-0.564-0.315z"></path>
<path d="M9.658 31.706c-0.701 0-1.337-0.355-1.702-0.953-0.15-0.245-0.243-0.514-0.276-0.798-0.238-0.158-0.437-0.365-0.587-0.611-0.277-0.452-0.362-0.987-0.238-1.505s0.443-0.957 0.897-1.236c0.911-0.557 2.186-0.251 2.742 0.66 0.151 0.245 0.244 0.514 0.276 0.797 0.237 0.158 0.436 0.363 0.586 0.608 0.574 0.939 0.279 2.169-0.658 2.743-0.315 0.193-0.674 0.294-1.041 0.294zM8.793 27.643c-0.121 0-0.24 0.034-0.344 0.098-0.15 0.091-0.256 0.237-0.297 0.409s-0.013 0.349 0.079 0.499c0.096 0.158 0.238 0.234 0.341 0.272 0.293 0.105 0.473 0.4 0.435 0.708-0.014 0.109-0.009 0.271 0.086 0.427 0.186 0.301 0.605 0.406 0.909 0.219 0.311-0.19 0.409-0.599 0.218-0.91-0.096-0.156-0.238-0.233-0.341-0.271-0.294-0.105-0.474-0.401-0.435-0.71 0.014-0.108 0.010-0.268-0.086-0.425-0.122-0.198-0.333-0.316-0.566-0.316z"></path>
<path d="M15.981 17.665c-0.369 0-0.667-0.298-0.667-0.667v-2.013c0-0.369 0.298-0.667 0.667-0.667s0.667 0.298 0.667 0.667v2.013c0 0.369-0.298 0.667-0.667 0.667z"></path>
</svg>
