<svg version="1.1" xmlns="http://www.w3.org/2000/svg" width="32" height="32" viewBox="0 0 32 32">
<title>polaroid_picture_image_photo</title>
<path d="M26.464 24h-20.964c-0.837 0-1.518-0.681-1.518-1.518v-16.963c0-0.837 0.681-1.519 1.518-1.519h20.964c0.837 0 1.518 0.682 1.518 1.519v16.963c-0 0.837-0.681 1.518-1.518 1.518zM5.5 5.333c-0.102 0-0.185 0.083-0.185 0.186v16.963c0 0.101 0.083 0.185 0.185 0.185h20.964c0.102 0 0.185-0.083 0.185-0.185v-16.963c-0-0.102-0.083-0.186-0.185-0.186h-20.964z"></path>
<path d="M10.602 13.324c-1.486 0-2.694-1.208-2.694-2.694s1.208-2.694 2.694-2.694 2.694 1.208 2.694 2.694-1.208 2.694-2.694 2.694zM10.602 9.269c-0.75 0-1.361 0.611-1.361 1.361s0.611 1.361 1.361 1.361 1.361-0.611 1.361-1.361-0.611-1.361-1.361-1.361z"></path>
<path d="M8.574 24c-0.133 0-0.268-0.039-0.385-0.122-0.3-0.212-0.372-0.629-0.159-0.93l7.706-10.89c0.124-0.175 0.323-0.279 0.536-0.281 0.197-0.004 0.417 0.098 0.543 0.269l2.516 3.393 3.456-5.435c0.12-0.189 0.325-0.305 0.549-0.309 0.228-0.008 0.434 0.103 0.56 0.286l3.965 5.706c0.211 0.302 0.135 0.717-0.167 0.927-0.301 0.211-0.717 0.135-0.927-0.167l-3.393-4.882-3.439 5.408c-0.117 0.185-0.319 0.301-0.539 0.309-0.229-0.010-0.43-0.094-0.559-0.269l-2.544-3.433-7.175 10.139c-0.13 0.184-0.336 0.281-0.545 0.281z"></path>
<path d="M30.262 32h-28.559c-0.949 0-1.721-0.772-1.721-1.721v-28.557c-0-0.949 0.772-1.722 1.721-1.722h28.559c0.948 0 1.72 0.773 1.72 1.722v28.557c0 0.949-0.772 1.721-1.72 1.721zM1.703 1.333c-0.214 0-0.387 0.175-0.387 0.389v28.557c0 0.214 0.174 0.388 0.387 0.388h28.559c0.214 0 0.387-0.175 0.387-0.388v-28.557c0-0.214-0.173-0.389-0.387-0.389h-28.559z"></path>
<path d="M21.315 28h-10.667c-0.369 0-0.667-0.298-0.667-0.667s0.298-0.667 0.667-0.667h10.667c0.369 0 0.667 0.298 0.667 0.667s-0.298 0.667-0.667 0.667z"></path>
</svg>
