<svg version="1.1" xmlns="http://www.w3.org/2000/svg" width="32" height="32" viewBox="0 0 32 32">
<title>post_stamp</title>
<path d="M27.202 29.829c-0.465 0-0.932-0.155-1.352-0.466-0.092-0.068-0.418-0.277-0.697-0.053-0.801 0.641-1.901 0.675-2.732 0.082-0.267-0.193-0.575-0.195-0.845 0-0.796 0.568-1.828 0.566-2.622 0-0.267-0.193-0.575-0.195-0.845 0-0.792 0.568-1.822 0.569-2.622 0-0.268-0.193-0.576-0.193-0.844 0-0.794 0.566-1.825 0.569-2.622 0-0.269-0.193-0.576-0.193-0.844 0-0.833 0.592-1.929 0.564-2.731-0.082-0.278-0.223-0.604-0.016-0.697 0.055-0.654 0.484-1.451 0.587-2.191 0.286-0.799-0.328-1.383-1.095-1.525-2.003-0.057-0.365 0.193-0.706 0.557-0.762 0.367-0.051 0.705 0.194 0.761 0.556 0.070 0.449 0.343 0.823 0.713 0.974 0.173 0.072 0.521 0.151 0.889-0.122 0.741-0.553 1.656-0.564 2.327-0.023 0.34 0.272 0.769 0.286 1.122 0.035 0.727-0.518 1.667-0.518 2.393 0 0.331 0.237 0.743 0.237 1.074 0 0.727-0.518 1.667-0.518 2.393 0 0.329 0.236 0.741 0.237 1.073 0.001 0.729-0.521 1.667-0.519 2.393-0.001 0.333 0.237 0.746 0.236 1.075 0 0.724-0.517 1.663-0.519 2.392 0 0.354 0.253 0.785 0.237 1.124-0.036 0.668-0.536 1.582-0.527 2.327 0.022 0.525 0.392 0.958 0.13 1.172-0.057 0.41-0.366 0.665-1.081 0.255-1.784-0.453-0.779-0.462-1.699-0.023-2.4 0.276-0.44 0.29-1.043 0.035-1.499-0.426-0.764-0.426-1.715 0-2.481 0.245-0.437 0.243-1.001 0-1.439-0.18-0.322-0.064-0.728 0.257-0.908 0.319-0.178 0.727-0.064 0.908 0.257 0.465 0.833 0.465 1.909 0 2.74-0.203 0.363-0.203 0.816 0 1.181 0.493 0.883 0.466 2.004-0.070 2.855-0.172 0.276-0.154 0.677 0.047 1.022 0.751 1.288 0.307 2.711-0.519 3.449-0.447 0.399-0.973 0.6-1.504 0.6z"></path>
<path d="M4.664 16.1c-0.369 0-0.667-0.299-0.667-0.667 0-0.536 0.146-1.050 0.421-1.488 0.173-0.275 0.154-0.675-0.046-1.020-0.32-0.55-0.441-1.214-0.34-1.868 0.141-0.909 0.726-1.676 1.526-2.004 0.74-0.302 1.536-0.197 2.188 0.287 0.093 0.069 0.417 0.277 0.699 0.054 0.802-0.642 1.9-0.675 2.731-0.081 0.268 0.19 0.576 0.191 0.844-0.001 0.798-0.568 1.826-0.568 2.623 0.001 0.268 0.19 0.575 0.191 0.844-0.001 0.797-0.568 1.824-0.568 2.624 0.001 0.299 0.214 0.369 0.63 0.155 0.93-0.215 0.301-0.629 0.369-0.931 0.155-0.331-0.235-0.741-0.236-1.073 0-0.727 0.519-1.667 0.519-2.393 0.001-0.331-0.237-0.743-0.236-1.074-0.001-0.727 0.519-1.667 0.519-2.393 0.001-0.352-0.251-0.781-0.237-1.122 0.036-0.671 0.537-1.582 0.529-2.328-0.024-0.369-0.275-0.715-0.194-0.887-0.124-0.371 0.152-0.644 0.525-0.714 0.974-0.055 0.353 0.007 0.706 0.175 0.993 0.454 0.78 0.463 1.7 0.023 2.4-0.142 0.225-0.217 0.495-0.217 0.779-0 0.369-0.298 0.667-0.667 0.667z"></path>
<path d="M7.337 14.711c-0.369 0-0.667-0.298-0.667-0.667v-1.378c0-0.369 0.298-0.667 0.667-0.667h9.229c0.369 0 0.667 0.298 0.667 0.667s-0.298 0.667-0.667 0.667h-8.563v0.711c0 0.369-0.298 0.667-0.667 0.667z"></path>
<path d="M26.004 26.667h-9.191c-0.369 0-0.667-0.298-0.667-0.667s0.298-0.667 0.667-0.667h8.525v-6c0-0.369 0.298-0.667 0.667-0.667s0.667 0.298 0.667 0.667v6.667c0 0.369-0.298 0.667-0.667 0.667z"></path>
<path d="M25.327 15.196c-2.206 0-4-1.832-4-4.083s1.794-4.083 4-4.083 4 1.832 4 4.083-1.794 4.083-4 4.083zM25.327 8.363c-1.47 0-2.667 1.234-2.667 2.75s1.197 2.75 2.667 2.75 2.667-1.234 2.667-2.75-1.197-2.75-2.667-2.75z"></path>
<path d="M25.327 17.553c-3.474 0-6.299-2.889-6.299-6.441s2.825-6.441 6.299-6.441 6.299 2.889 6.299 6.441-2.825 6.441-6.299 6.441zM25.327 6.005c-2.738 0-4.966 2.291-4.966 5.107s2.228 5.107 4.966 5.107 4.966-2.291 4.966-5.107-2.228-5.107-4.966-5.107z"></path>
<path d="M12.488 19.518c-0.806 0-1.563-0.32-2.131-0.902-0.631-0.648-1.723-0.647-2.352-0.001-1.137 1.167-3.125 1.165-4.262 0.001-0.63-0.648-1.723-0.648-2.353 0-0.257 0.262-0.68 0.269-0.943 0.010-0.264-0.257-0.269-0.678-0.012-0.943 1.137-1.164 3.125-1.164 4.262 0 0.63 0.648 1.723 0.648 2.353 0 1.135-1.163 3.126-1.165 4.261 0.001 0.63 0.646 1.723 0.647 2.353-0.001 0.258-0.262 0.68-0.269 0.943-0.010 0.264 0.257 0.269 0.678 0.012 0.943-0.568 0.582-1.325 0.902-2.131 0.902z"></path>
<path d="M12.488 22.733c-0.806 0-1.563-0.32-2.131-0.902-0.631-0.65-1.723-0.647-2.352-0.001-1.137 1.167-3.125 1.165-4.262 0.001-0.63-0.648-1.723-0.648-2.353 0-0.257 0.263-0.68 0.271-0.943 0.010-0.264-0.257-0.269-0.678-0.012-0.943 1.137-1.164 3.125-1.164 4.262 0 0.63 0.648 1.723 0.648 2.353 0 1.135-1.163 3.126-1.165 4.261 0.001 0.63 0.646 1.723 0.647 2.353-0.001 0.258-0.26 0.68-0.268 0.943-0.010 0.264 0.257 0.269 0.678 0.012 0.943-0.568 0.582-1.325 0.902-2.131 0.902z"></path>
<path d="M12.488 25.948c-0.805 0-1.563-0.322-2.13-0.902-0.633-0.65-1.724-0.647-2.353-0.001-1.137 1.164-3.126 1.163-4.261 0.001-0.631-0.648-1.723-0.648-2.353 0-0.257 0.263-0.68 0.271-0.943 0.010-0.264-0.257-0.269-0.678-0.012-0.943 1.137-1.164 3.125-1.164 4.262 0 0.63 0.646 1.722 0.646 2.353 0 1.134-1.163 3.125-1.165 4.26 0.001 0.63 0.643 1.722 0.645 2.353-0.001 0.257-0.262 0.678-0.269 0.943-0.010 0.263 0.257 0.268 0.68 0.010 0.943-0.568 0.581-1.325 0.902-2.13 0.902z"></path>
</svg>
