<!-- Generated by IcoMoon.io -->
<svg version="1.1" xmlns="http://www.w3.org/2000/svg" width="32" height="32" viewBox="0 0 32 32">
<title>power_on_off</title>
<path d="M29 16v0c0 7.2-5.8 13-13 13s-13-5.8-13-13c0-3.9 1.7-7.6 4.7-10 0.2-0.2 0.5-0.3 0.9-0.3 0.8 0 1.4 0.6 1.4 1.4 0 0.4-0.2 0.8-0.5 1.1v0c-2.3 2-3.7 4.8-3.7 7.9 0 5.7 4.6 10.3 10.2 10.3 5.7 0 10.2-4.6 10.2-10.3 0-3.2-1.4-6-3.7-7.9v0c-0.3-0.4-0.5-0.8-0.5-1.2 0-0.8 0.6-1.4 1.4-1.4 0.3 0 0.7 0.1 0.9 0.3v0c2.9 2.4 4.7 6 4.7 10.1zM16 17c0.8 0 1.4-0.6 1.4-1.4v-11.2c0-0.8-0.6-1.4-1.4-1.4s-1.4 0.6-1.4 1.4v11.2c0 0.8 0.6 1.4 1.4 1.4z"></path>
</svg>
