<!-- Generated by IcoMoon.io -->
<svg version="1.1" xmlns="http://www.w3.org/2000/svg" width="32" height="32" viewBox="0 0 32 32">
<title>presentation_powerpoint_keynote_meeting</title>
<path d="M27.319 31.901v0c-0.369 0-0.667-0.298-0.667-0.667l0.001-11.060c0-0.369 0.298-0.667 0.667-0.667v0c0.369 0 0.667 0.298 0.667 0.667l-0.001 11.060c0 0.368-0.298 0.667-0.667 0.667z"></path>
<path d="M27.32 7.060c-1.486 0-2.471-1.866-2.471-3.1 0-1.381 1.108-2.505 2.471-2.505s2.47 1.124 2.47 2.505c0 1.234-0.986 3.1-2.47 3.1zM27.32 2.788c-0.628 0-1.138 0.525-1.138 1.172 0 0.776 0.638 1.767 1.138 1.767s1.137-0.991 1.137-1.767c0-0.646-0.51-1.172-1.137-1.172z"></path>
<path d="M29.654 31.901c-0.012 0-0.023 0-0.036-0.001-0.367-0.019-0.65-0.335-0.629-0.702l0.714-13.078c0.009-0.18 0.122-0.415 0.259-0.534 0.187-0.163 0.408-0.202 0.612-0.202 0.206-6.229-0.117-8.132-0.275-8.677-0.122-0.005-0.272-0.010-0.408-0.016l-0.384-0.018c-0.048-0.006-0.099 0.050-0.138 0.125-0.363 0.72-1.148 1.169-2.048 1.169s-1.686-0.449-2.051-1.17c-0.038-0.075-0.086-0.113-0.137-0.124-0.316 0.035-5.809 0.937-7.656 1.25l6.858 0.618c0.342 0.033 0.604 0.32 0.604 0.664v6.951l0.712 13.042c0.021 0.367-0.262 0.682-0.629 0.702-0.395 0.055-0.681-0.262-0.702-0.629l-0.714-13.078-0.001-6.38-6.254-0.583c-0.663-0.063-1.163-0.597-1.187-1.271-0.025-0.683 0.425-1.238 1.091-1.35 1.172-0.198 7.509-1.247 7.792-1.266 0.574-0.046 1.129 0.29 1.413 0.853 0.325 0.645 1.395 0.648 1.72-0.001 0.286-0.564 0.829-0.889 1.41-0.853l0.357 0.016c0.69 0.029 0.832 0.040 0.956 0.075 0.092 0.027 0.178 0.074 0.251 0.137 0.296 0.253 1.081 0.926 0.732 10.44-0.008 0.184-0.117 0.417-0.257 0.538-0.193 0.167-0.421 0.202-0.626 0.201l-0.684 12.522c-0.020 0.355-0.314 0.63-0.665 0.63z"></path>
<path d="M12.652 2.667c-0.369 0-0.667-0.298-0.667-0.667v-1.309c0-0.369 0.298-0.667 0.667-0.667s0.667 0.298 0.667 0.667v1.309c0 0.369-0.298 0.667-0.667 0.667z"></path>
<path d="M20.652 2.667c-0.369 0-0.667-0.298-0.667-0.667v-1.309c0-0.369 0.298-0.667 0.667-0.667s0.667 0.298 0.667 0.667v1.309c0 0.369-0.298 0.667-0.667 0.667z"></path>
<path d="M21.319 25.333h-20.667c-0.369 0-0.667-0.298-0.667-0.667v-22.667c0-0.369 0.298-0.667 0.667-0.667h22c0.369 0 0.667 0.298 0.667 0.667s-0.298 0.667-0.667 0.667h-21.333v21.333h20c0.369 0 0.667 0.298 0.667 0.667s-0.298 0.667-0.667 0.667z"></path>
<path d="M16.652 32c-0.369 0-0.667-0.298-0.667-0.667v-3.832c0-0.369 0.298-0.667 0.667-0.667s0.667 0.298 0.667 0.667v3.832c0 0.369-0.298 0.667-0.667 0.667z"></path>
<path d="M19.986 32h-8c-0.369 0-0.667-0.298-0.667-0.667s0.298-0.667 0.667-0.667h8c0.369 0 0.667 0.298 0.667 0.667s-0.298 0.667-0.667 0.667z"></path>
<path d="M10.003 21.333h-5.333c-0.369 0-0.667-0.298-0.667-0.667v-5.334c0-0.369 0.298-0.667 0.667-0.667h5.333c0.369 0 0.667 0.298 0.667 0.667v5.334c0 0.369-0.298 0.667-0.667 0.667zM5.337 20h4v-4.001h-4v4.001z"></path>
<path d="M10.003 11.999h-5.333c-0.369 0-0.667-0.298-0.667-0.667v-5.333c0-0.369 0.298-0.667 0.667-0.667h5.333c0.369 0 0.667 0.298 0.667 0.667v5.333c0 0.369-0.298 0.667-0.667 0.667zM5.337 10.666h4v-4h-4v4z"></path>
<path d="M19.142 7.999h-6.371c-0.369 0-0.667-0.298-0.667-0.667s0.298-0.667 0.667-0.667h6.371c0.369 0 0.667 0.298 0.667 0.667s-0.298 0.667-0.667 0.667z"></path>
<path d="M19.142 17.333h-6.371c-0.369 0-0.667-0.298-0.667-0.667s0.298-0.667 0.667-0.667h6.371c0.369 0 0.667 0.298 0.667 0.667s-0.298 0.667-0.667 0.667z"></path>
<path d="M14.006 10.666h-1.235c-0.369 0-0.667-0.298-0.667-0.667s0.298-0.667 0.667-0.667h1.235c0.369 0 0.667 0.298 0.667 0.667s-0.298 0.667-0.667 0.667z"></path>
<path d="M14.006 20h-1.235c-0.369 0-0.667-0.298-0.667-0.667s0.298-0.667 0.667-0.667h1.235c0.369 0 0.667 0.298 0.667 0.667s-0.298 0.667-0.667 0.667z"></path>
</svg>
