<!-- Generated by IcoMoon.io -->
<svg version="1.1" xmlns="http://www.w3.org/2000/svg" width="32" height="32" viewBox="0 0 32 32">
<title>printer</title>
<path d="M25.5 7h-0.5v-0.5c0-1.9-1.6-3.5-3.5-3.5h-11c-1.9 0-3.5 1.6-3.5 3.5v0.5h-0.5c-1.9 0-3.5 1.6-3.5 3.5v10c0 1.9 1.6 3.5 3.5 3.5h0.5v2.5c0 1.4 1.1 2.5 2.5 2.5h13c1.4 0 2.5-1.1 2.5-2.5v-2.5h0.5c1.9 0 3.5-1.6 3.5-3.5v-10c0-1.9-1.6-3.5-3.5-3.5zM9 6.5c0-0.8 0.7-1.5 1.5-1.5h11c0.8 0 1.5 0.7 1.5 1.5v0.5h-14v-0.5zM23 26.5c0 0.3-0.2 0.5-0.5 0.5h-13c-0.3 0-0.5-0.2-0.5-0.5v-10c0-0.3 0.2-0.5 0.5-0.5h13c0.3 0 0.5 0.2 0.5 0.5v10zM27 20.5c0 0.8-0.7 1.5-1.5 1.5h-0.5v-5.5c0-1.4-1.1-2.5-2.5-2.5h-13c-1.4 0-2.5 1.1-2.5 2.5v5.5h-0.5c-0.8 0-1.5-0.7-1.5-1.5v-10c0-0.8 0.7-1.5 1.5-1.5h19c0.8 0 1.5 0.7 1.5 1.5v10z"></path>
<path d="M26 11.5c0 0.828-0.672 1.5-1.5 1.5s-1.5-0.672-1.5-1.5c0-0.828 0.672-1.5 1.5-1.5s1.5 0.672 1.5 1.5z"></path>
</svg>
