<svg version="1.1" xmlns="http://www.w3.org/2000/svg" width="32" height="32" viewBox="0 0 32 32">
<title>printer</title>
<path d="M20.572 28.021h-9.193c-0.369 0-0.667-0.298-0.667-0.667s0.298-0.667 0.667-0.667h9.193c0.369 0 0.667 0.298 0.667 0.667s-0.298 0.667-0.667 0.667z"></path>
<path d="M20.572 25.354h-9.193c-0.369 0-0.667-0.298-0.667-0.667s0.298-0.667 0.667-0.667h9.193c0.369 0 0.667 0.298 0.667 0.667s-0.298 0.667-0.667 0.667z"></path>
<path d="M23.328 10.738h-14.653c-0.369 0-0.667-0.298-0.667-0.667s0.298-0.667 0.667-0.667h14.653c0.369 0 0.667 0.298 0.667 0.667s-0.298 0.667-0.667 0.667z"></path>
<path d="M28.651 19.971h-25.335c-1.831 0-3.322-1.509-3.322-3.363v-9.213c0-1.855 1.49-3.364 3.322-3.364h5.359c0.369 0 0.667 0.298 0.667 0.667s-0.298 0.667-0.667 0.667h-5.359c-1.096 0-1.988 0.911-1.988 2.031v9.213c0 1.12 0.892 2.030 1.988 2.030h25.335c1.095 0 1.987-0.91 1.987-2.030v-9.213c0-1.12-0.892-2.031-1.987-2.031h-5.323c-0.369 0-0.667-0.298-0.667-0.667s0.298-0.667 0.667-0.667h5.323c1.831 0 3.32 1.509 3.32 3.364v9.213c0 1.854-1.49 3.363-3.32 3.363z"></path>
<path d="M22.684 32.008h-13.365c-0.722 0-1.31-0.605-1.31-1.35v-8.516c0-0.369 0.298-0.667 0.667-0.667s0.667 0.298 0.667 0.667v8.516l13.342 0.017-0.022-8.533c0-0.369 0.298-0.667 0.667-0.667s0.667 0.298 0.667 0.667v8.516c0 0.745-0.589 1.35-1.311 1.35z"></path>
<path d="M23.328 10.738c-0.369 0-0.667-0.298-0.667-0.667v-5.141l-2.905-3.568-10.401 0.050-0.014 8.659c0 0.369-0.298 0.667-0.667 0.667s-0.667-0.298-0.667-0.667v-8.644c0-0.743 0.604-1.349 1.347-1.349h10.44c0.355 0 0.691 0.137 0.945 0.387l2.901 3.558c0.207 0.201 0.353 0.55 0.353 0.906v5.141c0 0.368-0.298 0.667-0.667 0.667z"></path>
<path d="M27.306 16.026c-0.186 0-0.346-0.079-0.479-0.2-0.12-0.133-0.187-0.293-0.187-0.466s0.068-0.347 0.187-0.467c0.266-0.267 0.693-0.253 0.947-0.014 0.12 0.12 0.199 0.294 0.199 0.481 0 0.173-0.066 0.346-0.199 0.466-0.12 0.121-0.294 0.2-0.467 0.2z"></path>
</svg>
