<svg version="1.1" xmlns="http://www.w3.org/2000/svg" width="32" height="32" viewBox="0 0 32 32">
<title>profile_user_search_find</title>
<path d="M29.496 31.769c-0.583 0.001-1.165-0.221-1.608-0.664l-8.634-8.634c-0.26-0.26-0.26-0.682 0-0.943s0.682-0.26 0.943 0l8.634 8.634c0.367 0.369 0.965 0.366 1.332 0 0.367-0.367 0.367-0.965 0-1.332l-8.634-8.634c-0.26-0.26-0.26-0.682 0-0.943s0.682-0.26 0.943 0l8.634 8.634c0.887 0.887 0.887 2.329 0 3.217-0.444 0.443-1.027 0.664-1.609 0.664z"></path>
<path d="M12.638 25.046c-6.842 0-12.408-5.566-12.408-12.408s5.566-12.408 12.408-12.408c6.842 0 12.409 5.566 12.409 12.408s-5.566 12.408-12.409 12.408zM12.638 1.563c-6.107 0-11.075 4.968-11.075 11.075s4.968 11.074 11.075 11.074 11.075-4.967 11.075-11.074-4.969-11.075-11.075-11.075z"></path>
<path d="M17.591 18.592h-9.936c-0.577 0-1.046-0.49-1.046-1.092v-1.493c0-0.445 0.255-0.842 0.649-1.010 2.559-1.095 3.221-1.611 3.388-1.785v-0.182c-0.315-0.415-0.565-0.928-0.733-1.507-0.484-0.517-0.583-1.313-0.242-1.951v-1.148c0-1.846 1.131-2.992 2.951-2.992 1.847 0 2.95 1.119 2.95 2.992v1.147c0.343 0.64 0.243 1.436-0.242 1.953-0.168 0.578-0.417 1.091-0.732 1.506v0.204c0.122 0.117 0.738 0.63 3.388 1.764 0.393 0.167 0.648 0.563 0.648 1.010v1.493c0 0.603-0.469 1.092-1.044 1.092zM7.943 17.259h9.359v-1.105c-3.107-1.341-3.842-1.984-4.011-2.583-0.017-0.059-0.025-0.12-0.025-0.181v-0.598c0-0.163 0.059-0.32 0.167-0.441 0.286-0.324 0.52-0.803 0.658-1.35 0.036-0.144 0.12-0.272 0.238-0.363s0.159-0.32 0.040-0.482c-0.084-0.115-0.13-0.253-0.13-0.395v-1.337c0-1.131-0.514-1.659-1.617-1.659-1.089 0-1.618 0.542-1.618 1.659v1.338c0 0.142-0.046 0.28-0.13 0.395-0.118 0.161-0.075 0.392 0.042 0.483s0.2 0.218 0.236 0.362c0.137 0.546 0.372 1.025 0.659 1.35 0.108 0.122 0.167 0.279 0.167 0.441v0.598c0 0.061-0.008 0.122-0.025 0.181-0.169 0.597-0.904 1.241-4.012 2.583v1.105z"></path>
</svg>
