<!-- Generated by IcoMoon.io -->
<svg version="1.1" xmlns="http://www.w3.org/2000/svg" width="32" height="32" viewBox="0 0 32 32">
<title>punchcard</title>
<path d="M29.528 0.667h-27.056c-0.368 0-0.667 0.299-0.667 0.667s0.299 0.667 0.667 0.667h27.056c0.368 0 0.667-0.299 0.667-0.667s-0.299-0.667-0.667-0.667z"></path>
<path d="M11.413 5.775c0 1.314-1.066 2.38-2.38 2.38s-2.38-1.066-2.38-2.38c0-1.314 1.066-2.38 2.38-2.38s2.38 1.066 2.38 2.38z"></path>
<path d="M30.105 22.916c0 1.314-1.066 2.38-2.38 2.38s-2.38-1.066-2.38-2.38c0-1.314 1.066-2.38 2.38-2.38s2.38 1.066 2.38 2.38z"></path>
<path d="M17.551 28.583c0 1.314-1.066 2.38-2.38 2.38s-2.38-1.066-2.38-2.38c0-1.314 1.066-2.38 2.38-2.38s2.38 1.066 2.38 2.38z"></path>
<path d="M16.768 11.416c0 0.882-0.715 1.597-1.597 1.597s-1.597-0.715-1.597-1.597c0-0.882 0.715-1.597 1.597-1.597s1.597 0.715 1.597 1.597z"></path>
<path d="M29.323 11.416c0 0.882-0.715 1.597-1.597 1.597s-1.597-0.715-1.597-1.597c0-0.882 0.715-1.597 1.597-1.597s1.597 0.715 1.597 1.597z"></path>
<path d="M29.323 28.583c0 0.882-0.715 1.597-1.597 1.597s-1.597-0.715-1.597-1.597c0-0.882 0.715-1.597 1.597-1.597s1.597 0.715 1.597 1.597z"></path>
<path d="M28.54 17.265c0 0.45-0.365 0.815-0.815 0.815s-0.815-0.365-0.815-0.815c0-0.45 0.365-0.815 0.815-0.815s0.815 0.365 0.815 0.815z"></path>
<path d="M22.279 17.265c0 0.45-0.365 0.815-0.815 0.815s-0.815-0.365-0.815-0.815c0-0.45 0.365-0.815 0.815-0.815s0.815 0.365 0.815 0.815z"></path>
<path d="M15.985 17.265c0 0.45-0.365 0.815-0.815 0.815s-0.815-0.365-0.815-0.815c0-0.45 0.365-0.815 0.815-0.815s0.815 0.365 0.815 0.815z"></path>
<path d="M15.985 22.916c0 0.45-0.365 0.815-0.815 0.815s-0.815-0.365-0.815-0.815c0-0.45 0.365-0.815 0.815-0.815s0.815 0.365 0.815 0.815z"></path>
<path d="M22.279 11.416c0 0.45-0.365 0.815-0.815 0.815s-0.815-0.365-0.815-0.815c0-0.45 0.365-0.815 0.815-0.815s0.815 0.365 0.815 0.815z"></path>
<path d="M3.524 11.416c0 0.45-0.365 0.815-0.815 0.815s-0.815-0.365-0.815-0.815c0-0.45 0.365-0.815 0.815-0.815s0.815 0.365 0.815 0.815z"></path>
<path d="M9.848 11.416c0 0.45-0.365 0.815-0.815 0.815s-0.815-0.365-0.815-0.815c0-0.45 0.365-0.815 0.815-0.815s0.815 0.365 0.815 0.815z"></path>
<path d="M22.279 5.775c0 0.45-0.365 0.815-0.815 0.815s-0.815-0.365-0.815-0.815c0-0.45 0.365-0.815 0.815-0.815s0.815 0.365 0.815 0.815z"></path>
<path d="M3.524 17.265c0 0.45-0.365 0.815-0.815 0.815s-0.815-0.365-0.815-0.815c0-0.45 0.365-0.815 0.815-0.815s0.815 0.365 0.815 0.815z"></path>
</svg>
