<svg version="1.1" xmlns="http://www.w3.org/2000/svg" width="32" height="32" viewBox="0 0 32 32">
<title>pushover</title>
<path d="M18.791 6.153c0.469-0.003 0.934 0 1.4 0.053 0.938 0.103 1.813 0.381 2.572 0.956 0.769 0.584 1.194 1.366 1.306 2.322 0.072 0.597 0.034 1.184-0.097 1.769-0.006 0.034-0.009 0.069-0.012 0.103-0.081 0.253-0.144 0.516-0.244 0.762-0.884 2.231-2.428 3.866-4.516 5.013-0.459 0.253-0.941 0.45-1.428 0.641-0.084 0.012-0.163 0.041-0.238 0.078-0.028 0.003-0.059 0.003-0.081 0.025-0.019 0.003-0.034 0.003-0.053 0.006-0.841 0.25-1.697 0.366-2.572 0.359-0.091 0-0.119 0.044-0.147 0.109-0.425 0.959-0.853 1.919-1.281 2.878-0.219 0.494-0.438 0.988-0.653 1.481-0.025 0.031-0.041 0.066-0.044 0.106-0.012 0.025-0.025 0.050-0.037 0.075-0.394 0.884-0.791 1.766-1.181 2.65-0.037 0.084-0.078 0.116-0.172 0.113-0.522-0.003-1.047 0-1.572 0.003-0.675 0-1.35 0-2.025 0-0.025-0.063 0.013-0.1 0.031-0.141 2.409-5.425 4.825-10.85 7.241-16.281 0.037-0.088 0.088-0.125 0.178-0.137 1.019-0.131 2.034-0.266 3.053-0.397 0.253-0.034 0.506-0.069 0.778-0.103-1.284 2.9-2.563 5.781-3.847 8.681 0.313-0.022 0.597-0.081 0.875-0.169 0.772-0.241 1.434-0.675 2.034-1.2 1.591-1.4 2.641-3.131 3.159-5.188 0.106-0.422 0.147-0.853 0.128-1.287-0.031-0.816-0.438-1.384-1.153-1.747-0.494-0.25-1.031-0.322-1.575-0.334-3.803-0.119-7.141 2.466-7.991 6.178-0.084 0.363-0.181 0.722-0.194 1.097-0.009 0.231-0.006 0.459 0.081 0.678 0.034 0.091 0.034 0.134-0.088 0.131-0.325-0.009-0.647-0.050-0.966-0.116-0.2-0.069-0.403-0.134-0.588-0.238-0.453-0.253-0.653-0.653-0.662-1.156-0.009-0.675 0.181-1.306 0.456-1.916 0.4-0.878 1.009-1.6 1.703-2.256 1.491-1.416 3.244-2.378 5.191-3.003 0.997-0.322 2.016-0.528 3.066-0.581 0.050-0.003 0.103-0.013 0.163-0.019v0z"></path>
</svg>
