<svg version="1.1" xmlns="http://www.w3.org/2000/svg" width="32" height="32" viewBox="0 0 32 32">
<title>puzzle_module_part</title>
<path d="M25.9 14.4c0 0 0 0 0 0h-0.9v-4c0-1.9-1.5-3.4-3.4-3.4h-4v-0.9c0-2.2-1.8-4.1-4.1-4.1s-4.1 1.8-4.1 4.1v0.9h-4c-1.8 0-3.4 1.6-3.4 3.5v4.4c0 0.6 0.5 1.1 1.1 1.1h1.7c1.3 0 2.4 1.1 2.4 2.4 0 0.7-0.3 1.4-0.8 1.9-0.4 0.5-1 0.7-1.5 0.7h-1.8c-0.6 0-1.1 0.5-1.1 1.1v4.4c0 1.9 1.6 3.5 3.5 3.5h4.4c0.6 0 1.1-0.5 1.1-1.1v-1.3c0-1.4 1.1-2.5 2.5-2.6 0.7 0 1.4 0.2 1.9 0.7 0.3 0.3 0.6 0.7 0.6 1.4v1.7c0 0.6 0.5 1.1 1.1 1.1h4.4c1.9 0 3.4-1.5 3.4-3.4v-4h0.9c2.3 0 4.1-1.9 4.1-4.2 0.1-2.1-1.7-3.9-4-3.9zM25.9 20.6h-1.8c-0.6 0-1.1 0.5-1.1 1.1v4.9c0 0.8-0.6 1.4-1.4 1.4h-3.6v-0.9c0-1.1-0.4-2.1-1.2-2.9-0.9-0.8-2.1-1.3-3.4-1.3-2.4 0.2-4.4 2.2-4.4 4.7v0.4h-3.5c-0.8 0-1.5-0.7-1.5-1.5v-3.5h0.9c1.1 0 2.2-0.5 3-1.3 0.9-0.9 1.4-2.1 1.3-3.3 0-2.4-2-4.4-4.4-4.4h-0.8v-3.5c0-0.8 0.7-1.5 1.5-1.5h4.8c0.6 0 1.1-0.5 1.1-1.1v-1.8c0-1.2 0.9-2.1 2.1-2.1 1.1 0 2.1 1 2.1 2.1v1.7c0 0.6 0.5 1.1 1.1 1.1h4.8c0.8 0 1.4 0.6 1.4 1.4v4.8c0 0.6 0.5 1.1 1.1 1.1h1.7c0 0 0 0 0 0 1.2 0 2.1 0.9 2.1 2 0.2 1.4-0.7 2.4-1.9 2.4z"></path>
</svg>
