<!-- Generated by IcoMoon.io -->
<svg version="1.1" xmlns="http://www.w3.org/2000/svg" width="32" height="32" viewBox="0 0 32 32">
<title>puzzle_instance</title>
<path d="M29.625 19.913c-0.516-0.541-1.256-0.853-2.028-0.853h-0.228v-2.087c0-0.634-0.244-1.228-0.688-1.669s-1.038-0.684-1.675-0.684h-2.1v-0.228c0-0.728-0.288-1.419-0.806-1.944-0.528-0.534-1.228-0.828-1.978-0.828-1.559 0-2.781 1.219-2.781 2.775v0.228h-2.097c-0.603 0-1.206 0.262-1.653 0.716-0.456 0.463-0.706 1.066-0.706 1.697v2.641c0 0.538 0.438 0.972 0.975 0.972h1.025c0.616 0 1.134 0.516 1.134 1.128 0 0.331-0.147 0.675-0.391 0.919l-0.012 0.012-0.009 0.012c-0.225 0.281-0.563 0.303-0.659 0.303h-1.084c-0.537 0-0.975 0.438-0.975 0.972v2.641c0 1.309 1.109 2.413 2.422 2.413h2.65c0.538 0 0.975-0.438 0.975-0.972v-0.781c0-0.659 0.516-1.194 1.203-1.247 0.269 0.003 0.644 0.059 0.913 0.328 0.163 0.163 0.269 0.328 0.269 0.619v1.022c0 0.538 0.438 0.972 0.975 0.972h2.65c0.637 0 1.231-0.244 1.675-0.684s0.688-1.034 0.688-1.669v-2.087h0.228c0.753 0 1.453-0.297 1.978-0.837 0.516-0.531 0.803-1.238 0.803-1.988 0.031-0.669-0.216-1.309-0.691-1.809zM27.594 22.781h-1.084c-0.538 0-0.975 0.438-0.975 0.972v2.941c0 0.306-0.222 0.528-0.531 0.528h-1.856v-0.228c0-0.753-0.281-1.431-0.816-1.962l-0.012-0.012c-0.625-0.553-1.425-0.859-2.256-0.859h-0.025c-1.622 0.134-2.897 1.472-2.938 3.059h-1.797c-0.309 0-0.591-0.281-0.591-0.587v-1.788h0.228c0.731 0 1.472-0.319 2.028-0.872 0.619-0.616 0.938-1.422 0.875-2.216-0.003-0.775-0.313-1.509-0.875-2.069-0.563-0.563-1.306-0.872-2.088-0.872h-0.169v-1.784c0-0.306 0.281-0.587 0.591-0.587h2.891c0.538 0 0.975-0.438 0.975-0.972v-1.081c0-0.55 0.4-0.947 0.953-0.947 0.491 0 0.953 0.459 0.953 0.947v1.022c0 0.537 0.438 0.972 0.975 0.972h2.891c0.306 0 0.531 0.222 0.531 0.528v2.881c0 0.538 0.438 0.972 0.975 0.972h1.025c0.534 0 0.953 0.391 0.953 0.887v0.022l0.003 0.022c0.047 0.319-0.025 0.606-0.2 0.806-0.153 0.181-0.378 0.278-0.634 0.278z"></path>
<path d="M5.728 2.928h20.544c2.053 0 3.734 1.681 3.734 3.734v4.669h-1.869v-4.669c0-1.028-0.841-1.869-1.869-1.869h-20.541c-1.028 0-1.869 0.841-1.869 1.869v18.675c0 1.028 0.841 1.869 1.869 1.869h5.603v1.869h-5.603c-2.053 0-3.734-1.681-3.734-3.734v-18.678c0-2.053 1.681-3.734 3.734-3.734z"></path>
</svg>
