<svg version="1.1" xmlns="http://www.w3.org/2000/svg" width="32" height="32" viewBox="0 0 32 32">
<title>puzzle_module_connect</title>
<path d="M16 31.49c-0.177 0-0.346-0.070-0.471-0.195l-14.821-14.822c-0.26-0.26-0.26-0.682 0-0.943l5.609-5.609c0.198-0.197 0.497-0.251 0.751-0.133s0.407 0.38 0.385 0.659c-0.079 0.974 0.262 1.918 0.934 2.591 1.242 1.242 3.408 1.242 4.65 0 1.282-1.282 1.282-3.368 0-4.65-0.674-0.674-1.625-1.018-2.591-0.934-0.288 0.014-0.542-0.132-0.659-0.385-0.118-0.254-0.064-0.554 0.133-0.751l5.609-5.609c0.25-0.25 0.693-0.25 0.943 0l4.685 4.686c0.178-0.876 0.608-1.692 1.25-2.335 1.745-1.748 4.79-1.745 6.535 0 1.802 1.801 1.802 4.734 0 6.535-0.646 0.646-1.452 1.075-2.332 1.253l4.682 4.682c0.26 0.26 0.26 0.682 0 0.943l-14.82 14.822c-0.125 0.125-0.294 0.195-0.471 0.195zM2.122 16.001l13.878 13.879 13.878-13.879-5.309-5.309c-0.204-0.204-0.254-0.518-0.122-0.775 0.133-0.257 0.408-0.4 0.701-0.355 1.042 0.169 2.111-0.17 2.852-0.911 1.281-1.282 1.281-3.368 0-4.65-1.241-1.242-3.406-1.243-4.65 0-0.75 0.751-1.082 1.79-0.911 2.852 0.047 0.286-0.096 0.568-0.354 0.7-0.259 0.131-0.572 0.082-0.775-0.122l-5.309-5.309-4.127 4.127c0.794 0.2 1.518 0.607 2.106 1.195 1.802 1.801 1.802 4.734 0 6.535-1.746 1.746-4.789 1.746-6.535 0-0.586-0.585-0.993-1.314-1.194-2.107l-4.128 4.128z"></path>
</svg>
