<!-- Generated by IcoMoon.io -->
<svg version="1.1" xmlns="http://www.w3.org/2000/svg" width="32" height="32" viewBox="0 0 32 32">
<title>puzzle_module_part</title>
<path d="M21.566 29.991h-4.444c-0.619 0-1.125-0.503-1.125-1.125v-1.731c0-0.684-0.331-1.15-0.606-1.422-0.488-0.475-1.191-0.738-1.931-0.722-1.331 0.031-2.459 1.206-2.459 2.563v1.306c0 0.619-0.503 1.125-1.125 1.125h-4.391c0 0-0.003 0-0.003 0-0.925-0.003-1.797-0.366-2.45-1.019-0.656-0.656-1.019-1.525-1.019-2.453v-4.394c0-0.619 0.503-1.125 1.125-1.125h1.731c0.572 0 1.128-0.244 1.566-0.688 0.494-0.5 0.772-1.181 0.763-1.869-0.009-0.625-0.272-1.253-0.725-1.716-0.456-0.466-1.044-0.725-1.653-0.725h-1.681c-0.619 0-1.125-0.503-1.125-1.125v-4.388c0 0 0-0.003 0-0.003 0.003-0.925 0.366-1.797 1.019-2.45 0.656-0.656 1.525-1.019 2.453-1.019h3.953v-0.903c0-1.091 0.447-2.153 1.222-2.919 0.778-0.766 1.853-1.194 2.941-1.175 1.084 0.019 2.097 0.466 2.856 1.256 0.75 0.781 1.163 1.806 1.163 2.888v0.853h3.947c0.916 0 1.775 0.356 2.422 1.003 0.637 0.637 1.003 1.519 1.003 2.422v3.947h0.853c1.087 0 2.116 0.406 2.894 1.144 0.806 0.762 1.247 1.791 1.247 2.894s-0.422 2.141-1.184 2.922c-0.772 0.791-1.806 1.225-2.909 1.225h-0.903v3.994c0 0.916-0.356 1.775-1.003 2.422-0.644 0.647-1.506 1.006-2.419 1.006zM17.997 27.991h3.569c0.381 0 0.738-0.15 1.009-0.419 0.269-0.269 0.416-0.628 0.416-1.009v-4.872c0-0.619 0.503-1.125 1.125-1.125h1.778c0.559 0 1.087-0.222 1.478-0.625 0.397-0.406 0.616-0.947 0.616-1.525 0-0.55-0.222-1.063-0.622-1.444-0.406-0.384-0.947-0.597-1.522-0.597h-1.728c-0.619 0-1.125-0.503-1.125-1.125v-4.816c0-0.375-0.153-0.744-0.416-1.009-0.269-0.269-0.628-0.416-1.009-0.416h-4.822c-0.619 0-1.125-0.503-1.125-1.125v-1.728c0-1.162-0.922-2.125-2.056-2.144-0.556-0.009-1.103 0.209-1.503 0.6-0.397 0.391-0.628 0.938-0.628 1.494v1.778c0 0.619-0.503 1.125-1.125 1.125h-4.822c-0.809 0.003-1.472 0.666-1.475 1.478v3.513h0.806c1.153 0 2.247 0.472 3.081 1.325 0.819 0.841 1.278 1.934 1.294 3.084 0.016 1.216-0.472 2.419-1.338 3.297-0.816 0.828-1.878 1.284-2.987 1.284h-0.856v3.519c0.003 0.809 0.666 1.472 1.478 1.475h3.516v-0.431c0-1.175 0.456-2.3 1.287-3.166 0.838-0.872 1.947-1.369 3.122-1.397 1.275-0.028 2.503 0.441 3.372 1.288 0.778 0.762 1.209 1.775 1.209 2.85v0.863z"></path>
</svg>
