<svg version="1.1" xmlns="http://www.w3.org/2000/svg" width="32" height="32" viewBox="0 0 32 32">
<title>puzzle_modules_build</title>
<path d="M10.033 10.652h-9.333c-0.369 0-0.667-0.298-0.667-0.667v-9.333c0-0.369 0.298-0.667 0.667-0.667h9.333c0.369 0 0.667 0.298 0.667 0.667v9.333c0 0.368-0.298 0.667-0.667 0.667zM1.366 9.318h8v-8h-8v8z"></path>
<path d="M19.366 10.652h-9.333c-0.369 0-0.667-0.298-0.667-0.667v-9.333c0-0.369 0.298-0.667 0.667-0.667h9.333c0.369 0 0.667 0.298 0.667 0.667v9.333c0 0.368-0.298 0.667-0.667 0.667zM10.699 9.318h8v-8h-8v8z"></path>
<path d="M28.699 10.652h-9.333c-0.369 0-0.667-0.298-0.667-0.667v-9.333c0-0.369 0.298-0.667 0.667-0.667h9.333c0.369 0 0.667 0.298 0.667 0.667v9.333c0 0.368-0.298 0.667-0.667 0.667zM20.033 9.318h8v-8h-8v8z"></path>
<path d="M10.033 19.986h-9.333c-0.369 0-0.667-0.298-0.667-0.667v-9.333c0-0.369 0.298-0.667 0.667-0.667h9.333c0.369 0 0.667 0.298 0.667 0.667v9.333c0 0.368-0.298 0.667-0.667 0.667zM1.366 18.652h8v-8h-8v8z"></path>
<path d="M19.366 19.986h-9.333c-0.369 0-0.667-0.298-0.667-0.667v-9.333c0-0.369 0.298-0.667 0.667-0.667h9.333c0.369 0 0.667 0.298 0.667 0.667v9.333c0 0.368-0.298 0.667-0.667 0.667zM10.699 18.652h8v-8h-8v8z"></path>
<path d="M10.033 29.32h-9.333c-0.369 0-0.667-0.298-0.667-0.667v-9.333c0-0.369 0.298-0.667 0.667-0.667h9.333c0.369 0 0.667 0.298 0.667 0.667v9.333c0 0.369-0.298 0.667-0.667 0.667zM1.366 27.987h8v-8h-8v8z"></path>
</svg>
