<svg version="1.1" xmlns="http://www.w3.org/2000/svg" width="32" height="32" viewBox="0 0 32 32">
<title>query_widget</title>
<path d="M20.5 31.3v0 0z"></path>
<path d="M2.7 25.4v-9.7l4.8-4c0.4 0.3 0.9 0.5 1.4 0.5s1-0.2 1.4-0.5l2.9 2.9c-0.1 0.2-0.1 0.4-0.1 0.7 0 1.3 1.1 2.4 2.4 2.4s2.4-1.1 2.4-2.4c0-0.6-0.2-1.1-0.6-1.5l4.3-5.2c0.2 0.1 0.4 0.1 0.6 0.1 0.6 0 1.1-0.2 1.5-0.5l4.7 4.1v6.9h1.3v-14.7c0-2.1-1.7-3.8-3.8-3.8h-20.7c-2.1 0-3.8 1.7-3.8 3.8v21c0 2.1 1.7 3.8 3.8 3.8h10.5v-1.3h-10.5c-1.4-0.1-2.5-1.2-2.5-2.6zM8.9 10.9c-0.6 0-1.1-0.5-1.1-1.1s0.5-1.1 1.1-1.1 1.1 0.5 1.1 1.1-0.5 1.1-1.1 1.1zM15.5 16.5c-0.6 0-1.1-0.5-1.1-1.1s0.5-1.1 1.1-1.1c0.6 0 1.1 0.5 1.1 1.1s-0.4 1.1-1.1 1.1zM22.4 7.5c-0.6 0-1.1-0.5-1.1-1.1s0.5-1.1 1.1-1.1 1.1 0.5 1.1 1.1-0.5 1.1-1.1 1.1zM5.2 1.9h20.8c1.4 0 2.5 1.1 2.5 2.5v6.1l-3.9-3.4c0.1-0.3 0.2-0.5 0.2-0.8 0-1.3-1.1-2.4-2.4-2.4s-2.5 1.1-2.5 2.4c0 0.7 0.3 1.2 0.7 1.7l-4.2 5.1c-0.3-0.1-0.5-0.2-0.8-0.2-0.6 0-1.2 0.2-1.6 0.6l-2.8-2.8c0.1-0.3 0.2-0.6 0.2-1 0-1.3-1.1-2.4-2.4-2.4s-2.6 1.1-2.6 2.5c0 0.3 0.1 0.7 0.2 1l-4 3.3v-9.6c0.1-1.4 1.2-2.6 2.6-2.6z"></path>
<path d="M24.4 17.8c-0.3-0.1-0.7 0.1-0.8 0.5l-3.1 12.4c-0.1 0.3 0.1 0.7 0.5 0.8 0.1 0 0.1 0 0.2 0 0.3 0 0.6-0.2 0.6-0.5l3.1-12.4c0.1-0.4-0.1-0.7-0.5-0.8z"></path>
<path d="M20.3 20.1c-0.3-0.2-0.7-0.2-0.9 0.1l-3.3 4c-0.2 0.2-0.2 0.6 0 0.8l3.3 4c0.1 0.2 0.3 0.2 0.5 0.2 0.1 0 0.3 0 0.4-0.1 0.3-0.2 0.3-0.6 0.1-0.9l-2.9-3.5 3-3.6c0.1-0.3 0-0.7-0.2-1z"></path>
<path d="M30.1 24.1l-3.3-4c-0.2-0.3-0.6-0.3-0.9-0.1s-0.3 0.6-0.1 0.9l2.9 3.5-3 3.6c-0.2 0.3-0.2 0.7 0.1 0.9 0.1 0.1 0.3 0.1 0.4 0.1 0.2 0 0.4-0.1 0.5-0.2l3.3-4c0.3-0.1 0.3-0.4 0.1-0.7z"></path>
</svg>
