<!-- Generated by IcoMoon.io -->
<svg version="1.1" xmlns="http://www.w3.org/2000/svg" width="32" height="32" viewBox="0 0 32 32">
<title>query_editor</title>
<path d="M29.207 16.323v0l-2.473-1.523c-0.369-0.226-0.894-0.090-1.144 0.306l-6.939 11.249c-0.017 0.031-0.031 0.056-0.052 0.143-0.003 0.017-0.007 0.031-0.010 0.049-0.056 0.282-0.157 1.061-0.466 3.534-0.021 0.226 0.056 0.459 0.212 0.637 0.163 0.184 0.393 0.292 0.63 0.299 0.163 0.003 0.323-0.038 0.48-0.136 3.012-2.007 3.019-2.017 3.089-2.132l6.936-11.252c0.129-0.209 0.163-0.452 0.097-0.685-0.056-0.202-0.188-0.379-0.358-0.487zM19.064 30.017c0.042-0.327 0.087-0.692 0.136-1.061l0.755 0.466c-0.31 0.205-0.619 0.414-0.89 0.595zM20.803 28.852l-1.471-0.908c0.028-0.212 0.052-0.407 0.077-0.581l1.882 1.162c-0.146 0.097-0.31 0.209-0.487 0.327zM21.986 27.864l-0.494-0.306-0.79-0.487-1.012-0.626 6.661-10.797 2.334 1.363-6.699 10.852z"></path>
<path d="M30.699 12.981v0l-1.649-1.019c-0.303-0.188-0.657-0.243-0.995-0.16-0.32 0.080-0.602 0.285-0.772 0.56l-0.546 0.887c-0.136 0.219-0.066 0.504 0.153 0.64 0.216 0.136 0.504 0.070 0.64-0.153l0.546-0.887c0.045-0.073 0.118-0.125 0.205-0.146 0.066-0.017 0.17-0.021 0.285 0.049l1.649 1.019c0.198 0.122 0.243 0.362 0.16 0.497l-0.546 0.887c-0.136 0.219-0.066 0.504 0.153 0.64 0.073 0.045 0.15 0.066 0.23 0.070 0.16 0.003 0.32-0.073 0.407-0.219l0.546-0.887c0.358-0.588 0.146-1.402-0.466-1.777z"></path>
<path d="M12.4 29.906c-5.475 0-9.777-1.221-10.23-2.901-0.007-0.024-0.031-0.146-0.042-0.167v-5.617c1.885 1.155 5.496 2.191 10.219 2.181 2.887-0.007 3.816-0.087 5.889-0.557l0.904-1.572c-1.541 0.574-2.257 0.87-6.793 0.87-6.821 0-9.941-2.115-10.219-2.741v-5.534c1.885 1.155 5.496 2.181 10.219 2.181 4.717 0 8.403-1.068 10.327-2.24v2.362l1.468-2.177v-8.626c0-0.017 0.003-0.038 0.003-0.052 0-3.096-5.896-4.48-11.743-4.48s-11.743 1.381-11.743 4.511v21.492c0 0.177 0.035 0.351 0.080 0.452 0.772 2.863 6.765 3.878 11.663 3.878 1.621 0 2.129 0.017 3.325-0.157l0.247-1.304h-0.104c-1.499 0.261-1.579 0.198-3.471 0.198zM12.403 2.090c4.922 0 10.139 1.106 10.261 3.148-0.323 0.647-3.875 2.567-10.261 2.567-6.414 0-9.972-1.937-10.264-2.553 0.097-2.052 5.332-3.162 10.264-3.162zM2.132 6.922c1.917 1.123 5.583 2.143 10.271 2.143 4.692 0 8.358-1.019 10.271-2.146v5.137c-0.226 0.643-3.837 2.723-10.327 2.723-6.483 0-9.913-1.972-10.219-2.744v-5.113z"></path>
</svg>
