<!-- Generated by IcoMoon.io -->
<svg version="1.1" xmlns="http://www.w3.org/2000/svg" width="32" height="32" viewBox="0 0 32 32">
<title>query_add</title>
<path d="M12.188 29.436c-2.87 0-4.97-0.374-7.025-1.052-3.1-1.024-3.75-2.42-3.75-3.412v-20.458c0-0.992 0.651-2.389 3.75-3.412 2.056-0.678 4.768-1.052 7.638-1.052s5.581 0.374 7.636 1.052c3.1 1.024 3.75 2.42 3.75 3.412v9.58c0 0.008 0 0.017 0 0.026 0 0.582-0.472 1.054-1.054 1.054s-1.054-0.472-1.054-1.054c0-0.009 0-0.018 0-0.027v0.001-0.034c-0.46 0.246-1.004 0.478-1.568 0.664l-0.075 0.021c-2.055 0.678-4.767 1.052-7.636 1.052s-5.582-0.374-7.638-1.052c-0.639-0.207-1.182-0.439-1.7-0.713l0.057 0.028v4.093c0 0.204 0.58 0.842 2.304 1.408 1.902 0.628 3.549 0.946 6.104 0.946 0.008 0 0.017 0 0.026 0 0.582 0 1.054 0.472 1.054 1.054s-0.472 1.054-1.054 1.054c-0.009 0-0.018 0-0.027 0h0.001c-2.78 0-4.649-0.354-6.764-1.052-0.639-0.206-1.183-0.437-1.701-0.711l0.058 0.028v4.093c0 0.204 0.58 0.842 2.304 1.408 1.848 0.609 3.712 0.945 6.365 0.945 0.571 0.015 1.028 0.481 1.028 1.054s-0.457 1.039-1.027 1.054h-0.001zM3.52 11.334c0 0.204 0.58 0.842 2.304 1.408 1.848 0.61 4.326 0.946 6.976 0.946s5.129-0.336 6.976-0.946c1.723-0.568 2.304-1.206 2.304-1.408v-4.093c-0.46 0.246-1.004 0.478-1.568 0.663l-0.075 0.021c-2.056 0.678-4.767 1.052-7.637 1.052s-5.581-0.374-7.637-1.052c-0.639-0.207-1.183-0.439-1.701-0.713l0.058 0.028zM12.8 2.159c-2.651 0-5.128 0.336-6.976 0.946-1.723 0.568-2.304 1.206-2.304 1.408s0.58 0.842 2.304 1.408c1.848 0.61 4.326 0.946 6.976 0.946s5.129-0.336 6.976-0.946c1.723-0.568 2.304-1.206 2.304-1.408s-0.58-0.842-2.304-1.408c-1.848-0.609-4.326-0.946-6.976-0.946z"></path>
<path d="M27.992 18.345c-1.448-1.448-3.448-2.343-5.657-2.343-4.418 0-8 3.582-8 8s3.582 8 8 8c2.209 0 4.209-0.895 5.657-2.343v0c1.445-1.449 2.339-3.448 2.339-5.657s-0.894-4.208-2.339-5.657v0zM23.36 28.445c0 0.030 0 0.064-0.005 0.097v0.017c-0.004 0.031-0.008 0.056-0.012 0.081l-0.004 0.020c-0.015 0.068-0.034 0.128-0.058 0.185l-0.003 0.007c-0.012 0.027-0.022 0.050-0.035 0.072l-0.009 0.017c-0.032 0.057-0.066 0.106-0.103 0.152l0.001-0.002-0.012 0.014c-0.018 0.021-0.033 0.038-0.049 0.054-0.006 0.006-0.011 0.012-0.017 0.018v0c-0.020 0.020-0.041 0.039-0.064 0.057l-0.013 0.013c-0.020 0.017-0.039 0.030-0.058 0.043l-0.029 0.020-0.044 0.026-0.040 0.022-0.022 0.010h-0.006c-0.13 0.065-0.284 0.103-0.447 0.103-0.274 0-0.522-0.107-0.706-0.282v0c-0.017-0.017-0.032-0.031-0.046-0.047l-0.016-0.017c-0.012-0.015-0.025-0.029-0.037-0.044l-0.011-0.015c-0.021-0.026-0.042-0.056-0.061-0.087l-0.003-0.004c-0.007-0.011-0.011-0.017-0.015-0.024s-0.017-0.031-0.024-0.047-0.010-0.020-0.015-0.031-0.015-0.031-0.021-0.047l-0.002-0.028v-0.006c-0.011-0.030-0.020-0.061-0.029-0.092v-0.007c0-0.008-0.004-0.017-0.006-0.025s-0.008-0.035-0.010-0.053-0.004-0.022-0.005-0.034-0.005-0.037-0.006-0.056c0-0.008 0-0.038 0-0.038 0-0.015 0-0.030 0-0.045v-3.418h-3.418c-0.015 0-0.030 0-0.045 0h-0.039l-0.055-0.006-0.033-0.005-0.053-0.010-0.028-0.007c-0.039-0.010-0.071-0.020-0.103-0.032l0.006 0.002h-0.006l-0.025-0.009-0.049-0.022c-0.010-0.004-0.020-0.009-0.030-0.014s-0.031-0.016-0.047-0.025l-0.019-0.012c-0.036-0.022-0.066-0.043-0.095-0.066l0.003 0.002-0.018-0.013c-0.015-0.012-0.029-0.024-0.044-0.037l-0.019-0.017c-0.015-0.013-0.029-0.028-0.043-0.042l-0.005-0.005c-0.047-0.050-0.089-0.105-0.125-0.164l-0.003-0.005-0.004-0.006c-0.093-0.151-0.148-0.333-0.148-0.529v0c0-0.001 0-0.002 0-0.002 0-0.162 0.038-0.316 0.106-0.451l-0.003 0.006c0.006-0.012 0.010-0.020 0.013-0.027s0.015-0.028 0.022-0.041l0.023-0.038c0.008-0.012 0.015-0.023 0.022-0.034s0.027-0.036 0.041-0.054l0.014-0.017c0.018-0.022 0.036-0.042 0.055-0.061v0l0.019-0.018q0.024-0.024 0.050-0.046l0.018-0.015c0.044-0.036 0.094-0.070 0.146-0.099l0.005-0.003 0.015-0.008c0.023-0.012 0.046-0.023 0.070-0.033l0.017-0.008c0.051-0.022 0.111-0.041 0.173-0.055l0.007-0.001 0.015-0.003c0.030-0.006 0.055-0.010 0.081-0.012h0.022c0.029-0.003 0.062-0.005 0.095-0.005 0.001 0 0.002 0 0.002 0h3.416v-3.421c0-0.567 0.46-1.027 1.027-1.027s1.027 0.46 1.027 1.027v0 3.418h3.417c0.567 0 1.027 0.46 1.027 1.027s-0.46 1.027-1.027 1.027v0h-3.429z"></path>
</svg>
