<!-- Generated by IcoMoon.io -->
<svg version="1.1" xmlns="http://www.w3.org/2000/svg" width="32" height="32" viewBox="0 0 32 32">
<title>query_info</title>
<path d="M22.322 16.004c-4.418 0-8 3.582-8 8s3.582 8 8 8c4.418 0 8-3.582 8-8v0c-0.004-4.417-3.583-7.996-8-8h-0zM22.026 18.531c1.025 0 1.856 0.831 1.856 1.856s-0.831 1.856-1.856 1.856c-1.025 0-1.856-0.831-1.856-1.856v0c0.002-1.024 0.832-1.854 1.856-1.856h0zM24.85 29.162c-0.143 0.189-0.367 0.31-0.62 0.31-0.005 0-0.009-0-0.014-0h-3.788c-0.478 0-0.826-0.384-0.826-0.909-0-0.004-0-0.008-0-0.013 0-0.223 0.072-0.43 0.194-0.598l-0.002 0.003c0.142-0.195 0.369-0.32 0.626-0.32 0.003 0 0.005 0 0.008 0h0.435v-2.579h-0.438c-0.479 0-0.825-0.384-0.825-0.912-0-0.004-0-0.009-0-0.014 0-0.223 0.072-0.429 0.194-0.596l-0.002 0.003c0.143-0.193 0.369-0.316 0.625-0.316 0.003 0 0.006 0 0.009 0h3.020c0.275 0.001 0.497 0.224 0.497 0.499 0 0 0 0 0 0v0 3.915h0.271c0.47 0 0.824 0.397 0.824 0.925 0 0.005 0 0.012 0 0.018 0 0.219-0.072 0.422-0.193 0.586l0.002-0.003z"></path>
<path d="M12.455 29.128c-2.869 0-4.969-0.373-7.025-1.052-3.1-1.024-3.75-2.42-3.75-3.412v-20.458c0-0.992 0.651-2.389 3.75-3.412 2.058-0.678 4.768-1.052 7.637-1.052s5.581 0.374 7.637 1.052c3.1 1.024 3.75 2.42 3.75 3.412v9.58c-0.015 0.571-0.481 1.028-1.054 1.028s-1.039-0.457-1.054-1.027l-0-0.001v-0.034c-0.46 0.246-1.004 0.477-1.568 0.663l-0.075 0.021c-2.056 0.678-4.769 1.050-7.637 1.050s-5.58-0.372-7.637-1.050c-0.639-0.207-1.183-0.439-1.701-0.713l0.058 0.028v4.092c0 0.204 0.58 0.842 2.304 1.408 1.901 0.627 3.549 0.945 6.104 0.945 0.008-0 0.017-0 0.026-0 0.582 0 1.054 0.472 1.054 1.054s-0.472 1.054-1.054 1.054c-0.009 0-0.018-0-0.027-0l0.001 0c-2.78 0-4.65-0.354-6.764-1.052-0.639-0.207-1.183-0.439-1.701-0.713l0.058 0.028v4.092c0 0.204 0.58 0.842 2.304 1.408 1.848 0.61 3.712 0.945 6.364 0.945 0.008-0 0.017-0 0.026-0 0.582 0 1.054 0.472 1.054 1.054s-0.472 1.054-1.054 1.054c-0.009 0-0.018-0-0.027-0l0.001 0zM3.788 11.027c0 0.204 0.58 0.842 2.304 1.408 1.848 0.609 4.326 0.945 6.976 0.945s5.128-0.336 6.976-0.945c1.724-0.569 2.304-1.207 2.304-1.408v-4.092c-0.46 0.246-1.004 0.478-1.568 0.663l-0.075 0.021c-2.056 0.678-4.768 1.052-7.637 1.052s-5.58-0.374-7.637-1.052c-0.639-0.207-1.183-0.439-1.701-0.713l0.058 0.028zM13.068 1.852c-2.651 0-5.129 0.336-6.976 0.945-1.724 0.569-2.304 1.207-2.304 1.408s0.58 0.842 2.304 1.408c1.848 0.609 4.325 0.945 6.976 0.945s5.129-0.336 6.976-0.945c1.724-0.569 2.304-1.207 2.304-1.408s-0.58-0.842-2.304-1.408c-1.847-0.609-4.325-0.945-6.976-0.945z"></path>
</svg>
