<svg version="1.1" xmlns="http://www.w3.org/2000/svg" width="32" height="32" viewBox="0 0 32 32">
<title>radioactive_nuclear_danger_atom</title>
<path d="M23.772 30.78c-0.421 0-0.833-0.211-1.068-0.59l-4.731-7.69c-0.182-0.294-0.232-0.656-0.138-0.993 0.1-0.353 0.464-0.563 0.823-0.461 0.342 0.096 0.547 0.444 0.47 0.788l4.711 7.658c4.074-2.462 6.575-6.813 6.575-11.667 0-0.113-0.003-0.203-0.009-0.267l-8.927-0.159c-0.255 0.268-0.646 0.263-0.911 0.008-0.266-0.254-0.245-0.689 0.010-0.956 0.232-0.242 0.563-0.383 0.908-0.385l9.026 0.159c0.822 0.016 1.237 0.555 1.237 1.6 0 5.335-2.75 10.116-7.357 12.79-0.194 0.112-0.407 0.165-0.62 0.165z"></path>
<path d="M13.35 13.473c-0.45 0-0.867-0.244-1.089-0.638l-4.391-7.901c-0.324-0.581-0.133-1.313 0.434-1.664 4.473-2.76 10.521-2.825 15.052-0.162 0.583 0.342 0.788 1.076 0.465 1.671l-4.316 7.934c-0.164 0.304-0.452 0.529-0.79 0.614-0.362 0.087-0.72-0.127-0.809-0.484-0.087-0.344 0.111-0.693 0.444-0.798l4.299-7.902c-4.083-2.303-9.581-2.245-13.644 0.262l4.419 7.781c0.369 0 0.63 0.276 0.63 0.644s-0.336 0.645-0.705 0.645z"></path>
<path d="M8.302 30.878c-0.214 0-0.429-0.055-0.626-0.171-4.688-2.699-7.481-7.514-7.464-12.878 0-1.025 0.626-1.409 1.212-1.425l8.997-0.245c0.341-0.012 0.698 0.133 0.94 0.389 0.253 0.268 0.241 0.69-0.026 0.943-0.257 0.245-0.659 0.243-0.914 0.003l-8.872 0.241c-0.003 0.025-0.005 0.057-0.005 0.096-0.016 4.88 2.527 9.262 6.802 11.723l4.54-7.707c-0.105-0.353 0.092-0.689 0.445-0.794 0.351-0.102 0.719 0.131 0.824 0.486 0.1 0.336 0.053 0.701-0.129 0.999l-4.656 7.736c-0.232 0.388-0.647 0.604-1.070 0.604z"></path>
<path d="M15.965 20.18c-0.005 0-0.008 0-0.013 0-1.71-0.034-3.077-1.423-3.048-3.098-0.014-0.771 0.302-1.557 0.868-2.133 0.58-0.591 1.359-0.916 2.193-0.916 1.723 0 3.074 1.344 3.074 3.061 0 1.727-1.316 3.052-3.061 3.086-0.004-0-0.008-0-0.012-0zM15.965 15.367c-0.473 0-0.915 0.184-1.242 0.518-0.321 0.327-0.493 0.753-0.486 1.198-0.016 0.975 0.742 1.738 1.728 1.764 0.993-0.025 1.74-0.776 1.74-1.753 0-0.969-0.764-1.727-1.74-1.727z"></path>
</svg>
