<svg version="1.1" xmlns="http://www.w3.org/2000/svg" width="32" height="32" viewBox="0 0 32 32">
<title>radiobuttons_bullets_lines</title>
<path d="M5.359 9.344c-2.212 0-4.012-1.799-4.012-4.011s1.799-4.011 4.012-4.011c2.212 0 4.011 1.799 4.011 4.011s-1.799 4.011-4.011 4.011zM5.359 2.656c-1.477 0-2.678 1.201-2.678 2.678s1.202 2.678 2.678 2.678 2.678-1.201 2.678-2.678-1.201-2.678-2.678-2.678z"></path>
<path d="M5.359 20.012c-2.212 0-4.012-1.799-4.012-4.010 0-2.212 1.799-4.012 4.012-4.012s4.011 1.799 4.011 4.012c0 2.211-1.799 4.010-4.011 4.010zM5.359 13.323c-1.477 0-2.678 1.202-2.678 2.678s1.202 2.677 2.678 2.677 2.678-1.201 2.678-2.677-1.201-2.678-2.678-2.678z"></path>
<path d="M5.359 30.68c-2.212 0-4.012-1.799-4.012-4.010 0-2.212 1.799-4.012 4.012-4.012s4.011 1.799 4.011 4.012c0 2.211-1.799 4.010-4.011 4.010zM5.359 23.991c-1.477 0-2.678 1.202-2.678 2.678s1.202 2.677 2.678 2.677 2.678-1.201 2.678-2.677-1.201-2.678-2.678-2.678z"></path>
<path d="M28.613 26.667h-15.908c-0.369 0-0.667-0.298-0.667-0.667s0.298-0.667 0.667-0.667h15.908c0.369 0 0.667 0.298 0.667 0.667s-0.298 0.667-0.667 0.667z"></path>
<path d="M28.613 15.999h-15.908c-0.369 0-0.667-0.298-0.667-0.667s0.298-0.667 0.667-0.667h15.908c0.369 0 0.667 0.298 0.667 0.667s-0.298 0.667-0.667 0.667z"></path>
<path d="M28.613 5.331h-15.908c-0.369 0-0.667-0.298-0.667-0.667s0.298-0.667 0.667-0.667h15.908c0.369 0 0.667 0.298 0.667 0.667s-0.298 0.667-0.667 0.667z"></path>
<path d="M5.36 6c-0.174 0-0.347-0.067-0.481-0.201-0.12-0.12-0.186-0.293-0.186-0.466s0.066-0.347 0.2-0.467c0.227-0.24 0.693-0.253 0.933 0 0.133 0.12 0.201 0.293 0.201 0.467s-0.067 0.346-0.201 0.48c-0.12 0.12-0.293 0.187-0.466 0.187z"></path>
</svg>
