<!-- Generated by IcoMoon.io -->
<svg version="1.1" xmlns="http://www.w3.org/2000/svg" width="32" height="32" viewBox="0 0 32 32">
<title>rag</title>
<path d="M0 12.359v12.589c0 0.619 0.198 1.155 0.594 1.608s0.865 0.679 1.406 0.679h6c0.563 0 1.036-0.226 1.422-0.679s0.578-0.988 0.578-1.608v-12.589h-10zM16.891 24.389h15.109v2.845h-15.109v-2.845zM16.891 19.511h15.109v2.845h-15.109v-2.845zM16.891 14.858h15.109v2.845h-15.109v-2.845zM16.891 10.036h15.109v2.845h-15.109v-2.845zM16.891 5.158h15.109v2.845h-15.109v-2.845zM16.891 0h15.109v2.845h-15.109v-2.845zM0 29.031h32v2.969h-32v-2.969z"></path>
</svg>
