<!-- Generated by IcoMoon.io -->
<svg version="1.1" xmlns="http://www.w3.org/2000/svg" width="32" height="32" viewBox="0 0 32 32">
<title>reading_glasses</title>
<path d="M29 11.5h-0.7c-0.7-0.4-2.2-1-5.3-1-4.2 0-5.5 1.1-5.7 1.3-0.8-0.4-1.8-0.4-2.6 0-0.2-0.2-1.5-1.3-5.7-1.3-3.2 0-4.7 0.6-5.3 1h-0.7c-0.6 0-1 0.4-1 1s0.4 1 1 1v0c0.1 5.2 1.2 8 6 8 4.3 0 5.6-2.3 5.9-6.6 0-0.1 0.1-0.2 0.1-0.4 0-0.6 0.4-1 1-1s1 0.4 1 1c0 0.1 0 0.3 0.1 0.4 0.3 4.3 1.6 6.6 5.9 6.6 4.7 0 5.9-2.8 6-8v0c0.6 0 1-0.4 1-1s-0.4-1-1-1zM9 19.5c-2.7 0-3.9-0.6-4-6.4 0.5-0.2 1.7-0.6 4-0.6s3.5 0.4 4 0.6c-0.1 5.8-1.3 6.4-4 6.4zM23 19.5c-2.7 0-3.9-0.6-4-6.4 0.5-0.2 1.7-0.6 4-0.6s3.5 0.3 4 0.6c-0.1 5.8-1.3 6.4-4 6.4z"></path>
</svg>
