<svg version="1.1" xmlns="http://www.w3.org/2000/svg" width="32" height="32" viewBox="0 0 32 32">
<title>reading_glasses</title>
<path d="M7.565 25.402c-3.83 0-6.947-2.375-6.947-5.293s3.117-5.293 6.947-5.293 6.947 2.375 6.947 5.293-3.117 5.293-6.947 5.293zM7.565 16.15c-3.095 0-5.613 1.776-5.613 3.96s2.518 3.96 5.613 3.96 5.613-1.776 5.613-3.96-2.518-3.96-5.613-3.96z"></path>
<path d="M24.435 25.402c-3.831 0-6.947-2.375-6.947-5.293s3.116-5.293 6.947-5.293 6.947 2.375 6.947 5.293-3.116 5.293-6.947 5.293zM24.435 16.15c-3.095 0-5.613 1.776-5.613 3.96s2.518 3.96 5.613 3.96 5.613-1.776 5.613-3.96-2.518-3.96-5.613-3.96z"></path>
<path d="M13.631 19.292c-0.29 0-0.557-0.19-0.641-0.482-0.102-0.354 0.102-0.724 0.456-0.825 1.676-0.483 3.464-0.525 5.173-0.119 0.358 0.085 0.579 0.444 0.495 0.802-0.086 0.359-0.449 0.583-0.802 0.495-1.486-0.352-3.040-0.319-4.495 0.103-0.062 0.018-0.124 0.026-0.185 0.026z"></path>
<path d="M1.62 19.292c-0.106 0-0.214-0.025-0.314-0.079-0.325-0.173-0.447-0.577-0.273-0.902l5.944-11.103c0.162-0.301 1.63-2.913 3.764-2.913 0.008 0 0.016 0 0.024 0 1.304 0.012 2.467 0.995 3.459 2.923 0.168 0.327 0.039 0.729-0.288 0.898-0.33 0.167-0.73 0.037-0.898-0.288-0.513-0.997-1.325-2.189-2.283-2.199-1.209-0.006-2.267 1.591-2.603 2.212l-5.943 11.102c-0.121 0.224-0.35 0.352-0.589 0.352z"></path>
<path d="M30.361 19.224c-0.237 0-0.467-0.128-0.587-0.352l-5.944-11.104c-0.333-0.615-1.448-2.21-2.589-2.21-0.005 0-0.009 0-0.013 0-0.958 0.010-1.771 1.203-2.285 2.2-0.169 0.328-0.572 0.455-0.897 0.288-0.328-0.169-0.457-0.571-0.288-0.898 0.991-1.928 2.155-2.911 3.46-2.923 0.008-0.001 0.016-0.001 0.023-0.001 2.134 0 3.602 2.613 3.763 2.913l5.944 11.104c0.175 0.325 0.052 0.729-0.272 0.902-0.1 0.055-0.208 0.079-0.315 0.079z"></path>
</svg>
