<svg version="1.1" xmlns="http://www.w3.org/2000/svg" width="36" height="32" viewBox="0 0 36 32">
<title>real_time</title>
<path d="M0 5.181h6.978c2.347 0 3.412 0.184 4.359 0.606 2.162 0.975 3.534 3.047 3.534 5.909 0 2.591-1.372 4.997-3.656 5.909v0.063c0 0 0.306 0.306 0.731 1.066l4.45 8.075h-4.391l-4.297-8.066h-3.778v8.075h-3.931v-21.637zM7.466 15.331c2.1 0 3.413-1.25 3.413-3.412 0-2.072-0.881-3.35-3.963-3.35h-2.987v6.766l3.538-0.003z"></path>
<path d="M24.531 8.566h-7.1v-3.384h18.131v3.381h-7.103v18.253h-3.928v-18.25z"></path>
</svg>
