<svg version="1.1" xmlns="http://www.w3.org/2000/svg" width="32" height="32" viewBox="0 0 32 32">
<title>redo</title>
<path d="M11.834 2c-6.4 0-11.6 5.466-11.6 11.734 0 6.266 5.2 11.466 11.466 11.6h16.134l-2.666 2.934c-0.4 0.4-0.4 1.2 0 1.6 0.266 0.134 0.534 0.266 0.8 0.266s0.534 0 0.8-0.266l4.666-4.666c0.4-0.4 0.4-1.2 0-1.6l-4.669-4.669c-0.266-0.134-0.534-0.266-0.8-0.266s-0.534 0-0.8 0.266c-0.4 0.4-0.4 1.2 0 1.6l2.934 2.934h-16.134c-5.2 0-9.734-4.266-9.734-9.734 0.003-5.2 4.269-9.734 9.734-9.734h11.466v-2h-11.597z"></path>
</svg>
