<svg version="1.1" xmlns="http://www.w3.org/2000/svg" width="32" height="32" viewBox="0 0 32 32">
<title>reflect_horizontal</title>
<path d="M24.484 16.755h-1.333c-0.369 0-0.667-0.298-0.667-0.667s0.298-0.667 0.667-0.667h1.333c0.369 0 0.667 0.298 0.667 0.667s-0.298 0.667-0.667 0.667z"></path>
<path d="M19.536 16.755h-2.41c-0.369 0-0.667-0.298-0.667-0.667s0.298-0.667 0.667-0.667h2.41c0.369 0 0.667 0.298 0.667 0.667s-0.298 0.667-0.667 0.667zM13.512 16.755h-2.41c-0.369 0-0.667-0.298-0.667-0.667s0.298-0.667 0.667-0.667h2.409c0.369 0 0.667 0.298 0.667 0.667s-0.298 0.667-0.667 0.667zM7.488 16.755h-2.409c-0.369 0-0.667-0.298-0.667-0.667s0.298-0.667 0.667-0.667h2.409c0.369 0 0.667 0.298 0.667 0.667s-0.298 0.667-0.667 0.667z"></path>
<path d="M1.464 16.755h-1.333c-0.369 0-0.667-0.298-0.667-0.667s0.298-0.667 0.667-0.667h1.333c0.369 0 0.667 0.298 0.667 0.667s-0.298 0.667-0.667 0.667z"></path>
<path d="M23.138 10.667c-0.005 0.001-0.016 0.001-0.026 0h-21.073c-0.369 0-0.667-0.298-0.667-0.667v-9.344c0-0.225 0.114-0.436 0.303-0.559s0.426-0.143 0.633-0.051l20.985 9.305c0.293 0.070 0.51 0.334 0.51 0.648 0 0.369-0.298 0.667-0.667 0.667zM2.706 9.333h17.258l-17.258-7.652v7.652z"></path>
<path d="M2.039 32.010c-0.127 0-0.254-0.036-0.363-0.108-0.189-0.122-0.303-0.333-0.303-0.559v-9.344c0-0.369 0.298-0.667 0.667-0.667h21.073c0.315 0 0.587 0.22 0.652 0.529s-0.094 0.62-0.381 0.747l-21.074 9.344c-0.087 0.038-0.178 0.057-0.27 0.057zM2.706 22.667v7.652l17.258-7.652h-17.258z"></path>
<path d="M26.16 21.457c-0.289 0-0.555-0.189-0.641-0.481-0.103-0.353 0.1-0.723 0.454-0.827 2.099-0.612 3.039-2.527 3.039-4.155 0-1.436-0.721-3.181-2.746-3.771-0.354-0.103-0.557-0.473-0.454-0.827 0.104-0.353 0.467-0.558 0.827-0.453 2.251 0.656 3.707 2.639 3.707 5.051 0 2.125-1.237 4.63-4 5.436-0.062 0.017-0.125 0.026-0.186 0.026z"></path>
<path d="M28.56 22.048c-0.052 0-0.105-0.007-0.159-0.019l-2.4-0.591c-0.172-0.042-0.32-0.151-0.411-0.302s-0.12-0.333-0.077-0.505l0.591-2.398c0.087-0.357 0.439-0.574 0.807-0.487 0.357 0.089 0.575 0.449 0.487 0.807l-0.431 1.75 1.751 0.432c0.358 0.087 0.577 0.449 0.488 0.806-0.074 0.305-0.348 0.508-0.647 0.508z"></path>
</svg>
