<!-- Generated by IcoMoon.io -->
<svg version="1.1" xmlns="http://www.w3.org/2000/svg" width="32" height="32" viewBox="0 0 32 32">
<title>reflect_vertical</title>
<path d="M16.119 8.255c-0.369 0-0.667-0.298-0.667-0.667v-1.333c0-0.369 0.298-0.667 0.667-0.667s0.667 0.298 0.667 0.667v1.333c0 0.369-0.298 0.667-0.667 0.667z"></path>
<path d="M16.119 26.327c-0.369 0-0.667-0.298-0.667-0.667v-2.409c0-0.369 0.298-0.667 0.667-0.667s0.667 0.298 0.667 0.667v2.409c0 0.369-0.298 0.667-0.667 0.667zM16.119 20.303c-0.369 0-0.667-0.298-0.667-0.667v-2.41c0-0.369 0.298-0.667 0.667-0.667s0.667 0.298 0.667 0.667v2.41c0 0.369-0.298 0.667-0.667 0.667zM16.119 14.279c-0.369 0-0.667-0.298-0.667-0.667v-2.409c0-0.369 0.298-0.667 0.667-0.667s0.667 0.298 0.667 0.667v2.409c0 0.369-0.298 0.667-0.667 0.667z"></path>
<path d="M16.119 31.275c-0.369 0-0.667-0.298-0.667-0.667v-1.333c0-0.369 0.298-0.667 0.667-0.667s0.667 0.298 0.667 0.667v1.333c0 0.368-0.298 0.667-0.667 0.667z"></path>
<path d="M10.039 29.333h-9.352c-0.226 0-0.436-0.115-0.559-0.303s-0.142-0.428-0.050-0.634l9.352-21.040c0.128-0.287 0.434-0.447 0.748-0.381 0.308 0.066 0.528 0.337 0.528 0.652v21.040c0 0.369-0.298 0.667-0.667 0.667zM1.713 28h7.659v-17.232l-7.659 17.232z"></path>
<path d="M31.374 29.333h-9.353c-0.369 0-0.667-0.298-0.667-0.667v-21.040c0-0.315 0.22-0.587 0.529-0.652 0.307-0.066 0.619 0.094 0.747 0.381l9.353 21.040c0.091 0.206 0.073 0.445-0.051 0.634-0.122 0.189-0.333 0.303-0.559 0.303zM22.687 28h7.66l-7.66-17.232v17.232z"></path>
<path d="M20.822 5.245c-0.289 0-0.555-0.189-0.641-0.48-0.612-2.1-2.529-3.039-4.156-3.039-1.436 0-3.181 0.721-3.771 2.746-0.103 0.353-0.471 0.557-0.827 0.453-0.353-0.103-0.556-0.473-0.453-0.827 0.657-2.251 2.639-3.706 5.051-3.706 2.125 0 4.63 1.236 5.437 3.999 0.103 0.353-0.1 0.724-0.454 0.827-0.061 0.018-0.125 0.027-0.186 0.027z"></path>
<path d="M20.822 5.245c-0.053 0-0.107-0.007-0.16-0.019l-2.398-0.591c-0.357-0.088-0.575-0.449-0.487-0.807 0.087-0.357 0.44-0.579 0.807-0.488l1.75 0.432 0.431-1.751c0.087-0.356 0.445-0.579 0.806-0.488 0.358 0.088 0.577 0.449 0.488 0.807l-0.59 2.398c-0.042 0.171-0.151 0.32-0.302 0.411-0.105 0.064-0.224 0.096-0.345 0.096z"></path>
</svg>
