<!-- Generated by IcoMoon.io -->
<svg version="1.1" xmlns="http://www.w3.org/2000/svg" width="32" height="32" viewBox="0 0 32 32">
<title>relay_in_house</title>
<path d="M31.733 14l-3.733-3.2v-8.133c0-0.4-0.267-0.667-0.667-0.667h-6.667c-0.4 0-0.667 0.267-0.667 0.667v1.2l-3.6-3.067c-0.267-0.267-0.667-0.267-0.8 0l-11.2 9.2c-0.4 0.133-0.4 0.533-0.133 0.933 0.267 0.267 0.667 0.267 0.933 0.133l10.8-8.8 12 10.267v17.467h-27.333c-0.4 0-0.667 0.267-0.667 0.667s0.267 0.667 0.667 0.667h28c0.4 0 0.667-0.267 0.667-0.667v-16.933l1.467 1.333c0.133 0.133 0.267 0.133 0.4 0.133s0.4-0.133 0.533-0.267c0.267-0.267 0.267-0.8 0-0.933zM21.333 3.333h5.333v6.267l-5.333-4.533v-1.733z"></path>
<path d="M20.4 24.4c-0.933-1.067-2-2.133-3.067-3.2 0.133-0.133 0.267-0.133 0.4-0.267 0.133 0.133 0.133 0.133 0.267 0.267 0.933 0.933 1.867 2 2.8 2.933 0.133 0.133 0.267 0.133 0.4 0.133 1.067-0.4 2.267 0 2.8 1.067 0.533 0.933 0.4 2.267-0.4 2.933-0.8 0.8-2.133 0.8-2.933 0.267-0.933-0.667-1.333-1.867-0.8-2.933 0-0.533 0.267-0.8 0.533-1.2zM23.467 26.4c0-0.8-0.667-1.6-1.467-1.6s-1.6 0.667-1.6 1.467c0 0.8 0.667 1.6 1.467 1.6s1.6-0.667 1.6-1.467z"></path>
<path d="M18.267 12.933c-1.067-1.2-1.2-2.4-0.267-3.467 0.667-0.933 2-1.067 3.067-0.4s1.333 1.867 0.933 3.067c-0.667 1.2-1.733 1.6-3.333 1.067-0.533 0.667-0.933 1.2-1.467 1.867-0.133-0.133-0.267-0.133-0.4-0.267 0.4-0.533 0.933-1.2 1.467-1.867zM19.733 9.6c-0.8 0-1.6 0.667-1.467 1.467 0 0.8 0.667 1.467 1.467 1.467s1.467-0.667 1.467-1.467c0.133-0.8-0.533-1.467-1.467-1.467z"></path>
<path d="M9.867 17.867c0.4 0 0.8 0 1.333 0 0 0.133 0 0.267 0 0.4-0.4 0-0.667 0-1.067 0-0.267 0-0.267 0.133-0.267 0.267-0.133 1.067-1.067 1.867-2.133 1.867-1.067 0.133-2.133-0.533-2.4-1.6-0.4-1.333 0.267-2.667 1.6-3.067s2.667 0.4 2.933 1.733c0 0.133 0 0.267 0 0.4zM7.467 16.533c-0.8 0-1.467 0.667-1.6 1.467 0 0.8 0.667 1.6 1.467 1.6s1.6-0.667 1.6-1.467c0.133-0.933-0.533-1.6-1.467-1.6z"></path>
<path d="M6.533 20.667c0.133 0 0.267 0.133 0.4 0.133-0.133 0.4-0.267 0.667-0.267 1.067-0.267 0.667-0.4 1.467-0.667 2.133-0.133 0.267 0 0.267 0.133 0.4 0.8 0.533 1.067 1.6 0.667 2.4-0.533 0.8-1.467 1.2-2.4 0.667-0.8-0.4-1.2-1.467-0.8-2.4 0.267-0.667 0.8-1.067 1.6-1.067 0.267 0 0.267-0.133 0.4-0.267 0.267-1.067 0.667-2 0.933-3.067-0.133 0.133-0.133 0 0 0zM5.2 25.067c-0.533 0-0.933 0.4-0.933 0.933s0.4 0.933 0.933 0.933c0.533 0 0.933-0.4 0.933-0.933-0.133-0.533-0.533-0.933-0.933-0.933z"></path>
<path d="M13.333 25.333c0.133-0.933 0.267-1.733 0.4-2.667 0-0.133 0-0.267 0.133-0.4 0.133-0.4 0.133-0.4 0.533-0.267-0.267 1.2-0.4 2.4-0.667 3.467 0.933 0.533 1.333 1.467 0.933 2.4-0.4 0.8-1.333 1.2-2.133 0.933s-1.333-1.067-1.333-2c0.133-0.933 0.8-1.467 2.133-1.467zM13.067 26.133c-0.533 0-0.933 0.4-0.933 0.933s0.4 0.933 0.933 0.933c0.533 0 0.933-0.4 0.933-0.933s-0.533-0.933-0.933-0.933z"></path>
<path d="M22 12.8c0.533 0.667 1.067 1.333 1.733 1.867 0 0 0.133 0.133 0.133 0.133 0.267 0.267 0.4 0.4 0.8 0.267 0.8-0.267 1.733 0.133 2.133 0.933s0.133 1.733-0.533 2.267c-0.667 0.533-1.733 0.4-2.267-0.267-0.667-0.667-0.667-1.6-0.133-2.267 0 0 0.133-0.133 0.133-0.133-0.267-0.267-0.533-0.533-0.667-0.8-0.4-0.4-0.8-0.933-1.2-1.333s-0.4-0.4-0.133-0.667zM25.2 15.867c-0.533 0-0.933 0.4-0.933 0.933s0.4 0.933 0.933 0.933c0.533 0 0.933-0.4 0.933-0.933-0.133-0.533-0.533-0.933-0.933-0.933z"></path>
<path d="M12 12c0.533 0.933 0.933 1.867 1.467 2.8-0.133 0.133-0.267 0.133-0.4 0.267-0.667-0.933-1.067-1.867-1.6-2.8-0.533 0.133-1.067 0.133-1.6-0.267-0.267-0.133-0.533-0.533-0.667-0.933-0.267-0.8 0.133-1.733 0.933-2.133s1.733-0.133 2.267 0.533c0.533 0.8 0.4 1.6-0.4 2.533zM10.933 9.6c-0.533 0-0.933 0.4-0.933 0.933s0.4 0.933 0.933 0.933c0.533 0 0.933-0.4 0.933-0.933 0-0.4-0.533-0.933-0.933-0.933z"></path>
<path d="M11.733 18.133c0 1.733 1.467 3.2 3.2 3.2s3.2-1.467 3.2-3.2-1.467-3.2-3.2-3.2-3.2 1.467-3.2 3.2zM17.2 18.133c0 1.333-1.067 2.267-2.267 2.267s-2.267-1.067-2.267-2.267c0-1.333 1.067-2.267 2.267-2.267s2.267 1.067 2.267 2.267z"></path>
</svg>
