<!-- Generated by IcoMoon.io -->
<svg version="1.1" xmlns="http://www.w3.org/2000/svg" width="32" height="32" viewBox="0 0 32 32">
<title>relay_rules</title>
<path d="M24.497 30.908l-4.484-2.631 1.713-0.46c0.312-0.084 0.496-0.408 0.413-0.717-0.069-0.255-0.304-0.432-0.571-0.432l-0.116 0.009-3.139 0.841c-0.055 0.015-0.099 0.044-0.144 0.072 0.001-0.017 0.016-0.031 0.016-0.048v-6.808c0-0.101-0.031-0.205-0.157-0.385-0.016-0.024-0.047-0.064-0.124-0.096l-0.053-0.052-4.901-1.76v-8.708l1.275 1.276c0.112 0.111 0.259 0.172 0.415 0.172s0.303-0.061 0.413-0.173c0.111-0.111 0.172-0.257 0.172-0.415s-0.061-0.304-0.172-0.415l-2.277-2.273c-0.109-0.112-0.257-0.173-0.415-0.173-0.156 0-0.304 0.061-0.415 0.172l-2.275 2.275c-0.112 0.112-0.173 0.259-0.173 0.416s0.060 0.304 0.172 0.413c0.111 0.112 0.257 0.173 0.415 0.173s0.304-0.061 0.416-0.172l1.275-1.276v8.731l-4.957 1.771-0.036 0.025c-0.045 0.033-0.072 0.071-0.148 0.168-0.063 0.099-0.096 0.203-0.096 0.309v6.808c0 0.015 0.012 0.027 0.013 0.040-0.041-0.036-0.071-0.075-0.141-0.093l-3.115-0.835-0.141-0.017c-0.268 0-0.503 0.177-0.571 0.432-0.040 0.152-0.019 0.309 0.059 0.444 0.079 0.135 0.205 0.232 0.356 0.272l1.756 0.471-4.467 2.62c-0.276 0.165-0.371 0.523-0.208 0.801 0.104 0.179 0.297 0.291 0.507 0.291 0.103 0 0.205-0.027 0.296-0.080l4.441-2.605-0.464 1.729c-0.083 0.312 0.101 0.633 0.423 0.72l0.144 0.017c0.264 0 0.496-0.179 0.565-0.435l0.835-3.112c0.019-0.073 0.004-0.135-0.009-0.195 0.039 0.027 0.065 0.069 0.112 0.085l5.236 1.869c0.064 0.025 0.131 0.036 0.197 0.036s0.133-0.012 0.197-0.035l5.237-1.871c0.037-0.013 0.059-0.049 0.091-0.069-0.007 0.069-0.005 0.141 0.013 0.212l0.833 3.108c0.069 0.256 0.301 0.433 0.567 0.433l0.123-0.012 0.029-0.008c0.152-0.040 0.277-0.137 0.356-0.272s0.1-0.293 0.059-0.444l-0.475-1.773 4.52 2.652c0.087 0.051 0.188 0.077 0.288 0.077 0.209 0 0.404-0.112 0.505-0.289 0.163-0.276 0.071-0.636-0.209-0.803zM15.861 20.733l-3.501 1.251-3.491-1.245 3.523-1.252 3.469 1.247zM7.711 27.133v-5.565l4.065 1.452v5.564l-4.065-1.451zM12.947 23.019l4.065-1.452v5.565l-4.065 1.452v-5.565z"></path>
<path d="M31.956 0.701c0-0.376-0.307-0.684-0.687-0.687l-6.877-0.015c-0.183 0-0.356 0.071-0.485 0.2s-0.203 0.303-0.203 0.487l0.044 19.96c0 0.377 0.307 0.687 0.684 0.687l6.88 0.015c0.179 0 0.355-0.072 0.487-0.204 0.131-0.131 0.201-0.301 0.201-0.483l-0.044-19.96zM30.627 19.975l-5.507-0.012-0.040-18.589 5.507 0.012 0.001 0.86-3.103-0.008c-0.34 0-0.619 0.277-0.621 0.62 0 0.343 0.277 0.621 0.621 0.621l3.105 0.008 0.001 0.987h-0.848c-0.343 0-0.621 0.277-0.621 0.619-0.001 0.167 0.064 0.323 0.18 0.441s0.275 0.184 0.44 0.184l0.853 0.001 0.001 0.988-0.829-0.001c-0.343 0-0.621 0.277-0.621 0.62s0.277 0.621 0.621 0.621l0.831 0.001 0.001 0.992-3.081-0.007c-0.343 0-0.621 0.277-0.621 0.62s0.277 0.621 0.62 0.621l3.087 0.008 0.001 0.987-0.839-0.001c-0.343 0-0.621 0.277-0.621 0.62s0.277 0.621 0.621 0.621l0.841 0.001 0.001 0.992-3.091-0.005c-0.343 0-0.621 0.277-0.621 0.62s0.277 0.621 0.62 0.621l3.097 0.008 0.001 0.987-0.848-0.001c-0.343 0-0.621 0.277-0.621 0.62s0.277 0.621 0.621 0.621l0.849 0.001 0.001 0.989-3.143-0.009c-0.329 0-0.579 0.268-0.581 0.624 0 0.343 0.277 0.621 0.62 0.621l3.105 0.005 0.007 0.869z"></path>
</svg>
