<!-- Generated by IcoMoon.io -->
<svg version="1.1" xmlns="http://www.w3.org/2000/svg" width="32" height="32" viewBox="0 0 32 32">
<title>relay_set</title>
<path d="M16.066 21.656c-3.119 0-5.656-2.538-5.656-5.656s2.537-5.656 5.656-5.656 5.656 2.537 5.656 5.656-2.538 5.656-5.656 5.656zM16.066 11.688c-2.378 0-4.313 1.934-4.313 4.313s1.934 4.313 4.313 4.313c2.378 0 4.313-1.934 4.313-4.313s-1.934-4.313-4.313-4.313z"></path>
<path d="M4.972 25.566c-0.222 0-0.444-0.025-0.662-0.075-0.756-0.175-1.4-0.634-1.813-1.294s-0.541-1.441-0.366-2.197c0.175-0.756 0.634-1.4 1.294-1.813s1.441-0.541 2.197-0.366c0.756 0.175 1.4 0.634 1.813 1.294s0.541 1.441 0.366 2.197c-0.175 0.756-0.634 1.4-1.294 1.813-0.469 0.291-0.997 0.441-1.534 0.441zM4.963 21.091c-0.291 0-0.575 0.081-0.825 0.238-0.356 0.222-0.603 0.569-0.697 0.975s-0.025 0.828 0.197 1.181 0.569 0.603 0.975 0.697c0.841 0.194 1.684-0.331 1.878-1.172 0.094-0.406 0.025-0.828-0.197-1.181-0.222-0.356-0.569-0.603-0.975-0.697-0.119-0.028-0.237-0.041-0.356-0.041z"></path>
<path d="M16.066 31.984c-1.603 0-2.909-1.306-2.909-2.909s1.306-2.909 2.909-2.909 2.909 1.306 2.909 2.909-1.306 2.909-2.909 2.909zM16.066 27.509c-0.863 0-1.566 0.703-1.566 1.566s0.703 1.566 1.566 1.566c0.863 0 1.566-0.703 1.566-1.566s-0.703-1.566-1.566-1.566z"></path>
<path d="M27.212 25.566c-0.516 0-1.025-0.137-1.481-0.409-0.669-0.397-1.141-1.031-1.334-1.784-0.191-0.753-0.078-1.534 0.319-2.203s1.031-1.141 1.784-1.334c0.753-0.191 1.534-0.078 2.203 0.319s1.141 1.031 1.334 1.784c0.191 0.753 0.078 1.534-0.319 2.203s-1.031 1.141-1.784 1.334c-0.238 0.063-0.481 0.091-0.722 0.091zM27.222 21.091c-0.128 0-0.259 0.016-0.391 0.050-0.406 0.103-0.747 0.359-0.959 0.719s-0.275 0.781-0.172 1.184v0c0.103 0.406 0.359 0.747 0.719 0.959s0.781 0.275 1.184 0.172c0.406-0.103 0.747-0.359 0.959-0.719s0.275-0.781 0.172-1.184c-0.103-0.406-0.359-0.747-0.719-0.959-0.244-0.147-0.516-0.222-0.794-0.222z"></path>
<path d="M16.069 22.466l-2.031 2.016 0.534 0.538 1.109-1.1-0.012 1.947 0.766 0.003 0.009-1.947 1.1 1.109 0.541-0.534z"></path>
<path d="M24.528 20.628l-1.684-0.978 1.512-0.4-0.194-0.734-2.766 0.731 0.728 2.766 0.734-0.194-0.4-1.512 1.684 0.981z"></path>
<path d="M7.844 18.516l-0.194 0.734 1.512 0.4-1.684 0.978 0.384 0.659 1.684-0.981-0.4 1.512 0.734 0.194 0.728-2.766z"></path>
<path d="M14.575 7.269l1.109-1.1-0.012 3.363 0.762 0.003 0.012-3.362 1.1 1.109 0.538-0.534-2.012-2.031-2.031 2.016z"></path>
<path d="M14.575 2.553l1.109-1.1-0.012 2.45 0.762 0.003 0.012-2.45 1.1 1.109 0.538-0.534-2.012-2.031-2.031 2.016z"></path>
<path d="M14.25 12.922h1.941c1.097 0 1.856 0.594 1.856 1.634 0 0.8-0.462 1.262-1.016 1.419 0.703 0.362 1.122 1.353 1.256 2.559h-1.212c-0.197-1.222-0.678-2.087-1.363-2.087h-0.287v2.087h-1.175v-5.613zM16.191 14.053h-0.769v1.262h0.769c0.372 0 0.653-0.222 0.653-0.628 0-0.412-0.281-0.634-0.653-0.634z"></path>
</svg>
