<!-- Generated by IcoMoon.io -->
<svg version="1.1" xmlns="http://www.w3.org/2000/svg" width="32" height="32" viewBox="0 0 32 32">
<title>relay</title>
<path d="M31.206 31.406c-0.091 0-0.184-0.025-0.259-0.069l-6.281-3.684 0.75 2.8c0.038 0.137 0.019 0.281-0.053 0.406s-0.188 0.212-0.325 0.25l-0.022 0.006-0.128 0.012c-0.238-0.003-0.447-0.166-0.509-0.397l-1.072-4.003c-0.016-0.056-0.019-0.119-0.009-0.197l0.025-0.25 0.253-0.156c0.041-0.025 0.078-0.047 0.109-0.056l4.022-1.078 0.119-0.009c0.241 0.003 0.453 0.166 0.516 0.394 0.075 0.284-0.094 0.578-0.378 0.656l-2.712 0.725 6.225 3.65c0.256 0.153 0.341 0.481 0.194 0.734-0.097 0.166-0.272 0.266-0.462 0.266zM0.797 31.369c-0.191 0-0.369-0.103-0.463-0.266-0.147-0.253-0.063-0.581 0.191-0.734l6.2-3.637-2.766-0.741c-0.138-0.038-0.253-0.125-0.325-0.25-0.069-0.122-0.091-0.266-0.053-0.406 0.059-0.228 0.269-0.387 0.512-0.394l0.153 0.019 3.994 1.072c0.019 0.006 0.025 0.009 0.059 0.041 0.012 0.009 0.022 0.022 0.034 0.031l0.219 0.191 0.056 0.247c0.016 0.066 0.022 0.103 0.012 0.144l-1.075 4.003c-0.063 0.231-0.269 0.391-0.506 0.397l-0.153-0.019c-0.287-0.084-0.45-0.369-0.375-0.656l0.734-2.741-6.178 3.625c-0.084 0.050-0.178 0.075-0.272 0.075zM15.959 28.831c-0.063 0-0.122-0.009-0.175-0.031l-0.006-0.003-6.734-2.406c-0.006-0.006-0.016-0.012-0.022-0.019-0.022-0.019-0.047-0.044-0.078-0.066l-0.225-0.153-0.025-0.234c-0.003-0.028-0.009-0.050-0.016-0.066v-8.731c0-0.091 0.028-0.181 0.084-0.272l0.022-0.028c0.069-0.087 0.091-0.116 0.116-0.134l0.019-0.012 6.5-2.322v-11.928l-2.016 2.016c-0.103 0.1-0.238 0.156-0.381 0.156s-0.278-0.056-0.378-0.159l-0.003-0.003c-0.1-0.097-0.156-0.231-0.156-0.375s0.056-0.278 0.159-0.381l2.934-2.928c0.1-0.1 0.238-0.156 0.378-0.156 0.144 0 0.278 0.056 0.378 0.156l2.934 2.928c0.1 0.1 0.156 0.237 0.156 0.378 0 0.144-0.056 0.278-0.156 0.378-0.103 0.103-0.234 0.159-0.378 0.159-0.141 0-0.278-0.056-0.381-0.159l-2.009-2.009v11.897l6.413 2.303 0.066 0.063 0.038 0.016c0.044 0.019 0.056 0.034 0.063 0.044l0.003 0.003c0.15 0.212 0.163 0.303 0.163 0.369v8.728c-0.009 0.022-0.019 0.050-0.019 0.081l-0.019 0.241-0.244 0.153c-0.038 0.022-0.063 0.047-0.081 0.066-0.003 0.003-0.006 0.006-0.009 0.009l-6.728 2.403c-0.063 0.022-0.125 0.031-0.184 0.031zM16.494 19.906v7.631l5.672-2.025v-7.634l-5.672 2.028zM9.75 25.512l5.672 2.025v-7.631l-5.672-2.025v7.631zM10.809 17.122l5.147 1.837 5.156-1.841-5.116-1.838-5.188 1.841z"></path>
</svg>
