<!-- Generated by IcoMoon.io -->
<svg version="1.1" xmlns="http://www.w3.org/2000/svg" width="32" height="32" viewBox="0 0 32 32">
<title>relay_config</title>
<path d="M24.984 10.031c-1.663 0-3.015-1.352-3.015-3.013s1.352-3.013 3.015-3.013c1.661 0 3.013 1.352 3.013 3.013s-1.352 3.013-3.013 3.013zM24.984 5.321c-0.936 0-1.697 0.76-1.697 1.696s0.76 1.696 1.697 1.696c0.935 0 1.695-0.76 1.695-1.696s-0.76-1.696-1.695-1.696z"></path>
<path d="M24.984 14.035c-0.32 0-0.639-0.023-0.967-0.067-0.293-0.041-0.524-0.272-0.563-0.567l-0.171-1.295c-0.237-0.079-0.469-0.175-0.695-0.288l-1.036 0.797c-0.236 0.181-0.563 0.181-0.799 0.003-0.509-0.385-0.981-0.859-1.368-1.369-0.18-0.236-0.179-0.563 0.001-0.799l0.796-1.036c-0.113-0.225-0.211-0.459-0.289-0.697l-1.295-0.169c-0.295-0.039-0.527-0.269-0.567-0.563-0.091-0.643-0.091-1.293 0-1.936 0.040-0.293 0.272-0.524 0.567-0.563l1.295-0.169c0.079-0.239 0.176-0.471 0.289-0.697l-0.796-1.036c-0.18-0.235-0.181-0.561-0.003-0.797 0.384-0.508 0.857-0.981 1.369-1.369 0.236-0.18 0.563-0.179 0.799 0.003l1.036 0.796c0.225-0.112 0.457-0.209 0.695-0.288l0.171-1.293c0.039-0.293 0.269-0.527 0.563-0.567 0.655-0.091 1.277-0.091 1.939 0.001 0.293 0.041 0.523 0.273 0.561 0.568l0.169 1.295c0.237 0.079 0.469 0.175 0.693 0.287l1.035-0.796c0.237-0.181 0.563-0.181 0.799-0.003 0.517 0.392 0.979 0.852 1.371 1.371 0.179 0.236 0.177 0.563-0.004 0.799l-0.795 1.036c0.112 0.224 0.207 0.455 0.285 0.692l1.295 0.169c0.295 0.039 0.527 0.269 0.567 0.563 0.091 0.648 0.091 1.281 0.001 1.937-0.041 0.295-0.273 0.525-0.568 0.564l-1.295 0.169c-0.079 0.237-0.175 0.468-0.285 0.692l0.795 1.035c0.181 0.235 0.183 0.561 0.004 0.799-0.389 0.516-0.851 0.976-1.371 1.371-0.236 0.179-0.561 0.179-0.799-0.003l-1.035-0.796c-0.224 0.112-0.456 0.209-0.693 0.288l-0.169 1.295c-0.039 0.295-0.269 0.527-0.563 0.568-0.331 0.044-0.651 0.067-0.971 0.067zM24.692 12.709c0.196 0.011 0.391 0.008 0.587 0l0.157-1.203c0.036-0.271 0.235-0.492 0.499-0.555 0.411-0.099 0.799-0.26 1.159-0.481 0.232-0.143 0.529-0.127 0.747 0.039l0.961 0.74c0.145-0.132 0.284-0.271 0.415-0.415l-0.739-0.961c-0.167-0.216-0.183-0.513-0.040-0.747 0.22-0.359 0.381-0.748 0.48-1.157 0.063-0.265 0.284-0.464 0.555-0.5l1.204-0.157c0.011-0.196 0.011-0.391 0-0.587l-1.204-0.157c-0.271-0.036-0.492-0.235-0.555-0.5-0.099-0.409-0.259-0.797-0.48-1.157-0.143-0.233-0.127-0.529 0.040-0.745l0.739-0.964c-0.132-0.145-0.271-0.284-0.415-0.415l-0.961 0.739c-0.217 0.165-0.515 0.183-0.747 0.039-0.36-0.221-0.751-0.383-1.159-0.481-0.264-0.064-0.463-0.284-0.499-0.555l-0.157-1.204c-0.196-0.011-0.391-0.011-0.587 0l-0.157 1.203c-0.036 0.271-0.235 0.492-0.5 0.555-0.408 0.097-0.797 0.26-1.159 0.481-0.232 0.143-0.528 0.125-0.747-0.039l-0.961-0.74c-0.145 0.132-0.284 0.271-0.415 0.415l0.739 0.961c0.165 0.216 0.181 0.512 0.039 0.745-0.221 0.363-0.384 0.753-0.481 1.161-0.063 0.265-0.284 0.464-0.555 0.5l-1.203 0.157c-0.011 0.195-0.011 0.391 0 0.587l1.203 0.157c0.271 0.036 0.492 0.235 0.555 0.5 0.097 0.408 0.26 0.799 0.481 1.161 0.143 0.232 0.127 0.529-0.039 0.745l-0.739 0.961c0.132 0.144 0.271 0.284 0.415 0.415l0.961-0.74c0.219-0.165 0.513-0.18 0.745-0.040 0.363 0.221 0.753 0.384 1.163 0.481 0.264 0.064 0.463 0.284 0.499 0.555l0.156 1.203z"></path>
<path d="M24.497 30.908l-4.484-2.631 1.713-0.46c0.312-0.084 0.496-0.408 0.413-0.717-0.069-0.255-0.304-0.432-0.571-0.432l-0.116 0.009-3.139 0.841c-0.055 0.015-0.099 0.044-0.144 0.072 0.001-0.017 0.016-0.031 0.016-0.048v-6.808c0-0.101-0.031-0.205-0.157-0.385-0.016-0.024-0.047-0.064-0.124-0.096l-0.053-0.052-4.901-1.76v-8.708l1.275 1.276c0.112 0.111 0.259 0.172 0.415 0.172s0.303-0.061 0.413-0.173c0.111-0.111 0.172-0.257 0.172-0.415s-0.061-0.304-0.172-0.415l-2.277-2.273c-0.109-0.112-0.257-0.173-0.415-0.173-0.156 0-0.304 0.061-0.415 0.172l-2.275 2.275c-0.112 0.112-0.173 0.259-0.173 0.416s0.060 0.304 0.172 0.413c0.111 0.112 0.257 0.173 0.415 0.173s0.304-0.061 0.416-0.172l1.275-1.276v8.731l-4.957 1.771-0.036 0.025c-0.045 0.033-0.072 0.071-0.148 0.168-0.063 0.099-0.096 0.203-0.096 0.309v6.808c0 0.015 0.012 0.027 0.013 0.040-0.041-0.036-0.071-0.075-0.141-0.093l-3.115-0.835-0.141-0.017c-0.268 0-0.503 0.177-0.571 0.432-0.040 0.152-0.019 0.309 0.059 0.444s0.205 0.232 0.356 0.272l1.756 0.471-4.467 2.62c-0.276 0.165-0.371 0.523-0.208 0.801 0.104 0.179 0.297 0.291 0.507 0.291 0.103 0 0.205-0.027 0.296-0.080l4.441-2.605-0.464 1.729c-0.083 0.312 0.101 0.633 0.423 0.72l0.144 0.017c0.264 0 0.496-0.179 0.565-0.435l0.835-3.112c0.019-0.073 0.004-0.135-0.009-0.195 0.039 0.027 0.065 0.069 0.112 0.085l5.236 1.869c0.064 0.025 0.131 0.036 0.197 0.036s0.133-0.012 0.197-0.035l5.237-1.871c0.037-0.013 0.059-0.049 0.091-0.069-0.007 0.069-0.005 0.141 0.013 0.212l0.833 3.108c0.069 0.256 0.301 0.433 0.567 0.433l0.123-0.012 0.029-0.008c0.152-0.040 0.277-0.137 0.356-0.272s0.1-0.293 0.059-0.444l-0.475-1.773 4.52 2.652c0.087 0.051 0.188 0.077 0.288 0.077 0.209 0 0.404-0.112 0.505-0.289 0.163-0.276 0.071-0.636-0.209-0.803zM15.861 20.733l-3.501 1.251-3.491-1.245 3.523-1.252 3.469 1.247zM7.711 27.133v-5.565l4.065 1.452v5.564l-4.065-1.451zM12.947 23.019l4.065-1.452v5.565l-4.065 1.452v-5.565z"></path>
</svg>
