<!-- Generated by IcoMoon.io -->
<svg version="1.1" xmlns="http://www.w3.org/2000/svg" width="32" height="32" viewBox="0 0 32 32">
<title>reload_refresh_update</title>
<path d="M32 13.184c-0.256 0.64-0.736 0.832-1.408 0.832-3.136-0.032-6.272 0-9.408 0-0.256 0-0.512-0.032-0.768-0.128-0.384-0.128-0.544-0.448-0.352-0.832 0.128-0.224 0.288-0.448 0.48-0.64 1.344-1.376 2.72-2.72 4.064-4.064 0.096-0.096 0.16-0.16 0.288-0.256-0.224-0.256-0.384-0.512-0.608-0.704-2.496-2.336-5.44-3.488-8.864-3.36-5.536 0.192-10.368 4.448-11.264 9.92-1.056 6.528 3.104 12.576 9.6 13.824 5.92 1.152 11.776-2.208 13.664-8.128 0.256-0.768 0.672-1.344 1.472-1.568 0.736-0.192 1.408-0.032 1.952 0.512s0.736 1.248 0.48 1.984c-1.536 4.864-4.64 8.32-9.344 10.272-1.504 0.64-3.104 0.992-4.768 1.088-0.096 0-0.192 0.032-0.288 0.064-0.64 0-1.28 0-1.952 0-0.096-0.032-0.192-0.032-0.256-0.064-0.768-0.128-1.568-0.192-2.336-0.352-8.448-1.984-13.728-10.144-12.096-18.656 1.408-7.2 7.68-12.64 15.008-12.928 3.68-0.16 7.040 0.864 10.016 3.040 0.864 0.64 1.664 1.376 2.528 2.112 0.032-0.032 0.096-0.128 0.192-0.224 0.864-0.864 1.696-1.728 2.56-2.56 0.64-0.608 1.088-0.48 1.376 0.32 0 0.032 0 0.032 0.032 0.064 0 3.488 0 6.944 0 10.432z"></path>
</svg>
