<!-- Generated by IcoMoon.io -->
<svg version="1.1" xmlns="http://www.w3.org/2000/svg" width="32" height="32" viewBox="0 0 32 32">
<title>remote_control</title>
<path d="M20.599 31.969h-9.309c-0.369 0-0.667-0.298-0.667-0.667v-22.583c0-0.369 0.298-0.667 0.667-0.667h9.309c0.369 0 0.667 0.298 0.667 0.667v22.583c0 0.368-0.298 0.667-0.667 0.667zM11.956 30.635h7.976v-21.249h-7.976v21.249z"></path>
<path d="M15.941 17.44c-1.555 0-2.819-1.264-2.819-2.818s1.264-2.819 2.819-2.819 2.819 1.264 2.819 2.819c-0 1.554-1.264 2.818-2.819 2.818zM15.941 13.136c-0.819 0-1.486 0.667-1.486 1.486s0.667 1.485 1.486 1.485 1.486-0.666 1.486-1.485-0.667-1.486-1.486-1.486z"></path>
<path d="M18.583 6.38c-0.178 0-0.355-0.071-0.487-0.211-0.552-0.589-1.297-0.914-2.098-0.914-0.001 0-0.001 0-0.001 0-0.801 0.001-1.546 0.325-2.096 0.914-0.253 0.268-0.675 0.28-0.943 0.031-0.269-0.252-0.283-0.674-0.031-0.943 0.807-0.861 1.897-1.335 3.070-1.336 0 0 0.001 0 0.001 0 1.173 0 2.264 0.475 3.072 1.336 0.251 0.268 0.237 0.69-0.031 0.942-0.129 0.12-0.292 0.18-0.456 0.18z"></path>
<path d="M10.397 3.801c-0.166 0-0.332-0.061-0.461-0.185-0.266-0.255-0.275-0.677-0.021-0.943 1.608-1.68 3.768-2.605 6.083-2.605s4.476 0.925 6.084 2.605c0.254 0.266 0.245 0.688-0.021 0.943s-0.687 0.245-0.943-0.021c-1.354-1.415-3.173-2.193-5.12-2.193s-3.766 0.779-5.119 2.193c-0.131 0.137-0.307 0.206-0.482 0.206z"></path>
</svg>
