<!-- Generated by IcoMoon.io -->
<svg version="1.1" xmlns="http://www.w3.org/2000/svg" width="32" height="32" viewBox="0 0 32 32">
<title>remove_clear_text_style</title>
<path d="M19.266 28.001h-15.977c-0.369 0-0.667-0.298-0.667-0.667s0.298-0.667 0.667-0.667h15.977c0.369 0 0.667 0.298 0.667 0.667s-0.298 0.667-0.667 0.667z"></path>
<path d="M29.353 31.422c-0.171 0-0.341-0.065-0.471-0.195l-6.84-6.841c-0.26-0.26-0.26-0.682 0-0.943s0.682-0.26 0.943 0l6.84 6.841c0.26 0.26 0.26 0.682 0 0.943-0.13 0.13-0.301 0.195-0.471 0.195z"></path>
<path d="M22.513 31.422c-0.171 0-0.341-0.065-0.471-0.195-0.26-0.26-0.26-0.682 0-0.943l6.84-6.841c0.26-0.26 0.682-0.26 0.943 0s0.26 0.682 0 0.943l-6.84 6.841c-0.13 0.13-0.301 0.195-0.471 0.195z"></path>
<path d="M12.633 24.001h-2.632c-0.369 0-0.667-0.298-0.667-0.667s0.298-0.667 0.667-0.667h2.632c0.369 0 0.667 0.298 0.667 0.667s-0.298 0.667-0.667 0.667z"></path>
<path d="M3.333 6.668c-0.369 0-0.667-0.298-0.667-0.667v-1.333c0-0.369 0.298-0.667 0.667-0.667s0.667 0.298 0.667 0.667v1.333c0 0.368-0.298 0.667-0.667 0.667z"></path>
<path d="M19.333 6.668c-0.369 0-0.667-0.298-0.667-0.667v-1.333c0-0.369 0.298-0.667 0.667-0.667s0.667 0.298 0.667 0.667v1.333c0 0.368-0.298 0.667-0.667 0.667z"></path>
<path d="M19.333 5.335h-16c-0.369 0-0.667-0.298-0.667-0.667s0.298-0.667 0.667-0.667h16c0.369 0 0.667 0.298 0.667 0.667s-0.298 0.667-0.667 0.667z"></path>
<path d="M11.333 24.001c-0.369 0-0.667-0.298-0.667-0.667v-18.667c0-0.369 0.298-0.667 0.667-0.667s0.667 0.298 0.667 0.667v18.667c0 0.368-0.298 0.667-0.667 0.667z"></path>
</svg>
