<svg version="1.1" xmlns="http://www.w3.org/2000/svg" width="32" height="32" viewBox="0 0 32 32">
<title>resize_left_right</title>
<path d="M25.109 19.642c-0.171 0-0.341-0.065-0.471-0.195-0.26-0.26-0.26-0.682 0-0.943l3.178-3.177-3.178-3.178c-0.26-0.26-0.26-0.682 0-0.943s0.682-0.26 0.943 0l3.65 3.649c0.125 0.125 0.195 0.294 0.195 0.471s-0.070 0.346-0.195 0.471l-3.65 3.648c-0.13 0.13-0.301 0.195-0.471 0.195z"></path>
<path d="M28.759 16.001h-10.759c-0.369 0-0.667-0.298-0.667-0.667s0.298-0.667 0.667-0.667h10.759c0.369 0 0.667 0.298 0.667 0.667s-0.298 0.667-0.667 0.667z"></path>
<path d="M18 28.668c-0.369 0-0.667-0.298-0.667-0.667v-25.333c0-0.369 0.298-0.667 0.667-0.667s0.667 0.298 0.667 0.667v25.333c0 0.368-0.298 0.667-0.667 0.667z"></path>
<path d="M6.981 19.659c-0.171 0-0.341-0.065-0.471-0.195l-3.649-3.65c-0.26-0.26-0.26-0.682 0-0.943l3.649-3.649c0.26-0.26 0.682-0.26 0.943 0s0.26 0.682 0 0.943l-3.178 3.178 3.178 3.178c0.26 0.26 0.26 0.682 0 0.943-0.13 0.13-0.301 0.195-0.471 0.195z"></path>
<path d="M14.091 16.001h-10.759c-0.369 0-0.667-0.298-0.667-0.667s0.298-0.667 0.667-0.667h10.758c0.369 0 0.667 0.298 0.667 0.667s-0.298 0.667-0.667 0.667z"></path>
<path d="M14.091 28.668c-0.369 0-0.667-0.298-0.667-0.667v-25.333c0-0.369 0.298-0.667 0.667-0.667s0.667 0.298 0.667 0.667v25.333c0 0.368-0.298 0.667-0.667 0.667z"></path>
</svg>
