<!-- Generated by IcoMoon.io -->
<svg version="1.1" xmlns="http://www.w3.org/2000/svg" width="32" height="32" viewBox="0 0 32 32">
<title>resize_left_right</title>
<path d="M18 2c0.552 0 1 0.448 1 1v12h5.461l-1.293-1.293c-0.39-0.391-0.39-1.024 0-1.414s1.024-0.39 1.414 0l3 3c0.39 0.391 0.39 1.024 0 1.414l-3 3c-0.391 0.39-1.024 0.39-1.414 0s-0.39-1.024 0-1.414l1.293-1.293h-5.461v12c0 0.552-0.448 1-1 1s-1-0.448-1-1v-26c0-0.552 0.448-1 1-1zM8.832 19.707c-0.391 0.39-1.024 0.39-1.414 0l-3-3c-0.391-0.391-0.391-1.024 0-1.414l3-3c0.391-0.39 1.024-0.39 1.414 0s0.39 1.024 0 1.414l-1.293 1.293h5.461v-12c0-0.552 0.448-1 1-1s1 0.448 1 1v26c0 0.552-0.448 1-1 1s-1-0.448-1-1v-12h-5.461l1.293 1.293c0.39 0.391 0.39 1.024 0 1.414z"></path>
</svg>
