<!-- Generated by IcoMoon.io -->
<svg version="1.1" xmlns="http://www.w3.org/2000/svg" width="32" height="32" viewBox="0 0 32 32">
<title>resize_corner_window</title>
<path d="M2.291 32c-0.153 0-0.303-0.059-0.419-0.175-0.231-0.231-0.231-0.606 0-0.841l29.106-29.106c0.231-0.231 0.606-0.231 0.841 0 0.231 0.231 0.231 0.609 0 0.841l-29.109 29.106c-0.116 0.116-0.266 0.175-0.419 0.175z"></path>
<path d="M10.059 31.984c-0.153 0-0.303-0.059-0.419-0.175-0.231-0.231-0.231-0.606 0-0.841l21.347-21.344c0.231-0.231 0.606-0.231 0.841 0 0.231 0.231 0.231 0.609 0 0.841l-21.347 21.347c-0.116 0.116-0.269 0.172-0.422 0.172z"></path>
<path d="M17.819 31.981c-0.153 0-0.303-0.059-0.419-0.175-0.231-0.231-0.231-0.606 0-0.841l13.578-13.578c0.231-0.231 0.606-0.231 0.841 0 0.231 0.231 0.231 0.606 0 0.841l-13.578 13.578c-0.116 0.119-0.269 0.175-0.422 0.175z"></path>
<path d="M25.584 31.972c-0.153 0-0.303-0.059-0.419-0.175-0.231-0.231-0.231-0.606 0-0.841l5.803-5.803c0.231-0.231 0.609-0.231 0.841 0s0.231 0.606 0 0.841l-5.803 5.803c-0.116 0.116-0.269 0.175-0.422 0.175z"></path>
</svg>
