<!-- Generated by IcoMoon.io -->
<svg version="1.1" xmlns="http://www.w3.org/2000/svg" width="32" height="32" viewBox="0 0 32 32">
<title>ringer_alarm_sound_silent_mute</title>
<path fill="none" stroke-linejoin="round" stroke-linecap="round" stroke-miterlimit="4" stroke-width="2" stroke="#000" d="M8.032 12.787q-0.023 0.384-0.023 0.797c0 5.416-1.134 6.416-2.738 8.38-0.665 0.814-0.083 2.036 1.081 2.036h13.649M25.906 20.956c-1.155-1.466-1.914-2.941-1.914-7.375 0-4.956-2.532-6.723-4.617-7.581-0.277-0.114-0.538-0.375-0.622-0.659-0.365-1.244-1.389-2.341-2.753-2.341s-2.387 1.097-2.75 2.342c-0.084 0.287-0.345 0.544-0.625 0.658-0.445 0.182-0.814 0.366-1.169 0.573l0.044-0.024M20 24v1c0 2.209-1.791 4-4 4s-4-1.791-4-4v0-1"></path>
<path fill="none" stroke-linejoin="miter" stroke-linecap="round" stroke-miterlimit="10" stroke-width="2" stroke="#000" d="M28 28l-24-24"></path>
</svg>
