<svg version="1.1" xmlns="http://www.w3.org/2000/svg" width="32" height="32" viewBox="0 0 32 32">
<title>ringer_alarm_sound_silent_mute</title>
<path d="M16.070 27.319c-2.167 0-4.353-0.288-6.463-0.881-0.354-0.1-0.561-0.469-0.461-0.823 0.101-0.354 0.47-0.557 0.823-0.461 6.447 1.814 13.635 0.616 18.538-3.044-1.526-1.799-4.122-5.677-4.296-11.385-0.010-0.368 0.279-0.675 0.647-0.687 0.362-0.001 0.675 0.279 0.686 0.647 0.178 5.919 3.15 9.704 4.419 11.057 0.128 0.134 0.191 0.315 0.18 0.5-0.013 0.185-0.102 0.355-0.245 0.473-3.676 2.995-8.703 4.605-13.829 4.605z"></path>
<path d="M4.716 24.283c-0.118 0-0.237-0.031-0.345-0.096-0.746-0.452-1.451-0.948-2.095-1.474-0.144-0.117-0.232-0.289-0.244-0.473-0.012-0.185 0.053-0.366 0.18-0.501 1.415-1.505 4.68-5.728 4.416-12.384-0.181-4.547 2.423-6.845 4.64-7.972 3.017-1.533 6.623-1.535 9.641 0 1.434 0.729 2.559 1.7 3.342 2.888 0.203 0.307 0.119 0.721-0.189 0.924-0.309 0.2-0.721 0.118-0.923-0.189-0.656-0.992-1.609-1.811-2.835-2.434-2.642-1.341-5.794-1.341-8.433 0-2.719 1.382-4.035 3.646-3.912 6.73 0.257 6.481-2.609 10.832-4.291 12.807 0.441 0.329 0.908 0.643 1.394 0.937 0.314 0.191 0.415 0.602 0.225 0.915-0.126 0.207-0.346 0.322-0.571 0.322z"></path>
<path d="M16.087 31.764c-2.029 0-3.68-1.367-3.68-3.048 0-0.369 0.298-0.667 0.667-0.667s0.667 0.298 0.667 0.667c0 0.93 1.075 1.715 2.347 1.715 1.273 0 2.349-0.785 2.349-1.715 0-0.369 0.298-0.667 0.667-0.667s0.667 0.298 0.667 0.667c0 1.681-1.652 3.048-3.682 3.048z"></path>
<path d="M0.962 31.663c-0.171 0-0.341-0.065-0.471-0.195-0.26-0.26-0.26-0.682 0-0.943l30.029-30.028c0.26-0.26 0.682-0.26 0.943 0s0.26 0.682 0 0.943l-30.029 30.028c-0.13 0.13-0.301 0.195-0.471 0.195z"></path>
</svg>
