<svg version="1.1" xmlns="http://www.w3.org/2000/svg" width="32" height="32" viewBox="0 0 32 32">
<title>ringer_alarm_sound</title>
<path d="M27.5 21.3c0 0 0 0 0 0l-0.3-0.3c-1.4-1.7-2.2-2.7-2.2-7.4 0-4.3-1.7-7.1-5.3-8.5-0.5-1.9-2-3.1-3.7-3.1s-3.2 1.2-3.8 3.1c-3.5 1.4-5.2 4.2-5.2 8.5 0 4.7-0.8 5.7-2.2 7.4l-0.3 0.4c-0.5 0.7-0.7 1.6-0.3 2.4 0.4 0.7 1.2 1.2 2.2 1.2h4.6c0 2.8 2.2 5 5 5s5-2.2 5-5h4.7c0.9 0 1.8-0.5 2.1-1.3 0.4-0.8 0.3-1.7-0.3-2.4zM16 28c-1.7 0-3-1.3-3-3h6c0 1.7-1.3 3-3 3zM26 22.8c0 0.1-0.1 0.2-0.3 0.2h-19.3c-0.3 0-0.4-0.1-0.4-0.2-0.1-0.1 0-0.2 0-0.2l0.3-0.4c1.5-1.8 2.7-3.2 2.7-8.6 0-4.4 2.1-5.9 4-6.7 0.6-0.2 1-0.7 1.2-1.3 0.2-0.8 0.9-1.6 1.8-1.6s1.6 0.8 1.8 1.6c0.2 0.6 0.6 1.1 1.2 1.3 1.9 0.8 4 2.2 4 6.7 0 5.4 1.2 6.9 2.7 8.7l0.3 0.4c0-0.1 0 0 0 0.1z"></path>
</svg>
