<!-- Generated by IcoMoon.io -->
<svg version="1.1" xmlns="http://www.w3.org/2000/svg" width="32" height="32" viewBox="0 0 32 32">
<title>robust_random</title>
<path d="M26.5 25.9c0 0-0.1 0-0.1 0-0.2 0-0.4-0.2-0.5-0.3l-2.7-5-3.7 1.3c-0.2 0.1-0.4 0-0.5 0-0.2-0.1-0.3-0.2-0.3-0.4l-3.4-13.7c-0.1-0.3 0.1-0.7 0.5-0.8 0.3-0.1 0.7 0.1 0.8 0.5l3.2 12.9 3.5-1.3c0.3-0.1 0.6 0 0.8 0.3l2.6 4.8 3.2-2.9c0.3-0.2 0.7-0.2 0.9 0 0.2 0.3 0.2 0.7 0 0.9l-3.8 3.5c-0.2 0.1-0.3 0.2-0.5 0.2z"></path>
<path d="M15.5 8.3c-1.3 0-2.4-1.1-2.4-2.3 0-1.3 1.1-2.4 2.4-2.4s2.4 1.1 2.4 2.4c0 1.3-1.1 2.3-2.4 2.3z"></path>
<path d="M10.5 26.4c-0.2 0-0.3-0.1-0.4-0.2l-3.7-3.5-4.3 3.4c-0.3 0.2-0.7 0.2-0.9-0.1s-0.2-0.7 0.1-0.9l4.7-3.8c0.3-0.2 0.6-0.2 0.9 0l3.3 3.1 4.2-17c0.1-0.3 0.4-0.6 0.8-0.5 0.3 0.1 0.6 0.4 0.5 0.8l-4.5 18.1c-0.1 0.2-0.2 0.4-0.4 0.5-0.2 0-0.2 0.1-0.3 0.1z"></path>
<path d="M2.7 15.2h-1c-0.4 0-0.6-0.3-0.6-0.6s0.3-0.6 0.6-0.6h1c0.4 0 0.6 0.3 0.6 0.6s-0.2 0.6-0.6 0.6z"></path>
<path d="M24.3 15.2h-2.2c-0.4 0-0.7-0.3-0.7-0.6s0.3-0.6 0.7-0.6h2.2c0.4 0 0.7 0.3 0.7 0.6s-0.3 0.6-0.7 0.6zM17.1 15.2h-2.2c-0.4 0-0.6-0.3-0.6-0.6s0.3-0.6 0.6-0.6h2.2c0.4 0 0.7 0.3 0.7 0.6s-0.3 0.6-0.7 0.6zM9.9 15.2h-2.2c-0.4 0-0.6-0.3-0.6-0.6s0.3-0.6 0.6-0.6h2.2c0.4 0 0.6 0.3 0.6 0.6s-0.2 0.6-0.6 0.6z"></path>
<path d="M30.3 15.2h-1c-0.4 0-0.7-0.3-0.7-0.6s0.3-0.6 0.7-0.6h1c0.4 0 0.7 0.3 0.7 0.6s-0.3 0.6-0.7 0.6z"></path>
</svg>
