<svg version="1.1" xmlns="http://www.w3.org/2000/svg" width="32" height="32" viewBox="0 0 32 32">
<title>rocket_space_nasa</title>
<path d="M20.553 7.797c-2.022 0-3.669 1.647-3.669 3.669 0 0.978 0.381 1.897 1.069 2.591 0 0 0.003 0.003 0.003 0.003 0.694 0.694 1.616 1.075 2.594 1.075 0.981 0 1.903-0.381 2.594-1.075 0.694-0.694 1.075-1.616 1.075-2.594 0.003-2.022-1.644-3.669-3.666-3.669zM21.731 12.647c-0.316 0.316-0.734 0.491-1.178 0.491s-0.863-0.172-1.175-0.484c0 0-0.003-0.003-0.003-0.003-0.316-0.316-0.488-0.734-0.488-1.181 0-0.919 0.75-1.669 1.669-1.669s1.669 0.75 1.669 1.669c-0.003 0.444-0.178 0.863-0.494 1.178z"></path>
<path d="M29.837 3.144c-0.106-0.472-0.475-0.85-0.944-0.966-0.003 0-0.006-0.003-0.009-0.003-1.863-0.45-4.788 0.034-8.031 1.331-3.272 1.309-6.338 3.247-8.409 5.319-0.662 0.659-1.284 1.369-1.847 2.116-1.397-0.059-2.625 0.137-3.659 0.588-1.581 0.697-2.841 1.934-3.737 3.678-0.703 1.362-1.028 2.731-1.178 3.644-0.013 0.081-0.022 0.169-0.022 0.256 0 0.863 0.7 1.563 1.563 1.563 0.056 0 0.109-0.003 0.166-0.009 0.006 0 0.009 0 0.016-0.003l4.003-0.438c0.006 0.066 0.013 0.134 0.022 0.2 0.003 0.041 0.013 0.078 0.019 0.116 0.081 0.425 0.288 0.816 0.594 1.119l1.959 1.959c0.347 0.35 0.806 0.569 1.294 0.619 0 0 0.003 0 0.003 0 0.044 0.006 0.088 0.009 0.131 0.016l-0.441 4.016c-0.006 0.053-0.009 0.106-0.009 0.163 0 0.863 0.7 1.563 1.563 1.563 0.088 0 0.172-0.006 0.256-0.022 0.003 0 0.006 0 0.009 0 1.684-0.272 5.728-1.297 7.306-4.909 0.447-1.028 0.647-2.253 0.591-3.647 0.766-0.572 1.462-1.181 2.125-1.847 2.087-2.078 4.031-5.116 5.328-8.338 1.297-3.2 1.784-6.147 1.341-8.081zM26.647 10.481c-1.2 2.981-2.981 5.775-4.887 7.672 0 0-0.003 0.003-0.003 0.003-0.709 0.712-1.466 1.353-2.319 1.956-0.291 0.206-0.447 0.547-0.419 0.9 0.113 1.297-0.022 2.387-0.394 3.244-0.378 0.863-1.628 2.878-5.241 3.631l0.491-4.472c0.031-0.281-0.059-0.563-0.247-0.775s-0.459-0.334-0.741-0.334h-0.003c-0.353-0.003-0.716-0.025-1.022-0.063-0.006 0-0.016-0.003-0.025-0.003-0.037-0.006-0.063-0.025-0.078-0.038 0 0-0.003-0.003-0.003-0.003l-1.963-1.962c0 0-0.003-0.003-0.003-0.003-0.022-0.022-0.037-0.050-0.041-0.084-0.003-0.016-0.003-0.034-0.006-0.050-0.034-0.328-0.053-0.666-0.056-1-0.003-0.281-0.125-0.55-0.338-0.738s-0.491-0.278-0.772-0.247l-4.475 0.491c0.338-1.544 1.253-4.194 3.634-5.241 0.863-0.375 1.956-0.506 3.253-0.391 0.363 0.031 0.713-0.134 0.919-0.434l0.031-0.047c0.572-0.8 1.216-1.556 1.912-2.247 0 0 0.003-0.003 0.003-0.003 1.891-1.887 4.713-3.666 7.741-4.878 2.512-1.006 4.884-1.491 6.369-1.322 0.178 1.553-0.3 3.906-1.319 6.438z"></path>
<path d="M10.1 24.15c-0.55-0.056-1.041 0.344-1.097 0.894v0c-0.050 0.391-0.231 0.759-0.516 1.041-0.075 0.075-0.544 0.462-2.425 0.731-0.353 0.050-0.694 0.087-0.994 0.113 0.028-0.3 0.063-0.641 0.112-0.994 0.269-1.881 0.656-2.353 0.731-2.428 0.287-0.288 0.656-0.466 1.066-0.519 0.547-0.069 0.938-0.569 0.866-1.119-0.069-0.547-0.569-0.938-1.119-0.866-0.853 0.106-1.625 0.484-2.231 1.087-0.372 0.375-0.669 0.928-0.9 1.691-0.159 0.528-0.294 1.163-0.397 1.887-0.166 1.212-0.197 2.262-0.197 2.306-0.006 0.275 0.1 0.538 0.294 0.731 0.188 0.188 0.444 0.294 0.706 0.294 0.009 0 0.016 0 0.025 0 0.044 0 1.094-0.028 2.3-0.2 0.725-0.103 1.362-0.238 1.888-0.397 0.766-0.234 1.319-0.528 1.691-0.9 0.6-0.597 0.984-1.384 1.088-2.222 0-0.006 0.003-0.016 0.003-0.022v-0.012c0.056-0.55-0.344-1.041-0.894-1.097z"></path>
</svg>
