<svg version="1.1" xmlns="http://www.w3.org/2000/svg" width="32" height="32" viewBox="0 0 32 32">
<title>rolling_stairs_down</title>
<path d="M28.421 28h-5.155c-0.617 0-1.219-0.176-1.74-0.51l-13.82-10.156h-4.187c-1.788 0-3.243-1.495-3.243-3.333s1.455-3.333 3.243-3.333h5.156c0.617 0 1.219 0.176 1.741 0.511l13.818 10.156h4.187c1.789 0 3.245 1.495 3.245 3.333s-1.456 3.333-3.245 3.333zM3.518 12c-1.035 0-1.91 0.916-1.91 2s0.875 2 1.91 2h4.406c0.142 0 0.281 0.046 0.395 0.129l13.961 10.262c0.271 0.172 0.624 0.276 0.986 0.276h5.155c1.036 0 1.911-0.915 1.911-2s-0.875-2-1.911-2h-4.406c-0.142 0-0.28-0.046-0.395-0.129l-13.96-10.262c-0.271-0.173-0.625-0.276-0.986-0.276h-5.156z"></path>
<path d="M16.156 6.262c-1.43 0-2.594-1.163-2.594-2.594s1.163-2.594 2.594-2.594c1.431 0 2.595 1.164 2.595 2.594s-1.164 2.594-2.595 2.594zM16.156 2.407c-0.695 0-1.26 0.566-1.26 1.261s0.565 1.26 1.26 1.26 1.262-0.565 1.262-1.26-0.566-1.261-1.262-1.261z"></path>
<path d="M20.509 16.187c-0.134 0-0.268-0.039-0.385-0.122l-2.161-1.529c-0.15-0.106-0.25-0.27-0.275-0.453l-0.539-3.893c0.009-0.469-0.117-0.799-0.359-1.051-0.24-0.248-0.563-0.384-0.908-0.384-0.005 0-0.008 0-0.012 0-0.659 0.006-1.219 0.596-1.251 1.315l-0.038 1.163c-0.012 0.369-0.304 0.693-0.688 0.644-0.368-0.012-0.656-0.32-0.644-0.688l0.038-1.17c0.062-1.447 1.191-2.585 2.57-2.598 0.708 0.019 1.393 0.274 1.892 0.79 0.492 0.509 0.758 1.207 0.728 1.915l0.492 3.486 1.927 1.363c0.301 0.213 0.371 0.629 0.159 0.929-0.13 0.184-0.335 0.282-0.544 0.282z"></path>
<path d="M27.187 15.583c-0.124 0-0.247-0.034-0.358-0.105l-5.038-3.213c-0.311-0.198-0.402-0.61-0.204-0.921 0.199-0.31 0.613-0.399 0.921-0.203l5.038 3.213c0.311 0.198 0.402 0.61 0.204 0.921-0.127 0.199-0.342 0.308-0.562 0.308z"></path>
<path d="M24.971 16.074c-0.306 0-0.582-0.212-0.651-0.523-0.079-0.359 0.147-0.715 0.507-0.795l1.566-0.346-0.346-1.565c-0.079-0.359 0.147-0.715 0.508-0.795 0.366-0.077 0.715 0.148 0.794 0.507l0.49 2.216c0.079 0.359-0.147 0.715-0.507 0.795l-2.216 0.49c-0.049 0.012-0.098 0.017-0.145 0.017z"></path>
</svg>
