<svg version="1.1" xmlns="http://www.w3.org/2000/svg" width="32" height="32" viewBox="0 0 32 32">
<title>rolling_stairs_up</title>
<path d="M12.436 5.768c-1.43 0-2.594-1.164-2.594-2.594s1.164-2.594 2.594-2.594 2.594 1.164 2.594 2.594-1.164 2.594-2.594 2.594zM12.436 1.913c-0.695 0-1.261 0.566-1.261 1.261s0.566 1.261 1.261 1.261 1.261-0.566 1.261-1.261-0.566-1.261-1.261-1.261z"></path>
<path d="M10.054 16.898c-0.007 0-0.012 0-0.018 0-0.368-0.010-0.659-0.316-0.649-0.685l0.178-6.683c0.063-1.451 1.191-2.589 2.57-2.602 0.733 0.013 1.393 0.274 1.893 0.791 0.492 0.509 0.757 1.208 0.727 1.915l0.378 2.669 0.804-0.589c0.296-0.219 0.713-0.154 0.932 0.144 0.217 0.297 0.154 0.714-0.143 0.932l-1.703 1.247c-0.189 0.139-0.438 0.167-0.654 0.076-0.216-0.092-0.369-0.29-0.4-0.523l-0.539-3.893c0.009-0.469-0.117-0.799-0.359-1.051s-0.62-0.358-0.921-0.384c-0.658 0.006-1.219 0.596-1.25 1.315l-0.178 6.673c-0.010 0.362-0.307 0.648-0.666 0.648z"></path>
<path d="M8.669 28h-5.155c-1.788 0-3.243-1.495-3.243-3.333s1.455-3.333 3.243-3.333h4.187l13.785-10.131c0.556-0.358 1.158-0.535 1.775-0.535h5.155c1.789 0 3.245 1.495 3.245 3.333s-1.456 3.333-3.245 3.333h-4.187l-13.785 10.133c-0.556 0.358-1.158 0.534-1.775 0.534zM3.514 22.667c-1.035 0-1.91 0.915-1.91 2s0.875 2 1.91 2h5.155c0.362 0 0.715-0.104 1.021-0.299l13.925-10.238c0.115-0.083 0.253-0.129 0.395-0.129h4.406c1.036 0 1.911-0.916 1.911-2s-0.875-2-1.911-2h-5.155c-0.362 0-0.715 0.103-1.019 0.3l-13.927 10.238c-0.114 0.083-0.253 0.129-0.395 0.129h-4.406z"></path>
<path d="M19.417 9.241c-0.22 0-0.435-0.109-0.563-0.308-0.198-0.311-0.107-0.723 0.204-0.921l5.038-3.214c0.309-0.196 0.721-0.108 0.921 0.203 0.198 0.311 0.107 0.723-0.204 0.921l-5.038 3.214c-0.111 0.071-0.234 0.105-0.358 0.105z"></path>
<path d="M23.965 8.244c-0.047 0-0.095-0.005-0.143-0.016-0.361-0.079-0.587-0.436-0.508-0.795l0.346-1.566-1.565-0.346c-0.361-0.079-0.587-0.436-0.508-0.795 0.079-0.358 0.432-0.586 0.794-0.507l2.216 0.49c0.361 0.079 0.587 0.436 0.508 0.795l-0.49 2.217c-0.069 0.311-0.345 0.523-0.651 0.523z"></path>
</svg>
