<svg version="1.1" xmlns="http://www.w3.org/2000/svg" width="32" height="32" viewBox="0 0 32 32">
<title>rotate_clockwise</title>
<path d="M7.341 17.411c-0.173 0-0.345-0.066-0.476-0.199l-2.583-2.633-2.655 2.604c-0.262 0.258-0.685 0.254-0.943-0.008-0.258-0.263-0.254-0.685 0.009-0.943l3.131-3.072c0.261-0.258 0.684-0.256 0.943 0.009l3.049 3.107c0.258 0.263 0.254 0.685-0.009 0.943-0.13 0.128-0.298 0.191-0.467 0.191z"></path>
<path d="M11.621 28.122c-0.087 0-0.175-0.017-0.259-0.052-5.547-2.341-8.797-8.46-7.728-14.549 0.064-0.363 0.408-0.6 0.772-0.542 0.363 0.064 0.605 0.409 0.542 0.772-0.964 5.484 1.953 10.988 6.932 13.089 0.339 0.143 0.498 0.535 0.355 0.874-0.107 0.255-0.354 0.407-0.614 0.407z"></path>
<path d="M24.814 29.689c-0.059 0-0.117-0.008-0.177-0.023l-4.229-1.164c-0.354-0.098-0.564-0.465-0.466-0.82l1.155-4.198c0.098-0.355 0.462-0.561 0.82-0.466 0.354 0.098 0.564 0.465 0.466 0.82l-0.979 3.555 3.587 0.987c0.355 0.098 0.564 0.465 0.466 0.82-0.082 0.296-0.35 0.49-0.643 0.49z"></path>
<path d="M20.585 28.525c-0.271 0-0.526-0.167-0.626-0.436-0.126-0.346 0.051-0.729 0.396-0.857 5.224-1.922 8.518-7.208 7.833-12.57-0.047-0.365 0.212-0.699 0.577-0.746 0.359-0.041 0.699 0.211 0.746 0.577 0.763 5.973-2.895 11.857-8.695 13.992-0.077 0.027-0.154 0.040-0.231 0.040z"></path>
<path d="M20.215 8.109c-0.293 0-0.563-0.195-0.643-0.491-0.096-0.355 0.112-0.722 0.467-0.819l3.557-0.971-0.979-3.589c-0.096-0.355 0.112-0.722 0.467-0.819 0.359-0.1 0.723 0.113 0.819 0.467l1.155 4.232c0.096 0.355-0.112 0.722-0.467 0.819l-4.201 1.147c-0.059 0.016-0.119 0.023-0.176 0.023z"></path>
<path d="M24.415 6.963c-0.148 0-0.297-0.049-0.421-0.15-4.319-3.513-10.546-3.654-14.808-0.33-0.292 0.224-0.711 0.173-0.936-0.116-0.226-0.291-0.175-0.71 0.116-0.936 4.746-3.7 11.674-3.557 16.469 0.348 0.286 0.232 0.329 0.652 0.096 0.937-0.132 0.162-0.324 0.246-0.517 0.246z"></path>
</svg>
