<svg version="1.1" xmlns="http://www.w3.org/2000/svg" width="32" height="32" viewBox="0 0 32 32">
<title>rotation_lock</title>
<path d="M27.331 18.345c-0.165 0-0.331-0.061-0.46-0.184l-3.785-3.604c-0.267-0.254-0.277-0.676-0.023-0.943 0.255-0.266 0.677-0.276 0.943-0.023l3.302 3.145 3.15-3.306c0.255-0.268 0.677-0.277 0.943-0.023 0.267 0.254 0.277 0.676 0.023 0.942l-3.609 3.789c-0.131 0.138-0.307 0.207-0.483 0.207z"></path>
<path d="M15.458 28.771c-0.521 0-1.046-0.031-1.574-0.096-6.975-0.85-11.957-7.217-11.106-14.192 0.411-3.379 2.115-6.395 4.796-8.492 2.68-2.099 6.016-3.031 9.396-2.614 6.937 0.846 11.883 7.298 11.023 14.383-0.043 0.366-0.376 0.633-0.742 0.581-0.365-0.044-0.625-0.376-0.581-0.742 0.769-6.355-3.654-12.141-9.862-12.898-6.238-0.757-11.945 3.7-12.707 9.945-0.369 3.025 0.463 6.014 2.341 8.413s4.578 3.925 7.603 4.294c4.669 0.565 9.143-1.729 11.399-5.857 0.176-0.323 0.583-0.443 0.905-0.264 0.323 0.176 0.441 0.581 0.264 0.905-2.264 4.142-6.53 6.635-11.155 6.635z"></path>
<path d="M18.031 22.684h-5.316c-0.939 0-1.703-0.755-1.703-1.685l-0.455-4.631c-0.003-0.994 0.761-1.75 1.7-1.75h6.232c0.939 0 1.703 0.756 1.703 1.685l-0.461 4.762c0.003 0.865-0.762 1.62-1.701 1.62zM12.257 15.951c-0.204 0-0.37 0.158-0.37 0.352l0.455 4.631c0.003 0.259 0.169 0.417 0.373 0.417h5.316c0.204 0 0.37-0.158 0.37-0.352l0.461-4.762c-0.003-0.129-0.168-0.286-0.372-0.286h-6.232z"></path>
<path d="M18.049 15.951c-0.369 0-0.667-0.298-0.667-0.667v-2.578c0-0.993-0.901-1.801-2.009-1.801s-2.010 0.808-2.010 1.801v2.578c0 0.369-0.298 0.667-0.667 0.667s-0.667-0.298-0.667-0.667v-2.578c0-1.729 1.5-3.135 3.343-3.135s3.342 1.406 3.342 3.135v2.578c0 0.369-0.298 0.667-0.667 0.667z"></path>
<path d="M15.373 20.194c-0.369 0-0.667-0.298-0.667-0.667v-1.206c0-0.369 0.298-0.667 0.667-0.667s0.666 0.298 0.666 0.667v1.206c0 0.369-0.297 0.667-0.666 0.667z"></path>
</svg>
