<svg version="1.1" xmlns="http://www.w3.org/2000/svg" width="32" height="32" viewBox="0 0 32 32">
<title>rotate_back_revert_undo</title>
<path d="M31.014 22.112c-0.224 0-0.443-0.113-0.568-0.318l-2.281-3.719-3.642 2.237c-0.314 0.194-0.724 0.095-0.917-0.219s-0.095-0.724 0.219-0.917l4.21-2.586c0.151-0.092 0.333-0.12 0.504-0.081 0.172 0.042 0.32 0.148 0.413 0.299l2.63 4.286c0.193 0.314 0.095 0.725-0.219 0.917-0.109 0.068-0.229 0.099-0.349 0.099z"></path>
<path d="M15.926 29.267c-0.383 0-0.768-0.017-1.155-0.049-7.269-0.619-12.681-7.038-12.062-14.308s7.039-12.69 14.307-12.062c3.453 0.294 6.604 1.897 8.875 4.514 0.241 0.278 0.211 0.699-0.066 0.94-0.277 0.242-0.698 0.211-0.941-0.066-2.042-2.353-4.875-3.795-7.979-4.059-6.572-0.552-12.31 4.31-12.867 10.847-0.556 6.538 4.31 12.311 10.847 12.867 3.173 0.273 6.247-0.699 8.665-2.731 2.421-2.031 3.901-4.892 4.171-8.056 0.031-0.367 0.387-0.628 0.72-0.608 0.367 0.031 0.639 0.354 0.608 0.72-0.299 3.521-1.948 6.704-4.642 8.966-2.394 2.011-5.37 3.086-8.48 3.086z"></path>
</svg>
