<!-- Generated by IcoMoon.io -->
<svg version="1.1" xmlns="http://www.w3.org/2000/svg" width="32" height="32" viewBox="0 0 32 32">
<title>rotate_back_revert_undo</title>
<path d="M23.882 21.639c-1.115 1.868-2.76 3.363-4.725 4.297s-4.163 1.263-6.316 0.948c-2.153-0.316-4.163-1.262-5.778-2.721s-2.76-3.363-3.292-5.472-0.427-4.329 0.303-6.379c0.729-2.050 2.050-3.837 3.796-5.136s3.836-2.051 6.009-2.162 4.33 0.426 6.197 1.541c0.474 0.283 0.629 0.897 0.346 1.371s-0.897 0.629-1.371 0.346c-1.528-0.913-3.293-1.351-5.071-1.261s-3.489 0.706-4.917 1.768c-1.428 1.063-2.509 2.525-3.106 4.202s-0.683 3.493-0.248 5.219c0.435 1.726 1.373 3.284 2.694 4.477s2.966 1.968 4.727 2.226c1.761 0.258 3.559-0.012 5.167-0.775s2.953-1.987 3.866-3.515c0.533-0.893 0.905-1.568 1.159-2.075l-4.578 1.842c-0.512 0.206-1.095-0.042-1.301-0.555s0.042-1.095 0.554-1.301l6.56-2.639c0.512-0.206 1.095 0.042 1.301 0.554l2.639 6.56c0.206 0.512-0.042 1.095-0.555 1.301s-1.095-0.042-1.301-0.555l-1.646-4.090c-0.275 0.532-0.64 1.183-1.117 1.983z"></path>
</svg>
