<!-- Generated by IcoMoon.io -->
<svg version="1.1" xmlns="http://www.w3.org/2000/svg" width="32" height="32" viewBox="0 0 32 32">
<title>rotate_sync</title>
<path d="M25.4 22.2c0.4 0.3 0.5 0.9 0.2 1.4-2.4 2.9-5.9 4.6-9.6 4.6-6.7 0-12.2-5.5-12.2-12.2v-0.4l-1.1 1.1c-0.4 0.4-1 0.4-1.4 0s-0.4-1 0-1.4l2.7-2.8c0.4-0.4 1-0.4 1.4 0l2.9 2.8c0.4 0.4 0.4 1 0 1.4-0.1 0.2-0.4 0.3-0.7 0.3-0.2 0-0.5-0.1-0.7-0.3l-1.1-1.1v0.4c0 5.6 4.6 10.2 10.2 10.2 3.1 0 6-1.4 8-3.8 0.3-0.4 0.9-0.5 1.4-0.2zM30.7 15.3c-0.4-0.4-1-0.4-1.4 0l-1.1 1.1v-0.4c0-6.7-5.5-12.2-12.2-12.2-3.7 0-7.2 1.7-9.5 4.6-0.3 0.4-0.3 1 0.2 1.4 0.3 0.3 1 0.3 1.3-0.2 1.9-2.4 4.8-3.8 8-3.8 5.6 0 10.2 4.6 10.2 10.2v0.3l-1.1-1.1c-0.4-0.4-1-0.4-1.4 0s-0.4 1 0 1.4l2.9 2.8c0.2 0.2 0.4 0.3 0.7 0.3s0.5-0.1 0.7-0.3l2.8-2.8c0.3-0.3 0.3-0.9-0.1-1.3z"></path>
</svg>
