<svg version="1.1" xmlns="http://www.w3.org/2000/svg" width="32" height="32" viewBox="0 0 32 32">
<title>row_drag_drop</title>
<path d="M12.933 0h2.533v2.533h-2.533v-2.533z"></path>
<path d="M12.933 29.467h2.533v2.533h-2.533v-2.533z"></path>
<path d="M12.933 25.2h2.533v2.533h-2.533v-2.533z"></path>
<path d="M12.933 16.8h2.533v2.533h-2.533v-2.533z"></path>
<path d="M12.933 12.667h2.533v2.533h-2.533v-2.533z"></path>
<path d="M12.933 8.4h2.533v2.533h-2.533v-2.533z"></path>
<path d="M12.933 4.267h2.533v2.533h-2.533v-2.533z"></path>
<path d="M12.933 21.067h2.533v2.533h-2.533v-2.533z"></path>
<path d="M16.533 0h2.533v2.533h-2.533v-2.533z"></path>
<path d="M16.533 29.467h2.533v2.533h-2.533v-2.533z"></path>
<path d="M16.533 25.2h2.533v2.533h-2.533v-2.533z"></path>
<path d="M16.533 16.8h2.533v2.533h-2.533v-2.533z"></path>
<path d="M16.533 12.667h2.533v2.533h-2.533v-2.533z"></path>
<path d="M16.533 8.4h2.533v2.533h-2.533v-2.533z"></path>
<path d="M16.533 4.267h2.533v2.533h-2.533v-2.533z"></path>
<path d="M16.533 21.067h2.533v2.533h-2.533v-2.533z"></path>
</svg>
