<svg version="1.1" xmlns="http://www.w3.org/2000/svg" width="32" height="32" viewBox="0 0 32 32">
<title>ruller_dimension_length</title>
<path d="M31.333 32h-30.251c-0.269 0-0.512-0.161-0.615-0.41s-0.048-0.535 0.142-0.725l30.25-30.527c0.19-0.192 0.479-0.249 0.728-0.147 0.25 0.103 0.413 0.346 0.413 0.617v30.526c0 0.369-0.298 0.667-0.667 0.667zM2.682 30.667h27.985v-28.24l-27.985 28.24zM26 26.667h-9.794c-0.269 0-0.512-0.161-0.615-0.41-0.103-0.247-0.048-0.534 0.141-0.725l9.794-9.913c0.19-0.193 0.478-0.25 0.728-0.148s0.413 0.346 0.413 0.616v9.913c0 0.369-0.298 0.667-0.667 0.667zM17.802 25.333h7.531v-7.622l-7.531 7.622z"></path>
<path d="M11.511 27.148c-0.171 0-0.341-0.065-0.471-0.195l-2.764-2.764c-0.26-0.26-0.26-0.682 0-0.943s0.682-0.26 0.943 0l2.764 2.764c0.26 0.26 0.26 0.682 0 0.943-0.13 0.13-0.301 0.195-0.471 0.195z"></path>
<path d="M12.727 23.362c-0.171 0-0.341-0.065-0.471-0.195l-1.479-1.479c-0.26-0.26-0.26-0.682 0-0.943s0.682-0.26 0.943 0l1.479 1.479c0.26 0.26 0.26 0.682 0 0.943-0.13 0.13-0.301 0.195-0.471 0.195z"></path>
<path d="M16.513 22.147c-0.171 0-0.341-0.065-0.471-0.195l-2.765-2.764c-0.26-0.26-0.26-0.682 0-0.943s0.682-0.26 0.943 0l2.765 2.764c0.26 0.26 0.26 0.682 0 0.943-0.13 0.13-0.301 0.195-0.471 0.195z"></path>
<path d="M17.728 18.361c-0.171 0-0.341-0.065-0.471-0.195l-1.479-1.479c-0.26-0.26-0.26-0.682 0-0.943s0.682-0.26 0.943 0l1.479 1.479c0.26 0.26 0.26 0.682 0 0.943-0.13 0.13-0.301 0.195-0.471 0.195z"></path>
<path d="M21.514 17.146c-0.171 0-0.341-0.065-0.471-0.195l-2.764-2.765c-0.26-0.26-0.26-0.682 0-0.943s0.682-0.26 0.943 0l2.764 2.765c0.26 0.26 0.26 0.682 0 0.943-0.13 0.13-0.301 0.195-0.471 0.195z"></path>
<path d="M22.729 13.359c-0.171 0-0.341-0.065-0.471-0.195l-1.478-1.479c-0.26-0.26-0.26-0.683 0-0.943s0.682-0.26 0.943 0l1.478 1.479c0.26 0.26 0.26 0.683 0 0.943-0.13 0.13-0.301 0.195-0.471 0.195z"></path>
<path d="M26.516 12.144c-0.171 0-0.341-0.065-0.471-0.195l-2.764-2.764c-0.26-0.26-0.26-0.682 0-0.943s0.682-0.26 0.943 0l2.764 2.764c0.26 0.26 0.26 0.682 0 0.943-0.13 0.13-0.301 0.195-0.471 0.195z"></path>
</svg>
