<!-- Generated by IcoMoon.io -->
<svg version="1.1" xmlns="http://www.w3.org/2000/svg" width="32" height="32" viewBox="0 0 32 32">
<title>s3_outline</title>
<path d="M4.791 21.122v6.134l4.272 1.569 4.272-1.569v-6.134l-4.272-1.666-4.272 1.666zM9.066 22.413l-3.275-1.147 3.272-1.275 3.35 1.306-3.347 1.116zM9.313 28.203v-5.347l3.525-1.175v5.228l-3.525 1.294zM5.291 26.909v-5.291l3.525 1.234v5.35l-3.525-1.294z"></path>
<path d="M8.781 12.794l-4.272-1.666-4.272 1.666v6.134l4.272 1.569 4.272-1.569v-6.134zM4.509 11.662l3.35 1.306-3.347 1.116-3.275-1.144 3.272-1.278zM4.759 19.875v-5.347l3.525-1.175v5.228l-3.525 1.294zM0.738 18.581v-5.291l3.525 1.234v5.35l-3.525-1.294z"></path>
<path d="M9.391 12.794v6.134l4.272 1.569 4.272-1.569v-6.134l-4.272-1.666-4.272 1.666zM9.891 18.581v-5.291l3.525 1.234v5.35l-3.525-1.294zM13.912 19.875v-5.347l3.525-1.175v5.228l-3.525 1.294zM13.666 14.084l-3.275-1.147 3.272-1.278 3.35 1.309-3.347 1.116z"></path>
<path d="M22.722 4.841l-4.272-1.666-4.272 1.666v6.134l4.272 1.569 4.272-1.569v-6.134zM18.453 6.131l-3.275-1.147 3.272-1.278 3.35 1.306-3.347 1.119zM18.7 11.922v-5.347l3.525-1.175v5.228l-3.525 1.294zM14.678 10.628v-5.287l3.525 1.234v5.35l-3.525-1.297z"></path>
<path d="M23.219 4.841v6.134l4.272 1.569 4.272-1.569v-6.134l-4.272-1.666-4.272 1.666zM23.716 10.628v-5.287l3.525 1.234v5.35l-3.525-1.297zM27.741 11.922v-5.347l3.525-1.175v5.228l-3.525 1.294zM27.491 6.131l-3.272-1.144 3.272-1.278 3.35 1.306-3.35 1.116z"></path>
<path d="M23.072 19.622c-0.178-0.097-0.366-0.178-0.55-0.256-0.163-0.069-0.328-0.141-0.484-0.225-0.087-0.047-0.175-0.091-0.262-0.134-0.319-0.159-0.647-0.328-0.903-0.556-0.341-0.306-0.5-0.744-0.425-1.166s0.356-0.759 0.775-0.931c0.384-0.156 0.841-0.178 1.197-0.178 0.059 0 0.116 0 0.172 0.003 0.241 0.003 0.488 0.075 0.747 0.15 0.122 0.034 0.247 0.072 0.375 0.103l0.063 0.016 0.278-0.797-0.069-0.022c-0.684-0.231-1.281-0.341-1.822-0.341-0.609 0-1.163 0.137-1.688 0.422-0.875 0.472-1.303 1.478-1.041 2.447 0.181 0.672 0.641 1.181 1.406 1.553 0.216 0.106 0.438 0.206 0.65 0.303 0.375 0.169 0.766 0.344 1.125 0.553 0.55 0.319 0.8 0.834 0.703 1.453-0.1 0.641-0.5 1.066-1.184 1.262-0.228 0.066-0.453 0.097-0.694 0.097 0 0 0 0 0 0-0.659 0-1.306-0.25-1.928-0.491l-0.075-0.028-0.203 0.837 0.050 0.025c0.619 0.328 1.275 0.488 2.006 0.488 0.353 0 0.722-0.038 1.131-0.113 1.016-0.188 1.809-0.95 1.928-1.856 0.172-1.281-0.188-2.016-1.278-2.619z"></path>
<path d="M29.188 19.659c-0.038-0.016-0.072-0.056-0.113-0.097-0.003-0.003-0.006-0.006-0.009-0.009 0.091-0.066 0.178-0.128 0.266-0.188 0.238-0.166 0.462-0.319 0.653-0.512 0.369-0.375 0.556-0.9 0.512-1.441-0.044-0.534-0.306-1.016-0.722-1.316-0.4-0.291-1.012-0.456-1.681-0.456-0.806 0-1.572 0.234-2.053 0.631l-0.041 0.034 0.194 0.497 0.059-0.009c0.206-0.038 0.406-0.078 0.603-0.119 0.434-0.091 0.847-0.175 1.259-0.191 0.019 0 0.041 0 0.059 0 0.544 0 0.975 0.291 1.097 0.741 0.106 0.397 0.059 0.906-0.119 1.244-0.244 0.456-0.728 0.697-1.484 0.728-0.131 0.006-0.262 0.016-0.413 0.031-0.075 0.006-0.153 0.012-0.241 0.019l-0.075 0.006 0.078 0.606 0.050 0.009c0.184 0.041 0.363 0.072 0.534 0.103 0.353 0.066 0.688 0.125 0.994 0.241 0.559 0.206 0.966 0.656 1.087 1.197 0.116 0.512-0.034 1.031-0.413 1.419-0.375 0.384-0.837 0.572-1.416 0.572-0.181 0-0.375-0.019-0.581-0.056-0.3-0.056-0.591-0.137-0.903-0.225-0.141-0.041-0.288-0.081-0.438-0.119l-0.069-0.019-0.194 0.706 0.047 0.028c0.597 0.341 1.231 0.506 1.941 0.506 0.381 0 0.778-0.047 1.212-0.147 1.156-0.262 1.909-1.128 1.959-2.259 0.050-0.959-0.488-1.663-1.644-2.156z"></path>
</svg>
