<!-- Generated by IcoMoon.io -->
<svg version="1.1" xmlns="http://www.w3.org/2000/svg" width="32" height="32" viewBox="0 0 32 32">
<title>safe_security_lock</title>
<path d="M31.315 28h-30.667c-0.369 0-0.667-0.298-0.667-0.667v-26.667c0-0.369 0.298-0.667 0.667-0.667h30.667c0.369 0 0.667 0.298 0.667 0.667v26.667c0 0.369-0.298 0.667-0.667 0.667zM1.315 26.667h29.333v-25.333h-29.333v25.333z"></path>
<path d="M27.315 24h-21.333c-0.369 0-0.667-0.298-0.667-0.667v-18.667c0-0.369 0.298-0.667 0.667-0.667h21.333c0.369 0 0.667 0.298 0.667 0.667v18.667c0 0.369-0.298 0.667-0.667 0.667zM6.648 22.667h20v-17.333h-20v17.333z"></path>
<path d="M27.315 32h-5.333c-0.369 0-0.667-0.298-0.667-0.667v-4c0-0.369 0.298-0.667 0.667-0.667h5.333c0.369 0 0.667 0.298 0.667 0.667v4c0 0.369-0.298 0.667-0.667 0.667zM22.648 30.667h4v-2.667h-4v2.667z"></path>
<path d="M9.98 32h-5.333c-0.369 0-0.667-0.298-0.667-0.667v-4c0-0.369 0.298-0.667 0.667-0.667h5.333c0.369 0 0.667 0.298 0.667 0.667v4c0 0.369-0.298 0.667-0.667 0.667zM5.313 30.667h4v-2.667h-4v2.667z"></path>
<path d="M5.982 12h-2.667c-0.369 0-0.667-0.298-0.667-0.667v-2.667c0-0.369 0.298-0.667 0.667-0.667h2.667c0.369 0 0.667 0.298 0.667 0.667v2.667c0 0.369-0.298 0.667-0.667 0.667zM3.982 10.667h1.333v-1.333h-1.333v1.333z"></path>
<path d="M5.982 21.333h-2.667c-0.369 0-0.667-0.298-0.667-0.667v-2.667c0-0.369 0.298-0.667 0.667-0.667h2.667c0.369 0 0.667 0.298 0.667 0.667v2.667c0 0.369-0.298 0.667-0.667 0.667zM3.982 20h1.333v-1.333h-1.333v1.333z"></path>
<path d="M16.637 20.021c-3.313 0-6.008-2.695-6.008-6.008s2.695-6.008 6.008-6.008c3.313 0 6.008 2.695 6.008 6.008s-2.695 6.008-6.008 6.008zM16.637 9.339c-2.578 0-4.675 2.097-4.675 4.675s2.097 4.675 4.675 4.675 4.675-2.096 4.675-4.675c0-2.577-2.096-4.675-4.675-4.675z"></path>
<path d="M16.637 16.337c-1.282 0-2.325-1.043-2.325-2.324s1.043-2.324 2.325-2.324c1.281 0 2.323 1.042 2.323 2.324s-1.042 2.324-2.323 2.324zM16.637 13.023c-0.547 0-0.992 0.444-0.992 0.99s0.445 0.991 0.992 0.991c0.546 0 0.99-0.445 0.99-0.991s-0.444-0.99-0.99-0.99z"></path>
<path d="M17.807 13.508c-0.171 0-0.341-0.065-0.471-0.195-0.26-0.26-0.26-0.682 0-0.943l1.293-1.293c0.26-0.26 0.682-0.26 0.943 0s0.26 0.682 0 0.943l-1.293 1.293c-0.13 0.13-0.301 0.195-0.471 0.195z"></path>
</svg>
