<svg version="1.1" xmlns="http://www.w3.org/2000/svg" width="32" height="32" viewBox="0 0 32 32">
<title>satellite_connection2</title>
<path d="M2.359 10.187c-0.358 0-0.654-0.284-0.665-0.645-0.082-2.469 0.83-4.786 2.568-6.524s4.046-2.669 6.524-2.568c0.368 0.012 0.656 0.32 0.644 0.688s-0.295 0.697-0.688 0.644c-2.095-0.063-4.063 0.705-5.537 2.179s-2.247 3.441-2.178 5.537c0.012 0.368-0.276 0.676-0.644 0.688-0.008 0.001-0.015 0.001-0.023 0.001z"></path>
<path d="M6.046 9.801c-0.348 0-0.641-0.27-0.665-0.623-0.090-1.366 0.411-2.702 1.374-3.665s2.301-1.462 3.665-1.374c0.368 0.024 0.646 0.342 0.622 0.709s-0.35 0.632-0.709 0.622c-0.979-0.069-1.943 0.294-2.635 0.986s-1.051 1.652-0.986 2.635c0.024 0.367-0.254 0.685-0.622 0.709-0.015 0.001-0.029 0.001-0.044 0.001z"></path>
<path d="M9.972 24.089c-1.067 0-1.965-0.305-2.606-0.945-0.26-0.26-0.26-0.682 0-0.943s0.682-0.26 0.943 0c1.471 1.473 6.217 0.001 10.677-4.457 4.46-4.46 5.93-9.207 4.458-10.678-0.26-0.26-0.26-0.682 0-0.943s0.682-0.26 0.943 0c2.272 2.272 0.314 7.791-4.458 12.563-3.427 3.426-7.238 5.402-9.956 5.402z"></path>
<path d="M15.598 16.94c-0.213 0-0.423-0.102-0.551-0.292l-4.116-6.035c-0.18-0.265-0.147-0.62 0.079-0.847s0.583-0.26 0.847-0.079l6.034 4.116c0.305 0.208 0.383 0.622 0.176 0.926-0.207 0.306-0.624 0.381-0.926 0.175l-3.122-2.129 2.128 3.122c0.208 0.304 0.13 0.719-0.175 0.926-0.115 0.078-0.245 0.116-0.375 0.116z"></path>
<path d="M10.662 11.244c-1.007 0-1.825-0.818-1.825-1.825s0.818-1.825 1.825-1.825 1.825 0.818 1.825 1.825-0.818 1.825-1.825 1.825zM10.662 8.928c-0.271 0-0.492 0.221-0.492 0.492s0.221 0.492 0.492 0.492 0.492-0.221 0.492-0.492-0.221-0.492-0.492-0.492z"></path>
<path d="M15.044 25.331c-0.189 0-0.367-0.004-0.535-0.009-3.020-0.096-5.957-0.992-7.143-2.178-1.965-1.966-0.87-6.245 2.727-10.646 0.232-0.286 0.652-0.327 0.938-0.094s0.327 0.653 0.094 0.938c-2.993 3.663-4.204 7.471-2.817 8.859 0.796 0.796 3.254 1.693 6.243 1.789 1.965 0.048 5.609-0.198 8.046-2.635 2.439-2.437 2.698-6.087 2.635-8.046-0.096-2.989-0.993-5.447-1.789-6.243-1.372-1.371-5.145-0.189-8.773 2.748-0.286 0.232-0.706 0.187-0.937-0.099s-0.187-0.706 0.099-0.937c4.366-3.534 8.607-4.603 10.555-2.654 1.186 1.186 2.082 4.123 2.178 7.143 0.070 2.174-0.231 6.238-3.025 9.031-2.578 2.579-6.239 3.034-8.497 3.034z"></path>
<path d="M19.542 31.733c-1.193 0-2.319-0.178-3.171-0.503-1.537-0.583-1.766-1.496-1.766-1.987 0-0.658 0.466-1.677 1.188-2.598 0.228-0.292 0.646-0.34 0.936-0.113 0.289 0.228 0.34 0.646 0.113 0.936-0.617 0.786-0.904 1.523-0.904 1.775 0 0.546 1.541 1.156 3.603 1.156 2.078 0 3.526-0.609 3.526-1.156 0-0.362-0.596-1.699-1.754-2.652-0.285-0.233-0.325-0.654-0.091-0.937 0.234-0.286 0.655-0.325 0.937-0.091 1.341 1.103 2.241 2.793 2.241 3.681 0 1.837-2.618 2.49-4.859 2.49z"></path>
</svg>
