<!-- Generated by IcoMoon.io -->
<svg version="1.1" xmlns="http://www.w3.org/2000/svg" width="32" height="32" viewBox="0 0 32 32">
<title>satellite_connection</title>
<path d="M20.329 28.12c-0.090 0-0.18-0.001-0.269-0.004-0.369-0.013-0.656-0.32-0.645-0.689 0.012-0.367 0.269-0.633 0.689-0.645 1.797 0.060 3.507-0.608 4.779-1.879 1.273-1.272 1.941-2.97 1.881-4.781-0.012-0.369 0.277-0.676 0.645-0.689 0.436-0.010 0.677 0.277 0.689 0.645 0.072 2.184-0.736 4.233-2.272 5.768-1.473 1.473-3.415 2.273-5.496 2.273z"></path>
<path d="M20.328 31.681c-0.087 0-0.173-0.001-0.26-0.003-0.369-0.008-0.66-0.314-0.652-0.681 0.008-0.369 0.314-0.62 0.681-0.652 2.751 0.044 5.359-0.977 7.306-2.922 1.947-1.947 2.984-4.542 2.925-7.309-0.008-0.369 0.284-0.673 0.652-0.681 0.366 0.023 0.673 0.284 0.681 0.652 0.068 3.134-1.109 6.074-3.315 8.28-2.145 2.143-4.983 3.315-8.017 3.315z"></path>
<path d="M20.319 24.561c-0.094 0-0.187-0.003-0.281-0.009-0.367-0.025-0.645-0.342-0.621-0.71 0.025-0.367 0.355-0.65 0.71-0.621 0.814 0.048 1.651-0.25 2.238-0.839 0.589-0.587 0.893-1.404 0.839-2.238-0.023-0.369 0.254-0.685 0.621-0.71 0.37-0.025 0.686 0.254 0.71 0.621 0.081 1.219-0.367 2.411-1.225 3.271-0.794 0.793-1.871 1.234-2.99 1.234z"></path>
<path d="M13.355 21.031c-0.055 0-0.109-0.007-0.163-0.021-0.228-0.057-0.408-0.231-0.475-0.456-0.824-2.764-0.427-5.218 1.087-6.732 1.505-1.505 3.989-1.904 6.732-1.087 0.225 0.067 0.398 0.247 0.456 0.475 0.059 0.228-0.008 0.469-0.175 0.635l-6.991 6.99c-0.126 0.126-0.297 0.195-0.471 0.195zM17.822 13.647c-1.28 0-2.342 0.387-3.075 1.119-0.962 0.962-1.314 2.484-1.016 4.28l5.296-5.295c-0.415-0.070-0.818-0.104-1.206-0.104z"></path>
<path d="M19.365 20.051c-0.171 0-0.341-0.065-0.471-0.195l-2.514-2.514c-0.26-0.26-0.26-0.682 0-0.943s0.682-0.26 0.943 0l2.514 2.514c0.26 0.26 0.26 0.682 0 0.943-0.13 0.13-0.301 0.195-0.471 0.195z"></path>
<path d="M19.971 21.516c-0.841 0-1.525-0.684-1.525-1.525s0.684-1.525 1.525-1.525 1.526 0.684 1.526 1.525-0.685 1.525-1.526 1.525zM19.971 19.799c-0.105 0-0.191 0.086-0.191 0.191 0 0.212 0.384 0.21 0.384 0 0-0.105-0.086-0.191-0.193-0.191z"></path>
<path d="M13.067 17.247c-0.171 0-0.341-0.065-0.471-0.195l-6.122-6.122c-0.26-0.26-0.26-0.682 0-0.943l3.495-3.495c0.26-0.26 0.682-0.26 0.943 0l6.11 6.11c0.26 0.26 0.26 0.682 0 0.943s-0.682 0.26-0.943 0l-5.639-5.639-2.552 2.552 5.651 5.651c0.26 0.26 0.26 0.682 0 0.943-0.13 0.13-0.301 0.195-0.471 0.195z"></path>
<path d="M6.549 22.686c-0.171 0-0.341-0.065-0.471-0.195l-5.583-5.582c-0.125-0.125-0.195-0.294-0.195-0.471s0.070-0.346 0.195-0.471l3.495-3.495c0.26-0.26 0.682-0.26 0.943 0l5.583 5.583c0.26 0.26 0.26 0.682 0 0.943l-3.495 3.495c-0.13 0.13-0.301 0.195-0.471 0.195zM1.909 16.437l4.641 4.639 2.552-2.552-4.64-4.64-2.553 2.553z"></path>
<path d="M18.505 10.731c-0.171 0-0.341-0.065-0.471-0.195l-5.583-5.583c-0.125-0.125-0.195-0.294-0.195-0.471s0.070-0.346 0.195-0.471l3.495-3.495c0.26-0.26 0.682-0.26 0.943 0l5.583 5.583c0.125 0.125 0.195 0.294 0.195 0.471s-0.070 0.346-0.195 0.471l-3.496 3.495c-0.13 0.13-0.301 0.195-0.471 0.195zM13.865 4.481l4.64 4.641 2.553-2.553-4.641-4.64-2.553 2.552z"></path>
<path d="M13.231 10.422c-0.171 0-0.341-0.065-0.471-0.195-0.26-0.26-0.26-0.682 0-0.943l2.483-2.483c0.26-0.26 0.683-0.26 0.943 0s0.259 0.682 0 0.943l-2.484 2.483c-0.13 0.13-0.301 0.195-0.471 0.195z"></path>
<path d="M7.253 16.4c-0.171 0-0.341-0.065-0.471-0.195-0.26-0.26-0.26-0.682 0-0.943l2.482-2.483c0.26-0.26 0.682-0.26 0.943 0s0.26 0.682 0 0.943l-2.482 2.483c-0.13 0.13-0.301 0.195-0.471 0.195z"></path>
<path d="M20.253 8.982c-0.171 0-0.341-0.065-0.471-0.195l-5.583-5.583c-0.26-0.26-0.26-0.682 0-0.943s0.682-0.26 0.943 0l5.583 5.583c0.26 0.26 0.26 0.682 0 0.943-0.13 0.13-0.301 0.195-0.471 0.195z"></path>
<path d="M8.297 20.939c-0.171 0-0.341-0.065-0.471-0.195l-5.583-5.583c-0.26-0.26-0.26-0.682 0-0.943s0.682-0.26 0.943 0l5.583 5.583c0.26 0.26 0.26 0.682 0 0.943-0.13 0.13-0.301 0.195-0.471 0.195z"></path>
</svg>
