<svg height="32" version="1.1" viewBox="0 0 32 32" width="32" xmlns="http://www.w3.org/2000/svg">
  <title>save</title>
  <tags>save,business,disk,floppy,design,devices,hardware,edition,computer,tech</tags>
  <path d="M0.067 0c0.067 0 0.133 0 0.133 0 8.333 0 16.667 0 25 0 0.133 0 0.2 0 0.267 0.133 2.133 2.2 4.333 4.333 6.533 6.533 0.067 0.067 0.133 0.133 0.133 0.267 0 8.333 0 16.667 0 25 0 0.067 0 0.133 0 0.133-10.667 0-21.333 0-32 0-0.067-10.733-0.067-21.4-0.067-32.067zM1.4 30.667c9.8 0 19.6 0 29.333 0 0-0.067 0-0.133 0-0.2 0-4.2 0-8.4 0-12.6 0-3.467 0-7 0-10.467 0-0.067 0-0.2-0.067-0.2-1.933-1.933-3.867-3.867-5.8-5.8 0 0-0.067-0.067-0.133-0.067-0.267 0-0.467 0-0.733 0 0 3.6 0 7.133 0 10.667-5.333 0-10.6 0-15.933 0 0-3.533 0-7.133 0-10.667-2.2 0-4.467 0-6.667 0 0 9.8 0 19.533 0 29.333zM22.667 1.333c-4.4 0-8.867 0-13.267 0 0 3.133 0 6.267 0 9.333 4.4 0 8.867 0 13.267 0 0-3.067 0-6.2 0-9.333z"></path>
  <path d="M9.4 22.6c-0.733 0-0.733-0.4-0.733-0.667s0-0.667 0.733-0.667c2.2 0 4.4 0 6.6 0s4.4 0 6.667 0c0.333 0 0.467 0.133 0.533 0.267 0.133 0.2 0.133 0.333 0.133 0.467s0 0.267-0.067 0.4c-0.067 0.133-0.267 0.267-0.533 0.267-2.2 0-4.4 0-6.6 0s-4.467-0.067-6.733-0.067z"></path>
  <path d="M9.4 26.6c-0.733 0-0.733-0.4-0.733-0.667s0-0.667 0.733-0.667c2.2 0 4.4 0 6.6 0s4.4 0 6.667 0c0.333 0 0.467 0.133 0.533 0.267 0.133 0.2 0.133 0.333 0.133 0.467s0 0.267-0.067 0.4c-0.067 0.133-0.267 0.267-0.533 0.267-2.2 0-4.4 0-6.6 0s-4.467-0.067-6.733-0.067z"></path>
  <path d="M18.733 4c0-0.667 0.467-0.667 0.667-0.667s0.667 0 0.667 0.667c0 0.667 0 1.333 0 2s0 1.333 0 2c0 0.667-0.467 0.667-0.667 0.667s-0.667 0-0.667-0.667c0-0.667 0-1.333 0-2s0-1.333 0-2z"></path>
</svg>
