<svg version="1.1" xmlns="http://www.w3.org/2000/svg" width="32" height="32" viewBox="0 0 32 32">
<title>scale_justice_law_attorney</title>
<path d="M1.299 20.012c-0.1 0-0.203-0.022-0.298-0.070-0.329-0.165-0.462-0.566-0.297-0.896l6.026-12.015c0.113-0.225 0.344-0.368 0.596-0.368h0.001c0.253 0 0.483 0.143 0.596 0.369l5.989 12.016c0.165 0.329 0.031 0.729-0.299 0.893-0.33 0.168-0.73 0.030-0.894-0.299l-5.395-10.822-5.428 10.824c-0.117 0.233-0.352 0.367-0.596 0.367z"></path>
<path d="M7.307 25.313c-3.68 0-6.674-2.677-6.674-5.969 0-0.369 0.298-0.667 0.667-0.667h12.015c0.369 0 0.667 0.298 0.667 0.667 0 3.292-2.994 5.969-6.674 5.969zM2.021 20.010c0.373 2.241 2.601 3.969 5.285 3.969s4.913-1.728 5.286-3.969h-10.571z"></path>
<path d="M18.634 20.012c-0.102 0-0.203-0.022-0.299-0.070-0.328-0.165-0.461-0.566-0.297-0.896l6.026-12.015c0.113-0.225 0.344-0.368 0.596-0.368 0 0 0 0 0.001 0 0.253 0 0.483 0.143 0.595 0.369l5.99 12.016c0.164 0.329 0.030 0.729-0.299 0.893-0.327 0.165-0.729 0.031-0.893-0.299l-5.395-10.822-5.428 10.824c-0.117 0.233-0.353 0.367-0.596 0.367z"></path>
<path d="M24.642 25.313c-3.68 0-6.675-2.677-6.675-5.969 0-0.369 0.298-0.667 0.667-0.667h12.016c0.369 0 0.667 0.298 0.667 0.667 0 3.292-2.995 5.969-6.674 5.969zM19.355 20.010c0.374 2.241 2.602 3.969 5.286 3.969s4.913-1.728 5.286-3.969h-10.573z"></path>
<path d="M24.66 7.996h-17.335c-0.369 0-0.667-0.298-0.667-0.667s0.298-0.667 0.667-0.667h17.335c0.369 0 0.667 0.298 0.667 0.667s-0.298 0.667-0.667 0.667z"></path>
<path d="M15.989 11.796c-0.369 0-0.667-0.298-0.667-0.667v-6.137c0-0.369 0.298-0.667 0.667-0.667s0.667 0.298 0.667 0.667v6.137c0 0.368-0.299 0.667-0.667 0.667z"></path>
</svg>
