<svg version="1.1" xmlns="http://www.w3.org/2000/svg" width="32" height="32" viewBox="0 0 32 32">
<title>scale_justice_law_attorney2</title>
<path d="M24.675 10.665c-0.079 0-0.16-0.014-0.24-0.044l-17.336-6.667c-0.343-0.132-0.515-0.518-0.383-0.862s0.517-0.514 0.862-0.383l17.336 6.667c0.344 0.132 0.514 0.518 0.383 0.862-0.102 0.265-0.354 0.427-0.622 0.427z"></path>
<path d="M1.312 16.013c-0.1 0-0.203-0.023-0.298-0.071-0.329-0.165-0.462-0.566-0.297-0.895l6.026-12.016c0.113-0.225 0.344-0.368 0.596-0.368h0.001c0.253 0 0.483 0.143 0.596 0.369l5.99 12.016c0.165 0.329 0.031 0.73-0.299 0.894-0.33 0.169-0.729 0.030-0.894-0.299l-5.395-10.822-5.428 10.824c-0.116 0.233-0.352 0.368-0.596 0.368z"></path>
<path d="M7.32 21.313c-3.68 0-6.675-2.677-6.675-5.967 0-0.369 0.298-0.667 0.667-0.667h12.016c0.369 0 0.667 0.298 0.667 0.667 0 3.29-2.994 5.967-6.674 5.967zM2.035 16.012c0.374 2.241 2.602 3.967 5.286 3.967s4.912-1.727 5.286-3.967h-10.572z"></path>
<path d="M30.663 22.68c-0.245 0-0.481-0.135-0.596-0.37l-5.393-10.821-5.43 10.824c-0.167 0.329-0.57 0.46-0.896 0.297-0.328-0.165-0.461-0.566-0.297-0.896l6.027-12.014c0.113-0.225 0.344-0.368 0.596-0.368 0 0 0 0 0.001 0 0.253 0.001 0.483 0.143 0.595 0.369l5.988 12.016c0.164 0.329 0.030 0.729-0.299 0.893-0.095 0.048-0.197 0.070-0.297 0.070z"></path>
<path d="M24.655 27.981c-3.68 0-6.675-2.677-6.675-5.969 0-0.369 0.298-0.667 0.667-0.667h12.016c0.369 0 0.667 0.298 0.667 0.667 0 3.292-2.995 5.969-6.674 5.969zM19.369 22.678c0.374 2.241 2.602 3.969 5.286 3.969s4.913-1.728 5.286-3.969h-10.573z"></path>
<path d="M16.003 32c-0.369 0-0.667-0.298-0.667-0.667v-27.673c0-0.369 0.298-0.667 0.667-0.667s0.667 0.298 0.667 0.667v27.673c0 0.369-0.298 0.667-0.667 0.667z"></path>
<path d="M21.94 32h-12c-0.369 0-0.667-0.298-0.667-0.667s0.298-0.667 0.667-0.667h12c0.369 0 0.667 0.298 0.667 0.667s-0.298 0.667-0.667 0.667z"></path>
</svg>
