<!-- Generated by IcoMoon.io -->
<svg version="1.1" xmlns="http://www.w3.org/2000/svg" width="32" height="32" viewBox="0 0 32 32">
<title>scatter_plot</title>
<path d="M13.063 19.012c0 0.84-0.681 1.521-1.521 1.521s-1.521-0.681-1.521-1.521c0-0.84 0.681-1.521 1.521-1.521s1.521 0.681 1.521 1.521z"></path>
<path d="M5.443 11.24c0 0.84-0.681 1.521-1.521 1.521s-1.521-0.681-1.521-1.521c0-0.84 0.681-1.521 1.521-1.521s1.521 0.681 1.521 1.521z"></path>
<path d="M3.461 5.219c0 0.84-0.681 1.521-1.521 1.521s-1.521-0.681-1.521-1.521c0-0.84 0.681-1.521 1.521-1.521s1.521 0.681 1.521 1.521z"></path>
<path d="M11.235 7.048c0 0.84-0.681 1.521-1.521 1.521s-1.521-0.681-1.521-1.521c0-0.84 0.681-1.521 1.521-1.521s1.521 0.681 1.521 1.521z"></path>
<path d="M20.227 10.092c0 0.84-0.681 1.521-1.521 1.521s-1.521-0.681-1.521-1.521c0-0.84 0.681-1.521 1.521-1.521s1.521 0.681 1.521 1.521z"></path>
<path d="M22.056 18.093c0 0.84-0.681 1.521-1.521 1.521s-1.521-0.681-1.521-1.521c0-0.84 0.681-1.521 1.521-1.521s1.521 0.681 1.521 1.521z"></path>
<path d="M28.913 18.093c0 0.84-0.681 1.521-1.521 1.521s-1.521-0.681-1.521-1.521c0-0.84 0.681-1.521 1.521-1.521s1.521 0.681 1.521 1.521z"></path>
<path d="M27.085 24.8c0 0.84-0.681 1.521-1.521 1.521s-1.521-0.681-1.521-1.521c0-0.84 0.681-1.521 1.521-1.521s1.521 0.681 1.521 1.521z"></path>
<path d="M31.581 26.781c0 0.84-0.681 1.521-1.521 1.521s-1.521-0.681-1.521-1.521c0-0.84 0.681-1.521 1.521-1.521s1.521 0.681 1.521 1.521z"></path>
</svg>
