<svg version="1.1" xmlns="http://www.w3.org/2000/svg" width="32" height="32" viewBox="0 0 32 32">
<title>screen_text</title>
<path d="M24.645 6.667h-17.212c-0.369 0-0.667-0.298-0.667-0.667s0.298-0.667 0.667-0.667h17.212c0.369 0 0.667 0.298 0.667 0.667s-0.298 0.667-0.667 0.667z"></path>
<path d="M24.645 14.667h-17.212c-0.369 0-0.667-0.298-0.667-0.667s0.298-0.667 0.667-0.667h17.212c0.369 0 0.667 0.298 0.667 0.667s-0.298 0.667-0.667 0.667z"></path>
<path d="M15.268 9.333h-7.836c-0.369 0-0.667-0.298-0.667-0.667s0.298-0.667 0.667-0.667h7.836c0.369 0 0.667 0.298 0.667 0.667s-0.298 0.667-0.667 0.667z"></path>
<path d="M15.268 17.333h-7.836c-0.369 0-0.667-0.298-0.667-0.667s0.298-0.667 0.667-0.667h7.836c0.369 0 0.667 0.298 0.667 0.667s-0.298 0.667-0.667 0.667z"></path>
<path d="M21.738 32h-11.472c-0.678 0-1.251-0.546-1.251-1.191 0-0.105 0.025-0.211 0.074-0.305l0.262-0.527c0.72-1.474 1.616-3.31 4.223-3.31h4.857c2.668 0 3.536 1.862 4.236 3.358l0.254 0.535c0.046 0.091 0.069 0.191 0.069 0.294-0 0.631-0.561 1.146-1.251 1.146zM10.496 30.667h11l-0.038-0.078c-0.649-1.389-1.208-2.589-3.027-2.589h-4.857c-1.775 0-2.354 1.187-3.025 2.561l-0.052 0.105z"></path>
<path d="M29.195 22.667h-26.387c-1.625 0-2.804-1.137-2.804-2.703v-17.053c-0-1.605 1.258-2.911 2.804-2.911h26.387c1.548 0 2.809 1.306 2.809 2.911v17.053c0 1.566-1.181 2.703-2.809 2.703zM2.808 1.333c-0.811 0-1.471 0.708-1.471 1.577v17.053c-0 0.819 0.591 1.37 1.471 1.37h26.387c0.883 0 1.475-0.551 1.475-1.37v-17.053c0-0.87-0.661-1.577-1.475-1.577h-26.387z"></path>
<path d="M16.004 28c-0.369 0-0.667-0.298-0.667-0.667v-2.667c0-0.369 0.298-0.667 0.667-0.667s0.667 0.298 0.667 0.667v2.667c0 0.369-0.298 0.667-0.667 0.667z"></path>
</svg>
