<!-- Generated by IcoMoon.io -->
<svg version="1.1" xmlns="http://www.w3.org/2000/svg" width="32" height="32" viewBox="0 0 32 32">
<title>screen_analytics_line_graph</title>
<path d="M20.659 3.996c-0.369 0-0.667-0.298-0.667-0.667v-2c0-0.369 0.298-0.667 0.667-0.667s0.667 0.298 0.667 0.667v2c0 0.368-0.298 0.667-0.667 0.667z"></path>
<path d="M11.324 3.996c-0.369 0-0.667-0.298-0.667-0.667v-2c0-0.369 0.298-0.667 0.667-0.667s0.667 0.298 0.667 0.667v2c0 0.368-0.298 0.667-0.667 0.667z"></path>
<path d="M9.123 31.906c-0.051 0-0.103-0.005-0.154-0.018-0.358-0.085-0.58-0.444-0.495-0.802l0.937-3.952c0.084-0.359 0.445-0.586 0.802-0.495 0.359 0.085 0.58 0.444 0.495 0.802l-0.937 3.952c-0.072 0.307-0.346 0.513-0.648 0.513z"></path>
<path d="M22.858 31.906c-0.302 0-0.575-0.206-0.648-0.513l-0.936-3.952c-0.085-0.358 0.137-0.717 0.495-0.802 0.361-0.091 0.716 0.135 0.802 0.495l0.936 3.952c0.085 0.358-0.137 0.717-0.495 0.802-0.052 0.013-0.103 0.018-0.154 0.018z"></path>
<path d="M31.325 25.329h-30.667c-0.369 0-0.667-0.298-0.667-0.667v-21.333c0-0.369 0.298-0.667 0.667-0.667h30.667c0.369 0 0.667 0.298 0.667 0.667v21.333c0 0.368-0.298 0.667-0.667 0.667zM1.325 23.996h29.333v-20h-29.333v20z"></path>
<path d="M5.685 14.78c-1.010 0-1.831-0.821-1.831-1.831s0.821-1.831 1.831-1.831 1.831 0.821 1.831 1.831-0.822 1.831-1.831 1.831zM5.685 12.452c-0.274 0-0.497 0.223-0.497 0.497s0.223 0.497 0.497 0.497c0.275 0 0.498-0.223 0.498-0.497s-0.223-0.497-0.498-0.497z"></path>
<path d="M12.533 10.422c-1.010 0-1.831-0.821-1.831-1.831s0.821-1.831 1.831-1.831 1.831 0.821 1.831 1.831-0.822 1.831-1.831 1.831zM12.533 8.094c-0.274 0-0.497 0.223-0.497 0.497s0.223 0.497 0.497 0.497c0.275 0 0.498-0.223 0.498-0.497s-0.223-0.497-0.498-0.497z"></path>
<path d="M19.381 21.007c-1.009 0-1.831-0.822-1.831-1.832 0-1.009 0.822-1.831 1.831-1.831s1.831 0.822 1.831 1.831c0 1.010-0.821 1.832-1.831 1.832zM19.381 18.677c-0.275 0-0.497 0.223-0.497 0.497s0.223 0.499 0.497 0.499 0.497-0.224 0.497-0.499-0.223-0.497-0.497-0.497z"></path>
<path d="M26.231 13.535c-1.009 0-1.831-0.821-1.831-1.831s0.822-1.831 1.831-1.831 1.831 0.822 1.831 1.831-0.822 1.831-1.831 1.831zM26.231 11.206c-0.275 0-0.497 0.223-0.497 0.498s0.223 0.497 0.497 0.497 0.497-0.223 0.497-0.497c0-0.275-0.223-0.498-0.497-0.498z"></path>
<path d="M6.666 12.992c-0.221 0-0.438-0.11-0.564-0.311-0.197-0.311-0.103-0.723 0.208-0.919l4.9-3.089c0.311-0.195 0.723-0.102 0.919 0.208s0.103 0.723-0.208 0.919l-4.9 3.089c-0.11 0.070-0.233 0.103-0.355 0.103z"></path>
<path d="M18.75 18.866c-0.217 0-0.432-0.107-0.56-0.305l-5.585-8.632c-0.2-0.309-0.111-0.722 0.198-0.922s0.721-0.111 0.922 0.198l5.585 8.632c0.199 0.309 0.112 0.721-0.198 0.922-0.112 0.072-0.237 0.107-0.362 0.107z"></path>
<path d="M20.165 18.986c-0.161 0-0.323-0.057-0.451-0.176-0.271-0.249-0.289-0.671-0.040-0.941l5.262-5.74c0.25-0.272 0.673-0.288 0.941-0.041 0.271 0.249 0.289 0.671 0.040 0.942l-5.262 5.74c-0.131 0.143-0.311 0.216-0.491 0.216z"></path>
</svg>
