<svg version="1.1" xmlns="http://www.w3.org/2000/svg" width="32" height="32" viewBox="0 0 32 32">
<title>screen_analytics_line_graph_growth</title>
<path d="M20.665 3.996c-0.369 0-0.667-0.298-0.667-0.667v-2c0-0.369 0.298-0.667 0.667-0.667s0.667 0.298 0.667 0.667v2c0 0.368-0.298 0.667-0.667 0.667z"></path>
<path d="M11.331 3.996c-0.369 0-0.667-0.298-0.667-0.667v-2c0-0.369 0.298-0.667 0.667-0.667s0.667 0.298 0.667 0.667v2c0 0.368-0.298 0.667-0.667 0.667z"></path>
<path d="M9.13 31.906c-0.051 0-0.103-0.005-0.154-0.018-0.358-0.085-0.58-0.444-0.495-0.802l0.936-3.952c0.084-0.357 0.443-0.586 0.802-0.495 0.358 0.085 0.58 0.444 0.495 0.802l-0.936 3.952c-0.072 0.306-0.346 0.513-0.648 0.513z"></path>
<path d="M22.865 31.906c-0.302 0-0.575-0.206-0.648-0.513l-0.936-3.952c-0.085-0.358 0.137-0.717 0.495-0.802 0.358-0.091 0.716 0.135 0.802 0.495l0.936 3.952c0.085 0.358-0.137 0.717-0.495 0.802-0.052 0.013-0.103 0.018-0.154 0.018z"></path>
<path d="M31.332 25.329h-30.667c-0.369 0-0.667-0.298-0.667-0.667v-21.333c0-0.369 0.298-0.667 0.667-0.667h30.667c0.369 0 0.667 0.298 0.667 0.667v21.333c0 0.368-0.298 0.667-0.667 0.667zM1.332 23.996h29.333v-20h-29.333v20z"></path>
<path d="M10.325 21.335h-2.117c-0.886 0-1.607-0.703-1.607-1.566v-0.805c0-0.883 0.736-1.628 1.607-1.628h2.117c0.872 0 1.609 0.745 1.609 1.628v0.805c0 0.863-0.721 1.566-1.609 1.566zM8.208 18.669c-0.141 0-0.274 0.143-0.274 0.294v0.805c0 0.151 0.141 0.233 0.274 0.233h2.117c0.135 0 0.275-0.087 0.275-0.233v-0.805c0-0.148-0.137-0.294-0.275-0.294h-2.117z"></path>
<path d="M16.992 21.335h-2.117c-0.886 0-1.607-0.703-1.607-1.566v-4.805c0-0.882 0.736-1.627 1.607-1.627h2.117c0.872 0 1.609 0.745 1.609 1.627v4.805c0 0.863-0.721 1.566-1.609 1.566zM14.876 14.669c-0.141 0-0.274 0.143-0.274 0.294v4.805c0 0.151 0.141 0.233 0.274 0.233h2.117c0.135 0 0.276-0.087 0.276-0.233v-4.805c0-0.148-0.137-0.294-0.276-0.294h-2.117z"></path>
<path d="M23.659 21.335h-2.116c-0.901 0-1.607-0.687-1.607-1.566v-8.806c0-0.881 0.736-1.626 1.607-1.626h2.116c0.872 0 1.609 0.745 1.609 1.626v8.806c0 0.863-0.721 1.566-1.609 1.566zM21.543 10.669c-0.141 0-0.273 0.143-0.273 0.293v8.806c0 0.151 0.141 0.233 0.273 0.233h2.116c0.135 0 0.276-0.087 0.276-0.233v-8.806c0-0.148-0.137-0.293-0.276-0.293h-2.116z"></path>
<path d="M9.934 14.628c-0.171 0-0.341-0.065-0.471-0.195-0.26-0.26-0.26-0.682 0-0.943l6.615-6.615c0.26-0.26 0.682-0.26 0.943 0s0.26 0.682 0 0.943l-6.615 6.615c-0.13 0.13-0.301 0.195-0.471 0.195z"></path>
<path d="M16.659 11.329c-0.369 0-0.667-0.298-0.667-0.667v-2.667h-2.667c-0.369 0-0.667-0.298-0.667-0.667s0.298-0.667 0.667-0.667h3.333c0.369 0 0.667 0.298 0.667 0.667v3.333c0 0.368-0.298 0.667-0.667 0.667z"></path>
</svg>
