<svg version="1.1" xmlns="http://www.w3.org/2000/svg" width="32" height="32" viewBox="0 0 32 32">
<title>screen_analytics_pie_graph</title>
<path d="M20.672 3.996c-0.369 0-0.667-0.298-0.667-0.667v-2c0-0.369 0.298-0.667 0.667-0.667s0.667 0.298 0.667 0.667v2c0 0.368-0.298 0.667-0.667 0.667z"></path>
<path d="M11.337 3.996c-0.369 0-0.667-0.298-0.667-0.667v-2c0-0.369 0.298-0.667 0.667-0.667s0.667 0.298 0.667 0.667v2c0 0.368-0.298 0.667-0.667 0.667z"></path>
<path d="M9.135 31.906c-0.051 0-0.103-0.005-0.154-0.018-0.359-0.085-0.58-0.444-0.495-0.802l0.937-3.952c0.085-0.359 0.446-0.586 0.802-0.495 0.358 0.085 0.58 0.444 0.495 0.802l-0.937 3.952c-0.072 0.307-0.346 0.513-0.648 0.513z"></path>
<path d="M22.871 31.906c-0.302 0-0.575-0.206-0.648-0.513l-0.936-3.952c-0.085-0.358 0.137-0.717 0.495-0.802 0.361-0.091 0.717 0.135 0.802 0.495l0.936 3.952c0.085 0.358-0.137 0.717-0.495 0.802-0.052 0.013-0.103 0.018-0.154 0.018z"></path>
<path d="M31.339 25.329h-30.667c-0.369 0-0.667-0.298-0.667-0.667v-21.333c0-0.369 0.298-0.667 0.667-0.667h30.667c0.369 0 0.667 0.298 0.667 0.667v21.333c0 0.368-0.298 0.667-0.667 0.667zM1.338 23.996h29.334v-20h-29.334v20z"></path>
<path d="M11.301 21.259c-1.726 0-3.372-0.741-4.515-2.033-1.146-1.293-1.683-3.016-1.475-4.726 0.447-3.676 3.745-5.33 5.944-5.33 0.673 0 1.179 0.171 1.465 0.494 0.193 0.218 0.28 0.497 0.244 0.783l-0.835 3.644c3.506-1.779 3.574-1.779 3.758-1.779 0.437 0 0.829 0.261 0.999 0.665 0.747 1.87 0.521 3.971-0.604 5.631-1.122 1.659-2.985 2.65-4.982 2.65zM11.255 10.504c-1.342 0-4.238 1.016-4.621 4.158-0.162 1.331 0.257 2.673 1.15 3.68 0.891 1.007 2.173 1.583 3.517 1.583 1.577 0 2.99-0.753 3.878-2.064 0.831-1.229 1.037-2.704 0.578-4.092-0.841 0.407-2.934 1.464-4.293 2.156-0.23 0.117-0.509 0.092-0.713-0.069-0.204-0.159-0.297-0.423-0.24-0.675l1.070-4.654c-0.079-0.014-0.187-0.024-0.326-0.024z"></path>
<path d="M13.963 12.509c-0.145 0-0.31-0.052-0.426-0.139-0.358-0.275-0.453-0.348 0.075-4.185l0.021-0.155c0.043-0.348 0.327-0.755 0.986-0.755 0.978 0 2.796 0.949 3.525 2.666 0.091 0.221 0.091 0.463 0.005 0.674-0.277 0.676-4.154 1.894-4.188 1.894zM14.895 8.656c-0.152 1.12-0.234 1.829-0.277 2.278 0.648-0.249 1.554-0.627 2.089-0.876-0.495-0.785-1.314-1.259-1.813-1.402z"></path>
<path d="M25.965 18.663h-5.293c-0.369 0-0.667-0.298-0.667-0.667s0.298-0.667 0.667-0.667h5.293c0.369 0 0.667 0.298 0.667 0.667s-0.298 0.667-0.667 0.667z"></path>
<path d="M25.965 14.662h-5.293c-0.369 0-0.667-0.298-0.667-0.667s0.298-0.667 0.667-0.667h5.293c0.369 0 0.667 0.298 0.667 0.667s-0.298 0.667-0.667 0.667z"></path>
<path d="M25.965 10.662h-5.293c-0.369 0-0.667-0.298-0.667-0.667s0.298-0.667 0.667-0.667h5.293c0.369 0 0.667 0.298 0.667 0.667s-0.298 0.667-0.667 0.667z"></path>
</svg>
