<svg version="1.1" xmlns="http://www.w3.org/2000/svg" width="32" height="32" viewBox="0 0 32 32">
<title>screen_ok_success</title>
<path d="M22.667 17.333h-13.333c-0.369 0-0.667-0.298-0.667-0.667s0.298-0.667 0.667-0.667h13.333c0.369 0 0.667 0.298 0.667 0.667s-0.298 0.667-0.667 0.667z"></path>
<path d="M21.734 32h-11.472c-0.678 0-1.252-0.546-1.252-1.191 0-0.105 0.025-0.211 0.074-0.305l0.262-0.526c0.72-1.475 1.616-3.311 4.223-3.311h4.858c2.668 0 3.536 1.862 4.236 3.358l0.254 0.535c0.046 0.091 0.069 0.191 0.069 0.294-0 0.631-0.561 1.146-1.251 1.146zM10.492 30.667h11l-0.038-0.078c-0.648-1.389-1.208-2.589-3.027-2.589h-4.858c-1.775 0-2.354 1.187-3.025 2.563l-0.051 0.104z"></path>
<path d="M29.191 22.667h-26.387c-1.625 0-2.804-1.137-2.804-2.703v-17.053c0-1.605 1.258-2.911 2.804-2.911h26.387c1.548 0 2.809 1.306 2.809 2.911v17.053c0 1.566-1.181 2.703-2.809 2.703zM2.804 1.333c-0.811 0-1.471 0.708-1.471 1.577v17.053c0 0.819 0.591 1.37 1.471 1.37h26.387c0.883 0 1.475-0.551 1.475-1.37v-17.053c0-0.87-0.661-1.577-1.475-1.577h-26.387z"></path>
<path d="M16 28c-0.369 0-0.667-0.298-0.667-0.667v-2.667c0-0.369 0.298-0.667 0.667-0.667s0.667 0.298 0.667 0.667v2.667c0 0.369-0.298 0.667-0.667 0.667z"></path>
<path d="M15.998 14.712c-2.943 0-5.338-2.395-5.338-5.338s2.395-5.339 5.338-5.339 5.338 2.395 5.338 5.339-2.394 5.338-5.338 5.338zM15.998 5.369c-2.208 0-4.005 1.797-4.005 4.005s1.796 4.005 4.005 4.005c2.208 0 4.005-1.796 4.005-4.005s-1.797-4.005-4.005-4.005z"></path>
<path d="M15.236 11.85c-0.163 0-0.327-0.059-0.456-0.18-0.269-0.252-0.283-0.674-0.031-0.943l2.848-3.044c0.253-0.268 0.673-0.283 0.943-0.031 0.268 0.252 0.283 0.674 0.031 0.943l-2.848 3.044c-0.131 0.14-0.309 0.211-0.487 0.211z"></path>
<path d="M15.236 11.85c-0.178 0-0.355-0.071-0.487-0.212l-1.322-1.414c-0.251-0.269-0.237-0.691 0.032-0.942s0.691-0.237 0.942 0.032l1.322 1.414c0.251 0.269 0.237 0.691-0.032 0.942-0.128 0.121-0.292 0.18-0.455 0.18z"></path>
</svg>
