<svg version="1.1" xmlns="http://www.w3.org/2000/svg" width="32" height="32" viewBox="0 0 32 32">
<title>screen_grid_images</title>
<path d="M10.006 18.667h-5.333c-0.369 0-0.667-0.298-0.667-0.667v-5.333c0-0.369 0.298-0.667 0.667-0.667h5.333c0.369 0 0.667 0.298 0.667 0.667v5.333c0 0.369-0.298 0.667-0.667 0.667zM5.339 17.333h4v-4h-4v4z"></path>
<path d="M10.006 10.666h-5.333c-0.369 0-0.667-0.298-0.667-0.667v-5.333c0-0.369 0.298-0.667 0.667-0.667h5.333c0.369 0 0.667 0.298 0.667 0.667v5.333c0 0.369-0.298 0.667-0.667 0.667zM5.339 9.333h4v-4h-4v4z"></path>
<path d="M18.007 18.667h-5.333c-0.369 0-0.667-0.298-0.667-0.667v-5.333c0-0.369 0.298-0.667 0.667-0.667h5.333c0.369 0 0.667 0.298 0.667 0.667v5.333c0 0.369-0.298 0.667-0.667 0.667zM13.34 17.333h4v-4h-4v4z"></path>
<path d="M18.007 10.666h-5.333c-0.369 0-0.667-0.298-0.667-0.667v-5.333c0-0.369 0.298-0.667 0.667-0.667h5.333c0.369 0 0.667 0.298 0.667 0.667v5.333c0 0.369-0.298 0.667-0.667 0.667zM13.34 9.333h4v-4h-4v4z"></path>
<path d="M26.007 18.667h-5.333c-0.369 0-0.667-0.298-0.667-0.667v-5.333c0-0.369 0.298-0.667 0.667-0.667h5.333c0.369 0 0.667 0.298 0.667 0.667v5.333c0 0.369-0.298 0.667-0.667 0.667zM21.34 17.333h4v-4h-4v4z"></path>
<path d="M26.007 10.666h-5.333c-0.369 0-0.667-0.298-0.667-0.667v-5.333c0-0.369 0.298-0.667 0.667-0.667h5.333c0.369 0 0.667 0.298 0.667 0.667v5.333c0 0.369-0.298 0.667-0.667 0.667zM21.34 9.333h4v-4h-4v4z"></path>
<path d="M21.747 32h-11.473c-0.678 0-1.251-0.546-1.251-1.191 0-0.105 0.025-0.211 0.074-0.305l0.262-0.527c0.72-1.474 1.616-3.31 4.223-3.31h4.857c2.667 0 3.536 1.859 4.234 3.354l0.257 0.538c0.046 0.092 0.069 0.193 0.069 0.296-0 0.632-0.561 1.146-1.251 1.146zM10.504 30.667h11c-0.013-0.027-0.026-0.055-0.038-0.082-0.648-1.387-1.208-2.585-3.027-2.585h-4.857c-1.775 0-2.354 1.187-3.025 2.561l-0.052 0.105z"></path>
<path d="M29.204 22.667h-26.389c-1.624 0-2.803-1.137-2.803-2.703v-17.053c0-1.605 1.258-2.911 2.803-2.911h26.389c1.548 0 2.807 1.306 2.807 2.911v17.053c0 1.566-1.181 2.703-2.807 2.703zM2.816 1.333c-0.811 0-1.47 0.708-1.47 1.577v17.053c0 0.819 0.59 1.37 1.47 1.37h26.389c0.881 0 1.474-0.551 1.474-1.37v-17.053c0-0.87-0.661-1.577-1.474-1.577h-26.389z"></path>
<path d="M16.012 28c-0.369 0-0.667-0.298-0.667-0.667v-2.667c0-0.369 0.298-0.667 0.667-0.667s0.667 0.298 0.667 0.667v2.667c0 0.369-0.298 0.667-0.667 0.667z"></path>
</svg>
