<svg version="1.1" xmlns="http://www.w3.org/2000/svg" width="32" height="32" viewBox="0 0 32 32">
<title>search_find_zoom</title>
<path d="M28.5 26.3v0l-5.9-5.9c1.4-1.8 2.2-4.1 2.2-6.5 0 0 0 0 0 0 0-6-4.9-10.9-10.9-10.9s-10.9 4.9-10.9 10.9 4.9 10.9 10.9 10.9c0 0 0 0 0 0 2.5 0 4.7-0.8 6.6-2.2v0l5.9 5.9c0.3 0.2 0.6 0.4 1 0.4 0.9 0 1.6-0.7 1.6-1.6-0.1-0.3-0.2-0.7-0.5-1zM13.9 21.7c-4.3 0-7.8-3.5-7.8-7.8v0c0-4.3 3.5-7.8 7.8-7.8s7.8 3.5 7.8 7.8c0 4.3-3.5 7.8-7.8 7.8zM28.5 26.3v0c0 0 0 0 0 0v0z"></path>
</svg>
