<!-- Generated by IcoMoon.io -->
<svg version="1.1" xmlns="http://www.w3.org/2000/svg" width="36" height="32" viewBox="0 0 36 32">
<title>search_help</title>
<path d="M27.469 27.756l0.003-0.006-6.713-5.709c-0.541-0.544-1.269-0.859-2.038-0.881 3.809-4.469 3.278-11.178-1.191-14.988s-11.178-3.278-14.988 1.191-3.278 11.178 1.191 14.988c3.972 3.387 9.822 3.387 13.797 0 0.022 0.769 0.337 1.497 0.881 2.038l5.713 6.713c0.819 1.031 2.316 1.203 3.344 0.384 1.031-0.819 1.203-2.316 0.384-3.344-0.113-0.144-0.241-0.272-0.384-0.384zM10.634 21.344c-3.916 0-7.088-3.175-7.088-7.088s3.172-7.088 7.088-7.088 7.088 3.175 7.088 7.091-3.172 7.084-7.088 7.084z"></path>
<path d="M28.066 19.209c-0.756 0-1.369 0.613-1.369 1.369v0.531c0 0.756 0.613 1.369 1.369 1.369s1.369-0.616 1.369-1.372v-0.528c0-0.756-0.613-1.369-1.369-1.369z"></path>
<path d="M33.388 1.938c-1.394-1.25-3.241-1.938-5.203-1.938-2.609 0-5.050 1.256-6.369 3.281-0.203 0.306-0.272 0.675-0.194 1.031 0.075 0.353 0.284 0.659 0.591 0.866 0.309 0.2 0.672 0.272 1.028 0.194 0.359-0.075 0.666-0.287 0.869-0.594 0.822-1.259 2.381-2.041 4.072-2.041 2.559 0 4.641 1.753 4.641 3.909 0 1.631-1.447 2.938-4.425 3.991-1.022 0.366-1.706 1.331-1.706 2.403v3.222c0 0.756 0.613 1.369 1.369 1.369s1.369-0.613 1.369-1.369v-3.075c2.012-0.725 3.491-1.591 4.513-2.637 1.078-1.103 1.622-2.416 1.622-3.897 0.003-1.781-0.772-3.456-2.175-4.716z"></path>
</svg>
