<!-- Generated by IcoMoon.io -->
<svg version="1.1" xmlns="http://www.w3.org/2000/svg" width="32" height="32" viewBox="0 0 32 32">
<title>search_settings</title>
<path d="M4.456 18.475c-0.359 0-0.653-0.284-0.666-0.644-0.056-1.75 0.587-3.387 1.819-4.616 1.228-1.228 2.853-1.881 4.616-1.819 0.369 0.012 0.656 0.319 0.644 0.688s-0.309 0.684-0.688 0.644c-1.369-0.028-2.662 0.463-3.628 1.428s-1.472 2.253-1.428 3.628c0.013 0.369-0.278 0.678-0.644 0.691-0.009 0-0.019 0-0.025 0z"></path>
<path d="M9.7 25.75v0 0z"></path>
<path d="M21.991 27.225l-5.275-5.275c0.863-1.316 1.366-2.891 1.366-4.578 0-4.619-3.759-8.378-8.378-8.378s-8.381 3.759-8.381 8.378 3.759 8.378 8.378 8.378c1.688 0 3.263-0.503 4.578-1.366l5.275 5.275c0.325 0.328 0.756 0.506 1.219 0.506v0c0.462 0 0.894-0.181 1.219-0.503 0.328-0.325 0.506-0.756 0.506-1.219 0-0.459-0.181-0.894-0.506-1.219zM2.656 17.372c0-3.884 3.159-7.047 7.047-7.047v0c3.884 0 7.047 3.162 7.047 7.047s-3.159 7.047-7.047 7.047-7.047-3.163-7.047-7.047zM21.050 28.719c-0.075 0.075-0.172 0.116-0.275 0.116s-0.2-0.041-0.275-0.116l-5.156-5.156c0.191-0.175 0.375-0.359 0.55-0.55l5.156 5.156c0.075 0.075 0.116 0.172 0.116 0.275s-0.044 0.2-0.116 0.275z"></path>
<path d="M24.184 10.959c-1.734 0-3.144-1.409-3.144-3.144s1.409-3.144 3.144-3.144 3.144 1.409 3.144 3.144-1.413 3.144-3.144 3.144zM24.184 6.056c-0.969 0-1.756 0.787-1.756 1.759 0 0.969 0.788 1.759 1.756 1.759 0.972 0 1.759-0.787 1.759-1.759 0-0.969-0.791-1.759-1.759-1.759z"></path>
<path d="M22.369 15.631c-0.056 0-0.116-0.006-0.172-0.022-0.734-0.188-1.406-0.463-2.056-0.841-0.272-0.156-0.403-0.475-0.322-0.778l0.397-1.5c-0.241-0.203-0.466-0.425-0.672-0.666l-1.5 0.409c-0.3 0.081-0.622-0.047-0.778-0.316-0.375-0.631-0.672-1.341-0.859-2.050-0.081-0.3 0.050-0.619 0.322-0.775l1.341-0.781c-0.025-0.316-0.025-0.631-0.003-0.947l-1.35-0.772c-0.272-0.153-0.406-0.472-0.328-0.775 0.184-0.722 0.469-1.412 0.841-2.053 0.156-0.272 0.472-0.403 0.778-0.322l1.5 0.397c0.203-0.241 0.428-0.466 0.669-0.672l-0.409-1.5c-0.081-0.3 0.047-0.619 0.316-0.778 0.631-0.375 1.341-0.669 2.047-0.856 0.306-0.078 0.619 0.050 0.778 0.322l0.781 1.344c0.313-0.025 0.631-0.028 0.947-0.003l0.769-1.347c0.156-0.272 0.469-0.409 0.775-0.328 0.731 0.188 1.403 0.463 2.056 0.841 0.269 0.156 0.403 0.475 0.322 0.775l-0.397 1.503c0.241 0.203 0.462 0.425 0.669 0.666l1.5-0.409c0.303-0.081 0.619 0.047 0.778 0.316 0.378 0.641 0.666 1.328 0.856 2.050 0.081 0.3-0.050 0.619-0.322 0.778l-1.344 0.781c0.025 0.313 0.025 0.628 0.003 0.944l1.35 0.769c0.272 0.153 0.406 0.472 0.328 0.772-0.188 0.728-0.462 1.4-0.841 2.056-0.156 0.272-0.472 0.403-0.778 0.322l-1.5-0.397c-0.203 0.241-0.425 0.463-0.666 0.669l0.409 1.5c0.081 0.3-0.047 0.619-0.316 0.778-0.637 0.378-1.328 0.669-2.050 0.859-0.294 0.081-0.619-0.050-0.778-0.322l-0.781-1.344c-0.313 0.025-0.625 0.028-0.944 0.003l-0.769 1.35c-0.122 0.222-0.353 0.35-0.597 0.35v0 0zM21.297 13.816c0.241 0.116 0.484 0.216 0.741 0.303l0.722-1.269c0.141-0.25 0.425-0.384 0.706-0.341 0.497 0.075 0.991 0.072 1.472-0.006 0.284-0.044 0.566 0.088 0.709 0.334l0.734 1.259c0.253-0.088 0.5-0.191 0.738-0.309l-0.381-1.406c-0.075-0.278 0.025-0.569 0.259-0.741 0.4-0.294 0.75-0.647 1.038-1.044 0.166-0.231 0.453-0.338 0.738-0.266l1.409 0.372c0.119-0.244 0.219-0.488 0.303-0.741l-1.266-0.722c-0.25-0.141-0.384-0.422-0.341-0.706 0.075-0.491 0.072-0.987-0.003-1.472-0.047-0.281 0.087-0.566 0.334-0.709l1.262-0.734c-0.091-0.253-0.191-0.5-0.309-0.737l-1.406 0.384c-0.275 0.078-0.569-0.025-0.741-0.259-0.294-0.403-0.647-0.753-1.044-1.038-0.234-0.169-0.337-0.462-0.266-0.738l0.375-1.413c-0.244-0.119-0.484-0.216-0.741-0.303l-0.722 1.266c-0.141 0.25-0.428 0.384-0.706 0.341-0.497-0.075-0.994-0.072-1.475 0.006-0.278 0.050-0.566-0.087-0.709-0.334l-0.734-1.262c-0.25 0.087-0.497 0.191-0.738 0.309l0.384 1.406c0.075 0.278-0.025 0.572-0.259 0.741-0.4 0.294-0.75 0.647-1.041 1.047-0.166 0.231-0.456 0.338-0.738 0.266l-1.409-0.372c-0.116 0.241-0.216 0.487-0.303 0.741l1.266 0.722c0.25 0.141 0.384 0.422 0.341 0.706-0.075 0.491-0.072 0.987 0.006 1.478 0.047 0.281-0.087 0.566-0.334 0.709l-1.259 0.734c0.087 0.25 0.191 0.5 0.309 0.738l1.406-0.384c0.278-0.075 0.572 0.025 0.741 0.259 0.294 0.403 0.647 0.75 1.047 1.037 0.234 0.169 0.337 0.463 0.266 0.741l-0.381 1.406z"></path>
</svg>
