<svg version="1.1" xmlns="http://www.w3.org/2000/svg" width="32" height="32" viewBox="0 0 32 32">
<title>search_find_files_folder</title>
<path d="M14.011 23.995c-3.313 0-6.009-2.695-6.009-6.009s2.696-6.008 6.009-6.008 6.008 2.695 6.008 6.008c0 3.314-2.695 6.009-6.008 6.009zM14.011 13.311c-2.578 0-4.676 2.097-4.676 4.675s2.098 4.676 4.676 4.676c2.577 0 4.675-2.098 4.675-4.676s-2.098-4.675-4.675-4.675z"></path>
<path d="M24.628 31.898c-0.195 0-0.391-0.086-0.522-0.251l-7.24-9.107c-0.229-0.289-0.181-0.708 0.107-0.937 0.29-0.228 0.708-0.181 0.937 0.107l7.24 9.107c0.229 0.289 0.181 0.708-0.107 0.937-0.124 0.098-0.269 0.145-0.415 0.145z"></path>
<path d="M30.148 27.966h-4.167c-0.369 0-0.667-0.298-0.667-0.667s0.298-0.667 0.667-0.667h4.167c0.331 0 0.6-0.269 0.6-0.6v-21.359c0-0.331-0.269-0.601-0.6-0.601h-21.552c-0.262 0-0.499-0.154-0.607-0.392-0.476-1.053-1.116-2.104-1.411-2.328h-4.689c-0.331 0-0.6 0.269-0.6 0.602v24.079c0 0.331 0.269 0.6 0.6 0.6h14.813c0.369 0 0.667 0.298 0.667 0.667s-0.298 0.667-0.667 0.667h-14.813c-1.066 0-1.934-0.867-1.934-1.934v-24.079c0-1.067 0.867-1.935 1.934-1.935h4.781c0.267 0 1.055 0 2.352 2.72h21.126c1.066 0 1.934 0.868 1.934 1.934v21.359c0 1.067-0.867 1.934-1.934 1.934z"></path>
<path d="M31.415 9.367h-30.793c-0.369 0-0.667-0.298-0.667-0.667s0.298-0.667 0.667-0.667h30.793c0.369 0 0.667 0.298 0.667 0.667s-0.298 0.667-0.667 0.667z"></path>
</svg>
