<!-- Generated by IcoMoon.io -->
<svg version="1.1" xmlns="http://www.w3.org/2000/svg" width="32" height="32" viewBox="0 0 32 32">
<title>search_find_zoom2</title>
<path d="M16 4c-6.6 0-12 5.4-12 12s5.4 12 12 12c6.6 0 12-5.4 12-12s-5.4-12-12-12zM16 26c-5.5 0-10-4.5-10-10s4.5-10 10-10c5.5 0 10 4.5 10 10s-4.5 10-10 10zM19 17.6c0.6-0.9 1-2 1-3.1 0-3-2.5-5.5-5.5-5.5s-5.5 2.5-5.5 5.5c0 3 2.5 5.5 5.5 5.5 1.2 0 2.2-0.4 3.1-1l2.7 2.7c0.2 0.2 0.5 0.3 0.7 0.3s0.5-0.1 0.7-0.3c0.4-0.4 0.4-1 0-1.4l-2.7-2.7zM11 14.5c0-1.9 1.6-3.5 3.5-3.5s3.5 1.6 3.5 3.5-1.6 3.5-3.5 3.5-3.5-1.6-3.5-3.5z"></path>
</svg>
