<!-- Generated by IcoMoon.io -->
<svg version="1.1" xmlns="http://www.w3.org/2000/svg" width="36" height="32" viewBox="0 0 36 32">
<title>search_thicker</title>
<path d="M32.766 27.206l-7.572-6.441c-0.609-0.613-1.431-0.969-2.297-0.994 4.297-5.037 3.697-12.606-1.344-16.903s-12.606-3.697-16.903 1.344-3.697 12.606 1.344 16.903c4.481 3.822 11.078 3.822 15.563 0 0.025 0.866 0.381 1.688 0.994 2.297l6.441 7.572c0.922 1.163 2.613 1.356 3.772 0.434 1.163-0.922 1.356-2.613 0.434-3.772-0.128-0.163-0.275-0.306-0.434-0.434l0.003-0.006zM13.775 19.981c-4.416 0-7.994-3.578-7.994-7.994s3.578-7.994 7.994-7.994 7.994 3.578 7.994 7.994v0c0 4.416-3.578 7.994-7.994 7.994z"></path>
</svg>
