<svg version="1.1" xmlns="http://www.w3.org/2000/svg" width="32" height="32" viewBox="0 0 32 32">
<title>search_global</title>
<path d="M15.825 30.5c-0.377 0-0.755 0-1.132 0-0.127-0.021-0.252-0.047-0.379-0.064-0.755-0.101-1.519-0.155-2.263-0.309-7.863-1.628-13.127-9.265-11.865-17.232 0.547-3.457 2.116-6.397 4.68-8.781 2.457-2.285 5.364-3.624 8.709-3.989 0.352-0.039 0.705-0.083 1.057-0.124 0.397 0 0.795 0 1.192 0 0.145 0.023 0.291 0.051 0.436 0.068 0.569 0.068 1.147 0.099 1.709 0.205 3.181 0.601 5.92 2.051 8.172 4.379 2.408 2.491 3.821 5.464 4.211 8.916 0.043 0.383 0.085 0.764 0.127 1.147 0 0.377 0 0.755 0 1.132-0.021 0.105-0.056 0.211-0.061 0.317-0.097 1.863-0.54 3.641-1.321 5.331-0.315 0.68-0.688 1.331-1.071 2.064-0.264-0.28-0.457-0.505-0.673-0.707-0.132-0.124-0.151-0.235-0.072-0.389 0.188-0.373 0.364-0.753 0.548-1.129 0.551-1.128 0.939-2.312 1.159-3.547 0.111-0.62 0.161-1.252 0.243-1.909-0.184-0.012-0.3-0.025-0.416-0.025-0.417-0.003-0.833 0.004-1.251-0.007-0.084-0.003-0.209-0.045-0.241-0.108-0.176-0.34-0.328-0.693-0.516-1.101 0.817 0 1.591 0 2.372 0 0-0.211 0.012-0.369-0.001-0.527-0.159-1.743-0.599-3.408-1.365-4.985-0.097-0.2-0.216-0.264-0.433-0.263-1.579 0.009-3.156 0.004-4.735 0.005-0.092 0-0.185 0.011-0.292 0.017 0.203 0.721 0.393 1.403 0.6 2.14-0.487-0.184-0.877-0.321-1.26-0.483-0.083-0.035-0.159-0.137-0.192-0.227-0.147-0.4-0.283-0.803-0.408-1.209-0.056-0.185-0.159-0.244-0.345-0.244-1.548 0.005-3.097 0.007-4.645 0-0.215-0.001-0.275 0.081-0.272 0.28 0.008 0.456 0.005 0.913-0.003 1.369-0.001 0.088-0.028 0.225-0.085 0.256-0.348 0.183-0.709 0.34-1.112 0.527 0-0.148 0-0.253 0-0.36-0.001-0.585-0.012-1.172 0.001-1.757 0.007-0.251-0.083-0.32-0.325-0.319-1.52 0.011-3.039 0.012-4.557 0.001-0.232-0.003-0.328 0.085-0.404 0.291-0.628 1.673-0.972 3.404-1.091 5.184-0.017 0.26 0.077 0.323 0.316 0.319 0.784-0.011 1.568-0.004 2.352-0.004 0.104 0 0.207 0 0.353 0-0.168 0.356-0.328 0.652-0.447 0.964-0.075 0.196-0.187 0.244-0.379 0.241-0.625-0.009-1.251 0.005-1.876-0.009-0.265-0.007-0.343 0.081-0.324 0.344 0.116 1.588 0.393 3.143 0.912 4.651 0.269 0.785 0.268 0.787 1.087 0.796 0.049 0 0.104-0.011 0.148 0.005 0.049 0.017 0.112 0.052 0.129 0.095 0.144 0.364 0.28 0.731 0.432 1.133-0.324 0-0.607 0-0.941 0 1.124 2.245 2.625 4.116 4.603 5.731 0-0.636 0-1.184 0-1.773 0.357 0.165 0.655 0.32 0.964 0.441 0.185 0.073 0.26 0.172 0.249 0.373-0.016 0.291-0.004 0.584-0.004 0.876 0.029 0.009 0.060 0.020 0.089 0.029 0.255-0.231 0.507-0.464 0.765-0.692 0.064-0.056 0.153-0.139 0.219-0.129 0.461 0.071 0.921 0.163 1.38 0.248 0.016 0.027 0.032 0.055 0.048 0.081-0.347 0.32-0.692 0.64-1.075 0.993 0.096 0.011 0.132 0.023 0.167 0.017 1.079-0.177 2.128-0.465 3.132-0.899 0.645-0.279 1.277-0.588 1.92-0.871 0.080-0.035 0.224-0.029 0.287 0.021 0.251 0.207 0.48 0.439 0.727 0.671-0.071 0.064-0.097 0.095-0.129 0.115-1.957 1.236-4.081 2.003-6.385 2.264-0.383 0.047-0.765 0.091-1.147 0.135zM8.095 21.617c-0.005-0.069 0.003-0.121-0.013-0.165-0.616-1.707-0.94-3.472-1.036-5.28-0.015-0.264-0.104-0.327-0.353-0.325-1.685 0.009-3.372 0.003-5.057 0.003-0.371 0-0.384 0.003-0.359 0.383 0.127 1.828 0.595 3.564 1.403 5.211 0.081 0.164 0.191 0.196 0.353 0.196 1.596-0.004 3.193-0.003 4.789-0.003 0.088-0.001 0.175-0.012 0.273-0.019zM8.139 8.88c-0.144-0.007-0.223-0.013-0.3-0.013-1.587 0-3.173 0.005-4.76-0.007-0.239-0.003-0.345 0.087-0.444 0.291-0.604 1.247-1.009 2.556-1.227 3.921-0.080 0.504-0.111 1.016-0.167 1.552 1.957 0 3.856 0 5.783 0 0.092-1.967 0.429-3.867 1.115-5.744zM26.897 7.627c-0.897-2.512-6.568-6.157-9.583-6.179 0.001 0.019-0.005 0.043 0.004 0.055 0.031 0.039 0.064 0.075 0.1 0.108 1.809 1.656 3.224 3.601 4.26 5.823 0.083 0.177 0.192 0.212 0.369 0.212 1.519-0.005 3.037-0.003 4.556-0.003 0.097 0 0.192-0.011 0.293-0.016zM13.225 1.405c-2.485 0.384-4.644 1.303-6.559 2.787-1.236 0.956-2.287 2.083-3.176 3.452 0.168 0 0.256 0 0.344 0 1.517 0 3.035-0.005 4.552 0.005 0.227 0.001 0.329-0.080 0.421-0.276 1.020-2.181 2.415-4.091 4.188-5.721 0.060-0.056 0.113-0.121 0.229-0.247zM3.497 22.875c1.139 1.72 2.523 3.089 4.2 4.16 1.668 1.065 3.48 1.749 5.517 2.053-0.089-0.104-0.121-0.152-0.163-0.189-1.821-1.656-3.236-3.609-4.276-5.837-0.085-0.183-0.199-0.208-0.372-0.207-1.517 0.004-3.035 0.003-4.552 0.003-0.096 0-0.192 0.009-0.355 0.017zM14.597 7.625c0-1.887 0-3.763 0-5.709-1.96 1.601-3.457 3.475-4.581 5.709 1.557 0 3.060 0 4.581 0zM15.86 7.625c1.523 0 3.025 0 4.58 0-1.119-2.237-2.621-4.107-4.58-5.711 0 1.949 0 3.824 0 5.711z"></path>
<path d="M30.976 28.743l-5.115-5.115c0.839-1.268 1.329-2.785 1.329-4.416 0-4.431-3.604-8.035-8.035-8.035s-8.036 3.603-8.036 8.033c0 4.431 3.605 8.036 8.036 8.036 1.632 0 3.148-0.492 4.417-1.331l5.115 5.113c0.305 0.305 0.711 0.475 1.143 0.475 0 0 0 0 0.001 0 0.432 0 0.839-0.168 1.144-0.473 0.631-0.629 0.631-1.656 0-2.288zM12.321 19.211c0-3.769 3.067-6.835 6.835-6.835s6.835 3.065 6.835 6.835c0 3.769-3.067 6.836-6.835 6.836s-6.835-3.067-6.835-6.836zM30.128 30.183c-0.080 0.080-0.185 0.124-0.296 0.124h-0.001c-0.111 0-0.215-0.044-0.295-0.124l-5.011-5.011c0.207-0.187 0.404-0.384 0.591-0.591l5.011 5.009c0.164 0.163 0.164 0.429 0.001 0.592z"></path>
<path d="M19.66 13.495c-1.663-0.056-3.243 0.564-4.419 1.74-1.176 1.177-1.795 2.747-1.74 4.417 0.011 0.324 0.277 0.581 0.599 0.581 0.007 0 0.013 0 0.020 0 0.332-0.012 0.591-0.289 0.58-0.62-0.044-1.337 0.449-2.591 1.389-3.531s2.199-1.439 3.531-1.389c0.328-0.015 0.608-0.249 0.62-0.58 0.011-0.332-0.249-0.608-0.58-0.619z"></path>
</svg>
