<!-- Generated by IcoMoon.io -->
<svg version="1.1" xmlns="http://www.w3.org/2000/svg" width="32" height="32" viewBox="0 0 32 32">
<title>search_find_files_folder</title>
<path d="M3.439 5.939c0.281-0.281 0.663-0.439 1.061-0.439h4.743c0.296 0 0.586 0.088 0.832 0.252v0l1.74 1.16c0.575 0.383 1.251 0.588 1.942 0.588v0h13.743c0.398 0 0.779 0.158 1.061 0.439s0.439 0.663 0.439 1.061v1.5h-26v-3.5c0-0.398 0.158-0.779 0.439-1.061zM3 12.5h26v2.375h2v-5.875c0-0.928-0.369-1.819-1.025-2.475s-1.547-1.025-2.475-1.025h-13.743c-0.296 0-0.586-0.088-0.832-0.252v0l-1.74-1.16c-0.575-0.383-1.251-0.588-1.942-0.588v0h-4.743c-0.928 0-1.819 0.369-2.475 1.025s-1.025 1.547-1.025 2.475v17c0 0.928 0.369 1.819 1.025 2.475s1.547 1.025 2.475 1.025h11.5v-2h-11.5c-0.398 0-0.779-0.158-1.061-0.439s-0.439-0.663-0.439-1.061v-11.5z"></path>
<path d="M22.893 14.5c-1.166 0-2.305 0.346-3.274 0.993s-1.724 1.568-2.171 2.645c-0.446 1.077-0.563 2.262-0.335 3.405s0.789 2.193 1.613 3.017 1.874 1.385 3.017 1.613c1.143 0.227 2.328 0.111 3.405-0.335 0.419-0.174 0.815-0.394 1.18-0.656l3.038 3.038c0.374 0.374 0.98 0.374 1.354 0s0.374-0.98 0-1.354l-3.038-3.038c0.038-0.053 0.075-0.107 0.111-0.161 0.648-0.969 0.993-2.109 0.993-3.274 0-1.563-0.621-3.062-1.726-4.167s-2.604-1.726-4.167-1.726zM25.706 17.58c-0.746-0.746-1.758-1.165-2.813-1.165h3.979v3.979c0-1.055-0.419-2.067-1.165-2.813zM20.683 17.085c0.654-0.437 1.424-0.671 2.21-0.671h3.979v3.979c0 0.787-0.233 1.556-0.671 2.21s-1.058 1.164-1.785 1.465-1.527 0.38-2.299 0.226c-0.772-0.154-1.481-0.532-2.037-1.089s-0.935-1.265-1.089-2.037c-0.154-0.772-0.075-1.572 0.226-2.299s0.811-1.348 1.465-1.786z"></path>
</svg>
