<!-- Generated by IcoMoon.io -->
<svg version="1.1" xmlns="http://www.w3.org/2000/svg" width="32" height="32" viewBox="0 0 32 32">
<title>secret_passcode_keypad_password_access</title>
<path d="M15.417 8.137c-0.369 0-0.667-0.298-0.667-0.667v-4.36c0-0.369 0.298-0.667 0.667-0.667s0.666 0.298 0.666 0.667v4.36c0 0.369-0.297 0.667-0.666 0.667z"></path>
<path d="M17.306 7.047c-0.113 0-0.228-0.029-0.333-0.089l-3.777-2.18c-0.319-0.184-0.428-0.592-0.244-0.911s0.592-0.428 0.911-0.244l3.777 2.18c0.319 0.184 0.428 0.592 0.243 0.911-0.122 0.213-0.348 0.333-0.577 0.333z"></path>
<path d="M13.53 7.047c-0.231 0-0.454-0.119-0.578-0.333-0.184-0.319-0.075-0.727 0.244-0.911l3.777-2.18c0.318-0.184 0.727-0.076 0.91 0.244 0.185 0.319 0.075 0.727-0.243 0.911l-3.777 2.18c-0.105 0.061-0.219 0.089-0.333 0.089z"></path>
<path d="M22.085 8.137c-0.369 0-0.667-0.298-0.667-0.667v-4.36c0-0.369 0.298-0.667 0.667-0.667s0.667 0.298 0.667 0.667v4.36c0 0.369-0.298 0.667-0.667 0.667z"></path>
<path d="M23.973 7.047c-0.113 0-0.228-0.029-0.333-0.089l-3.776-2.18c-0.319-0.184-0.428-0.592-0.243-0.911 0.184-0.319 0.592-0.426 0.91-0.244l3.776 2.18c0.319 0.184 0.428 0.592 0.243 0.911-0.122 0.213-0.348 0.333-0.577 0.333z"></path>
<path d="M20.197 7.047c-0.229 0-0.454-0.119-0.577-0.333-0.185-0.319-0.075-0.727 0.243-0.911l3.776-2.18c0.319-0.184 0.727-0.076 0.91 0.244 0.185 0.319 0.075 0.727-0.243 0.911l-3.776 2.18c-0.105 0.061-0.22 0.089-0.333 0.089z"></path>
<path d="M28.751 8.137c-0.369 0-0.667-0.298-0.667-0.667v-4.36c0-0.369 0.298-0.667 0.667-0.667s0.667 0.298 0.667 0.667v4.36c0 0.369-0.298 0.667-0.667 0.667z"></path>
<path d="M30.639 7.047c-0.113 0-0.228-0.029-0.333-0.089l-3.776-2.18c-0.319-0.184-0.428-0.592-0.243-0.911 0.184-0.319 0.592-0.426 0.91-0.244l3.776 2.18c0.319 0.184 0.428 0.592 0.243 0.911-0.122 0.213-0.348 0.333-0.577 0.333z"></path>
<path d="M26.863 7.047c-0.229 0-0.454-0.119-0.577-0.333-0.185-0.319-0.075-0.727 0.243-0.911l3.776-2.18c0.318-0.184 0.727-0.076 0.91 0.244 0.185 0.319 0.075 0.727-0.243 0.911l-3.776 2.18c-0.105 0.061-0.22 0.089-0.333 0.089z"></path>
<path d="M10.084 18.228c-0.369 0-0.667-0.298-0.667-0.667v-4.146c0-0.369 0.298-0.667 0.667-0.667s0.667 0.298 0.667 0.667v4.146c0 0.369-0.298 0.667-0.667 0.667z"></path>
<path d="M14.018 18.78c-0.369 0-0.667-0.298-0.667-0.667v-3.562c0-0.369 0.298-0.667 0.667-0.667s0.667 0.298 0.667 0.667v3.562c0 0.368-0.298 0.667-0.667 0.667z"></path>
<path d="M7.146 29.958c-0.086 0-0.173-0.017-0.257-0.051-2.072-0.865-4.415-4.384-4.918-7.384-0.303-1.807 0.074-3.24 1.091-4.145 0.786-0.699 1.521-0.902 2.182-0.604 0.084 0.038 0.164 0.083 0.24 0.137v-11.411c0-2.333 2.986-2.88 4.393-1.801 0.565 0.433 0.875 1.072 0.875 1.801v4.838c0.985-0.467 2.264-0.333 3.059 0.276 0.328 0.252 0.57 0.574 0.715 0.941 1.001-0.558 2.381-0.449 3.218 0.195 0.564 0.432 0.875 1.072 0.875 1.801v2.347c0 0.369-0.298 0.667-0.667 0.667s-0.667-0.298-0.667-0.667v-2.347c0-0.318-0.116-0.561-0.353-0.743s-0.582-0.286-0.945-0.286c-0.484 0-1.302 0.217-1.302 1.029 0 0.369-0.298 0.667-0.667 0.667s-0.667-0.298-0.667-0.667v-1.136c0-0.318-0.115-0.561-0.353-0.743s-0.582-0.287-0.946-0.287c-0.484 0-1.302 0.217-1.302 1.029 0 0.369-0.298 0.667-0.667 0.667s-0.667-0.298-0.667-0.667v-6.915c0-0.318-0.115-0.561-0.353-0.743s-0.581-0.286-0.945-0.286c-0.484 0-1.303 0.217-1.303 1.029v15.78c0 0.044 0 0.085 0 0.121-0.002 0.369-0.316 0.622-0.669 0.663-0.367-0.001-0.665-0.299-0.665-0.667v-0.087c-0.007-1.419-0.339-3.117-0.789-3.32-0.1-0.046-0.372 0.055-0.745 0.385-0.829 0.738-0.818 2-0.663 2.928 0.465 2.773 2.632 5.754 4.117 6.372 0.34 0.142 0.501 0.533 0.359 0.872-0.107 0.256-0.354 0.41-0.615 0.41z"></path>
<path d="M19.798 29.958c-0.082 0-0.165-0.014-0.246-0.047-0.341-0.135-0.509-0.523-0.374-0.866 2.303-5.814 2.044-12.053 2.042-12.116-0.001-1.025-1.152-1.054-1.284-1.054-0.49 0-1.318 0.215-1.318 1.023v1.831c0 0.369-0.298 0.667-0.667 0.667s-0.667-0.298-0.667-0.667v-1.831c0-3.074 5.266-3.114 5.267 0 0.012 0.234 0.277 6.549-2.134 12.639-0.104 0.262-0.354 0.421-0.62 0.421z"></path>
</svg>
