<!-- Generated by IcoMoon.io -->
<svg version="1.1" xmlns="http://www.w3.org/2000/svg" width="32" height="32" viewBox="0 0 32 32">
<title>secret_passcode_keypad_password_access2</title>
<path d="M6.072 14.746c-0.369 0-0.667-0.298-0.667-0.667v-4.159c0-0.369 0.298-0.667 0.667-0.667s0.667 0.298 0.667 0.667v4.159c0 0.369-0.298 0.667-0.667 0.667z"></path>
<path d="M7.872 13.706c-0.113 0-0.228-0.029-0.333-0.089l-3.602-2.079c-0.319-0.184-0.428-0.592-0.244-0.911s0.592-0.428 0.911-0.244l3.602 2.079c0.319 0.184 0.428 0.592 0.244 0.911-0.124 0.213-0.348 0.333-0.578 0.333z"></path>
<path d="M4.271 13.706c-0.231 0-0.454-0.119-0.578-0.333-0.184-0.319-0.075-0.727 0.244-0.911l3.602-2.079c0.318-0.184 0.726-0.076 0.911 0.244s0.075 0.727-0.244 0.911l-3.602 2.079c-0.105 0.061-0.219 0.089-0.333 0.089z"></path>
<path d="M12.739 14.746c-0.369 0-0.667-0.298-0.667-0.667v-4.159c0-0.369 0.298-0.667 0.667-0.667s0.667 0.298 0.667 0.667v4.159c0 0.369-0.298 0.667-0.667 0.667z"></path>
<path d="M14.539 13.706c-0.113 0-0.228-0.029-0.333-0.089l-3.602-2.079c-0.319-0.184-0.428-0.592-0.244-0.911 0.184-0.32 0.592-0.428 0.911-0.244l3.602 2.079c0.319 0.184 0.428 0.592 0.244 0.911-0.124 0.214-0.348 0.333-0.578 0.333z"></path>
<path d="M10.939 13.706c-0.231 0-0.454-0.119-0.578-0.333-0.184-0.319-0.075-0.727 0.244-0.911l3.602-2.079c0.317-0.184 0.727-0.076 0.911 0.244s0.075 0.727-0.244 0.911l-3.602 2.079c-0.105 0.061-0.219 0.089-0.333 0.089z"></path>
<path d="M19.406 14.746c-0.369 0-0.667-0.298-0.667-0.667v-4.159c0-0.369 0.298-0.667 0.667-0.667s0.667 0.298 0.667 0.667v4.159c0 0.369-0.298 0.667-0.667 0.667z"></path>
<path d="M21.207 13.706c-0.113 0-0.228-0.029-0.333-0.089l-3.602-2.079c-0.319-0.184-0.428-0.592-0.243-0.911 0.184-0.32 0.592-0.426 0.91-0.244l3.602 2.079c0.319 0.184 0.428 0.592 0.243 0.911-0.122 0.214-0.348 0.333-0.577 0.333z"></path>
<path d="M17.605 13.706c-0.229 0-0.454-0.119-0.577-0.333-0.185-0.319-0.075-0.727 0.243-0.911l3.602-2.079c0.318-0.184 0.727-0.077 0.91 0.244 0.185 0.319 0.075 0.727-0.243 0.911l-3.602 2.079c-0.105 0.061-0.22 0.089-0.333 0.089z"></path>
<path d="M26.073 14.746c-0.369 0-0.667-0.298-0.667-0.667v-4.159c0-0.369 0.298-0.667 0.667-0.667s0.667 0.298 0.667 0.667v4.159c0 0.369-0.298 0.667-0.667 0.667z"></path>
<path d="M27.874 13.706c-0.113 0-0.228-0.029-0.333-0.089l-3.602-2.079c-0.319-0.184-0.428-0.592-0.243-0.911 0.182-0.32 0.591-0.426 0.91-0.244l3.602 2.079c0.319 0.184 0.428 0.592 0.243 0.911-0.122 0.214-0.348 0.333-0.577 0.333z"></path>
<path d="M24.272 13.706c-0.229 0-0.454-0.119-0.577-0.333-0.185-0.319-0.075-0.727 0.243-0.911l3.602-2.079c0.319-0.184 0.727-0.077 0.91 0.244 0.185 0.319 0.075 0.727-0.243 0.911l-3.602 2.079c-0.105 0.061-0.22 0.089-0.333 0.089z"></path>
<path d="M31.372 18.667h-1.313c-0.369 0-0.667-0.298-0.667-0.667s0.298-0.667 0.667-0.667h0.646v-10.667h-29.333v10.667h15.276c0.369 0 0.667 0.298 0.667 0.667s-0.298 0.667-0.667 0.667h-15.943c-0.369 0-0.667-0.298-0.667-0.667v-12c0-0.369 0.298-0.667 0.667-0.667h30.667c0.369 0 0.667 0.298 0.667 0.667v12c0 0.369-0.298 0.667-0.667 0.667z"></path>
<path d="M23.41 27.871c-3.234 0-5.865-2.63-5.865-5.865 0-3.233 2.63-5.863 5.865-5.863s5.865 2.63 5.865 5.863c0 3.234-2.63 5.865-5.865 5.865zM23.41 17.477c-2.499 0-4.531 2.033-4.531 4.53 0 2.499 2.033 4.531 4.531 4.531s4.531-2.033 4.531-4.531c0-2.497-2.033-4.53-4.531-4.53z"></path>
<path d="M22.563 24.686c-0.163 0-0.327-0.060-0.456-0.18-0.268-0.251-0.283-0.673-0.031-0.943l3.168-3.387c0.253-0.268 0.673-0.281 0.943-0.031 0.268 0.251 0.283 0.673 0.031 0.943l-3.168 3.387c-0.131 0.141-0.309 0.211-0.487 0.211z"></path>
<path d="M22.563 24.686c-0.178 0-0.355-0.070-0.487-0.211l-1.471-1.573c-0.251-0.269-0.237-0.691 0.031-0.943 0.271-0.251 0.691-0.238 0.943 0.031l1.471 1.573c0.251 0.269 0.237 0.691-0.031 0.943-0.129 0.12-0.293 0.18-0.456 0.18z"></path>
</svg>
