<svg version="1.1" xmlns="http://www.w3.org/2000/svg" width="32" height="32" viewBox="0 0 32 32">
<title>security_lock_protected</title>
<path d="M15.981 31.695c-6.161 0-11.173-5.012-11.173-11.172s5.012-11.173 11.173-11.173c6.16 0 11.172 5.012 11.172 11.173s-5.012 11.172-11.172 11.172zM15.981 10.684c-5.425 0-9.839 4.414-9.839 9.839s4.414 9.839 9.839 9.839c5.425 0 9.839-4.414 9.839-9.839s-4.414-9.839-9.839-9.839z"></path>
<path d="M15.968 23.314c-1.5 0-2.72-1.22-2.72-2.72s1.22-2.72 2.72-2.72c1.501 0 2.721 1.22 2.721 2.72s-1.22 2.72-2.721 2.72zM15.968 19.207c-0.764 0-1.387 0.622-1.387 1.387s0.622 1.387 1.387 1.387c0.765 0 1.387-0.622 1.387-1.387s-0.622-1.387-1.387-1.387z"></path>
<path d="M17.419 19.809c-0.172 0-0.344-0.066-0.475-0.199-0.258-0.262-0.255-0.684 0.008-0.943l1.483-1.462c0.26-0.257 0.682-0.257 0.943 0.008 0.258 0.262 0.255 0.684-0.008 0.943l-1.483 1.462c-0.129 0.128-0.298 0.191-0.467 0.191z"></path>
<path d="M21.568 12.293c-0.369 0-0.667-0.298-0.667-0.667v-4.881c0-2.713-2.207-4.92-4.921-4.92s-4.92 2.207-4.92 4.92v4.88c0 0.369-0.298 0.667-0.667 0.667s-0.667-0.298-0.667-0.667v-4.88c0-3.448 2.805-6.253 6.253-6.253s6.254 2.805 6.254 6.253v4.881c0 0.369-0.298 0.667-0.667 0.667z"></path>
<path d="M23.624 21.26h-1.221c-0.369 0-0.667-0.298-0.667-0.667s0.298-0.667 0.667-0.667h1.221c0.369 0 0.667 0.298 0.667 0.667s-0.298 0.667-0.667 0.667z"></path>
<path d="M9.547 21.26h-1.221c-0.369 0-0.667-0.298-0.667-0.667s0.298-0.667 0.667-0.667h1.221c0.369 0 0.667 0.298 0.667 0.667s-0.298 0.667-0.667 0.667z"></path>
<path d="M15.975 28.909c-0.369 0-0.667-0.298-0.667-0.667v-1.221c0-0.369 0.298-0.667 0.667-0.667s0.666 0.298 0.666 0.667v1.221c0 0.369-0.298 0.667-0.666 0.667z"></path>
<path d="M15.975 14.833c-0.369 0-0.667-0.298-0.667-0.667v-1.221c0-0.369 0.298-0.667 0.667-0.667s0.666 0.298 0.666 0.667v1.221c0 0.369-0.298 0.667-0.666 0.667z"></path>
<path d="M20.648 16.587c-0.171 0-0.341-0.066-0.471-0.197-0.26-0.26-0.26-0.682 0-0.942l0.865-0.864c0.26-0.26 0.682-0.26 0.943 0s0.26 0.683 0 0.943l-0.865 0.865c-0.13 0.13-0.301 0.195-0.471 0.195z"></path>
<path d="M10.437 26.798c-0.171 0-0.341-0.065-0.471-0.195-0.26-0.26-0.26-0.682 0-0.943l0.863-0.863c0.26-0.26 0.682-0.26 0.943 0s0.26 0.682 0 0.943l-0.863 0.863c-0.13 0.13-0.301 0.195-0.471 0.195z"></path>
<path d="M21.513 26.798c-0.171 0-0.341-0.065-0.471-0.195l-0.863-0.863c-0.26-0.26-0.26-0.682 0-0.943s0.682-0.26 0.943 0l0.863 0.863c0.26 0.26 0.26 0.682 0 0.943-0.13 0.13-0.301 0.195-0.471 0.195z"></path>
<path d="M11.301 16.587c-0.171 0-0.341-0.065-0.471-0.195l-0.864-0.865c-0.26-0.26-0.26-0.682 0-0.943s0.682-0.26 0.943 0l0.864 0.864c0.26 0.26 0.26 0.683 0 0.943-0.13 0.13-0.301 0.195-0.471 0.195z"></path>
</svg>
