<!-- Generated by IcoMoon.io -->
<svg version="1.1" xmlns="http://www.w3.org/2000/svg" width="32" height="32" viewBox="0 0 32 32">
<title>security_lock_key</title>
<path d="M21.2 2c-2.3 0-4.5 0.9-6.1 2.5s-2.5 3.7-2.5 6c0 0.7 0 1.4 0.2 2.1l-0.2 0.2c-2.5 3-9.3 10.9-9.9 11.5-0.5 0.4-0.7 1-0.7 1.7 0 1 0.7 1.8 0.9 2 0.3 0.2 2 2 3.1 2 0 0 0 0 0 0 0.3 0 0.6-0.1 0.8-0.3 0.6-0.6 0.9-0.9 1.2-1.2 0.1-0.1 0.2-0.3 0.4-0.4 0.7-0.7 0.6-1.7 0.5-2.3 0-0.1 0-0.2 0-0.3 0.1 0 0.3 0 0.4 0.1 0.3 0.1 0.6 0.1 0.9 0.1 0.9 0 1.4-0.4 1.9-0.8 0.3-0.3 0.9-0.8 0.9-1.7 0-0.3-0.1-0.6-0.2-0.9 0.4 0.2 0.8 0.3 1.2 0.3 1.1-0.1 2.2-1.4 2.4-2.1 0.1-0.5-0.1-1-0.3-1.4 0-0.1-0.1-0.2-0.1-0.3 0.1 0 0.2 0.1 0.3 0.1 0.7 0.2 1 0.3 1.4 0.2s0.7-0.3 1-0.5c0.9 0.3 1.8 0.5 2.8 0.5 4.8 0 8.8-3.8 8.8-8.4-0.3-4.9-4.2-8.7-9.1-8.7zM21.2 16.9c-1 0-1.8-0.1-2.6-0.5-0.3-0.1-0.6-0.1-0.9 0.1-0.1 0.1-0.2 0.2-0.4 0.3-0.1 0.1-0.2 0.2-0.3 0.2s-0.4-0.1-0.5-0.1c-0.7-0.2-1-0.3-1.4-0.2-0.7 0.1-1.3 0.9-1.5 1.4-0.1 0.7 0.2 1.3 0.4 1.8 0 0.1 0.1 0.1 0.1 0.2-0.2 0.2-0.4 0.5-0.5 0.5s-0.3-0.1-0.4-0.2c-0.5-0.2-1.5-0.7-2.4 0.1-0.9 0.9-0.4 1.9-0.2 2.4 0 0.1 0.1 0.2 0.1 0.2s0 0.1-0.2 0.2c-0.3 0.3-0.4 0.3-0.5 0.3s-0.3 0-0.5-0.1-0.8-0.2-1.2-0.1c-0.6 0.1-1.1 0.3-1.5 1.2-0.2 0.5-0.1 1 0 1.4 0 0.2 0.1 0.5 0.1 0.6-0.2 0.2-0.3 0.3-0.4 0.4-0.2 0.2-0.4 0.4-0.7 0.7-0.5-0.3-1.2-0.9-1.5-1.3-0.2-0.1-0.3-0.3-0.3-0.5 0-0.1 0.1-0.2 0.1-0.2 0.6-0.6 5.2-5.9 10-11.6l0.5-0.6c0.2-0.3 0.3-0.6 0.2-1-0.2-0.6-0.2-1.2-0.2-2v0c0-3.6 2.9-6.4 6.6-6.4 3.8-0.1 6.8 2.8 6.8 6.3 0 3.6-3 6.5-6.8 6.5zM23 6c-1.7 0-3 1.3-3 3s1.3 3 3 3 3-1.3 3-3-1.3-3-3-3zM23 10c-0.6 0-1-0.4-1-1s0.4-1 1-1 1 0.4 1 1-0.4 1-1 1z"></path>
</svg>
