<!-- Generated by IcoMoon.io -->
<svg version="1.1" xmlns="http://www.w3.org/2000/svg" width="32" height="32" viewBox="0 0 32 32">
<title>sending_policy</title>
<path d="M26.373 26.86c-0.127 0-0.256-0.047-0.356-0.141-0.209-0.196-0.221-0.527-0.024-0.737l2.764-2.955c0.197-0.209 0.527-0.22 0.737-0.024 0.209 0.196 0.221 0.527 0.024 0.737l-2.764 2.955c-0.104 0.109-0.243 0.165-0.381 0.165z"></path>
<path d="M26.373 26.86c-0.139 0-0.279-0.056-0.38-0.165l-1.284-1.373c-0.197-0.209-0.185-0.541 0.024-0.737 0.209-0.197 0.541-0.185 0.737 0.024l1.284 1.373c0.197 0.209 0.185 0.541-0.024 0.737-0.101 0.095-0.229 0.141-0.357 0.141z"></path>
<path d="M22.079 22.601c-0.133 0-0.267-0.051-0.369-0.153-0.204-0.204-0.204-0.535 0-0.737l1.573-1.573c0.204-0.204 0.535-0.204 0.737 0s0.204 0.535 0 0.737l-1.573 1.573c-0.101 0.103-0.235 0.153-0.368 0.153z"></path>
<path d="M23.403 22.351c-0.133 0-0.267-0.051-0.368-0.153l-1.324-1.323c-0.205-0.204-0.205-0.533-0.001-0.737 0.204-0.207 0.536-0.205 0.737-0.001l1.324 1.323c0.205 0.204 0.205 0.533 0.001 0.737-0.101 0.104-0.236 0.155-0.369 0.155z"></path>
<path d="M22.797 24.557c-1.841 0-3.339-1.497-3.339-3.339 0-1.84 1.497-3.337 3.339-3.337 1.74 0 3.203 1.359 3.328 3.092 0.020 0.288-0.196 0.537-0.483 0.559-0.275 0.003-0.537-0.196-0.559-0.483-0.085-1.192-1.091-2.125-2.288-2.125-1.265 0-2.296 1.029-2.296 2.295s1.029 2.296 2.296 2.296c0.155 0 0.308-0.015 0.455-0.044 0.287-0.057 0.557 0.127 0.613 0.409s-0.127 0.557-0.409 0.613c-0.212 0.041-0.433 0.064-0.657 0.064z"></path>
<path d="M27.212 29.031c-2.443 0-4.432-1.989-4.432-4.432s1.989-4.431 4.432-4.431 4.431 1.988 4.431 4.431c0 2.444-1.988 4.432-4.431 4.432zM27.212 21.212c-1.869 0-3.388 1.519-3.388 3.387 0 1.869 1.519 3.388 3.388 3.388 1.868 0 3.387-1.519 3.387-3.388 0.001-1.867-1.519-3.387-3.387-3.387z"></path>
<path d="M18.543 23.072h-8.616v-11.067c0-1.532-1.199-2.601-2.916-2.601v-1.303h12.317c3.059 0 5.455 2.243 5.455 5.107v4.025l-0.676-0.025-0.179-0.651v0.64c-2.936 0-5.295 2.301-5.369 5.239l-0.016 0.636zM11.229 21.768h6.072c0.377-3.193 2.952-5.648 6.177-5.857v-2.703c0-2.133-1.823-3.804-4.152-3.804h-9.091c0.628 0.676 0.993 1.575 0.993 2.601v9.763z"></path>
<path d="M10.579 23.072h-9.569c-0.36 0-0.652-0.292-0.652-0.652v-10.279c0-2.304 1.872-4.040 4.355-4.040h2.299c2.445 0 4.219 1.641 4.219 3.905v10.415c0 0.359-0.291 0.651-0.651 0.651zM1.66 21.768h8.267v-9.763c0-1.532-1.199-2.601-2.916-2.601h-2.299c-1.768 0-3.052 1.152-3.052 2.737v9.627zM8.089 20.652h-4.795c-0.36 0-0.652-0.292-0.652-0.652s0.292-0.652 0.652-0.652h4.795c0.36 0 0.652 0.292 0.652 0.652s-0.292 0.652-0.652 0.652z"></path>
<path d="M24.1 7.444h-8.819c-0.36 0-0.652-0.292-0.652-0.652v-3.172c0-0.36 0.292-0.652 0.652-0.652h8.819c0.36 0 0.652 0.292 0.652 0.652v3.172c0 0.36-0.292 0.652-0.652 0.652zM15.933 6.141h7.515v-1.869h-7.515v1.869z"></path>
<path d="M15.283 14.985c-0.36 0-0.652-0.292-0.652-0.652v-7.717c0-0.36 0.292-0.652 0.652-0.652s0.652 0.292 0.652 0.652v7.717c-0.001 0.36-0.292 0.652-0.652 0.652z"></path>
<path d="M15.333 17.453c-1.040 0-1.885-0.845-1.885-1.885s0.845-1.885 1.885-1.885c1.040 0 1.885 0.847 1.885 1.885s-0.845 1.885-1.885 1.885zM15.333 14.985c-0.321 0-0.583 0.261-0.583 0.583s0.261 0.583 0.583 0.583 0.583-0.261 0.583-0.583c0-0.321-0.261-0.583-0.583-0.583z"></path>
</svg>
