<svg version="1.1" xmlns="http://www.w3.org/2000/svg" width="32" height="32" viewBox="0 0 32 32">
<title>sending_methods</title>
<path d="M19.904 27.511c-0.349 0-0.679-0.136-0.925-0.383l-6.24-6.241c-0.511-0.508-0.511-1.339 0-1.851l10.476-10.476c0.492-0.493 1.356-0.496 1.851 0l6.241 6.24c0.511 0.511 0.511 1.34 0 1.851l-10.476 10.476c-0.248 0.247-0.576 0.384-0.927 0.384zM24.168 9.457l-10.532 10.476 6.268 6.308c0.017 0 0.027-0.009 0.028-0.011l10.476-10.476-6.24-6.297z"></path>
<path d="M12.995 20.532c-0.291 0-0.552-0.2-0.619-0.495-0.077-0.343 0.137-0.681 0.479-0.759l8.664-1.963 1.936-8.639c0.079-0.341 0.415-0.557 0.759-0.48 0.343 0.076 0.556 0.416 0.481 0.757l-2.024 9.031c-0.055 0.239-0.24 0.427-0.48 0.48l-9.056 2.051c-0.047 0.011-0.093 0.016-0.14 0.016z"></path>
<path d="M6.637 28.871c-0.163 0-0.325-0.061-0.449-0.185-0.248-0.248-0.248-0.649 0-0.897l5.273-5.273c0.248-0.248 0.649-0.248 0.897 0s0.248 0.649 0 0.897l-5.273 5.273c-0.123 0.124-0.285 0.185-0.448 0.185z"></path>
<path d="M10.591 29.352c-0.163 0-0.325-0.061-0.449-0.185-0.248-0.248-0.248-0.649 0-0.897l3.537-3.537c0.248-0.248 0.649-0.248 0.897 0s0.248 0.649 0 0.897l-3.537 3.537c-0.124 0.124-0.287 0.185-0.448 0.185z"></path>
<path d="M14.575 29.8c-0.163 0-0.325-0.061-0.449-0.185-0.248-0.248-0.248-0.649 0-0.897l1.769-1.768c0.248-0.248 0.651-0.248 0.899 0s0.247 0.649-0.001 0.897l-1.768 1.768c-0.124 0.123-0.287 0.185-0.449 0.185z"></path>
<path d="M4.912 19.591c-0.913 0-1.717-0.657-1.913-1.563l-2.643-12.233c-0.109-0.511-0.019-1.035 0.259-1.476 0.281-0.447 0.715-0.753 1.224-0.863l5.623-1.215c1.025-0.221 2.091 0.48 2.316 1.52l2.641 12.232c0.111 0.511 0.019 1.036-0.259 1.477-0.28 0.447-0.715 0.752-1.224 0.863l-5.621 1.213c-0.133 0.029-0.268 0.044-0.403 0.044zM7.863 3.468c-0.044 0-0.089 0.004-0.135 0.015l-5.621 1.213c-0.172 0.037-0.32 0.143-0.416 0.297-0.1 0.159-0.133 0.349-0.093 0.535l2.641 12.232c0.080 0.371 0.44 0.625 0.808 0.547l5.621-1.213c0.172-0.037 0.32-0.143 0.416-0.297 0.1-0.159 0.133-0.348 0.093-0.535l-2.641-12.232c-0.071-0.325-0.353-0.561-0.673-0.561z"></path>
<path d="M7.663 17.217c-0.479 0-0.901-0.343-1.004-0.816-0.12-0.557 0.231-1.107 0.783-1.227 0.040-0.009 0.176-0.023 0.217-0.023 0.48 0 0.903 0.344 1.004 0.817 0.12 0.556-0.231 1.107-0.783 1.225-0.041 0.008-0.177 0.023-0.217 0.023z"></path>
<path d="M13.14 12.331c-0.131 0-0.263-0.040-0.376-0.124-0.281-0.208-0.341-0.605-0.133-0.888 0.511-0.695 0.697-1.52 0.524-2.324s-0.684-1.48-1.436-1.9c-0.307-0.172-0.415-0.559-0.244-0.864 0.171-0.307 0.557-0.415 0.864-0.244 1.059 0.593 1.809 1.592 2.057 2.74 0.252 1.165-0.012 2.353-0.743 3.345-0.125 0.169-0.319 0.259-0.513 0.259z"></path>
<path d="M15.013 13.233c-0.117 0-0.237-0.033-0.343-0.101-0.295-0.189-0.38-0.583-0.191-0.877 1.436-2.232 0.767-5.336-1.464-6.776-0.293-0.191-0.379-0.583-0.188-0.877s0.583-0.379 0.877-0.188c2.855 1.845 3.681 5.671 1.841 8.529-0.12 0.188-0.324 0.291-0.533 0.291z"></path>
<path d="M1.245 7.545c-0.292 0-0.555-0.203-0.62-0.501-0.073-0.343 0.144-0.68 0.487-0.755l8.179-1.767c0.344-0.072 0.681 0.144 0.756 0.488 0.073 0.343-0.144 0.68-0.487 0.753l-8.18 1.767c-0.045 0.009-0.089 0.015-0.135 0.015z"></path>
<path d="M2.987 15.628c-0.292 0-0.555-0.203-0.62-0.501-0.073-0.343 0.144-0.68 0.487-0.753l8.179-1.767c0.343-0.075 0.68 0.144 0.755 0.487 0.073 0.343-0.144 0.68-0.487 0.755l-8.179 1.765c-0.045 0.009-0.089 0.015-0.135 0.015z"></path>
</svg>
