<svg version="1.1" xmlns="http://www.w3.org/2000/svg" width="32" height="32" viewBox="0 0 32 32">
<title>send_post_paper_plane</title>
<path d="M25.401 26.357c-0.069 0-0.225-0.023-0.29-0.044l-24.234-7.566c-0.378-0.121-0.643-0.452-0.678-0.844-0.032-0.406 0.178-0.779 0.533-0.956l29.755-15.216c0.314-0.165 0.747-0.13 1.043 0.1 0.298 0.238 0.432 0.626 0.348 0.992l-5.529 22.791c-0.061 0.257-0.231 0.482-0.464 0.616-0.153 0.085-0.318 0.128-0.483 0.128zM2.115 17.736l23.027 7.19 5.253-21.651-28.279 14.461z"></path>
<path d="M13.967 31.731c-0.13 0-0.258-0.038-0.367-0.107-0.212-0.113-0.447-0.345-0.425-0.833l-0.003-8.797c0-0.369 0.298-0.667 0.667-0.667v0c0.368 0 0.667 0.298 0.667 0.667l0.003 7.332 4.161-5.895c0.211-0.303 0.63-0.374 0.928-0.16 0.301 0.212 0.372 0.628 0.16 0.928l-5.012 7.102c-0.237 0.371-0.591 0.43-0.78 0.43z"></path>
<path d="M13.84 22.66c-0.159 0-0.318-0.056-0.445-0.171-0.275-0.245-0.297-0.667-0.052-0.941l10.902-12.162c0.247-0.275 0.668-0.296 0.941-0.052 0.273 0.246 0.297 0.667 0.051 0.941l-10.9 12.163c-0.132 0.147-0.314 0.221-0.497 0.221z"></path>
</svg>
