<svg version="1.1" xmlns="http://www.w3.org/2000/svg" width="32" height="32" viewBox="0 0 32 32">
<title>sending_policies</title>
<path d="M12.859 13.105c0.491 0.432 1.119 0.648 1.748 0.648s1.257-0.216 1.748-0.648l9.64-8.5c0.276-0.244 0.303-0.665 0.059-0.941-0.243-0.277-0.663-0.304-0.941-0.059l-9.639 8.5c-0.477 0.42-1.255 0.42-1.732 0l-9.64-8.5c-0.273-0.243-0.696-0.216-0.94 0.060s-0.217 0.697 0.059 0.94l9.639 8.5z"></path>
<path d="M10.635 13.064c-0.235-0.285-0.653-0.328-0.939-0.096l-6.457 5.267c-0.285 0.233-0.328 0.653-0.096 0.939 0.132 0.161 0.324 0.245 0.517 0.245 0.148 0 0.297-0.049 0.42-0.149l6.457-5.268c0.287-0.232 0.329-0.652 0.097-0.937z"></path>
<path d="M29.391 15.339v-11.316c0-1.873-1.581-3.399-3.524-3.399h-22.26c-1.971 0-3.515 1.493-3.515 3.399v14.813c0 1.904 1.544 3.395 3.515 3.395h9.153c0.232 5.081 4.425 9.145 9.563 9.145 5.285 0 9.585-4.3 9.585-9.584 0.001-2.487-0.959-4.748-2.517-6.453zM1.424 18.836v-14.813c0-1.159 0.959-2.065 2.181-2.065h22.261c1.228 0 2.191 0.907 2.191 2.065v10.105c-1.601-1.201-3.583-1.923-5.735-1.923-4.983 0-9.087 3.824-9.539 8.692h-9.177c-1.224 0-2.183-0.905-2.183-2.061zM22.323 30.043c-4.549 0-8.251-3.701-8.251-8.251 0-4.551 3.701-8.252 8.251-8.252 4.551 0 8.252 3.701 8.252 8.252 0.001 4.549-3.701 8.251-8.252 8.251z"></path>
<path d="M22.584 22.771c0.113 0 0.228-0.028 0.331-0.087l2.759-1.577c0.32-0.184 0.431-0.591 0.249-0.911-0.185-0.32-0.595-0.428-0.911-0.249l-2.319 1.325-4.177-4.151c-0.261-0.259-0.684-0.259-0.943 0.003s-0.257 0.684 0.003 0.943l4.537 4.509c0.131 0.128 0.3 0.195 0.471 0.195z"></path>
<path d="M30.144 21.668c0 0.724-0.587 1.311-1.311 1.311s-1.311-0.587-1.311-1.311c0-0.724 0.587-1.311 1.311-1.311s1.311 0.587 1.311 1.311z"></path>
<path d="M17.121 21.669c0 0.723-0.586 1.309-1.309 1.309s-1.309-0.586-1.309-1.309c0-0.723 0.586-1.309 1.309-1.309s1.309 0.586 1.309 1.309z"></path>
<path d="M23.627 15.188c0 0.724-0.587 1.311-1.311 1.311s-1.311-0.587-1.311-1.311c0-0.724 0.587-1.311 1.311-1.311s1.311 0.587 1.311 1.311z"></path>
<path d="M23.627 28.197c0 0.724-0.587 1.311-1.311 1.311s-1.311-0.587-1.311-1.311c0-0.724 0.587-1.311 1.311-1.311s1.311 0.587 1.311 1.311z"></path>
<path d="M19.025 16.741c0.173 0 0.347-0.067 0.467-0.2 0.12-0.12 0.2-0.293 0.2-0.467s-0.067-0.347-0.2-0.48c-0.252-0.24-0.68-0.24-0.947 0.013-0.12 0.12-0.187 0.293-0.187 0.467s0.067 0.347 0.187 0.467c0.133 0.135 0.307 0.2 0.48 0.2z"></path>
<path d="M18.544 26.848c-0.12 0.12-0.187 0.293-0.187 0.467 0 0.175 0.067 0.333 0.2 0.48 0.12 0.12 0.293 0.187 0.467 0.187s0.347-0.067 0.467-0.199c0.135-0.12 0.2-0.293 0.2-0.468 0-0.173-0.081-0.347-0.2-0.467-0.24-0.253-0.68-0.267-0.947 0z"></path>
<path d="M25.079 15.569c-0.135 0.12-0.2 0.293-0.2 0.467 0 0.187 0.067 0.347 0.2 0.467 0.12 0.133 0.293 0.2 0.467 0.2s0.348-0.067 0.48-0.2c0.12-0.12 0.187-0.293 0.187-0.467s-0.067-0.333-0.187-0.467c-0.255-0.253-0.708-0.241-0.947 0z"></path>
<path d="M25.079 26.876c-0.135 0.133-0.2 0.305-0.2 0.479s0.067 0.333 0.2 0.468c0.133 0.133 0.305 0.199 0.467 0.199 0.173 0 0.348-0.080 0.468-0.199 0.133-0.121 0.199-0.295 0.199-0.468 0-0.187-0.067-0.36-0.187-0.467-0.24-0.253-0.695-0.265-0.947-0.012z"></path>
<path d="M27.944 19.088c0.175 0 0.348-0.080 0.48-0.199 0.12-0.135 0.2-0.307 0.2-0.48 0-0.16-0.081-0.333-0.2-0.467-0.252-0.241-0.693-0.253-0.947 0-0.12 0.133-0.187 0.293-0.187 0.467s0.067 0.347 0.199 0.48c0.121 0.12 0.296 0.199 0.455 0.199z"></path>
<path d="M27.477 24.515c-0.12 0.12-0.187 0.293-0.187 0.467 0 0.175 0.067 0.348 0.199 0.48 0.12 0.12 0.295 0.187 0.453 0.187 0.175 0 0.348-0.067 0.48-0.199 0.12-0.12 0.2-0.293 0.2-0.468 0-0.173-0.081-0.347-0.2-0.467-0.251-0.253-0.691-0.253-0.945 0z"></path>
<path d="M16.171 17.996c-0.12 0.133-0.187 0.305-0.187 0.479s0.067 0.348 0.2 0.48c0.12 0.12 0.293 0.187 0.453 0.187 0.173 0 0.347-0.067 0.48-0.199 0.12-0.135 0.187-0.295 0.187-0.468s-0.067-0.347-0.2-0.479c-0.24-0.241-0.665-0.241-0.933 0z"></path>
<path d="M16.171 24.449c-0.12 0.133-0.2 0.305-0.2 0.479 0 0.175 0.067 0.333 0.2 0.48 0.133 0.12 0.293 0.187 0.467 0.187s0.347-0.080 0.48-0.199c0.12-0.135 0.187-0.293 0.187-0.468 0-0.187-0.067-0.36-0.187-0.467-0.253-0.267-0.705-0.252-0.947-0.012z"></path>
</svg>
