<!-- Generated by IcoMoon.io -->
<svg version="1.1" xmlns="http://www.w3.org/2000/svg" width="32" height="32" viewBox="0 0 32 32">
<title>send_http_token</title>
<path d="M24.459 5.969v0c0-0.556-0.278-0.831-0.516-1.066l-4.462-4.397c-0.325-0.322-0.753-0.497-1.212-0.5h-16.581c-0.953 0-1.731 0.778-1.731 1.731v28.462c0 0.953 0.775 1.731 1.731 1.731h21.041c0.953 0 1.731-0.778 1.731-1.731v-1.481c0-0.369-0.297-0.666-0.666-0.666s-0.669 0.3-0.669 0.666v1.478c0 0.219-0.178 0.397-0.397 0.397h-21.041c-0.219 0-0.397-0.178-0.397-0.397v-28.459c0-0.219 0.178-0.397 0.397-0.397h15.912l0.003 4.628c0 0.369 0.297 0.666 0.666 0.666h4.856v6.703c0 0.369 0.297 0.666 0.666 0.666s0.666-0.297 0.666-0.666v-7.369c0.003 0 0.003 0 0.003 0v0zM18.934 1.837l3.512 3.462h-3.509l-0.003-3.462z"></path>
<path d="M30.478 24.75c0.016-0.022 0.025-0.044 0.038-0.066 0.6-1.091 0.944-2.344 0.944-3.675 0-1.087-0.228-2.125-0.641-3.066-0.006-0.022-0.016-0.041-0.025-0.059-1.184-2.637-3.819-4.488-6.881-4.528-0.022 0-0.041 0-0.066 0-0.003 0-0.006 0-0.006 0-0.012 0-0.022 0-0.031 0-0.006 0-0.012 0-0.019 0h-0.003c-0.009 0-0.019 0-0.025 0-3.087 0.019-5.747 1.875-6.938 4.528-0.012 0.019-0.022 0.038-0.025 0.059-0.413 0.941-0.641 1.975-0.641 3.066 0 0.081 0 0.163 0.003 0.244-0.003 0.016-0.003 0.031-0.003 0.050 0 0.025 0.003 0.050 0.009 0.075 0.056 1.191 0.387 2.316 0.931 3.303 0.012 0.025 0.022 0.050 0.041 0.072 1.306 2.319 3.784 3.891 6.625 3.909 0.009 0 0.019 0 0.025 0v0c0 0 0 0 0.003 0 0.006 0 0.012 0 0.022 0v0c0.012 0 0.022 0 0.034 0h0.003c0.019 0 0.034 0 0.053 0 2.813-0.031 5.275-1.603 6.572-3.913zM30.019 24.238h-2.544c0.191-0.8 0.309-1.675 0.347-2.606h2.959c-0.087 0.931-0.353 1.813-0.762 2.606zM24.131 27.981v-3.094h2.472c-0.556 1.709-1.456 2.906-2.472 3.094zM24.131 24.238v-2.606h3.034c-0.041 0.928-0.172 1.809-0.375 2.606h-2.659zM20.462 21.631h3.019v2.606h-2.644c-0.203-0.797-0.334-1.678-0.375-2.606zM20.447 20.981c0.003-0.916 0.094-1.794 0.253-2.606h2.778v2.606h-3.031zM26.775 17.722h-2.644v-3.688c1.128 0.216 2.119 1.669 2.644 3.688zM26.928 18.375c0.163 0.809 0.253 1.691 0.253 2.606h-3.050v-2.606h2.797zM30.806 20.981h-2.975c-0.003-0.919-0.084-1.794-0.234-2.606h2.691c0.331 0.803 0.512 1.681 0.519 2.606zM29.984 17.722h-2.525c-0.353-1.462-0.941-2.659-1.672-3.428 1.809 0.537 3.319 1.787 4.197 3.428zM23.481 14.041v3.681h-2.628c0.522-2.006 1.506-3.459 2.628-3.681zM21.847 14.287c-0.734 0.769-1.325 1.969-1.681 3.434h-2.541c0.881-1.647 2.4-2.903 4.222-3.434zM17.322 18.375h2.709c-0.153 0.809-0.234 1.688-0.234 2.606h-2.991c0.003-0.925 0.184-1.803 0.516-2.606zM19.806 21.631c0.038 0.928 0.156 1.806 0.347 2.606h-2.563c-0.416-0.791-0.681-1.672-0.762-2.606h2.978zM17.981 24.887h2.35c0.363 1.2 0.887 2.184 1.522 2.847-1.603-0.466-2.969-1.491-3.872-2.847zM21.025 24.887h2.456v3.094c-1.012-0.203-1.903-1.394-2.456-3.094zM25.784 27.725c0.634-0.663 1.156-1.644 1.516-2.837h2.331c-0.9 1.35-2.256 2.369-3.847 2.837z"></path>
<path d="M12.213 19.603h-0.628v-1.762c0-1.134-1.019-2.091-2.225-2.091s-2.225 0.956-2.225 2.091v1.762h-0.628c-0.647 0-1.172 0.519-1.169 1.175l0.419 4.341c0 0.637 0.525 1.156 1.172 1.156h4.866c0.647 0 1.172-0.522 1.172-1.144l0.422-4.378c-0.003-0.644-0.516-1.15-1.175-1.15v0zM10.078 24.3c-0.012 0.113-0.109 0.197-0.222 0.197h-0.994c-0.113 0-0.206-0.084-0.222-0.197l-0.188-1.538c0-0.516 0.403-0.913 0.903-0.913s0.906 0.397 0.906 0.881l-0.184 1.569zM11.141 19.603h-3.559v-1.762c0-0.894 0.816-1.647 1.778-1.647s1.778 0.753 1.778 1.647l0.003 1.762z"></path>
<path d="M5.919 10.794h-2.2v1.941h-1.009v-4.819h1.009v1.906h2.203v-1.906h1.006v4.819h-1.006v-1.941z"></path>
<path d="M8.334 8.887h-1.169v-0.972h3.344v0.972h-1.169v3.847h-1.003v-3.847z"></path>
<path d="M12.353 8.887h-1.169v-0.972h3.344v0.972h-1.169v3.847h-1.006v-3.847z"></path>
<path d="M15.256 7.916h1.644c0.944 0 1.587 0.572 1.587 1.522 0 0.953-0.647 1.531-1.587 1.531h-0.637v1.762h-1.006v-4.816zM16.887 8.887h-0.622v1.113h0.622c0.325 0 0.566-0.181 0.566-0.553-0.003-0.378-0.241-0.559-0.566-0.559z"></path>
<path d="M21.653 9.15c-0.244-0.175-0.659-0.341-1.022-0.341-0.397 0-0.584 0.181-0.584 0.425 0 0.153 0.125 0.3 0.353 0.431l0.625 0.375c0.613 0.369 0.853 0.778 0.853 1.306 0 0.744-0.494 1.419-1.591 1.419-0.466 0-0.897-0.119-1.194-0.244v-1.091c0.256 0.2 0.716 0.409 1.153 0.409 0.375 0 0.584-0.181 0.584-0.438 0-0.159-0.113-0.306-0.375-0.459l-0.647-0.381c-0.625-0.363-0.819-0.766-0.819-1.3 0-0.659 0.425-1.375 1.647-1.375 0.353 0 0.722 0.084 1.016 0.216v1.047z"></path>
</svg>
