<!-- Generated by IcoMoon.io -->
<svg version="1.1" xmlns="http://www.w3.org/2000/svg" width="32" height="32" viewBox="0 0 32 32">
<title>service_now</title>
<path d="M16.094 1.688c-8.769-0.050-16.019 7.125-16.094 15.925-0.037 4.659 1.9 8.866 5.025 11.822 1.138 1.075 2.894 1.178 4.125 0.219 1.822-1.422 4.159-2.269 6.847-2.269s5.028 0.847 6.847 2.269c1.244 0.969 3.006 0.847 4.15-0.241 3.078-2.928 5.003-7.072 5.003-11.663 0.003-8.841-7.113-16.009-15.903-16.063zM16 25.778c-4.75 0-8-3.575-8-8s3.25-8.059 8-8.059c4.75 0 8 3.634 8 8.059s-3.25 8-8 8z"></path>
</svg>
