<svg version="1.1" xmlns="http://www.w3.org/2000/svg" width="32" height="32" viewBox="0 0 32 32">
<title>server_hosting</title>
<path d="M14 32h-13.333c-0.369 0-0.667-0.298-0.667-0.667v-30.667c0-0.369 0.298-0.667 0.667-0.667h13.333c0.369 0 0.667 0.298 0.667 0.667v30.667c0 0.369-0.298 0.667-0.667 0.667zM1.333 30.667h12v-29.333h-12v29.333z"></path>
<path d="M10.667 5.333h-6.667c-0.369 0-0.667-0.298-0.667-0.667s0.298-0.667 0.667-0.667h6.667c0.369 0 0.667 0.298 0.667 0.667s-0.298 0.667-0.667 0.667z"></path>
<path d="M10.667 8h-6.667c-0.369 0-0.667-0.298-0.667-0.667s0.298-0.667 0.667-0.667h6.667c0.369 0 0.667 0.298 0.667 0.667s-0.298 0.667-0.667 0.667z"></path>
<path d="M10.667 10.667h-6.667c-0.369 0-0.667-0.298-0.667-0.667s0.298-0.667 0.667-0.667h6.667c0.369 0 0.667 0.298 0.667 0.667s-0.298 0.667-0.667 0.667z"></path>
<path d="M10.667 13.333h-6.667c-0.369 0-0.667-0.298-0.667-0.667s0.298-0.667 0.667-0.667h6.667c0.369 0 0.667 0.298 0.667 0.667s-0.298 0.667-0.667 0.667z"></path>
<path d="M10.667 20h-6.667c-0.369 0-0.667-0.298-0.667-0.667s0.298-0.667 0.667-0.667h6.667c0.369 0 0.667 0.298 0.667 0.667s-0.298 0.667-0.667 0.667z"></path>
<path d="M10.667 22.667h-6.667c-0.369 0-0.667-0.298-0.667-0.667s0.298-0.667 0.667-0.667h6.667c0.369 0 0.667 0.298 0.667 0.667s-0.298 0.667-0.667 0.667z"></path>
<path d="M10.667 25.333h-6.667c-0.369 0-0.667-0.298-0.667-0.667s0.298-0.667 0.667-0.667h6.667c0.369 0 0.667 0.298 0.667 0.667s-0.298 0.667-0.667 0.667z"></path>
<path d="M10.667 28h-6.667c-0.369 0-0.667-0.298-0.667-0.667s0.298-0.667 0.667-0.667h6.667c0.369 0 0.667 0.298 0.667 0.667s-0.298 0.667-0.667 0.667z"></path>
<path d="M31.335 32h-13.333c-0.369 0-0.667-0.298-0.667-0.667v-30.667c0-0.369 0.298-0.667 0.667-0.667h13.333c0.369 0 0.667 0.298 0.667 0.667v30.667c0 0.369-0.298 0.667-0.667 0.667zM18.668 30.667h12v-29.333h-12v29.333z"></path>
<path d="M28.001 5.333h-6.667c-0.369 0-0.667-0.298-0.667-0.667s0.298-0.667 0.667-0.667h6.667c0.369 0 0.667 0.298 0.667 0.667s-0.298 0.667-0.667 0.667z"></path>
<path d="M28.001 8h-6.667c-0.369 0-0.667-0.298-0.667-0.667s0.298-0.667 0.667-0.667h6.667c0.369 0 0.667 0.298 0.667 0.667s-0.298 0.667-0.667 0.667z"></path>
<path d="M28.001 10.667h-6.667c-0.369 0-0.667-0.298-0.667-0.667s0.298-0.667 0.667-0.667h6.667c0.369 0 0.667 0.298 0.667 0.667s-0.298 0.667-0.667 0.667z"></path>
<path d="M28.001 13.333h-6.667c-0.369 0-0.667-0.298-0.667-0.667s0.298-0.667 0.667-0.667h6.667c0.369 0 0.667 0.298 0.667 0.667s-0.298 0.667-0.667 0.667z"></path>
<path d="M28.001 20h-6.667c-0.369 0-0.667-0.298-0.667-0.667s0.298-0.667 0.667-0.667h6.667c0.369 0 0.667 0.298 0.667 0.667s-0.298 0.667-0.667 0.667z"></path>
<path d="M28.001 22.667h-6.667c-0.369 0-0.667-0.298-0.667-0.667s0.298-0.667 0.667-0.667h6.667c0.369 0 0.667 0.298 0.667 0.667s-0.298 0.667-0.667 0.667z"></path>
<path d="M28.001 25.333h-6.667c-0.369 0-0.667-0.298-0.667-0.667s0.298-0.667 0.667-0.667h6.667c0.369 0 0.667 0.298 0.667 0.667s-0.298 0.667-0.667 0.667z"></path>
<path d="M28.001 28h-6.667c-0.369 0-0.667-0.298-0.667-0.667s0.298-0.667 0.667-0.667h6.667c0.369 0 0.667 0.298 0.667 0.667s-0.298 0.667-0.667 0.667z"></path>
<path d="M7.333 16.667c-0.174 0-0.333-0.066-0.467-0.187-0.133-0.146-0.2-0.306-0.2-0.479s0.066-0.333 0.186-0.467c0.267-0.267 0.707-0.253 0.96 0 0.12 0.12 0.187 0.293 0.187 0.467s-0.067 0.346-0.201 0.466c-0.12 0.134-0.293 0.201-0.466 0.201z"></path>
<path d="M24.667 16.667c-0.173 0-0.346-0.066-0.467-0.187-0.133-0.133-0.199-0.306-0.199-0.479s0.079-0.347 0.199-0.467c0.241-0.253 0.694-0.253 0.934 0 0.134 0.12 0.201 0.293 0.201 0.467s-0.066 0.346-0.187 0.466c-0.133 0.134-0.306 0.201-0.479 0.201z"></path>
</svg>
