<!-- Generated by IcoMoon.io -->
<svg version="1.1" xmlns="http://www.w3.org/2000/svg" width="32" height="32" viewBox="0 0 32 32">
<title>settings_tools_configuration_preferences</title>
<path d="M23 16.8c2.8 0.8 5.4 0.3 7-1.4 2.1-2 2.4-5.6 1.5-7.5l-0.3-0.6h-1.1l-3.5 3.5c-0.3 0.3-0.7 0.3-1 0l-1.4-1.4c-0.1-0.1-0.2-0.3-0.2-0.5s0.1-0.4 0.2-0.5l3.5-3.5v-1.1l-0.6-0.3c-2.5-1.1-5.6-0.5-7.5 1.5-1.7 1.7-2.2 4.3-1.4 7.1 0 0.1 0 0.1 0 0.2 0 0.2-0.1 0.4-0.2 0.5l-1.2 1.1-1.4-1.4c-0.4-0.3-0.9-0.5-1.4-0.5 0 0 0-0.1-0.1-0.1-2-2-2-2.3-2-2.7 0-1 0.3-1.6 0.9-2.1 0.4-0.3 1.2-0.6 1.8-0.7 0 0 0 0 0 0 0.3 0 0.6 0 0.9 0.1 0.2 0 0.3 0.1 0.4 0.1 0.4 0.2 0.9 0 1.2-0.3 0.3-0.4 0.3-0.9 0-1.2-0.2-0.3-0.5-0.6-0.8-0.9-0.3-0.4-1.7-1.2-3.4-1.2-1 0-2 0.2-2.9 0.6-2.4 1-4 2.3-4.7 3-0.5 0.4-0.9 0.9-1.3 1.5-0.3 0.4-0.4 0.9-0.3 1.2-0.5-0.2-1.1-0.1-1.5 0.3l-1.8 1.7c0 0-0.1 0.1-0.1 0.1-0.2 0.2-0.3 0.6-0.3 0.9s0.1 0.7 0.4 0.9l3 2.9c0.2 0.2 0.6 0.4 0.9 0.4s0.7-0.1 0.9-0.4l1.8-1.8c0.3-0.2 0.4-0.6 0.4-0.9s-0.1-0.6-0.4-0.9c0.1 0 0.2 0 0.3 0s0.3 0 0.7 0.3c0.4 0.2 1.2 0.8 2.6 2.2 0 0 0 0 0 0.1 0 0.6 0.2 1.1 0.6 1.5l1.2 1.2-5.4 5c-0.6 0.7-1 1.6-1 2.7 0 2 1.6 3.5 3.5 3.5 1 0 2-0.4 2.6-1.2l5-5.4c2.3 2.4 4.6 4.9 5.5 5.9 0.4 0.4 0.9 0.6 1.4 0.6s1-0.2 1.3-0.5l2.1-2.1c0.3-0.3 0.5-0.8 0.5-1.3 0-0.6-0.2-1.1-0.7-1.4-1.1-0.9-3.8-3.3-6.1-5.5l1.1-1.2c0.3-0.1 0.5-0.2 0.8-0.1zM7.6 10.5c-0.1 0-0.2 0-0.3 0-0.5 0-1 0.1-1.5 0.4 0 0 0 0 0 0-0.1 0.1-0.2 0.1-0.3 0.3-0.3 0.4-0.5 0.8-0.5 1.3 0 0.3 0.1 0.6 0.2 0.9l-0.9 0.9-2-1.9 0.9-0.9c0.2 0.1 0.4 0.1 0.5 0.1 0 0 0.2 0 0.2 0s0 0 0 0c0.5-0.1 0.9-0.2 1.2-0.5 0.5-0.5 0.5-1.2 0.5-1.5 0-0.1 0-0.1 0-0.2 0.4-0.6 0.7-1 1.1-1.4 0.5-0.5 1.9-1.7 4.1-2.6 0.5-0.2 1.1-0.4 1.7-0.4-0.3 0.2-0.6 0.3-0.9 0.5-1.1 0.8-1.6 2-1.7 3.5-0.1 1.3 0.4 2.1 2.1 3.8l-0.3 0.3c-1.3-1.2-2.1-1.8-2.6-2.1-0.6-0.4-1.2-0.5-1.5-0.5zM12.8 15.1c0 0 0 0 0-0.1 0 0 0 0 0 0l1-1c0 0 0.1 0 0.1 0l1.4 1.3-1.2 1.1-1.3-1.3zM10.7 26.5c-0.3 0.3-0.7 0.5-1.2 0.5-0.8 0-1.5-0.7-1.5-1.5 0-0.4 0.2-0.9 0.5-1.2l8.9-8.3c0 0 0 0 0 0s0 0 0 0l1.9-1.7c0.5-0.5 0.9-1.2 0.9-2 0-0.3 0-0.5-0.1-0.7-0.3-1-0.8-3.5 0.9-5.1 0.9-1 2.2-1.5 3.5-1.5 0.1 0 0.2 0 0.3 0l-2 2c-0.5 0.5-0.8 1.2-0.8 1.9s0.3 1.4 0.8 1.9l1.4 1.4c1 1 2.8 1 3.8 0l2-2c0 1.3-0.4 2.8-1.4 3.8-1.6 1.6-4.1 1.1-5.1 0.9-1-0.3-2 0-2.7 0.8l-10.1 10.8zM25.9 25.1l-1.9 1.9c-1-1.1-3.3-3.6-5.5-5.9l1.3-1.4c2.3 2 4.9 4.4 6.1 5.4z"></path>
</svg>
