<svg version="1.1" xmlns="http://www.w3.org/2000/svg" width="32" height="32" viewBox="0 0 32 32">
<title>settings_tools_pipe</title>
<path d="M23.333 4h-14.667c-0.369 0-0.667-0.298-0.667-0.667v-1.108c0-0.213 0.102-0.413 0.273-0.538l2.132-1.559c0.114-0.083 0.252-0.128 0.393-0.128h10.403c0.142 0 0.28 0.045 0.393 0.128l2.131 1.559c0.172 0.126 0.274 0.326 0.274 0.538v1.108c0 0.369-0.298 0.667-0.667 0.667zM9.333 2.667h13.333v-0.103l-1.682-1.231h-9.968l-1.683 1.231v0.103z"></path>
<path d="M21.202 13.333h-10.403c-0.148 0-0.292-0.049-0.409-0.14l-2.132-1.654c-0.163-0.126-0.258-0.32-0.258-0.527v-1.013c0-0.369 0.298-0.667 0.667-0.667h14.667c0.369 0 0.667 0.298 0.667 0.667v1.013c0 0.206-0.095 0.4-0.258 0.527l-2.131 1.654c-0.117 0.091-0.26 0.14-0.409 0.14zM11.027 12h9.947l1.693-1.333-13.333 0.019 1.694 1.314z"></path>
<path d="M18 32h-4c-0.369 0-0.667-0.298-0.667-0.667v-14.667c0-0.369 0.298-0.667 0.667-0.667h4c0.369 0 0.667 0.298 0.667 0.667v14.667c0 0.369-0.298 0.667-0.667 0.667zM14.667 30.667h2.667v-13.333h-2.667v13.333z"></path>
<path d="M16 10.667c-0.369 0-0.667-0.298-0.667-0.667v-6.667c0-0.369 0.298-0.667 0.667-0.667s0.667 0.298 0.667 0.667v6.667c0 0.369-0.298 0.667-0.667 0.667z"></path>
<path d="M16 17.333c-0.369 0-0.667-0.298-0.667-0.667v-4c0-0.369 0.298-0.667 0.667-0.667s0.667 0.298 0.667 0.667v4c0 0.369-0.298 0.667-0.667 0.667z"></path>
<path d="M18.185 8.306h-4.369c-0.369 0-0.667-0.298-0.667-0.667s0.298-0.667 0.667-0.667h4.369c0.369 0 0.667 0.298 0.667 0.667s-0.298 0.667-0.667 0.667z"></path>
<path d="M18.185 6.312h-4.369c-0.369 0-0.667-0.298-0.667-0.667s0.298-0.667 0.667-0.667h4.369c0.369 0 0.667 0.298 0.667 0.667s-0.298 0.667-0.667 0.667z"></path>
</svg>
