<!-- Generated by IcoMoon.io -->
<svg version="1.1" xmlns="http://www.w3.org/2000/svg" width="32" height="32" viewBox="0 0 32 32">
<title>settings_gear_preferences_strong</title>
<path d="M15.995 22.509c-3.594 0-6.508-2.914-6.508-6.508s2.914-6.508 6.508-6.508c3.594 0 6.508 2.913 6.508 6.508v0c-0.004 3.593-2.915 6.505-6.508 6.509v0zM15.995 11.343c0 0 0 0-0.001 0-2.572 0-4.658 2.085-4.658 4.658s2.085 4.658 4.658 4.658c2.572 0 4.658-2.085 4.658-4.658 0 0 0-0.001 0-0.001v0c-0.004-2.57-2.087-4.653-4.657-4.657v0z"></path>
<path d="M15.993 32c-0.776 0-1.539-0.056-2.286-0.164l0.085 0.010c-0.413-0.059-0.735-0.383-0.79-0.792l-0.001-0.005-0.454-3.469c-0.879-0.264-1.639-0.587-2.354-0.98l0.062 0.031-2.778 2.134c-0.155 0.119-0.351 0.192-0.565 0.192v0c-0.001 0-0.002 0-0.003 0-0.209 0-0.401-0.070-0.555-0.188l0.002 0.002c-1.189-0.907-2.217-1.935-3.096-3.085l-0.029-0.039c-0.117-0.154-0.187-0.348-0.187-0.558 0-0.213 0.072-0.409 0.192-0.566l-0.002 0.002 2.135-2.776c-0.363-0.653-0.687-1.413-0.93-2.208l-0.022-0.085-3.471-0.454c-0.414-0.057-0.738-0.38-0.796-0.788l-0.001-0.005c-0.097-0.663-0.152-1.429-0.152-2.208s0.055-1.545 0.162-2.294l-0.010 0.086c0.059-0.412 0.383-0.734 0.791-0.79l0.005-0.001 3.471-0.454c0.265-0.88 0.589-1.641 0.984-2.357l-0.031 0.062-2.133-2.776c-0.119-0.154-0.191-0.351-0.191-0.564 0-0.211 0.070-0.405 0.188-0.56l-0.002 0.002c0.908-1.187 1.936-2.215 3.085-3.094l0.039-0.029c0.152-0.117 0.345-0.187 0.555-0.187 0.001 0 0.002 0 0.003 0v0c0.213 0.001 0.409 0.073 0.566 0.194l-0.002-0.002 2.779 2.136c0.653-0.362 1.412-0.685 2.207-0.927l0.085-0.022 0.454-3.469c0.056-0.414 0.378-0.738 0.785-0.797l0.005-0.001c0.663-0.099 1.429-0.156 2.208-0.156s1.545 0.057 2.293 0.166l-0.085-0.010c0.413 0.059 0.735 0.383 0.791 0.791l0.001 0.005 0.454 3.473c0.878 0.266 1.636 0.589 2.349 0.983l-0.062-0.031 2.777-2.135c0.154-0.119 0.351-0.191 0.564-0.191 0.211 0 0.405 0.071 0.561 0.189l-0.002-0.002c1.19 0.906 2.219 1.935 3.095 3.086l0.029 0.039c0.117 0.154 0.187 0.348 0.187 0.558 0 0.213-0.072 0.409-0.192 0.566l0.002-0.002-2.139 2.776c0.362 0.65 0.685 1.407 0.928 2.198l0.023 0.085 3.469 0.454c0.414 0.055 0.738 0.377 0.796 0.785l0.001 0.005c0.1 0.663 0.157 1.429 0.157 2.208s-0.057 1.545-0.167 2.293l0.010-0.085c-0.059 0.413-0.382 0.735-0.791 0.79l-0.005 0.001-3.471 0.461c-0.264 0.877-0.586 1.634-0.978 2.346l0.031-0.062 2.135 2.778c0.119 0.155 0.19 0.351 0.19 0.564 0 0.21-0.070 0.404-0.188 0.56l0.002-0.002c-0.906 1.19-1.934 2.219-3.085 3.096l-0.039 0.029c-0.153 0.117-0.348 0.188-0.558 0.188-0.213 0-0.41-0.073-0.566-0.194l0.002 0.002-2.776-2.137c-0.652 0.362-1.41 0.685-2.204 0.928l-0.085 0.022-0.454 3.471c-0.057 0.412-0.378 0.735-0.785 0.795l-0.005 0.001c-0.644 0.096-1.391 0.154-2.15 0.159h-0.005zM14.743 30.094c0.429 0.038 0.841 0.057 1.256 0.057v0c0.422 0 0.836-0.019 1.261-0.059l0.44-3.369c0.054-0.381 0.331-0.686 0.694-0.777l0.006-0.001c1.111-0.272 2.088-0.69 2.974-1.241l-0.043 0.025c0.138-0.085 0.305-0.136 0.484-0.136 0.213 0 0.409 0.071 0.566 0.192l-0.002-0.002 2.693 2.071c0.65-0.548 1.233-1.131 1.763-1.759l0.018-0.022-2.070-2.695c-0.12-0.154-0.193-0.35-0.193-0.563 0-0.179 0.051-0.345 0.139-0.487l-0.002 0.004c0.525-0.843 0.943-1.819 1.201-2.859l0.015-0.070c0.089-0.372 0.395-0.652 0.773-0.703l0.005-0.001 3.369-0.44c0.037-0.377 0.058-0.816 0.058-1.259s-0.021-0.882-0.062-1.314l0.004 0.055-3.366-0.44c-0.383-0.050-0.689-0.329-0.779-0.693l-0.001-0.006c-0.272-1.111-0.69-2.089-1.241-2.976l0.025 0.043c-0.084-0.138-0.134-0.304-0.134-0.482 0-0.213 0.071-0.409 0.191-0.566l-0.002 0.002 2.072-2.694c-0.547-0.651-1.13-1.233-1.759-1.763l-0.022-0.018-2.692 2.070c-0.155 0.119-0.352 0.191-0.565 0.192v0c-0.001 0-0.001 0-0.002 0-0.178 0-0.343-0.050-0.484-0.137l0.004 0.002c-0.843-0.526-1.821-0.944-2.861-1.201l-0.070-0.015c-0.369-0.093-0.647-0.397-0.7-0.774l-0.001-0.005-0.44-3.368c-0.431-0.040-0.848-0.058-1.268-0.058s-0.828 0.019-1.249 0.057l-0.44 3.365c-0.053 0.382-0.331 0.687-0.694 0.778l-0.006 0.001c-1.113 0.272-2.092 0.69-2.981 1.241l0.044-0.025c-0.137 0.086-0.304 0.136-0.482 0.136v0c-0.213-0.001-0.41-0.073-0.567-0.194l0.002 0.002-2.693-2.072c-0.65 0.547-1.233 1.129-1.763 1.757l-0.018 0.021 2.069 2.691c0.119 0.155 0.191 0.351 0.191 0.564 0 0.178-0.050 0.345-0.137 0.487l0.002-0.004c-0.528 0.845-0.947 1.825-1.205 2.868l-0.015 0.070c-0.092 0.37-0.397 0.648-0.775 0.7l-0.005 0.001-3.366 0.44c-0.035 0.377-0.055 0.815-0.055 1.258s0.020 0.881 0.059 1.314l-0.004-0.056 3.366 0.44c0.381 0.054 0.686 0.331 0.778 0.694l0.001 0.006c0.272 1.114 0.692 2.094 1.245 2.983l-0.025-0.043c0.085 0.138 0.135 0.304 0.135 0.483 0 0.213-0.072 0.41-0.192 0.567l0.002-0.002-2.069 2.692c0.548 0.649 1.13 1.231 1.758 1.761l0.022 0.018 2.694-2.070c0.155-0.119 0.351-0.19 0.564-0.19 0.178 0 0.344 0.050 0.485 0.136l-0.004-0.002c0.845 0.527 1.824 0.945 2.868 1.202l0.069 0.014c0.372 0.091 0.652 0.397 0.703 0.776l0.001 0.005z"></path>
</svg>
