<svg version="1.1" xmlns="http://www.w3.org/2000/svg" width="32" height="32" viewBox="0 0 32 32">
<title>settings_panel_equalizer_preferences2</title>
<path d="M28.155 32h-24.311c-2.12 0-3.844-1.724-3.844-3.844v-24.312c0-2.12 1.725-3.844 3.844-3.844h24.311c2.12 0 3.845 1.725 3.845 3.844v24.312c0 2.12-1.725 3.844-3.845 3.844zM3.844 1.333c-1.385 0-2.511 1.126-2.511 2.511v24.312c0 1.384 1.126 2.51 2.511 2.51h24.311c1.385 0 2.512-1.126 2.512-2.51v-24.312c0-1.385-1.126-2.511-2.512-2.511h-24.311z"></path>
<path d="M8.662 13.077c-1.885 0-3.419-1.534-3.419-3.419s1.534-3.419 3.419-3.419 3.419 1.534 3.419 3.419-1.534 3.419-3.419 3.419zM8.662 7.572c-1.15 0-2.086 0.936-2.086 2.086s0.936 2.086 2.086 2.086 2.086-0.936 2.086-2.086-0.935-2.086-2.086-2.086z"></path>
<path d="M16.124 24.75c-1.885 0-3.419-1.534-3.419-3.419s1.534-3.419 3.419-3.419 3.419 1.534 3.419 3.419-1.534 3.419-3.419 3.419zM16.124 19.245c-1.15 0-2.086 0.936-2.086 2.086s0.936 2.086 2.086 2.086c1.15 0 2.086-0.936 2.086-2.086s-0.936-2.086-2.086-2.086z"></path>
<path d="M23.306 26.71c-0.369 0-0.667-0.298-0.667-0.667v-10.297c0-0.369 0.298-0.667 0.667-0.667s0.667 0.298 0.667 0.667v10.297c0 0.369-0.298 0.667-0.667 0.667z"></path>
<path d="M23.306 10.907c-0.369 0-0.667-0.298-0.667-0.667v-4.332c0-0.369 0.298-0.667 0.667-0.667s0.667 0.298 0.667 0.667v4.332c0 0.368-0.298 0.667-0.667 0.667z"></path>
<path d="M23.306 16.411c-1.885 0-3.419-1.533-3.419-3.419s1.534-3.419 3.419-3.419 3.419 1.534 3.419 3.419-1.534 3.419-3.419 3.419zM23.306 10.907c-1.15 0-2.086 0.936-2.086 2.086s0.936 2.086 2.086 2.086 2.086-0.936 2.086-2.086-0.936-2.086-2.086-2.086z"></path>
<path d="M8.662 26.71c-0.369 0-0.667-0.298-0.667-0.667v-13.633c0-0.369 0.298-0.667 0.667-0.667s0.667 0.298 0.667 0.667v13.633c0 0.369-0.298 0.667-0.667 0.667z"></path>
<path d="M8.662 7.572c-0.369 0-0.667-0.298-0.667-0.667v-0.997c0-0.369 0.298-0.667 0.667-0.667s0.667 0.298 0.667 0.667v0.997c0 0.368-0.298 0.667-0.667 0.667z"></path>
<path d="M16.124 26.71c-0.369 0-0.667-0.298-0.667-0.667v-1.96c0-0.369 0.298-0.667 0.667-0.667s0.667 0.298 0.667 0.667v1.96c0 0.369-0.298 0.667-0.667 0.667z"></path>
<path d="M16.124 19.245c-0.369 0-0.667-0.298-0.667-0.667v-12.67c0-0.369 0.298-0.667 0.667-0.667s0.667 0.298 0.667 0.667v12.67c0 0.369-0.298 0.667-0.667 0.667z"></path>
</svg>
