<!-- Generated by IcoMoon.io -->
<svg version="1.1" xmlns="http://www.w3.org/2000/svg" width="32" height="32" viewBox="0 0 32 32">
<title>settings_gear_preferences</title>
<path d="M27 16.9c0-0.3 0-0.6 0-0.9 0 0 0 0 0 0 0-0.3 0-0.6 0-0.9 0 0 0 0 0 0l2.4-1.9c0.4-0.3 0.6-0.8 0.6-1.3 0-0.3-0.1-0.6-0.2-0.8l-2.7-4.6c-0.4-0.7-1.3-1-2-0.7l-2.8 1.1c-0.5-0.3-0.9-0.6-1.5-0.9l-0.5-3c-0.2-0.8-0.8-1.3-1.6-1.3h-5.4c-0.8 0-1.5 0.6-1.6 1.4l-0.4 3c0 0-0.1 0-0.1 0-0.5 0.2-1 0.5-1.4 0.8 0 0 0 0 0 0l-2.8-1.1c0 0 0 0 0 0s0 0 0 0c-0.7-0.3-1.6 0-2 0.7l-2.7 4.6c0 0 0 0 0 0-0.2 0.3-0.3 0.6-0.3 0.9 0 0.5 0.2 1 0.6 1.3l2.4 1.8c0 0.3 0 0.6 0 0.9s0 0.6 0 0.9c0 0 0 0 0 0l-2.4 1.9c-0.4 0.3-0.6 0.8-0.6 1.3 0 0.3 0.1 0.6 0.2 0.8l2.7 4.6c0.4 0.7 1.3 1 2 0.7l2.8-1.1c0.5 0.3 0.9 0.6 1.5 0.9l0.4 3.1c0.2 0.8 0.8 1.3 1.6 1.3h5.4c0.8 0 1.5-0.6 1.6-1.4l0.4-3c0 0 0.1 0 0.1 0 0.5-0.2 1-0.5 1.4-0.8 0 0 0 0 0 0l2.8 1.1c0 0 0 0 0 0s0 0 0 0c0.7 0.3 1.6 0 2-0.7l2.7-4.6c0 0 0 0 0 0 0.1-0.2 0.2-0.5 0.2-0.8 0-0.5-0.2-1-0.6-1.3l-2.2-2zM25.5 24.2l-2.5-1c-0.6-0.2-1.3-0.2-1.9 0.2 0 0 0 0 0 0-0.3 0.2-0.7 0.5-1.1 0.7 0 0-0.1 0-0.1 0-0.6 0.3-1 0.9-1.1 1.5l-0.4 2.7h-4.8l-0.4-2.7c-0.1-0.7-0.5-1.2-1.1-1.5-0.4-0.2-0.8-0.4-1.2-0.7 0 0 0 0 0 0-0.5-0.3-1.3-0.4-1.9-0.1 0 0 0 0 0 0l-2.5 1-2.4-4.1 2.2-1.7c0.5-0.4 0.8-1 0.8-1.6 0 0 0-0.2 0-0.2s0 0 0 0c0-0.2 0-0.4 0-0.7 0-0.2 0-0.5 0-0.7 0 0 0-0.1 0-0.2 0-0.6-0.3-1.2-0.7-1.6 0 0 0 0 0 0l-2.1-1.7 2.4-4.1 2.5 1c0.6 0.3 1.4 0.2 1.9-0.2 0 0 0 0 0 0 0.3-0.2 0.7-0.5 1.1-0.7 0 0 0.1 0 0.1 0 0.6-0.3 1-0.9 1.1-1.5l0.4-2.7h4.8l0.4 2.7c0.1 0.7 0.5 1.2 1.1 1.5 0.2 0.2 0.6 0.5 0.9 0.7 0 0 0 0 0 0 0.6 0.4 1.4 0.5 2 0.2 0 0 0 0 0 0l2.5-1 2.4 4.1-2.2 1.7c-0.5 0.4-0.8 1-0.8 1.6 0 0 0 0.2 0 0.2s0 0 0 0c0 0.2 0 0.4 0 0.7 0 0.4 0 0.8-0.1 1.2 0 0 0 0 0 0-0.1 0.5 0.2 0.9 0.6 1l2.3 1.8-2.2 4.2zM21 15.5c-0.2-2.4-2.1-4.2-4.5-4.5v0c0 0 0 0 0 0-0.1 0-0.3 0-0.5 0-2.8 0-5 2.2-5 5s2.2 5 5 5 5-2.2 5-5c0-0.2 0-0.3 0-0.5 0 0 0 0 0 0zM16 19c-1.7 0-3-1.3-3-3s1.3-3 3-3c0.1 0 0.2 0 0.3 0v0c1.4 0.1 2.5 1.3 2.7 2.7 0 0 0 0 0 0 0 0.1 0 0.2 0 0.3 0 1.7-1.3 3-3 3z"></path>
</svg>
