<svg version="1.1" xmlns="http://www.w3.org/2000/svg" width="32" height="32" viewBox="0 0 32 32">
<title>settings_gears_preferences_gearbox</title>
<path d="M10.626 25.743c-2.37 0-4.298-1.928-4.298-4.298s1.928-4.297 4.298-4.297 4.297 1.927 4.297 4.297-1.928 4.298-4.297 4.298zM10.626 18.482c-1.635 0-2.965 1.329-2.965 2.964 0 1.635 1.33 2.965 2.965 2.965s2.964-1.329 2.964-2.965c0-1.634-1.329-2.964-2.964-2.964z"></path>
<path d="M10.624 31.917c-0.477 0-0.948-0.034-1.439-0.102-0.297-0.040-0.531-0.276-0.57-0.574l-0.29-2.215c-0.494-0.15-0.971-0.348-1.426-0.59l-1.773 1.362c-0.238 0.184-0.569 0.184-0.809 0.003-0.762-0.577-1.469-1.283-2.044-2.043-0.181-0.24-0.18-0.57 0.003-0.809l1.362-1.772c-0.244-0.456-0.442-0.934-0.592-1.427l-2.216-0.289c-0.297-0.039-0.533-0.272-0.574-0.57-0.133-0.958-0.133-1.931 0-2.889 0.041-0.298 0.276-0.531 0.574-0.57l2.215-0.289c0.15-0.495 0.348-0.973 0.592-1.428l-1.362-1.772c-0.183-0.238-0.184-0.569-0.003-0.809 0.575-0.76 1.283-1.467 2.044-2.044 0.239-0.181 0.57-0.179 0.809 0.003l1.773 1.363c0.456-0.243 0.933-0.441 1.426-0.591l0.29-2.215c0.038-0.297 0.272-0.533 0.57-0.574 0.99-0.137 1.902-0.136 2.891 0.001 0.297 0.041 0.531 0.276 0.569 0.574l0.29 2.216c0.492 0.15 0.968 0.347 1.423 0.59l1.773-1.362c0.238-0.182 0.57-0.185 0.809-0.003 0.772 0.585 1.46 1.273 2.043 2.045 0.181 0.24 0.18 0.57-0.003 0.809l-1.362 1.773c0.242 0.454 0.439 0.93 0.589 1.422l2.215 0.289c0.298 0.039 0.534 0.273 0.574 0.57 0.137 0.99 0.137 1.909 0 2.892-0.040 0.298-0.276 0.531-0.574 0.57l-2.215 0.289c-0.15 0.492-0.346 0.967-0.589 1.421l1.362 1.773c0.182 0.238 0.184 0.569 0.004 0.809-0.583 0.772-1.272 1.46-2.044 2.044-0.238 0.181-0.57 0.182-0.809-0.003l-1.773-1.362c-0.453 0.242-0.93 0.44-1.423 0.59l-0.29 2.216c-0.039 0.298-0.272 0.534-0.57 0.574-0.497 0.069-0.971 0.103-1.451 0.103zM9.869 30.551c0.51 0.042 1.007 0.042 1.522-0.001l0.28-2.138c0.036-0.275 0.236-0.497 0.505-0.563 0.669-0.16 1.303-0.425 1.887-0.783 0.236-0.146 0.537-0.128 0.755 0.039l1.711 1.314c0.388-0.328 0.747-0.687 1.075-1.075l-1.315-1.711c-0.168-0.219-0.184-0.519-0.040-0.754 0.358-0.585 0.621-1.22 0.783-1.888 0.065-0.268 0.289-0.469 0.563-0.505l2.137-0.279c0.044-0.51 0.044-1.009 0-1.522l-2.137-0.28c-0.275-0.036-0.497-0.237-0.563-0.505-0.16-0.667-0.423-1.302-0.783-1.888-0.143-0.236-0.128-0.535 0.040-0.754l1.314-1.71c-0.328-0.388-0.687-0.748-1.075-1.077l-1.71 1.314c-0.218 0.169-0.519 0.184-0.755 0.040-0.586-0.359-1.221-0.623-1.888-0.784-0.268-0.064-0.469-0.288-0.505-0.561l-0.28-2.139c-0.513-0.044-1.011-0.044-1.522-0.001l-0.279 2.137c-0.036 0.274-0.237 0.497-0.505 0.562-0.668 0.16-1.304 0.423-1.892 0.783-0.234 0.146-0.535 0.129-0.754-0.040l-1.71-1.314c-0.385 0.327-0.749 0.69-1.075 1.075l1.314 1.709c0.168 0.219 0.184 0.518 0.040 0.754-0.361 0.59-0.625 1.227-0.785 1.895-0.065 0.268-0.288 0.469-0.562 0.505l-2.137 0.28c-0.042 0.505-0.042 1.014 0 1.519l2.137 0.28c0.273 0.036 0.497 0.237 0.562 0.505 0.16 0.667 0.425 1.303 0.785 1.893 0.145 0.236 0.128 0.535-0.040 0.754l-1.314 1.708c0.327 0.385 0.69 0.749 1.075 1.075l1.71-1.314c0.219-0.167 0.52-0.184 0.755-0.040 0.585 0.359 1.222 0.622 1.892 0.784 0.268 0.065 0.469 0.288 0.505 0.563l0.279 2.137z"></path>
<path d="M24.319 10.669c-1.668 0-3.025-1.357-3.025-3.025s1.357-3.026 3.025-3.026 3.026 1.357 3.026 3.026c0 1.668-1.358 3.025-3.026 3.025zM24.319 5.951c-0.932 0-1.691 0.759-1.691 1.693s0.759 1.692 1.691 1.692c0.934 0 1.693-0.759 1.693-1.692s-0.759-1.693-1.693-1.693z"></path>
<path d="M22.572 15.167c-0.055 0-0.111-0.007-0.165-0.021-0.706-0.182-1.353-0.446-1.979-0.809-0.26-0.151-0.387-0.457-0.31-0.747l0.383-1.444c-0.232-0.196-0.448-0.41-0.647-0.641l-1.443 0.395c-0.289 0.079-0.598-0.044-0.749-0.303-0.361-0.608-0.647-1.29-0.827-1.973-0.077-0.29 0.049-0.595 0.31-0.746l1.29-0.751c-0.025-0.304-0.026-0.609-0.004-0.912l-1.298-0.742c-0.26-0.149-0.389-0.454-0.315-0.745 0.178-0.694 0.451-1.359 0.81-1.977 0.152-0.26 0.453-0.388 0.747-0.31l1.444 0.381c0.197-0.232 0.411-0.449 0.642-0.647l-0.393-1.442c-0.079-0.29 0.046-0.597 0.305-0.75 0.608-0.359 1.289-0.645 1.97-0.825 0.296-0.076 0.596 0.049 0.747 0.309l0.751 1.292c0.302-0.025 0.607-0.027 0.911-0.003l0.74-1.297c0.15-0.26 0.451-0.393 0.745-0.316 0.704 0.181 1.35 0.446 1.978 0.81 0.259 0.151 0.387 0.457 0.31 0.747l-0.381 1.445c0.231 0.196 0.445 0.41 0.645 0.641l1.443-0.395c0.292-0.077 0.596 0.045 0.75 0.303 0.363 0.615 0.641 1.279 0.825 1.972 0.077 0.29-0.049 0.596-0.31 0.747l-1.293 0.752c0.025 0.301 0.026 0.605 0.004 0.908l1.298 0.741c0.26 0.148 0.389 0.453 0.315 0.744-0.18 0.702-0.445 1.349-0.81 1.979-0.15 0.26-0.453 0.389-0.747 0.31l-1.444-0.381c-0.197 0.231-0.41 0.445-0.639 0.644l0.395 1.443c0.079 0.29-0.046 0.596-0.303 0.749-0.615 0.365-1.279 0.643-1.973 0.827-0.283 0.077-0.595-0.049-0.747-0.309l-0.751-1.292c-0.301 0.025-0.603 0.027-0.908 0.005l-0.741 1.298c-0.121 0.211-0.344 0.336-0.579 0.336zM21.542 13.42c0.232 0.112 0.467 0.208 0.712 0.291l0.697-1.221c0.137-0.24 0.409-0.37 0.681-0.328 0.478 0.074 0.953 0.070 1.417-0.007 0.273-0.041 0.544 0.085 0.684 0.323l0.706 1.214c0.243-0.085 0.481-0.184 0.711-0.297l-0.371-1.356c-0.073-0.266 0.026-0.549 0.249-0.713 0.385-0.283 0.721-0.622 0.999-1.006 0.159-0.223 0.436-0.326 0.711-0.255l1.358 0.359c0.113-0.233 0.21-0.468 0.292-0.713l-1.22-0.697c-0.24-0.137-0.37-0.407-0.328-0.679 0.072-0.473 0.070-0.95-0.005-1.417-0.044-0.273 0.083-0.544 0.323-0.683l1.215-0.707c-0.086-0.243-0.185-0.48-0.298-0.71l-1.355 0.37c-0.264 0.074-0.549-0.025-0.714-0.249-0.284-0.387-0.622-0.724-1.005-0.999-0.224-0.161-0.325-0.444-0.255-0.711l0.359-1.359c-0.233-0.113-0.467-0.209-0.712-0.292l-0.695 1.219c-0.137 0.24-0.413 0.369-0.681 0.329-0.478-0.073-0.956-0.069-1.421 0.006-0.268 0.047-0.544-0.085-0.684-0.323l-0.706-1.215c-0.241 0.085-0.479 0.185-0.71 0.297l0.37 1.354c0.073 0.266-0.026 0.55-0.249 0.714-0.385 0.283-0.723 0.622-1.001 1.008-0.16 0.223-0.439 0.326-0.711 0.255l-1.357-0.359c-0.112 0.231-0.208 0.469-0.292 0.712l1.219 0.696c0.24 0.137 0.37 0.406 0.328 0.679-0.072 0.471-0.069 0.951 0.007 1.423 0.044 0.272-0.083 0.544-0.323 0.682l-1.212 0.706c0.085 0.242 0.184 0.48 0.297 0.71l1.355-0.37c0.268-0.071 0.551 0.026 0.714 0.249 0.284 0.386 0.622 0.723 1.008 0.999 0.224 0.161 0.325 0.445 0.255 0.712l-0.359 1.358z"></path>
</svg>
