<svg version="1.1" xmlns="http://www.w3.org/2000/svg" width="32" height="32" viewBox="0 0 32 32">
<title>settings_panel_equalizer_preferences</title>
<path d="M3 8c0-0.6 0.4-1 1-1h14.2c0.4-1.2 1.5-2 2.8-2s2.4 0.8 2.8 2h4.2c0.6 0 1 0.4 1 1s-0.4 1-1 1h-4.2c-0.4 1.2-1.5 2-2.8 2s-2.4-0.8-2.8-2h-14.2c-0.6 0-1-0.4-1-1zM28 23h-4.2c-0.4-1.2-1.5-2-2.8-2s-2.4 0.8-2.8 2v0h-14.2c-0.6 0-1 0.4-1 1s0.4 1 1 1h14.2c0.4 1.2 1.5 2 2.8 2s2.4-0.8 2.8-2v0h4.2c0.6 0 1-0.4 1-1s-0.4-1-1-1zM28 15h-14.2c-0.4-1.2-1.5-2-2.8-2s-2.4 0.8-2.8 2v0h-4.2c-0.6 0-1 0.4-1 1s0.4 1 1 1h4.2c0.4 1.2 1.5 2 2.8 2s2.4-0.8 2.8-2v0h14.2c0.6 0 1-0.4 1-1s-0.4-1-1-1z"></path>
</svg>
