<svg version="1.1" xmlns="http://www.w3.org/2000/svg" width="32" height="32" viewBox="0 0 32 32">
<title>settings_tools_configuration_preferences2</title>
<path d="M5.555 31.802c-1.396 0-2.709-0.544-3.698-1.533-0.986-0.986-1.529-2.299-1.529-3.697-0.001-1.398 0.543-2.711 1.529-3.697l12.009-10.464c-0.351-1.964-0.69-5.965 1.699-8.353 2.079-2.081 5.089-2.989 7.974-2.421 0.387 0.076 0.698 0.357 0.814 0.735s0.014 0.786-0.264 1.066l-3.359 3.359-0.589 2.837 2.35 2.348 2.837-0.587 3.358-3.358c0.569-0.566 1.648-0.227 1.802 0.547 0.574 2.905-0.331 5.886-2.421 7.975-1.277 1.277-3.236 1.953-5.664 1.953v0c-0.87 0-1.773-0.085-2.69-0.253l-10.411 11.953c-1.032 1.036-2.351 1.586-3.747 1.586zM21.809 2.803c-2 0-3.883 0.781-5.301 2.199-2.158 2.158-1.511 6.307-1.262 7.528 0.048 0.235-0.034 0.479-0.215 0.636l-12.264 10.684c-0.701 0.703-1.105 1.681-1.105 2.723s0.404 2.019 1.139 2.754c1.474 1.474 4.031 1.478 5.528-0.019l10.633-12.21c0.158-0.181 0.397-0.269 0.638-0.215 0.947 0.195 1.917 0.299 2.805 0.299v0c1.441 0 3.43-0.272 4.721-1.563 1.654-1.654 2.434-3.966 2.138-6.271l-3.133 3.133c-0.092 0.092-0.208 0.155-0.336 0.182l-3.385 0.701c-0.227 0.046-0.448-0.023-0.607-0.182l-2.858-2.857c-0.159-0.159-0.227-0.387-0.181-0.607l0.702-3.385c0.026-0.127 0.089-0.244 0.181-0.336l3.131-3.131c-0.321-0.042-0.646-0.063-0.969-0.063z"></path>
<path d="M5.704 28.018c-0.426 0-0.827-0.165-1.129-0.467-0.62-0.621-0.62-1.633 0-2.254 0.599-0.603 1.654-0.604 2.256-0.001 0.622 0.624 0.621 1.634 0.001 2.255-0.301 0.302-0.702 0.467-1.128 0.467zM5.704 26.161c-0.041 0-0.119 0.010-0.186 0.077-0.1 0.102-0.101 0.268 0.001 0.37 0.133 0.135 0.236 0.134 0.37 0.001 0.102-0.103 0.102-0.269-0.001-0.372-0.066-0.065-0.144-0.075-0.184-0.075z"></path>
</svg>
