<svg version="1.1" xmlns="http://www.w3.org/2000/svg" width="32" height="32" viewBox="0 0 32 32">
<title>settings_tools_configuration_preferences</title>
<path d="M10.066 29.474c-0.916 0-1.661-0.736-1.663-1.639 0-0.905 0.745-1.642 1.661-1.645 0.919 0.003 1.664 0.738 1.664 1.642-0.001 0.906-0.747 1.642-1.663 1.642zM10.065 27.523c-0.18 0-0.328 0.139-0.328 0.31 0 0.339 0.659 0.34 0.659-0.001 0-0.169-0.148-0.309-0.331-0.309z"></path>
<path d="M10.014 31.805c-2.479 0-4.496-1.981-4.496-4.414l1.016-14.451c-1.356-0.904-4.341-3.236-4.34-6.257-0.001-2.566 1.3-4.95 3.48-6.378 0.206-0.133 0.467-0.145 0.682-0.029s0.35 0.342 0.35 0.587v4.361l1.605 2.391 3.406-0.001 1.605-2.39 0.001-4.362c0-0.245 0.135-0.47 0.35-0.586s0.477-0.105 0.682 0.029c2.179 1.428 3.48 3.812 3.481 6.378-0.001 3.021-2.986 5.354-4.342 6.257l1.015 14.405c0.002 2.481-2.015 4.461-4.495 4.461zM5.373 2.258c-1.173 1.172-1.846 2.752-1.845 4.424-0.001 2.623 3.1 4.753 4.051 5.344 0.21 0.131 0.331 0.367 0.313 0.613l-1.042 14.798c0.002 1.652 1.421 3.034 3.165 3.034s3.163-1.381 3.163-3.081l-1.041-14.751c-0.018-0.247 0.103-0.482 0.313-0.613 0.951-0.591 4.052-2.722 4.053-5.344-0.001-1.672-0.674-3.253-1.846-4.425l-0.001 3.169c0 0.133-0.040 0.262-0.113 0.372l-1.916 2.853c-0.123 0.184-0.331 0.295-0.553 0.295l-4.117 0.001c-0.222 0-0.43-0.111-0.553-0.295l-1.916-2.854c-0.074-0.11-0.113-0.24-0.113-0.372v-3.168z"></path>
<path d="M23.391 31.853c-2.6 0-4.716-1.749-4.716-3.898v-7.548c0-0.26 0.151-0.497 0.388-0.605 0.492-0.227 0.798-0.616 0.798-1.017s-0.306-0.79-0.798-1.017c-0.237-0.108-0.388-0.345-0.388-0.605v-2.764c0-0.369 0.298-0.667 0.667-0.667h8.099c0.369 0 0.667 0.298 0.667 0.667v2.764c0 0.26-0.151 0.497-0.388 0.605-0.492 0.227-0.798 0.616-0.798 1.017s0.306 0.79 0.798 1.017c0.237 0.108 0.388 0.345 0.388 0.605v7.548c0 2.15-2.116 3.898-4.716 3.898zM20.008 20.799v7.155c0 1.414 1.517 2.565 3.383 2.565s3.383-1.151 3.383-2.565v-7.155c-0.741-0.477-1.186-1.219-1.186-2.016s0.445-1.539 1.186-2.016v-1.704h-6.766v1.704c0.741 0.477 1.186 1.219 1.186 2.016s-0.445 1.539-1.186 2.016z"></path>
<path d="M23.391 15.064c-0.369 0-0.667-0.298-0.667-0.667v-10.293c0-0.369 0.298-0.667 0.667-0.667s0.667 0.298 0.667 0.667v10.293c0 0.369-0.298 0.667-0.667 0.667z"></path>
<path d="M24.197 4.771h-1.612c-0.29 0-0.548-0.189-0.635-0.466l-0.621-1.968c-0.048-0.151-0.040-0.314 0.021-0.46l0.621-1.472c0.104-0.247 0.346-0.408 0.615-0.408h1.612c0.268 0 0.51 0.161 0.615 0.408l0.621 1.472c0.061 0.146 0.069 0.309 0.021 0.46l-0.621 1.968c-0.087 0.277-0.345 0.466-0.635 0.466zM23.073 3.438h0.635l0.4-1.268-0.354-0.839h-0.727l-0.354 0.839 0.4 1.268z"></path>
<path d="M23.391 28.499c-0.369 0-0.667-0.298-0.667-0.667v-6.249c0-0.369 0.298-0.667 0.667-0.667s0.667 0.298 0.667 0.667v6.249c0 0.369-0.298 0.667-0.667 0.667z"></path>
</svg>
