<!-- Generated by IcoMoon.io -->
<svg version="1.1" xmlns="http://www.w3.org/2000/svg" width="32" height="32" viewBox="0 0 32 32">
<title>shape_new_discount</title>
<path d="M17.521 31.721c-0.185 0-0.362-0.077-0.488-0.214l-2.281-2.458-2.716 1.965c-0.169 0.122-0.386 0.159-0.584 0.098-0.2-0.061-0.359-0.211-0.432-0.406l-1.166-3.143-3.262 0.777c-0.201 0.047-0.416-0.001-0.577-0.133-0.161-0.133-0.251-0.332-0.243-0.54l0.125-3.35-3.31-0.53c-0.206-0.034-0.384-0.161-0.482-0.345s-0.105-0.402-0.018-0.592l1.399-3.047-2.857-1.758c-0.178-0.109-0.294-0.296-0.314-0.503s0.057-0.413 0.21-0.553l2.459-2.28-1.966-2.716c-0.122-0.169-0.158-0.385-0.098-0.584s0.211-0.359 0.406-0.432l3.143-1.166-0.778-3.261c-0.048-0.203 0.001-0.417 0.133-0.578s0.355-0.258 0.54-0.243l3.352 0.126 0.53-3.311c0.033-0.206 0.16-0.384 0.344-0.482 0.184-0.101 0.402-0.105 0.592-0.018l3.048 1.399 1.757-2.857c0.109-0.178 0.295-0.294 0.503-0.314 0.203-0.018 0.412 0.057 0.554 0.21l2.28 2.459 2.717-1.967c0.168-0.121 0.383-0.158 0.585-0.098 0.199 0.061 0.359 0.211 0.431 0.406l1.165 3.144 3.262-0.778c0.204-0.048 0.415 0.001 0.578 0.133 0.161 0.132 0.251 0.333 0.243 0.541l-0.126 3.351 3.31 0.531c0.206 0.033 0.384 0.16 0.483 0.344 0.098 0.184 0.104 0.403 0.017 0.592l-1.398 3.047 2.857 1.757c0.178 0.109 0.294 0.295 0.315 0.503 0.019 0.207-0.057 0.412-0.211 0.554l-2.458 2.28 1.966 2.716c0.122 0.168 0.158 0.384 0.098 0.585-0.061 0.199-0.211 0.358-0.406 0.431l-3.145 1.165 0.737 3.089c0.055 0.096 0.086 0.208 0.086 0.328 0 0.369-0.298 0.667-0.667 0.667-0.007 0-0.017 0-0.026 0-0.008 0-0.017 0-0.025 0l-3.352-0.126-0.53 3.311c-0.034 0.206-0.161 0.384-0.345 0.483-0.184 0.098-0.404 0.102-0.592 0.017l-3.046-1.398-1.758 2.857c-0.109 0.178-0.294 0.294-0.503 0.315-0.022 0.001-0.043 0.003-0.065 0.003zM14.839 27.496c0.18 0 0.358 0.073 0.489 0.214l2.085 2.249 1.607-2.613c0.177-0.288 0.54-0.398 0.846-0.257l2.785 1.279 0.484-3.027c0.053-0.332 0.332-0.561 0.684-0.561l3.064 0.116-0.711-2.982c-0.078-0.328 0.1-0.663 0.417-0.78l2.875-1.066-1.798-2.483c-0.198-0.272-0.16-0.65 0.087-0.879l2.247-2.085-2.612-1.607c-0.288-0.176-0.397-0.54-0.257-0.846l1.279-2.786-3.026-0.485c-0.333-0.053-0.573-0.346-0.561-0.684l0.116-3.064-2.983 0.712c-0.331 0.078-0.663-0.101-0.78-0.417l-1.065-2.875-2.484 1.798c-0.272 0.195-0.65 0.159-0.879-0.087l-2.085-2.248-1.606 2.612c-0.176 0.287-0.54 0.397-0.846 0.257l-2.787-1.279-0.484 3.027c-0.053 0.332-0.302 0.598-0.683 0.561l-3.064-0.115 0.711 2.982c0.078 0.328-0.101 0.663-0.417 0.78l-2.874 1.066 1.797 2.484c0.197 0.273 0.16 0.65-0.087 0.88l-2.248 2.084 2.612 1.607c0.287 0.176 0.398 0.539 0.257 0.846l-1.279 2.786 3.026 0.484c0.333 0.053 0.574 0.348 0.561 0.684l-0.114 3.064 2.982-0.711c0.329-0.081 0.661 0.102 0.779 0.417l1.066 2.874 2.484-1.797c0.117-0.085 0.255-0.126 0.391-0.126z"></path>
</svg>
