<svg version="1.1" xmlns="http://www.w3.org/2000/svg" width="32" height="32" viewBox="0 0 32 32">
<title>share_by</title>
<path d="M17.124 14.284h-7.303c-0.371 0-0.671-0.3-0.671-0.671v-7.797c0-0.371 0.3-0.671 0.671-0.671s0.672 0.3 0.672 0.671v7.125h6.631c0.371 0 0.671 0.3 0.671 0.671s-0.3 0.672-0.671 0.672z"></path>
<path d="M27.556 14.24h-6.865c-0.371 0-0.671-0.3-0.671-0.671s0.3-0.671 0.671-0.671h6.195v-7.083c0-0.371 0.3-0.671 0.671-0.671s0.671 0.3 0.671 0.671v7.752c0 0.372-0.3 0.672-0.671 0.672z"></path>
<path d="M30.847 8.299h-1.584c-0.371 0-0.671-0.3-0.671-0.671s0.3-0.671 0.671-0.671h0.913v-2.047h-22.971v2.047h0.915c0.371 0 0.671 0.3 0.671 0.671s-0.3 0.671-0.671 0.671h-1.585c-0.371 0-0.671-0.3-0.671-0.671v-3.388c0-0.371 0.3-0.671 0.671-0.671h24.312c0.371 0 0.671 0.3 0.671 0.671v3.388c0 0.371-0.3 0.671-0.671 0.671z"></path>
<path d="M16.909 28.26c-0.223 0-0.441-0.112-0.569-0.315-3.219-5.139-0.444-9.639 0.264-10.637v-6.324c0-2.195 2.705-2.709 3.973-1.684 0.505 0.407 0.784 1.005 0.784 1.684v6.201c0 0.371-0.3 0.671-0.671 0.671s-0.671-0.3-0.671-0.671v-6.201c0-0.276-0.093-0.485-0.283-0.639-0.189-0.152-0.463-0.237-0.752-0.237-0.107 0-1.039 0.024-1.039 0.877v6.544c0 0.155-0.053 0.305-0.152 0.425-0.141 0.173-3.429 4.309-0.316 9.279 0.196 0.315 0.101 0.729-0.212 0.925-0.112 0.068-0.236 0.101-0.357 0.101z"></path>
<path d="M23.244 28.432c-0.027 0-0.053-0.001-0.080-0.005-0.368-0.043-0.632-0.376-0.587-0.744 0.015-0.131 0.391-3.24 1.425-6.064 1.905-5.199 1.036-7.796 1.028-7.821-0.123-0.347 0.056-0.732 0.404-0.856 0.345-0.128 0.728 0.049 0.856 0.395 0.044 0.12 1.072 3.019-1.027 8.744-0.98 2.673-1.351 5.731-1.355 5.76-0.040 0.34-0.332 0.592-0.665 0.592z"></path>
<path d="M17.275 16.759h-3.768c-0.789 0-1.279-0.311-1.551-0.573-0.367-0.351-0.568-0.825-0.568-1.333 0-0.951 0.728-1.912 2.117-1.912h3.768c0.371 0 0.671 0.3 0.671 0.671s-0.3 0.671-0.671 0.671h-3.767c-0.573 0-0.776 0.308-0.776 0.571 0 0.14 0.055 0.269 0.155 0.365 0.136 0.129 0.349 0.199 0.621 0.199h3.768c0.371 0 0.671 0.3 0.671 0.671s-0.3 0.672-0.671 0.672z"></path>
<path d="M16.079 19.316h-1.301c-1.283 0-1.975-1.005-1.975-1.951 0-0.501 0.177-0.973 0.5-1.329 0.363-0.4 0.885-0.62 1.475-0.62 0.371 0 0.671 0.3 0.671 0.671s-0.3 0.671-0.671 0.671c-0.211 0-0.373 0.060-0.481 0.179-0.096 0.107-0.152 0.263-0.152 0.428 0 0.143 0.045 0.608 0.633 0.608h1.301c0.371 0 0.671 0.3 0.671 0.671 0 0.372-0.3 0.673-0.671 0.673z"></path>
<path d="M4.948 28.432c-0.369 0-0.669-0.299-0.671-0.668l-0.060-14.688c-0.001-0.369 0.297-0.672 0.669-0.673 0 0 0.001 0 0.003 0 0.369 0 0.669 0.299 0.671 0.668l0.059 14.687c0.001 0.371-0.297 0.672-0.668 0.673-0.001 0.001-0.003 0.001-0.003 0.001z"></path>
<path d="M8.625 17.481c-0.172 0-0.344-0.065-0.475-0.196l-3.261-3.261-3.261 3.261c-0.263 0.263-0.687 0.263-0.949 0s-0.263-0.687 0-0.949l3.735-3.736c0.252-0.252 0.697-0.252 0.949 0l3.736 3.736c0.263 0.263 0.263 0.687 0 0.949-0.131 0.129-0.303 0.196-0.473 0.196z"></path>
</svg>
