<svg version="1.1" xmlns="http://www.w3.org/2000/svg" width="34" height="32" viewBox="0 0 34 32">
<title>share_arrow</title>
<path d="M12.306 32c-0.001 0-0.001 0-0.002 0-0.181 0-0.355-0.033-0.516-0.092l0.010 0.003-0.004-0.002c-7.385-2.645-11.794-7.283-11.794-12.406 0-1.676 0.482-3.32 1.434-4.886 0.936-1.54 2.302-2.968 4.060-4.244 1.769-1.284 3.882-2.376 6.279-3.246 2.468-0.895 5.176-1.53 8.047-1.888l0.318-0.040v-3.187c0-0 0-0 0-0 0-0.555 0.225-1.058 0.588-1.422l-0 0c0.351-0.362 0.842-0.588 1.385-0.59h0c0.439 0 0.866 0.149 1.27 0.443l9.774 8.574c0.495 0.365 0.813 0.946 0.814 1.601v0.011c0 0.622-0.292 1.235-0.747 1.562l-0.014 0.010-9.902 8.679c-0.298 0.213-0.688 0.33-1.101 0.33-0.526 0-1.046-0.186-1.425-0.511-0.293-0.251-0.643-0.707-0.643-1.452v-3.188l-0.4 0.042c-3.29 0.347-6.286 1.243-8.436 2.524-1.082 0.645-1.93 1.369-2.518 2.154-0.625 0.833-0.942 1.711-0.942 2.61 0 2.185 1.849 4.309 5.074 5.828 0.628 0.298 0.949 0.951 0.797 1.625-0.152 0.682-0.729 1.157-1.402 1.157zM1.434 19.722c0.049 1.712 0.678 3.373 1.872 4.942 0.552 0.714 1.147 1.343 1.798 1.91l0.016 0.014c0.701 0.611 1.475 1.182 2.293 1.689l0.076 0.044c0.693 0.427 1.417 0.774 2.153 1.117 0.6 0.28 1.89 0.788 1.89 0.788s-0.922-0.66-1.505-1.090c-0.623-0.46-1.268-0.908-1.792-1.479-0.317-0.344-0.608-0.721-0.865-1.123l-0.019-0.032c-0.468-0.747-0.796-1.583-0.904-2.461-0.025-0.194-0.040-0.419-0.040-0.647 0-0.001 0-0.001 0-0.002v0c0-1.114 0.344-2.187 1.020-3.189 0.672-0.995 1.655-1.9 2.924-2.69 1.283-0.799 2.819-1.456 4.567-1.955 1.801-0.513 3.782-0.844 5.888-0.982h0.046c0.395 0.001 0.715 0.321 0.716 0.716v1.294c0 0.703-0.019 1.409 0 2.111 0.007 0.243-0.031 0.538 0.048 0.763 0.039 0.11 0.127 0.194 0.219 0.26s0.206 0.132 0.33 0.135c0.094-0.001 0.18-0.029 0.253-0.077l-0.002 0.001c0.121-0.074 0.213-0.184 0.314-0.282s0.218-0.2 0.329-0.297c0.072-0.063 0.144-0.125 0.216-0.188l8.974-7.876 0.51-0.472-0.254-0.223-0.695-0.61-8.761-7.716c-0.203-0.179-0.4-0.361-0.599-0.543-0.347-0.318-0.887 0-0.887 0.445v3.825c-0.002 0.394-0.32 0.713-0.714 0.714h-0.012c-0.017 0-0.034 0-0.054 0h-0.019l-0.019 0.002c-2.728 0.282-5.315 0.819-7.689 1.596-2.317 0.757-4.369 1.724-6.1 2.871-1.744 1.156-3.106 2.459-4.049 3.873-0.982 1.473-1.479 3.024-1.479 4.61v0.216z"></path>
</svg>
