<svg version="1.1" xmlns="http://www.w3.org/2000/svg" width="32" height="32" viewBox="0 0 32 32">
<title>share_facebook_social</title>
<path d="M24 21c-1.1 0-2.2 0.5-2.9 1.2l-9.2-5.2c0.1-0.3 0.1-0.7 0.1-1 0-0.4-0.1-0.7-0.1-1l9.3-5.2c0.7 0.8 1.7 1.2 2.9 1.2 2.2 0 4-1.8 4-4s-1.8-4-4-4-4 1.8-4 4c0 0.4 0.1 0.7 0.1 1l-9.3 5.2c-0.8-0.7-1.8-1.2-2.9-1.2-2.2 0-4 1.8-4 4s1.8 4 4 4c1.1 0 2.1-0.5 2.9-1.2l9.3 5.2c-0.1 0.3-0.1 0.7-0.1 1 0 2.2 1.8 4 4 4s4-1.8 4-4-1.9-4-4.1-4zM24 5c1.1 0 2 0.9 2 2s-0.9 2-2 2-2-0.9-2-2 0.9-2 2-2zM8 18c-1.1 0-2-0.9-2-2s0.9-2 2-2 2 0.9 2 2c0 1.1-0.9 2-2 2zM24 27c-1.1 0-2-0.9-2-2s0.9-2 2-2 2 0.9 2 2-0.9 2-2 2z"></path>
</svg>
