<svg version="1.1" xmlns="http://www.w3.org/2000/svg" width="32" height="32" viewBox="0 0 32 32">
<title>shipping_box_delivery4</title>
<path d="M16.648 31.637c-0.122 0-0.245-0.034-0.353-0.1-0.195-0.122-0.314-0.336-0.314-0.566v-15.459c0-0.255 0.145-0.486 0.372-0.598l14.667-7.196c0.208-0.101 0.451-0.089 0.647 0.033 0.195 0.122 0.314 0.335 0.314 0.566v15.458c0 0.254-0.145 0.487-0.372 0.599l-14.667 7.197c-0.094 0.045-0.194 0.068-0.294 0.068zM17.315 15.926v13.973l13.333-6.542v-13.973l-13.333 6.542z"></path>
<path d="M16.648 31.637c-0.092 0-0.186-0.019-0.273-0.059l-16-7.197c-0.24-0.108-0.393-0.345-0.393-0.608v-15.458c0-0.226 0.115-0.437 0.305-0.56s0.43-0.139 0.635-0.048l16 7.196c0.24 0.107 0.393 0.346 0.393 0.608v15.459c0 0.227-0.115 0.437-0.305 0.56-0.109 0.070-0.236 0.107-0.362 0.107zM1.315 23.342l14.667 6.596v-13.997l-14.667-6.596v13.997z"></path>
<path d="M16.648 16.177c-0.094 0-0.186-0.018-0.273-0.059l-16-7.195c-0.239-0.108-0.393-0.346-0.393-0.609s0.154-0.501 0.395-0.608l16.079-7.197c0.181-0.081 0.389-0.077 0.568 0.011l14.587 7.197c0.228 0.112 0.371 0.344 0.371 0.598s-0.145 0.486-0.372 0.598l-14.667 7.196c-0.094 0.046-0.194 0.068-0.294 0.068zM2.277 8.316l14.36 6.458 13.168-6.462-13.091-6.459-14.437 6.462z"></path>
<path d="M23.978 12.579c-0.096 0-0.194-0.021-0.286-0.064l-15.18-7.219c-0.332-0.158-0.474-0.556-0.316-0.889s0.555-0.473 0.889-0.316l15.18 7.219c0.332 0.158 0.474 0.556 0.315 0.889-0.113 0.24-0.353 0.38-0.602 0.38z"></path>
<path d="M7.178 15.359c-0.095 0-0.192-0.020-0.285-0.064l-3.536-1.671c-0.333-0.158-0.475-0.555-0.318-0.888s0.553-0.477 0.888-0.318l3.536 1.671c0.333 0.158 0.475 0.555 0.318 0.888-0.114 0.241-0.353 0.382-0.603 0.382z"></path>
<path d="M7.178 18.008c-0.095 0-0.192-0.021-0.284-0.064l-3.536-1.671c-0.333-0.158-0.475-0.555-0.318-0.887s0.555-0.475 0.887-0.318l3.536 1.671c0.333 0.158 0.475 0.555 0.318 0.888-0.114 0.241-0.353 0.382-0.603 0.382z"></path>
</svg>
