<svg version="1.1" xmlns="http://www.w3.org/2000/svg" width="32" height="32" viewBox="0 0 32 32">
<title>shipping_box_delivery</title>
<path d="M29.993 31.944h-28.025c-0.369 0-0.667-0.298-0.667-0.667v-18.624c0-0.369 0.298-0.667 0.667-0.667h28.025c0.369 0 0.667 0.298 0.667 0.667v18.624c0 0.369-0.298 0.667-0.667 0.667zM2.635 30.611h26.692v-17.29h-26.692v17.29z"></path>
<path d="M31.384 13.32h-30.808c-0.369 0-0.667-0.298-0.667-0.667v-5.316c0-0.369 0.298-0.667 0.667-0.667s0.667 0.298 0.667 0.667v4.65h29.475v-4.65c0-0.369 0.298-0.667 0.667-0.667s0.667 0.298 0.667 0.667v5.316c0 0.369-0.298 0.667-0.667 0.667z"></path>
<path d="M31.384 8.004c-0.286 0-0.552-0.186-0.638-0.475l-1.861-6.185h-25.811l-1.859 6.185c-0.107 0.352-0.479 0.551-0.831 0.447-0.352-0.106-0.552-0.478-0.447-0.831l2.003-6.659c0.085-0.282 0.344-0.475 0.639-0.475h26.803c0.294 0 0.553 0.193 0.638 0.475l2.003 6.659c0.107 0.353-0.094 0.725-0.447 0.831-0.064 0.019-0.128 0.028-0.191 0.028z"></path>
<path d="M20.616 18.652h-9.272c-0.369 0-0.667-0.298-0.667-0.667v-5.332c0-0.369 0.298-0.667 0.667-0.667h9.272c0.369 0 0.667 0.298 0.667 0.667v5.332c0 0.368-0.298 0.667-0.667 0.667zM12.010 17.319h7.939v-3.999h-7.939v3.999z"></path>
<path d="M31.384 8.004h-30.808c-0.369 0-0.667-0.298-0.667-0.667s0.298-0.667 0.667-0.667h30.808c0.369 0 0.667 0.298 0.667 0.667s-0.298 0.667-0.667 0.667z"></path>
</svg>
