<!-- Generated by IcoMoon.io -->
<svg version="1.1" xmlns="http://www.w3.org/2000/svg" width="32" height="32" viewBox="0 0 32 32">
<title>shipping_box_delivery</title>
<path d="M27.5 8.1l-9.5-5.6c-1.2-0.7-2.8-0.7-4 0 0 0 0 0 0 0l-9.5 5.6c-0.9 0.5-1.5 1.5-1.5 2.6v10.7c0 1.1 0.6 2 1.5 2.6l9.5 5.5c0.6 0.4 1.3 0.5 2 0.5 0 0 0 0 0 0s0 0 0 0c0.7 0 1.4-0.2 2-0.6 0 0 0 0 0 0l9.5-5.5c0.9-0.5 1.5-1.5 1.5-2.6v-10.6c0-1.1-0.6-2.1-1.5-2.6zM15 4.3c0 0 0 0 0 0 0.6-0.4 1.4-0.4 2 0l9 5.2-10 5.9-10-5.9 9-5.2zM5.5 22.2c-0.3-0.2-0.5-0.5-0.5-0.9v-10.1l10 5.9v10.7c0 0 0 0 0 0l-9.5-5.6zM26.5 22.2l-9.5 5.5c0 0 0 0 0 0v-10.6l10-5.9v10.1c0 0.4-0.2 0.7-0.5 0.9z"></path>
</svg>
