<svg version="1.1" xmlns="http://www.w3.org/2000/svg" width="32" height="32" viewBox="0 0 32 32">
<title>shipping_box_delivery3</title>
<path d="M12.598 30.391c-0.163 0-0.321-0.060-0.443-0.169-0.142-0.126-0.223-0.307-0.223-0.497v-14.504c0-0.369 0.298-0.667 0.667-0.667s0.667 0.298 0.667 0.667v13.755l13.352-1.544v-13.909c0-0.369 0.298-0.667 0.667-0.667s0.667 0.298 0.667 0.667v14.503c0 0.339-0.254 0.624-0.59 0.663l-14.686 1.699c-0.026 0.003-0.051 0.004-0.077 0.004z"></path>
<path d="M12.598 15.887c-0.334 0-0.622-0.25-0.661-0.59-0.042-0.366 0.22-0.697 0.585-0.739l14.686-1.699c0.354-0.051 0.695 0.219 0.74 0.585 0.042 0.366-0.22 0.697-0.586 0.739l-14.686 1.699c-0.026 0.003-0.052 0.005-0.077 0.005z"></path>
<path d="M10.35 10.12c-0.334 0-0.622-0.25-0.661-0.59-0.042-0.366 0.22-0.697 0.585-0.739l9.068-1.049c0.358-0.047 0.697 0.219 0.74 0.585 0.042 0.366-0.22 0.697-0.586 0.739l-9.068 1.049c-0.026 0.003-0.052 0.005-0.077 0.005z"></path>
<path d="M12.598 30.391c-0.126 0-0.253-0.036-0.363-0.107l-7.865-5.098c-0.189-0.124-0.304-0.333-0.304-0.56v-14.503c0-0.369 0.298-0.667 0.667-0.667s0.667 0.298 0.667 0.667v14.141l6.532 4.233v-13.277c0-0.369 0.298-0.667 0.667-0.667s0.667 0.298 0.667 0.667v14.504c0 0.245-0.133 0.469-0.348 0.586-0.1 0.053-0.209 0.081-0.318 0.081z"></path>
<path d="M12.598 15.887c-0.124 0-0.25-0.035-0.362-0.107l-7.865-5.096c-0.309-0.2-0.397-0.613-0.197-0.922s0.613-0.398 0.922-0.197l7.865 5.096c0.309 0.2 0.397 0.613 0.197 0.922-0.128 0.197-0.341 0.304-0.56 0.304z"></path>
<path d="M27.284 14.168c-0.12 0-0.241-0.032-0.35-0.1-0.313-0.193-0.41-0.603-0.217-0.917l3.566-5.779-7.441-3.23-2.857 4.614c-0.194 0.313-0.604 0.41-0.918 0.216-0.313-0.194-0.409-0.605-0.215-0.918l3.16-5.104c0.175-0.283 0.533-0.393 0.832-0.26l8.676 3.766c0.177 0.077 0.313 0.227 0.37 0.411 0.059 0.185 0.034 0.385-0.068 0.55l-3.97 6.435c-0.126 0.204-0.345 0.317-0.567 0.317z"></path>
<path d="M27.284 14.168c-0.125 0-0.25-0.035-0.362-0.107l-7.866-5.096c-0.31-0.2-0.397-0.613-0.198-0.922 0.202-0.309 0.616-0.396 0.922-0.197l7.866 5.096c0.31 0.2 0.397 0.613 0.198 0.922-0.128 0.197-0.342 0.304-0.56 0.304z"></path>
<path d="M19.418 15.098c-0.369 0-0.667-0.298-0.667-0.667v-6.026c0-0.369 0.298-0.667 0.667-0.667s0.667 0.298 0.667 0.667v6.026c0 0.369-0.298 0.667-0.667 0.667z"></path>
<path d="M12.803 15.863c-0.258 0-0.505-0.152-0.613-0.405l-3.010-7.051-5.598-2.677 1.765 4.131c0.145 0.339-0.013 0.73-0.351 0.875-0.339 0.143-0.731-0.012-0.875-0.351l-2.459-5.758c-0.109-0.255-0.048-0.551 0.152-0.743 0.201-0.192 0.499-0.24 0.749-0.12l7.42 3.549c0.146 0.070 0.262 0.191 0.325 0.34l3.109 7.282c0.145 0.339-0.013 0.731-0.352 0.875-0.085 0.037-0.174 0.053-0.261 0.053z"></path>
</svg>
