<svg version="1.1" xmlns="http://www.w3.org/2000/svg" width="32" height="32" viewBox="0 0 32 32">
<title>shredder_paper</title>
<path d="M14.454 31.969h-3.689c-0.191 0-0.373-0.082-0.5-0.225s-0.185-0.335-0.161-0.523c0.010-0.078 0.971-7.884 1.055-17.231 0.003-0.367 0.301-0.661 0.667-0.661 0.002 0 0.004 0 0.006 0 0.369 0.003 0.664 0.305 0.661 0.673-0.070 7.747-0.738 14.449-0.979 16.634h2.347c0.222-1.982 0.916-8.767 0.987-16.646 0.003-0.367 0.301-0.661 0.667-0.661 0.002 0 0.004 0 0.006 0 0.369 0.003 0.664 0.305 0.66 0.673-0.085 9.427-1.055 17.305-1.064 17.383-0.042 0.335-0.325 0.585-0.661 0.585z"></path>
<path d="M21.124 31.969h-3.577c-0.335 0-0.617-0.247-0.661-0.579-0.010-0.078-1.035-7.958-1.12-17.388-0.003-0.368 0.293-0.669 0.66-0.673 0.003 0 0.005 0 0.007 0 0.366 0 0.663 0.294 0.667 0.661 0.072 7.883 0.805 14.669 1.038 16.646h2.24c-0.241-2.185-0.909-8.887-0.979-16.634-0.004-0.368 0.293-0.669 0.66-0.673 0.003 0 0.005 0 0.007 0 0.366 0 0.663 0.294 0.667 0.661 0.085 9.352 1.046 17.152 1.055 17.231 0.023 0.189-0.035 0.38-0.161 0.523s-0.309 0.225-0.5 0.225z"></path>
<path d="M27.743 31.969h-3.595c-0.297 0-0.559-0.197-0.641-0.482-0.025-0.087-2.543-8.88-3.164-17.406-0.026-0.367 0.25-0.686 0.617-0.713 0.328-0.028 0.686 0.249 0.714 0.617 0.527 7.257 2.454 14.715 2.981 16.651h2.21c-0.656-2.413-2.461-9.548-2.943-16.595-0.025-0.368 0.253-0.686 0.62-0.711 0.352-0.019 0.685 0.253 0.711 0.62 0.578 8.465 3.104 17.078 3.13 17.164 0.060 0.202 0.021 0.419-0.105 0.587-0.125 0.169-0.323 0.268-0.534 0.268z"></path>
<path d="M7.741 31.969h-3.577c-0.21 0-0.408-0.099-0.534-0.268-0.126-0.168-0.165-0.387-0.105-0.587 0.025-0.086 2.553-8.699 3.131-17.163 0.025-0.367 0.331-0.626 0.711-0.62 0.367 0.025 0.645 0.344 0.62 0.711-0.481 7.046-2.287 14.182-2.943 16.594h2.195c0.535-1.925 2.495-9.359 2.995-16.684 0.025-0.367 0.333-0.628 0.711-0.62 0.367 0.025 0.645 0.344 0.62 0.711-0.589 8.615-3.156 17.361-3.182 17.449-0.084 0.284-0.344 0.478-0.639 0.478z"></path>
<path d="M29.673 14.668h-27.339c-1.266 0-2.295-1.088-2.295-2.425v-2.38c0-1.337 1.029-2.425 2.295-2.425h4.845c0.369 0 0.667 0.298 0.667 0.667s-0.298 0.667-0.667 0.667h-4.845c-0.53 0-0.962 0.49-0.962 1.092v2.38c0 0.602 0.432 1.091 0.962 1.091h27.339c0.53 0 0.962-0.49 0.962-1.091v-2.381c0-0.602-0.432-1.091-0.962-1.091h-5.026c-0.369 0-0.667-0.298-0.667-0.667s0.298-0.667 0.667-0.667h5.026c1.266 0 2.296 1.088 2.296 2.425v2.381c0 1.337-1.030 2.425-2.296 2.425z"></path>
<path d="M24.647 10.654c0 0 0 0-0.001 0l-17.385-0.024c-0.177 0-0.347-0.071-0.472-0.197s-0.195-0.296-0.194-0.473l0.035-9.29c0.001-0.367 0.299-0.664 0.667-0.664h14.451c0.167 0 0.328 0.063 0.451 0.176l2.9 2.665c0.138 0.126 0.216 0.304 0.216 0.491v6.648c0 0.177-0.070 0.347-0.195 0.472s-0.294 0.195-0.471 0.195zM7.931 9.297l16.049 0.023v-5.688l-2.493-2.292h-13.526l-0.030 7.957z"></path>
<path d="M28.639 12.027c-0.173 0-0.346-0.080-0.466-0.201s-0.201-0.293-0.201-0.466c0-0.187 0.081-0.36 0.201-0.481 0.227-0.24 0.68-0.253 0.947 0 0.12 0.133 0.186 0.294 0.186 0.481 0 0.173-0.066 0.333-0.186 0.466-0.133 0.133-0.307 0.201-0.481 0.201z"></path>
</svg>
