<svg version="1.1" xmlns="http://www.w3.org/2000/svg" width="32" height="32" viewBox="0 0 32 32">
<title>sim_card</title>
<path d="M19.715 26.664h-7.454c-1.621 0-2.939-1.319-2.939-2.94v-10.063c0-1.621 1.318-2.939 2.939-2.939h7.454c1.621 0 2.939 1.318 2.939 2.939v10.063c0 1.621-1.318 2.94-2.939 2.94zM16.704 25.331h3.010c0.885 0 1.605-0.721 1.605-1.607v-10.063c0-0.885-0.72-1.606-1.605-1.606h-7.454c-0.885 0-1.606 0.721-1.606 1.606v10.063c0 0.885 0.721 1.607 1.606 1.607h4.443z"></path>
<path d="M14.001 17.31c-0.369 0-0.667-0.298-0.667-0.667v-5.255c0-0.369 0.298-0.667 0.667-0.667s0.667 0.298 0.667 0.667v5.255c0 0.369-0.298 0.667-0.667 0.667z"></path>
<path d="M18.001 17.31c-0.369 0-0.667-0.298-0.667-0.667v-5.255c0-0.369 0.298-0.667 0.667-0.667s0.667 0.298 0.667 0.667v5.255c0 0.369-0.298 0.667-0.667 0.667z"></path>
<path d="M14.001 26.645c-0.369 0-0.667-0.298-0.667-0.667v-5.255c0-0.369 0.298-0.667 0.667-0.667s0.667 0.298 0.667 0.667v5.255c0 0.369-0.298 0.667-0.667 0.667z"></path>
<path d="M18.001 26.645c-0.369 0-0.667-0.298-0.667-0.667v-5.255c0-0.369 0.298-0.667 0.667-0.667s0.667 0.298 0.667 0.667v5.255c0 0.369-0.298 0.667-0.667 0.667z"></path>
<path d="M26.178 31.997h-20.348c-0.975 0-1.83-0.829-1.83-1.776v-28.461c0-0.956 0.838-1.763 1.83-1.763h15.709c0.445 0 0.896 0.184 1.234 0.505l4.664 4.404c0.358 0.342 0.563 0.796 0.563 1.251v24.065c0 0.962-0.835 1.776-1.822 1.776zM5.83 1.331c-0.246 0-0.497 0.217-0.497 0.43v28.461c0 0.219 0.251 0.443 0.497 0.443h20.348c0.242 0 0.488-0.224 0.488-0.443v-24.065c0-0.086-0.059-0.2-0.146-0.283l-4.663-4.402c-0.094-0.089-0.212-0.141-0.319-0.141h-15.709z"></path>
</svg>
