<svg version="1.1" xmlns="http://www.w3.org/2000/svg" width="32" height="32" viewBox="0 0 32 32">
<title>simple_value_chart_2</title>
<path d="M5.809 26.472c0-5.247 7.203-5.994 7.203-9.45 0-1.456-1.103-2.434-2.644-2.434-1.934 0-2.978 1.875-2.978 1.875l-1.519-1.019c0 0 1.331-2.791 4.641-2.791 2.706 0 4.641 1.688 4.641 4.225 0 4.828-7.016 5.578-7.056 8.931h7.284v1.791h-9.466c-0.063-0.4-0.106-0.772-0.106-1.128z"></path>
<path d="M17.738 25.806h3.247v-9.491c0-0.459 0.022-0.916 0.022-0.916h-0.041c0 0-0.166 0.334-0.706 0.853l-1.375 1.353-1.25-1.291 3.519-3.412h1.831v12.906h3.206v1.791h-8.453v-1.794z"></path>
<path d="M7.95 4.403h0.669l1.091 3.112c0.081 0.237 0.169 0.606 0.169 0.606h0.012c0 0 0.088-0.369 0.169-0.606l1.103-3.112h0.656l-1.622 4.406h-0.619l-1.628-4.406z"></path>
<path d="M13.844 6.838h0.137v-0.056c0-0.519-0.294-0.694-0.694-0.694-0.488 0-0.881 0.306-0.881 0.306l-0.25-0.444c0 0 0.456-0.375 1.178-0.375 0.8 0 1.247 0.438 1.247 1.234v1.997h-0.563v-0.3c0-0.144 0.012-0.25 0.012-0.25h-0.012c0 0-0.256 0.625-1.009 0.625-0.544 0-1.072-0.331-1.072-0.959 0.003-1.041 1.378-1.084 1.906-1.084zM13.147 8.397c0.512 0 0.844-0.537 0.844-1.003v-0.1h-0.156c-0.456 0-1.278 0.031-1.278 0.6-0.003 0.253 0.197 0.503 0.591 0.503z"></path>
<path d="M15.456 4.403h0.606v3.438c0 0.381 0.15 0.45 0.337 0.45 0.056 0 0.106-0.006 0.106-0.006v0.537c0 0-0.094 0.012-0.2 0.012-0.344 0-0.85-0.094-0.85-0.888v-3.544z"></path>
<path d="M17.103 5.65h0.606v1.884c0 0.438 0.087 0.787 0.594 0.787 0.644 0 1.022-0.569 1.022-1.191v-1.478h0.606v3.156h-0.587v-0.419c0-0.131 0.012-0.231 0.012-0.231h-0.012c-0.131 0.313-0.544 0.725-1.159 0.725-0.712 0-1.078-0.375-1.078-1.209v-2.025z"></path>
<path d="M22.238 5.575c0.894 0 1.366 0.662 1.366 1.478 0 0.081-0.019 0.263-0.019 0.263h-2.303c0.031 0.694 0.525 1.041 1.084 1.041 0.544 0 0.934-0.369 0.934-0.369l0.25 0.444c0 0-0.469 0.45-1.222 0.45-0.991 0-1.672-0.719-1.672-1.653 0.003-1.003 0.681-1.653 1.581-1.653zM22.984 6.862c-0.019-0.544-0.356-0.806-0.762-0.806-0.462 0-0.837 0.287-0.922 0.806h1.684z"></path>
</svg>
