<!-- Generated by IcoMoon.io -->
<svg version="1.1" xmlns="http://www.w3.org/2000/svg" width="32" height="32" viewBox="0 0 32 32">
<title>simple_value_chart</title>
<path d="M5.335 3.862h0.911l1.486 4.241c0.111 0.323 0.23 0.826 0.23 0.826h0.017s0.119-0.502 0.23-0.826l1.503-4.241h0.894l-2.21 6.004h-0.844l-2.219-6.004z"></path>
<path d="M13.366 7.179h0.188v-0.077c0-0.707-0.4-0.945-0.945-0.945-0.664-0-1.202 0.418-1.202 0.418l-0.339-0.605s0.622-0.511 1.605-0.511c1.090 0 1.699 0.596 1.699 1.682v2.721h-0.767v-0.408c0-0.003 0-0.006 0-0.009 0-0.117 0.006-0.232 0.018-0.346l-0.001 0.014h-0.017s-0.349 0.852-1.375 0.852c-0.741 0-1.461-0.451-1.461-1.307 0.004-1.418 1.878-1.478 2.598-1.478zM12.417 9.304c0.698 0 1.15-0.732 1.15-1.367v-0.136h-0.213c-0.622 0-1.742 0.043-1.742 0.818-0.004 0.345 0.268 0.685 0.805 0.685z"></path>
<path d="M15.563 3.862h0.826v4.684c0 0.519 0.204 0.613 0.46 0.613 0.051-0 0.102-0.003 0.151-0.009l-0.006 0.001v0.732c-0.081 0.011-0.176 0.017-0.272 0.017h-0c-0.469 0-1.158-0.128-1.158-1.209v-4.829z"></path>
<path d="M17.808 5.561h0.826v2.568c0 0.596 0.119 1.073 0.809 1.073 0.877 0 1.392-0.775 1.392-1.622v-2.014h0.826v4.301h-0.8v-0.571c0-0.002 0-0.004 0-0.005 0-0.109 0.006-0.217 0.018-0.323l-0.001 0.013h-0.017c-0.179 0.426-0.741 0.989-1.58 0.989-0.971 0-1.469-0.511-1.469-1.648v-2.759z"></path>
<path d="M24.804 5.458c1.219 0 1.861 0.902 1.861 2.014 0 0.111-0.025 0.357-0.025 0.357h-3.139c0.043 0.946 0.715 1.418 1.477 1.418 0.741 0 1.273-0.502 1.273-0.502l0.343 0.605s-0.639 0.613-1.665 0.613c-1.35 0-2.278-0.979-2.278-2.252 0.004-1.367 0.928-2.252 2.156-2.252zM25.822 7.213c-0.025-0.741-0.485-1.099-1.039-1.099-0.63 0-1.141 0.392-1.256 1.099z"></path>
<path d="M4.439 24.133v-1.313l6.93-9.644h2.375v9.199h2.034v1.759h-2.034v4.004h-2.057v-4.005zM6.75 22.375h4.938v-5.469l0.085-1.505h-0.043c-0.222 0.477-0.469 0.888-0.755 1.268l0.013-0.018-4.238 5.68z"></path>
<path d="M17.918 28.138q-0.105-0.678-0.105-1.144 0-1.081 0.402-2.013c0.266-0.622 0.62-1.155 1.052-1.614l-0.003 0.003c0.438-0.456 0.905-0.876 1.401-1.26l0.029-0.022q0.784-0.604 1.579-1.134t1.441-1.060c0.41-0.332 0.758-0.721 1.037-1.157l0.012-0.019q0.402-0.646 0.403-1.346 0-1.102-0.763-1.791t-1.95-0.688q-0.911 0-1.727 0.531c-0.54 0.352-0.979 0.815-1.293 1.358l-0.010 0.019-1.547-1.042q0.678-1.25 1.929-2.045t2.819-0.795q2.077 0 3.391 1.188t1.314 3.115c0 0.006 0 0.014 0 0.021 0 0.776-0.197 1.506-0.543 2.143l0.012-0.024q-0.531 0.996-1.325 1.642t-1.727 1.324q-0.932 0.678-1.736 1.207c-0.527 0.345-0.973 0.764-1.336 1.247l-0.010 0.013q-0.541 0.731-0.563 1.515h7.461v1.823z"></path>
</svg>
