<svg version="1.1" xmlns="http://www.w3.org/2000/svg" width="32" height="32" viewBox="0 0 32 32">
<title>simple_value_chart_strong</title>
<path d="M5.335 3.862h0.911l1.486 4.241c0.111 0.323 0.23 0.826 0.23 0.826h0.017s0.119-0.502 0.23-0.826l1.503-4.241h0.894l-2.21 6.004h-0.844l-2.219-6.004z"></path>
<path d="M13.366 7.179h0.188v-0.077c0-0.707-0.4-0.945-0.945-0.945-0.664-0-1.202 0.418-1.202 0.418l-0.339-0.605s0.622-0.511 1.605-0.511c1.090 0 1.699 0.596 1.699 1.682v2.721h-0.767v-0.408c0-0.003 0-0.006 0-0.009 0-0.117 0.006-0.232 0.018-0.346l-0.001 0.014h-0.017s-0.349 0.852-1.375 0.852c-0.741 0-1.461-0.451-1.461-1.307 0.004-1.418 1.878-1.478 2.598-1.478zM12.417 9.304c0.698 0 1.15-0.732 1.15-1.367v-0.136h-0.213c-0.622 0-1.742 0.043-1.742 0.818-0.004 0.345 0.268 0.685 0.805 0.685z"></path>
<path d="M15.563 3.862h0.826v4.684c0 0.519 0.204 0.613 0.46 0.613 0.051-0 0.102-0.003 0.151-0.009l-0.006 0.001v0.732c-0.081 0.011-0.176 0.017-0.272 0.017h-0c-0.469 0-1.158-0.128-1.158-1.209v-4.829z"></path>
<path d="M17.808 5.561h0.826v2.568c0 0.596 0.119 1.073 0.809 1.073 0.877 0 1.392-0.775 1.392-1.622v-2.014h0.826v4.301h-0.8v-0.571c0-0.002 0-0.004 0-0.005 0-0.109 0.006-0.217 0.018-0.323l-0.001 0.013h-0.017c-0.179 0.426-0.741 0.989-1.58 0.989-0.971 0-1.469-0.511-1.469-1.648v-2.759z"></path>
<path d="M24.804 5.458c1.219 0 1.861 0.902 1.861 2.014 0 0.111-0.025 0.357-0.025 0.357h-3.139c0.043 0.946 0.715 1.418 1.477 1.418 0.741 0 1.273-0.502 1.273-0.502l0.343 0.605s-0.639 0.613-1.665 0.613c-1.35 0-2.278-0.979-2.278-2.252 0.004-1.367 0.928-2.252 2.156-2.252zM25.822 7.213c-0.025-0.741-0.485-1.099-1.039-1.099-0.63 0-1.141 0.392-1.256 1.099z"></path>
<path d="M5.315 24.281v-1.664l5.868-9.442h2.906v8.852h1.758v2.255h-1.759v3.857h-2.428v-3.857zM7.915 22.026h3.747v-4.636l0.096-1.56h-0.038q-0.306 0.801-0.669 1.37l-3.135 4.784z"></path>
<path d="M17.682 28.138c-0.070-0.397-0.111-0.856-0.115-1.325l-0-0.003q0-1.096 0.354-2.044t0.906-1.633c0.381-0.467 0.786-0.884 1.223-1.264l0.012-0.011q0.678-0.59 1.357-1.096t1.233-0.991c0.349-0.301 0.649-0.644 0.897-1.025l0.011-0.019q0.353-0.558 0.353-1.148 0-0.948-0.594-1.518t-1.472-0.569q-0.745 0-1.395 0.506c-0.433 0.341-0.786 0.762-1.041 1.243l-0.010 0.021-1.835-1.349c0.431-0.868 1.039-1.589 1.781-2.138l0.016-0.011q1.147-0.844 2.695-0.844 1.854 0 3.135 1.191t1.281 3.235c0 0.010 0 0.022 0 0.034 0 0.644-0.123 1.259-0.346 1.823l0.012-0.034q-0.335 0.853-0.87 1.465c-0.369 0.419-0.76 0.798-1.178 1.145l-0.017 0.014q-0.659 0.548-1.309 1.012t-1.204 0.917c-0.348 0.282-0.648 0.604-0.896 0.965l-0.010 0.015q-0.356 0.527-0.375 1.096h6.403v2.339z"></path>
</svg>
