<svg version="1.1" xmlns="http://www.w3.org/2000/svg" width="32" height="32" viewBox="0 0 32 32">
<title>single_conf</title>
<path d="M24.809 10.2c-0.352 0-0.696-0.068-1.025-0.201-1.38-0.565-2.043-2.149-1.479-3.529 0.553-1.348 2.172-2.035 3.529-1.48 1.381 0.567 2.044 2.149 1.479 3.529-0.419 1.023-1.401 1.681-2.504 1.681zM24.812 6.121c-0.561 0-1.060 0.335-1.272 0.853-0.287 0.7 0.051 1.504 0.749 1.791 0.692 0.28 1.511-0.067 1.791-0.751 0.288-0.7-0.049-1.503-0.749-1.791-0.168-0.068-0.343-0.103-0.519-0.103z"></path>
<path d="M23.299 14.088c-0.055 0-0.111-0.007-0.165-0.021-0.615-0.157-1.183-0.389-1.733-0.708-0.259-0.151-0.387-0.457-0.309-0.748l0.315-1.193c-0.173-0.151-0.336-0.312-0.488-0.484l-1.192 0.325c-0.288 0.076-0.595-0.045-0.749-0.303-0.315-0.528-0.565-1.125-0.725-1.727-0.077-0.291 0.049-0.596 0.308-0.748l1.069-0.621c-0.017-0.229-0.019-0.46-0.004-0.689l-1.072-0.611c-0.26-0.148-0.389-0.453-0.315-0.744 0.155-0.608 0.395-1.191 0.711-1.733 0.151-0.259 0.449-0.387 0.747-0.309l1.193 0.316c0.151-0.173 0.313-0.336 0.485-0.489l-0.325-1.192c-0.080-0.289 0.045-0.596 0.304-0.749 0.532-0.315 1.129-0.565 1.728-0.724 0.289-0.077 0.595 0.051 0.748 0.309l0.621 1.069c0.229-0.017 0.456-0.019 0.688-0.003l0.613-1.072c0.148-0.26 0.456-0.389 0.744-0.315 0.617 0.159 1.184 0.391 1.732 0.711 0.26 0.151 0.387 0.456 0.309 0.747l-0.315 1.195c0.172 0.149 0.335 0.311 0.485 0.483l1.193-0.327c0.293-0.075 0.596 0.047 0.749 0.304 0.319 0.541 0.563 1.123 0.723 1.728 0.077 0.291-0.049 0.596-0.308 0.747l-1.069 0.621c0.016 0.228 0.017 0.456 0.003 0.684l1.069 0.612c0.26 0.148 0.389 0.453 0.315 0.744-0.156 0.615-0.389 1.181-0.709 1.735-0.149 0.259-0.452 0.389-0.748 0.309l-1.193-0.316c-0.149 0.172-0.311 0.335-0.483 0.485l0.327 1.193c0.080 0.289-0.045 0.596-0.304 0.749-0.54 0.32-1.121 0.563-1.728 0.724-0.284 0.077-0.595-0.049-0.748-0.309l-0.621-1.068c-0.228 0.017-0.459 0.019-0.687 0.003l-0.612 1.073c-0.117 0.212-0.34 0.337-0.576 0.337zM22.515 12.439c0.153 0.071 0.308 0.135 0.468 0.191l0.564-0.989c0.137-0.239 0.403-0.371 0.68-0.328 0.404 0.061 0.805 0.057 1.199-0.007 0.275-0.044 0.544 0.084 0.684 0.323l0.573 0.985c0.159-0.057 0.313-0.123 0.467-0.195l-0.301-1.1c-0.073-0.267 0.027-0.551 0.249-0.713 0.324-0.237 0.608-0.524 0.844-0.849 0.163-0.224 0.444-0.325 0.711-0.255l1.101 0.292c0.072-0.155 0.136-0.309 0.192-0.469l-0.989-0.565c-0.24-0.137-0.369-0.407-0.328-0.679 0.060-0.399 0.059-0.803-0.005-1.199-0.044-0.272 0.083-0.544 0.321-0.683l0.985-0.573c-0.057-0.159-0.123-0.315-0.196-0.468l-1.099 0.301c-0.269 0.072-0.551-0.027-0.713-0.249-0.237-0.324-0.524-0.608-0.851-0.844-0.223-0.161-0.324-0.444-0.253-0.711l0.292-1.103c-0.155-0.072-0.309-0.135-0.468-0.192l-0.567 0.989c-0.137 0.24-0.408 0.369-0.68 0.328-0.401-0.061-0.804-0.057-1.197 0.005-0.279 0.045-0.544-0.084-0.684-0.323l-0.573-0.985c-0.157 0.057-0.313 0.124-0.467 0.196l0.3 1.099c0.073 0.267-0.027 0.551-0.251 0.713-0.324 0.237-0.608 0.524-0.845 0.852-0.163 0.223-0.448 0.323-0.711 0.253l-1.1-0.291c-0.072 0.153-0.136 0.308-0.192 0.468l0.989 0.565c0.24 0.137 0.371 0.408 0.328 0.681-0.061 0.395-0.059 0.797 0.007 1.197 0.045 0.273-0.083 0.545-0.321 0.684l-0.985 0.573c0.059 0.159 0.124 0.315 0.195 0.467l1.099-0.3c0.267-0.071 0.551 0.027 0.713 0.249 0.24 0.327 0.527 0.611 0.852 0.844 0.224 0.161 0.325 0.444 0.255 0.712l-0.291 1.1z"></path>
<path d="M13.137 31.099c-6.079 0-12.54-1.716-12.54-4.896 0-2.568 4.24-4.061 8.209-4.601 0.363-0.067 0.7 0.204 0.751 0.571 0.049 0.364-0.205 0.7-0.571 0.749-4.632 0.632-7.056 2.129-7.056 3.281 0 1.683 4.792 3.563 11.207 3.563s11.205-1.88 11.205-3.563c0-1.135-2.379-2.62-6.927-3.263-0.364-0.052-0.617-0.389-0.567-0.753 0.052-0.363 0.381-0.607 0.753-0.567 4.979 0.704 8.073 2.461 8.073 4.584 0 3.179-6.461 4.895-12.539 4.895z"></path>
<path d="M13.137 27.741c-0.368 0-0.667-0.299-0.667-0.667v-7.715c0-0.368 0.299-0.667 0.667-0.667s0.667 0.299 0.667 0.667v7.715c0 0.369-0.299 0.667-0.667 0.667z"></path>
<path d="M13.137 10.4c-1.2 0-1.964-1.412-1.964-2.384 0-1.083 0.881-1.965 1.964-1.965s1.965 0.881 1.965 1.965c-0.001 0.972-0.767 2.384-1.965 2.384zM13.137 7.385c-0.348 0-0.631 0.283-0.631 0.632 0 0.483 0.416 1.049 0.631 1.049s0.632-0.567 0.632-1.051c-0.001-0.348-0.284-0.631-0.632-0.631z"></path>
<path d="M11.477 27.741c-0.351 0-0.645-0.275-0.665-0.631l-0.475-8.559c-0.137-0.021-0.269-0.071-0.391-0.176-0.139-0.121-0.24-0.336-0.247-0.52-0.253-6.748 0.32-7.221 0.596-7.449 0.071-0.059 0.155-0.101 0.243-0.127 0.107-0.031 0.208-0.039 0.72-0.059l0.251-0.012c0.485-0.031 0.945 0.236 1.185 0.7 0.071 0.139 0.273 0.2 0.443 0.2v0c0.169 0 0.371-0.061 0.443-0.2 0.239-0.463 0.705-0.721 1.184-0.7l0.252 0.012c0.511 0.021 0.612 0.028 0.719 0.059 0.089 0.025 0.172 0.069 0.244 0.128 0.276 0.228 0.849 0.701 0.596 7.451-0.007 0.184-0.108 0.399-0.247 0.52-0.124 0.108-0.26 0.157-0.391 0.179l-0.476 8.556c-0.020 0.367-0.332 0.656-0.703 0.629-0.368-0.020-0.649-0.335-0.628-0.701l0.507-9.123c0.009-0.18 0.112-0.395 0.249-0.512 0.12-0.104 0.251-0.155 0.376-0.177 0.121-3.793-0.052-5.185-0.159-5.669-0.047-0.001-0.096-0.003-0.143-0.005l-0.281-0.013c-0.208 0.549-0.832 0.903-1.543 0.903v0c-0.711 0-1.333-0.353-1.627-0.923l-0.197 0.031c-0.047 0.003-0.096 0.004-0.143 0.007-0.108 0.484-0.28 1.876-0.16 5.671 0.132 0.023 0.259 0.072 0.376 0.173 0.139 0.12 0.243 0.339 0.251 0.521l0.505 9.115c0.021 0.367-0.261 0.683-0.628 0.701-0.013 0.001-0.025 0.001-0.037 0.001z"></path>
</svg>
