<svg version="1.1" xmlns="http://www.w3.org/2000/svg" width="32" height="32" viewBox="0 0 32 32">
<title>single_table</title>
<path d="M25.447 3.666v0h-1.262c0 0-0.831-0.003-0.831-0.003s-16.95 0.003-16.95 0.003c-1.362 0-2.397 0.859-2.663 2.116l-0.081 15.431v3.916l0.013 0.447c0.019 1.603 1.159 2.762 2.728 2.762h19.044c1.622 0 2.894-1.231 2.894-2.803v-19.106c0.003-1.575-1.241-2.763-2.891-2.763zM23.488 13.031v-4.041h0.028c0 0 0 0 0 0h3.997v4.041h-1.031c0 0 0 0 0 0h-2.994zM26.1 13.859c0 0 0 0 0 0h1.416v4.041h-0.972c0 0 0 0 0 0h-3.056v-4.041h2.613zM4.5 6.428c0-1.156 0.766-1.934 1.906-1.934h19.044c1.178 0 2.066 0.831 2.066 1.934v1.734h-2.462c0 0 0 0 0 0h-20.553v-1.734zM18.547 17.897v-4.037h4.141v4.041h-4.141zM22.688 18.725v4.041h-4.144v-4.041h4.144zM18.547 13.031v-4.041h4.141v4.041h-4.141zM13.578 17.897v-4.037h4.141v4.041h-4.141zM17.719 18.725v4.041h-4.141v-4.041h4.141zM13.578 13.031v-4.041h4.141v4.041h-4.141zM8.606 17.897v-4.037h4.144v4.041h-4.144zM12.75 18.725v4.041h-4.141v-4.041h4.141zM8.606 13.031v-4.041h4.144v4.041h-4.144zM7.778 27.509h-1.375c-1.122 0-1.906-0.813-1.906-1.975v-1.941h3.281v3.916zM7.778 21.938v0.828h-3.278v-4.041h3.281v3.212zM7.778 17.897h-3.278v-4.037h3.281v4.037zM7.778 13.031h-3.278v-4.041h3.281v4.041zM27.512 25.534c0 1.128-0.887 1.975-2.066 1.975h-1.931v-3.913h-0.828v3.913h-4.141v-3.913h-0.828v3.916h-4.141v-3.919h-0.828v3.916h-4.144v-3.916h18.906v1.941zM27.516 22.766h-4.028v-4.041h2.678c0 0 0 0 0 0h1.35v4.041z"></path>
</svg>
