<!-- Generated by IcoMoon.io -->
<svg version="1.1" xmlns="http://www.w3.org/2000/svg" width="28" height="32" viewBox="0 0 28 32">
<title>skull</title>
<path d="M8 13.866c-2.063 0-3.734 1.672-3.734 3.734s1.672 3.734 3.734 3.734 3.734-1.672 3.734-3.734-1.672-3.734-3.734-3.734zM8 19.2c-0.884 0-1.6-0.716-1.6-1.6s0.716-1.6 1.6-1.6 1.6 0.716 1.6 1.6c0 0.884-0.716 1.6-1.6 1.6z"></path>
<path d="M16 17.6c0 2.063 1.672 3.734 3.734 3.734s3.734-1.672 3.734-3.734-1.672-3.734-3.734-3.734-3.734 1.672-3.734 3.734zM21.334 17.6c0 0.884-0.716 1.6-1.6 1.6s-1.6-0.716-1.6-1.6 0.716-1.6 1.6-1.6c0.881 0 1.6 0.716 1.6 1.6z"></path>
<path d="M14.878 20.997v0c-0.144-0.434-0.553-0.728-1.012-0.728s-0.866 0.294-1.012 0.728l-1.066 3.2c-0.109 0.325-0.053 0.684 0.147 0.962s0.522 0.444 0.866 0.444h2.134c0.344 0 0.666-0.166 0.866-0.444s0.256-0.634 0.147-0.962l-1.069-3.2z"></path>
<path d="M13.841 0c-7.647 0.013-13.841 6.216-13.841 13.866v6.713c0 1.066 0.319 2.106 0.916 2.991s1.447 1.566 2.434 1.962l1.578 0.631c0.166 0.066 0.309 0.172 0.425 0.309 0.112 0.137 0.191 0.3 0.225 0.472l0.669 3.344c0.097 0.484 0.359 0.919 0.741 1.231s0.859 0.484 1.353 0.484h2.325c0 0 0 0 0 0s0 0 0 0h3.197c0 0 0 0 0 0s0 0 0 0h3.197c0 0 0 0 0.003 0s0 0 0.003 0h2.322c0.494 0 0.972-0.169 1.353-0.481s0.644-0.747 0.741-1.231l0.666-3.344c0.034-0.175 0.113-0.337 0.225-0.475s0.259-0.244 0.425-0.309l1.578-0.631c0.991-0.397 1.837-1.078 2.434-1.962s0.916-1.925 0.916-2.991v-6.603c0.009-7.628-6.222-13.988-13.884-13.975zM25.6 20.575c0 0.641-0.191 1.266-0.55 1.794s-0.869 0.941-1.462 1.178l-1.578 0.631c-0.494 0.197-0.931 0.516-1.272 0.925s-0.572 0.897-0.678 1.422l-0.666 3.341h-1.259v-1.066c0-0.591-0.478-1.066-1.066-1.066s-1.069 0.475-1.069 1.066v1.066h-1.066v-1.066c0-0.591-0.478-1.066-1.066-1.066s-1.066 0.478-1.066 1.066v1.066h-1.066v-1.066c0-0.591-0.478-1.066-1.066-1.066s-1.066 0.478-1.066 1.066v1.066h-1.259l-0.669-3.344c-0.103-0.522-0.338-1.009-0.678-1.419s-0.778-0.728-1.272-0.925v0l-1.578-0.631c-0.594-0.238-1.103-0.647-1.462-1.178-0.362-0.525-0.553-1.15-0.553-1.791v-6.713c0-6.472 5.241-11.722 11.713-11.731v0c6.456-0.013 11.756 5.369 11.756 11.844v6.597z"></path>
</svg>
