<!-- Generated by IcoMoon.io -->
<svg version="1.1" xmlns="http://www.w3.org/2000/svg" width="28" height="32" viewBox="0 0 28 32">
<title>skull</title>
<path d="M8 13.867c-2.062 0-3.733 1.671-3.733 3.733s1.671 3.733 3.733 3.733c2.062 0 3.733-1.671 3.733-3.733s-1.671-3.733-3.733-3.733zM6.4 17.6c0-0.884 0.716-1.6 1.6-1.6s1.6 0.716 1.6 1.6c0 0.884-0.716 1.6-1.6 1.6s-1.6-0.716-1.6-1.6z"></path>
<path d="M16 17.6c0-2.062 1.671-3.733 3.733-3.733s3.733 1.671 3.733 3.733c0 2.062-1.671 3.733-3.733 3.733s-3.733-1.671-3.733-3.733zM19.733 16c-0.884 0-1.6 0.716-1.6 1.6s0.716 1.6 1.6 1.6c0.884 0 1.6-0.716 1.6-1.6s-0.716-1.6-1.6-1.6z"></path>
<path d="M14.879 20.996c-0.145-0.436-0.553-0.729-1.012-0.729s-0.867 0.294-1.012 0.729l-1.067 3.2c-0.108 0.325-0.054 0.683 0.147 0.961s0.522 0.443 0.865 0.443h2.133c0.343 0 0.665-0.165 0.865-0.443s0.255-0.636 0.147-0.961l-1.067-3.2z"></path>
<path d="M10.666 32c0 0 0.001 0 0.001 0s0.001 0 0.001 0h3.198c0 0 0.001 0 0.001 0s0.001 0 0.001 0h3.197c0.001 0 0.001 0 0.002 0s0.001 0 0.002 0h2.323c0.493 0.001 0.972-0.17 1.354-0.482s0.644-0.748 0.741-1.233l0.667-3.344c0.035-0.174 0.112-0.337 0.226-0.474s0.259-0.243 0.424-0.309l1.578-0.631c0.99-0.396 1.838-1.079 2.436-1.962s0.917-1.924 0.917-2.99v-6.6c0-7.63-6.231-13.99-13.892-13.976-7.647 0.014-13.841 6.217-13.841 13.867v6.711c0 1.066 0.319 2.107 0.917 2.99s1.446 1.566 2.436 1.962l1.579 0.631c0.165 0.066 0.31 0.172 0.424 0.308s0.191 0.299 0.226 0.473l0.669 3.343c0.097 0.484 0.358 0.919 0.74 1.231s0.859 0.483 1.352 0.483h2.324zM13.845 2.133c6.457-0.012 11.755 5.368 11.755 11.843v6.6c0 0.64-0.192 1.264-0.55 1.794s-0.868 0.94-1.461 1.177l-1.579 0.632c-0.495 0.198-0.932 0.516-1.272 0.926s-0.573 0.898-0.677 1.421l-0.666 3.341h-1.261v-1.067c0-0.589-0.478-1.067-1.067-1.067s-1.067 0.478-1.067 1.067v1.067h-1.067v-1.067c0-0.589-0.478-1.067-1.067-1.067s-1.067 0.478-1.067 1.067v1.067h-1.067v-1.067c0-0.589-0.478-1.067-1.067-1.067s-1.067 0.478-1.067 1.067v1.067h-1.259l-0.669-3.342c-0.104-0.522-0.337-1.010-0.677-1.419s-0.777-0.727-1.272-0.925l-0-0-1.579-0.631c-0.594-0.237-1.103-0.647-1.461-1.177s-0.55-1.154-0.55-1.794v-6.711c0-6.473 5.242-11.722 11.712-11.733z"></path>
</svg>
