<svg version="1.1" xmlns="http://www.w3.org/2000/svg" width="32" height="32" viewBox="0 0 32 32">
<title>slack</title>
<path d="M9.25 19.072c0 1.347-1.1 2.447-2.447 2.447s-2.447-1.1-2.447-2.447 1.1-2.447 2.447-2.447h2.447v2.447z"></path>
<path d="M10.481 19.072c0-1.347 1.1-2.447 2.447-2.447s2.447 1.1 2.447 2.447v6.125c0 1.347-1.1 2.447-2.447 2.447s-2.447-1.1-2.447-2.447c0 0.003 0-6.125 0-6.125z"></path>
<path d="M12.928 9.25c-1.347 0-2.447-1.1-2.447-2.447s1.1-2.447 2.447-2.447 2.447 1.1 2.447 2.447v2.447h-2.447z"></path>
<path d="M12.928 10.481c1.347 0 2.447 1.1 2.447 2.447s-1.1 2.447-2.447 2.447h-6.125c-1.347 0-2.447-1.1-2.447-2.447s1.1-2.447 2.447-2.447c-0.003 0 6.125 0 6.125 0z"></path>
<path d="M22.75 12.928c0-1.347 1.1-2.447 2.447-2.447s2.447 1.1 2.447 2.447-1.1 2.447-2.447 2.447h-2.447v-2.447z"></path>
<path d="M21.519 12.928c0 1.347-1.1 2.447-2.447 2.447s-2.447-1.1-2.447-2.447v-6.125c0-1.347 1.1-2.447 2.447-2.447s2.447 1.1 2.447 2.447v6.125z"></path>
<path d="M19.072 22.75c1.347 0 2.447 1.1 2.447 2.447s-1.1 2.447-2.447 2.447-2.447-1.1-2.447-2.447v-2.447h2.447z"></path>
<path d="M19.072 21.519c-1.347 0-2.447-1.1-2.447-2.447s1.1-2.447 2.447-2.447h6.125c1.347 0 2.447 1.1 2.447 2.447s-1.1 2.447-2.447 2.447h-6.125z"></path>
</svg>
