<svg version="1.1" xmlns="http://www.w3.org/2000/svg" width="32" height="32" viewBox="0 0 32 32">
<title>slideshow</title>
<path d="M23.333 25.339h-14.667c-0.369 0-0.667-0.298-0.667-0.667v-17.333c0-0.369 0.298-0.667 0.667-0.667h14.667c0.369 0 0.667 0.298 0.667 0.667v17.333c0 0.369-0.298 0.667-0.667 0.667zM9.333 24.005h13.333v-15.999h-13.333v15.999z"></path>
<path d="M4.667 24.005c-0.369 0-0.667-0.298-0.667-0.667v-14.667c0-0.369 0.298-0.667 0.667-0.667s0.667 0.298 0.667 0.667v14.667c0 0.369-0.298 0.667-0.667 0.667z"></path>
<path d="M0.667 22.672c-0.369 0-0.667-0.298-0.667-0.667v-12c0-0.369 0.298-0.667 0.667-0.667s0.667 0.298 0.667 0.667v12c0 0.369-0.298 0.667-0.667 0.667z"></path>
<path d="M27.333 24.005c-0.369 0-0.667-0.298-0.667-0.667v-14.667c0-0.369 0.298-0.667 0.667-0.667s0.667 0.298 0.667 0.667v14.667c0 0.369-0.298 0.667-0.667 0.667z"></path>
<path d="M31.333 22.672c-0.369 0-0.667-0.298-0.667-0.667v-12c0-0.369 0.298-0.667 0.667-0.667s0.667 0.298 0.667 0.667v12c0 0.369-0.298 0.667-0.667 0.667z"></path>
</svg>
