<!-- Generated by IcoMoon.io -->
<svg version="1.1" xmlns="http://www.w3.org/2000/svg" width="32" height="32" viewBox="0 0 32 32">
<title>slideshow</title>
<path d="M20.966 6.559c-0.085-0.098-0.166-0.122-0.222-0.122h-9.487c-0.056 0-0.137 0.024-0.222 0.122-0.087 0.1-0.159 0.262-0.159 0.467v17.948c0 0.205 0.072 0.367 0.159 0.467 0.085 0.098 0.166 0.122 0.222 0.122h9.487c0.056 0 0.137-0.024 0.222-0.122 0.087-0.1 0.159-0.262 0.159-0.467v-17.948c0-0.205-0.072-0.367-0.159-0.467zM20.744 4.438c1.442 0 2.381 1.294 2.381 2.588v17.948c0 1.294-0.94 2.588-2.381 2.588h-9.487c-1.442 0-2.382-1.294-2.382-2.588v-17.948c0-1.294 0.94-2.588 2.381-2.588h9.487zM28.125 8c0.552 0 1 0.448 1 1v14c0 0.552-0.448 1-1 1s-1-0.448-1-1v-14c0-0.552 0.448-1 1-1zM25.125 6c0.552 0 1 0.448 1 1v18c0 0.552-0.448 1-1 1s-1-0.448-1-1v-18c0-0.552 0.448-1 1-1zM2.875 23c0 0.552 0.448 1 1 1s1-0.448 1-1v-14c0-0.552-0.448-1-1-1s-1 0.448-1 1v14zM5.875 25c0 0.552 0.448 1 1 1s1-0.448 1-1v-18c0-0.552-0.448-1-1-1s-1 0.448-1 1v18z"></path>
</svg>
