<!-- Generated by IcoMoon.io -->
<svg version="1.1" xmlns="http://www.w3.org/2000/svg" width="32" height="32" viewBox="0 0 32 32">
<title>smiley_sad_face_unhappy</title>
<path d="M13 14.5c0 0.828-0.672 1.5-1.5 1.5s-1.5-0.672-1.5-1.5c0-0.828 0.672-1.5 1.5-1.5s1.5 0.672 1.5 1.5z"></path>
<path d="M16 18c2.839 0 5.226 1.846 5.982 4.364 0.012 0.041 0.019 0.087 0.019 0.136 0 0.276-0.224 0.5-0.5 0.5-0.004 0-0.007-0-0.011-0h-10.98c-0.002 0-0.005 0-0.008 0-0.276 0-0.5-0.224-0.5-0.5 0-0.048 0.007-0.095 0.020-0.139l-0.001 0.004c0.749-2.519 3.138-4.364 5.979-4.364z"></path>
<path d="M22 14.5c0 0.828-0.672 1.5-1.5 1.5s-1.5-0.672-1.5-1.5c0-0.828 0.672-1.5 1.5-1.5s1.5 0.672 1.5 1.5z"></path>
<path fill="none" stroke="#444" stroke-linejoin="miter" stroke-linecap="butt" stroke-miterlimit="10" stroke-width="2" d="M29 16c0 7.18-5.82 13-13 13s-13-5.82-13-13c0-7.18 5.82-13 13-13s13 5.82 13 13z"></path>
</svg>
