<svg version="1.1" xmlns="http://www.w3.org/2000/svg" width="32" height="32" viewBox="0 0 32 32">
<title>smiley_happy_like_face</title>
<path d="M15.999 25.573c-3.197 0-6.14-1.801-7.498-4.589-0.101-0.206-0.088-0.451 0.034-0.645 0.122-0.195 0.335-0.314 0.565-0.314h13.797c0.231 0 0.444 0.119 0.565 0.314 0.122 0.194 0.135 0.439 0.034 0.645-1.358 2.788-4.301 4.589-7.497 4.589zM10.273 21.359c1.283 1.777 3.425 2.88 5.726 2.88s4.443-1.103 5.725-2.88h-11.451z"></path>
<path d="M15.992 31.779c-8.682 0-15.745-7.064-15.745-15.747 0-8.682 7.063-15.745 15.745-15.745s15.745 7.063 15.745 15.745c0 8.683-7.062 15.747-15.745 15.747zM15.992 1.619c-7.947 0-14.412 6.465-14.412 14.412 0 7.948 6.465 14.414 14.412 14.414s14.411-6.466 14.411-14.414c0-7.947-6.465-14.412-14.411-14.412z"></path>
<path d="M11.402 15.992c-1.799 0-3.262-1.463-3.262-3.262s1.464-3.262 3.262-3.262 3.262 1.464 3.262 3.262-1.463 3.262-3.262 3.262zM11.402 10.801c-1.064 0-1.929 0.865-1.929 1.929s0.865 1.928 1.929 1.928c1.063 0 1.928-0.865 1.928-1.928s-0.865-1.929-1.928-1.929z"></path>
<path d="M20.612 15.992c-1.798 0-3.262-1.463-3.262-3.262s1.464-3.262 3.262-3.262 3.262 1.464 3.262 3.262-1.464 3.262-3.262 3.262zM20.612 10.801c-1.064 0-1.928 0.865-1.928 1.929s0.865 1.928 1.928 1.928 1.928-0.865 1.928-1.928c0-1.064-0.865-1.929-1.928-1.929z"></path>
</svg>
