<svg version="1.1" xmlns="http://www.w3.org/2000/svg" width="32" height="32" viewBox="0 0 32 32">
<title>smiley_neutral_face</title>
<path d="M15.999 31.779c-8.682 0-15.745-7.064-15.745-15.747 0-8.682 7.063-15.745 15.745-15.745s15.745 7.063 15.745 15.745c0 8.683-7.063 15.747-15.745 15.747zM15.999 1.619c-7.947 0-14.412 6.465-14.412 14.412 0 7.948 6.465 14.414 14.412 14.414s14.411-6.466 14.411-14.414c0-7.947-6.465-14.412-14.411-14.412z"></path>
<path d="M11.409 15.992c-1.799 0-3.262-1.463-3.262-3.262s1.464-3.262 3.262-3.262 3.262 1.464 3.262 3.262-1.463 3.262-3.262 3.262zM11.409 10.801c-1.064 0-1.929 0.865-1.929 1.929s0.865 1.928 1.929 1.928c1.063 0 1.928-0.865 1.928-1.928s-0.865-1.929-1.928-1.929z"></path>
<path d="M20.619 15.992c-1.798 0-3.262-1.463-3.262-3.262s1.464-3.262 3.262-3.262 3.262 1.464 3.262 3.262-1.464 3.262-3.262 3.262zM20.619 10.801c-1.064 0-1.928 0.865-1.928 1.929s0.865 1.928 1.928 1.928 1.928-0.865 1.928-1.928c0-1.064-0.865-1.929-1.928-1.929z"></path>
<path d="M20.293 22.641h-8.589c-0.369 0-0.667-0.298-0.667-0.667s0.298-0.667 0.667-0.667h8.589c0.369 0 0.667 0.298 0.667 0.667s-0.298 0.667-0.667 0.667z"></path>
</svg>
