<svg version="1.1" xmlns="http://www.w3.org/2000/svg" width="32" height="32" viewBox="0 0 32 32">
<title>smiley_sad_face_unhappy</title>
<path d="M16.005 31.779c-8.682 0-15.745-7.064-15.745-15.747 0-8.682 7.063-15.745 15.745-15.745s15.745 7.063 15.745 15.745c0 8.683-7.063 15.747-15.745 15.747zM16.005 1.619c-7.947 0-14.412 6.465-14.412 14.412 0 7.948 6.465 14.414 14.412 14.414s14.411-6.466 14.411-14.414c0-7.947-6.465-14.412-14.411-14.412z"></path>
<path d="M11.415 15.992c-1.799 0-3.262-1.463-3.262-3.262s1.463-3.262 3.262-3.262 3.262 1.464 3.262 3.262-1.463 3.262-3.262 3.262zM11.415 10.801c-1.063 0-1.928 0.865-1.928 1.929s0.865 1.928 1.928 1.928c1.064 0 1.929-0.865 1.929-1.928s-0.865-1.929-1.929-1.929z"></path>
<path d="M20.625 15.992c-1.799 0-3.263-1.463-3.263-3.262s1.464-3.262 3.263-3.262c1.798 0 3.262 1.464 3.262 3.262s-1.464 3.262-3.262 3.262zM20.625 10.801c-1.064 0-1.93 0.865-1.93 1.929s0.866 1.928 1.93 1.928 1.928-0.865 1.928-1.928c-0-1.064-0.865-1.929-1.928-1.929z"></path>
<path d="M20.643 23.751c-0.272 0-0.527-0.168-0.626-0.437-0.742-2.026-2.316-3.336-4.012-3.336s-3.271 1.31-4.013 3.336c-0.126 0.345-0.51 0.523-0.855 0.397s-0.523-0.509-0.397-0.855c0.937-2.559 3.003-4.211 5.266-4.211s4.328 1.652 5.264 4.211c0.126 0.346-0.051 0.729-0.397 0.855-0.075 0.027-0.153 0.040-0.229 0.040z"></path>
</svg>
