<!-- Generated by IcoMoon.io -->
<svg version="1.1" xmlns="http://www.w3.org/2000/svg" width="32" height="32" viewBox="0 0 32 32">
<title>smiley_sad_face_unhappy</title>
<path d="M13 14.5c0 0.828-0.672 1.5-1.5 1.5s-1.5-0.672-1.5-1.5c0-0.828 0.672-1.5 1.5-1.5s1.5 0.672 1.5 1.5z"></path>
<path d="M10 22.4v0 0z"></path>
<path d="M16 18v0c-2.8 0-5.2 1.8-6 4.4 0 0 0 0.1 0 0.1 0 0.3 0.2 0.5 0.5 0.5 0 0 0 0 0 0h11c0 0 0 0 0 0 0.3 0 0.5-0.2 0.5-0.5 0 0 0-0.1 0-0.1-0.8-2.6-3.2-4.4-6-4.4z"></path>
<path d="M22 14.5c0 0.828-0.672 1.5-1.5 1.5s-1.5-0.672-1.5-1.5c0-0.828 0.672-1.5 1.5-1.5s1.5 0.672 1.5 1.5z"></path>
<path d="M16 2c-7.7 0-14 6.3-14 14s6.3 14 14 14 14-6.3 14-14-6.3-14-14-14zM16 28c-6.6 0-12-5.4-12-12s5.4-12 12-12c6.6 0 12 5.4 12 12s-5.4 12-12 12z"></path>
</svg>
