<svg version="1.1" xmlns="http://www.w3.org/2000/svg" width="32" height="32" viewBox="0 0 32 32">
<title>smoking_allowed_cigarettes</title>
<path d="M30 24h-29.333c-0.369 0-0.667-0.298-0.667-0.667v-5.333c0-0.369 0.298-0.667 0.667-0.667h29.333c0.369 0 0.667 0.298 0.667 0.667v5.333c0 0.369-0.298 0.667-0.667 0.667zM1.333 22.667h28v-4h-28c0 0 0 4 0 4z"></path>
<path d="M27.333 24c-0.369 0-0.667-0.298-0.667-0.667v-5.333c0-0.369 0.298-0.667 0.667-0.667s0.667 0.298 0.667 0.667v5.333c0 0.369-0.298 0.667-0.667 0.667z"></path>
<path d="M10 24c-0.369 0-0.667-0.298-0.667-0.667v-5.333c0-0.369 0.298-0.667 0.667-0.667s0.667 0.298 0.667 0.667v5.333c0 0.369-0.298 0.667-0.667 0.667z"></path>
<path d="M29.675 15.967c-0.34 0-0.63-0.259-0.663-0.605-0.034-0.367 0.236-0.691 0.603-0.726 0.008-0.001 0.415-0.055 0.575-0.398 0.125-0.269 0.271-1.12-1.073-3.178-1.35-2.070-1.822-3.698-1.402-4.841 0.329-0.897 1.066-1.139 1.15-1.163 0.359-0.107 0.725 0.096 0.829 0.449 0.103 0.346-0.089 0.71-0.43 0.823-0.033 0.014-0.217 0.101-0.31 0.385-0.107 0.333-0.198 1.354 1.28 3.618 1.285 1.97 1.661 3.441 1.151 4.497-0.392 0.813-1.22 1.097-1.648 1.137-0.021 0.002-0.042 0.003-0.062 0.003z"></path>
<path d="M25.751 15.967c-0.34 0-0.63-0.259-0.663-0.605-0.034-0.367 0.236-0.691 0.603-0.726 0.102-0.079 0.25-0.451-0.497-1.596-0.832-1.277-1.103-2.263-0.828-3.014 0.231-0.628 0.742-0.809 0.842-0.839 0.355-0.106 0.725 0.096 0.829 0.449 0.1 0.336-0.078 0.689-0.4 0.813-0.064 0.061-0.175 0.563 0.673 1.863 0.792 1.214 1.012 2.144 0.675 2.844-0.345 0.712-1.087 0.801-1.172 0.809-0.021 0.002-0.042 0.003-0.063 0.003z"></path>
</svg>
