<svg version="1.1" xmlns="http://www.w3.org/2000/svg" width="32" height="32" viewBox="0 0 32 32">
<title>smoking_forbidden_cigarettes</title>
<path d="M15.981 31.708c-4.214 0-8.172-1.637-11.144-4.608-6.145-6.146-6.144-16.144 0.001-22.29 2.972-2.973 6.93-4.609 11.145-4.609s8.171 1.637 11.144 4.609c2.973 2.972 4.609 6.93 4.609 11.145s-1.637 8.171-4.609 11.144-6.931 4.609-11.146 4.609zM15.982 1.535c-3.858 0-7.481 1.498-10.202 4.219-5.626 5.626-5.626 14.779-0.001 20.404 2.72 2.72 6.343 4.217 10.201 4.217s7.482-1.497 10.203-4.219c2.72-2.72 4.219-6.344 4.219-10.201s-1.499-7.481-4.219-10.202-6.344-4.219-10.201-4.219z"></path>
<path d="M26.655 27.294c-0.171 0-0.341-0.065-0.471-0.195l-21.346-21.346c-0.26-0.26-0.26-0.682 0-0.943s0.682-0.26 0.943 0l21.346 21.346c0.26 0.26 0.26 0.682 0 0.943-0.13 0.13-0.301 0.195-0.471 0.195z"></path>
<path d="M25.982 20h-20c-0.369 0-0.667-0.298-0.667-0.667v-4c0-0.369 0.298-0.667 0.667-0.667h20c0.369 0 0.667 0.298 0.667 0.667v4c0 0.369-0.298 0.667-0.667 0.667zM6.648 18.667h18.667v-2.667h-18.667v2.667z"></path>
<path d="M23.315 20c-0.369 0-0.667-0.298-0.667-0.667v-4c0-0.369 0.298-0.667 0.667-0.667s0.667 0.298 0.667 0.667v4c0 0.369-0.298 0.667-0.667 0.667z"></path>
<path d="M24.775 13.288c-0.34 0-0.63-0.259-0.663-0.605-0.034-0.367 0.236-0.691 0.603-0.726 0.087-0.069 0.231-0.426-0.497-1.542-0.818-1.255-1.085-2.224-0.813-2.964 0.228-0.621 0.734-0.799 0.833-0.829 0.358-0.102 0.725 0.096 0.829 0.449 0.099 0.335-0.077 0.687-0.397 0.811-0.059 0.064-0.15 0.557 0.664 1.805 0.777 1.193 0.993 2.108 0.66 2.798-0.34 0.704-1.074 0.792-1.158 0.8-0.021 0.002-0.041 0.003-0.062 0.003z"></path>
<path d="M22.155 13.288c-0.34 0-0.63-0.26-0.663-0.605-0.026-0.283 0.129-0.54 0.369-0.659-0.034-0.1-0.107-0.262-0.263-0.502-0.518-0.796-0.68-1.432-0.491-1.945 0.137-0.373 0.431-0.58 0.66-0.648 0.359-0.105 0.725 0.096 0.831 0.448 0.079 0.269-0.017 0.548-0.224 0.713 0.022 0.105 0.095 0.327 0.341 0.704 0.185 0.283 0.747 1.146 0.395 1.876-0.199 0.413-0.605 0.59-0.892 0.617-0.021 0.002-0.042 0.003-0.062 0.003z"></path>
</svg>
