<svg version="1.1" xmlns="http://www.w3.org/2000/svg" width="32" height="32" viewBox="0 0 32 32">
<title>sort_desc</title>
<path d="M7.3 29.2c-0.4 0-0.7-0.3-0.7-0.7v-25.1c0.1-0.4 0.4-0.7 0.7-0.7s0.7 0.3 0.7 0.7v25.2c0 0.3-0.3 0.6-0.7 0.6z"></path>
<path d="M7.3 29.2c-0.2 0-0.4-0.1-0.5-0.2l-4.1-4.1c-0.3-0.3-0.3-0.7 0-0.9 0.3-0.3 0.7-0.3 0.9 0l3.6 3.7 3.6-3.7c0.3-0.3 0.7-0.3 0.9 0 0.3 0.3 0.3 0.7 0 0.9l-3.9 4.1c-0.1 0.2-0.3 0.2-0.5 0.2v0z"></path>
<path d="M28.6 8h-15.9c-0.4 0-0.7-0.3-0.7-0.7s0.3-0.7 0.7-0.7h15.9c0.4 0 0.7 0.3 0.7 0.7s-0.3 0.7-0.7 0.7z"></path>
<path d="M25.3 12h-12.6c-0.4 0-0.7-0.3-0.7-0.7s0.3-0.7 0.7-0.7h12.6c0.4 0 0.7 0.3 0.7 0.7s-0.4 0.7-0.7 0.7z"></path>
<path d="M21.9 16h-9.3c-0.4 0-0.7-0.3-0.7-0.7s0.3-0.7 0.7-0.7h9.3c0.4 0 0.7 0.3 0.7 0.7s-0.3 0.7-0.7 0.7z"></path>
<path d="M18.6 20h-5.9c-0.4 0-0.7-0.3-0.7-0.7s0.3-0.7 0.7-0.7h5.9c0.4 0 0.7 0.3 0.7 0.7s-0.3 0.7-0.7 0.7z"></path>
</svg>
