<!-- Generated by IcoMoon.io -->
<svg version="1.1" xmlns="http://www.w3.org/2000/svg" width="32" height="32" viewBox="0 0 32 32">
<title>sort_asc</title>
<path d="M8 3.4v25.2c0 0.4-0.3 0.7-0.7 0.7s-0.7-0.3-0.7-0.7v-25.2c0.1-0.4 0.4-0.7 0.7-0.7s0.7 0.3 0.7 0.7z"></path>
<path d="M7.3 2.7c0.2 0 0.4 0.1 0.5 0.2l4.1 4.1c0.3 0.3 0.3 0.7 0 0.9-0.3 0.3-0.7 0.3-0.9 0l-3.7-3.6-3.5 3.7c-0.3 0.2-0.7 0.2-1 0-0.3-0.3-0.3-0.7 0-1l4.1-4.1c0.1-0.1 0.3-0.2 0.4-0.2v0z"></path>
<path d="M29.3 24.6c0 0.4-0.3 0.7-0.7 0.7h-15.9c-0.4 0-0.7-0.3-0.7-0.7s0.3-0.7 0.7-0.7h15.9c0.4 0 0.7 0.3 0.7 0.7z"></path>
<path d="M25.9 20.6c0 0.4-0.3 0.7-0.7 0.7h-12.5c-0.4 0-0.7-0.3-0.7-0.7s0.3-0.7 0.7-0.7h12.6c0.3 0 0.6 0.3 0.6 0.7z"></path>
<path d="M22.6 16.6c0 0.4-0.3 0.7-0.7 0.7h-9.3c-0.4 0-0.7-0.3-0.7-0.7s0.3-0.7 0.7-0.7h9.3c0.4 0 0.7 0.3 0.7 0.7z"></path>
<path d="M19.3 12.6c0 0.4-0.3 0.7-0.7 0.7h-5.9c-0.4 0-0.7-0.3-0.7-0.7s0.3-0.7 0.7-0.7h5.9c0.4 0 0.7 0.3 0.7 0.7z"></path>
</svg>
