<!-- Generated by IcoMoon.io -->
<svg version="1.1" xmlns="http://www.w3.org/2000/svg" width="32" height="32" viewBox="0 0 32 32">
<title>sort_redo</title>
<path d="M3.88 32c-0.001 0-0.002 0-0.003 0-0.287 0-0.547-0.117-0.735-0.306l-0-0-2.84-2.88c-0.188-0.189-0.304-0.45-0.304-0.738 0-0.411 0.236-0.766 0.581-0.938l0.006-0.003c0.038-0.020 0.083-0.038 0.129-0.053l0.006-0.002c0.095-0.031 0.205-0.049 0.319-0.049 0.289 0 0.551 0.117 0.741 0.305l-0-0 1.057 1.083v-16.804c0-0.584 0.477-1.080 1.061-1.071 0.568 0.011 1.023 0.473 1.024 1.043v16.835l1.053-1.080c0.19-0.191 0.453-0.31 0.744-0.31 0.086 0 0.169 0.010 0.249 0.030l-0.007-0.001c0.101 0.023 0.19 0.060 0.272 0.108l-0.004-0.002c0.319 0.183 0.53 0.522 0.53 0.91 0 0.288-0.117 0.549-0.305 0.738l0-0-2.836 2.88c-0.188 0.188-0.447 0.305-0.734 0.305-0.001 0-0.003 0-0.004 0h0z"></path>
<path d="M13.613 32c-0.583 0.010-1.060-0.487-1.060-1.071v-16.808l-1.053 1.079c-0.189 0.192-0.453 0.311-0.743 0.311-0.087 0-0.171-0.011-0.252-0.031l0.007 0.002c-0.101-0.023-0.19-0.060-0.271-0.108l0.004 0.002c-0.318-0.183-0.529-0.522-0.529-0.909 0-0.288 0.117-0.549 0.305-0.738l-0 0 2.835-2.876c0.189-0.191 0.451-0.309 0.74-0.309 0.288 0 0.548 0.117 0.737 0.305v0l2.84 2.88c0.188 0.19 0.305 0.451 0.305 0.74 0 0.12-0.020 0.235-0.057 0.343l0.002-0.007c-0.017 0.052-0.036 0.096-0.059 0.139l0.002-0.004c-0.178 0.34-0.529 0.569-0.932 0.569h-0c-0.001 0-0.002 0-0.003 0-0.287 0-0.546-0.116-0.733-0.305l-0-0-1.057-1.084v16.832c0 0.001 0 0.002 0 0.003 0 0.57-0.457 1.034-1.025 1.045h-0.001z"></path>
<path d="M16.603 9.88c0.147-0.001 0.272-0.089 0.327-0.215l0.001-0.002c0.042-0.099 1.068-2.403 4.905-2.858 0.774-0.090 1.676-0.144 2.59-0.148l0.007-0c0.001-0 0.003-0 0.004-0 0.177 0 0.32 0.143 0.32 0.32 0 0 0 0 0 0v0 1.242c0 0 0 0 0 0.001 0 0.495 0.401 0.896 0.896 0.896 0.183 0 0.354-0.055 0.496-0.15l-0.003 0.002 5.398-3.553c0.279-0.186 0.461-0.499 0.461-0.855s-0.182-0.67-0.457-0.853l-0.004-0.002-5.401-3.554c-0.139-0.093-0.309-0.148-0.493-0.148-0.494 0-0.895 0.4-0.896 0.894v1.088c0 0.001 0 0.002 0 0.004 0 0.16-0.117 0.292-0.27 0.316l-0.002 0c-1.992 0.303-8.237 1.694-8.237 7.226 0.001 0.172 0.123 0.315 0.285 0.349l0.002 0c0.010 0.002 0.023 0.002 0.035 0.002s0.024-0.001 0.036-0.003l-0.001 0z"></path>
</svg>
