<!-- Generated by IcoMoon.io -->
<svg version="1.1" xmlns="http://www.w3.org/2000/svg" width="32" height="32" viewBox="0 0 32 32">
<title>sort</title>
<path d="M8.69 31.992c-0.001 0-0.002 0-0.003 0-0.288 0-0.549-0.117-0.737-0.306l-0-0-4.381-4.446c-0.189-0.189-0.306-0.451-0.306-0.74 0-0.578 0.468-1.046 1.046-1.046 0.289 0 0.55 0.117 0.74 0.306v0l2.596 2.66v-27.383c0.014-0.567 0.477-1.021 1.046-1.021s1.032 0.454 1.046 1.019l0 0.001v27.383l2.596-2.66c0.189-0.189 0.451-0.306 0.74-0.306 0.578 0 1.046 0.468 1.046 1.046 0 0.289-0.117 0.55-0.306 0.74v0l-4.381 4.446c-0.188 0.189-0.449 0.307-0.737 0.307-0.001 0-0.002 0-0.003 0h0z"></path>
<path d="M23.31 32.008c-0.577-0.001-1.045-0.468-1.046-1.046v-27.383l-2.595 2.659c-0.189 0.189-0.451 0.307-0.74 0.307-0.578 0-1.046-0.468-1.046-1.046 0-0.289 0.117-0.55 0.306-0.739v0l4.381-4.445c0.189-0.189 0.451-0.307 0.74-0.307s0.55 0.117 0.739 0.307v0l4.383 4.447c0.189 0.189 0.305 0.45 0.305 0.739 0 0.578-0.468 1.046-1.046 1.046h-0c-0.001 0-0.002 0-0.003 0-0.287 0-0.547-0.117-0.735-0.306l-0-0-2.598-2.662v27.383c-0.001 0.577-0.468 1.045-1.046 1.046h-0z"></path>
</svg>
