<!-- Generated by IcoMoon.io -->
<svg version="1.1" xmlns="http://www.w3.org/2000/svg" width="32" height="32" viewBox="0 0 32 32">
<title>sort_desc_carets</title>
<path d="M26.294 18.809c-0.025 0-0.050-0.003-0.063-0.028-0.103-0.031-0.216-0.034-0.313-0.094-0.031-0.003-0.066-0.009-0.097-0.012-4.125-0.044-8.253-0.009-12.378-0.019-2.303-0.006-4.606-0.003-6.906 0-0.975 0-1.756 0.628-1.947 1.541-0.072 0.344-0.025 0.681 0.050 1.016 0.128 0.253 0.256 0.503 0.463 0.709 0.225 0.225 0.444 0.456 0.669 0.688 0.388 0.363 0.766 0.738 1.125 1.125 0.369 0.331 0.703 0.697 1.059 1.041 0.125 0.122 0.244 0.25 0.366 0.375 0.416 0.391 0.819 0.797 1.213 1.212 0.456 0.447 0.916 0.894 1.353 1.359 0.306 0.262 0.572 0.563 0.859 0.844 0.091 0.091 0.197 0.166 0.262 0.281 0.331 0.291 0.625 0.616 0.941 0.925 0.169 0.166 0.331 0.341 0.497 0.509 0.275 0.225 0.503 0.497 0.759 0.741 0.128 0.122 0.247 0.256 0.369 0.387 0.291 0.281 0.625 0.481 1.019 0.575 0.369 0.050 0.731 0.047 1.091-0.078 0.197-0.069 0.359-0.194 0.531-0.303 0.456-0.459 0.913-0.919 1.372-1.378 1.337-1.337 2.672-2.675 4.012-4.009 0.375-0.372 0.725-0.769 1.137-1.106 0.031-0.050 0.072-0.091 0.122-0.122 0.044-0.056 0.084-0.116 0.137-0.169 0.928-0.928 1.856-1.856 2.784-2.784 0.087-0.087 0.172-0.178 0.259-0.269 0.122-0.175 0.216-0.366 0.316-0.553 0.003-0.022 0.009-0.044 0.012-0.063 0.006-0.009 0.012-0.019 0.019-0.028 0.038-0.181 0.066-0.366 0.056-0.55-0.034-0.816-0.422-1.4-1.15-1.762z"></path>
<path d="M8.203 6.972c0.009-0.009 0.019-0.019 0.028-0.028-0.009 0.013-0.019 0.022-0.028 0.028z"></path>
<path d="M9.147 22.872c0.009 0.009 0.019 0.019 0.028 0.028-0.009-0.009-0.019-0.019-0.028-0.028z"></path>
</svg>
