<!-- Generated by IcoMoon.io -->
<svg version="1.1" xmlns="http://www.w3.org/2000/svg" width="35" height="32" viewBox="0 0 35 32">
<title>sort_col_type</title>
<path d="M5.427 31.992c-0.001 0-0.002 0-0.002 0-0.288 0-0.549-0.117-0.737-0.306v0l-4.381-4.446c-0.189-0.189-0.306-0.451-0.306-0.74 0-0.578 0.468-1.046 1.046-1.046 0.289 0 0.55 0.117 0.74 0.306v0l2.596 2.66v-27.383c0.014-0.567 0.477-1.021 1.046-1.021s1.032 0.454 1.046 1.019v27.384l2.596-2.66c0.189-0.189 0.451-0.306 0.74-0.306 0.578 0 1.046 0.468 1.046 1.046 0 0.289-0.117 0.55-0.306 0.74v0l-4.381 4.446c-0.188 0.189-0.449 0.307-0.737 0.307-0.001 0-0.002 0-0.003 0v0z"></path>
<path d="M16.486 8.039v-1.686h1.331v-3.777l-0.716 0.678-1.155-1.217 2.15-2.065h1.557v6.381h1.32v1.686h-4.487z"></path>
<path d="M16.486 18.918v-1.686h1.331v-3.777l-0.716 0.678-1.155-1.216 2.15-2.066h1.557v6.381h1.32v1.686h-4.487z"></path>
<path d="M22.505 20.921v-8.064h1.74v0.375c0.105-0.085 0.224-0.163 0.35-0.229l0.012-0.006c0.323-0.169 0.706-0.268 1.112-0.268 0.007 0 0.015 0 0.022 0h-0.001c0.806 0 1.461 0.296 1.946 0.879 0.473 0.57 0.713 1.316 0.713 2.217 0 0.912-0.256 1.664-0.762 2.229s-1.176 0.864-1.973 0.864c-0.013 0-0.028 0-0.043 0-0.474 0-0.912-0.154-1.267-0.414l0.006 0.004v2.412zM25.441 14.393c-0.007 0-0.015 0-0.024 0-0.307 0-0.582 0.135-0.77 0.349l-0.001 0.001c-0.218 0.238-0.328 0.613-0.328 1.114 0 0.015-0.001 0.033-0.001 0.050 0 0.367 0.118 0.707 0.318 0.983l-0.003-0.005c0.167 0.238 0.441 0.392 0.75 0.392 0.013 0 0.026 0 0.038-0.001h-0.002c0.006 0 0.013 0 0.020 0 0.308 0 0.582-0.142 0.762-0.363l0.001-0.002c0.218-0.256 0.328-0.612 0.328-1.066s-0.107-0.813-0.32-1.078c-0.172-0.229-0.443-0.376-0.748-0.376-0.008 0-0.015 0-0.023 0h0.001z"></path>
<path d="M18.090 31.992c-0.565 0-1.049-0.173-1.439-0.515-0.4-0.35-0.603-0.81-0.603-1.367 0-0.013-0.001-0.028-0.001-0.043 0-0.412 0.138-0.792 0.371-1.095l-0.003 0.004c0.241-0.306 0.561-0.539 0.93-0.669l0.014-0.004c0.298-0.113 0.651-0.206 1.016-0.266l0.033-0.004c0.307-0.049 0.662-0.077 1.023-0.077h0.001c-0.052-0.369-0.288-0.721-0.758-0.721-0.444 0-0.904 0.161-1.371 0.478l-0.236 0.16-0.726-1.408 0.163-0.128c0.293-0.218 0.633-0.394 1-0.509l0.024-0.006c0.376-0.131 0.809-0.207 1.26-0.21h0.001c0.773 0 1.391 0.216 1.836 0.64s0.675 1.216 0.675 1.967v3.648h-1.758v-0.408c-0.094 0.081-0.199 0.156-0.309 0.223l-0.011 0.006c-0.319 0.192-0.704 0.306-1.116 0.306-0.006 0-0.011 0-0.017 0h0.001zM19.456 29.382c-0.716 0-1.558 0.111-1.558 0.611 0 0.001 0 0.002 0 0.003 0 0.126 0.055 0.239 0.142 0.317v0c0.098 0.095 0.237 0.141 0.426 0.141 0.004 0 0.008 0 0.012 0 0.281 0 0.529-0.137 0.683-0.348l0.002-0.002c0.163-0.196 0.27-0.444 0.293-0.716v-0.005z"></path>
<path d="M25.654 31.992c-0.001 0-0.002 0-0.003 0-0.382 0-0.742-0.092-1.061-0.254l0.013 0.006c-0.129-0.065-0.24-0.134-0.344-0.213l0.005 0.004v0.332h-1.761v-8.064h1.856v2.438c0.090-0.065 0.193-0.127 0.3-0.18l0.013-0.006c0.31-0.158 0.676-0.25 1.063-0.25 0.001 0 0.001 0 0.002 0v0c0.806 0 1.461 0.296 1.946 0.879 0.473 0.57 0.713 1.316 0.713 2.217 0 0.912-0.256 1.664-0.762 2.229s-1.18 0.862-1.982 0.862zM25.441 27.465c-0.007 0-0.015 0-0.024 0-0.307 0-0.582 0.135-0.77 0.349l-0.001 0.001c-0.218 0.238-0.328 0.613-0.328 1.114 0 0.015-0.001 0.033-0.001 0.051 0 0.367 0.116 0.706 0.313 0.984l-0.004-0.005c0.192 0.262 0.448 0.39 0.791 0.39 0.006 0 0.013 0 0.020 0 0.308 0 0.583-0.142 0.763-0.363l0.001-0.002c0.217-0.256 0.328-0.612 0.328-1.066s-0.107-0.813-0.32-1.078c-0.172-0.228-0.442-0.374-0.747-0.374-0.008 0-0.016 0-0.024 0h0.001z"></path>
<path d="M32.794 31.992c-0.946 0-1.724-0.299-2.314-0.889s-0.889-1.332-0.889-2.207c0-0.86 0.299-1.6 0.888-2.196s1.369-0.9 2.315-0.9c0.443 0.001 0.868 0.080 1.26 0.226l-0.025-0.008c0.41 0.143 0.758 0.373 1.037 0.669l0.001 0.001 0.133 0.147-0.884 1.35-0.22-0.218c-0.302-0.316-0.728-0.512-1.199-0.512-0.010 0-0.020 0-0.031 0h0.002c-0.422 0-0.752 0.132-1.010 0.406-0.241 0.254-0.39 0.599-0.39 0.978 0 0.016 0 0.032 0.001 0.048v-0.002c0 0.011 0 0.024 0 0.037 0 0.388 0.154 0.74 0.403 0.999v0c0.266 0.28 0.606 0.416 1.042 0.416 0.526 0 0.991-0.203 1.422-0.621l0.239-0.231 0.768 1.408-0.128 0.133c-0.295 0.303-0.654 0.542-1.054 0.697l-0.020 0.007c-0.398 0.165-0.861 0.261-1.346 0.262v0z"></path>
</svg>
