<!-- Generated by IcoMoon.io -->
<svg version="1.1" xmlns="http://www.w3.org/2000/svg" width="35" height="32" viewBox="0 0 35 32">
<title>sort_col_server_order</title>
<path d="M5.427 32c-0.001 0-0.002 0-0.002 0-0.288 0-0.549-0.117-0.737-0.306l-0-0-4.381-4.445c-0.189-0.189-0.307-0.451-0.307-0.74 0-0.578 0.468-1.046 1.046-1.046 0.289 0 0.55 0.117 0.74 0.306v0l2.596 2.661v-27.384c0.014-0.567 0.477-1.021 1.046-1.021s1.032 0.454 1.046 1.019l0 0.001v27.384l2.596-2.661c0.189-0.189 0.451-0.306 0.74-0.306 0.578 0 1.046 0.468 1.046 1.046 0 0.289-0.117 0.55-0.306 0.74v0l-4.381 4.446c-0.188 0.189-0.449 0.307-0.737 0.307-0.001 0-0.002 0-0.003 0h0z"></path>
<path d="M34.537 0h-17.92c-0.353 0-0.64 0.287-0.64 0.64v0 5.12c0 0.353 0.287 0.64 0.64 0.64v0h17.92c0.353 0 0.64-0.287 0.64-0.64v0-5.12c0-0.353-0.287-0.64-0.64-0.64v0z"></path>
<path d="M30.697 12.8h-14.080c-0.353 0-0.64 0.287-0.64 0.64v0 5.12c0 0.353 0.287 0.64 0.64 0.64v0h14.080c0.353 0 0.64-0.287 0.64-0.64v0-5.12c0-0.353-0.287-0.64-0.64-0.64v0z"></path>
<path d="M25.577 25.6h-8.96c-0.353 0-0.64 0.287-0.64 0.64v0 5.12c0 0.353 0.287 0.64 0.64 0.64v0h8.96c0.353 0 0.64-0.287 0.64-0.64v0-5.12c0-0.353-0.287-0.64-0.64-0.64v0z"></path>
</svg>
