<svg version="1.1" xmlns="http://www.w3.org/2000/svg" width="32" height="32" viewBox="0 0 32 32">
<title>sort_desc_alt_carets</title>
<path d="M26.294 18.809c-0.025 0-0.050-0.003-0.063-0.028-0.103-0.031-0.216-0.034-0.313-0.094-0.031-0.003-0.066-0.009-0.097-0.012-4.125-0.044-8.253-0.009-12.378-0.019-2.303-0.006-4.606-0.003-6.906 0-0.975 0-1.756 0.628-1.947 1.541-0.072 0.344-0.025 0.681 0.050 1.016 0.128 0.253 0.256 0.503 0.463 0.709 0.225 0.225 0.444 0.456 0.669 0.688 0.388 0.363 0.766 0.738 1.125 1.125 0.369 0.331 0.703 0.697 1.059 1.041 0.125 0.122 0.244 0.25 0.366 0.375 0.416 0.391 0.819 0.797 1.213 1.212 0.456 0.447 0.916 0.894 1.353 1.359 0.306 0.262 0.572 0.563 0.859 0.844 0.091 0.091 0.197 0.166 0.262 0.281 0.331 0.291 0.625 0.616 0.941 0.925 0.169 0.166 0.331 0.341 0.497 0.509 0.275 0.225 0.503 0.497 0.759 0.741 0.128 0.122 0.247 0.256 0.369 0.387 0.291 0.281 0.625 0.481 1.019 0.575 0.369 0.050 0.731 0.047 1.091-0.078 0.197-0.069 0.359-0.194 0.531-0.303 0.456-0.459 0.913-0.919 1.372-1.378 1.337-1.337 2.672-2.675 4.012-4.009 0.375-0.372 0.725-0.769 1.137-1.106 0.031-0.050 0.072-0.091 0.122-0.122 0.044-0.056 0.084-0.116 0.137-0.169 0.928-0.928 1.856-1.856 2.784-2.784 0.087-0.087 0.172-0.178 0.259-0.269 0.122-0.175 0.216-0.366 0.316-0.553 0.003-0.022 0.009-0.044 0.012-0.063 0.006-0.009 0.012-0.019 0.019-0.028 0.038-0.181 0.066-0.366 0.056-0.55-0.034-0.816-0.422-1.4-1.15-1.762z"></path>
<path d="M13.784 1.316c0.153-0.097 0.269-0.241 0.387-0.369 0.575-0.622 1.266-0.938 2.119-0.853 0.012 0 0.028 0 0.041 0v0c0.022 0.028 0.053 0.025 0.084 0.022 0.475 0.091 0.875 0.322 1.219 0.656 0.212 0.209 0.425 0.419 0.637 0.628 0.306 0.322 0.619 0.637 0.941 0.941 0.434 0.453 0.881 0.897 1.334 1.334 0.303 0.322 0.619 0.637 0.941 0.941 0.012 0.022 0.025 0.041 0.053 0.034 0 0-0.003 0.003-0.003 0.003 0.003 0.013 0.006 0.028 0.012 0.037 0.422 0.422 0.847 0.841 1.269 1.263 0.306 0.322 0.619 0.638 0.941 0.941 0.434 0.453 0.881 0.897 1.334 1.334 0.288 0.303 0.581 0.6 0.887 0.884 0.028 0.037 0.053 0.081 0.106 0.091 0 0-0.003 0.009-0.003 0.009 0.2 0.203 0.394 0.412 0.6 0.609 0.319 0.309 0.522 0.684 0.65 1.106 0.022 0.069 0 0.147 0.038 0.216 0.003 0.137 0.006 0.275 0.009 0.412-0.003 0.075-0.006 0.147-0.009 0.222-0.009 0.025-0.019 0.050-0.025 0.078-0.131 0.656-0.472 1.172-1.031 1.547-0.238 0.159-0.509 0.234-0.778 0.316-0.109 0.012-0.222 0.022-0.331 0.034-0.028 0-0.056-0.003-0.084-0.003-5.981 0-11.963 0-17.944 0-0.241 0-0.481 0.003-0.719-0.037-0.375-0.088-0.725-0.228-1.022-0.488-0.438-0.381-0.709-0.853-0.794-1.428-0.003-0.019-0.013-0.034-0.019-0.050-0.003-0.128-0.006-0.256-0.009-0.387 0.003-0.072 0.006-0.147 0.009-0.219 0.006-0.012 0.016-0.025 0.019-0.037 0.075-0.512 0.319-0.934 0.684-1.297 0.203-0.2 0.4-0.406 0.6-0.613 0.316-0.294 0.619-0.603 0.919-0.916 0.194-0.147 0.331-0.347 0.513-0.509 0.266-0.241 0.513-0.503 0.766-0.756 0.019-0.019 0.034-0.044 0.050-0.063 0.338-0.334 0.678-0.669 1.016-1.003 0.012-0.013 0.012-0.034 0.016-0.050 0.175-0.131 0.322-0.297 0.472-0.45 0.259-0.269 0.537-0.513 0.797-0.781 0.012-0.013 0.022-0.028 0.031-0.044 0.325-0.306 0.637-0.622 0.944-0.944 0.453-0.434 0.897-0.878 1.331-1.331 0.313-0.306 0.622-0.616 0.934-0.925 0.028-0.034 0.044-0.075 0.069-0.106zM15.972 2.394c-0.028 0.025-0.056 0.047-0.084 0.072-0.816 0.816-1.628 1.628-2.444 2.444-0.7 0.703-1.403 1.403-2.103 2.106-0.994 0.994-1.988 1.988-2.978 2.981-0.469 0.472-0.938 0.944-1.406 1.416-0.016 0.016-0.063 0.028-0.013 0.050 0.028 0.012 0.063 0.003 0.097 0.003 5.978 0 11.959 0 17.938 0 0.031 0 0.072 0.019 0.106-0.028-0.413-0.409-0.825-0.822-1.238-1.231-0.331-0.328-0.663-0.656-0.994-0.981-0.009-0.009-0.019-0.019-0.028-0.028-0.45-0.453-0.9-0.909-1.35-1.362-0.306-0.306-0.616-0.609-0.922-0.912-0.031-0.034-0.059-0.069-0.091-0.103-0.519-0.519-1.038-1.041-1.559-1.559-0.934-0.934-1.869-1.869-2.803-2.803-0.034-0.034-0.053-0.122-0.128-0.063z"></path>
<path d="M8.203 6.972c0.009-0.009 0.019-0.019 0.028-0.028-0.009 0.013-0.019 0.022-0.028 0.028z"></path>
<path d="M9.147 22.872c0.009 0.009 0.019 0.019 0.028 0.028-0.009-0.009-0.019-0.019-0.028-0.028z"></path>
</svg>
