<svg version="1.1" xmlns="http://www.w3.org/2000/svg" width="32" height="32" viewBox="0 0 32 32">
<title>sort_initial_carets</title>
<path d="M27.403 20.097c-0.153-0.637-0.512-1.113-1.122-1.384-0.019-0.009-0.034-0.022-0.050-0.031-0.103-0.031-0.206-0.063-0.313-0.094-0.084-0.012-0.166-0.022-0.25-0.034-2.366 0-4.728 0-7.094 0-4.012 0-8.025 0-12.037 0-0.975 0-1.741 0.609-1.941 1.525-0.078 0.35-0.034 0.691 0.047 1.031 0.2 0.512 0.616 0.856 0.984 1.234 0.047 0.047 0.091 0.097 0.134 0.147 0.406 0.381 0.8 0.775 1.181 1.181 0.469 0.45 0.928 0.906 1.378 1.378 0.406 0.381 0.8 0.775 1.181 1.181 0.469 0.447 0.928 0.906 1.375 1.375 0.378 0.375 0.756 0.75 1.134 1.125 0.012 0.012 0.016 0.038 0.025 0.056 0.022 0.012 0.050 0.019 0.066 0.038 0.444 0.447 0.887 0.894 1.331 1.341 0.416 0.394 0.819 0.8 1.216 1.216 0.309 0.291 0.675 0.466 1.091 0.534 0.622 0.047 1.172-0.116 1.625-0.563 0.35-0.359 0.7-0.719 1.066-1.059 0.072-0.134 0.2-0.219 0.306-0.322 0.353-0.353 0.709-0.703 1.063-1.053 0.469-0.469 0.938-0.934 1.406-1.403 0.372-0.375 0.744-0.75 1.116-1.125 0.063-0.063 0.128-0.119 0.194-0.178 0.006-0.009 0.009-0.019 0.016-0.028 0.869-0.872 1.741-1.741 2.606-2.613 0.656-0.659 1.331-1.297 1.962-1.981 0.081-0.156 0.166-0.316 0.247-0.472 0.087-0.341 0.141-0.678 0.056-1.022z"></path>
<path d="M5.769 13.313c0 0 0 0 0 0s0 0 0 0 0 0 0 0z"></path>
<path d="M5.706 13.284c0.025 0 0.050 0.003 0.063 0.028 0.103 0.031 0.216 0.034 0.313 0.094 0.031 0.003 0.066 0.009 0.097 0.012 4.125 0.044 8.253 0.009 12.378 0.019 2.303 0.006 4.606 0.003 6.906 0 0.975 0 1.756-0.625 1.944-1.541 0.072-0.344 0.025-0.681-0.050-1.016-0.128-0.253-0.256-0.503-0.462-0.709-0.225-0.225-0.444-0.456-0.669-0.688-0.387-0.363-0.766-0.738-1.125-1.125-0.369-0.331-0.703-0.697-1.059-1.041-0.125-0.122-0.244-0.25-0.366-0.375-0.416-0.391-0.819-0.797-1.212-1.213-0.456-0.447-0.916-0.894-1.353-1.359-0.306-0.263-0.572-0.563-0.859-0.844-0.091-0.091-0.197-0.166-0.262-0.281-0.331-0.291-0.625-0.616-0.941-0.925-0.166-0.166-0.328-0.337-0.494-0.509-0.275-0.225-0.503-0.497-0.759-0.741-0.128-0.122-0.247-0.256-0.369-0.387-0.291-0.278-0.625-0.481-1.019-0.575-0.369-0.050-0.731-0.047-1.091 0.078-0.197 0.069-0.359 0.194-0.531 0.303-0.456 0.459-0.912 0.919-1.372 1.378-1.338 1.337-2.672 2.675-4.012 4.009-0.375 0.372-0.725 0.769-1.137 1.106-0.031 0.050-0.072 0.091-0.122 0.122-0.044 0.056-0.084 0.116-0.137 0.169-0.928 0.928-1.856 1.856-2.784 2.784-0.088 0.088-0.172 0.178-0.259 0.269-0.122 0.175-0.216 0.366-0.316 0.553-0.003 0.022-0.009 0.044-0.013 0.063-0.006 0.009-0.013 0.019-0.019 0.028-0.037 0.181-0.066 0.366-0.056 0.55 0.031 0.813 0.422 1.4 1.15 1.762z"></path>
</svg>
