<!-- Generated by IcoMoon.io -->
<svg version="1.1" xmlns="http://www.w3.org/2000/svg" width="32" height="32" viewBox="0 0 32 32">
<title>sort_col_alphabet</title>
<path d="M7.588 31.996c-0.001 0-0.002 0-0.004 0-0.288 0-0.549-0.117-0.737-0.306v0l-4.38-4.446c-0.189-0.189-0.306-0.451-0.306-0.74 0-0.578 0.468-1.046 1.046-1.046 0.289 0 0.55 0.117 0.74 0.306v0l2.596 2.66v-27.383c0.014-0.567 0.477-1.021 1.046-1.021s1.032 0.454 1.046 1.019v27.384l2.596-2.66c0.189-0.189 0.451-0.306 0.74-0.306 0.578 0 1.046 0.468 1.046 1.046 0 0.289-0.117 0.55-0.306 0.74v0l-4.381 4.446c-0.188 0.189-0.449 0.307-0.737 0.307-0.001 0-0.002 0-0.003 0v0z"></path>
<path d="M27.434 13.196l-1.118-3.337h-4.437l-1.1 3.337h-2.611l4.628-13.196h2.62l4.628 13.196zM25.669 7.756l-1.116-3.366-0.444-1.743c-0.169 0.723-0.32 1.308-0.448 1.74l-1.133 3.368z"></path>
<path d="M19.121 32v-1.64l5.791-8.31c0.147-0.22 0.303-0.432 0.463-0.629s0.282-0.337 0.369-0.425c-0.213 0.013-0.47 0.020-0.777 0.020h-5.553v-2.214h9.585v1.62l-5.792 8.329c-0.146 0.22-0.302 0.431-0.462 0.629s-0.283 0.337-0.37 0.426c0.216-0.014 0.476-0.021 0.778-0.021h5.938v2.215z"></path>
</svg>
