<!-- Generated by IcoMoon.io -->
<svg version="1.1" xmlns="http://www.w3.org/2000/svg" width="44" height="32" viewBox="0 0 44 32">
<title>speed_up_filled</title>
<path d="M43.474 14.786l-24.285-14.571c-0.201-0.134-0.449-0.214-0.715-0.214s-0.514 0.080-0.72 0.217l0.005-0.003c-0.417 0.254-0.695 0.699-0.714 1.21l-0 0.003v12.092l-14.901-8.941c-0.205-0.138-0.458-0.221-0.73-0.221s-0.525 0.082-0.735 0.224l0.005-0.003c-0.405 0.253-0.673 0.692-0.684 1.194l-0 0.002v20.45c-0 0.004-0 0.010-0 0.015 0 0.503 0.272 0.942 0.677 1.178l0.006 0.003c0.2 0.138 0.448 0.221 0.715 0.221 0.005 0 0.011-0 0.016-0h-0.001c0.007 0 0.015 0 0.023 0 0.258 0 0.497-0.078 0.695-0.213l-0.004 0.003 14.917-8.949v12.090c0 0.001 0 0.003 0 0.004 0 0.518 0.285 0.97 0.707 1.207l0.007 0.004c0.202 0.133 0.449 0.212 0.715 0.212s0.513-0.079 0.72-0.215l-0.005 0.003 24.285-14.571c0.419-0.254 0.698-0.7 0.716-1.212l0-0.003c0-0.001 0-0.003 0-0.004 0-0.519-0.286-0.971-0.709-1.207l-0.007-0.004z"></path>
</svg>
