<svg version="1.1" xmlns="http://www.w3.org/2000/svg" width="32" height="32" viewBox="0 0 32 32">
<title>speech_presentation</title>
<path d="M15.983 6.238c-1.573 0-2.839-1.763-2.839-3.223 0-1.433 1.273-2.598 2.839-2.598s2.839 1.165 2.839 2.598c0 1.46-1.266 3.223-2.839 3.223zM15.983 1.749c-0.83 0-1.506 0.568-1.506 1.265 0 0.79 0.759 1.89 1.506 1.89s1.505-1.1 1.505-1.89c0-0.697-0.676-1.265-1.505-1.265z"></path>
<path d="M23.982 18.667h-16c-0.369 0-0.667-0.298-0.667-0.667s0.298-0.667 0.667-0.667h16c0.369 0 0.667 0.298 0.667 0.667s-0.298 0.667-0.667 0.667z"></path>
<path d="M21.973 15.978c-0.361 0-0.658-0.288-0.667-0.651l-0.081-3.409c0-1.42-1.081-2.706-2.788-3.372-0.617 0.557-1.497 0.879-2.446 0.879v0c-0.958 0-1.844-0.322-2.462-0.879-1.707 0.665-2.788 1.951-2.788 3.356l-0.080 3.425c-0.009 0.367-0.309 0.661-0.682 0.651-0.368-0.009-0.659-0.314-0.651-0.682l0.080-3.409c0-2.087 1.613-3.957 4.107-4.749 0.267-0.083 0.557 0.007 0.729 0.227 0.348 0.449 1.018 0.727 1.748 0.727v0c0.731 0 1.378-0.272 1.732-0.727 0.169-0.221 0.462-0.312 0.728-0.227 2.495 0.792 4.107 2.662 4.107 4.764l0.081 3.394c0.009 0.368-0.283 0.673-0.651 0.682-0.005 0-0.010 0-0.016 0z"></path>
<path d="M18.852 32h-5.863c-0.321 0-0.596-0.229-0.655-0.544l-2.499-13.333c-0.037-0.194 0.016-0.396 0.142-0.548s0.315-0.241 0.513-0.241h10.86c0.198 0 0.387 0.089 0.513 0.241s0.178 0.354 0.142 0.548l-2.499 13.333c-0.059 0.315-0.335 0.544-0.655 0.544zM13.542 30.667h4.756l2.249-12h-9.253l2.249 12z"></path>
<path d="M13.982 18.667c-0.369 0-0.667-0.298-0.667-0.667v-4.223c0-0.158 0.056-0.311 0.158-0.431l1.763-2.082c0.239-0.281 0.661-0.314 0.939-0.077 0.281 0.238 0.315 0.658 0.078 0.939l-1.605 1.895v3.978c-0 0.369-0.298 0.667-0.667 0.667z"></path>
</svg>
