<!-- Generated by IcoMoon.io -->
<svg version="1.1" xmlns="http://www.w3.org/2000/svg" width="45" height="32" viewBox="0 0 45 32">
<title>speed_up_bordered</title>
<path d="M18.551 32c-0.008 0-0.018 0.001-0.028 0.001-0.161 0-0.309-0.051-0.431-0.138l0.002 0.002-0.026-0.017-0.028-0.014c-0.266-0.133-0.458-0.47-0.458-0.801v-13.363l-16.172 9.704c-0.122 0.082-0.272 0.131-0.434 0.131-0.008 0-0.016 0-0.023 0h0.001c-0.006 0-0.012 0-0.019 0-0.17 0-0.327-0.053-0.457-0.144l-0.024-0.016-0.030-0.015c-0.206-0.102-0.424-0.422-0.424-0.78v-21.096c0-0.313 0.174-0.609 0.481-0.813 0.133-0.089 0.297-0.142 0.473-0.142s0.34 0.053 0.476 0.144l-0.003-0.002 0.010 0.007 16.145 9.686v-13.363c0-0.427 0.321-0.705 0.512-0.833 0.129-0.085 0.287-0.136 0.457-0.136s0.328 0.051 0.46 0.138l-0.003-0.002 0.010 0.007 25.096 15.056c0.266 0.133 0.458 0.47 0.458 0.801 0 0.42-0.311 0.696-0.503 0.827l-25.062 15.037c-0.119 0.086-0.268 0.137-0.429 0.137-0.010 0-0.020 0-0.029-0.001h0.001zM19.52 29.345l22.189-13.345-22.189-13.345zM1.909 24.88l14.764-8.88-14.764-8.88z"></path>
</svg>
