<svg version="1.1" xmlns="http://www.w3.org/2000/svg" width="32" height="32" viewBox="0 0 32 32">
<title>spray_color</title>
<path d="M11.943 5.684c-0.244 0-0.479-0.134-0.596-0.367-0.165-0.329-0.033-0.729 0.296-0.895l0.595-0.299c0.325-0.167 0.729-0.034 0.895 0.296 0.165 0.329 0.033 0.729-0.296 0.895l-0.595 0.299c-0.096 0.048-0.198 0.071-0.299 0.071z"></path>
<path d="M8.361 7.49c-0.244 0-0.479-0.134-0.596-0.367-0.166-0.329-0.034-0.729 0.295-0.895l0.716-0.361c0.329-0.168 0.73-0.034 0.895 0.295s0.034 0.729-0.295 0.895l-0.716 0.361c-0.096 0.049-0.199 0.072-0.299 0.072z"></path>
<path d="M4.899 9.234c-0.244 0-0.479-0.134-0.596-0.367-0.166-0.329-0.034-0.73 0.295-0.895l0.596-0.3c0.329-0.168 0.729-0.034 0.895 0.295s0.034 0.73-0.295 0.895l-0.596 0.3c-0.096 0.049-0.199 0.072-0.299 0.072z"></path>
<path d="M12.538 5.385h-0.667c-0.369 0-0.667-0.298-0.667-0.667s0.298-0.667 0.667-0.667h0.667c0.369 0 0.667 0.298 0.667 0.667s-0.298 0.667-0.667 0.667z"></path>
<path d="M8.967 5.385h-0.726c-0.369 0-0.667-0.298-0.667-0.667s0.298-0.667 0.667-0.667h0.726c0.369 0 0.667 0.298 0.667 0.667s-0.298 0.667-0.667 0.667z"></path>
<path d="M5.337 5.385h-0.667c-0.369 0-0.667-0.298-0.667-0.667s0.298-0.667 0.667-0.667h0.667c0.369 0 0.667 0.298 0.667 0.667s-0.298 0.667-0.667 0.667z"></path>
<path d="M12.537 5.385c-0.101 0-0.203-0.023-0.299-0.072l-0.595-0.3c-0.329-0.165-0.461-0.566-0.295-0.895s0.564-0.463 0.895-0.295l0.595 0.3c0.329 0.165 0.461 0.566 0.295 0.895-0.117 0.232-0.352 0.367-0.596 0.367z"></path>
<path d="M9.075 3.641c-0.101 0-0.203-0.023-0.299-0.072l-0.716-0.361c-0.329-0.166-0.461-0.566-0.295-0.895s0.568-0.461 0.895-0.295l0.716 0.361c0.329 0.166 0.461 0.566 0.295 0.895-0.117 0.232-0.352 0.367-0.596 0.367z"></path>
<path d="M5.493 1.835c-0.101 0-0.203-0.023-0.299-0.072l-0.596-0.3c-0.329-0.165-0.461-0.566-0.295-0.895s0.565-0.462 0.895-0.295l0.596 0.3c0.329 0.165 0.461 0.566 0.295 0.895-0.117 0.232-0.352 0.367-0.596 0.367z"></path>
<path d="M21.134 32.004h-8.856c-0.867 0-1.572-0.704-1.572-1.572v-16.857c0-0.867 0.705-1.572 1.572-1.572h8.856c0.867 0 1.572 0.705 1.572 1.572v16.857c0 0.867-0.704 1.572-1.572 1.572zM12.278 13.337c-0.131 0-0.239 0.107-0.239 0.238v16.857c0 0.131 0.107 0.238 0.239 0.238h8.856c0.131 0 0.238-0.107 0.238-0.238v-16.857c0-0.131-0.107-0.238-0.238-0.238h-8.856z"></path>
<path d="M20.706 13.337h-8c-0.369 0-0.667-0.298-0.667-0.667v-0.951c0-2.014 1.762-3.716 3.848-3.716h1.712c2.010 0 3.773 1.635 3.773 3.498v1.169c0 0.369-0.298 0.667-0.667 0.667zM13.372 12.004h6.667v-0.502c0-1.113-1.186-2.165-2.44-2.165h-1.712c-1.34 0-2.515 1.113-2.515 2.383v0.284z"></path>
<path d="M16.706 9.233c-0.369 0-0.667-0.298-0.667-0.667v-2.563c0-0.369 0.298-0.667 0.667-0.667s0.667 0.298 0.667 0.667v2.563c0 0.369-0.298 0.667-0.667 0.667z"></path>
<path d="M18.039 6.671h-2.667c-0.369 0-0.667-0.298-0.667-0.667v-2.667c0-0.369 0.298-0.667 0.667-0.667h2.667c0.369 0 0.667 0.298 0.667 0.667v2.667c0 0.369-0.298 0.667-0.667 0.667zM16.039 5.337h1.333v-1.333h-1.333v1.333z"></path>
</svg>
