<svg version="1.1" xmlns="http://www.w3.org/2000/svg" width="32" height="32" viewBox="0 0 32 32">
<title>stamp</title>
<path d="M28.764 25.025c-0.061 0-0.122-0.008-0.185-0.026-0.353-0.102-0.557-0.471-0.456-0.825 0.613-2.131-0.622-4.365-2.755-4.978l-3.272-0.941c-1.37-0.521-1.783-1.366-1.897-1.986-0.428-2.326 2.604-5.328 3.928-6.512 1.109-1.119 1.546-2.743 1.137-4.316-0.409-1.57-1.581-2.773-3.135-3.221-1.656-0.472-3.348-0.014-4.535 1.23-1.193 1.251-1.575 2.967-1.025 4.591 0.529 2.027 1.173 5.583-0.289 7.133-0.425 0.45-1.216 0.928-2.588 0.659l-3.331-0.956c-1.035-0.299-2.12-0.174-3.059 0.346-0.94 0.52-1.622 1.375-1.919 2.409-0.102 0.353-0.469 0.565-0.825 0.456-0.354-0.102-0.558-0.471-0.456-0.825 0.817-2.838 3.789-4.483 6.628-3.666l3.275 0.942c0.881 0.171 1.2-0.167 1.304-0.279 0.867-0.919 0.56-3.618-0.016-5.837-0.689-2.025-0.183-4.301 1.336-5.893 1.536-1.613 3.727-2.206 5.869-1.591 2.012 0.579 3.529 2.136 4.057 4.166 0.529 2.034-0.035 4.134-1.51 5.619-2.363 2.114-3.74 4.184-3.534 5.302 0.029 0.154 0.116 0.622 1.009 0.965l3.219 0.923c2.839 0.816 4.483 3.79 3.667 6.629-0.084 0.291-0.35 0.482-0.64 0.482z"></path>
<path d="M26.671 32h-22.667c-0.369 0-0.667-0.298-0.667-0.667s0.298-0.667 0.667-0.667h22.667c0.369 0 0.667 0.298 0.667 0.667s-0.298 0.667-0.667 0.667z"></path>
<path d="M28.764 25.025c-0.061 0-0.122-0.008-0.185-0.026l-24.021-6.91c-0.354-0.102-0.558-0.471-0.456-0.825 0.102-0.353 0.473-0.561 0.825-0.456l24.022 6.91c0.353 0.102 0.557 0.471 0.456 0.825-0.085 0.292-0.35 0.482-0.641 0.482z"></path>
<path d="M26.863 26.919c-0.061 0-0.122-0.008-0.184-0.026l-21.517-6.185c-0.353-0.102-0.558-0.471-0.456-0.824l0.649-2.259c0.049-0.171 0.163-0.314 0.318-0.4 0.155-0.085 0.335-0.107 0.507-0.057l21.516 6.186c0.171 0.048 0.314 0.163 0.4 0.318s0.107 0.337 0.057 0.508l-0.65 2.258c-0.085 0.292-0.35 0.482-0.641 0.482zM6.172 19.611l20.236 5.818 0.28-0.977-20.235-5.818-0.281 0.977z"></path>
</svg>
