<svg version="1.1" xmlns="http://www.w3.org/2000/svg" width="32" height="32" viewBox="0 0 32 32">
<title>star_rating_favorite_point</title>
<path d="M16 31.585h-0.001c-4.166 0-8.079-1.619-11.017-4.556-2.938-2.939-4.557-6.85-4.557-11.017 0-4.165 1.619-8.077 4.557-11.016s6.85-4.557 11.016-4.557c4.165 0 8.078 1.619 11.016 4.557 2.939 2.938 4.557 6.85 4.557 11.017 0 4.165-1.617 8.078-4.556 11.016-2.937 2.937-6.85 4.556-11.016 4.556zM15.999 1.773c-3.81 0-7.387 1.48-10.074 4.166s-4.166 6.264-4.166 10.073c0 3.81 1.48 7.388 4.166 10.074s6.264 4.165 10.074 4.165c3.809 0 7.387-1.479 10.074-4.165s4.165-6.263 4.165-10.073c0-3.811-1.481-7.388-4.167-10.074s-6.263-4.166-10.073-4.166z"></path>
<path d="M10.634 24.801c-0.387 0-0.757-0.187-0.989-0.501-0.231-0.313-0.296-0.706-0.182-1.079l1.643-5.372-4.525-3.396c-0.423-0.319-0.591-0.85-0.428-1.353 0.162-0.502 0.608-0.834 1.135-0.845l5.691-0.115 1.867-5.313c0.173-0.495 0.626-0.816 1.152-0.816 0.525 0 0.977 0.32 1.152 0.816l1.866 5.313 5.69 0.115c0.53 0.012 0.975 0.344 1.137 0.847 0.163 0.502-0.005 1.032-0.427 1.35l-4.526 3.397 1.645 5.372c0.115 0.374 0.048 0.767-0.181 1.078-0.233 0.315-0.603 0.503-0.991 0.503v0c-0.245 0-0.482-0.074-0.687-0.216l-4.677-3.22-4.675 3.22c-0.205 0.142-0.444 0.216-0.69 0.216zM15.999 19.888c0.131 0 0.264 0.039 0.378 0.117l4.855 3.344-1.754-5.559c-0.082-0.268 0.013-0.56 0.238-0.729l4.639-3.481-5.827-0.118c-0.279-0.006-0.523-0.184-0.616-0.446l-1.914-5.447-1.914 5.447c-0.092 0.262-0.337 0.439-0.615 0.445l-5.827 0.118 4.639 3.481c0.225 0.169 0.319 0.461 0.237 0.729l-1.686 5.513 4.788-3.298c0.114-0.078 0.246-0.117 0.378-0.117z"></path>
</svg>
