<!-- Generated by IcoMoon.io -->
<svg version="1.1" xmlns="http://www.w3.org/2000/svg" width="32" height="32" viewBox="0 0 32 32">
<title>start</title>
<path d="M8.533 31.6c-0.4 0-0.8-0.133-1.333-0.267-0.933-0.533-1.467-1.467-1.467-2.533v-25.467c0-1.067 0.533-2 1.467-2.533 1.067-0.4 2.133-0.4 2.933 0.267l17.6 12.8c0.667 0.533 1.2 1.333 1.2 2.267s-0.4 1.733-1.2 2.267l-17.6 12.667c-0.4 0.4-1.067 0.533-1.6 0.533zM8.533 1.867c-0.267 0-0.4 0-0.667 0.133-0.533 0.267-0.8 0.8-0.8 1.333v25.467c0 0.533 0.267 1.067 0.8 1.333s1.067 0.267 1.467-0.133l17.6-12.8c0 0 0 0 0 0 0.4-0.267 0.533-0.667 0.533-1.2s-0.267-0.933-0.533-1.2l-17.6-12.667c-0.267-0.133-0.533-0.267-0.8-0.267z"></path>
</svg>
