<svg version="1.1" xmlns="http://www.w3.org/2000/svg" width="32" height="32" viewBox="0 0 32 32">
<title>star_favorite_rating</title>
<path d="M31 12.7c-0.1-0.4-0.5-0.7-1-0.7h-10l-3-9.3c-0.2-0.4-0.6-0.7-1-0.7s-0.8 0.3-1 0.7l-3 9.3h-10c-0.4 0-0.8 0.3-1 0.7-0.1 0.4 0 0.9 0.4 1.1l8.1 5.6-3.1 9.3c-0.1 0.4 0 0.9 0.4 1.1 0.4 0.3 0.8 0.3 1.2 0l8-5.8 8 5.8c0.2 0.1 0.4 0.2 0.6 0.2s0.4-0.1 0.6-0.2c0.4-0.3 0.5-0.7 0.4-1.1l-3.1-9.3 8.1-5.6c0.3-0.2 0.5-0.7 0.4-1.1zM20.7 18.2c-0.4 0.3-0.5 0.7-0.4 1.1l2.4 7-6.1-4.4c-0.2-0.1-0.4-0.2-0.6-0.2s-0.4 0.1-0.6 0.2l-6.1 4.4 2.4-7c0.1-0.4 0-0.9-0.4-1.1l-6.1-4.2h7.5c0.4 0 0.8-0.3 1-0.7l2.3-7.1 2.3 7.1c0.1 0.4 0.5 0.7 1 0.7h7.5l-6.1 4.2z"></path>
</svg>
