<!-- Generated by IcoMoon.io -->
<svg version="1.1" xmlns="http://www.w3.org/2000/svg" width="32" height="32" viewBox="0 0 32 32">
<title>star_favorite_rating_add</title>
<path d="M30.005 11.375c0.5 0 0.9 0.3 1 0.7s-0.1 0.9-0.4 1.1l-8.1 5.6 0.547 1.64c-0.703 0.037-1.376 0.188-2.001 0.435l-0.746-2.175c-0.1-0.4 0-0.8 0.4-1.1l6.1-4.2h-7.5c-0.5 0-0.9-0.3-1-0.7l-2.3-7.1-2.3 7.1c-0.2 0.4-0.6 0.7-1 0.7h-7.5l6.1 4.2c0.4 0.2 0.5 0.7 0.4 1.1l-2.4 7 6.1-4.4c0.2-0.1 0.4-0.2 0.6-0.2s0.4 0.1 0.6 0.2l1.92 1.385c-0.445 0.524-0.808 1.12-1.067 1.769l-1.453-1.054-8 5.8c-0.4 0.3-0.8 0.3-1.2 0-0.4-0.2-0.5-0.7-0.4-1.1l3.1-9.3-8.1-5.6c-0.4-0.2-0.5-0.7-0.4-1.1 0.2-0.4 0.6-0.7 1-0.7h10l3-9.3c0.2-0.4 0.6-0.7 1-0.7s0.8 0.3 1 0.7l3 9.3h10z"></path>
<path d="M24.319 22.080c0-0.458-0.372-0.83-0.83-0.83s-0.83 0.372-0.83 0.83v3.012h-3.012c-0.458 0-0.83 0.372-0.83 0.83s0.372 0.83 0.83 0.83h3.012v3.012c0 0.458 0.372 0.83 0.83 0.83s0.83-0.372 0.83-0.83v-3.012h3.012c0.458 0 0.83-0.372 0.83-0.83s-0.372-0.83-0.83-0.83h-3.012v-3.012z"></path>
</svg>
