<!-- Generated by IcoMoon.io -->
<svg version="1.1" xmlns="http://www.w3.org/2000/svg" width="32" height="32" viewBox="0 0 32 32">
<title>star_favorite_rating_active</title>
<path d="M24 29.8c0 0 0 0 0 0v0 0zM30 12h-10l-3-9.3c-0.2-0.4-0.6-0.7-1-0.7s-0.8 0.3-1 0.7l-3 9.3h-10c-0.6 0-1 0.4-1 1 0 0.3 0.2 0.6 0.4 0.8l8.1 5.6-3.1 9.3c0 0.1-0.1 0.2-0.1 0.3 0 0.6 0.4 1 1 1 0.2 0 0.4-0.1 0.6-0.2l8-5.8 8 5.8c0.2 0.1 0.4 0.2 0.6 0.2 0 0 0 0 0 0 0.6 0 1-0.4 1-1 0-0.1 0-0.2-0.1-0.3l-3.1-9.3 8.1-5.6c0.3-0.2 0.4-0.5 0.4-0.8 0.2-0.5-0.2-1-0.8-1zM6.4 28.7v0c0 0 0 0 0 0v0z"></path>
</svg>
