<svg version="1.1" xmlns="http://www.w3.org/2000/svg" width="32" height="32" viewBox="0 0 32 32">
<title>star_favorite_rating2</title>
<path d="M7.223 30.697c-0.324 0-0.649-0.103-0.93-0.309-0.549-0.402-0.775-1.081-0.575-1.729l2.77-9.057-7.628-5.723c-0.544-0.41-0.76-1.092-0.551-1.74s0.783-1.075 1.462-1.089l9.588-0.194 3.145-8.951c0.223-0.638 0.806-1.051 1.484-1.051 0.676 0 1.258 0.412 1.482 1.051l3.145 8.951 9.587 0.194c0.681 0.014 1.254 0.443 1.464 1.091 0.208 0.647-0.009 1.33-0.552 1.739l-5.271 3.921c-0.294 0.217-0.712 0.16-0.934-0.137-0.22-0.296-0.158-0.714 0.137-0.934l5.268-3.919c0.111-0.082 0.105-0.188 0.082-0.262-0.019-0.061-0.074-0.163-0.221-0.166l-10.048-0.204c-0.279-0.006-0.523-0.184-0.616-0.446l-3.298-9.387c-0.085-0.24-0.344-0.307-0.451-0.001l-3.298 9.388c-0.092 0.262-0.337 0.44-0.615 0.446l-10.049 0.204c-0.147 0.003-0.201 0.105-0.221 0.165-0.024 0.074-0.029 0.18 0.084 0.265l8.001 6.003c0.225 0.169 0.319 0.461 0.237 0.729l-2.907 9.505c-0.041 0.134 0.025 0.216 0.088 0.262 0.053 0.039 0.157 0.090 0.275 0.007l7.552-5.201c0.307-0.207 0.719-0.131 0.927 0.172 0.209 0.303 0.133 0.717-0.171 0.927l-7.551 5.199c-0.271 0.187-0.581 0.281-0.89 0.281z"></path>
<path d="M23.388 30.566c-0.369 0-0.667-0.298-0.667-0.667v-10.462c0-0.369 0.298-0.667 0.667-0.667s0.667 0.298 0.667 0.667v10.462c0 0.369-0.298 0.667-0.667 0.667z"></path>
<path d="M28.62 25.335h-10.462c-0.369 0-0.667-0.298-0.667-0.667s0.298-0.667 0.667-0.667h10.462c0.369 0 0.667 0.298 0.667 0.667s-0.298 0.667-0.667 0.667z"></path>
</svg>
