<!-- Generated by IcoMoon.io -->
<svg version="1.1" xmlns="http://www.w3.org/2000/svg" width="32" height="32" viewBox="0 0 32 32">
<title>stats_real_time</title>
<path d="M4.373 27.612c-0.368 0-0.667-0.299-0.667-0.667v-3.541c0-0.368 0.299-0.667 0.667-0.667s0.667 0.299 0.667 0.667v3.541c0 0.369-0.299 0.667-0.667 0.667z"></path>
<path d="M7.028 27.612c-0.368 0-0.667-0.299-0.667-0.667v-7.025c0-0.368 0.299-0.667 0.667-0.667s0.667 0.299 0.667 0.667v7.025c0 0.369-0.297 0.667-0.667 0.667z"></path>
<path d="M9.684 27.612c-0.368 0-0.667-0.299-0.667-0.667v-5.3c0-0.368 0.299-0.667 0.667-0.667s0.667 0.299 0.667 0.667v5.3c0 0.369-0.299 0.667-0.667 0.667z"></path>
<path d="M12.34 27.612c-0.368 0-0.667-0.299-0.667-0.667v-9.612c0-0.368 0.299-0.667 0.667-0.667s0.667 0.299 0.667 0.667v9.612c0 0.369-0.297 0.667-0.667 0.667z"></path>
<path d="M14.996 27.612c-0.368 0-0.667-0.299-0.667-0.667v-4.284c0-0.368 0.299-0.667 0.667-0.667s0.667 0.299 0.667 0.667v4.284c0 0.369-0.299 0.667-0.667 0.667z"></path>
<path d="M17.652 27.612c-0.368 0-0.667-0.299-0.667-0.667v-5.3c0-0.368 0.299-0.667 0.667-0.667s0.667 0.299 0.667 0.667v5.3c0 0.369-0.299 0.667-0.667 0.667z"></path>
<path d="M20.307 27.612c-0.368 0-0.667-0.299-0.667-0.667v-3.541c0-0.368 0.299-0.667 0.667-0.667s0.667 0.299 0.667 0.667v3.541c0 0.369-0.297 0.667-0.667 0.667z"></path>
<path d="M22.143 30.363h-19.604c-1.352 0-2.453-1.101-2.453-2.453v-14.259c0-1.352 1.101-2.453 2.453-2.453h11.713c0.371 0 0.671 0.3 0.671 0.671s-0.3 0.671-0.671 0.671h-11.713c-0.613 0-1.112 0.499-1.112 1.111v14.257c0 0.613 0.499 1.112 1.112 1.112h19.605c0.612 0 1.111-0.499 1.111-1.112v-5.329c0-0.371 0.3-0.671 0.671-0.671s0.671 0.3 0.671 0.671v5.329c-0.001 1.355-1.1 2.456-2.453 2.456z"></path>
<path d="M23.923 21.589c-4.42 0-8.015-3.596-8.015-8.016s3.595-8.015 8.015-8.015c4.421 0 8.017 3.595 8.017 8.015s-3.596 8.016-8.017 8.016zM23.923 6.9c-3.679 0-6.672 2.993-6.672 6.672 0 3.681 2.993 6.675 6.672 6.675s6.675-2.993 6.675-6.675c0-3.679-2.995-6.672-6.675-6.672z"></path>
<path d="M21.479 16.667c-0.208 0-0.416-0.099-0.544-0.281-0.212-0.301-0.14-0.717 0.16-0.929l2.833-2v-4.724c0-0.368 0.299-0.667 0.667-0.667s0.667 0.299 0.667 0.667v5.068c0 0.217-0.105 0.42-0.283 0.545l-3.116 2.2c-0.115 0.081-0.251 0.121-0.384 0.121z"></path>
</svg>
