<svg version="1.1" xmlns="http://www.w3.org/2000/svg" width="32" height="32" viewBox="0 0 32 32">
<title>steps_upstairs</title>
<path d="M11.315 30.667h-7.333c-0.369 0-0.667-0.298-0.667-0.667s0.298-0.667 0.667-0.667h6.667v-3.333c0-0.369 0.298-0.667 0.667-0.667h4.667v-3.333c0-0.369 0.298-0.667 0.667-0.667h4.667v-3.333c0-0.369 0.298-0.667 0.667-0.667h7.333c0.369 0 0.667 0.298 0.667 0.667s-0.298 0.667-0.667 0.667h-6.667v3.333c0 0.369-0.298 0.667-0.667 0.667h-4.667v3.333c0 0.369-0.298 0.667-0.667 0.667h-4.667v3.333c0 0.369-0.298 0.667-0.667 0.667z"></path>
<path d="M10.156 6.268c-1.43 0-2.594-1.164-2.594-2.594s1.164-2.594 2.594-2.594 2.594 1.163 2.594 2.594-1.164 2.594-2.594 2.594zM10.156 2.413c-0.695 0-1.261 0.565-1.261 1.26s0.566 1.261 1.261 1.261 1.261-0.566 1.261-1.261-0.566-1.26-1.261-1.26z"></path>
<path d="M12.503 23.813c-0.011 0-0.023 0-0.034-0.001-0.368-0.018-0.651-0.331-0.633-0.699l0.2-3.981c0.003-0.060-0.021-0.124-0.066-0.171l-4.079-2.906c-0.561-0.566-0.814-1.232-0.785-1.907l0.178-4.128c0.062-1.441 1.191-2.579 2.569-2.592 0.008 0 0.016 0 0.024 0 0.712 0 1.375 0.281 1.869 0.792 0.492 0.51 0.757 1.208 0.726 1.915l0.43 3.038 2.965-0.738c0.364-0.086 0.719 0.13 0.808 0.486s-0.129 0.719-0.486 0.808l-3.683 0.917c-0.183 0.044-0.378 0.011-0.535-0.095s-0.26-0.273-0.286-0.461l-0.539-3.892c0.009-0.469-0.116-0.799-0.359-1.051s-0.607-0.427-0.922-0.385c-0.658 0.006-1.218 0.596-1.249 1.316l-0.178 4.128c-0.014 0.312 0.103 0.62 0.32 0.844l4.078 2.906c0.389 0.387 0.549 0.809 0.531 1.238l-0.2 3.986c-0.018 0.355-0.312 0.633-0.665 0.633z"></path>
<path d="M5.65 28.263c-0.067 0-0.136-0.010-0.204-0.031-0.35-0.113-0.544-0.488-0.431-0.839l2.828-8.813c0.113-0.352 0.488-0.54 0.839-0.432 0.35 0.113 0.544 0.488 0.431 0.839l-2.828 8.813c-0.091 0.284-0.353 0.463-0.635 0.463z"></path>
<path d="M2.618 15.671c-0.056 0-0.113-0.007-0.17-0.022-0.356-0.093-0.569-0.458-0.475-0.814l1.151-4.385c0.047-0.18 0.167-0.331 0.331-0.419l1.881-1.002c0.326-0.173 0.728-0.049 0.902 0.275 0.173 0.325 0.050 0.729-0.275 0.902l-1.624 0.865-1.077 4.103c-0.078 0.3-0.348 0.497-0.644 0.497z"></path>
</svg>
