<svg version="1.1" xmlns="http://www.w3.org/2000/svg" width="32" height="32" viewBox="0 0 32 32">
<title>stock_money_growth_inflation</title>
<path d="M23.404 32c-0.007 0.001-0.016 0.001-0.026 0h-14.631c-0.191 0-0.374-0.082-0.501-0.227-0.126-0.143-0.185-0.336-0.161-0.526l2.484-19.247h-6.884c-0.278 0-0.527-0.173-0.624-0.433s-0.023-0.553 0.186-0.736l12.388-10.799c0.251-0.219 0.624-0.219 0.877 0.001l12.367 10.799c0.21 0.182 0.283 0.476 0.185 0.736s-0.346 0.432-0.624 0.432h-6.885l2.461 19.066c0.035 0.082 0.055 0.172 0.055 0.267 0 0.369-0.298 0.667-0.667 0.667zM9.505 30.667h13.115l-2.484-19.248c-0.025-0.19 0.034-0.381 0.16-0.525 0.128-0.144 0.31-0.227 0.501-0.227h5.866l-10.59-9.248-10.609 9.248h5.863c0.191 0 0.374 0.083 0.501 0.227s0.185 0.335 0.161 0.525l-2.484 19.248z"></path>
<path d="M8.71 14.667h-5.025c-0.369 0-0.667-0.298-0.667-0.667s0.298-0.667 0.667-0.667h5.025c0.369 0 0.667 0.298 0.667 0.667s-0.298 0.667-0.667 0.667z"></path>
<path d="M28.512 14.667h-5.109c-0.369 0-0.667-0.298-0.667-0.667s0.298-0.667 0.667-0.667h5.109c0.369 0 0.667 0.298 0.667 0.667s-0.298 0.667-0.667 0.667z"></path>
<path d="M16.191 26.046c-0.82 0-1.903-0.451-2.632-1.096-0.275-0.243-0.301-0.664-0.057-0.94 0.244-0.277 0.667-0.302 0.941-0.057 0.482 0.426 1.25 0.76 1.748 0.76 0.698 0 1.266-0.471 1.266-1.051 0-0.176 0-0.645-1.456-1.077-0.73-0.233-2.409-0.768-2.409-2.357 0-1.315 1.166-2.384 2.599-2.384 0.915 0 1.773 0.449 2.238 1.172 0.201 0.309 0.111 0.721-0.199 0.921-0.303 0.202-0.719 0.112-0.921-0.199-0.224-0.345-0.652-0.56-1.119-0.56-0.698 0-1.266 0.471-1.266 1.051 0 0.369 0.249 0.694 1.469 1.082 0.582 0.173 2.396 0.712 2.396 2.352-0 1.315-1.165 2.384-2.599 2.384z"></path>
<path d="M16.191 19.177c-0.369 0-0.667-0.298-0.667-0.667v-0.939c0-0.369 0.298-0.667 0.667-0.667s0.667 0.298 0.667 0.667v0.939c0 0.369-0.298 0.667-0.667 0.667z"></path>
<path d="M16.191 26.984c-0.369 0-0.667-0.298-0.667-0.667v-0.939c0-0.369 0.298-0.667 0.667-0.667s0.667 0.298 0.667 0.667v0.939c0 0.368-0.298 0.667-0.667 0.667z"></path>
</svg>
