<svg version="1.1" xmlns="http://www.w3.org/2000/svg" width="32" height="32" viewBox="0 0 32 32">
<title>stopwatch_training_time</title>
<path d="M15.359 31.908c-7.646 0-13.867-6.22-13.867-13.866s6.221-13.867 13.867-13.867 13.866 6.221 13.866 13.867-6.22 13.866-13.866 13.866zM15.359 5.508c-6.911 0-12.533 5.622-12.533 12.533s5.622 12.533 12.533 12.533c6.91 0 12.533-5.622 12.533-12.533s-5.622-12.533-12.533-12.533z"></path>
<path d="M15.359 20.25c-1.217 0-2.208-0.991-2.208-2.208s0.991-2.208 2.208-2.208 2.208 0.991 2.208 2.208-0.991 2.208-2.208 2.208zM15.359 17.167c-0.482 0-0.875 0.392-0.875 0.875s0.393 0.875 0.875 0.875 0.875-0.392 0.875-0.875-0.393-0.875-0.875-0.875z"></path>
<path d="M15.359 17.167c-0.369 0-0.667-0.298-0.667-0.667v-8.409c0-0.369 0.298-0.667 0.667-0.667s0.667 0.298 0.667 0.667v8.409c0 0.369-0.299 0.667-0.667 0.667z"></path>
<path d="M15.359 5.508c-0.369 0-0.667-0.298-0.667-0.667v-3.262c0-0.369 0.298-0.667 0.667-0.667s0.667 0.298 0.667 0.667v3.262c0 0.368-0.298 0.667-0.667 0.667z"></path>
<path d="M24.693 9.374c-0.171 0-0.341-0.065-0.471-0.195-0.26-0.26-0.26-0.682 0-0.943l3.757-3.756c0.26-0.26 0.682-0.26 0.943 0s0.26 0.682 0 0.943l-3.757 3.756c-0.13 0.13-0.301 0.195-0.471 0.195z"></path>
<path d="M29.723 6.891c-0.171 0-0.341-0.065-0.471-0.195l-2.547-2.546c-0.26-0.26-0.26-0.682 0-0.943s0.682-0.26 0.943 0l2.547 2.546c0.26 0.26 0.26 0.682 0 0.943-0.13 0.13-0.301 0.195-0.471 0.195z"></path>
</svg>
