<!-- Generated by IcoMoon.io -->
<svg version="1.1" xmlns="http://www.w3.org/2000/svg" width="32" height="32" viewBox="0 0 32 32">
<title>stopwatch_training_time</title>
<path d="M17 14.2v-4.7c0-0.6-0.4-1-1-1s-1 0.4-1 1v4.7c-1.2 0.4-2 1.5-2 2.8 0 1.7 1.3 3 3 3s3-1.3 3-3c0-1.3-0.8-2.4-2-2.8zM16 18c-0.6 0-1-0.4-1-1s0.4-1 1-1 1 0.4 1 1c0 0.6-0.4 1-1 1z"></path>
<path d="M17.5 5.1v-0.6c0-0.8-0.7-1.5-1.5-1.5s-1.5 0.7-1.5 1.5v0.6c-1.9 0.2-3.7 0.9-5.3 2l-0.6-0.7c-0.6-0.5-1.6-0.5-2.2 0-0.5 0.6-0.5 1.6 0 2.2l0.6 0.5c-1.9 2.1-3 4.9-3 7.9 0 6.6 5.4 12 12 12s12-5.4 12-12c0-6.1-4.6-11.2-10.5-11.9zM16 27c-5.5 0-10-4.5-10-10s4.5-10 10-10c5.5 0 10 4.5 10 10s-4.5 10-10 10z"></path>
</svg>
