<svg version="1.1" xmlns="http://www.w3.org/2000/svg" width="32" height="32" viewBox="0 0 32 32">
<title>store_shop_shopping</title>
<path d="M28.648 32h-25.333c-0.369 0-0.667-0.298-0.667-0.667v-17.316c0-0.369 0.298-0.667 0.667-0.667s0.667 0.298 0.667 0.667v16.649h24v-16.649c0-0.369 0.298-0.667 0.667-0.667s0.667 0.298 0.667 0.667v17.316c0 0.369-0.298 0.667-0.667 0.667z"></path>
<path d="M13.982 32h-5.333c-0.369 0-0.667-0.298-0.667-0.667v-12c0-0.369 0.298-0.667 0.667-0.667h5.333c0.369 0 0.667 0.298 0.667 0.667v12c0 0.369-0.298 0.667-0.667 0.667zM9.315 30.667h4v-10.667h-4v10.667z"></path>
<path d="M23.349 24.003h-5.303c-0.369 0-0.667-0.298-0.667-0.667v-3.973c0-0.369 0.298-0.667 0.667-0.667h5.303c0.369 0 0.667 0.298 0.667 0.667v3.973c0 0.368-0.298 0.667-0.667 0.667zM18.712 22.669h3.97v-2.639h-3.97v2.639z"></path>
<path d="M15.98 12.094c-0.957 0-1.853-0.326-2.525-0.918-0.192-0.169-0.361-0.355-0.508-0.558-1.287 1.779-4.070 1.868-5.554 0.557-0.192-0.169-0.362-0.356-0.508-0.559-1.287 1.775-4.075 1.868-5.559 0.559-0.765-0.676-1.17-1.628-1.17-2.755 0-0.148 0.049-0.293 0.141-0.41l4.964-6.359c0.126-0.162 0.32-0.257 0.525-0.257h20.411c0.206 0 0.4 0.095 0.526 0.258l4.941 6.359c0.091 0.117 0.141 0.26 0.141 0.409 0 3.932-4.908 4.712-6.731 2.195-1.289 1.783-4.074 1.87-5.557 0.56-0.193-0.169-0.362-0.355-0.508-0.558-0.704 0.975-1.872 1.476-3.032 1.477zM13.615 8.421c0 0.732 0.249 1.339 0.721 1.755 1.217 1.074 4.010 0.715 4.010-1.755 0-0.369 0.298-0.667 0.667-0.667s0.667 0.298 0.667 0.667c0 0.732 0.25 1.339 0.721 1.755 1.22 1.076 4.008 0.716 4.008-1.755 0-0.369 0.298-0.667 0.667-0.667s0.667 0.298 0.667 0.667c0 1.615 1.19 2.337 2.37 2.337 1.121 0 2.251-0.658 2.354-2.119l-4.594-5.911h-19.759l-4.615 5.912c0.045 0.635 0.288 1.162 0.711 1.535 1.225 1.081 4.011 0.721 4.012-1.755 0-0.369 0.298-0.667 0.667-0.667s0.667 0.298 0.667 0.667c0 0.732 0.249 1.339 0.721 1.755 1.219 1.076 4.007 0.716 4.007-1.755 0-0.369 0.298-0.667 0.667-0.667s0.667 0.298 0.667 0.667z"></path>
</svg>
