<svg version="1.1" xmlns="http://www.w3.org/2000/svg" width="32" height="32" viewBox="0 0 32 32">
<title>store_shop_shopping2</title>
<path d="M27.372 32h-22.825c-0.369 0-0.667-0.298-0.667-0.667v-8.026c0-0.369 0.298-0.667 0.667-0.667h22.825c0.369 0 0.667 0.298 0.667 0.667v8.026c0 0.369-0.298 0.667-0.667 0.667zM5.214 30.667h21.492v-6.693h-21.492v6.693z"></path>
<path d="M9.908 14.428c-1.163 0-2.335-0.503-3.042-1.482-1.825 2.529-6.745 1.74-6.745-2.199 0-0.161 0.059-0.317 0.165-0.439l4.183-4.785c0.127-0.145 0.31-0.228 0.502-0.228l22.026 0.001c0.193 0 0.375 0.083 0.501 0.228l4.182 4.784c0.107 0.122 0.165 0.277 0.165 0.439 0 1.128-0.406 2.083-1.176 2.76-0.672 0.593-1.57 0.919-2.529 0.919v0c-1.163 0-2.333-0.503-3.040-1.481-1.413 1.958-4.668 1.956-6.078 0-1.411 1.956-4.665 1.957-6.078 0-0.706 0.978-1.876 1.482-3.037 1.482zM7.533 10.747c0 1.622 1.193 2.347 2.375 2.347 1.18 0 2.37-0.725 2.37-2.347 0-0.369 0.298-0.667 0.667-0.667s0.667 0.298 0.667 0.667c0 1.621 1.192 2.347 2.374 2.347 1.18 0 2.372-0.726 2.372-2.347 0-0.369 0.298-0.667 0.667-0.667s0.667 0.298 0.667 0.667c0 1.621 1.193 2.347 2.374 2.347 1.18 0 2.371-0.726 2.371-2.347 0-0.369 0.298-0.667 0.667-0.667s0.667 0.298 0.667 0.667c0 1.621 1.191 2.346 2.374 2.346v0c0.624 0 1.225-0.214 1.647-0.587 0.421-0.37 0.665-0.893 0.715-1.52l-3.809-4.357h-21.421l-3.81 4.357c0.112 1.453 1.243 2.107 2.365 2.107 1.18 0 2.371-0.726 2.371-2.347 0-0.369 0.298-0.667 0.667-0.667s0.667 0.298 0.667 0.667z"></path>
<path d="M27.372 32h-22.825c-0.369 0-0.667-0.298-0.667-0.667v-14.431c0-0.369 0.298-0.667 0.667-0.667s0.667 0.298 0.667 0.667v13.764h21.492v-13.783c0-0.369 0.298-0.667 0.667-0.667s0.667 0.298 0.667 0.667v14.449c0 0.369-0.298 0.667-0.667 0.667z"></path>
<path d="M26.986 6.63c-0.369 0-0.667-0.298-0.667-0.667v-1.99h-20.718v1.99c0 0.369-0.298 0.667-0.667 0.667s-0.667-0.298-0.667-0.667v-2.656c0-0.369 0.298-0.667 0.667-0.667h22.051c0.369 0 0.667 0.298 0.667 0.667v2.656c0 0.368-0.298 0.667-0.667 0.667z"></path>
</svg>
