<!-- Generated by IcoMoon.io -->
<svg version="1.1" xmlns="http://www.w3.org/2000/svg" width="32" height="32" viewBox="0 0 32 32">
<title>store_shop_shopping</title>
<path fill="none" stroke-linejoin="round" stroke-linecap="round" stroke-miterlimit="4" stroke-width="2" stroke="#000" d="M28 28v-13M4 15v13M23.904 3h-15.809c-1.362 0-2.592 0.75-3.121 1.904l-2.706 5.909c-0.911 1.988 0.602 4.241 2.949 4.313h0.125c1.962 0 3.553-1.574 3.553-3.264 0 1.688 1.591 3.264 3.554 3.264s3.55-1.461 3.55-3.264c0 1.688 1.591 3.264 3.553 3.264s3.554-1.461 3.554-3.264c0 1.803 1.591 3.264 3.553 3.264h0.122c2.348-0.073 3.861-2.326 2.949-4.313l-2.706-5.909c-0.529-1.154-1.759-1.904-3.121-1.904zM2 29h28M8.5 18h5c0.828 0 1.5 0.672 1.5 1.5v0 5.5h-8v-5.5c0-0.828 0.672-1.5 1.5-1.5v0zM18 29v-9.5c0-0.828 0.672-1.5 1.5-1.5v0h4c0.828 0 1.5 0.672 1.5 1.5v0 9.5"></path>
</svg>
