<!-- Generated by IcoMoon.io -->
<svg version="1.1" xmlns="http://www.w3.org/2000/svg" width="32" height="32" viewBox="0 0 32 32">
<title>store_shop_shopping</title>
<path d="M30 28h-1v-12.5c0.6-0.3 1-0.8 1.4-1.4 0.7-1.1 0.8-2.5 0.2-3.7l-2.7-5.9c-0.7-1.5-2.2-2.5-4-2.5h-15.8c-1.8 0-3.3 1-4 2.5l-2.7 5.9c-0.6 1.2-0.5 2.6 0.2 3.7 0.4 0.6 0.8 1 1.4 1.4v12.5h-1c-0.6 0-1 0.4-1 1s0.4 1 1 1h28c0.6 0 1-0.4 1-1s-0.4-1-1-1zM24 28h-5v-8.5c0-0.3 0.2-0.5 0.5-0.5h4c0.3 0 0.5 0.2 0.5 0.5v8.5zM27 28h-1v-8.5c0-1.4-1.1-2.5-2.5-2.5h-4c-1.4 0-2.5 1.1-2.5 2.5v8.5h-12v-11.9c0.1 0 0.1 0 0.2 0h0.1c1.4 0 2.7-0.6 3.6-1.6 0.8 1 2.1 1.6 3.6 1.6 1.4 0 2.7-0.6 3.6-1.6 0.8 1 2.1 1.6 3.5 1.6s2.7-0.6 3.6-1.6c0.8 1 2.1 1.6 3.6 1.6h0.2c0.1 0 0.1 0 0.2 0v11.9zM28.7 13.1c-0.4 0.6-1.1 1.1-1.9 1.1h-0.1c-1.4 0-2.6-1-2.6-2.3 0-0.6-0.4-1-1-1s-1 0.4-1 1c0 1.2-1.1 2.3-2.6 2.3s-2.6-1.2-2.6-2.3c0-0.6-0.4-1-1-1s-1 0.4-1 1c0 1.2-1.1 2.3-2.5 2.3-1.5 0-2.6-1.2-2.6-2.3 0-0.6-0.4-1-1-1s-1 0.4-1 1c0 1.1-1.1 2.3-2.6 2.3h-0.1c-0.8 0-1.5-0.4-1.9-1.1-0.4-0.6-0.4-1.2-0.1-1.8l2.7-5.9c0.5-0.9 1.3-1.4 2.3-1.4h15.8c1 0 1.8 0.5 2.2 1.3l2.7 5.9c0.3 0.6 0.2 1.3-0.1 1.9z"></path>
<path d="M13.5 17h-5c-1.4 0-2.5 1.1-2.5 2.5v5.5c0 0.6 0.4 1 1 1h8c0.6 0 1-0.4 1-1v-5.5c0-1.4-1.1-2.5-2.5-2.5zM14 24h-6v-4.5c0-0.3 0.2-0.5 0.5-0.5h5c0.3 0 0.5 0.2 0.5 0.5v4.5z"></path>
</svg>
