<svg version="1.1" xmlns="http://www.w3.org/2000/svg" width="32" height="32" viewBox="0 0 32 32">
<title>streaming_data</title>
<path d="M28.2 4.866c-1.866 0-3.334 1.466-3.334 3.334 0 0.8 0.266 1.6 0.8 2.134l-2.8 3.734c-0.4-0.266-0.934-0.4-1.466-0.4-1.466 0-2.666 0.934-3.2 2.134l-3.734-0.666c0-1.866-1.466-3.334-3.334-3.334s-3.334 1.466-3.334 3.334c0 0.8 0.266 1.466 0.8 2.134l-3.066 3.6c-0.534-0.266-1.066-0.4-1.6-0.4-1.866 0-3.334 1.466-3.334 3.334s1.466 3.334 3.334 3.334 3.334-1.466 3.334-3.334c0-0.8-0.266-1.466-0.8-2.134l3.066-3.6c0.4 0.266 1.066 0.4 1.6 0.4 1.466 0 2.666-0.934 3.2-2.134l3.734 0.663c0 1.866 1.466 3.334 3.334 3.334s3.334-1.469 3.334-3.334c0-0.934-0.4-1.6-0.934-2.266l2.666-3.6c0.4 0.266 0.934 0.4 1.6 0.4 1.866 0 3.334-1.466 3.334-3.334s-1.334-3.334-3.2-3.334v0zM3.8 25.8c-1.066 0-2-0.934-2-2s0.934-2 2-2 2 0.934 2 2-0.8 2-2 2zM11.134 17.134c-1.066 0-2-0.934-2-2s0.934-2 2-2 2 0.934 2 2-0.934 2-2 2zM21.4 19.134c-1.066 0-2-0.934-2-2s0.934-2 2-2 2 0.934 2 2-0.934 2-2 2zM28.2 10.2c-1.066 0-2-0.934-2-2s0.934-2 2-2 2 0.934 2 2-0.934 2-2 2z"></path>
</svg>
