<svg version="1.1" xmlns="http://www.w3.org/2000/svg" width="32" height="32" viewBox="0 0 32 32">
<title>string</title>
<path d="M10.9 15.1c1 0 1.7 0.7 1.7 1.7s-0.7 1.7-1.7 1.7-1.7-0.7-1.7-1.7 0.8-1.7 1.7-1.7z"></path>
<path d="M16 15.1c1 0 1.7 0.7 1.7 1.7s-0.7 1.7-1.7 1.7-1.7-0.7-1.7-1.7 0.7-1.7 1.7-1.7z"></path>
<path d="M21.1 15.1c1 0 1.7 0.7 1.7 1.7s-0.7 1.7-1.7 1.7-1.7-0.7-1.7-1.7c-0.1-1 0.7-1.7 1.7-1.7z"></path>
<path d="M23.7 9.2c-0.3 0-0.5-0.2-0.5-0.5v-0.9c0-0.3 0.2-0.5 0.5-0.5 0.2 0 0.2-0.1 0.3-0.1 0.1-0.2 0.2-0.5 0.2-0.8h-1c-0.3 0-0.5-0.2-0.5-0.5v-2.5c0-0.3 0.2-0.5 0.5-0.5h2.7c0.3 0 0.5 0.2 0.5 0.5v2.4c0 2.3-0.9 3.4-2.7 3.4v0z"></path>
<path d="M27.9 9.2c-0.3 0-0.5-0.2-0.5-0.5v-0.9c0-0.3 0.2-0.5 0.5-0.5 0.2 0 0.2-0.1 0.3-0.1 0.1-0.2 0.2-0.5 0.2-0.8h-1c-0.2 0.1-0.4-0.2-0.4-0.4v-2.6c0-0.3 0.2-0.5 0.5-0.5h2.7c0.3 0 0.5 0.2 0.5 0.5v2.4c-0.2 2.3-1 3.4-2.8 3.4v0z"></path>
<path d="M8.3 9.2c-1.7 0-2.6-1.2-2.6-3.5v-2.3c0-0.3 0.2-0.5 0.5-0.5h2.7c0.3 0 0.5 0.2 0.5 0.5v2.6c0 0.3-0.2 0.5-0.5 0.5h-1c0 0.3 0 0.7 0.2 0.8 0 0 0.1 0.1 0.3 0.1 0.3 0 0.5 0.2 0.5 0.5v0.9c-0.2 0.2-0.4 0.4-0.6 0.4v0z"></path>
<path d="M4.1 9.2c-1.7 0-2.6-1.2-2.6-3.5v-2.3c0-0.3 0.2-0.5 0.5-0.5h2.7c0.1 0 0.3 0.2 0.3 0.5v2.6c0 0.3-0.2 0.5-0.5 0.5h-1c0 0.3 0 0.7 0.2 0.8 0 0 0.1 0.1 0.3 0.1 0.3 0 0.5 0.2 0.5 0.5v0.9c0.1 0.2-0.2 0.4-0.4 0.4v0z"></path>
</svg>
