<svg version="1.1" xmlns="http://www.w3.org/2000/svg" width="32" height="32" viewBox="0 0 32 32">
<title>structure_menu_submenu_navigation</title>
<path d="M19.333 5.339h-18.667c-0.369 0-0.667-0.298-0.667-0.667v-4c0-0.369 0.298-0.667 0.667-0.667h18.667c0.369 0 0.667 0.298 0.667 0.667v4c0 0.369-0.298 0.667-0.667 0.667zM1.333 4.005h17.333v-2.667h-17.333v2.667z"></path>
<path d="M31.335 32.007h-18.667c-0.369 0-0.667-0.298-0.667-0.667v-4c0-0.369 0.298-0.667 0.667-0.667h18.667c0.369 0 0.667 0.298 0.667 0.667v4c0 0.368-0.298 0.667-0.667 0.667zM13.334 30.673h17.334v-2.667h-17.334v2.667z"></path>
<path d="M31.335 21.34h-18.667c-0.369 0-0.667-0.298-0.667-0.667v-4c0-0.369 0.298-0.667 0.667-0.667h18.667c0.369 0 0.667 0.298 0.667 0.667v4c0 0.368-0.298 0.667-0.667 0.667zM13.334 20.007h17.334v-2.667h-17.334v2.667z"></path>
<path d="M22 17.34c-0.369 0-0.667-0.298-0.667-0.667v-3.669c0-0.686-0.6-0.999-1.158-0.999h-7.878c-1.335 0-2.965-1.21-2.965-2.622v-2.044c0-0.369 0.298-0.667 0.667-0.667s0.667 0.298 0.667 0.667v2.044c0 0.554 0.93 1.289 1.631 1.289h7.878c1.421 0 2.491 1.003 2.491 2.332v3.669c0 0.368-0.298 0.667-0.667 0.667z"></path>
<path d="M22 28.007c-0.369 0-0.667-0.298-0.667-0.667v-4c0-0.369 0.298-0.667 0.667-0.667s0.667 0.298 0.667 0.667v4c0 0.368-0.298 0.667-0.667 0.667z"></path>
</svg>
