<svg version="1.1" xmlns="http://www.w3.org/2000/svg" width="32" height="32" viewBox="0 0 32 32">
<title>structure_menu_submenu_navigation2</title>
<path d="M19.337 5.339h-18.667c-0.369 0-0.667-0.298-0.667-0.667v-4c0-0.369 0.298-0.667 0.667-0.667h18.667c0.369 0 0.667 0.298 0.667 0.667v4c0 0.369-0.298 0.667-0.667 0.667zM1.337 4.005h17.333v-2.667h-17.333v2.667z"></path>
<path d="M31.339 32.007h-18.667c-0.369 0-0.667-0.298-0.667-0.667v-4c0-0.369 0.298-0.667 0.667-0.667h18.667c0.369 0 0.667 0.298 0.667 0.667v4c0 0.368-0.298 0.667-0.667 0.667zM13.338 30.673h17.334v-2.667h-17.334v2.667z"></path>
<path d="M24.671 18.673h-18.666c-0.369 0-0.667-0.298-0.667-0.667v-4c0-0.369 0.298-0.667 0.667-0.667h18.666c0.369 0 0.667 0.298 0.667 0.667v4c0 0.368-0.298 0.667-0.667 0.667zM6.671 17.34h17.333v-2.667h-17.333v2.667z"></path>
<path d="M20.669 28.007c-0.369 0-0.667-0.298-0.667-0.667v-1.335c0-1.103-0.897-2-2-2-1.839 0-3.334-1.495-3.334-3.333 0-0.369 0.298-0.665 0.667-0.665s0.666 0.298 0.666 0.667c0 1.102 0.898 1.999 2.001 1.999 1.839 0 3.333 1.495 3.333 3.333v1.335c0 0.368-0.298 0.667-0.667 0.667z"></path>
<path d="M15.335 14.673c-0.369 0-0.667-0.298-0.667-0.667v-1.335c0-1.103-0.897-2-2-2-1.838 0-3.333-1.495-3.333-3.333 0-0.369 0.298-0.666 0.667-0.666s0.667 0.299 0.667 0.667c0 1.102 0.897 1.999 2 1.999 1.838 0 3.333 1.495 3.333 3.333v1.335c0 0.368-0.298 0.667-0.667 0.667z"></path>
</svg>
