<svg version="1.1" xmlns="http://www.w3.org/2000/svg" width="32" height="32" viewBox="0 0 32 32">
<title>structure_map_files</title>
<path d="M3.333 2.671c-0.369 0-0.667-0.298-0.667-0.667v-1.333c0-0.369 0.298-0.667 0.667-0.667s0.667 0.298 0.667 0.667v1.333c0 0.369-0.298 0.667-0.667 0.667z"></path>
<path d="M3.333 19.671c-0.369 0-0.667-0.298-0.667-0.667v-2.833c0-0.369 0.298-0.667 0.667-0.667s0.667 0.298 0.667 0.667v2.833c0 0.369-0.298 0.667-0.667 0.667zM3.333 11.171c-0.369 0-0.667-0.298-0.667-0.667v-2.833c0-0.369 0.298-0.667 0.667-0.667s0.667 0.298 0.667 0.667v2.833c0 0.369-0.298 0.667-0.667 0.667z"></path>
<path d="M4.667 26.671h-1.333c-0.369 0-0.667-0.298-0.667-0.667v-1.333c0-0.369 0.298-0.667 0.667-0.667s0.667 0.298 0.667 0.667v0.667h0.667c0.369 0 0.667 0.298 0.667 0.667s-0.298 0.667-0.667 0.667z"></path>
<path d="M11.867 26.671h-2.4c-0.369 0-0.667-0.298-0.667-0.667s0.298-0.667 0.667-0.667h2.4c0.369 0 0.667 0.298 0.667 0.667s-0.298 0.667-0.667 0.667z"></path>
<path d="M18 26.671h-1.333c-0.369 0-0.667-0.298-0.667-0.667s0.298-0.667 0.667-0.667h1.333c0.369 0 0.667 0.298 0.667 0.667s-0.298 0.667-0.667 0.667z"></path>
<path d="M28.667 4.004h-2.622c-0.369 0-0.667-0.298-0.667-0.667v-2.667c0-0.369 0.298-0.667 0.667-0.667s0.667 0.298 0.667 0.667v2h1.956c0.369 0 0.667 0.298 0.667 0.667s-0.298 0.667-0.667 0.667z"></path>
<path d="M28.151 14.671h-9.682c-0.637 0-1.135-0.486-1.135-1.105v-12.408c0-0.636 0.509-1.153 1.135-1.153h7.689c0.297 0 0.582 0.118 0.801 0.333l2.013 1.967c0.232 0.23 0.362 0.526 0.362 0.818v10.443c0 0.609-0.53 1.105-1.182 1.105zM18.667 13.337h9.333v-10.118l-1.926-1.881h-7.408v12z"></path>
<path d="M28.667 21.339h-2.622c-0.369 0-0.667-0.298-0.667-0.667v-2.667c0-0.369 0.298-0.667 0.667-0.667s0.667 0.298 0.667 0.667v2h1.956c0.369 0 0.667 0.298 0.667 0.667s-0.298 0.667-0.667 0.667z"></path>
<path d="M28.151 32.005h-9.682c-0.637 0-1.135-0.486-1.135-1.105v-12.408c0-0.637 0.509-1.154 1.135-1.154h7.689c0.296 0 0.579 0.117 0.799 0.331l2.014 1.969c0.232 0.232 0.362 0.529 0.362 0.819v10.443c0 0.609-0.53 1.105-1.182 1.105zM18.667 30.672h9.333v-10.119l-1.925-1.881h-7.409v12z"></path>
<path d="M18 9.337h-1.333c-0.369 0-0.667-0.298-0.667-0.667s0.298-0.667 0.667-0.667h1.333c0.369 0 0.667 0.298 0.667 0.667s-0.298 0.667-0.667 0.667z"></path>
<path d="M11.867 9.337h-2.4c-0.369 0-0.667-0.298-0.667-0.667s0.298-0.667 0.667-0.667h2.4c0.369 0 0.667 0.298 0.667 0.667s-0.298 0.667-0.667 0.667z"></path>
<path d="M4.667 9.337h-1.333c-0.369 0-0.667-0.298-0.667-0.667s0.298-0.667 0.667-0.667h1.333c0.369 0 0.667 0.298 0.667 0.667s-0.298 0.667-0.667 0.667z"></path>
</svg>
