<svg version="1.1" xmlns="http://www.w3.org/2000/svg" width="32" height="32" viewBox="0 0 32 32">
<title>structure_menu_submenu_simple</title>
<path d="M19.331 10.522h-18.666c-0.369 0-0.666-0.297-0.666-0.666v-4c0-0.369 0.297-0.666 0.666-0.666h18.666c0.369 0 0.666 0.297 0.666 0.666v4c0.003 0.369-0.297 0.666-0.666 0.666v0zM1.331 9.191h17.334v-2.666h-17.334c0-0.003 0 2.666 0 2.666z"></path>
<path d="M31.334 26.525h-18.669c-0.369 0-0.666-0.297-0.666-0.666v-4c0-0.369 0.297-0.666 0.666-0.666h18.669c0.369 0 0.666 0.297 0.666 0.666v4c0 0.366-0.297 0.666-0.666 0.666zM13.334 25.191h17.334v-2.666h-17.334v2.666z"></path>
<path d="M22 22.525c-0.369 0-0.666-0.297-0.666-0.666v-3.672c0-0.688-0.6-1-1.156-1h-7.881c-1.334 0-2.966-1.209-2.966-2.622v-2.044c0-0.369 0.297-0.666 0.666-0.666s0.666 0.297 0.666 0.666v2.044c0 0.553 0.931 1.287 1.631 1.287h7.878c1.422 0 2.491 1.003 2.491 2.331v3.669c0.003 0.372-0.294 0.672-0.663 0.672v0z"></path>
</svg>
