<!-- Generated by IcoMoon.io -->
<svg version="1.1" xmlns="http://www.w3.org/2000/svg" width="32" height="32" viewBox="0 0 32 32">
<title>subquery</title>
<path d="M27.334 29.334h-1.334c-0.369 0-0.666-0.297-0.666-0.666s0.297-0.669 0.666-0.669h0.666v-22.666h-17.331v0.669c0 0.369-0.297 0.666-0.666 0.666s-0.666-0.297-0.666-0.666v-1.334c0-0.369 0.297-0.666 0.666-0.666h18.666c0.369 0 0.666 0.297 0.666 0.666v24c0 0.369-0.297 0.666-0.666 0.666v0z"></path>
<path d="M31.334 25.334h-1.334c-0.369 0-0.666-0.297-0.666-0.666s0.297-0.669 0.666-0.669h0.666v-22.666h-17.331v0.666c0 0.369-0.297 0.666-0.666 0.666s-0.669-0.297-0.669-0.666v-1.331c0-0.369 0.297-0.669 0.666-0.669h18.666c0.369 0 0.666 0.297 0.666 0.666v24c0.003 0.372-0.294 0.669-0.663 0.669v0z"></path>
<path d="M8.619 13.797c-0.075-0.003-0.153-0.003-0.231-0.003-1.603 0-3.116 0.628-4.259 1.772-1.197 1.197-1.825 2.791-1.769 4.491 0.009 0.334 0.281 0.594 0.612 0.594v0c0.009 0 0.016 0 0.025 0 0.163-0.006 0.313-0.075 0.425-0.194s0.172-0.275 0.166-0.441c-0.044-1.356 0.456-2.628 1.409-3.581 0.909-0.909 2.116-1.412 3.397-1.412 0.056 0 0.116 0 0.172 0.003 0.022 0.003 0.044 0.003 0.066 0.003 0.309 0 0.569-0.269 0.578-0.597 0.006-0.166-0.053-0.322-0.166-0.441-0.109-0.119-0.262-0.188-0.425-0.194z"></path>
<path d="M25.528 19.975l-3.734-3.734c0.616-0.969 0.944-2.088 0.944-3.241 0-3.338-2.716-6.053-6.053-6.053-1.422 0-2.806 0.509-3.9 1.431-1.059 0.894-1.781 2.119-2.044 3.463-0.853-0.294-1.744-0.441-2.65-0.441-4.516-0.003-8.184 3.669-8.184 8.178 0 4.512 3.669 8.181 8.181 8.181 1.606 0 3.156-0.466 4.494-1.347l5.197 5.197c0.216 0.216 0.481 0.366 0.772 0.438l-0.047 0.047h0.441c0.441 0 0.853-0.172 1.166-0.481 0.644-0.644 0.644-1.688 0-2.331l-5.194-5.197c0.887-1.341 1.356-2.894 1.356-4.506 0-0.178-0.006-0.359-0.019-0.541 0.144 0.009 0.288 0.016 0.428 0.016 1.169 0 2.3-0.334 3.281-0.969l3.728 3.728c0.206 0.206 0.475 0.337 0.766 0.372l0.003 0.009h0.15c0.347 0 0.675-0.134 0.919-0.381 0.506-0.506 0.506-1.328 0-1.837zM18.65 30.741l-5.088-5.084c0.206-0.188 0.406-0.384 0.594-0.591l5.084 5.084c0.163 0.163 0.163 0.428 0 0.594-0.078 0.078-0.184 0.122-0.297 0.122-0.109 0-0.216-0.044-0.294-0.125zM15.047 18.531c0.053 0.344 0.078 0.697 0.078 1.047 0 3.881-3.156 7.038-7.037 7.038s-7.037-3.156-7.037-7.038c0-3.881 3.156-7.037 7.037-7.037 1.672 0 3.294 0.6 4.566 1.684 1.256 1.075 2.1 2.556 2.375 4.172 0 0.050 0.006 0.094 0.019 0.134zM13.45 13.403c0.012-0.050 0.019-0.103 0.016-0.156-0.031-0.963 0.322-1.866 1-2.541 0.647-0.647 1.503-1.003 2.413-1.003 0.041 0 0.081 0 0.119 0.003 0.019 0.003 0.038 0.003 0.056 0.003 0.284 0 0.525-0.244 0.534-0.547 0.006-0.15-0.050-0.294-0.15-0.403-0.103-0.109-0.241-0.172-0.391-0.178-0.056-0.003-0.116-0.003-0.172-0.003-1.206 0-2.344 0.472-3.2 1.331-0.741 0.741-1.188 1.672-1.303 2.7-0.178-0.109-0.359-0.213-0.547-0.309 0.344-2.406 2.422-4.209 4.859-4.209 2.706 0 4.909 2.203 4.909 4.909s-2.203 4.909-4.909 4.909c-0.197 0-0.394-0.012-0.591-0.034-0.369-1.725-1.306-3.306-2.644-4.472zM21.125 17.106l3.637 3.637c0.041 0.041 0.063 0.094 0.063 0.153 0 0.056-0.022 0.113-0.063 0.153s-0.094 0.063-0.153 0.063c-0.056 0-0.113-0.022-0.153-0.063l-3.634-3.637c0.103-0.097 0.206-0.2 0.303-0.306z"></path>
</svg>
