<!-- Generated by IcoMoon.io -->
<svg version="1.1" xmlns="http://www.w3.org/2000/svg" width="32" height="32" viewBox="0 0 32 32">
<title>subsc-alerts</title>
<path d="M14.431 13.709c-2.65 0-5.128-0.338-6.975-0.947-1.725-0.566-2.303-1.203-2.303-1.409v-4.091c-0.019-0.009-0.037-0.019-0.059-0.031l0.059 0.028v0.003c0.5 0.259 1.028 0.484 1.644 0.681 2.053 0.681 4.766 1.056 7.634 1.056s5.581-0.375 7.637-1.053l0.075-0.022c0.566-0.184 1.106-0.419 1.569-0.662v1.009h2.106v-3.734c0-0.991-0.65-2.388-3.75-3.413-2.056-0.678-4.766-1.053-7.637-1.053s-5.581 0.375-7.638 1.053c-3.1 1.022-3.75 2.419-3.75 3.413v20.456c0 0.991 0.65 2.387 3.75 3.413 2.056 0.678 4.156 1.050 7.025 1.050v-0.003c0.569-0.016 1.028-0.481 1.028-1.053s-0.456-1.041-1.028-1.053c-2.653 0-4.516-0.337-6.366-0.944-1.725-0.566-2.303-1.203-2.303-1.409v-4.091c-0.019-0.009-0.037-0.019-0.056-0.031l0.056 0.028v0.003c0.5 0.259 1.028 0.481 1.644 0.681 2.116 0.697 3.984 1.053 6.766 1.053v0c0.009 0 0.019 0 0.028 0 0.581 0 1.053-0.472 1.053-1.053s-0.472-1.053-1.053-1.053c-0.009 0-0.019 0-0.025 0-2.553 0-4.203-0.319-6.103-0.947-1.725-0.566-2.303-1.203-2.303-1.409v-4.091c-0.019-0.009-0.037-0.019-0.056-0.031l0.056 0.028v0.003c0.5 0.259 1.028 0.484 1.644 0.681 2.056 0.678 4.769 1.053 7.638 1.053 1.147 0 1.291 0.037 2.356-0.078l0.863-2.238c-1.297 0.197-1.744 0.206-3.225 0.206zM7.456 3.125c1.847-0.609 4.325-0.944 6.975-0.944s5.128 0.337 6.975 0.947c1.725 0.566 2.303 1.206 2.303 1.409s-0.581 0.841-2.303 1.409c-1.847 0.609-4.325 0.947-6.975 0.947s-5.128-0.338-6.975-0.947c-1.725-0.566-2.303-1.206-2.303-1.409s0.581-0.844 2.303-1.413z"></path>
<path d="M5.094 14.053c0.019 0.009 0.037 0.019 0.056 0.031v-0.003l-0.056-0.028z"></path>
<path d="M5.094 7.234c0.019 0.009 0.037 0.019 0.059 0.031v-0.003l-0.059-0.028z"></path>
<path d="M5.094 20.875c0.019 0.009 0.037 0.019 0.056 0.031v-0.003l-0.056-0.028z"></path>
<path d="M28.956 14.306c0-0.484-0.394-0.881-0.881-0.881h-1.497l1.538-3.059c0.063-0.122 0.097-0.262 0.097-0.4 0-0.484-0.394-0.881-0.884-0.881h-6.428c-0.363 0.003-0.681 0.225-0.819 0.563l-3.034 7.869c-0.041 0.103-0.063 0.212-0.063 0.325 0 0.484 0.394 0.878 0.878 0.881h1.556l-2.381 6.584c-0.038 0.097-0.053 0.2-0.053 0.306 0 0.103 0.019 0.203 0.050 0.294 0.041 0.144 0.128 0.272 0.244 0.363 0.156 0.141 0.363 0.225 0.587 0.225h2.563v4.559c0 0.166 0.047 0.322 0.131 0.456 0.087 0.197 0.259 0.347 0.475 0.403h-0.006c0.056 0.012 0.116 0.022 0.175 0.022v0 0c0.016 0 0.031 0 0.050-0.003 0.019 0 0.038 0.003 0.056 0.003v0c0.322 0 0.619-0.178 0.775-0.466l4.759-8.866c0.069-0.128 0.106-0.275 0.106-0.422 0-0.484-0.394-0.881-0.881-0.881h-1.428l4.172-6.516c0.094-0.141 0.144-0.306 0.144-0.478zM22.291 21.697c-0.094 0.144-0.141 0.309-0.141 0.481 0 0.484 0.394 0.881 0.881 0.881h1.563l-2.406 4.488v-1.934c0-0.484-0.397-0.878-0.881-0.881h-2.188l2.381-6.584c0.038-0.1 0.056-0.203 0.056-0.309 0-0.484-0.394-0.878-0.878-0.881h-1.528l0.622-1.609 0.913-2.369 0.825-2.138h4.313v0.166l-1.456 2.894c-0.063 0.122-0.097 0.262-0.097 0.4 0 0.431 0.313 0.794 0.725 0.866 0.050 0.009 0.103 0.016 0.156 0.016h1.316l-4.175 6.516z"></path>
</svg>
