<!-- Generated by IcoMoon.io -->
<svg version="1.1" xmlns="http://www.w3.org/2000/svg" width="32" height="32" viewBox="0 0 32 32">
<title>suitcase_travel_baggage_luggage</title>
<path fill="none" stroke-linejoin="round" stroke-linecap="butt" stroke-miterlimit="4" stroke-width="2" stroke="#000" d="M5 8h22c1.657 0 3 1.343 3 3v14c0 1.657-1.343 3-3 3h-22c-1.657 0-3-1.343-3-3v-14c0-1.657 1.343-3 3-3z"></path>
<path fill="none" stroke-linejoin="round" stroke-linecap="round" stroke-miterlimit="4" stroke-width="2" stroke="#000" d="M9 8v-2c0-1.105 0.895-2 2-2v0h10c1.105 0 2 0.895 2 2v0 2M30 15h-28M20 15v1.5c0 0.276-0.224 0.5-0.5 0.5v0h-7c-0.276 0-0.5-0.224-0.5-0.5v0-1.5"></path>
</svg>
