<svg version="1.1" xmlns="http://www.w3.org/2000/svg" width="32" height="32" viewBox="0 0 32 32">
<title>suitcase_travel_baggage_luggage2</title>
<path d="M9.966 32.014h-4.054c-0.369 0-0.667-0.298-0.667-0.667v-22.655c0-0.369 0.298-0.667 0.667-0.667h4.054c0.369 0 0.667 0.298 0.667 0.667v22.655c0 0.369-0.298 0.667-0.667 0.667zM6.579 30.681h2.721v-21.322h-2.721v21.322z"></path>
<path d="M26.017 32.014h-4.053c-0.369 0-0.667-0.298-0.667-0.667v-22.655c0-0.369 0.298-0.667 0.667-0.667h4.053c0.369 0 0.667 0.298 0.667 0.667v22.655c0 0.369-0.298 0.667-0.667 0.667zM22.63 30.681h2.72v-21.322h-2.72v21.322z"></path>
<path d="M28.514 32.013h-25.1c-1.932 0-3.503-1.572-3.503-3.503v-16.997c0-1.932 1.572-3.503 3.503-3.503h25.1c1.931 0 3.503 1.572 3.503 3.503v16.997c0 1.931-1.572 3.503-3.503 3.503zM3.415 9.343c-1.197 0-2.17 0.973-2.17 2.17v16.997c0 1.197 0.973 2.169 2.17 2.169h25.1c1.197 0 2.169-0.973 2.169-2.169v-16.997c0-1.197-0.973-2.17-2.169-2.17h-25.1z"></path>
<path d="M20.668 6.676c-0.369 0-0.667-0.298-0.667-0.667v-0.496c0-0.872-0.768-1.583-1.714-1.583h-4.646c-0.945 0-1.713 0.71-1.713 1.583v0.496c0 0.369-0.298 0.667-0.667 0.667s-0.667-0.298-0.667-0.667v-0.496c0-1.608 1.367-2.916 3.046-2.916h4.647c1.68 0 3.047 1.308 3.047 2.916v0.496c-0 0.368-0.298 0.667-0.667 0.667z"></path>
</svg>
