<!-- Generated by IcoMoon.io -->
<svg version="1.1" xmlns="http://www.w3.org/2000/svg" width="32" height="32" viewBox="0 0 32 32">
<title>suitcase_travel_baggage_luggage</title>
<path d="M27 7h-3v-1c0-1.7-1.3-3-3-3h-10c-1.7 0-3 1.3-3 3v1h-3c-2.2 0-4 1.8-4 4v14c0 2.2 1.8 4 4 4h22c2.2 0 4-1.8 4-4v-14c0-2.2-1.8-4-4-4zM10 6c0-0.6 0.4-1 1-1h10c0.6 0 1 0.4 1 1v1h-12v-1zM5 9h22c1.1 0 2 0.9 2 2v3h-26v-3c0-1.1 0.9-2 2-2zM27 27h-22c-1.1 0-2-0.9-2-2v-9h8v0.5c0 0.8 0.7 1.5 1.5 1.5h7c0.8 0 1.5-0.7 1.5-1.5v-0.5h8v9c0 1.1-0.9 2-2 2z"></path>
</svg>
