<svg version="1.1" xmlns="http://www.w3.org/2000/svg" width="32" height="32" viewBox="0 0 32 32">
<title>suitcase_lock_security</title>
<path d="M21.939 24.767c0 0-0.007 0-0.008 0-1.833 0-3.513-1.063-4.315-2.686l-2.397 0.004c-0.001 0-0.001 0-0.001 0-0.182 0-0.357-0.074-0.482-0.207l-1.184-1.242-1.943 1.467c-0.227 0.169-0.537 0.18-0.774 0.021l-1.634-1.099-1.477 0.858c-0.253 0.145-0.572 0.111-0.788-0.089l-1.757-1.631c-0.203-0.189-0.268-0.483-0.164-0.74l0.593-1.46c0.102-0.25 0.346-0.415 0.617-0.415l11.552-0.021c0.859-1.479 2.454-2.415 4.177-2.419 1.298 0 2.508 0.501 3.417 1.412s1.409 2.121 1.406 3.41c-0.007 2.66-2.176 4.829-4.836 4.836zM18.052 20.746c0.277 0 0.526 0.172 0.624 0.432 0.508 1.349 1.815 2.255 3.255 2.255v0.667l0.005-0.667c1.928-0.004 3.501-1.577 3.505-3.505 0.001-0.932-0.359-1.809-1.016-2.466-0.658-0.658-1.533-1.021-2.465-1.021-1.358 0.004-2.603 0.801-3.178 2.033-0.109 0.234-0.344 0.385-0.603 0.385l-11.507 0.021-0.251 0.618 1.058 0.983 1.411-0.82c0.221-0.128 0.495-0.12 0.706 0.023l1.587 1.066 2.038-1.539c0.269-0.204 0.649-0.175 0.884 0.073l1.397 1.466 2.549-0.005z"></path>
<path d="M22.736 21.583c-0.909 0-1.647-0.738-1.647-1.647s0.738-1.647 1.647-1.647 1.647 0.738 1.647 1.647-0.738 1.647-1.647 1.647zM22.736 19.622c-0.173 0-0.314 0.141-0.314 0.314 0 0.346 0.628 0.346 0.628 0 0-0.173-0.141-0.314-0.314-0.314z"></path>
<path d="M28.578 32.013h-25.1c-1.932 0-3.503-1.572-3.503-3.503v-16.997c0-1.932 1.571-3.503 3.503-3.503h25.1c1.931 0 3.503 1.572 3.503 3.503v16.997c-0 1.931-1.572 3.503-3.503 3.503zM3.478 9.343c-1.196 0-2.169 0.973-2.169 2.17v16.997c0 1.197 0.973 2.169 2.169 2.169h25.1c1.197 0 2.169-0.973 2.169-2.169v-16.997c0-1.197-0.973-2.17-2.169-2.17h-25.1z"></path>
<path d="M20.731 6.676c-0.369 0-0.667-0.298-0.667-0.667v-0.496c0-0.872-0.768-1.583-1.712-1.583h-4.647c-0.945 0-1.713 0.71-1.713 1.583v0.496c0 0.369-0.298 0.667-0.667 0.667s-0.667-0.298-0.667-0.667v-0.496c0-1.608 1.367-2.916 3.046-2.916h4.647c1.68 0 3.046 1.308 3.046 2.916v0.496c0 0.368-0.298 0.667-0.667 0.667z"></path>
</svg>
