<svg version="1.1" xmlns="http://www.w3.org/2000/svg" width="32" height="32" viewBox="0 0 32 32">
<title>summation</title>
<path d="M7.467 28.667c0 0 1.733-2.533 1.733-2.533 2.133-3.067 4.267-6.133 6.4-9.2 0.4-0.533 0.4-0.933 0-1.333-2-3.2-4-6.4-6-9.6l-1.733-2.667h16.667v6h-0.933c0-0.267-0.133-0.4-0.133-0.667-0.133-0.667-0.267-1.333-0.4-2-0.533-1.6-1.733-2.533-3.467-2.533h-8.4c0 0 0.667 1.067 0.667 1.333l1.067 1.733c1.733 2.8 3.467 5.6 5.2 8.533 0.267 0.267 0.133 0.4 0 0.667-1.867 2.4-3.6 4.8-5.467 7.333l-1.6 2.133-0.8 1.2h6.667c1.2 0 2.267 0 3.467 0v0c1.333 0 2.267-0.533 2.667-1.733 0.267-0.533 0.533-1.2 0.667-1.867 0-0.533 0.133-0.533 0.4-0.533 0 0 0.133 0 0.267 0 0 0 0.133 0 0.133 0v5.733h-17.067z"></path>
</svg>
