<!-- Generated by IcoMoon.io -->
<svg version="1.1" xmlns="http://www.w3.org/2000/svg" width="32" height="32" viewBox="0 0 32 32">
<title>support_help</title>
<path d="M16 2c-7.7 0-14 6.3-14 14s6.3 14 14 14 14-6.3 14-14-6.3-14-14-14zM4 16c0-0.7 0.1-1.3 0.2-1.9l6 0.4c-0.1 0.5-0.2 1-0.2 1.6s0.1 1.1 0.2 1.6l-6 0.4c-0.1-0.8-0.2-1.4-0.2-2.1zM12 16c0-2.2 1.8-4 4-4s4 1.8 4 4c0 2.2-1.8 4-4 4s-4-1.8-4-4zM21.8 14.4l6-0.4c0.1 0.6 0.2 1.3 0.2 1.9 0 0.7-0.1 1.3-0.2 1.9l-6-0.4c0.1-0.5 0.2-1 0.2-1.6s-0.1-0.9-0.2-1.4zM27.3 12.1l-6.5 0.4c-0.4-0.5-0.8-0.9-1.3-1.3l0.4-6.5c3.5 1.2 6.2 3.9 7.4 7.4zM17.9 4.2l-0.4 6c-0.5-0.1-1-0.2-1.6-0.2s-1.1 0.1-1.6 0.2l-0.4-6c0.8-0.1 1.4-0.2 2.1-0.2s1.3 0.1 1.9 0.2zM12.1 4.7l0.4 6.5c-0.5 0.4-0.9 0.8-1.3 1.3l-6.5-0.4c1.2-3.5 3.9-6.2 7.4-7.4zM4.7 19.9l6.5-0.4c0.4 0.5 0.8 0.9 1.3 1.3l-0.4 6.5c-3.5-1.2-6.2-3.9-7.4-7.4zM14.1 27.8l0.4-6c0.5 0.1 1 0.2 1.6 0.2s1.1-0.1 1.6-0.2l0.4 6c-0.8 0.1-1.4 0.2-2.1 0.2s-1.3-0.1-1.9-0.2zM19.9 27.3l-0.4-6.5c0.5-0.4 0.9-0.8 1.3-1.3l6.5 0.4c-1.2 3.5-3.9 6.2-7.4 7.4z"></path>
</svg>
