<svg version="1.1" xmlns="http://www.w3.org/2000/svg" width="32" height="32" viewBox="0 0 32 32">
<title>support_help_talk_call2</title>
<path d="M27.927 31.966h-23.852c-0.944 0-1.712-0.775-1.712-1.728v-0.757c0-0.72 0.431-1.353 1.098-1.612 5.102-1.974 7.85-4.087 8.26-5.033v-1.102c-0.937-0.974-1.799-2.027-2.276-3.736-0.016-0.059-0.025-0.119-0.025-0.18v-7.395c0-4.137 2.276-6.324 6.582-6.324 4.383 0 6.605 2.128 6.605 6.324v7.395c0 0.061-0.008 0.121-0.025 0.18-0.469 1.677-1.346 2.742-2.302 3.736v1.103c0.464 1.095 3.615 3.236 8.259 5.030 0.658 0.254 1.099 0.902 1.099 1.613v0.757c0 0.953-0.768 1.728-1.712 1.728zM10.754 17.727c0.43 1.47 1.211 2.353 2.111 3.272 0.122 0.125 0.19 0.292 0.19 0.466v1.491c0 0.068-0.010 0.134-0.030 0.198-0.641 2.053-5.292 4.493-9.081 5.96-0.147 0.056-0.246 0.204-0.246 0.369v0.757c0 0.217 0.17 0.395 0.378 0.395h23.852c0.208 0 0.379-0.177 0.379-0.395v-0.757c0-0.164-0.099-0.313-0.246-0.369-3.788-1.465-8.439-3.904-9.082-5.958-0.019-0.065-0.030-0.131-0.030-0.199v-1.491c0-0.175 0.068-0.341 0.19-0.466 0.952-0.973 1.716-1.836 2.137-3.272v-7.301c0-3.451-1.626-4.99-5.272-4.99-3.581 0-5.249 1.586-5.249 4.99v7.301z"></path>
<path d="M17.32 22.56c-0.363 0-0.66-0.29-0.667-0.654-0.007-0.369 0.286-0.673 0.654-0.68 4.525-0.085 5.904-0.928 5.904-3.613 0-0.369 0.298-0.667 0.667-0.667s0.667 0.298 0.667 0.667c0 4.44-3.563 4.879-7.211 4.947-0.005 0-0.009 0-0.013 0z"></path>
<path d="M10.087 18.487h-1.191c-1.176 0-2.133-0.957-2.133-2.134v-4.46c0-1.176 0.957-2.133 2.133-2.133h1.191c0.369 0 0.667 0.298 0.667 0.667s-0.298 0.667-0.667 0.667h-1.191c-0.441 0-0.8 0.359-0.8 0.8v4.46c0 0.441 0.359 0.801 0.8 0.801h1.191c0.369 0 0.667 0.298 0.667 0.667s-0.298 0.667-0.667 0.667z"></path>
<path d="M23.133 18.487h-1.191c-0.369 0-0.667-0.298-0.667-0.667s0.298-0.667 0.667-0.667h1.191c0.441 0 0.801-0.359 0.801-0.801v-4.46c0-0.441-0.359-0.8-0.801-0.8h-1.191c-0.369 0-0.667-0.298-0.667-0.667s0.298-0.667 0.667-0.667h1.191c1.177 0 2.134 0.957 2.134 2.133v4.46c0 1.177-0.957 2.134-2.134 2.134z"></path>
<path d="M23.072 11.092c-0.369 0-0.667-0.298-0.667-0.667v-2.079c0-3.529-2.871-6.4-6.4-6.4s-6.4 2.871-6.4 6.4v2.079c0 0.369-0.298 0.667-0.667 0.667s-0.667-0.298-0.667-0.667v-2.079c0-4.264 3.469-7.734 7.734-7.734s7.733 3.469 7.733 7.734v2.079c0 0.368-0.298 0.667-0.667 0.667z"></path>
<path d="M16.247 23.63c-0.959 0-1.739-0.78-1.739-1.74s0.78-1.74 1.739-1.74c0.96 0 1.74 0.78 1.74 1.74s-0.78 1.74-1.74 1.74zM16.247 21.484c-0.224 0-0.406 0.182-0.406 0.406s0.182 0.406 0.406 0.406 0.406-0.182 0.406-0.406-0.182-0.406-0.406-0.406z"></path>
</svg>
