<svg version="1.1" xmlns="http://www.w3.org/2000/svg" width="32" height="32" viewBox="0 0 32 32">
<title>support_help</title>
<path d="M15.999 31.643c-8.605 0-15.605-7-15.605-15.605s7.001-15.605 15.605-15.605c8.605 0 15.605 7 15.605 15.605s-7 15.605-15.605 15.605zM15.999 1.766c-7.87 0-14.272 6.402-14.272 14.271s6.402 14.272 14.272 14.272 14.272-6.402 14.272-14.272c0-7.869-6.402-14.271-14.272-14.271z"></path>
<path d="M15.999 23.671c-4.209 0-7.633-3.425-7.633-7.633s3.424-7.632 7.633-7.632c4.208 0 7.633 3.424 7.633 7.632s-3.424 7.633-7.633 7.633zM15.999 9.739c-3.473 0-6.299 2.825-6.299 6.299s2.826 6.299 6.299 6.299c3.474 0 6.299-2.825 6.299-6.299s-2.825-6.299-6.299-6.299z"></path>
<path d="M21.254 12.135c-0.171 0-0.341-0.065-0.471-0.195-0.26-0.26-0.26-0.682 0-0.943l5.643-5.644c0.26-0.26 0.682-0.26 0.943 0s0.26 0.682 0 0.943l-5.643 5.644c-0.13 0.13-0.301 0.195-0.471 0.195z"></path>
<path d="M5.785 27.605c-0.171 0-0.341-0.065-0.471-0.195-0.26-0.26-0.26-0.682 0-0.943l5.644-5.645c0.26-0.26 0.682-0.26 0.943 0s0.26 0.682 0 0.943l-5.644 5.645c-0.13 0.13-0.301 0.195-0.471 0.195z"></path>
<path d="M26.897 26.918c-0.171 0-0.341-0.065-0.471-0.195l-5.643-5.642c-0.26-0.26-0.26-0.682 0-0.943s0.682-0.26 0.943 0l5.643 5.642c0.26 0.26 0.26 0.682 0 0.943-0.13 0.13-0.301 0.195-0.471 0.195z"></path>
<path d="M11.429 11.451c-0.171 0-0.341-0.065-0.471-0.195l-5.645-5.645c-0.26-0.26-0.26-0.682 0-0.943s0.682-0.26 0.943 0l5.645 5.645c0.26 0.26 0.26 0.682 0 0.943-0.13 0.13-0.301 0.195-0.471 0.195z"></path>
</svg>
