<svg version="1.1" xmlns="http://www.w3.org/2000/svg" width="32" height="32" viewBox="0 0 32 32">
<title>support_help_talk_call</title>
<path d="M18.937 29.858c-0.358 0-0.654-0.284-0.667-0.643-0.013-0.369 0.276-0.677 0.643-0.69 4.776-0.167 6.444-1.546 6.611-5.464 0.016-0.367 0.258-0.638 0.695-0.638 0.367 0.016 0.654 0.327 0.638 0.695-0.229 5.372-3.323 6.579-7.897 6.74-0.008 0-0.015 0-0.023 0z"></path>
<path d="M18.048 30.775h-1.9c-0.857 0-1.555-0.698-1.555-1.555 0-0.858 0.698-1.556 1.555-1.556h1.9c0.858 0 1.556 0.698 1.556 1.556 0 0.857-0.698 1.555-1.556 1.555zM16.148 28.997c-0.122 0-0.222 0.1-0.222 0.223s0.1 0.221 0.222 0.221h1.9c0.122 0 0.223-0.099 0.223-0.221s-0.1-0.223-0.223-0.223h-1.9z"></path>
<path d="M8.629 23.993h-1.776c-1.573 0-2.853-1.112-2.853-2.479v-5.715c0-1.367 1.28-2.479 2.853-2.479h1.776c0.369 0 0.667 0.298 0.667 0.667v9.34c0 0.369-0.298 0.667-0.667 0.667zM6.853 14.654c-0.823 0-1.519 0.525-1.519 1.145v5.715c0 0.621 0.696 1.146 1.519 1.146h1.109v-8.007h-1.109z"></path>
<path d="M25.111 23.993h-1.776c-0.369 0-0.667-0.298-0.667-0.667v-9.34c0-0.369 0.298-0.667 0.667-0.667h1.776c1.573 0 2.853 1.112 2.853 2.479v5.715c0 1.367-1.28 2.479-2.853 2.479zM24.001 22.66h1.109c0.824 0 1.519-0.525 1.519-1.146v-5.715c0-0.62-0.695-1.145-1.519-1.145h-1.109v8.007z"></path>
<path d="M24.645 14.654c-0.369 0-0.667-0.298-0.667-0.667v-3.232c0-4.407-3.586-7.992-7.993-7.992s-7.992 3.585-7.992 7.992v3.232c0 0.369-0.298 0.667-0.667 0.667s-0.667-0.298-0.667-0.667v-3.232c0-5.142 4.184-9.325 9.325-9.325s9.326 4.184 9.326 9.325v3.232c0 0.369-0.298 0.667-0.667 0.667z"></path>
</svg>
