<!-- Generated by IcoMoon.io -->
<svg version="1.1" xmlns="http://www.w3.org/2000/svg" width="32" height="32" viewBox="0 0 32 32">
<title>syslog</title>
<path d="M24.459 5.969v0c0-0.556-0.278-0.831-0.516-1.066l-4.462-4.397c-0.325-0.322-0.753-0.497-1.212-0.5h-16.581c-0.953 0-1.731 0.778-1.731 1.731v28.462c0 0.953 0.775 1.731 1.731 1.731h21.041c0.953 0 1.731-0.778 1.731-1.731v-1.481c0-0.369-0.297-0.666-0.666-0.666s-0.669 0.3-0.669 0.666v1.478c0 0.219-0.178 0.397-0.397 0.397h-21.041c-0.219 0-0.397-0.178-0.397-0.397v-28.459c0-0.219 0.178-0.397 0.397-0.397h15.912l0.003 4.628c0 0.369 0.297 0.666 0.666 0.666h4.856v6.703c0 0.369 0.297 0.666 0.666 0.666s0.666-0.297 0.666-0.666v-7.369c0.003 0 0.003 0 0.003 0v0zM18.934 1.837l3.512 3.462h-3.509l-0.003-3.462z"></path>
<path d="M21.863 21.381l-2.444-2.444h7.781c1.044 0 1.891 0.847 1.891 1.891v0.25h1.356v-0.25c0-1.791-1.456-3.247-3.247-3.247h-7.781l2.444-2.444-0.956-0.959-4.084 4.081 4.084 4.081 0.956-0.959z"></path>
<path d="M26.647 19.972l-0.959 0.956 2.441 2.444h-7.778c-1.044 0-1.891-0.847-1.891-1.891v-0.25h-1.356v0.25c0 1.791 1.456 3.247 3.247 3.247h7.778l-2.441 2.447 0.959 0.956 4.072-4.081-4.072-4.078z"></path>
<path d="M5.566 7.959c-0.234-0.169-0.641-0.331-0.991-0.331-0.384 0-0.566 0.175-0.566 0.409 0 0.147 0.122 0.291 0.344 0.419l0.606 0.363c0.594 0.356 0.828 0.753 0.828 1.266 0 0.722-0.478 1.375-1.541 1.375-0.45 0-0.869-0.116-1.159-0.234v-1.056c0.25 0.194 0.694 0.397 1.119 0.397 0.362 0 0.566-0.175 0.566-0.425 0-0.156-0.106-0.297-0.362-0.444l-0.625-0.372c-0.606-0.35-0.794-0.741-0.794-1.259 0-0.641 0.409-1.334 1.597-1.334 0.344 0 0.7 0.081 0.984 0.209v1.019z"></path>
<path d="M7.203 11.131l-1.231-3.097h1.031l0.706 1.941 0.747-1.941h1.037l-1.994 4.734h-1.063l0.766-1.637z"></path>
<path d="M11.659 8.984c-0.209-0.128-0.506-0.222-0.734-0.222s-0.331 0.116-0.331 0.244c0 0.106 0.069 0.162 0.194 0.244l0.484 0.281c0.403 0.244 0.553 0.559 0.553 0.909 0 0.578-0.431 1.025-1.231 1.025-0.303 0-0.641-0.069-0.875-0.169v-0.916c0.156 0.134 0.537 0.297 0.809 0.297 0.234 0 0.35-0.106 0.35-0.25 0-0.106-0.059-0.194-0.222-0.291l-0.525-0.303c-0.35-0.203-0.484-0.531-0.484-0.863 0-0.594 0.459-1.003 1.247-1.003 0.25 0 0.553 0.047 0.769 0.116v0.9z"></path>
<path d="M13.344 11.387h-0.922v-4.647h0.922v4.647z"></path>
<path d="M15.659 7.966c0.984 0 1.744 0.759 1.744 1.744s-0.759 1.75-1.744 1.75c-0.984 0-1.744-0.769-1.744-1.75s0.762-1.744 1.744-1.744zM15.659 10.566c0.472 0 0.809-0.391 0.809-0.856s-0.337-0.847-0.809-0.847c-0.466 0-0.816 0.384-0.816 0.847 0 0.466 0.35 0.856 0.816 0.856z"></path>
<path d="M21.337 8.034v2.95c0 1.231-0.7 1.853-1.866 1.853-0.472 0-0.903-0.128-1.125-0.25v-0.95c0.291 0.188 0.734 0.338 1.131 0.338 0.547 0 0.944-0.322 0.944-0.869v-0.234c-0.228 0.291-0.594 0.491-1.056 0.491-0.922 0-1.575-0.728-1.575-1.691s0.653-1.703 1.569-1.703c0.472 0 0.834 0.203 1.063 0.512v-0.444h0.916zM19.566 8.863c-0.45 0-0.794 0.363-0.794 0.8 0 0.444 0.344 0.8 0.794 0.8 0.466 0 0.8-0.356 0.8-0.8 0-0.438-0.334-0.8-0.8-0.8z"></path>
<path d="M14.053 17.609c-0.613-0.438-1.659-0.856-2.569-0.856-0.997 0-1.469 0.453-1.469 1.066 0 0.384 0.316 0.75 0.891 1.084l1.572 0.944c1.537 0.925 2.15 1.956 2.15 3.284 0 1.869-1.241 3.566-4.003 3.566-1.172 0-2.253-0.297-3.006-0.613v-2.744c0.647 0.506 1.8 1.031 2.9 1.031 0.944 0 1.469-0.453 1.469-1.1 0-0.403-0.278-0.769-0.944-1.153l-1.625-0.962c-1.572-0.909-2.063-1.922-2.063-3.269 0-1.659 1.066-3.459 4.141-3.459 0.891 0 1.819 0.209 2.55 0.541v2.641z"></path>
</svg>
