<!-- Generated by IcoMoon.io -->
<svg version="1.1" xmlns="http://www.w3.org/2000/svg" width="32" height="32" viewBox="0 0 32 32">
<title>table_settings</title>
<path d="M23.747 13.427c0.392 0 0.709-0.317 0.709-0.709v0-7.479c0-0.811-0.657-1.468-1.468-1.468v0h-21.504c0 0-0.001 0-0.001 0-0.819 0-1.484 0.664-1.484 1.484 0 0 0 0 0 0v0 21.49c0 0.819 0.664 1.484 1.484 1.484v0h17.447c0.432-0.001 0.781-0.351 0.781-0.783 0 0 0 0 0 0v0-0.042c-0.002-0.43-0.351-0.779-0.781-0.78h-2.085c-0.009 0-0.016-0.008-0.016-0.017 0 0 0 0 0 0v0-4.127c0.196 0 0.355-0.16 0.355-0.356 0 0 0 0 0 0v0-0.821c0-0.196-0.159-0.355-0.355-0.355v0-4.127c0-0.009 0.007-0.016 0.016-0.016v0h1.459c0.414 0 0.75-0.335 0.75-0.749v-0.009c0 0 0 0 0-0.001 0-0.414-0.336-0.75-0.75-0.75h-1.459c-0.009 0-0.016-0.008-0.016-0.017 0 0 0 0 0 0v0-4.124c0 0 0 0 0 0 0-0.009 0.007-0.016 0.016-0.017h6.168c0.009 0 0.017 0.007 0.017 0.017v0 1.563c0 0.392 0.317 0.709 0.709 0.709v0zM2.451 5.412h19.584c0 0 0 0 0.001 0 0.549 0 0.994 0.445 0.994 0.994v0 3.248c0 0.009-0.008 0.016-0.017 0.016 0 0 0 0 0 0l-21.541 0.001c-0.009 0-0.016-0.007-0.016-0.016v0-3.249c0-0.549 0.445-0.994 0.994-0.994 0 0 0.001 0 0.001 0v0zM7.67 26.624h-5.219c-0.549 0-0.995-0.445-0.995-0.995v-3.149c0-0.009 0.007-0.015 0.015-0.016h6.197c0.009 0 0.017 0.007 0.017 0.017v0 4.124c0 0.001 0 0.002 0 0.003 0 0.009-0.007 0.016-0.016 0.017v0zM7.67 20.966h-6.198c-0.009 0-0.016-0.007-0.016-0.016v0-4.127c0 0 0 0 0 0 0-0.009 0.007-0.016 0.016-0.017h6.197c0 0 0 0 0 0 0.009 0 0.016 0.007 0.017 0.016v4.127c-0.001 0.008-0.008 0.014-0.016 0.015v0zM7.67 15.299h-6.198c-0.009 0-0.016-0.007-0.016-0.016v0-4.128c0-0.001 0-0.002 0-0.003 0-0.009 0.007-0.016 0.016-0.017h6.197c0.009 0 0.017 0.007 0.017 0.017v0 4.125c0 0.001 0 0.001 0 0.002 0 0.009-0.007 0.016-0.016 0.017v0zM15.356 15.299h-6.197c-0.009 0-0.016-0.007-0.016-0.016v0-4.128c0 0 0 0 0 0 0-0.009 0.007-0.016 0.016-0.017h6.197c0.009 0 0.017 0.007 0.017 0.017v0 4.125c0 0.009-0.008 0.016-0.017 0.016 0 0 0 0 0 0v0zM15.356 26.627h-6.197c-0.009 0-0.016-0.008-0.016-0.017 0 0 0 0 0 0v0-4.131c0 0 0 0 0 0 0-0.009 0.007-0.016 0.016-0.017h6.197c0.009 0 0.017 0.007 0.017 0.017v0 4.125c0 0.001 0 0.002 0 0.003 0 0.009-0.007 0.017-0.017 0.017 0 0 0 0 0 0v0zM15.356 20.97h-6.197c-0.009 0-0.016-0.007-0.016-0.016v0-4.132c0-0.009 0.007-0.016 0.016-0.016v0h6.197c0 0 0 0 0 0 0.009 0 0.016 0.007 0.017 0.016v4.127c0 0.009-0.008 0.016-0.017 0.016 0 0 0 0 0 0v0z"></path>
<path d="M31.951 20.422c-0.034-0.234-0.219-0.417-0.451-0.448h-0.003l-1.37-0.179c-0.102-0.319-0.218-0.591-0.354-0.85l0.014 0.028 0.844-1.098c0.067-0.088 0.108-0.199 0.108-0.32s-0.040-0.232-0.109-0.321l0.001 0.001c-0.389-0.511-0.832-0.952-1.327-1.328l-0.017-0.012c-0.087-0.068-0.198-0.108-0.318-0.108s-0.231 0.041-0.32 0.109l0.001-0.001-1.096 0.843c-0.23-0.122-0.503-0.238-0.786-0.33l-0.038-0.011-0.17-1.366c-0.032-0.235-0.214-0.418-0.445-0.452h-0.003c-0.285-0.042-0.613-0.067-0.948-0.067s-0.663 0.024-0.984 0.071l0.037-0.004c-0.234 0.034-0.417 0.219-0.448 0.451v0.003l-0.179 1.37c-0.322 0.104-0.595 0.219-0.855 0.355l0.030-0.014-1.103-0.845c-0.088-0.068-0.199-0.108-0.32-0.108s-0.232 0.041-0.321 0.109l0.001-0.001c-0.509 0.389-0.95 0.829-1.327 1.322l-0.012 0.017c-0.068 0.087-0.109 0.199-0.109 0.32s0.041 0.233 0.11 0.321l-0.001-0.001 0.844 1.096c-0.125 0.233-0.241 0.506-0.333 0.791l-0.010 0.036-1.371 0.179c-0.235 0.031-0.419 0.214-0.452 0.445v0.003c-0.041 0.284-0.065 0.612-0.065 0.946s0.024 0.662 0.069 0.983l-0.004-0.037c0.033 0.234 0.218 0.417 0.45 0.448h0.003l1.371 0.18c0.102 0.321 0.218 0.594 0.357 0.855l-0.013-0.028-0.843 1.096c-0.068 0.088-0.109 0.199-0.109 0.32s0.041 0.232 0.11 0.321l-0.001-0.001c0.39 0.508 0.83 0.949 1.322 1.326l0.017 0.012c0.087 0.067 0.198 0.107 0.318 0.107s0.231-0.040 0.32-0.108l-0.001 0.001 1.098-0.844c0.233 0.126 0.506 0.242 0.79 0.334l0.035 0.010 0.179 1.37c0.030 0.235 0.213 0.42 0.445 0.453h0.003c0.284 0.041 0.611 0.064 0.944 0.064 0.001 0 0.002 0 0.003 0v0c0.334-0.001 0.662-0.024 0.983-0.068l-0.038 0.004c0.234-0.034 0.417-0.219 0.448-0.451v-0.003l0.18-1.372c0.321-0.104 0.594-0.22 0.854-0.355l-0.030 0.014 1.096 0.843c0.087 0.067 0.198 0.107 0.318 0.107s0.231-0.040 0.32-0.108l-0.001 0.001c0.513-0.387 0.955-0.828 1.332-1.322l0.012-0.017c0.067-0.088 0.108-0.199 0.108-0.32s-0.041-0.232-0.109-0.321l0.001 0.001-0.844-1.098c0.123-0.231 0.238-0.503 0.33-0.785l0.010-0.037 1.37-0.18c0.235-0.032 0.419-0.214 0.453-0.445v-0.003c0.041-0.284 0.065-0.613 0.065-0.946 0-0.335-0.024-0.665-0.070-0.988l0.004 0.037zM25.159 24.242c-1.587 0-2.873-1.286-2.873-2.873s1.286-2.873 2.873-2.873c1.586 0 2.872 1.286 2.873 2.872v0c-0.001 1.587-1.287 2.872-2.873 2.874v0z"></path>
</svg>
