<!-- Generated by IcoMoon.io -->
<svg version="1.1" xmlns="http://www.w3.org/2000/svg" width="32" height="32" viewBox="0 0 32 32">
<title>table_description</title>
<path d="M29.466 12.706l-2.891-1.669c-0.431-0.25-1.034-0.075-1.303 0.391l-7.597 13.156c0 0 0 0 0 0v0c-0.019 0.038-0.038 0.066-0.053 0.163-0.003 0.019-0.009 0.038-0.009 0.056-0.053 0.325-0.144 1.222-0.419 4.078-0.016 0.262 0.081 0.525 0.266 0.722 0.194 0.203 0.459 0.322 0.734 0.322 0.188 0 0.372-0.053 0.547-0.172 3.394-2.409 3.4-2.419 3.478-2.553l7.597-13.159c0.141-0.244 0.172-0.525 0.087-0.791-0.078-0.228-0.238-0.428-0.438-0.544v0zM20.775 26.991c-0.163 0.119-0.347 0.25-0.547 0.391l-1.722-0.994c0.025-0.244 0.047-0.472 0.069-0.669l2.2 1.272zM18.272 28.781c0.038-0.375 0.078-0.8 0.119-1.225l0.884 0.509c-0.35 0.25-0.7 0.497-1.003 0.716v0zM21.553 26.209l-0.578-0.334 6.337-10.975c0.147-0.253 0.059-0.581-0.197-0.728-0.253-0.147-0.581-0.063-0.728 0.194l-6.337 10.975-1.188-0.684 7.294-12.634 2.728 1.491-7.331 12.697z"></path>
<path d="M31.072 8.813l-1.931-1.116c-0.353-0.206-0.762-0.256-1.147-0.153-0.366 0.1-0.681 0.347-0.872 0.669l-0.597 1.037c-0.147 0.253-0.059 0.581 0.197 0.728 0.253 0.147 0.581 0.063 0.728-0.194l0.6-1.037c0.047-0.084 0.131-0.147 0.231-0.175 0.075-0.022 0.194-0.031 0.328 0.047l1.931 1.116c0.234 0.134 0.294 0.406 0.2 0.566l-0.6 1.037c-0.147 0.253-0.059 0.581 0.197 0.728 0.084 0.050 0.175 0.072 0.266 0.072 0.184 0 0.363-0.094 0.462-0.266l0.6-1.037c0.391-0.681 0.119-1.606-0.594-2.022v0z"></path>
<path d="M20.944 3.263h-16.672c-0.341 0-0.616 0.275-0.616 0.616s0.275 0.616 0.616 0.616h16.672c0.341 0 0.616-0.275 0.616-0.616s-0.278-0.616-0.616-0.616z"></path>
<path d="M21.016 25.672v0 0z"></path>
<path d="M17.731 28.244v0 0z"></path>
<path d="M16.009 19.934v-2.938h4.319v1.519l1.228-2.128v-12.509c0-0.341-0.275-0.616-0.616-0.616s-0.616 0.275-0.616 0.616v3.553h-4.316v-3.553c0-0.341-0.275-0.616-0.616-0.616s-0.616 0.275-0.616 0.616v3.553h-4.316v-3.553c0-0.341-0.275-0.616-0.616-0.616s-0.616 0.275-0.616 0.616v3.553h-4.316v-3.553c0-0.341-0.275-0.616-0.616-0.616s-0.616 0.275-0.616 0.616v3.981c-0.019 0.059-0.028 0.122-0.028 0.184s0.009 0.128 0.028 0.184v3.797c-0.019 0.059-0.028 0.122-0.028 0.184s0.009 0.128 0.028 0.184v3.797c-0.019 0.059-0.028 0.122-0.028 0.184s0.009 0.128 0.028 0.184v3.797c-0.019 0.059-0.028 0.122-0.028 0.184 0 0.341 0.275 0.616 0.616 0.616h14.525l0.709-1.228h-3.497zM16.009 8.662h4.319v2.938h-4.319v-2.938zM16.009 12.828h4.319v2.938h-4.319v-2.938zM9.234 19.934h-4.319v-2.938h4.319v2.938zM9.234 15.766h-4.319v-2.938h4.319v2.938zM9.234 11.6h-4.319v-2.938h4.319v2.938zM14.781 19.934h-4.319v-2.938h4.319v2.938zM14.781 15.766h-4.319v-2.938h4.319v2.938zM14.781 11.6h-4.319v-2.938h4.319v2.938z"></path>
<path d="M27.538 1.106c0-0.341-0.275-0.616-0.616-0.616h-26.019c-0.341 0-0.613 0.275-0.613 0.616v22.769c0 0.341 0.275 0.616 0.616 0.616h3.172l7.888 7.128c0.116 0.103 0.262 0.159 0.412 0.159 0.084 0 0.169-0.019 0.25-0.053 0.222-0.1 0.366-0.319 0.366-0.563v-6.672h3.972v-1.231h-4.588c-0.341 0-0.616 0.275-0.616 0.616v5.903l-7.034-6.359c-0.112-0.103-0.259-0.159-0.412-0.159h-2.797v-21.538h24.788v6.391l1.231-2.022v-4.984z"></path>
</svg>
