<!-- Generated by IcoMoon.io -->
<svg version="1.1" xmlns="http://www.w3.org/2000/svg" width="32" height="32" viewBox="0 0 32 32">
<title>table_join_2</title>
<path d="M23.969 13.404c0.395 0 0.716-0.32 0.716-0.716 0-0 0-0 0-0.001v0-7.549c0-0.818-0.663-1.481-1.481-1.481-0 0-0 0-0.001 0h-21.706c-0.827 0-1.497 0.67-1.498 1.497v21.691c0 0.827 0.671 1.497 1.498 1.497h17.216c0 0 0 0 0.001 0 0.436 0 0.79-0.354 0.79-0.79v0-0.042c0-0.436-0.354-0.79-0.79-0.79-0 0-0 0-0.001 0h-1.711c-0.009 0-0.017-0.007-0.017-0.017v0-9.872c0-0.009 0.008-0.016 0.017-0.016 0 0 0 0 0 0h1.162c0.418 0 0.757-0.339 0.757-0.757v0-0.009c0-0.418-0.339-0.757-0.757-0.757v0h-1.162c0 0 0 0 0 0-0.009 0-0.016-0.007-0.017-0.016v-4.167c0-0.009 0.007-0.017 0.017-0.017v0h6.225c0.009 0 0.017 0.007 0.017 0.017v0 1.578c0 0.395 0.32 0.716 0.715 0.716h0zM2.474 5.312h19.766c0 0 0 0 0.001 0 0.554 0 1.004 0.449 1.004 1.004 0 0 0 0.001 0 0.001v-0 3.278c-0 0.009-0.008 0.016-0.017 0.016 0 0 0 0 0 0h-21.741c-0.009 0-0.017-0.007-0.017-0.017v0-3.277c0-0 0-0.001 0-0.001 0-0.554 0.449-1.004 1.004-1.004 0 0 0 0 0.001 0h-0zM7.744 26.721h-5.27c-0.554-0.001-1.002-0.45-1.002-1.004 0 0 0 0 0 0v0-3.176c0-0.009 0.008-0.016 0.017-0.016 0 0 0 0 0 0h6.255c0 0 0 0 0 0 0.009 0 0.016 0.007 0.017 0.016v4.164c0 0.009-0.007 0.017-0.017 0.017v0zM7.744 21.010h-6.257c-0.008-0.001-0.015-0.008-0.015-0.017 0-0 0-0.001 0-0.001v0-4.16c0-0.009 0.007-0.017 0.017-0.017v0h6.255c0 0 0 0 0 0 0.009 0 0.016 0.007 0.017 0.016v4.161c0 0 0 0.001 0 0.001 0 0.009-0.007 0.016-0.016 0.017h-0zM7.744 15.29h-6.257c-0.009 0-0.017-0.007-0.017-0.017v0-4.163c0-0.009 0.007-0.017 0.017-0.017v0h6.257c0.009 0 0.017 0.007 0.017 0.017v0 4.164c-0 0.009-0.008 0.016-0.017 0.016 0 0 0 0 0 0v0zM15.502 15.29h-6.257c-0.009 0-0.017-0.007-0.017-0.017v0-4.163c0-0.009 0.007-0.017 0.017-0.017v0h6.255c0.009 0 0.017 0.007 0.017 0.017v0 4.164c0 0 0 0 0 0 0 0.009-0.007 0.016-0.016 0.016-0 0-0 0-0.001 0h0zM15.502 26.721h-6.257c-0.009 0-0.017-0.007-0.017-0.017v0-4.164c0-0.009 0.008-0.016 0.017-0.016 0 0 0 0 0 0h6.255c0 0 0 0 0.001 0 0.009 0 0.016 0.007 0.016 0.016 0 0 0 0 0 0v0 4.164c0 0.009-0.007 0.017-0.017 0.017v0zM15.502 21.010h-6.257c0 0 0 0 0 0-0.009 0-0.016-0.007-0.017-0.016v-4.162c0-0.009 0.008-0.016 0.017-0.016 0 0 0 0 0 0h6.255c0 0 0 0 0.001 0 0.009 0 0.016 0.007 0.016 0.016 0 0 0 0 0 0v0 4.16c0 0.001 0 0.001 0 0.002 0 0.009-0.007 0.016-0.016 0.016-0 0-0.001 0-0.001-0h0z"></path>
<path d="M25.067 14.476c-0 0-0 0-0.001 0-3.829 0-6.934 3.104-6.934 6.934s3.104 6.934 6.934 6.934c3.829 0 6.933-3.104 6.934-6.933v-0c-0.004-3.828-3.106-6.929-6.933-6.934h-0zM24.65 24.832l-0.458 0.452c-0.385 0.38-0.914 0.615-1.498 0.615s-1.113-0.235-1.498-0.615l0 0c-0.384-0.381-0.622-0.909-0.622-1.492s0.238-1.111 0.622-1.492l0-0 1.672-1.66c1.041-1.032 2.234-1.18 3.043-0.378 0.102 0.101 0.164 0.241 0.164 0.395 0 0.307-0.249 0.556-0.556 0.556-0.153 0-0.291-0.062-0.392-0.162l0 0c-0.476-0.471-1.128 0.035-1.472 0.379l-1.672 1.659c-0.182 0.179-0.294 0.429-0.294 0.704s0.113 0.525 0.294 0.704l0 0c0.183 0.181 0.436 0.293 0.714 0.293s0.53-0.112 0.714-0.293l-0 0 0.455-0.451c0.102-0.114 0.25-0.185 0.415-0.185 0.307 0 0.556 0.249 0.556 0.556 0 0.165-0.072 0.313-0.185 0.415l-0.001 0zM28.935 20.581l-1.785 1.77c-0.551 0.547-1.131 0.824-1.679 0.824-0.448 0-0.876-0.184-1.251-0.556-0.102-0.101-0.164-0.241-0.164-0.395 0-0.307 0.249-0.556 0.556-0.556 0.153 0 0.291 0.062 0.392 0.162l-0-0c0.163 0.163 0.546 0.542 1.362-0.268l1.785-1.77c0.181-0.179 0.293-0.428 0.293-0.702s-0.112-0.523-0.293-0.702l-0-0c-0.355-0.353-0.9-0.525-1.316-0.111l-0.566 0.563c-0.1 0.094-0.234 0.152-0.383 0.152-0.308 0-0.557-0.249-0.557-0.557 0-0.15 0.059-0.286 0.155-0.386l-0 0 0.566-0.562c0.804-0.797 2.017-0.751 2.884 0.111 0.384 0.381 0.622 0.909 0.622 1.492s-0.238 1.112-0.622 1.492l-0 0z"></path>
</svg>
