<svg version="1.1" xmlns="http://www.w3.org/2000/svg" width="32" height="32" viewBox="0 0 32 32">
<title>tables_manage</title>
<path d="M13.891 25.653v-3.681h1.616c0.075-0.266 0.159-0.525 0.256-0.778h-1.872v-3.8h3.894v0.634c0.531-0.544 1.134-1.012 1.788-1.409h-1.009v-3.8h3.894v2.65c0.253-0.053 0.516-0.091 0.778-0.122v-2.531h3.756v2.856c0.266 0.081 0.525 0.175 0.778 0.278v-10.119c0-1.481-1.169-2.597-2.719-2.597h-1.188c-0.175-1.297-1.262-2.237-2.684-2.237h-17.903c-1.491 0-2.569 1.091-2.569 2.597v17.962c0 1.528 1.081 2.637 2.569 2.637h1.3l0.003-0.359c0.019 1.509 1.091 2.6 2.566 2.6h8.234c-0.056-0.253-0.1-0.516-0.134-0.778l-1.353-0.003zM17.784 12.819v3.797h-3.894v-3.797h3.894zM17.784 8.244v3.797h-3.894v-3.8l3.894 0.003zM22.456 8.244v3.797h-3.894v-3.8l3.894 0.003zM26.991 8.244v3.797h-3.756v-3.8l3.756 0.003zM25.050 4.016c1.106 0 1.941 0.781 1.941 1.819v1.631h-21.634v-1.631c0-1.088 0.719-1.819 1.791-1.819h17.903zM1.462 6.025h3.066v3.722h-3.066v-3.722zM1.462 10.647h3.066v3.722h-3.066v-3.722zM1.462 15.222h3.066v3.722h-3.066v-3.722zM4.569 23.413h-1.291c-1.053 0-1.791-0.762-1.791-1.856v-1.825h3.084l-0.003 3.681zM4.647 5.225h-3.163v-1.631c0-1.087 0.719-1.819 1.791-1.819h17.903c0.975 0 1.738 0.606 1.903 1.459v0 0 0 0 0h-15.934c-1.278 0.003-2.25 0.813-2.5 1.991v0zM8.441 25.653h-1.291c-1.053 0-1.791-0.762-1.791-1.856v-1.825h3.081v3.681zM8.441 21.191h-3.081v-3.797h3.081v3.797zM8.441 12.819v3.797h-3.081v-3.797h3.081zM8.441 8.244v3.797h-3.081v-3.8l3.081 0.003zM13.113 25.653h-3.894v-3.681h3.894v3.681zM13.113 21.191h-3.894v-3.797h3.894v3.797zM13.113 12.819v3.797h-3.894v-3.797h3.894zM13.113 8.244v3.797h-3.894v-3.8l3.894 0.003z"></path>
<path d="M23.084 3.234v0c-0.169-0.853-0.928-1.459-1.903-1.459v0c0.972 0 1.734 0.606 1.903 1.459z"></path>
<path d="M23.084 3.234v0 0 0z"></path>
<path d="M18.563 12.037v0z"></path>
<path d="M5.356 16.616v0z"></path>
<path d="M23.234 12.037v0z"></path>
<path d="M13.891 12.037v0z"></path>
<path d="M5.356 12.037v0z"></path>
<path d="M13.891 16.616v0z"></path>
<path d="M9.219 12.037v0z"></path>
<path d="M9.219 16.616v0z"></path>
<path d="M24.203 27.469c-1.8 0-3.266-1.466-3.266-3.266s1.466-3.266 3.266-3.266 3.266 1.462 3.266 3.266c0 1.8-1.466 3.266-3.266 3.266v0zM24.203 22.131c-1.141 0-2.069 0.928-2.069 2.069s0.928 2.069 2.069 2.069c1.141 0 2.069-0.928 2.069-2.069s-0.928-2.069-2.069-2.069z"></path>
<path d="M24.206 32c-0.356 0-0.712-0.025-1.078-0.075-0.269-0.034-0.478-0.247-0.509-0.516l-0.203-1.556c-0.325-0.103-0.637-0.231-0.938-0.391l-1.247 0.959c-0.212 0.163-0.509 0.166-0.725 0.003-0.569-0.428-1.094-0.956-1.522-1.522-0.163-0.216-0.159-0.509 0.003-0.725l0.959-1.247c-0.156-0.3-0.288-0.616-0.391-0.941l-1.559-0.203c-0.269-0.034-0.478-0.244-0.516-0.509-0.097-0.712-0.097-1.438 0-2.15 0.034-0.269 0.247-0.478 0.516-0.509l1.559-0.203c0.103-0.325 0.234-0.637 0.391-0.941l-0.959-1.247c-0.163-0.212-0.166-0.509 0-0.725 0.428-0.566 0.953-1.091 1.522-1.522 0.216-0.159 0.512-0.159 0.725 0.003l1.247 0.959c0.303-0.156 0.616-0.284 0.938-0.387l0.203-1.556c0.034-0.269 0.244-0.478 0.509-0.516 0.725-0.1 1.419-0.1 2.153 0 0.269 0.034 0.475 0.247 0.509 0.516l0.203 1.559c0.322 0.103 0.637 0.234 0.934 0.387l1.247-0.959c0.216-0.166 0.512-0.166 0.725-0.003 0.578 0.438 1.091 0.95 1.525 1.525 0.159 0.216 0.159 0.509-0.003 0.725l-0.959 1.247c0.156 0.3 0.284 0.613 0.387 0.934l1.559 0.203c0.269 0.034 0.478 0.244 0.516 0.509 0.097 0.728 0.097 1.431 0 2.153-0.038 0.269-0.247 0.475-0.516 0.509l-1.559 0.203c-0.103 0.322-0.231 0.634-0.387 0.934l0.959 1.247c0.163 0.216 0.166 0.509 0.003 0.725-0.431 0.572-0.944 1.084-1.525 1.522-0.216 0.166-0.509 0.159-0.725 0l-1.247-0.959c-0.3 0.156-0.613 0.284-0.934 0.387l-0.203 1.559c-0.034 0.269-0.244 0.478-0.509 0.516-0.369 0.050-0.722 0.075-1.078 0.075v0zM23.744 30.788c0.313 0.022 0.616 0.022 0.925 0l0.194-1.484c0.031-0.244 0.212-0.447 0.453-0.503 0.481-0.116 0.938-0.306 1.356-0.563 0.212-0.131 0.478-0.116 0.675 0.034l1.184 0.913c0.234-0.203 0.453-0.422 0.653-0.653l-0.913-1.188c-0.15-0.197-0.166-0.466-0.034-0.675 0.256-0.419 0.447-0.875 0.563-1.356 0.059-0.238 0.259-0.419 0.503-0.453l1.481-0.194c0.022-0.313 0.022-0.616 0-0.928l-1.481-0.194c-0.244-0.031-0.447-0.212-0.503-0.453-0.116-0.481-0.306-0.938-0.563-1.356-0.131-0.209-0.116-0.481 0.034-0.675l0.913-1.188c-0.203-0.234-0.419-0.453-0.653-0.653l-1.184 0.913c-0.2 0.153-0.466 0.166-0.675 0.034-0.419-0.259-0.878-0.447-1.356-0.563-0.241-0.059-0.419-0.259-0.453-0.503l-0.194-1.484c-0.309-0.022-0.616-0.025-0.925 0l-0.194 1.481c-0.031 0.247-0.212 0.447-0.453 0.503-0.481 0.116-0.938 0.306-1.359 0.563-0.209 0.128-0.481 0.116-0.675-0.034l-1.188-0.909c-0.231 0.2-0.453 0.422-0.653 0.653l0.913 1.188c0.15 0.197 0.166 0.466 0.034 0.675-0.259 0.419-0.447 0.878-0.563 1.356-0.059 0.241-0.256 0.422-0.503 0.453l-1.481 0.194c-0.022 0.306-0.022 0.619 0 0.925l1.481 0.194c0.247 0.031 0.447 0.212 0.503 0.453 0.116 0.481 0.306 0.938 0.563 1.359 0.131 0.212 0.116 0.481-0.034 0.675l-0.916 1.188c0.203 0.231 0.422 0.453 0.653 0.653l1.188-0.913c0.194-0.15 0.466-0.166 0.675-0.034 0.419 0.259 0.878 0.447 1.356 0.563 0.241 0.056 0.422 0.259 0.453 0.503l0.2 1.484z"></path>
</svg>
