<!-- Generated by IcoMoon.io -->
<svg version="1.1" xmlns="http://www.w3.org/2000/svg" width="32" height="32" viewBox="0 0 32 32">
<title>table_add</title>
<path d="M23.969 13.404c0.395 0 0.716-0.32 0.716-0.716 0-0 0-0 0-0.001v0-7.549c0-0.818-0.663-1.481-1.481-1.481-0 0-0 0-0.001 0h-21.706c-0.827 0-1.497 0.67-1.498 1.497v21.691c0 0.827 0.671 1.497 1.498 1.497h17.25c0 0 0 0 0.001 0 0.436 0 0.79-0.354 0.79-0.79v0-0.042c0-0.436-0.354-0.79-0.79-0.79-0 0-0 0-0.001 0h-1.745c-0.009 0-0.017-0.007-0.017-0.017v0-9.872c0-0.009 0.008-0.016 0.017-0.016 0 0 0 0 0 0h1.109c0.418-0 0.757-0.339 0.757-0.757v-0.009c0-0.001 0-0.002 0-0.003 0-0.418-0.339-0.757-0.757-0.757 0 0 0 0 0 0h-1.109c0 0 0 0 0 0-0.009 0-0.016-0.007-0.017-0.016v-4.164c0-0.009 0.007-0.017 0.017-0.017v0h6.225c0.009 0 0.017 0.007 0.017 0.017v0 1.578c0 0.395 0.32 0.716 0.715 0.716h0zM2.474 5.312h19.766c0 0 0 0 0.001 0 0.554 0 1.004 0.449 1.004 1.004 0 0 0 0.001 0 0.001v-0 3.278c-0 0.009-0.008 0.016-0.017 0.016 0 0 0 0 0 0h-21.741c-0.009 0-0.017-0.007-0.017-0.017v0-3.277c0-0 0-0.001 0-0.001 0-0.554 0.449-1.004 1.004-1.004 0 0 0 0 0.001 0h-0zM7.744 26.721h-5.27c-0.554-0.001-1.002-0.45-1.002-1.004 0 0 0 0 0 0v0-3.176c0-0.009 0.008-0.016 0.017-0.016 0 0 0 0 0 0h6.255c0 0 0 0 0 0 0.009 0 0.016 0.007 0.017 0.016v4.164c0 0.009-0.007 0.017-0.017 0.017v0zM7.744 21.010h-6.257c-0.008-0.001-0.015-0.008-0.015-0.017 0-0 0-0.001 0-0.001v0-4.16c0-0.009 0.007-0.017 0.017-0.017v0h6.255c0 0 0 0 0 0 0.009 0 0.016 0.007 0.017 0.016v4.161c0 0 0 0.001 0 0.001 0 0.009-0.007 0.016-0.016 0.017h-0zM7.744 15.29h-6.257c-0.009 0-0.017-0.007-0.017-0.017v0-4.163c0-0.009 0.007-0.017 0.017-0.017v0h6.257c0.009 0 0.017 0.007 0.017 0.017v0 4.164c-0 0.009-0.008 0.016-0.017 0.016 0 0 0 0 0 0v0zM15.502 15.29h-6.257c-0.009 0-0.017-0.007-0.017-0.017v0-4.163c0-0.009 0.007-0.017 0.017-0.017v0h6.255c0.009 0 0.017 0.007 0.017 0.017v0 4.164c0 0 0 0 0 0 0 0.009-0.007 0.016-0.016 0.016-0 0-0 0-0.001 0h0zM15.502 26.721h-6.257c-0.009 0-0.017-0.007-0.017-0.017v0-4.164c0-0.009 0.008-0.016 0.017-0.016 0 0 0 0 0 0h6.255c0 0 0 0 0.001 0 0.009 0 0.016 0.007 0.016 0.016 0 0 0 0 0 0v0 4.164c0 0.009-0.007 0.017-0.017 0.017v0zM15.502 21.010h-6.257c0 0 0 0 0 0-0.009 0-0.016-0.007-0.017-0.016v-4.162c0-0.009 0.008-0.016 0.017-0.016 0 0 0 0 0 0h6.255c0 0 0 0 0.001 0 0.009 0 0.016 0.007 0.016 0.016 0 0 0 0 0 0v0 4.16c0 0.001 0 0.001 0 0.002 0 0.009-0.007 0.016-0.016 0.016-0 0-0.001 0-0.001-0h0z"></path>
<path d="M25.067 14.476c-0 0-0 0-0.001 0-3.829 0-6.934 3.104-6.934 6.934s3.104 6.934 6.934 6.934c3.829 0 6.933-3.104 6.934-6.933v-0c-0.004-3.828-3.106-6.93-6.933-6.934h-0zM28.918 22.122h-3.136v3.139c0 0.393-0.319 0.712-0.712 0.712s-0.712-0.319-0.712-0.712v0-3.139h-3.136c-0.006 0-0.014 0-0.021 0-0.393 0-0.712-0.319-0.712-0.712s0.319-0.712 0.712-0.712c0.008 0 0.015 0 0.022 0l-0.001-0h3.136v-3.136c0-0.393 0.319-0.712 0.712-0.712s0.712 0.319 0.712 0.712v0 3.136h3.136c0.006-0 0.014-0 0.021-0 0.393 0 0.712 0.319 0.712 0.712s-0.319 0.712-0.712 0.712c-0.008 0-0.015-0-0.022-0l0.001 0z"></path>
</svg>
