<!-- Generated by IcoMoon.io -->
<svg version="1.1" xmlns="http://www.w3.org/2000/svg" width="32" height="32" viewBox="0 0 32 32">
<title>table_operations</title>
<path d="M18.289 21.624c-2.029 0-3.681-1.651-3.681-3.683 0-2.029 1.651-3.681 3.681-3.681s3.681 1.651 3.681 3.681c0 2.031-1.653 3.683-3.681 3.683zM18.289 15.608c-1.287 0-2.333 1.047-2.333 2.333s1.048 2.333 2.333 2.333 2.332-1.047 2.332-2.333-1.047-2.333-2.332-2.333z"></path>
<path d="M18.293 26.733c-0.403 0-0.804-0.028-1.215-0.084-0.301-0.040-0.537-0.28-0.576-0.581l-0.229-1.756c-0.365-0.115-0.719-0.261-1.057-0.44l-1.407 1.081c-0.239 0.184-0.575 0.185-0.817 0.004-0.64-0.484-1.233-1.079-1.716-1.716-0.184-0.243-0.181-0.576 0.004-0.817l1.080-1.405c-0.177-0.339-0.324-0.695-0.44-1.060l-1.757-0.231c-0.301-0.039-0.539-0.275-0.58-0.576-0.111-0.804-0.111-1.62 0-2.425 0.040-0.301 0.28-0.537 0.58-0.576l1.757-0.229c0.115-0.365 0.263-0.719 0.44-1.060l-1.081-1.405c-0.185-0.24-0.188-0.573-0.004-0.816 0.484-0.639 1.076-1.232 1.716-1.716 0.243-0.181 0.577-0.18 0.817 0.004l1.407 1.081c0.34-0.175 0.695-0.321 1.057-0.437l0.229-1.756c0.039-0.301 0.275-0.539 0.576-0.581 0.819-0.113 1.6-0.113 2.428 0.001 0.301 0.040 0.536 0.28 0.576 0.58l0.229 1.757c0.364 0.115 0.717 0.263 1.055 0.437l1.405-1.080c0.244-0.187 0.577-0.187 0.817-0.004 0.652 0.492 1.228 1.072 1.719 1.719 0.181 0.243 0.18 0.576-0.004 0.817l-1.081 1.407c0.175 0.337 0.32 0.689 0.436 1.053l1.757 0.229c0.301 0.039 0.539 0.275 0.581 0.576 0.111 0.82 0.111 1.613 0 2.428-0.043 0.301-0.28 0.536-0.581 0.576l-1.757 0.231c-0.115 0.364-0.261 0.716-0.436 1.053l1.081 1.407c0.184 0.243 0.185 0.576 0.004 0.817-0.487 0.645-1.065 1.223-1.719 1.716-0.241 0.185-0.575 0.18-0.817-0.001l-1.405-1.081c-0.339 0.175-0.691 0.321-1.055 0.437l-0.231 1.759c-0.039 0.301-0.275 0.539-0.576 0.581-0.411 0.055-0.812 0.083-1.211 0.083zM17.769 25.368c0.351 0.025 0.695 0.025 1.044 0l0.219-1.673c0.036-0.276 0.239-0.503 0.509-0.568 0.541-0.132 1.056-0.345 1.529-0.635 0.239-0.147 0.539-0.129 0.763 0.039l1.336 1.028c0.264-0.229 0.512-0.475 0.737-0.737l-1.028-1.337c-0.171-0.223-0.185-0.525-0.039-0.763 0.288-0.472 0.503-0.985 0.633-1.528 0.065-0.269 0.292-0.472 0.568-0.509l1.671-0.219c0.025-0.351 0.025-0.695 0-1.047l-1.671-0.219c-0.276-0.036-0.503-0.239-0.568-0.509-0.132-0.543-0.345-1.056-0.633-1.528-0.147-0.237-0.129-0.541 0.039-0.763l1.028-1.337c-0.228-0.263-0.473-0.511-0.737-0.737l-1.336 1.028c-0.224 0.172-0.525 0.187-0.763 0.040-0.473-0.292-0.989-0.504-1.528-0.635-0.271-0.065-0.473-0.292-0.511-0.568l-0.219-1.675c-0.349-0.025-0.695-0.027-1.044 0l-0.219 1.671c-0.036 0.277-0.239 0.503-0.511 0.568-0.541 0.132-1.056 0.344-1.533 0.635-0.237 0.145-0.543 0.129-0.761-0.040l-1.337-1.028c-0.261 0.228-0.509 0.476-0.736 0.739l1.028 1.337c0.171 0.221 0.185 0.525 0.039 0.763-0.292 0.473-0.505 0.989-0.635 1.531-0.065 0.271-0.289 0.475-0.568 0.511l-1.671 0.219c-0.024 0.347-0.024 0.696 0 1.043l1.671 0.219c0.277 0.036 0.503 0.239 0.568 0.511 0.132 0.543 0.345 1.057 0.635 1.533 0.147 0.239 0.129 0.541-0.040 0.763l-1.028 1.336c0.228 0.261 0.477 0.511 0.737 0.737l1.337-1.028c0.219-0.171 0.525-0.187 0.763-0.039 0.473 0.292 0.989 0.505 1.529 0.635 0.271 0.064 0.475 0.292 0.511 0.568l0.221 1.671z"></path>
<path d="M27.501 5.077h-1.263c-0.185-1.379-1.344-2.381-2.856-2.381h-19.044c-1.584 0-2.733 1.161-2.733 2.761v19.107c0 1.625 1.149 2.804 2.733 2.804h1.384l0.004-0.383c0.019 1.604 1.16 2.764 2.729 2.764h19.044c1.623 0 2.893-1.232 2.893-2.804v-19.107c0.001-1.575-1.243-2.761-2.892-2.761zM2.408 8.044h3.261v3.96h-3.261v-3.96zM2.408 12.961h3.261v3.96h-3.261v-3.96zM2.408 17.827h3.261v3.96h-3.261v-3.96zM5.713 26.539h-1.375c-1.121 0-1.905-0.813-1.905-1.976v-1.94h3.28v3.916zM5.795 7.192h-3.361v-1.735c0-1.156 0.765-1.933 1.905-1.933h19.044c1.037 0 1.848 0.645 2.027 1.553h-16.952c-1.361 0-2.396 0.859-2.663 2.115zM9.832 28.921h-1.375c-1.121 0-1.905-0.813-1.905-1.976v-1.94h3.28v3.916zM29.567 26.945c0 1.127-0.888 1.976-2.065 1.976h-1.932v-3.916h3.997v1.94zM29.567 9.573h-5.333c0.476 0.341 0.925 0.717 1.336 1.133v-0.305h3.997v4.040h-1.667c0.096 0.271 0.18 0.547 0.253 0.828h1.415v4.040h-1.196c-0.041 0.28-0.091 0.556-0.155 0.828h1.351v4.040h-3.315c-0.449 0.56-0.955 1.071-1.512 1.524v3.22h-4.141v-1.205c-0.272 0.061-0.548 0.109-0.828 0.149v1.056h-4.141v-1.321c-0.281-0.077-0.557-0.168-0.828-0.269v1.591h-4.143v-3.916h0.505c-0.501-0.501-0.945-1.059-1.333-1.656v0.828h-3.28v-4.040h1.915c-0.064-0.272-0.113-0.548-0.155-0.828h-1.76v-4.040h1.979c0.073-0.281 0.157-0.557 0.253-0.828h-2.232v-4.040h3.28v1.904c0.251-0.385 0.528-0.752 0.828-1.1v-0.804h0.777c0.32-0.296 0.656-0.573 1.012-0.828h-5.897v-1.735c0-1.156 0.765-1.933 1.905-1.933h19.044c1.177 0 2.065 0.831 2.065 1.933v1.735z"></path>
<path d="M14.801 27.259v0.071c0.271 0.101 0.547 0.192 0.828 0.269v-0.072c-0.283-0.075-0.559-0.164-0.828-0.268z"></path>
</svg>
