<!-- Generated by IcoMoon.io -->
<svg version="1.1" xmlns="http://www.w3.org/2000/svg" width="32" height="32" viewBox="0 0 32 32">
<title>table_edit</title>
<path d="M2.196 4.628h21.905c0.349 0 0.632 0.283 0.632 0.632v0 3.942h-23.168v-3.942c0-0.349 0.283-0.632 0.632-0.632v0zM8.256 27.407h-6.060c0 0 0 0-0.001 0-0.349 0-0.632-0.283-0.632-0.632v0-3.834h6.692zM8.256 21.331h-6.692v-4.465h6.691zM8.256 15.244h-6.692v-4.465h6.692zM16.512 15.244h-6.692v-4.465h6.692zM9.822 27.404v-4.463h6.69c0.863-0.001 1.562-0.701 1.562-1.565 0 0 0 0 0-0.001v0-4.511h3.584c0.435 0 0.788-0.353 0.788-0.788v0-0.044c0-0.435-0.353-0.788-0.788-0.788h-3.584v-4.465h6.656v1.839c0 0.435 0.353 0.788 0.788 0.788v0c0.411 0 0.744-0.334 0.744-0.745v0-8.218c0-0.869-0.704-1.574-1.573-1.576h-23.511c-0.651 0-1.179 0.528-1.179 1.179v0 23.908c0 0.651 0.528 1.179 1.179 1.179v0h13.619c0 0 0 0 0.001 0 0.476 0 0.862-0.386 0.862-0.862 0 0 0 0 0-0.001v0c0 0 0 0 0-0.001 0-0.476-0.386-0.863-0.863-0.863v0zM16.512 21.331h-6.692v-4.467h6.692z"></path>
<path d="M19.677 23.004c-0.166-0.16-0.269-0.385-0.269-0.634 0-0.243 0.099-0.463 0.258-0.623l6.637-6.648c0.458-0.433 1.079-0.7 1.761-0.7 0.651 0 1.245 0.243 1.698 0.642l-0.003-0.002 1.532 1.536c0.951 1.011 0.952 2.549 0 3.501l-6.588 6.58c-0.159 0.159-0.38 0.258-0.623 0.258-0.238 0-0.454-0.094-0.612-0.247v0z"></path>
<path d="M17.273 28.27l0.259-4.121c0.022-0.341 0.303-0.609 0.648-0.609 0.18 0 0.342 0.073 0.459 0.191v0l4.032 4.032c0.118 0.117 0.191 0.28 0.191 0.459 0 0.344-0.268 0.626-0.607 0.648h-0.002l-4.121 0.259c-0.014 0.001-0.031 0.001-0.048 0.001-0.449 0-0.812-0.364-0.812-0.812 0-0.017 0.001-0.034 0.002-0.050v0.002z"></path>
</svg>
