<!-- Generated by IcoMoon.io -->
<svg version="1.1" xmlns="http://www.w3.org/2000/svg" width="32" height="32" viewBox="0 0 32 32">
<title>table_join</title>
<path d="M23.953 16.607c0 0 0 0 0.001 0 0.395 0 0.715-0.32 0.715-0.715v0-10.746c0-0.817-0.662-1.48-1.48-1.48v0h-21.692c-0.826 0-1.496 0.67-1.496 1.496v0 21.676c0 0.826 0.67 1.496 1.496 1.496v0h16.168c0.436 0 0.789-0.353 0.789-0.789v0-0.042c0 0 0 0 0-0.001 0-0.436-0.353-0.789-0.789-0.789h-0.673c0 0 0 0 0 0-0.009 0-0.016-0.007-0.017-0.016v-4.16h0.739c0.409 0 0.74-0.331 0.74-0.74v0-0.064c0 0 0 0 0-0.001 0-0.409-0.331-0.74-0.74-0.74h-0.739v-4.16c0-0.009 0.008-0.016 0.017-0.016 0 0 0 0 0 0h6.921c0.418 0 0.756-0.339 0.756-0.756v0-0.009c0 0 0 0 0-0.001 0-0.417-0.338-0.756-0.756-0.756h-6.921c0 0 0 0 0 0-0.009 0-0.016-0.007-0.017-0.016v-4.16c0-0.009 0.007-0.017 0.017-0.017v0h6.221c0.009 0 0.017 0.007 0.017 0.017v0 4.773c0 0.395 0.32 0.716 0.716 0.716v0zM2.472 5.32h19.754c0.001 0 0.002 0 0.003 0 0.554 0 1.004 0.449 1.004 1.004 0 0 0 0 0 0v0 3.277c0 0.009-0.007 0.017-0.017 0.017v0h-21.73c-0.008-0.001-0.013-0.008-0.013-0.016 0 0 0-0.001 0-0.001v0-3.277c0 0 0 0 0-0.001 0-0.553 0.448-1.001 1-1.003v0zM7.736 26.713h-5.264c-0.553-0.001-1-0.45-1-1.003 0 0 0 0 0 0v0-3.174c0-0.009 0.007-0.016 0.016-0.016v0h6.251c0 0 0 0 0 0 0.009 0 0.016 0.007 0.017 0.016v4.16c0 0 0 0.001 0 0.001 0 0.009-0.007 0.017-0.017 0.017-0.001 0-0.002 0-0.003 0v0zM7.736 21.007h-6.251c-0.007-0.001-0.013-0.007-0.013-0.015v-4.16c0 0 0 0 0 0 0-0.009 0.007-0.016 0.016-0.017h6.251c0 0 0 0 0 0 0.009 0 0.016 0.007 0.017 0.016v4.16c-0.001 0.009-0.008 0.016-0.017 0.016-0.001 0-0.002 0-0.003 0v0zM7.736 15.29h-6.251c-0.009 0-0.016-0.007-0.016-0.016v0-4.16c0 0 0 0 0 0 0-0.009 0.007-0.016 0.016-0.017h6.251c0.009 0 0.017 0.007 0.017 0.017v0 4.16c0 0.009-0.008 0.016-0.017 0.016 0 0 0 0 0 0v0zM15.489 15.29h-6.251c0 0 0 0 0 0-0.009 0-0.016-0.007-0.017-0.016v-4.16c0-0.009 0.007-0.017 0.017-0.017v0h6.25c0.009 0 0.017 0.007 0.017 0.017v0 4.16c0 0.009-0.008 0.016-0.017 0.016 0 0 0 0 0 0v0zM15.489 26.713h-6.251c0 0 0 0 0 0-0.009 0-0.016-0.007-0.017-0.016v-4.16c0-0.009 0.008-0.016 0.017-0.016 0 0 0 0 0 0h6.25c0 0 0 0 0 0 0.009 0 0.016 0.007 0.017 0.016v4.16c0 0.009-0.008 0.016-0.017 0.016 0 0 0 0 0 0v0zM15.489 21.007h-6.251c-0.009 0-0.017-0.007-0.017-0.017v0-4.16c0-0.009 0.008-0.016 0.017-0.016 0 0 0 0 0 0h6.25c0 0 0 0 0 0 0.009 0 0.016 0.007 0.017 0.016v4.16c0 0.009-0.007 0.017-0.017 0.017v0z"></path>
<path d="M26.112 24.543c0 0-0.001 0-0.001 0-0.664 0-1.267-0.265-1.708-0.694l-0.795-0.794c-0.145-0.152-0.234-0.359-0.234-0.586 0-0.469 0.381-0.85 0.85-0.85 0.227 0 0.434 0.089 0.586 0.234v0l0.791 0.796c0.124 0.125 0.297 0.203 0.488 0.203 0.007 0 0.014 0 0.021 0h-0.001c0.219-0.002 0.416-0.092 0.559-0.237l3.401-3.402c0.146-0.14 0.237-0.337 0.237-0.555 0-0.001 0-0.002 0-0.003v0c0-0.009 0.001-0.019 0.001-0.029 0-0.188-0.078-0.357-0.204-0.478v0l-1.455-1.455c-0.129-0.126-0.305-0.204-0.5-0.204-0.003 0-0.006 0-0.008 0v0c-0.219 0.003-0.416 0.093-0.558 0.237l-1.118 1.117c-0.15 0.137-0.351 0.22-0.571 0.22-0.469 0-0.85-0.381-0.85-0.85 0-0.221 0.084-0.423 0.223-0.574l1.116-1.116c0.442-0.445 1.052-0.722 1.727-0.728h0.001c0.016 0 0.035-0.001 0.053-0.001 0.658 0 1.255 0.265 1.688 0.693l1.455 1.455c0.43 0.43 0.695 1.023 0.695 1.679 0 0.023 0 0.046-0.001 0.069v-0.003c-0.014 0.675-0.289 1.282-0.728 1.728l-3.401 3.401c-0.446 0.448-1.063 0.726-1.745 0.726-0.005 0-0.010 0-0.015 0h0.001z"></path>
<path d="M22.336 28.334c-0.002 0-0.004 0-0.007 0-0.666 0-1.268-0.272-1.703-0.71l-1.456-1.456c-0.439-0.438-0.71-1.043-0.71-1.712 0-0.006 0-0.011 0-0.017v0.001c0-0.003 0-0.007 0-0.010 0-0.674 0.279-1.283 0.727-1.717l3.419-3.419c0.964-0.948 2.504-0.964 3.452-0.017l0.744 0.745c0.154 0.154 0.25 0.367 0.25 0.603 0 0.47-0.381 0.851-0.851 0.851-0.235 0-0.448-0.095-0.602-0.249v0l-0.742-0.747c-0.121-0.126-0.292-0.205-0.481-0.205-0.015 0-0.031 0.001-0.046 0.002h0.002c-0.21 0.004-0.4 0.087-0.542 0.221v0l-3.418 3.439c-0.136 0.134-0.22 0.321-0.22 0.527 0 0.005 0 0.010 0 0.015v-0.001c0 0.006 0 0.013 0 0.020 0 0.196 0.077 0.374 0.203 0.505l1.455 1.455c0.134 0.128 0.316 0.207 0.516 0.207 0.209 0 0.397-0.086 0.533-0.224l1.066-1.066c0.152-0.145 0.359-0.234 0.586-0.234 0.469 0 0.85 0.381 0.85 0.85 0 0.227-0.089 0.434-0.234 0.586v0l-1.065 1.065c-0.447 0.429-1.055 0.694-1.725 0.694-0.001 0-0.002 0-0.004 0v0z"></path>
</svg>
