<svg version="1.1" xmlns="http://www.w3.org/2000/svg" width="32" height="32" viewBox="0 0 32 32">
<title>table_simple</title>
<path d="M9.819 21.331h3.347z"></path>
<path d="M9.822 27.403h3.344z"></path>
<path d="M27.972 2.869h-23.944c-0.65 0-1.178 0.528-1.178 1.178v23.909c0 0.65 0.528 1.178 1.178 1.178h23.944c0.65 0 1.178-0.528 1.178-1.178v-23.909c0-0.653-0.528-1.178-1.178-1.178zM4.416 5.259c0-0.35 0.281-0.631 0.631-0.631h21.906c0.35 0 0.631 0.284 0.631 0.631v3.941h-23.169v-3.941zM11.106 27.406h-6.059c0 0 0 0 0 0-0.35 0-0.631-0.281-0.631-0.631v-3.834h6.691v4.466zM4.412 21.331v-4.466h6.691v4.466h-6.691zM11.106 15.244h-6.694v-4.466h6.691v4.466zM19.328 27.403l-6.656 0.003v-4.466h6.656v4.463zM19.331 21.331h-6.662v-4.466h6.662v4.466zM19.331 15.244h-6.662v-4.466h6.662v4.466zM27.587 26.775c0 0.35-0.281 0.631-0.631 0.631 0 0 0 0 0 0h-6.063v-4.466h6.691v3.834zM27.587 21.331h-6.694v-4.466h6.691v4.466zM27.587 15.244h-6.694v-4.466h6.691v4.466z"></path>
</svg>
