<svg version="1.1" xmlns="http://www.w3.org/2000/svg" width="32" height="32" viewBox="0 0 32 32">
<title>tag_price_sale</title>
<path d="M27.2 2c0 0 0 0 0 0h-7.7c-0.5 0-1 0.2-1.3 0.6l-15.4 15.3c-0.5 0.5-0.8 1.2-0.8 2 0 0.7 0.3 1.4 0.8 2l7.3 7.3c0.5 0.5 1.2 0.8 2 0.8 0.7 0 1.4-0.3 2-0.8l15.4-15.4c0.4-0.4 0.6-0.8 0.6-1.3v-7.7c-0.1-1.5-1.4-2.8-2.9-2.8zM12.7 27.8c-0.3 0.3-0.8 0.3-1.1 0l-7.3-7.3c-0.2-0.2-0.3-0.4-0.3-0.6s0.1-0.4 0.2-0.6l15.3-15.3h7.7c0.4 0 0.8 0.4 0.8 0.8v7.6l-15.3 15.4zM26 8c0 1.1-0.9 2-2 2s-2-0.9-2-2 0.9-2 2-2 2 0.9 2 2z"></path>
</svg>
