<svg version="1.1" xmlns="http://www.w3.org/2000/svg" width="32" height="32" viewBox="0 0 32 32">
<title>take_ticket_vote_box</title>
<path d="M13.982 13.39h-9.334c-0.177 0-0.346-0.070-0.471-0.195s-0.195-0.294-0.195-0.471l0.001-10.057c0-0.369 0.298-0.667 0.667-0.667v0c0.369 0 0.667 0.299 0.667 0.667l-0.001 9.39h8.667c0.369 0 0.667 0.298 0.667 0.667s-0.298 0.667-0.667 0.667z"></path>
<path d="M27.315 13.333h-9.333c-0.369 0-0.667-0.298-0.667-0.667s0.298-0.667 0.667-0.667h8.667v-9.333c0-0.369 0.298-0.667 0.667-0.667s0.667 0.298 0.667 0.667v10c0 0.369-0.298 0.667-0.667 0.667z"></path>
<path d="M31.315 5.333h-2c-0.369 0-0.667-0.298-0.667-0.667s0.298-0.667 0.667-0.667h1.333v-2.667h-29.333v2.667h1.333c0.369 0 0.667 0.298 0.667 0.667s-0.298 0.667-0.667 0.667h-2c-0.369 0-0.667-0.298-0.667-0.667v-4c0-0.369 0.298-0.667 0.667-0.667h30.667c0.369 0 0.667 0.298 0.667 0.667v4c0 0.369-0.298 0.667-0.667 0.667z"></path>
<path d="M13.554 31.419c-0.232 0-0.457-0.121-0.58-0.337-3.764-6.619-0.391-12.397 0.341-13.513v-8.236c0-2.656 3.068-3.256 4.484-1.996 0.388 0.344 0.849 0.969 0.849 1.996v8c0 0.369-0.298 0.667-0.667 0.667s-0.667-0.298-0.667-0.667v-8c0-0.427-0.134-0.763-0.401-0.999-0.236-0.21-0.575-0.331-0.931-0.331-0.616 0-1.335 0.348-1.335 1.33v8.441c0 0.143-0.047 0.284-0.132 0.398-0.17 0.229-4.117 5.686-0.383 12.25 0.182 0.32 0.070 0.727-0.25 0.909-0.104 0.059-0.217 0.087-0.329 0.087z"></path>
<path d="M21.803 31.641c-0.026 0-0.052-0.001-0.079-0.005-0.365-0.042-0.626-0.374-0.585-0.74 0.021-0.168 0.497-4.154 1.813-7.776 2.488-6.852 1.829-10.282 1.823-10.316-0.074-0.359 0.156-0.713 0.516-0.788 0.363-0.074 0.712 0.152 0.788 0.51 0.033 0.151 0.767 3.78-1.874 11.049-1.26 3.473-1.736 7.436-1.74 7.477-0.040 0.339-0.328 0.589-0.661 0.589z"></path>
<path d="M13.982 17.229h-4.624c-0.762 0-1.434-0.296-1.894-0.831-0.401-0.467-0.622-1.089-0.622-1.751 0-1.288 0.865-2.591 2.516-2.591h4.624c0.369 0 0.667 0.298 0.667 0.667v3.839c-0 0.368-0.298 0.667-0.667 0.667zM9.358 13.39c-0.873 0-1.183 0.678-1.183 1.258 0 0.338 0.11 0.659 0.301 0.883 0.208 0.242 0.505 0.365 0.882 0.365h3.957v-2.506h-3.957z"></path>
<path d="M12.645 21.068h-1.663c-1.659 0-2.528-1.301-2.528-2.587 0-0.661 0.223-1.285 0.627-1.754 0.462-0.535 1.137-0.831 1.901-0.831h3c0.369 0 0.667 0.298 0.667 0.667s-0.298 0.667-0.667 0.667h-3c-0.881 0-1.195 0.675-1.195 1.251 0 0.578 0.313 1.254 1.195 1.254h1.663c0.369 0 0.667 0.298 0.667 0.667s-0.298 0.667-0.667 0.667z"></path>
</svg>
