<svg version="1.1" xmlns="http://www.w3.org/2000/svg" width="32" height="32" viewBox="0 0 32 32">
<title>take_ticket</title>
<path d="M15.98 31.396c-2.012 0-3.687-1.471-4.006-3.395h-4.659c-0.369 0-0.667-0.298-0.667-0.667v-26.668c0-0.369 0.298-0.667 0.667-0.667h5.271c0.369 0 0.667 0.298 0.667 0.667 0 1.504 1.223 2.727 2.727 2.727s2.727-1.223 2.727-2.727c0-0.369 0.298-0.667 0.667-0.667h5.275c0.369 0 0.667 0.298 0.667 0.667v26.667c0 0.369-0.298 0.667-0.667 0.667l-4.663 0.001c-0.319 1.923-1.994 3.395-4.006 3.395zM7.982 26.667l4.604 0.001c0.369 0 0.667 0.298 0.667 0.667 0 1.504 1.223 2.728 2.727 2.728s2.727-1.224 2.727-2.728c0-0.369 0.298-0.667 0.667-0.667h4.608v-25.335h-3.996c-0.319 1.923-1.993 3.394-4.006 3.394s-3.686-1.471-4.005-3.394h-3.993v25.333z"></path>
<path d="M8.648 10.667h-1.333c-0.369 0-0.667-0.298-0.667-0.667s0.298-0.667 0.667-0.667h1.333c0.369 0 0.667 0.298 0.667 0.667s-0.298 0.667-0.667 0.667z"></path>
<path d="M19.931 10.667h-2.257c-0.369 0-0.667-0.298-0.667-0.667s0.298-0.667 0.667-0.667h2.257c0.369 0 0.667 0.298 0.667 0.667s-0.298 0.667-0.667 0.667zM14.29 10.667h-2.257c-0.369 0-0.667-0.298-0.667-0.667s0.298-0.667 0.667-0.667h2.257c0.369 0 0.667 0.298 0.667 0.667s-0.298 0.667-0.667 0.667z"></path>
<path d="M24.648 10.667h-1.333c-0.369 0-0.667-0.298-0.667-0.667s0.298-0.667 0.667-0.667h1.333c0.369 0 0.667 0.298 0.667 0.667s-0.298 0.667-0.667 0.667z"></path>
</svg>
