<svg version="1.1" xmlns="http://www.w3.org/2000/svg" width="32" height="32" viewBox="0 0 32 32">
<title>take_ticket_waiting_room</title>
<path d="M10.044 4.674h-1.333c-0.369 0-0.667-0.298-0.667-0.667s0.298-0.667 0.667-0.667h1.333c0.369 0 0.667 0.298 0.667 0.667s-0.298 0.667-0.667 0.667z"></path>
<path d="M17.203 4.674h-2.386c-0.369 0-0.667-0.298-0.667-0.667s0.298-0.667 0.667-0.667h2.386c0.369 0 0.667 0.298 0.667 0.667s-0.298 0.667-0.667 0.667z"></path>
<path d="M23.309 4.674h-1.333c-0.369 0-0.667-0.298-0.667-0.667s0.298-0.667 0.667-0.667h1.333c0.369 0 0.667 0.298 0.667 0.667s-0.298 0.667-0.667 0.667z"></path>
<path d="M13.982 17.333h-4.836c-0.187 0-0.367-0.079-0.493-0.217l-1.831-2.013c-0.112-0.122-0.174-0.283-0.174-0.449v-8.838c0-0.143 0.046-0.282 0.131-0.397l1.046-1.414-1.045-1.411c-0.085-0.115-0.131-0.255-0.131-0.397v-1.531c0-0.369 0.298-0.667 0.667-0.667s0.667 0.298 0.667 0.667v1.311l1.208 1.631c0.175 0.235 0.175 0.557 0 0.793l-1.208 1.634v8.361l1.459 1.603h4.541c0.369 0 0.667 0.298 0.667 0.667s-0.298 0.667-0.667 0.667z"></path>
<path d="M23.395 17.333h-5.413c-0.369 0-0.667-0.298-0.667-0.667s0.298-0.667 0.667-0.667h5.043l0.957-1.536v-8.427l-1.21-1.635c-0.175-0.236-0.173-0.558 0.001-0.794l1.208-1.631v-1.311c0-0.369 0.298-0.667 0.667-0.667s0.667 0.298 0.667 0.667v1.531c0 0.143-0.046 0.282-0.131 0.397l-1.046 1.411 1.047 1.414c0.085 0.115 0.13 0.254 0.13 0.397v8.838c0 0.124-0.035 0.247-0.1 0.353l-1.254 2.012c-0.123 0.195-0.336 0.314-0.567 0.314z"></path>
<path d="M27.297 1.333h-22.646c-0.369 0-0.667-0.298-0.667-0.667s0.298-0.667 0.667-0.667h22.646c0.369 0 0.667 0.298 0.667 0.667s-0.298 0.667-0.667 0.667z"></path>
<path d="M13.885 31.997c-0.229 0-0.453-0.119-0.576-0.331-3.15-5.389-0.635-9.794 0.006-10.762v-6.3c0.001-2.581 3.055-3.171 4.475-1.953 0.553 0.475 0.858 1.168 0.858 1.953v6.074c0 0.369-0.298 0.667-0.667 0.667s-0.667-0.298-0.667-0.667v-6.074c0-0.401-0.131-0.717-0.392-0.941-0.238-0.204-0.581-0.322-0.941-0.322-0.615 0-1.334 0.331-1.334 1.262v6.508c0 0.143-0.047 0.284-0.132 0.398-0.128 0.172-3.095 4.283-0.056 9.483 0.186 0.318 0.079 0.725-0.239 0.911-0.106 0.063-0.222 0.091-0.336 0.091z"></path>
<path d="M20.497 31.997c-0.027 0-0.053-0.001-0.081-0.005-0.366-0.043-0.626-0.375-0.582-0.741 0.016-0.137 0.413-3.365 1.505-6.299 2.007-5.381 1.030-8.003 1.019-8.027-0.142-0.34 0.018-0.731 0.357-0.872 0.342-0.141 0.731 0.017 0.872 0.357 0.051 0.122 1.223 3.052-0.999 9.009-1.039 2.788-1.428 5.961-1.432 5.992-0.040 0.339-0.328 0.587-0.66 0.587z"></path>
<path d="M13.93 20.647h-3.597c-1.523 0-2.321-1.169-2.321-2.324 0-0.598 0.206-1.159 0.581-1.582 0.425-0.478 1.042-0.741 1.74-0.741h3.648c0.369 0 0.667 0.298 0.667 0.667s-0.298 0.667-0.667 0.667h-3.648c-0.32 0-0.57 0.099-0.742 0.293-0.156 0.176-0.245 0.43-0.245 0.697 0 0.457 0.258 0.991 0.988 0.991h3.597c0.369 0 0.667 0.298 0.667 0.667s-0.298 0.667-0.667 0.667z"></path>
<path d="M12.926 23.94h-1.431c-1.429 0-2.177-1.167-2.177-2.318 0-0.585 0.187-1.135 0.527-1.551 0.399-0.488 0.985-0.758 1.65-0.758h2.436c0.369 0 0.667 0.298 0.667 0.667s-0.298 0.667-0.667 0.667h-2.436c-0.82 0-0.844 0.875-0.844 0.975s0.024 0.984 0.844 0.984h1.431c0.369 0 0.667 0.298 0.667 0.667s-0.298 0.667-0.667 0.667z"></path>
<path d="M11.551 11.171c-1.178 0-2.135-1.153-2.135-2.57s0.958-2.57 2.135-2.57c1.177 0 2.135 1.153 2.135 2.57s-0.958 2.57-2.135 2.57zM11.551 7.364c-0.427 0-0.802 0.578-0.802 1.237s0.375 1.237 0.802 1.237 0.801-0.578 0.801-1.237-0.374-1.237-0.801-1.237z"></path>
<path d="M18.732 11.177c-0.1 0-0.202-0.022-0.297-0.070-0.329-0.164-0.464-0.564-0.301-0.894l1.417-2.85h-1.161c-0.369 0-0.667-0.298-0.667-0.667s0.298-0.667 0.667-0.667h2.237c0.231 0 0.445 0.119 0.566 0.316 0.122 0.196 0.133 0.441 0.031 0.648l-1.895 3.813c-0.117 0.234-0.353 0.37-0.598 0.37z"></path>
<path d="M15.747 11.189c-0.785 0-1.585-0.399-1.906-0.992-0.176-0.324-0.055-0.729 0.268-0.904s0.729-0.056 0.904 0.268c0.085 0.158 0.533 0.349 0.889 0.281 0.221-0.042 0.251-0.145 0.266-0.265 0.022-0.182-0.023-0.23-0.038-0.246-0.132-0.138-0.536-0.182-0.721-0.166-0.271 0.021-0.518-0.12-0.643-0.355s-0.095-0.523 0.074-0.731l0.587-0.72h-0.864c-0.369 0-0.667-0.298-0.667-0.667s0.298-0.667 0.667-0.667h2.267c0.258 0 0.492 0.148 0.602 0.38 0.111 0.232 0.078 0.508-0.085 0.708l-0.764 0.938c0.184 0.085 0.361 0.201 0.512 0.359 0.228 0.238 0.481 0.662 0.397 1.331-0.092 0.742-0.594 1.269-1.342 1.41-0.132 0.025-0.267 0.036-0.403 0.036z"></path>
</svg>
