<svg version="1.1" xmlns="http://www.w3.org/2000/svg" width="32" height="32" viewBox="0 0 32 32">
<title>target_circles</title>
<path d="M16.033 21.128c-2.836 0-5.143-2.307-5.143-5.143s2.307-5.142 5.143-5.142c2.835 0 5.142 2.307 5.142 5.142s-2.307 5.143-5.142 5.143zM16.033 12.176c-2.1 0-3.809 1.708-3.809 3.809s1.709 3.809 3.809 3.809 3.809-1.708 3.809-3.809c0-2.1-1.708-3.809-3.809-3.809z"></path>
<path d="M16.033 26.519c-5.809 0-10.535-4.725-10.535-10.535s4.726-10.535 10.535-10.535c5.809 0 10.535 4.726 10.535 10.535s-4.727 10.535-10.535 10.535zM16.033 6.784c-5.074 0-9.202 4.128-9.202 9.201s4.128 9.201 9.202 9.201 9.202-4.128 9.202-9.201-4.128-9.201-9.202-9.201z"></path>
<path d="M16.033 31.757c-8.697 0-15.771-7.075-15.771-15.771s7.075-15.771 15.771-15.771 15.771 7.075 15.771 15.771-7.074 15.772-15.771 15.772zM16.033 1.547c-7.961 0-14.438 6.477-14.438 14.437s6.477 14.438 14.438 14.438 14.437-6.476 14.437-14.438c0-7.961-6.477-14.438-14.437-14.438z"></path>
<path d="M16.026 16.654c-0.173 0-0.333-0.068-0.466-0.201-0.12-0.12-0.2-0.293-0.2-0.467s0.079-0.346 0.2-0.467c0.266-0.266 0.693-0.253 0.934-0.013 0.133 0.133 0.199 0.307 0.199 0.48s-0.066 0.347-0.199 0.467c-0.12 0.133-0.28 0.201-0.467 0.201z"></path>
</svg>
