<!-- Generated by IcoMoon.io -->
<svg version="1.1" xmlns="http://www.w3.org/2000/svg" width="32" height="32" viewBox="0 0 32 32">
<title>target_circles</title>
<path fill="none" stroke="#444" stroke-linejoin="miter" stroke-linecap="butt" stroke-miterlimit="10" stroke-width="2" d="M29 16c0 7.18-5.82 13-13 13s-13-5.82-13-13c0-7.18 5.82-13 13-13s13 5.82 13 13z"></path>
<path fill="none" stroke="#444" stroke-linejoin="miter" stroke-linecap="butt" stroke-miterlimit="10" stroke-width="2" d="M22 16c0 3.314-2.686 6-6 6s-6-2.686-6-6c0-3.314 2.686-6 6-6s6 2.686 6 6z"></path>
<path d="M18 16c0 1.105-0.895 2-2 2s-2-0.895-2-2c0-1.105 0.895-2 2-2s2 0.895 2 2z"></path>
</svg>
