<!-- Generated by IcoMoon.io -->
<svg version="1.1" xmlns="http://www.w3.org/2000/svg" width="32" height="32" viewBox="0 0 32 32">
<title>textarea</title>
<path d="M14.919 20.753h-0.662v-16.003h0.662c0.369 0 0.666-0.297 0.666-0.666s-0.297-0.666-0.666-0.666h-2.653c-0.369 0-0.666 0.297-0.666 0.666s0.297 0.666 0.666 0.666h0.656v16h-0.656c-0.369 0-0.666 0.297-0.666 0.666s0.297 0.666 0.666 0.666h2.653c0.369 0 0.666-0.297 0.666-0.666s-0.297-0.663-0.666-0.663z"></path>
<path d="M11.35 28.581h-7.366c-0.369 0-0.666-0.297-0.666-0.666v-20.772c0-0.369 0.297-0.666 0.666-0.666h7.366c0.369 0 0.666 0.297 0.666 0.666s-0.297 0.669-0.666 0.669h-6.7v19.438h6.697c0.369 0 0.666 0.297 0.666 0.666s-0.294 0.666-0.662 0.666v0z"></path>
<path d="M28.016 28.581h-12.353c-0.369 0-0.666-0.297-0.666-0.666s0.297-0.666 0.666-0.666h11.688v-19.438h-11.688c-0.369 0-0.666-0.297-0.666-0.666s0.297-0.666 0.666-0.666h12.353c0.369 0 0.666 0.297 0.666 0.666v20.772c0 0.366-0.297 0.663-0.666 0.663v0z"></path>
<path d="M10.753 9.922h-1.981c0 0 0 0 0 0s0 0 0 0h-1.981c-0.369 0-0.666 0.297-0.666 0.666s0.297 0.666 0.666 0.666h1.313v4.231c0 0.369 0.297 0.666 0.666 0.666s0.666-0.297 0.666-0.666v-4.228h1.313c0.369 0 0.666-0.297 0.666-0.666 0.009-0.372-0.291-0.669-0.659-0.669z"></path>
</svg>
