<!-- Generated by IcoMoon.io -->
<svg version="1.1" xmlns="http://www.w3.org/2000/svg" width="32" height="32" viewBox="0 0 32 32">
<title>text_spelling_check</title>
<path d="M17.927 11.95c0 2.418 1.858 4.405 4.177 4.45l0.001 0.001h0.079c1.157 0 2.24-0.478 3.047-1.343 0.304-0.326 0.287-0.836-0.039-1.14l-0-0c-0.324-0.303-0.834-0.285-1.139 0.039l-0.001 0.001c-0.503 0.538-1.166 0.831-1.868 0.831-1.447 0-2.645-1.262-2.645-2.838s1.198-2.837 2.645-2.837c0.673 0 1.317 0.273 1.811 0.773 0.314 0.318 0.824 0.319 1.14 0.006s0.32-0.823 0.006-1.14c-0.797-0.806-1.848-1.252-2.958-1.252-2.356 0-4.257 2.004-4.257 4.45zM1.873 15.313c-0.169 0.412 0.027 0.883 0.439 1.052 0.101 0.042 0.205 0.061 0.306 0.061 0.317 0 0.618-0.188 0.746-0.5l0-0 0.835-2.035h2.828l0.835 2.035c0.168 0.412 0.638 0.61 1.052 0.44 0.412-0.169 0.609-0.64 0.44-1.052l-2.995-7.301c-0.131-0.321-0.454-0.465-0.746-0.465s-0.614 0.143-0.746 0.465l-2.994 7.3zM6.417 12.402h-1.607l0.804-1.959 0.804 1.959zM13.683 7.574l0.002 0c1.113 0.029 1.934 0.342 2.481 0.805s0.813 1.074 0.82 1.677c0.007 0.594-0.247 1.212-0.737 1.701 0.7 0.485 1.036 1.224 1.043 1.924 0.013 1.262-1.005 2.566-2.923 2.667l-0.003 0-3.099 0.001c-0.044 0.008-0.089 0.012-0.135 0.012-0.411 0-0.744-0.333-0.744-0.744v-7.301c0-0.411 0.333-0.744 0.744-0.744h2.552zM11.875 12.707v2.156h2.45c1.046-0.057 1.483-0.668 1.478-1.165-0.002-0.213-0.089-0.45-0.299-0.638s-0.553-0.337-1.080-0.354l-0.536 0.001h-2.012zM15.498 10.074v-0c-0.002-0.22-0.127-0.46-0.421-0.654s-0.758-0.34-1.414-0.358h-1.788v2.157h1.975c1.124-0.062 1.653-0.671 1.647-1.145zM30.752 14.409c0.364-0.415 0.323-1.047-0.093-1.411s-1.047-0.323-1.411 0.093l-9.709 11.073-3.707-3.7c-0.391-0.39-1.024-0.39-1.414 0.001s-0.389 1.024 0.002 1.414l4.462 4.453c0.196 0.195 0.463 0.301 0.74 0.292s0.536-0.132 0.719-0.34l10.413-11.875z"></path>
</svg>
