<svg version="1.1" xmlns="http://www.w3.org/2000/svg" width="32" height="32" viewBox="0 0 32 32">
<title>text_image_article_view</title>
<path d="M28.195 32h-24.359c-2.107 0-3.82-1.714-3.82-3.82v-24.359c0-2.107 1.714-3.82 3.82-3.82h24.359c2.107 0 3.82 1.714 3.82 3.82v24.359c0 2.107-1.713 3.82-3.82 3.82zM3.837 1.333c-1.371 0-2.487 1.116-2.487 2.487v24.359c0 1.371 1.116 2.487 2.487 2.487h24.359c1.371 0 2.487-1.116 2.487-2.487v-24.359c0-1.371-1.116-2.487-2.487-2.487h-24.359z"></path>
<path d="M13.864 22.667h-7.823c-0.369 0-0.667-0.298-0.667-0.667s0.298-0.667 0.667-0.667h7.823c0.369 0 0.667 0.298 0.667 0.667s-0.298 0.667-0.667 0.667z"></path>
<path d="M13.864 26.667h-7.823c-0.369 0-0.667-0.298-0.667-0.667s0.298-0.667 0.667-0.667h7.823c0.369 0 0.667 0.298 0.667 0.667s-0.298 0.667-0.667 0.667z"></path>
<path d="M25.865 22.667h-7.823c-0.369 0-0.667-0.298-0.667-0.667s0.298-0.667 0.667-0.667h7.823c0.369 0 0.667 0.298 0.667 0.667s-0.298 0.667-0.667 0.667z"></path>
<path d="M25.865 26.667h-7.823c-0.369 0-0.667-0.298-0.667-0.667s0.298-0.667 0.667-0.667h7.823c0.369 0 0.667 0.298 0.667 0.667s-0.298 0.667-0.667 0.667z"></path>
<path d="M25.865 14.666h-7.823c-0.369 0-0.667-0.298-0.667-0.667s0.298-0.667 0.667-0.667h7.823c0.369 0 0.667 0.298 0.667 0.667s-0.298 0.667-0.667 0.667z"></path>
<path d="M25.865 10.666h-7.823c-0.369 0-0.667-0.298-0.667-0.667s0.298-0.667 0.667-0.667h7.823c0.369 0 0.667 0.298 0.667 0.667s-0.298 0.667-0.667 0.667z"></path>
<path d="M25.866 6.667h-19.824c-0.369 0-0.667-0.298-0.667-0.667s0.298-0.667 0.667-0.667h19.824c0.369 0 0.667 0.298 0.667 0.667s-0.298 0.667-0.667 0.667z"></path>
<path d="M25.865 18.667h-7.823c-0.369 0-0.667-0.298-0.667-0.667s0.298-0.667 0.667-0.667h7.823c0.369 0 0.667 0.298 0.667 0.667s-0.298 0.667-0.667 0.667z"></path>
<path d="M14 18.667h-8c-0.369 0-0.667-0.298-0.667-0.667v-8c0-0.369 0.298-0.667 0.667-0.667h8c0.369 0 0.667 0.298 0.667 0.667v8c0 0.369-0.298 0.667-0.667 0.667zM6.667 17.333h6.667v-6.667h-6.667v6.667z"></path>
</svg>
