<svg version="1.1" xmlns="http://www.w3.org/2000/svg" width="32" height="32" viewBox="0 0 32 32">
<title>text_line_view</title>
<path d="M28.18 32h-24.359c-2.107 0-3.82-1.714-3.82-3.82v-24.359c0-2.107 1.714-3.82 3.82-3.82h24.359c2.107 0 3.82 1.714 3.82 3.82v24.359c0 2.107-1.714 3.82-3.82 3.82zM3.82 1.333c-1.371 0-2.487 1.116-2.487 2.487v24.359c0 1.371 1.116 2.487 2.487 2.487h24.359c1.371 0 2.487-1.116 2.487-2.487v-24.359c0-1.371-1.116-2.487-2.487-2.487h-24.359z"></path>
<path d="M24.647 8h-17.294c-0.369 0-0.667-0.298-0.667-0.667s0.298-0.667 0.667-0.667h17.294c0.369 0 0.667 0.298 0.667 0.667s-0.298 0.667-0.667 0.667z"></path>
<path d="M24.647 13.333h-17.294c-0.369 0-0.667-0.298-0.667-0.667s0.298-0.667 0.667-0.667h17.294c0.369 0 0.667 0.298 0.667 0.667s-0.298 0.667-0.667 0.667z"></path>
<path d="M24.647 18.667h-17.294c-0.369 0-0.667-0.298-0.667-0.667s0.298-0.667 0.667-0.667h17.294c0.369 0 0.667 0.298 0.667 0.667s-0.298 0.667-0.667 0.667z"></path>
<path d="M24.647 24h-17.294c-0.369 0-0.667-0.298-0.667-0.667s0.298-0.667 0.667-0.667h17.294c0.369 0 0.667 0.298 0.667 0.667s-0.298 0.667-0.667 0.667z"></path>
</svg>
