<!-- Generated by IcoMoon.io -->
<svg version="1.1" xmlns="http://www.w3.org/2000/svg" width="32" height="32" viewBox="0 0 32 32">
<title>text_paragraph_indent_right</title>
<path d="M29.918 6.673h-15.904c-0.369 0-0.667-0.298-0.667-0.667s0.298-0.667 0.667-0.667h15.904c0.369 0 0.667 0.298 0.667 0.667s-0.298 0.667-0.667 0.667z"></path>
<path d="M29.918 10.673h-15.904c-0.369 0-0.667-0.298-0.667-0.667s0.298-0.667 0.667-0.667h15.904c0.369 0 0.667 0.298 0.667 0.667s-0.298 0.667-0.667 0.667z"></path>
<path d="M29.918 14.673h-15.904c-0.369 0-0.667-0.298-0.667-0.667s0.298-0.667 0.667-0.667h15.904c0.369 0 0.667 0.298 0.667 0.667s-0.298 0.667-0.667 0.667z"></path>
<path d="M29.918 18.672h-27.867c-0.369 0-0.667-0.298-0.667-0.667s0.298-0.667 0.667-0.667h27.867c0.369 0 0.667 0.298 0.667 0.667s-0.298 0.667-0.667 0.667z"></path>
<path d="M29.918 22.672h-27.867c-0.369 0-0.667-0.298-0.667-0.667s0.298-0.667 0.667-0.667h27.867c0.369 0 0.667 0.298 0.667 0.667s-0.298 0.667-0.667 0.667z"></path>
<path d="M29.918 26.672h-27.867c-0.369 0-0.667-0.298-0.667-0.667s0.298-0.667 0.667-0.667h27.867c0.369 0 0.667 0.298 0.667 0.667s-0.298 0.667-0.667 0.667z"></path>
<path d="M10.007 10.647h-7.89c-0.369 0-0.667-0.298-0.667-0.667s0.298-0.667 0.667-0.667h7.89c0.369 0 0.667 0.298 0.667 0.667s-0.298 0.667-0.667 0.667z"></path>
<path d="M6.231 14.301c-0.175 0-0.348-0.068-0.479-0.203-0.256-0.265-0.249-0.687 0.016-0.943l3.283-3.173-3.283-3.172c-0.264-0.256-0.271-0.678-0.016-0.943 0.256-0.262 0.678-0.271 0.943-0.016l3.779 3.651c0.13 0.126 0.203 0.298 0.203 0.479s-0.073 0.353-0.203 0.479l-3.779 3.652c-0.13 0.125-0.297 0.187-0.463 0.187z"></path>
</svg>
