<!-- Generated by IcoMoon.io -->
<svg version="1.1" xmlns="http://www.w3.org/2000/svg" width="32" height="32" viewBox="0 0 32 32">
<title>text_style_italic</title>
<path d="M27.472 1.131h-13.8c-0.591 0-1.072 0.481-1.072 1.072s0.481 1.072 1.072 1.072h6.444l-10.606 25.456h-5.041c-0.591 0-1.072 0.481-1.072 1.072s0.481 1.072 1.072 1.072h13.8c0.591 0 1.072-0.481 1.072-1.072s-0.481-1.072-1.072-1.072h-6.441l10.606-25.459h5.038c0.591 0 1.072-0.481 1.072-1.072 0-0.587-0.481-1.069-1.072-1.069z"></path>
<path d="M27.472 3.275h-5.041l-10.603 25.456h6.444c0.591 0 1.072 0.481 1.072 1.072s-0.481 1.072-1.072 1.072h-13.803c-0.591 0-1.072-0.481-1.072-1.072s0.481-1.072 1.072-1.072h5.037l10.606-25.459h-6.441c-0.591 0-1.072-0.481-1.072-1.072s0.481-1.072 1.072-1.072h13.8c0.591 0 1.072 0.481 1.072 1.072 0 0.594-0.481 1.075-1.072 1.075z"></path>
</svg>
