<svg version="1.1" xmlns="http://www.w3.org/2000/svg" width="32" height="32" viewBox="0 0 32 32">
<title>text_paragraph_line_spacing</title>
<path d="M29.967 16.668h-27.831c-0.369 0-0.667-0.298-0.667-0.667s0.298-0.667 0.667-0.667h27.831c0.369 0 0.667 0.298 0.667 0.667s-0.298 0.667-0.667 0.667z"></path>
<path d="M10.107 11.983c-0.181 0-0.361-0.074-0.493-0.217-0.248-0.273-0.229-0.694 0.044-0.942l5.911-5.383c0.255-0.233 0.643-0.232 0.898 0l5.91 5.383c0.272 0.248 0.292 0.669 0.044 0.942-0.25 0.272-0.671 0.292-0.943 0.044l-5.461-4.975-5.462 4.975c-0.128 0.117-0.289 0.174-0.449 0.174z"></path>
<path d="M16.018 26.676c-0.161 0-0.322-0.057-0.449-0.173l-5.911-5.384c-0.272-0.249-0.292-0.671-0.044-0.943s0.67-0.29 0.942-0.044l5.462 4.975 5.461-4.974c0.272-0.249 0.694-0.229 0.941 0.043 0.249 0.272 0.229 0.694-0.043 0.941l-5.91 5.384c-0.128 0.116-0.288 0.175-0.449 0.175z"></path>
</svg>
