<svg version="1.1" xmlns="http://www.w3.org/2000/svg" width="32" height="32" viewBox="0 0 32 32">
<title>text_image_align_wrap</title>
<path d="M29.93 2.68h-5.027c-0.369 0-0.667-0.298-0.667-0.667s0.298-0.667 0.667-0.667h5.027c0.369 0 0.667 0.298 0.667 0.667s-0.298 0.667-0.667 0.667z"></path>
<path d="M29.93 6.68h-5.027c-0.369 0-0.667-0.298-0.667-0.667s0.298-0.667 0.667-0.667h5.027c0.369 0 0.667 0.298 0.667 0.667s-0.298 0.667-0.667 0.667z"></path>
<path d="M29.93 10.68h-5.027c-0.369 0-0.667-0.298-0.667-0.667s0.298-0.667 0.667-0.667h5.027c0.369 0 0.667 0.298 0.667 0.667s-0.298 0.667-0.667 0.667z"></path>
<path d="M29.93 14.68h-5.027c-0.369 0-0.667-0.298-0.667-0.667s0.298-0.667 0.667-0.667h5.027c0.369 0 0.667 0.298 0.667 0.667s-0.298 0.667-0.667 0.667z"></path>
<path d="M29.93 18.68h-5.027c-0.369 0-0.667-0.298-0.667-0.667s0.298-0.667 0.667-0.667h5.027c0.369 0 0.667 0.298 0.667 0.667s-0.298 0.667-0.667 0.667z"></path>
<path d="M29.93 22.68h-27.867c-0.369 0-0.667-0.298-0.667-0.667s0.298-0.667 0.667-0.667h27.867c0.369 0 0.667 0.298 0.667 0.667s-0.298 0.667-0.667 0.667z"></path>
<path d="M29.93 26.68h-27.867c-0.369 0-0.667-0.298-0.667-0.667s0.298-0.667 0.667-0.667h27.867c0.369 0 0.667 0.298 0.667 0.667s-0.298 0.667-0.667 0.667z"></path>
<path d="M29.93 30.68h-27.867c-0.369 0-0.667-0.298-0.667-0.667s0.298-0.667 0.667-0.667h27.867c0.369 0 0.667 0.298 0.667 0.667s-0.298 0.667-0.667 0.667z"></path>
<path d="M21.167 18.668h-18.325c-0.773 0-1.505-0.693-1.505-1.426v-14.482c0-0.733 0.731-1.426 1.505-1.426h18.325c0.773 0 1.504 0.693 1.504 1.426v14.482c0 0.733-0.73 1.426-1.504 1.426zM21.163 2.667h-18.321c-0.051 0.005-0.156 0.084-0.177 0.134l0.006 14.441c0.015 0.008 0.121 0.087 0.175 0.092h18.319c0.055-0.007 0.159-0.085 0.18-0.134l-0.007-14.44c-0.014-0.008-0.121-0.088-0.174-0.093z"></path>
<path d="M6.87 9.643c-1.4 0-2.54-1.139-2.54-2.54s1.139-2.539 2.54-2.539 2.54 1.139 2.54 2.539c0 1.4-1.139 2.54-2.54 2.54zM6.87 5.898c-0.665 0-1.206 0.541-1.206 1.206s0.541 1.206 1.206 1.206 1.206-0.541 1.206-1.206c0-0.665-0.541-1.206-1.206-1.206z"></path>
<path d="M7.059 18.668c-0.116 0-0.232-0.030-0.339-0.094-0.317-0.187-0.421-0.596-0.234-0.913l4.971-8.385c0.114-0.192 0.316-0.314 0.54-0.326 0.23-0.005 0.437 0.091 0.57 0.269l1.845 2.49 2.595-4.081c0.119-0.187 0.324-0.303 0.546-0.309 0.217-0.008 0.434 0.101 0.561 0.281l4.435 6.26c0.212 0.301 0.142 0.717-0.159 0.93-0.298 0.21-0.716 0.143-0.93-0.159l-3.861-5.451-2.583 4.063c-0.118 0.186-0.319 0.301-0.539 0.309-0.231 0.019-0.428-0.092-0.559-0.269l-1.825-2.464-4.459 7.521c-0.124 0.21-0.346 0.327-0.574 0.327z"></path>
</svg>
