<!-- Generated by IcoMoon.io -->
<svg version="1.1" xmlns="http://www.w3.org/2000/svg" width="32" height="32" viewBox="0 0 32 32">
<title>text_line_height_leading_increase</title>
<path d="M18.005 4.001h-15.906c-0.369 0-0.667-0.298-0.667-0.667s0.298-0.667 0.667-0.667h15.906c0.369 0 0.667 0.298 0.667 0.667s-0.298 0.667-0.667 0.667z"></path>
<path d="M18.005 12.001h-15.906c-0.369 0-0.667-0.298-0.667-0.667s0.298-0.667 0.667-0.667h15.906c0.369 0 0.667 0.298 0.667 0.667s-0.298 0.667-0.667 0.667z"></path>
<path d="M18.005 20.001h-15.906c-0.369 0-0.667-0.298-0.667-0.667s0.298-0.667 0.667-0.667h15.906c0.369 0 0.667 0.298 0.667 0.667s-0.298 0.667-0.667 0.667z"></path>
<path d="M18.005 28.001h-15.906c-0.369 0-0.667-0.298-0.667-0.667s0.298-0.667 0.667-0.667h15.906c0.369 0 0.667 0.298 0.667 0.667s-0.298 0.667-0.667 0.667z"></path>
<path d="M26.001 26.599c-0.369 0-0.667-0.298-0.667-0.667v-7.789c0-0.369 0.298-0.667 0.667-0.667s0.667 0.298 0.667 0.667v7.789c0 0.369-0.298 0.667-0.667 0.667z"></path>
<path d="M26.004 26.6c-0.18 0-0.352-0.072-0.477-0.201l-3.652-3.731c-0.258-0.263-0.253-0.685 0.010-0.943 0.263-0.255 0.686-0.253 0.943 0.010l3.176 3.243 3.175-3.243c0.257-0.263 0.678-0.266 0.943-0.010 0.263 0.258 0.268 0.68 0.010 0.943l-3.651 3.731c-0.125 0.129-0.297 0.201-0.476 0.201z"></path>
<path d="M26.007 14.51c-0.369 0-0.667-0.298-0.667-0.667v-7.789c0-0.369 0.298-0.667 0.667-0.667s0.667 0.298 0.667 0.667v7.789c0 0.369-0.298 0.667-0.667 0.667z"></path>
<path d="M29.655 10.45c-0.173 0-0.346-0.067-0.477-0.201l-3.175-3.243-3.176 3.243c-0.257 0.264-0.68 0.269-0.943 0.010s-0.268-0.68-0.010-0.943l3.652-3.73c0.125-0.128 0.297-0.201 0.476-0.201v0c0.18 0 0.352 0.072 0.477 0.201l3.651 3.73c0.258 0.263 0.253 0.685-0.010 0.943-0.129 0.127-0.298 0.19-0.466 0.19z"></path>
</svg>
