<!-- Generated by IcoMoon.io -->
<svg version="1.1" xmlns="http://www.w3.org/2000/svg" width="32" height="32" viewBox="0 0 32 32">
<title>text_paragraph_line_spacing</title>
<path d="M15.293 5.168c0.391-0.391 1.024-0.391 1.414 0l5.125 5.125c0.39 0.391 0.39 1.024 0 1.414s-1.024 0.39-1.414 0l-4.418-4.418-4.418 4.418c-0.391 0.39-1.024 0.39-1.414 0s-0.39-1.024 0-1.414l5.125-5.125zM1 16c0-0.552 0.448-1 1-1h28c0.552 0 1 0.448 1 1s-0.448 1-1 1h-28c-0.552 0-1-0.448-1-1zM10.168 21.707l5.125 5.125c0.391 0.39 1.024 0.39 1.414 0l5.125-5.125c0.39-0.391 0.39-1.024 0-1.414s-1.024-0.39-1.414 0l-4.418 4.418-4.418-4.418c-0.391-0.39-1.024-0.39-1.414 0s-0.39 1.024 0 1.414z"></path>
</svg>
