<svg version="1.1" xmlns="http://www.w3.org/2000/svg" width="32" height="32" viewBox="0 0 32 32">
<title>text_align_left_indent</title>
<path d="M29.997 4.001h-15.905c-0.369 0-0.667-0.298-0.667-0.667s0.298-0.667 0.667-0.667h15.905c0.369 0 0.667 0.298 0.667 0.667s-0.298 0.667-0.667 0.667z"></path>
<path d="M24.569 8.001h-10.477c-0.369 0-0.667-0.298-0.667-0.667s0.298-0.667 0.667-0.667h10.477c0.369 0 0.667 0.298 0.667 0.667s-0.298 0.667-0.667 0.667z"></path>
<path d="M29.997 12.001h-15.905c-0.369 0-0.667-0.298-0.667-0.667s0.298-0.667 0.667-0.667h15.905c0.369 0 0.667 0.298 0.667 0.667s-0.298 0.667-0.667 0.667z"></path>
<path d="M24.569 16h-10.477c-0.369 0-0.667-0.297-0.667-0.666s0.298-0.667 0.667-0.667h10.477c0.369 0 0.667 0.298 0.667 0.667s-0.298 0.666-0.667 0.666z"></path>
<path d="M29.997 20.001h-15.905c-0.369 0-0.667-0.298-0.667-0.667s0.298-0.667 0.667-0.667h15.905c0.369 0 0.667 0.298 0.667 0.667s-0.298 0.667-0.667 0.667z"></path>
<path d="M24.569 24.001h-10.477c-0.369 0-0.667-0.298-0.667-0.667s0.298-0.667 0.667-0.667h10.477c0.369 0 0.667 0.298 0.667 0.667s-0.298 0.667-0.667 0.667z"></path>
<path d="M29.997 28.001h-15.905c-0.369 0-0.667-0.298-0.667-0.667s0.298-0.667 0.667-0.667h15.905c0.369 0 0.667 0.298 0.667 0.667s-0.298 0.667-0.667 0.667z"></path>
<path d="M8.486 16.001h-7.247c-0.369 0-0.667-0.298-0.667-0.667s0.298-0.667 0.667-0.667h7.247c0.369 0 0.667 0.298 0.667 0.667s-0.298 0.667-0.667 0.667z"></path>
<path d="M4.757 19.605c-0.175 0-0.348-0.068-0.479-0.203-0.256-0.266-0.249-0.687 0.016-0.943l3.24-3.131-3.246-3.22c-0.262-0.259-0.263-0.681-0.004-0.943 0.259-0.26 0.682-0.262 0.943-0.004l3.73 3.699c0.128 0.126 0.199 0.298 0.197 0.478s-0.074 0.35-0.203 0.475l-3.73 3.604c-0.129 0.125-0.297 0.187-0.463 0.187z"></path>
<path d="M11.346 30.668c-0.369 0-0.667-0.298-0.667-0.667v-28.024c0-0.369 0.298-0.667 0.667-0.667s0.667 0.298 0.667 0.667v28.024c0 0.368-0.298 0.667-0.667 0.667z"></path>
</svg>
