<svg version="1.1" xmlns="http://www.w3.org/2000/svg" width="32" height="32" viewBox="0 0 32 32">
<title>text_font_typography</title>
<path d="M17.962 31.966h-3.941c-0.369 0-0.667-0.298-0.667-0.667s0.298-0.667 0.667-0.667h3.941c0.369 0 0.667 0.298 0.667 0.667s-0.298 0.667-0.667 0.667z"></path>
<path d="M3.385 3.522c-0.369 0-0.667-0.298-0.667-0.667v-2.187c0-0.369 0.298-0.667 0.667-0.667s0.667 0.298 0.667 0.667v2.187c0 0.369-0.298 0.667-0.667 0.667z"></path>
<path d="M28.635 3.522c-0.369 0-0.667-0.298-0.667-0.667v-2.187c0-0.369 0.298-0.667 0.667-0.667s0.667 0.298 0.667 0.667v2.187c0 0.369-0.298 0.667-0.667 0.667z"></path>
<path d="M28.635 1.335h-25.251c-0.369 0-0.667-0.298-0.667-0.667s0.298-0.667 0.667-0.667h25.251c0.369 0 0.667 0.298 0.667 0.667s-0.298 0.667-0.667 0.667z"></path>
<path d="M16 31.966c-0.369 0-0.667-0.298-0.667-0.667v-30.631c0-0.369 0.298-0.667 0.667-0.667s0.667 0.298 0.667 0.667v30.631c0 0.369-0.298 0.667-0.667 0.667z"></path>
</svg>
