<!-- Generated by IcoMoon.io -->
<svg version="1.1" xmlns="http://www.w3.org/2000/svg" width="32" height="32" viewBox="0 0 32 32">
<title>text_font_size_smaller</title>
<path d="M26.053 13.26c-0.369 0-0.667-0.298-0.667-0.667v-7.89c0-0.369 0.298-0.667 0.667-0.667s0.667 0.298 0.667 0.667v7.89c0 0.369-0.298 0.667-0.667 0.667z"></path>
<path d="M26.056 13.262v0c-0.181 0-0.354-0.074-0.479-0.203l-3.651-3.779c-0.257-0.265-0.249-0.687 0.016-0.943 0.268-0.255 0.689-0.247 0.943 0.016l3.172 3.283 3.173-3.283c0.255-0.264 0.677-0.271 0.943-0.016 0.264 0.256 0.272 0.678 0.016 0.943l-3.652 3.779c-0.125 0.129-0.298 0.203-0.479 0.203z"></path>
<path d="M18.061 27.917c-0.259 0-0.507-0.152-0.615-0.408l-7.484-17.729-7.484 17.729c-0.143 0.34-0.536 0.496-0.873 0.355-0.339-0.143-0.498-0.535-0.355-0.874l8.098-19.184c0.208-0.493 1.019-0.493 1.228 0l8.099 19.184c0.143 0.339-0.016 0.731-0.355 0.874-0.085 0.035-0.172 0.052-0.259 0.052z"></path>
<path d="M15.283 21.335h-10.639c-0.369 0-0.667-0.298-0.667-0.667s0.298-0.667 0.667-0.667h10.639c0.369 0 0.667 0.298 0.667 0.667s-0.298 0.667-0.667 0.667z"></path>
<path d="M22.078 27.876c-0.081 0-0.163-0.014-0.242-0.046-0.342-0.133-0.513-0.519-0.379-0.863l3.978-10.229c0.198-0.51 1.044-0.51 1.242 0l3.979 10.229c0.134 0.344-0.036 0.731-0.379 0.863-0.342 0.137-0.729-0.036-0.863-0.379l-3.358-8.633-3.357 8.633c-0.103 0.263-0.354 0.425-0.621 0.425z"></path>
<path d="M28.527 24.001h-4.943c-0.369 0-0.667-0.298-0.667-0.667s0.298-0.667 0.667-0.667h4.943c0.369 0 0.667 0.298 0.667 0.667s-0.298 0.667-0.667 0.667z"></path>
</svg>
