<svg version="1.1" xmlns="http://www.w3.org/2000/svg" width="32" height="32" viewBox="0 0 32 32">
<title>text_bullets_list</title>
<path d="M29.974 9.339h-19.907c-0.369 0-0.667-0.298-0.667-0.667s0.298-0.667 0.667-0.667h19.907c0.369 0 0.667 0.298 0.667 0.667s-0.298 0.667-0.667 0.667z"></path>
<path d="M29.974 17.339h-19.907c-0.369 0-0.667-0.298-0.667-0.667s0.298-0.667 0.667-0.667h19.907c0.369 0 0.667 0.298 0.667 0.667s-0.298 0.667-0.667 0.667z"></path>
<path d="M29.974 25.339h-19.907c-0.369 0-0.667-0.298-0.667-0.667s0.298-0.667 0.667-0.667h19.907c0.369 0 0.667 0.298 0.667 0.667s-0.298 0.667-0.667 0.667z"></path>
<path d="M4.624 10.469c-0.991 0-1.797-0.807-1.797-1.797s0.806-1.797 1.797-1.797 1.797 0.807 1.797 1.797-0.807 1.797-1.797 1.797zM4.624 8.208c-0.256 0-0.464 0.208-0.464 0.464s0.208 0.464 0.464 0.464 0.464-0.208 0.464-0.464-0.208-0.464-0.464-0.464z"></path>
<path d="M4.624 18.47c-0.991 0-1.797-0.806-1.797-1.797s0.806-1.798 1.797-1.798 1.797 0.807 1.797 1.798c0 0.991-0.807 1.797-1.797 1.797zM4.624 16.208c-0.256 0-0.464 0.208-0.464 0.465 0 0.255 0.208 0.464 0.464 0.464s0.464-0.208 0.464-0.464c0-0.256-0.208-0.465-0.464-0.465z"></path>
<path d="M4.624 26.47c-0.991 0-1.797-0.806-1.797-1.797s0.806-1.797 1.797-1.797 1.797 0.806 1.797 1.797-0.807 1.797-1.797 1.797zM4.624 24.21c-0.256 0-0.464 0.208-0.464 0.464s0.208 0.464 0.464 0.464 0.464-0.208 0.464-0.464-0.208-0.464-0.464-0.464z"></path>
</svg>
