<svg version="1.1" xmlns="http://www.w3.org/2000/svg" width="32" height="32" viewBox="0 0 32 32">
<title>text_spelling_check</title>
<path d="M18.579 26.568c-0.177 0-0.348-0.070-0.473-0.197l-5.468-5.5c-0.26-0.262-0.258-0.684 0.003-0.943 0.26-0.26 0.683-0.26 0.943 0.003l4.973 5.001 12.072-13.339c0.247-0.272 0.672-0.294 0.943-0.047 0.272 0.247 0.293 0.669 0.047 0.941l-12.544 13.861c-0.124 0.135-0.297 0.215-0.479 0.219-0.005-0-0.010-0-0.016-0z"></path>
<path d="M0.831 15.986c-0.085 0-0.17-0.016-0.253-0.050-0.341-0.139-0.503-0.529-0.363-0.87l3.226-7.865c0.204-0.5 1.029-0.5 1.233 0l3.227 7.865c0.14 0.341-0.023 0.731-0.363 0.87-0.342 0.141-0.731-0.023-0.87-0.363l-2.61-6.361-2.609 6.361c-0.106 0.258-0.354 0.413-0.617 0.413z"></path>
<path d="M6.19 13.322h-4.267c-0.369 0-0.667-0.298-0.667-0.667s0.298-0.667 0.667-0.667h4.267c0.369 0 0.667 0.298 0.667 0.667s-0.298 0.667-0.667 0.667z"></path>
<path d="M10.001 15.986c-0.369 0-0.667-0.298-0.667-0.667v-7.865c0-0.369 0.298-0.667 0.667-0.667h2.747c2.352 0.061 3.41 1.32 3.425 2.542 0.008 0.647-0.292 1.331-0.877 1.851 0.813 0.492 1.199 1.297 1.206 2.054 0.013 1.281-1.020 2.631-3.021 2.738l-3.347 0.001c-0.043 0.009-0.087 0.013-0.132 0.013zM10.667 14.639h2.777c1.182-0.063 1.73-0.766 1.723-1.391-0.006-0.531-0.433-1.165-1.619-1.203l-0.579 0.001c-0.013 0-0.026 0-0.039 0h-2.264v2.592zM10.667 10.714h2.266c1.247-0.067 1.913-0.754 1.906-1.369-0.007-0.582-0.661-1.186-2.109-1.223h-2.063v2.593z"></path>
<path d="M21.908 15.959c-2.418 0-4.384-2.060-4.384-4.592s1.966-4.592 4.384-4.592c1.141 0 2.221 0.458 3.043 1.288 0.259 0.262 0.257 0.684-0.005 0.943s-0.684 0.258-0.943-0.005c-0.569-0.575-1.314-0.893-2.095-0.893-1.682 0-3.051 1.462-3.051 3.258s1.369 3.259 3.051 3.259c0.815 0 1.582-0.341 2.16-0.96 0.253-0.268 0.675-0.283 0.941-0.033 0.269 0.251 0.284 0.673 0.033 0.943-0.832 0.892-1.945 1.383-3.134 1.383z"></path>
</svg>
