<svg version="1.1" xmlns="http://www.w3.org/2000/svg" width="32" height="32" viewBox="0 0 32 32">
<title>text_style_underline</title>
<path d="M25.333 32.001h-18.667c-0.369 0-0.667-0.298-0.667-0.667s0.298-0.667 0.667-0.667h18.667c0.369 0 0.667 0.298 0.667 0.667s-0.298 0.667-0.667 0.667z"></path>
<path d="M16.893 25.335h-1.786c-4.654 0-8.44-3.637-8.44-8.107v-15.215c0-0.369 0.298-0.667 0.667-0.667s0.667 0.298 0.667 0.667v15.215c0 3.734 3.188 6.773 7.107 6.773h1.786c3.919 0 7.107-3.039 7.107-6.773v-15.215c0-0.369 0.298-0.667 0.667-0.667s0.667 0.298 0.667 0.667v15.215c0 4.47-3.786 8.107-8.44 8.107z"></path>
</svg>
