<svg version="1.1" xmlns="http://www.w3.org/2000/svg" width="32" height="32" viewBox="0 0 32 32">
<title>text_align_justify_last_line_right_paragraph</title>
<path d="M29.918 2.668h-27.867c-0.369 0-0.667-0.298-0.667-0.667s0.298-0.667 0.667-0.667h27.867c0.369 0 0.667 0.298 0.667 0.667s-0.298 0.667-0.667 0.667z"></path>
<path d="M29.918 6.668h-27.867c-0.369 0-0.667-0.298-0.667-0.667s0.298-0.667 0.667-0.667h27.867c0.369 0 0.667 0.298 0.667 0.667s-0.298 0.667-0.667 0.667z"></path>
<path d="M29.918 10.668h-27.867c-0.369 0-0.667-0.298-0.667-0.667s0.298-0.667 0.667-0.667h27.867c0.369 0 0.667 0.298 0.667 0.667s-0.298 0.667-0.667 0.667z"></path>
<path d="M29.918 14.668h-27.867c-0.369 0-0.667-0.298-0.667-0.667s0.298-0.667 0.667-0.667h27.867c0.369 0 0.667 0.298 0.667 0.667s-0.298 0.667-0.667 0.667z"></path>
<path d="M29.918 18.668h-27.867c-0.369 0-0.667-0.298-0.667-0.667s0.298-0.667 0.667-0.667h27.867c0.369 0 0.667 0.298 0.667 0.667s-0.298 0.667-0.667 0.667z"></path>
<path d="M29.918 22.668h-27.867c-0.369 0-0.667-0.298-0.667-0.667s0.298-0.667 0.667-0.667h27.867c0.369 0 0.667 0.298 0.667 0.667s-0.298 0.667-0.667 0.667z"></path>
<path d="M29.918 26.668h-27.867c-0.369 0-0.667-0.298-0.667-0.667s0.298-0.667 0.667-0.667h27.867c0.369 0 0.667 0.298 0.667 0.667s-0.298 0.667-0.667 0.667z"></path>
<path d="M29.918 30.668h-13.404c-0.369 0-0.667-0.298-0.667-0.667s0.298-0.667 0.667-0.667h13.404c0.369 0 0.667 0.298 0.667 0.667s-0.298 0.667-0.667 0.667z"></path>
</svg>
