<svg version="1.1" xmlns="http://www.w3.org/2000/svg" width="32" height="32" viewBox="0 0 32 32">
<title>text_line_height_leading</title>
<path d="M18.001 4.001h-15.906c-0.369 0-0.667-0.298-0.667-0.667s0.298-0.667 0.667-0.667h15.906c0.369 0 0.667 0.298 0.667 0.667s-0.298 0.667-0.667 0.667z"></path>
<path d="M18.001 8.001h-15.906c-0.369 0-0.667-0.298-0.667-0.667s0.298-0.667 0.667-0.667h15.906c0.369 0 0.667 0.298 0.667 0.667s-0.298 0.667-0.667 0.667z"></path>
<path d="M18.001 12.001h-15.906c-0.369 0-0.667-0.298-0.667-0.667s0.298-0.667 0.667-0.667h15.906c0.369 0 0.667 0.298 0.667 0.667s-0.298 0.667-0.667 0.667z"></path>
<path d="M18.001 16h-15.906c-0.369 0-0.667-0.297-0.667-0.666s0.298-0.667 0.667-0.667h15.906c0.369 0 0.667 0.298 0.667 0.667s-0.298 0.666-0.667 0.666z"></path>
<path d="M18.001 20.001h-15.906c-0.369 0-0.667-0.298-0.667-0.667s0.298-0.667 0.667-0.667h15.906c0.369 0 0.667 0.298 0.667 0.667s-0.298 0.667-0.667 0.667z"></path>
<path d="M18.001 24.001h-15.906c-0.369 0-0.667-0.298-0.667-0.667s0.298-0.667 0.667-0.667h15.906c0.369 0 0.667 0.298 0.667 0.667s-0.298 0.667-0.667 0.667z"></path>
<path d="M18.001 28.001h-15.906c-0.369 0-0.667-0.298-0.667-0.667s0.298-0.667 0.667-0.667h15.906c0.369 0 0.667 0.298 0.667 0.667s-0.298 0.667-0.667 0.667z"></path>
<path d="M25.997 26.6c-0.369 0-0.667-0.298-0.667-0.667v-7.789c0-0.369 0.298-0.667 0.667-0.667s0.667 0.298 0.667 0.667v7.789c0 0.369-0.298 0.667-0.667 0.667z"></path>
<path d="M29.651 22.539c-0.173 0-0.346-0.066-0.477-0.201l-3.175-3.242-3.176 3.242c-0.255 0.266-0.68 0.268-0.943 0.010s-0.268-0.68-0.010-0.943l3.652-3.729c0.126-0.129 0.297-0.201 0.477-0.201v0c0.18 0 0.352 0.072 0.477 0.201l3.651 3.729c0.258 0.263 0.253 0.685-0.010 0.943-0.129 0.126-0.298 0.19-0.466 0.19z"></path>
<path d="M26.003 14.509c-0.369 0-0.667-0.298-0.667-0.667v-7.789c0-0.369 0.298-0.667 0.667-0.667s0.667 0.298 0.667 0.667v7.789c0 0.369-0.298 0.667-0.667 0.667z"></path>
<path d="M26 14.51c-0.18 0-0.35-0.072-0.477-0.201l-3.652-3.73c-0.258-0.263-0.253-0.685 0.010-0.943s0.687-0.253 0.943 0.010l3.176 3.243 3.175-3.243c0.258-0.263 0.681-0.268 0.943-0.010 0.263 0.258 0.268 0.68 0.010 0.943l-3.651 3.73c-0.125 0.128-0.297 0.2-0.477 0.2z"></path>
</svg>
