<svg version="1.1" xmlns="http://www.w3.org/2000/svg" width="32" height="32" viewBox="0 0 32 32">
<title>text_style_italic</title>
<path d="M20.6 1.335h-5.334c-0.369 0-0.667-0.298-0.667-0.667s0.298-0.667 0.667-0.667h5.334c0.369 0 0.667 0.298 0.667 0.667s-0.298 0.667-0.667 0.667z"></path>
<path d="M16.615 32.001h-5.333c-0.369 0-0.667-0.298-0.667-0.667s0.298-0.667 0.667-0.667h5.333c0.369 0 0.667 0.298 0.667 0.667s-0.298 0.667-0.667 0.667z"></path>
<path d="M13.949 32.001c-0.029 0-0.057-0.001-0.087-0.005-0.365-0.048-0.622-0.383-0.575-0.747l3.984-30.667c0.048-0.365 0.387-0.623 0.747-0.575 0.365 0.047 0.622 0.381 0.575 0.747l-3.986 30.667c-0.043 0.336-0.33 0.581-0.66 0.581z"></path>
</svg>
