<!-- Generated by IcoMoon.io -->
<svg version="1.1" xmlns="http://www.w3.org/2000/svg" width="32" height="32" viewBox="0 0 32 32">
<title>text_align_justify_paragraph</title>
<path d="M26 24h-20c-0.6 0-1 0.4-1 1s0.4 1 1 1h20c0.6 0 1-0.4 1-1s-0.4-1-1-1z"></path>
<path d="M26 12h-20c-0.6 0-1 0.4-1 1s0.4 1 1 1h20c0.6 0 1-0.4 1-1s-0.4-1-1-1z"></path>
<path d="M6 8h20c0.6 0 1-0.4 1-1s-0.4-1-1-1h-20c-0.6 0-1 0.4-1 1s0.4 1 1 1z"></path>
<path d="M26 18h-20c-0.6 0-1 0.4-1 1s0.4 1 1 1h20c0.6 0 1-0.4 1-1s-0.4-1-1-1z"></path>
</svg>
