<svg version="1.1" xmlns="http://www.w3.org/2000/svg" width="32" height="32" viewBox="0 0 32 32">
<title>text_style_bold</title>
<path d="M16.167 31.982h-11.593c-0.369 0-0.667-0.298-0.667-0.667v-30.643c0-0.369 0.298-0.667 0.667-0.667h11.406c2.404 0 4.376 0.332 5.859 0.987 2.934 1.296 4.803 4.139 4.88 7.419 0.063 2.691-1.141 5.141-3.208 6.682 3.074 1.345 4.687 3.858 4.687 7.337-0 6.159-4.272 9.551-12.031 9.551zM5.24 30.648h10.926c7.099 0 10.698-2.764 10.698-8.217 0-3.348-1.704-5.548-5.065-6.542-0.263-0.077-0.452-0.308-0.475-0.581s0.121-0.533 0.366-0.655c2.378-1.186 3.758-3.508 3.695-6.21-0.065-2.758-1.63-5.146-4.086-6.231-1.313-0.58-3.103-0.874-5.32-0.874h-10.74v29.309zM16.167 28.366h-7.57c-0.369 0-0.667-0.298-0.667-0.667v-10.535c0-0.369 0.298-0.667 0.667-0.667h7.030c3.607 0 8.403 0.615 8.403 5.934 0 3.098-1.825 5.203-5.008 5.777-0.561 0.106-1.497 0.158-2.855 0.158zM9.264 27.033h6.903c1.257 0 2.137-0.046 2.613-0.135 2.564-0.462 3.917-2.007 3.917-4.466 0-3.267-2.048-4.6-7.070-4.6h-6.363v9.202zM15.171 14.215h-6.574c-0.369 0-0.667-0.298-0.667-0.667v-9.26c0-0.369 0.298-0.667 0.667-0.667h6.076c3.414 0 8.091 0 8.091 5.37-0 5.223-5.129 5.223-7.593 5.223zM9.264 12.881h5.908c3.964 0 6.26-0.637 6.26-3.89 0-3.432-2.18-4.036-6.758-4.036h-5.409v7.926z"></path>
</svg>
