<!-- Generated by IcoMoon.io -->
<svg version="1.1" xmlns="http://www.w3.org/2000/svg" width="32" height="32" viewBox="0 0 32 32">
<title>text_align_right_indent</title>
<path d="M17.921 4.001h-15.906c-0.369 0-0.667-0.298-0.667-0.667s0.298-0.667 0.667-0.667h15.906c0.369 0 0.667 0.298 0.667 0.667s-0.298 0.667-0.667 0.667z"></path>
<path d="M17.921 8.001h-10.477c-0.369 0-0.667-0.298-0.667-0.667s0.298-0.667 0.667-0.667h10.477c0.369 0 0.667 0.298 0.667 0.667s-0.298 0.667-0.667 0.667z"></path>
<path d="M17.921 12.001h-15.906c-0.369 0-0.667-0.298-0.667-0.667s0.298-0.667 0.667-0.667h15.906c0.369 0 0.667 0.298 0.667 0.667s-0.298 0.667-0.667 0.667z"></path>
<path d="M17.921 16h-10.477c-0.369 0-0.667-0.297-0.667-0.666s0.298-0.667 0.667-0.667h10.477c0.369 0 0.667 0.298 0.667 0.667s-0.298 0.666-0.667 0.666z"></path>
<path d="M17.921 20.001h-15.906c-0.369 0-0.667-0.298-0.667-0.667s0.298-0.667 0.667-0.667h15.906c0.369 0 0.667 0.298 0.667 0.667s-0.298 0.667-0.667 0.667z"></path>
<path d="M17.921 24.001h-10.477c-0.369 0-0.667-0.298-0.667-0.667s0.298-0.667 0.667-0.667h10.477c0.369 0 0.667 0.298 0.667 0.667s-0.298 0.667-0.667 0.667z"></path>
<path d="M17.921 28.001h-15.906c-0.369 0-0.667-0.298-0.667-0.667s0.298-0.667 0.667-0.667h15.906c0.369 0 0.667 0.298 0.667 0.667s-0.298 0.667-0.667 0.667z"></path>
<path d="M30.773 16.001h-7.247c-0.369 0-0.667-0.298-0.667-0.667s0.298-0.667 0.667-0.667h7.247c0.369 0 0.667 0.298 0.667 0.667s-0.298 0.667-0.667 0.667z"></path>
<path d="M27.257 19.605c-0.167 0-0.333-0.063-0.464-0.187l-3.731-3.604c-0.129-0.124-0.202-0.296-0.203-0.475s0.070-0.352 0.198-0.478l3.731-3.699c0.26-0.26 0.682-0.258 0.943 0.004 0.259 0.262 0.257 0.684-0.005 0.943l-3.246 3.219 3.241 3.131c0.264 0.255 0.272 0.677 0.016 0.943-0.13 0.135-0.305 0.203-0.479 0.203z"></path>
<path d="M20.667 30.668c-0.369 0-0.667-0.298-0.667-0.667v-28.024c0-0.369 0.298-0.667 0.667-0.667s0.667 0.298 0.667 0.667v28.024c0 0.368-0.298 0.667-0.667 0.667z"></path>
</svg>
