<svg version="1.1" xmlns="http://www.w3.org/2000/svg" width="32" height="32" viewBox="0 0 32 32">
<title>text_paragraph_indent_left</title>
<path d="M29.922 6.673h-15.904c-0.369 0-0.667-0.298-0.667-0.667s0.298-0.667 0.667-0.667h15.904c0.369 0 0.667 0.298 0.667 0.667s-0.298 0.667-0.667 0.667z"></path>
<path d="M29.922 10.673h-15.904c-0.369 0-0.667-0.298-0.667-0.667s0.298-0.667 0.667-0.667h15.904c0.369 0 0.667 0.298 0.667 0.667s-0.298 0.667-0.667 0.667z"></path>
<path d="M29.922 14.673h-15.904c-0.369 0-0.667-0.298-0.667-0.667s0.298-0.667 0.667-0.667h15.904c0.369 0 0.667 0.298 0.667 0.667s-0.298 0.667-0.667 0.667z"></path>
<path d="M29.922 18.672h-10.495c-0.369 0-0.667-0.298-0.667-0.667s0.298-0.667 0.667-0.667h10.495c0.369 0 0.667 0.298 0.667 0.667s-0.298 0.667-0.667 0.667z"></path>
<path d="M29.922 22.672h-10.495c-0.369 0-0.667-0.298-0.667-0.667s0.298-0.667 0.667-0.667h10.495c0.369 0 0.667 0.298 0.667 0.667s-0.298 0.667-0.667 0.667z"></path>
<path d="M29.922 26.672h-10.495c-0.369 0-0.667-0.298-0.667-0.667s0.298-0.667 0.667-0.667h10.495c0.369 0 0.667 0.298 0.667 0.667s-0.298 0.667-0.667 0.667z"></path>
<path d="M10.013 10.652h-7.89c-0.369 0-0.667-0.298-0.667-0.667s0.298-0.667 0.667-0.667h7.89c0.369 0 0.667 0.298 0.667 0.667s-0.298 0.667-0.667 0.667z"></path>
<path d="M5.9 14.301c-0.167 0-0.334-0.063-0.464-0.187l-3.778-3.652c-0.13-0.126-0.203-0.298-0.203-0.479s0.074-0.353 0.203-0.479l3.778-3.651c0.266-0.255 0.687-0.248 0.943 0.016 0.256 0.265 0.249 0.687-0.016 0.943l-3.283 3.172 3.283 3.173c0.264 0.256 0.271 0.678 0.016 0.943-0.131 0.135-0.305 0.203-0.479 0.203z"></path>
</svg>
