<svg version="1.1" xmlns="http://www.w3.org/2000/svg" width="32" height="32" viewBox="0 0 32 32">
<title>text_numbered_list</title>
<path d="M4.662 11.253c-0.369 0-0.667-0.298-0.667-0.667v-2.825c-0.338 0.115-0.711-0.063-0.837-0.402-0.127-0.345 0.049-0.729 0.395-0.856l0.878-0.324c0.204-0.075 0.432-0.045 0.612 0.079 0.178 0.124 0.285 0.329 0.285 0.547v3.781c0 0.369-0.298 0.667-0.667 0.667z"></path>
<path d="M5.889 19.337h-2.454c-0.273 0-0.518-0.167-0.619-0.419-0.101-0.254-0.038-0.543 0.161-0.732l1.786-1.693c0.288-0.268 0.421-0.538 0.361-0.727-0.040-0.124-0.165-0.217-0.318-0.236-0.249-0.029-0.495 0.131-0.691 0.445-0.197 0.312-0.607 0.409-0.919 0.209-0.312-0.195-0.406-0.607-0.21-0.919 0.477-0.759 1.224-1.153 1.986-1.058 0.664 0.083 1.222 0.535 1.421 1.149 0.227 0.705-0.034 1.473-0.717 2.11l-0.568 0.538h0.782c0.369 0 0.667 0.298 0.667 0.667s-0.298 0.667-0.667 0.667z"></path>
<path d="M4.775 27.277c-0.785 0-1.585-0.4-1.906-0.992-0.176-0.324-0.055-0.729 0.268-0.904s0.728-0.055 0.904 0.268c0.085 0.158 0.526 0.353 0.889 0.28 0.22-0.042 0.251-0.143 0.266-0.263 0.023-0.182-0.023-0.231-0.038-0.246-0.123-0.13-0.505-0.19-0.725-0.167-0.273 0.003-0.516-0.124-0.639-0.359s-0.094-0.521 0.074-0.727l0.587-0.72h-0.863c-0.369 0-0.667-0.298-0.667-0.667s0.298-0.667 0.667-0.667h2.266c0.257 0 0.492 0.148 0.602 0.38 0.111 0.233 0.077 0.508-0.085 0.707l-0.764 0.939c0.183 0.085 0.361 0.201 0.512 0.358 0.227 0.238 0.481 0.663 0.397 1.332-0.092 0.742-0.594 1.268-1.342 1.41-0.132 0.025-0.267 0.036-0.403 0.036z"></path>
<path d="M29.978 9.339h-19.907c-0.369 0-0.667-0.298-0.667-0.667s0.298-0.667 0.667-0.667h19.907c0.369 0 0.667 0.298 0.667 0.667s-0.298 0.667-0.667 0.667z"></path>
<path d="M29.978 17.339h-19.907c-0.369 0-0.667-0.298-0.667-0.667s0.298-0.667 0.667-0.667h19.907c0.369 0 0.667 0.298 0.667 0.667s-0.298 0.667-0.667 0.667z"></path>
<path d="M29.978 25.339h-19.907c-0.369 0-0.667-0.298-0.667-0.667s0.298-0.667 0.667-0.667h19.907c0.369 0 0.667 0.298 0.667 0.667s-0.298 0.667-0.667 0.667z"></path>
</svg>
