<svg version="1.1" xmlns="http://www.w3.org/2000/svg" width="32" height="32" viewBox="0 0 32 32">
<title>text_line_order</title>
<path d="M7.333 29.229c-0.369 0-0.667-0.298-0.667-0.667v-25.196c0-0.369 0.298-0.667 0.667-0.667s0.667 0.298 0.667 0.667v25.196c0 0.368-0.298 0.667-0.667 0.667z"></path>
<path d="M7.333 29.229c-0.179 0-0.351-0.072-0.477-0.201l-4.057-4.145c-0.257-0.263-0.253-0.685 0.010-0.943 0.264-0.255 0.686-0.254 0.943 0.010l3.581 3.657 3.581-3.658c0.258-0.264 0.681-0.266 0.943-0.010 0.263 0.258 0.268 0.68 0.010 0.943l-4.057 4.145c-0.125 0.129-0.297 0.201-0.476 0.201z"></path>
<path d="M28.592 8.006h-15.904c-0.369 0-0.667-0.298-0.667-0.667s0.298-0.667 0.667-0.667h15.904c0.369 0 0.667 0.298 0.667 0.667s-0.298 0.667-0.667 0.667z"></path>
<path d="M28.592 12.006h-15.904c-0.369 0-0.667-0.298-0.667-0.667s0.298-0.667 0.667-0.667h15.904c0.369 0 0.667 0.298 0.667 0.667s-0.298 0.667-0.667 0.667z"></path>
<path d="M28.592 16.005h-15.904c-0.369 0-0.667-0.297-0.667-0.666s0.298-0.667 0.667-0.667h15.904c0.369 0 0.667 0.298 0.667 0.667s-0.298 0.666-0.667 0.666z"></path>
<path d="M20.641 20.005h-7.953c-0.369 0-0.667-0.298-0.667-0.667s0.298-0.667 0.667-0.667h7.953c0.369 0 0.667 0.298 0.667 0.667s-0.298 0.667-0.667 0.667z"></path>
</svg>
