<svg version="1.1" xmlns="http://www.w3.org/2000/svg" width="32" height="32" viewBox="0 0 32 32">
<title>text_align_left_paragraph</title>
<path d="M29.974 2.668h-27.91c-0.369 0-0.667-0.298-0.667-0.667s0.298-0.667 0.667-0.667h27.91c0.369 0 0.667 0.298 0.667 0.667s-0.298 0.667-0.667 0.667z"></path>
<path d="M18.013 6.668h-15.949c-0.369 0-0.667-0.298-0.667-0.667s0.298-0.667 0.667-0.667h15.949c0.369 0 0.667 0.298 0.667 0.667s-0.298 0.667-0.667 0.667z"></path>
<path d="M29.974 10.668h-27.91c-0.369 0-0.667-0.298-0.667-0.667s0.298-0.667 0.667-0.667h27.91c0.369 0 0.667 0.298 0.667 0.667s-0.298 0.667-0.667 0.667z"></path>
<path d="M18.013 14.668h-15.949c-0.369 0-0.667-0.298-0.667-0.667s0.298-0.667 0.667-0.667h15.949c0.369 0 0.667 0.298 0.667 0.667s-0.298 0.667-0.667 0.667z"></path>
<path d="M29.974 18.668h-27.91c-0.369 0-0.667-0.298-0.667-0.667s0.298-0.667 0.667-0.667h27.91c0.369 0 0.667 0.298 0.667 0.667s-0.298 0.667-0.667 0.667z"></path>
<path d="M18.013 22.668h-15.949c-0.369 0-0.667-0.298-0.667-0.667s0.298-0.667 0.667-0.667h15.949c0.369 0 0.667 0.298 0.667 0.667s-0.298 0.667-0.667 0.667z"></path>
<path d="M29.974 26.668h-27.91c-0.369 0-0.667-0.298-0.667-0.667s0.298-0.667 0.667-0.667h27.91c0.369 0 0.667 0.298 0.667 0.667s-0.298 0.667-0.667 0.667z"></path>
<path d="M18.013 30.668h-15.949c-0.369 0-0.667-0.298-0.667-0.667s0.298-0.667 0.667-0.667h15.949c0.369 0 0.667 0.298 0.667 0.667s-0.298 0.667-0.667 0.667z"></path>
</svg>
