<!-- Generated by IcoMoon.io -->
<svg version="1.1" xmlns="http://www.w3.org/2000/svg" width="32" height="32" viewBox="0 0 32 32">
<title>text_font_size_larger</title>
<path d="M6.057 13.262c-0.369 0-0.667-0.298-0.667-0.667v-7.89c0-0.369 0.298-0.667 0.667-0.667s0.667 0.298 0.667 0.667v7.89c0 0.369-0.298 0.667-0.667 0.667z"></path>
<path d="M9.711 9.148c-0.175 0-0.348-0.068-0.479-0.203l-3.173-3.283-3.173 3.283c-0.255 0.264-0.677 0.272-0.943 0.016-0.264-0.256-0.271-0.678-0.016-0.943l3.652-3.779c0.251-0.259 0.707-0.259 0.958 0l3.652 3.779c0.256 0.265 0.249 0.687-0.016 0.943-0.13 0.125-0.297 0.187-0.464 0.187z"></path>
<path d="M13.87 27.917c-0.087 0-0.175-0.017-0.259-0.052-0.339-0.143-0.498-0.535-0.355-0.874l8.097-19.184c0.208-0.493 1.021-0.495 1.229 0l8.099 19.184c0.143 0.339-0.016 0.731-0.355 0.874-0.337 0.139-0.729-0.014-0.874-0.355l-7.484-17.729-7.484 17.729c-0.107 0.255-0.354 0.407-0.614 0.407z"></path>
<path d="M27.288 21.335h-10.639c-0.369 0-0.667-0.298-0.667-0.667s0.298-0.667 0.667-0.667h10.639c0.369 0 0.667 0.298 0.667 0.667s-0.298 0.667-0.667 0.667z"></path>
<path d="M10.038 27.876c-0.267 0-0.519-0.161-0.621-0.425l-3.357-8.633-3.357 8.633c-0.133 0.342-0.522 0.513-0.863 0.379-0.343-0.133-0.513-0.519-0.38-0.863l3.979-10.229c0.199-0.51 1.043-0.51 1.242 0l3.979 10.229c0.133 0.344-0.036 0.731-0.38 0.863-0.079 0.031-0.161 0.046-0.241 0.046z"></path>
<path d="M8.531 24.001h-4.943c-0.369 0-0.667-0.298-0.667-0.667s0.298-0.667 0.667-0.667h4.943c0.369 0 0.667 0.298 0.667 0.667s-0.298 0.667-0.667 0.667z"></path>
</svg>
