<!-- Generated by IcoMoon.io -->
<svg version="1.1" xmlns="http://www.w3.org/2000/svg" width="32" height="32" viewBox="0 0 32 32">
<title>text_numbered_list</title>
<path d="M6.443 10.938h-2.41v-0.759h0.769v-1.509c0-0.137 0.005-0.278 0.005-0.278h-0.010c0 0-0.046 0.101-0.142 0.192l-0.218 0.197-0.511-0.547 0.977-0.916h0.764v2.86h0.775v0.759zM6.539 17.688h-2.506c-0.025-0.142-0.041-0.268-0.041-0.39 0-0.823 0.593-1.229 1.048-1.542 0.285-0.195 0.516-0.354 0.516-0.554 0-0.253-0.202-0.359-0.39-0.359-0.344 0-0.537 0.385-0.537 0.385l-0.658-0.44c0 0 0.334-0.78 1.276-0.78 0.592 0 1.235 0.339 1.235 1.109 0 0.692-0.548 1.042-0.978 1.316-0.271 0.173-0.496 0.316-0.505 0.496h1.539v0.759zM3.902 24.272c0 0 0.425 0.476 1.235 0.476 0.906 0 1.342-0.618 1.342-1.235 0-0.506-0.339-0.931-0.876-1.048l0.734-0.845v-0.552h-2.283v0.759h0.866c0.228 0 0.344-0.025 0.344-0.025v0.010c0 0-0.142 0.132-0.314 0.339l-0.476 0.572 0.187 0.43h0.253c0.39 0 0.673 0.116 0.673 0.4 0 0.197-0.187 0.359-0.516 0.359-0.42 0-0.744-0.324-0.744-0.324l-0.425 0.683zM10 8c-0.552 0-1 0.448-1 1s0.448 1 1 1h18c0.552 0 1-0.448 1-1s-0.448-1-1-1h-18zM10 15c-0.552 0-1 0.448-1 1s0.448 1 1 1h18c0.552 0 1-0.448 1-1s-0.448-1-1-1h-18zM10 22c-0.552 0-1 0.448-1 1s0.448 1 1 1h18c0.552 0 1-0.448 1-1s-0.448-1-1-1h-18z"></path>
</svg>
