<svg version="1.1" xmlns="http://www.w3.org/2000/svg" width="32" height="32" viewBox="0 0 32 32">
<title>text_style_strikethrough</title>
<path d="M29.333 17.335h-26.667c-0.369 0-0.667-0.298-0.667-0.667s0.298-0.667 0.667-0.667h26.667c0.369 0 0.667 0.298 0.667 0.667s-0.298 0.667-0.667 0.667z"></path>
<path d="M15.823 30.555c-2.862 0-6.832-1.647-9.439-3.917-0.278-0.241-0.307-0.663-0.065-0.94s0.663-0.307 0.94-0.065c2.352 2.046 6.033 3.589 8.564 3.589 4.012 0 7.275-2.815 7.275-6.276 0-2.813-2.371-4.815-7.462-6.305-4.38-1.372-8.422-3.238-8.422-7.583 0-4.196 3.862-7.61 8.609-7.61 3.065 0 5.922 1.457 7.456 3.802 0.202 0.309 0.116 0.721-0.193 0.923-0.305 0.2-0.72 0.115-0.922-0.193-1.292-1.973-3.721-3.199-6.341-3.199-4.012 0-7.275 2.816-7.275 6.277 0 3.484 3.592 5.091 7.475 6.307 3.603 1.053 8.409 2.989 8.409 7.58-0 4.195-3.862 7.609-8.608 7.609z"></path>
</svg>
