<!-- Generated by IcoMoon.io -->
<svg version="1.1" xmlns="http://www.w3.org/2000/svg" width="32" height="32" viewBox="0 0 32 32">
<title>text_align_center_paragraph</title>
<path d="M5.8 8h20.5c0.6 0 1-0.4 1-1s-0.4-1-1-1h-20.5c-0.6 0-1 0.4-1 1s0.4 1 1 1z"></path>
<path d="M10.9 12c-0.6 0-1 0.4-1 1s0.4 1 1 1h10.2c0.6 0 1-0.4 1-1s-0.4-1-1-1h-10.2z"></path>
<path d="M26.2 18h-20.4c-0.6 0-1 0.4-1 1s0.4 1 1 1h20.5c0.6 0 1-0.4 1-1s-0.5-1-1.1-1z"></path>
<path d="M21.1 24h-10.2c-0.6 0-1 0.4-1 1s0.4 1 1 1h10.2c0.6 0 1-0.4 1-1s-0.4-1-1-1z"></path>
</svg>
