<svg version="1.1" xmlns="http://www.w3.org/2000/svg" width="32" height="32" viewBox="0 0 32 32">
<title>text_align_center_paragraph</title>
<path d="M29.854 2.668h-27.91c-0.369 0-0.667-0.298-0.667-0.667s0.298-0.667 0.667-0.667h27.91c0.369 0 0.667 0.298 0.667 0.667s-0.298 0.667-0.667 0.667z"></path>
<path d="M24.667 6.668h-17.333c-0.369 0-0.667-0.298-0.667-0.667s0.298-0.667 0.667-0.667h17.333c0.369 0 0.667 0.298 0.667 0.667s-0.298 0.667-0.667 0.667z"></path>
<path d="M29.854 10.668h-27.91c-0.369 0-0.667-0.298-0.667-0.667s0.298-0.667 0.667-0.667h27.91c0.369 0 0.667 0.298 0.667 0.667s-0.298 0.667-0.667 0.667z"></path>
<path d="M24.667 14.668h-17.333c-0.369 0-0.667-0.298-0.667-0.667s0.298-0.667 0.667-0.667h17.333c0.369 0 0.667 0.298 0.667 0.667s-0.298 0.667-0.667 0.667z"></path>
<path d="M29.854 18.668h-27.91c-0.369 0-0.667-0.298-0.667-0.667s0.298-0.667 0.667-0.667h27.91c0.369 0 0.667 0.298 0.667 0.667s-0.298 0.667-0.667 0.667z"></path>
<path d="M24.667 22.668h-17.333c-0.369 0-0.667-0.298-0.667-0.667s0.298-0.667 0.667-0.667h17.333c0.369 0 0.667 0.298 0.667 0.667s-0.298 0.667-0.667 0.667z"></path>
<path d="M29.854 26.668h-27.91c-0.369 0-0.667-0.298-0.667-0.667s0.298-0.667 0.667-0.667h27.91c0.369 0 0.667 0.298 0.667 0.667s-0.298 0.667-0.667 0.667z"></path>
<path d="M24.667 30.668h-17.333c-0.369 0-0.667-0.298-0.667-0.667s0.298-0.667 0.667-0.667h17.333c0.369 0 0.667 0.298 0.667 0.667s-0.298 0.667-0.667 0.667z"></path>
</svg>
