<svg version="1.1" xmlns="http://www.w3.org/2000/svg" width="32" height="32" viewBox="0 0 32 32">
<title>text_style_superscript</title>
<path d="M29.341 10.091c-0.171 0-0.341-0.065-0.471-0.195l-6.84-6.841c-0.26-0.26-0.26-0.682 0-0.943s0.682-0.26 0.943 0l6.84 6.841c0.26 0.26 0.26 0.682 0 0.943-0.13 0.13-0.301 0.195-0.471 0.195z"></path>
<path d="M22.501 10.091c-0.171 0-0.341-0.065-0.471-0.195-0.26-0.26-0.26-0.682 0-0.943l6.84-6.841c0.26-0.26 0.682-0.26 0.943 0s0.26 0.682 0 0.943l-6.84 6.841c-0.13 0.13-0.301 0.195-0.471 0.195z"></path>
<path d="M11.288 29.339h-2.632c-0.369 0-0.667-0.298-0.667-0.667s0.298-0.667 0.667-0.667h2.632c0.369 0 0.667 0.298 0.667 0.667s-0.298 0.667-0.667 0.667z"></path>
<path d="M1.988 8.005c-0.369 0-0.667-0.298-0.667-0.667v-1.333c0-0.369 0.298-0.667 0.667-0.667s0.667 0.298 0.667 0.667v1.333c0 0.369-0.298 0.667-0.667 0.667z"></path>
<path d="M17.988 8.005c-0.369 0-0.667-0.298-0.667-0.667v-1.333c0-0.369 0.298-0.667 0.667-0.667s0.667 0.298 0.667 0.667v1.333c0 0.369-0.298 0.667-0.667 0.667z"></path>
<path d="M17.988 6.672h-16.001c-0.369 0-0.667-0.298-0.667-0.667s0.298-0.667 0.667-0.667h16.001c0.369 0 0.667 0.298 0.667 0.667s-0.298 0.667-0.667 0.667z"></path>
<path d="M9.988 29.339c-0.369 0-0.667-0.298-0.667-0.667v-22.667c0-0.369 0.298-0.667 0.667-0.667s0.667 0.298 0.667 0.667v22.667c0 0.369-0.298 0.667-0.667 0.667z"></path>
</svg>
