<!-- Generated by IcoMoon.io -->
<svg version="1.1" xmlns="http://www.w3.org/2000/svg" width="32" height="32" viewBox="0 0 32 32">
<title>text_style_underline</title>
<path d="M5.022 5.069h1.9v8.884c0 2.425 0.944 4.703 2.656 6.419 1.713 1.712 3.994 2.656 6.419 2.656s4.703-0.944 6.419-2.656c1.712-1.712 2.656-3.994 2.656-6.419v-8.884h1.9c0.603 0 1.094-0.491 1.094-1.094s-0.491-1.094-1.094-1.094h-5.988c-0.603 0-1.094 0.491-1.094 1.094s0.491 1.094 1.094 1.094h1.9v8.884c0 3.797-3.091 6.887-6.887 6.887s-6.891-3.091-6.891-6.891v-8.881h1.9c0.603 0 1.094-0.491 1.094-1.094s-0.491-1.094-1.094-1.094h-5.984c-0.603 0-1.094 0.491-1.094 1.094s0.491 1.094 1.094 1.094z"></path>
<path d="M27.969 26.825h-23.944c-0.603 0-1.094 0.491-1.094 1.094s0.491 1.094 1.094 1.094h23.944c0.603 0 1.094-0.491 1.094-1.094s-0.491-1.094-1.094-1.094z"></path>
</svg>
