<!-- Generated by IcoMoon.io -->
<svg version="1.1" xmlns="http://www.w3.org/2000/svg" width="32" height="32" viewBox="0 0 32 32">
<title>text_style_bold</title>
<path d="M27.534 18.894c-0.678-1.172-1.647-2.159-2.806-2.859l-1.184-0.716 0.891-1.056c1.206-1.434 1.872-3.256 1.872-5.138 0-2.134-0.831-4.144-2.341-5.653s-3.516-2.341-5.653-2.341h-13.756c-0.612 0-1.112 0.5-1.112 1.112s0.5 1.112 1.112 1.112h2.328v25.294h-2.328c-0.612 0-1.112 0.5-1.112 1.113s0.5 1.113 1.112 1.113h16.053c2.134 0 4.144-0.831 5.653-2.341s2.341-3.516 2.341-5.653c-0.003-1.403-0.372-2.781-1.069-3.988zM9.106 3.356h9.206c3.181 0 5.766 2.587 5.766 5.766s-2.587 5.766-5.766 5.766h-9.206v-11.531zM20.609 28.65h-11.5v-11.534h11.5c3.181 0 5.766 2.587 5.766 5.766s-2.587 5.769-5.766 5.769z"></path>
</svg>
