<svg version="1.1" xmlns="http://www.w3.org/2000/svg" width="32" height="32" viewBox="0 0 32 32">
<title>thunderbolt</title>
<path d="M15.999 31.646c-8.613 0-15.62-7.008-15.62-15.621s7.007-15.62 15.62-15.62c1.467 0 2.93 0.208 4.348 0.618 0.206 0.059 0.37 0.214 0.443 0.414 0.072 0.201 0.044 0.424-0.075 0.601l-8.699 12.829 5.385-1.367c0.264-0.066 0.552 0.039 0.711 0.268s0.158 0.533-0.001 0.76l-4.428 6.341c-0.119 0.171-0.31 0.275-0.517 0.284-0.206 0.035-0.406-0.077-0.54-0.236l-0.732-0.869-1.189 5.193 5.165-2.141-0.908-0.353c-0.202-0.078-0.353-0.249-0.406-0.46-0.053-0.21 0-0.432 0.141-0.596l9.704-11.269-6.393 1.539c-0.273 0.064-0.569-0.053-0.721-0.297-0.151-0.244-0.13-0.558 0.055-0.779l6.443-7.729c0.216-0.261 0.598-0.318 0.881-0.127 4.355 2.909 6.954 7.768 6.954 12.995 0 8.613-7.006 15.621-15.62 15.621zM15.999 1.738c-7.878 0-14.287 6.409-14.287 14.286 0 7.879 6.409 14.288 14.287 14.288s14.286-6.409 14.286-14.288c0-4.581-2.184-8.853-5.871-11.544l-4.763 5.714 5.026-1.206c0.051-0.012 0.216-0.033 0.269-0.033 0.439 0 0.842 0.262 1.029 0.668s0.121 0.869-0.171 1.21l-9.482 11.012 0.487 0.189c0.437 0.172 0.72 0.583 0.724 1.049s-0.271 0.881-0.701 1.059l-5.972 2.457c-0.447 0.187-1.007 0.051-1.318-0.34-0.216-0.269-0.297-0.617-0.222-0.957l1.361-5.939c0.116-0.518 0.572-0.881 1.107-0.881 0.334 0 0.65 0.146 0.866 0.401l0.43 0.509 2.907-4.162-4.152 1.050c-0.053 0.013-0.225 0.035-0.28 0.035-0.402 0-0.779-0.219-0.982-0.571-0.204-0.353-0.204-0.776 0.001-1.131l8.499-12.539c-1.013-0.223-2.044-0.337-3.078-0.337z"></path>
</svg>
