<svg version="1.1" xmlns="http://www.w3.org/2000/svg" width="32" height="32" viewBox="0 0 32 32">
<title>tie_business_man</title>
<path d="M23.029 25.898c-0.087 0-0.177-0.017-0.262-0.053l-1.932-0.824c-0.339-0.145-0.496-0.536-0.352-0.875s0.534-0.495 0.875-0.352l1.384 0.591 0.547-0.964-4.055-11.761c-0.12-0.348 0.065-0.728 0.413-0.848s0.728 0.064 0.848 0.413l4.152 12.046c0.063 0.181 0.044 0.38-0.051 0.547l-0.988 1.742c-0.121 0.213-0.346 0.337-0.579 0.337z"></path>
<path d="M13.727 6.769c-0.239 0-0.464-0.129-0.583-0.342-1.561-2.806-1.825-4.552-0.811-5.336 1.279-0.689 2.492-1.007 3.7-1.007 2.085 0 3.428 0.953 3.486 0.993 1.027 0.792 0.771 2.523-0.768 5.305-0.135 0.243-0.411 0.376-0.681 0.337-1.384-0.205-2.845-0.191-4.234 0.040-0.037 0.006-0.074 0.009-0.109 0.009zM16.034 1.417c-0.988 0-1.992 0.266-2.981 0.79-0.094 0.085-0.077 1.055 1.037 3.167 1.227-0.163 2.484-0.175 3.709-0.035 1.096-2.090 1.105-3.052 0.922-3.193v0c-0.001 0-1.061-0.729-2.687-0.729z"></path>
<path d="M16.049 31.876c-0.176 0-0.346-0.070-0.471-0.195l-3.705-3.707c-0.141-0.141-0.211-0.336-0.192-0.534l1.863-19.605c0.035-0.367 0.361-0.648 0.727-0.6 0.367 0.035 0.635 0.36 0.6 0.727l-1.833 19.292 2.996 2.997 2.801-2.986-1.839-19.342c-0.034-0.367 0.234-0.692 0.602-0.727 0.341-0.043 0.693 0.233 0.727 0.6l1.867 19.643c0.018 0.19-0.047 0.379-0.178 0.518l-3.478 3.707c-0.122 0.131-0.294 0.208-0.475 0.211-0.004-0-0.007-0-0.011-0z"></path>
</svg>
