<!-- Generated by IcoMoon.io -->
<svg version="1.1" xmlns="http://www.w3.org/2000/svg" width="36" height="32" viewBox="0 0 36 32">
<title>time_edit</title>
<path d="M8.382 18.324c-0.603-0.001-1.091-0.489-1.092-1.092v0c0.001-0.662 0.537-1.198 1.199-1.198h7.043v-7.147c0.001-0.603 0.489-1.091 1.092-1.092v0c0.661 0 1.198 0.537 1.198 1.198v8.186c0 0.632-0.513 1.145-1.145 1.145v0z"></path>
<path d="M15.93 32c-0.005 0-0.010 0-0.016 0-2.522 0-4.905-0.591-7.020-1.641l0.092 0.041c-7.906-3.832-11.223-13.417-7.396-21.366 2.683-5.574 8.056-9.035 14.022-9.035 2.452 0 4.882 0.569 7.223 1.699 3.665 1.765 5.727 4.305 6.81 6.124 0.107 0.177 0.17 0.391 0.17 0.619 0 0.129-0.020 0.253-0.058 0.37l0.002-0.009c-0.104 0.328-0.338 0.589-0.64 0.726l-0.007 0.003c-0.128 0.060-0.278 0.095-0.436 0.095v0c-0.392-0.001-0.735-0.212-0.922-0.526l-0.003-0.005c-2.421-4.069-6.797-6.753-11.799-6.753-7.557 0-13.683 6.126-13.683 13.683 0 5.399 3.126 10.067 7.667 12.293l0.081 0.036c1.725 0.855 3.756 1.355 5.904 1.355 0.005 0 0.009 0 0.014 0h-0.001c0.689-0.001 1.364-0.053 2.025-0.152l-0.076 0.009c0.047-0.007 0.102-0.011 0.157-0.011v0c0 0 0.001 0 0.002 0 0.501 0 0.921 0.341 1.043 0.803l0.002 0.008c0.025 0.091 0.039 0.195 0.039 0.302 0 0.248-0.076 0.478-0.207 0.668l0.003-0.004c-0.191 0.279-0.489 0.473-0.834 0.521l-0.006 0.001c-0.645 0.092-1.39 0.145-2.147 0.146h-0.001z"></path>
<path d="M20.23 27.912c-0.293 0-0.559-0.119-0.751-0.311v0c-0.192-0.19-0.31-0.454-0.31-0.746 0-0.033 0.002-0.066 0.005-0.098v0.004l0.416-4.98c-0.021-0.078-0.033-0.168-0.033-0.261 0-0.287 0.116-0.546 0.303-0.735l8.323-8.323c0.591-0.59 1.441-0.929 2.33-0.929 0.85 0 1.668 0.309 2.246 0.849l1.869 1.87c1.258 1.338 1.256 3.374-0.006 4.635l-8.331 8.332c-0.191 0.192-0.455 0.31-0.747 0.31-0.002 0-0.003 0-0.005 0v0c-0.083-0.002-0.162-0.017-0.236-0.041l0.006 0.002-4.989 0.417c-0.034 0.004-0.062 0.004-0.090 0.004zM21.391 25.689l1.722-0.142-1.577-1.578zM25.6 24.906l7.52-7.519c0.2-0.2 0.324-0.477 0.324-0.783s-0.124-0.582-0.324-0.783v0l-1.858-1.859c-0.203-0.201-0.482-0.326-0.79-0.326s-0.587 0.124-0.79 0.326l-7.511 7.514z"></path>
</svg>
