<svg version="1.1" xmlns="http://www.w3.org/2000/svg" width="32" height="32" viewBox="0 0 32 32">
<title>timestamp</title>
<path d="M24.497 27.738h-22.666c-0.369 0-0.666 0.297-0.666 0.666s0.297 0.666 0.666 0.666h22.666c0.369 0 0.666-0.297 0.666-0.666s-0.297-0.666-0.666-0.666z"></path>
<path d="M25.856 24.356v0 0c0.244-0.069 0.425-0.275 0.466-0.528-0.041 0.253-0.222 0.459-0.466 0.528z"></path>
<path d="M23.703 24.378l-16.653-0.012 16.653 0.016z"></path>
<path d="M26.319 23.828c0.006-0.038 0.009-0.075 0.006-0.113 0 0 0-0.003 0-0.003s0 0.003 0 0.003c0.003 0.041 0 0.078-0.006 0.113z"></path>
<path d="M24.822 23.241c0.075 0.072 0.128 0.159 0.163 0.256-0.009-0.15-0.031-0.3-0.056-0.447h-0.516c0.153 0.012 0.297 0.081 0.409 0.191z"></path>
<path d="M1.337 23.484c0.031-0.097 0.084-0.188 0.156-0.262 0.122-0.125 0.291-0.194 0.469-0.194h-0.581c-0.025 0.15-0.041 0.303-0.044 0.456z"></path>
<path d="M25.028 23.916l0.006 0.469h0.634c-0.294-0.003-0.55-0.2-0.641-0.469z"></path>
<path d="M0.709 24.363h0.609l-0.009-0.472c-0.075 0.266-0.313 0.462-0.6 0.472z"></path>
<path d="M1.309 23.891l-0.003-0.197c0-0.072 0.009-0.144 0.031-0.209 0.006-0.153 0.019-0.306 0.041-0.456h-0.722c-0.369-0.003-0.662 0.297-0.656 0.666s0.309 0.669 0.678 0.669h0.031c0.287-0.009 0.525-0.206 0.6-0.472z"></path>
<path d="M23.722 25.394l-21.053-0.016-0.016-1.016 4.4 0.003-5.731-0.006 0.028 1.684c0.006 0.369 0.309 0.666 0.678 0.666l22.387 0.016c0.063 0 0.125-0.009 0.184-0.025v0c0.278-0.081 0.475-0.337 0.472-0.641l-0.028-1.681h-1.334l0.012 1.016z"></path>
<path d="M2.003 23.028l22.409 0.019c-0.022-0.003-0.044-0.003-0.066-0.003l-22.344-0.016z"></path>
<path d="M24.994 23.716c0-0.075-0.003-0.147-0.009-0.219-0.034-0.094-0.091-0.184-0.163-0.256-0.113-0.109-0.256-0.178-0.409-0.191l-22.453-0.019c-0.178 0-0.344 0.072-0.469 0.194-0.072 0.075-0.125 0.163-0.156 0.262-0.003 0.069-0.003 0.141-0.003 0.209s-0.009 0.134-0.025 0.197l0.009 0.472 23.719 0.022-0.006-0.469c-0.022-0.066-0.031-0.134-0.034-0.203z"></path>
<path d="M1.309 23.891c0.019-0.063 0.028-0.128 0.025-0.197 0-0.072 0-0.141 0.003-0.209-0.022 0.069-0.031 0.137-0.031 0.209l0.003 0.197z"></path>
<path d="M25.028 23.916l-0.003-0.203c0-0.075-0.016-0.147-0.041-0.216 0.006 0.072 0.009 0.147 0.009 0.219 0.003 0.069 0.012 0.137 0.034 0.2z"></path>
<path d="M26.328 23.716c-0.006-0.384-0.053-0.756-0.137-1.116-0.047-0.316-0.328-0.559-0.669-0.559-0.372 0-0.672 0.288-0.678 0.644 0 0 0 0 0 0s0 0 0 0c0 0.003 0 0.006 0 0.009 0 0.106 0.025 0.206 0.072 0.294 0.003 0.022 0.009 0.041 0.012 0.063 0.028 0.147 0.047 0.297 0.056 0.447 0.025 0.069 0.041 0.141 0.041 0.216l0.003 0.203c0.091 0.272 0.347 0.469 0.644 0.469 0.066 0 0.125-0.009 0.184-0.025v0c0.244-0.069 0.425-0.275 0.466-0.528 0.003-0.038 0.006-0.075 0.006-0.116 0 0 0 0 0 0z"></path>
<path d="M19.722 19c0-0.381-0.309-0.688-0.688-0.688-0.031 0-0.066 0.003-0.097 0.006l-0.522 0.038h-0.878c-0.953-0.084-1.175-0.509-1.247-0.65-0.525-1.019 0.188-3.387 1.828-6.072 0.978-1.834 0.903-4.009-0.2-5.819-1.1-1.806-3.006-2.884-5.097-2.888-2.228 0-4.15 1.172-5.147 3.147-0.987 1.95-0.806 4.278 0.447 6.034 1.2 1.975 2.281 4.484 1.722 5.606-0.066 0.137-0.272 0.55-1.166 0.628h-3.412c-2.953-0.003-5.313 2.397-5.266 5.35 0.006 0.369 0.309 0.669 0.678 0.669 0.009 0 0.019 0 0.031 0h-0.031c-0.369 0-0.672-0.3-0.678-0.669-0.006-0.366 0.287-0.669 0.656-0.666h0.722c0.122-0.822 0.497-1.578 1.088-2.178 0.747-0.759 1.747-1.178 2.825-1.175h3.466c1.391-0.119 2.006-0.797 2.281-1.347 0.944-1.894-0.713-5.134-1.809-6.938-1.003-1.409-1.137-3.166-0.363-4.697 0.772-1.525 2.256-2.431 3.978-2.431 1.619 0 3.091 0.834 3.941 2.231 0.85 1.4 0.909 3.081 0.175 4.463-0.922 1.503-2.944 5.225-1.853 7.344 0.291 0.566 0.931 1.262 2.394 1.387h1.5c0.009 0 0.022 0 0.031 0s0.019 0 0.028 0h0.078c-0.003-0.003-0.003-0.003-0.006-0.006 0.334-0.050 0.591-0.337 0.591-0.681z"></path>
<path d="M25.406 16.022c-0.303 0-0.547-0.247-0.547-0.547v-4.606c0-0.303 0.247-0.547 0.547-0.547 0.303 0 0.547 0.247 0.547 0.547v4.056h2.509c0.303 0 0.547 0.247 0.547 0.547s-0.247 0.547-0.547 0.547h-3.056z"></path>
<path d="M25.659 21.559c-3.497 0-6.341-2.844-6.341-6.341s2.844-6.338 6.341-6.338 6.341 2.841 6.341 6.338c0 3.497-2.844 6.341-6.341 6.341zM25.659 9.975c-2.891 0-5.244 2.353-5.244 5.244s2.353 5.244 5.244 5.244c2.891 0 5.244-2.353 5.244-5.244s-2.35-5.244-5.244-5.244z"></path>
</svg>
