<!-- Generated by IcoMoon.io -->
<svg version="1.1" xmlns="http://www.w3.org/2000/svg" width="32" height="32" viewBox="0 0 32 32">
    <title>time_edit_filled</title>
	<path d="M31.3,14.6l-1.5-1.5l0,0c-0.4-0.4-1-0.6-1.6-0.6c-0.7,0-1.3,0.3-1.7,0.7l-6.4,6.4c-0.2,0.2-0.2,0.4-0.2,0.6
		c0,0.2,0.1,0.5,0.3,0.6l3.7,3.5c0.2,0.1,0.4,0.2,0.6,0.2c0.2,0,0.4-0.1,0.6-0.2l6.3-6.3C32.2,17.1,32.2,15.6,31.3,14.6z"/>
	<path d="M19.1,21.5c-0.1-0.1-0.3-0.2-0.4-0.2c-0.3,0-0.6,0.3-0.6,0.6l-0.2,4l0,0c0,0,0,0,0,0c0,0.4,0.3,0.8,0.8,0.8c0,0,0,0,0,0
		l4-0.2h0c0.3,0,0.6-0.3,0.6-0.6c0-0.2-0.1-0.3-0.2-0.4L19.1,21.5z"/>
	<path d="M15.5,8.9V16h-7c-0.7,0-1.2,0.5-1.2,1.2c0,0.6,0.5,1.1,1.1,1.1h8.3c0.6,0,1.1-0.5,1.1-1.1V9c0-0.7-0.5-1.2-1.2-1.2
		C16,7.8,15.5,8.3,15.5,8.9z"/>
	<path d="M19.1,30.4c-0.1-0.5-0.5-0.8-1-0.8c0,0,0,0,0,0c-0.1,0-0.1,0-0.2,0l0.1,0c-0.7,0.1-1.3,0.2-2,0.2c0,0,0,0,0,0
		c-2.1,0-4.2-0.5-5.9-1.4l-0.1,0C5.4,26.1,2.3,21.4,2.3,16C2.3,8.5,8.4,2.3,16,2.3c5,0,9.4,2.7,11.8,6.8l0,0
		c0.2,0.3,0.5,0.5,0.9,0.5c0.2,0,0.3,0,0.4-0.1l0,0c0.3-0.1,0.5-0.4,0.6-0.7c0-0.1,0.1-0.2,0.1-0.4c0-0.2-0.1-0.4-0.2-0.6
		c-1.1-1.8-3.1-4.4-6.8-6.1C20.5,0.6,18.1,0,15.6,0c-6,0-11.3,3.5-14,9C-2.2,17,1.1,26.6,9,30.4c2.1,1,4.4,1.6,6.9,1.6c0,0,0,0,0,0
		h0h0c0.8,0,1.5-0.1,2.1-0.1l0,0c0.3,0,0.6-0.2,0.8-0.5c0.1-0.2,0.2-0.4,0.2-0.7C19.1,30.6,19.1,30.5,19.1,30.4L19.1,30.4z"/>
</svg>
