<svg version="1.1" xmlns="http://www.w3.org/2000/svg" width="32" height="32" viewBox="0 0 32 32">
<title>timestamp_save</title>
<path d="M24.506 27.738h-22.666c-0.369 0-0.666 0.297-0.666 0.666s0.297 0.666 0.666 0.666h22.666c0.369 0 0.666-0.297 0.666-0.666s-0.297-0.666-0.666-0.666z"></path>
<path d="M24.938 23.053l-23.55-0.022c0.122-0.822 0.497-1.578 1.087-2.178 0.747-0.759 1.747-1.178 2.825-1.175h3.466c1.391-0.119 2.006-0.797 2.281-1.347 0.944-1.894-0.713-5.134-1.809-6.938-1.003-1.409-1.137-3.166-0.363-4.697 0.772-1.525 2.256-2.431 3.978-2.431 1.619 0 3.091 0.834 3.941 2.231 0.85 1.4 0.909 3.081 0.175 4.463-0.922 1.503-2.944 5.225-1.853 7.344 0.291 0.566 0.931 1.262 2.394 1.387h1.5c0.009 0 0.022 0 0.031 0s0.019 0 0.028 0h0.078c-0.003-0.003-0.003-0.003-0.006-0.006 0.334-0.050 0.591-0.337 0.591-0.681v0c0-0.381-0.309-0.688-0.688-0.688-0.031 0-0.066 0.003-0.097 0.006l-0.522 0.038h-0.878c-0.953-0.084-1.175-0.509-1.247-0.65-0.525-1.019 0.188-3.387 1.828-6.072 0.978-1.834 0.903-4.009-0.2-5.819-1.1-1.806-3.006-2.884-5.097-2.888-2.228 0-4.15 1.172-5.147 3.147-0.987 1.95-0.806 4.278 0.447 6.034 1.2 1.975 2.281 4.484 1.722 5.606-0.066 0.137-0.272 0.55-1.166 0.628h-3.412c-2.953-0.003-5.313 2.397-5.266 5.347 0.006 0.369 0.309 0.669 0.678 0.669h0.031c0 0 0 0 0 0h0.606v0.003h0.006l0.028 1.678c0.006 0.369 0.309 0.666 0.678 0.666l22.387 0.016c0.063 0 0.125-0.009 0.184-0.025 0.278-0.081 0.475-0.337 0.472-0.641l-0.028-1.675h0.625c-0.003 0-0.009 0-0.012 0 0.006 0 0.009 0 0.016 0 0.066 0 0.125-0.009 0.184-0.025 0.244-0.069 0.425-0.275 0.466-0.528 0.003-0.038 0.006-0.075 0.006-0.116v0c-0.006-0.384-0.053-0.756-0.137-1.116-0.047-0.316-0.328-0.559-0.669-0.559-0.372 0-0.672 0.288-0.678 0.644 0 0.003 0 0.006 0 0.009 0 0.106 0.081 0.334 0.084 0.359v0zM25.003 23.719v0zM25.044 24.378v0zM2.678 25.378l-0.016-1.012 21.056 0.019 0.012 1.006-21.053-0.012z"></path>
<path d="M31.847 11.878l-1.953-1.953c-0.087-0.088-0.209-0.141-0.347-0.144h-8.313c-0.269 0-0.488 0.219-0.488 0.488v10.266c0 0.269 0.219 0.488 0.488 0.488 0 0 0 0 0 0h10.266c0 0 0 0 0 0 0.269 0 0.488-0.219 0.488-0.488v-8.313c0.003-0.134-0.053-0.253-0.141-0.344v0 0zM24.109 11.206c0-0.137 0.113-0.25 0.25-0.25v0h4.019c0.137 0 0.25 0.113 0.25 0.25v0 2.122c0 0.137-0.113 0.25-0.25 0.25v0h-4.016c-0.137 0-0.25-0.113-0.25-0.25v0l-0.003-2.122zM29.997 20h-7.25v-4.563c0-0.25 0.203-0.453 0.453-0.453v0h6.347c0.25 0 0.453 0.203 0.453 0.453v0 4.563z"></path>
</svg>
