<svg version="1.1" xmlns="http://www.w3.org/2000/svg" width="32" height="32" viewBox="0 0 32 32">
<title>time_watch_clock_wall2</title>
<path d="M16 31.672c-8.641 0-15.671-7.030-15.671-15.671s7.030-15.671 15.671-15.671 15.671 7.030 15.671 15.671-7.030 15.671-15.671 15.671zM16 1.664c-7.906 0-14.337 6.432-14.337 14.337s6.432 14.337 14.337 14.337c7.905 0 14.337-6.432 14.337-14.337s-6.432-14.337-14.337-14.337z"></path>
<path d="M16.44 17.195c-0.172 0-0.341-0.066-0.47-0.194l-7.635-7.585c-0.261-0.259-0.262-0.682-0.003-0.943 0.259-0.26 0.682-0.262 0.943-0.003l7.274 7.227 4.202-2.401c0.315-0.182 0.725-0.074 0.91 0.248 0.182 0.32 0.072 0.727-0.249 0.909l-4.642 2.654c-0.103 0.059-0.218 0.087-0.331 0.087z"></path>
<path d="M26.953 17.546c-0.965 0-1.75-0.785-1.75-1.75s0.785-1.749 1.75-1.749 1.749 0.785 1.749 1.749-0.784 1.75-1.749 1.75zM26.953 15.38c-0.229 0-0.417 0.187-0.417 0.416s0.187 0.417 0.417 0.417 0.415-0.187 0.415-0.417-0.186-0.416-0.415-0.416z"></path>
<path d="M5.047 17.546c-0.964 0-1.749-0.785-1.749-1.75s0.785-1.749 1.749-1.749c0.965 0 1.749 0.785 1.749 1.749s-0.785 1.75-1.749 1.75zM5.047 15.38c-0.229 0-0.415 0.187-0.415 0.416s0.186 0.417 0.415 0.417 0.416-0.187 0.416-0.417-0.187-0.416-0.416-0.416z"></path>
<path d="M15.989 6.643c-0.965 0-1.749-0.785-1.749-1.749s0.785-1.749 1.749-1.749c0.964 0 1.749 0.785 1.749 1.749s-0.785 1.749-1.749 1.749zM15.989 4.477c-0.229 0-0.416 0.187-0.416 0.416s0.187 0.416 0.416 0.416c0.23 0 0.416-0.187 0.416-0.416s-0.186-0.416-0.416-0.416z"></path>
<path d="M15.989 28.529c-0.965 0-1.749-0.785-1.749-1.75s0.785-1.749 1.749-1.749c0.964 0 1.749 0.784 1.749 1.749s-0.785 1.75-1.749 1.75zM15.989 26.363c-0.229 0-0.416 0.186-0.416 0.415s0.187 0.417 0.416 0.417c0.23 0 0.416-0.187 0.416-0.417s-0.186-0.415-0.416-0.415z"></path>
<path d="M10.439 7.053c-0.173 0-0.346-0.067-0.466-0.201-0.121-0.12-0.201-0.293-0.201-0.466s0.080-0.347 0.201-0.481c0.24-0.24 0.68-0.24 0.933 0 0.133 0.133 0.214 0.307 0.214 0.481s-0.080 0.346-0.2 0.466c-0.134 0.133-0.307 0.201-0.481 0.201z"></path>
<path d="M10.439 25.96c-0.173 0-0.346-0.066-0.466-0.201-0.12-0.12-0.201-0.293-0.201-0.466s0.080-0.333 0.201-0.466c0.266-0.267 0.706-0.254 0.947 0 0.12 0.12 0.186 0.293 0.186 0.466s-0.066 0.346-0.186 0.466c-0.121 0.134-0.294 0.201-0.481 0.201z"></path>
<path d="M21.426 6.986c-0.173 0-0.346-0.066-0.466-0.187-0.133-0.133-0.201-0.307-0.201-0.48s0.068-0.346 0.188-0.467c0.253-0.253 0.693-0.253 0.947-0.013 0.133 0.147 0.199 0.32 0.199 0.48 0 0.173-0.066 0.347-0.186 0.467-0.147 0.133-0.306 0.2-0.481 0.2z"></path>
<path d="M21.426 26.026c-0.173 0-0.346-0.066-0.466-0.199-0.133-0.134-0.201-0.294-0.201-0.467s0.068-0.346 0.187-0.466c0.253-0.267 0.707-0.254 0.947-0.013 0.133 0.133 0.199 0.306 0.199 0.479s-0.066 0.333-0.186 0.453c-0.147 0.147-0.306 0.214-0.481 0.214z"></path>
<path d="M25.466 10.986c-0.173 0-0.346-0.066-0.479-0.2-0.107-0.107-0.187-0.28-0.187-0.467 0-0.173 0.081-0.346 0.201-0.467 0.24-0.24 0.68-0.253 0.934-0.013 0.133 0.147 0.199 0.307 0.199 0.48s-0.066 0.347-0.186 0.48c-0.134 0.12-0.307 0.187-0.481 0.187z"></path>
<path d="M25.466 22.040c-0.173 0-0.346-0.068-0.479-0.201-0.107-0.107-0.187-0.28-0.187-0.466 0-0.175 0.066-0.348 0.201-0.467 0.24-0.24 0.68-0.253 0.934-0.013 0.133 0.147 0.199 0.306 0.199 0.481 0 0.173-0.066 0.346-0.186 0.466-0.134 0.133-0.307 0.201-0.481 0.201z"></path>
<path d="M6.439 11.093c-0.159 0-0.333-0.066-0.466-0.187-0.12-0.133-0.201-0.307-0.201-0.48 0-0.187 0.080-0.36 0.201-0.48 0.253-0.24 0.693-0.24 0.947 0 0.12 0.12 0.186 0.293 0.186 0.48 0 0.173-0.066 0.346-0.186 0.467-0.134 0.133-0.307 0.2-0.481 0.2z"></path>
<path d="M6.439 21.947c-0.159 0-0.333-0.081-0.466-0.187-0.133-0.146-0.201-0.306-0.201-0.479s0.080-0.346 0.201-0.481c0.253-0.253 0.706-0.24 0.947 0.013 0.12 0.107 0.186 0.28 0.186 0.467 0 0.173-0.066 0.346-0.186 0.466-0.134 0.12-0.294 0.201-0.481 0.201z"></path>
</svg>
