<!-- Generated by IcoMoon.io -->
<svg version="1.1" xmlns="http://www.w3.org/2000/svg" width="32" height="32" viewBox="0 0 32 32">
<title>time_edit_full</title>
<path d="M7.541 18.090c-0.542-0-0.982-0.44-0.982-0.982v-0c0.001-0.595 0.483-1.078 1.078-1.078h6.336v-6.43c0.001-0.542 0.44-0.982 0.982-0.982h0c0.595 0 1.077 0.483 1.078 1.078v7.365c-0.001 0.568-0.461 1.029-1.030 1.030h-0z"></path>
<path d="M14.332 30.394c-0.005 0-0.010 0-0.016 0-2.268 0-4.412-0.531-6.314-1.477l0.083 0.037c-7.112-3.447-10.097-12.071-6.653-19.224 2.413-5.012 7.247-8.128 12.615-8.128 2.206 0 4.392 0.512 6.499 1.528 3.297 1.588 5.152 3.873 6.127 5.51 0.096 0.159 0.153 0.351 0.153 0.557 0 0.116-0.018 0.228-0.052 0.333l0.002-0.008c-0.094 0.296-0.305 0.531-0.577 0.655l-0.007 0.003c-0.115 0.054-0.25 0.085-0.392 0.085v0c-0.353-0.001-0.661-0.191-0.83-0.474l-0.002-0.004c-2.178-3.662-6.115-6.078-10.616-6.078-6.799 0-12.31 5.512-12.31 12.31 0 4.857 2.813 9.057 6.898 11.060l0.073 0.032c1.553 0.771 3.382 1.222 5.317 1.222 0.003 0 0.005 0 0.008 0h-0c0.62-0.001 1.227-0.048 1.821-0.136l-0.068 0.008c0.042-0.007 0.090-0.010 0.139-0.010 0.001 0 0.002 0 0.002 0h-0c0.001 0 0.002 0 0.003 0 0.451 0 0.831 0.308 0.939 0.725l0.002 0.007c0.022 0.080 0.034 0.173 0.034 0.268 0 0.223-0.069 0.431-0.187 0.601l0.002-0.004c-0.171 0.251-0.44 0.426-0.75 0.469l-0.006 0.001c-0.576 0.081-1.241 0.128-1.917 0.128-0.007 0-0.013 0-0.019 0h0.001z"></path>
<path d="M20.129 20.79c-0.16-0.155-0.259-0.371-0.259-0.611 0-0.234 0.095-0.447 0.249-0.6v0l6.4-6.41c0.442-0.417 1.039-0.673 1.696-0.673 0.627 0 1.199 0.233 1.635 0.618l-0.003-0.002 1.476 1.482c0.917 0.975 0.918 2.458 0 3.376l-6.348 6.348c-0.154 0.154-0.366 0.249-0.601 0.249-0.23 0-0.438-0.091-0.591-0.239l0 0z"></path>
<path d="M17.81 25.868l0.25-3.974c0.021-0.329 0.293-0.587 0.625-0.587 0.173 0 0.329 0.070 0.443 0.183v0l3.891 3.891c0.113 0.113 0.183 0.27 0.183 0.443 0 0.332-0.259 0.604-0.585 0.625l-0.002 0-3.974 0.25c-0.015 0.001-0.032 0.002-0.049 0.002-0.433 0-0.783-0.351-0.783-0.783 0-0.017 0.001-0.034 0.002-0.051l-0 0.002z"></path>
</svg>
