<svg version="1.1" xmlns="http://www.w3.org/2000/svg" width="32" height="32" viewBox="0 0 32 32">
<title>timestamp_save_layout</title>
<path d="M30.3 16.116l-1.803-1.803c-0.081-0.081-0.194-0.131-0.319-0.131h-7.684c-0.25 0-0.45 0.203-0.45 0.45v9.488c0 0.25 0.203 0.45 0.45 0.45 0 0 0 0 0 0h9.488c0 0 0 0 0 0 0.25 0 0.45-0.203 0.45-0.45v-7.684c0-0.125-0.050-0.238-0.131-0.319v0 0zM23.15 15.494c0-0.128 0.103-0.231 0.231-0.231v0h3.712c0.128 0 0.231 0.103 0.231 0.231v0 1.959c0 0.128-0.103 0.231-0.231 0.231v0h-3.712c-0.128 0-0.231-0.103-0.231-0.231v0-1.959zM28.587 23.619h-6.7v-4.216c0-0.231 0.188-0.419 0.419-0.419v0h5.863c0.231 0 0.419 0.188 0.419 0.419v0 4.216z"></path>
<path d="M23.512 30.769h-20.941c-0.341 0-0.616 0.275-0.616 0.616s0.275 0.616 0.616 0.616h20.944c0.341 0 0.616-0.275 0.616-0.616s-0.275-0.616-0.619-0.616z"></path>
<path d="M23.913 26.438l-21.759-0.022c0.112-0.759 0.459-1.459 1.006-2.012 0.691-0.703 1.616-1.087 2.609-1.084h3.2c1.284-0.109 1.853-0.738 2.109-1.244 0.872-1.75-0.659-4.744-1.672-6.409-0.928-1.303-1.050-2.925-0.334-4.341 0.713-1.409 2.084-2.247 3.675-2.247 1.497 0 2.856 0.772 3.641 2.063 0.784 1.294 0.841 2.847 0.163 4.125-0.853 1.387-2.719 4.828-1.713 6.784 0.269 0.522 0.859 1.166 2.213 1.281h1.387c0.009 0 0.019 0 0.028 0s0.019 0 0.025 0h0.072c-0.003-0.003-0.003-0.003-0.006-0.006 0.309-0.047 0.547-0.313 0.547-0.628v0c0-0.353-0.284-0.634-0.634-0.634-0.028 0-0.059 0.003-0.091 0.006l-0.481 0.034h-0.813c-0.881-0.078-1.084-0.472-1.153-0.6-0.484-0.941 0.172-3.131 1.691-5.609 0.903-1.694 0.834-3.706-0.184-5.378-1.016-1.669-2.778-2.666-4.709-2.669-2.059 0-3.834 1.084-4.756 2.906-0.912 1.803-0.744 3.953 0.412 5.575 1.109 1.825 2.109 4.144 1.591 5.181-0.059 0.128-0.25 0.509-1.078 0.581h-3.153c-2.728-0.003-4.909 2.216-4.866 4.944 0.006 0.341 0.284 0.619 0.628 0.619h0.028c0 0 0 0 0 0h0.559v0.003h0.006l0.025 1.55c0.006 0.341 0.284 0.616 0.628 0.616l20.688 0.016c0.056 0 0.116-0.009 0.172-0.022 0.256-0.075 0.438-0.313 0.438-0.591l-0.025-1.547h0.578c-0.003 0-0.006 0-0.012 0 0.006 0 0.009 0 0.016 0 0.059 0 0.116-0.009 0.172-0.022 0.225-0.063 0.394-0.253 0.431-0.488 0.003-0.034 0.006-0.069 0.006-0.106v0c-0.006-0.356-0.050-0.7-0.128-1.031-0.044-0.291-0.303-0.516-0.619-0.516-0.344 0-0.622 0.266-0.628 0.594 0 0.003 0 0.006 0 0.009-0.006 0.087 0.069 0.3 0.072 0.319v0zM23.972 27.053v0zM24.009 27.666v0zM3.344 28.591l-0.016-0.934 19.456 0.019 0.012 0.931-19.453-0.016z"></path>
<path d="M24.541 0c-2.156 0.234-3.953 1.584-4.809 3.453l-0.016 0.038c-0.012 0.019-0.019 0.041-0.025 0.063v0.003c-0.313 0.7-0.497 1.516-0.497 2.375 0 0.003 0 0.003 0 0.006v0c0 0.056 0 0.116 0 0.169 0 0.006 0 0.016 0 0.025s0 0.019 0 0.025v0c0 0 0 0 0 0.003 0 0.028 0.003 0.059 0.009 0.084v-0.003c0.050 0.944 0.309 1.816 0.738 2.581l-0.016-0.031c0.012 0.028 0.028 0.053 0.044 0.078v0c0.944 1.647 2.606 2.791 4.55 2.997l0.025 0.003h1.244c1.969-0.216 3.628-1.356 4.556-2.975l0.016-0.028c0.012-0.019 0.028-0.044 0.041-0.069l0.003-0.003c0.409-0.731 0.669-1.597 0.722-2.519v-0.016c0-0.025 0-0.050 0-0.075s0.003-0.053 0.003-0.078c0-0.056 0-0.116 0-0.169v0c0-0.050 0-0.1 0-0.15-0.019-0.813-0.2-1.578-0.506-2.275l0.016 0.038c-0.009-0.019-0.019-0.041-0.025-0.063-0.881-1.903-2.672-3.25-4.8-3.484l-0.025-0.003h-1.247zM22.119 8.091h-1.441c-0.206-0.419-0.359-0.903-0.438-1.412l-0.003-0.028h1.697c0.034 0.534 0.1 1.028 0.197 1.509l-0.012-0.069zM20.491 4.219h1.55c-0.069 0.425-0.113 0.922-0.125 1.428v0.013h-1.722c0.028-0.525 0.134-1.016 0.309-1.472l-0.012 0.031zM24.541 10.703c-0.334-0.231-0.653-0.641-0.922-1.2-0.066-0.134-0.122-0.275-0.178-0.419h1.1v1.619zM24.541 3.228h-1.25c0.103-0.337 0.216-0.622 0.347-0.897l-0.016 0.038c0.269-0.559 0.587-0.972 0.922-1.2l-0.003 2.059zM24.541 5.659h-1.631c0.016-0.522 0.069-1.019 0.156-1.503l-0.009 0.063h1.488v1.441zM24.541 6.65v1.441h-1.4c-0.097-0.412-0.175-0.906-0.212-1.406l-0.003-0.031h1.616zM25.784 9.084h1.106c-0.056 0.147-0.116 0.287-0.178 0.419-0.269 0.566-0.591 0.978-0.928 1.206v-1.625zM27.188 8.091h-1.403v-1.441h1.616c-0.038 0.534-0.113 1.025-0.225 1.503l0.012-0.063zM25.784 5.659v-1.441h1.494c0.078 0.425 0.131 0.919 0.147 1.425v0.013h-1.641zM25.784 3.228v-2.063c0.334 0.231 0.659 0.637 0.928 1.206 0.116 0.237 0.228 0.522 0.319 0.816l0.012 0.044-1.259-0.003zM22.803 1.766c-0.219 0.419-0.409 0.906-0.547 1.416l-0.012 0.050h-1.256c0.494-0.75 1.159-1.347 1.944-1.744l0.028-0.012c-0.056 0.094-0.109 0.191-0.159 0.287l0.003 0.003zM22.378 9.088c0.131 0.4 0.275 0.741 0.444 1.066l-0.019-0.037c0.053 0.1 0.106 0.194 0.159 0.287-0.653-0.328-1.203-0.772-1.647-1.306l-0.006-0.009h1.069zM27.372 10.391c0.053-0.091 0.106-0.181 0.156-0.278 0.153-0.287 0.297-0.628 0.413-0.981l0.012-0.047h1.053c-0.444 0.541-0.988 0.978-1.606 1.291l-0.028 0.016zM28.212 8.094c0.087-0.416 0.153-0.909 0.184-1.412v-0.028h1.684c-0.078 0.537-0.234 1.022-0.453 1.469l0.012-0.028h-1.428zM28.419 5.662v-0.006c0-0.056-0.003-0.112-0.006-0.166 0-0.028-0.003-0.056-0.003-0.091 0-0.019 0-0.041 0-0.066-0.022-0.378-0.056-0.753-0.116-1.112h1.534c0.159 0.425 0.269 0.916 0.297 1.425v0.013l-1.706 0.003zM28.084 3.228c-0.147-0.559-0.337-1.044-0.575-1.503l0.019 0.041c-0.050-0.097-0.103-0.191-0.156-0.278 0.806 0.409 1.469 1.003 1.947 1.728l0.012 0.019h-1.247v-0.006z"></path>
</svg>
