<!-- Generated by IcoMoon.io -->
<svg version="1.1" xmlns="http://www.w3.org/2000/svg" width="32" height="32" viewBox="0 0 32 32">
<title>timeline</title>
<path d="M15.887 14.744c0.384 0 0.697-0.313 0.697-0.697v-2.266c0-0.384-0.313-0.697-0.697-0.697s-0.697 0.313-0.697 0.697v2.266c0 0.384 0.309 0.697 0.697 0.697z"></path>
<path d="M15.887 22.163c-0.384 0-0.697 0.313-0.697 0.697v2.266c0 0.384 0.313 0.697 0.697 0.697s0.697-0.313 0.697-0.697v-2.266c-0.003-0.384-0.313-0.697-0.697-0.697z"></path>
<path d="M27.816 3.169h-14.787c-0.463 0-0.834 0.375-0.834 0.834v2.981c0 0.463 0.375 0.834 0.834 0.834h2.162v0.697c0 0.384 0.313 0.697 0.697 0.697s0.697-0.313 0.697-0.697v-0.697h11.234c0.462 0 0.834-0.375 0.834-0.834v-2.981c0-0.462-0.375-0.834-0.837-0.834zM27.397 6.566h-13.953v-2.147h13.953v2.147z"></path>
<path d="M20.544 15.863h-12.197c-0.463 0-0.834 0.375-0.834 0.834v2.981c0 0.462 0.375 0.834 0.834 0.834h12.197c0.462 0 0.834-0.375 0.834-0.834v-2.981c0-0.459-0.372-0.834-0.834-0.834zM20.125 19.262h-11.363v-2.147h11.363v2.147z"></path>
<path d="M28.166 0.003h-12.087c-0.059-0.016-0.125-0.025-0.191-0.025s-0.131 0.009-0.191 0.025h-11.891c-2.106 0-3.822 1.716-3.822 3.822v19.678c0 0.003 0 0.003 0 0.006v4.675c0 2.106 1.712 3.819 3.819 3.819h24.359c2.106 0 3.822-1.712 3.819-3.819v-24.359c0.003-2.106-1.709-3.822-3.816-3.822zM30.653 28.184c0 1.369-1.116 2.488-2.488 2.488v0h-11.594c0.006-0.041 0.009-0.081 0.009-0.122v-2.266c0-0.384-0.313-0.697-0.697-0.697s-0.697 0.313-0.697 0.697v0.113c0 0 0 0 0 0v2.15c0 0.041 0.003 0.081 0.009 0.122h-10.928v-17.075h7.872c0.463 0 0.834-0.375 0.834-0.834v-2.072c0-0.463-0.375-0.834-0.834-0.834h-8.15c-0.462 0-0.834 0.375-0.834 0.834v19.894c-1.056-0.288-1.837-1.253-1.837-2.4v-24.356c0-1.372 1.116-2.487 2.487-2.487v0h11.384v0.366c0 0.384 0.313 0.697 0.697 0.697s0.697-0.313 0.697-0.697v-0.366h11.584c1.372 0 2.488 1.116 2.488 2.487v24.359z"></path>
<path d="M27.841 23.547h-7.331c-0.462 0-0.834 0.375-0.834 0.834v2.981c0 0.462 0.375 0.834 0.834 0.834h7.331c0.462 0 0.834-0.375 0.834-0.834v-2.981c0-0.459-0.375-0.834-0.834-0.834zM27.422 26.947h-6.497v-2.147h6.497v2.147z"></path>
<path d="M25.962 15.863h-2.744c-0.462 0-0.834 0.375-0.834 0.834v2.981c0 0.462 0.375 0.834 0.834 0.834h2.744c0.462 0 0.834-0.375 0.834-0.834v-2.981c0.003-0.459-0.372-0.834-0.834-0.834zM25.547 19.262h-1.909v-2.147h1.909v2.147z"></path>
</svg>
