<svg version="1.1" xmlns="http://www.w3.org/2000/svg" width="32" height="32" viewBox="0 0 32 32">
<title>time_watch_clock_wall</title>
<path d="M31.333 32h-30.667c-0.369 0-0.667-0.298-0.667-0.667v-30.667c0-0.369 0.298-0.667 0.667-0.667h30.667c0.369 0 0.667 0.298 0.667 0.667v30.667c0 0.369-0.298 0.667-0.667 0.667zM1.333 30.667h29.333v-29.333h-29.333v29.333z"></path>
<path d="M16.445 17.199c-0.172 0-0.341-0.066-0.47-0.194l-7.713-7.66c-0.261-0.26-0.262-0.682-0.003-0.943 0.262-0.261 0.682-0.262 0.943-0.003l7.352 7.303 4.247-2.426c0.315-0.182 0.725-0.074 0.91 0.248 0.182 0.32 0.072 0.727-0.249 0.909l-4.688 2.679c-0.103 0.059-0.217 0.087-0.331 0.087z"></path>
<path d="M27.064 17.553c-0.97 0-1.76-0.789-1.76-1.76s0.79-1.76 1.76-1.76 1.76 0.79 1.76 1.76-0.79 1.76-1.76 1.76zM27.064 15.367c-0.236 0-0.427 0.191-0.427 0.427s0.191 0.426 0.427 0.426 0.427-0.191 0.427-0.426c0-0.236-0.191-0.427-0.427-0.427z"></path>
<path d="M4.937 17.553c-0.971 0-1.76-0.789-1.76-1.76s0.79-1.76 1.76-1.76c0.97 0 1.76 0.79 1.76 1.76s-0.79 1.76-1.76 1.76zM4.937 15.367c-0.236 0-0.427 0.191-0.427 0.427s0.191 0.426 0.427 0.426c0.235 0 0.426-0.191 0.426-0.426s-0.191-0.427-0.426-0.427z"></path>
<path d="M15.989 6.541c-0.971 0-1.76-0.79-1.76-1.76s0.79-1.76 1.76-1.76 1.76 0.79 1.76 1.76c0 0.971-0.789 1.76-1.76 1.76zM15.989 4.354c-0.236 0-0.427 0.191-0.427 0.426s0.191 0.427 0.427 0.427c0.235 0 0.426-0.191 0.426-0.427s-0.191-0.426-0.426-0.426z"></path>
<path d="M15.989 28.648c-0.971 0-1.76-0.79-1.76-1.76s0.79-1.76 1.76-1.76 1.76 0.79 1.76 1.76-0.789 1.76-1.76 1.76zM15.989 26.461c-0.236 0-0.427 0.191-0.427 0.427s0.191 0.427 0.427 0.427c0.235 0 0.426-0.191 0.426-0.427s-0.191-0.427-0.426-0.427z"></path>
<path d="M10.387 6.96c-0.174 0-0.347-0.080-0.467-0.2-0.133-0.133-0.2-0.294-0.2-0.467s0.066-0.346 0.186-0.467c0.28-0.266 0.693-0.253 0.947-0.013 0.133 0.134 0.2 0.307 0.2 0.48s-0.067 0.333-0.187 0.467c-0.133 0.12-0.307 0.2-0.48 0.2z"></path>
<path d="M10.387 26.053c-0.174 0-0.347-0.066-0.467-0.201-0.12-0.12-0.2-0.293-0.2-0.466s0.079-0.346 0.2-0.467c0.24-0.24 0.68-0.253 0.933-0.013 0.133 0.134 0.201 0.307 0.201 0.481s-0.067 0.346-0.187 0.466c-0.133 0.134-0.307 0.201-0.48 0.201z"></path>
<path d="M21.479 6.893c-0.173 0-0.346-0.067-0.479-0.2-0.12-0.12-0.187-0.294-0.187-0.467s0.068-0.347 0.201-0.467c0.227-0.253 0.68-0.253 0.934-0.013 0.133 0.147 0.199 0.307 0.199 0.48s-0.066 0.333-0.186 0.467c-0.133 0.133-0.306 0.2-0.481 0.2z"></path>
<path d="M21.479 26.12c-0.173 0-0.346-0.079-0.466-0.201-0.133-0.12-0.201-0.293-0.201-0.466s0.068-0.346 0.187-0.481c0.267-0.24 0.707-0.24 0.947 0 0.133 0.134 0.199 0.307 0.199 0.481s-0.066 0.346-0.186 0.466c-0.133 0.121-0.306 0.201-0.481 0.201z"></path>
<path d="M25.56 10.933c-0.16 0-0.333-0.066-0.467-0.186-0.12-0.133-0.186-0.294-0.186-0.481s0.066-0.36 0.201-0.48c0.227-0.24 0.68-0.24 0.934 0.013 0.12 0.12 0.199 0.294 0.199 0.467s-0.079 0.347-0.199 0.467c-0.134 0.133-0.294 0.2-0.481 0.2z"></path>
<path d="M25.56 22.092c-0.173 0-0.346-0.066-0.467-0.186-0.12-0.12-0.186-0.293-0.186-0.481 0-0.173 0.066-0.346 0.186-0.466 0.267-0.253 0.694-0.24 0.934 0 0.134 0.133 0.214 0.293 0.214 0.466 0 0.187-0.079 0.361-0.199 0.481-0.134 0.12-0.294 0.186-0.481 0.186z"></path>
<path d="M6.346 11.040c-0.173 0-0.346-0.080-0.467-0.2-0.133-0.133-0.2-0.294-0.2-0.467s0.067-0.346 0.187-0.467c0.266-0.266 0.693-0.253 0.947-0.013 0.133 0.133 0.2 0.307 0.2 0.48s-0.066 0.333-0.187 0.467c-0.133 0.12-0.307 0.2-0.48 0.2z"></path>
<path d="M6.346 22c-0.173 0-0.333-0.081-0.467-0.201s-0.2-0.293-0.2-0.466c0-0.187 0.080-0.361 0.2-0.481 0.253-0.24 0.693-0.24 0.934 0 0.133 0.134 0.2 0.293 0.2 0.481 0 0.173-0.066 0.346-0.2 0.466-0.12 0.12-0.294 0.201-0.467 0.201z"></path>
</svg>
