<svg version="1.1" xmlns="http://www.w3.org/2000/svg" width="32" height="32" viewBox="0 0 32 32">
<title>timestamp_operations</title>
<path d="M31.941 13.606c-0.028-0.222-0.2-0.391-0.413-0.425h-0.003l-1.262-0.172c-0.094-0.306-0.2-0.563-0.328-0.809l0.012 0.028 0.778-1.041c0.063-0.084 0.1-0.191 0.1-0.306 0-0.113-0.038-0.219-0.097-0.303v0c-0.359-0.481-0.769-0.903-1.225-1.259l-0.016-0.009c-0.081-0.063-0.181-0.1-0.294-0.1s-0.216 0.041-0.297 0.106v0l-1.009 0.8c-0.216-0.116-0.462-0.228-0.725-0.316l-0.034-0.009-0.166-1.3c-0.025-0.222-0.197-0.394-0.409-0.428h-0.003c-0.262-0.041-0.566-0.063-0.875-0.063s-0.609 0.022-0.909 0.069l0.034-0.003c-0.219 0.034-0.384 0.209-0.413 0.425v0.003l-0.166 1.3c-0.297 0.097-0.547 0.209-0.788 0.334l0.025-0.012-1.009-0.8c-0.081-0.066-0.184-0.103-0.297-0.103-0.109 0-0.212 0.037-0.294 0.1v0c-0.469 0.369-0.878 0.787-1.222 1.253l-0.012 0.019c-0.063 0.084-0.1 0.191-0.1 0.303 0 0.116 0.038 0.219 0.1 0.306v0l0.781 1.041c-0.116 0.222-0.222 0.478-0.309 0.75l-0.009 0.034-1.262 0.172c-0.219 0.031-0.387 0.206-0.416 0.422v0.003c-0.038 0.272-0.059 0.581-0.059 0.897s0.022 0.628 0.066 0.934l-0.003-0.034c0.028 0.222 0.2 0.391 0.413 0.425h0.003l1.266 0.172c0.094 0.306 0.203 0.563 0.331 0.813l-0.012-0.028-0.778 1.041c-0.063 0.084-0.103 0.191-0.103 0.306 0 0.113 0.038 0.219 0.1 0.303v0c0.356 0.481 0.766 0.9 1.219 1.259l0.012 0.009c0.081 0.063 0.181 0.1 0.294 0.1s0.216-0.038 0.297-0.103v0l1.009-0.8c0.216 0.119 0.466 0.231 0.728 0.319l0.031 0.009 0.166 1.3c0.025 0.222 0.197 0.397 0.413 0.428h0.003c0.262 0.041 0.566 0.063 0.875 0.063v0c0.309 0 0.609-0.022 0.906-0.066l-0.034 0.003c0.222-0.034 0.387-0.209 0.416-0.425v-0.003l0.166-1.3c0.297-0.097 0.547-0.209 0.784-0.334l-0.025 0.012 1.009 0.8c0.081 0.063 0.184 0.103 0.294 0.103 0.113 0 0.216-0.038 0.297-0.103v0c0.472-0.366 0.881-0.784 1.225-1.25l0.012-0.019c0.059-0.084 0.097-0.188 0.097-0.3 0-0.116-0.038-0.222-0.1-0.306v0l-0.778-1.041c0.113-0.219 0.219-0.475 0.303-0.747l0.009-0.034 1.262-0.172c0.219-0.034 0.387-0.206 0.416-0.422v-0.003c0.038-0.266 0.059-0.572 0.059-0.884 0-0.325-0.022-0.641-0.066-0.953l0.009 0.022zM25.681 17.228c-1.459 0-2.647-1.222-2.647-2.725s1.188-2.725 2.647-2.725c1.462 0 2.647 1.222 2.647 2.725s-1.191 2.725-2.647 2.725z"></path>
<path d="M24.5 27.738h-22.666c-0.369 0-0.666 0.297-0.666 0.666s0.297 0.666 0.666 0.666h22.666c0.369 0 0.666-0.297 0.666-0.666s-0.297-0.666-0.666-0.666z"></path>
<path d="M24.931 23.053l-23.55-0.022c0.122-0.822 0.497-1.578 1.087-2.178 0.747-0.759 1.747-1.178 2.825-1.175h3.466c1.391-0.119 2.006-0.797 2.281-1.347 0.944-1.894-0.713-5.134-1.809-6.938-1.003-1.409-1.137-3.166-0.363-4.697 0.772-1.525 2.256-2.431 3.978-2.431 1.619 0 3.091 0.834 3.941 2.231 0.85 1.4 0.909 3.081 0.175 4.463-0.922 1.503-2.944 5.225-1.853 7.344 0.291 0.566 0.931 1.262 2.394 1.387h1.5c0.009 0 0.022 0 0.031 0s0.019 0 0.028 0h0.078c-0.003-0.003-0.003-0.003-0.006-0.006 0.334-0.050 0.591-0.337 0.591-0.681v0c0-0.381-0.309-0.688-0.688-0.688-0.031 0-0.066 0.003-0.097 0.006l-0.522 0.038h-0.878c-0.953-0.084-1.175-0.509-1.247-0.65-0.525-1.019 0.188-3.387 1.828-6.072 0.978-1.834 0.903-4.009-0.2-5.819-1.1-1.806-3.006-2.884-5.097-2.888-2.228 0-4.15 1.172-5.147 3.147-0.987 1.95-0.806 4.278 0.447 6.034 1.2 1.975 2.281 4.484 1.722 5.606-0.066 0.137-0.272 0.55-1.166 0.628h-3.412c-2.953-0.003-5.313 2.397-5.266 5.347 0.006 0.369 0.309 0.669 0.678 0.669h0.637v0.003h0.006l0.028 1.678c0.006 0.369 0.309 0.666 0.678 0.666l22.387 0.016c0.063 0 0.125-0.009 0.184-0.025 0.278-0.081 0.475-0.337 0.472-0.641l-0.028-1.675h0.625c-0.003 0-0.009 0-0.012 0 0.006 0 0.009 0 0.016 0 0.066 0 0.125-0.009 0.184-0.025 0.244-0.069 0.425-0.275 0.466-0.528 0.003-0.038 0.006-0.075 0.006-0.116v0c-0.006-0.384-0.053-0.756-0.137-1.116-0.047-0.316-0.328-0.559-0.669-0.559-0.372 0-0.672 0.288-0.678 0.644 0 0.003 0 0.006 0 0.009 0 0.106 0.081 0.334 0.084 0.359v0zM24.997 23.719v0zM25.038 24.378v0zM2.672 25.378l-0.016-1.012 21.056 0.019 0.012 1.006-21.053-0.012z"></path>
</svg>
