<!-- Generated by IcoMoon.io -->
<svg version="1.1" xmlns="http://www.w3.org/2000/svg" width="32" height="32" viewBox="0 0 32 32">
<title>time_interval</title>
<path d="M17.36 19.761c-0.574-0.001-1.039-0.466-1.040-1.041v-6.756c0.002-0.6 0.488-1.085 1.088-1.085 0 0 0 0 0 0v0c0.551 0.001 0.997 0.447 0.998 0.998v5.802h5.715c0.598 0.002 1.082 0.486 1.084 1.084v0c0 0.55-0.446 0.996-0.996 0.997v0z"></path>
<path d="M2.356 19.761c-0.55-0.001-0.996-0.447-0.996-0.997v0c0.002-0.598 0.486-1.082 1.084-1.084h9.433c0 0 0 0 0 0 0.6 0 1.086 0.485 1.088 1.084v0c-0.001 0.55-0.447 0.996-0.997 0.997v0z"></path>
<path d="M2.357 14.321c-0.55-0.001-0.996-0.447-0.997-0.997v0c0.002-0.598 0.486-1.083 1.084-1.085h9.433c0 0 0 0 0 0 0.6 0 1.086 0.485 1.088 1.085v0c-0.001 0.551-0.447 0.997-0.998 0.997v0z"></path>
<path d="M2.358 25.201c-0.551 0-0.997-0.447-0.998-0.998v0c0.002-0.598 0.486-1.083 1.084-1.085h9.433c0 0 0 0 0 0 0.6 0 1.086 0.485 1.088 1.085v0c-0.001 0.551-0.447 0.997-0.998 0.998v0z"></path>
<path d="M17.36 32c-0.005 0-0.010 0-0.016 0-2.714 0-5.236-0.818-7.334-2.222l0.048 0.030c-0.255-0.17-0.433-0.438-0.479-0.749l-0.001-0.006c-0.008-0.048-0.012-0.103-0.012-0.16 0-0.264 0.096-0.506 0.255-0.693l-0.001 0.002c0.181-0.215 0.451-0.351 0.752-0.351 0.001 0 0.001 0 0.002 0v0c0.207 0 0.399 0.063 0.558 0.172l-0.003-0.002c1.744 1.188 3.898 1.897 6.217 1.897 0.005 0 0.011 0 0.016 0h-0.001c6.186 0 11.2-5.014 11.2-11.2v0c0-6.175-5.023-11.2-11.2-11.2-0.005 0-0.010 0-0.016 0-2.322 0-4.478 0.711-6.262 1.928l0.039-0.025c-0.154 0.105-0.343 0.168-0.548 0.168v0c-0.001 0-0.001 0-0.002 0-0.298 0-0.565-0.134-0.743-0.346l-0.001-0.001c-0.158-0.185-0.254-0.428-0.254-0.692 0-0.056 0.004-0.111 0.013-0.165l-0.001 0.006c0.048-0.316 0.225-0.584 0.475-0.751l0.004-0.003c1.691-1.136 3.722-1.899 5.912-2.128l0.057-0.005 0.287-0.028v-3.394h-2.995c-0.6-0.002-1.085-0.488-1.085-1.088 0 0 0 0 0 0v0c0.003-0.549 0.448-0.993 0.997-0.994h8.159c0.599 0.002 1.085 0.488 1.085 1.088 0 0 0 0 0 0v0c-0.001 0.55-0.447 0.996-0.997 0.997h-3.082v3.393l0.287 0.026c1.921 0.196 3.671 0.777 5.222 1.667l-0.064-0.034 0.252 0.141 0.96-1.375c0.198-0.281 0.522-0.463 0.888-0.463 0.233 0 0.449 0.074 0.626 0.199l-0.003-0.002c0.26 0.183 0.428 0.481 0.428 0.819 0 0.214-0.068 0.413-0.183 0.576l0.002-0.003-1.016 1.45 0.218 0.188c2.825 2.449 4.602 6.043 4.602 10.053 0 7.315-5.914 13.249-13.221 13.281h-0.003z"></path>
</svg>
