<svg version="1.1" xmlns="http://www.w3.org/2000/svg" width="36" height="32" viewBox="0 0 36 32">
<title>time_zone</title>
<path d="M21.078 29.678c-0.225 0.056-0.453 0.106-0.678 0.147-0.594 0.109-0.984 0.681-0.875 1.275s0.681 0.984 1.275 0.875v0c0.269-0.050 0.541-0.106 0.809-0.175 0.584-0.147 0.941-0.741 0.794-1.328-0.147-0.584-0.741-0.941-1.328-0.794h0.003z"></path>
<path d="M31.134 11.653c0.191 0.572 0.809 0.884 1.381 0.694s0.884-0.809 0.694-1.381v0c-0.087-0.262-0.181-0.522-0.284-0.778-0.203-0.569-0.831-0.863-1.397-0.656-0.569 0.203-0.863 0.831-0.656 1.397 0.009 0.025 0.019 0.047 0.028 0.072 0.081 0.216 0.163 0.434 0.234 0.653z"></path>
<path d="M25.441 28.119c-0.194 0.128-0.391 0.25-0.591 0.366-0.522 0.3-0.703 0.969-0.403 1.491s0.969 0.703 1.491 0.403c0.238-0.137 0.475-0.284 0.706-0.434 0.503-0.331 0.641-1.009 0.309-1.512s-1.009-0.641-1.512-0.313v0 0z"></path>
<path d="M33.888 15.581c-0.025-0.603-0.531-1.072-1.134-1.050-0.603 0.025-1.072 0.531-1.050 1.134 0.009 0.231 0.012 0.463 0.006 0.694-0.012 0.603 0.466 1.103 1.069 1.116s1.103-0.466 1.116-1.069v0c0.009-0.278 0.006-0.556-0.006-0.825z"></path>
<path d="M30.956 24.375c-0.481-0.363-1.166-0.269-1.528 0.212-0.137 0.184-0.284 0.366-0.434 0.544-0.391 0.459-0.334 1.15 0.125 1.541 0.028 0.022 0.053 0.044 0.081 0.063 0.462 0.325 1.094 0.244 1.459-0.184 0.178-0.212 0.353-0.428 0.519-0.65 0.356-0.484 0.259-1.166-0.222-1.525z"></path>
<path d="M32.563 19.659c-0.575-0.181-1.188 0.141-1.369 0.716 0 0 0 0 0 0-0.069 0.219-0.144 0.441-0.228 0.656-0.216 0.563 0.069 1.194 0.631 1.409s1.194-0.069 1.409-0.631c0.097-0.256 0.188-0.522 0.272-0.781 0.178-0.575-0.141-1.188-0.716-1.369z"></path>
<path d="M15.703 29.431c-1.175-0.206-2.316-0.559-3.4-1.056-0.012-0.006-0.025-0.012-0.037-0.019-0.253-0.119-0.506-0.241-0.753-0.372v0c-0.453-0.244-0.894-0.512-1.319-0.806-6.103-4.134-7.7-12.428-3.566-18.531 0.072-0.106 0.144-0.209 0.219-0.313 0.931-1.294 2.081-2.412 3.4-3.306l0.047-0.031c4.691-3.141 10.797-3.188 15.534-0.122l-1.034 1.462c-0.288 0.406-0.106 0.703 0.394 0.659l4.5-0.394c0.4-0.013 0.716-0.347 0.706-0.747-0.003-0.069-0.012-0.134-0.034-0.2l-1.212-4.253c-0.134-0.478-0.481-0.534-0.769-0.128l-1.038 1.462c-3.541-2.325-7.828-3.216-12-2.494-0.428 0.072-0.844 0.159-1.256 0.262h-0.009l-0.047 0.012c-3.609 0.894-6.806 2.987-9.066 5.938-0.019 0.022-0.037 0.044-0.056 0.069-0.075 0.1-0.15 0.2-0.222 0.303-0.119 0.166-0.237 0.338-0.35 0.506-0.013 0.019-0.025 0.041-0.037 0.063-1.853 2.784-2.769 6.084-2.612 9.422 0 0.009 0 0.022 0 0.034 0.016 0.319 0.041 0.656 0.078 0.978 0 0.022 0.006 0.041 0.009 0.063 0.038 0.325 0.084 0.653 0.141 0.981 0.581 3.306 2.197 6.344 4.616 8.672l0.016 0.016h0.006c2.391 2.303 5.416 3.841 8.688 4.412 0.713 0.131 1.4-0.334 1.541-1.047 0.119-0.706-0.356-1.378-1.063-1.497-0.006 0.003-0.009 0.003-0.012 0z"></path>
<path d="M17.994 6.603c-0.488 0-0.884 0.397-0.884 0.884v8.809l8.056 4.159c0.441 0.209 0.969 0.022 1.178-0.419 0.2-0.422 0.041-0.925-0.366-1.15l-7.1-3.675v-7.728c-0.003-0.487-0.397-0.881-0.884-0.881z"></path>
</svg>
