<svg version="1.1" xmlns="http://www.w3.org/2000/svg" width="32" height="32" viewBox="0 0 32 32">
<title>to_back</title>
<path d="M9.733-0.133v10h-0.533v1.333h3.733v-1.333h-1.867v-8.667h19.6v19.467h-8.533v-1.6h-1.333v3.733h1.333v-0.8h9.867v-22.133z"></path>
<path d="M20.8 30.667h-1.333v1.333h2.667v-2.667h-1.333z"></path>
<path d="M9.2 30.667h3.6v1.333h-3.6v-1.333z"></path>
<path d="M14.4 30.667h3.6v1.333h-3.6v-1.333z"></path>
<path d="M4.133 30.667h3.6v1.333h-3.6v-1.333z"></path>
<path d="M1.333 29.333h-1.333v2.667h2.667v-1.333h-1.333z"></path>
<path d="M0 19.067h1.333v3.6h-1.333v-3.6z"></path>
<path d="M0 24.267h1.333v3.6h-1.333v-3.6z"></path>
<path d="M0 14h1.333v3.6h-1.333v-3.6z"></path>
<path d="M0 12.533h1.333v-1.333h1.333v-1.333h-2.667z"></path>
<path d="M4.133 9.867h3.6v1.333h-3.6v-1.333z"></path>
<path d="M14.4 9.867h3.6v1.333h-3.6v-1.333z"></path>
<path d="M20.8 14h1.333v3.6h-1.333v-3.6z"></path>
<path d="M20.8 24.267h1.333v3.6h-1.333v-3.6z"></path>
<path d="M12.267 20.8l8.533-8.533v0.267h1.333v-1.6l3.733-3.733v3.333h1.333v-5.6h-5.733v1.333h3.467l-3.6 3.6h-1.867v1.333h0.533l-8.667 8.667z"></path>
</svg>
