<svg version="1.1" xmlns="http://www.w3.org/2000/svg" width="32" height="32" viewBox="0 0 32 32">
<title>to_do_list_reminder_done</title>
<path d="M20.098 7.969h-8.222c-1.721 0-2.622-1.307-2.622-2.597 0-1.301 0.9-2.619 2.622-2.619h1.023v-0.22c0-1.401 1.179-2.54 2.628-2.54h0.986c1.449 0 2.628 1.139 2.628 2.54v0.22h0.958c1.725 0 2.628 1.313 2.628 2.61 0 0.673-0.234 1.305-0.66 1.779-0.34 0.377-0.956 0.827-1.968 0.827zM11.876 4.086c-1.017 0-1.288 0.808-1.288 1.286 0 0.337 0.115 0.659 0.316 0.882 0.228 0.253 0.555 0.381 0.973 0.381h8.222c0.418 0 0.746-0.13 0.975-0.385 0.203-0.226 0.319-0.549 0.319-0.888 0-0.589-0.339-1.277-1.294-1.277h-1.625c-0.369 0-0.667-0.298-0.667-0.667v-0.887c0-0.665-0.581-1.207-1.294-1.207h-0.986c-0.714 0-1.294 0.542-1.294 1.207v0.887c0 0.369-0.298 0.667-0.667 0.667h-1.689z"></path>
<path d="M27.408 32.070h-22.776c-0.369 0-0.667-0.298-0.667-0.667v-26.77c0-0.369 0.298-0.667 0.667-0.667h2.681c0.369 0 0.667 0.298 0.667 0.667s-0.298 0.667-0.667 0.667h-2.014v25.437h21.443v-25.437h-2.042c-0.369 0-0.667-0.298-0.667-0.667s0.298-0.667 0.667-0.667h2.708c0.369 0 0.667 0.298 0.667 0.667v26.77c0 0.369-0.298 0.667-0.667 0.667z"></path>
<path d="M13.535 25.263c-0.188 0-0.367-0.079-0.493-0.219l-3.395-3.742c-0.247-0.272-0.227-0.694 0.046-0.941s0.695-0.228 0.941 0.046l2.878 3.172 8.279-10.024c0.234-0.285 0.658-0.324 0.939-0.090 0.284 0.235 0.324 0.655 0.090 0.939l-8.769 10.618c-0.124 0.15-0.305 0.237-0.499 0.242-0.005 0-0.011 0-0.016 0z"></path>
<path d="M16.013 3.573c-0.173 0-0.346-0.080-0.467-0.2s-0.186-0.293-0.186-0.467c0-0.186 0.066-0.346 0.186-0.48 0.253-0.253 0.693-0.24 0.947 0 0.12 0.133 0.199 0.307 0.199 0.48 0 0.16-0.079 0.333-0.199 0.467-0.134 0.133-0.294 0.2-0.48 0.2z"></path>
</svg>
