<svg version="1.1" xmlns="http://www.w3.org/2000/svg" width="32" height="32" viewBox="0 0 32 32">
<title>togglechart</title>
<path d="M29.561 30.195h-27.123c-0.368 0-0.667-0.299-0.667-0.667v-27.056c0-0.368 0.299-0.667 0.667-0.667s0.667 0.299 0.667 0.667v26.391h26.457c0.368 0 0.667 0.299 0.667 0.667s-0.299 0.665-0.668 0.665z"></path>
<path d="M25.709 5.869c-2.159 0-3.915 1.756-3.915 3.915 0 1.267 0.613 2.381 1.549 3.097l-3.32 5.519c-0.413-0.148-0.851-0.243-1.315-0.243-0.579 0-1.124 0.135-1.619 0.36l-1.463-2.411c0.777-0.716 1.273-1.732 1.273-2.869 0-2.159-1.756-3.915-3.915-3.915s-3.915 1.756-3.915 3.913c0 1.139 0.497 2.155 1.275 2.871l-1.379 2.369c-0.349-0.103-0.712-0.175-1.093-0.175-2.157 0-3.913 1.755-3.913 3.915s1.756 3.915 3.913 3.915c2.159 0 3.915-1.755 3.915-3.915 0-1.299-0.643-2.443-1.619-3.155l1.291-2.22c0.468 0.199 0.984 0.309 1.524 0.309 0.541 0 1.056-0.111 1.525-0.311l1.473 2.428c-0.732 0.712-1.191 1.703-1.191 2.801 0 2.159 1.755 3.915 3.915 3.915s3.915-1.755 3.915-3.915c0-1.215-0.569-2.289-1.441-3.008l3.348-5.565c0.375 0.119 0.765 0.201 1.179 0.201 2.159 0 3.915-1.756 3.915-3.915s-1.755-3.913-3.913-3.913zM7.876 24.797c-1.423 0-2.58-1.157-2.58-2.581s1.157-2.581 2.58-2.581c1.423 0 2.581 1.157 2.581 2.581s-1.159 2.581-2.581 2.581zM10.405 13.236c0-1.423 1.157-2.581 2.581-2.581s2.581 1.157 2.581 2.581c0 1.423-1.157 2.58-2.581 2.58s-2.581-1.157-2.581-2.58zM18.709 24.651c-1.423 0-2.581-1.157-2.581-2.581 0-1.421 1.157-2.58 2.581-2.58s2.581 1.157 2.581 2.58c-0.001 1.423-1.159 2.581-2.581 2.581zM25.709 12.364c-1.423 0-2.581-1.157-2.581-2.581s1.157-2.581 2.581-2.581 2.581 1.157 2.581 2.581-1.159 2.581-2.581 2.581z"></path>
</svg>
