<svg version="1.1" xmlns="http://www.w3.org/2000/svg" width="32" height="32" viewBox="0 0 32 32">
<title>toggle_columns_subtotal</title>
<path d="M2.8 21.733c0 0 1.2-1.733 1.2-1.733 1.467-2.133 3.067-4.4 4.533-6.533 0.267-0.4 0.267-0.667 0-0.933-1.333-2.4-2.8-4.667-4.267-6.933l-1.2-2h11.867v4.267h-0.667c0-0.133 0-0.267-0.133-0.4-0.133-0.533-0.133-0.933-0.267-1.467-0.4-1.2-1.2-1.733-2.533-1.733h-5.867c0 0 0.4 0.8 0.533 0.933l0.667 1.2c1.2 2 2.4 4 3.733 6 0.133 0.267 0.133 0.267 0 0.533-1.333 1.733-2.533 3.467-3.867 5.2l-1.067 1.467-0.533 0.8h4.8c0.8 0 1.6 0 2.533 0v0c0.933 0 1.6-0.4 2-1.2 0.133-0.4 0.4-0.933 0.4-1.333s0.133-0.4 0.267-0.4c0 0 0.133 0 0.133 0s0 0 0.133 0v4.133h-12.4z"></path>
<path d="M17.067 28.4c0 0 1.2-1.733 1.2-1.733 1.467-2.133 3.067-4.4 4.533-6.533 0.267-0.4 0.267-0.667 0-0.933-1.467-2.267-2.933-4.533-4.267-6.8l-1.2-2.133h11.867v4.267h-0.667c0-0.133 0-0.267-0.133-0.4-0.133-0.533-0.133-0.933-0.267-1.467-0.4-1.2-1.2-1.733-2.533-1.733h-5.867c0 0 0.4 0.8 0.533 0.933l0.8 1.2c1.2 2 2.4 4 3.733 6 0.133 0.267 0.133 0.267 0 0.533-1.333 1.733-2.533 3.467-3.867 5.2l-1.067 1.467-0.533 0.8h4.8c0.8 0 1.6 0 2.533 0v0c0.933 0 1.6-0.4 2-1.2 0.133-0.4 0.4-0.933 0.4-1.333s0.133-0.4 0.267-0.4c0 0 0.133 0 0.133 0s0 0 0.133 0v4.133h-12.533z"></path>
</svg>
