<svg version="1.1" xmlns="http://www.w3.org/2000/svg" width="32" height="32" viewBox="0 0 32 32">
<title>traffic_lights_transport</title>
<path d="M18.035 31.869c-0.369 0-0.667-0.298-0.667-0.667v-3.803c0-0.369 0.298-0.667 0.667-0.667s0.667 0.298 0.667 0.667v3.803c0 0.368-0.298 0.667-0.667 0.667z"></path>
<path d="M13.994 31.869c-0.369 0-0.667-0.298-0.667-0.667v-3.803c0-0.369 0.298-0.667 0.667-0.667s0.667 0.298 0.667 0.667v3.803c0 0.368-0.298 0.667-0.667 0.667z"></path>
<path d="M19.131 28.008h-6.453c-1.625 0-2.947-1.323-2.947-2.948l-0.089-3.686c-3.042-0.818-4.984-2.611-4.984-4.639 0-0.369 0.298-0.667 0.667-0.667h4.105l-0.105-2.77c-3.106-0.802-5.096-2.614-5.096-4.668 0-0.369 0.298-0.667 0.667-0.667h4.203l-0.126-2.735c-2.898-0.846-4.743-2.606-4.743-4.57 0-0.369 0.298-0.667 0.667-0.667h22.172c0.369 0 0.667 0.298 0.667 0.667 0 2.008-1.904 3.787-4.895 4.615l-0.125 2.689h4.353c0.369 0 0.667 0.298 0.667 0.667 0 2.1-2.046 3.92-5.247 4.703l-0.104 2.735h4.255c0.369 0 0.667 0.298 0.667 0.667 0 2.077-1.999 3.879-5.137 4.676l-0.087 3.665c0 1.609-1.323 2.932-2.948 2.932zM6.113 17.401c0.441 1.195 2.033 2.263 4.237 2.776 0.102 0.025 0.196 0.072 0.276 0.138 0.148 0.122 0.333 0.385 0.338 0.578l0.1 4.151c0 0.906 0.724 1.63 1.614 1.63h6.453c0.891 0 1.615-0.724 1.615-1.615l0.1-4.191c0.005-0.187 0.087-0.363 0.228-0.486 0.086-0.075 0.199-0.137 0.311-0.16 2.332-0.493 4.013-1.581 4.464-2.822h-4.16c-0.181 0-0.354-0.074-0.481-0.204-0.125-0.13-0.193-0.306-0.186-0.487l0.147-3.867c0.008-0.188 0.094-0.365 0.238-0.486l0.117-0.098c0.083-0.070 0.184-0.119 0.29-0.141 2.332-0.493 4.013-1.581 4.464-2.821h-4.263c-0.182 0-0.357-0.074-0.482-0.206-0.126-0.131-0.193-0.309-0.184-0.491l0.18-3.88c0.013-0.298 0.224-0.551 0.514-0.619 2.202-0.514 3.793-1.581 4.233-2.775h-20.592c0.434 1.163 1.968 2.215 4.089 2.739 0.286 0.071 0.492 0.322 0.506 0.617l0.181 3.919c0.009 0.182-0.058 0.359-0.184 0.491s-0.3 0.206-0.482 0.206h-4.111c0.44 1.195 2.033 2.262 4.237 2.775 0.102 0.023 0.197 0.071 0.277 0.138l0.206 0.173c0.145 0.121 0.231 0.298 0.238 0.486l0.147 3.84c0.007 0.182-0.060 0.358-0.186 0.488s-0.299 0.204-0.481 0.204h-4.008z"></path>
<path d="M15.905 9.26c-1.867 0-3.386-1.481-3.386-3.299s1.519-3.299 3.386-3.299 3.387 1.481 3.387 3.299-1.519 3.299-3.387 3.299zM15.905 3.995c-1.132 0-2.053 0.882-2.053 1.966s0.921 1.966 2.053 1.966c1.133 0 2.053-0.882 2.053-1.966s-0.921-1.966-2.053-1.966z"></path>
<path d="M15.905 17.262c-1.867 0-3.386-1.481-3.386-3.299s1.519-3.299 3.386-3.299 3.387 1.481 3.387 3.299-1.519 3.299-3.387 3.299zM15.905 11.996c-1.132 0-2.053 0.882-2.053 1.966s0.921 1.966 2.053 1.966c1.133 0 2.053-0.882 2.053-1.966s-0.921-1.966-2.053-1.966z"></path>
<path d="M15.905 25.262c-1.867 0-3.386-1.481-3.386-3.299s1.519-3.299 3.386-3.299 3.387 1.481 3.387 3.299-1.519 3.299-3.387 3.299zM15.905 19.996c-1.132 0-2.053 0.881-2.053 1.966s0.921 1.966 2.053 1.966c1.133 0 2.053-0.881 2.053-1.966s-0.921-1.966-2.053-1.966z"></path>
</svg>
