<svg version="1.1" xmlns="http://www.w3.org/2000/svg" width="32" height="32" viewBox="0 0 32 32">
<title>trash_bin_garbage</title>
<path d="M24.65 32.049v0c-0.369 0-0.667-0.298-0.667-0.667l0.001-11.731c0-0.369 0.298-0.667 0.667-0.667v0c0.369 0 0.667 0.298 0.667 0.667l-0.001 11.731c0 0.369-0.298 0.667-0.667 0.667z"></path>
<path d="M24.651 5.703c-1.573 0-2.617-1.954-2.617-3.247 0-1.443 1.175-2.617 2.617-2.617s2.616 1.174 2.616 2.617c0 1.293-1.043 3.247-2.616 3.247zM24.651 1.173c-0.708 0-1.284 0.575-1.284 1.283 0 0.79 0.664 1.914 1.284 1.914s1.283-1.124 1.283-1.914c0-0.708-0.575-1.283-1.283-1.283z"></path>
<path d="M22.126 32.049c-0.352 0-0.646-0.275-0.665-0.63l-0.769-13.87-0.001-5.297-1.367 0.931c-0.508 0.346-1.126 0.503-1.742 0.441l-4.804-0.498c-0.849-0.117-1.432-0.781-1.441-1.618-0.008-0.835 0.562-1.509 1.387-1.639l4.426-0.503c0.228-0.025 0.441-0.11 0.621-0.244 4.030-3.014 4.172-3.023 4.427-3.039 0.603-0.033 1.173 0.298 1.471 0.878 0.186 0.362 0.629 0.492 0.981 0.492v0c0.443 0 0.827-0.193 0.982-0.492 0.297-0.578 0.871-0.917 1.469-0.878l0.395 0.018c0.733 0.030 0.884 0.042 1.010 0.077 0.090 0.025 0.175 0.070 0.246 0.129 0.316 0.262 1.158 0.959 0.781 11.049-0.008 0.185-0.12 0.421-0.258 0.542-0.214 0.185-0.467 0.202-0.695 0.202l-0.741 13.319c-0.019 0.367-0.325 0.675-0.702 0.629-0.369-0.019-0.65-0.335-0.629-0.702l0.771-13.87c0.009-0.181 0.125-0.419 0.26-0.536 0.208-0.181 0.456-0.221 0.681-0.206 0.228-6.749-0.137-8.736-0.307-9.283-0.137-0.005-0.314-0.012-0.473-0.018l-0.423-0.019c-0.108-0.012-0.186 0.131-0.201 0.158-0.387 0.749-1.216 1.214-2.167 1.214 0 0 0 0-0.001 0-0.949 0-1.779-0.465-2.164-1.214-0.010-0.020-0.053-0.097-0.119-0.136-0.387 0.247-1.546 1.070-3.796 2.753-0.369 0.276-0.807 0.45-1.269 0.502l-4.398 0.499c-0.189 0.030-0.234 0.183-0.233 0.304 0.001 0.102 0.037 0.276 0.268 0.308l4.781 0.495c0.302 0.034 0.605-0.046 0.855-0.215l2.409-1.641c0.204-0.138 0.469-0.154 0.686-0.038 0.219 0.115 0.355 0.342 0.355 0.589v6.521l0.768 13.833c0.021 0.367-0.26 0.682-0.629 0.702-0.012 0.001-0.025 0.001-0.036 0.001z"></path>
<path d="M13.485 31.993h-6.928c-0.333 0-0.615-0.246-0.661-0.577l-1.845-13.523c-0.049-0.365 0.206-0.701 0.571-0.75 0.36-0.064 0.701 0.204 0.751 0.57l1.766 12.947h5.764l1.766-12.947c0.049-0.365 0.38-0.633 0.751-0.57 0.365 0.049 0.62 0.385 0.571 0.75l-1.845 13.523c-0.046 0.331-0.327 0.577-0.661 0.577z"></path>
<path d="M10.795 15.473c-0.048 0-0.098-0.005-0.147-0.016l-1.764-0.397c-0.359-0.081-0.585-0.437-0.504-0.797s0.434-0.585 0.797-0.504l1.764 0.397c0.359 0.081 0.585 0.437 0.504 0.797-0.070 0.31-0.345 0.52-0.65 0.52z"></path>
<path d="M8.803 20.881c-0.144 0-0.29-0.047-0.411-0.143-0.29-0.227-0.339-0.646-0.112-0.936l1.238-1.573c0.228-0.288 0.648-0.34 0.936-0.111 0.29 0.227 0.339 0.646 0.112 0.936l-1.238 1.573c-0.131 0.167-0.327 0.254-0.525 0.254z"></path>
<path d="M10.040 25.801c-0.142 0-0.285-0.046-0.406-0.138l-1.643-1.266c-0.292-0.225-0.346-0.643-0.121-0.935 0.223-0.292 0.643-0.346 0.935-0.122l1.643 1.266c0.292 0.225 0.346 0.643 0.121 0.935-0.131 0.171-0.329 0.26-0.529 0.26z"></path>
</svg>
