<!-- Generated by IcoMoon.io -->
<svg version="1.1" xmlns="http://www.w3.org/2000/svg" width="32" height="32" viewBox="0 0 32 32">
<title>triple_exp</title>
<path d="M18.2 9.4c-1.3 0-2.4-1.1-2.4-2.4s1.1-2.4 2.4-2.4 2.4 1.1 2.4 2.4-1.1 2.4-2.4 2.4z"></path>
<path d="M27.7 23c-0.2 0-0.3-0.1-0.4-0.2-0.6-0.6-1.3-2.1-1.5-2.6-0.1-0.4-0.5-0.6-0.8-0.6-0.1 0-0.3 0.2-0.4 0.4-0.3 0.4-0.7 0.8-1.4 0.8-0.6 0-1.1-0.5-1.3-1v-0.1c-2-6-2.9-8.5-3-8.7-0.6-1.1-0.9-1.1-0.9-1.1-0.2 0-0.4 0.2-1 1.1l-0.1 0.2c-0.5 1-0.9 2.7-1.2 4.4-0.8 3.3-1.3 5.4-2.4 6-0.3 0.2-0.7 0.2-1 0.1-1.4-0.4-2-2-2.5-3.4-0.6-1.5-1-2.5-1.8-2.4-0.2 0-0.8 0-1.5 2.3-0.2 0.8-0.9 1.6-1.8 2-0.1 0-0.2 0-0.2 0-0.1 0.1-0.3 0.1-0.4 0.1-0.3 0-0.6-0.3-0.6-0.6s0.3-0.6 0.6-0.6c0.1 0 0.1-0.1 0.2-0.1 0.5-0.2 1-0.7 1.1-1.2 0.8-2.8 1.8-3.1 2.6-3.1 1.7-0.1 2.3 1.6 2.9 3.2 0.5 1.2 0.9 2.5 1.7 2.7 0 0 0.1 0 0.1 0 0.7-0.4 1.3-3.2 1.8-5.3 0.4-1.7 0.8-3.6 1.4-4.7l0.1-0.2c0.3-0.6 1-1.7 2-1.7 0 0 0 0 0 0 0.7 0 1.4 0.6 1.9 1.7 0.1 0.1 0.3 0.5 3.1 8.9v0.1c0 0.1 0.1 0.2 0.2 0.2s0.3-0.2 0.4-0.4c0.2-0.3 0.5-0.6 0.9-0.8 1-0.3 2 0.4 2.3 1.3 0.2 0.5 0.9 1.8 1.3 2.2 0.2 0.2 0.2 0.6 0 0.8-0.1 0.2-0.2 0.3-0.4 0.3z"></path>
<path d="M28.3 18.3c-0.1 0-0.2 0-0.2-0.1-0.1-0.1-0.4-0.5-0.6-1-0.1-0.2 0-0.4 0.2-0.5s0.4 0 0.5 0.2c0.2 0.5 0.4 0.7 0.4 0.8 0.1 0.1 0.1 0.4 0 0.5s-0.2 0.1-0.3 0.1z"></path>
<path d="M22.6 16.2c-0.1 0-0.1 0 0 0-0.9-0.1-1.3-0.3-1.4-0.6 0-0.1-0.2-0.3-0.5-0.6-0.2-0.1-0.2-0.3-0.1-0.5s0.3-0.2 0.5-0.1c0.3 0.2 0.6 0.5 0.7 0.8 0.1 0 0.3 0.1 0.8 0.2 0.2 0 0.3 0.2 0.3 0.4 0 0.3-0.2 0.4-0.3 0.4zM13.8 16.1c-0.3 0-0.6 0-0.8-0.1-0.2 0-0.3-0.2-0.3-0.4s0.2-0.3 0.4-0.3c0.6 0.1 1.3 0.1 1.9-0.1 0.2-0.1 0.4 0 0.4 0.2 0.1 0.2 0 0.4-0.2 0.4v0c-0.5 0.2-0.9 0.3-1.4 0.3zM24.6 15.9c-0.1 0-0.2-0.1-0.3-0.2-0.1-0.2 0-0.4 0.1-0.5l0.4-0.2c0.7-0.4 1.4-0.4 2 0 0.2 0.1 0.2 0.3 0.1 0.5s-0.3 0.2-0.5 0.1c-0.4-0.3-0.7-0.3-1.2 0l-0.4 0.2c-0.1 0.1-0.1 0.1-0.2 0.1zM11.2 14.9c-0.1 0-0.2 0-0.3-0.1s-0.2-0.2-0.2-0.3c-0.3-0.6-0.6-1-0.9-1.4-0.1-0.1-0.1-0.4 0-0.5s0.4-0.1 0.5 0c0.4 0.4 0.7 1 1 1.5 0 0.1 0.1 0.1 0.2 0.2s0.1 0.4 0 0.5c-0.1 0.1-0.2 0.1-0.3 0.1zM16.9 14.7c-0.1 0-0.2-0.1-0.3-0.2-0.1-0.2 0-0.4 0.1-0.5 0.8-0.5 1.5-0.7 2.2-0.6 0.2 0 0.3 0.2 0.3 0.4s-0.2 0.3-0.4 0.3c-0.6-0.1-1.1 0.1-1.8 0.5 0 0.1 0 0.1-0.1 0.1zM6.3 12.3c-0.1 0-0.2-0.1-0.3-0.1-0.1-0.2-0.1-0.4 0.1-0.5 0.4-0.3 0.8-0.4 1.9-0.4 0.1 0 0.3 0 0.4 0 0.2 0 0.3 0.2 0.3 0.4s-0.2 0.3-0.4 0.3c0 0-0.1 0-0.1 0s-0.1 0-0.1 0c-1 0.1-1.3 0.1-1.6 0.3-0.1 0-0.2 0-0.2 0z"></path>
<path d="M4.1 14.8c-0.1 0-0.2-0.1-0.3-0.2-0.1-0.2-0.1-0.4 0.1-0.5s0.3-0.3 0.4-0.4c0.1-0.1 0.1-0.2 0.2-0.2 0.1-0.1 0.4-0.1 0.5 0s0.1 0.4 0 0.5c0 0-0.1 0.1-0.1 0.1-0.2 0.2-0.3 0.4-0.6 0.5-0.1 0.1-0.1 0.2-0.2 0.2z"></path>
<path d="M27.3 27c-0.1 0-0.2 0-0.2-0.1l-0.7-0.7c-0.1-0.1-0.1-0.4 0-0.5s0.4-0.1 0.5 0l0.7 0.7c0.1 0.1 0.1 0.4 0 0.5s-0.2 0.1-0.3 0.1z"></path>
<path d="M13.5 24.9c-0.2 0-0.3-0.1-0.3-0.3s0.1-0.4 0.2-0.4c0.2-0.1 0.4-0.1 0.7-0.2 0.4-0.2 0.6-0.5 0.8-0.8 0.1-0.2 0.3-0.2 0.5-0.1s0.2 0.3 0.1 0.5c-0.3 0.4-0.6 0.8-1.1 1-0.3 0.1-0.6 0.2-0.9 0.3 0 0 0 0 0 0zM25.4 24.5c-0.1 0-0.2 0-0.3-0.1-0.5-0.6-0.8-0.7-1.3-0.3l-0.4-0.6c0.7-0.6 1.6-0.5 2.3 0.3 0.1 0.1 0.1 0.4 0 0.5-0.1 0.2-0.2 0.2-0.3 0.2zM21.8 23.5c-0.1 0-0.2 0-0.3-0.1-0.1-0.2-0.3-0.3-0.4-0.5-0.2-0.2-0.4-0.5-0.6-0.6-0.2-0.2-0.3-0.3-0.4-0.4s-0.2-0.4 0-0.5c0.1-0.1 0.4-0.2 0.5 0 0.1 0.1 0.3 0.2 0.4 0.4 0.2 0.2 0.4 0.4 0.6 0.7 0.1 0.2 0.3 0.3 0.4 0.5 0.1 0.1 0.1 0.4 0 0.5 0 0-0.1 0-0.2 0zM16.5 22.1c-0.1 0-0.2 0-0.3-0.1s-0.1-0.4 0-0.5c0.4-0.3 0.9-0.6 1.4-0.7 0.2-0.1 0.6-0.1 0.8-0.1s0.4 0.1 0.4 0.3c0 0.2-0.1 0.4-0.3 0.4s-0.4 0-0.6 0.1-0.8 0.3-1.1 0.6c-0.2-0.1-0.2 0-0.3 0z"></path>
<path d="M11.4 24.8c0 0-0.1 0-0.1 0-0.7-0.2-1-0.5-1-0.6-0.3-0.2-0.5-0.5-0.7-0.8-0.1-0.2-0.1-0.4 0.1-0.5s0.4-0.1 0.5 0.1c0.2 0.3 0.4 0.6 0.6 0.7 0 0 0.3 0.2 0.8 0.4 0.2 0.1 0.3 0.3 0.2 0.4-0.1 0.3-0.3 0.3-0.4 0.3z"></path>
<path d="M6.7 22.2c0 0-0.1 0-0.1 0-0.2-0.1-0.3-0.3-0.2-0.5 0.2-0.4 0.5-1 1.3-1.1 0 0 0 0 0 0 0.5 0 0.8 0.2 1.1 0.5 0.1 0.1 0.1 0.4 0 0.5s-0.4 0.1-0.5 0c-0.3-0.3-0.4-0.3-0.6-0.3-0.4 0-0.5 0.2-0.7 0.6-0.1 0.2-0.2 0.3-0.3 0.3z"></path>
<path d="M4.5 24.4c-0.2 0-0.4-0.2-0.4-0.3s0.2-0.3 0.4-0.3c0.1 0 0.5-0.1 0.7-0.2s0.4-0.1 0.5 0.1c0.1 0.2 0.1 0.4-0.1 0.5-0.4 0.1-0.8 0.2-1.1 0.2z"></path>
</svg>
