<!-- Generated by IcoMoon.io -->
<svg version="1.1" xmlns="http://www.w3.org/2000/svg" width="32" height="32" viewBox="0 0 32 32">
<title>turn_360_degrees</title>
<path d="M10.6 11.3c0.8 0.4 1.1 1.2 1.1 2.2 0 0.9-0.3 1.6-1 2.2-0.5 0.4-1.2 0.7-2 0.7-1 0-1.7-0.3-2.3-1-0.2-0.2-0.3-0.4-0.4-0.7s0-0.5 0-0.7c0-0.1 0-0.2 0.1-0.2s0.2-0.1 0.4-0.1h0.3c0.2 0 0.3 0 0.4 0.1s0.1 0.1 0.1 0.3c0.1 0.3 0.2 0.5 0.5 0.7s0.6 0.3 1 0.3c0.5 0 0.9-0.2 1.2-0.6 0.2-0.3 0.3-0.6 0.3-1.1s-0.2-0.9-0.5-1.2c-0.2-0.2-0.6-0.3-1-0.3-0.2 0-0.3 0-0.3-0.1s-0.1-0.2-0.1-0.4v-0.2c0-0.2 0-0.3 0.1-0.4 0-0.1 0.1-0.1 0.3-0.1 0.5 0 0.8-0.1 1-0.4s0.3-0.6 0.3-0.9c0-0.4-0.1-0.7-0.4-1-0.3-0.2-0.6-0.4-1-0.4-0.7 0-1.1 0.3-1.3 1 0 0.1-0.1 0.2-0.1 0.2-0.1 0-0.2 0-0.4 0h-0.2c-0.2 0-0.3 0-0.4-0.1 0 0.1-0.1 0-0.1-0.1 0-0.3 0.1-0.6 0.3-0.9 0.5-0.9 1.3-1.3 2.4-1.3 0.9 0 1.5 0.3 2 0.8s0.7 1.1 0.7 1.8c0 0.8-0.3 1.4-1 1.9z"></path>
<path d="M16.2 10.4c0.2 0 0.4 0 0.5 0 0.7 0 1.3 0.2 1.8 0.7 0.6 0.6 1 1.3 1 2.2s-0.3 1.7-1 2.3c-0.6 0.5-1.3 0.8-2 0.8-0.9 0-1.6-0.3-2.3-1-0.6-0.6-0.9-1.3-0.9-2s0.3-1.5 0.9-2.3l2.8-4c0.1-0.1 0.2-0.2 0.2-0.2s0.1 0 0.2 0c0.1 0 0.2 0.1 0.3 0.2l0.2 0.2c0.1 0.1 0.2 0.2 0.2 0.2s0 0.1 0 0.2c0 0.1-0.1 0.2-0.2 0.3l-1.7 2.4zM16.3 11.6c-0.5 0-0.9 0.2-1.2 0.5s-0.5 0.7-0.5 1.2c0 0.5 0.2 0.9 0.5 1.2s0.7 0.5 1.2 0.5c0.5 0 0.9-0.2 1.2-0.5s0.5-0.8 0.5-1.2c0-0.5-0.2-0.9-0.5-1.2-0.3-0.4-0.7-0.5-1.2-0.5z"></path>
<path d="M23.4 6.8c0.6 0 1.3 0.3 1.8 0.8 0.5 0.4 0.9 1.1 1.1 1.8 0.2 0.6 0.3 1.4 0.3 2.2 0 1.3-0.3 2.4-0.9 3.3-0.3 0.4-0.6 0.8-1 1-0.4 0.3-0.9 0.4-1.3 0.4-0.7 0-1.3-0.3-1.8-0.8-0.5-0.4-0.9-1-1.1-1.8-0.2-0.6-0.3-1.4-0.3-2.2 0-1.3 0.3-2.4 0.9-3.2 0.3-0.4 0.6-0.8 1-1 0.4-0.3 0.8-0.5 1.3-0.5zM23.4 8.1c-0.5 0-1 0.3-1.3 0.9-0.4 0.7-0.6 1.6-0.6 2.6 0 0.9 0.2 1.8 0.6 2.5 0.3 0.6 0.8 0.9 1.3 0.9s1-0.3 1.3-0.9c0.4-0.7 0.6-1.6 0.6-2.6s-0.2-1.9-0.6-2.6c-0.3-0.5-0.8-0.8-1.3-0.8z"></path>
<path d="M29.5 7.9c0 0.663-0.537 1.2-1.2 1.2s-1.2-0.537-1.2-1.2c0-0.663 0.537-1.2 1.2-1.2s1.2 0.537 1.2 1.2z"></path>
<path d="M18.5 23.7c-0.3 0-0.6-0.3-0.7-0.6 0-0.1 0.1-0.2 0.2-0.4 0.1-0.1 0.2-0.2 0.4-0.2 3.8-0.2 7.4-0.9 9.8-2 0.8-0.3 1.2-0.7 1.6-1.1 0.1-0.1 0.2-0.2 0.3-0.4s0.1-0.4 0.1-0.5c0-0.2-0.1-0.3-0.2-0.5l-0.1-0.1-0.2-0.3-0.1-0.1c-0.4-0.4-0.9-0.6-1.6-0.9l-0.5-0.2h-0.1c-0.1 0-0.3-0.2-0.4-0.3s-0.1-0.3 0-0.4c0.1-0.2 0.3-0.4 0.6-0.4 0.1 0 0.1 0 0.1 0v0 0c1.3 0.5 2.2 1.1 2.8 1.7 0.4 0.4 0.6 1 0.6 1.6 0 0.8-0.6 1.6-1.6 2.4-1.7 1.4-6 2.3-11 2.7z"></path>
<path d="M11.7 26.6c-0.1 0-0.2 0-0.3-0.1s-0.1-0.3-0.1-0.4c0-0.2 0.2-0.3 0.2-0.3l2.5-2.2h-0.4c0 0-0.2 0-0.6 0-0.2 0-0.4 0-0.6 0-3.3-0.2-8.4-1.6-10.1-2.7-1-0.7-1.5-1.5-1.5-2.4 0-0.5 0.3-1.1 0.7-1.5 0.5-0.6 2.6-1.6 2.9-1.7 0.1 0 0.1 0 0.1 0 0.3 0 0.4 0.2 0.5 0.4 0.1 0.3 0 0.5-0.3 0.7-1 0.4-1.6 0.7-2.1 1.2l-0.1 0.1c-0.2 0-0.5 0.3-0.5 0.8 0 0.3 0.2 0.5 0.3 0.7 0 0 0.1 0.1 0.1 0.1 0.4 0.4 0.8 0.7 1.6 1.1 2 1 5 1.6 8.4 1.9h1.4l-1.8-2.1c-0.1-0.1-0.1-0.2-0.1-0.4 0-0.1 0-0.2 0.1-0.3s0.2-0.1 0.4-0.1c0.2 0 0.4 0.1 0.4 0.2l2.8 3.3c0.1 0.1 0.1 0.3 0.1 0.4s-0.1 0.2-0.2 0.3l-3.3 2.8c-0.1 0.1-0.3 0.2-0.5 0.2z"></path>
</svg>
