<svg version="1.1" xmlns="http://www.w3.org/2000/svg" width="32" height="32" viewBox="0 0 32 32">
<title>tv_televison_movie_news</title>
<path d="M26.701 16.878c-1.219 0-2.21-0.991-2.21-2.209s0.991-2.21 2.21-2.21 2.21 0.992 2.21 2.21-0.991 2.209-2.21 2.209zM26.701 13.792c-0.483 0-0.876 0.393-0.876 0.876s0.393 0.876 0.876 0.876 0.876-0.393 0.876-0.876-0.393-0.876-0.876-0.876z"></path>
<path d="M20.305 29.333h-15.258c-1.299 0-2.398-1.156-2.398-2.525v-12.411c-0-1.322 1.075-2.398 2.398-2.398h15.258c1.314 0 2.344 1.053 2.344 2.398v12.411c0 1.369-1.073 2.525-2.344 2.525zM5.046 13.333c-0.587 0-1.064 0.477-1.064 1.064v12.411c-0 0.624 0.507 1.191 1.064 1.191h15.258c0.595 0 1.010-0.628 1.010-1.191v-12.411c0-0.607-0.435-1.064-1.010-1.064h-15.258z"></path>
<path d="M28.909 32h-25.784c-1.645 0-3.143-1.548-3.143-3.247v-16.465c-0-1.629 1.41-2.954 3.143-2.954h25.784c1.694 0 3.073 1.325 3.073 2.954v16.465c-0 1.731-1.436 3.247-3.073 3.247zM3.125 10.667c-0.981 0-1.81 0.742-1.81 1.621v16.465c0 0.966 0.897 1.914 1.81 1.914h25.784c0.895 0 1.74-0.93 1.74-1.914v-16.465c-0-0.909-0.764-1.621-1.74-1.621h-25.784z"></path>
<path d="M15.822 10.667c-0.206 0-0.4-0.095-0.526-0.258l-5.266-6.773c-0.227-0.29-0.174-0.709 0.117-0.935 0.29-0.227 0.71-0.174 0.935 0.117l4.74 6.096 4.739-6.096c0.227-0.292 0.645-0.345 0.935-0.117 0.29 0.226 0.344 0.645 0.117 0.935l-5.264 6.773c-0.126 0.163-0.32 0.258-0.527 0.258z"></path>
<path d="M21.891 4.174c-1.092 0-1.981-0.889-1.981-1.981s0.888-1.98 1.981-1.98 1.981 0.888 1.981 1.98-0.888 1.981-1.981 1.981zM21.891 1.547c-0.357 0-0.647 0.29-0.647 0.647s0.29 0.647 0.647 0.647 0.647-0.29 0.647-0.647-0.291-0.647-0.647-0.647z"></path>
<path d="M9.754 4.174c-1.092 0-1.981-0.889-1.981-1.981s0.889-1.98 1.981-1.98 1.98 0.888 1.98 1.98-0.888 1.981-1.98 1.981zM9.754 1.547c-0.357 0-0.647 0.29-0.647 0.647s0.29 0.647 0.647 0.647 0.647-0.291 0.647-0.647-0.29-0.646-0.647-0.646z"></path>
</svg>
