<svg version="1.1" xmlns="http://www.w3.org/2000/svg" width="32" height="32" viewBox="0 0 32 32">
<title>twitter_outline</title>
<path d="M31.765 6.076c-0.121-0.156-0.267-0.232-0.447-0.232-0.111 0-0.237 0.029-0.385 0.088-0.104 0.041-0.572 0.219-0.895 0.341l0.375-0.752c0.185-0.369 0.363-0.725 0.532-1.088 0.177-0.381 0.147-0.672-0.089-0.889-0.109-0.101-0.228-0.151-0.361-0.151-0.163 0-0.339 0.073-0.535 0.16-0.572 0.255-1.149 0.496-1.831 0.777l-0.987 0.411c-0.111 0.048-0.217 0.071-0.323 0.071-0.189 0-0.368-0.075-0.583-0.241-0.323-0.251-0.695-0.484-1.139-0.713-1.043-0.537-2.141-0.811-3.269-0.811-3.469 0-6.335 2.564-6.816 6.099-0.040 0.307-0.055 0.619-0.068 0.932l-0.029 0.528-0.363-0.037c-0.152-0.016-0.297-0.029-0.441-0.055l-0.159-0.028c-0.411-0.067-0.82-0.136-1.223-0.231-3.681-0.861-6.788-2.751-9.229-5.616-0.277-0.327-0.528-0.493-0.743-0.493-0.24 0-0.456 0.201-0.66 0.616-1.061 2.16-1.015 4.341 0.141 6.487 0.032 0.059 0.208 0.368 0.34 0.597l-0.147-0.029c-0.183-0.037-0.337-0.056-0.472-0.056-0.203 0-0.348 0.047-0.439 0.141-0.127 0.129-0.18 0.365-0.168 0.741 0.039 1.331 0.463 2.552 1.253 3.632 0.28 0.38 0.611 0.74 1.021 1.181 0.117 0.129 0.4 0.443 0.4 0.443l-0.059 0.044c-0.501 0.38-0.588 0.555-0.301 1.148 0.265 0.549 0.635 1.261 1.125 1.899 0.783 1.013 1.869 1.753 3.323 2.263l0.12 0.041-0.204 0.161c-0.055 0.044-0.091 0.075-0.136 0.097-1.461 0.792-2.881 1.233-4.344 1.348-0.361 0.028-0.727 0.036-1.091 0.036-0.261 0-1.637-0.024-1.637-0.024-0.379 0-0.599 0.125-0.695 0.396-0.113 0.327-0.011 0.596 0.299 0.781l0.449 0.271c2.587 1.499 5.337 2.353 8.173 2.54 0.499 0.032 0.992 0.049 1.485 0.049 2.897 0 5.532-0.608 7.831-1.808 6.536-3.416 10.024-9.019 10.361-16.648 0.019-0.392 0.169-0.619 0.409-0.857 0.771-0.769 1.584-1.623 2.561-2.689 0.259-0.276 0.283-0.595 0.065-0.871zM10.539 27.679c-0.465 0-0.933-0.017-1.403-0.048-1.976-0.131-3.92-0.613-5.787-1.439 0.101-0.005 0.201-0.012 0.304-0.020 1.644-0.129 3.232-0.619 4.856-1.499 0.105-0.059 0.199-0.123 0.328-0.229l2.019-1.585-2.315-0.809c-1.213-0.424-2.108-1.027-2.735-1.839-0.363-0.471-0.656-1.012-0.856-1.409l0.945-0.713-0.957-1.088-0.436-0.48c-0.32-0.344-0.625-0.673-0.865-1.001-0.524-0.712-0.847-1.503-0.963-2.355l2.411 0.481c0 0-1.665-2.897-1.72-3-0.852-1.58-0.981-3.115-0.396-4.684 2.551 2.8 5.737 4.663 9.471 5.535 0.424 0.1 0.857 0.175 1.288 0.248l0.165 0.029c0.177 0.029 0.352 0.048 0.532 0.065l1.687 0.175 0.105-1.887c0.013-0.28 0.025-0.547 0.059-0.809 0.393-2.893 2.729-4.993 5.552-4.993 0.92 0 1.824 0.224 2.685 0.668 0.372 0.193 0.68 0.384 0.94 0.587 0.441 0.343 0.888 0.509 1.365 0.509 0.273 0 0.548-0.056 0.813-0.168l1.46-0.608-1.649 3.305 1.456-0.549c-0.225 0.231-0.444 0.452-0.659 0.668-0.344 0.341-0.745 0.844-0.783 1.704-0.317 7.144-3.573 12.384-9.679 15.573-2.115 1.104-4.551 1.665-7.24 1.665z"></path>
</svg>
