<!-- Generator: Adobe Illustrator 28.1.0, SVG Export Plug-In . SVG Version: 6.00 Build 0)  -->
<svg version="1.1" id="Capa_1" xmlns="http://www.w3.org/2000/svg" xmlns:xlink="http://www.w3.org/1999/xlink" x="0px" y="0px"
	 viewBox="0 0 20 20" style="enable-background:new 0 0 20 20;" xml:space="preserve">
	<title>ueba</title>
	<desc>ueba, user, entity, behavior, analytics, cybersecurity, line, circle, path, machine, learning, device </desc>
	<path d="M10,20c-0.3,0-0.7-0.1-1-0.3c-0.3-0.2-0.5-0.4-0.7-0.7c-0.2-0.3-0.3-0.6-0.3-1c0-0.3,0.1-0.7,0.2-1V17L7,15.7H6.9
			C6.7,15.9,6.3,16,6,16c-0.3,0-0.5,0-0.8-0.1c-0.2-0.1-0.5-0.2-0.6-0.4c-0.2-0.2-0.3-0.4-0.4-0.6C4.1,14.5,4,14.3,4,14
			c0-0.5,0.2-1,0.6-1.4C5,12.2,5.5,12,6,12c0.3,0,0.7,0.1,1,0.2l0.1,0L8.3,11v-0.1C8.1,10.7,8,10.3,8,10c0-0.3,0.1-0.5,0.2-0.8
			C8.3,9,8.4,8.8,8.6,8.6C8.8,8.4,9,8.3,9.2,8.2C9.5,8.1,9.7,8,10,8c0.5,0,1,0.2,1.4,0.6C11.8,9,12,9.5,12,10c0,0.3,0,0.5-0.1,0.8
			c-0.1,0.2-0.2,0.5-0.4,0.6c-0.2,0.2-0.4,0.3-0.6,0.4C10.5,11.9,10.3,12,10,12c-0.3,0-0.7-0.1-1-0.2l-0.1,0L7.7,13l0,0.1
			C7.9,13.3,8,13.7,8,14c0,0.3-0.1,0.7-0.2,1l0,0.1L9,16.3l0.1,0c0.3-0.2,0.6-0.2,0.9-0.2c0.3,0,0.7,0.1,0.9,0.2l0.1,0l5.3-5.3v-0.1
			c-0.2-0.3-0.2-0.6-0.2-1c0-0.3,0.1-0.7,0.2-0.9l0-0.1L11,3.7H11c-0.3,0.2-0.6,0.2-0.9,0.2c-0.3,0-0.7-0.1-0.9-0.2H9L3.7,9l0,0.1
			C3.9,9.3,4,9.7,4,10c0,0.3,0,0.5-0.1,0.8c-0.1,0.2-0.2,0.5-0.4,0.6c-0.2,0.2-0.4,0.3-0.6,0.4C2.5,11.9,2.3,12,2,12
			c-0.3,0-0.5,0-0.8-0.1c-0.2-0.1-0.5-0.2-0.6-0.4c-0.2-0.2-0.3-0.4-0.4-0.6C0.1,10.5,0,10.3,0,10c0-0.3,0-0.5,0.1-0.8
			C0.2,9,0.4,8.8,0.6,8.6C0.8,8.4,1,8.3,1.2,8.2C1.5,8.1,1.7,8,2,8c0.3,0,0.7,0.1,1,0.2l0.1,0L8.3,3V2.9C8.1,2.6,8,2.3,8,2
			c0-0.3,0.1-0.7,0.3-1C8.5,0.7,8.7,0.4,9,0.3C9.3,0.1,9.7,0,10,0c0.3,0,0.5,0.1,0.8,0.2c0.2,0.1,0.5,0.2,0.6,0.4
			c0.3,0.3,0.5,0.7,0.6,1.1c0.1,0.4,0,0.9-0.2,1.2l0,0.1L17,8.3l0.1,0C17.4,8.1,17.7,8,18,8c0.3,0,0.5,0.1,0.8,0.1s0.5,0.2,0.6,0.4
			C19.8,8.9,20,9.4,20,9.9c0,0.5-0.1,1-0.4,1.3c-0.3,0.4-0.7,0.7-1.2,0.8c-0.5,0.1-1,0-1.4-0.2l-0.1,0L11.7,17l0,0.1
			c0.2,0.4,0.3,0.8,0.2,1.2c-0.1,0.4-0.3,0.8-0.6,1.1c-0.2,0.2-0.4,0.3-0.6,0.4C10.5,19.9,10.3,20,10,20z M10,17
			c-0.2,0-0.3,0-0.5,0.1s-0.3,0.2-0.4,0.3C9.1,17.6,9,17.8,9,17.9c0,0.2,0,0.3,0.1,0.5c0.1,0.2,0.2,0.3,0.3,0.4
			C9.5,18.9,9.6,19,9.8,19c0.2,0,0.3,0,0.5,0c0.2,0,0.3-0.1,0.4-0.2c0.2-0.2,0.3-0.4,0.3-0.7s-0.1-0.5-0.3-0.7
			c-0.1-0.1-0.2-0.2-0.3-0.2C10.3,17,10.1,17,10,17z M6,13c-0.1,0-0.3,0-0.4,0.1c-0.1,0-0.2,0.1-0.3,0.2c-0.1,0.1-0.2,0.2-0.2,0.3
			C5,13.7,5,13.9,5,14c0,0.1,0,0.3,0.1,0.4c0,0.1,0.1,0.2,0.2,0.3c0.1,0.1,0.2,0.2,0.3,0.2C5.7,15,5.9,15,6,15
			c0.3,0,0.5-0.1,0.7-0.3c0.1-0.1,0.2-0.2,0.2-0.3C7,14.3,7,14.1,7,14c0-0.1,0-0.3-0.1-0.4c0-0.1-0.1-0.2-0.2-0.3
			c-0.1-0.1-0.2-0.2-0.3-0.2C6.2,13,6.1,13,6,13z M18,9c-0.3,0-0.5,0.1-0.7,0.3C17.1,9.5,17,9.7,17,10c0,0.3,0.1,0.5,0.3,0.7
			c0.2,0.2,0.4,0.3,0.7,0.2c0.3,0,0.5-0.1,0.7-0.3c0.2-0.2,0.3-0.4,0.3-0.7c0-0.3-0.1-0.5-0.2-0.7C18.5,9.1,18.3,9,18,9z M10,9
			C9.7,9,9.5,9.1,9.3,9.3C9.2,9.4,9.1,9.6,9,9.8c0,0.2,0,0.4,0.1,0.6c0.1,0.2,0.2,0.3,0.4,0.4C9.6,10.9,9.8,11,10,11
			c0.3,0,0.5-0.1,0.7-0.3c0.2-0.2,0.3-0.4,0.3-0.7c0-0.3-0.1-0.5-0.3-0.7C10.5,9.1,10.3,9,10,9z M2,9C1.7,9,1.5,9.1,1.3,9.3
			C1.1,9.5,1,9.7,1,10c0,0.3,0.1,0.5,0.3,0.7C1.5,10.9,1.7,11,2,11c0.1,0,0.3,0,0.4-0.1c0.1,0,0.2-0.1,0.3-0.2
			c0.1-0.1,0.2-0.2,0.2-0.3s0.1-0.3,0.1-0.4c0-0.1,0-0.3-0.1-0.4S2.8,9.4,2.7,9.3C2.6,9.2,2.5,9.1,2.4,9.1C2.3,9,2.1,9,2,9z M10,1
			C9.9,1,9.7,1,9.6,1.1c-0.1,0-0.2,0.1-0.3,0.2C9.2,1.4,9.1,1.6,9,1.8C9,2,9,2.2,9.1,2.4c0.1,0.2,0.2,0.3,0.4,0.4
			C9.6,2.9,9.8,3,10,3c0.2,0,0.4-0.1,0.5-0.2c0.2-0.1,0.3-0.3,0.4-0.4C11,2.2,11,2,11,1.8c0-0.2-0.1-0.4-0.3-0.5
			c-0.1-0.1-0.2-0.2-0.3-0.2C10.3,1,10.1,1,10,1z"/>
</svg>
