<!-- Generator: Adobe Illustrator 28.1.0, SVG Export Plug-In . SVG Version: 6.00 Build 0)  -->
<svg version="1.1" id="Capa_1" xmlns="http://www.w3.org/2000/svg" xmlns:xlink="http://www.w3.org/1999/xlink" x="0px" y="0px"
	 viewBox="0 0 32 32" style="enable-background:new 0 0 32 32;" xml:space="preserve">
	<title>ueba</title>
	<desc>ueba, user, entity, behavior, analytics, cybersecurity, line, circle, path, machine, learning, device </desc>
	<path d="M-90.2,46c-0.6,0-1.1-0.4-1.2-1l-3.1-20.2c-0.1-0.3,0-0.7,0.3-0.9c0.2-0.3,0.5-0.4,0.9-0.4h27.6
	c0.3,0,0.7,0.1,0.9,0.4c0.2,0.3,0.3,0.6,0.3,0.9L-67.6,45c-0.1,0.6-0.6,1-1.2,1H-90.2z M-89.2,43.7h19.5l2.7-17.9H-92L-89.2,43.7
	L-89.2,43.7z M-92.9,22.1l-0.2-1c-0.1-0.3,0-0.7,0.3-0.9c0.2-0.3,0.5-0.4,0.9-0.4h24c0.3,0,0.7,0.1,0.9,0.4c0.2,0.3,0.3,0.6,0.3,0.9
	l-0.2,1H-92.9z M-90.7,18.3l-0.2-1c-0.1-0.3,0-0.7,0.3-0.9c0.2-0.3,0.5-0.4,0.9-0.4h20.3c0.3,0,0.7,0.1,0.9,0.4
	c0.2,0.3,0.3,0.6,0.3,0.9l-0.2,1H-90.7z"/>
<path d="M-23.3,44.8c-1.5,0-2.7,0.9-3.3,2.2h-2.9l-2-6c-0.2-0.4-0.7-0.7-1.1-0.7s-0.9,0.4-1.1,0.7l-3.3,11.1l-3.6-22.2
	c0-0.5-0.4-0.9-0.9-0.9c-0.5,0-1.1,0.4-1.3,0.9l-4.4,17.3h-3.6c-0.7,0-1.1,0.4-1.1,1.1c0,0.7,0.4,1.1,1.1,1.1h4.5
	c0.5,0,1.1-0.4,1.1-0.9l3.3-12.9l3.6,22c0.2,0.5,0.5,0.9,1.1,0.9c0,0,0,0,0.2,0c0.4,0,0.9-0.4,1.1-0.7l3.5-12.4l1.1,3.3
	c0.2,0.4,0.5,0.7,1.1,0.7h3.6c0.4,1.5,1.6,2.2,3.3,2.2c2,0,3.5-1.5,3.5-3.5C-19.8,46.1-21.5,44.8-23.3,44.8z M-23.3,49.3
	c-0.7,0-1.1-0.4-1.1-1.1c0-0.7,0.4-1.1,1.1-1.1c0.7,0,1.1,0.4,1.1,1.1C-22.2,49-22.7,49.3-23.3,49.3z"/>
		<path d="M16,32c-0.5,0-1.1-0.2-1.6-0.5c-0.5-0.3-0.8-0.6-1.1-1.1c-0.3-0.5-0.5-1-0.5-1.6c0-0.5,0.2-1.1,0.3-1.6l0,0l-1.9-2.1H11
			c-0.3,0.3-1,0.5-1.4,0.5c-0.5,0-0.8,0-1.3-0.2c-0.3-0.2-0.8-0.3-1-0.6c-0.3-0.3-0.5-0.6-0.6-1c-0.2-0.6-0.3-1-0.3-1.4
			c0-0.8,0.3-1.6,1-2.2s1.4-1,2.2-1c0.5,0,1.1,0.2,1.6,0.3h0.2l1.9-1.9v-0.2c-0.3-0.3-0.5-1-0.5-1.4c0-0.5,0.2-0.8,0.3-1.3
			c0.2-0.3,0.3-0.6,0.6-1c0.3-0.3,0.6-0.5,1-0.6c0.5-0.2,0.8-0.3,1.3-0.3c0.8,0,1.6,0.3,2.2,1c0.6,0.6,1,1.4,1,2.2
			c0,0.5,0,0.8-0.2,1.3c-0.2,0.3-0.3,0.8-0.6,1c-0.3,0.3-0.6,0.5-1,0.6c-0.6,0.2-1,0.3-1.4,0.3c-0.5,0-1.1-0.2-1.6-0.3h-0.2
			l-1.9,1.9V21c0.3,0.3,0.5,1,0.5,1.4c0,0.5-0.2,1.1-0.3,1.6v0.2l1.9,1.9h0.2c0.5-0.3,1-0.3,1.4-0.3c0.5,0,1.1,0.2,1.4,0.3h0.2
			l8.5-8.5v-0.2c-0.3-0.5-0.3-1-0.3-1.6c0-0.5,0.2-1.1,0.3-1.4v-0.2l-8.5-8.3l0,0c-0.5,0.3-1,0.3-1.4,0.3S15,6.1,14.7,5.9h-0.3
			l-8.5,8.5v0.2c0.3,0.3,0.5,1,0.5,1.4c0,0.5,0,0.8-0.2,1.3c-0.2,0.3-0.3,0.8-0.6,1c-0.3,0.3-0.6,0.5-1,0.6c-0.6,0.2-1,0.3-1.4,0.3
			s-0.8,0-1.3-0.2c-0.3-0.2-0.8-0.3-1-0.6c-0.3-0.3-0.5-0.6-0.6-1C0.2,16.8,0,16.5,0,16c0-0.5,0-0.8,0.2-1.3c0.2-0.3,0.5-0.6,0.8-1
			c0.3-0.3,0.6-0.5,1-0.6c0.5-0.2,0.8-0.3,1.3-0.3s1.1,0.2,1.6,0.3H5l8.3-8.3V4.6c-0.3-0.5-0.5-1-0.5-1.4s0.2-1.1,0.5-1.6
			s0.6-1,1.1-1.1C14.9,0.2,15.5,0,16,0c0.5,0,0.8,0.2,1.3,0.3c0.3,0.2,0.8,0.3,1,0.6c0.5,0.5,0.8,1.1,1,1.8c0.2,0.6,0,1.4-0.3,1.9
			v0.2l8.3,8.5h0.2c0.5-0.3,1-0.5,1.4-0.5c0.5,0,0.8,0.2,1.3,0.2c0.5,0,0.8,0.3,1,0.6c0.6,0.6,1,1.4,1,2.2s-0.2,1.6-0.6,2.1
			c-0.5,0.6-1.1,1.1-1.9,1.3c-0.8,0.2-1.6,0-2.2-0.3H27l-8.3,8.3v0.2c0.3,0.6,0.5,1.3,0.3,1.9c-0.2,0.6-0.5,1.3-1,1.8
			c-0.3,0.3-0.6,0.5-1,0.6C16.8,31.8,16.5,32,16,32z M16,27.2c-0.3,0-0.5,0-0.8,0.2s-0.5,0.3-0.6,0.5c0,0.3-0.2,0.6-0.2,0.8
			c0,0.3,0,0.5,0.2,0.8c0.2,0.3,0.3,0.5,0.5,0.6c0.2,0.2,0.3,0.3,0.6,0.3s0.5,0,0.8,0s0.5-0.2,0.6-0.3c0.3-0.3,0.5-0.6,0.5-1.1
			s-0.2-0.8-0.5-1.1c-0.2-0.2-0.3-0.3-0.5-0.3C16.5,27.2,16.2,27.2,16,27.2z M9.6,20.8c-0.2,0-0.5,0-0.6,0.2c-0.2,0-0.3,0.2-0.5,0.3
			c-0.2,0.2-0.3,0.3-0.3,0.5C8,21.9,8,22.2,8,22.4c0,0.2,0,0.5,0.2,0.6c0,0.2,0.2,0.3,0.3,0.5c0.2,0.2,0.3,0.3,0.5,0.3
			C9.1,24,9.4,24,9.6,24c0.5,0,0.8-0.2,1.1-0.5c0.2-0.2,0.3-0.3,0.3-0.5c0.2-0.2,0.2-0.5,0.2-0.6c0-0.2,0-0.5-0.2-0.6
			c0-0.2-0.2-0.3-0.3-0.5c-0.2-0.2-0.3-0.3-0.5-0.3C9.9,20.8,9.8,20.8,9.6,20.8z M28.8,14.4c-0.5,0-0.8,0.2-1.1,0.5
			c-0.3,0.3-0.5,0.6-0.5,1.1c0,0.5,0.2,0.8,0.5,1.1c0.3,0.3,0.6,0.5,1.1,0.3c0.5,0,0.8-0.2,1.1-0.5c0.3-0.3,0.5-0.6,0.5-1.1
			s-0.2-0.8-0.3-1.1C29.6,14.6,29.3,14.4,28.8,14.4z M16,14.4c-0.5,0-0.8,0.2-1.1,0.5c-0.2,0.2-0.3,0.5-0.5,0.8c0,0.3,0,0.6,0.2,1
			c0.2,0.3,0.3,0.5,0.6,0.6c0.2,0.2,0.5,0.3,0.8,0.3c0.5,0,0.8-0.2,1.1-0.5s0.5-0.6,0.5-1.1c0-0.5-0.2-0.8-0.5-1.1
			S16.5,14.4,16,14.4z M3.2,14.4c-0.5,0-0.8,0.2-1.1,0.5S1.6,15.5,1.6,16c0,0.5,0.2,0.8,0.5,1.1s0.6,0.5,1.1,0.5
			c0.2,0,0.5,0,0.6-0.2c0.2,0,0.3-0.2,0.5-0.3s0.3-0.3,0.3-0.5s0.2-0.5,0.2-0.6c0-0.2,0-0.5-0.2-0.6S4.5,15,4.3,14.9
			c-0.2-0.2-0.3-0.3-0.5-0.3C3.7,14.4,3.4,14.4,3.2,14.4z M16,1.6c-0.2,0-0.5,0-0.6,0.2c-0.2,0-0.3,0.2-0.5,0.3
			c-0.2,0.2-0.3,0.5-0.5,0.8c0,0.3,0,0.6,0.2,1s0.3,0.5,0.6,0.6c0.2,0.2,0.5,0.3,0.8,0.3s0.6-0.2,0.8-0.3c0.3-0.2,0.5-0.5,0.6-0.6
			c0.2-0.3,0.2-0.6,0.2-1s-0.2-0.6-0.5-0.8c-0.2-0.2-0.3-0.3-0.5-0.3C16.5,1.6,16.2,1.6,16,1.6z"/>
</svg>
