<svg version="1.1" xmlns="http://www.w3.org/2000/svg" width="32" height="32" viewBox="0 0 32 32">
<title>unlike_heart_broken_break_love</title>
<path d="M10.5 7l-1.7-1.7c0.6-0.2 1.2-0.3 1.9-0.3 0 0 0 0 0 0 3 0 5 1.8 6.1 3.2 1-1.4 3-3.2 6-3.2 3.8 0 6.9 3.2 6.9 7 0 3.4-1.2 6.5-3.7 9.6-0.2 0.2-0.3 0.4-0.5 0.6l-1.4-1.4c2.2-2.5 3.6-5.4 3.6-8.7 0-2.8-2.2-5.1-4.9-5.1-1.4 0-2.7 0.6-3.8 1.7v0c-0.5 0.5-1 1.1-1.4 1.8v0c-0.2 0.3-0.5 0.5-0.9 0.5s-0.7-0.2-0.9-0.6v0c-0.4-0.6-0.8-1.2-1.3-1.7-1.1-1.1-2.6-1.7-4-1.7zM8.8 5.3v0c-0.1 0-0.1 0 0 0v0zM19.7 24.8c-1 0.8-2 1.5-3 2.2v0c-5.5-3.7-11.1-8.4-11-14.9 0-0.4 0.1-0.8 0.1-1.2v0l-1.5-1.6c-0.3 0.8-0.5 1.8-0.5 2.7v0c0 3.4 1.2 6.5 3.7 9.6 1.2 1.4 3.3 3.7 8.2 7 0.3 0.2 0.7 0.3 1.1 0.3s0.8-0.1 1.1-0.4c1.3-0.9 2.4-1.7 3.3-2.4l-1.5-1.3zM4 3.3c-0.2-0.2-0.5-0.3-0.8-0.3-0.6 0-1 0.4-1 1 0 0.3 0.1 0.5 0.3 0.7l22.9 23c0.2 0.2 0.4 0.3 0.7 0.3 0 0 0 0 0 0 0.6 0 1-0.4 1-1 0-0.3-0.1-0.5-0.3-0.7l-22.8-23zM17.9 28.6c0 0 0 0 0 0s0 0.1 0 0v0z"></path>
</svg>
