<!-- Generated by IcoMoon.io -->
<svg version="1.1" xmlns="http://www.w3.org/2000/svg" width="32" height="32" viewBox="0 0 32 32">
<title>unlink_url_unchain_hyperlink</title>
<path d="M9 11.1h4c0.6 0 1.1-0.5 1.1-1.1s-0.5-1.1-1.1-1.1h-4c-3.9 0-7.1 3.2-7.1 7.1s3.2 7.1 7.1 7.1h4c0.6 0 1.1-0.5 1.1-1.1s-0.5-1.1-1.1-1.1h-4c-2.7 0-4.9-2.2-4.9-4.9s2.2-4.9 4.9-4.9z"></path>
<path d="M23 8.9h-4c-0.6 0-1.1 0.5-1.1 1.1s0.5 1.1 1.1 1.1h4c2.7 0 4.9 2.2 4.9 4.9s-2.2 4.9-4.9 4.9h-4c-0.6 0-1.1 0.5-1.1 1.1s0.5 1.1 1.1 1.1h4c3.9 0 7.1-3.2 7.1-7.1s-3.2-7.1-7.1-7.1z"></path>
</svg>
