<svg version="1.1" xmlns="http://www.w3.org/2000/svg" width="32" height="32" viewBox="0 0 32 32">
<title>unlink_url_unchain_hyperlink</title>
<path d="M10.72 22.668h-3.781c-3.687 0-6.686-2.982-6.686-6.647 0-3.695 2.999-6.686 6.686-6.686h3.781c0.369 0 0.667 0.298 0.667 0.667s-0.298 0.667-0.667 0.667h-3.781c-2.952 0-5.353 2.394-5.353 5.336 0 2.947 2.401 5.331 5.353 5.331h3.781c0.369 0 0.667 0.298 0.667 0.667s-0.298 0.667-0.667 0.667z"></path>
<path d="M25.060 22.668h-3.78c-0.369 0-0.667-0.298-0.667-0.667s0.298-0.667 0.667-0.667h3.78c2.952 0 5.353-2.384 5.353-5.314 0-2.959-2.401-5.353-5.353-5.353h-3.78c-0.369 0-0.667-0.298-0.667-0.667s0.298-0.667 0.667-0.667h3.78c3.686 0 6.686 2.992 6.686 6.669 0 3.682-3 6.664-6.686 6.664z"></path>
<path d="M13.312 8.786c-0.236 0-0.465-0.126-0.586-0.348l-2.366-4.343c-0.176-0.324-0.057-0.729 0.266-0.904 0.325-0.177 0.728-0.057 0.904 0.266l2.366 4.342c0.176 0.324 0.057 0.729-0.266 0.904-0.101 0.055-0.211 0.081-0.318 0.081z"></path>
<path d="M16.023 7.797c-0.369 0-0.667-0.298-0.667-0.667v-4.629c0-0.369 0.298-0.667 0.667-0.667s0.667 0.298 0.667 0.667v4.629c0 0.368-0.298 0.667-0.667 0.667z"></path>
<path d="M18.689 8.786c-0.108 0-0.217-0.026-0.319-0.081-0.323-0.176-0.443-0.581-0.267-0.904l2.366-4.342c0.177-0.324 0.582-0.441 0.905-0.266s0.443 0.581 0.267 0.904l-2.366 4.342c-0.121 0.222-0.35 0.348-0.586 0.348z"></path>
<path d="M10.945 28.845c-0.107 0-0.217-0.026-0.318-0.081-0.324-0.177-0.443-0.582-0.266-0.905l2.366-4.342c0.176-0.322 0.578-0.441 0.904-0.267 0.324 0.177 0.443 0.582 0.266 0.905l-2.366 4.342c-0.121 0.221-0.35 0.348-0.586 0.348z"></path>
<path d="M16.023 30.12c-0.369 0-0.667-0.298-0.667-0.667v-4.629c0-0.369 0.298-0.667 0.667-0.667s0.667 0.298 0.667 0.667v4.629c0 0.369-0.298 0.667-0.667 0.667z"></path>
<path d="M21.055 28.845c-0.236 0-0.465-0.126-0.586-0.348l-2.366-4.342c-0.176-0.323-0.056-0.728 0.267-0.905 0.322-0.175 0.729-0.056 0.905 0.267l2.366 4.342c0.176 0.323 0.056 0.728-0.267 0.905-0.101 0.055-0.211 0.081-0.319 0.081z"></path>
</svg>
