<svg version="1.1" xmlns="http://www.w3.org/2000/svg" width="32" height="32" viewBox="0 0 32 32">
<title>up</title>
<path d="M15.986 27.861c-0.369 0-0.667-0.298-0.667-0.667v-18.299c0-0.369 0.298-0.667 0.667-0.667s0.667 0.298 0.667 0.667v18.299c0 0.369-0.298 0.667-0.667 0.667z"></path>
<path d="M21.757 15.386c-0.172 0-0.344-0.066-0.474-0.197l-5.297-5.346-5.297 5.346c-0.259 0.261-0.681 0.264-0.943 0.004s-0.263-0.681-0.004-0.943l5.771-5.824c0.25-0.253 0.699-0.253 0.947 0l5.771 5.824c0.259 0.262 0.257 0.684-0.005 0.943-0.129 0.129-0.299 0.193-0.469 0.193z"></path>
<path d="M28.13 32h-24.289c-2.126 0-3.856-1.729-3.856-3.855v-24.289c0-2.126 1.73-3.855 3.856-3.855h24.288c2.126 0 3.855 1.73 3.855 3.855v24.289c0 2.126-1.729 3.855-3.855 3.855zM3.842 1.333c-1.391 0-2.523 1.131-2.523 2.522v24.289c0 1.391 1.131 2.522 2.523 2.522h24.288c1.391 0 2.522-1.131 2.522-2.522v-24.289c0-1.391-1.131-2.522-2.522-2.522h-24.289z"></path>
<path d="M25.893 5.333h-19.78c-0.369 0-0.667-0.298-0.667-0.667s0.298-0.667 0.667-0.667h19.78c0.369 0 0.667 0.298 0.667 0.667s-0.298 0.667-0.667 0.667z"></path>
</svg>
