<!-- Generated by IcoMoon.io -->
<svg version="1.1" xmlns="http://www.w3.org/2000/svg" width="32" height="32" viewBox="0 0 32 32">
<title>up_vote_plus_higher</title>
<path d="M26 10.433v16.567c-0.003 0.755-0.283 1.492-0.798 2.047-0.518 0.557-1.235 0.887-2.001 0.89h-14.401c-0.766-0.004-1.483-0.333-2.001-0.89-0.516-0.555-0.795-1.292-0.798-2.047v-16.566c0-0.408 0.081-0.814 0.24-1.19s0.393-0.717 0.691-0.997c0.044-0.042 0.092-0.079 0.143-0.111l8.345-5.95c0.347-0.248 0.814-0.248 1.161-0l8.385 5.977c0.037 0.026 0.072 0.055 0.105 0.086 0.297 0.28 0.531 0.621 0.689 0.996s0.24 0.78 0.24 1.188zM24 10.435c-0-0.144-0.029-0.285-0.083-0.412-0.046-0.108-0.107-0.202-0.179-0.279l-7.738-5.516-7.742 5.52c-0.071 0.076-0.131 0.169-0.176 0.275-0.054 0.127-0.082 0.267-0.083 0.412 0 0 0 0 0 0v16.559c0.002 0.272 0.103 0.52 0.263 0.692 0.158 0.169 0.355 0.25 0.544 0.252h14.385c0.189-0.001 0.386-0.082 0.544-0.252 0.16-0.172 0.262-0.42 0.263-0.692v-16.559z"></path>
<path d="M16.996 15.063c0-0.552-0.448-1-1-1s-1 0.448-1 1v3.629h-3.629c-0.552 0-1 0.448-1 1s0.448 1 1 1h3.629v3.629c0 0.552 0.448 1 1 1s1-0.448 1-1v-3.629h3.629c0.552 0 1-0.448 1-1s-0.448-1-1-1h-3.629v-3.629z"></path>
</svg>
