<svg version="1.1" xmlns="http://www.w3.org/2000/svg" width="32" height="32" viewBox="0 0 32 32">
<title>up_vote_plus_higher</title>
<path d="M16.009 25.62c-0.369 0-0.667-0.298-0.667-0.667v-9.784c0-0.369 0.298-0.667 0.667-0.667s0.667 0.298 0.667 0.667v9.784c0 0.368-0.298 0.667-0.667 0.667z"></path>
<path d="M20.901 20.728h-9.784c-0.369 0-0.667-0.298-0.667-0.667s0.298-0.667 0.667-0.667h9.784c0.369 0 0.667 0.298 0.667 0.667s-0.298 0.667-0.667 0.667z"></path>
<path d="M24.646 31.93h-17.294c-0.369 0-0.667-0.298-0.667-0.667v-21.647c0-0.175 0.068-0.342 0.191-0.467l8.647-8.807c0.251-0.255 0.702-0.257 0.952 0l8.647 8.807c0.122 0.124 0.191 0.292 0.191 0.467v21.648c-0 0.369-0.299 0.667-0.667 0.667zM8.018 30.596h15.961v-20.708l-7.981-8.128-7.98 8.128v20.708z"></path>
</svg>
