<svg version="1.1" xmlns="http://www.w3.org/2000/svg" width="32" height="32" viewBox="0 0 32 32">
<title>upload_file</title>
<path d="M27.384 6.673h-5.333c-0.369 0-0.667-0.298-0.667-0.667v-5.333c0-0.369 0.298-0.667 0.667-0.667s0.667 0.298 0.667 0.667v4.667h4.667c0.369 0 0.667 0.298 0.667 0.667s-0.298 0.667-0.667 0.667z"></path>
<path d="M26.329 32.007h-20.562c-0.946 0-1.716-0.777-1.716-1.733v-28.526c0-0.96 0.77-1.741 1.716-1.741h16.283c0.559 0 0.855 0.292 1.072 0.505l4.417 4.358c0.238 0.236 0.512 0.577 0.512 1.137v24.267c0 0.956-0.772 1.733-1.721 1.733zM22.043 1.331l-16.275 0.009c-0.208 0-0.383 0.187-0.383 0.408v28.526c0 0.216 0.175 0.4 0.383 0.4h20.562c0.211 0 0.388-0.184 0.388-0.4v-24.267c0-0.049 0-0.074-0.116-0.187l-4.417-4.358c-0.037-0.037-0.115-0.113-0.142-0.13z"></path>
<path d="M15.409 26.663c-0.369 0-0.667-0.298-0.667-0.667v-17.255c0-0.369 0.298-0.667 0.667-0.667s0.666 0.298 0.666 0.667v17.255c0 0.368-0.297 0.667-0.666 0.667z"></path>
<path d="M19.823 13.561c-0.164 0-0.328-0.060-0.457-0.181l-3.956-3.723-3.956 3.723c-0.268 0.251-0.689 0.24-0.943-0.029-0.252-0.268-0.24-0.69 0.029-0.943l4.413-4.153c0.257-0.241 0.658-0.241 0.914 0l4.413 4.153c0.268 0.253 0.281 0.675 0.029 0.943-0.132 0.139-0.309 0.21-0.486 0.21z"></path>
</svg>
