<svg version="1.1" xmlns="http://www.w3.org/2000/svg" width="32" height="32" viewBox="0 0 32 32">
<title>upload_cloud_file_sync_backup</title>
<path d="M32 17.8c0 3.7-2.9 6.2-7.2 6.2h-4.8c-0.6 0-1-0.4-1-1s0.4-1 1-1h4.8c2.4 0 5.2-1.1 5.2-4.2 0-2.9-3-4.1-5-4.2-0.5 0-0.9-0.4-0.9-0.9-0.6-4.6-3.8-7.7-8.1-7.7-4 0-6.3 2.7-7 5-0.1 0.4-0.5 0.7-0.9 0.7-3 0.3-6.1 2.1-6.1 5.6 0 3.3 2.8 5.7 6.5 5.7h3.5c0.6 0 1 0.4 1 1s-0.4 1-1 1h-3.5c-4.8 0-8.5-3.3-8.5-7.7 0-3.9 3-6.9 7.3-7.6 1.2-2.9 4.2-5.7 8.7-5.7 5 0 9 3.5 9.9 8.6 3.1 0.5 6.1 2.7 6.1 6.2zM20.7 16.7c0.4-0.4 0.4-1 0-1.4l-4-4c-0.4-0.4-1-0.4-1.4 0l-4 4c-0.4 0.4-0.4 1 0 1.4s1 0.4 1.4 0l2.3-2.3v13.6c0 0.6 0.4 1 1 1s1-0.4 1-1v-13.6l2.3 2.3c0.4 0.4 1 0.4 1.4 0z"></path>
</svg>
