<!-- Generated by IcoMoon.io -->
<svg version="1.1" xmlns="http://www.w3.org/2000/svg" width="32" height="32" viewBox="0 0 32 32">
<title>upload_load_share</title>
<path d="M10.3 8.7c-0.4-0.4-0.4-1 0-1.4l5-5c0.1-0.1 0.2-0.2 0.3-0.2 0.1-0.1 0.3-0.1 0.4-0.1 0 0 0 0 0 0 0.1 0 0.3 0 0.4 0.1 0.1 0 0.2 0.1 0.3 0.2l5 5c0.4 0.4 0.4 1 0 1.4s-1 0.4-1.4 0l-3.3-3.3v14.6c0 0.6-0.4 1-1 1s-1-0.4-1-1v-14.6l-3.3 3.3c-0.4 0.4-1 0.4-1.4 0zM23.5 11h-2.5c-0.6 0-1 0.4-1 1s0.4 1 1 1h2.5c0.8 0 1.5 0.7 1.5 1.5v12c0 0.8-0.7 1.5-1.5 1.5h-15c-0.8 0-1.5-0.7-1.5-1.5v-12c0-0.8 0.7-1.5 1.5-1.5h2.5c0.6 0 1-0.4 1-1s-0.4-1-1-1h-2.5c-1.9 0-3.5 1.6-3.5 3.5v12c0 1.9 1.6 3.5 3.5 3.5h15c1.9 0 3.5-1.6 3.5-3.5v-12c0-1.9-1.6-3.5-3.5-3.5z"></path>
</svg>
