<!-- Generated by IcoMoon.io -->
<svg version="1.1" xmlns="http://www.w3.org/2000/svg" width="32" height="32" viewBox="0 0 32 32">
<title>usb</title>
<path d="M15.332 31.794c-1.869 0-3.39-1.521-3.39-3.389s1.521-3.389 3.39-3.389c1.869 0 3.389 1.521 3.389 3.389s-1.521 3.389-3.389 3.389zM15.332 26.349c-1.134 0-2.057 0.922-2.057 2.056s0.923 2.056 2.057 2.056 2.056-0.922 2.056-2.056-0.922-2.056-2.056-2.056z"></path>
<path d="M15.333 26.349c-0.369 0-0.667-0.298-0.667-0.667v-24.349c0-0.369 0.298-0.667 0.667-0.667s0.667 0.298 0.667 0.667v24.349c0 0.369-0.298 0.667-0.667 0.667z"></path>
<path d="M15.37 17.762c-0.229 0-0.452-0.119-0.576-0.329-0.186-0.318-0.079-0.727 0.239-0.913l8.967-5.248v-2.605c0-0.369 0.298-0.667 0.667-0.667s0.667 0.298 0.667 0.667v2.987c0 0.237-0.125 0.456-0.329 0.575l-9.297 5.441c-0.105 0.061-0.221 0.091-0.336 0.091z"></path>
<path d="M15.316 23.138c-0.131 0-0.263-0.039-0.379-0.119l-9.316-6.454c-0.18-0.125-0.287-0.329-0.287-0.548v-3.342c0-0.369 0.298-0.667 0.667-0.667s0.667 0.298 0.667 0.667v2.993l9.029 6.255c0.303 0.21 0.378 0.625 0.169 0.928-0.13 0.186-0.337 0.287-0.549 0.287z"></path>
<path d="M26 9.333h-2.667c-0.369 0-0.667-0.298-0.667-0.667v-2.667c0-0.369 0.298-0.667 0.667-0.667h2.667c0.369 0 0.667 0.298 0.667 0.667v2.667c0 0.369-0.298 0.667-0.667 0.667zM24 8h1.333v-1.333h-1.333v1.333z"></path>
<path d="M12.599 4.962c-0.147 0-0.296-0.049-0.419-0.148-0.286-0.232-0.33-0.652-0.098-0.938l2.732-3.372c0.127-0.156 0.317-0.247 0.518-0.247v0c0.201 0 0.391 0.091 0.518 0.247l2.732 3.372c0.232 0.286 0.187 0.706-0.099 0.938-0.286 0.229-0.706 0.187-0.937-0.098l-2.214-2.733-2.214 2.733c-0.132 0.162-0.324 0.247-0.519 0.247z"></path>
<path d="M6.015 13.342c-1.119 0-2.028-0.909-2.028-2.028s0.909-2.029 2.028-2.029 2.028 0.91 2.028 2.029-0.909 2.028-2.028 2.028zM6.015 10.619c-0.383 0-0.695 0.312-0.695 0.695s0.312 0.695 0.695 0.695 0.695-0.312 0.695-0.695c0-0.383-0.312-0.695-0.695-0.695z"></path>
</svg>
