<svg version="1.1" xmlns="http://www.w3.org/2000/svg" width="32" height="32" viewBox="0 0 32 32">
<title>usb_connect</title>
<path d="M17.255 26.667h-2.518c-0.813 0-1.404-0.521-1.404-1.237v-3.43c0-0.369 0.298-0.667 0.667-0.667s0.667 0.298 0.667 0.667v3.328c0.019 0.003 0.043 0.005 0.070 0.005h2.518c0.031 0 0.057-0.003 0.078-0.007v-3.327c0-0.369 0.298-0.667 0.667-0.667s0.667 0.298 0.667 0.667v3.43c0 0.716-0.594 1.237-1.411 1.237z"></path>
<path d="M20.667 9.333c-0.369 0-0.667-0.298-0.667-0.667v-7.348c-0.005 0.069-0.079 0.020-0.115 0.014l-7.792 0.001c-0.024 0.006-0.096 0.053-0.116 0.085l0.022 7.249c0 0.369-0.298 0.667-0.667 0.667s-0.667-0.298-0.667-0.667v-7.352c0-0.74 0.767-1.314 1.427-1.314h7.802c0.665 0 1.437 0.574 1.437 1.314v7.352c0 0.369-0.298 0.667-0.667 0.667z"></path>
<path d="M16.634 22.672c-0.679 0-4.077-0.003-4.317-0.043-1.475-0.289-2.984-1.56-2.984-3.19v-10.772c0-0.369 0.298-0.667 0.667-0.667h11.859c0.369 0 0.667 0.298 0.667 0.667l0.001 10.779c0 1.635-1.475 2.902-2.902 3.184-0.069 0.019-0.155 0.043-2.991 0.043zM10.667 9.333v10.105c0 0.902 0.977 1.699 1.89 1.879 0.127 0.004 1.975 0.021 4.077 0.021 1.853 0 2.654-0.013 2.777-0.023 0.835-0.167 1.783-0.934 1.783-1.87l-0.001-10.112h-10.526z"></path>
<path d="M16 31.954c-0.369 0-0.667-0.298-0.667-0.667v-5.288c0-0.369 0.298-0.667 0.667-0.667s0.667 0.298 0.667 0.667v5.288c0 0.369-0.298 0.667-0.667 0.667z"></path>
<path d="M14 6.669c-0.369 0-0.667-0.298-0.667-0.667v-1.276c0-0.369 0.298-0.667 0.667-0.667s0.667 0.298 0.667 0.667v1.276c0 0.368-0.298 0.667-0.667 0.667z"></path>
<path d="M18 6.669c-0.369 0-0.667-0.298-0.667-0.667v-1.276c0-0.369 0.298-0.667 0.667-0.667s0.667 0.298 0.667 0.667v1.276c0 0.368-0.298 0.667-0.667 0.667z"></path>
</svg>
