<!-- Generated by IcoMoon.io -->
<svg version="1.1" xmlns="http://www.w3.org/2000/svg" width="32" height="32" viewBox="0 0 32 32">
<title>use_cases</title>
<path d="M25.4 31c-3.1 0-5.7-2.5-5.7-5.7 0-3.1 2.5-5.7 5.7-5.7 3.1 0 5.7 2.5 5.7 5.7 0 3.1-2.6 5.7-5.7 5.7zM25.4 20.9c-2.4 0-4.4 2-4.4 4.4s2 4.4 4.4 4.4c2.4 0 4.4-2 4.4-4.4s-2-4.4-4.4-4.4z"></path>
<path d="M11.3 19.9h-4.4v-4.7l0.9 0.8c0.3 0.3 0.7 0.3 0.9 0s0.3-0.7 0-0.9l-2-2c0 0-0.1-0.1-0.2-0.1 0 0 0 0-0.1 0s-0.1 0-0.2 0c0 0 0 0-0.1 0s-0.1 0-0.2 0c0 0 0 0 0 0s0 0 0 0c-0.1 0-0.1 0.1-0.2 0.1 0 0 0 0 0 0l-2 2c-0.3 0.3-0.3 0.7 0 0.9 0.1 0.1 0.3 0.2 0.5 0.2s0.3-0.1 0.5-0.2l0.9-0.9v4.7h-4.2c-0.4 0-0.6 0.3-0.6 0.7v9.7c0 0.4 0.3 0.7 0.6 0.7h9.9c0.4 0 0.6-0.3 0.6-0.7v-9.7c0.1-0.3-0.2-0.6-0.6-0.6zM10.7 29.6h-8.7v-8.4h8.6v8.4z"></path>
<path d="M18.2 6.1c0 0 0 0 0 0s0 0 0 0c0-0.1-0.1-0.2-0.1-0.2s0 0 0 0l-2-2c-0.3-0.3-0.7-0.3-0.9 0-0.3 0.3-0.3 0.7 0 0.9l0.8 0.9h-4c-0.3-2.8-2.7-5-5.6-5-3.1 0-5.7 2.5-5.7 5.7 0 3.1 2.5 5.7 5.7 5.7 2.9 0 5.3-2.2 5.6-5h4l-0.9 0.9c-0.3 0.3-0.3 0.7 0 0.9 0.1 0.1 0.3 0.2 0.5 0.2s0.3-0.1 0.5-0.2l2-2c0.1-0.1 0.1-0.1 0.1-0.2 0 0 0 0 0-0.1s0-0.1 0-0.2c0 0 0 0 0-0.1s0-0.2 0-0.2zM6.4 10.7c-2.4 0-4.4-2-4.4-4.4s2-4.4 4.4-4.4 4.4 2 4.4 4.4-2 4.4-4.4 4.4z"></path>
<path d="M31 6.6c0.2-0.1 0.2-0.3 0.2-0.5s-0.1-0.4-0.2-0.5l-5-4c-0.2-0.2-0.6-0.2-0.8 0l-5 4c-0.1 0.1-0.2 0.3-0.2 0.5s0.1 0.4 0.2 0.5l4.7 3.8v6.1l-0.9-0.9c-0.3-0.3-0.7-0.3-0.9 0-0.3 0.3-0.3 0.7 0 0.9l2 2c0.1 0.1 0.1 0.1 0.2 0.1s0.2 0 0.2 0 0.2 0 0.2 0c0 0 0 0 0 0 0.1 0 0.1-0.1 0.2-0.1 0 0 0 0 0 0l2-2c0.3-0.3 0.3-0.7 0-0.9s-0.7-0.3-0.9 0l-0.9 0.9v-6.1l4.9-3.8zM25.6 3l3.9 3.1-3.9 3.1-3.9-3.1 3.9-3.1z"></path>
</svg>
