<svg version="1.1" xmlns="http://www.w3.org/2000/svg" width="32" height="32" viewBox="0 0 32 32">
<title>user_profile_avatar_woman_female</title>
<path d="M15.999 31.801c-8.699 0-15.775-7.077-15.775-15.775s7.077-15.775 15.775-15.775 15.775 7.077 15.775 15.775c0 8.698-7.077 15.775-15.775 15.775zM15.999 1.584c-7.963 0-14.442 6.479-14.442 14.442s6.479 14.441 14.442 14.441c7.963 0 14.442-6.478 14.442-14.441s-6.479-14.442-14.442-14.442z"></path>
<path d="M26.577 27.465c-0.068 0-0.135-0.010-0.203-0.031-1.421-0.454-2.844-0.728-4.099-0.97-2.182-0.419-3.624-0.695-3.941-1.715-0.019-0.064-0.030-0.13-0.030-0.198v-1.755c0-0.367 0.297-0.665 0.664-0.667 2.233-0.007 3.639-0.444 4.381-0.772-1.255-1.9-1.663-6.194-1.74-7.161-0.003-2.906-2.146-5.986-5.61-5.986-3.092 0-5.607 2.661-5.607 5.932-0.079 1.013-0.487 5.314-1.742 7.215 0.74 0.327 2.147 0.766 4.381 0.772 0.367 0.001 0.665 0.299 0.665 0.667v1.755c0 0.068-0.010 0.134-0.030 0.198-0.317 1.018-1.759 1.296-3.941 1.715-1.257 0.242-2.68 0.516-4.101 0.97-0.353 0.109-0.726-0.083-0.838-0.432-0.113-0.35 0.081-0.727 0.432-0.839 1.497-0.478 2.962-0.76 4.255-1.008 1.091-0.211 2.566-0.493 2.89-0.781v-0.926c-3.609-0.146-5.133-1.353-5.201-1.408-0.171-0.139-0.262-0.353-0.243-0.573 0.018-0.219 0.143-0.415 0.335-0.523 0.815-0.464 1.573-3.919 1.807-6.855-0.002-3.953 3.112-7.212 6.939-7.212 4.287 0 6.941 3.771 6.941 7.266 0.233 2.883 0.991 6.34 1.805 6.802 0.191 0.108 0.316 0.305 0.335 0.523 0.018 0.22-0.073 0.434-0.243 0.573-0.066 0.055-1.59 1.262-5.199 1.408v0.937c0.294 0.271 1.788 0.557 2.889 0.769 1.293 0.249 2.758 0.53 4.254 1.008 0.35 0.112 0.544 0.488 0.432 0.839-0.091 0.283-0.353 0.464-0.635 0.464z"></path>
</svg>
