<svg version="1.1" xmlns="http://www.w3.org/2000/svg" width="32" height="32" viewBox="0 0 32 32">
<title>user_profile_successful_check_verified</title>
<path d="M0.641 27.54c-0.369 0-0.667-0.298-0.667-0.667v-1.452c0-0.684 0.404-1.286 1.028-1.536 7.547-2.987 8.834-4.237 9.041-4.626v-0.992c-0.846-0.956-1.508-2.201-1.926-3.628-0.525-0.454-0.875-1.098-0.973-1.801-0.101-0.724 0.065-1.439 0.467-2.040v-2.87c0-3.777 2.38-6.033 6.365-6.033 4.044 0 6.363 2.199 6.363 6.033v2.869c0.404 0.602 0.569 1.319 0.469 2.044-0.098 0.703-0.448 1.346-0.973 1.799-0.419 1.426-1.079 2.671-1.926 3.626v0.983c0.064 0.105 0.259 0.355 0.841 0.763 0.301 0.211 0.375 0.626 0.163 0.928-0.211 0.302-0.626 0.375-0.928 0.163-0.794-0.556-1.233-1.040-1.38-1.526-0.019-0.063-0.029-0.128-0.029-0.193v-1.379c0-0.172 0.066-0.336 0.185-0.461 0.825-0.863 1.464-2.063 1.848-3.469 0.040-0.147 0.13-0.276 0.254-0.366 0.337-0.242 0.565-0.626 0.625-1.053 0.061-0.441-0.059-0.878-0.337-1.229-0.094-0.118-0.145-0.264-0.145-0.414v-3.085c0-3.074-1.74-4.699-5.029-4.699-3.244 0-5.031 1.669-5.031 4.699v3.087c0 0.15-0.051 0.297-0.145 0.415-0.277 0.35-0.397 0.785-0.336 1.225 0.059 0.428 0.287 0.813 0.624 1.056 0.124 0.089 0.214 0.218 0.254 0.366 0.383 1.406 1.023 2.606 1.848 3.469 0.119 0.124 0.185 0.289 0.185 0.461v1.379c0 0.066-0.010 0.131-0.029 0.194-0.282 0.926-1.673 2.309-9.853 5.546-0.111 0.044-0.187 0.164-0.187 0.297v1.452c-0 0.368-0.299 0.666-0.667 0.666z"></path>
<path d="M25.4 31.719c-3.519 0-6.383-2.863-6.383-6.384s2.863-6.384 6.383-6.384c3.521 0 6.384 2.863 6.384 6.384s-2.863 6.384-6.384 6.384zM25.4 20.284c-2.784 0-5.049 2.266-5.049 5.051s2.266 5.051 5.049 5.051c2.785 0 5.051-2.266 5.051-5.051s-2.266-5.051-5.051-5.051z"></path>
<path d="M24.418 28.313c-0.163 0-0.327-0.060-0.456-0.18-0.268-0.251-0.283-0.673-0.031-0.943l3.668-3.921c0.253-0.268 0.673-0.283 0.943-0.031 0.268 0.251 0.283 0.673 0.031 0.943l-3.668 3.921c-0.131 0.141-0.309 0.211-0.487 0.211z"></path>
<path d="M24.418 28.313c-0.178 0-0.355-0.070-0.487-0.211l-1.703-1.82c-0.251-0.269-0.237-0.691 0.031-0.943 0.271-0.25 0.691-0.238 0.943 0.031l1.703 1.82c0.251 0.269 0.237 0.691-0.031 0.943-0.129 0.12-0.293 0.18-0.456 0.18z"></path>
</svg>
