<svg version="1.1" xmlns="http://www.w3.org/2000/svg" width="32" height="32" viewBox="0 0 32 32">
<title>user_profile_remove_delete2</title>
<path d="M25.937 31.792c-0.369 0-0.667-0.298-0.667-0.667v-1.395c0-0.117-0.064-0.225-0.155-0.262-7.751-3.112-9.072-4.448-9.341-5.345-0.018-0.063-0.028-0.126-0.028-0.191v-1.324c0-0.169 0.064-0.333 0.181-0.457 0.777-0.825 1.379-1.975 1.742-3.323 0.039-0.147 0.128-0.276 0.25-0.366 0.313-0.228 0.523-0.59 0.579-0.992 0.059-0.421-0.052-0.836-0.313-1.169-0.092-0.117-0.142-0.262-0.142-0.41v-2.963c0-2.977-1.589-4.487-4.721-4.487-3.046 0-4.723 1.594-4.723 4.487v2.964c0 0.149-0.049 0.294-0.141 0.411-0.26 0.332-0.371 0.746-0.313 1.165 0.056 0.404 0.267 0.767 0.579 0.995 0.122 0.090 0.21 0.219 0.25 0.365 0.362 1.348 0.965 2.497 1.743 3.324 0.116 0.124 0.181 0.288 0.181 0.457v1.323c0 0.065-0.010 0.129-0.028 0.191-0.269 0.896-1.589 2.232-9.339 5.345-0.093 0.038-0.158 0.145-0.158 0.263v1.395c0 0.369-0.298 0.667-0.667 0.667s-0.667-0.298-0.667-0.667v-1.395c0-0.667 0.389-1.255 0.992-1.499 7.115-2.858 8.335-4.053 8.533-4.426v-0.941c-0.799-0.918-1.425-2.112-1.82-3.481-0.495-0.439-0.827-1.057-0.921-1.733-0.097-0.699 0.059-1.391 0.441-1.973v-2.751c0-3.645 2.264-5.82 6.057-5.82 3.848 0 6.055 2.122 6.055 5.82v2.75c0.383 0.583 0.539 1.276 0.441 1.977-0.094 0.676-0.426 1.294-0.922 1.732-0.396 1.369-1.019 2.561-1.818 3.479v0.943c0.198 0.374 1.419 1.568 8.531 4.425 0.592 0.237 0.992 0.84 0.992 1.499v1.395c0 0.369-0.298 0.667-0.667 0.667z"></path>
<path d="M30.672 8.001h-9.333c-0.369 0-0.667-0.298-0.667-0.667s0.298-0.667 0.667-0.667h9.333c0.369 0 0.667 0.298 0.667 0.667s-0.298 0.667-0.667 0.667z"></path>
</svg>
