<svg version="1.1" xmlns="http://www.w3.org/2000/svg" width="32" height="32" viewBox="0 0 32 32">
<title>user_role_admin</title>
<path d="M24.366 31.844v0 0z"></path>
<path d="M31.916 20.572c0-0.012 0-0.022 0-0.034s-0.003-0.025-0.003-0.038c0-0.006 0-0.012-0.003-0.019-0.003-0.012-0.003-0.022-0.006-0.034l-0.003-0.016c-0.016-0.053-0.034-0.106-0.063-0.153l-0.003-0.003-3.316-5.338c-0.012-0.016-0.022-0.031-0.034-0.044l-0.006-0.006c-0.016-0.016-0.031-0.034-0.044-0.050-0.003-0.003-0.012-0.006-0.016-0.016-0.012-0.012-0.025-0.022-0.038-0.034-0.006-0.003-0.012-0.006-0.019-0.016-0.016-0.012-0.031-0.019-0.041-0.025-0.006-0.003-0.012-0.006-0.019-0.012-0.019-0.012-0.034-0.019-0.053-0.025l-0.016-0.006c-0.003 0-0.003-0.003-0.006-0.003-0.019-0.006-0.034-0.012-0.056-0.019l-0.006-0.003c-0.006-0.003-0.019-0.003-0.025-0.006l-0.019-0.012h-0.041c-0.022-0.003-0.041-0.003-0.063-0.003-0.003 0-10.544 0-10.544 0-0.006 0-0.019 0-0.025 0-0.012 0-0.022 0-0.038 0.003-0.012 0-0.022 0.003-0.034 0.003-0.012 0.003-0.022 0.003-0.034 0.006s-0.022 0.003-0.034 0.006c-0.012 0.003-0.025 0.006-0.041 0.016-0.003 0-0.019 0.006-0.019 0.006l-0.006 0.003c-0.019 0.006-0.038 0.019-0.059 0.031-0.003 0.003-0.012 0.006-0.016 0.006-0.016 0.006-0.031 0.019-0.044 0.031-0.003 0.003-0.016 0.012-0.016 0.012-0.016 0.012-0.031 0.022-0.044 0.037-0.003 0.003-0.006 0.006-0.012 0.012-0.034 0.031-0.059 0.069-0.087 0.106v0.003l-3.319 5.334c-0.031 0.050-0.050 0.103-0.063 0.159 0 0.003-0.003 0.006-0.003 0.016-0.003 0.012-0.003 0.022-0.006 0.034 0 0.006-0.003 0.012-0.003 0.022s-0.003 0.019-0.003 0.031 0 0.025-0.003 0.038v0.016c0 0.006 0 0.016 0 0.022s0 0.019 0 0.025c0 0.006 0 0.019 0.003 0.025 0 0.006 0.003 0.016 0.003 0.022v0.003c0.003 0.019 0.006 0.038 0.012 0.053 0 0.006 0.003 0.012 0.003 0.019 0.003 0.012 0.006 0.019 0.012 0.031 0.003 0.006 0.003 0.012 0.006 0.019 0.003 0.012 0.006 0.019 0.012 0.031 0.003 0.006 0.006 0.016 0.006 0.019 0.003 0.006 0.006 0.019 0.016 0.025 0.003 0.006 0.006 0.012 0.012 0.019 0.006 0.016 0.019 0.031 0.031 0.044 0.003 0.006 0.006 0.012 0.012 0.016l8.584 10.766c0.012 0.012 0.019 0.022 0.031 0.034 0.003 0.003 0.006 0.006 0.012 0.006 0.012 0.006 0.019 0.019 0.031 0.025l0.003 0.003c0 0 0.012 0.006 0.012 0.012 0.012 0.006 0.022 0.016 0.031 0.022 0.003 0 0.019 0.016 0.019 0.016l0.003 0.003c0.016 0.006 0.031 0.016 0.044 0.025 0.003 0.003 0.012 0.003 0.019 0.006s0.012 0.006 0.019 0.006l0.006 0.003 0.016 0.003c0.003 0.003 0.012 0.003 0.016 0.003 0.019 0.006 0.038 0.012 0.056 0.016l0.025 0.003c0.006 0 0.019 0.003 0.022 0.003 0.006 0 0.012 0 0.019 0.003h0.016l0.006 0.003h0.053c0.003 0 0.012 0 0.016 0 0.012 0 0.019 0 0.025 0 0.003 0 0.012 0 0.019 0h0.025c0.006 0 0.016-0.003 0.031-0.003 0 0 0.019-0.003 0.022-0.003 0.019-0.003 0.038-0.012 0.056-0.016 0.006-0.003 0.012-0.003 0.019-0.006 0.003 0 0.016-0.003 0.016-0.003 0.006-0.003 0.016-0.006 0.025-0.012 0.003-0.003 0.022-0.012 0.022-0.012l0.006-0.003c0.012-0.003 0.022-0.012 0.034-0.019l0.012-0.006c0.006-0.003 0.012-0.006 0.019-0.012l0.003-0.003c0.006-0.003 0.016-0.012 0.022-0.016 0.006-0.006 0.016-0.012 0.022-0.019 0.003-0.003 0.012-0.012 0.019-0.016 0.006-0.006 0.016-0.016 0.022-0.022 0.003-0.003 0.006-0.006 0.012-0.012l0.003-0.003c0.006-0.006 0.012-0.016 0.019-0.022l0.012-0.012 8.559-10.725c0.034-0.038 0.059-0.081 0.081-0.131v-0.003c0.006-0.012 0.012-0.025 0.016-0.041l0.003-0.006c0.016-0.038 0.022-0.075 0.031-0.116 0-0.003 0-0.012 0.003-0.019 0-0.012 0.003-0.019 0.003-0.031 0-0.006 0-0.016 0-0.022s0-0.016 0-0.022c-0.003-0.006-0.003-0.012-0.003-0.016v0zM27.1 15.875l-1.394 3.337-1.916-3.338h3.309zM24.744 19.978h-4.009l2.006-3.488 2.003 3.488zM21.691 15.875l-1.919 3.337-1.394-3.338h3.313zM17.363 16.594l1.413 3.387h-3.509l2.097-3.387zM15.434 21.194h3.794l2.1 7.391-5.894-7.391zM22.741 29.109l-2.25-7.916h4.5l-2.25 7.916zM24.15 28.584l2.1-7.391h3.794l-5.894 7.391zM26.706 19.978l1.409-3.384 2.097 3.384h-3.506z"></path>
<path d="M19.569 8.319v-2.634c0-3.578-2.225-5.631-6.1-5.631-3.819 0-6.1 2.106-6.1 5.631v2.634c-0.381 0.563-0.541 1.231-0.447 1.906 0.091 0.669 0.428 1.278 0.934 1.706 0.4 1.316 1.028 2.463 1.831 3.347v0.878c-0.209 0.359-1.459 1.509-8.597 4.25-0.603 0.231-1.006 0.822-1.006 1.469v3.188c0 0.869 0.703 1.575 1.566 1.575h14.009c0.369 0 0.659-0.3 0.659-0.669s-0.297-0.666-0.666-0.666h-14.009c-0.128 0-0.234-0.109-0.234-0.241v-3.191c0-0.1 0.063-0.191 0.153-0.225 7.816-3 9.15-4.291 9.422-5.159 0.022-0.066 0.031-0.131 0.031-0.2v-1.275c0-0.175-0.069-0.344-0.191-0.469-0.781-0.794-1.387-1.894-1.75-3.188-0.041-0.147-0.134-0.278-0.259-0.366-0.313-0.219-0.522-0.566-0.575-0.947-0.053-0.387 0.056-0.772 0.309-1.081 0.097-0.119 0.15-0.269 0.15-0.422v-2.856c0-2.772 1.694-4.297 4.769-4.297 3.163 0 4.766 1.444 4.766 4.297v2.856c0 0.153 0.053 0.303 0.15 0.422 0.253 0.309 0.363 0.694 0.309 1.081-0.053 0.384-0.266 0.728-0.578 0.947-0.125 0.088-0.219 0.219-0.259 0.366-0.097 0.347-0.212 0.678-0.344 0.997v0l-0.131 0.303-0.209 0.484c-0.069 0.159-0.069 0.331-0.016 0.481 0.059 0.169 0.191 0.313 0.369 0.391 0.337 0.147 0.728-0.009 0.875-0.347l0.259-0.6 0.053-0.119 0.028-0.063c0.128-0.306 0.244-0.625 0.344-0.953 0.506-0.428 0.844-1.037 0.938-1.703 0.087-0.678-0.072-1.347-0.453-1.909z"></path>
</svg>
