<!-- Generated by IcoMoon.io -->
<svg version="1.1" xmlns="http://www.w3.org/2000/svg" width="32" height="32" viewBox="0 0 32 32">
<title>user_connections</title>
<path d="M0.873 22.617c-0.367 0-0.664-0.297-0.664-0.664v-1.241c0-0.625 0.371-1.176 0.945-1.401 6.396-2.509 7.544-3.564 7.743-3.896v-0.784c-0.724-0.819-1.291-1.876-1.651-3.085-0.46-0.401-0.765-0.968-0.851-1.584-0.088-0.632 0.055-1.257 0.403-1.785v-2.423c0-3.288 2.087-5.252 5.581-5.252 3.545 0 5.579 1.915 5.579 5.252v2.423c0.349 0.529 0.492 1.155 0.404 1.788-0.085 0.617-0.392 1.183-0.851 1.584-0.361 1.208-0.927 2.265-1.648 3.083v0.776c0.059 0.087 0.227 0.283 0.684 0.6 0.301 0.209 0.376 0.623 0.168 0.924s-0.623 0.375-0.924 0.168c-0.703-0.487-1.093-0.917-1.228-1.355-0.020-0.063-0.029-0.128-0.029-0.195v-1.179c0-0.172 0.067-0.337 0.187-0.46 0.701-0.728 1.244-1.74 1.571-2.927 0.040-0.147 0.131-0.276 0.255-0.364 0.271-0.193 0.453-0.499 0.501-0.839 0.048-0.349-0.048-0.695-0.271-0.973-0.095-0.119-0.145-0.264-0.145-0.415v-2.64c0-2.603-1.429-3.923-4.251-3.923-2.781 0-4.252 1.356-4.252 3.923v2.639c0 0.151-0.051 0.297-0.145 0.415-0.224 0.279-0.32 0.623-0.272 0.972 0.048 0.34 0.229 0.647 0.501 0.84 0.123 0.088 0.213 0.217 0.253 0.364 0.327 1.185 0.871 2.199 1.572 2.925 0.12 0.124 0.187 0.289 0.187 0.461v1.179c0 0.067-0.009 0.132-0.029 0.195-0.263 0.853-1.48 2.025-8.556 4.801-0.061 0.024-0.103 0.091-0.103 0.165v1.241c0 0.369-0.297 0.667-0.664 0.667z"></path>
<path d="M23.253 26.868h-3.749c-0.368 0-0.667-0.299-0.667-0.667s0.299-0.667 0.667-0.667h3.749c1.803 0 3.268-1.424 3.268-3.175s-1.467-3.176-3.268-3.176h-4.928c-1.788 0-3.355 1.497-3.355 3.204 0 1.26 0.688 2.396 1.752 2.891 0.333 0.155 0.477 0.551 0.323 0.885-0.155 0.333-0.553 0.477-0.885 0.323-1.532-0.712-2.523-2.321-2.523-4.099 0-2.46 2.147-4.537 4.688-4.537h4.928c2.537 0 4.601 2.023 4.601 4.509 0 2.485-2.063 4.508-4.601 4.508z"></path>
<path d="M27.109 30.709h-4.929c-2.537 0-4.601-2.023-4.601-4.508s2.064-4.508 4.601-4.508h3.729c0.368 0 0.667 0.299 0.667 0.667s-0.299 0.667-0.667 0.667h-3.729c-1.803 0-3.268 1.424-3.268 3.175s1.467 3.175 3.268 3.175h4.929c1.815 0 3.349-1.433 3.349-3.132 0-1.255-0.692-2.343-1.804-2.839-0.337-0.151-0.488-0.544-0.339-0.88 0.149-0.337 0.548-0.487 0.88-0.339 1.601 0.713 2.595 2.268 2.595 4.057 0.001 2.42-2.144 4.465-4.681 4.465z"></path>
</svg>
