<!-- Generated by IcoMoon.io -->
<svg version="1.1" xmlns="http://www.w3.org/2000/svg" width="32" height="32" viewBox="0 0 32 32">
<title>user_profile_security_password_permissions</title>
<path d="M15.676 31.131c-0.267 0-0.509-0.16-0.614-0.406l-0.602-1.421c-0.106-0.25-0.049-0.54 0.143-0.732l8.009-8.009c-0.428-1.621 0.033-3.376 1.229-4.573 1.796-1.796 4.926-1.795 6.719 0 1.852 1.853 1.852 4.866 0 6.717-1.259 1.26-3.181 1.707-4.878 1.139l-1.658 1.658c-0.129 0.129-0.297 0.206-0.487 0.195l-1.678-0.040-0.329 2.349c-0.039 0.281-0.254 0.508-0.533 0.563l-1.893 0.369-0.428 1.611c-0.075 0.283-0.327 0.483-0.62 0.495l-2.356 0.086c-0.008-0-0.016-0-0.024-0zM15.863 29.198l0.247 0.583 1.404-0.051 0.409-1.536c0.066-0.246 0.267-0.434 0.517-0.483l1.836-0.358 0.345-2.466c0.047-0.335 0.361-0.575 0.676-0.574l1.987 0.048 1.764-1.764c0.195-0.197 0.491-0.25 0.746-0.137 1.267 0.573 2.839 0.292 3.823-0.694 1.332-1.332 1.332-3.5 0-4.832-1.292-1.292-3.542-1.292-4.833 0-0.935 0.935-1.245 2.342-0.789 3.587 0.089 0.243 0.029 0.517-0.155 0.701l-7.976 7.977z"></path>
<path d="M14.003 26.638h-12.36c-0.865 0-1.568-0.706-1.568-1.574v-3.19c0-0.647 0.404-1.237 1.006-1.47 7.137-2.74 8.388-3.889 8.597-4.25v-0.877c-0.802-0.883-1.43-2.031-1.83-3.346-0.507-0.43-0.843-1.039-0.935-1.705-0.094-0.676 0.064-1.344 0.447-1.906v-2.635c0-3.526 2.281-5.631 6.1-5.631 3.876 0 6.099 2.052 6.099 5.631v2.635c0.383 0.563 0.542 1.232 0.448 1.909-0.092 0.666-0.43 1.274-0.936 1.703-0.401 1.316-1.029 2.463-1.829 3.345v0.853c0.32 0.404 2.142 1.742 3.447 2.427 0.325 0.171 0.452 0.574 0.28 0.9-0.171 0.327-0.577 0.449-0.9 0.28-0.788-0.413-3.822-2.276-4.129-3.249-0.021-0.065-0.031-0.133-0.031-0.201v-1.276c0-0.175 0.069-0.343 0.191-0.468 0.78-0.791 1.385-1.893 1.75-3.187 0.042-0.148 0.134-0.277 0.26-0.366 0.314-0.218 0.523-0.563 0.577-0.945 0.053-0.388-0.056-0.772-0.31-1.083-0.098-0.119-0.151-0.268-0.151-0.422v-2.855c0-2.852-1.603-4.297-4.766-4.297-3.074 0-4.767 1.526-4.767 4.297v2.856c0 0.154-0.053 0.303-0.15 0.422-0.253 0.31-0.363 0.693-0.31 1.081 0.053 0.382 0.263 0.727 0.576 0.947 0.126 0.088 0.218 0.217 0.26 0.366 0.364 1.293 0.969 2.395 1.75 3.187 0.123 0.125 0.192 0.293 0.192 0.468v1.276c0 0.068-0.010 0.135-0.031 0.199-0.273 0.869-1.605 2.161-9.42 5.16-0.091 0.035-0.152 0.126-0.152 0.227v3.19c0 0.133 0.105 0.241 0.234 0.241h12.36c0.369 0 0.667 0.298 0.667 0.667s-0.298 0.667-0.667 0.667z"></path>
<path d="M27.746 19.466c-0.173 0-0.333-0.066-0.466-0.186-0.134-0.134-0.201-0.307-0.201-0.481s0.081-0.346 0.201-0.466c0.24-0.254 0.693-0.254 0.934 0 0.133 0.12 0.199 0.293 0.199 0.466s-0.066 0.333-0.186 0.467c-0.134 0.133-0.307 0.199-0.481 0.199z"></path>
</svg>
