<!-- Generated by IcoMoon.io -->
<svg version="1.1" xmlns="http://www.w3.org/2000/svg" width="32" height="32" viewBox="0 0 32 32">
<title>user_role_custom</title>
<path d="M19.253 11.988c-0.025 0.059-0.041 0.194-0.028 0.291 0.031 0.247 0.203 0.463 0.459 0.547 0.35 0.116 0.725-0.075 0.841-0.425 0 0 0.044-0.094 0.081-0.222 0.506-0.428 0.844-1.037 0.938-1.703 0.094-0.675-0.066-1.344-0.447-1.906v-2.634c0-3.581-2.225-5.634-6.1-5.634-3.819 0-6.1 2.106-6.1 5.631v2.634c-0.381 0.563-0.541 1.231-0.447 1.906 0.091 0.669 0.428 1.278 0.934 1.706 0.4 1.316 1.028 2.463 1.831 3.347v0.878c-0.209 0.359-1.459 1.509-8.597 4.25-0.603 0.231-1.006 0.822-1.006 1.469v3.188c0 0.869 0.703 1.575 1.566 1.575h12.35c0.369 0 0.659-0.3 0.659-0.669s-0.297-0.666-0.666-0.666h-12.35c-0.128 0-0.234-0.109-0.234-0.241v-3.191c0-0.1 0.063-0.191 0.153-0.225 7.816-3 9.15-4.291 9.422-5.159 0.022-0.066 0.031-0.131 0.031-0.2v-1.275c0-0.175-0.069-0.344-0.191-0.469-0.781-0.794-1.387-1.894-1.75-3.188-0.041-0.147-0.134-0.278-0.259-0.366-0.313-0.219-0.522-0.566-0.575-0.947-0.053-0.387 0.056-0.772 0.309-1.081 0.097-0.119 0.15-0.269 0.15-0.422v-2.856c0-2.772 1.694-4.297 4.769-4.297 3.163 0 4.766 1.444 4.766 4.297v2.856c0 0.153 0.053 0.303 0.15 0.422 0.253 0.309 0.363 0.694 0.309 1.081-0.053 0.384-0.266 0.728-0.578 0.947-0.125 0.088-0.219 0.219-0.259 0.366-0.028 0.097-0.056 0.191-0.084 0.284l-0.047 0.1z"></path>
<path d="M21.194 31.7c-0.141 0-0.272-0.063-0.363-0.172l-1.256-1.534-1.95 0.366c-0.166 0.031-0.334-0.028-0.444-0.156s-0.141-0.306-0.084-0.462l1.472-4.041c0.087-0.244 0.356-0.369 0.6-0.281s0.369 0.356 0.281 0.6l-1.191 3.269 1.413-0.266c0.169-0.031 0.341 0.031 0.45 0.163l0.913 1.113 1.116-3.069c0.087-0.244 0.356-0.369 0.6-0.281s0.369 0.356 0.281 0.6l-1.397 3.841c-0.056 0.159-0.197 0.275-0.363 0.303-0.028 0.006-0.053 0.009-0.078 0.009z"></path>
<path d="M26.044 31.7c-0.025 0-0.053-0.003-0.078-0.006-0.166-0.028-0.303-0.144-0.363-0.303l-1.397-3.841c-0.087-0.244 0.038-0.512 0.281-0.6s0.512 0.038 0.6 0.281l1.116 3.069 0.913-1.113c0.109-0.131 0.281-0.197 0.45-0.163l1.413 0.266-1.191-3.269c-0.087-0.244 0.038-0.512 0.281-0.6s0.512 0.038 0.6 0.281l1.472 4.041c0.056 0.159 0.025 0.334-0.084 0.462s-0.278 0.188-0.444 0.156l-1.95-0.369-1.256 1.534c-0.091 0.109-0.222 0.172-0.363 0.172z"></path>
<path d="M25.297 26.759c-0.078 0-0.159-0.019-0.234-0.063l-1.456-0.841-1.456 0.841c-0.225 0.128-0.509 0.053-0.641-0.172l-0.841-1.456h-1.681c-0.259 0-0.469-0.209-0.469-0.469v-1.681l-1.456-0.841c-0.106-0.063-0.188-0.166-0.219-0.284s-0.016-0.247 0.047-0.356l0.841-1.456-0.841-1.456c-0.063-0.106-0.078-0.234-0.047-0.356 0.031-0.119 0.109-0.222 0.219-0.284l1.456-0.841v-1.681c0-0.259 0.209-0.469 0.469-0.469h1.681l0.841-1.456c0.063-0.106 0.166-0.188 0.284-0.219s0.247-0.016 0.356 0.047l1.456 0.841 1.456-0.841c0.106-0.063 0.234-0.078 0.356-0.047 0.119 0.031 0.222 0.109 0.284 0.219l0.841 1.456h1.681c0.259 0 0.469 0.209 0.469 0.469v1.681l1.456 0.841c0.225 0.128 0.3 0.416 0.172 0.641l-0.841 1.456 0.841 1.456c0.128 0.225 0.053 0.509-0.172 0.641l-1.456 0.841v1.681c0 0.259-0.209 0.469-0.469 0.469h-1.681l-0.841 1.456c-0.084 0.15-0.244 0.234-0.406 0.234zM23.606 24.844c0.081 0 0.163 0.022 0.234 0.063l1.284 0.741 0.741-1.284c0.084-0.144 0.238-0.234 0.406-0.234h1.484v-1.484c0-0.169 0.091-0.322 0.234-0.406l1.284-0.741-0.741-1.284c-0.084-0.144-0.084-0.325 0-0.469l0.741-1.284-1.281-0.741c-0.144-0.084-0.234-0.238-0.234-0.406v-1.484h-1.484c-0.169 0-0.322-0.091-0.406-0.234l-0.741-1.284-1.284 0.741c-0.144 0.084-0.325 0.084-0.469 0l-1.284-0.741-0.741 1.284c-0.084 0.144-0.238 0.234-0.406 0.234h-1.484v1.484c0 0.169-0.091 0.322-0.234 0.406l-1.288 0.744 0.741 1.284c0.084 0.144 0.084 0.325 0 0.469l-0.741 1.284 1.284 0.741c0.144 0.084 0.234 0.238 0.234 0.406v1.484h1.484c0.169 0 0.322 0.091 0.406 0.234l0.741 1.284 1.284-0.741c0.075-0.044 0.156-0.066 0.234-0.066z"></path>
<path d="M23.606 24.012c-2.225 0-4.034-1.809-4.034-4.034s1.809-4.034 4.034-4.034 4.034 1.809 4.034 4.034-1.809 4.034-4.034 4.034zM23.606 16.884c-1.706 0-3.097 1.387-3.097 3.097s1.387 3.097 3.097 3.097 3.097-1.387 3.097-3.097-1.387-3.097-3.097-3.097z"></path>
</svg>
