<!-- Generated by IcoMoon.io -->
<svg version="1.1" xmlns="http://www.w3.org/2000/svg" width="32" height="32" viewBox="0 0 32 32">
<title>user_profile_successful_check_verified</title>
<path fill="none" stroke="#000" stroke-linejoin="round" stroke-linecap="round" stroke-miterlimit="4" stroke-width="2" d="M23.5 9c-0.245 3.304-2.75 6-5.5 6s-5.259-2.695-5.5-6c-0.25-3.438 2.188-6 5.5-6s5.75 2.625 5.5 6z"></path>
<path fill="none" stroke="#000" stroke-linejoin="miter" stroke-linecap="butt" stroke-miterlimit="10" stroke-width="2" d="M18 19c-5.438 0-10.956 3-11.977 8.663-0.125 0.683 0.263 1.337 0.978 1.337h21.999c0.715 0 1.101-0.655 0.978-1.337-1.022-5.663-6.541-8.663-11.978-8.663z"></path>
<path d="M10.196 12.887c0.333 0.292 0.366 0.798 0.073 1.13l-5.526 6.273c-0.146 0.166-0.355 0.264-0.576 0.272s-0.436-0.077-0.593-0.233l-2.368-2.352c-0.314-0.312-0.315-0.819-0.002-1.133s0.821-0.314 1.135-0.002l1.763 1.751 4.962-5.633c0.293-0.332 0.8-0.365 1.133-0.073z"></path>
</svg>
