<!-- Generated by IcoMoon.io -->
<svg version="1.1" xmlns="http://www.w3.org/2000/svg" width="32" height="32" viewBox="0 0 32 32">
<title>users_profile_group_two</title>
<path fill="none" stroke-linejoin="round" stroke-linecap="round" stroke-miterlimit="4" stroke-width="2" stroke="#000" d="M25.125 10.5c-0.183 2.542-2.069 4.5-4.125 4.5s-3.945-1.957-4.125-4.5c-0.188-2.644 1.648-4.5 4.125-4.5s4.313 1.904 4.125 4.5z"></path>
<path fill="none" stroke-linejoin="miter" stroke-linecap="butt" stroke-miterlimit="10" stroke-width="2" stroke="#000" d="M21 19c-4.073 0-7.99 2.023-8.971 5.963-0.13 0.521 0.197 1.037 0.732 1.037h16.478c0.536 0 0.861-0.516 0.733-1.037-0.981-4.003-4.898-5.963-8.972-5.963z"></path>
<path fill="none" stroke-linejoin="round" stroke-linecap="round" stroke-miterlimit="4" stroke-width="2" stroke="#000" d="M12.5 11.621c-0.146 2.030-1.67 3.629-3.313 3.629s-3.169-1.598-3.313-3.629c-0.149-2.112 1.334-3.621 3.313-3.621s3.462 1.548 3.313 3.621z"></path>
<path fill="none" stroke-linejoin="miter" stroke-linecap="round" stroke-miterlimit="10" stroke-width="2" stroke="#000" d="M12.875 19.125c-1.128-0.517-2.371-0.716-3.688-0.716-3.25 0-6.381 1.616-7.166 4.762-0.103 0.416 0.158 0.828 0.586 0.828h7.018"></path>
</svg>
