<svg version="1.1" xmlns="http://www.w3.org/2000/svg" width="32" height="32" viewBox="0 0 32 32">
<title>user_profile</title>
<path d="M16.019 31.949h-15.302c-0.369 0-0.667-0.298-0.667-0.667v-15.302c0-8.802 7.163-15.964 15.969-15.964 8.802 0 15.964 7.161 15.964 15.964-0 8.805-7.162 15.969-15.964 15.969zM1.384 30.616h14.635c8.068 0 14.63-6.565 14.63-14.635 0-8.067-6.563-14.63-14.63-14.63-8.070 0-14.635 6.563-14.635 14.63v14.635z"></path>
<path d="M21.555 23.969h-13.635c-0.654 0-1.186-0.535-1.186-1.194v-1.854c0-0.49 0.305-0.937 0.76-1.113 3.701-1.432 4.575-2.083 4.78-2.31v-0.306c-0.441-0.514-0.789-1.16-1.020-1.893-0.309-0.289-0.513-0.681-0.572-1.107-0.060-0.432 0.031-0.859 0.255-1.227v-1.45c0-2.191 1.456-3.551 3.801-3.551 2.38 0 3.801 1.327 3.801 3.551v1.449c0.225 0.369 0.315 0.796 0.255 1.229-0.060 0.426-0.264 0.818-0.573 1.107-0.231 0.732-0.579 1.378-1.019 1.892v0.322c0.168 0.184 0.997 0.831 4.78 2.292 0.456 0.178 0.76 0.626 0.76 1.116v1.854c-0 0.659-0.533 1.194-1.188 1.194zM8.067 22.635h13.342v-1.622c-4.755-1.844-5.339-2.587-5.51-3.141-0.019-0.064-0.030-0.13-0.030-0.198v-0.741c0-0.175 0.068-0.341 0.19-0.466 0.417-0.427 0.742-1.026 0.94-1.732 0.042-0.148 0.133-0.277 0.259-0.366 0.117-0.082 0.195-0.214 0.216-0.36 0.014-0.105 0.005-0.262-0.12-0.416-0.096-0.119-0.148-0.267-0.148-0.42v-1.659c0-1.493-0.807-2.218-2.467-2.218-1.638 0-2.468 0.746-2.468 2.218v1.659c0 0.153-0.053 0.301-0.15 0.421-0.124 0.153-0.133 0.309-0.119 0.414 0.021 0.147 0.1 0.278 0.217 0.361 0.126 0.089 0.217 0.217 0.258 0.366 0.197 0.706 0.522 1.305 0.94 1.732 0.122 0.125 0.19 0.292 0.19 0.466v0.741c0 0.068-0.010 0.134-0.030 0.198-0.172 0.552-0.755 1.297-5.51 3.142v1.621z"></path>
</svg>
