<svg version="1.1" xmlns="http://www.w3.org/2000/svg" width="32" height="32" viewBox="0 0 32 32">
<title>users_profile_group_two</title>
<path d="M21.216 26.633h-19.771c-0.783 0-1.421-0.65-1.421-1.449v-2.749c0-0.602 0.355-1.131 0.906-1.35 5.849-2.314 6.932-3.294 7.128-3.604v-0.701c-0.664-0.762-1.186-1.745-1.52-2.867-0.427-0.382-0.71-0.914-0.79-1.494-0.083-0.596 0.049-1.186 0.372-1.686v-2.247c0-3.096 1.949-4.945 5.213-4.945 3.311 0 5.21 1.803 5.21 4.945v2.247c0.324 0.499 0.456 1.090 0.374 1.687-0.081 0.581-0.366 1.113-0.793 1.494-0.333 1.122-0.854 2.105-1.519 2.867v0.702c0.191 0.306 1.269 1.286 7.127 3.603 0.542 0.212 0.906 0.755 0.906 1.35v2.749c-0 0.799-0.637 1.449-1.421 1.449zM11.331 4.874c-2.538 0-3.88 1.249-3.88 3.612v2.461c0 0.15-0.051 0.297-0.145 0.415-0.199 0.249-0.284 0.56-0.24 0.874 0.042 0.305 0.204 0.578 0.443 0.751 0.124 0.089 0.214 0.218 0.254 0.365 0.301 1.101 0.799 2.038 1.442 2.71 0.119 0.124 0.185 0.289 0.185 0.461v1.099c0 0.065-0.010 0.131-0.029 0.194-0.245 0.807-1.378 1.913-7.941 4.509l-0.064 2.859c0 0.069 0.045 0.116 0.087 0.116h19.771c0.042 0 0.087-0.047 0.087-0.116v-2.749c-6.625-2.704-7.758-3.81-8.004-4.62-0.019-0.063-0.029-0.128-0.029-0.194v-1.099c0-0.172 0.066-0.337 0.185-0.461 0.643-0.672 1.141-1.609 1.441-2.709 0.040-0.147 0.13-0.277 0.255-0.366 0.24-0.172 0.401-0.445 0.443-0.75 0.044-0.314-0.042-0.625-0.241-0.875-0.094-0.119-0.145-0.264-0.145-0.415v-2.46c0-2.397-1.304-3.612-3.877-3.612z"></path>
<path d="M30.757 26.633h-6.108c-0.369 0-0.667-0.298-0.667-0.667s0.298-0.667 0.667-0.667h6.108l-0.075-2.039c-5.415-2.049-6.075-2.879-6.267-3.492-0.019-0.064-0.030-0.13-0.030-0.198v-0.842c0-0.175 0.068-0.341 0.19-0.466 0.484-0.496 0.862-1.19 1.091-2.008 0.042-0.148 0.133-0.277 0.259-0.366 0.152-0.107 0.257-0.279 0.283-0.471 0.027-0.194-0.029-0.387-0.155-0.543-0.096-0.119-0.15-0.268-0.15-0.421v-1.886c0-1.733-0.974-2.612-2.895-2.612-1.896 0-2.897 0.903-2.897 2.612v1.887c0 0.153-0.053 0.301-0.15 0.421-0.125 0.155-0.18 0.347-0.154 0.54 0.026 0.191 0.13 0.363 0.284 0.471 0.125 0.088 0.216 0.217 0.258 0.365 0.229 0.819 0.607 1.513 1.092 2.009 0.258 0.263 0.253 0.685-0.010 0.943-0.262 0.257-0.686 0.254-0.943-0.010-0.599-0.611-1.066-1.428-1.362-2.375-0.345-0.316-0.574-0.749-0.639-1.221-0.066-0.479 0.036-0.951 0.29-1.355v-1.674c0-2.471 1.582-3.945 4.231-3.945 2.647 0 4.228 1.475 4.228 3.945v1.673c0.255 0.406 0.358 0.88 0.292 1.359-0.065 0.471-0.294 0.905-0.639 1.22-0.263 0.842-0.663 1.583-1.171 2.167v0.428c0.18 0.22 1.090 0.962 5.491 2.661 0.482 0.189 0.806 0.664 0.806 1.184v2.105c-0 0.699-0.564 1.267-1.258 1.267z"></path>
</svg>
