<!-- Generated by IcoMoon.io -->
<svg version="1.1" xmlns="http://www.w3.org/2000/svg" width="32" height="32" viewBox="0 0 32 32">
<title>user_profile_successful_check_verified</title>
<path d="M18 16c3.3 0 6.2-3.1 6.5-6.9 0 0 0 0 0 0 0.1-1.9-0.5-3.7-1.7-5s-2.9-2-4.8-2c-1.9 0-3.6 0.7-4.8 2s-1.8 3.1-1.7 5c0.3 3.8 3.2 6.9 6.5 6.9zM14.7 5.4c0.8-0.9 2-1.4 3.3-1.4s2.5 0.5 3.3 1.4c0.9 0.9 1.3 2.2 1.2 3.5-0.2 2.8-2.3 5.1-4.5 5.1s-4.3-2.3-4.5-5.1c-0.1-1.3 0.3-2.6 1.2-3.5z"></path>
<path d="M31 27.5c-1.2-6.5-7.6-9.5-13-9.5s-11.8 3-13 9.5c-0.1 0.7 0 1.3 0.4 1.8 0.5 0.5 1 0.7 1.6 0.7h22c0.6 0 1.1-0.2 1.5-0.7s0.6-1.1 0.5-1.8zM29 28h-22c0 0 0-0.1 0-0.2 1-5.4 6.4-7.8 11-7.8s10 2.5 11 7.8c0 0.1 0 0.2 0 0.2z"></path>
<path d="M10.2 12.9v0c-0.3-0.3-0.8-0.3-1.1 0.1l-5 5.6-1.8-1.8c-0.3-0.3-0.8-0.3-1.1 0s-0.3 0.8 0 1.1l2.4 2.4c0.2 0.2 0.4 0.2 0.6 0.2s0.4-0.1 0.6-0.3l5.5-6.3c0.3-0.2 0.2-0.7-0.1-1z"></path>
</svg>
