<svg version="1.1" xmlns="http://www.w3.org/2000/svg" width="32" height="32" viewBox="0 0 32 32">
<title>user_profile_avatar_girl_woman_female</title>
<path d="M27.519 21.991v0c-0.703 0-1.519-0.25-2.91-0.893-1.937-0.896-3.253-2.711-3.549-4.043-0.182-0.815 0.038-1.294 0.255-1.553 0.297-0.353 0.763-0.533 1.385-0.533 1.395 0 3.444 0.904 4.983 2.197 1.445 1.214 2.156 2.421 2 3.398-0.086 0.534-0.432 0.96-0.951 1.168-0.319 0.129-0.714 0.259-1.214 0.259zM22.701 16.302c-0.283 0-0.37 0.063-0.371 0.064-0.008 0.025-0.038 0.241 0.104 0.652 0.32 0.921 1.311 2.211 2.736 2.869 1.168 0.54 1.871 0.771 2.35 0.771v0c0.223 0 0.423-0.046 0.716-0.163 0.116-0.047 0.124-0.096 0.131-0.141 0.046-0.286-0.228-1.065-1.54-2.168-1.457-1.224-3.213-1.884-4.126-1.884z"></path>
<path d="M4.799 21.991c-0.501 0-0.895-0.13-1.214-0.259-0.519-0.208-0.865-0.634-0.951-1.168-0.156-0.978 0.554-2.185 2-3.398 1.56-1.31 3.568-2.225 4.885-2.225 0.744 0 1.141 0.286 1.342 0.527 0.326 0.389 0.417 0.96 0.262 1.656-0.288 1.286-1.479 3.079-3.415 3.974-1.391 0.643-2.206 0.893-2.909 0.893zM9.519 16.273c-0.848 0-2.548 0.671-4.028 1.913-1.313 1.103-1.585 1.881-1.54 2.167 0.007 0.044 0.015 0.095 0.131 0.142 0.293 0.117 0.493 0.163 0.717 0.163 0.479 0 1.181-0.231 2.35-0.771 1.393-0.643 2.319-1.896 2.619-2.852 0.14-0.447 0.091-0.675 0.070-0.715 0 0.001-0.065-0.047-0.318-0.047z"></path>
<path d="M30.687 32.005h-29.391c-0.723 0-1.311-0.589-1.311-1.311v-2.302c0-0.352 0.144-0.694 0.396-0.94 2.976-2.889 6.622-4.908 10.546-5.836 0.392-0.091 0.818 0.204 0.841 0.609 0.247 4.415 2.436 6.426 4.365 6.426 1.901 0 4.068-1.995 4.333-6.375 0.014-0.238 0.155-0.451 0.369-0.557 0.167-0.082 0.361-0.091 0.533-0.026 3.803 0.96 7.341 2.949 10.233 5.758 0.251 0.241 0.398 0.586 0.398 0.941v2.302c-0 0.723-0.589 1.311-1.311 1.311zM10.503 23.1c-3.411 0.943-6.575 2.767-9.191 5.306l0.007 2.288 29.346-0.022v-2.28c-2.544-2.462-5.624-4.26-8.939-5.221-0.54 4.699-3.142 6.814-5.594 6.814-2.405 0.001-5.105-2.16-5.63-6.884z"></path>
<path d="M19.832 20.889c-0.369 0-0.667-0.298-0.667-0.667v-0.957c0-0.178 0.072-0.35 0.199-0.475 1.195-1.176 1.983-2.872 2.107-4.538 0.026-0.348 0.316-0.617 0.665-0.617 0.339 0 0.462-0.262 0.501-0.375 0.072-0.21 0.059-0.505-0.194-0.701-0.234-0.181-0.322-0.495-0.214-0.771 0.307-0.783 0.464-1.598 0.464-2.421 0-3.661-2.978-6.639-6.639-6.639s-6.641 2.978-6.641 6.639c0 0.844 0.161 1.674 0.478 2.465 0.105 0.262 0.034 0.562-0.178 0.749-0.233 0.205-0.234 0.495-0.157 0.699 0.040 0.107 0.167 0.355 0.473 0.355 0.349 0 0.661 0.269 0.686 0.618 0.123 1.665 0.909 3.361 2.105 4.537 0.128 0.125 0.199 0.297 0.199 0.475v0.957c0 0.369-0.298 0.667-0.667 0.667s-0.667-0.298-0.667-0.667v-0.685c-1.187-1.258-2.001-2.956-2.245-4.67-0.514-0.177-0.929-0.577-1.133-1.117-0.234-0.622-0.152-1.289 0.201-1.807-0.286-0.833-0.43-1.697-0.43-2.576 0-4.396 3.577-7.973 7.974-7.973 4.396 0 7.973 3.577 7.973 7.973 0 0.848-0.137 1.687-0.408 2.499 0.388 0.508 0.5 1.18 0.28 1.824-0.197 0.575-0.624 1-1.155 1.181-0.245 1.712-1.060 3.409-2.246 4.665v0.685c0 0.369-0.298 0.667-0.667 0.667z"></path>
</svg>
