<!-- Generated by IcoMoon.io -->
<svg version="1.1" xmlns="http://www.w3.org/2000/svg" width="32" height="32" viewBox="0 0 32 32">
<title>user_profile_active</title>
<path d="M16.020 0.017c-8.805 0-15.969 7.161-15.969 15.964v15.303c0 0.368 0.299 0.667 0.667 0.667h15.303c8.803 0 15.964-7.164 15.964-15.969-0.001-8.803-7.163-15.964-15.964-15.964zM6.733 22.775v-1.855c0-0.489 0.305-0.937 0.76-1.113 3.701-1.432 4.575-2.083 4.78-2.309v-0.305c-0.441-0.515-0.789-1.16-1.020-1.893-0.308-0.289-0.513-0.681-0.572-1.108-0.060-0.432 0.031-0.86 0.255-1.227v-1.449c0-2.191 1.456-3.552 3.801-3.552 2.38 0 3.801 1.328 3.801 3.552v1.449c0.225 0.368 0.315 0.796 0.255 1.229-0.060 0.427-0.264 0.817-0.573 1.107-0.231 0.732-0.58 1.377-1.020 1.892v0.321c0.168 0.184 0.997 0.831 4.78 2.292 0.456 0.179 0.76 0.627 0.76 1.116v1.855c0 0.659-0.533 1.195-1.188 1.195h-13.632c-0.655-0.001-1.187-0.537-1.187-1.196z"></path>
</svg>
