<svg version="1.1" xmlns="http://www.w3.org/2000/svg" width="32" height="32" viewBox="0 0 32 32">
<title>user_role_noprivi</title>
<path d="M15.328 26.637h-13.678c-0.863 0-1.566-0.706-1.566-1.575v-3.188c0-0.647 0.403-1.238 1.006-1.469 7.138-2.741 8.387-3.891 8.597-4.25v-0.878c-0.803-0.884-1.431-2.031-1.831-3.347-0.506-0.428-0.844-1.037-0.934-1.706-0.094-0.675 0.066-1.344 0.447-1.906v-2.634c0-3.525 2.281-5.631 6.1-5.631 3.875 0 6.1 2.053 6.1 5.631v2.634c0.381 0.563 0.541 1.231 0.447 1.906-0.094 0.666-0.431 1.275-0.938 1.703-0.4 1.316-1.028 2.463-1.828 3.347v0.903c0.081 0.228 0.197 0.291 1.216 0.828 0.328 0.172 0.453 0.575 0.281 0.9-0.172 0.328-0.578 0.45-0.9 0.281-1.347-0.709-1.641-0.887-1.9-1.7-0.019-0.066-0.031-0.131-0.031-0.2v-1.275c0-0.175 0.069-0.344 0.191-0.469 0.781-0.791 1.384-1.894 1.75-3.188 0.041-0.147 0.134-0.278 0.259-0.366 0.313-0.219 0.525-0.563 0.578-0.947 0.053-0.387-0.056-0.772-0.309-1.081-0.097-0.119-0.15-0.269-0.15-0.422v-2.856c0-2.853-1.603-4.297-4.766-4.297-3.075 0-4.769 1.525-4.769 4.297v2.856c0 0.153-0.053 0.303-0.15 0.422-0.253 0.309-0.363 0.694-0.309 1.081 0.053 0.381 0.262 0.728 0.575 0.947 0.125 0.088 0.219 0.219 0.259 0.366 0.363 1.294 0.969 2.394 1.75 3.188 0.122 0.125 0.191 0.294 0.191 0.469v1.275c0 0.069-0.009 0.134-0.031 0.2-0.272 0.869-1.606 2.159-9.422 5.159-0.091 0.034-0.153 0.125-0.153 0.225v3.191c0 0.131 0.106 0.241 0.234 0.241h13.678c0.369 0 0.666 0.297 0.666 0.666s-0.291 0.669-0.659 0.669v0 0z"></path>
<path d="M30.397 16.188c-0.347 0-0.669 0.1-0.947 0.262v-2.159c0-1.047-0.85-1.897-1.897-1.897-0.347 0-0.669 0.1-0.947 0.262v-0.262c0-1.047-0.85-1.897-1.897-1.897s-1.897 0.85-1.897 1.897v0.262c-0.281-0.162-0.6-0.262-0.947-0.262-1.047 0-1.897 0.85-1.897 1.897v9.169l-1.859-3.15c-0.209-0.328-0.553-0.544-0.972-0.606-0.488-0.075-0.994 0.066-1.356 0.369-0.547 0.462-0.684 1.247-0.363 1.791 0.075 0.206 1.822 5.069 4.059 7.669 0.009 0.009 1.012 0.9 1.238 2.084 0.044 0.228 0.241 0.387 0.466 0.387 0.028 0 0.059-0.003 0.087-0.009 0.256-0.047 0.428-0.297 0.378-0.553-0.284-1.509-1.488-2.575-1.497-2.575-2.075-2.419-3.822-7.272-3.875-7.4-0.128-0.222-0.078-0.506 0.116-0.672 0.15-0.128 0.387-0.188 0.6-0.156 0.084 0.012 0.238 0.053 0.309 0.169l2.731 4.628c0.009 0.019 0.028 0.028 0.038 0.044 0.019 0.025 0.041 0.050 0.066 0.072 0.022 0.019 0.047 0.034 0.072 0.047 0.028 0.016 0.056 0.031 0.087 0.041 0.028 0.009 0.056 0.012 0.087 0.019 0.022 0.003 0.041 0.012 0.063 0.012 0.012 0 0.022-0.006 0.031-0.006 0.028-0.003 0.056-0.009 0.087-0.019s0.063-0.016 0.094-0.031c0.009-0.003 0.019-0.003 0.028-0.009 0.019-0.009 0.028-0.028 0.044-0.038 0.025-0.019 0.050-0.041 0.072-0.063 0.019-0.022 0.034-0.047 0.050-0.075 0.016-0.025 0.028-0.050 0.038-0.081s0.016-0.063 0.019-0.097c0.003-0.019 0.012-0.038 0.012-0.056v-10.906c0-0.522 0.425-0.947 0.947-0.947s0.947 0.425 0.947 0.947v7.113c0 0.262 0.212 0.475 0.475 0.475s0.475-0.212 0.475-0.475v-9.006c0-0.522 0.425-0.947 0.947-0.947s0.947 0.425 0.947 0.947v9.009c0 0.262 0.212 0.475 0.475 0.475s0.475-0.212 0.475-0.475v-7.113c0-0.522 0.425-0.947 0.947-0.947s0.947 0.425 0.947 0.947v8.059c0 0.262 0.212 0.475 0.475 0.475s0.475-0.212 0.475-0.475v-4.266c0-0.522 0.425-0.947 0.947-0.947 0.591 0 0.656 0.694 0.656 0.978-0.066 2.006-0.416 7.544-1.219 9.056-0.959 1.816-1.234 3.616-1.306 4.306-0.028 0.259 0.163 0.494 0.422 0.522 0.016 0.003 0.034 0.003 0.050 0.003 0.238 0 0.444-0.181 0.472-0.425 0.069-0.637 0.319-2.297 1.203-3.962 1.069-2.016 1.319-9.166 1.328-9.484-0.003-1.181-0.631-1.944-1.606-1.944v0z"></path>
</svg>
