<svg version="1.1" xmlns="http://www.w3.org/2000/svg" width="32" height="32" viewBox="0 0 32 32">
<title>user_profile_remove_delete</title>
<path d="M24.659 31.984c-4.039 0-7.324-3.285-7.324-7.324s3.285-7.324 7.324-7.324 7.324 3.285 7.324 7.324-3.285 7.324-7.324 7.324zM24.659 18.669c-3.303 0-5.991 2.687-5.991 5.991s2.687 5.991 5.991 5.991 5.991-2.687 5.991-5.991-2.687-5.991-5.991-5.991z"></path>
<path d="M28.405 25.397h-7.335c-0.369 0-0.667-0.298-0.667-0.667s0.298-0.667 0.667-0.667h7.335c0.369 0 0.667 0.298 0.667 0.667s-0.298 0.667-0.667 0.667z"></path>
<path d="M15.333 26.638h-13.678c-0.865 0-1.568-0.706-1.568-1.574v-3.19c0-0.646 0.404-1.237 1.006-1.47 7.137-2.74 8.389-3.889 8.598-4.25v-0.877c-0.802-0.883-1.43-2.031-1.83-3.346-0.507-0.43-0.843-1.039-0.936-1.705-0.093-0.676 0.065-1.344 0.447-1.906v-2.635c0-3.526 2.281-5.631 6.101-5.631 3.876 0 6.099 2.052 6.099 5.631v2.635c0.383 0.563 0.542 1.231 0.448 1.908-0.092 0.666-0.43 1.275-0.936 1.704-0.401 1.316-1.029 2.464-1.829 3.346v0.903c0.082 0.228 0.197 0.292 1.216 0.828 0.327 0.171 0.452 0.574 0.28 0.9-0.171 0.328-0.577 0.451-0.9 0.28-1.348-0.708-1.642-0.887-1.899-1.701-0.020-0.065-0.031-0.133-0.031-0.201v-1.275c0-0.175 0.069-0.343 0.191-0.468 0.78-0.791 1.385-1.893 1.75-3.188 0.042-0.148 0.134-0.277 0.26-0.366 0.314-0.218 0.523-0.563 0.577-0.945 0.053-0.388-0.056-0.772-0.31-1.081-0.098-0.119-0.151-0.269-0.151-0.423v-2.855c0-2.852-1.603-4.297-4.766-4.297-3.074 0-4.768 1.526-4.768 4.297v2.856c0 0.154-0.053 0.303-0.15 0.422-0.253 0.309-0.363 0.693-0.309 1.081 0.053 0.382 0.263 0.727 0.576 0.947 0.126 0.088 0.218 0.217 0.26 0.366 0.364 1.293 0.969 2.395 1.75 3.187 0.123 0.125 0.192 0.293 0.192 0.468v1.276c0 0.068-0.010 0.135-0.031 0.199-0.273 0.869-1.605 2.16-9.421 5.16-0.091 0.035-0.152 0.126-0.152 0.227v3.19c0 0.133 0.105 0.241 0.234 0.241h13.678c0.369 0 0.667 0.298 0.667 0.667s-0.298 0.667-0.667 0.667z"></path>
</svg>
