<!-- Generated by IcoMoon.io -->
<svg version="1.1" xmlns="http://www.w3.org/2000/svg" width="32" height="32" viewBox="0 0 32 32">
<title>user_management</title>
<path d="M23.409 26.249c-0.436 0-0.864-0.084-1.272-0.251-1.716-0.701-2.54-2.669-1.839-4.385 0.519-1.269 1.741-2.089 3.112-2.089 0.437 0 0.867 0.085 1.275 0.252 0.832 0.34 1.48 0.984 1.827 1.813 0.347 0.828 0.351 1.741 0.011 2.572-0.521 1.268-1.741 2.088-3.113 2.088zM23.411 20.852c-0.829 0-1.568 0.497-1.881 1.264-0.424 1.039 0.073 2.228 1.112 2.652 1.023 0.417 2.237-0.1 2.651-1.112 0.207-0.503 0.204-1.055-0.007-1.556-0.209-0.501-0.603-0.891-1.104-1.095-0.247-0.101-0.505-0.153-0.771-0.153z"></path>
<path d="M21.412 31.391c-0.055 0-0.111-0.007-0.165-0.021-0.805-0.207-1.517-0.497-2.239-0.915-0.259-0.151-0.385-0.456-0.309-0.745l0.453-1.711c-0.295-0.247-0.567-0.516-0.816-0.811l-1.711 0.468c-0.288 0.077-0.595-0.045-0.747-0.303-0.408-0.689-0.731-1.46-0.935-2.231-0.076-0.289 0.049-0.595 0.308-0.745l1.531-0.891c-0.036-0.384-0.037-0.769-0.005-1.151l-1.537-0.877c-0.26-0.149-0.388-0.453-0.315-0.743 0.201-0.785 0.509-1.539 0.916-2.237 0.149-0.261 0.453-0.391 0.744-0.309l1.712 0.453c0.247-0.296 0.517-0.569 0.812-0.817l-0.468-1.709c-0.079-0.289 0.045-0.595 0.303-0.748 0.691-0.407 1.461-0.729 2.231-0.933 0.295-0.077 0.595 0.049 0.745 0.308l0.891 1.532c0.38-0.033 0.764-0.036 1.151-0.004l0.877-1.537c0.148-0.259 0.445-0.391 0.744-0.315 0.805 0.208 1.517 0.499 2.236 0.917 0.26 0.149 0.385 0.455 0.309 0.744l-0.453 1.712c0.292 0.245 0.564 0.515 0.813 0.808l1.709-0.467c0.292-0.077 0.595 0.045 0.748 0.303 0.411 0.699 0.727 1.448 0.935 2.232 0.076 0.289-0.049 0.595-0.309 0.745l-1.532 0.891c0.035 0.381 0.036 0.764 0.005 1.145l1.539 0.877c0.26 0.149 0.388 0.453 0.315 0.744-0.205 0.796-0.505 1.527-0.916 2.237-0.149 0.26-0.452 0.389-0.745 0.309l-1.712-0.453c-0.247 0.295-0.516 0.567-0.808 0.813l0.468 1.711c0.079 0.288-0.045 0.595-0.303 0.748-0.697 0.411-1.447 0.727-2.231 0.935-0.284 0.072-0.593-0.048-0.745-0.309l-0.891-1.531c-0.38 0.037-0.764 0.036-1.147 0.007l-0.879 1.537c-0.12 0.212-0.343 0.336-0.577 0.336zM20.119 29.545c0.317 0.159 0.64 0.289 0.976 0.399l0.837-1.465c0.137-0.239 0.408-0.367 0.679-0.327 0.555 0.084 1.111 0.080 1.652-0.008 0.28-0.045 0.544 0.083 0.681 0.321l0.847 1.457c0.333-0.113 0.659-0.249 0.973-0.408l-0.447-1.628c-0.072-0.265 0.025-0.549 0.249-0.711 0.447-0.327 0.837-0.72 1.163-1.172 0.161-0.221 0.436-0.32 0.708-0.253l1.631 0.431c0.159-0.317 0.289-0.639 0.4-0.976l-1.467-0.836c-0.239-0.136-0.368-0.407-0.327-0.679 0.084-0.549 0.081-1.104-0.007-1.651-0.044-0.271 0.083-0.543 0.321-0.681l1.459-0.848c-0.113-0.333-0.249-0.657-0.408-0.973l-1.627 0.445c-0.264 0.072-0.547-0.024-0.709-0.248-0.332-0.451-0.727-0.843-1.173-1.163-0.223-0.161-0.324-0.444-0.255-0.709l0.432-1.632c-0.317-0.157-0.639-0.289-0.975-0.4l-0.837 1.465c-0.136 0.24-0.4 0.377-0.68 0.327-0.556-0.085-1.113-0.079-1.653 0.007-0.275 0.053-0.543-0.081-0.681-0.321l-0.847-1.457c-0.332 0.112-0.659 0.249-0.972 0.407l0.445 1.627c0.072 0.265-0.025 0.549-0.249 0.711-0.449 0.329-0.843 0.724-1.167 1.175-0.16 0.223-0.437 0.321-0.708 0.255l-1.629-0.431c-0.156 0.315-0.289 0.641-0.4 0.975l1.465 0.836c0.239 0.137 0.369 0.408 0.327 0.68-0.084 0.545-0.083 1.101 0.007 1.655 0.044 0.271-0.083 0.543-0.32 0.681l-1.457 0.847c0.112 0.332 0.249 0.659 0.407 0.972l1.628-0.445c0.265-0.071 0.548 0.027 0.711 0.248 0.329 0.451 0.725 0.843 1.175 1.167 0.223 0.161 0.324 0.443 0.255 0.708l-0.432 1.629z"></path>
<path d="M0.748 22.617c-0.367 0-0.664-0.297-0.664-0.664v-1.241c0-0.625 0.371-1.176 0.945-1.401 6.396-2.511 7.544-3.565 7.743-3.897v-0.784c-0.724-0.819-1.289-1.876-1.649-3.084-0.46-0.401-0.765-0.968-0.852-1.584-0.087-0.632 0.056-1.257 0.404-1.785v-2.423c0-3.288 2.087-5.252 5.581-5.252 3.545 0 5.579 1.915 5.579 5.252v2.423c0.349 0.529 0.492 1.155 0.404 1.788-0.085 0.617-0.392 1.183-0.851 1.584-0.361 1.208-0.927 2.265-1.648 3.083v0.776c0.059 0.087 0.227 0.283 0.684 0.6 0.301 0.209 0.376 0.623 0.168 0.924-0.208 0.3-0.623 0.375-0.924 0.168-0.703-0.487-1.093-0.917-1.228-1.355-0.020-0.063-0.029-0.128-0.029-0.195v-1.179c0-0.172 0.067-0.337 0.187-0.46 0.701-0.728 1.244-1.74 1.571-2.927 0.040-0.147 0.131-0.276 0.255-0.364 0.271-0.193 0.453-0.499 0.501-0.839 0.048-0.349-0.048-0.695-0.271-0.973-0.095-0.119-0.145-0.264-0.145-0.415v-2.64c0-2.603-1.429-3.923-4.251-3.923-2.781 0-4.252 1.356-4.252 3.923v2.639c0 0.151-0.051 0.297-0.145 0.415-0.225 0.279-0.321 0.623-0.273 0.972 0.048 0.34 0.229 0.647 0.501 0.84 0.124 0.088 0.213 0.217 0.255 0.364 0.327 1.185 0.871 2.199 1.572 2.925 0.12 0.124 0.187 0.289 0.187 0.461v1.179c0 0.067-0.009 0.132-0.029 0.195-0.263 0.853-1.48 2.025-8.556 4.801-0.061 0.024-0.103 0.091-0.103 0.165v1.241c-0.001 0.369-0.297 0.667-0.665 0.667z"></path>
</svg>
