<svg version="1.1" xmlns="http://www.w3.org/2000/svg" width="32" height="32" viewBox="0 0 32 32">
<title>user_profile_avatar_man_male3</title>
<path d="M15.988 20.323c-3.519 0-6.191-3.396-6.67-6.746-0.606-0.204-1.063-0.712-1.214-1.39-0.161-0.716 0.054-1.408 0.545-1.864-0.176-0.686-0.266-1.392-0.266-2.104 0-4.426 3.411-8.026 7.605-8.026s7.605 3.6 7.605 8.026c0 0.714-0.090 1.42-0.266 2.105 0.491 0.456 0.706 1.148 0.544 1.864-0.152 0.681-0.613 1.191-1.215 1.393-0.479 3.35-3.151 6.743-6.669 6.743zM15.988 1.526c-3.458 0-6.271 3.003-6.271 6.693 0 0.74 0.115 1.471 0.34 2.175 0.102 0.318-0.047 0.663-0.35 0.807-0.394 0.186-0.321 0.611-0.302 0.695 0.023 0.105 0.129 0.447 0.501 0.447 0.349 0 0.66 0.269 0.686 0.617 0.212 2.853 2.48 6.031 5.397 6.031s5.184-3.178 5.395-6.031c0.026-0.348 0.316-0.617 0.665-0.617 0.393 0 0.499-0.341 0.522-0.446 0.018-0.083 0.092-0.509-0.302-0.695-0.302-0.143-0.452-0.489-0.349-0.807 0.225-0.7 0.34-1.432 0.34-2.174-0-3.69-2.814-6.693-6.272-6.693z"></path>
<path d="M30.728 32.061h-29.481c-0.724 0-1.313-0.59-1.313-1.314v-2.311c0-0.353 0.146-0.697 0.4-0.943 2.85-2.768 10.825-5.81 11.422-5.81 0.107 0 0.218 0.026 0.313 0.077 2.1 1.122 5.744 1.12 7.829 0.003 0.096-0.052 0.21-0.079 0.319-0.079 0.596 0 8.573 3.042 11.425 5.813 0.253 0.242 0.398 0.586 0.398 0.94v2.311c0 0.724-0.589 1.314-1.313 1.314zM11.657 23.047c-1.068 0.342-7.863 2.945-10.395 5.405l0.005 2.296 29.439-0.019v-2.292c-2.397-2.319-9.047-4.928-10.419-5.375-2.401 1.169-6.231 1.167-8.631-0.014z"></path>
</svg>
