<svg version="1.1" xmlns="http://www.w3.org/2000/svg" width="32" height="32" viewBox="0 0 32 32">
<title>users_profile_group_couple_man_woman</title>
<path d="M21.223 26.633h-19.771c-0.783 0-1.421-0.65-1.421-1.449v-2.749c0-0.602 0.355-1.131 0.906-1.35 5.849-2.314 6.932-3.294 7.128-3.604v-0.701c-0.664-0.762-1.186-1.745-1.52-2.867-0.427-0.382-0.71-0.914-0.791-1.494-0.083-0.596 0.049-1.186 0.372-1.686v-2.247c0-3.096 1.949-4.945 5.212-4.945 3.312 0 5.211 1.803 5.211 4.945v2.247c0.324 0.499 0.456 1.090 0.374 1.687-0.081 0.581-0.366 1.113-0.793 1.494-0.333 1.122-0.854 2.105-1.519 2.867v0.702c0.191 0.306 1.269 1.286 7.127 3.603 0.542 0.212 0.906 0.755 0.906 1.35v2.749c0 0.799-0.637 1.449-1.421 1.449zM11.337 4.874c-2.538 0-3.879 1.249-3.879 3.612v2.461c0 0.15-0.051 0.297-0.145 0.415-0.199 0.249-0.284 0.56-0.24 0.874 0.042 0.305 0.204 0.578 0.443 0.751 0.124 0.089 0.214 0.218 0.254 0.365 0.301 1.101 0.799 2.038 1.442 2.71 0.119 0.124 0.185 0.289 0.185 0.461v1.099c0 0.065-0.010 0.131-0.029 0.194-0.245 0.807-1.378 1.913-7.941 4.509l-0.064 2.859c0 0.069 0.045 0.116 0.087 0.116h19.772c0.042 0 0.087-0.047 0.087-0.116v-2.749c-6.625-2.704-7.758-3.81-8.004-4.62-0.019-0.063-0.029-0.128-0.029-0.194v-1.099c0-0.172 0.066-0.337 0.185-0.461 0.643-0.672 1.141-1.609 1.441-2.709 0.040-0.147 0.13-0.277 0.255-0.366 0.24-0.172 0.401-0.445 0.443-0.75 0.044-0.314-0.042-0.625-0.241-0.875-0.094-0.119-0.145-0.264-0.145-0.415v-2.46c0-2.397-1.305-3.612-3.878-3.612z"></path>
<path d="M30.598 26.633h-5.836c-0.369 0-0.667-0.298-0.667-0.667s0.298-0.667 0.667-0.667h5.836l0.047-2.557c-1.447-0.585-2.979-0.875-4.211-1.108-1.854-0.352-3.078-0.583-3.363-1.487-0.021-0.065-0.031-0.133-0.031-0.201v-1.439c0-0.367 0.297-0.665 0.665-0.667 1.714-0.005 2.832-0.313 3.464-0.566-0.965-1.575-1.296-4.717-1.383-5.802-0.003-1.933-1.049-3.602-2.734-4.409-1.518-0.729-3.172-0.558-4.422 0.449-0.286 0.23-0.707 0.186-0.937-0.102s-0.185-0.707 0.102-0.937c1.661-1.337 3.844-1.565 5.833-0.613 2.152 1.031 3.49 3.161 3.49 5.557 0.191 2.331 0.818 5.118 1.439 5.467 0.194 0.109 0.32 0.306 0.339 0.527 0.018 0.22-0.074 0.436-0.247 0.574-0.139 0.113-1.376 1.038-4.273 1.172v0.611c0.262 0.165 1.439 0.389 2.309 0.553 1.284 0.243 2.881 0.547 4.408 1.129 0.533 0.203 0.889 0.721 0.889 1.29v2.509c-0 0.762-0.62 1.382-1.38 1.382z"></path>
</svg>
