<!-- Generated by IcoMoon.io -->
<svg version="1.1" xmlns="http://www.w3.org/2000/svg" width="32" height="32" viewBox="0 0 32 32">
<title>users_profile_group_two_share_solid</title>
<path d="M31.209 22.078c-4.4-1.7-5.313-2.441-5.491-2.663v-0.428c0.506-0.584 0.906-1.325 1.172-2.166 0.344-0.316 0.575-0.75 0.641-1.219 0.066-0.481-0.038-0.953-0.291-1.359v-1.672c0-2.472-1.581-3.947-4.228-3.947-0.003 0-0.003 0-0.006 0s-0.003 0-0.006 0c-2.647 0-4.228 1.475-4.228 3.947v1.672c-0.256 0.406-0.359 0.878-0.291 1.359 0.066 0.472 0.294 0.906 0.641 1.219 0.262 0.844 0.663 1.584 1.172 2.166v0.428c-0.081 0.1-0.319 0.313-0.975 0.675-3.753-1.613-4.544-2.35-4.706-2.609v-0.7c0.666-0.762 1.184-1.744 1.519-2.866 0.428-0.381 0.712-0.912 0.794-1.494 0.081-0.597-0.050-1.188-0.375-1.688v-2.247c0-3.144-1.9-4.947-5.209-4.947-3.266 0-5.213 1.85-5.213 4.947v2.247c-0.322 0.5-0.453 1.091-0.372 1.684 0.081 0.581 0.362 1.113 0.791 1.494 0.334 1.122 0.856 2.106 1.519 2.869v0.7c-0.194 0.309-1.278 1.291-7.128 3.603-0.55 0.219-0.906 0.75-0.906 1.35v2.75c0 0.8 0.637 1.45 1.422 1.45h19.769c0 0 0.003 0 0.003 0h9.541c0.694 0 1.256-0.569 1.259-1.266v-2.106c-0.009-0.522-0.334-0.997-0.816-1.184z"></path>
</svg>
