<svg version="1.1" xmlns="http://www.w3.org/2000/svg" width="32" height="32" viewBox="0 0 32 32">
<title>user_profile_add_new2</title>
<path d="M25.934 31.792c-0.369 0-0.667-0.298-0.667-0.667v-1.395c0-0.117-0.064-0.225-0.155-0.262-7.753-3.113-9.073-4.449-9.342-5.345-0.018-0.063-0.028-0.126-0.028-0.191v-1.324c0-0.169 0.065-0.333 0.182-0.457 0.777-0.825 1.38-1.974 1.743-3.323 0.039-0.147 0.128-0.276 0.25-0.366 0.313-0.228 0.523-0.59 0.579-0.992 0.059-0.421-0.053-0.835-0.314-1.168-0.092-0.119-0.142-0.263-0.142-0.411v-2.963c0-2.977-1.589-4.487-4.72-4.487-3.046 0-4.723 1.594-4.723 4.487v2.964c0 0.149-0.050 0.294-0.141 0.411-0.26 0.332-0.371 0.746-0.313 1.165 0.056 0.404 0.267 0.767 0.579 0.995 0.123 0.090 0.211 0.217 0.251 0.365 0.362 1.348 0.965 2.497 1.743 3.324 0.117 0.124 0.181 0.288 0.181 0.457v1.323c0 0.065-0.010 0.129-0.028 0.191-0.268 0.896-1.588 2.232-9.339 5.345-0.093 0.038-0.157 0.145-0.157 0.263v1.395c0 0.369-0.298 0.667-0.667 0.667s-0.667-0.298-0.667-0.667v-1.395c0-0.665 0.389-1.254 0.99-1.499 7.117-2.858 8.337-4.053 8.534-4.426v-0.941c-0.799-0.918-1.424-2.113-1.819-3.481-0.496-0.439-0.827-1.057-0.922-1.733-0.097-0.699 0.060-1.392 0.442-1.973v-2.751c0-3.645 2.264-5.82 6.057-5.82 3.848 0 6.053 2.122 6.053 5.82v2.75c0.384 0.583 0.54 1.276 0.443 1.977-0.094 0.675-0.426 1.294-0.922 1.732-0.396 1.369-1.021 2.563-1.819 3.479v0.943c0.198 0.372 1.419 1.568 8.533 4.425 0.592 0.237 0.992 0.84 0.992 1.499v1.395c0 0.369-0.298 0.667-0.666 0.667z"></path>
<path d="M30.668 8.001h-9.333c-0.369 0-0.667-0.298-0.667-0.667s0.298-0.667 0.667-0.667h9.333c0.369 0 0.667 0.298 0.667 0.667s-0.298 0.667-0.667 0.667z"></path>
<path d="M26.001 12.667c-0.369 0-0.667-0.298-0.667-0.667v-9.333c0-0.369 0.298-0.667 0.667-0.667s0.667 0.298 0.667 0.667v9.333c0 0.369-0.298 0.667-0.667 0.667z"></path>
</svg>
