<svg version="1.1" xmlns="http://www.w3.org/2000/svg" width="32" height="32" viewBox="0 0 32 32">
<title>user_profile_back_tag</title>
<path d="M24.289 21.305h-8.684c-0.55 0-0.998-0.449-0.998-1.003v-1.181c0-0.413 0.257-0.788 0.639-0.936 2.047-0.792 2.691-1.194 2.887-1.352-0.262-0.325-0.473-0.72-0.619-1.161-0.211-0.216-0.35-0.498-0.392-0.803-0.043-0.308 0.014-0.613 0.16-0.88v-0.858c0-1.544 1.021-2.504 2.663-2.504 1.668 0 2.663 0.936 2.663 2.504v0.857c0.147 0.268 0.203 0.572 0.161 0.881-0.043 0.305-0.182 0.587-0.393 0.803-0.146 0.442-0.357 0.837-0.62 1.162v0.033c0.129 0.078 0.723 0.481 2.889 1.319 0.381 0.146 0.639 0.522 0.639 0.935v1.181c-0 0.553-0.448 1.003-0.998 1.003zM15.941 19.971h8.012v-0.625c-2.704-1.060-3.336-1.574-3.499-2.094-0.019-0.065-0.030-0.131-0.030-0.199v-0.471c0-0.175 0.069-0.342 0.19-0.466 0.234-0.24 0.426-0.594 0.539-0.999 0.042-0.148 0.133-0.277 0.259-0.366-0.098-0.119-0.137-0.409-0.137-0.563v-1.057c0-0.545-0.151-1.171-1.329-1.171-1.191 0-1.329 0.668-1.329 1.171v1.057c0 0.153-0.052 0.301-0.15 0.421 0.126 0.089 0.231 0.361 0.272 0.508 0.113 0.406 0.305 0.76 0.539 0.999 0.121 0.124 0.19 0.292 0.19 0.466v0.473c0 0.066-0.010 0.134-0.030 0.198-0.161 0.519-0.793 1.034-3.498 2.094v0.625z"></path>
<path d="M31.294 25.393h-21.732c-0.175 0-0.342-0.069-0.467-0.191l-8.842-8.694c-0.128-0.125-0.199-0.297-0.199-0.475s0.072-0.35 0.199-0.475l8.841-8.695c0.125-0.122 0.292-0.191 0.467-0.191h21.733c0.369 0 0.667 0.298 0.667 0.667v17.389c0 0.369-0.298 0.667-0.667 0.667zM9.834 24.060h20.794v-16.056h-20.793l-8.164 8.029 8.163 8.027z"></path>
</svg>
