<svg version="1.1" xmlns="http://www.w3.org/2000/svg" width="32" height="32" viewBox="0 0 32 32">
<title>user_profile_avatar_woman_female2</title>
<path d="M30.259 32.019h-28.47c-0.966 0-1.752-0.789-1.752-1.758v-3.829c0-0.724 0.453-1.383 1.126-1.642 2.297-0.879 4.712-1.339 6.652-1.707 1.402-0.267 3.488-0.664 3.79-1.061v-1.397c-4.62-0.147-6.549-1.659-6.633-1.725-0.172-0.139-0.264-0.354-0.245-0.574 0.018-0.221 0.145-0.418 0.337-0.526 1.205-0.678 2.111-5.498 2.37-8.704-0.002-4.864 3.853-8.865 8.591-8.865 5.307 0 8.592 4.629 8.592 8.918 0.258 3.153 1.164 7.973 2.367 8.65 0.193 0.108 0.319 0.305 0.337 0.526 0.018 0.22-0.073 0.435-0.246 0.574-0.083 0.066-2.012 1.578-6.631 1.725v1.397c0.302 0.398 2.391 0.796 3.793 1.063 1.94 0.369 4.353 0.828 6.648 1.706 0.675 0.259 1.126 0.919 1.126 1.642v3.829c0 0.969-0.786 1.758-1.752 1.758zM6.486 18.242c0.902 0.425 2.75 1.052 5.788 1.061 0.367 0.001 0.665 0.299 0.665 0.667v2.195c0 0.068-0.010 0.135-0.031 0.201-0.37 1.176-2.15 1.514-4.843 2.027-1.889 0.358-4.239 0.806-6.424 1.642-0.164 0.063-0.27 0.219-0.27 0.397v3.829c0 0.234 0.187 0.425 0.419 0.425h28.47c0.232 0 0.419-0.19 0.419-0.425v-3.829c0-0.176-0.109-0.335-0.271-0.397-2.182-0.835-4.531-1.281-6.419-1.641-2.695-0.513-4.477-0.852-4.846-2.029-0.021-0.065-0.031-0.133-0.031-0.201v-2.195c0-0.367 0.297-0.665 0.665-0.667 3.035-0.009 4.883-0.637 5.786-1.061-1.642-2.22-2.177-7.807-2.276-9.040-0.003-3.701-2.777-7.638-7.262-7.638-4.003 0-7.26 3.402-7.26 7.585-0.102 1.279-0.636 6.873-2.279 9.093z"></path>
</svg>
