<svg version="1.1" xmlns="http://www.w3.org/2000/svg" width="32" height="32" viewBox="0 0 32 32">
<title>user_profile_avatar_man_male2</title>
<path d="M30.246 32.019h-28.494c-0.967 0-1.753-0.794-1.753-1.769v-3.874c0-0.725 0.452-1.389 1.124-1.651 8.762-3.388 10.224-4.819 10.454-5.259v-1.156c-0.979-1.070-1.742-2.475-2.224-4.091-0.601-0.499-1.001-1.217-1.111-2.004-0.111-0.799 0.081-1.59 0.54-2.25v-3.246c0-4.193 2.699-6.695 7.218-6.695 4.585 0 7.215 2.44 7.215 6.695v3.244c0.461 0.661 0.652 1.453 0.542 2.253-0.109 0.787-0.51 1.505-1.112 2.004-0.481 1.615-1.245 3.019-2.223 4.090v1.156c0.231 0.441 1.694 1.875 10.453 5.258 0.673 0.262 1.125 0.924 1.125 1.652v3.874c0 0.975-0.786 1.769-1.754 1.769zM16 1.357c-3.795 0-5.885 1.904-5.885 5.362v3.468c0 0.153-0.053 0.301-0.149 0.421-0.331 0.408-0.475 0.913-0.404 1.425 0.070 0.505 0.344 0.959 0.753 1.247 0.126 0.088 0.217 0.217 0.258 0.365 0.446 1.595 1.188 2.954 2.146 3.934 0.122 0.125 0.19 0.292 0.19 0.466v1.549c0 0.068-0.010 0.134-0.030 0.198-0.318 1.022-1.906 2.555-11.275 6.177-0.162 0.062-0.273 0.227-0.273 0.407v3.874c0 0.241 0.188 0.436 0.42 0.436h28.494c0.232 0 0.421-0.195 0.421-0.436v-3.874c0-0.181-0.109-0.345-0.273-0.409-9.366-3.617-10.954-5.152-11.275-6.175-0.019-0.065-0.030-0.131-0.030-0.199v-1.549c0-0.175 0.068-0.341 0.19-0.466 0.957-0.978 1.699-2.338 2.145-3.932 0.042-0.148 0.133-0.278 0.259-0.367 0.409-0.287 0.684-0.742 0.754-1.246 0.070-0.512-0.073-1.018-0.405-1.426-0.096-0.119-0.15-0.268-0.15-0.421v-3.467c0-3.508-2.034-5.362-5.881-5.362z"></path>
</svg>
