<svg version="1.1" xmlns="http://www.w3.org/2000/svg" width="32" height="32" viewBox="0 0 32 32">
<title>user_profile_avatar_man_male</title>
<path d="M15.999 31.801c-8.699 0-15.775-7.077-15.775-15.776 0-8.698 7.077-15.775 15.775-15.775s15.775 7.077 15.775 15.775c0 8.699-7.077 15.776-15.775 15.776zM15.999 1.583c-7.964 0-14.442 6.479-14.442 14.441s6.479 14.443 14.442 14.443 14.441-6.479 14.441-14.443c0-7.963-6.478-14.441-14.441-14.441z"></path>
<path d="M26.051 27.961c-0.086 0-0.173-0.017-0.257-0.051-6.658-2.775-7-3.87-7.146-4.337-0.019-0.065-0.030-0.131-0.030-0.199v-1.324c0-0.175 0.068-0.341 0.19-0.466 0.807-0.827 1.434-1.975 1.81-3.322 0.042-0.148 0.133-0.277 0.258-0.366 0.328-0.231 0.548-0.595 0.604-1 0.057-0.411-0.059-0.818-0.324-1.146-0.098-0.119-0.15-0.268-0.15-0.421v-2.964c0-2.936-1.706-4.488-4.934-4.488-3.182 0-4.935 1.594-4.935 4.488v2.965c0 0.153-0.053 0.301-0.149 0.421-0.266 0.327-0.381 0.733-0.324 1.143 0.056 0.405 0.276 0.769 0.604 1 0.126 0.089 0.217 0.219 0.258 0.366 0.376 1.348 1.003 2.496 1.811 3.323 0.122 0.125 0.19 0.292 0.19 0.466v1.324c0 0.068-0.010 0.134-0.030 0.198-0.241 0.772-1.259 1.88-6.99 4.26-0.34 0.143-0.73-0.019-0.872-0.361-0.141-0.34 0.020-0.729 0.36-0.871 5.119-2.125 6.035-3.081 6.199-3.361v-0.926c-0.829-0.918-1.478-2.112-1.89-3.481-0.519-0.441-0.865-1.069-0.96-1.757-0.097-0.698 0.066-1.387 0.46-1.966v-2.745c0-3.645 2.343-5.822 6.268-5.822 3.983 0 6.267 2.122 6.267 5.822v2.744c0.396 0.581 0.559 1.271 0.462 1.97-0.095 0.686-0.441 1.314-0.962 1.755-0.411 1.367-1.060 2.561-1.888 3.479v0.917c0.159 0.238 1.098 1.258 6.355 3.448 0.34 0.142 0.5 0.533 0.359 0.872-0.107 0.257-0.355 0.41-0.616 0.41z"></path>
</svg>
