<svg version="1.1" xmlns="http://www.w3.org/2000/svg" width="32" height="32" viewBox="0 0 32 32">
<title>user_location_position</title>
<path d="M16.001 31.711c-7.619 0-15.716-2.112-15.716-6.027 0-2.626 3.928-4.794 10.251-5.656 0.363-0.068 0.701 0.204 0.751 0.57 0.049 0.365-0.206 0.701-0.571 0.75-5.972 0.815-9.097 2.798-9.097 4.336 0 2.22 5.907 4.694 14.383 4.694s14.381-2.474 14.381-4.694c0-1.796-3.673-3.569-8.934-4.311-0.365-0.052-0.617-0.389-0.566-0.754 0.052-0.363 0.387-0.609 0.754-0.566 6.217 0.878 10.079 3.035 10.079 5.631 0 3.915-8.096 6.027-15.715 6.027z"></path>
<path d="M16.001 27.702c-0.369 0-0.667-0.298-0.667-0.667v-9.896c0-0.369 0.298-0.667 0.667-0.667s0.667 0.298 0.667 0.667v9.896c0 0.368-0.298 0.667-0.667 0.667z"></path>
<path d="M16.001 5.476c-1.39 0-2.312-1.712-2.312-2.844 0-1.274 1.037-2.311 2.312-2.311s2.311 1.037 2.311 2.311c0 1.132-0.922 2.844-2.311 2.844zM16.001 1.654c-0.54 0-0.979 0.439-0.979 0.978 0 0.649 0.558 1.51 0.979 1.51s0.978-0.861 0.978-1.51c0-0.539-0.439-0.978-0.978-0.978z"></path>
<path d="M18.129 27.702c-0.012 0-0.025 0-0.036-0.001-0.369-0.021-0.65-0.335-0.629-0.702l0.651-11.702c0.009-0.18 0.119-0.406 0.255-0.525 0.168-0.146 0.361-0.191 0.542-0.199 0.178-5.372-0.095-7.102-0.237-7.626-0.104-0.003-0.228-0.008-0.339-0.012l-0.342-0.016c-0.417 0.743-1.152 1.158-1.992 1.158s-1.576-0.414-1.92-1.080l-0.414-0.062c-0.12 0.005-0.253 0.010-0.369 0.015-0.097 0.419-0.391 2.086-0.207 7.623 0.181 0.007 0.373 0.053 0.542 0.199 0.139 0.12 0.248 0.352 0.255 0.536l0.65 11.69c0.021 0.367-0.26 0.682-0.628 0.702-0.38 0.035-0.682-0.26-0.703-0.629l-0.619-11.137c-0.185-0.005-0.383-0.047-0.556-0.197-0.139-0.12-0.246-0.347-0.253-0.531-0.32-8.555 0.39-9.148 0.693-9.402 0.072-0.060 0.157-0.106 0.248-0.131 0.118-0.034 0.252-0.044 0.894-0.070l0.314-0.014c0.548-0.040 1.067 0.269 1.339 0.797 0.272 0.527 1.195 0.529 1.469-0.001 0.271-0.527 0.783-0.829 1.341-0.796l0.313 0.014c0.642 0.026 0.776 0.036 0.895 0.070 0.089 0.025 0.172 0.070 0.243 0.13 0.303 0.252 1.016 0.843 0.697 9.404-0.008 0.184-0.115 0.411-0.254 0.532-0.173 0.15-0.371 0.192-0.556 0.196l-0.62 11.137c-0.020 0.356-0.314 0.63-0.665 0.63z"></path>
</svg>
