<!-- Generated by IcoMoon.io -->
<svg version="1.1" xmlns="http://www.w3.org/2000/svg" width="32" height="32" viewBox="0 0 32 32">
<title>users_profile_group_two</title>
<path d="M21 16c2.6 0 4.9-2.4 5.1-5.4 0.1-1.5-0.4-2.9-1.3-4-1-1-2.3-1.6-3.8-1.6s-2.8 0.6-3.8 1.6c-1 1-1.4 2.4-1.3 4 0.2 3 2.5 5.4 5.1 5.4zM18.7 7.9c0.5-0.6 1.4-0.9 2.3-0.9s1.8 0.3 2.3 1c0.6 0.6 0.9 1.5 0.8 2.5v0c-0.1 1.9-1.5 3.5-3.1 3.5s-3-1.6-3.1-3.6c-0.1-1 0.2-1.8 0.8-2.5z"></path>
<path d="M30.9 24.7c-1-4.1-4.9-6.7-9.9-6.7s-8.9 2.6-9.9 6.7c-0.1 0.6 0 1.2 0.3 1.6s0.8 0.7 1.4 0.7h16.5c0.5 0 1-0.2 1.4-0.7 0.3-0.4 0.4-1 0.2-1.6zM13.1 25c1-3.7 4.9-5 7.9-5s6.9 1.3 7.9 5h-15.8z"></path>
<path d="M9.2 16.2c2.2 0 4.1-2 4.3-4.6 0.1-1.3-0.3-2.5-1.1-3.3s-2-1.3-3.2-1.3c-1.3 0-2.4 0.5-3.2 1.3-0.8 0.9-1.2 2.1-1.1 3.4 0.2 2.5 2.1 4.5 4.3 4.5zM7.5 9.7c0.4-0.5 1-0.7 1.7-0.7s1.3 0.3 1.7 0.7c0.4 0.5 0.6 1.1 0.6 1.8-0.1 1.5-1.2 2.7-2.3 2.7-1.2 0-2.2-1.2-2.3-2.6-0.1-0.8 0.1-1.4 0.6-1.9z"></path>
<path d="M9.6 23h-6.5c0.9-2.6 3.8-3.6 6.1-3.6 1.3 0 2.4 0.2 3.3 0.6 0.5 0.2 1.1 0 1.3-0.5s0-1.1-0.5-1.3c-1.2-0.5-2.5-0.8-4.1-0.8-4 0-7.3 2.2-8.1 5.5-0.1 0.5 0 1.1 0.3 1.5s0.7 0.6 1.2 0.6h7c0.6 0 1-0.4 1-1s-0.4-1-1-1z"></path>
</svg>
