<!-- Generated by IcoMoon.io -->
<svg version="1.1" xmlns="http://www.w3.org/2000/svg" width="32" height="32" viewBox="0 0 32 32">
<title>vapp_expand</title>
<path d="M15.987 31.745c8.68 0 15.743-7.061 15.743-15.743s-7.063-15.743-15.743-15.743-15.743 7.063-15.743 15.743 7.061 15.743 15.743 15.743zM15.987 1.593c7.945 0 14.409 6.464 14.409 14.409s-6.464 14.409-14.409 14.409c-7.945 0-14.409-6.464-14.409-14.409 0-7.947 6.463-14.409 14.409-14.409z"></path>
<path d="M8.86 18.060l6.323 6.324c0.105 0.107 0.229 0.189 0.371 0.248 0.276 0.115 0.592 0.113 0.865 0 0.141-0.059 0.267-0.141 0.369-0.247l6.325-6.325c0.215-0.215 0.332-0.499 0.332-0.801s-0.117-0.587-0.332-0.801c-0.428-0.428-1.175-0.428-1.603 0l-4.391 4.391v-12.573c0-0.625-0.508-1.133-1.133-1.133s-1.133 0.508-1.133 1.133v12.573l-4.392-4.391c-0.427-0.428-1.175-0.428-1.601 0-0.215 0.215-0.332 0.499-0.332 0.801s0.116 0.588 0.332 0.801z"></path>
</svg>
