<svg version="1.1" xmlns="http://www.w3.org/2000/svg" width="32" height="32" viewBox="0 0 32 32">
<title>vector_bezier_curve_illustrator</title>
<path d="M5.223 10.693c-0.197 0-0.391-0.087-0.523-0.252-0.229-0.288-0.181-0.708 0.107-0.937 4.309-3.421 10.497-3.591 15.047-0.41 0.302 0.211 0.376 0.626 0.165 0.928-0.212 0.303-0.63 0.374-0.928 0.165-4.072-2.844-9.605-2.696-13.455 0.362-0.122 0.097-0.269 0.145-0.414 0.145z"></path>
<path d="M21.854 27.324c-0.148 0-0.298-0.049-0.422-0.15-0.285-0.233-0.327-0.654-0.095-0.939 3.146-3.855 3.313-9.392 0.406-13.462-0.214-0.299-0.145-0.716 0.155-0.93 0.302-0.213 0.716-0.145 0.931 0.155 3.254 4.558 3.066 10.758-0.458 15.080-0.131 0.161-0.324 0.245-0.517 0.245z"></path>
<path d="M3.833 14.813v0c-0.177 0-0.346-0.070-0.471-0.195l-2.754-2.755c-0.26-0.26-0.26-0.682 0-0.943l2.755-2.754c0.125-0.125 0.294-0.195 0.471-0.195v0c0.177 0 0.346 0.070 0.471 0.195l2.753 2.755c0.26 0.26 0.26 0.682 0 0.943l-2.754 2.754c-0.125 0.125-0.294 0.195-0.471 0.195zM2.022 11.391l1.811 1.812 1.811-1.811-1.811-1.812-1.812 1.811z"></path>
<path d="M21.288 14.002v0c-0.177 0-0.346-0.070-0.471-0.195l-2.754-2.755c-0.26-0.26-0.26-0.682 0-0.943l2.754-2.755c0.25-0.25 0.693-0.25 0.943 0l2.755 2.755c0.125 0.125 0.195 0.294 0.195 0.471s-0.070 0.346-0.195 0.471l-2.755 2.755c-0.125 0.125-0.294 0.195-0.471 0.195zM19.477 10.581l1.811 1.812 1.813-1.812-1.813-1.812-1.811 1.812z"></path>
<path d="M20.522 31.499c-0.171 0-0.341-0.065-0.471-0.195l-2.755-2.754c-0.125-0.125-0.195-0.294-0.195-0.471s0.070-0.346 0.195-0.471l2.754-2.754c0.26-0.26 0.682-0.26 0.943 0l2.755 2.754c0.125 0.125 0.195 0.294 0.195 0.471s-0.070 0.346-0.195 0.471l-2.754 2.754c-0.13 0.13-0.301 0.195-0.471 0.195zM18.71 28.078l1.813 1.811 1.811-1.811-1.813-1.811-1.811 1.811z"></path>
<path d="M12.838 3.402c-0.176 0-0.346-0.070-0.471-0.195l-0.869-0.869c-0.26-0.26-0.26-0.682 0-0.943l0.869-0.869c0.25-0.251 0.693-0.251 0.943 0l0.869 0.869c0.26 0.26 0.26 0.682 0 0.943l-0.869 0.869c-0.125 0.125-0.294 0.195-0.471 0.195z"></path>
<path d="M30.163 20.727c-0.171 0-0.341-0.065-0.471-0.195l-0.87-0.869c-0.125-0.125-0.195-0.294-0.195-0.471s0.070-0.346 0.195-0.471l0.87-0.87c0.125-0.125 0.294-0.195 0.471-0.195v0c0.177 0 0.346 0.070 0.471 0.195l0.869 0.87c0.26 0.26 0.26 0.682 0 0.943l-0.869 0.869c-0.13 0.13-0.301 0.195-0.471 0.195z"></path>
<path d="M23.775 13.401c-0.169 0-0.339-0.064-0.469-0.193l-0.948-0.937c-0.262-0.259-0.264-0.681-0.005-0.943 0.258-0.263 0.68-0.264 0.943-0.005l0.948 0.937c0.262 0.259 0.264 0.681 0.005 0.943-0.13 0.132-0.302 0.198-0.474 0.198z"></path>
<path d="M26.819 16.411c-0.169 0-0.339-0.065-0.469-0.194l-1.014-1.003c-0.262-0.259-0.264-0.681-0.005-0.943 0.259-0.263 0.681-0.263 0.943-0.005l1.014 1.004c0.262 0.259 0.264 0.681 0.005 0.943-0.13 0.131-0.302 0.198-0.474 0.198z"></path>
<path d="M29.797 19.354c-0.169 0-0.339-0.064-0.469-0.193l-0.948-0.937c-0.262-0.259-0.264-0.681-0.005-0.943s0.681-0.264 0.943-0.005l0.948 0.937c0.262 0.259 0.264 0.681 0.005 0.943-0.13 0.131-0.302 0.198-0.474 0.198z"></path>
<path d="M14.221 3.903c-0.171 0-0.342-0.066-0.473-0.197l-0.94-0.945c-0.26-0.261-0.258-0.683 0.003-0.943 0.26-0.261 0.683-0.258 0.943 0.003l0.94 0.945c0.26 0.261 0.258 0.683-0.003 0.943-0.13 0.13-0.3 0.194-0.47 0.194z"></path>
<path d="M17.145 6.843c-0.172 0-0.342-0.066-0.473-0.197l-0.974-0.981c-0.26-0.262-0.258-0.684 0.003-0.943 0.263-0.26 0.685-0.257 0.943 0.003l0.974 0.981c0.26 0.262 0.258 0.684-0.003 0.943-0.13 0.13-0.301 0.194-0.47 0.194z"></path>
<path d="M20.033 9.749c-0.172 0-0.342-0.066-0.473-0.197l-0.94-0.946c-0.259-0.261-0.258-0.684 0.003-0.943 0.263-0.262 0.685-0.258 0.943 0.003l0.94 0.946c0.259 0.261 0.258 0.684-0.003 0.943-0.13 0.13-0.301 0.194-0.47 0.194z"></path>
</svg>
