<!-- Generated by IcoMoon.io -->
<svg version="1.1" xmlns="http://www.w3.org/2000/svg" width="32" height="32" viewBox="0 0 32 32">
<title>video_multimedia_movie</title>
<path d="M31.333 29.335h-30.667c-0.369 0-0.667-0.298-0.667-0.667v-25.333c0-0.369 0.298-0.667 0.667-0.667h30.667c0.369 0 0.667 0.298 0.667 0.667v25.333c0 0.368-0.298 0.667-0.667 0.667zM1.333 28.001h29.333v-24h-29.333v24z"></path>
<path d="M15.145 17.341c-0.513 0-0.931-0.404-0.931-0.9l-0.001-4.689c-0.001-0.402 0.156-0.645 0.288-0.778 0.315-0.314 0.839-0.335 1.241-0.036l2.928 2.286c0.031 0.025 0.079 0.068 0.107 0.099 0.182 0.178 0.296 0.451 0.289 0.738-0.007 0.277-0.128 0.542-0.333 0.729l-0.21 0.168c-2.999 2.382-3.078 2.382-3.372 2.385-0.002 0-0.003 0-0.005 0zM15.546 12.476l0.001 3.113c0.396-0.299 1.018-0.782 1.995-1.557l-1.995-1.555z"></path>
<path d="M8.667 29.335h-2.667c-0.369 0-0.667-0.298-0.667-0.667v-4c0-0.369 0.298-0.667 0.667-0.667h2.667c0.369 0 0.667 0.298 0.667 0.667v4c0 0.368-0.298 0.667-0.667 0.667zM6.667 28.001h1.333v-2.667h-1.333v2.667z"></path>
<path d="M16 21.37c-4.042 0-7.329-3.288-7.329-7.329s3.288-7.329 7.329-7.329 7.329 3.288 7.329 7.329c0 4.041-3.288 7.329-7.329 7.329zM16 8.045c-3.306 0-5.996 2.69-5.996 5.996s2.69 5.995 5.996 5.995 5.996-2.69 5.996-5.995c0-3.306-2.69-5.996-5.996-5.996z"></path>
<path d="M31.333 25.335h-30.667c-0.369 0-0.667-0.298-0.667-0.667s0.298-0.667 0.667-0.667h30.667c0.369 0 0.667 0.298 0.667 0.667s-0.298 0.667-0.667 0.667z"></path>
</svg>
