<!-- Generated by IcoMoon.io -->
<svg version="1.1" xmlns="http://www.w3.org/2000/svg" width="32" height="32" viewBox="0 0 32 32">
<title>video_movie_file_player</title>
<path d="M4.711 4.586c0.375-0.375 0.884-0.586 1.414-0.586h6v7c0 0.796 0.316 1.559 0.879 2.121s1.326 0.879 2.121 0.879h7v4.656h2v-4.828c0-0.795-0.316-1.558-0.878-2.121l-8.829-8.829c-0.562-0.562-1.325-0.878-2.121-0.878h-6.172c-1.061 0-2.078 0.421-2.828 1.172s-1.172 1.768-1.172 2.828v20c0 1.061 0.421 2.078 1.172 2.828s1.768 1.172 2.828 1.172h5.438v-2h-5.438c-0.53 0-1.039-0.211-1.414-0.586s-0.586-0.884-0.586-1.414v-20c0-0.53 0.211-1.039 0.586-1.414zM13.125 11c1 0 1 0 1 0zM14.418 11.707c-0.188-0.188-0.293-0.442-0.293-0.707v-5.586l6.586 6.586h-5.586c-0.265 0-0.52-0.105-0.707-0.293zM13.125 11h-1z"></path>
<path d="M21.5 19.813h-6.049c-0.649 0.002-1.272 0.268-1.731 0.742s-0.719 1.115-0.721 1.785v5.134c0.002 0.67 0.261 1.311 0.721 1.785s1.082 0.74 1.731 0.742h6.034c0.649-0.002 1.272-0.268 1.731-0.742s0.719-1.115 0.721-1.785v-5.151c-0.002-0.666-0.26-1.303-0.716-1.773s-1.075-0.735-1.72-0.737h-0.001zM14.78 21.649c0.179-0.184 0.421-0.288 0.675-0.289h6.043c0.249 0.001 0.488 0.104 0.664 0.285s0.275 0.426 0.276 0.682v5.144c-0.001 0.26-0.102 0.509-0.28 0.693s-0.421 0.288-0.675 0.289h-6.027c-0.253-0.001-0.496-0.105-0.675-0.289s-0.28-0.433-0.28-0.693v-5.128c0.001-0.26 0.102-0.509 0.28-0.693zM28.699 20.332c-0.212-0.017-0.424 0.020-0.618 0.109-0.044 0.020-0.087 0.045-0.127 0.074l-2.723 1.971c-0.167 0.121-0.304 0.282-0.399 0.469s-0.144 0.395-0.144 0.607v2.688c0 0.211 0.049 0.419 0.144 0.607s0.231 0.348 0.399 0.469l2.723 1.971c0.040 0.029 0.082 0.054 0.127 0.074 0.194 0.089 0.407 0.126 0.618 0.109s0.416-0.089 0.594-0.208c0.178-0.119 0.325-0.282 0.427-0.475s0.155-0.409 0.155-0.628v-6.525c0-0.22-0.053-0.436-0.155-0.628s-0.249-0.356-0.427-0.475c-0.178-0.119-0.383-0.19-0.594-0.208zM28.375 27.712l-2.188-1.583v-2.445l2.188-1.583v5.611z"></path>
</svg>
