<svg version="1.1" xmlns="http://www.w3.org/2000/svg" width="32" height="32" viewBox="0 0 32 32">
<title>video_movie_file_player</title>
<path d="M27.333 6.673h-5.333c-0.369 0-0.667-0.298-0.667-0.667v-5.333c0-0.369 0.298-0.667 0.667-0.667s0.667 0.298 0.667 0.667v4.667h4.667c0.369 0 0.667 0.298 0.667 0.667s-0.298 0.667-0.667 0.667z"></path>
<path d="M26.277 32.007h-20.561c-0.946 0-1.716-0.777-1.716-1.733v-28.526c0-0.96 0.77-1.741 1.716-1.741h16.284c0.557 0 0.854 0.292 1.070 0.505l4.417 4.358c0.238 0.236 0.513 0.579 0.513 1.137v24.267c0 0.956-0.772 1.733-1.723 1.733zM21.991 1.331l-16.275 0.009c-0.208 0-0.383 0.187-0.383 0.407v28.526c0 0.216 0.175 0.4 0.383 0.4h20.561c0.211 0 0.389-0.184 0.389-0.4v-24.267c0-0.047 0-0.072-0.117-0.187l-4.417-4.358c-0.036-0.037-0.115-0.114-0.142-0.13z"></path>
<path d="M17.358 22.701h-7.976c-0.734 0-1.331-0.63-1.331-1.404v-7.932c0-0.774 0.597-1.404 1.331-1.404h7.976c0.734 0 1.331 0.63 1.331 1.404v0.874l3.449-1.821c0.874-0.43 1.798 0.262 1.798 1.183v7.46c0 0.348-0.126 0.675-0.357 0.921-0.234 0.251-0.561 0.396-0.895 0.396v0c-0.184 0-0.362-0.042-0.53-0.125l-3.466-1.829v0.874c0 0.773-0.596 1.404-1.33 1.404zM9.382 13.294l0.002 8.003 7.945 0.070 0.026-2.049c0-0.233 0.122-0.451 0.323-0.57 0.199-0.12 0.448-0.126 0.655-0.019l4.267 2.253 0.003-7.3-4.27 2.254c-0.207 0.109-0.456 0.102-0.655-0.019-0.201-0.12-0.323-0.337-0.323-0.571v-1.981l-7.973-0.070z"></path>
</svg>
