<!-- Generated by IcoMoon.io -->
<svg version="1.1" xmlns="http://www.w3.org/2000/svg" width="57" height="32" viewBox="0 0 57 32">
<title>virtualbox</title>
<path d="M5.6 20h-1.733l-3.2-8h1.6l2.4 6.4 2.4-6.4h1.6l-3.067 8z"></path>
<path d="M10.267 13.467c-0.267 0-0.4-0.133-0.533-0.267s-0.267-0.267-0.267-0.533c0-0.267 0.133-0.4 0.267-0.533s0.4-0.267 0.533-0.267c0.267 0 0.4 0.133 0.533 0.267s0.267 0.4 0.267 0.533c0 0.267-0.133 0.4-0.267 0.533s-0.267 0.267-0.533 0.267zM10.933 20h-1.333v-5.733h1.2v5.733z"></path>
<path d="M13.867 20h-1.2v-5.733h1.2v0.8c0.267-0.267 0.533-0.533 0.8-0.667 0.4-0.133 0.667-0.267 1.067-0.267v1.2c-0.133 0-0.267 0-0.4 0-0.267 0-0.533 0.133-0.8 0.267s-0.533 0.267-0.667 0.533v3.867z"></path>
<path d="M18.667 20.133c-0.533 0-0.8-0.133-1.067-0.4s-0.4-0.667-0.4-1.067v-3.333h-0.933v-1.067h0.933v-1.733h1.2v1.6h1.2v1.067h-1.2v3.067c0 0.267 0 0.4 0.133 0.533s0.267 0.133 0.4 0.133 0.4-0.133 0.533-0.267l0.267 0.933c-0.133 0.4-0.533 0.533-1.067 0.533z"></path>
<path d="M26 20h-1.2v-0.8c-0.533 0.667-1.2 0.933-2 0.933-1.2 0-1.867-0.667-1.867-1.867v-4.133h1.2v3.6c0 0.4 0.133 0.667 0.267 0.933 0.133 0.133 0.533 0.267 0.8 0.267s0.533-0.133 0.8-0.267c0.267-0.133 0.533-0.267 0.667-0.533v-4h1.2v5.867z"></path>
<path d="M32.533 20h-1.2v-0.667c-0.4 0.533-1.067 0.8-1.867 0.8-0.533 0-0.933-0.133-1.467-0.533-0.4-0.4-0.667-0.8-0.667-1.467s0.267-1.067 0.667-1.467c0.4-0.267 0.933-0.533 1.467-0.533 0.8 0 1.467 0.267 1.867 0.8v-0.8c0-0.4-0.133-0.533-0.4-0.8-0.267-0.133-0.533-0.267-0.933-0.267-0.667 0-1.2 0.267-1.733 0.667l-0.533-0.933c0.667-0.667 1.467-0.933 2.4-0.933 0.667 0 1.333 0.133 1.733 0.533s0.667 0.8 0.667 1.6v4zM29.867 19.2c0.667 0 1.067-0.133 1.333-0.533v-0.933c-0.267-0.4-0.8-0.533-1.333-0.533-0.4 0-0.667 0.133-0.933 0.267s-0.4 0.4-0.4 0.8c0 0.267 0.133 0.533 0.4 0.8s0.533 0.133 0.933 0.133z"></path>
<path d="M35.467 20h-1.2v-8h1.2v8z"></path>
<path d="M41.333 20h-4v-8h3.867c0.667 0 1.2 0.133 1.733 0.533 0.4 0.4 0.667 0.933 0.667 1.467s-0.133 0.933-0.4 1.2c-0.267 0.267-0.533 0.533-0.933 0.667 0.4 0 0.8 0.267 1.067 0.667s0.4 0.8 0.4 1.333c0 0.667-0.267 1.2-0.667 1.6s-1.067 0.533-1.733 0.533zM40.933 15.333c0.4 0 0.667-0.133 0.8-0.267s0.267-0.4 0.267-0.8c0-0.267-0.133-0.533-0.267-0.8-0.133-0.133-0.4-0.267-0.8-0.267h-2.267v2.133h2.267zM40.933 18.667c0.4 0 0.667-0.133 0.933-0.267s0.267-0.533 0.267-0.8c0-0.267-0.133-0.533-0.267-0.8-0.267-0.267-0.533-0.267-0.933-0.267h-2.267v2.133h2.267z"></path>
<path d="M47.733 20.133c-0.933 0-1.6-0.267-2.133-0.933-0.533-0.533-0.8-1.333-0.8-2.133s0.267-1.6 0.8-2.133c0.533-0.533 1.2-0.933 2.133-0.933s1.6 0.267 2.133 0.933c0.533 0.533 0.8 1.333 0.8 2.133s-0.267 1.6-0.8 2.133c-0.533 0.667-1.2 0.933-2.133 0.933zM47.733 18.933c0.533 0 0.933-0.133 1.2-0.533s0.4-0.8 0.4-1.333c0-0.533-0.133-0.933-0.4-1.333s-0.667-0.533-1.2-0.533c-0.533 0-0.933 0.133-1.2 0.533s-0.4 0.8-0.4 1.333c0 0.533 0.133 0.933 0.4 1.333s0.667 0.533 1.2 0.533z"></path>
<path d="M56.667 20h-1.467l-1.467-2.133-1.467 2.133h-1.467l2.133-2.933-2-2.8h1.467l1.333 2 1.333-2h1.467l-2 2.8 2.133 2.933z"></path>
</svg>
