<!-- Generated by IcoMoon.io -->
<svg version="1.1" xmlns="http://www.w3.org/2000/svg" width="57" height="32" viewBox="0 0 57 32">
<title>vmware</title>
<path d="M4.667 17.467c0.267-0.667 0.533-1.2 0.8-1.867s0.533-1.467 0.933-2.133c0.267-0.8 0.933-1.467 1.867-1.6 1.067-0.267 2 0.133 2.667 0.8 0 0 0.133 0.133 0.133 0.267 0.8-0.667 1.6-1.067 2.533-1.067s1.867 0.267 2.4 1.067c0.133-0.133 0.4-0.267 0.533-0.4 1.2-0.8 2.667-0.933 3.867-0.133 0.667 0.533 1.067 1.2 1.067 2 0 1.6 0 3.2 0 4.933 0 0.8-0.667 1.333-1.6 1.067-0.533-0.133-0.8-0.667-0.8-1.2 0-1.333 0-2.667 0-4 0-0.667-0.4-1.067-1.067-1.2-0.533-0.133-1.2 0.267-1.333 0.8-0.133 0.267-0.133 0.4-0.133 0.667 0 1.333 0 2.533 0 3.867 0 0.8-0.8 1.333-1.6 1.067-0.533-0.133-0.8-0.533-0.8-1.2 0-1.333 0-2.667 0-4 0-0.667-0.4-1.2-1.067-1.333-0.8-0.133-1.6 0.4-1.6 1.2 0 1.333 0 2.667 0 4 0 0.667-0.4 1.2-1.067 1.2s-1.2-0.4-1.2-1.067c0-1.067 0-2 0-3.067 0-0.667 0-1.2 0-1.867 0-0.133-0.133-0.4-0.133-0.533-0.133-0.133-0.4 0-0.667 0.267-0.4 1.2-0.8 2.267-1.333 3.333-0.267 0.533-0.533 1.2-0.8 1.733-0.133 0.267-0.267 0.533-0.533 0.8-0.533 0.667-1.6 0.667-2.133 0-0.267-0.267-0.4-0.533-0.533-0.8-0.933-1.867-1.733-3.733-2.533-5.6-0.267-0.667-0.133-1.333 0.533-1.6s1.2 0 1.6 0.667c0.667 1.467 1.333 3.067 2 4.533-0.133 0.133-0.133 0.133 0 0.4z"></path>
<path d="M25.467 18.267c0.267-0.667 0.533-1.467 0.8-2.133 0.4-1.2 0.8-2.533 1.333-3.733 0.133-0.4 0.4-0.533 0.667-0.533 0.4 0 0.533 0.267 0.533 0.533 0.4 1.2 0.8 2.4 1.2 3.6 0.267 0.667 0.4 1.333 0.667 2 0 0.133 0.133 0.133 0.133 0.4 0.133-0.133 0.133-0.267 0.133-0.4 0.667-1.867 1.333-3.6 1.867-5.467 0-0.133 0-0.133 0.133-0.267 0.267-0.267 0.533-0.4 0.8-0.267s0.4 0.4 0.4 0.667c-0.133 0.267-0.133 0.533-0.267 0.8-0.8 2.133-1.467 4.133-2.267 6.267-0.133 0.267-0.267 0.533-0.533 0.533-0.4 0-0.667-0.133-0.8-0.533-0.533-1.333-0.933-2.667-1.467-4.133-0.133-0.533-0.4-0.933-0.533-1.467 0-0.133-0.133-0.133-0.133-0.267-0.133 0.133-0.133 0.267-0.133 0.4-0.667 1.733-1.2 3.6-1.867 5.333-0.133 0.4-0.267 0.533-0.667 0.533s-0.533-0.133-0.667-0.533c-0.8-2.267-1.6-4.533-2.4-6.8-0.133-0.267-0.133-0.533 0-0.8 0.267-0.4 0.8-0.267 1.067 0.267 0.4 0.933 0.667 2 1.067 2.933 0.267 0.933 0.667 1.733 0.933 2.667-0.133 0.267-0.133 0.267 0 0.4 0 0 0 0 0 0z"></path>
<path d="M40.133 18.933c-0.133 0.133-0.133 0.133-0.267 0.267-1.2 1.2-3.2 1.467-4.533 0.533-0.933-0.533-1.2-1.333-1.067-2.4 0.133-0.933 0.667-1.6 1.467-2 0.8-0.267 1.6-0.4 2.533-0.4 0.667 0.133 1.333 0.133 2 0.267 0-0.267 0-0.533-0.133-0.8-0.133-0.933-0.933-1.467-1.867-1.6-0.8-0.133-1.6 0-2.4 0.267-0.4 0.133-0.667 0-0.8-0.267s0-0.533 0.4-0.667c1.333-0.533 2.533-0.667 3.867-0.133 1.067 0.4 1.867 1.333 1.867 2.533 0 1.733 0 3.333 0 5.067 0 0.4-0.267 0.667-0.533 0.667s-0.533-0.267-0.533-0.667c0-0.133 0.133-0.4 0-0.667 0 0 0 0 0 0zM37.867 15.867c-0.533 0.133-1.067 0.133-1.467 0.4-0.667 0.267-0.933 0.667-0.933 1.467 0 0.667 0.4 1.2 0.933 1.467 0.933 0.4 2 0.267 2.8-0.267s1.067-1.333 1.067-2.267c0-0.267-0.133-0.4-0.267-0.4-0.8-0.133-1.467-0.267-2.133-0.4z"></path>
<path d="M48.533 16.533c-0.133 1.333 1.067 2.667 2.4 2.8 1.067 0.133 1.867-0.133 2.667-0.8 0.267-0.267 0.533-0.267 0.8 0 0.133 0.133 0.133 0.4 0 0.667-0.667 0.667-1.467 1.067-2.533 1.2s-2.133-0.133-3.067-0.8c-0.933-0.8-1.333-1.733-1.467-2.933-0.133-1.067 0.133-2.133 0.8-3.067 0.933-1.333 2.267-1.733 3.867-1.333 1.467 0.267 2.267 1.333 2.667 2.8 0.133 0.4 0.133 0.667 0.133 1.067s-0.133 0.667-0.667 0.667c-1.733 0-3.6 0-5.333 0 0-0.267-0.133-0.267-0.267-0.267zM48.533 15.733c0.133 0 0.267 0 0.4 0 1.333 0 2.8 0 4.133 0 0.8 0 0.8 0 0.533-0.8s-0.667-1.6-1.6-1.867c-1.867-0.8-3.467 0.933-3.467 2.667z"></path>
<path d="M44 13.867c0.133-0.133 0.133-0.267 0.133-0.267 0.533-0.933 1.333-1.467 2.267-1.6 0.133 0 0.267 0 0.267 0 0.4 0 0.533 0.267 0.533 0.533 0 0.4-0.133 0.533-0.533 0.667-1.867 0.267-2.8 1.733-2.933 3.467 0 1.067 0 2 0 3.067 0 0.4-0.267 0.667-0.533 0.667-0.4 0-0.667-0.267-0.667-0.533 0-0.4 0-0.8 0-1.333 0-1.867 0-3.867 0-5.733 0-0.4 0.267-0.667 0.667-0.667 0.267 0 0.533 0.267 0.533 0.667 0 0.267 0 0.667 0 0.933 0.267-0.133 0.267 0 0.267 0.133z"></path>
<path d="M56.133 11.6c0.533 0 0.933 0.4 0.933 0.933s-0.533 0.933-1.067 0.933c-0.533 0-0.933-0.4-0.933-1.067 0-0.4 0.4-0.8 1.067-0.8zM56.933 12.667c0-0.4-0.4-0.8-0.8-0.933-0.4 0-0.8 0.4-0.8 0.8 0 0.533 0.4 0.933 0.8 0.933s0.8-0.4 0.8-0.8z"></path>
<path d="M56.533 13.2h-0.267l-0.267-0.4h-0.133v0.4h-0.133v-1.067h0.4c0.133 0 0.133 0 0.267 0.133 0 0 0.133 0.133 0.133 0.267s0 0.133-0.133 0.267c0 0-0.133 0.133-0.133 0.133l0.267 0.267zM56.133 12.667c0 0 0.133 0 0 0 0.133-0.133 0.133-0.133 0.133-0.133s0-0.133 0-0.133-0.133 0-0.133 0h-0.267v0.267h0.267z"></path>
</svg>
