<svg version="1.1" xmlns="http://www.w3.org/2000/svg" width="32" height="32" viewBox="0 0 32 32">
<title>voice_laud_announcement_news</title>
<path d="M15.007 31.664c-0.242 0-0.528-0.068-0.857-0.255l-6.995-4.81c-0.303-0.208-0.38-0.624-0.172-0.927 0.21-0.303 0.625-0.38 0.927-0.172l6.948 4.78c0.090 0.048 0.15 0.052 0.15 0.052l0.704-0.749-6.792-4.763c-0.301-0.212-0.373-0.628-0.161-0.928 0.212-0.299 0.629-0.375 0.929-0.16l6.878 4.85c0.299 0.227 0.467 0.538 0.492 0.889 0.026 0.379-0.125 0.773-0.404 1.053l-0.778 0.776c-0.134 0.135-0.427 0.363-0.87 0.363z"></path>
<path d="M5.654 29.469c-0.176 0-0.346-0.070-0.471-0.195l-3.968-3.969c-0.141-0.141-0.212-0.337-0.192-0.535s0.126-0.378 0.29-0.488l2.691-1.815 1.656-1.685 8.417-16.124c0.098-0.188 0.281-0.318 0.49-0.35 0.212-0.035 0.423 0.038 0.572 0.187l10.85 10.85c0.15 0.15 0.22 0.363 0.187 0.572s-0.163 0.391-0.35 0.49l-16.123 8.414-1.7 1.701-1.799 2.658c-0.112 0.163-0.291 0.269-0.489 0.288-0.020 0.001-0.041 0.003-0.062 0.003zM2.727 24.932l2.83 2.829 1.425-2.089 1.853-1.867c0.048-0.048 0.103-0.089 0.163-0.12l15.407-8.042-9.566-9.565-8.041 15.407c-0.031 0.060-0.071 0.113-0.119 0.161l-1.829 1.84-2.123 1.444z"></path>
<path d="M28.664 11.933c-0.007 0-0.014 0-0.022-0.001-0.367-0.012-0.656-0.32-0.645-0.688 0.077-2.315-0.777-4.486-2.404-6.113-1.628-1.627-3.775-2.464-6.115-2.406-0.008 0.001-0.016 0.001-0.022 0.001-0.358 0-0.655-0.285-0.667-0.645-0.012-0.369 0.277-0.676 0.645-0.688 2.669-0.087 5.21 0.904 7.102 2.796 1.891 1.891 2.883 4.412 2.794 7.1-0.012 0.36-0.309 0.645-0.667 0.645z"></path>
<path d="M24.605 10.923c-0.016 0-0.030-0.001-0.046-0.001-0.367-0.024-0.645-0.342-0.621-0.709 0.061-0.93-0.279-1.839-0.934-2.494s-1.568-0.992-2.493-0.934c-0.405 0.013-0.686-0.255-0.71-0.622s0.254-0.685 0.621-0.709c1.325-0.081 2.599 0.395 3.525 1.322s1.408 2.211 1.322 3.524c-0.023 0.353-0.317 0.623-0.664 0.623z"></path>
<path d="M9.304 24.943c-0.171 0-0.341-0.065-0.471-0.195l-3.098-3.098c-0.26-0.26-0.26-0.682 0-0.943s0.682-0.26 0.943 0l3.098 3.098c0.26 0.26 0.26 0.682 0 0.943-0.13 0.13-0.301 0.195-0.471 0.195z"></path>
<path d="M7.532 26.716c-0.166 0-0.333-0.061-0.462-0.186l-3.155-3.031c-0.266-0.255-0.274-0.677-0.019-0.943 0.255-0.264 0.677-0.275 0.942-0.018l3.155 3.031c0.266 0.255 0.274 0.677 0.019 0.943-0.131 0.136-0.305 0.205-0.48 0.205z"></path>
</svg>
