<!-- Generated by IcoMoon.io -->
<svg version="1.1" xmlns="http://www.w3.org/2000/svg" width="32" height="32" viewBox="0 0 32 32">
<title>voice_laud_announcement_news</title>
<path d="M28.3 11.7c-0.1 0-0.2 0-0.3 0v-7.8c0-0.8-0.5-1.5-1.3-1.8-0.7-0.3-1.5 0-2 0.5-0.1 0.2-5.2 6.4-9.7 6.4h-10c-1.1 0-2 0.9-2 2v0.5c-0.5 0.5-1 1.3-1 2.5s0.5 2.1 1 2.5v0.5c0 1.1 0.9 2 2 2h3v9.5c0 0.8 0.7 1.5 1.5 1.5h3.3c1.1 0 2-0.9 2-2 0-0.2 0-0.4-0.1-0.6 0 0 0 0 0 0-0.2-0.5-0.3-1-0.6-1.5-0.5-1.1-1-2.3-1.1-3.9 1.1 0 2-0.9 2-2v-1c4.5 0 9.7 6.3 9.7 6.4 0.3 0.4 0.8 0.6 1.3 0.6 0.2 0 0.4 0 0.7-0.1 0.8-0.3 1.3-1 1.3-1.7v-7.8c0.1 0 0.2 0 0.3 0 0.6-0.2 1.7-0.9 1.7-2.3s-1.1-2.3-1.7-2.4zM6 17h-1v-0.8c0-0.2 0-0.3 0-0.5v-3.7c0 0 0 0 0 0v-1h1v6zM13 20h-1c-0.6 0-1 0.4-1 1 0 2.5 0.7 4.3 1.3 5.7 0.2 0.5 0.4 0.9 0.5 1.3h-2.8v-9h3v1zM15 17h-7v-6h7v6zM26 23.8c-1-1.2-4.8-5.4-9-6.5v-6.6c4.2-1.1 8-5.3 9-6.5v19.6z"></path>
</svg>
