<!-- Generated by IcoMoon.io -->
<svg version="1.1" xmlns="http://www.w3.org/2000/svg" width="32" height="32" viewBox="0 0 32 32">
<title>voice_laud_announcement_news</title>
<path fill="none" stroke-linejoin="round" stroke-linecap="round" stroke-miterlimit="4" stroke-width="2" stroke="#000" d="M25.496 3.264s-5.415 6.736-10.496 6.736h-10c-0.552 0-1 0.448-1 1v0 6c0 0.552 0.448 1 1 1v0h10c5.081 0 10.496 6.764 10.496 6.764 0.379 0.5 1.504 0.157 1.504-0.614v-20.275c0-0.769-1.063-1.176-1.504-0.611zM4 16s-1-0.375-1-2 1-2 1-2M28 15.375s1-0.271 1-1.375-1-1.375-1-1.375M16 10v8M7 10v8"></path>
<path fill="none" stroke-linejoin="round" stroke-linecap="round" stroke-miterlimit="4" stroke-width="2" stroke="#000" d="M9 18v10.5c0 0.276 0.224 0.5 0.5 0.5v0h3.313c0 0 0 0 0 0 0.552 0 1-0.448 1-1 0-0.106-0.016-0.207-0.047-0.303l0.002 0.007c-0.524-1.68-1.768-3.574-1.768-6.704h1c0.552 0 1-0.448 1-1v0-1c0-0.552-0.448-1-1-1v0h-1"></path>
</svg>
