<!-- Generated by IcoMoon.io -->
<svg version="1.1" xmlns="http://www.w3.org/2000/svg" width="32" height="32" viewBox="0 0 32 32">
<title>voronoi2</title>
<path d="M30.975 30.041l-0.616-0.728v-0.006l-9.791-11.359 1.087-5.103 7.691 1.144c0.012 0.003 0.034 0.009 0.059 0.012l0.962 0.153c0.031 0.006 0.066 0.006 0.097 0.006 0.303 0 0.569-0.225 0.616-0.525l0.006-0.041c0.053-0.341-0.178-0.659-0.519-0.716l-0.212-0.034v-0.006l-0.419-0.059-0.337-0.053c-0.016-0.003-0.028-0.003-0.041-0.006-0.003 0-0.009 0-0.012 0l-7.647-1.141-0.281-0.578 3.919-8.103c0.025-0.038 0.050-0.078 0.072-0.122l0.247-0.531 0.416-0.863h-0.069c0.012-0.119-0.006-0.241-0.047-0.356-0.075-0.2-0.222-0.359-0.419-0.45l-0.003-0.003-0.016-0.006c-0.103-0.047-0.216-0.072-0.328-0.072-0.316 0-0.603 0.184-0.731 0.469l-0.191 0.416-4.259 8.813-6.741-1.797-1.822-7.009h-0.012l-0.053-0.206c-0.094-0.356-0.416-0.603-0.781-0.603-0.069 0-0.134 0.009-0.203 0.025-0.428 0.113-0.688 0.553-0.578 0.984l0.316 1.216 1.606 6.191-2.494 4.209-5.456-2.597c-0.025-0.016-0.056-0.034-0.091-0.050l-2.081-0.981c-0.109-0.050-0.225-0.078-0.347-0.078-0.316 0-0.606 0.184-0.738 0.469-0.094 0.197-0.103 0.419-0.028 0.622 0.075 0.206 0.222 0.369 0.419 0.463l1.431 0.672 5.897 2.809-6.813 8.294v0.009l-0.622 0.756c-0.225 0.275-0.188 0.681 0.087 0.906 0.116 0.094 0.259 0.147 0.409 0.147 0.194 0 0.375-0.084 0.5-0.234l1.175-1.431c0.025-0.034 0.047-0.066 0.066-0.1l6.706-8.166 3.853 4.397-4.519 10.456c-0.009 0.019-0.022 0.044-0.031 0.069l-0.166 0.391-0.256 0.594h0.019c-0.063 0.303 0.097 0.619 0.391 0.744l0.119 0.050c0.081 0.034 0.166 0.050 0.253 0.050 0.266 0 0.506-0.159 0.613-0.403l0.366-0.869c0.016-0.031 0.025-0.066 0.034-0.1l4.503-10.422 4.722-0.791 10.244 11.894c0.103 0.125 0.256 0.197 0.422 0.197 0 0 0 0 0 0 0.131 0 0.256-0.047 0.356-0.131l0.019-0.019c0.113-0.094 0.181-0.228 0.194-0.375 0.016-0.144-0.028-0.288-0.122-0.4zM20.425 12.109l-1.137 5.344-4.416 0.741-3.969-4.528 2.294-3.869 7.016 1.869 0.212 0.444z"></path>
<path d="M15.559 13.328h1.512v1.512h-1.512v-1.512z"></path>
<path d="M16.878 22.734h1.512v1.512h-1.512v-1.512z"></path>
<path d="M23.913 16.447h1.512v1.512h-1.512v-1.512z"></path>
<path d="M25.153 7.55h1.512v1.513h-1.512v-1.513z"></path>
<path d="M17.634 3.388h1.512v1.513h-1.512v-1.513z"></path>
<path d="M5.341 7.55h1.513v1.513h-1.513v-1.513z"></path>
<path d="M3.022 13.759h1.512v1.512h-1.513c0 0 0-1.512 0-1.512z"></path>
<path d="M8.719 18.712h1.512v1.512h-1.512v-1.512z"></path>
</svg>
