<svg version="1.1" xmlns="http://www.w3.org/2000/svg" width="32" height="32" viewBox="0 0 32 32">
<title>voronoi</title>
<path d="M16 14.12h1.512v1.512h-1.512v-1.512z"></path>
<path d="M17.319 23.528h1.512v1.512h-1.512v-1.512z"></path>
<path d="M24.352 17.238h1.512v1.512h-1.512v-1.512z"></path>
<path d="M25.593 8.34h1.512v1.512h-1.512v-1.512z"></path>
<path d="M18.075 4.18h1.512v1.512h-1.512v-1.512z"></path>
<path d="M5.781 8.34h1.512v1.512h-1.512v-1.512z"></path>
<path d="M3.463 14.552h1.512v1.512h-1.512v-1.512z"></path>
<path d="M9.159 19.504h1.512v1.512h-1.512v-1.512z"></path>
<path d="M9.807 14.427l0.216-0.263-0.065-0.054-0.15 0.314z"></path>
<path d="M9.593 14.876l0.214-0.449-0.325 0.396z"></path>
<path d="M9.344 14.203l0.464 0.221 0.15-0.314-0.321-0.264z"></path>
<path d="M31.991 30.938h-0.543l0.543 0.63z"></path>
<path d="M31.704 32h0.287v-0.433l-0.543-0.63h-0.66z"></path>
<path d="M9.482 14.823l0.111 0.053 0.131-0.275-0.031-0.035z"></path>
<path d="M9.344 14.203l0.056 0.027-0.014-0.016 0.129-0.218z"></path>
<path d="M31.991 0.064h-31.991v31.981h0.009v0.019l31.991-0.019v-31.981h-0.009zM26.446 1.406h4.147v11.614l-8.605-1.283-0.268-0.552 4.726-9.779zM24.572 1.406l-4.316 8.931-6.7-1.787-1.851-7.144h12.867zM20.489 12.514l-1.132 5.312-4.376 0.734-3.943-4.499 2.269-3.83 6.978 1.861 0.205 0.423zM1.406 1.406h8.555l2.012 7.763-2.473 4.174-8.095-3.856v-8.082zM1.406 11.357l7.066 3.365-7.066 8.601v-11.967zM8.816 30.938h-7.753v-5.078l8.965-10.913 3.817 4.354-5.028 11.637zM10.45 30.938l4.778-11.058 4.69-0.786 10.21 11.844h-19.678zM30.938 30.035l-10.27-11.913 1.079-5.062 9.191 1.37v15.605z"></path>
</svg>
