<svg version="1.1" xmlns="http://www.w3.org/2000/svg" width="32" height="32" viewBox="0 0 32 32">
<title>vote_ticket_paper_voting</title>
<path d="M30 32h-28c-0.369 0-0.667-0.298-0.667-0.667v-13.333c0-0.369 0.298-0.667 0.667-0.667h28c0.369 0 0.667 0.298 0.667 0.667v13.333c0 0.369-0.298 0.667-0.667 0.667zM2.667 30.667h26.667v-12h-26.667v12z"></path>
<path d="M30 18.667h-28c-0.262 0-0.499-0.154-0.607-0.392s-0.066-0.517 0.106-0.714l4.672-5.334c0.126-0.145 0.309-0.227 0.501-0.227h3.328c0.369 0 0.667 0.298 0.667 0.667s-0.298 0.667-0.667 0.667h-3.026l-3.504 4h25.069l-3.471-4h-4.401c-0.369 0-0.667-0.298-0.667-0.667s0.298-0.667 0.667-0.667h4.706c0.193 0 0.376 0.084 0.504 0.23l4.628 5.333c0.171 0.198 0.211 0.477 0.103 0.715-0.108 0.237-0.345 0.389-0.607 0.389z"></path>
<path d="M20.667 16h-10.667c-0.369 0-0.667-0.298-0.667-0.667v-9.333c0-0.369 0.298-0.667 0.667-0.667h7.987c0.369 0 0.667 0.298 0.667 0.667s-0.298 0.667-0.667 0.667h-7.32v8h9.333v-7.468c0-0.369 0.298-0.667 0.667-0.667s0.667 0.298 0.667 0.667v8.135c0 0.369-0.298 0.667-0.667 0.667z"></path>
<path d="M11.592 6.666c-0.12 0-0.242-0.032-0.352-0.1-0.313-0.195-0.408-0.605-0.214-0.917 0.109-0.175 2.698-4.275 6.534-4.416 0.901-0.033 1.689-0.010 2.398 0.012 1.909 0.055 3.073 0.093 4.43-1.015 0.284-0.232 0.703-0.192 0.939 0.094 0.232 0.285 0.19 0.706-0.095 0.938-1.745 1.424-3.322 1.376-5.315 1.315-0.685-0.021-1.443-0.045-2.307-0.013-3.122 0.115-5.428 3.751-5.451 3.788-0.126 0.203-0.344 0.314-0.566 0.314z"></path>
<path d="M16.518 10.171c-0.285 0-0.567-0.072-0.827-0.215-0.566-0.313-0.941-0.931-0.954-1.575-0.012-0.626 0.307-1.181 0.876-1.525l3.348-2.354c0.299-0.212 0.716-0.139 0.928 0.162 0.211 0.301 0.139 0.717-0.163 0.929l-3.385 2.379c-0.198 0.121-0.273 0.238-0.271 0.382 0.004 0.171 0.113 0.35 0.266 0.434 0.139 0.076 0.301 0.062 0.487-0.050 0.059-0.035 0.12-0.060 0.182-0.075 1.329-1.014 4.689-2.727 4.729-2.738 1.854-0.546 4.4-2.010 6.208-3.143 0.315-0.193 0.724-0.101 0.919 0.212s0.1 0.723-0.211 0.919c-1.88 1.176-4.54 2.703-6.539 3.291-0.492 0.159-3.925 2.248-4.544 2.64-0.005 0.004-0.010 0.008-0.016 0.011 0 0 0 0.001-0.001 0.001 0 0 0 0 0 0.001-0.013 0.008-0.025 0.017-0.038 0.025-0.32 0.192-0.66 0.29-0.995 0.29z"></path>
<path d="M23.042 16h-2.375c-0.369 0-0.667-0.298-0.667-0.667s0.298-0.667 0.667-0.667h2.375c0.369 0 0.667 0.298 0.667 0.667s-0.298 0.667-0.667 0.667z"></path>
<path d="M10 16h-1.333c-0.369 0-0.667-0.298-0.667-0.667s0.298-0.667 0.667-0.667h1.333c0.369 0 0.667 0.298 0.667 0.667s-0.298 0.667-0.667 0.667z"></path>
</svg>
