<!-- Generator: Adobe Illustrator 28.1.0, SVG Export Plug-In . SVG Version: 6.00 Build 0)  -->
<svg version="1.1" xmlns="http://www.w3.org/2000/svg" viewBox="0 0 32 32" width="32" height="32">
	<title>walkthrough</title>
	<desc>walkthrough,guide,tutorial,step,overview,simulation,flow,tour,journey,path,way,arrow,point,dot,line</desc>
<path d="M31.5,4.8l-4.3-4.4c-0.1-0.2-0.3-0.3-0.5-0.3c-0.2,0-0.4,0-0.6,0.1c-0.2,0.1-0.4,0.2-0.5,0.4c-0.1,0.2-0.2,0.4-0.2,0.6v3.3
	C19.8,4,14.8,8.3,14.8,14.2v4.8c0,1.8-0.7,3.6-1.8,5c-1.2,1.4-2.8,2.2-4.6,2.5c-1.4-5-8.4-4.1-8.5,1.2C0,33,7.1,33.8,8.4,28.7
	c2.3-0.2,4.5-1.3,6.1-3.1c1.6-1.8,2.5-4.1,2.5-6.5v-4.8c0-2,0.8-3.9,2.1-5.3c1.4-1.4,3.2-2.2,5.1-2.2h1.3V10c0,0.2,0.1,0.4,0.2,0.6
	c0.1,0.2,0.3,0.3,0.5,0.4c0.2,0.1,0.4,0.1,0.6,0.1c0.2,0,0.4-0.1,0.5-0.3l4.3-4.4c0.1-0.1,0.2-0.2,0.2-0.4c0.1-0.1,0.1-0.3,0.1-0.4
	c0-0.1,0-0.3-0.1-0.4C31.7,5.1,31.6,5,31.5,4.8z"/>
</svg>
