<svg version="1.1" xmlns="http://www.w3.org/2000/svg" width="32" height="32" viewBox="0 0 32 32">
<title>wall_paint_color</title>
<path d="M26.396 8.004h-20.827c-0.844 0-1.53-0.775-1.53-1.728v-4.402c0-0.903 0.615-1.87 1.53-1.87h20.827c0.926 0 1.643 1.005 1.643 1.87v4.402c0 0.921-0.768 1.728-1.643 1.728zM26.38 1.336l-20.811 0.001c-0.048 0.033-0.197 0.283-0.197 0.537v4.402c0 0.237 0.14 0.395 0.197 0.395h20.827c0.099 0 0.31-0.187 0.31-0.395v-4.402c0-0.234-0.224-0.511-0.325-0.538z"></path>
<path d="M16.039 19.849c-0.369 0-0.667-0.298-0.667-0.667v-3.516c0-1.936 1.38-3.484 3.355-3.768l8.914-1.244c1.32-0.189 2.21-1.173 2.21-2.448v-0.906c0-1.432-1.066-2.511-2.479-2.511-0.369 0-0.667-0.298-0.667-0.667s0.298-0.667 0.667-0.667c2.138 0 3.813 1.689 3.813 3.844v0.906c0 1.935-1.38 3.484-3.355 3.768l-8.914 1.244c-1.32 0.189-2.21 1.173-2.21 2.447v3.516c0 0.369-0.298 0.667-0.667 0.667z"></path>
<path d="M4.706 4.706h-1.333c-0.369 0-0.667-0.298-0.667-0.667s0.298-0.667 0.667-0.667h1.333c0.369 0 0.667 0.298 0.667 0.667s-0.298 0.667-0.667 0.667z"></path>
<path d="M18.039 32.004h-4c-0.369 0-0.667-0.298-0.667-0.667v-9.333c0-0.369 0.298-0.667 0.667-0.667h4c0.369 0 0.667 0.298 0.667 0.667v9.333c0 0.369-0.298 0.667-0.667 0.667zM14.706 30.671h2.667v-8h-2.667v8z"></path>
</svg>
