<svg version="1.1" xmlns="http://www.w3.org/2000/svg" width="32" height="32" viewBox="0 0 32 32">
<title>wall_picture_image_photo</title>
<path d="M7.44 18.603c-1.805 0-3.274-1.469-3.274-3.273s1.469-3.274 3.274-3.274 3.274 1.469 3.274 3.274c-0 1.805-1.469 3.273-3.274 3.273zM7.44 13.389c-1.070 0-1.941 0.87-1.941 1.941s0.87 1.94 1.941 1.94 1.941-0.87 1.941-1.94-0.871-1.941-1.941-1.941z"></path>
<path d="M7.186 29.34c-0.137 0-0.274-0.042-0.393-0.129-0.297-0.217-0.361-0.634-0.144-0.931l8.043-10.99c0.125-0.172 0.324-0.273 0.536-0.273 0.001 0 0.001 0 0.002 0 0.211 0 0.409 0.1 0.536 0.269l2.916 3.935 3.97-6.246c0.12-0.189 0.325-0.305 0.548-0.309 0.005 0 0.010 0 0.014 0 0.217 0 0.423 0.107 0.547 0.286l5.491 7.899c0.211 0.302 0.135 0.717-0.167 0.927s-0.717 0.135-0.927-0.167l-4.919-7.075-3.953 6.219c-0.117 0.185-0.319 0.301-0.539 0.309-0.216-0.013-0.428-0.094-0.559-0.269l-2.955-3.987-7.509 10.259c-0.13 0.178-0.333 0.273-0.538 0.273z"></path>
<path d="M30.031 32h-28.074c-1.089 0-1.975-0.857-1.975-1.909v-20.081c-0-1.071 0.923-2.010 1.975-2.010h7.809l4.633-4.751c0.258-0.264 0.68-0.267 0.943-0.012 0.264 0.257 0.269 0.679 0.012 0.943l-4.829 4.953c-0.126 0.129-0.298 0.201-0.477 0.201h-8.090c-0.318 0-0.642 0.342-0.642 0.677v20.081c0 0.306 0.3 0.576 0.642 0.576h28.074c0.335 0 0.617-0.263 0.617-0.575v-20.081c-0-0.342-0.306-0.677-0.617-0.677h-8.090c-0.18 0-0.352-0.072-0.478-0.201l-4.831-4.953c-0.257-0.264-0.251-0.686 0.013-0.943 0.262-0.256 0.684-0.251 0.943 0.012l4.634 4.752h7.809c1.039 0 1.951 0.939 1.951 2.010v20.081c0 1.052-0.875 1.909-1.951 1.909z"></path>
<path d="M15.994 4.837c-1.251 0-2.269-1.018-2.269-2.269s1.018-2.269 2.269-2.269c1.251 0 2.269 1.018 2.269 2.269s-1.018 2.269-2.269 2.269zM15.994 1.632c-0.516 0-0.936 0.42-0.936 0.936s0.42 0.936 0.936 0.936 0.936-0.42 0.936-0.936-0.419-0.936-0.936-0.936z"></path>
<path d="M21.941 9.333h-11.895c-0.369 0-0.667-0.298-0.667-0.667s0.298-0.667 0.667-0.667h11.895c0.369 0 0.667 0.298 0.667 0.667s-0.298 0.667-0.667 0.667z"></path>
</svg>
