<!-- Generated by IcoMoon.io -->
<svg version="1.1" xmlns="http://www.w3.org/2000/svg" width="32" height="32" viewBox="0 0 32 32">
<title>weather_sun_summer</title>
<path d="M8.2 22.4l-2.1 2.1c-0.4 0.4-0.4 1 0 1.4 0.2 0.2 0.5 0.3 0.7 0.3s0.5-0.1 0.7-0.3l2.1-2.1c0.4-0.4 0.4-1 0-1.4s-1-0.4-1.4 0z"></path>
<path d="M7 16c0-0.6-0.4-1-1-1h-3c-0.6 0-1 0.4-1 1s0.4 1 1 1h3c0.6 0 1-0.4 1-1z"></path>
<path d="M7.5 6.1c-0.4-0.4-1-0.4-1.4 0s-0.4 1 0 1.4l2.1 2.1c0.2 0.2 0.5 0.3 0.7 0.3s0.5-0.1 0.7-0.3c0.4-0.4 0.4-1 0-1.4l-2.1-2.1z"></path>
<path d="M16 7c0.6 0 1-0.4 1-1v-3c0-0.6-0.4-1-1-1s-1 0.4-1 1v3c0 0.6 0.4 1 1 1z"></path>
<path d="M23.1 9.9c0.3 0 0.5-0.1 0.7-0.3l2.1-2.1c0.4-0.4 0.4-1 0-1.4s-1-0.4-1.4 0l-2.1 2.1c-0.4 0.4-0.4 1 0 1.4 0.2 0.2 0.4 0.3 0.7 0.3z"></path>
<path d="M16 25c-0.6 0-1 0.4-1 1v3c0 0.6 0.4 1 1 1s1-0.4 1-1v-3c0-0.6-0.4-1-1-1z"></path>
<path d="M29 15h-3c-0.6 0-1 0.4-1 1s0.4 1 1 1h3c0.6 0 1-0.4 1-1s-0.4-1-1-1z"></path>
<path d="M23.8 22.4c-0.4-0.4-1-0.4-1.4 0s-0.4 1 0 1.4l2.1 2.1c0.2 0.2 0.5 0.3 0.7 0.3s0.5-0.1 0.7-0.3c0.4-0.4 0.4-1 0-1.4l-2.1-2.1z"></path>
<path d="M16 10c-3.3 0-6 2.7-6 6s2.7 6 6 6 6-2.7 6-6-2.7-6-6-6zM16 20c-2.2 0-4-1.8-4-4s1.8-4 4-4c2.2 0 4 1.8 4 4s-1.8 4-4 4z"></path>
</svg>
