<!-- Generated by IcoMoon.io -->
<svg version="1.1" xmlns="http://www.w3.org/2000/svg" width="32" height="32" viewBox="0 0 32 32">
<title>weather_moon</title>
<path d="M29.7 20.3c-0.3-0.3-0.7-0.4-1.1-0.2-1.4 0.6-3.1 0.9-5.1 0.9-6.9 0-12.5-5.6-12.5-12.5 0-2 0.3-3.7 0.9-5.1 0.2-0.4 0.1-0.8-0.2-1.1s-0.7-0.4-1.1-0.2c-5.2 2.3-8.6 7.5-8.6 13.4 0 8 6.5 14.5 14.5 14.5 5.9 0 11.1-3.4 13.4-8.6 0.2-0.4 0.1-0.8-0.2-1.1zM16.5 28c-6.9 0-12.5-5.6-12.5-12.5 0-4.2 2-8.1 5.3-10.4-0.2 1-0.3 2.2-0.3 3.4 0 8 6.5 14.5 14.5 14.5 1.2 0 2.4-0.1 3.4-0.3-2.3 3.3-6.2 5.3-10.4 5.3z"></path>
</svg>
