<svg version="1.1" xmlns="http://www.w3.org/2000/svg" width="32" height="32" viewBox="0 0 32 32">
<title>wi-fi_wlan_connect_internet2</title>
<path d="M7.659 12.435c-0.159 0-0.319-0.057-0.447-0.172-0.273-0.247-0.295-0.668-0.048-0.941 2.324-2.574 5.467-3.991 8.85-3.991s6.526 1.417 8.849 3.991c0.247 0.273 0.225 0.695-0.048 0.941-0.275 0.247-0.695 0.225-0.941-0.048-2.068-2.29-4.858-3.551-7.859-3.551s-5.793 1.261-7.861 3.551c-0.131 0.146-0.313 0.22-0.495 0.22z"></path>
<path d="M28.419 8.234c-0.18 0-0.358-0.072-0.49-0.215-3.152-3.415-7.384-5.297-11.917-5.297-4.531 0-8.762 1.881-11.914 5.297-0.25 0.271-0.673 0.286-0.942 0.038-0.271-0.25-0.288-0.672-0.038-0.942 3.407-3.693 7.987-5.727 12.895-5.727 4.909 0 9.488 2.034 12.896 5.727 0.25 0.27 0.233 0.692-0.038 0.942-0.128 0.118-0.291 0.177-0.452 0.177z"></path>
<path d="M11.708 16.635c-0.152 0-0.305-0.052-0.43-0.158-0.281-0.237-0.316-0.658-0.079-0.939 1.217-1.441 2.972-2.267 4.813-2.267 1.842 0 3.598 0.826 4.815 2.267 0.238 0.281 0.202 0.701-0.078 0.939-0.283 0.237-0.702 0.202-0.94-0.078-0.964-1.141-2.348-1.795-3.797-1.795-1.448 0-2.831 0.654-3.795 1.795-0.131 0.155-0.32 0.236-0.51 0.236z"></path>
<path d="M21.934 29.117c-0.369 0-0.667-0.298-0.667-0.667v-6.309c0-0.369 0.298-0.667 0.667-0.667h4.060c0.369 0 0.667 0.298 0.667 0.667s-0.298 0.667-0.667 0.667h-3.393v5.642c0 0.369-0.298 0.667-0.667 0.667z"></path>
<path d="M25.398 25.964h-3.465c-0.369 0-0.667-0.298-0.667-0.667s0.298-0.667 0.667-0.667h3.465c0.369 0 0.667 0.298 0.667 0.667s-0.298 0.667-0.667 0.667z"></path>
<path d="M8.925 29.117c-0.281 0-0.532-0.176-0.627-0.44l-1.643-4.556-1.617 4.552c-0.094 0.266-0.345 0.443-0.626 0.444-0.001 0-0.001 0-0.002 0-0.281 0-0.532-0.176-0.627-0.44l-2.275-6.309c-0.125-0.346 0.055-0.729 0.401-0.854 0.346-0.121 0.728 0.056 0.853 0.401l1.643 4.556 1.617-4.552c0.094-0.266 0.345-0.443 0.626-0.444 0.001 0 0.001 0 0.002 0 0.281 0 0.532 0.176 0.627 0.44l1.643 4.556 1.617-4.552c0.123-0.348 0.501-0.534 0.852-0.405 0.347 0.122 0.528 0.504 0.405 0.85l-2.24 6.309c-0.094 0.266-0.345 0.443-0.626 0.444-0.001 0-0.001 0-0.002 0z"></path>
<path d="M13.993 29.117c-0.369 0-0.667-0.298-0.667-0.667v-6.309c0-0.369 0.298-0.667 0.667-0.667s0.667 0.298 0.667 0.667v6.309c0 0.369-0.298 0.667-0.667 0.667z"></path>
<path d="M28.654 29.117c-0.369 0-0.667-0.298-0.667-0.667v-6.309c0-0.369 0.298-0.667 0.667-0.667s0.667 0.298 0.667 0.667v6.309c0 0.369-0.298 0.667-0.667 0.667z"></path>
<path d="M19.077 26.616h-2.016c-0.369 0-0.667-0.298-0.667-0.667s0.298-0.667 0.667-0.667h2.016c0.369 0 0.667 0.298 0.667 0.667s-0.298 0.667-0.667 0.667z"></path>
</svg>
