<svg version="1.1" xmlns="http://www.w3.org/2000/svg" width="32" height="32" viewBox="0 0 32 32">
<title>wi-fi_wlan_connect_internet_signal_antenna2</title>
<path d="M16 18.771c-1.527 0-2.77-1.243-2.77-2.771s1.243-2.77 2.77-2.77 2.771 1.243 2.771 2.77-1.243 2.771-2.771 2.771zM16 14.563c-0.792 0-1.437 0.645-1.437 1.437s0.645 1.437 1.437 1.437c0.793 0 1.437-0.645 1.437-1.437s-0.645-1.437-1.437-1.437z"></path>
<path d="M7.031 25.743c-0.163 0-0.327-0.060-0.456-0.18-2.683-2.513-4.161-5.909-4.161-9.564s1.477-7.051 4.161-9.564c0.269-0.251 0.691-0.237 0.942 0.031 0.252 0.269 0.238 0.691-0.031 0.942-2.411 2.259-3.739 5.309-3.739 8.591s1.328 6.333 3.739 8.59c0.269 0.253 0.283 0.675 0.031 0.943-0.131 0.141-0.309 0.211-0.486 0.211z"></path>
<path d="M10.792 21.344c-0.156 0-0.313-0.055-0.439-0.165-1.496-1.311-2.354-3.199-2.354-5.178s0.858-3.867 2.354-5.178c0.275-0.242 0.698-0.216 0.941 0.062 0.243 0.277 0.215 0.698-0.062 0.941-1.208 1.059-1.9 2.58-1.9 4.176s0.692 3.117 1.9 4.176c0.277 0.242 0.305 0.664 0.062 0.94-0.131 0.151-0.316 0.228-0.501 0.228z"></path>
<path d="M24.969 25.743c-0.178 0-0.355-0.070-0.487-0.211-0.251-0.269-0.237-0.691 0.031-0.943 2.411-2.257 3.74-5.306 3.74-8.587 0-3.283-1.328-6.335-3.74-8.594-0.268-0.251-0.283-0.673-0.031-0.942 0.251-0.268 0.673-0.283 0.943-0.031 2.684 2.513 4.161 5.911 4.161 9.566 0 3.654-1.478 7.049-4.161 9.561-0.129 0.12-0.293 0.179-0.456 0.179z"></path>
<path d="M21.207 21.344c-0.185 0-0.37-0.077-0.501-0.228-0.242-0.276-0.215-0.698 0.063-0.94 1.207-1.059 1.9-2.581 1.9-4.176s-0.693-3.117-1.9-4.176c-0.277-0.243-0.305-0.664-0.063-0.941 0.242-0.278 0.664-0.303 0.94-0.062 1.497 1.312 2.355 3.199 2.355 5.178s-0.858 3.867-2.355 5.178c-0.126 0.111-0.283 0.165-0.439 0.165z"></path>
</svg>
