<svg version="1.1" xmlns="http://www.w3.org/2000/svg" width="32" height="32" viewBox="0 0 32 32">
<title>wi-fi_wlan_connect_internet_signal_antenna</title>
<path d="M19.913 32h-7.826c-0.199 0-0.388-0.089-0.515-0.243-0.126-0.154-0.178-0.355-0.139-0.551l3.637-18.581c0.071-0.361 0.415-0.6 0.783-0.526 0.051 0.010 0.1 0.026 0.146 0.047 0.046-0.021 0.095-0.036 0.147-0.047 0.353-0.069 0.711 0.165 0.781 0.526l3.639 18.581c0.039 0.195-0.012 0.397-0.139 0.551-0.126 0.155-0.315 0.243-0.514 0.243zM12.897 30.667h6.206l-3.103-15.846-3.102 15.846z"></path>
<path d="M16 13.445c-1.189 0-2.158-0.968-2.158-2.158s0.968-2.158 2.158-2.158c1.19 0 2.159 0.968 2.159 2.158s-0.969 2.158-2.159 2.158zM16 10.462c-0.454 0-0.824 0.37-0.824 0.825s0.37 0.825 0.824 0.825c0.456 0 0.825-0.37 0.825-0.825s-0.37-0.825-0.825-0.825z"></path>
<path d="M8.283 18.389c-0.163 0-0.327-0.060-0.456-0.18-1.942-1.819-3.012-4.278-3.012-6.924 0.001-2.644 1.070-5.102 3.012-6.921 0.269-0.249 0.691-0.236 0.943 0.031 0.251 0.269 0.238 0.691-0.031 0.943-1.67 1.563-2.589 3.675-2.59 5.947 0 2.273 0.92 4.386 2.59 5.95 0.269 0.253 0.283 0.675 0.031 0.943-0.131 0.141-0.309 0.211-0.486 0.211z"></path>
<path d="M5.163 21.509c-0.166 0-0.332-0.061-0.461-0.185-2.772-2.654-4.298-6.218-4.298-10.036s1.527-7.383 4.298-10.037c0.264-0.255 0.687-0.245 0.943 0.021s0.245 0.688-0.021 0.943c-2.507 2.399-3.887 5.622-3.887 9.074s1.38 6.673 3.887 9.073c0.266 0.255 0.275 0.677 0.021 0.943-0.131 0.137-0.307 0.206-0.482 0.206z"></path>
<path d="M11.402 15.269c-0.156 0-0.313-0.055-0.439-0.165-1.103-0.967-1.735-2.357-1.735-3.816s0.632-2.851 1.735-3.818c0.275-0.242 0.697-0.216 0.941 0.062 0.243 0.277 0.215 0.698-0.062 0.941-0.814 0.713-1.281 1.74-1.281 2.815s0.467 2.1 1.281 2.814c0.277 0.243 0.305 0.664 0.062 0.941-0.131 0.15-0.316 0.227-0.501 0.227z"></path>
<path d="M23.717 18.389c-0.178 0-0.355-0.070-0.487-0.211-0.251-0.268-0.237-0.69 0.031-0.943 1.669-1.564 2.589-3.676 2.589-5.949s-0.919-4.385-2.589-5.949c-0.268-0.251-0.283-0.673-0.031-0.942 0.254-0.268 0.673-0.282 0.943-0.031 1.941 1.818 3.010 4.276 3.010 6.921s-1.069 5.103-3.010 6.923c-0.129 0.12-0.292 0.179-0.456 0.179z"></path>
<path d="M26.836 21.509c-0.176 0-0.35-0.069-0.482-0.206-0.254-0.266-0.245-0.687 0.021-0.943 2.508-2.4 3.888-5.623 3.888-9.075-0.001-3.451-1.381-6.673-3.888-9.071-0.266-0.255-0.275-0.676-0.021-0.943 0.257-0.264 0.677-0.276 0.943-0.021 2.772 2.653 4.298 6.216 4.299 10.035 0 3.82-1.527 7.385-4.299 10.039-0.129 0.123-0.296 0.185-0.461 0.185z"></path>
<path d="M20.598 15.269c-0.185 0-0.37-0.077-0.501-0.227-0.242-0.277-0.215-0.698 0.063-0.941 0.814-0.714 1.28-1.74 1.28-2.814s-0.466-2.101-1.28-2.814c-0.277-0.243-0.305-0.664-0.063-0.941 0.242-0.278 0.664-0.303 0.94-0.062 1.104 0.967 1.736 2.358 1.736 3.817s-0.631 2.851-1.736 3.817c-0.126 0.111-0.283 0.165-0.439 0.165z"></path>
</svg>
