<svg version="1.1" xmlns="http://www.w3.org/2000/svg" width="32" height="32" viewBox="0 0 32 32">
<title>wi-fi_wlan_router</title>
<path d="M30.038 29.333h-27.98c-1.135 0-2.058-0.889-2.058-1.982v-6.589c0-1.117 0.962-2.096 2.058-2.096h27.98c1.082 0 1.962 0.94 1.962 2.096v6.587c0 1.112-0.862 1.983-1.962 1.983zM2.058 20c-0.366 0-0.725 0.378-0.725 0.763v6.589c0 0.401 0.376 0.648 0.725 0.648h27.98c0.37 0 0.629-0.267 0.629-0.65v-6.587c0-0.414-0.288-0.763-0.629-0.763h-27.98z"></path>
<path d="M25.361 25.799c-0.977 0-1.772-0.796-1.772-1.772s0.796-1.772 1.772-1.772 1.772 0.796 1.772 1.772-0.796 1.772-1.772 1.772zM25.361 23.589c-0.242 0-0.439 0.197-0.439 0.439s0.197 0.439 0.439 0.439 0.439-0.197 0.439-0.439-0.197-0.439-0.439-0.439z"></path>
<path d="M13.13 14.886c-0.178 0-0.355-0.071-0.487-0.211-0.251-0.269-0.238-0.691 0.031-0.943 1.301-1.217 2.017-2.863 2.017-4.632s-0.716-3.416-2.017-4.634c-0.269-0.251-0.283-0.673-0.031-0.942 0.25-0.27 0.672-0.283 0.942-0.031 1.573 1.473 2.439 3.464 2.439 5.607s-0.867 4.133-2.439 5.605c-0.129 0.12-0.292 0.18-0.456 0.18z"></path>
<path d="M16 17.367c-0.176 0-0.351-0.069-0.482-0.206-0.255-0.266-0.245-0.687 0.021-0.943 1.967-1.882 3.051-4.411 3.051-7.119s-1.083-5.238-3.051-7.12c-0.266-0.255-0.275-0.676-0.021-0.943 0.255-0.265 0.677-0.275 0.943-0.021 2.233 2.137 3.462 5.008 3.462 8.084s-1.231 5.946-3.462 8.083c-0.129 0.124-0.296 0.185-0.461 0.185z"></path>
<path d="M10.209 12.404c-0.185 0-0.369-0.077-0.501-0.227-0.243-0.277-0.215-0.698 0.062-0.941 0.618-0.542 0.973-1.322 0.973-2.138s-0.355-1.594-0.973-2.135c-0.277-0.243-0.305-0.664-0.062-0.941 0.242-0.277 0.665-0.303 0.941-0.062 0.906 0.794 1.426 1.938 1.427 3.138s-0.52 2.345-1.427 3.141c-0.126 0.111-0.283 0.165-0.439 0.165z"></path>
<path d="M6 20c-0.369 0-0.667-0.298-0.667-0.667v-10c0-0.369 0.298-0.667 0.667-0.667s0.667 0.298 0.667 0.667v10c0 0.369-0.298 0.667-0.667 0.667z"></path>
</svg>
