<!-- Generated by IcoMoon.io -->
<svg version="1.1" xmlns="http://www.w3.org/2000/svg" width="32" height="32" viewBox="0 0 32 32">
<title>widget</title>
<path d="M25.467 0.533h-21.467c-1.867 0-3.467 1.6-3.467 3.467v21.467c0 1.867 1.6 3.467 3.467 3.467h21.467c1.867 0 3.467-1.6 3.467-3.467v-21.467c0-1.867-1.6-3.467-3.467-3.467zM4 1.867h21.467c1.2 0 2.133 0.933 2.133 2.133v10.4l-4.133-3.467c0.133-0.267 0.133-0.533 0.133-0.8 0-1.2-0.933-2.133-2.133-2.133s-2.133 0.933-2.133 2.133c0 0.533 0.267 1.067 0.533 1.467l-4.533 7.6c-0.133 0-0.267 0-0.533 0-0.4 0-0.8 0.133-1.2 0.4l-3.467-2.933c0.133-0.267 0.133-0.533 0.133-0.8 0-1.467-0.933-2.533-2.133-2.533s-2.133 0.933-2.133 2.133c0 0.267 0 0.533 0.133 0.8l-4.267 3.467v-15.733c0-1.2 0.933-2.133 2.133-2.133zM20.533 10c0-0.533 0.4-0.8 0.8-0.8 0.533 0 0.8 0.4 0.8 0.8s-0.4 0.8-0.8 0.8c-0.4 0-0.8-0.4-0.8-0.8zM14.8 20.267c0.533 0 0.8 0.4 0.8 0.8 0 0.533-0.4 0.8-0.8 0.8s-0.8-0.4-0.8-0.8c-0.133-0.4 0.267-0.8 0.8-0.8zM7.2 15.6c0-0.533 0.4-0.8 0.8-0.8s0.8 0.4 0.8 0.8-0.4 0.8-0.8 0.8-0.8-0.4-0.8-0.8zM25.467 27.6h-21.467c-1.2 0-2.133-0.933-2.133-2.133v-3.867l5.067-4.267c0.4 0.267 0.8 0.4 1.2 0.4s0.8-0.133 1.2-0.4l3.467 2.933c-0.133 0.267-0.133 0.533-0.133 0.8 0 1.2 0.933 2.133 2.133 2.133s2.133-0.933 2.133-2.133c0-0.533-0.267-1.067-0.533-1.467l4.533-7.6c0.133 0 0.267 0 0.533 0 0.4 0 0.8-0.133 1.2-0.4l5.067 4.267v9.467c-0.133 1.333-1.067 2.267-2.267 2.267z"></path>
<path d="M30.8 27.2c-0.4 0-0.667 0.267-0.667 0.667v2.4h-2.4c-0.4 0-0.667 0.267-0.667 0.667s0.267 0.667 0.667 0.667h3.067c0.133 0 0.4-0.133 0.533-0.133 0.133-0.133 0.133-0.267 0.133-0.533v-3.067c0-0.4-0.267-0.667-0.667-0.667z"></path>
</svg>
