<svg version="1.1" xmlns="http://www.w3.org/2000/svg" width="32" height="32" viewBox="0 0 32 32">
<title>wi-fi_wlan_connect_internet</title>
<path d="M15.999 31.479c-8.532 0-15.473-6.941-15.473-15.474s6.941-15.473 15.473-15.473c8.531 0 15.473 6.941 15.473 15.473s-6.941 15.474-15.473 15.474zM15.999 1.865c-7.796 0-14.139 6.343-14.139 14.14s6.343 14.141 14.139 14.141c7.797 0 14.139-6.344 14.139-14.141s-6.342-14.14-14.139-14.14z"></path>
<path d="M15.999 25.617c-0.965 0-1.751-0.785-1.751-1.75 0-0.966 0.785-1.751 1.751-1.751s1.75 0.785 1.75 1.751c0 0.965-0.785 1.75-1.75 1.75zM15.999 23.449c-0.23 0-0.417 0.187-0.417 0.418 0 0.229 0.187 0.417 0.417 0.417s0.417-0.187 0.417-0.417c0-0.231-0.187-0.418-0.417-0.418z"></path>
<path d="M22.796 16.993c-0.177 0-0.353-0.070-0.484-0.208-1.659-1.755-3.9-2.721-6.312-2.721s-4.655 0.966-6.314 2.721c-0.253 0.266-0.676 0.279-0.942 0.026-0.268-0.253-0.28-0.675-0.027-0.943 1.913-2.023 4.499-3.138 7.283-3.138v0c2.782 0 5.368 1.115 7.281 3.139 0.253 0.268 0.241 0.689-0.026 0.942-0.129 0.122-0.294 0.182-0.458 0.182z"></path>
<path d="M5.906 13.731c-0.167 0-0.334-0.063-0.464-0.187-0.264-0.256-0.271-0.678-0.016-0.943 2.795-2.892 6.549-4.485 10.571-4.485v0c4.023 0 7.778 1.593 10.572 4.485 0.257 0.265 0.249 0.687-0.016 0.943-0.267 0.257-0.689 0.249-0.943-0.016-2.542-2.63-5.956-4.079-9.614-4.079-3.657 0-7.071 1.449-9.613 4.079-0.131 0.135-0.305 0.203-0.479 0.203z"></path>
<path d="M19.501 20.258c-0.184 0-0.367-0.075-0.499-0.225-0.762-0.859-1.857-1.353-3.005-1.353s-2.242 0.493-3.003 1.353c-0.244 0.279-0.665 0.305-0.941 0.057-0.275-0.243-0.301-0.665-0.057-0.94 1.014-1.146 2.473-1.803 4.001-1.803s2.988 0.658 4.002 1.803c0.245 0.275 0.219 0.697-0.057 0.94-0.126 0.113-0.284 0.168-0.441 0.168z"></path>
</svg>
