<!-- Generated by IcoMoon.io -->
<svg version="1.1" xmlns="http://www.w3.org/2000/svg" width="32" height="32" viewBox="0 0 32 32">
<title>wifi_wlan_connect_internet</title>
<path d="M16 16.6c-2 0-3.9 0.7-5.4 2.1-0.4 0.4-0.4 1-0.1 1.4 0.2 0.2 0.5 0.3 0.8 0.3 0.2 0 0.5-0.1 0.7-0.2 0 0 0 0 0 0 1.1-1 2.6-1.6 4.1-1.6s3 0.6 4.1 1.6c0.4 0.4 1 0.3 1.4-0.1s0.3-1-0.1-1.4c-1.6-1.4-3.5-2.1-5.5-2.1z"></path>
<path d="M28.7 10.6c-3.5-3.1-8-4.8-12.7-4.8s-9.2 1.7-12.7 4.8c-0.4 0.4-0.4 1-0.1 1.4 0.2 0.2 0.5 0.3 0.7 0.3s0.5-0.1 0.7-0.2v0c0 0 0 0 0 0s0 0 0 0 0 0 0 0c3.2-2.8 7.2-4.3 11.4-4.3s8.2 1.5 11.3 4.3c0.4 0.4 1 0.3 1.4-0.1s0.4-1 0-1.4z"></path>
<path d="M16 11.2c-3.5 0-6.8 1.3-9.3 3.7-0.4 0.4-0.4 1-0.1 1.4 0.2 0.2 0.5 0.3 0.8 0.3 0.2 0 0.4-0.1 0.6-0.2 0 0 0.1-0.1 0.1-0.1 2.1-2 4.9-3.1 7.9-3.1s5.8 1.1 7.9 3.1c0.4 0.4 1 0.4 1.4 0s0.4-1 0-1.4c-2.5-2.4-5.8-3.7-9.3-3.7z"></path>
<path d="M18 24c0 1.105-0.895 2-2 2s-2-0.895-2-2c0-1.105 0.895-2 2-2s2 0.895 2 2z"></path>
</svg>
