<!-- Generated by IcoMoon.io -->
<svg version="1.1" xmlns="http://www.w3.org/2000/svg" width="32" height="32" viewBox="0 0 32 32">
<title>window_application_code_shell_terminal</title>
<path d="M27 2h-22c-2.2 0-4 1.8-4 4v20c0 2.2 1.8 4 4 4h22c2.2 0 4-1.8 4-4v-20c0-2.2-1.8-4-4-4zM29 26c0 1.1-0.9 2-2 2h-22c-1.1 0-2-0.9-2-2v-20c0-1.1 0.9-2 2-2h22c1.1 0 2 0.9 2 2v20z"></path>
<path d="M16 14h-4c-0.6 0-1 0.4-1 1s0.4 1 1 1h4c0.6 0 1-0.4 1-1s-0.4-1-1-1z"></path>
<path d="M12 11c0-0.3-0.1-0.6-0.4-0.8l-5-4c-0.4-0.3-1-0.3-1.4 0.2-0.3 0.4-0.3 1 0.2 1.4l4 3.2-4 3.2c-0.4 0.3-0.5 1-0.2 1.4 0.2 0.3 0.5 0.4 0.8 0.4 0.2 0 0.4-0.1 0.6-0.2l5-4c0.3-0.2 0.4-0.5 0.4-0.8z"></path>
</svg>
