<svg version="1.1" xmlns="http://www.w3.org/2000/svg" width="32" height="32" viewBox="0 0 32 32">
<title>window_text_images</title>
<path d="M31.333 30.667h-30.667c-0.369 0-0.667-0.298-0.667-0.667v-28c0-0.369 0.298-0.667 0.667-0.667h30.667c0.369 0 0.667 0.298 0.667 0.667v28c0 0.369-0.298 0.667-0.667 0.667zM1.333 29.333h29.333v-26.667h-29.333v26.667z"></path>
<path d="M3.333 5.333c-0.174 0-0.347-0.067-0.467-0.187-0.133-0.133-0.2-0.307-0.2-0.48s0.066-0.347 0.186-0.467c0.267-0.267 0.707-0.253 0.947 0 0.133 0.12 0.201 0.293 0.201 0.467s-0.067 0.346-0.201 0.466c-0.12 0.133-0.293 0.201-0.466 0.201z"></path>
<path d="M6 5.333c-0.174 0-0.347-0.067-0.467-0.201-0.133-0.106-0.2-0.28-0.2-0.466 0-0.174 0.066-0.347 0.2-0.467 0.253-0.253 0.68-0.253 0.933-0.014 0.133 0.133 0.201 0.307 0.201 0.481 0 0.186-0.080 0.36-0.201 0.48s-0.293 0.187-0.466 0.187z"></path>
<path d="M8.667 5.333c-0.174 0-0.347-0.067-0.467-0.187-0.133-0.133-0.2-0.307-0.2-0.48s0.066-0.347 0.186-0.467c0.267-0.267 0.693-0.253 0.947-0.014 0.133 0.133 0.201 0.307 0.201 0.481s-0.067 0.346-0.187 0.466c-0.133 0.133-0.307 0.201-0.48 0.201z"></path>
<path d="M31.333 8h-30.667c-0.369 0-0.667-0.298-0.667-0.667s0.298-0.667 0.667-0.667h30.667c0.369 0 0.667 0.298 0.667 0.667s-0.298 0.667-0.667 0.667z"></path>
<path d="M10.001 26.667h-5.333c-0.369 0-0.667-0.298-0.667-0.667v-5.333c0-0.369 0.298-0.667 0.667-0.667h5.333c0.369 0 0.667 0.298 0.667 0.667v5.333c0 0.369-0.298 0.667-0.667 0.667zM5.335 25.333h4v-4h-4v4z"></path>
<path d="M10.001 17.333h-5.333c-0.369 0-0.667-0.298-0.667-0.667v-5.334c0-0.369 0.298-0.667 0.667-0.667h5.333c0.369 0 0.667 0.298 0.667 0.667v5.334c0 0.369-0.298 0.667-0.667 0.667zM5.335 16h4v-4.001h-4v4.001z"></path>
<path d="M25.982 13.333h-11.88c-0.369 0-0.667-0.298-0.667-0.667s0.298-0.667 0.667-0.667h11.88c0.369 0 0.667 0.298 0.667 0.667s-0.298 0.667-0.667 0.667z"></path>
<path d="M25.982 22.667h-11.88c-0.369 0-0.667-0.298-0.667-0.667s0.298-0.667 0.667-0.667h11.88c0.369 0 0.667 0.298 0.667 0.667s-0.298 0.667-0.667 0.667z"></path>
<path d="M19.271 16h-5.169c-0.369 0-0.667-0.298-0.667-0.667s0.298-0.667 0.667-0.667h5.169c0.369 0 0.667 0.298 0.667 0.667s-0.298 0.667-0.667 0.667z"></path>
<path d="M19.271 25.333h-5.169c-0.369 0-0.667-0.298-0.667-0.667s0.298-0.667 0.667-0.667h5.169c0.369 0 0.667 0.298 0.667 0.667s-0.298 0.667-0.667 0.667z"></path>
</svg>
