<svg version="1.1" xmlns="http://www.w3.org/2000/svg" width="32" height="32" viewBox="0 0 32 32">
<title>window_application_code_shell_terminal</title>
<path d="M31.359 30.667h-30.667c-0.369 0-0.667-0.298-0.667-0.667v-28c0-0.369 0.298-0.667 0.667-0.667h30.667c0.369 0 0.667 0.298 0.667 0.667v28c0 0.369-0.298 0.667-0.667 0.667zM1.359 29.333h29.334v-26.667h-29.334v26.667z"></path>
<path d="M31.324 10.668h-30.568c-0.369 0-0.667-0.298-0.667-0.667s0.298-0.667 0.667-0.667h30.568c0.369 0 0.667 0.298 0.667 0.667s-0.298 0.667-0.667 0.667z"></path>
<path d="M28.648 8.001c-0.173 0-0.346-0.067-0.477-0.201l-2.691-2.751c-0.258-0.263-0.253-0.685 0.010-0.943 0.266-0.257 0.687-0.253 0.943 0.010l2.691 2.751c0.258 0.263 0.253 0.685-0.010 0.943-0.13 0.127-0.298 0.19-0.466 0.19z"></path>
<path d="M25.957 8.001c-0.168 0-0.336-0.063-0.466-0.19-0.263-0.258-0.268-0.68-0.010-0.943l2.691-2.751c0.257-0.263 0.678-0.268 0.943-0.010 0.263 0.258 0.268 0.68 0.010 0.943l-2.691 2.751c-0.13 0.133-0.303 0.201-0.477 0.201z"></path>
<path d="M23.34 8h-2.667c-0.369 0-0.667-0.298-0.667-0.667v-2.667c0-0.369 0.298-0.667 0.667-0.667h2.667c0.369 0 0.667 0.298 0.667 0.667v2.667c0 0.369-0.298 0.667-0.667 0.667zM21.34 6.667h1.333v-1.333h-1.333v1.333z"></path>
<path d="M18.007 8h-2.667c-0.369 0-0.667-0.298-0.667-0.667s0.298-0.667 0.667-0.667h2.667c0.369 0 0.667 0.298 0.667 0.667s-0.298 0.667-0.667 0.667z"></path>
<path d="M19.336 25.333h-6.515c-0.369 0-0.667-0.298-0.667-0.667s0.298-0.667 0.667-0.667h6.515c0.369 0 0.667 0.298 0.667 0.667s-0.298 0.667-0.667 0.667z"></path>
<path d="M6.165 25.333c-0.156 0-0.311-0.053-0.437-0.164-0.278-0.241-0.307-0.663-0.066-0.94l4.261-4.898-4.261-4.898c-0.242-0.278-0.212-0.699 0.066-0.941 0.278-0.241 0.698-0.212 0.941 0.066l4.641 5.335c0.218 0.251 0.218 0.624 0 0.875l-4.641 5.336c-0.132 0.151-0.317 0.229-0.503 0.229z"></path>
</svg>
