<svg version="1.1" xmlns="http://www.w3.org/2000/svg" width="32" height="32" viewBox="0 0 32 32">
<title>window_application_settings_preferences</title>
<path d="M31.366 30.667h-30.667c-0.369 0-0.667-0.298-0.667-0.667v-28c0-0.369 0.298-0.667 0.667-0.667h30.667c0.369 0 0.667 0.298 0.667 0.667v28c0 0.369-0.298 0.667-0.667 0.667zM1.365 29.333h29.334v-26.667h-29.334v26.667z"></path>
<path d="M31.331 10.668h-30.568c-0.369 0-0.667-0.298-0.667-0.667s0.298-0.667 0.667-0.667h30.568c0.369 0 0.667 0.298 0.667 0.667s-0.298 0.667-0.667 0.667z"></path>
<path d="M28.655 8.001c-0.173 0-0.346-0.067-0.477-0.201l-2.691-2.751c-0.258-0.263-0.253-0.685 0.010-0.943 0.266-0.257 0.687-0.253 0.943 0.010l2.691 2.751c0.258 0.263 0.253 0.685-0.010 0.943-0.13 0.127-0.298 0.19-0.466 0.19z"></path>
<path d="M25.964 8.001c-0.168 0-0.336-0.063-0.466-0.19-0.263-0.258-0.268-0.68-0.010-0.943l2.691-2.751c0.257-0.263 0.678-0.268 0.943-0.010 0.263 0.258 0.268 0.68 0.010 0.943l-2.691 2.751c-0.13 0.133-0.303 0.201-0.477 0.201z"></path>
<path d="M23.346 8h-2.667c-0.369 0-0.667-0.298-0.667-0.667v-2.667c0-0.369 0.298-0.667 0.667-0.667h2.667c0.369 0 0.667 0.298 0.667 0.667v2.667c0 0.369-0.298 0.667-0.667 0.667zM21.346 6.667h1.333v-1.333h-1.333v1.333z"></path>
<path d="M18.012 8h-2.666c-0.369 0-0.667-0.298-0.667-0.667s0.298-0.667 0.667-0.667h2.666c0.369 0 0.667 0.298 0.667 0.667s-0.298 0.667-0.667 0.667z"></path>
<path d="M16.035 22.65c-1.486 0-2.694-1.208-2.694-2.694s1.208-2.694 2.694-2.694 2.694 1.208 2.694 2.694-1.208 2.694-2.694 2.694zM16.035 18.595c-0.75 0-1.361 0.611-1.361 1.361s0.611 1.361 1.361 1.361 1.361-0.611 1.361-1.361-0.611-1.361-1.361-1.361z"></path>
<path d="M16.035 27.379c-0.322 0-0.645-0.021-0.976-0.064-0.298-0.039-0.534-0.273-0.575-0.57l-0.191-1.396c-0.266-0.086-0.525-0.191-0.775-0.315l-1.112 0.866c-0.236 0.186-0.568 0.189-0.809 0.008-0.542-0.406-1.046-0.905-1.456-1.439-0.183-0.238-0.184-0.57-0.003-0.81l0.852-1.121c-0.128-0.25-0.237-0.508-0.325-0.772l-1.397-0.175c-0.298-0.036-0.535-0.269-0.578-0.566-0.097-0.678-0.102-1.367-0.012-2.049 0.039-0.298 0.273-0.533 0.57-0.573l1.395-0.191c0.086-0.266 0.191-0.525 0.316-0.776l-0.865-1.111c-0.184-0.237-0.187-0.568-0.008-0.809 0.405-0.542 0.903-1.046 1.44-1.458 0.239-0.184 0.569-0.184 0.809-0.002l1.122 0.852c0.249-0.128 0.506-0.236 0.771-0.325l0.175-1.397c0.037-0.298 0.269-0.535 0.566-0.577 0.694-0.099 1.355-0.103 2.049-0.011 0.298 0.040 0.533 0.273 0.573 0.57l0.191 1.396c0.264 0.085 0.523 0.191 0.772 0.315l1.112-0.865c0.237-0.184 0.568-0.186 0.807-0.008 0.549 0.409 1.040 0.895 1.46 1.442 0.182 0.238 0.182 0.57 0.001 0.808l-0.853 1.122c0.128 0.249 0.236 0.505 0.324 0.767l1.397 0.175c0.298 0.036 0.535 0.269 0.578 0.566 0.099 0.695 0.103 1.366 0.010 2.052-0.039 0.297-0.272 0.531-0.57 0.572l-1.393 0.191c-0.086 0.264-0.19 0.522-0.314 0.771l0.865 1.113c0.185 0.237 0.187 0.566 0.008 0.807-0.409 0.549-0.893 1.040-1.44 1.458-0.236 0.185-0.569 0.182-0.807 0.003l-1.124-0.852c-0.249 0.128-0.505 0.236-0.768 0.324l-0.175 1.397c-0.036 0.298-0.268 0.534-0.565 0.578-0.365 0.052-0.719 0.078-1.073 0.078zM15.734 26.038c0.227 0.012 0.453 0.009 0.682-0.004l0.163-1.306c0.034-0.273 0.233-0.499 0.5-0.565 0.437-0.108 0.855-0.285 1.242-0.523 0.232-0.147 0.533-0.131 0.753 0.035l1.049 0.796c0.169-0.152 0.329-0.315 0.479-0.484l-0.809-1.042c-0.169-0.217-0.187-0.518-0.044-0.754 0.233-0.385 0.404-0.803 0.505-1.242 0.064-0.269 0.285-0.473 0.56-0.509l1.305-0.178c0.012-0.228 0.010-0.454-0.005-0.684l-1.306-0.163c-0.275-0.034-0.499-0.234-0.565-0.503-0.107-0.434-0.283-0.85-0.522-1.238-0.146-0.234-0.131-0.534 0.035-0.754l0.797-1.049c-0.152-0.169-0.315-0.329-0.484-0.479l-1.040 0.809c-0.219 0.169-0.517 0.185-0.754 0.044-0.385-0.234-0.805-0.405-1.245-0.508-0.269-0.063-0.471-0.285-0.508-0.559l-0.178-1.305c-0.228-0.011-0.453-0.010-0.683 0.004l-0.163 1.307c-0.034 0.274-0.234 0.498-0.501 0.564-0.44 0.109-0.857 0.285-1.241 0.522-0.235 0.147-0.535 0.134-0.755-0.035l-1.049-0.796c-0.168 0.152-0.329 0.315-0.479 0.485l0.808 1.037c0.169 0.219 0.187 0.518 0.045 0.754-0.235 0.391-0.406 0.811-0.509 1.249-0.063 0.269-0.285 0.473-0.559 0.509l-1.303 0.178c-0.012 0.228-0.010 0.456 0.004 0.682l1.305 0.163c0.275 0.034 0.499 0.234 0.565 0.503 0.107 0.437 0.284 0.854 0.524 1.241 0.146 0.234 0.131 0.534-0.035 0.755l-0.796 1.048c0.152 0.168 0.315 0.328 0.485 0.478l1.039-0.809c0.218-0.172 0.519-0.189 0.755-0.044 0.386 0.233 0.806 0.405 1.247 0.509 0.269 0.063 0.471 0.285 0.508 0.557l0.178 1.303z"></path>
</svg>
