<svg version="1.1" xmlns="http://www.w3.org/2000/svg" width="32" height="32" viewBox="0 0 32 32">
<title>window_error_danger_stop</title>
<path d="M31.333 29.333h-30.667c-0.369 0-0.667-0.298-0.667-0.667v-25.333c0-0.369 0.298-0.667 0.667-0.667h30.667c0.369 0 0.667 0.298 0.667 0.667v25.333c0 0.369-0.298 0.667-0.667 0.667zM1.333 28h29.333v-24h-29.333v24z"></path>
<path d="M31.298 10.668h-30.568c-0.369 0-0.667-0.298-0.667-0.667s0.298-0.667 0.667-0.667h30.568c0.369 0 0.667 0.298 0.667 0.667s-0.298 0.667-0.667 0.667z"></path>
<path d="M4.651 10.668c-0.184 0-0.366-0.075-0.498-0.223-0.245-0.275-0.22-0.696 0.055-0.941l7.404-6.595c0.273-0.245 0.695-0.221 0.941 0.055 0.245 0.275 0.22 0.696-0.055 0.941l-7.404 6.595c-0.127 0.113-0.285 0.169-0.443 0.169z"></path>
<path d="M0.731 9.269c-0.188 0-0.376-0.079-0.507-0.234-0.239-0.28-0.206-0.701 0.075-0.939l6.098-5.196c0.28-0.24 0.7-0.206 0.939 0.075 0.239 0.28 0.206 0.701-0.075 0.939l-6.098 5.196c-0.126 0.107-0.279 0.16-0.432 0.16z"></path>
<path d="M9.878 10.668c-0.184 0-0.366-0.075-0.498-0.223-0.245-0.275-0.22-0.697 0.055-0.941l7.404-6.595c0.276-0.246 0.697-0.22 0.941 0.055s0.221 0.697-0.053 0.941l-7.406 6.595c-0.127 0.113-0.285 0.169-0.443 0.169z"></path>
<path d="M15.105 10.668c-0.184 0-0.366-0.075-0.498-0.223-0.245-0.275-0.22-0.696 0.055-0.941l7.404-6.595c0.275-0.245 0.698-0.22 0.941 0.055 0.245 0.275 0.221 0.696-0.053 0.941l-7.405 6.595c-0.127 0.113-0.285 0.169-0.443 0.169z"></path>
<path d="M20.332 10.668c-0.184 0-0.366-0.075-0.497-0.223-0.245-0.275-0.221-0.696 0.053-0.941l7.404-6.595c0.276-0.245 0.697-0.22 0.941 0.055s0.221 0.696-0.053 0.941l-7.404 6.595c-0.128 0.113-0.286 0.169-0.444 0.169z"></path>
<path d="M25.559 10.668c-0.193 0-0.383-0.083-0.516-0.243-0.233-0.285-0.191-0.705 0.093-0.938l5.74-4.714c0.284-0.234 0.703-0.192 0.939 0.092 0.233 0.285 0.191 0.704-0.092 0.938l-5.74 4.714c-0.124 0.102-0.274 0.152-0.423 0.152z"></path>
<path d="M20.055 24.052c-0.171 0-0.341-0.065-0.471-0.195l-8.084-8.085c-0.26-0.26-0.26-0.682 0-0.943s0.682-0.26 0.943 0l8.084 8.085c0.26 0.26 0.26 0.682 0 0.943-0.13 0.13-0.301 0.195-0.471 0.195z"></path>
<path d="M11.971 24.052c-0.171 0-0.341-0.065-0.471-0.195-0.26-0.26-0.26-0.682 0-0.943l8.084-8.085c0.26-0.26 0.682-0.26 0.943 0s0.26 0.682 0 0.943l-8.084 8.085c-0.13 0.13-0.301 0.195-0.471 0.195z"></path>
</svg>
