<svg version="1.1" xmlns="http://www.w3.org/2000/svg" width="32" height="32" viewBox="0 0 32 32">
<title>window_new_extern_full_screen_maximize</title>
<path d="M31.333 14.001c-0.369 0-0.667-0.298-0.667-0.667v-6.667h-6.667c-0.369 0-0.667-0.298-0.667-0.667s0.298-0.667 0.667-0.667h7.333c0.369 0 0.667 0.298 0.667 0.667v7.333c0 0.368-0.298 0.667-0.667 0.667z"></path>
<path d="M18.78 19.361c-0.171 0-0.341-0.065-0.471-0.195-0.26-0.26-0.26-0.682 0-0.943l12.582-12.583c0.26-0.26 0.682-0.26 0.943 0s0.26 0.682 0 0.943l-12.582 12.583c-0.13 0.13-0.301 0.195-0.471 0.195z"></path>
<path d="M27.333 32.001h-26.667c-0.369 0-0.667-0.298-0.667-0.667v-21.333c0-0.369 0.298-0.667 0.667-0.667h21.333c0.369 0 0.667 0.298 0.667 0.667s-0.298 0.667-0.667 0.667h-20.667v20h25.333v-15.333c0-0.369 0.298-0.667 0.667-0.667s0.667 0.298 0.667 0.667v15.999c0 0.368-0.298 0.667-0.667 0.667z"></path>
</svg>
