<!-- Generated by IcoMoon.io -->
<svg version="1.1" xmlns="http://www.w3.org/2000/svg" width="32" height="32" viewBox="0 0 32 32">
<title>window_alert_notification_warning_error</title>
<path d="M31.333 29.333h-30.667c-0.369 0-0.667-0.298-0.667-0.667v-25.333c0-0.369 0.298-0.667 0.667-0.667h30.667c0.369 0 0.667 0.298 0.667 0.667v25.333c0 0.369-0.298 0.667-0.667 0.667zM1.333 28h29.333v-24h-29.333v24z"></path>
<path d="M31.298 10.668h-30.568c-0.369 0-0.667-0.298-0.667-0.667s0.298-0.667 0.667-0.667h30.568c0.369 0 0.667 0.298 0.667 0.667s-0.298 0.667-0.667 0.667z"></path>
<path d="M4.651 10.668c-0.184 0-0.366-0.075-0.498-0.223-0.245-0.275-0.22-0.696 0.055-0.941l7.404-6.595c0.273-0.245 0.695-0.221 0.941 0.055 0.245 0.275 0.22 0.696-0.055 0.941l-7.404 6.595c-0.127 0.113-0.285 0.169-0.443 0.169z"></path>
<path d="M0.731 9.269c-0.188 0-0.376-0.079-0.507-0.234-0.239-0.28-0.206-0.701 0.075-0.939l6.098-5.196c0.28-0.24 0.7-0.206 0.939 0.075s0.206 0.701-0.075 0.939l-6.098 5.196c-0.126 0.107-0.279 0.16-0.432 0.16z"></path>
<path d="M9.878 10.668c-0.184 0-0.366-0.075-0.498-0.223-0.245-0.275-0.22-0.697 0.055-0.941l7.404-6.595c0.276-0.246 0.697-0.22 0.941 0.055s0.221 0.697-0.053 0.941l-7.406 6.595c-0.127 0.113-0.285 0.169-0.443 0.169z"></path>
<path d="M15.105 10.668c-0.184 0-0.366-0.075-0.498-0.223-0.245-0.275-0.22-0.696 0.055-0.941l7.404-6.595c0.275-0.245 0.698-0.22 0.941 0.055 0.245 0.275 0.221 0.696-0.053 0.941l-7.405 6.595c-0.127 0.113-0.285 0.169-0.443 0.169z"></path>
<path d="M20.332 10.668c-0.184 0-0.366-0.075-0.497-0.223-0.245-0.275-0.221-0.696 0.053-0.941l7.404-6.595c0.276-0.245 0.697-0.22 0.941 0.055s0.221 0.696-0.053 0.941l-7.404 6.595c-0.128 0.113-0.286 0.169-0.444 0.169z"></path>
<path d="M25.559 10.668c-0.193 0-0.383-0.083-0.516-0.243-0.233-0.285-0.191-0.705 0.093-0.938l5.74-4.714c0.284-0.234 0.703-0.192 0.939 0.092 0.233 0.285 0.191 0.704-0.092 0.938l-5.74 4.714c-0.124 0.102-0.274 0.152-0.423 0.152z"></path>
<path d="M20.6 25.318h-9.236c-0.695 0-1.32-0.359-1.67-0.962-0.35-0.602-0.355-1.322-0.011-1.926l4.618-8.136c0.348-0.613 0.976-0.979 1.682-0.979s1.334 0.366 1.68 0.979l4.619 8.136c0.344 0.605 0.339 1.325-0.012 1.927s-0.974 0.961-1.669 0.961zM15.982 14.648c-0.105 0-0.367 0.030-0.521 0.303l-4.619 8.137c-0.154 0.269-0.048 0.507 0.004 0.596s0.208 0.299 0.518 0.299h9.236c0.31 0 0.465-0.208 0.517-0.298s0.158-0.328 0.005-0.598l-4.619-8.137c-0.156-0.273-0.417-0.303-0.521-0.303z"></path>
<path d="M15.982 21.272c-0.369 0-0.667-0.298-0.667-0.667v-3.47c0-0.369 0.298-0.667 0.667-0.667s0.666 0.298 0.666 0.667v3.47c0 0.369-0.298 0.667-0.666 0.667z"></path>
<path d="M15.986 23.173c-0.173 0-0.346-0.081-0.467-0.201-0.133-0.12-0.2-0.293-0.2-0.466 0-0.186 0.067-0.361 0.187-0.481 0.253-0.24 0.693-0.24 0.947 0 0.12 0.134 0.201 0.294 0.201 0.481 0 0.173-0.081 0.346-0.201 0.466-0.133 0.12-0.293 0.201-0.467 0.201z"></path>
</svg>
