<svg version="1.1" xmlns="http://www.w3.org/2000/svg" width="32" height="32" viewBox="0 0 32 32">
<title>window_graph_analytics</title>
<path d="M8.732 24.533c-0.137 0-0.271-0.042-0.385-0.122l-3.822-2.707c-0.3-0.214-0.371-0.629-0.159-0.93 0.214-0.301 0.629-0.37 0.93-0.159l3.159 2.238 4.223-9.413c0.113-0.253 0.376-0.398 0.649-0.393 0.277 0.017 0.514 0.204 0.596 0.469l1.954 6.341 2.955-4.18c0.115-0.163 0.297-0.266 0.496-0.28 0.202-0.015 0.395 0.061 0.531 0.205l2.714 2.849 4.439-2.070c0.331-0.156 0.729-0.013 0.885 0.323 0.156 0.333 0.012 0.731-0.323 0.885l-4.872 2.272c-0.259 0.12-0.566 0.064-0.764-0.145l-2.484-2.608-3.269 4.625c-0.147 0.208-0.395 0.311-0.649 0.275-0.251-0.040-0.458-0.22-0.533-0.462l-1.832-5.946-3.83 8.54c-0.081 0.181-0.24 0.318-0.432 0.37-0.058 0.016-0.117 0.023-0.176 0.023z"></path>
<path d="M31.337 30.667h-30.667c-0.369 0-0.667-0.298-0.667-0.667v-28c0-0.369 0.298-0.667 0.667-0.667h30.667c0.369 0 0.667 0.298 0.667 0.667v28c0 0.369-0.298 0.667-0.667 0.667zM1.337 29.333h29.333v-26.667h-29.333v26.667z"></path>
<path d="M3.333 5.333c-0.174 0-0.333-0.067-0.467-0.187-0.12-0.133-0.2-0.307-0.2-0.48s0.080-0.347 0.2-0.467c0.266-0.253 0.693-0.253 0.933-0.014 0.133 0.133 0.201 0.307 0.201 0.481s-0.067 0.346-0.187 0.466c-0.133 0.133-0.307 0.201-0.48 0.201z"></path>
<path d="M6 5.333c-0.174 0-0.347-0.067-0.467-0.201-0.12-0.12-0.2-0.293-0.2-0.466s0.080-0.347 0.2-0.481c0.227-0.227 0.693-0.24 0.947 0.014 0.12 0.12 0.187 0.293 0.187 0.467s-0.067 0.346-0.187 0.466c-0.133 0.133-0.307 0.201-0.48 0.201z"></path>
<path d="M8.667 5.333c-0.174 0-0.347-0.067-0.467-0.201-0.133-0.133-0.2-0.293-0.2-0.466s0.066-0.333 0.186-0.467c0.267-0.253 0.707-0.253 0.96 0 0.12 0.133 0.187 0.293 0.187 0.467s-0.067 0.346-0.187 0.466c-0.133 0.133-0.307 0.201-0.48 0.201z"></path>
<path d="M31.337 8h-30.667c-0.369 0-0.667-0.298-0.667-0.667s0.298-0.667 0.667-0.667h30.667c0.369 0 0.667 0.298 0.667 0.667s-0.298 0.667-0.667 0.667z"></path>
</svg>
