<!-- Generated by IcoMoon.io -->
<svg version="1.1" xmlns="http://www.w3.org/2000/svg" width="32" height="32" viewBox="0 0 32 32">
<title>window_new_extern_full_screen_maximize</title>
<path d="M22.063 5c0-0.552 0.448-1 1-1h7c0.552 0 1 0.448 1 1v7c0 0.552-0.448 1-1 1s-1-0.448-1-1v-4.587l-8.398 8.4c-0.39 0.391-1.024 0.391-1.414 0s-0.391-1.024 0-1.414l8.397-8.398h-4.584c-0.552 0-1-0.448-1-1z"></path>
<path d="M1 27.077c0 0.509 0.445 0.923 0.996 0.923h23.632c0.552 0 0.997-0.414 0.997-0.923v-13.146c0-0.509-0.445-0.923-0.996-0.923s-0.997 0.414-0.997 0.923v12.224h-21.639v-15.684h17.909c0.552 0 0.996-0.414 0.996-0.923s-0.445-0.923-0.996-0.923h-18.906c-0.552 0-0.996 0.414-0.996 0.923v17.529z"></path>
</svg>
