<svg version="1.1" xmlns="http://www.w3.org/2000/svg" width="32" height="32" viewBox="0 0 32 32">
<title>world_earth_worldwide_international_language</title>
<path d="M31.6 16.8c0 0 0-0.1 0-0.1s0 0 0-0.1c0-0.2 0-0.4 0-0.5 0-2.2-0.5-4.3-1.3-6.3 0-0.1 0-0.1-0.1-0.1-2.4-5.4-7.8-9.2-14.1-9.2 0 0-0.1 0-0.1 0s0 0 0 0 0 0-0.1 0c0 0 0 0 0 0s0 0 0 0 0 0-0.1 0c-6.2-0.1-11.7 3.7-14.1 9.2 0 0 0 0.1-0.1 0.1-0.8 1.9-1.3 4-1.3 6.3 0 0.2 0 0.3 0 0.5 0 0 0 0.1 0 0.1 0 0.1 0 0.1 0 0.2 0.1 2.4 0.8 4.7 1.9 6.7 0 0 0 0.1 0.1 0.1 2.7 4.8 7.7 8 13.6 8 0 0 0 0 0.1 0 0 0 0 0 0 0s0 0 0 0 0 0 0.1 0c0 0 0 0 0 0s0.1 0 0.1 0c5.8-0.1 10.8-3.3 13.5-8 0 0 0-0.1 0.1-0.1 1-2.1 1.7-4.4 1.8-6.8zM1.7 17.3h6.1c0.1 1.9 0.3 3.7 0.7 5.3h-5.2c-0.9-1.6-1.4-3.4-1.6-5.3zM2.7 10.7h5.5c-0.2 1.6-0.4 3.4-0.4 5.3h-6.1c0-1.9 0.3-3.7 1-5.3zM30.3 16h-6.1c0-1.9-0.2-3.7-0.5-5.3h5.5c0.7 1.6 1.1 3.4 1.1 5.3zM22.9 16h-6.2v-5.3h5.7c0.3 1.6 0.5 3.4 0.5 5.3zM16.6 9.3v-7.5c2.4 0.4 4.4 3.4 5.5 7.5h-5.5zM15.3 1.8v7.5h-5.4c1.1-4.1 3.1-7 5.4-7.5zM15.3 10.7v5.3h-6.2c0-1.9 0.2-3.7 0.5-5.3h5.7zM9.1 17.3h6.2v5.3h-5.4c-0.4-1.6-0.7-3.4-0.8-5.3zM15.3 24v6.3c-2.1-0.4-3.9-2.8-5-6.3h5zM16.6 30.3v-6.3h5.1c-1.1 3.5-3 5.9-5.1 6.3zM16.6 22.7v-5.3h6.2c-0.1 1.9-0.4 3.7-0.8 5.3h-5.4zM24.2 17.3h6.1c-0.2 1.9-0.7 3.7-1.6 5.3h-5.2c0.4-1.6 0.6-3.4 0.7-5.3zM28.6 9.3h-5.2c-0.7-3-1.9-5.4-3.4-7 3.7 1.1 6.8 3.7 8.6 7zM12 2.3c-1.5 1.6-2.7 4-3.4 7h-5.3c1.8-3.3 4.9-5.9 8.7-7zM4.1 24h4.8c0.7 2.4 1.8 4.5 3.1 5.8-3.3-0.9-6.1-3-7.9-5.8zM20 29.8c1.3-1.4 2.4-3.4 3.1-5.8h4.8c-1.8 2.8-4.6 4.8-7.9 5.8z"></path>
</svg>
