<!-- Generated by IcoMoon.io -->
<svg version="1.1" xmlns="http://www.w3.org/2000/svg" width="32" height="32" viewBox="0 0 32 32">
<title>world_earth_worldwide_international_language</title>
<path fill="none" stroke-linejoin="miter" stroke-linecap="butt" stroke-miterlimit="10" stroke-width="2" stroke="#000" d="M16 3c-7.179 0-13 5.821-13 13s5.821 13 13 13 13-5.821 13-13-5.821-13-13-13z"></path>
<path fill="none" stroke-linejoin="miter" stroke-linecap="butt" stroke-miterlimit="10" stroke-width="2" stroke="#000" d="M16 3c-3.629 0-7.042 5.821-7.042 13s3.412 13 7.042 13 7.042-5.821 7.042-13-3.413-13-7.042-13z"></path>
<path fill="none" stroke-linejoin="round" stroke-linecap="round" stroke-miterlimit="4" stroke-width="2" stroke="#000" d="M7.333 7.333c2.39 1.697 5.399 2.709 8.667 2.709s6.277-1.012 8.667-2.709M24.667 24.667c-2.39-1.697-5.399-2.709-8.667-2.709s-6.277 1.012-8.667 2.709"></path>
<path fill="none" stroke-linejoin="miter" stroke-linecap="butt" stroke-miterlimit="10" stroke-width="2" stroke="#000" d="M16 3v26M29 16h-26"></path>
</svg>
