<svg version="1.1" xmlns="http://www.w3.org/2000/svg" width="32" height="32" viewBox="0 0 32 32">
<title>world_earth_worldwide_location_travel</title>
<path d="M15.982 31.768c-8.659 0-15.704-7.046-15.704-15.704s7.045-15.704 15.704-15.704c8.659 0 15.704 7.045 15.704 15.704s-7.045 15.705-15.704 15.705zM15.982 1.693c-7.924 0-14.371 6.447-14.371 14.371s6.447 14.371 14.371 14.371 14.371-6.447 14.371-14.371c0-7.924-6.447-14.371-14.371-14.371z"></path>
<path d="M21.335 25.311c-0.221 0-0.398-0.068-0.513-0.128-0.932-0.496-1.063-2.395-1.075-3.189 0-3.096-0.197-5.725-2.612-6.645-1.32-0.503-2.347-0.846-2.892-0.964-0.702-0.153-1.176-0.715-1.269-1.505-0.115-0.976 0.389-2.313 1.546-2.868 0.49-0.234 0.909-0.258 1.206-0.244-0.005-0.161-0.018-0.396-0.047-0.738-0.042-0.476-0.165-0.8-0.367-0.964-0.331-0.268-0.973-0.192-1.54-0.124-0.265 0.032-0.51 0.059-0.715 0.059-0.343 0-0.443 0.184-0.933 2.488l-0.102 0.475c-0.165 0.768-0.513 1.199-1.035 1.281-0.864 0.137-1.458-0.841-1.57-1.037-0.098-0.171-0.185-0.54-0.263-1.101-0.166 0.379-0.687 1.087-2.32 1.664-0.914 0.321-1.428 0.043-1.699-0.247-0.908-0.975 0.007-3.404 0.443-4.404 0.147-0.339 0.538-0.494 0.878-0.345 0.337 0.147 0.492 0.54 0.345 0.878-0.518 1.191-0.845 2.589-0.696 2.944 0.022-0.015 0.117-0.024 0.286-0.084 1.32-0.465 1.542-0.942 1.544-0.947 0.014-0.067 0.021-0.070 0.055-0.13l1.057-1.852c0.146-0.256 0.445-0.385 0.73-0.318 0.287 0.066 0.496 0.314 0.514 0.608 0.068 1.101 0.205 2.453 0.303 2.709 0.028 0.048 0.069 0.103 0.113 0.156 0.004-0.017 0.008-0.035 0.012-0.054l0.101-0.473c0.517-2.433 0.753-3.543 2.237-3.543 0.159 0 0.35-0.025 0.555-0.049 0.745-0.090 1.769-0.213 2.54 0.412 0.492 0.4 0.78 1.035 0.854 1.884 0.096 1.105 0.1 1.625-0.259 1.975-0.309 0.298-0.69 0.253-0.917 0.227-0.221-0.025-0.428-0.049-0.734 0.098-0.552 0.265-0.859 0.995-0.798 1.511 0.037 0.315 0.176 0.345 0.228 0.356 0.78 0.17 2.107 0.649 3.083 1.021 3.471 1.322 3.471 5.269 3.471 7.881 0.013 0.741 0.156 1.579 0.316 1.917 1.237-0.979 4.025-5.65 3.518-7.090-0.669-1.907-0.947-2.696 0.84-3.663 1.171-0.634 1.799-1.296 1.768-1.863-0.021-0.368 0.262-0.682 0.629-0.702 0.413-0.023 0.682 0.262 0.702 0.629 0.063 1.143-0.766 2.188-2.464 3.107-0.788 0.426-0.788 0.426-0.217 2.049 0.846 2.409-2.889 7.906-4.125 8.712-0.266 0.173-0.508 0.231-0.712 0.231z"></path>
<path d="M6.823 25.665c-0.072 0-0.144-0.012-0.215-0.035-0.349-0.12-0.535-0.499-0.416-0.846 1.277-3.745 1.796-4.303 2.758-5.121l0.157-0.137c-0.271-0.142-0.706-0.309-1-0.421-0.684-0.26-1.331-0.508-1.704-0.88-0.367-0.367-0.62-0.518-0.94-0.71-0.182-0.109-0.374-0.224-0.596-0.38-0.194 0.552-0.404 1.69-0.501 2.792-0.033 0.366-0.346 0.629-0.723 0.605-0.367-0.033-0.638-0.355-0.605-0.723 0.325-3.694 1.094-4.025 1.346-4.133 0.315-0.135 0.661-0.084 0.948 0.143 0.331 0.262 0.583 0.412 0.816 0.551 0.352 0.211 0.715 0.428 1.198 0.911 0.171 0.171 0.787 0.406 1.237 0.577 1.005 0.384 1.873 0.715 2.012 1.458 0.049 0.262 0.016 0.656-0.418 1.047-0.13 0.116-0.249 0.217-0.363 0.314-0.738 0.628-1.145 0.973-2.36 4.535-0.094 0.277-0.353 0.452-0.631 0.452z"></path>
</svg>
