<!-- Generated by IcoMoon.io -->
<svg version="1.1" xmlns="http://www.w3.org/2000/svg" width="32" height="32" viewBox="0 0 32 32">
<title>world_earth_alert</title>
<path d="M30.6 9.3c0-0.1 0-0.1-0.1-0.1-2.4-5.4-7.8-9.2-14.1-9.2h-0.1c0 0 0 0-0.1 0 0 0 0 0-0.1 0-4.2 0-8 1.7-10.8 4.5h2c1.5-1.2 3.2-2.1 5.1-2.7-0.7 0.7-1.3 1.6-1.8 2.7h1.3c0.1 0 0.1 0 0.2 0 1-1.7 2.3-2.9 3.6-3.2v7.5h-3l-0.4 0.8h0.5c0.5 0 1 0.2 1.4 0.6h1.6v5.3h-3.4l-0.8 1.3h4.2v5.3h-4l-0.8 1.4h4.8v6.3c-2-0.4-3.8-2.7-4.9-6l-0.8 1.6c0.7 1.6 1.5 3 2.5 3.9-1.6-0.3-2.8-0.9-4-1.6l-0.6 1.2c2.4 1.5 5.2 2.3 8.2 2.3 0 0 0 0 0.1 0 0 0 0 0 0.1 0h0.1c5.8-0.1 10.8-3.3 13.5-8 0 0 0-0.1 0.1-0.1 1-2.1 1.7-4.4 1.8-6.8v-0.1c0 0 0 0 0-0.1 0-0.2 0-0.4 0-0.5 0-2.2-0.5-4.3-1.3-6.3zM28.9 8.8h-5.2c-0.7-3-1.9-5.4-3.4-7 3.7 1.1 6.8 3.7 8.6 7zM23.2 15.5h-6.2v-5.3h5.7c0.3 1.6 0.5 3.4 0.5 5.3zM16.9 1.3c2.4 0.4 4.4 3.4 5.5 7.5h-5.5v-7.5zM16.9 16.9h6.2c-0.1 1.9-0.4 3.7-0.8 5.3h-5.4v-5.3zM16.9 29.8v-6.3h5.1c-1.1 3.5-3 5.9-5.1 6.3zM20.3 29.3c1.3-1.4 2.4-3.4 3.1-5.8h4.8c-1.8 2.8-4.6 4.8-7.9 5.8zM29 22.1h-5.2c0.4-1.6 0.6-3.4 0.7-5.3h6.1c-0.2 1.9-0.7 3.7-1.6 5.3zM24.5 15.5c0-1.9-0.2-3.7-0.5-5.3h5.5c0.7 1.6 1.1 3.4 1.1 5.3h-6.1z"></path>
<path d="M4.7 31.9c0 0-0.1 0-0.1 0-0.3-0.1-0.4-0.3-0.4-0.5v-5.9h-3.6c-0.2 0-0.4-0.1-0.5-0.2-0.1-0.3-0.1-0.5 0-0.6l3.1-8.5h-2.6c-0.2 0-0.4-0.1-0.5-0.2-0.1-0.3-0.1-0.5 0-0.6l3.6-9.4c0.1-0.2 0.3-0.4 0.5-0.4h7.7c0.2 0 0.4 0.1 0.5 0.3s0.1 0.4 0 0.6l-2.2 4.4h2.6c0.2 0 0.4 0.1 0.5 0.3s0.1 0.4 0 0.6l-5.5 8.5h2.6c0.2 0 0.4 0.1 0.5 0.3s0.1 0.4 0 0.6l-5.7 10.4c-0.1 0.2-0.3 0.3-0.5 0.3zM1.4 24.3h3.3c0.3 0 0.6 0.3 0.6 0.6v4.2l4.2-7.8h-2.8c-0.2 0-0.4-0.1-0.5-0.3s-0.1-0.4 0-0.6l5.5-8.5h-2.4c-0.2 0-0.4-0.1-0.5-0.3s-0.1-0.4 0-0.6l2.2-4.2h-6.4l-3.2 8.2h2.5c0.2 0 0.4 0.1 0.5 0.2 0.1 0.2 0.1 0.3 0.1 0.5l-3.1 8.6z"></path>
</svg>
