<!-- Generated by IcoMoon.io -->
<svg version="1.1" xmlns="http://www.w3.org/2000/svg" width="32" height="32" viewBox="0 0 32 32">
<title>world_earth_worldwide_international_language</title>
<path d="M16 2c-7.7 0-14 6.3-14 14s6.3 14 14 14 14-6.3 14-14-6.3-14-14-14zM27.9 15h-3.9c-0.1-2-0.4-3.9-0.9-5.6 0.7-0.3 1.4-0.8 2.1-1.2 1.5 1.9 2.5 4.2 2.7 6.8zM17 4.2c1.3 0.5 2.6 2 3.5 4.1-1.1 0.4-2.3 0.6-3.5 0.7v-4.8zM21 5.1c1 0.4 1.9 1 2.7 1.7-0.4 0.3-0.9 0.5-1.3 0.8-0.5-1-0.9-1.8-1.4-2.5zM15 4.2v4.8c-1.2-0.1-2.4-0.3-3.5-0.7 0.9-2.1 2.2-3.6 3.5-4.1zM9.6 7.6c-0.4-0.3-0.8-0.5-1.3-0.8 0.8-0.7 1.7-1.3 2.7-1.7-0.5 0.7-0.9 1.5-1.4 2.5zM15 11v4h-5c0.1-1.8 0.4-3.4 0.8-4.8 1.3 0.4 2.7 0.7 4.2 0.8zM15 17v4c-1.5 0.1-2.9 0.4-4.2 0.8-0.4-1.4-0.7-3.1-0.8-4.8h5zM15 23v4.8c-1.3-0.5-2.6-2-3.5-4.1 1.1-0.4 2.3-0.6 3.5-0.7zM11 26.9c-1-0.4-1.9-1-2.7-1.7 0.4-0.3 0.9-0.5 1.3-0.8 0.5 1 0.9 1.8 1.4 2.5zM17 27.8v-4.8c1.2 0.1 2.4 0.3 3.5 0.7-0.9 2.1-2.2 3.6-3.5 4.1zM22.4 24.4c0.5 0.2 0.9 0.5 1.3 0.8-0.8 0.7-1.7 1.3-2.7 1.7 0.5-0.7 0.9-1.5 1.4-2.5zM17 21v-4h5c-0.1 1.8-0.4 3.4-0.8 4.8-1.3-0.4-2.7-0.7-4.2-0.8zM17 15v-4c1.5-0.1 2.9-0.4 4.2-0.8 0.4 1.4 0.7 3.1 0.8 4.8h-5zM6.9 8.2c0.7 0.5 1.3 0.9 2.1 1.2-0.6 1.7-0.9 3.6-1 5.6h-3.9c0.2-2.6 1.2-4.9 2.8-6.8zM4.1 17h3.9c0.1 2 0.4 3.9 0.9 5.6-0.7 0.3-1.4 0.8-2.1 1.2-1.5-1.9-2.5-4.2-2.7-6.8zM25.1 23.8c-0.7-0.5-1.3-0.9-2.1-1.2 0.5-1.7 0.9-3.6 0.9-5.6h3.9c-0.1 2.6-1.1 4.9-2.7 6.8z"></path>
</svg>
