<!-- Generated by IcoMoon.io -->
<svg version="1.1" xmlns="http://www.w3.org/2000/svg" width="32" height="32" viewBox="0 0 32 32">
<title>wrist_watch_clock_time</title>
<path fill="none" stroke-linejoin="round" stroke-linecap="butt" stroke-miterlimit="4" stroke-width="2" stroke="#000" d="M11 7h10c2.209 0 4 1.791 4 4v10c0 2.209-1.791 4-4 4h-10c-2.209 0-4-1.791-4-4v-10c0-2.209 1.791-4 4-4z"></path>
<path fill="none" stroke-linejoin="round" stroke-linecap="butt" stroke-miterlimit="4" stroke-width="2" stroke="#000" d="M11 7v-4.5c0-0.276 0.224-0.5 0.5-0.5v0h9c0.276 0 0.5 0.224 0.5 0.5v0 4.5M21 25v4.5c0 0.276-0.224 0.5-0.5 0.5v0h-9c-0.276 0-0.5-0.224-0.5-0.5v0-4.5"></path>
</svg>
