<!-- Generated by IcoMoon.io -->
<svg version="1.1" xmlns="http://www.w3.org/2000/svg" width="32" height="32" viewBox="0 0 32 32">
<title>wrist_watch_clock_time</title>
<path d="M22 6.1v-3.6c0-0.8-0.7-1.5-1.5-1.5h-9c-0.8 0-1.5 0.7-1.5 1.5v3.6c-2.3 0.5-4 2.5-4 4.9v10c0 2.4 1.7 4.4 4 4.9v3.6c0 0.8 0.7 1.5 1.5 1.5h9c0.8 0 1.5-0.7 1.5-1.5v-3.6c2.3-0.5 4-2.5 4-4.9v-10c0-2.4-1.7-4.4-4-4.9zM20 3v3h-8v-3h8zM12 29v-3h8v3h-8zM24 21c0 1.7-1.3 3-3 3h-10c-1.7 0-3-1.3-3-3v-10c0-1.7 1.3-3 3-3h10c1.7 0 3 1.3 3 3v10z"></path>
</svg>
