<svg version="1.1" xmlns="http://www.w3.org/2000/svg" width="32" height="32" viewBox="0 0 32 32">
<title>wrist_watch_clock_time</title>
<path d="M20.602 17.333h-5.268c-0.369 0-0.667-0.298-0.667-0.667v-7.931c0-0.369 0.298-0.667 0.667-0.667s0.667 0.298 0.667 0.667v7.264h4.602c0.369 0 0.667 0.298 0.667 0.667s-0.298 0.667-0.667 0.667z"></path>
<path d="M16.003 26.816c-5.97 0-10.827-4.858-10.827-10.828s4.857-10.827 10.827-10.827 10.828 4.857 10.828 10.827-4.858 10.828-10.828 10.828zM16.003 6.494c-5.235 0-9.493 4.259-9.493 9.494s4.258 9.495 9.493 9.495c5.236 0 9.495-4.259 9.495-9.495s-4.259-9.494-9.495-9.494z"></path>
<path d="M21.845 32h-11.867c-0.32 0-0.594-0.227-0.655-0.542l-0.837-4.372c-0.069-0.361 0.168-0.711 0.529-0.78 0.358-0.065 0.711 0.167 0.781 0.53l0.734 3.831h10.765l0.733-3.799c0.072-0.363 0.423-0.592 0.781-0.529 0.362 0.070 0.598 0.419 0.529 0.781l-0.837 4.34c-0.061 0.314-0.336 0.54-0.655 0.54z"></path>
<path d="M22.681 5.86c-0.315 0-0.595-0.225-0.654-0.546l-0.737-3.981h-10.759l-0.736 3.95c-0.068 0.361-0.415 0.595-0.778 0.533-0.362-0.068-0.6-0.416-0.533-0.778l0.837-4.494c0.059-0.315 0.335-0.544 0.656-0.544h11.867c0.322 0 0.598 0.229 0.655 0.546l0.837 4.527c0.068 0.362-0.172 0.71-0.534 0.777-0.040 0.008-0.082 0.011-0.122 0.011z"></path>
<path d="M30 20h-1.37c-0.369 0-0.667-0.298-0.667-0.667s0.298-0.667 0.667-0.667h0.703v-4h-0.703c-0.369 0-0.667-0.298-0.667-0.667s0.298-0.667 0.667-0.667h1.37c0.369 0 0.667 0.298 0.667 0.667v5.333c0 0.369-0.298 0.667-0.667 0.667z"></path>
</svg>
