<svg version="1.1" xmlns="http://www.w3.org/2000/svg" width="32" height="32" viewBox="0 0 32 32">
<title>write_pencil_new_edit2</title>
<path d="M16 24h-10.667c-0.369 0-0.667-0.298-0.667-0.667s0.298-0.667 0.667-0.667h10.667c0.369 0 0.667 0.298 0.667 0.667s-0.298 0.667-0.667 0.667z"></path>
<path d="M16 20h-10.667c-0.369 0-0.667-0.298-0.667-0.667s0.298-0.667 0.667-0.667h10.667c0.369 0 0.667 0.298 0.667 0.667s-0.298 0.667-0.667 0.667z"></path>
<path d="M16 16h-10.667c-0.369 0-0.667-0.298-0.667-0.667s0.298-0.667 0.667-0.667h10.667c0.369 0 0.667 0.298 0.667 0.667s-0.298 0.667-0.667 0.667z"></path>
<path d="M9.333 12h-4c-0.369 0-0.667-0.298-0.667-0.667s0.298-0.667 0.667-0.667h4c0.369 0 0.667 0.298 0.667 0.667s-0.298 0.667-0.667 0.667z"></path>
<path d="M27.987 31.995h-0.001c-0.579 0-1.094-0.393-1.281-0.977-2.704-7.454-2.704-7.531-2.704-7.685 0-0.369 0.298-0.667 0.667-0.667 0.319 0 0.586 0.224 0.651 0.523 0.129 0.425 1.646 4.634 2.648 7.397 1.043-2.764 2.585-6.973 2.716-7.4 0.066-0.298 0.333-0.521 0.651-0.521 0.369 0 0.667 0.298 0.667 0.667 0 0.155 0 0.232-2.759 7.712-0.182 0.566-0.678 0.949-1.254 0.949z"></path>
<path d="M29.253 29.501h-2.602c-0.369 0-0.667-0.298-0.667-0.667s0.298-0.667 0.667-0.667h2.602c0.369 0 0.667 0.298 0.667 0.667s-0.298 0.667-0.667 0.667z"></path>
<path d="M19.599 32h-17.753c-0.984 0-1.846-0.806-1.846-1.725v-28.55c0-0.919 0.863-1.725 1.846-1.725h13.575c0.178 0 0.348 0.071 0.473 0.197l5.246 5.288c0.123 0.125 0.193 0.294 0.193 0.469v24.32c0 0.952-0.779 1.725-1.734 1.725zM1.846 1.333c-0.235 0-0.513 0.212-0.513 0.392v28.549c0 0.184 0.273 0.392 0.513 0.392h17.753c0.213 0 0.401-0.184 0.401-0.392v-24.045l-4.857-4.897h-13.297z"></path>
<path d="M20.643 6.622h-5.222c-0.369 0-0.667-0.298-0.667-0.667v-5.287c0-0.369 0.298-0.667 0.667-0.667s0.666 0.298 0.666 0.667v4.62h4.556c0.369 0 0.667 0.298 0.667 0.667s-0.298 0.667-0.667 0.667z"></path>
<path d="M31.333 24h-6.667c-0.369 0-0.667-0.298-0.667-0.667v-19.999c0-1.839 1.481-3.335 3.299-3.335h1.5c1.794 0 3.201 1.465 3.201 3.335v19.999c0 0.369-0.298 0.667-0.667 0.667zM25.333 22.667h5.333v-19.332c0-1.141-0.802-2.001-1.867-2.001h-1.5c-1.103 0-1.966 0.879-1.966 2.001v19.332z"></path>
</svg>
