<!-- Generated by IcoMoon.io -->
<svg version="1.1" xmlns="http://www.w3.org/2000/svg" width="32" height="32" viewBox="0 0 32 32">
<title>write_pencil_new_edit</title>
<path d="M31.903 6.834c0-0.744-0.288-1.444-0.816-1.969l-3.897-3.897c-1.050-1.050-2.884-1.053-3.938 0l-19.769 19.769c-0.003 0.003-0.003 0.003-0.006 0.006-0.009 0.009-0.019 0.019-0.031 0.034-0.069 0.078-0.116 0.172-0.138 0.266-0.25 0.578-0.906 2.378-3.097 8.563-0.247 0.6-0.091 1.303 0.4 1.797 0.338 0.337 0.766 0.516 1.191 0.516v0c0.191 0 0.381-0.034 0.563-0.109 6.247-2.169 8.066-2.819 8.644-3.066 0.094-0.025 0.181-0.069 0.259-0.131 0.022-0.016 0.034-0.028 0.047-0.044 0.003-0.003 0.003-0.003 0.006-0.006l19.759-19.759c0.531-0.525 0.822-1.225 0.822-1.969zM9.647 27.841c-1.225 0.441-3.475 1.231-5.594 1.972l-1.844-1.844c0.747-2.1 1.553-4.347 2-5.566l5.438 5.438zM1.897 30.563c-0.153 0.063-0.284-0.047-0.337-0.1-0.087-0.087-0.159-0.234-0.1-0.381 0.081-0.234 0.169-0.475 0.256-0.725l0.938 0.941c-0.259 0.094-0.513 0.181-0.756 0.266zM30.144 7.862l-19.297 19.294-1.775-1.775 15.662-15.662c0.259-0.259 0.259-0.681 0-0.944s-0.681-0.259-0.944 0l-15.662 15.662-3.231-3.228 19.297-19.297c0.55-0.55 1.503-0.547 2.053 0l3.897 3.897c0.275 0.275 0.425 0.638 0.425 1.025s-0.15 0.753-0.425 1.028z"></path>
</svg>
