<svg version="1.1" xmlns="http://www.w3.org/2000/svg" width="32" height="32" viewBox="0 0 32 32">
<title>write_pen_handwriting_signing</title>
<path d="M4.494 31.833c-0.171 0-0.342-0.065-0.471-0.195l-3.671-3.672c-0.246-0.246-0.262-0.639-0.036-0.904 9.389-11.007 8.491-19.186 8.481-19.267-0.038-0.303 0.134-0.594 0.419-0.706l12.245-4.794c0.249-0.094 0.527-0.038 0.715 0.15l7.369 7.369c0.187 0.187 0.246 0.467 0.15 0.714l-4.793 12.247c-0.112 0.284-0.41 0.458-0.706 0.418-0.023-0.003-0.276-0.033-0.733-0.033-2.008 0-9.275 0.615-18.534 8.514-0.125 0.105-0.279 0.159-0.433 0.159zM1.727 27.457l2.805 2.805c9.119-7.603 16.254-8.435 18.928-8.435 0.141 0 0.266 0.003 0.375 0.007l4.456-11.385-6.751-6.751-11.383 4.456c0.079 2.019-0.267 9.512-8.43 19.304z"></path>
<path d="M2.658 29.997c-0.171 0-0.341-0.065-0.471-0.195-0.26-0.26-0.26-0.682 0-0.943l13.775-13.776c0.26-0.26 0.682-0.26 0.943 0s0.26 0.682 0 0.943l-13.775 13.776c-0.13 0.13-0.301 0.195-0.471 0.195z"></path>
<path d="M17.56 16.689c-1.246 0-2.26-1.014-2.26-2.26s1.014-2.26 2.26-2.26 2.26 1.014 2.26 2.26-1.014 2.26-2.26 2.26zM17.56 13.501c-0.51 0-0.926 0.416-0.926 0.927s0.415 0.927 0.926 0.927c0.512 0 0.927-0.416 0.927-0.927s-0.415-0.927-0.927-0.927z"></path>
<path d="M31.177 9.228c-0.171 0-0.341-0.065-0.471-0.195l-7.802-7.803c-0.26-0.26-0.26-0.682 0-0.943s0.682-0.26 0.943 0l7.802 7.803c0.26 0.26 0.26 0.682 0 0.943-0.13 0.13-0.301 0.195-0.471 0.195z"></path>
</svg>
