<!-- Generated by IcoMoon.io -->
<svg version="1.1" xmlns="http://www.w3.org/2000/svg" width="32" height="32" viewBox="0 0 32 32">
<title>www_website_address_url_browser</title>
<path d="M17.197 20h-16.53c-0.369 0-0.667-0.298-0.667-0.667v-14.667c0-0.369 0.298-0.667 0.667-0.667h30c0.369 0 0.667 0.298 0.667 0.667s-0.298 0.667-0.667 0.667h-29.333v13.333h15.863c0.369 0 0.667 0.298 0.667 0.667s-0.298 0.667-0.667 0.667z"></path>
<path d="M30.667 20h-10.533c-0.369 0-0.667-0.298-0.667-0.667s0.298-0.667 0.667-0.667h10.533c0.369 0 0.667 0.298 0.667 0.667s-0.298 0.667-0.667 0.667z"></path>
<path d="M28.669 16.316c-0.369 0-0.667-0.299-0.667-0.667v-7.296c0-0.369 0.298-0.667 0.667-0.667s0.667 0.298 0.667 0.667v7.296c0 0.368-0.298 0.667-0.667 0.667z"></path>
<path d="M22.372 28.981v0c-0.354 0-0.684-0.191-0.861-0.499l-1.303-2.288-0.769 0.771c-0.534 0.533-1.555 0.203-1.681-0.534l-1.602-9.184c-0.051-0.289 0.027-0.583 0.215-0.806 0.348-0.415 1.023-0.47 1.427-0.103l7.017 6.302c0.284 0.258 0.395 0.643 0.293 1.008-0.103 0.363-0.396 0.634-0.766 0.707l-0.686 0.135 1.286 1.698c0.164 0.215 0.233 0.493 0.189 0.763-0.046 0.269-0.202 0.51-0.428 0.661l-1.776 1.198c-0.163 0.11-0.356 0.169-0.555 0.169zM20.355 24.437c0.030 0 0.059 0.001 0.089 0.007 0.207 0.027 0.388 0.15 0.491 0.331l1.552 2.725 1.176-0.793-1.714-2.262c-0.139-0.182-0.173-0.425-0.092-0.639 0.082-0.215 0.269-0.372 0.495-0.417l1.066-0.211-5.78-5.191 1.322 7.572 0.925-0.926c0.125-0.126 0.296-0.195 0.471-0.195z"></path>
<path d="M5.123 14.712c-0.278 0-0.527-0.173-0.624-0.433l-1.379-3.691c-0.129-0.345 0.046-0.729 0.391-0.858 0.348-0.128 0.729 0.046 0.858 0.391l0.75 2.007 0.738-2.004c0.096-0.262 0.345-0.436 0.624-0.436 0.001 0 0.001 0 0.002 0 0.278 0 0.527 0.173 0.624 0.434l0.75 2.007 0.737-2.004c0.127-0.346 0.511-0.52 0.856-0.395 0.345 0.127 0.522 0.51 0.395 0.856l-1.358 3.691c-0.096 0.262-0.345 0.436-0.624 0.436-0.001 0-0.001 0-0.002 0-0.278 0-0.527-0.173-0.624-0.434l-0.75-2.006-0.737 2.004c-0.096 0.261-0.345 0.436-0.624 0.436-0.001 0-0.001 0-0.002 0z"></path>
<path d="M15.053 14.712c-0.278 0-0.527-0.173-0.624-0.433l-0.75-2.007-0.738 2.004c-0.096 0.261-0.345 0.436-0.624 0.436-0.001 0-0.001 0-0.002 0-0.278 0-0.527-0.173-0.624-0.433l-1.379-3.691c-0.129-0.345 0.046-0.729 0.391-0.858 0.346-0.128 0.729 0.046 0.858 0.391l0.75 2.007 0.738-2.004c0.096-0.261 0.345-0.436 0.624-0.436 0.001 0 0.001 0 0.002 0 0.278 0 0.527 0.173 0.624 0.433l0.75 2.007 0.737-2.003c0.128-0.347 0.508-0.521 0.856-0.396 0.345 0.127 0.522 0.51 0.396 0.855l-1.358 3.691c-0.096 0.262-0.345 0.436-0.624 0.437-0.001-0-0.001-0-0.002-0z"></path>
<path d="M22.131 14.712c-0.279 0-0.527-0.173-0.625-0.433l-0.75-2.008-0.737 2.005c-0.096 0.262-0.346 0.436-0.625 0.436h-0.001c-0.279 0-0.527-0.173-0.625-0.434l-1.379-3.691c-0.129-0.344 0.047-0.729 0.392-0.857 0.342-0.128 0.729 0.046 0.858 0.391l0.749 2.007 0.737-2.004c0.096-0.261 0.346-0.436 0.625-0.436h0.001c0.279 0 0.527 0.173 0.625 0.433l0.75 2.008 0.737-2.005c0.129-0.346 0.509-0.52 0.857-0.395 0.345 0.127 0.522 0.51 0.396 0.856l-1.358 3.691c-0.096 0.261-0.346 0.436-0.625 0.436h-0.001z"></path>
<path d="M24.707 14.72c-0.175 0-0.348-0.080-0.467-0.201-0.133-0.133-0.199-0.293-0.199-0.48 0-0.173 0.066-0.333 0.199-0.467 0.24-0.253 0.694-0.253 0.947 0 0.12 0.133 0.187 0.307 0.187 0.467 0 0.173-0.068 0.347-0.187 0.467-0.133 0.134-0.293 0.214-0.479 0.214z"></path>
</svg>
