<svg version="1.1" xmlns="http://www.w3.org/2000/svg" width="32" height="32" viewBox="0 0 32 32">
<title>young_boy_user_profile_avatar_man_male</title>
<path d="M15.997 32.005h-14.676c-0.723 0-1.311-0.587-1.311-1.31v-2.299c0-0.352 0.145-0.694 0.398-0.94 2.837-2.757 10.781-5.786 11.376-5.786 0.107 0 0.218 0.026 0.313 0.077 0.308 0.16 0.44 0.531 0.304 0.852-0.264 0.621-0.601 1.323-0.967 1.879 1.568 0.617 4.357 2.318 5.217 6.734 0.038 0.195-0.014 0.398-0.141 0.552s-0.315 0.242-0.514 0.242zM10.488 23.47c-2.341 0.908-7.123 2.971-9.151 4.943l0.007 2.283 13.813-0.022c-1.244-4.482-4.874-5.18-5.036-5.21-0.296-0.052-0.522-0.297-0.549-0.596s0.149-0.581 0.431-0.685c0.092-0.068 0.274-0.338 0.485-0.712z"></path>
<path d="M30.673 32.005h-14.676c-0.199 0-0.388-0.089-0.514-0.242s-0.178-0.357-0.14-0.552c0.859-4.417 3.648-6.117 5.215-6.734-0.366-0.556-0.701-1.258-0.965-1.88-0.065-0.152-0.070-0.323-0.017-0.479 0.096-0.275 0.322-0.493 0.658-0.447 0.064 0.003 0.128 0.016 0.187 0.038 1.415 0.362 8.513 3.173 11.164 5.749 0.253 0.245 0.397 0.587 0.397 0.939v2.299c0 0.723-0.587 1.31-1.31 1.31zM16.839 30.672h13.811v-2.276c-1.939-1.875-6.681-3.944-9.12-4.891 0.22 0.379 0.401 0.628 0.503 0.698 0.284 0.104 0.439 0.376 0.41 0.677-0.027 0.301-0.276 0.534-0.573 0.585-0.16 0.029-3.788 0.727-5.031 5.207z"></path>
<path d="M12.56 20.714c-0.263 0-0.529-0.167-0.653-0.41-0.098-0.194-0.126-0.436-0.12-1.13-1.12-1.193-1.89-2.796-2.126-4.417-0.575-0.201-1.008-0.688-1.153-1.335-0.154-0.684 0.048-1.344 0.511-1.784-0.165-0.647-0.248-1.311-0.248-1.981 0-0.641 0.075-1.274 0.224-1.887-0.162 0.219-0.447 0.325-0.724 0.241-0.348-0.103-0.55-0.465-0.454-0.816 0.013-0.048 1.090-3.797 4.631-5.191-0.325-0.037-0.654-0.035-0.987 0.029-0.339 0.065-0.676-0.145-0.768-0.48s0.091-0.686 0.419-0.803c0.267-0.094 6.374-2.21 9.527 1.678 0.966-0.115 2.651 0.189 3.911 2.365 0.176 0.304 0.086 0.692-0.206 0.888-0.263 0.176-0.611 0.142-0.836-0.075 0.449 0.883 0.737 2.043 0.418 3.428-0.042 0.182-0.158 0.338-0.32 0.43-0.072 0.041-0.203 0.106-0.363 0.144 0 0.016 0 0.033 0 0.049 0 0.672-0.083 1.336-0.247 1.981 0.462 0.44 0.664 1.101 0.51 1.785-0.146 0.65-0.582 1.138-1.154 1.337-0.237 1.62-1.007 3.223-2.126 4.415 0.004 0.707-0.025 0.936-0.116 1.12-0.164 0.329-0.564 0.464-0.895 0.298-0.299-0.15-0.437-0.495-0.336-0.805 0.026-0.178 0.014-0.559 0.012-0.757-0.003-0.181 0.068-0.473 0.198-0.6 1.129-1.111 1.874-2.714 1.991-4.29 0.026-0.348 0.316-0.617 0.665-0.617 0.337 0 0.434-0.275 0.46-0.394 0.017-0.075 0.082-0.455-0.267-0.62-0.302-0.143-0.452-0.489-0.349-0.807 0.212-0.66 0.32-1.349 0.32-2.047 0-0.639-0.090-1.271-0.267-1.879-0.096-0.332 0.077-0.682 0.4-0.808 0.191-0.076 0.405-0.055 0.577 0.046-0.348-1.406-1.437-2.246-1.5-2.293-0.234-0.177-0.327-0.488-0.225-0.764 0.031-0.083 0.077-0.156 0.133-0.219 0 0-0.001 0-0.003 0-0.237 0-0.4 0.046-0.448 0.061-0.277 0.089-0.592-0.010-0.76-0.249-1.090-1.56-2.803-2.051-4.387-2.111 0.122 0.029 0.238 0.051 0.346 0.063 0.358 0.038 0.621 0.355 0.594 0.714-0.029 0.361-0.349 0.643-0.697 0.615-2.705-0.125-4.339 1.102-5.319 2.34 0.257-0.070 0.527 0.020 0.693 0.227 0.176 0.221 0.195 0.53 0.045 0.769-0.648 1.037-0.99 2.243-0.99 3.488 0 0.697 0.108 1.386 0.321 2.047 0.102 0.319-0.047 0.665-0.35 0.807-0.348 0.165-0.283 0.544-0.266 0.619 0.027 0.119 0.123 0.395 0.44 0.395 0.349 0 0.659 0.269 0.685 0.617 0.117 1.574 0.861 3.177 1.99 4.288 0.128 0.125 0.199 0.297 0.199 0.475-0.005 0.335-0.017 0.737 0.014 0.906 0.167 0.328 0.016 0.672-0.313 0.84-0.084 0.043-0.174 0.063-0.264 0.063z"></path>
</svg>
