<!-- Generated by IcoMoon.io -->
<svg version="1.1" xmlns="http://www.w3.org/2000/svg" width="32" height="32" viewBox="0 0 32 32">
<title>youtube</title>
<path d="M29.844 10.353c0 0-0.275-1.947-1.122-2.803-1.075-1.125-2.278-1.131-2.831-1.197-3.953-0.287-9.884-0.287-9.884-0.287h-0.012c0 0-5.928 0-9.884 0.287-0.553 0.066-1.756 0.072-2.831 1.197-0.844 0.856-1.122 2.803-1.122 2.803s-0.281 2.287-0.281 4.572v2.144c0 2.284 0.281 4.572 0.281 4.572s0.275 1.947 1.122 2.803c1.075 1.125 2.487 1.091 3.116 1.206 2.259 0.216 9.606 0.284 9.606 0.284s5.938-0.009 9.891-0.294c0.553-0.066 1.756-0.072 2.831-1.197 0.847-0.856 1.122-2.803 1.122-2.803s0.281-2.288 0.281-4.572v-2.144c0-2.287-0.281-4.572-0.281-4.572zM13.084 19.666v-7.938l7.634 3.981-7.634 3.956z"></path>
</svg>
