<!-- Generated by IcoMoon.io -->
<svg version="1.1" xmlns="http://www.w3.org/2000/svg" width="32" height="32" viewBox="0 0 32 32">
<title>zoom_expand_maximize_window</title>
<path d="M19 5c0-0.552 0.448-1 1-1h7c0.552 0 1 0.448 1 1v7c0 0.552-0.448 1-1 1s-1-0.448-1-1v-4.587l-6.293 6.294c-0.39 0.391-1.024 0.391-1.414 0s-0.391-1.024-0-1.414l6.291-6.293h-4.584c-0.552 0-1-0.448-1-1zM13.707 18.293c0.391 0.39 0.391 1.024 0 1.414l-6.291 6.293h4.584c0.552 0 1 0.448 1 1s-0.448 1-1 1h-7c-0.552 0-1-0.448-1-1v-7c0-0.552 0.448-1 1-1s1 0.448 1 1v4.587l6.293-6.294c0.39-0.391 1.024-0.391 1.414-0z"></path>
</svg>
