<!-- Generated by IcoMoon.io -->
<svg version="1.1" xmlns="http://www.w3.org/2000/svg" width="32" height="32" viewBox="0 0 32 32">
<title>zoom_out</title>
<path d="M19.8 13.1h-11.4c-0.6 0-1 0.4-1 1s0.4 1 1 1h11.4c0.6 0 1-0.4 1-1s-0.5-1-1-1z"></path>
<path d="M28.7 27.3l-6.6-6.6c1.6-1.9 2.5-4.3 2.5-6.9 0-6-4.8-10.8-10.8-10.8s-10.8 4.8-10.8 10.7c0 6 4.8 10.8 10.8 10.8 2.6 0 5-0.9 6.9-2.5v0l6.6 6.6c0.4 0.4 1 0.4 1.4 0 0.4-0.3 0.4-0.9 0-1.3zM13.8 22.6c-4.9 0-8.8-3.9-8.8-8.8s3.9-8.8 8.8-8.8 8.8 3.9 8.8 8.8c0 4.8-3.9 8.8-8.8 8.8z"></path>
</svg>
