<svg version="1.1" xmlns="http://www.w3.org/2000/svg" width="32" height="32" viewBox="0 0 32 32">
<title>zoom_out</title>
<path d="M29.355 31.533c-0.578 0-1.156-0.22-1.596-0.66l-8.542-8.54c-0.26-0.26-0.26-0.682 0-0.943s0.682-0.26 0.943 0l8.542 8.54c0.35 0.35 0.958 0.349 1.306 0 0.175-0.175 0.271-0.406 0.271-0.654s-0.096-0.479-0.271-0.654l-8.54-8.539c-0.26-0.26-0.26-0.682 0-0.943s0.682-0.26 0.943 0l8.54 8.539c0.426 0.426 0.661 0.993 0.661 1.596s-0.236 1.171-0.661 1.596c-0.44 0.44-1.018 0.66-1.595 0.66z"></path>
<path d="M12.68 24.881c-6.771 0-12.28-5.509-12.28-12.28s5.508-12.279 12.28-12.279c6.77 0 12.279 5.508 12.279 12.279s-5.509 12.28-12.279 12.28zM12.68 1.656c-6.036 0-10.947 4.91-10.947 10.946s4.911 10.947 10.947 10.947 10.946-4.91 10.946-10.947c-0-6.036-4.91-10.946-10.946-10.946z"></path>
<path d="M18.949 13.456h-12.491c-0.369 0-0.667-0.298-0.667-0.667s0.298-0.667 0.667-0.667h12.491c0.369 0 0.667 0.298 0.667 0.667s-0.298 0.667-0.667 0.667z"></path>
</svg>
