<!-- Generated by IcoMoon.io -->
<svg version="1.1" xmlns="http://www.w3.org/2000/svg" width="32" height="32" viewBox="0 0 32 32">
<title>zoom_out</title>
<path fill="none" stroke="#000" stroke-linejoin="round" stroke-linecap="round" stroke-miterlimit="4" stroke-width="2" d="M19.75 14.063h-11.375"></path>
<path d="M22.625 13.75c0-4.867-3.945-8.813-8.813-8.813s-8.813 3.945-8.813 8.813c0 4.867 3.945 8.813 8.813 8.813s8.813-3.945 8.813-8.813zM20.684 22.098c-1.868 1.54-4.262 2.464-6.872 2.464-5.972 0-10.813-4.841-10.813-10.813s4.841-10.813 10.813-10.813c5.972 0 10.813 4.841 10.813 10.813 0 2.642-0.947 5.062-2.521 6.94l6.603 6.603c0.39 0.391 0.39 1.024 0 1.414s-1.024 0.39-1.414 0l-6.609-6.609z"></path>
</svg>
