<svg version="1.1" xmlns="http://www.w3.org/2000/svg" width="32" height="32" viewBox="0 0 32 32">
<title>zoom_expand_maximize_window</title>
<path d="M26 14.001c-0.369 0-0.667-0.298-0.667-0.667v-6.667h-6.667c-0.369 0-0.667-0.298-0.667-0.667s0.298-0.667 0.667-0.667h7.333c0.369 0 0.667 0.298 0.667 0.667v7.333c0 0.368-0.298 0.667-0.667 0.667z"></path>
<path d="M13.333 26.668h-7.333c-0.369 0-0.667-0.298-0.667-0.667v-7.333c0-0.369 0.298-0.667 0.667-0.667s0.667 0.298 0.667 0.667v6.667h6.667c0.369 0 0.667 0.298 0.667 0.667s-0.298 0.667-0.667 0.667z"></path>
<path d="M6 26.668c-0.171 0-0.341-0.065-0.471-0.195-0.26-0.26-0.26-0.682 0-0.943l20-20c0.26-0.26 0.682-0.26 0.943 0s0.26 0.682 0 0.943l-20 20c-0.13 0.13-0.301 0.195-0.471 0.195z"></path>
<path d="M31.333 32.001h-30.667c-0.369 0-0.667-0.298-0.667-0.667v-30.667c0-0.369 0.298-0.667 0.667-0.667h30.667c0.369 0 0.667 0.298 0.667 0.667v30.667c0 0.368-0.298 0.667-0.667 0.667zM1.333 30.668h29.333v-29.333h-29.333v29.333z"></path>
</svg>
