<!-- Generated by IcoMoon.io -->
<svg version="1.1" xmlns="http://www.w3.org/2000/svg" width="32" height="32" viewBox="0 0 32 32">
<title>zoom_in</title>
<path d="M14.063 7.375c0.552 0 1 0.448 1 1v4.688h4.688c0.552 0 1 0.448 1 1s-0.448 1-1 1h-4.688v4.688c0 0.552-0.448 1-1 1s-1-0.448-1-1v-4.688h-4.688c-0.552 0-1-0.448-1-1s0.448-1 1-1h4.688v-4.688c0-0.552 0.448-1 1-1z"></path>
<path d="M22.625 13.75c0-4.867-3.945-8.813-8.813-8.813s-8.813 3.945-8.813 8.813c0 4.867 3.945 8.813 8.813 8.813s8.813-3.945 8.813-8.813zM20.684 22.098c-1.868 1.54-4.262 2.464-6.872 2.464-5.972 0-10.813-4.841-10.813-10.813s4.841-10.813 10.813-10.813c5.972 0 10.813 4.841 10.813 10.813 0 2.642-0.947 5.062-2.521 6.94l6.603 6.603c0.39 0.391 0.39 1.024 0 1.414s-1.024 0.39-1.414 0l-6.609-6.609z"></path>
</svg>
