<!-- Generated by IcoMoon.io -->
<svg version="1.1" xmlns="http://www.w3.org/2000/svg" width="32" height="32" viewBox="0 0 32 32">
<title>zoom_collapse_minimize_window</title>
<path d="M19 14h7c0.6 0 1-0.4 1-1s-0.4-1-1-1h-4.6l6.3-6.3c0.4-0.4 0.4-1 0-1.4s-1-0.4-1.4 0l-6.3 6.3v-4.6c0-0.6-0.4-1-1-1s-1 0.4-1 1v7c0 0.6 0.4 1 1 1z"></path>
<path d="M13 18h-7c-0.6 0-1 0.4-1 1s0.4 1 1 1h4.6l-6.3 6.3c-0.4 0.4-0.4 1 0 1.4 0.2 0.2 0.4 0.3 0.7 0.3s0.5-0.1 0.7-0.3l6.3-6.3v4.6c0 0.6 0.4 1 1 1s1-0.4 1-1v-7c0-0.6-0.4-1-1-1z"></path>
<path d="M13 5c-0.6 0-1 0.4-1 1v4.6l-6.3-6.3c-0.4-0.4-1-0.4-1.4 0s-0.4 1 0 1.4l6.3 6.3h-4.6c-0.6 0-1 0.4-1 1s0.4 1 1 1h7c0.6 0 1-0.4 1-1v-7c0-0.6-0.4-1-1-1z"></path>
<path d="M21.4 20h4.6c0.6 0 1-0.4 1-1s-0.4-1-1-1h-7c-0.6 0-1 0.4-1 1v7c0 0.6 0.4 1 1 1s1-0.4 1-1v-4.6l6.3 6.3c0.2 0.2 0.5 0.3 0.7 0.3s0.5-0.1 0.7-0.3c0.4-0.4 0.4-1 0-1.4l-6.3-6.3z"></path>
</svg>
