<svg version="1.1" xmlns="http://www.w3.org/2000/svg" width="32" height="32" viewBox="0 0 32 32">
<title>zoom_collapse_minimize_window</title>
<path d="M3.017 22.316h6.667v6.667c0 0.368 0.299 0.667 0.667 0.667s0.667-0.299 0.667-0.667v-7.057l10.908-10.908h7.057c0.368 0 0.667-0.299 0.667-0.667s-0.299-0.667-0.667-0.667h-6.667v-6.667c0-0.368-0.299-0.667-0.667-0.667s-0.667 0.299-0.667 0.667v7.057l-10.908 10.908h-7.057c-0.368 0-0.667 0.299-0.667 0.667s0.299 0.667 0.667 0.667z"></path>
<path d="M31.333 0h-30.667c-0.368 0-0.667 0.299-0.667 0.667v30.667c0 0.368 0.299 0.667 0.667 0.667h30.667c0.368 0 0.667-0.299 0.667-0.667v-30.667c0-0.368-0.299-0.667-0.667-0.667zM30.667 30.667h-29.333v-29.333h29.333v29.333z"></path>
</svg>
