<svg version="1.0" xmlns="http://www.w3.org/2000/svg" width="32" height="32" viewBox="0 0 32 32">
  <title>zoom_contract_minimize_window</title>
  <desc>contract,collapse,corners,decrease,expand,minimize,reduce,resize,shrink,size,window,zoom</desc>
  <path d="M20,6v4.58s6.29-6.29,6.29-6.29c.39-.39,1.02-.39,1.41,0s.39,1.02,0,1.41l-6.29,6.29h4.59c.55,0,1,.45,1,1,0,.55-.45,1-1,1h-7c-.55,0-1-.45-1-1v-7c0-.55.45-1,1-1,.55,0,1,.45,1,1ZM4.29,26.29l6.29-6.29h-4.59c-.55,0-1-.45-1-1,0-.55.45-1,1-1h7c.55,0,1,.45,1,1v7c0,.55-.45,1-1,1s-1-.45-1-1v-4.58s-6.29,6.29-6.29,6.29c-.39.39-1.02.39-1.41,0-.39-.39-.39-1.02,0-1.41Z"/>
</svg>