<svg xmlns="http://www.w3.org/2000/svg" xmlns:xlink="http://www.w3.org/1999/xlink" width="0" height="0" style="display:none;"><symbol viewBox="0 0 32 32" id="di-check">
  <title>check</title>
  <tags>check,ok,confirm,success,checkmark,tick,mark,accept,done,yes,checklist,list</tags>
  <path d="M10.933 26.667c-0.267 0-0.4-0.133-0.533-0.267l-9.6-9.733c-0.267-0.267-0.133-0.667 0.133-0.933 0.133-0.133 0.267-0.133 0.4-0.133 0.267 0 0.4 0.133 0.533 0.267l9.067 9.067 19.2-19.333c0.133-0.133 0.4-0.267 0.533-0.267s0.267 0 0.4 0.133c0.267 0.267 0.267 0.667 0.133 0.933l-19.733 20c-0.133 0.133-0.4 0.267-0.533 0.267z"></path>
</symbol><symbol viewBox="0 0 32 32" id="di-delete">
  <title>delete</title>
  <tags>delete,remove,trash,trash-can,edition,bin,garbage,empty,recycle</tags>
  <path d="M25.849 32.052h-19.698c-0.35 0-0.64-0.269-0.665-0.619l-1.837-25.345c-0.014-0.185 0.050-0.367 0.176-0.502s0.303-0.213 0.488-0.213h23.372c0.185 0 0.362 0.077 0.488 0.213s0.19 0.317 0.177 0.502l-1.837 25.345c-0.026 0.349-0.316 0.619-0.665 0.619zM6.771 30.719h18.458l1.741-24.012h-21.939l1.74 24.012z"></path>
  <path d="M30.414 6.707h-28.827c-0.369 0-0.667-0.298-0.667-0.667s0.298-0.667 0.667-0.667h28.827c0.369 0 0.667 0.298 0.667 0.667s-0.298 0.667-0.667 0.667z"></path>
  <path d="M20.303 6.707h-8.607c-0.214 0-0.414-0.102-0.54-0.275s-0.16-0.395-0.094-0.598l1.323-4.051c0.089-0.274 0.345-0.46 0.633-0.46h5.961c0.289 0 0.544 0.186 0.634 0.46l1.323 4.051c0.066 0.203 0.031 0.426-0.095 0.598-0.125 0.173-0.326 0.275-0.539 0.275zM12.616 5.374h6.768l-0.887-2.717h-4.994l-0.887 2.717z"></path>
  <path d="M16.027 25.043c-1.067 0-2.139-0.26-3.113-0.798-0.323-0.177-0.44-0.583-0.262-0.905s0.584-0.443 0.906-0.262c2 1.102 4.521 0.74 6.13-0.881 1.615-1.624 1.974-4.164 0.876-6.177-0.177-0.324-0.057-0.729 0.266-0.905s0.728-0.057 0.904 0.266c1.38 2.528 0.927 5.717-1.1 7.756-1.242 1.251-2.917 1.906-4.605 1.906z"></path>
  <path d="M10.926 22.003c-0.236 0-0.465-0.126-0.586-0.348-1.378-2.527-0.925-5.717 1.101-7.757 2.028-2.043 5.204-2.496 7.719-1.108 0.323 0.178 0.44 0.584 0.262 0.906s-0.586 0.437-0.905 0.262c-2-1.105-4.52-0.74-6.131 0.88-1.613 1.624-1.973 4.164-0.876 6.178 0.176 0.323 0.057 0.728-0.266 0.905-0.102 0.055-0.211 0.081-0.319 0.081z"></path>
  <path d="M16.051 15.266c-0.255 0-0.499-0.148-0.609-0.397-0.149-0.337 0.003-0.731 0.339-0.88l2.201-0.976-0.971-2.217c-0.147-0.337 0.007-0.731 0.344-0.878 0.333-0.147 0.731 0.006 0.878 0.343l1.237 2.825c0.147 0.337-0.005 0.729-0.34 0.877l-2.807 1.245c-0.089 0.039-0.18 0.057-0.271 0.057z"></path>
  <path d="M14.473 27.152c-0.257 0-0.502-0.148-0.611-0.4l-1.237-2.824c-0.147-0.336 0.005-0.728 0.341-0.876l2.807-1.245c0.337-0.15 0.73 0.001 0.88 0.339s-0.003 0.731-0.339 0.88l-2.201 0.975 0.971 2.217c0.148 0.337-0.006 0.731-0.343 0.878-0.087 0.038-0.178 0.056-0.267 0.056z"></path>
</symbol><symbol viewBox="0 0 36 32" id="di-more_options">
  <title>more_options</title>
  <tags>menu,settings,preferences,list,dots</tags>
  <path d="M14.706 3.131c-0.009 1.734 1.394 3.147 3.131 3.156s3.147-1.394 3.156-3.131c0.006-1.734-1.397-3.147-3.131-3.156v0c-1.738-0.003-3.147 1.394-3.156 3.131z"></path>
  <path d="M14.637 15.988c-0.009 1.734 1.394 3.147 3.131 3.156 1.734 0.009 3.147-1.394 3.156-3.131 0.009-1.734-1.394-3.147-3.131-3.156v0c-1.734-0.009-3.147 1.394-3.156 3.131z"></path>
  <path d="M14.572 28.844c-0.009 1.734 1.394 3.147 3.131 3.156 1.734 0.009 3.147-1.394 3.156-3.131 0.009-1.734-1.394-3.147-3.131-3.156v0c-1.738-0.009-3.15 1.394-3.156 3.131z"></path>
</symbol><symbol viewBox="0 0 32 32" id="di-refresh">
  <title>refresh</title>
  <tags>refresh,reload,update,sync,arrow,rotate,repeat,loading,loop</tags>
  <path d="M32 13.184c-0.256 0.64-0.736 0.832-1.408 0.832-3.136-0.032-6.272 0-9.408 0-0.256 0-0.512-0.032-0.768-0.128-0.384-0.128-0.544-0.448-0.352-0.832 0.128-0.224 0.288-0.448 0.48-0.64 1.344-1.376 2.72-2.72 4.064-4.064 0.096-0.096 0.16-0.16 0.288-0.256-0.224-0.256-0.384-0.512-0.608-0.704-2.496-2.336-5.44-3.488-8.864-3.36-5.536 0.192-10.368 4.448-11.264 9.92-1.056 6.528 3.104 12.576 9.6 13.824 5.92 1.152 11.776-2.208 13.664-8.128 0.256-0.768 0.672-1.344 1.472-1.568 0.736-0.192 1.408-0.032 1.952 0.512s0.736 1.248 0.48 1.984c-1.536 4.864-4.64 8.32-9.344 10.272-1.504 0.64-3.104 0.992-4.768 1.088-0.096 0-0.192 0.032-0.288 0.064-0.64 0-1.28 0-1.952 0-0.096-0.032-0.192-0.032-0.256-0.064-0.768-0.128-1.568-0.192-2.336-0.352-8.448-1.984-13.728-10.144-12.096-18.656 1.408-7.2 7.68-12.64 15.008-12.928 3.68-0.16 7.040 0.864 10.016 3.040 0.864 0.64 1.664 1.376 2.528 2.112 0.032-0.032 0.096-0.128 0.192-0.224 0.864-0.864 1.696-1.728 2.56-2.56 0.64-0.608 1.088-0.48 1.376 0.32 0 0.032 0 0.032 0.032 0.064 0 3.488 0 6.944 0 10.432z"></path>
</symbol><symbol viewBox="0 0 32 32" id="di-save">
  <title>save</title>
  <tags>save,business,disk,floppy,design,devices,hardware,edition,computer,tech</tags>
  <path d="M0.067 0c0.067 0 0.133 0 0.133 0 8.333 0 16.667 0 25 0 0.133 0 0.2 0 0.267 0.133 2.133 2.2 4.333 4.333 6.533 6.533 0.067 0.067 0.133 0.133 0.133 0.267 0 8.333 0 16.667 0 25 0 0.067 0 0.133 0 0.133-10.667 0-21.333 0-32 0-0.067-10.733-0.067-21.4-0.067-32.067zM1.4 30.667c9.8 0 19.6 0 29.333 0 0-0.067 0-0.133 0-0.2 0-4.2 0-8.4 0-12.6 0-3.467 0-7 0-10.467 0-0.067 0-0.2-0.067-0.2-1.933-1.933-3.867-3.867-5.8-5.8 0 0-0.067-0.067-0.133-0.067-0.267 0-0.467 0-0.733 0 0 3.6 0 7.133 0 10.667-5.333 0-10.6 0-15.933 0 0-3.533 0-7.133 0-10.667-2.2 0-4.467 0-6.667 0 0 9.8 0 19.533 0 29.333zM22.667 1.333c-4.4 0-8.867 0-13.267 0 0 3.133 0 6.267 0 9.333 4.4 0 8.867 0 13.267 0 0-3.067 0-6.2 0-9.333z"></path>
  <path d="M9.4 22.6c-0.733 0-0.733-0.4-0.733-0.667s0-0.667 0.733-0.667c2.2 0 4.4 0 6.6 0s4.4 0 6.667 0c0.333 0 0.467 0.133 0.533 0.267 0.133 0.2 0.133 0.333 0.133 0.467s0 0.267-0.067 0.4c-0.067 0.133-0.267 0.267-0.533 0.267-2.2 0-4.4 0-6.6 0s-4.467-0.067-6.733-0.067z"></path>
  <path d="M9.4 26.6c-0.733 0-0.733-0.4-0.733-0.667s0-0.667 0.733-0.667c2.2 0 4.4 0 6.6 0s4.4 0 6.667 0c0.333 0 0.467 0.133 0.533 0.267 0.133 0.2 0.133 0.333 0.133 0.467s0 0.267-0.067 0.4c-0.067 0.133-0.267 0.267-0.533 0.267-2.2 0-4.4 0-6.6 0s-4.467-0.067-6.733-0.067z"></path>
  <path d="M18.733 4c0-0.667 0.467-0.667 0.667-0.667s0.667 0 0.667 0.667c0 0.667 0 1.333 0 2s0 1.333 0 2c0 0.667-0.467 0.667-0.667 0.667s-0.667 0-0.667-0.667c0-0.667 0-1.333 0-2s0-1.333 0-2z"></path>
</symbol></svg>